<svg version="1.1" xmlns="http://www.w3.org/2000/svg" xmlns:xlink="http://www.w3.org/1999/xlink" width="35.02992" height="57.74222" viewBox="0,0,35.02992,57.74222"><g transform="translate(-224.51337,-157.7007)"><g data-paper-data="{&quot;isPaintingLayer&quot;:true}" fill-rule="nonzero" stroke="none" stroke-linecap="butt" stroke-linejoin="miter" stroke-miterlimit="10" stroke-dasharray="" stroke-dashoffset="0" style="mix-blend-mode: normal"><path d="M224.51338,175.21567c0,-4.28027 1.53535,-8.20194 4.08537,-11.24431c3.21292,-3.83327 8.03662,-6.27065 13.42959,-6.27065c9.67324,0 17.51496,7.84171 17.51496,17.51496c0,9.67324 -7.84171,17.51496 -17.51496,17.51496c-9.67324,0 -17.51496,-7.84172 -17.51496,-17.51496zM237.20321,165.06993l-6.88637,6.48715l5.65029,6.04727c0.28163,0.28163 1.34811,0.9788 2.11713,0.38105c0.90515,-0.70356 0.20211,-2.02713 0.20211,-2.02713l-2.224,-3.09524l12.22817,0.03347c0,0 2.86101,0.54407 2.80228,3.59145c-0.05898,3.06084 -2.10364,4.08514 -3.91651,4.19149c-2.08073,0.12206 -14.11902,0.0935 -14.11902,0.0935c0,0 -1.92826,-0.14879 -1.92826,1.4075c0,1.55629 2.00266,1.25871 2.00266,1.25871l14.2015,-0.0602c0,0 6.07915,0.03573 6.42267,-6.79865c-0.46395,-5.88876 -5.36261,-6.46485 -5.36261,-6.46485l-12.53923,-0.03557l3.44923,-3.14955c0,0 0.83544,-0.94868 -0.12382,-1.90317c-0.87251,-0.86817 -1.97623,0.04277 -1.97623,0.04277z" fill="#ffffff" stroke-width="0"/><text transform="translate(229.1111,211.86583) scale(0.35384,0.35384)" font-size="40" xml:space="preserve" fill="#ffffff" fill-rule="nonzero" stroke="none" stroke-width="1" stroke-linecap="butt" stroke-linejoin="miter" stroke-miterlimit="10" stroke-dasharray="" stroke-dashoffset="0" font-family="Malgun Gothic" font-weight="normal" text-anchor="start" style="mix-blend-mode: normal"><tspan x="0" dy="0">Back</tspan></text><path d="" fill="#9966ff" stroke-width="0.5"/></g></g></svg>