<svg version="1.1" xmlns="http://www.w3.org/2000/svg" xmlns:xlink="http://www.w3.org/1999/xlink" width="61.5601" height="68.62977" viewBox="0,0,61.5601,68.62977"><g transform="translate(-210.23623,-133.62589)"><g data-paper-data="{&quot;isPaintingLayer&quot;:true}" fill-rule="nonzero" stroke="none" stroke-width="0.09477" stroke-linecap="butt" stroke-linejoin="miter" stroke-miterlimit="10" stroke-dasharray="" stroke-dashoffset="0" style="mix-blend-mode: normal"><g><path d="M210.4029,152.0649v0c0.2833,-0.3804 0.661,-0.5706 1.0387,-0.8559c8.4041,-5.7062 16.8082,-11.5074 25.2123,-17.3087c0.661,-0.3804 1.0387,-0.3804 1.6997,0.0951c9.5373,6.8474 19.0745,13.5997 28.6118,20.4471c1.5108,1.0461 2.8328,1.9972 4.2493,3.0433c0.1888,0.0951 0.3777,0.0951 0.3777,0.3804c-0.1889,0.2853 -0.4722,0.4755 -0.8499,0.7608c-2.0774,1.5217 -4.1548,3.0433 -6.2322,4.4699c-0.5666,0.3804 -0.4722,0.5706 0,0.8559c0.8498,0.5706 1.6052,1.2363 2.5495,1.8069c0.4722,0.3804 0.4722,0.5706 -0.0944,0.9511c-2.2663,1.6167 -4.627,3.3285 -6.9877,4.9453c-1.1331,0.7608 -2.1718,1.8069 -3.4938,2.2825c-0.2833,0.0951 -0.3778,-0.0951 -0.5666,-0.2853c-0.9443,-0.6658 -1.8886,-1.5217 -3.0217,-2.0923c-0.0944,0.0951 -0.1889,0.0951 -0.1889,0.1902v0c-0.661,0.0951 -1.0387,0.4755 -1.6052,0.8559c-2.1719,1.5217 -4.2493,3.0433 -6.4212,4.565c-0.661,-0.5707 -1.322,-1.0462 -2.0774,-1.5217c-1.6053,-1.1412 -3.0217,-2.3776 -4.5325,-3.2335c-0.4722,-0.3804 -0.9443,-0.7608 -1.322,-1.1412c-1.4165,-0.951 -2.7385,-2.0923 -4.2493,-2.9482c-0.0944,-0.3804 -0.4722,-0.4755 -0.7554,-0.7608c-5.3824,-3.8992 -10.8593,-7.9886 -16.2417,-11.8879c-1.6997,-1.2363 -3.305,-2.5677 -5.0991,-3.6139z" fill="#b5afad"/><path d="M210.4029,152.0649v0c1.7941,1.0462 3.3994,2.3776 5.0991,3.6139c5.3824,3.8993 10.8593,7.9887 16.2417,11.8879c0.2832,0.2853 0.661,0.3804 0.7554,0.7608c0,1.0461 0,2.0923 0.0944,3.0433c-0.0944,0.951 -0.1888,1.902 0.0944,2.758c0,0.0951 0,0.0951 0,0.1902c0,0.8559 0,1.8069 0,2.6628c-0.1888,0.9511 -0.1888,1.807 0,2.758c0,0 0,0 0,0.0951c0,0.9511 0,1.807 0,2.758c0,0.8559 0,1.7119 0,2.6629c0,0.8559 0,1.902 0,2.8531c0,0.8559 0,1.7118 0.0945,2.6628c0,0.856 0,1.6168 0,2.3776c0,0.0951 -0.0945,0.0951 -0.0945,0.0951c-1.6997,-1.2363 -3.4938,-2.4727 -5.1935,-3.8041c-5.288,-3.9943 -10.576,-7.9886 -15.9584,-11.9829c-0.1888,-0.1902 -0.4721,-0.2853 -0.4721,-0.6658c0.0944,-0.6657 -0.0944,-1.3314 -0.0944,-1.902c0,-2.8531 -0.1889,-5.7062 -0.1889,-8.5593c0,-2.4726 -0.1889,-5.0404 -0.1889,-7.6082c-0.1888,-2.1873 -0.0944,-4.4698 -0.1888,-6.6572zM219.9401,163.2871v0c-0.1888,1.1412 0.1889,1.902 1.2276,2.4726c0.3777,0.1902 0.661,0.3804 0.9443,0.6657c0.3777,0.2854 0.661,0.2854 0.5666,-0.2853c0,-1.2363 0.0944,-2.4726 -1.322,-3.0432c-0.1889,-0.0952 -0.3778,-0.1903 -0.4722,-0.2854c-0.2833,-0.1902 -0.5665,-0.6657 -0.8498,-0.4755c-0.2833,0.0951 -0.0945,0.5706 -0.0945,0.9511zM225.417,166.1401v0c0,0.3804 0,0.5707 0,0.6658c-0.2833,1.4265 0.1888,2.5677 1.6053,3.2334c0.2832,0.0952 0.5665,0.6658 0.9442,0.4756c0.2833,-0.0951 0.0945,-0.6658 0.0945,-1.0462c0,-0.4755 0.1888,-1.1412 -0.1889,-1.5216c-0.7554,-0.5706 -1.5108,-1.1412 -2.4551,-1.807zM225.5114,171.6561v0c-0.1889,1.6167 -0.2833,2.9482 1.322,3.709c0.3777,0.1902 0.7554,0.8559 1.1331,0.6657c0.3777,-0.1902 0.0945,-0.8559 0.0945,-1.3314c0,-0.4755 0.1888,-0.951 -0.1889,-1.2364c-0.7554,-0.5706 -1.5108,-1.1412 -2.3607,-1.8069zM217.5794,168.5177v0c0,-0.4755 -0.0944,-0.7608 0,-0.951c0.1889,-1.3315 -0.2833,-2.2825 -1.5108,-2.8531c-0.3777,-0.1902 -0.661,-0.8559 -1.0387,-0.6657c-0.3777,0.1902 -0.1889,0.8559 -0.1889,1.2363c0,0.4755 -0.1888,1.0461 0.3777,1.4266c0.661,0.5706 1.4164,1.0461 2.3607,1.8069zM220.129,167.6618v0c0,0.8559 0,1.4265 0,1.9971c0,0.2853 -0.0944,0.5707 0.1889,0.7609c0.6609,0.6657 1.4164,1.2363 2.4551,1.8069c0,-0.8559 0,-1.6167 0,-2.2825c0,-0.1902 -0.0944,-0.3804 -0.2833,-0.4755c-0.7554,-0.5706 -1.5109,-1.1412 -2.3607,-1.8069zM214.6522,159.1976v0c0.0944,0.3805 0.1888,0.7609 0.1888,1.1413c0,0.2853 0,0.6657 0.2833,0.951c0.661,0.3804 1.322,0.951 1.8886,1.3314c0.2832,0.1902 0.4721,0.1902 0.4721,-0.1902c0,-1.3314 0,-2.6628 -1.6053,-3.3286c-0.0944,-0.0951 -0.1888,-0.2853 -0.3777,-0.2853c-0.1888,-0.1902 -0.4721,-0.4755 -0.661,-0.2853c-0.1888,0.0951 -0.0944,0.3804 -0.1888,0.6657zM222.8674,177.8378v0c0,-0.3804 0,-0.5706 0,-0.7608c0.2833,-1.4266 -0.1888,-2.3776 -1.5108,-3.0433c-0.3778,-0.1902 -0.661,-0.7609 -1.0387,-0.5707c-0.3778,0.1903 -0.0945,0.7609 -0.0945,1.1413c0,0.4755 -0.2833,1.0461 0.2833,1.4265c0.661,0.5706 1.4164,1.1413 2.3607,1.807zM228.2498,181.8321v0c0,-0.7608 0,-1.4266 0,-1.9972c0,-0.2853 0,-0.5706 -0.1888,-0.8559c-0.8499,-0.5706 -1.6053,-1.2363 -2.4552,-1.7118c0,0.8559 0,1.6167 0,2.3775c0,0.2853 0.0945,0.2853 0.2833,0.3804c0.7554,0.5707 1.5109,1.1413 2.3607,1.807zM215.1243,169.3736v0c-0.2833,1.6168 -0.2833,3.0433 1.322,3.709c0.1888,0.0951 0.2833,0.1902 0.4721,0.2853c0.1889,0.1902 0.3777,0.4756 0.5666,0.3805c0.3777,-0.0951 0.1889,-0.5707 0.1889,-0.856c0,-0.4755 0.2832,-1.2363 -0.1889,-1.7118c-0.7554,-0.6657 -1.6053,-1.1413 -2.3607,-1.807zM228.2498,185.7313v0c-0.0944,-0.4755 0.1889,-1.0461 -0.1888,-1.4265c-0.661,-0.4756 -1.4165,-0.9511 -2.0775,-1.4266c-0.1888,-0.1902 -0.3777,-0.1902 -0.3777,0.1902c-0.0944,1.2364 -0.1888,2.4727 1.322,3.0433c0.0945,0.0951 0.0945,0.1902 0.1889,0.1902c0.3777,0.1902 0.661,0.7608 0.9443,0.5706c0.3777,-0.1902 0.0944,-0.7608 0.1888,-1.1412zM215.2187,174.6994v0c0,0.3804 0,0.6657 0,0.8559c-0.2833,1.3314 0.1889,2.3776 1.4164,2.8531c0.3778,0.1902 0.661,0.951 1.1332,0.6657c0.2833,-0.1902 0.0944,-0.7608 0.0944,-1.1412c0,-0.5706 0.1889,-1.0462 -0.2833,-1.4266c-0.7554,-0.5706 -1.5108,-1.0461 -2.3607,-1.8069zM222.9618,181.6419v0c-0.1888,-0.3804 0.1889,-0.8559 -0.2832,-1.2364c-0.5666,-0.5706 -1.322,-1.0461 -1.983,-1.6167c-0.2833,-0.1902 -0.4722,-0.0951 -0.4722,0.2853c0.0945,1.1412 -0.0944,2.3776 1.1332,2.9482c0.1888,0.0951 0.2832,0.1902 0.3777,0.2853c0.3777,0.2853 0.661,0.7608 1.0387,0.5706c0.3777,-0.1902 0,-0.7608 0.1888,-1.2363z" fill="#fde9d1"/><path d="M256.4839,173.9386v0c1.322,-0.4756 2.3607,-1.5217 3.4938,-2.2825c2.3607,-1.6168 4.7214,-3.3286 6.9877,-4.9453c0.9443,0.3804 0.3777,1.2363 0.5666,1.902c0,0.4755 0,1.0461 0,1.5217c0,0.6657 0,1.4265 0,2.0922c-0.2833,0.5706 -0.1889,1.1412 0,1.7119c0,0.5706 0,1.1412 0,1.8069c-0.2833,0.6657 -0.0945,1.3315 -0.1889,1.9972c0,0.5706 0,1.0461 0,1.6167c0,0.6657 0,1.2364 0,1.9021c0,0.6657 0,1.3314 0,1.9971c-0.2833,0.5706 -0.0944,1.0462 -0.1889,1.6168c0,0.6657 0,1.2363 0,1.8069c0.0945,0.6657 -0.1888,1.2364 0.1889,1.9021c-0.3777,0.6657 -0.1889,1.4265 -0.2833,2.1873c0,0.3805 -0.0944,0.5707 -0.3777,0.7609c-3.305,2.3775 -6.61,4.9453 -9.915,7.3229c-0.1888,0.0951 -0.3777,0.2853 -0.5665,0.2853c0.1888,-6.2768 0.0944,-12.4585 0.0944,-18.6402c0.3777,-0.7608 0.0944,-1.7118 0.1889,-2.4726c0,-1.3315 0,-2.758 0,-4.0894zM260.5443,181.3566v0c0,-0.2853 0.0944,-0.3804 0,-0.5706c0,-0.1902 0.1888,-0.5707 -0.0945,-0.7609c-0.2832,0 -0.4721,0.1902 -0.661,0.3804c-0.3777,0.3805 -0.9442,0.7609 -1.4164,0.9511c-0.4721,0.2853 -0.7554,0.7608 -0.5665,1.3314c0,0.5706 -0.3778,1.4266 0.0944,1.6168c0.4721,0.1902 0.9443,-0.5707 1.4164,-0.856c0.9443,-0.4755 1.5109,-1.1412 1.2276,-2.0922zM257.617,193.815v0c0,0.3804 0,0.6657 0,0.856c0,0.1902 -0.0944,0.3804 0.0944,0.5706c0.2833,0.0951 0.3777,-0.1902 0.5666,-0.2853c0.4721,-0.3805 0.9443,-0.6658 1.5108,-1.0462c0.3778,-0.2853 0.661,-0.6657 0.661,-1.2363c-0.0944,-0.5706 0.2833,-1.3314 -0.1888,-1.6168c-0.4722,-0.1902 -0.9443,0.4756 -1.4164,0.7609c-0.661,0.5706 -1.6997,0.8559 -1.2276,1.9971zM263.2827,179.0741v0c0,0.4755 0,0.7608 0,1.0461c0,0.1902 0,0.3804 0.2833,0.2853c0.7554,-0.5706 1.5108,-1.0461 2.1718,-1.7118c0.3777,-0.2853 0.1889,-0.7608 0.1889,-1.1412c0,-0.3804 0.0944,-0.5707 0.0944,-0.856c0.0944,-0.1902 0.0944,-0.3804 0,-0.5706c-0.2833,-0.1902 -0.3777,0 -0.5666,0.1902c-0.3777,0.2853 -0.7554,0.5706 -1.2275,0.856c-0.7555,0.4755 -1.1332,1.1412 -0.9443,1.902zM257.9003,177.3623v0c0,0.3804 0,0.7608 0,1.0461c0,0.3804 0.0944,0.5706 0.4721,0.2853c0.5666,-0.4755 1.2276,-0.951 1.8886,-1.4265c0.1888,-0.0951 0.3777,-0.2854 0.3777,-0.5707c0,-0.5706 0,-1.2363 0,-1.8069c0,-0.3804 -0.1889,-0.5706 -0.4721,-0.1902c-0.3778,0.2853 -0.7555,0.5706 -1.2276,0.8559c-0.7554,0.3804 -1.322,0.951 -1.0387,1.807zM266.1155,170.4198v0c-0.9442,0.6657 -1.7941,1.1412 -2.4551,1.7118c-0.1889,0.0951 -0.1889,0.2853 -0.1889,0.4755c0,0.6657 0,1.2364 0,1.807c0,0.3804 0,0.5706 0.3778,0.2853c0.661,-0.4755 1.2275,-0.8559 1.8885,-1.4266c0.1889,-0.0951 0.3777,-0.1902 0.3777,-0.3804c0,-0.8559 0,-1.6167 0,-2.4726zM263.0938,186.1117v0c0.5666,-0.3804 1.0387,-0.7608 1.5109,-1.0461c1.2276,-0.5706 1.5108,-1.6168 1.322,-2.8531c0,-0.0951 0,-0.0951 0,-0.0951c0,-0.5706 -0.1889,-0.5706 -0.4722,-0.2853c-0.7554,0.3804 -1.2275,0.8559 -1.8885,1.3314c-0.1889,0.0951 -0.2833,0.2853 -0.2833,0.4755c0,0.7609 0,1.6168 -0.1889,2.4727zM260.4498,186.8725v0c-0.0944,-0.3804 0.1889,-1.0461 -0.1888,-1.2363c-0.2833,-0.0951 -0.661,0.3804 -1.0387,0.6657c-0.1889,0 -0.2833,0.1902 -0.3777,0.2853c-0.9443,0.4755 -1.2276,1.1413 -1.1332,2.0923c0.0945,0.3804 -0.1888,0.8559 0.0945,1.0461c0.4721,0.1902 0.7554,-0.3804 1.0387,-0.4755c0.1888,-0.0951 0.3777,-0.2853 0.5665,-0.4755c0.7555,-0.3804 1.2276,-0.951 1.0387,-1.9021zM263.0938,190.0109v0c0.0945,0.3804 -0.1888,0.951 0.1889,1.1413c0.2833,0.1902 0.661,-0.3805 1.0387,-0.5707c0.1889,-0.0951 0.2833,-0.2853 0.4721,-0.3804c0.8499,-0.3804 1.1332,-1.0461 0.9443,-1.902c0,-0.3804 0.1889,-1.0462 -0.0944,-1.1413c-0.3777,-0.1902 -0.7554,0.2853 -1.1331,0.5707c-0.661,0.5706 -1.7942,0.8559 -1.4165,2.2824z" fill="#68727f"/><path d="M238.0704,172.4169v0c1.5108,0.8559 2.9272,2.0923 4.5325,3.2335c0.7554,0.4755 1.4164,0.951 2.0774,1.5217c0,2.4726 -0.0944,4.9453 0.0945,7.418c-0.0945,0.2853 -0.0945,0.6657 -0.0945,0.951c0,4.3747 0,8.7494 0,13.0291c0,1.2363 0,2.3775 0,3.5188c-0.8498,-0.0951 -1.322,-0.856 -1.983,-1.2364c-1.5108,-1.1412 -3.1161,-2.2824 -4.7214,-3.5188c0.3777,-1.0461 0.1889,-1.902 0.0945,-2.8531c0,-0.6657 0,-1.4265 0,-2.0922c0.0944,-1.0461 0.0944,-2.1874 0,-3.3286c0,-0.7608 0,-1.5217 -0.0945,-2.1874c0.1889,-1.1412 0.1889,-2.1873 0,-3.2335c0,-0.7608 0,-1.6167 0,-2.3775c0.1889,-1.0462 0,-2.0923 0,-3.1384c0,-0.7608 0,-1.5217 0,-2.2825c0,-1.1412 0.0945,-2.2825 0.0945,-3.4237z" fill="#feead0"/><path d="M267.532,168.6128v0c-0.1889,-0.6657 0.3777,-1.5216 -0.5666,-1.902c0.5666,-0.3805 0.5666,-0.5707 0.0944,-0.9511c-0.9443,-0.5706 -1.6997,-1.2363 -2.5495,-1.8069c-0.4722,-0.2853 -0.5666,-0.4755 0,-0.8559c2.0774,-1.4266 4.1548,-2.9482 6.2322,-4.4699c0.3777,-0.2853 0.661,-0.4755 0.8499,-0.7608c0.2833,0.2853 0.1888,0.6657 0.1888,0.8559c-0.1888,7.7033 -0.3777,15.4067 -0.5665,23.11c0,0.7608 -0.1889,1.4265 -0.9443,1.8069c-0.7554,0.4756 -1.5109,1.0462 -2.1719,1.6168c-0.0944,0 -0.1888,-0.0951 -0.2833,-0.1902c0.3778,-0.6657 0.0945,-1.3315 0,-2.0923c1.1332,-0.5706 1.1332,-1.6167 0.7555,-2.6629c-0.0945,-0.1902 -0.2833,-0.2853 -0.3777,-0.4755c0.2832,-0.8559 0.0944,-1.6167 -0.0945,-2.4726c1.0387,-0.5707 0.9443,-1.5217 0.661,-2.4727c-0.2833,-0.3804 -0.7554,-0.7608 -1.2275,-0.951c-0.1889,-0.5707 -0.2833,-1.1413 0,-1.7119c0.9442,-0.3804 1.6052,-0.951 1.4164,-2.1874c0,-0.0951 0,-0.2853 0,-0.4755c-0.2833,-0.6657 -0.7554,-0.951 -1.4164,-0.951z" fill="#69707c"/><path d="M244.6684,202.089v0c0,-1.1413 0,-2.2825 0,-3.5188c0,-4.2797 0,-8.6544 0,-13.0291c0,-0.2853 0,-0.6657 0.0945,-0.951c0.2832,-0.3804 1.322,-0.2853 0.8498,-1.3315c0,-0.0951 0.1889,-0.3804 0.3777,-0.4755c0.661,-0.4755 0.9443,-1.4265 1.6053,-1.9971c0.4721,-0.5707 0.4721,-1.2364 1.0387,-1.807c0.7554,-0.5706 0.7554,-0.6657 0.0944,-1.4265c-0.0944,-0.0951 -0.2832,-0.2853 -0.1888,-0.4755c0.7554,0.0951 1.322,-0.5707 1.983,-0.856c0.3777,-0.0951 0.8498,-0.2853 0.3777,-0.951c-0.0944,0 0,-0.0951 0.0944,-0.1902c1.322,-0.7608 1.5109,-1.9972 1.6997,-3.3286v0c0,0 0.0945,0 0.1889,0c1.1331,1.8069 1.983,3.8041 3.0217,5.6111c0.0944,0.2853 0.0944,0.6657 0.5666,0.6657c-0.0945,0.7608 0.1888,1.7118 -0.1889,2.4726c-0.2833,-0.0951 -0.2833,-0.4755 -0.3777,-0.5706c-0.3777,-0.5706 -0.3777,-1.4265 -1.0387,-1.8069c0.1888,-0.951 -0.0944,-1.6168 -0.9443,-2.1874c-0.3777,-0.0951 -0.7554,-0.2853 -0.8499,-0.6657c-0.0944,-0.1902 0,-0.3804 -0.2832,-0.4755c-0.1889,-0.0951 -0.2833,0.0951 -0.4722,0.2853c-1.322,1.9972 -2.4551,4.0894 -3.8715,6.0866c-0.4722,0.5706 -0.8499,1.5216 0,2.2824c0.2832,0.2853 0.1888,0.6658 0.0944,1.0462c0,0.1902 -0.0944,0.3804 0,0.6657c0.0944,0.4755 -0.0944,0.951 -0.3777,1.3314c-0.5666,0.8559 -0.5666,1.6168 0.0944,2.3776c0.0944,0.0951 0.0944,0.2853 0.1889,0.3804c0.5665,0.951 0.0944,1.9021 -0.3778,2.758c-0.3777,0.8559 -0.4721,1.8069 0.1889,2.6629c0.4721,0.6657 0.5666,1.3314 0.1889,2.1873c-0.2833,0.3804 -0.5666,0.8559 -0.5666,1.3315c-0.0944,0.4755 -0.3777,1.1412 0.4721,1.3314c-1.1331,0.8559 -2.2662,1.7118 -3.305,2.4727c-0.1888,0.0951 -0.2832,0.0951 -0.3777,0.0951z" fill="#69707c"/><path d="M248.363,199.5212v0c-0.8498,-0.1902 -0.5665,-0.8559 -0.4721,-1.3314c0,-0.4756 0.2833,-0.9511 0.5666,-1.3315c0.3777,-0.8559 0.2832,-1.5216 -0.1889,-2.1873c-0.661,-0.856 -0.5666,-1.807 -0.1889,-2.6629c0.4722,-0.8559 0.9443,-1.807 0.3778,-2.758c-0.0945,-0.0951 -0.0945,-0.2853 -0.1889,-0.3804c-0.661,-0.7608 -0.661,-1.5217 -0.0944,-2.3776c0.2833,-0.3804 0.4721,-0.8559 0.3777,-1.3314c-0.0944,-0.2853 0,-0.4755 0,-0.6657c0.0944,-0.3804 0.1888,-0.7609 -0.0944,-1.0462c-0.8499,-0.7608 -0.4722,-1.7118 0,-2.2824c1.4164,-1.9972 2.5495,-4.0894 3.8715,-6.0866c0.1889,-0.1902 0.2833,-0.3804 0.4722,-0.2853c0.2832,0.0951 0.1888,0.2853 0.2832,0.4755c-0.3777,0 -0.3777,0.1902 -0.3777,0.3804c0,0.3804 0,0.7608 0,1.2363c0,0.1903 0,0.2854 0,0.5707c-0.9443,0.6657 -1.7941,1.2363 -2.644,1.902c0,0.3804 0,0.6657 0,0.951c-0.1888,0.7609 0.0945,1.3315 0.8499,1.7119c0.4721,0.2853 0.9443,0.6657 1.322,1.1412c-0.661,0.5706 -1.322,1.0462 -2.0774,1.6168c-0.5666,0.6657 -0.4722,1.9971 0.1888,2.4726c0.661,0.4756 1.4164,0.856 1.8886,1.4266c-0.7554,0.6657 -1.6053,1.0461 -2.1719,1.8069c-0.3777,1.2364 -0.2832,1.7119 0.661,2.4727c0.5666,0.3804 1.0387,0.6657 1.4165,1.1412c-0.7555,0.5707 -1.4165,1.1413 -2.1719,1.807c-0.1888,0.7608 -0.2833,1.5216 0.2833,2.2825c-0.5666,0.5706 -1.322,0.951 -1.8886,1.3314z" fill="#666772"/><path d="M254.8786,178.1231v0c0.661,0.3804 0.661,1.2363 1.0387,1.8069c0.0944,0.0951 0.0944,0.4755 0.3777,0.5706c0,6.1817 0.0944,12.3634 -0.0944,18.6402c-0.5666,-0.2853 -1.0387,-0.6657 -1.4164,-1.0462c0.3777,-0.951 0.3777,-2.0922 0,-2.5677c0,-0.5706 0,-1.2364 0,-1.7119c0,-0.4755 -0.1889,-0.7608 -0.4722,-0.951c0.0944,-0.1902 0.1889,-0.2853 0.3777,-0.3804c0.4722,-0.3804 0.5666,-1.807 0.0945,-2.3776c0,-0.5706 0,-1.1412 0,-1.6167c0,-0.3804 0,-0.7608 -0.3778,-1.0462c0,-0.2853 0.1889,-0.2853 0.3778,-0.3804c0.5665,-0.5706 0.5665,-1.8069 0.0944,-2.4726c-0.0944,-0.0951 -0.0944,-0.0951 -0.0944,-0.0951c-0.1889,-0.856 0.2832,-1.807 -0.3778,-2.6629c0.0945,0 0.1889,-0.1902 0.3778,-0.2853c0.5665,-0.4755 0.6609,-1.807 0.0944,-2.5678c0,-0.0951 0,-0.2853 0,-0.3804c0,-0.1902 0,-0.2853 0,-0.4755z" fill="#666772"/><path d="M238.0704,194.4807v0c0.0944,0.9511 0.2832,1.807 -0.0945,2.8531c-1.6997,-1.4265 -3.3994,-2.6628 -5.0991,-3.9943c0,-0.0951 -0.0944,-0.0951 -0.0944,-0.1902c0,-0.7608 0,-1.5216 0,-2.3776c0,0 0.0944,-0.0951 0.0944,-0.1902c0.9443,0.7609 1.8886,1.6168 2.9273,2.2825c0.7554,0.5706 1.4164,1.2363 2.2663,1.6167z" fill="#fd5e3e"/><path d="M254.7842,195.5269v0c0.3777,0.4755 0.3777,1.6167 0,2.5677c-0.8499,0.0952 -1.4165,0.7609 -1.983,1.2364c-0.3778,0.1902 -0.5666,0.1902 -0.9443,-0.0951c-0.5666,-0.3804 -0.9443,-0.951 -1.6053,-1.0461c-0.5666,-0.7609 -0.4721,-1.5217 -0.2833,-2.2825c0.5666,0.3804 1.0387,0.6657 1.5109,1.0461c0.9442,0.7608 1.4164,0.7608 2.0774,-0.3804c0.5666,-0.1902 1.0387,-0.3804 1.2276,-1.0461z" fill="#6a2a23"/><path d="M267.3431,188.5844v0c-0.3777,-0.6657 -0.0944,-1.2364 -0.1889,-1.9021c0.5666,-0.1902 1.2276,-0.3804 1.1332,-1.1412c0.4721,0.3804 0.4721,1.9971 0,2.3776c-0.2833,0.1902 -0.5666,0.4755 -0.9443,0.6657z" fill="#6a2a23"/><path d="M268.2874,185.5411v0c0.0944,0.7608 -0.5666,0.951 -1.1332,1.1412c0,-0.5706 0,-1.1412 0,-1.8069c0.2833,0 0.4722,0.1902 0.661,0.1902c0.0945,0.0951 0.1889,0.1902 0.2833,0.1902c0,0.0951 0.1889,0.1902 0.1889,0.2853z" fill="#450e0e"/><path d="M232.7824,193.1493v0c0,0.0951 0.0944,0.0951 0.0944,0.1902c-0.0944,0 -0.0944,0 -0.1889,-0.0951c0,0 0.0945,0 0.0945,-0.0951z" fill="#d67f74"/><path d="M252.7067,171.7512v0c-0.1888,1.3314 -0.3777,2.5678 -1.6997,3.3286c-0.0944,0.0951 -0.1888,0.1902 -0.0944,0.1902c0.4721,0.6657 0,0.8559 -0.3777,0.951c-0.661,0.2853 -1.2276,0.9511 -1.983,0.856c-0.0944,0.1902 0.0944,0.3804 0.1888,0.4755c0.661,0.7608 0.661,0.8559 -0.0944,1.4265c-0.5666,0.5706 -0.5666,1.2363 -1.0387,1.807c-0.661,0.5706 -0.9443,1.5216 -1.6053,1.9971c-0.1888,0.0951 -0.3777,0.3804 -0.3777,0.4755c0.4722,1.0462 -0.5666,0.9511 -0.8498,1.3315c-0.1889,-2.4727 -0.0945,-4.9454 -0.0945,-7.418c2.1719,-1.5217 4.2493,-3.0433 6.4212,-4.565c0.5665,-0.3804 0.9442,-0.7608 1.6052,-0.8559z" fill="#68727f"/><path d="M238.0704,172.4169v0c0,1.1412 -0.0945,2.2825 -0.0945,3.4237c-0.3777,-0.0951 -0.7554,-0.3804 -1.0387,-0.8559c-0.661,-0.951 -1.6053,-1.6168 -2.644,-2.0923c-0.3777,-0.6657 -1.0387,-1.0461 -1.6997,-1.5216c-0.0944,-0.951 -0.0944,-1.9972 -0.0944,-3.0433c1.5108,0.8559 2.8328,1.9972 4.2493,2.9482c0.3777,0.3804 0.8498,0.7608 1.322,1.1412z" fill="#fd5e3e"/><path d="M256.4839,178.028v0c-0.4722,0 -0.4722,-0.3804 -0.5666,-0.6657c-1.0387,-1.807 -1.8886,-3.8042 -3.0217,-5.6111c0,-0.0951 0,-0.0951 0,-0.1902c1.1331,0.5706 2.0774,1.4265 3.0217,2.0923c0.1888,0.1902 0.2833,0.3804 0.5666,0.2853c0,1.3314 0,2.7579 0,4.0894z" fill="#feead0"/><path d="M252.8956,171.561v0c0,0.0951 0,0.0951 0,0.1902c-0.0944,0 -0.1889,0 -0.1889,0c0,-0.0951 0.0945,-0.0951 0.1889,-0.1902z" fill="#68727f"/><path d="M238.0704,189.0599v0c0.0944,1.1412 0.0944,2.2825 0,3.3286c-0.3778,-0.3804 -1.0388,-0.5706 -1.322,-1.1412c-0.5666,-0.9511 -1.4165,-1.4266 -2.2663,-1.9021c-0.4722,-0.5706 -1.0387,-1.0461 -1.7942,-1.2363c0,-0.9511 0,-1.9972 0,-2.8531c0,0 0.0945,0 0.1889,0c1.6997,1.2363 3.3994,2.6629 5.1936,3.8041z" fill="#fd5e3e"/><path d="M237.9759,183.639v0c0.1889,1.0462 0.1889,2.0923 0,3.2335c-0.3777,-0.1902 -0.8498,-0.4755 -1.1331,-0.951c-0.5666,-0.951 -1.5109,-1.4265 -2.4551,-1.9021c-0.3778,-0.7608 -1.0388,-1.1412 -1.6998,-1.4265c0,-0.951 0,-1.8069 0,-2.758c0.3778,0.0951 0.5666,0.2853 0.8499,0.4755c1.5109,1.1413 3.0217,2.2825 4.4381,3.3286z" fill="#fd5e3e"/><path d="M237.9759,178.1231v0c0,1.0461 0.1889,2.0922 0,3.1384c-0.3777,-0.0951 -0.7554,-0.3804 -0.9443,-0.6657c-0.661,-1.0462 -1.6997,-1.5217 -2.6439,-2.1874c-0.4722,-0.5706 -1.1332,-1.0461 -1.6998,-1.4266c0,-0.8559 0,-1.8069 0,-2.6628c0.1889,0.0951 0.3778,0.1902 0.661,0.3804c1.5109,1.0461 3.0217,2.3776 4.627,3.4237z" fill="#fd5e3e"/><path d="M237.9759,178.1231v0c-1.6053,-1.0461 -3.1161,-2.3776 -4.627,-3.4237c-0.2832,-0.1902 -0.4721,-0.2853 -0.661,-0.3804c0,-0.0951 0,-0.0951 0,-0.1902c0.5666,-0.3804 1.1332,-0.6658 1.6053,-1.2364c1.0387,0.4755 1.983,1.1413 2.644,2.0923c0.2833,0.4755 0.661,0.7608 1.0387,0.8559c0,0.7608 0,1.5217 0,2.2825z" fill="#db150b"/><path d="M234.3877,178.4084v0c0.9442,0.6657 1.9829,1.1412 2.6439,2.1874c0.1889,0.2853 0.5666,0.5706 0.9443,0.6657c0,0.7608 0,1.6167 0,2.3775c-1.4164,-1.0461 -2.9272,-2.1873 -4.4381,-3.3286c-0.2833,-0.1902 -0.4721,-0.3804 -0.8499,-0.4755c0,-0.0951 0,-0.0951 0,-0.0951c0.5666,-0.4755 1.1332,-0.951 1.6998,-1.3314z" fill="#db150b"/><path d="M219.9401,163.2871v0c0,-0.3805 -0.1888,-0.856 0.0945,-0.9511c0.2833,-0.1902 0.5665,0.2853 0.8498,0.4755c0.0944,0.0951 0.2833,0.1902 0.4722,0.2854c1.4164,0.5706 1.322,1.8069 1.322,3.0432c0.0944,0.5707 -0.1889,0.5707 -0.5666,0.2853c-0.2833,-0.2853 -0.5666,-0.4755 -0.9443,-0.6657c-1.0387,-0.5706 -1.4164,-1.3314 -1.2276,-2.4726z" fill="#a296df"/><path d="M225.417,166.1401v0c0.9443,0.6658 1.6997,1.2364 2.4551,1.807c0.3777,0.3804 0.1889,1.0461 0.1889,1.5216c0,0.3804 0.1888,0.9511 -0.0945,1.0462c-0.3777,0.1902 -0.661,-0.3804 -0.9442,-0.4756c-1.4165,-0.6657 -1.8886,-1.8069 -1.6053,-3.2334c0,-0.0951 0,-0.2854 0,-0.6658z" fill="#a296df"/><path d="M225.5114,171.6561v0c0.8499,0.6657 1.6053,1.2363 2.3607,1.8069c0.3777,0.2854 0.1889,0.7609 0.1889,1.2364c0,0.4755 0.2832,1.1412 -0.0945,1.3314c-0.3777,0.1902 -0.7554,-0.4755 -1.1331,-0.6657c-1.6053,-0.7608 -1.5109,-2.0923 -1.322,-3.709z" fill="#a296df"/><path d="M217.5794,168.5177v0c-0.9443,-0.7608 -1.6997,-1.2363 -2.3607,-1.8069c-0.5665,-0.3805 -0.3777,-0.9511 -0.3777,-1.4266c0,-0.3804 -0.1888,-1.0461 0.1889,-1.2363c0.3777,-0.1902 0.661,0.4755 1.0387,0.6657c1.2275,0.5706 1.6997,1.5216 1.5108,2.8531c-0.0944,0.1902 0,0.4755 0,0.951z" fill="#a296df"/><path d="M220.129,167.6618v0c0.8498,0.6657 1.6053,1.2363 2.3607,1.8069c0.1889,0.0951 0.2833,0.2853 0.2833,0.4755c0,0.6658 0,1.4266 0,2.2825c-1.0387,-0.5706 -1.7942,-1.1412 -2.4551,-1.8069c-0.2833,-0.1902 -0.1889,-0.4756 -0.1889,-0.7609c0,-0.5706 0,-1.1412 0,-1.9971z" fill="#a296df"/><path d="M214.6522,159.1976v0c0.0944,-0.2853 0,-0.5706 0.1888,-0.6657c0.1889,-0.1902 0.4722,0.0951 0.661,0.2853c0.1889,0 0.2833,0.1902 0.3777,0.2853c1.6053,0.6658 1.6053,1.9972 1.6053,3.3286c0,0.3804 -0.1889,0.3804 -0.4721,0.1902c-0.5666,-0.3804 -1.2276,-0.951 -1.8886,-1.3314c-0.2833,-0.2853 -0.2833,-0.6657 -0.2833,-0.951c0,-0.3804 -0.0944,-0.7608 -0.1888,-1.1413z" fill="#a296df"/><path d="M222.8674,177.8378v0c-0.9443,-0.6657 -1.6997,-1.2364 -2.3607,-1.807c-0.5666,-0.3804 -0.2833,-0.951 -0.2833,-1.4265c0,-0.3804 -0.2833,-0.951 0.0945,-1.1413c0.3777,-0.1902 0.6609,0.3805 1.0387,0.5707c1.322,0.6657 1.7941,1.6167 1.5108,3.0433c0,0.1902 0,0.3804 0,0.7608z" fill="#a296df"/><path d="M228.2498,181.8321v0c-0.8498,-0.6657 -1.6053,-1.2363 -2.3607,-1.807c-0.1888,-0.0951 -0.2833,-0.0951 -0.2833,-0.3804c0,-0.7608 0,-1.5216 0,-2.3775c0.8499,0.4755 1.6053,1.1412 2.4552,1.7118c0.1888,0.2853 0.1888,0.5706 0.1888,0.8559c0,0.5706 0,1.2364 0,1.9972z" fill="#a296df"/><path d="M215.1243,169.3736v0c0.7554,0.6657 1.6053,1.1413 2.3607,1.807c0.4721,0.4755 0.1889,1.2363 0.1889,1.7118c0,0.2853 0.1888,0.7609 -0.1889,0.856c-0.1889,0.0951 -0.3777,-0.1903 -0.5666,-0.3805c-0.1888,-0.0951 -0.2833,-0.1902 -0.4721,-0.2853c-1.6053,-0.6657 -1.6053,-2.0922 -1.322,-3.709z" fill="#a296df"/><path d="M228.2498,185.7313v0c-0.0944,0.3804 0.1889,0.951 -0.1888,1.1412c-0.2833,0.1902 -0.5666,-0.3804 -0.9443,-0.5706c-0.0944,0 -0.0944,-0.0951 -0.1889,-0.1902c-1.5108,-0.5706 -1.4164,-1.8069 -1.322,-3.0433c0,-0.3804 0.1889,-0.3804 0.3777,-0.1902c0.661,0.4755 1.4165,0.951 2.0775,1.4266c0.3777,0.3804 0.0944,0.951 0.1888,1.4265z" fill="#a296df"/><path d="M215.2187,174.6994v0c0.8499,0.7608 1.6053,1.2363 2.3607,1.8069c0.4722,0.3804 0.2833,0.856 0.2833,1.4266c0,0.3804 0.1889,0.951 -0.0944,1.1412c-0.4722,0.2853 -0.7554,-0.4755 -1.1332,-0.6657c-1.2275,-0.4755 -1.6997,-1.5217 -1.4164,-2.8531c0,-0.1902 0,-0.4755 0,-0.8559z" fill="#a296df"/><path d="M222.9618,181.6419v0c-0.1888,0.4755 0.1889,1.0461 -0.1888,1.2363c-0.3777,0.1902 -0.661,-0.2853 -1.0387,-0.5706c-0.0945,-0.0951 -0.1889,-0.1902 -0.3777,-0.2853c-1.2276,-0.5706 -1.0387,-1.807 -1.1332,-2.9482c0,-0.3804 0.1889,-0.4755 0.4722,-0.2853c0.661,0.5706 1.4164,1.0461 1.983,1.6167c0.4721,0.3805 0.0944,0.856 0.2832,1.2364z" fill="#a296df"/><path d="M234.3877,178.4084v0c-0.5666,0.3804 -1.1332,0.8559 -1.6998,1.3314c-0.1888,-0.951 -0.1888,-1.8069 0,-2.758c0.5666,0.3805 1.2276,0.856 1.6998,1.4266z" fill="#d67f74"/><path d="M234.2932,172.8924v0c-0.4721,0.5706 -1.0387,0.856 -1.6053,1.2364c-0.2832,-0.856 -0.1888,-1.807 -0.0944,-2.758c0.661,0.4755 1.322,0.8559 1.6997,1.5216z" fill="#d67f74"/><path d="M232.6879,188.1089v0c0.7555,0.1902 1.322,0.6657 1.7942,1.2363c-0.5666,0.4755 -1.0387,0.8559 -1.6053,1.2363c0,0.0951 -0.0944,0.1902 -0.0944,0.1902c-0.0945,-0.951 -0.0945,-1.8069 -0.0945,-2.6628z" fill="#d67f74"/><path d="M232.6879,182.5929v0c0.661,0.2853 1.322,0.6657 1.6998,1.4265c-0.4722,0.3805 -1.1332,0.6658 -1.5109,1.2364c-0.0944,0 -0.1889,0 -0.1889,0c0,-0.951 0,-1.807 0,-2.6629z" fill="#d67f74"/><path d="M260.5443,181.3566v0c0.2833,0.951 -0.2833,1.6167 -1.2276,2.0922c-0.4721,0.2853 -0.9443,1.0462 -1.4164,0.856c-0.4722,-0.1902 -0.0944,-1.0462 -0.0944,-1.6168c-0.1889,-0.5706 0.0944,-1.0461 0.5665,-1.3314c0.4722,-0.1902 1.0387,-0.5706 1.4164,-0.9511c0.1889,-0.1902 0.3778,-0.3804 0.661,-0.3804c0.2833,0.1902 0.0945,0.5707 0.0945,0.7609c0.0944,0.1902 0,0.2853 0,0.5706z" fill="#3d4688"/><path d="M257.617,193.815v0c-0.4721,-1.1412 0.5666,-1.4265 1.2276,-1.9971c0.4721,-0.2853 0.9442,-0.9511 1.4164,-0.7609c0.4721,0.2854 0.0944,1.0462 0.1888,1.6168c0,0.5706 -0.2832,0.951 -0.661,1.2363c-0.5665,0.3804 -1.0387,0.6657 -1.5108,1.0462c-0.1889,0.0951 -0.2833,0.3804 -0.5666,0.2853c-0.1888,-0.1902 -0.0944,-0.3804 -0.0944,-0.5706c0,-0.1903 0,-0.4756 0,-0.856z" fill="#3d4688"/><path d="M263.2827,179.0741v0c-0.1889,-0.7608 0.1888,-1.4265 0.9443,-1.902c0.4721,-0.2854 0.8498,-0.5707 1.2275,-0.856c0.1889,-0.1902 0.2833,-0.3804 0.5666,-0.1902c0.0944,0.1902 0.0944,0.3804 0,0.5706c0,0.2853 -0.0944,0.4756 -0.0944,0.856c0,0.3804 0.1888,0.8559 -0.1889,1.1412c-0.661,0.6657 -1.4164,1.1412 -2.1718,1.7118c-0.2833,0.0951 -0.2833,-0.0951 -0.2833,-0.2853c0,-0.2853 0,-0.5706 0,-1.0461z" fill="#3d4688"/><path d="M257.9003,177.3623v0c-0.2833,-0.856 0.2833,-1.4266 1.0387,-1.807c0.4721,-0.2853 0.8498,-0.5706 1.2276,-0.8559c0.2832,-0.3804 0.4721,-0.1902 0.4721,0.1902c0,0.5706 0,1.2363 0,1.8069c0,0.2853 -0.1889,0.4756 -0.3777,0.5707c-0.661,0.4755 -1.322,0.951 -1.8886,1.4265c-0.3777,0.2853 -0.4721,0.0951 -0.4721,-0.2853c0,-0.2853 0,-0.6657 0,-1.0461z" fill="#3d4688"/><path d="M266.1155,170.4198v0c0,0.8559 0,1.6167 0,2.4726c0,0.1902 -0.1888,0.2853 -0.3777,0.3804c-0.661,0.5707 -1.2275,0.9511 -1.8885,1.4266c-0.3778,0.2853 -0.3778,0.0951 -0.3778,-0.2853c0,-0.5706 0,-1.1413 0,-1.807c0,-0.1902 0,-0.3804 0.1889,-0.4755c0.661,-0.5706 1.5109,-1.0461 2.4551,-1.7118z" fill="#3d4688"/><path d="M263.0938,186.1117v0c0.1889,-0.8559 0.1889,-1.7118 0.1889,-2.4727c0,-0.1902 0.0944,-0.3804 0.2833,-0.4755c0.661,-0.4755 1.1331,-0.951 1.8885,-1.3314c0.2833,-0.2853 0.4722,-0.2853 0.4722,0.2853c0,0 0,0 0,0.0951c0.1888,1.2363 -0.0944,2.2825 -1.322,2.8531c-0.4722,0.2853 -0.9443,0.6657 -1.5109,1.0461z" fill="#3d4688"/><path d="M260.4498,186.8725v0c0.1889,0.9511 -0.2832,1.5217 -1.0387,1.9021c-0.1888,0.1902 -0.3777,0.3804 -0.5665,0.4755c-0.2833,0.0951 -0.5666,0.6657 -1.0387,0.4755c-0.2833,-0.1902 0,-0.6657 -0.0945,-1.0461c-0.0944,-0.951 0.1889,-1.6168 1.1332,-2.0923c0.0944,-0.0951 0.1888,-0.2853 0.3777,-0.2853c0.3777,-0.2853 0.7554,-0.7608 1.0387,-0.6657c0.3777,0.1902 0.0944,0.8559 0.1888,1.2363z" fill="#3d4688"/><path d="M263.0938,190.0109v0c-0.3777,-1.4265 0.7555,-1.7118 1.4165,-2.2824c0.3777,-0.2854 0.7554,-0.7609 1.1331,-0.5707c0.2833,0.0951 0.0944,0.7609 0.0944,1.1413c0.1889,0.8559 -0.0944,1.5216 -0.9443,1.902c-0.1888,0.0951 -0.2832,0.2853 -0.4721,0.3804c-0.3777,0.1902 -0.7554,0.7609 -1.0387,0.5707c-0.3777,-0.1903 -0.0944,-0.7609 -0.1889,-1.1413z" fill="#3d4688"/><path d="M268.7595,174.8896v0c0.2833,0.951 0.3777,1.902 -0.661,2.4727c-0.2833,0.0951 -0.3777,0.3804 -0.7554,0.3804c0.0944,-0.6657 -0.0944,-1.3315 0.1889,-1.9972c0.5665,-0.0951 0.8498,-0.5706 1.2275,-0.8559z" fill="#6a2a23"/><path d="M268.9484,169.5638v0c0,0.1902 0,0.3804 0,0.4755c0.1888,1.2364 -0.4722,1.807 -1.4164,2.1874c0,-0.6657 0,-1.4265 0,-2.0922c0.661,0.0951 0.9442,-0.5707 1.4164,-0.5707z" fill="#6a2a23"/><path d="M268.5707,180.3104v0c0.3777,1.0462 0.3777,2.0923 -0.7555,2.6629c-0.1888,0.0951 -0.2832,0.0951 -0.4721,0.2853c0,-0.6657 0,-1.3314 0,-1.9971c0.5666,-0.1902 0.9443,-0.5706 1.2276,-0.9511z" fill="#6a2a23"/><path d="M267.3431,177.7427v0c0.3777,0 0.4721,-0.2853 0.7554,-0.3804c0.1889,0.8559 0.3777,1.6167 0.0945,2.4726c-0.2833,-0.0951 -0.5666,-0.2853 -0.8499,-0.4755c0,-0.5706 0,-1.0461 0,-1.6167z" fill="#666772"/><path d="M268.9484,169.5638v0c-0.4722,0 -0.7554,0.6658 -1.4164,0.5707c0,-0.4756 0,-1.0462 0,-1.5217c0.661,0 1.1331,0.2853 1.4164,0.951z" fill="#450e0e"/><path d="M267.3431,179.3594v0c0.2833,0.1902 0.5666,0.3804 0.8499,0.4755c0.0944,0.1902 0.2832,0.2853 0.3777,0.4755c-0.2833,0.3805 -0.661,0.7609 -1.2276,0.9511c0,-0.6657 0,-1.2364 0,-1.9021z" fill="#450e0e"/><path d="M267.3431,183.2586v0c0.1889,-0.1902 0.2833,-0.1902 0.4721,-0.2853c0.0945,0.7608 0.3778,1.4266 0,2.0923c-0.1888,0 -0.3777,-0.1902 -0.661,-0.1902c0.0945,-0.5706 -0.0944,-1.0462 0.1889,-1.6168z" fill="#666772"/><path d="M268.7595,174.8896v0c-0.3777,0.2853 -0.661,0.7608 -1.2275,0.8559c0,-0.6657 0,-1.2363 0,-1.8069c0.4721,0.1902 0.9442,0.5706 1.2275,0.951z" fill="#450e0e"/><path d="M232.8768,190.5815v0c0.5666,-0.3804 1.0387,-0.7608 1.6053,-1.2363c0.8498,0.4755 1.6997,0.951 2.2663,1.9021c0.2832,0.5706 0.9442,0.7608 1.322,1.1412c0,0.6657 0,1.4265 0,2.0922c-0.8499,-0.3804 -1.5109,-1.0461 -2.2663,-1.6167c-1.0387,-0.6657 -1.983,-1.5216 -2.9273,-2.2825z" fill="#db150b"/><path d="M232.8768,185.2558v0c0.3777,-0.5706 1.0387,-0.8559 1.5109,-1.2364c0.9442,0.4756 1.8885,0.9511 2.4551,1.9021c0.2833,0.4755 0.7554,0.7608 1.1331,0.951c0.0945,0.6657 0.0945,1.4266 0.0945,2.1874c-1.7942,-1.1412 -3.4939,-2.5678 -5.1936,-3.8041z" fill="#db150b"/><path d="M254.8786,178.1231v0c0,0.1902 0,0.2853 0,0.4755c-0.2833,0 -0.4722,-0.1902 -0.5666,-0.4755c-0.3777,-0.5706 -0.8498,-1.2364 -1.6053,-1.2364c0,-0.4755 0,-0.8559 0,-1.2363c0,-0.1902 0,-0.3804 0.3777,-0.3804c0.0945,0.3804 0.4722,0.5706 0.8499,0.6657c0.8499,0.5706 1.1331,1.2364 0.9443,2.1874z" fill="#3d4688"/><path d="M254.8786,184.5901v0c0.4721,0.6657 0.4721,1.902 -0.0944,2.4726c-0.1889,0.0951 -0.3778,0.0951 -0.3778,0.3804c-0.661,0.2854 -1.322,0.6658 -1.6997,1.2364c0,0.0951 -0.0944,0.0951 -0.1888,0.0951c-0.0945,0 -0.1889,0 -0.2833,-0.0951c-0.4722,-0.5706 -1.2276,-0.951 -1.8886,-1.4266c-0.661,-0.4755 -0.7554,-1.8069 -0.1888,-2.4726c0.3777,0.951 1.5108,1.1412 2.1718,1.8069c0.0944,0.0951 0.3777,0 0.4722,-0.0951c0.2832,-0.2853 0.5665,-0.5706 0.8498,-0.7608c0.5666,-0.2853 1.1332,-0.4755 1.2276,-1.1412z" fill="#6a2a23"/><path d="M254.8786,178.979v0c0.5665,0.7608 0.4721,2.0923 -0.0944,2.5678c-0.1889,0.0951 -0.2833,0.2853 -0.3778,0.2853c-0.661,0.2853 -1.0387,0.7608 -1.5108,1.1412c-0.0944,0.0951 -0.1889,0.0951 -0.1889,0.1902c-0.1888,0 -0.2833,0 -0.4721,0c-0.3777,-0.4755 -0.8499,-0.8559 -1.322,-1.1412c-0.7554,-0.3804 -1.0387,-0.951 -0.8499,-1.7119c0,-0.2853 0,-0.5706 0,-0.951c0.4722,0.4755 1.0388,0.7608 1.5109,1.1412c0.9443,0.7609 1.322,0.7609 2.0774,-0.2853c0.5666,-0.2853 1.1332,-0.3804 1.2276,-1.1412z" fill="#6a2a23"/><path d="M254.7842,190.106v0c0.4721,0.5706 0.3777,1.9972 -0.0945,2.3776c-0.1888,0.0951 -0.2833,0.1902 -0.3777,0.3804c-0.661,0.3804 -1.2276,0.7608 -1.7941,1.2363c-0.0945,0 -0.2833,0 -0.3777,0c-0.3778,-0.4755 -0.8499,-0.7608 -1.4165,-1.1412c-0.9442,-0.7608 -1.0387,-1.2363 -0.661,-2.4727c0.5666,0.4755 1.2276,0.856 1.7942,1.3315c0.3777,0.2853 0.661,0.2853 1.0387,0c0.2833,-0.1902 0.5666,-0.3804 0.7554,-0.6657c0.4722,-0.1903 0.9443,-0.3805 1.1332,-0.9511z" fill="#6a2a23"/><path d="M253.651,180.2153v0c-0.7554,1.0462 -1.1331,1.0462 -2.0774,0.2853c-0.4721,-0.3804 -1.0387,-0.6657 -1.5109,-1.1412c0.8499,-0.6657 1.6997,-1.2363 2.644,-1.902c0,0.0951 0,0.1902 0,0.2853c-0.0944,0.951 -0.0944,1.902 0.9443,2.4726z" fill="#450e0e"/><path d="M252.2346,183.1635v0c0.1888,0 0.2833,0 0.4721,0c-0.0944,1.0462 0,1.9972 0.9443,2.5678c-0.2833,0.1902 -0.5666,0.4755 -0.8498,0.7608c-0.0945,0.0951 -0.3778,0.1902 -0.4722,0.0951c-0.661,-0.6657 -1.7941,-0.8559 -2.1718,-1.8069c0.7554,-0.5706 1.4164,-1.0462 2.0774,-1.6168z" fill="#450e0e"/><path d="M253.651,191.1522v0c-0.1888,0.2853 -0.4721,0.4755 -0.7554,0.6657c-0.3777,0.2853 -0.661,0.2853 -1.0387,0c-0.5666,-0.4755 -1.2276,-0.856 -1.7942,-1.3315c0.5666,-0.7608 1.4165,-1.1412 2.1719,-1.8069c0.0944,0.0951 0.1888,0.0951 0.2833,0.0951c-0.0945,0.951 0,1.902 1.1331,2.3776z" fill="#450e0e"/><path d="M252.1402,194.1003v0c0.0944,0 0.2832,0 0.3777,0c0,0 0,0.0951 0,0.1902c-0.1889,0.9511 0.1888,1.7119 1.0387,2.2825c-0.661,1.1412 -1.1332,1.1412 -2.0774,0.3804c-0.4722,-0.3804 -0.9443,-0.6657 -1.5109,-1.0461c0.7554,-0.6657 1.4164,-1.2363 2.1719,-1.807z" fill="#450e0e"/><path d="M252.7067,177.7427v0c0,-0.0951 0,-0.1902 0,-0.2853c0,-0.2853 0,-0.3804 0,-0.5707c0.7555,0 1.2276,0.6658 1.6053,1.2364c0.0944,0.2853 0.2833,0.4755 0.5666,0.4755c0,0.0951 0,0.2853 0,0.3804v0.0951c-0.4722,0 -0.9443,-0.2853 -1.322,-0.6657c-0.1889,-0.1902 -0.3777,-0.5706 -0.8499,-0.6657z" fill="#38376e"/><path d="M252.5179,194.2905v0c0,-0.0951 0,-0.1902 0,-0.1902c0.5665,-0.4755 1.1331,-0.8559 1.7941,-1.2363c0.2833,0.1902 0.4722,0.4755 0.4722,0.951c0,0.4755 0,1.1413 0,1.7119v0c-0.661,0.0951 -1.0388,-0.2853 -1.4165,-0.5706c-0.1888,-0.2853 -0.3777,-0.6658 -0.8498,-0.6658z" fill="#38376e"/><path d="M252.7067,188.6795v0c0.3777,-0.5706 1.0387,-0.951 1.6997,-1.2364c0.3778,0.2854 0.3778,0.6658 0.3778,1.0462c0,0.4755 0,1.0461 0,1.6167v0.0951c-0.8499,-0.2853 -1.4165,-1.0461 -2.0775,-1.5216z" fill="#38376e"/><path d="M253.651,185.7313v0c-0.9443,-0.5706 -1.0387,-1.5216 -0.9443,-2.5678c0,-0.0951 0.0945,-0.0951 0.1889,-0.1902c0.4721,0.6657 0.9443,1.3315 1.8886,1.5217c0,0 0,0 0.0944,0.0951c-0.0944,0.6657 -0.661,0.8559 -1.2276,1.1412z" fill="#2b1c41"/><path d="M254.7842,184.495v0c-0.9443,-0.1902 -1.4165,-0.856 -1.8886,-1.5217c0.4721,-0.3804 0.8498,-0.8559 1.5108,-1.1412c0.661,0.8559 0.1889,1.8069 0.3778,2.6629z" fill="#38376e"/><path d="M252.5179,194.2905v0c0.4721,0 0.661,0.3805 0.8498,0.6658c0.3777,0.2853 0.7555,0.6657 1.4165,0.5706c-0.1889,0.6657 -0.661,0.8559 -1.2276,1.0461c-0.8499,-0.5706 -1.2276,-1.3314 -1.0387,-2.2825z" fill="#2b1c41"/><path d="M252.7067,188.6795v0c0.661,0.4755 1.2276,1.2363 2.0775,1.5216c-0.1889,0.5706 -0.661,0.7608 -1.1332,0.9511c-1.1331,-0.4756 -1.2276,-1.4266 -1.1331,-2.3776c0.0944,0 0.1888,0 0.1888,-0.0951z" fill="#2b1c41"/><path d="M252.7067,177.7427v0c0.4722,0.0951 0.661,0.4755 0.8499,0.6657c0.3777,0.3804 0.8498,0.6657 1.322,0.6657c-0.0944,0.7608 -0.661,0.8559 -1.2276,1.1412c-1.0387,-0.5706 -1.0387,-1.5216 -0.9443,-2.4726z" fill="#2b1c41"/></g><g><path d="M210.23623,152.23157v0c0.2833,-0.3804 0.661,-0.5706 1.0387,-0.8559c8.4041,-5.7062 16.8082,-11.5074 25.2123,-17.3087c0.661,-0.3804 1.0387,-0.3804 1.6997,0.0951c9.5373,6.8474 19.0745,13.5997 28.6118,20.4471c1.5108,1.0461 2.8328,1.9972 4.2493,3.0433c0.1888,0.0951 0.3777,0.0951 0.3777,0.3804c-0.1889,0.2853 -0.4722,0.4755 -0.8499,0.7608c-2.0774,1.5217 -4.1548,3.0433 -6.2322,4.4699c-0.5666,0.3804 -0.4722,0.5706 0,0.8559c0.8498,0.5706 1.6052,1.2363 2.5495,1.8069c0.4722,0.3804 0.4722,0.5706 -0.0944,0.9511c-2.2663,1.6167 -4.627,3.3285 -6.9877,4.9453c-1.1331,0.7608 -2.1718,1.8069 -3.4938,2.2825c-0.2833,0.0951 -0.3778,-0.0951 -0.5666,-0.2853c-0.9443,-0.6658 -1.8886,-1.5217 -3.0217,-2.0923c-0.0944,0.0951 -0.1889,0.0951 -0.1889,0.1902v0c-0.661,0.0951 -1.0387,0.4755 -1.6052,0.8559c-2.1719,1.5217 -4.2493,3.0433 -6.4212,4.565c-0.661,-0.5707 -1.322,-1.0462 -2.0774,-1.5217c-1.6053,-1.1412 -3.0217,-2.3776 -4.5325,-3.2335c-0.4722,-0.3804 -0.9443,-0.7608 -1.322,-1.1412c-1.4165,-0.951 -2.7385,-2.0923 -4.2493,-2.9482c-0.0944,-0.3804 -0.4722,-0.4755 -0.7554,-0.7608c-5.3824,-3.8992 -10.8593,-7.9886 -16.2417,-11.8879c-1.6997,-1.2363 -3.305,-2.5677 -5.0991,-3.6139z" fill="#b5afad"/><path d="M210.23623,152.23157v0c1.7941,1.0462 3.3994,2.3776 5.0991,3.6139c5.3824,3.8993 10.8593,7.9887 16.2417,11.8879c0.2832,0.2853 0.661,0.3804 0.7554,0.7608c0,1.0461 0,2.0923 0.0944,3.0433c-0.0944,0.951 -0.1888,1.902 0.0944,2.758c0,0.0951 0,0.0951 0,0.1902c0,0.8559 0,1.8069 0,2.6628c-0.1888,0.9511 -0.1888,1.807 0,2.758c0,0 0,0 0,0.0951c0,0.9511 0,1.807 0,2.758c0,0.8559 0,1.7119 0,2.6629c0,0.8559 0,1.902 0,2.8531c0,0.8559 0,1.7118 0.0945,2.6628c0,0.856 0,1.6168 0,2.3776c0,0.0951 -0.0945,0.0951 -0.0945,0.0951c-1.6997,-1.2363 -3.4938,-2.4727 -5.1935,-3.8041c-5.288,-3.9943 -10.576,-7.9886 -15.9584,-11.9829c-0.1888,-0.1902 -0.4721,-0.2853 -0.4721,-0.6658c0.0944,-0.6657 -0.0944,-1.3314 -0.0944,-1.902c0,-2.8531 -0.1889,-5.7062 -0.1889,-8.5593c0,-2.4726 -0.1889,-5.0404 -0.1889,-7.6082c-0.1888,-2.1873 -0.0944,-4.4698 -0.1888,-6.6572zM219.77343,163.45377v0c-0.1888,1.1412 0.1889,1.902 1.2276,2.4726c0.3777,0.1902 0.661,0.3804 0.9443,0.6657c0.3777,0.2854 0.661,0.2854 0.5666,-0.2853c0,-1.2363 0.0944,-2.4726 -1.322,-3.0432c-0.1889,-0.0952 -0.3778,-0.1903 -0.4722,-0.2854c-0.2833,-0.1902 -0.5665,-0.6657 -0.8498,-0.4755c-0.2833,0.0951 -0.0945,0.5706 -0.0945,0.9511zM225.25033,166.30677v0c0,0.3804 0,0.5707 0,0.6658c-0.2833,1.4265 0.1888,2.5677 1.6053,3.2334c0.2832,0.0952 0.5665,0.6658 0.9442,0.4756c0.2833,-0.0951 0.0945,-0.6658 0.0945,-1.0462c0,-0.4755 0.1888,-1.1412 -0.1889,-1.5216c-0.7554,-0.5706 -1.5108,-1.1412 -2.4551,-1.807zM225.34473,171.82277v0c-0.1889,1.6167 -0.2833,2.9482 1.322,3.709c0.3777,0.1902 0.7554,0.8559 1.1331,0.6657c0.3777,-0.1902 0.0945,-0.8559 0.0945,-1.3314c0,-0.4755 0.1888,-0.951 -0.1889,-1.2364c-0.7554,-0.5706 -1.5108,-1.1412 -2.3607,-1.8069zM217.41273,168.68437v0c0,-0.4755 -0.0944,-0.7608 0,-0.951c0.1889,-1.3315 -0.2833,-2.2825 -1.5108,-2.8531c-0.3777,-0.1902 -0.661,-0.8559 -1.0387,-0.6657c-0.3777,0.1902 -0.1889,0.8559 -0.1889,1.2363c0,0.4755 -0.1888,1.0461 0.3777,1.4266c0.661,0.5706 1.4164,1.0461 2.3607,1.8069zM219.96233,167.82847v0c0,0.8559 0,1.4265 0,1.9971c0,0.2853 -0.0944,0.5707 0.1889,0.7609c0.6609,0.6657 1.4164,1.2363 2.4551,1.8069c0,-0.8559 0,-1.6167 0,-2.2825c0,-0.1902 -0.0944,-0.3804 -0.2833,-0.4755c-0.7554,-0.5706 -1.5109,-1.1412 -2.3607,-1.8069zM214.48553,159.36427v0c0.0944,0.3805 0.1888,0.7609 0.1888,1.1413c0,0.2853 0,0.6657 0.2833,0.951c0.661,0.3804 1.322,0.951 1.8886,1.3314c0.2832,0.1902 0.4721,0.1902 0.4721,-0.1902c0,-1.3314 0,-2.6628 -1.6053,-3.3286c-0.0944,-0.0951 -0.1888,-0.2853 -0.3777,-0.2853c-0.1888,-0.1902 -0.4721,-0.4755 -0.661,-0.2853c-0.1888,0.0951 -0.0944,0.3804 -0.1888,0.6657zM222.70073,178.00447v0c0,-0.3804 0,-0.5706 0,-0.7608c0.2833,-1.4266 -0.1888,-2.3776 -1.5108,-3.0433c-0.3778,-0.1902 -0.661,-0.7609 -1.0387,-0.5707c-0.3778,0.1903 -0.0945,0.7609 -0.0945,1.1413c0,0.4755 -0.2833,1.0461 0.2833,1.4265c0.661,0.5706 1.4164,1.1413 2.3607,1.807zM228.08313,181.99877v0c0,-0.7608 0,-1.4266 0,-1.9972c0,-0.2853 0,-0.5706 -0.1888,-0.8559c-0.8499,-0.5706 -1.6053,-1.2363 -2.4552,-1.7118c0,0.8559 0,1.6167 0,2.3775c0,0.2853 0.0945,0.2853 0.2833,0.3804c0.7554,0.5707 1.5109,1.1413 2.3607,1.807zM214.95763,169.54027v0c-0.2833,1.6168 -0.2833,3.0433 1.322,3.709c0.1888,0.0951 0.2833,0.1902 0.4721,0.2853c0.1889,0.1902 0.3777,0.4756 0.5666,0.3805c0.3777,-0.0951 0.1889,-0.5707 0.1889,-0.856c0,-0.4755 0.2832,-1.2363 -0.1889,-1.7118c-0.7554,-0.6657 -1.6053,-1.1413 -2.3607,-1.807zM228.08313,185.89797v0c-0.0944,-0.4755 0.1889,-1.0461 -0.1888,-1.4265c-0.661,-0.4756 -1.4165,-0.9511 -2.0775,-1.4266c-0.1888,-0.1902 -0.3777,-0.1902 -0.3777,0.1902c-0.0944,1.2364 -0.1888,2.4727 1.322,3.0433c0.0945,0.0951 0.0945,0.1902 0.1889,0.1902c0.3777,0.1902 0.661,0.7608 0.9443,0.5706c0.3777,-0.1902 0.0944,-0.7608 0.1888,-1.1412zM215.05203,174.86607v0c0,0.3804 0,0.6657 0,0.8559c-0.2833,1.3314 0.1889,2.3776 1.4164,2.8531c0.3778,0.1902 0.661,0.951 1.1332,0.6657c0.2833,-0.1902 0.0944,-0.7608 0.0944,-1.1412c0,-0.5706 0.1889,-1.0462 -0.2833,-1.4266c-0.7554,-0.5706 -1.5108,-1.0461 -2.3607,-1.8069zM222.79513,181.80857v0c-0.1888,-0.3804 0.1889,-0.8559 -0.2832,-1.2364c-0.5666,-0.5706 -1.322,-1.0461 -1.983,-1.6167c-0.2833,-0.1902 -0.4722,-0.0951 -0.4722,0.2853c0.0945,1.1412 -0.0944,2.3776 1.1332,2.9482c0.1888,0.0951 0.2832,0.1902 0.3777,0.2853c0.3777,0.2853 0.661,0.7608 1.0387,0.5706c0.3777,-0.1902 0,-0.7608 0.1888,-1.2363z" fill="#fde9d1"/><path d="M256.31723,174.10527v0c1.322,-0.4756 2.3607,-1.5217 3.4938,-2.2825c2.3607,-1.6168 4.7214,-3.3286 6.9877,-4.9453c0.9443,0.3804 0.3777,1.2363 0.5666,1.902c0,0.4755 0,1.0461 0,1.5217c0,0.6657 0,1.4265 0,2.0922c-0.2833,0.5706 -0.1889,1.1412 0,1.7119c0,0.5706 0,1.1412 0,1.8069c-0.2833,0.6657 -0.0945,1.3315 -0.1889,1.9972c0,0.5706 0,1.0461 0,1.6167c0,0.6657 0,1.2364 0,1.9021c0,0.6657 0,1.3314 0,1.9971c-0.2833,0.5706 -0.0944,1.0462 -0.1889,1.6168c0,0.6657 0,1.2363 0,1.8069c0.0945,0.6657 -0.1888,1.2364 0.1889,1.9021c-0.3777,0.6657 -0.1889,1.4265 -0.2833,2.1873c0,0.3805 -0.0944,0.5707 -0.3777,0.7609c-3.305,2.3775 -6.61,4.9453 -9.915,7.3229c-0.1888,0.0951 -0.3777,0.2853 -0.5665,0.2853c0.1888,-6.2768 0.0944,-12.4585 0.0944,-18.6402c0.3777,-0.7608 0.0944,-1.7118 0.1889,-2.4726c0,-1.3315 0,-2.758 0,-4.0894zM260.37763,181.52327v0c0,-0.2853 0.0944,-0.3804 0,-0.5706c0,-0.1902 0.1888,-0.5707 -0.0945,-0.7609c-0.2832,0 -0.4721,0.1902 -0.661,0.3804c-0.3777,0.3805 -0.9442,0.7609 -1.4164,0.9511c-0.4721,0.2853 -0.7554,0.7608 -0.5665,1.3314c0,0.5706 -0.3778,1.4266 0.0944,1.6168c0.4721,0.1902 0.9443,-0.5707 1.4164,-0.856c0.9443,-0.4755 1.5109,-1.1412 1.2276,-2.0922zM257.45033,193.98167v0c0,0.3804 0,0.6657 0,0.856c0,0.1902 -0.0944,0.3804 0.0944,0.5706c0.2833,0.0951 0.3777,-0.1902 0.5666,-0.2853c0.4721,-0.3805 0.9443,-0.6658 1.5108,-1.0462c0.3778,-0.2853 0.661,-0.6657 0.661,-1.2363c-0.0944,-0.5706 0.2833,-1.3314 -0.1888,-1.6168c-0.4722,-0.1902 -0.9443,0.4756 -1.4164,0.7609c-0.661,0.5706 -1.6997,0.8559 -1.2276,1.9971zM263.11603,179.24077v0c0,0.4755 0,0.7608 0,1.0461c0,0.1902 0,0.3804 0.2833,0.2853c0.7554,-0.5706 1.5108,-1.0461 2.1718,-1.7118c0.3777,-0.2853 0.1889,-0.7608 0.1889,-1.1412c0,-0.3804 0.0944,-0.5707 0.0944,-0.856c0.0944,-0.1902 0.0944,-0.3804 0,-0.5706c-0.2833,-0.1902 -0.3777,0 -0.5666,0.1902c-0.3777,0.2853 -0.7554,0.5706 -1.2275,0.856c-0.7555,0.4755 -1.1332,1.1412 -0.9443,1.902zM257.73363,177.52897v0c0,0.3804 0,0.7608 0,1.0461c0,0.3804 0.0944,0.5706 0.4721,0.2853c0.5666,-0.4755 1.2276,-0.951 1.8886,-1.4265c0.1888,-0.0951 0.3777,-0.2854 0.3777,-0.5707c0,-0.5706 0,-1.2363 0,-1.8069c0,-0.3804 -0.1889,-0.5706 -0.4721,-0.1902c-0.3778,0.2853 -0.7555,0.5706 -1.2276,0.8559c-0.7554,0.3804 -1.322,0.951 -1.0387,1.807zM265.94883,170.58647v0c-0.9442,0.6657 -1.7941,1.1412 -2.4551,1.7118c-0.1889,0.0951 -0.1889,0.2853 -0.1889,0.4755c0,0.6657 0,1.2364 0,1.807c0,0.3804 0,0.5706 0.3778,0.2853c0.661,-0.4755 1.2275,-0.8559 1.8885,-1.4266c0.1889,-0.0951 0.3777,-0.1902 0.3777,-0.3804c0,-0.8559 0,-1.6167 0,-2.4726zM262.92713,186.27837v0c0.5666,-0.3804 1.0387,-0.7608 1.5109,-1.0461c1.2276,-0.5706 1.5108,-1.6168 1.322,-2.8531c0,-0.0951 0,-0.0951 0,-0.0951c0,-0.5706 -0.1889,-0.5706 -0.4722,-0.2853c-0.7554,0.3804 -1.2275,0.8559 -1.8885,1.3314c-0.1889,0.0951 -0.2833,0.2853 -0.2833,0.4755c0,0.7609 0,1.6168 -0.1889,2.4727zM260.28313,187.03917v0c-0.0944,-0.3804 0.1889,-1.0461 -0.1888,-1.2363c-0.2833,-0.0951 -0.661,0.3804 -1.0387,0.6657c-0.1889,0 -0.2833,0.1902 -0.3777,0.2853c-0.9443,0.4755 -1.2276,1.1413 -1.1332,2.0923c0.0945,0.3804 -0.1888,0.8559 0.0945,1.0461c0.4721,0.1902 0.7554,-0.3804 1.0387,-0.4755c0.1888,-0.0951 0.3777,-0.2853 0.5665,-0.4755c0.7555,-0.3804 1.2276,-0.951 1.0387,-1.9021zM262.92713,190.17757v0c0.0945,0.3804 -0.1888,0.951 0.1889,1.1413c0.2833,0.1902 0.661,-0.3805 1.0387,-0.5707c0.1889,-0.0951 0.2833,-0.2853 0.4721,-0.3804c0.8499,-0.3804 1.1332,-1.0461 0.9443,-1.902c0,-0.3804 0.1889,-1.0462 -0.0944,-1.1413c-0.3777,-0.1902 -0.7554,0.2853 -1.1331,0.5707c-0.661,0.5706 -1.7942,0.8559 -1.4165,2.2824z" fill="#68727f"/><path d="M237.90373,172.58357v0c1.5108,0.8559 2.9272,2.0923 4.5325,3.2335c0.7554,0.4755 1.4164,0.951 2.0774,1.5217c0,2.4726 -0.0944,4.9453 0.0945,7.418c-0.0945,0.2853 -0.0945,0.6657 -0.0945,0.951c0,4.3747 0,8.7494 0,13.0291c0,1.2363 0,2.3775 0,3.5188c-0.8498,-0.0951 -1.322,-0.856 -1.983,-1.2364c-1.5108,-1.1412 -3.1161,-2.2824 -4.7214,-3.5188c0.3777,-1.0461 0.1889,-1.902 0.0945,-2.8531c0,-0.6657 0,-1.4265 0,-2.0922c0.0944,-1.0461 0.0944,-2.1874 0,-3.3286c0,-0.7608 0,-1.5217 -0.0945,-2.1874c0.1889,-1.1412 0.1889,-2.1873 0,-3.2335c0,-0.7608 0,-1.6167 0,-2.3775c0.1889,-1.0462 0,-2.0923 0,-3.1384c0,-0.7608 0,-1.5217 0,-2.2825c0,-1.1412 0.0945,-2.2825 0.0945,-3.4237z" fill="#feead0"/><path d="M267.36533,168.77947v0c-0.1889,-0.6657 0.3777,-1.5216 -0.5666,-1.902c0.5666,-0.3805 0.5666,-0.5707 0.0944,-0.9511c-0.9443,-0.5706 -1.6997,-1.2363 -2.5495,-1.8069c-0.4722,-0.2853 -0.5666,-0.4755 0,-0.8559c2.0774,-1.4266 4.1548,-2.9482 6.2322,-4.4699c0.3777,-0.2853 0.661,-0.4755 0.8499,-0.7608c0.2833,0.2853 0.1888,0.6657 0.1888,0.8559c-0.1888,7.7033 -0.3777,15.4067 -0.5665,23.11c0,0.7608 -0.1889,1.4265 -0.9443,1.8069c-0.7554,0.4756 -1.5109,1.0462 -2.1719,1.6168c-0.0944,0 -0.1888,-0.0951 -0.2833,-0.1902c0.3778,-0.6657 0.0945,-1.3315 0,-2.0923c1.1332,-0.5706 1.1332,-1.6167 0.7555,-2.6629c-0.0945,-0.1902 -0.2833,-0.2853 -0.3777,-0.4755c0.2832,-0.8559 0.0944,-1.6167 -0.0945,-2.4726c1.0387,-0.5707 0.9443,-1.5217 0.661,-2.4727c-0.2833,-0.3804 -0.7554,-0.7608 -1.2275,-0.951c-0.1889,-0.5707 -0.2833,-1.1413 0,-1.7119c0.9442,-0.3804 1.6052,-0.951 1.4164,-2.1874c0,-0.0951 0,-0.2853 0,-0.4755c-0.2833,-0.6657 -0.7554,-0.951 -1.4164,-0.951z" fill="#69707c"/><path d="M244.50173,202.25567v0c0,-1.1413 0,-2.2825 0,-3.5188c0,-4.2797 0,-8.6544 0,-13.0291c0,-0.2853 0,-0.6657 0.0945,-0.951c0.2832,-0.3804 1.322,-0.2853 0.8498,-1.3315c0,-0.0951 0.1889,-0.3804 0.3777,-0.4755c0.661,-0.4755 0.9443,-1.4265 1.6053,-1.9971c0.4721,-0.5707 0.4721,-1.2364 1.0387,-1.807c0.7554,-0.5706 0.7554,-0.6657 0.0944,-1.4265c-0.0944,-0.0951 -0.2832,-0.2853 -0.1888,-0.4755c0.7554,0.0951 1.322,-0.5707 1.983,-0.856c0.3777,-0.0951 0.8498,-0.2853 0.3777,-0.951c-0.0944,0 0,-0.0951 0.0944,-0.1902c1.322,-0.7608 1.5109,-1.9972 1.6997,-3.3286v0c0,0 0.0945,0 0.1889,0c1.1331,1.8069 1.983,3.8041 3.0217,5.6111c0.0944,0.2853 0.0944,0.6657 0.5666,0.6657c-0.0945,0.7608 0.1888,1.7118 -0.1889,2.4726c-0.2833,-0.0951 -0.2833,-0.4755 -0.3777,-0.5706c-0.3777,-0.5706 -0.3777,-1.4265 -1.0387,-1.8069c0.1888,-0.951 -0.0944,-1.6168 -0.9443,-2.1874c-0.3777,-0.0951 -0.7554,-0.2853 -0.8499,-0.6657c-0.0944,-0.1902 0,-0.3804 -0.2832,-0.4755c-0.1889,-0.0951 -0.2833,0.0951 -0.4722,0.2853c-1.322,1.9972 -2.4551,4.0894 -3.8715,6.0866c-0.4722,0.5706 -0.8499,1.5216 0,2.2824c0.2832,0.2853 0.1888,0.6658 0.0944,1.0462c0,0.1902 -0.0944,0.3804 0,0.6657c0.0944,0.4755 -0.0944,0.951 -0.3777,1.3314c-0.5666,0.8559 -0.5666,1.6168 0.0944,2.3776c0.0944,0.0951 0.0944,0.2853 0.1889,0.3804c0.5665,0.951 0.0944,1.9021 -0.3778,2.758c-0.3777,0.8559 -0.4721,1.8069 0.1889,2.6629c0.4721,0.6657 0.5666,1.3314 0.1889,2.1873c-0.2833,0.3804 -0.5666,0.8559 -0.5666,1.3315c-0.0944,0.4755 -0.3777,1.1412 0.4721,1.3314c-1.1331,0.8559 -2.2662,1.7118 -3.305,2.4727c-0.1888,0.0951 -0.2832,0.0951 -0.3777,0.0951z" fill="#69707c"/><path d="M248.19633,199.68787v0c-0.8498,-0.1902 -0.5665,-0.8559 -0.4721,-1.3314c0,-0.4756 0.2833,-0.9511 0.5666,-1.3315c0.3777,-0.8559 0.2832,-1.5216 -0.1889,-2.1873c-0.661,-0.856 -0.5666,-1.807 -0.1889,-2.6629c0.4722,-0.8559 0.9443,-1.807 0.3778,-2.758c-0.0945,-0.0951 -0.0945,-0.2853 -0.1889,-0.3804c-0.661,-0.7608 -0.661,-1.5217 -0.0944,-2.3776c0.2833,-0.3804 0.4721,-0.8559 0.3777,-1.3314c-0.0944,-0.2853 0,-0.4755 0,-0.6657c0.0944,-0.3804 0.1888,-0.7609 -0.0944,-1.0462c-0.8499,-0.7608 -0.4722,-1.7118 0,-2.2824c1.4164,-1.9972 2.5495,-4.0894 3.8715,-6.0866c0.1889,-0.1902 0.2833,-0.3804 0.4722,-0.2853c0.2832,0.0951 0.1888,0.2853 0.2832,0.4755c-0.3777,0 -0.3777,0.1902 -0.3777,0.3804c0,0.3804 0,0.7608 0,1.2363c0,0.1903 0,0.2854 0,0.5707c-0.9443,0.6657 -1.7941,1.2363 -2.644,1.902c0,0.3804 0,0.6657 0,0.951c-0.1888,0.7609 0.0945,1.3315 0.8499,1.7119c0.4721,0.2853 0.9443,0.6657 1.322,1.1412c-0.661,0.5706 -1.322,1.0462 -2.0774,1.6168c-0.5666,0.6657 -0.4722,1.9971 0.1888,2.4726c0.661,0.4756 1.4164,0.856 1.8886,1.4266c-0.7554,0.6657 -1.6053,1.0461 -2.1719,1.8069c-0.3777,1.2364 -0.2832,1.7119 0.661,2.4727c0.5666,0.3804 1.0387,0.6657 1.4165,1.1412c-0.7555,0.5707 -1.4165,1.1413 -2.1719,1.807c-0.1888,0.7608 -0.2833,1.5216 0.2833,2.2825c-0.5666,0.5706 -1.322,0.951 -1.8886,1.3314z" fill="#666772"/><path d="M254.71193,178.28977v0c0.661,0.3804 0.661,1.2363 1.0387,1.8069c0.0944,0.0951 0.0944,0.4755 0.3777,0.5706c0,6.1817 0.0944,12.3634 -0.0944,18.6402c-0.5666,-0.2853 -1.0387,-0.6657 -1.4164,-1.0462c0.3777,-0.951 0.3777,-2.0922 0,-2.5677c0,-0.5706 0,-1.2364 0,-1.7119c0,-0.4755 -0.1889,-0.7608 -0.4722,-0.951c0.0944,-0.1902 0.1889,-0.2853 0.3777,-0.3804c0.4722,-0.3804 0.5666,-1.807 0.0945,-2.3776c0,-0.5706 0,-1.1412 0,-1.6167c0,-0.3804 0,-0.7608 -0.3778,-1.0462c0,-0.2853 0.1889,-0.2853 0.3778,-0.3804c0.5665,-0.5706 0.5665,-1.8069 0.0944,-2.4726c-0.0944,-0.0951 -0.0944,-0.0951 -0.0944,-0.0951c-0.1889,-0.856 0.2832,-1.807 -0.3778,-2.6629c0.0945,0 0.1889,-0.1902 0.3778,-0.2853c0.5665,-0.4755 0.6609,-1.807 0.0944,-2.5678c0,-0.0951 0,-0.2853 0,-0.3804c0,-0.1902 0,-0.2853 0,-0.4755z" fill="#666772"/><path d="M237.90373,194.64737v0c0.0944,0.9511 0.2832,1.807 -0.0945,2.8531c-1.6997,-1.4265 -3.3994,-2.6628 -5.0991,-3.9943c0,-0.0951 -0.0944,-0.0951 -0.0944,-0.1902c0,-0.7608 0,-1.5216 0,-2.3776c0,0 0.0944,-0.0951 0.0944,-0.1902c0.9443,0.7609 1.8886,1.6168 2.9273,2.2825c0.7554,0.5706 1.4164,1.2363 2.2663,1.6167z" fill="#fd5e3e"/><path d="M254.61753,195.69357v0c0.3777,0.4755 0.3777,1.6167 0,2.5677c-0.8499,0.0952 -1.4165,0.7609 -1.983,1.2364c-0.3778,0.1902 -0.5666,0.1902 -0.9443,-0.0951c-0.5666,-0.3804 -0.9443,-0.951 -1.6053,-1.0461c-0.5666,-0.7609 -0.4721,-1.5217 -0.2833,-2.2825c0.5666,0.3804 1.0387,0.6657 1.5109,1.0461c0.9442,0.7608 1.4164,0.7608 2.0774,-0.3804c0.5666,-0.1902 1.0387,-0.3804 1.2276,-1.0461z" fill="#6a2a23"/><path d="M267.17643,188.75107v0c-0.3777,-0.6657 -0.0944,-1.2364 -0.1889,-1.9021c0.5666,-0.1902 1.2276,-0.3804 1.1332,-1.1412c0.4721,0.3804 0.4721,1.9971 0,2.3776c-0.2833,0.1902 -0.5666,0.4755 -0.9443,0.6657z" fill="#6a2a23"/><path d="M268.12073,185.70777v0c0.0944,0.7608 -0.5666,0.951 -1.1332,1.1412c0,-0.5706 0,-1.1412 0,-1.8069c0.2833,0 0.4722,0.1902 0.661,0.1902c0.0945,0.0951 0.1889,0.1902 0.2833,0.1902c0,0.0951 0.1889,0.1902 0.1889,0.2853z" fill="#450e0e"/><path d="M232.61573,193.31597v0c0,0.0951 0.0944,0.0951 0.0944,0.1902c-0.0944,0 -0.0944,0 -0.1889,-0.0951c0,0 0.0945,0 0.0945,-0.0951z" fill="#d67f74"/><path d="M252.54003,171.91787v0c-0.1888,1.3314 -0.3777,2.5678 -1.6997,3.3286c-0.0944,0.0951 -0.1888,0.1902 -0.0944,0.1902c0.4721,0.6657 0,0.8559 -0.3777,0.951c-0.661,0.2853 -1.2276,0.9511 -1.983,0.856c-0.0944,0.1902 0.0944,0.3804 0.1888,0.4755c0.661,0.7608 0.661,0.8559 -0.0944,1.4265c-0.5666,0.5706 -0.5666,1.2363 -1.0387,1.807c-0.661,0.5706 -0.9443,1.5216 -1.6053,1.9971c-0.1888,0.0951 -0.3777,0.3804 -0.3777,0.4755c0.4722,1.0462 -0.5666,0.9511 -0.8498,1.3315c-0.1889,-2.4727 -0.0945,-4.9454 -0.0945,-7.418c2.1719,-1.5217 4.2493,-3.0433 6.4212,-4.565c0.5665,-0.3804 0.9442,-0.7608 1.6052,-0.8559z" fill="#68727f"/><path d="M237.90373,172.58357v0c0,1.1412 -0.0945,2.2825 -0.0945,3.4237c-0.3777,-0.0951 -0.7554,-0.3804 -1.0387,-0.8559c-0.661,-0.951 -1.6053,-1.6168 -2.644,-2.0923c-0.3777,-0.6657 -1.0387,-1.0461 -1.6997,-1.5216c-0.0944,-0.951 -0.0944,-1.9972 -0.0944,-3.0433c1.5108,0.8559 2.8328,1.9972 4.2493,2.9482c0.3777,0.3804 0.8498,0.7608 1.322,1.1412z" fill="#fd5e3e"/><path d="M256.31723,178.19467v0c-0.4722,0 -0.4722,-0.3804 -0.5666,-0.6657c-1.0387,-1.807 -1.8886,-3.8042 -3.0217,-5.6111c0,-0.0951 0,-0.0951 0,-0.1902c1.1331,0.5706 2.0774,1.4265 3.0217,2.0923c0.1888,0.1902 0.2833,0.3804 0.5666,0.2853c0,1.3314 0,2.7579 0,4.0894z" fill="#feead0"/><path d="M252.72893,171.72767v0c0,0.0951 0,0.0951 0,0.1902c-0.0944,0 -0.1889,0 -0.1889,0c0,-0.0951 0.0945,-0.0951 0.1889,-0.1902z" fill="#68727f"/><path d="M237.90373,189.22657v0c0.0944,1.1412 0.0944,2.2825 0,3.3286c-0.3778,-0.3804 -1.0388,-0.5706 -1.322,-1.1412c-0.5666,-0.9511 -1.4165,-1.4266 -2.2663,-1.9021c-0.4722,-0.5706 -1.0387,-1.0461 -1.7942,-1.2363c0,-0.9511 0,-1.9972 0,-2.8531c0,0 0.0945,0 0.1889,0c1.6997,1.2363 3.3994,2.6629 5.1936,3.8041z" fill="#fd5e3e"/><path d="M237.80923,183.80567v0c0.1889,1.0462 0.1889,2.0923 0,3.2335c-0.3777,-0.1902 -0.8498,-0.4755 -1.1331,-0.951c-0.5666,-0.951 -1.5109,-1.4265 -2.4551,-1.9021c-0.3778,-0.7608 -1.0388,-1.1412 -1.6998,-1.4265c0,-0.951 0,-1.8069 0,-2.758c0.3778,0.0951 0.5666,0.2853 0.8499,0.4755c1.5109,1.1413 3.0217,2.2825 4.4381,3.3286z" fill="#fd5e3e"/><path d="M237.80923,178.28977v0c0,1.0461 0.1889,2.0922 0,3.1384c-0.3777,-0.0951 -0.7554,-0.3804 -0.9443,-0.6657c-0.661,-1.0462 -1.6997,-1.5217 -2.6439,-2.1874c-0.4722,-0.5706 -1.1332,-1.0461 -1.6998,-1.4266c0,-0.8559 0,-1.8069 0,-2.6628c0.1889,0.0951 0.3778,0.1902 0.661,0.3804c1.5109,1.0461 3.0217,2.3776 4.627,3.4237z" fill="#fd5e3e"/><path d="M237.80923,178.28977v0c-1.6053,-1.0461 -3.1161,-2.3776 -4.627,-3.4237c-0.2832,-0.1902 -0.4721,-0.2853 -0.661,-0.3804c0,-0.0951 0,-0.0951 0,-0.1902c0.5666,-0.3804 1.1332,-0.6658 1.6053,-1.2364c1.0387,0.4755 1.983,1.1413 2.644,2.0923c0.2833,0.4755 0.661,0.7608 1.0387,0.8559c0,0.7608 0,1.5217 0,2.2825z" fill="#db150b"/><path d="M234.22103,178.57507v0c0.9442,0.6657 1.9829,1.1412 2.6439,2.1874c0.1889,0.2853 0.5666,0.5706 0.9443,0.6657c0,0.7608 0,1.6167 0,2.3775c-1.4164,-1.0461 -2.9272,-2.1873 -4.4381,-3.3286c-0.2833,-0.1902 -0.4721,-0.3804 -0.8499,-0.4755c0,-0.0951 0,-0.0951 0,-0.0951c0.5666,-0.4755 1.1332,-0.951 1.6998,-1.3314z" fill="#db150b"/><path d="M219.77343,163.45377v0c0,-0.3805 -0.1888,-0.856 0.0945,-0.9511c0.2833,-0.1902 0.5665,0.2853 0.8498,0.4755c0.0944,0.0951 0.2833,0.1902 0.4722,0.2854c1.4164,0.5706 1.322,1.8069 1.322,3.0432c0.0944,0.5707 -0.1889,0.5707 -0.5666,0.2853c-0.2833,-0.2853 -0.5666,-0.4755 -0.9443,-0.6657c-1.0387,-0.5706 -1.4164,-1.3314 -1.2276,-2.4726z" fill="#a296df"/><path d="M225.25033,166.30677v0c0.9443,0.6658 1.6997,1.2364 2.4551,1.807c0.3777,0.3804 0.1889,1.0461 0.1889,1.5216c0,0.3804 0.1888,0.9511 -0.0945,1.0462c-0.3777,0.1902 -0.661,-0.3804 -0.9442,-0.4756c-1.4165,-0.6657 -1.8886,-1.8069 -1.6053,-3.2334c0,-0.0951 0,-0.2854 0,-0.6658z" fill="#a296df"/><path d="M225.34473,171.82277v0c0.8499,0.6657 1.6053,1.2363 2.3607,1.8069c0.3777,0.2854 0.1889,0.7609 0.1889,1.2364c0,0.4755 0.2832,1.1412 -0.0945,1.3314c-0.3777,0.1902 -0.7554,-0.4755 -1.1331,-0.6657c-1.6053,-0.7608 -1.5109,-2.0923 -1.322,-3.709z" fill="#a296df"/><path d="M217.41273,168.68437v0c-0.9443,-0.7608 -1.6997,-1.2363 -2.3607,-1.8069c-0.5665,-0.3805 -0.3777,-0.9511 -0.3777,-1.4266c0,-0.3804 -0.1888,-1.0461 0.1889,-1.2363c0.3777,-0.1902 0.661,0.4755 1.0387,0.6657c1.2275,0.5706 1.6997,1.5216 1.5108,2.8531c-0.0944,0.1902 0,0.4755 0,0.951z" fill="#a296df"/><path d="M219.96233,167.82847v0c0.8498,0.6657 1.6053,1.2363 2.3607,1.8069c0.1889,0.0951 0.2833,0.2853 0.2833,0.4755c0,0.6658 0,1.4266 0,2.2825c-1.0387,-0.5706 -1.7942,-1.1412 -2.4551,-1.8069c-0.2833,-0.1902 -0.1889,-0.4756 -0.1889,-0.7609c0,-0.5706 0,-1.1412 0,-1.9971z" fill="#a296df"/><path d="M214.48553,159.36427v0c0.0944,-0.2853 0,-0.5706 0.1888,-0.6657c0.1889,-0.1902 0.4722,0.0951 0.661,0.2853c0.1889,0 0.2833,0.1902 0.3777,0.2853c1.6053,0.6658 1.6053,1.9972 1.6053,3.3286c0,0.3804 -0.1889,0.3804 -0.4721,0.1902c-0.5666,-0.3804 -1.2276,-0.951 -1.8886,-1.3314c-0.2833,-0.2853 -0.2833,-0.6657 -0.2833,-0.951c0,-0.3804 -0.0944,-0.7608 -0.1888,-1.1413z" fill="#a296df"/><path d="M222.70073,178.00447v0c-0.9443,-0.6657 -1.6997,-1.2364 -2.3607,-1.807c-0.5666,-0.3804 -0.2833,-0.951 -0.2833,-1.4265c0,-0.3804 -0.2833,-0.951 0.0945,-1.1413c0.3777,-0.1902 0.6609,0.3805 1.0387,0.5707c1.322,0.6657 1.7941,1.6167 1.5108,3.0433c0,0.1902 0,0.3804 0,0.7608z" fill="#a296df"/><path d="M228.08313,181.99877v0c-0.8498,-0.6657 -1.6053,-1.2363 -2.3607,-1.807c-0.1888,-0.0951 -0.2833,-0.0951 -0.2833,-0.3804c0,-0.7608 0,-1.5216 0,-2.3775c0.8499,0.4755 1.6053,1.1412 2.4552,1.7118c0.1888,0.2853 0.1888,0.5706 0.1888,0.8559c0,0.5706 0,1.2364 0,1.9972z" fill="#a296df"/><path d="M214.95763,169.54027v0c0.7554,0.6657 1.6053,1.1413 2.3607,1.807c0.4721,0.4755 0.1889,1.2363 0.1889,1.7118c0,0.2853 0.1888,0.7609 -0.1889,0.856c-0.1889,0.0951 -0.3777,-0.1903 -0.5666,-0.3805c-0.1888,-0.0951 -0.2833,-0.1902 -0.4721,-0.2853c-1.6053,-0.6657 -1.6053,-2.0922 -1.322,-3.709z" fill="#a296df"/><path d="M228.08313,185.89797v0c-0.0944,0.3804 0.1889,0.951 -0.1888,1.1412c-0.2833,0.1902 -0.5666,-0.3804 -0.9443,-0.5706c-0.0944,0 -0.0944,-0.0951 -0.1889,-0.1902c-1.5108,-0.5706 -1.4164,-1.8069 -1.322,-3.0433c0,-0.3804 0.1889,-0.3804 0.3777,-0.1902c0.661,0.4755 1.4165,0.951 2.0775,1.4266c0.3777,0.3804 0.0944,0.951 0.1888,1.4265z" fill="#a296df"/><path d="M215.05203,174.86607v0c0.8499,0.7608 1.6053,1.2363 2.3607,1.8069c0.4722,0.3804 0.2833,0.856 0.2833,1.4266c0,0.3804 0.1889,0.951 -0.0944,1.1412c-0.4722,0.2853 -0.7554,-0.4755 -1.1332,-0.6657c-1.2275,-0.4755 -1.6997,-1.5217 -1.4164,-2.8531c0,-0.1902 0,-0.4755 0,-0.8559z" fill="#a296df"/><path d="M222.79513,181.80857v0c-0.1888,0.4755 0.1889,1.0461 -0.1888,1.2363c-0.3777,0.1902 -0.661,-0.2853 -1.0387,-0.5706c-0.0945,-0.0951 -0.1889,-0.1902 -0.3777,-0.2853c-1.2276,-0.5706 -1.0387,-1.807 -1.1332,-2.9482c0,-0.3804 0.1889,-0.4755 0.4722,-0.2853c0.661,0.5706 1.4164,1.0461 1.983,1.6167c0.4721,0.3805 0.0944,0.856 0.2832,1.2364z" fill="#a296df"/><path d="M234.22103,178.57507v0c-0.5666,0.3804 -1.1332,0.8559 -1.6998,1.3314c-0.1888,-0.951 -0.1888,-1.8069 0,-2.758c0.5666,0.3805 1.2276,0.856 1.6998,1.4266z" fill="#d67f74"/><path d="M234.12653,173.05907v0c-0.4721,0.5706 -1.0387,0.856 -1.6053,1.2364c-0.2832,-0.856 -0.1888,-1.807 -0.0944,-2.758c0.661,0.4755 1.322,0.8559 1.6997,1.5216z" fill="#d67f74"/><path d="M232.52123,188.27557v0c0.7555,0.1902 1.322,0.6657 1.7942,1.2363c-0.5666,0.4755 -1.0387,0.8559 -1.6053,1.2363c0,0.0951 -0.0944,0.1902 -0.0944,0.1902c-0.0945,-0.951 -0.0945,-1.8069 -0.0945,-2.6628z" fill="#d67f74"/><path d="M232.52123,182.75957v0c0.661,0.2853 1.322,0.6657 1.6998,1.4265c-0.4722,0.3805 -1.1332,0.6658 -1.5109,1.2364c-0.0944,0 -0.1889,0 -0.1889,0c0,-0.951 0,-1.807 0,-2.6629z" fill="#d67f74"/><path d="M260.37763,181.52327v0c0.2833,0.951 -0.2833,1.6167 -1.2276,2.0922c-0.4721,0.2853 -0.9443,1.0462 -1.4164,0.856c-0.4722,-0.1902 -0.0944,-1.0462 -0.0944,-1.6168c-0.1889,-0.5706 0.0944,-1.0461 0.5665,-1.3314c0.4722,-0.1902 1.0387,-0.5706 1.4164,-0.9511c0.1889,-0.1902 0.3778,-0.3804 0.661,-0.3804c0.2833,0.1902 0.0945,0.5707 0.0945,0.7609c0.0944,0.1902 0,0.2853 0,0.5706z" fill="#3d4688"/><path d="M257.45033,193.98167v0c-0.4721,-1.1412 0.5666,-1.4265 1.2276,-1.9971c0.4721,-0.2853 0.9442,-0.9511 1.4164,-0.7609c0.4721,0.2854 0.0944,1.0462 0.1888,1.6168c0,0.5706 -0.2832,0.951 -0.661,1.2363c-0.5665,0.3804 -1.0387,0.6657 -1.5108,1.0462c-0.1889,0.0951 -0.2833,0.3804 -0.5666,0.2853c-0.1888,-0.1902 -0.0944,-0.3804 -0.0944,-0.5706c0,-0.1903 0,-0.4756 0,-0.856z" fill="#3d4688"/><path d="M263.11603,179.24077v0c-0.1889,-0.7608 0.1888,-1.4265 0.9443,-1.902c0.4721,-0.2854 0.8498,-0.5707 1.2275,-0.856c0.1889,-0.1902 0.2833,-0.3804 0.5666,-0.1902c0.0944,0.1902 0.0944,0.3804 0,0.5706c0,0.2853 -0.0944,0.4756 -0.0944,0.856c0,0.3804 0.1888,0.8559 -0.1889,1.1412c-0.661,0.6657 -1.4164,1.1412 -2.1718,1.7118c-0.2833,0.0951 -0.2833,-0.0951 -0.2833,-0.2853c0,-0.2853 0,-0.5706 0,-1.0461z" fill="#3d4688"/><path d="M257.73363,177.52897v0c-0.2833,-0.856 0.2833,-1.4266 1.0387,-1.807c0.4721,-0.2853 0.8498,-0.5706 1.2276,-0.8559c0.2832,-0.3804 0.4721,-0.1902 0.4721,0.1902c0,0.5706 0,1.2363 0,1.8069c0,0.2853 -0.1889,0.4756 -0.3777,0.5707c-0.661,0.4755 -1.322,0.951 -1.8886,1.4265c-0.3777,0.2853 -0.4721,0.0951 -0.4721,-0.2853c0,-0.2853 0,-0.6657 0,-1.0461z" fill="#3d4688"/><path d="M265.94883,170.58647v0c0,0.8559 0,1.6167 0,2.4726c0,0.1902 -0.1888,0.2853 -0.3777,0.3804c-0.661,0.5707 -1.2275,0.9511 -1.8885,1.4266c-0.3778,0.2853 -0.3778,0.0951 -0.3778,-0.2853c0,-0.5706 0,-1.1413 0,-1.807c0,-0.1902 0,-0.3804 0.1889,-0.4755c0.661,-0.5706 1.5109,-1.0461 2.4551,-1.7118z" fill="#3d4688"/><path d="M262.92713,186.27837v0c0.1889,-0.8559 0.1889,-1.7118 0.1889,-2.4727c0,-0.1902 0.0944,-0.3804 0.2833,-0.4755c0.661,-0.4755 1.1331,-0.951 1.8885,-1.3314c0.2833,-0.2853 0.4722,-0.2853 0.4722,0.2853c0,0 0,0 0,0.0951c0.1888,1.2363 -0.0944,2.2825 -1.322,2.8531c-0.4722,0.2853 -0.9443,0.6657 -1.5109,1.0461z" fill="#3d4688"/><path d="M260.28313,187.03917v0c0.1889,0.9511 -0.2832,1.5217 -1.0387,1.9021c-0.1888,0.1902 -0.3777,0.3804 -0.5665,0.4755c-0.2833,0.0951 -0.5666,0.6657 -1.0387,0.4755c-0.2833,-0.1902 0,-0.6657 -0.0945,-1.0461c-0.0944,-0.951 0.1889,-1.6168 1.1332,-2.0923c0.0944,-0.0951 0.1888,-0.2853 0.3777,-0.2853c0.3777,-0.2853 0.7554,-0.7608 1.0387,-0.6657c0.3777,0.1902 0.0944,0.8559 0.1888,1.2363z" fill="#3d4688"/><path d="M262.92713,190.17757v0c-0.3777,-1.4265 0.7555,-1.7118 1.4165,-2.2824c0.3777,-0.2854 0.7554,-0.7609 1.1331,-0.5707c0.2833,0.0951 0.0944,0.7609 0.0944,1.1413c0.1889,0.8559 -0.0944,1.5216 -0.9443,1.902c-0.1888,0.0951 -0.2832,0.2853 -0.4721,0.3804c-0.3777,0.1902 -0.7554,0.7609 -1.0387,0.5707c-0.3777,-0.1903 -0.0944,-0.7609 -0.1889,-1.1413z" fill="#3d4688"/><path d="M268.59283,175.05627v0c0.2833,0.951 0.3777,1.902 -0.661,2.4727c-0.2833,0.0951 -0.3777,0.3804 -0.7554,0.3804c0.0944,-0.6657 -0.0944,-1.3315 0.1889,-1.9972c0.5665,-0.0951 0.8498,-0.5706 1.2275,-0.8559z" fill="#6a2a23"/><path d="M268.78173,169.73047v0c0,0.1902 0,0.3804 0,0.4755c0.1888,1.2364 -0.4722,1.807 -1.4164,2.1874c0,-0.6657 0,-1.4265 0,-2.0922c0.661,0.0951 0.9442,-0.5707 1.4164,-0.5707z" fill="#6a2a23"/><path d="M268.40403,180.47707v0c0.3777,1.0462 0.3777,2.0923 -0.7555,2.6629c-0.1888,0.0951 -0.2832,0.0951 -0.4721,0.2853c0,-0.6657 0,-1.3314 0,-1.9971c0.5666,-0.1902 0.9443,-0.5706 1.2276,-0.9511z" fill="#6a2a23"/><path d="M267.17643,177.90937v0c0.3777,0 0.4721,-0.2853 0.7554,-0.3804c0.1889,0.8559 0.3777,1.6167 0.0945,2.4726c-0.2833,-0.0951 -0.5666,-0.2853 -0.8499,-0.4755c0,-0.5706 0,-1.0461 0,-1.6167z" fill="#666772"/><path d="M268.78173,169.73047v0c-0.4722,0 -0.7554,0.6658 -1.4164,0.5707c0,-0.4756 0,-1.0462 0,-1.5217c0.661,0 1.1331,0.2853 1.4164,0.951z" fill="#450e0e"/><path d="M267.17643,179.52607v0c0.2833,0.1902 0.5666,0.3804 0.8499,0.4755c0.0944,0.1902 0.2832,0.2853 0.3777,0.4755c-0.2833,0.3805 -0.661,0.7609 -1.2276,0.9511c0,-0.6657 0,-1.2364 0,-1.9021z" fill="#450e0e"/><path d="M267.17643,183.42527v0c0.1889,-0.1902 0.2833,-0.1902 0.4721,-0.2853c0.0945,0.7608 0.3778,1.4266 0,2.0923c-0.1888,0 -0.3777,-0.1902 -0.661,-0.1902c0.0945,-0.5706 -0.0944,-1.0462 0.1889,-1.6168z" fill="#666772"/><path d="M268.59283,175.05627v0c-0.3777,0.2853 -0.661,0.7608 -1.2275,0.8559c0,-0.6657 0,-1.2363 0,-1.8069c0.4721,0.1902 0.9442,0.5706 1.2275,0.951z" fill="#450e0e"/><path d="M232.71013,190.74817v0c0.5666,-0.3804 1.0387,-0.7608 1.6053,-1.2363c0.8498,0.4755 1.6997,0.951 2.2663,1.9021c0.2832,0.5706 0.9442,0.7608 1.322,1.1412c0,0.6657 0,1.4265 0,2.0922c-0.8499,-0.3804 -1.5109,-1.0461 -2.2663,-1.6167c-1.0387,-0.6657 -1.983,-1.5216 -2.9273,-2.2825z" fill="#db150b"/><path d="M232.71013,185.42247v0c0.3777,-0.5706 1.0387,-0.8559 1.5109,-1.2364c0.9442,0.4756 1.8885,0.9511 2.4551,1.9021c0.2833,0.4755 0.7554,0.7608 1.1331,0.951c0.0945,0.6657 0.0945,1.4266 0.0945,2.1874c-1.7942,-1.1412 -3.4939,-2.5678 -5.1936,-3.8041z" fill="#db150b"/><path d="M254.71193,178.28977v0c0,0.1902 0,0.2853 0,0.4755c-0.2833,0 -0.4722,-0.1902 -0.5666,-0.4755c-0.3777,-0.5706 -0.8498,-1.2364 -1.6053,-1.2364c0,-0.4755 0,-0.8559 0,-1.2363c0,-0.1902 0,-0.3804 0.3777,-0.3804c0.0945,0.3804 0.4722,0.5706 0.8499,0.6657c0.8499,0.5706 1.1331,1.2364 0.9443,2.1874z" fill="#3d4688"/><path d="M254.71193,184.75677v0c0.4721,0.6657 0.4721,1.902 -0.0944,2.4726c-0.1889,0.0951 -0.3778,0.0951 -0.3778,0.3804c-0.661,0.2854 -1.322,0.6658 -1.6997,1.2364c0,0.0951 -0.0944,0.0951 -0.1888,0.0951c-0.0945,0 -0.1889,0 -0.2833,-0.0951c-0.4722,-0.5706 -1.2276,-0.951 -1.8886,-1.4266c-0.661,-0.4755 -0.7554,-1.8069 -0.1888,-2.4726c0.3777,0.951 1.5108,1.1412 2.1718,1.8069c0.0944,0.0951 0.3777,0 0.4722,-0.0951c0.2832,-0.2853 0.5665,-0.5706 0.8498,-0.7608c0.5666,-0.2853 1.1332,-0.4755 1.2276,-1.1412z" fill="#6a2a23"/><path d="M254.71193,179.14567v0c0.5665,0.7608 0.4721,2.0923 -0.0944,2.5678c-0.1889,0.0951 -0.2833,0.2853 -0.3778,0.2853c-0.661,0.2853 -1.0387,0.7608 -1.5108,1.1412c-0.0944,0.0951 -0.1889,0.0951 -0.1889,0.1902c-0.1888,0 -0.2833,0 -0.4721,0c-0.3777,-0.4755 -0.8499,-0.8559 -1.322,-1.1412c-0.7554,-0.3804 -1.0387,-0.951 -0.8499,-1.7119c0,-0.2853 0,-0.5706 0,-0.951c0.4722,0.4755 1.0388,0.7608 1.5109,1.1412c0.9443,0.7609 1.322,0.7609 2.0774,-0.2853c0.5666,-0.2853 1.1332,-0.3804 1.2276,-1.1412z" fill="#6a2a23"/><path d="M254.61753,190.27267v0c0.4721,0.5706 0.3777,1.9972 -0.0945,2.3776c-0.1888,0.0951 -0.2833,0.1902 -0.3777,0.3804c-0.661,0.3804 -1.2276,0.7608 -1.7941,1.2363c-0.0945,0 -0.2833,0 -0.3777,0c-0.3778,-0.4755 -0.8499,-0.7608 -1.4165,-1.1412c-0.9442,-0.7608 -1.0387,-1.2363 -0.661,-2.4727c0.5666,0.4755 1.2276,0.856 1.7942,1.3315c0.3777,0.2853 0.661,0.2853 1.0387,0c0.2833,-0.1902 0.5666,-0.3804 0.7554,-0.6657c0.4722,-0.1903 0.9443,-0.3805 1.1332,-0.9511z" fill="#6a2a23"/><path d="M253.48433,180.38197v0c-0.7554,1.0462 -1.1331,1.0462 -2.0774,0.2853c-0.4721,-0.3804 -1.0387,-0.6657 -1.5109,-1.1412c0.8499,-0.6657 1.6997,-1.2363 2.644,-1.902c0,0.0951 0,0.1902 0,0.2853c-0.0944,0.951 -0.0944,1.902 0.9443,2.4726z" fill="#450e0e"/><path d="M252.06793,183.33017v0c0.1888,0 0.2833,0 0.4721,0c-0.0944,1.0462 0,1.9972 0.9443,2.5678c-0.2833,0.1902 -0.5666,0.4755 -0.8498,0.7608c-0.0945,0.0951 -0.3778,0.1902 -0.4722,0.0951c-0.661,-0.6657 -1.7941,-0.8559 -2.1718,-1.8069c0.7554,-0.5706 1.4164,-1.0462 2.0774,-1.6168z" fill="#450e0e"/><path d="M253.48433,191.31887v0c-0.1888,0.2853 -0.4721,0.4755 -0.7554,0.6657c-0.3777,0.2853 -0.661,0.2853 -1.0387,0c-0.5666,-0.4755 -1.2276,-0.856 -1.7942,-1.3315c0.5666,-0.7608 1.4165,-1.1412 2.1719,-1.8069c0.0944,0.0951 0.1888,0.0951 0.2833,0.0951c-0.0945,0.951 0,1.902 1.1331,2.3776z" fill="#450e0e"/><path d="M251.97353,194.26697v0c0.0944,0 0.2832,0 0.3777,0c0,0 0,0.0951 0,0.1902c-0.1889,0.9511 0.1888,1.7119 1.0387,2.2825c-0.661,1.1412 -1.1332,1.1412 -2.0774,0.3804c-0.4722,-0.3804 -0.9443,-0.6657 -1.5109,-1.0461c0.7554,-0.6657 1.4164,-1.2363 2.1719,-1.807z" fill="#450e0e"/><path d="M252.54003,177.90937v0c0,-0.0951 0,-0.1902 0,-0.2853c0,-0.2853 0,-0.3804 0,-0.5707c0.7555,0 1.2276,0.6658 1.6053,1.2364c0.0944,0.2853 0.2833,0.4755 0.5666,0.4755c0,0.0951 0,0.2853 0,0.3804v0.0951c-0.4722,0 -0.9443,-0.2853 -1.322,-0.6657c-0.1889,-0.1902 -0.3777,-0.5706 -0.8499,-0.6657z" fill="#38376e"/><path d="M252.35123,194.45717v0c0,-0.0951 0,-0.1902 0,-0.1902c0.5665,-0.4755 1.1331,-0.8559 1.7941,-1.2363c0.2833,0.1902 0.4722,0.4755 0.4722,0.951c0,0.4755 0,1.1413 0,1.7119v0c-0.661,0.0951 -1.0388,-0.2853 -1.4165,-0.5706c-0.1888,-0.2853 -0.3777,-0.6658 -0.8498,-0.6658z" fill="#38376e"/><path d="M252.54003,188.84617v0c0.3777,-0.5706 1.0387,-0.951 1.6997,-1.2364c0.3778,0.2854 0.3778,0.6658 0.3778,1.0462c0,0.4755 0,1.0461 0,1.6167v0.0951c-0.8499,-0.2853 -1.4165,-1.0461 -2.0775,-1.5216z" fill="#38376e"/><path d="M253.48433,185.89797v0c-0.9443,-0.5706 -1.0387,-1.5216 -0.9443,-2.5678c0,-0.0951 0.0945,-0.0951 0.1889,-0.1902c0.4721,0.6657 0.9443,1.3315 1.8886,1.5217c0,0 0,0 0.0944,0.0951c-0.0944,0.6657 -0.661,0.8559 -1.2276,1.1412z" fill="#2b1c41"/><path d="M254.61753,184.66167v0c-0.9443,-0.1902 -1.4165,-0.856 -1.8886,-1.5217c0.4721,-0.3804 0.8498,-0.8559 1.5108,-1.1412c0.661,0.8559 0.1889,1.8069 0.3778,2.6629z" fill="#38376e"/><path d="M252.35123,194.45717v0c0.4721,0 0.661,0.3805 0.8498,0.6658c0.3777,0.2853 0.7555,0.6657 1.4165,0.5706c-0.1889,0.6657 -0.661,0.8559 -1.2276,1.0461c-0.8499,-0.5706 -1.2276,-1.3314 -1.0387,-2.2825z" fill="#2b1c41"/><path d="M252.54003,188.84617v0c0.661,0.4755 1.2276,1.2363 2.0775,1.5216c-0.1889,0.5706 -0.661,0.7608 -1.1332,0.9511c-1.1331,-0.4756 -1.2276,-1.4266 -1.1331,-2.3776c0.0944,0 0.1888,0 0.1888,-0.0951z" fill="#2b1c41"/><path d="M252.54003,177.90937v0c0.4722,0.0951 0.661,0.4755 0.8499,0.6657c0.3777,0.3804 0.8498,0.6657 1.322,0.6657c-0.0944,0.7608 -0.661,0.8559 -1.2276,1.1412c-1.0387,-0.5706 -1.0387,-1.5216 -0.9443,-2.4726z" fill="#2b1c41"/></g></g></g></svg>