<svg xmlns="http://www.w3.org/2000/svg" xmlns:xlink="http://www.w3.org/1999/xlink" version="1.1" width="24.336471557617188" height="18.938600540161133" viewBox="0.36572855710983276 -0.3709999918937683 24.336471557617188 18.938600540161133">
  <!-- Exported by Scratch - http://scratch.mit.edu/ -->
  <g id="ID0.8559770211577415">
    <g id="ID0.5509724728763103">
      <g id="ID0.926967881154269">
        <g id="container-id1">
          <g id="id1">
            <g id="ID0.5499575794674456">
              <g id="ID0.7513383445329964">
                <g id="id6">
                  <path id="ID0.7197263478301466" fill="none" stroke="none" d="M 0.892 0.129 L 24.1833 0.129 L 24.1833 18.0481 L 0.892 18.0481 L 0.892 0.129 Z " stroke-width="0.019138712280949172"/>
                  <path id="ID0.21323765255510807" fill="rgb(255,0,0)" stroke="none" d="M 12.7357 15.136 L 12.7357 15.136 C 12.4716 14.9613 12.2265 14.7672 12.0002 14.5924 C 11.8116 14.4565 11.6418 14.3206 11.4721 14.2042 C 11.1326 13.9518 10.812 13.7188 10.4914 13.4858 C 10.1897 13.2529 9.8879 13.0199 9.5862 12.7869 C 9.4353 12.6705 9.2655 12.554 9.0958 12.4181 C 8.53 12.0104 7.9643 11.6027 7.3985 11.1756 C 7.3042 11.0979 7.2287 11.0397 7.1344 10.9814 C 6.8327 10.8649 6.5875 10.6126 6.3235 10.4184 C 6.2292 10.3602 6.1349 10.2825 6.0217 10.2243 C 5.7577 10.0301 5.6446 9.7389 5.3994 9.5254 C 5.1731 9.3118 4.9845 9.0789 4.8147 8.8071 C 4.6073 8.4576 4.3055 8.2052 3.9661 8.0305 C 3.7209 7.8752 3.4569 7.8946 3.2117 8.0499 C 2.9854 7.8752 2.7591 7.7005 2.5139 7.5451 C 2.3442 7.4092 2.1367 7.2539 1.967 7.1375 C 1.7784 6.9821 1.5898 6.8462 1.4201 6.7298 C 1.3635 6.6909 1.3446 6.6521 1.3069 6.6133 C 1.1937 6.458 1.0806 6.2832 0.9674 6.1279 C 0.9297 6.0891 0.9109 6.0503 0.892 5.992 C 0.892 5.8561 0.8731 5.7202 0.8731 5.5649 C 0.8543 5.4873 0.8731 5.429 0.9109 5.3708 C 1.024 5.099 1.1372 4.8272 1.2503 4.5554 C 1.288 4.4389 1.3823 4.3612 1.4578 4.2448 C 1.6275 4.0118 1.8161 3.7982 2.0047 3.5653 C 2.0613 3.507 2.1179 3.4488 2.1933 3.3905 C 2.7402 3.0217 3.2871 2.6528 3.8529 2.2839 C 4.3998 1.9151 4.9279 1.5462 5.4748 1.1773 C 5.6446 1.0609 5.8331 1.0026 6.0029 0.925 C 6.2481 0.8085 6.4932 0.692 6.7384 0.5755 C 6.9081 0.4978 7.0779 0.4202 7.2476 0.3425 C 7.3608 0.3037 7.4551 0.2455 7.5682 0.2066 C 7.6814 0.1484 7.7757 0.129 7.9077 0.1678 C 8.2094 0.2649 8.4923 0.3231 8.7752 0.4202 C 8.8318 0.4396 8.9072 0.4396 8.9638 0.4396 C 8.9827 0.459 9.0204 0.459 9.0392 0.4784 C 9.0392 0.4978 9.0392 0.4978 9.0392 0.4978 C 9.0581 0.4978 9.0581 0.4978 9.0581 0.4978 C 9.077 0.6143 8.9827 0.6143 8.9072 0.6337 C 8.4357 0.7891 7.9831 0.9444 7.5116 1.0609 C 6.927 1.1968 6.4178 1.4685 5.9086 1.7598 C 5.1353 2.0704 4.513 2.6528 3.8906 3.177 C 3.6643 3.3905 3.4569 3.6041 3.306 3.8953 C 3.1551 4.1865 2.9665 4.4777 2.7779 4.8078 C 2.9854 4.8078 3.174 4.7689 3.3437 4.7495 C 4.0226 4.633 4.7016 4.536 5.3994 4.4389 C 5.4748 4.4195 5.5314 4.4001 5.6068 4.4583 C 5.6257 4.4583 5.6257 4.4971 5.6257 4.5166 C 5.588 4.5554 5.5314 4.5748 5.4937 4.5748 C 4.8902 4.8272 4.3055 5.099 3.702 5.3125 C 3.6455 5.3514 3.5512 5.3514 3.5323 5.429 C 3.5134 5.5067 3.6077 5.5455 3.6643 5.5843 C 4.9279 6.4968 6.1538 7.4092 7.3985 8.3411 C 8.3414 9.0206 9.2655 9.7195 10.1897 10.399 C 10.9063 10.9232 11.623 11.4668 12.3962 12.0104 C 12.3773 11.8162 12.3019 11.6415 12.2642 11.4862 C 12.1699 11.1756 12.0756 10.8649 11.9813 10.5737 C 11.9624 10.4961 11.9436 10.4184 11.9436 10.3602 C 11.9436 10.3019 11.9624 10.2437 11.9813 10.2049 C 12.0002 10.1855 12.019 10.1855 12.019 10.1855 C 12.0567 10.2049 12.0567 10.2243 12.0756 10.2437 C 12.0756 10.2631 12.0945 10.2825 12.0945 10.3019 C 12.1133 10.3214 12.1133 10.3602 12.1133 10.3796 C 12.1322 10.399 12.1322 10.4184 12.1322 10.4184 C 12.151 10.4573 12.151 10.4767 12.1699 10.5155 C 12.1699 10.5349 12.1699 10.5349 12.1887 10.5543 C 12.2076 10.5932 12.2265 10.6126 12.2453 10.6514 C 12.4716 11.2144 12.6602 11.7774 12.8865 12.3404 C 13.1317 12.5928 13.4335 12.7869 13.7164 12.9811 C 15.2062 14.1071 16.715 15.1749 18.2049 16.2815 C 18.2992 16.3591 18.3935 16.4368 18.3935 16.5533 C 18.3935 16.6697 18.3746 16.7668 18.318 16.8833 C 18.2426 17.1551 18.2049 17.4075 18.2237 17.6793 C 18.2237 17.7958 18.2237 17.8928 18.1483 17.9511 C 18.0163 18.0287 17.8654 18.0093 17.7145 18.0676 C 17.6768 18.0676 17.6391 18.0481 17.6014 18.0287 C 17.5259 17.9899 17.4505 17.9511 17.3939 17.8928 C 17.2053 17.8928 17.0733 17.7763 16.9224 17.6793 C 16.5453 17.4657 16.1681 17.2328 15.8097 17.0192 C 15.6777 16.961 15.5834 16.8833 15.508 16.7668 C 15.4703 16.7086 15.4514 16.6697 15.4137 16.6309 C 15.0177 16.2621 14.6782 15.8544 14.301 15.4661 C 14.037 15.1943 13.7352 15.0001 13.3769 14.9225 C 13.1506 14.8837 12.9243 14.8642 12.7922 15.1166 C 12.7734 15.136 12.7357 15.136 12.7357 15.136 Z " stroke-width="0.019138712280949172"/>
                  <path id="ID0.5980842281132936" fill="rgb(237,0,0)" stroke="none" d="M 12.3208 2.4198 L 12.3208 2.4198 C 12.5094 2.5363 12.7168 2.711 12.9054 2.8275 C 13.4335 3.2158 13.9804 3.6041 14.5085 3.9924 C 14.9045 4.2642 15.2817 4.5554 15.6777 4.8272 C 15.8286 4.9437 15.9795 5.0407 16.1304 5.1572 C 16.1869 5.196 16.2435 5.2155 16.2058 5.2931 C 15.9606 5.6426 15.6023 5.895 15.3005 6.2056 C 15.0365 6.458 14.7536 6.6909 14.4896 6.9627 C 14.3764 7.0792 14.2633 7.1763 14.1313 7.2345 C 13.3015 7.6616 12.5094 8.0887 11.6607 8.4964 C 11.5852 8.5353 11.5098 8.5741 11.4344 8.5547 C 11.1515 8.4382 10.9063 8.2246 10.6423 8.0305 C 9.2467 6.9627 7.8134 5.9532 6.4178 4.9242 C 6.1915 4.7495 5.9652 4.633 5.8143 4.4389 C 5.852 4.2448 6.0029 4.1283 6.0972 3.973 C 6.5687 3.3129 7.2287 2.8664 7.8511 2.3616 C 7.8888 2.3616 7.9077 2.3422 7.9265 2.3422 C 7.9454 2.3228 7.9454 2.3228 7.9643 2.3034 C 8.002 2.3034 8.002 2.3034 8.0397 2.2839 C 8.0585 2.2645 8.0585 2.2645 8.0774 2.2451 C 8.0963 2.2451 8.1151 2.2451 8.1151 2.2257 C 8.134 2.2257 8.1528 2.2063 8.1717 2.2063 C 8.3226 2.1286 8.4735 2.051 8.6055 1.9539 C 9.1524 1.585 9.7748 1.4103 10.3971 1.1968 C 10.4725 1.1773 10.5291 1.1579 10.6046 1.1773 C 10.812 1.3327 11.0195 1.488 11.2458 1.6239 C 11.6041 1.8957 11.9624 2.148 12.3208 2.4198 Z " stroke-width="0.019138712280949172"/>
                  <path id="ID0.20991120440885425" fill="rgb(38,38,38)" stroke="none" d="M 12.7357 15.136 L 12.7357 15.136 C 12.7357 15.1166 12.7545 15.0972 12.7734 15.0584 C 12.83 14.8837 12.9997 14.8448 13.1694 14.8448 C 13.3769 14.8642 13.6032 14.8837 13.7729 15.039 C 14.037 15.136 14.2444 15.3302 14.4519 15.5243 C 14.565 15.6408 14.6782 15.7767 14.7536 15.9126 C 14.8102 16.0097 14.8668 16.0485 14.9422 16.1067 C 15.1497 16.2815 15.3571 16.4756 15.508 16.6697 C 15.6023 16.8056 15.6966 16.9027 15.8286 16.9998 C 15.8286 17.0969 15.7532 17.1551 15.6966 17.2133 C 15.4703 17.3492 15.244 17.524 15.0365 17.6793 C 14.8668 17.7763 14.697 17.8346 14.4896 17.7958 C 14.4896 17.7958 14.4896 17.7958 14.4707 17.7958 C 14.2256 17.7375 14.0181 17.621 13.8107 17.4657 C 13.6786 17.3687 13.5843 17.2522 13.49 17.1357 C 13.226 16.8833 13.0563 16.5727 12.8865 16.2621 C 12.7357 15.9126 12.6791 15.5243 12.7357 15.136 Z " stroke-width="0.019138712280949172"/>
                  <path id="ID0.7878994774073362" fill="rgb(38,38,38)" stroke="none" d="M 3.2117 8.0499 L 3.2117 8.0499 C 3.2871 7.914 3.438 7.8946 3.5512 7.8558 C 3.57 7.8364 3.6077 7.8558 3.6266 7.8752 C 3.7209 7.8752 3.8152 7.914 3.8906 7.9334 C 3.9472 7.9334 3.9661 7.9528 4.0038 7.9723 C 4.1924 8.1276 4.3998 8.2441 4.5696 8.4382 C 4.7582 8.6517 4.9279 8.8653 5.0411 9.0983 C 5.0788 9.1371 5.0976 9.1759 5.1353 9.2148 C 5.3805 9.4089 5.588 9.6613 5.7954 9.9137 C 5.852 10.0107 5.9652 10.0884 6.0217 10.1855 C 6.0217 10.2631 5.9652 10.3019 5.9086 10.3408 C 5.72 10.4767 5.5314 10.6126 5.3239 10.729 C 5.1731 10.8261 4.9845 10.8649 4.8147 10.8067 C 4.4376 10.7485 4.1735 10.4961 3.9284 10.2243 C 3.7209 10.0107 3.5512 9.7389 3.4003 9.4671 C 3.3437 9.3895 3.306 9.2924 3.2871 9.2148 C 3.2494 9.1177 3.2306 9.0012 3.174 8.8847 C 3.1551 8.8265 3.1363 8.7294 3.1363 8.6517 C 3.1174 8.4382 3.1174 8.2441 3.2117 8.0499 Z " stroke-width="0.019138712280949172"/>
                  <path id="ID0.5798938474617898" fill="rgb(196,196,245)" stroke="none" d="M 10.6046 1.1773 L 10.6046 1.1773 C 10.1897 1.3327 9.7559 1.4685 9.341 1.6239 C 9.1524 1.6821 8.9827 1.7986 8.7941 1.9151 C 8.5678 2.0316 8.3414 2.148 8.1151 2.2645 C 8.0963 2.1286 7.9831 2.0704 7.8322 2.0316 C 7.4362 1.8957 7.0024 1.8568 6.5687 1.818 C 6.3612 1.7986 6.116 1.8374 5.8897 1.7209 C 6.0217 1.6044 6.2103 1.5462 6.3612 1.4685 C 6.4366 1.4103 6.5121 1.3909 6.5687 1.3521 C 6.7573 1.2356 6.9647 1.1579 7.1722 1.0997 C 7.6814 0.9444 8.1717 0.7891 8.662 0.6532 C 8.7752 0.6143 8.8884 0.5949 8.9827 0.5561 C 9.0204 0.5561 9.0392 0.5173 9.0581 0.4978 C 9.0958 0.4784 9.1335 0.4978 9.1713 0.4978 C 9.4541 0.6337 9.7559 0.7891 10.0388 0.9055 C 10.2274 1.0026 10.416 1.0803 10.6046 1.1773 Z " stroke-width="0.019138712280949172"/>
                  <path id="ID0.737728176638484" fill="rgb(170,0,0)" stroke="none" d="M 23.4666 13.5829 L 23.4666 13.5829 C 23.6175 13.5635 23.7684 13.5441 23.9381 13.5441 C 23.9947 13.5441 24.0701 13.5635 24.2022 13.6412 C 24.089 13.7188 23.9758 13.8159 23.8627 13.8935 C 23.5798 14.0877 23.3158 14.2818 23.0329 14.4954 C 22.9009 14.573 22.7688 14.6701 22.6368 14.7672 C 22.2596 15.039 21.8825 15.2913 21.5241 15.5826 C 21.279 15.7379 21.0526 15.9126 20.8075 16.0679 C 20.3549 16.3785 19.9211 16.7086 19.4685 17.0386 C 19.2044 17.2328 18.9027 17.4075 18.6575 17.6404 C 18.6575 17.6404 18.6575 17.6404 18.6575 17.6404 C 18.6387 17.6404 18.6198 17.6599 18.6009 17.6793 C 18.6009 17.6793 18.5821 17.6793 18.5632 17.6793 C 18.5444 17.6987 18.5444 17.6987 18.5255 17.7181 C 18.5066 17.7181 18.5066 17.7181 18.5066 17.7181 C 18.5066 17.7375 18.4878 17.7375 18.4878 17.7375 C 18.4689 17.7569 18.4501 17.7569 18.4501 17.7763 C 18.3369 17.7181 18.4312 17.6599 18.4501 17.621 C 18.6575 17.3881 18.8272 17.1357 19.0536 16.9221 C 19.3364 16.6697 19.6005 16.4368 19.8268 16.1067 C 20.9584 15.3108 22.0711 14.4954 23.2215 13.6994 C 23.2781 13.6412 23.3535 13.5635 23.4666 13.5829 Z " stroke-width="0.019138712280949172"/>
                  <path id="ID0.8244834863580763" fill="rgb(163,162,162)" stroke="none" d="M 19.8645 16.1067 L 19.8645 16.1067 C 19.8645 16.1844 19.8079 16.2426 19.7514 16.3009 C 19.525 16.5338 19.2987 16.7668 19.0536 16.9998 C 18.8272 17.2328 18.6387 17.4657 18.4312 17.6987 C 18.3935 17.7375 18.4123 17.7569 18.4501 17.7763 C 18.3746 17.8734 18.2803 17.9317 18.1483 17.9511 C 18.1483 17.7763 18.1483 17.5822 18.1483 17.3881 C 18.1483 17.2716 18.186 17.1745 18.2237 17.058 C 18.2803 16.8833 18.318 16.6892 18.3558 16.5144 C 18.3935 16.4368 18.4501 16.398 18.5444 16.3785 C 18.9215 16.2815 19.2987 16.2038 19.6759 16.0873 C 19.7514 16.0873 19.8079 16.0873 19.8645 16.1067 Z " stroke-width="0.019138712280949172"/>
                  <path id="ID0.9958756691776216" fill="rgb(196,196,245)" stroke="none" d="M 9.0392 0.4784 L 9.0392 0.4784 C 9.0015 0.4978 8.9827 0.4784 8.9638 0.4396 C 8.9827 0.4396 9.0204 0.4396 9.0392 0.4784 Z " stroke-width="0.019138712280949172"/>
                  <path id="ID0.17204775055870414" fill="rgb(146,146,146)" stroke="none" d="M 18.6009 17.6793 L 18.6009 17.6793 C 18.6009 17.6404 18.6198 17.621 18.6575 17.6404 C 18.6387 17.6599 18.6198 17.6793 18.6009 17.6793 Z " stroke-width="0.019138712280949172"/>
                  <path id="ID0.0728209507651627" fill="rgb(163,162,162)" stroke="none" d="M 18.5255 17.7181 L 18.5255 17.7181 C 18.5255 17.6793 18.5444 17.6793 18.5632 17.6793 C 18.5444 17.7181 18.5444 17.7181 18.5255 17.7181 Z " stroke-width="0.019138712280949172"/>
                  <path id="ID0.35263131419196725" fill="rgb(163,162,162)" stroke="none" d="M 18.4878 17.7375 L 18.4878 17.7375 C 18.4878 17.7375 18.4878 17.7181 18.5066 17.7181 C 18.5066 17.7375 18.5066 17.7569 18.4878 17.7375 Z " stroke-width="0.019138712280949172"/>
                  <path id="ID0.30188264790922403" fill="rgb(230,0,0)" stroke="none" d="M 19.8645 16.1067 L 19.8645 16.1067 C 19.4307 16.2232 18.997 16.3203 18.5444 16.4368 C 18.4878 16.4562 18.4312 16.4756 18.3558 16.5144 C 18.318 16.4562 18.2803 16.398 18.2237 16.3785 C 17.9974 16.2038 17.7523 16.0291 17.5071 15.8544 C 17.2053 15.6214 16.8847 15.369 16.5641 15.136 C 16.3567 14.9807 16.1304 14.8448 15.9229 14.6701 C 15.5646 14.4177 15.2062 14.1653 14.8668 13.8935 C 14.7536 13.8159 14.6405 13.7188 14.5273 13.6412 C 14.2067 13.4276 13.8861 13.1752 13.5843 12.9423 C 13.358 12.7869 13.1317 12.6316 12.9243 12.4569 C 12.8865 12.4569 12.8677 12.4181 12.83 12.3987 C 13.1506 12.2045 13.49 12.0686 13.8295 11.8939 C 14.6405 11.5444 15.4326 11.1562 16.2435 10.8067 C 16.4887 10.7096 16.6961 10.5932 16.8847 10.3796 C 17.3751 9.8748 17.8843 9.3701 18.3746 8.8459 C 18.6575 8.5353 18.9404 8.2052 19.261 7.914 C 19.261 7.8946 19.2987 7.8752 19.3176 7.8752 C 19.3176 7.8752 19.3176 7.8752 19.3364 7.8752 C 19.5628 8.0887 19.7891 8.3023 20.0154 8.4964 C 20.3926 8.8847 20.7886 9.2536 21.1658 9.6224 C 21.4298 9.8748 21.675 10.1272 21.9579 10.3796 C 22.2596 10.6902 22.5803 10.9814 22.882 11.2726 C 22.9574 11.3503 23.0329 11.428 23.1083 11.4862 C 23.3723 11.7386 23.6364 12.0104 23.9004 12.2628 C 23.9381 12.2822 23.9758 12.3404 23.9947 12.3598 C 24.0324 12.3987 24.0324 12.4569 24.0324 12.4957 C 23.8816 12.7481 23.7684 13.0005 23.6175 13.2529 C 23.5609 13.3694 23.5232 13.4858 23.4666 13.5829 C 23.2026 13.7576 22.9197 13.9518 22.6557 14.1459 C 22.1654 14.4954 21.6561 14.8642 21.1658 15.2331 C 20.8452 15.4661 20.5246 15.6796 20.204 15.8932 C 20.1474 15.9514 20.072 15.9903 19.9965 16.0485 C 19.9777 16.0873 19.9211 16.0873 19.8645 16.1067 Z " stroke-width="0.019138712280949172"/>
                  <path id="ID0.6365372873842716" fill="rgb(151,151,189)" stroke="none" d="M 19.2987 7.9334 L 19.2987 7.9334 C 19.2233 8.0111 19.1479 8.0887 19.0724 8.147 C 18.318 8.9624 17.5448 9.7583 16.7904 10.5737 C 16.7339 10.6126 16.6773 10.6708 16.6207 10.6902 C 16.5075 10.729 16.4132 10.8067 16.2624 10.8261 C 16.2435 10.7096 16.3189 10.6902 16.3944 10.6514 C 16.5264 10.5737 16.5453 10.4767 16.451 10.3602 C 16.3944 10.2631 16.3378 10.1855 16.2812 10.0884 C 15.64 9.2924 15.0931 8.4382 14.4707 7.584 C 14.3764 7.4481 14.2444 7.3316 14.1313 7.1957 C 14.2256 7.1375 14.3199 7.0598 14.4142 6.9627 C 14.9799 6.4385 15.5269 5.895 16.0926 5.3708 C 16.1304 5.3319 16.1681 5.3125 16.2058 5.2931 C 16.2435 5.2931 16.3001 5.2543 16.3189 5.3125 C 16.451 5.4096 16.583 5.4873 16.6961 5.6037 C 16.9413 5.8173 17.1488 6.0114 17.3939 6.2056 C 17.5825 6.3415 17.7711 6.5356 17.9597 6.6909 C 18.1483 6.8462 18.318 7.0016 18.5066 7.1375 C 18.6009 7.2151 18.6764 7.3122 18.7707 7.351 C 18.9404 7.4869 19.0913 7.6228 19.2233 7.7587 C 19.261 7.7975 19.2987 7.8364 19.3364 7.8752 C 19.3364 7.8752 19.3364 7.8752 19.3364 7.8752 C 19.3176 7.8752 19.2987 7.8946 19.2987 7.9334 Z " stroke-width="0.019138712280949172"/>
                  <path id="ID0.8802320300601423" fill="rgb(239,239,255)" stroke="none" d="M 5.8331 4.4195 L 5.8331 4.4195 C 6.3046 4.7689 6.795 5.1184 7.2665 5.4873 C 7.7379 5.8173 8.2283 6.1667 8.7186 6.5356 C 9.1901 6.8851 9.6616 7.2345 10.1519 7.584 C 10.5668 7.8946 10.9818 8.2052 11.4155 8.5158 C 11.4155 8.5158 11.4155 8.5353 11.4344 8.5547 C 11.623 8.6906 11.5852 8.943 11.6795 9.1177 C 11.7361 9.3701 11.8116 9.6224 11.887 9.8748 C 11.9436 10.0301 11.9624 10.1855 11.9813 10.3214 C 12.0002 10.399 12.019 10.4573 12.019 10.5155 C 12.0945 10.7485 12.151 10.9814 12.2265 11.2144 C 12.283 11.4085 12.3396 11.6221 12.4151 11.8356 C 12.4339 11.8939 12.4528 11.9327 12.4528 11.9715 C 12.4528 12.0104 12.4716 12.0686 12.4528 12.088 C 12.3962 12.1269 12.3773 12.0686 12.3396 12.0492 C 11.9813 11.7774 11.623 11.525 11.2646 11.2532 C 10.9629 11.0397 10.6989 10.8261 10.3971 10.6126 C 9.9445 10.2825 9.4919 9.9331 9.0204 9.603 C 8.7563 9.3895 8.4735 9.1953 8.1906 8.9818 C 7.8322 8.7294 7.4551 8.4382 7.0967 8.1858 C 6.8327 7.9723 6.5687 7.7781 6.2858 7.584 C 5.9086 7.3122 5.5314 7.021 5.1542 6.7492 C 4.8713 6.5162 4.5696 6.3026 4.2678 6.0697 C 4.0226 5.895 3.7775 5.7202 3.5323 5.5455 C 3.4946 5.5067 3.4191 5.4873 3.4003 5.4096 C 3.5323 5.3125 3.6643 5.2737 3.8152 5.2155 C 4.0981 5.099 4.3998 4.9825 4.7016 4.866 C 4.9656 4.7495 5.2296 4.633 5.4937 4.5554 C 5.5314 4.5166 5.588 4.5554 5.6068 4.4971 C 5.6068 4.5166 5.6068 4.5166 5.6068 4.5166 C 5.6634 4.4195 5.72 4.3612 5.8331 4.4195 Z " stroke-width="0.019138712280949172"/>
                  <path id="ID0.09237040393054485" fill="rgb(160,160,200)" stroke="none" d="M 11.623 9.1177 L 11.623 9.1177 C 11.5664 9.04 11.5664 8.943 11.5475 8.8847 C 11.5098 8.7682 11.491 8.6517 11.4344 8.5547 C 11.623 8.477 11.8304 8.3799 12.019 8.2635 C 12.6791 7.9334 13.3392 7.584 14.0181 7.2345 C 14.037 7.2345 14.0935 7.2151 14.1313 7.1957 C 14.1501 7.2151 14.1878 7.2345 14.2067 7.2345 C 14.2821 7.2539 14.3199 7.3122 14.3576 7.351 C 14.5839 7.7005 14.8102 8.0305 15.0742 8.3411 C 15.244 8.5935 15.4326 8.8265 15.6023 9.0983 C 15.6589 9.1565 15.6966 9.2342 15.7532 9.2924 C 15.8286 9.4477 15.9229 9.5642 16.0361 9.7001 C 16.2435 9.9137 16.4132 10.166 16.5453 10.4184 C 16.6018 10.5155 16.583 10.5349 16.5264 10.6126 C 16.4887 10.6514 16.4698 10.6902 16.4132 10.7096 C 16.3378 10.7096 16.3001 10.7485 16.2624 10.8261 C 16.2435 10.8455 16.2247 10.8649 16.1869 10.8649 C 15.8097 11.0591 15.4137 11.2338 15.0365 11.428 C 14.697 11.5639 14.3764 11.7192 14.037 11.8745 C 13.6786 12.0298 13.3392 12.1851 12.9997 12.3598 C 12.9431 12.3792 12.8865 12.3987 12.83 12.3987 C 12.6791 11.9521 12.5094 11.5056 12.3396 11.0397 C 12.3019 10.9038 12.2453 10.7485 12.1887 10.6126 C 12.1699 10.5932 12.1699 10.5543 12.151 10.5349 C 12.151 10.5349 12.151 10.5349 12.151 10.5349 C 12.1133 10.4961 12.151 10.4378 12.1133 10.4184 C 12.1133 10.4184 12.1133 10.4184 12.1133 10.4184 C 12.0756 10.3602 12.1133 10.3019 12.0567 10.2825 C 12.0567 10.2825 12.0567 10.2825 12.0567 10.2825 C 12.0567 10.2437 12.0567 10.2243 12.0379 10.1855 C 12.0379 10.1855 12.0379 10.1855 12.0379 10.1855 C 11.8681 9.9331 11.8304 9.6224 11.7173 9.3507 C 11.6795 9.273 11.6607 9.1759 11.623 9.1177 Z " stroke-width="0.019138712280949172"/>
                  <path id="ID0.49335492216050625" fill="rgb(209,209,255)" stroke="none" d="M 5.8331 4.4195 L 5.8331 4.4195 C 5.7577 4.4195 5.7011 4.4971 5.6068 4.5166 C 5.5503 4.4389 5.4748 4.4583 5.4182 4.4777 C 5.1919 4.536 4.9468 4.5554 4.7016 4.5942 C 4.5884 4.6136 4.4376 4.633 4.3244 4.6525 C 4.1735 4.6719 4.0604 4.6913 3.9284 4.7107 C 3.5889 4.7689 3.2494 4.8078 2.9288 4.866 C 2.8534 4.866 2.8156 4.9048 2.7402 4.8854 C 2.7214 4.8854 2.6836 4.866 2.7025 4.8466 C 2.7591 4.7495 2.8156 4.633 2.8722 4.5166 C 3.0608 4.2253 3.2306 3.9147 3.4003 3.6041 C 3.4569 3.5264 3.5134 3.4488 3.5889 3.3905 C 4.0038 3.0217 4.4376 2.6528 4.8713 2.2645 C 4.909 2.2257 4.9468 2.2063 5.0033 2.1675 C 5.2862 2.0316 5.5503 1.8762 5.8331 1.7403 C 5.852 1.7403 5.8709 1.7209 5.8897 1.7209 C 5.9652 1.7209 6.0595 1.7209 6.1349 1.7403 C 6.3801 1.7598 6.6252 1.7403 6.8704 1.7986 C 6.9081 1.7986 6.9458 1.7986 6.9647 1.7986 C 7.3419 1.7986 7.6814 1.9151 8.0208 2.0316 C 8.0397 2.0316 8.0585 2.0316 8.0585 2.0316 C 8.1528 2.0704 8.1717 2.0898 8.1528 2.2063 C 8.134 2.2257 8.134 2.2451 8.1151 2.2645 C 8.1151 2.2645 8.1151 2.2645 8.1151 2.2645 C 8.1151 2.2839 8.0963 2.2839 8.0774 2.3034 C 8.0774 2.3034 8.0585 2.3034 8.0585 2.3034 C 8.0397 2.3034 8.002 2.3228 8.002 2.3422 C 7.9831 2.3616 7.9831 2.3616 7.9831 2.3616 C 7.9643 2.3616 7.9643 2.3616 7.9643 2.3616 C 7.9454 2.3616 7.9454 2.3616 7.9265 2.381 C 7.6625 2.5363 7.4551 2.7693 7.2099 2.944 C 7.0401 3.0799 6.9081 3.2158 6.7384 3.3323 C 6.6064 3.4294 6.5121 3.5459 6.4178 3.6623 C 6.2103 3.9147 6.0217 4.1865 5.8331 4.4195 Z " stroke-width="0.019138712280949172"/>
                  <path id="ID0.2465158523991704" fill="rgb(238,72,84)" stroke="none" d="M 11.623 9.1177 L 11.623 9.1177 C 11.6418 9.1177 11.6795 9.1371 11.6795 9.1759 C 11.7927 9.4865 11.9059 9.7972 12.019 10.1272 C 12.0379 10.1466 12.0379 10.1855 12.0379 10.1855 C 11.9813 10.2243 12.0002 10.2825 11.9813 10.3214 C 11.9059 10.2437 11.9059 10.1272 11.8681 10.0496 C 11.7927 9.7583 11.7173 9.4671 11.623 9.1759 C 11.623 9.1565 11.623 9.1177 11.623 9.1177 Z " stroke-width="0.019138712280949172"/>
                  <path id="ID0.09684816189110279" fill="rgb(238,72,84)" stroke="none" d="M 12.0567 10.2825 L 12.0567 10.2825 C 12.1133 10.3019 12.1133 10.3602 12.1133 10.4184 C 12.0567 10.3796 12.0567 10.3214 12.0567 10.2825 Z " stroke-width="0.019138712280949172"/>
                  <path id="ID0.03953919326886535" fill="rgb(209,209,255)" stroke="none" d="M 5.6068 4.4971 L 5.6068 4.4971 C 5.588 4.5554 5.5503 4.5554 5.4937 4.5554 C 5.5314 4.5166 5.5691 4.5166 5.6068 4.4971 Z " stroke-width="0.019138712280949172"/>
                  <path id="ID0.6693325778469443" fill="rgb(238,72,84)" stroke="none" d="M 12.1133 10.4184 L 12.1133 10.4184 C 12.151 10.4378 12.1699 10.4767 12.151 10.5349 C 12.1133 10.4961 12.1133 10.4573 12.1133 10.4184 Z " stroke-width="0.019138712280949172"/>
                  <path id="ID0.48581429896876216" fill="rgb(238,72,84)" stroke="none" d="M 12.151 10.5349 L 12.151 10.5349 C 12.1887 10.5543 12.1887 10.5932 12.1887 10.6126 C 12.1699 10.5932 12.1322 10.5737 12.151 10.5349 Z " stroke-width="0.019138712280949172"/>
                  <path id="ID0.2356218732893467" fill="rgb(238,72,84)" stroke="none" d="M 12.0379 10.1855 L 12.0379 10.1855 C 12.0567 10.2243 12.0756 10.2437 12.0567 10.2825 C 12.0379 10.2631 12.019 10.2437 12.0379 10.1855 Z " stroke-width="0.019138712280949172"/>
                  <path id="ID0.06790122808888555" fill="rgb(196,196,245)" stroke="none" d="M 7.9265 2.381 L 7.9265 2.381 C 7.9265 2.3616 7.9454 2.3616 7.9643 2.3616 C 7.9454 2.3616 7.9454 2.381 7.9265 2.381 Z " stroke-width="0.019138712280949172"/>
                  <path id="ID0.09332878701388836" fill="rgb(196,196,245)" stroke="none" d="M 8.002 2.3422 L 8.002 2.3422 C 8.002 2.3228 8.0208 2.3034 8.0585 2.3034 C 8.0397 2.3422 8.0208 2.3422 8.002 2.3422 Z " stroke-width="0.019138712280949172"/>
                  <path id="ID0.17643386032432318" fill="rgb(196,196,245)" stroke="none" d="M 8.0774 2.3034 L 8.0774 2.3034 C 8.0963 2.2839 8.1151 2.2645 8.1151 2.2645 C 8.1151 2.3034 8.1151 2.3034 8.0774 2.3034 Z " stroke-width="0.019138712280949172"/>
                  <path id="ID0.6944350725971162" fill="rgb(146,146,146)" stroke="none" d="M 19.2987 7.9334 L 19.2987 7.9334 C 19.2987 7.8946 19.3176 7.8752 19.3364 7.8752 C 19.3176 7.8946 19.3176 7.914 19.2987 7.9334 Z " stroke-width="0.019138712280949172"/>
                </g>
              </g>
            </g>
          </g>
        </g>
      </g>
    </g>
  </g>
<defs/></svg>