<svg version="1.1" xmlns="http://www.w3.org/2000/svg" xmlns:xlink="http://www.w3.org/1999/xlink" width="486.85559" height="367.79641" viewBox="0,0,486.85559,367.79641"><g transform="translate(3.92779,4.39819)"><g data-paper-data="{&quot;isPaintingLayer&quot;:true}" fill="#ff0000" fill-rule="nonzero" stroke="none" stroke-width="1" stroke-linecap="butt" stroke-linejoin="miter" stroke-miterlimit="10" stroke-dasharray="" stroke-dashoffset="0" style="mix-blend-mode: normal"><path d="M469.52452,2.0318h-460.04914c-3.86129,0.0044 -6.99037,3.14405 -6.99473,7.01831v340.89976c0.00435,3.87426 3.13344,7.0139 6.99473,7.01831h460.04914c3.86131,-0.0044 6.99041,-3.14403 6.99482,-7.01831v-340.89976c-0.00438,-3.87429 -3.1335,-7.01392 -6.99482,-7.01831M479.00209,-0.4593c2.5136,2.52206 3.92572,5.94269 3.92571,9.50942v340.89976c0.00001,3.56672 -1.41211,6.98736 -3.92571,9.50942c-2.5136,2.52206 -5.92279,3.93892 -9.47756,3.93891h-460.04914c-3.55476,-0.00001 -6.96391,-1.41688 -9.4775,-3.93893c-2.51358,-2.52205 -3.92569,-5.94269 -3.92568,-9.50939v-340.89976c-0.00002,-3.5667 1.41209,-6.98734 3.92567,-9.50939c2.51358,-2.52205 5.92275,-3.93892 9.47751,-3.93893h460.04914c3.55478,-0.00001 6.96395,1.41685 9.47756,3.93891z"/></g></g></svg>