<svg version="1.1" xmlns="http://www.w3.org/2000/svg" xmlns:xlink="http://www.w3.org/1999/xlink" width="61.38996" height="69.38393" viewBox="0,0,61.38996,69.38393"><g transform="translate(-210.3553,-133.13948)"><g data-paper-data="{&quot;isPaintingLayer&quot;:true}" fill-rule="nonzero" stroke="none" stroke-width="0.14441" stroke-linecap="butt" stroke-linejoin="miter" stroke-miterlimit="10" stroke-dasharray="" stroke-dashoffset="0" style="mix-blend-mode: normal"><g><g><path d="M210.642,152.1946v0c0,-0.291 0.2867,-0.4364 0.43,-0.5819c8.6011,-5.9638 17.2021,-11.7821 25.6598,-17.746c0.5734,-0.4363 1.0035,-0.4363 1.5769,0c9.6045,6.8366 19.0657,13.8186 28.6702,20.8007c1.2901,0.7273 2.4369,1.6 3.7271,2.4728c0.2867,0.2909 0.7167,0.4363 0.8601,0.7273c-0.2867,0.4363 -0.5734,0.5818 -1.0035,0.8727c-2.0069,1.4546 -4.0138,2.9092 -6.0207,4.3638c-0.7168,0.4364 -0.4301,0.7273 0,1.0182c0.8601,0.5818 1.7202,1.3091 2.5803,1.891c0.4301,0.2909 0.4301,0.4363 0,0.5818c-2.2936,1.7455 -4.7306,3.491 -7.1675,5.2365c-1.1468,0.7273 -2.1503,1.7455 -3.4404,2.3274c-0.2868,0 -0.4301,-0.1455 -0.5735,-0.291c-1.0034,-0.7273 -1.8635,-1.6 -3.1537,-2.0364c-1.4335,0.5819 -2.5803,1.6001 -3.8704,2.6183c-1.4336,0.8727 -2.8671,1.8909 -4.1572,2.9092c-1.1468,-0.8728 -2.1503,-1.7456 -3.2971,-2.4728c-1.1468,-0.7273 -2.1502,-1.7456 -3.4404,-2.3274c-0.8601,-0.8727 -2.0069,-1.6 -3.1537,-2.4728c-0.7168,-0.5818 -1.4335,-1.1637 -2.2936,-1.6c-0.1434,-0.291 -0.5734,-0.5819 -0.7168,-0.7273c-5.1606,-3.9274 -10.4646,-7.7094 -15.6252,-11.4913c-1.8636,-1.4546 -3.7272,-2.7637 -5.5907,-4.0728z" fill="#b5afad"/><path d="M210.642,152.1946v0c1.8635,1.3091 3.7271,2.6182 5.5907,4.0728c5.1606,3.7819 10.4646,7.5639 15.6252,11.4913c0.1434,0.1454 0.5734,0.4363 0.7168,0.7273c0,1.0182 0,2.0364 0,3.0546c0,1.0182 0,1.891 0,2.9092c0,0.8727 0,1.8909 0.1433,2.7637c-0.1433,0.8728 -0.1433,1.7455 0,2.7637c0,0.8728 0,1.891 0,2.7637c0,0.8728 0,1.891 0,2.7638c0,0.8727 0,1.7455 0,2.6182c0,1.0182 0,1.891 0.1434,3.0547c0,0.7272 0,1.4545 0,2.1818c0,0.1455 -0.1434,0.1455 -0.1434,0.1455c-1.1468,-0.5818 -2.2936,-1.6001 -3.2971,-2.3273c-5.734,-4.2184 -11.3247,-8.5821 -16.9154,-12.8004c-1.4335,-1.0182 -1.2901,-2.1819 -1.4335,-3.3456c-0.1433,-0.1454 0,-0.2909 0,-0.2909c-0.1433,-3.2001 -0.1433,-6.5457 -0.2867,-9.7458c-0.1433,-2.0364 0.1434,-4.0728 -0.1433,-6.2547c-0.2867,-2.0364 0.1433,-4.2183 -0.2867,-6.4002c0,0 0.1433,-0.1454 0.2867,-0.1454zM222.8268,166.0132v0c-0.2867,-0.5819 0.1434,-1.3092 -0.43,-1.891c-0.5734,-0.7273 -1.2902,-1.0182 -2.007,-1.6001c-0.1433,-0.1454 -0.43,-0.2909 -0.43,0.1455c0,1.1637 -0.2867,2.4728 1.1468,3.0546c0.2867,0.291 0.7168,0.5819 1.0035,0.8728c0.1433,0 0.2867,0.2909 0.5734,0.1455c0.1433,-0.1455 0,-0.4364 0.1433,-0.7273zM225.5505,166.3041v0c-0.2867,1.7455 -0.1434,3.2001 1.4335,3.7819c0.43,0.2909 0.5734,0.8728 1.0034,0.5818c0.2867,-0.1454 0.1434,-0.7272 0.1434,-1.1636c-0.1434,-0.4364 0.1433,-1.0182 -0.2867,-1.4546c-0.5734,-0.5819 -1.4335,-1.1637 -2.2936,-1.7455zM225.6938,171.8315v0c-0.43,2.0364 -0.2867,2.6183 0.8601,3.491c0.4301,0.2909 1.0035,1.0182 1.4335,0.8728c0.4301,-0.1455 0.1434,-1.1637 0.1434,-1.7455c0,-0.2909 0.1433,-0.7273 -0.2867,-1.0182c-0.7168,-0.4364 -1.4335,-1.0182 -2.1503,-1.6001zM214.7992,159.1766v0c0,0.5818 0.1433,0.8727 0.1433,1.3091c0,0.4364 0,0.7273 0.2867,0.8728c0.7168,0.4364 1.2902,0.8727 1.8636,1.4546c0,0 0.2867,0.1454 0.43,0c0.1434,0 0,-0.1455 0,-0.291c0,-1.4545 -0.1433,-2.7637 -1.5768,-3.3455c-0.2867,-0.1455 -0.2867,-0.1455 -0.4301,-0.2909c-0.1433,-0.1455 -0.43,-0.4364 -0.5734,-0.2909c-0.2867,0.1454 0,0.4363 -0.1433,0.5818zM217.5228,168.6314v0c0,-0.4364 0,-0.5818 0,-0.7273c0.2867,-1.4546 -0.1433,-2.4728 -1.4335,-3.2001c-0.43,-0.1454 -0.7167,-0.7273 -1.0034,-0.5818c-0.2867,0.2909 -0.1434,0.8727 -0.1434,1.3091c0,0.4364 -0.1433,1.0182 0.2867,1.4546c0.7168,0.5818 1.5769,1.0182 2.2936,1.7455zM222.8268,170.9588v0c-0.1433,-0.291 0.2867,-1.0182 -0.2867,-1.4546c-0.7167,-0.4364 -1.2902,-0.8728 -2.0069,-1.3092c-0.2867,-0.2909 -0.4301,-0.2909 -0.4301,0.1455c-0.1433,1.3091 -0.1433,2.6183 1.4335,3.2001c0,0 0,0 0.1434,0.1455c0.2867,0.1454 0.7168,0.7273 1.0035,0.5818c0.2867,-0.2909 0,-0.7273 0.1433,-1.3091zM228.2741,182.0136v0c0.2867,-2.3273 0.1434,-2.6182 -1.2901,-3.6364c-0.4301,-0.2909 -0.8601,-0.8728 -1.2902,-0.7273c-0.2867,0.1454 0,0.8727 0,1.4546c0,0.4363 -0.2867,0.8727 0.1434,1.1636c0.8601,0.5819 1.5768,1.0182 2.4369,1.7455zM215.0859,169.5042v0c0,0.8727 0,1.6 0,2.3273c0,0.1455 0,0.2909 0.2867,0.4364c0.5734,0.5818 1.2901,1.1637 2.0069,1.6c0,0.1455 0.1433,0.1455 0.2867,0c0.1433,-0.1454 0.1433,-2.3273 -0.1434,-2.6182c-0.7167,-0.5819 -1.5768,-1.1637 -2.4369,-1.7455zM222.9702,178.0863v0c0,-0.4364 0,-0.5819 0,-0.8728c0.2867,-1.3091 -0.2867,-2.4728 -1.5769,-3.0546c-0.2867,-0.1455 -0.5734,-0.7273 -1.0035,-0.4364c-0.43,0 -0.1433,0.7273 -0.1433,1.0182c0,0.5818 -0.1434,1.1637 0.2867,1.6c0.7167,0.4364 1.5769,1.0183 2.437,1.7456zM225.6938,184.1955v0c-0.2867,1.0182 0.1434,1.4546 1.0035,2.0365c0.2867,0.2909 0.7167,0.5818 1.0034,0.7272c0.2867,0.291 0.5734,0.291 0.5734,-0.1454c0.1434,-1.3091 0.1434,-2.4728 -1.2901,-3.0547c0,0 -0.1434,-0.1454 -0.2867,-0.1454c-0.2867,-0.1455 -0.5734,-0.7273 -0.8601,-0.5818c-0.4301,0.1454 -0.1434,0.7272 -0.1434,1.1636zM215.2292,174.8862v0c0,0.4363 0,0.7272 0,0.8727c-0.1433,1.3091 0.1434,2.3274 1.5769,2.9092c0.2867,0.1454 0.5734,0.7273 1.0034,0.7273c0.2867,-0.2909 0,-0.8728 0,-1.3091c0,-0.4364 0.2867,-1.0183 -0.1433,-1.4546c-0.7168,-0.4364 -1.4335,-1.0183 -2.437,-1.7455zM222.9702,182.0136v0c-0.1434,-0.5818 0.2867,-1.1636 -0.2867,-1.6c-0.7168,-0.4364 -1.2902,-0.8728 -1.8636,-1.3091c-0.2867,-0.291 -0.5734,-0.291 -0.5734,0.2909c0.1433,1.1637 0,2.4728 1.4335,3.0546c0.1434,0 0.1434,0 0.1434,0.1455c0.2867,0.1454 0.7167,0.7273 1.1468,0.5818c0.2867,-0.2909 0,-0.7273 0,-1.1637z" fill="#f6ece0"/><path d="M256.5143,174.1589v0c1.2901,-0.5819 2.2936,-1.6001 3.4404,-2.3274c2.4369,-1.7455 4.8739,-3.491 7.1675,-5.2365c0.2867,0.7273 0.4301,1.3091 0.4301,2.1819c0,0.5818 0,1.1637 0,1.6c0,0.7273 0,1.4546 0,2.0365c-0.5734,0.5818 -0.1434,1.1636 -0.1434,1.7455c0,0.5818 0,1.1636 0.1434,1.7455c-0.2867,0.7273 -0.1434,1.3091 -0.2867,2.0364c0,0.5818 0,1.1637 0,1.6c0,0.7273 0,1.3092 0,2.0365c0,0.5818 0,1.3091 0,1.8909c0,0.5819 -0.1434,1.1637 -0.1434,1.6001c0,0.5818 0.1434,1.3091 0.1434,1.8909c0,0.5819 -0.2867,1.3092 0,1.891c-0.2867,0.5818 -0.1434,1.4546 -0.2867,2.0364c0,0.4364 0,0.7273 -0.4301,1.0182c-3.2971,2.3274 -6.4508,4.6547 -9.6045,7.1275c-0.2867,0.1455 -0.43,0.5819 -1.0035,0.291c0.2867,-0.5819 0.4301,-1.4546 0,-1.891c-0.2867,-0.5818 -0.2867,-1.0182 -0.2867,-1.6001c0.1434,-0.5818 0.2867,-1.1636 0.2867,-1.7455c0,-0.5818 0.4301,-1.1636 0.2867,-1.7455c-0.7167,-1.3091 -0.43,-2.6182 -0.1433,-3.9274c0.1433,-0.8727 0.1433,-1.6 -0.1434,-2.4728c-0.1433,-0.2909 -0.2867,-0.5818 -0.1433,-1.1636c0.1433,-0.8728 0.2867,-1.891 0.2867,-2.9092c0.1433,-0.8728 -0.1434,-1.6001 -0.8601,-2.1819c0,0 0,0 0,-0.1455c0,-0.1454 0.1433,-0.5818 -0.2867,-0.5818c0,-0.4364 0,-0.7273 0,-1.0182c0.1433,-0.7273 -0.2867,-1.3091 -0.8601,-1.6001c-0.4301,-0.2909 -0.7168,-0.4363 -1.0035,-0.8727c0,-0.2909 0,-0.7273 -0.2867,-0.7273c-0.2867,0 -0.5734,0.4364 -0.43,0.8727c0,0.1455 0,0.291 -0.1434,0.291c-0.2867,0 -0.43,0.1454 -0.5734,0.2909c-0.5734,0.5818 -1.0034,1.3091 -1.8635,1.891c-1.0035,0.7272 -1.7202,1.7455 -2.437,2.9091c-0.5734,0.8728 -1.2902,1.7455 -1.8636,2.7637c-0.1433,0.291 -0.43,0.291 -0.7167,0.291c-0.1434,-2.1819 0,-4.5093 0,-6.6911c1.2901,-1.0183 2.7236,-2.0365 4.1572,-2.9092c0.2867,0.2909 0.8601,0.5818 0.8601,1.0182c0.2867,0.7273 0.5734,0.4364 0.8601,0.1454c0.8601,-0.7272 2.1502,-1.1636 1.8635,-2.9091c0.4301,0.4363 0.7168,0.5818 0.8601,0.8727c0.1434,0.2909 0.1434,0.4364 0.4301,0.2909c0,0.1455 0,0.1455 0,0.1455c0,0.1455 0,0.1455 0.2867,0.2909c0.8601,1.3091 1.4335,2.6183 2.1502,3.9274c0.1434,0 0.1434,0 0.2868,0c0,-1.4546 0,-2.7637 0,-4.0728zM257.6611,183.1773v0c0,0.4364 0,0.5818 0.1433,0.8728c0,0.1454 -0.2867,0.4363 0,0.5818c0.2867,0 0.2867,-0.1455 0.5734,-0.2909c0.2867,-0.2909 0.5734,-0.5819 1.0035,-0.7273c1.0034,-0.4364 1.1468,-1.1637 1.1468,-2.1819c0,-0.4364 0.2867,-1.0182 -0.1434,-1.1637c-0.43,-0.1454 -0.5734,0.4364 -0.8601,0.5819c-0.2867,0.1454 -0.5734,0.2909 -0.7167,0.4363c-0.8601,0.5819 -1.2902,1.1637 -1.1468,1.891zM257.6611,195.6868v0c0.43,-0.4364 1.0034,-0.8728 1.5768,-1.0182c1.2902,-0.7273 1.2902,-1.891 1.1468,-3.0547c0,-0.2909 -0.1433,-0.4363 -0.43,-0.2909c-2.1503,1.1637 -2.437,1.7455 -2.437,4.0729c0,0.1454 0,0.1454 0.1434,0.2909zM266.1188,170.6678v0c-1.0035,0.5819 -1.8636,1.1637 -2.5804,1.6001c-0.1433,0.1455 -0.1433,0.2909 -0.1433,0.5818c0,0.5819 0,1.1637 0,1.7455c0,0.4364 0.1433,0.4364 0.43,0.291c0.7168,-0.4364 1.2902,-0.8728 1.8636,-1.3092c0.1434,-0.1454 0.4301,-0.2909 0.4301,-0.5818c0,-0.7273 0,-1.4546 0,-2.3274zM265.9754,176.1953v0c-0.8601,0.5818 -1.7202,1.0182 -2.437,1.6c-0.1433,0.291 -0.2867,0.4364 -0.2867,0.7273c0,0.5819 0,1.1637 0,1.7455c0,0.4364 0.1434,0.4364 0.5734,0.1455c0.5734,-0.4364 1.1468,-0.8728 1.8636,-1.3091c0.1434,-0.291 0.2867,-0.291 0.2867,-0.5819c0,-0.7273 0,-1.4546 0,-2.3273zM265.8321,181.7227v0c-0.8602,0.5819 -1.5769,1.1637 -2.2937,1.7455c-0.2867,0 -0.2867,0.2909 -0.2867,0.4364c0,0.7273 0,1.4546 -0.1433,2.3274c1.7202,-0.8728 3.2971,-1.891 2.867,-4.3638c0,0 0,0 -0.1433,-0.1455zM260.5281,176.1953v0c0,-0.4364 0,-0.7273 0,-0.8728c0,-0.2909 0.1433,-0.4363 0,-0.5818c-0.2867,0 -0.4301,0.1455 -0.5734,0.2909c-0.4301,0.2909 -0.7168,0.5818 -1.2902,0.8728c-0.5734,0.2909 -0.8601,0.7273 -0.8601,1.6c0.1434,0.4364 -0.2867,1.1637 0.2867,1.4546c0.2867,0.1455 0.7168,-0.5818 1.1468,-0.8727c0.8601,-0.4364 1.7202,-0.8728 1.2902,-1.891zM257.6611,190.3048v0c1.0034,-0.7273 1.8635,-1.3091 2.5803,-1.891l0.1433,-0.2909c0,-0.7273 0,-1.3091 0,-1.8909c0,-0.291 -0.1433,-0.5819 -0.43,-0.291c-0.7168,0.5819 -1.4335,1.0182 -2.1503,1.6001v0.2909c-0.1433,0.8728 -0.1433,1.6 -0.1433,2.4728zM265.6887,188.7048v0c0,-0.291 0,-0.5819 0,-0.8728c0,-0.1455 0.1434,-0.4364 0,-0.5818c-0.2867,0 -0.43,0.1454 -0.5734,0.2909c-0.5734,0.2909 -1.0035,0.8727 -1.5769,1.1637c-0.43,0.2909 -0.5734,0.5818 -0.43,1.0182c0,0.5818 -0.2867,1.4546 0.1433,1.6c0.5734,0.2909 0.8601,-0.4364 1.4335,-0.7273c0.7168,-0.5818 1.2902,-1.0182 1.0035,-1.8909z" fill="#627388"/><path d="M244.7595,177.359v0c0,2.1818 -0.1434,4.5092 0,6.6911v0.2909c0,6.1093 0,12.0731 0,18.1824c-0.1434,0 -0.2867,0 -0.4301,-0.1455c-1.8635,-1.3091 -3.7271,-2.7637 -5.5907,-4.0729c-0.1433,-0.1454 -0.43,-0.4363 -0.43,-0.7273c0,-0.4363 -0.1434,-0.8727 -0.1434,-1.3091c0,-2.3273 0.1434,-4.6547 -0.1433,-6.982c0,-0.2909 0,-0.7273 0,-1.1637c0,-0.2909 0,-0.7273 0,-1.1637c0.2867,-1.0182 0.2867,-2.0364 0,-3.0546c0,-0.4364 0,-0.7273 0,-1.1637c0,-0.4363 0,-0.8727 0,-1.3091c0.2867,-1.0182 0,-2.0364 0,-3.0546c0,-0.5819 0,-0.8728 0,-1.4546c0,-0.2909 0,-0.5819 0,-1.0182c0,-1.1637 0,-2.1819 0,-3.3456c1.2902,0.5818 2.2936,1.6001 3.4404,2.3274c1.1468,0.7272 2.1503,1.6 3.2971,2.4728z" fill="#f6ece0"/><path d="M267.5523,168.7769v0c0,-0.8728 -0.1434,-1.4546 -0.4301,-2.1819c0.4301,-0.1455 0.4301,-0.2909 0,-0.5818c-0.8601,-0.5819 -1.7202,-1.3092 -2.5803,-1.891c-0.4301,-0.2909 -0.7168,-0.5818 0,-1.0182c2.0069,-1.4546 4.0138,-2.9092 6.0207,-4.3638c0.4301,-0.2909 0.7168,-0.4364 1.0035,-0.8727c0.2867,0.2909 0.1433,0.7273 0.1433,1.0182c-0.1433,7.7093 -0.43,15.4186 -0.43,23.2734c-0.1434,0.7273 -0.2867,1.3091 -1.1468,1.7455c-0.7168,0.4364 -1.2902,1.0182 -2.0069,1.6001c-0.4301,-0.1455 -0.5734,-0.4364 -1.0035,-0.4364c0,-0.4364 0.1434,-1.0182 0.1434,-1.6001c0.5734,-0.1454 0.8601,-0.5818 1.2901,-0.8727c0.2867,-0.2909 0.2867,-1.7455 -0.1433,-2.1819c-0.2867,-0.4364 -0.5734,-0.5818 -1.1468,-0.8728c0,-0.4363 0,-1.0182 0,-1.6c1.5768,-0.5818 1.8635,-1.3091 1.5768,-2.6183c-0.2867,-0.7273 -0.8601,-1.0182 -1.4335,-1.1636c0,-0.5819 -0.43,-1.1637 0.1434,-1.7455c1.0034,-0.4364 1.2901,-0.8728 1.2901,-2.0365c0,-0.2909 0,-0.4363 0,-0.7273c-0.2867,-0.5818 -0.7167,-0.8727 -1.2901,-0.8727z" fill="#5f7185"/><path d="M244.7595,202.5234v0c0,-6.1093 0,-12.0731 0,-18.1824v-0.2909c0.2867,0 0.5734,0 0.7167,-0.291c0.5734,-1.0182 1.2902,-1.8909 1.8636,-2.7637c0.7168,-1.1636 1.4335,-2.1819 2.437,-2.9091c0.8601,-0.5819 1.2901,-1.3092 1.8635,-1.891c0.1434,-0.1455 0.2867,-0.2909 0.5734,-0.2909c-0.1433,0.5818 -0.5734,1.1636 -0.8601,1.7455c-0.2867,0.5818 -1.0034,0.7273 -1.0034,1.6v0.1455c0,0 -0.1434,0.1454 -0.2867,0.1454c0,0.1455 0,0.1455 -0.1434,0.1455c-0.43,0.2909 -0.43,0.5818 -0.7167,1.0182c-0.4301,0.2909 -0.5734,0.8728 -0.5734,1.4546c0,0.8728 0.5734,1.7455 0.5734,2.6183c0,0.4363 0,0.7273 -0.1434,1.1636c-0.7167,0.8728 -1.1468,1.891 -0.2867,3.0547c0.1434,0.1454 0.1434,0.2909 0.1434,0.4363c0.1433,0.5819 0.1433,1.4546 0.1433,2.1819v0c-0.2867,0 -0.43,0.2909 -0.5734,0.5819c-0.43,0.8727 -0.1433,1.7455 0.2867,2.4728c0.2867,1.0182 0.4301,1.8909 -0.1433,2.7637c-0.4301,0.7273 -0.4301,1.4546 -0.1434,2.3273c-1.2902,0.8728 -2.437,1.891 -3.7271,2.7638z" fill="#5f7185"/><path d="M238.022,189.2866v0c0.2867,2.3273 0.1433,4.6547 0.1433,6.982c0,0.4364 0.1434,0.8728 0.1434,1.3091c-1.5769,-0.8727 -2.867,-2.0364 -4.3005,-3.0546c-0.2867,-0.2909 -0.7168,-0.7273 -1.1468,-0.8727c0,0 0,-0.1455 0,-0.291c0,-0.7273 0,-1.4546 0,-2.1818c0,-0.1455 0,-0.1455 0,-0.1455c0.43,0.2909 0.8601,0.5818 1.2901,0.8727c0.5734,0.4364 1.1468,0.8728 1.8636,1.3092c0.5734,0.5818 1.1468,1.0182 2.0069,1.6c0,-0.4363 0,-0.8727 0,-1.1636c0.1433,-0.4364 0,-0.8728 -0.2867,-1.1637c-0.8601,-0.8728 -1.5769,-2.0364 -2.867,-2.6183c-0.1434,-0.1454 -0.1434,-0.2909 -0.4301,-0.2909c-0.43,-0.5818 -1.0034,-0.8727 -1.7202,-1.4546c0,-0.8727 0,-1.7455 0,-2.6182h0.1434c0.2867,0.1454 0.5734,0.5818 1.0034,0.7273c0.7168,0.5818 1.5769,1.1636 2.437,1.7455c0.5734,0.5818 1.1468,1.0182 1.7202,1.3091z" fill="#497c9d"/><path d="M255.2241,179.6863v0c0.7167,0.5818 1.0034,1.3091 0.8601,2.1819c0,1.0182 -0.1434,2.0364 -0.2867,2.9092c-0.1434,0.5818 0,0.8727 0.1433,1.1636c0.2867,0.8728 0.2867,1.6001 0.1434,2.4728c-0.2867,1.3092 -0.5734,2.6183 0.1433,3.9274c0.1434,0.5819 -0.2867,1.1637 -0.2867,1.7455c0,0.5819 -0.1433,1.1637 -0.2867,1.7455c0,0.5819 0,1.0183 0.2867,1.6001c0.4301,0.4364 0.2867,1.3091 0,1.891c-0.43,-0.291 -0.8601,-0.5819 -1.2901,-1.0183c0.5734,-0.5818 0.43,-1.4545 0.43,-2.3273c-0.1433,0 -0.2867,-0.1455 -0.43,-0.2909c0,-0.4364 0,-0.8728 0,-1.3091c0.1433,-0.5819 0.1433,-1.0183 -0.4301,-1.3092c0.7168,-0.2909 1.0035,-0.8727 0.8601,-1.7455c0,-0.1454 0,-0.4364 0,-0.5818c0,-0.1455 -0.1433,-0.4364 -0.43,-0.4364c0,-0.5818 0,-1.1637 0.1433,-1.6c0,-0.5819 -0.1433,-0.8728 -0.5734,-1.0183c0.1434,-0.2909 0.4301,-0.2909 0.7168,-0.4363c0.43,-0.4364 0.43,-1.7455 0,-2.3274c0,-0.1454 -0.1434,-0.1454 -0.1434,-0.2909c-0.1433,-0.8728 0.2867,-1.7455 -0.43,-2.4728c0.8601,-0.5818 1.0034,-1.3091 0.8601,-2.1819c0,0 0,-0.1454 0,-0.2909z" fill="#59687c"/><path d="M248.4866,199.7596v0c-0.2867,-0.8727 -0.2867,-1.6 0.1434,-2.3273c0.5734,-0.8728 0.43,-1.7455 0.1433,-2.7637c-0.43,-0.7273 -0.7167,-1.6001 -0.2867,-2.4728c0.1434,-0.291 0.2867,-0.5819 0.5734,-0.5819c0,1.1637 0.7168,1.7455 1.4335,1.4546c0.2867,0.1455 0.4301,0.4364 0.5734,0.5819c-0.2867,0.7273 -1.0034,1.4545 -1.0034,2.3273c-0.1434,0 -0.2867,0.2909 -0.1434,0.2909c0,0.8728 -0.43,1.7455 0.5734,2.1819c-0.8601,0.2909 -1.2901,1.0182 -2.0069,1.3091z" fill="#59687c"/><path d="M250.4935,198.4505v0c-1.0034,-0.4364 -0.5734,-1.3091 -0.5734,-2.1819c0.1434,0.1455 0.4301,0.1455 0.5734,0.2909c0.4301,0.291 0.8601,0.5819 1.4335,1.0182c0.2867,0.1455 0.5734,0.291 0.8601,0.1455c0.2867,-0.2909 0.7168,-0.5818 0.8601,-0.8727c0.2867,0 0.5734,-0.1455 0.5734,-0.5819c0.2867,0 0.5734,-0.1454 0.8601,-0.2909c0,0.8728 0.1434,1.7455 -0.43,2.3273c-0.7168,0.1455 -1.1468,0.7273 -1.8636,1.3092c-0.2867,0.2909 -0.5734,0.2909 -1.0034,0c-0.4301,-0.4364 -0.8601,-0.7273 -1.2902,-1.1637z" fill="#19395d"/><path d="M267.2656,188.8502v0c-0.2867,-0.5818 0,-1.3091 0,-1.891c0.5734,0 0.7167,-0.7272 1.2901,-0.8727c0,0.1455 0,0.1455 0,0.2909c0.2867,1.1637 -0.1433,2.0364 -1.2901,2.4728z" fill="#19395d"/><path d="M268.5557,186.0865v0c-0.5734,0.1455 -0.7167,0.8727 -1.2901,0.8727c0,-0.5818 -0.1434,-1.3091 -0.1434,-1.8909c0.4301,0 0.5734,0.2909 1.0035,0.4364c0,0.2909 0.43,0.2909 0.43,0.5818z" fill="#0b213d"/><path d="M232.8614,193.3594v0c0,0.1455 0,0.291 0,0.291l-0.1434,-0.1455c0,0 0.1434,0 0.1434,-0.1455z" fill="#818488"/><path d="M238.022,172.5588v0c0,1.1637 0,2.1819 0,3.3456c0,0 -0.1434,0 -0.2867,0c0,-0.291 -0.1434,-0.4364 -0.4301,-0.4364c-0.5734,-0.8728 -1.4335,-1.4546 -2.2936,-2.0364c0,-0.1455 -0.2867,-0.291 -0.5734,-0.4364c-0.43,-0.5818 -1.2901,-1.0182 -1.8635,-1.4546c0,-1.0182 0,-2.0364 0,-3.0546c0.8601,0.4363 1.5768,1.0182 2.2936,1.6c1.1468,0.8728 2.2936,1.6001 3.1537,2.4728z" fill="#497c9d"/><path d="M256.5143,174.1589v0c0,1.3091 0,2.6182 0,4.0728c-0.1434,0 -0.1434,0 -0.2868,0c-0.7167,-1.3091 -1.2901,-2.6183 -2.1502,-3.9274c0,-0.1454 0,-0.2909 -0.2867,-0.2909v-0.1455c-0.1434,-0.7273 -0.7168,-1.3091 -1.0035,-2.0364c1.2902,0.4364 2.1503,1.3091 3.1537,2.0364c0.1434,0.1455 0.2867,0.291 0.5735,0.291z" fill="#f6ece0"/><path d="M252.7871,171.8315v0c0.2867,0.7273 0.8601,1.3091 1.0035,2.0364c-0.2867,0.1455 -0.2867,0 -0.4301,-0.2909c-0.1433,-0.2909 -0.43,-0.4364 -0.8601,-0.8727c0.2867,1.7455 -1.0034,2.1819 -1.8635,2.9091c-0.2867,0.291 -0.5734,0.5819 -0.8601,-0.1454c0,-0.4364 -0.5734,-0.7273 -0.8601,-1.0182c1.2901,-1.0182 2.4369,-2.0364 3.8704,-2.6183z" fill="#5f7185"/><path d="M238.022,183.9046v0c0.2867,1.0182 0.2867,2.0364 0,3.0546c-0.4301,-0.1454 -0.8601,-0.4363 -1.0035,-0.7272c-0.43,-0.7273 -1.1468,-1.1637 -1.7202,-1.6001c-0.2867,-0.2909 -0.5734,-0.2909 -0.8601,-0.4364c-0.43,-0.7273 -1.0034,-1.0182 -1.7202,-1.4546c0,-0.8727 0,-1.8909 0,-2.7637c0,0 0,0 0.1434,0c0.2867,0.2909 0.5734,0.5819 1.1468,0.7273c0.43,0.5818 1.0034,0.8728 1.5768,1.3091c0.7168,0.7273 1.5769,1.1637 2.437,1.891z" fill="#497c9d"/><path d="M238.022,178.3772v0c0,1.0182 0.2867,2.0364 0,3.0546c-1.1468,-0.7273 -1.7202,-1.7455 -3.0104,-2.3273c0,-0.291 -0.2867,-0.4364 -0.5734,-0.5819c-0.43,-0.5818 -1.1468,-0.8727 -1.7202,-1.3091c-0.1433,-0.8728 -0.1433,-1.891 -0.1433,-2.7637h0.1433c0.4301,0.2909 0.8601,0.5818 1.2902,0.8727c0.5734,0.5819 1.2901,1.0182 2.0069,1.4546c0.5734,0.5819 1.2901,1.0182 2.0069,1.6001z" fill="#497c9d"/><path d="M222.8268,166.0132v0c-0.1433,0.2909 0,0.5818 -0.1433,0.7273c-0.2867,0.1454 -0.4301,-0.1455 -0.5734,-0.1455c-0.2867,-0.2909 -0.7168,-0.5818 -1.0035,-0.8728c-1.4335,-0.5818 -1.1468,-1.8909 -1.1468,-3.0546c0,-0.4364 0.2867,-0.2909 0.43,-0.1455c0.7168,0.5819 1.4336,0.8728 2.007,1.6001c0.5734,0.5818 0.1433,1.3091 0.43,1.891z" fill="#a196e0"/><path d="M225.5505,166.3041v0c0.8601,0.5818 1.7202,1.1636 2.2936,1.7455c0.43,0.4364 0.1433,1.0182 0.2867,1.4546c0,0.4364 0.1433,1.0182 -0.1434,1.1636c-0.43,0.291 -0.5734,-0.2909 -1.0034,-0.5818c-1.5769,-0.5818 -1.7202,-2.0364 -1.4335,-3.7819z" fill="#a196e0"/><path d="M225.6938,171.8315v0c0.7168,0.5819 1.4335,1.1637 2.1503,1.6001c0.43,0.2909 0.2867,0.7273 0.2867,1.0182c0,0.5818 0.2867,1.6 -0.1434,1.7455c-0.43,0.1454 -1.0034,-0.5819 -1.4335,-0.8728c-1.1468,-0.8727 -1.2901,-1.4546 -0.8601,-3.491z" fill="#a196e0"/><path d="M214.7992,159.1766v0c0.1433,-0.1455 -0.1434,-0.4364 0.1433,-0.5818c0.1434,-0.1455 0.4301,0.1454 0.5734,0.2909c0.1434,0.1454 0.1434,0.1454 0.4301,0.2909c1.4335,0.5818 1.5768,1.891 1.5768,3.3455c0,0.1455 0.1434,0.291 0,0.291c-0.1433,0.1454 -0.43,0 -0.43,0c-0.5734,-0.5819 -1.1468,-1.0182 -1.8636,-1.4546c-0.2867,-0.1455 -0.2867,-0.4364 -0.2867,-0.8728c0,-0.4364 -0.1433,-0.7273 -0.1433,-1.3091z" fill="#a196e0"/><path d="M217.5228,168.6314v0c-0.7167,-0.7273 -1.5768,-1.1637 -2.2936,-1.7455c-0.43,-0.4364 -0.2867,-1.0182 -0.2867,-1.4546c0,-0.4364 -0.1433,-1.0182 0.1434,-1.3091c0.2867,-0.1455 0.5734,0.4364 1.0034,0.5818c1.2902,0.7273 1.7202,1.7455 1.4335,3.2001c0,0.1455 0,0.2909 0,0.7273z" fill="#a196e0"/><path d="M222.8268,170.9588v0c-0.1433,0.5818 0.1434,1.0182 -0.1433,1.3091c-0.2867,0.1455 -0.7168,-0.4364 -1.0035,-0.5818c-0.1434,-0.1455 -0.1434,-0.1455 -0.1434,-0.1455c-1.5768,-0.5818 -1.5768,-1.891 -1.4335,-3.2001c0,-0.4364 0.1434,-0.4364 0.4301,-0.1455c0.7167,0.4364 1.2902,0.8728 2.0069,1.3092c0.5734,0.4364 0.1434,1.1636 0.2867,1.4546z" fill="#a196e0"/><path d="M228.2741,182.0136v0c-0.8601,-0.7273 -1.5768,-1.1636 -2.4369,-1.7455c-0.4301,-0.2909 -0.1434,-0.7273 -0.1434,-1.1636c0,-0.5819 -0.2867,-1.3092 0,-1.4546c0.4301,-0.1455 0.8601,0.4364 1.2902,0.7273c1.4335,1.0182 1.5768,1.3091 1.2901,3.6364z" fill="#a196e0"/><path d="M215.0859,169.5042v0c0.8601,0.5818 1.7202,1.1636 2.4369,1.7455c0.2867,0.2909 0.2867,2.4728 0.1434,2.6182c-0.1434,0.1455 -0.2867,0.1455 -0.2867,0c-0.7168,-0.4363 -1.4335,-1.0182 -2.0069,-1.6c-0.2867,-0.1455 -0.2867,-0.2909 -0.2867,-0.4364c0,-0.7273 0,-1.4546 0,-2.3273z" fill="#a196e0"/><path d="M222.9702,178.0863v0c-0.8601,-0.7273 -1.7203,-1.3092 -2.437,-1.7456c-0.4301,-0.4363 -0.2867,-1.0182 -0.2867,-1.6c0,-0.2909 -0.2867,-1.0182 0.1433,-1.0182c0.4301,-0.2909 0.7168,0.2909 1.0035,0.4364c1.2902,0.5818 1.8636,1.7455 1.5769,3.0546c0,0.2909 0,0.4364 0,0.8728z" fill="#a196e0"/><path d="M225.6938,184.1955v0c0,-0.4364 -0.2867,-1.0182 0.1434,-1.1636c0.2867,-0.1455 0.5734,0.4363 0.8601,0.5818c0.1433,0 0.2867,0.1454 0.2867,0.1454c1.4335,0.5819 1.4335,1.7456 1.2901,3.0547c0,0.4364 -0.2867,0.4364 -0.5734,0.1454c-0.2867,-0.1454 -0.7167,-0.4363 -1.0034,-0.7272c-0.8601,-0.5819 -1.2902,-1.0183 -1.0035,-2.0365z" fill="#a196e0"/><path d="M215.2292,174.8862v0c1.0035,0.7272 1.7202,1.3091 2.437,1.7455c0.43,0.4363 0.1433,1.0182 0.1433,1.4546c0,0.4363 0.2867,1.0182 0,1.3091c-0.43,0 -0.7167,-0.5819 -1.0034,-0.7273c-1.4335,-0.5818 -1.7202,-1.6001 -1.5769,-2.9092c0,-0.1455 0,-0.4364 0,-0.8727z" fill="#a196e0"/><path d="M222.9702,182.0136v0c0,0.4364 0.2867,0.8728 0,1.1637c-0.4301,0.1455 -0.8601,-0.4364 -1.1468,-0.5818c0,-0.1455 0,-0.1455 -0.1434,-0.1455c-1.4335,-0.5818 -1.2902,-1.8909 -1.4335,-3.0546c0,-0.5819 0.2867,-0.5819 0.5734,-0.2909c0.5734,0.4363 1.1468,0.8727 1.8636,1.3091c0.5734,0.4364 0.1433,1.0182 0.2867,1.6z" fill="#a196e0"/><path d="M232.718,177.2135v0c0.5734,0.4364 1.2902,0.7273 1.7202,1.3091c-0.5734,0.5819 -1.0034,0.8728 -1.5768,1.4546c-0.1434,0 -0.1434,0 -0.1434,0c-0.1433,-1.0182 -0.1433,-1.8909 0,-2.7637z" fill="#818488"/><path d="M232.718,174.4498v0h-0.1433c0,-1.0182 0,-1.891 0,-2.9092c0.5734,0.4364 1.4335,0.8728 1.8635,1.4546c-0.43,0.5818 -1.2901,0.7273 -1.7202,1.4546z" fill="#818488"/><path d="M232.8614,191.0321v0c0,0 0,0 0,0.1455c-0.1434,-1.1637 -0.1434,-2.0365 -0.1434,-3.0547c0.7168,0.5819 1.2902,0.8728 1.7202,1.4546c-0.1433,0.2909 -0.43,0.4364 -0.5734,0.5818c-0.43,0.291 -0.8601,0.4364 -1.0034,0.8728z" fill="#818488"/><path d="M232.718,182.7409v0c0.7168,0.4364 1.2902,0.7273 1.7202,1.4546c-0.43,0.4364 -1.1468,0.5819 -1.5768,1.3092h-0.1434c0,-0.8728 0,-1.891 0,-2.7638z" fill="#818488"/><path d="M255.2241,179.6863v0c0,0.1455 0,0.2909 0,0.2909c0.1433,0.8728 0,1.6001 -0.8601,2.1819c-1.2902,0.5818 -1.5769,0.8728 -1.1468,1.7455c-0.4301,0 -0.4301,-0.7273 -1.0035,-0.4364c-0.2867,-0.5818 -0.7167,-0.7273 -1.2901,-1.0182c0,-0.2909 -0.2867,-0.2909 -0.4301,-0.2909c-0.43,-0.4364 -0.5734,-0.8728 -0.43,-1.4546c0,-0.2909 0,-0.7273 -0.1434,-1.0182c0.1434,0 0.1434,0 0.1434,-0.1455c0.5734,0.7273 1.2901,0.8728 1.7202,1.4546c0.5734,0.4364 1.0034,0.2909 1.4335,-0.1454c0.1433,-0.1455 0.2867,-0.2909 0.43,-0.4364c0.5734,-0.1455 1.0035,-0.7273 1.4335,-0.8728h0.1434c0,0.1455 0,0.1455 0,0.1455z" fill="#19395d"/><path d="M257.6611,183.1773v0c-0.1434,-0.7273 0.2867,-1.3091 1.1468,-1.891c0.1433,-0.1454 0.43,-0.2909 0.7167,-0.4363c0.2867,-0.1455 0.4301,-0.7273 0.8601,-0.5819c0.4301,0.1455 0.1434,0.7273 0.1434,1.1637c0,1.0182 -0.1434,1.7455 -1.1468,2.1819c-0.4301,0.1454 -0.7168,0.4364 -1.0035,0.7273c-0.2867,0.1454 -0.2867,0.2909 -0.5734,0.2909c-0.2867,-0.1455 0,-0.4364 0,-0.5818c-0.1433,-0.291 -0.1433,-0.4364 -0.1433,-0.8728z" fill="#3c4688"/><path d="M257.6611,195.6868v0c-0.1434,-0.1455 -0.1434,-0.1455 -0.1434,-0.2909c0,-2.3274 0.2867,-2.9092 2.437,-4.0729c0.2867,-0.1454 0.43,0 0.43,0.2909c0.1434,1.1637 0.1434,2.3274 -1.1468,3.0547c-0.5734,0.1454 -1.1468,0.5818 -1.5768,1.0182z" fill="#3c4688"/><path d="M266.1188,170.6678v0c0,0.8728 0,1.6001 0,2.3274c0,0.2909 -0.2867,0.4364 -0.4301,0.5818c-0.5734,0.4364 -1.1468,0.8728 -1.8636,1.3092c-0.2867,0.1454 -0.43,0.1454 -0.43,-0.291c0,-0.5818 0,-1.1636 0,-1.7455c0,-0.2909 0,-0.4363 0.1433,-0.5818c0.7168,-0.4364 1.5769,-1.0182 2.5804,-1.6001z" fill="#3c4688"/><path d="M265.9754,176.1953v0c0,0.8727 0,1.6 0,2.3273c0,0.2909 -0.1433,0.2909 -0.2867,0.5819c-0.7168,0.4363 -1.2902,0.8727 -1.8636,1.3091c-0.43,0.2909 -0.5734,0.2909 -0.5734,-0.1455c0,-0.5818 0,-1.1636 0,-1.7455c0,-0.2909 0.1434,-0.4363 0.2867,-0.7273c0.7168,-0.5818 1.5769,-1.0182 2.437,-1.6z" fill="#3c4688"/><path d="M265.8321,181.7227v0c0.1433,0.1455 0.1433,0.1455 0.1433,0.1455c0.4301,2.4728 -1.1468,3.491 -2.867,4.3638c0.1433,-0.8728 0.1433,-1.6001 0.1433,-2.3274c0,-0.1455 0,-0.4364 0.2867,-0.4364c0.7168,-0.5818 1.4335,-1.1636 2.2937,-1.7455z" fill="#3c4688"/><path d="M260.5281,176.1953v0c0.43,1.0182 -0.4301,1.4546 -1.2902,1.891c-0.43,0.2909 -0.8601,1.0182 -1.1468,0.8727c-0.5734,-0.2909 -0.1433,-1.0182 -0.2867,-1.4546c0,-0.8727 0.2867,-1.3091 0.8601,-1.6c0.5734,-0.291 0.8601,-0.5819 1.2902,-0.8728c0.1433,-0.1454 0.2867,-0.2909 0.5734,-0.2909c0.1433,0.1455 0,0.2909 0,0.5818c0,0.1455 0,0.4364 0,0.8728z" fill="#3c4688"/><path d="M257.6611,190.3048v0c0,-0.8728 0,-1.6 0.1433,-2.4728v-0.2909c0.7168,-0.5819 1.4335,-1.0182 2.1503,-1.6001c0.2867,-0.2909 0.43,0 0.43,0.291c0,0.5818 0,1.1636 0,1.8909l-0.1433,0.2909c-0.7168,0.5819 -1.5769,1.1637 -2.5803,1.891z" fill="#3c4688"/><path d="M265.6887,188.7048v0c0.2867,0.8727 -0.2867,1.3091 -1.0035,1.8909c-0.5734,0.2909 -0.8601,1.0182 -1.4335,0.7273c-0.43,-0.1454 -0.1433,-1.0182 -0.1433,-1.6c-0.1434,-0.4364 0,-0.7273 0.43,-1.0182c0.5734,-0.291 1.0035,-0.8728 1.5769,-1.1637c0.1434,-0.1455 0.2867,-0.2909 0.5734,-0.2909c0.1434,0.1454 0,0.4363 0,0.5818c0,0.2909 0,0.5818 0,0.8728z" fill="#3c4688"/><path d="M253.0738,175.468v0c0.2867,0.4364 0.5734,0.5818 1.0035,0.8727c0.5734,0.291 1.0034,0.8728 0.8601,1.6001c0,0.2909 0,0.5818 0,1.0182c0,0.1455 0,0.1455 0,0.2909c-0.5734,0.1455 -0.8601,-0.1454 -1.2902,-0.5818c-0.2867,-0.2909 -0.5734,-0.5818 -1.0034,-1.0182c0,-0.7273 0.1433,-1.4546 0.1433,-2.0365c0,-0.1454 0,-0.1454 0.2867,-0.1454z" fill="#333974"/><path d="M268.8424,175.3225v0c0.2867,1.3092 0,2.0365 -1.5768,2.6183c0.1433,-0.7273 0,-1.3091 0.2867,-2.0364c0.43,0 0.7167,-0.5819 1.2901,-0.5819z" fill="#19395d"/><path d="M268.4124,180.4136v0c0.43,0.4364 0.43,1.891 0.1433,2.1819c-0.43,0.2909 -0.7167,0.7273 -1.2901,0.8727c0,-0.5818 0,-1.3091 0,-1.8909c0.5734,-0.291 1.0034,-0.5819 1.1468,-1.1637z" fill="#19395d"/><path d="M252.7871,175.6134v0c0,0.5819 -0.1433,1.3092 -0.1433,2.0365c-0.8601,0.4364 -1.4335,1.1636 -2.2936,1.6c0,-0.8727 0.7167,-1.0182 1.0034,-1.6c0.2867,-0.5819 0.7168,-1.1637 0.8601,-1.7455c0.1434,0 0.1434,-0.1455 0.1434,-0.291c0.1433,0 0.1433,0 0.43,0z" fill="#4e5c73"/><path d="M268.8424,169.6496v0c0,0.291 0,0.4364 0,0.7273c0,1.1637 -0.2867,1.6001 -1.2901,2.0365c0,-0.5819 0,-1.3092 0,-2.0365c0.5734,0 0.7167,-0.5818 1.2901,-0.7273z" fill="#19395d"/><path d="M268.8424,169.6496v0c-0.5734,0.1455 -0.7167,0.7273 -1.2901,0.7273c0,-0.4363 0,-1.0182 0,-1.6c0.5734,0 1.0034,0.2909 1.2901,0.8727z" fill="#0b213d"/><path d="M268.4124,180.4136v0c-0.1434,0.5818 -0.5734,0.8727 -1.1468,1.1637c0,-0.7273 0,-1.3092 0,-2.0365c0.5734,0.291 0.8601,0.4364 1.1468,0.8728z" fill="#0b213d"/><path d="M268.8424,175.3225v0c-0.5734,0 -0.8601,0.5819 -1.2901,0.5819c-0.1434,-0.5819 -0.1434,-1.1637 -0.1434,-1.7455c0.5734,0.1454 1.1468,0.4363 1.4335,1.1636z" fill="#0b213d"/><path d="M252.7871,175.6134v0c-0.2867,0 -0.2867,0 -0.43,0c-0.1434,-0.4363 0.1433,-0.8727 0.43,-0.8727c0.2867,0 0.2867,0.4364 0.2867,0.7273c-0.2867,0 -0.2867,0 -0.2867,0.1454z" fill="#5f7185"/><path d="M254.9374,179.2499v0c0,-0.1454 0,-0.1454 0,-0.2909c0.43,0 0.2867,0.4364 0.2867,0.5818h-0.1434c-0.1433,-0.1454 -0.1433,-0.1454 -0.1433,-0.2909z" fill="#59687c"/><path d="M253.7906,174.0134v0c0.2867,0 0.2867,0.1455 0.2867,0.2909c-0.2867,-0.1454 -0.2867,-0.1454 -0.2867,-0.2909z" fill="#818488"/><path d="M235.2983,184.6319v0c0.5734,0.4364 1.2902,0.8728 1.7202,1.6001c0.1434,0.2909 0.5734,0.5818 1.0035,0.7272c0,0.4364 0,0.8728 0,1.1637c-0.2867,0 -0.4301,0 -0.5734,-0.2909c-0.4301,-0.2909 -0.8601,-0.4364 -1.1468,0.1455c-0.8601,-0.5819 -1.7202,-1.1637 -2.437,-1.7455c0.4301,-0.5819 1.0035,-1.0183 1.4335,-1.6001z" fill="#0b213d"/><path d="M236.0151,176.7771v0c-0.7168,-0.4364 -1.4335,-0.8727 -2.0069,-1.4546c0.43,-0.5818 0.8601,-1.1636 1.0034,-1.8909c0.8601,0.5818 1.7202,1.1636 2.2936,2.0364c0,0.2909 0.1434,0.4364 0.4301,0.4364c0.1433,0 0.2867,0 0.2867,0c0,0.4363 0,0.7273 0,1.0182c-0.1434,0 -0.2867,0 -0.4301,0c-0.5734,-0.1455 -1.0034,-0.5819 -1.5768,-0.1455z" fill="#0b213d"/><path d="M235.0116,179.1045v0c1.2902,0.5818 1.8636,1.6 3.0104,2.3273c0,0.4364 0,0.8728 0,1.3091c-0.1434,0 -0.2867,-0.1454 -0.4301,-0.2909c-0.5734,-0.5818 -1.2901,-0.7273 -2.0069,-0.4364c-0.5734,-0.4363 -1.1468,-0.7273 -1.5768,-1.3091c0.2867,-0.4364 1.0034,-0.7273 1.0034,-1.6z" fill="#0b213d"/><path d="M235.585,182.0136v0c0.7168,-0.2909 1.4335,-0.1454 2.0069,0.4364c0.1434,0.1455 0.2867,0.2909 0.4301,0.2909c0,0.4364 0,0.7273 0,1.1637c-0.8601,-0.7273 -1.7202,-1.1637 -2.437,-1.891z" fill="#17324e"/><path d="M236.0151,176.7771v0c0.5734,-0.4364 1.0034,0 1.5768,0.1455c0.1434,0 0.2867,0 0.4301,0c0,0.5818 0,0.8727 0,1.4546c-0.7168,-0.5819 -1.4335,-1.0182 -2.0069,-1.6001z" fill="#17324e"/><path d="M236.3018,187.9775v0c0.2867,-0.5819 0.7167,-0.4364 1.1468,-0.1455c0.1433,0.2909 0.2867,0.2909 0.5734,0.2909c0,0.4364 0,0.8728 0,1.1637c-0.5734,-0.2909 -1.1468,-0.7273 -1.7202,-1.3091z" fill="#17324e"/><path d="M250.4935,182.1591v0c0.1434,0 0.4301,0 0.4301,0.2909c0,0.2909 -0.1434,0.4364 -0.1434,0.7273c-0.1433,0.7273 -0.8601,1.1637 -0.7167,1.891c0,0 0,0.1454 0,0.2909c-0.1434,0 -0.1434,0.1455 -0.2867,0.2909c-0.5734,0.2909 -0.5734,0.7273 -0.5734,1.3091c0.2867,0.5819 0.7167,0.5819 1.1468,0.5819c0.2867,0 0.2867,0.1454 0.43,0.2909c0,0.2909 -0.1433,0.7273 -0.1433,1.0182c-0.1434,0.5818 -0.7168,1.0182 -0.5734,1.7455c0,0 0,0 0,0.1455c-0.1434,0.1454 -0.1434,0.1454 -0.2867,0.1454c-0.2867,0 -0.2867,0.5819 -0.7168,0.7273c0,-0.7273 0,-1.6 -0.1433,-2.1819c0,-0.1454 0,-0.2909 -0.1434,-0.4363c-0.8601,-1.1637 -0.43,-2.1819 0.2867,-3.0547c0.1434,-0.4363 0.1434,-0.7273 0.1434,-1.1636c0,-0.8728 -0.5734,-1.7455 -0.5734,-2.6183c0,-0.5818 0.1433,-1.1637 0.5734,-1.4546c-0.1434,0.7273 0.5734,1.0182 0.8601,1.4546c0.1433,0.2909 0.2867,0.1455 0.43,0z" fill="#59687c"/><path d="M253.6472,180.4136v0c-0.1433,0.1455 -0.2867,0.2909 -0.43,0.4364c-0.4301,0.4363 -0.8601,0.5818 -1.4335,0.1454c-0.4301,-0.5818 -1.1468,-0.7273 -1.7202,-1.4546c0.1433,0 0.2867,-0.1454 0.2867,-0.1454c0.7167,0 1.2901,-0.4364 1.8635,-1.0182c0.1434,0 0.4301,-0.4364 0.4301,0.1454c0.1433,0.7273 0.5734,1.3092 1.0034,1.891z" fill="#051331"/><path d="M253.6472,180.4136v0c-0.43,-0.5818 -0.8601,-1.1637 -1.0034,-1.891c0,-0.5818 -0.2867,-0.1454 -0.4301,-0.1454c-0.5734,0.5818 -1.1468,1.0182 -1.8635,1.0182v-0.1455c0.8601,-0.4364 1.4335,-1.1636 2.2936,-1.6c0.43,0.4364 0.7167,0.7273 1.0034,1.0182c0.4301,0.4364 0.7168,0.7273 1.2902,0.5818c0,0.1455 0,0.1455 0.1433,0.2909c-0.43,0.1455 -0.8601,0.7273 -1.4335,0.8728z" fill="#17324e"/><path d="M249.06,191.6139v0c0.4301,-0.1454 0.4301,-0.7273 0.7168,-0.7273c0.1433,0.7273 -0.2867,1.7455 0.7167,2.1819c-0.7167,0.2909 -1.4335,-0.2909 -1.4335,-1.4546z" fill="#4e5c73"/><path d="M250.4935,182.1591v0c-0.1433,0.1455 -0.2867,0.2909 -0.43,0c-0.2867,-0.4364 -1.0035,-0.7273 -0.8601,-1.4546c0.2867,-0.4364 0.2867,-0.7273 0.7167,-1.0182c0.1434,0.2909 0.1434,0.7273 0.1434,1.0182c-0.1434,0.5818 0,1.0182 0.43,1.4546z" fill="#4e5c73"/><path d="M234.8683,189.8684v0c1.2901,0.5819 2.0069,1.7455 2.867,2.6183c0.2867,0.2909 0.43,0.7273 0.2867,1.1637c-0.2867,0 -0.4301,-0.1455 -0.5734,-0.291c-0.5734,-0.2909 -1.0035,-0.5818 -1.4335,-0.1454c-0.7168,-0.4364 -1.2902,-0.8728 -1.8636,-1.3092c0.2867,-0.7272 0.7168,-1.3091 0.7168,-2.0364z" fill="#0b213d"/><path d="M235.2983,184.6319v0c-0.43,0.5818 -1.0034,1.0182 -1.4335,1.6001c-0.43,-0.1455 -0.7167,-0.5819 -1.0034,-0.7273c0.43,-0.7273 1.1468,-0.8728 1.5768,-1.3092c0.2867,0.1455 0.5734,0.1455 0.8601,0.4364z" fill="#17324e"/><path d="M234.8683,189.8684v0c0,0.7273 -0.4301,1.3092 -0.7168,2.0364c-0.43,-0.2909 -0.8601,-0.5818 -1.2901,-0.8727c0.1433,-0.4364 0.5734,-0.5818 1.0034,-0.8728c0.1434,-0.1454 0.4301,-0.2909 0.5734,-0.5818c0.2867,0 0.2867,0.1455 0.4301,0.2909z" fill="#17324e"/><path d="M236.0151,193.214v0c0.43,-0.4364 0.8601,-0.1455 1.4335,0.1454c0.1433,0.1455 0.2867,0.291 0.5734,0.291c0,0.2909 0,0.7273 0,1.1636c-0.8601,-0.5818 -1.4335,-1.0182 -2.0069,-1.6z" fill="#17324e"/><path d="M249.7768,185.6501v0c0.1433,-0.1454 0.1433,-0.2909 0.2867,-0.2909c0.1433,0 0.2867,0 0.43,0.1455c0.4301,0.5818 1.1468,0.7273 1.7202,1.3091c0.1434,0.1454 0.4301,0 0.5734,0c0.2867,-0.2909 0.5734,-0.5818 0.8601,-0.8728c0.4301,-0.2909 1.0035,-0.4363 1.2902,-0.8727c0,-0.1455 0,-0.1455 0,-0.1455c0.43,0.5819 0.43,1.891 0,2.3274c-0.2867,0.1454 -0.5734,0.1454 -0.7168,0.4363c-0.5734,0.291 -1.1468,0.5819 -1.4335,1.3092v0c-0.2867,0 -0.43,0 -0.5734,0c-0.2867,-0.5819 -0.8601,-0.8728 -1.4335,-1.1637c-0.1433,-0.1455 -0.1433,-0.2909 -0.43,-0.2909c-0.7168,-0.5819 -0.4301,-1.3091 -0.5734,-1.891z" fill="#19395d"/><path d="M250.4935,193.0685v0c-1.0034,-0.4364 -0.5734,-1.4546 -0.7167,-2.1819c0.1433,0 0.1433,0 0.2867,-0.1454c0,0.1454 0.2867,0.1454 0.43,0.2909c0.4301,0.2909 0.8601,0.5818 1.4335,1.0182c0.2867,0.2909 0.5734,0.4364 0.8601,0.1455c0.2867,-0.291 0.7168,-0.5819 0.8601,-0.8728c0.1434,0 0.4301,0 0.5734,-0.2909c0.2867,-0.1455 0.4301,-0.4364 0.8601,-0.2909c0,0.1454 0,0.4364 0,0.5818c0.1434,0.8728 -0.1433,1.4546 -0.8601,1.7455c-0.43,0.4364 -1.1468,0.5819 -1.4335,1.3092c0,0 0,0 -0.1433,0c-0.1434,0 -0.4301,0 -0.5734,0c-0.1434,-0.4364 -0.5734,-0.5819 -1.0035,-0.7273c-0.1433,-0.1455 -0.2867,-0.4364 -0.5734,-0.5819z" fill="#19395d"/><path d="M252.7871,194.3777v0c0.2867,-0.7273 1.0035,-0.8728 1.4335,-1.3092c0.5734,0.2909 0.5734,0.7273 0.4301,1.3092c0,0.4363 0,0.8727 0,1.3091c-0.7168,-0.1455 -1.2902,-0.5819 -1.8636,-1.3091z" fill="#333974"/><path d="M253.2172,183.9046v0c-0.4301,-0.8727 -0.1434,-1.1637 1.1468,-1.7455c0.7167,0.7273 0.2867,1.6 0.43,2.4728c-0.1433,0 -0.1433,0 -0.1433,0c0,0 -0.2867,0 -0.4301,0c-0.1433,-0.1455 -0.1433,-0.2909 -0.43,-0.2909c-0.2867,-0.1455 -0.4301,-0.2909 -0.5734,-0.4364z" fill="#333974"/><path d="M252.7871,188.9957v0c0.2867,-0.7273 0.8601,-1.0182 1.4335,-1.3092c0.4301,0.1455 0.5734,0.4364 0.5734,1.0183c-0.1433,0.4363 -0.1433,1.0182 -0.1433,1.6c-0.7168,-0.2909 -1.1468,-0.8728 -1.8636,-1.3091z" fill="#333974"/><path d="M252.7871,194.3777v0c0.5734,0.7272 1.1468,1.1636 1.8636,1.3091c0.1433,0.1454 0.2867,0.2909 0.43,0.2909c-0.2867,0.1455 -0.5734,0.2909 -0.8601,0.2909c-0.8601,-0.2909 -1.4335,-0.8727 -1.5768,-1.8909c0.1433,0 0.1433,0 0.1433,0z" fill="#17324e"/><path d="M252.7871,188.9957v0c0.7168,0.4363 1.1468,1.0182 1.8636,1.3091c0.2867,0 0.43,0.2909 0.43,0.4364c-0.43,-0.1455 -0.5734,0.1454 -0.8601,0.2909c-0.43,-0.5818 -0.8601,-1.1637 -1.4335,-1.4546v0c0,-0.1455 0,-0.2909 0,-0.5818z" fill="#17324e"/><path d="M254.794,184.6319v0c0,0.1455 0.1434,0.1455 0.1434,0.2909v0.1455c-0.1434,-0.1455 -0.1434,-0.2909 -0.2867,-0.4364z" fill="#333974"/><path d="M252.6438,194.3777v0c0.1433,1.0182 0.7167,1.6 1.5768,1.8909c0,0.4364 -0.2867,0.5819 -0.5734,0.5819c-0.5734,-0.4364 -1.1468,-0.7273 -1.1468,-1.4546c0,-0.1455 0,-0.291 -0.2867,-0.291c-0.5734,0.4364 -1.2901,0.5819 -1.7202,1.4546c-0.1433,-0.1454 -0.43,-0.1454 -0.5734,-0.2909c-0.1433,0 0,-0.2909 0.1434,-0.2909c0.7167,-0.4364 1.2901,-1.0182 2.0069,-1.6c0.1433,0 0.43,0 0.5734,0z" fill="#0b213d"/><path d="M252.0704,194.3777v0c-0.7168,0.5818 -1.2902,1.1636 -2.0069,1.6c0,-0.8728 0.7167,-1.6 1.0034,-2.3273c0.4301,0.1454 0.8601,0.2909 1.0035,0.7273z" fill="#4e5c73"/><path d="M250.4935,196.5595v0c0.4301,-0.8727 1.1468,-1.0182 1.7202,-1.4546c0.2867,0 0.2867,0.1455 0.2867,0.291c0,0.7273 0.5734,1.0182 1.1468,1.4546c-0.1433,0.2909 -0.5734,0.5818 -0.8601,0.8727c-0.2867,0.1455 -0.5734,0 -0.8601,-0.1455c-0.5734,-0.4363 -1.0034,-0.7272 -1.4335,-1.0182z" fill="#051331"/><path d="M235.0116,173.4316v0c-0.1433,0.7273 -0.5734,1.3091 -1.0034,1.8909c-0.4301,-0.2909 -0.8601,-0.5818 -1.2902,-0.8727c0.4301,-0.7273 1.2902,-0.8728 1.7202,-1.4546c0.2867,0.1454 0.5734,0.2909 0.5734,0.4364z" fill="#17324e"/><path d="M237.7353,175.9044v0c-0.2867,0 -0.4301,-0.1455 -0.4301,-0.4364c0.2867,0 0.4301,0.1454 0.4301,0.4364z" fill="#17324e"/><path d="M235.0116,179.1045v0c0,0.8727 -0.7167,1.1636 -1.0034,1.6c-0.5734,-0.1454 -0.8601,-0.4364 -1.1468,-0.7273c0.5734,-0.5818 1.0034,-0.8727 1.5768,-1.4546c0.2867,0.1455 0.5734,0.2909 0.5734,0.5819z" fill="#17324e"/><path d="M254.6507,184.6319v0c0.1433,0.1455 0.1433,0.2909 0.2867,0.4364c-0.2867,0.4364 -0.8601,0.5818 -1.2902,0.8727c-0.2867,-0.5818 -1.1468,-0.7273 -1.0034,-1.6c0,0 -0.1434,-0.1455 -0.2867,0c-0.5734,0.4364 -1.4335,0.4364 -1.8636,1.1637c-0.1433,-0.1455 -0.2867,-0.1455 -0.43,-0.1455c0,-0.1455 0,-0.2909 0,-0.2909c0.7167,-0.4364 1.4335,-1.0182 2.1502,-1.6001c0.5734,-0.2909 0.5734,0.4364 1.0035,0.4364c0.1433,0.1455 0.2867,0.2909 0.5734,0.4364c0,0.2909 0.2867,0.2909 0.43,0.2909c0.1434,0 0.4301,0 0.4301,0z" fill="#0b213d"/><path d="M252.2137,183.4682v0c-0.7167,0.5819 -1.4335,1.1637 -2.1502,1.6001c-0.1434,-0.7273 0.5734,-1.1637 0.7167,-1.891c0,-0.2909 0.1434,-0.4364 0.1434,-0.7273c0.5734,0.2909 1.0034,0.4364 1.2901,1.0182z" fill="#4e5c73"/><path d="M250.7802,187.832v0c0.5734,0.2909 1.1468,0.5818 1.4335,1.1637c-0.7167,0.4363 -1.4335,1.0182 -2.1502,1.6c-0.1434,-0.7273 0.43,-1.1637 0.5734,-1.7455c0,-0.2909 0.1433,-0.7273 0.1433,-1.0182z" fill="#4e5c73"/><path d="M250.0635,190.5957v0c0.7167,-0.5818 1.4335,-1.1637 2.1502,-1.6c0.1434,0 0.2867,0 0.5734,0c0,0.2909 0,0.4363 0,0.5818c-0.8601,0.4364 -1.5768,0.8728 -2.1502,1.3091c-0.1434,0 -0.1434,0.1455 -0.1434,0.1455c-0.1433,-0.1455 -0.43,-0.1455 -0.43,-0.2909c0,-0.1455 0,-0.1455 0,-0.1455z" fill="#0b213d"/><path d="M249.7768,185.6501v0c0.1433,0.5819 -0.1434,1.3091 0.5734,1.891c-0.4301,0 -0.8601,0 -1.1468,-0.5819c0,-0.5818 0,-1.0182 0.5734,-1.3091z" fill="#4e5c73"/><path d="M250.4935,185.5047v0c0.4301,-0.7273 1.2902,-0.7273 1.8636,-1.1637c0.1433,-0.1455 0.2867,0 0.2867,0c-0.1434,0.8727 0.7167,1.0182 1.0034,1.6c-0.2867,0.291 -0.5734,0.5819 -0.8601,0.8728c-0.1433,0 -0.43,0.1454 -0.5734,0c-0.5734,-0.5818 -1.2901,-0.7273 -1.7202,-1.3091z" fill="#051331"/><path d="M250.4935,191.0321v0c0,0 0,-0.1455 0.1434,-0.1455c0.5734,-0.4363 1.2901,-0.8727 2.1502,-1.3091v0c-0.2867,0.8728 0.2867,1.3091 0.8601,1.7455c-0.1433,0.2909 -0.5734,0.5818 -0.8601,0.8728c-0.2867,0.2909 -0.5734,0.1454 -0.8601,-0.1455c-0.5734,-0.4364 -1.0034,-0.7273 -1.4335,-1.0182z" fill="#051331"/><path d="M253.6472,191.323v0c-0.5734,-0.4364 -1.1468,-0.8727 -0.8601,-1.7455c0.5734,0.2909 1.0035,0.8728 1.4335,1.4546c-0.1433,0.2909 -0.43,0.2909 -0.5734,0.2909z" fill="#0b213d"/><path d="M254.2206,184.6319v0c-0.1433,0 -0.43,0 -0.43,-0.2909c0.2867,0 0.2867,0.1454 0.43,0.2909z" fill="#19395d"/></g><g><path d="M210.642,151.7946v0c0,-0.291 0.2867,-0.4364 0.43,-0.5819c8.6011,-5.9638 17.2021,-11.7821 25.6598,-17.746c0.5734,-0.4363 1.0035,-0.4363 1.5769,0c9.6045,6.8366 19.0657,13.8186 28.6702,20.8007c1.2901,0.7273 2.4369,1.6 3.7271,2.4728c0.2867,0.2909 0.7167,0.4363 0.8601,0.7273c-0.2867,0.4363 -0.5734,0.5818 -1.0035,0.8727c-2.0069,1.4546 -4.0138,2.9092 -6.0207,4.3638c-0.7168,0.4364 -0.4301,0.7273 0,1.0182c0.8601,0.5818 1.7202,1.3091 2.5803,1.891c0.4301,0.2909 0.4301,0.4363 0,0.5818c-2.2936,1.7455 -4.7306,3.491 -7.1675,5.2365c-1.1468,0.7273 -2.1503,1.7455 -3.4404,2.3274c-0.2868,0 -0.4301,-0.1455 -0.5735,-0.291c-1.0034,-0.7273 -1.8635,-1.6 -3.1537,-2.0364c-1.4335,0.5819 -2.5803,1.6001 -3.8704,2.6183c-1.4336,0.8727 -2.8671,1.8909 -4.1572,2.9092c-1.1468,-0.8728 -2.1503,-1.7456 -3.2971,-2.4728c-1.1468,-0.7273 -2.1502,-1.7456 -3.4404,-2.3274c-0.8601,-0.8727 -2.0069,-1.6 -3.1537,-2.4728c-0.7168,-0.5818 -1.4335,-1.1637 -2.2936,-1.6c-0.1434,-0.291 -0.5734,-0.5819 -0.7168,-0.7273c-5.1606,-3.9274 -10.4646,-7.7094 -15.6252,-11.4913c-1.8636,-1.4546 -3.7272,-2.7637 -5.5907,-4.0728z" fill="#b5afad"/><path d="M210.642,151.7946v0c1.8635,1.3091 3.7271,2.6182 5.5907,4.0728c5.1606,3.7819 10.4646,7.5639 15.6252,11.4913c0.1434,0.1454 0.5734,0.4363 0.7168,0.7273c0,1.0182 0,2.0364 0,3.0546c0,1.0182 0,1.891 0,2.9092c0,0.8727 0,1.8909 0.1433,2.7637c-0.1433,0.8728 -0.1433,1.7455 0,2.7637c0,0.8728 0,1.891 0,2.7637c0,0.8728 0,1.891 0,2.7638c0,0.8727 0,1.7455 0,2.6182c0,1.0182 0,1.891 0.1434,3.0547c0,0.7272 0,1.4545 0,2.1818c0,0.1455 -0.1434,0.1455 -0.1434,0.1455c-1.1468,-0.5818 -2.2936,-1.6001 -3.2971,-2.3273c-5.734,-4.2184 -11.3247,-8.5821 -16.9154,-12.8004c-1.4335,-1.0182 -1.2901,-2.1819 -1.4335,-3.3456c-0.1433,-0.1454 0,-0.2909 0,-0.2909c-0.1433,-3.2001 -0.1433,-6.5457 -0.2867,-9.7458c-0.1433,-2.0364 0.1434,-4.0728 -0.1433,-6.2547c-0.2867,-2.0364 0.1433,-4.2183 -0.2867,-6.4002c0,0 0.1433,-0.1454 0.2867,-0.1454zM222.8268,165.6132v0c-0.2867,-0.5819 0.1434,-1.3092 -0.43,-1.891c-0.5734,-0.7273 -1.2902,-1.0182 -2.007,-1.6001c-0.1433,-0.1454 -0.43,-0.2909 -0.43,0.1455c0,1.1637 -0.2867,2.4728 1.1468,3.0546c0.2867,0.291 0.7168,0.5819 1.0035,0.8728c0.1433,0 0.2867,0.2909 0.5734,0.1455c0.1433,-0.1455 0,-0.4364 0.1433,-0.7273zM225.5505,165.9041v0c-0.2867,1.7455 -0.1434,3.2001 1.4335,3.7819c0.43,0.2909 0.5734,0.8728 1.0034,0.5818c0.2867,-0.1454 0.1434,-0.7272 0.1434,-1.1636c-0.1434,-0.4364 0.1433,-1.0182 -0.2867,-1.4546c-0.5734,-0.5819 -1.4335,-1.1637 -2.2936,-1.7455zM225.6938,171.4315v0c-0.43,2.0364 -0.2867,2.6183 0.8601,3.491c0.4301,0.2909 1.0035,1.0182 1.4335,0.8728c0.4301,-0.1455 0.1434,-1.1637 0.1434,-1.7455c0,-0.2909 0.1433,-0.7273 -0.2867,-1.0182c-0.7168,-0.4364 -1.4335,-1.0182 -2.1503,-1.6001zM214.7992,158.7766v0c0,0.5818 0.1433,0.8727 0.1433,1.3091c0,0.4364 0,0.7273 0.2867,0.8728c0.7168,0.4364 1.2902,0.8727 1.8636,1.4546c0,0 0.2867,0.1454 0.43,0c0.1434,0 0,-0.1455 0,-0.291c0,-1.4545 -0.1433,-2.7637 -1.5768,-3.3455c-0.2867,-0.1455 -0.2867,-0.1455 -0.4301,-0.2909c-0.1433,-0.1455 -0.43,-0.4364 -0.5734,-0.2909c-0.2867,0.1454 0,0.4363 -0.1433,0.5818zM217.5228,168.2314v0c0,-0.4364 0,-0.5818 0,-0.7273c0.2867,-1.4546 -0.1433,-2.4728 -1.4335,-3.2001c-0.43,-0.1454 -0.7167,-0.7273 -1.0034,-0.5818c-0.2867,0.2909 -0.1434,0.8727 -0.1434,1.3091c0,0.4364 -0.1433,1.0182 0.2867,1.4546c0.7168,0.5818 1.5769,1.0182 2.2936,1.7455zM222.8268,170.5588v0c-0.1433,-0.291 0.2867,-1.0182 -0.2867,-1.4546c-0.7167,-0.4364 -1.2902,-0.8728 -2.0069,-1.3092c-0.2867,-0.2909 -0.4301,-0.2909 -0.4301,0.1455c-0.1433,1.3091 -0.1433,2.6183 1.4335,3.2001c0,0 0,0 0.1434,0.1455c0.2867,0.1454 0.7168,0.7273 1.0035,0.5818c0.2867,-0.2909 0,-0.7273 0.1433,-1.3091zM228.2741,181.6136v0c0.2867,-2.3273 0.1434,-2.6182 -1.2901,-3.6364c-0.4301,-0.2909 -0.8601,-0.8728 -1.2902,-0.7273c-0.2867,0.1454 0,0.8727 0,1.4546c0,0.4363 -0.2867,0.8727 0.1434,1.1636c0.8601,0.5819 1.5768,1.0182 2.4369,1.7455zM215.0859,169.1042v0c0,0.8727 0,1.6 0,2.3273c0,0.1455 0,0.2909 0.2867,0.4364c0.5734,0.5818 1.2901,1.1637 2.0069,1.6c0,0.1455 0.1433,0.1455 0.2867,0c0.1433,-0.1454 0.1433,-2.3273 -0.1434,-2.6182c-0.7167,-0.5819 -1.5768,-1.1637 -2.4369,-1.7455zM222.9702,177.6863v0c0,-0.4364 0,-0.5819 0,-0.8728c0.2867,-1.3091 -0.2867,-2.4728 -1.5769,-3.0546c-0.2867,-0.1455 -0.5734,-0.7273 -1.0035,-0.4364c-0.43,0 -0.1433,0.7273 -0.1433,1.0182c0,0.5818 -0.1434,1.1637 0.2867,1.6c0.7167,0.4364 1.5769,1.0183 2.437,1.7456zM225.6938,183.7955v0c-0.2867,1.0182 0.1434,1.4546 1.0035,2.0365c0.2867,0.2909 0.7167,0.5818 1.0034,0.7272c0.2867,0.291 0.5734,0.291 0.5734,-0.1454c0.1434,-1.3091 0.1434,-2.4728 -1.2901,-3.0547c0,0 -0.1434,-0.1454 -0.2867,-0.1454c-0.2867,-0.1455 -0.5734,-0.7273 -0.8601,-0.5818c-0.4301,0.1454 -0.1434,0.7272 -0.1434,1.1636zM215.2292,174.4862v0c0,0.4363 0,0.7272 0,0.8727c-0.1433,1.3091 0.1434,2.3274 1.5769,2.9092c0.2867,0.1454 0.5734,0.7273 1.0034,0.7273c0.2867,-0.2909 0,-0.8728 0,-1.3091c0,-0.4364 0.2867,-1.0183 -0.1433,-1.4546c-0.7168,-0.4364 -1.4335,-1.0183 -2.437,-1.7455zM222.9702,181.6136v0c-0.1434,-0.5818 0.2867,-1.1636 -0.2867,-1.6c-0.7168,-0.4364 -1.2902,-0.8728 -1.8636,-1.3091c-0.2867,-0.291 -0.5734,-0.291 -0.5734,0.2909c0.1433,1.1637 0,2.4728 1.4335,3.0546c0.1434,0 0.1434,0 0.1434,0.1455c0.2867,0.1454 0.7167,0.7273 1.1468,0.5818c0.2867,-0.2909 0,-0.7273 0,-1.1637z" fill="#f6ece0"/><path d="M256.5143,173.7589v0c1.2901,-0.5819 2.2936,-1.6001 3.4404,-2.3274c2.4369,-1.7455 4.8739,-3.491 7.1675,-5.2365c0.2867,0.7273 0.4301,1.3091 0.4301,2.1819c0,0.5818 0,1.1637 0,1.6c0,0.7273 0,1.4546 0,2.0365c-0.5734,0.5818 -0.1434,1.1636 -0.1434,1.7455c0,0.5818 0,1.1636 0.1434,1.7455c-0.2867,0.7273 -0.1434,1.3091 -0.2867,2.0364c0,0.5818 0,1.1637 0,1.6c0,0.7273 0,1.3092 0,2.0365c0,0.5818 0,1.3091 0,1.8909c0,0.5819 -0.1434,1.1637 -0.1434,1.6001c0,0.5818 0.1434,1.3091 0.1434,1.8909c0,0.5819 -0.2867,1.3092 0,1.891c-0.2867,0.5818 -0.1434,1.4546 -0.2867,2.0364c0,0.4364 0,0.7273 -0.4301,1.0182c-3.2971,2.3274 -6.4508,4.6547 -9.6045,7.1275c-0.2867,0.1455 -0.43,0.5819 -1.0035,0.291c0.2867,-0.5819 0.4301,-1.4546 0,-1.891c-0.2867,-0.5818 -0.2867,-1.0182 -0.2867,-1.6001c0.1434,-0.5818 0.2867,-1.1636 0.2867,-1.7455c0,-0.5818 0.4301,-1.1636 0.2867,-1.7455c-0.7167,-1.3091 -0.43,-2.6182 -0.1433,-3.9274c0.1433,-0.8727 0.1433,-1.6 -0.1434,-2.4728c-0.1433,-0.2909 -0.2867,-0.5818 -0.1433,-1.1636c0.1433,-0.8728 0.2867,-1.891 0.2867,-2.9092c0.1433,-0.8728 -0.1434,-1.6001 -0.8601,-2.1819c0,0 0,0 0,-0.1455c0,-0.1454 0.1433,-0.5818 -0.2867,-0.5818c0,-0.4364 0,-0.7273 0,-1.0182c0.1433,-0.7273 -0.2867,-1.3091 -0.8601,-1.6001c-0.4301,-0.2909 -0.7168,-0.4363 -1.0035,-0.8727c0,-0.2909 0,-0.7273 -0.2867,-0.7273c-0.2867,0 -0.5734,0.4364 -0.43,0.8727c0,0.1455 0,0.291 -0.1434,0.291c-0.2867,0 -0.43,0.1454 -0.5734,0.2909c-0.5734,0.5818 -1.0034,1.3091 -1.8635,1.891c-1.0035,0.7272 -1.7202,1.7455 -2.437,2.9091c-0.5734,0.8728 -1.2902,1.7455 -1.8636,2.7637c-0.1433,0.291 -0.43,0.291 -0.7167,0.291c-0.1434,-2.1819 0,-4.5093 0,-6.6911c1.2901,-1.0183 2.7236,-2.0365 4.1572,-2.9092c0.2867,0.2909 0.8601,0.5818 0.8601,1.0182c0.2867,0.7273 0.5734,0.4364 0.8601,0.1454c0.8601,-0.7272 2.1502,-1.1636 1.8635,-2.9091c0.4301,0.4363 0.7168,0.5818 0.8601,0.8727c0.1434,0.2909 0.1434,0.4364 0.4301,0.2909c0,0.1455 0,0.1455 0,0.1455c0,0.1455 0,0.1455 0.2867,0.2909c0.8601,1.3091 1.4335,2.6183 2.1502,3.9274c0.1434,0 0.1434,0 0.2868,0c0,-1.4546 0,-2.7637 0,-4.0728zM257.6611,182.7773v0c0,0.4364 0,0.5818 0.1433,0.8728c0,0.1454 -0.2867,0.4363 0,0.5818c0.2867,0 0.2867,-0.1455 0.5734,-0.2909c0.2867,-0.2909 0.5734,-0.5819 1.0035,-0.7273c1.0034,-0.4364 1.1468,-1.1637 1.1468,-2.1819c0,-0.4364 0.2867,-1.0182 -0.1434,-1.1637c-0.43,-0.1454 -0.5734,0.4364 -0.8601,0.5819c-0.2867,0.1454 -0.5734,0.2909 -0.7167,0.4363c-0.8601,0.5819 -1.2902,1.1637 -1.1468,1.891zM257.6611,195.2868v0c0.43,-0.4364 1.0034,-0.8728 1.5768,-1.0182c1.2902,-0.7273 1.2902,-1.891 1.1468,-3.0547c0,-0.2909 -0.1433,-0.4363 -0.43,-0.2909c-2.1503,1.1637 -2.437,1.7455 -2.437,4.0729c0,0.1454 0,0.1454 0.1434,0.2909zM266.1188,170.2678v0c-1.0035,0.5819 -1.8636,1.1637 -2.5804,1.6001c-0.1433,0.1455 -0.1433,0.2909 -0.1433,0.5818c0,0.5819 0,1.1637 0,1.7455c0,0.4364 0.1433,0.4364 0.43,0.291c0.7168,-0.4364 1.2902,-0.8728 1.8636,-1.3092c0.1434,-0.1454 0.4301,-0.2909 0.4301,-0.5818c0,-0.7273 0,-1.4546 0,-2.3274zM265.9754,175.7953v0c-0.8601,0.5818 -1.7202,1.0182 -2.437,1.6c-0.1433,0.291 -0.2867,0.4364 -0.2867,0.7273c0,0.5819 0,1.1637 0,1.7455c0,0.4364 0.1434,0.4364 0.5734,0.1455c0.5734,-0.4364 1.1468,-0.8728 1.8636,-1.3091c0.1434,-0.291 0.2867,-0.291 0.2867,-0.5819c0,-0.7273 0,-1.4546 0,-2.3273zM265.8321,181.3227v0c-0.8602,0.5819 -1.5769,1.1637 -2.2937,1.7455c-0.2867,0 -0.2867,0.2909 -0.2867,0.4364c0,0.7273 0,1.4546 -0.1433,2.3274c1.7202,-0.8728 3.2971,-1.891 2.867,-4.3638c0,0 0,0 -0.1433,-0.1455zM260.5281,175.7953v0c0,-0.4364 0,-0.7273 0,-0.8728c0,-0.2909 0.1433,-0.4363 0,-0.5818c-0.2867,0 -0.4301,0.1455 -0.5734,0.2909c-0.4301,0.2909 -0.7168,0.5818 -1.2902,0.8728c-0.5734,0.2909 -0.8601,0.7273 -0.8601,1.6c0.1434,0.4364 -0.2867,1.1637 0.2867,1.4546c0.2867,0.1455 0.7168,-0.5818 1.1468,-0.8727c0.8601,-0.4364 1.7202,-0.8728 1.2902,-1.891zM257.6611,189.9048v0c1.0034,-0.7273 1.8635,-1.3091 2.5803,-1.891l0.1433,-0.2909c0,-0.7273 0,-1.3091 0,-1.8909c0,-0.291 -0.1433,-0.5819 -0.43,-0.291c-0.7168,0.5819 -1.4335,1.0182 -2.1503,1.6001v0.2909c-0.1433,0.8728 -0.1433,1.6 -0.1433,2.4728zM265.6887,188.3048v0c0,-0.291 0,-0.5819 0,-0.8728c0,-0.1455 0.1434,-0.4364 0,-0.5818c-0.2867,0 -0.43,0.1454 -0.5734,0.2909c-0.5734,0.2909 -1.0035,0.8727 -1.5769,1.1637c-0.43,0.2909 -0.5734,0.5818 -0.43,1.0182c0,0.5818 -0.2867,1.4546 0.1433,1.6c0.5734,0.2909 0.8601,-0.4364 1.4335,-0.7273c0.7168,-0.5818 1.2902,-1.0182 1.0035,-1.8909z" fill="#627388"/><path d="M244.7595,176.959v0c0,2.1818 -0.1434,4.5092 0,6.6911v0.2909c0,6.1093 0,12.0731 0,18.1824c-0.1434,0 -0.2867,0 -0.4301,-0.1455c-1.8635,-1.3091 -3.7271,-2.7637 -5.5907,-4.0729c-0.1433,-0.1454 -0.43,-0.4363 -0.43,-0.7273c0,-0.4363 -0.1434,-0.8727 -0.1434,-1.3091c0,-2.3273 0.1434,-4.6547 -0.1433,-6.982c0,-0.2909 0,-0.7273 0,-1.1637c0,-0.2909 0,-0.7273 0,-1.1637c0.2867,-1.0182 0.2867,-2.0364 0,-3.0546c0,-0.4364 0,-0.7273 0,-1.1637c0,-0.4363 0,-0.8727 0,-1.3091c0.2867,-1.0182 0,-2.0364 0,-3.0546c0,-0.5819 0,-0.8728 0,-1.4546c0,-0.2909 0,-0.5819 0,-1.0182c0,-1.1637 0,-2.1819 0,-3.3456c1.2902,0.5818 2.2936,1.6001 3.4404,2.3274c1.1468,0.7272 2.1503,1.6 3.2971,2.4728z" fill="#f6ece0"/><path d="M267.5523,168.3769v0c0,-0.8728 -0.1434,-1.4546 -0.4301,-2.1819c0.4301,-0.1455 0.4301,-0.2909 0,-0.5818c-0.8601,-0.5819 -1.7202,-1.3092 -2.5803,-1.891c-0.4301,-0.2909 -0.7168,-0.5818 0,-1.0182c2.0069,-1.4546 4.0138,-2.9092 6.0207,-4.3638c0.4301,-0.2909 0.7168,-0.4364 1.0035,-0.8727c0.2867,0.2909 0.1433,0.7273 0.1433,1.0182c-0.1433,7.7093 -0.43,15.4186 -0.43,23.2734c-0.1434,0.7273 -0.2867,1.3091 -1.1468,1.7455c-0.7168,0.4364 -1.2902,1.0182 -2.0069,1.6001c-0.4301,-0.1455 -0.5734,-0.4364 -1.0035,-0.4364c0,-0.4364 0.1434,-1.0182 0.1434,-1.6001c0.5734,-0.1454 0.8601,-0.5818 1.2901,-0.8727c0.2867,-0.2909 0.2867,-1.7455 -0.1433,-2.1819c-0.2867,-0.4364 -0.5734,-0.5818 -1.1468,-0.8728c0,-0.4363 0,-1.0182 0,-1.6c1.5768,-0.5818 1.8635,-1.3091 1.5768,-2.6183c-0.2867,-0.7273 -0.8601,-1.0182 -1.4335,-1.1636c0,-0.5819 -0.43,-1.1637 0.1434,-1.7455c1.0034,-0.4364 1.2901,-0.8728 1.2901,-2.0365c0,-0.2909 0,-0.4363 0,-0.7273c-0.2867,-0.5818 -0.7167,-0.8727 -1.2901,-0.8727z" fill="#5f7185"/><path d="M244.7595,202.1234v0c0,-6.1093 0,-12.0731 0,-18.1824v-0.2909c0.2867,0 0.5734,0 0.7167,-0.291c0.5734,-1.0182 1.2902,-1.8909 1.8636,-2.7637c0.7168,-1.1636 1.4335,-2.1819 2.437,-2.9091c0.8601,-0.5819 1.2901,-1.3092 1.8635,-1.891c0.1434,-0.1455 0.2867,-0.2909 0.5734,-0.2909c-0.1433,0.5818 -0.5734,1.1636 -0.8601,1.7455c-0.2867,0.5818 -1.0034,0.7273 -1.0034,1.6v0.1455c0,0 -0.1434,0.1454 -0.2867,0.1454c0,0.1455 0,0.1455 -0.1434,0.1455c-0.43,0.2909 -0.43,0.5818 -0.7167,1.0182c-0.4301,0.2909 -0.5734,0.8728 -0.5734,1.4546c0,0.8728 0.5734,1.7455 0.5734,2.6183c0,0.4363 0,0.7273 -0.1434,1.1636c-0.7167,0.8728 -1.1468,1.891 -0.2867,3.0547c0.1434,0.1454 0.1434,0.2909 0.1434,0.4363c0.1433,0.5819 0.1433,1.4546 0.1433,2.1819v0c-0.2867,0 -0.43,0.2909 -0.5734,0.5819c-0.43,0.8727 -0.1433,1.7455 0.2867,2.4728c0.2867,1.0182 0.4301,1.8909 -0.1433,2.7637c-0.4301,0.7273 -0.4301,1.4546 -0.1434,2.3273c-1.2902,0.8728 -2.437,1.891 -3.7271,2.7638z" fill="#5f7185"/><path d="M238.022,188.8866v0c0.2867,2.3273 0.1433,4.6547 0.1433,6.982c0,0.4364 0.1434,0.8728 0.1434,1.3091c-1.5769,-0.8727 -2.867,-2.0364 -4.3005,-3.0546c-0.2867,-0.2909 -0.7168,-0.7273 -1.1468,-0.8727c0,0 0,-0.1455 0,-0.291c0,-0.7273 0,-1.4546 0,-2.1818c0,-0.1455 0,-0.1455 0,-0.1455c0.43,0.2909 0.8601,0.5818 1.2901,0.8727c0.5734,0.4364 1.1468,0.8728 1.8636,1.3092c0.5734,0.5818 1.1468,1.0182 2.0069,1.6c0,-0.4363 0,-0.8727 0,-1.1636c0.1433,-0.4364 0,-0.8728 -0.2867,-1.1637c-0.8601,-0.8728 -1.5769,-2.0364 -2.867,-2.6183c-0.1434,-0.1454 -0.1434,-0.2909 -0.4301,-0.2909c-0.43,-0.5818 -1.0034,-0.8727 -1.7202,-1.4546c0,-0.8727 0,-1.7455 0,-2.6182h0.1434c0.2867,0.1454 0.5734,0.5818 1.0034,0.7273c0.7168,0.5818 1.5769,1.1636 2.437,1.7455c0.5734,0.5818 1.1468,1.0182 1.7202,1.3091z" fill="#497c9d"/><path d="M255.2241,179.2863v0c0.7167,0.5818 1.0034,1.3091 0.8601,2.1819c0,1.0182 -0.1434,2.0364 -0.2867,2.9092c-0.1434,0.5818 0,0.8727 0.1433,1.1636c0.2867,0.8728 0.2867,1.6001 0.1434,2.4728c-0.2867,1.3092 -0.5734,2.6183 0.1433,3.9274c0.1434,0.5819 -0.2867,1.1637 -0.2867,1.7455c0,0.5819 -0.1433,1.1637 -0.2867,1.7455c0,0.5819 0,1.0183 0.2867,1.6001c0.4301,0.4364 0.2867,1.3091 0,1.891c-0.43,-0.291 -0.8601,-0.5819 -1.2901,-1.0183c0.5734,-0.5818 0.43,-1.4545 0.43,-2.3273c-0.1433,0 -0.2867,-0.1455 -0.43,-0.2909c0,-0.4364 0,-0.8728 0,-1.3091c0.1433,-0.5819 0.1433,-1.0183 -0.4301,-1.3092c0.7168,-0.2909 1.0035,-0.8727 0.8601,-1.7455c0,-0.1454 0,-0.4364 0,-0.5818c0,-0.1455 -0.1433,-0.4364 -0.43,-0.4364c0,-0.5818 0,-1.1637 0.1433,-1.6c0,-0.5819 -0.1433,-0.8728 -0.5734,-1.0183c0.1434,-0.2909 0.4301,-0.2909 0.7168,-0.4363c0.43,-0.4364 0.43,-1.7455 0,-2.3274c0,-0.1454 -0.1434,-0.1454 -0.1434,-0.2909c-0.1433,-0.8728 0.2867,-1.7455 -0.43,-2.4728c0.8601,-0.5818 1.0034,-1.3091 0.8601,-2.1819c0,0 0,-0.1454 0,-0.2909z" fill="#59687c"/><path d="M248.4866,199.3596v0c-0.2867,-0.8727 -0.2867,-1.6 0.1434,-2.3273c0.5734,-0.8728 0.43,-1.7455 0.1433,-2.7637c-0.43,-0.7273 -0.7167,-1.6001 -0.2867,-2.4728c0.1434,-0.291 0.2867,-0.5819 0.5734,-0.5819c0,1.1637 0.7168,1.7455 1.4335,1.4546c0.2867,0.1455 0.4301,0.4364 0.5734,0.5819c-0.2867,0.7273 -1.0034,1.4545 -1.0034,2.3273c-0.1434,0 -0.2867,0.2909 -0.1434,0.2909c0,0.8728 -0.43,1.7455 0.5734,2.1819c-0.8601,0.2909 -1.2901,1.0182 -2.0069,1.3091z" fill="#59687c"/><path d="M250.4935,198.0505v0c-1.0034,-0.4364 -0.5734,-1.3091 -0.5734,-2.1819c0.1434,0.1455 0.4301,0.1455 0.5734,0.2909c0.4301,0.291 0.8601,0.5819 1.4335,1.0182c0.2867,0.1455 0.5734,0.291 0.8601,0.1455c0.2867,-0.2909 0.7168,-0.5818 0.8601,-0.8727c0.2867,0 0.5734,-0.1455 0.5734,-0.5819c0.2867,0 0.5734,-0.1454 0.8601,-0.2909c0,0.8728 0.1434,1.7455 -0.43,2.3273c-0.7168,0.1455 -1.1468,0.7273 -1.8636,1.3092c-0.2867,0.2909 -0.5734,0.2909 -1.0034,0c-0.4301,-0.4364 -0.8601,-0.7273 -1.2902,-1.1637z" fill="#19395d"/><path d="M267.2656,188.4502v0c-0.2867,-0.5818 0,-1.3091 0,-1.891c0.5734,0 0.7167,-0.7272 1.2901,-0.8727c0,0.1455 0,0.1455 0,0.2909c0.2867,1.1637 -0.1433,2.0364 -1.2901,2.4728z" fill="#19395d"/><path d="M268.5557,185.6865v0c-0.5734,0.1455 -0.7167,0.8727 -1.2901,0.8727c0,-0.5818 -0.1434,-1.3091 -0.1434,-1.8909c0.4301,0 0.5734,0.2909 1.0035,0.4364c0,0.2909 0.43,0.2909 0.43,0.5818z" fill="#0b213d"/><path d="M232.8614,192.9594v0c0,0.1455 0,0.291 0,0.291l-0.1434,-0.1455c0,0 0.1434,0 0.1434,-0.1455z" fill="#818488"/><path d="M238.022,172.1588v0c0,1.1637 0,2.1819 0,3.3456c0,0 -0.1434,0 -0.2867,0c0,-0.291 -0.1434,-0.4364 -0.4301,-0.4364c-0.5734,-0.8728 -1.4335,-1.4546 -2.2936,-2.0364c0,-0.1455 -0.2867,-0.291 -0.5734,-0.4364c-0.43,-0.5818 -1.2901,-1.0182 -1.8635,-1.4546c0,-1.0182 0,-2.0364 0,-3.0546c0.8601,0.4363 1.5768,1.0182 2.2936,1.6c1.1468,0.8728 2.2936,1.6001 3.1537,2.4728z" fill="#497c9d"/><path d="M256.5143,173.7589v0c0,1.3091 0,2.6182 0,4.0728c-0.1434,0 -0.1434,0 -0.2868,0c-0.7167,-1.3091 -1.2901,-2.6183 -2.1502,-3.9274c0,-0.1454 0,-0.2909 -0.2867,-0.2909v-0.1455c-0.1434,-0.7273 -0.7168,-1.3091 -1.0035,-2.0364c1.2902,0.4364 2.1503,1.3091 3.1537,2.0364c0.1434,0.1455 0.2867,0.291 0.5735,0.291z" fill="#f6ece0"/><path d="M252.7871,171.4315v0c0.2867,0.7273 0.8601,1.3091 1.0035,2.0364c-0.2867,0.1455 -0.2867,0 -0.4301,-0.2909c-0.1433,-0.2909 -0.43,-0.4364 -0.8601,-0.8727c0.2867,1.7455 -1.0034,2.1819 -1.8635,2.9091c-0.2867,0.291 -0.5734,0.5819 -0.8601,-0.1454c0,-0.4364 -0.5734,-0.7273 -0.8601,-1.0182c1.2901,-1.0182 2.4369,-2.0364 3.8704,-2.6183z" fill="#5f7185"/><path d="M238.022,183.5046v0c0.2867,1.0182 0.2867,2.0364 0,3.0546c-0.4301,-0.1454 -0.8601,-0.4363 -1.0035,-0.7272c-0.43,-0.7273 -1.1468,-1.1637 -1.7202,-1.6001c-0.2867,-0.2909 -0.5734,-0.2909 -0.8601,-0.4364c-0.43,-0.7273 -1.0034,-1.0182 -1.7202,-1.4546c0,-0.8727 0,-1.8909 0,-2.7637c0,0 0,0 0.1434,0c0.2867,0.2909 0.5734,0.5819 1.1468,0.7273c0.43,0.5818 1.0034,0.8728 1.5768,1.3091c0.7168,0.7273 1.5769,1.1637 2.437,1.891z" fill="#497c9d"/><path d="M238.022,177.9772v0c0,1.0182 0.2867,2.0364 0,3.0546c-1.1468,-0.7273 -1.7202,-1.7455 -3.0104,-2.3273c0,-0.291 -0.2867,-0.4364 -0.5734,-0.5819c-0.43,-0.5818 -1.1468,-0.8727 -1.7202,-1.3091c-0.1433,-0.8728 -0.1433,-1.891 -0.1433,-2.7637h0.1433c0.4301,0.2909 0.8601,0.5818 1.2902,0.8727c0.5734,0.5819 1.2901,1.0182 2.0069,1.4546c0.5734,0.5819 1.2901,1.0182 2.0069,1.6001z" fill="#497c9d"/><path d="M222.8268,165.6132v0c-0.1433,0.2909 0,0.5818 -0.1433,0.7273c-0.2867,0.1454 -0.4301,-0.1455 -0.5734,-0.1455c-0.2867,-0.2909 -0.7168,-0.5818 -1.0035,-0.8728c-1.4335,-0.5818 -1.1468,-1.8909 -1.1468,-3.0546c0,-0.4364 0.2867,-0.2909 0.43,-0.1455c0.7168,0.5819 1.4336,0.8728 2.007,1.6001c0.5734,0.5818 0.1433,1.3091 0.43,1.891z" fill="#a196e0"/><path d="M225.5505,165.9041v0c0.8601,0.5818 1.7202,1.1636 2.2936,1.7455c0.43,0.4364 0.1433,1.0182 0.2867,1.4546c0,0.4364 0.1433,1.0182 -0.1434,1.1636c-0.43,0.291 -0.5734,-0.2909 -1.0034,-0.5818c-1.5769,-0.5818 -1.7202,-2.0364 -1.4335,-3.7819z" fill="#a196e0"/><path d="M225.6938,171.4315v0c0.7168,0.5819 1.4335,1.1637 2.1503,1.6001c0.43,0.2909 0.2867,0.7273 0.2867,1.0182c0,0.5818 0.2867,1.6 -0.1434,1.7455c-0.43,0.1454 -1.0034,-0.5819 -1.4335,-0.8728c-1.1468,-0.8727 -1.2901,-1.4546 -0.8601,-3.491z" fill="#a196e0"/><path d="M214.7992,158.7766v0c0.1433,-0.1455 -0.1434,-0.4364 0.1433,-0.5818c0.1434,-0.1455 0.4301,0.1454 0.5734,0.2909c0.1434,0.1454 0.1434,0.1454 0.4301,0.2909c1.4335,0.5818 1.5768,1.891 1.5768,3.3455c0,0.1455 0.1434,0.291 0,0.291c-0.1433,0.1454 -0.43,0 -0.43,0c-0.5734,-0.5819 -1.1468,-1.0182 -1.8636,-1.4546c-0.2867,-0.1455 -0.2867,-0.4364 -0.2867,-0.8728c0,-0.4364 -0.1433,-0.7273 -0.1433,-1.3091z" fill="#a196e0"/><path d="M217.5228,168.2314v0c-0.7167,-0.7273 -1.5768,-1.1637 -2.2936,-1.7455c-0.43,-0.4364 -0.2867,-1.0182 -0.2867,-1.4546c0,-0.4364 -0.1433,-1.0182 0.1434,-1.3091c0.2867,-0.1455 0.5734,0.4364 1.0034,0.5818c1.2902,0.7273 1.7202,1.7455 1.4335,3.2001c0,0.1455 0,0.2909 0,0.7273z" fill="#a196e0"/><path d="M222.8268,170.5588v0c-0.1433,0.5818 0.1434,1.0182 -0.1433,1.3091c-0.2867,0.1455 -0.7168,-0.4364 -1.0035,-0.5818c-0.1434,-0.1455 -0.1434,-0.1455 -0.1434,-0.1455c-1.5768,-0.5818 -1.5768,-1.891 -1.4335,-3.2001c0,-0.4364 0.1434,-0.4364 0.4301,-0.1455c0.7167,0.4364 1.2902,0.8728 2.0069,1.3092c0.5734,0.4364 0.1434,1.1636 0.2867,1.4546z" fill="#a196e0"/><path d="M228.2741,181.6136v0c-0.8601,-0.7273 -1.5768,-1.1636 -2.4369,-1.7455c-0.4301,-0.2909 -0.1434,-0.7273 -0.1434,-1.1636c0,-0.5819 -0.2867,-1.3092 0,-1.4546c0.4301,-0.1455 0.8601,0.4364 1.2902,0.7273c1.4335,1.0182 1.5768,1.3091 1.2901,3.6364z" fill="#a196e0"/><path d="M215.0859,169.1042v0c0.8601,0.5818 1.7202,1.1636 2.4369,1.7455c0.2867,0.2909 0.2867,2.4728 0.1434,2.6182c-0.1434,0.1455 -0.2867,0.1455 -0.2867,0c-0.7168,-0.4363 -1.4335,-1.0182 -2.0069,-1.6c-0.2867,-0.1455 -0.2867,-0.2909 -0.2867,-0.4364c0,-0.7273 0,-1.4546 0,-2.3273z" fill="#a196e0"/><path d="M222.9702,177.6863v0c-0.8601,-0.7273 -1.7203,-1.3092 -2.437,-1.7456c-0.4301,-0.4363 -0.2867,-1.0182 -0.2867,-1.6c0,-0.2909 -0.2867,-1.0182 0.1433,-1.0182c0.4301,-0.2909 0.7168,0.2909 1.0035,0.4364c1.2902,0.5818 1.8636,1.7455 1.5769,3.0546c0,0.2909 0,0.4364 0,0.8728z" fill="#a196e0"/><path d="M225.6938,183.7955v0c0,-0.4364 -0.2867,-1.0182 0.1434,-1.1636c0.2867,-0.1455 0.5734,0.4363 0.8601,0.5818c0.1433,0 0.2867,0.1454 0.2867,0.1454c1.4335,0.5819 1.4335,1.7456 1.2901,3.0547c0,0.4364 -0.2867,0.4364 -0.5734,0.1454c-0.2867,-0.1454 -0.7167,-0.4363 -1.0034,-0.7272c-0.8601,-0.5819 -1.2902,-1.0183 -1.0035,-2.0365z" fill="#a196e0"/><path d="M215.2292,174.4862v0c1.0035,0.7272 1.7202,1.3091 2.437,1.7455c0.43,0.4363 0.1433,1.0182 0.1433,1.4546c0,0.4363 0.2867,1.0182 0,1.3091c-0.43,0 -0.7167,-0.5819 -1.0034,-0.7273c-1.4335,-0.5818 -1.7202,-1.6001 -1.5769,-2.9092c0,-0.1455 0,-0.4364 0,-0.8727z" fill="#a196e0"/><path d="M222.9702,181.6136v0c0,0.4364 0.2867,0.8728 0,1.1637c-0.4301,0.1455 -0.8601,-0.4364 -1.1468,-0.5818c0,-0.1455 0,-0.1455 -0.1434,-0.1455c-1.4335,-0.5818 -1.2902,-1.8909 -1.4335,-3.0546c0,-0.5819 0.2867,-0.5819 0.5734,-0.2909c0.5734,0.4363 1.1468,0.8727 1.8636,1.3091c0.5734,0.4364 0.1433,1.0182 0.2867,1.6z" fill="#a196e0"/><path d="M232.718,176.8135v0c0.5734,0.4364 1.2902,0.7273 1.7202,1.3091c-0.5734,0.5819 -1.0034,0.8728 -1.5768,1.4546c-0.1434,0 -0.1434,0 -0.1434,0c-0.1433,-1.0182 -0.1433,-1.8909 0,-2.7637z" fill="#818488"/><path d="M232.718,174.0498v0h-0.1433c0,-1.0182 0,-1.891 0,-2.9092c0.5734,0.4364 1.4335,0.8728 1.8635,1.4546c-0.43,0.5818 -1.2901,0.7273 -1.7202,1.4546z" fill="#818488"/><path d="M232.8614,190.6321v0c0,0 0,0 0,0.1455c-0.1434,-1.1637 -0.1434,-2.0365 -0.1434,-3.0547c0.7168,0.5819 1.2902,0.8728 1.7202,1.4546c-0.1433,0.2909 -0.43,0.4364 -0.5734,0.5818c-0.43,0.291 -0.8601,0.4364 -1.0034,0.8728z" fill="#818488"/><path d="M232.718,182.3409v0c0.7168,0.4364 1.2902,0.7273 1.7202,1.4546c-0.43,0.4364 -1.1468,0.5819 -1.5768,1.3092h-0.1434c0,-0.8728 0,-1.891 0,-2.7638z" fill="#818488"/><path d="M255.2241,179.2863v0c0,0.1455 0,0.2909 0,0.2909c0.1433,0.8728 0,1.6001 -0.8601,2.1819c-1.2902,0.5818 -1.5769,0.8728 -1.1468,1.7455c-0.4301,0 -0.4301,-0.7273 -1.0035,-0.4364c-0.2867,-0.5818 -0.7167,-0.7273 -1.2901,-1.0182c0,-0.2909 -0.2867,-0.2909 -0.4301,-0.2909c-0.43,-0.4364 -0.5734,-0.8728 -0.43,-1.4546c0,-0.2909 0,-0.7273 -0.1434,-1.0182c0.1434,0 0.1434,0 0.1434,-0.1455c0.5734,0.7273 1.2901,0.8728 1.7202,1.4546c0.5734,0.4364 1.0034,0.2909 1.4335,-0.1454c0.1433,-0.1455 0.2867,-0.2909 0.43,-0.4364c0.5734,-0.1455 1.0035,-0.7273 1.4335,-0.8728h0.1434c0,0.1455 0,0.1455 0,0.1455z" fill="#19395d"/><path d="M257.6611,182.7773v0c-0.1434,-0.7273 0.2867,-1.3091 1.1468,-1.891c0.1433,-0.1454 0.43,-0.2909 0.7167,-0.4363c0.2867,-0.1455 0.4301,-0.7273 0.8601,-0.5819c0.4301,0.1455 0.1434,0.7273 0.1434,1.1637c0,1.0182 -0.1434,1.7455 -1.1468,2.1819c-0.4301,0.1454 -0.7168,0.4364 -1.0035,0.7273c-0.2867,0.1454 -0.2867,0.2909 -0.5734,0.2909c-0.2867,-0.1455 0,-0.4364 0,-0.5818c-0.1433,-0.291 -0.1433,-0.4364 -0.1433,-0.8728z" fill="#3c4688"/><path d="M257.6611,195.2868v0c-0.1434,-0.1455 -0.1434,-0.1455 -0.1434,-0.2909c0,-2.3274 0.2867,-2.9092 2.437,-4.0729c0.2867,-0.1454 0.43,0 0.43,0.2909c0.1434,1.1637 0.1434,2.3274 -1.1468,3.0547c-0.5734,0.1454 -1.1468,0.5818 -1.5768,1.0182z" fill="#3c4688"/><path d="M266.1188,170.2678v0c0,0.8728 0,1.6001 0,2.3274c0,0.2909 -0.2867,0.4364 -0.4301,0.5818c-0.5734,0.4364 -1.1468,0.8728 -1.8636,1.3092c-0.2867,0.1454 -0.43,0.1454 -0.43,-0.291c0,-0.5818 0,-1.1636 0,-1.7455c0,-0.2909 0,-0.4363 0.1433,-0.5818c0.7168,-0.4364 1.5769,-1.0182 2.5804,-1.6001z" fill="#3c4688"/><path d="M265.9754,175.7953v0c0,0.8727 0,1.6 0,2.3273c0,0.2909 -0.1433,0.2909 -0.2867,0.5819c-0.7168,0.4363 -1.2902,0.8727 -1.8636,1.3091c-0.43,0.2909 -0.5734,0.2909 -0.5734,-0.1455c0,-0.5818 0,-1.1636 0,-1.7455c0,-0.2909 0.1434,-0.4363 0.2867,-0.7273c0.7168,-0.5818 1.5769,-1.0182 2.437,-1.6z" fill="#3c4688"/><path d="M265.8321,181.3227v0c0.1433,0.1455 0.1433,0.1455 0.1433,0.1455c0.4301,2.4728 -1.1468,3.491 -2.867,4.3638c0.1433,-0.8728 0.1433,-1.6001 0.1433,-2.3274c0,-0.1455 0,-0.4364 0.2867,-0.4364c0.7168,-0.5818 1.4335,-1.1636 2.2937,-1.7455z" fill="#3c4688"/><path d="M260.5281,175.7953v0c0.43,1.0182 -0.4301,1.4546 -1.2902,1.891c-0.43,0.2909 -0.8601,1.0182 -1.1468,0.8727c-0.5734,-0.2909 -0.1433,-1.0182 -0.2867,-1.4546c0,-0.8727 0.2867,-1.3091 0.8601,-1.6c0.5734,-0.291 0.8601,-0.5819 1.2902,-0.8728c0.1433,-0.1454 0.2867,-0.2909 0.5734,-0.2909c0.1433,0.1455 0,0.2909 0,0.5818c0,0.1455 0,0.4364 0,0.8728z" fill="#3c4688"/><path d="M257.6611,189.9048v0c0,-0.8728 0,-1.6 0.1433,-2.4728v-0.2909c0.7168,-0.5819 1.4335,-1.0182 2.1503,-1.6001c0.2867,-0.2909 0.43,0 0.43,0.291c0,0.5818 0,1.1636 0,1.8909l-0.1433,0.2909c-0.7168,0.5819 -1.5769,1.1637 -2.5803,1.891z" fill="#3c4688"/><path d="M265.6887,188.3048v0c0.2867,0.8727 -0.2867,1.3091 -1.0035,1.8909c-0.5734,0.2909 -0.8601,1.0182 -1.4335,0.7273c-0.43,-0.1454 -0.1433,-1.0182 -0.1433,-1.6c-0.1434,-0.4364 0,-0.7273 0.43,-1.0182c0.5734,-0.291 1.0035,-0.8728 1.5769,-1.1637c0.1434,-0.1455 0.2867,-0.2909 0.5734,-0.2909c0.1434,0.1454 0,0.4363 0,0.5818c0,0.2909 0,0.5818 0,0.8728z" fill="#3c4688"/><path d="M253.0738,175.068v0c0.2867,0.4364 0.5734,0.5818 1.0035,0.8727c0.5734,0.291 1.0034,0.8728 0.8601,1.6001c0,0.2909 0,0.5818 0,1.0182c0,0.1455 0,0.1455 0,0.2909c-0.5734,0.1455 -0.8601,-0.1454 -1.2902,-0.5818c-0.2867,-0.2909 -0.5734,-0.5818 -1.0034,-1.0182c0,-0.7273 0.1433,-1.4546 0.1433,-2.0365c0,-0.1454 0,-0.1454 0.2867,-0.1454z" fill="#333974"/><path d="M268.8424,174.9225v0c0.2867,1.3092 0,2.0365 -1.5768,2.6183c0.1433,-0.7273 0,-1.3091 0.2867,-2.0364c0.43,0 0.7167,-0.5819 1.2901,-0.5819z" fill="#19395d"/><path d="M268.4124,180.0136v0c0.43,0.4364 0.43,1.891 0.1433,2.1819c-0.43,0.2909 -0.7167,0.7273 -1.2901,0.8727c0,-0.5818 0,-1.3091 0,-1.8909c0.5734,-0.291 1.0034,-0.5819 1.1468,-1.1637z" fill="#19395d"/><path d="M252.7871,175.2134v0c0,0.5819 -0.1433,1.3092 -0.1433,2.0365c-0.8601,0.4364 -1.4335,1.1636 -2.2936,1.6c0,-0.8727 0.7167,-1.0182 1.0034,-1.6c0.2867,-0.5819 0.7168,-1.1637 0.8601,-1.7455c0.1434,0 0.1434,-0.1455 0.1434,-0.291c0.1433,0 0.1433,0 0.43,0z" fill="#4e5c73"/><path d="M268.8424,169.2496v0c0,0.291 0,0.4364 0,0.7273c0,1.1637 -0.2867,1.6001 -1.2901,2.0365c0,-0.5819 0,-1.3092 0,-2.0365c0.5734,0 0.7167,-0.5818 1.2901,-0.7273z" fill="#19395d"/><path d="M268.8424,169.2496v0c-0.5734,0.1455 -0.7167,0.7273 -1.2901,0.7273c0,-0.4363 0,-1.0182 0,-1.6c0.5734,0 1.0034,0.2909 1.2901,0.8727z" fill="#0b213d"/><path d="M268.4124,180.0136v0c-0.1434,0.5818 -0.5734,0.8727 -1.1468,1.1637c0,-0.7273 0,-1.3092 0,-2.0365c0.5734,0.291 0.8601,0.4364 1.1468,0.8728z" fill="#0b213d"/><path d="M268.8424,174.9225v0c-0.5734,0 -0.8601,0.5819 -1.2901,0.5819c-0.1434,-0.5819 -0.1434,-1.1637 -0.1434,-1.7455c0.5734,0.1454 1.1468,0.4363 1.4335,1.1636z" fill="#0b213d"/><path d="M252.7871,175.2134v0c-0.2867,0 -0.2867,0 -0.43,0c-0.1434,-0.4363 0.1433,-0.8727 0.43,-0.8727c0.2867,0 0.2867,0.4364 0.2867,0.7273c-0.2867,0 -0.2867,0 -0.2867,0.1454z" fill="#5f7185"/><path d="M254.9374,178.8499v0c0,-0.1454 0,-0.1454 0,-0.2909c0.43,0 0.2867,0.4364 0.2867,0.5818h-0.1434c-0.1433,-0.1454 -0.1433,-0.1454 -0.1433,-0.2909z" fill="#59687c"/><path d="M253.7906,173.6134v0c0.2867,0 0.2867,0.1455 0.2867,0.2909c-0.2867,-0.1454 -0.2867,-0.1454 -0.2867,-0.2909z" fill="#818488"/><path d="M235.2983,184.2319v0c0.5734,0.4364 1.2902,0.8728 1.7202,1.6001c0.1434,0.2909 0.5734,0.5818 1.0035,0.7272c0,0.4364 0,0.8728 0,1.1637c-0.2867,0 -0.4301,0 -0.5734,-0.2909c-0.4301,-0.2909 -0.8601,-0.4364 -1.1468,0.1455c-0.8601,-0.5819 -1.7202,-1.1637 -2.437,-1.7455c0.4301,-0.5819 1.0035,-1.0183 1.4335,-1.6001z" fill="#0b213d"/><path d="M236.0151,176.3771v0c-0.7168,-0.4364 -1.4335,-0.8727 -2.0069,-1.4546c0.43,-0.5818 0.8601,-1.1636 1.0034,-1.8909c0.8601,0.5818 1.7202,1.1636 2.2936,2.0364c0,0.2909 0.1434,0.4364 0.4301,0.4364c0.1433,0 0.2867,0 0.2867,0c0,0.4363 0,0.7273 0,1.0182c-0.1434,0 -0.2867,0 -0.4301,0c-0.5734,-0.1455 -1.0034,-0.5819 -1.5768,-0.1455z" fill="#0b213d"/><path d="M235.0116,178.7045v0c1.2902,0.5818 1.8636,1.6 3.0104,2.3273c0,0.4364 0,0.8728 0,1.3091c-0.1434,0 -0.2867,-0.1454 -0.4301,-0.2909c-0.5734,-0.5818 -1.2901,-0.7273 -2.0069,-0.4364c-0.5734,-0.4363 -1.1468,-0.7273 -1.5768,-1.3091c0.2867,-0.4364 1.0034,-0.7273 1.0034,-1.6z" fill="#0b213d"/><path d="M235.585,181.6136v0c0.7168,-0.2909 1.4335,-0.1454 2.0069,0.4364c0.1434,0.1455 0.2867,0.2909 0.4301,0.2909c0,0.4364 0,0.7273 0,1.1637c-0.8601,-0.7273 -1.7202,-1.1637 -2.437,-1.891z" fill="#17324e"/><path d="M236.0151,176.3771v0c0.5734,-0.4364 1.0034,0 1.5768,0.1455c0.1434,0 0.2867,0 0.4301,0c0,0.5818 0,0.8727 0,1.4546c-0.7168,-0.5819 -1.4335,-1.0182 -2.0069,-1.6001z" fill="#17324e"/><path d="M236.3018,187.5775v0c0.2867,-0.5819 0.7167,-0.4364 1.1468,-0.1455c0.1433,0.2909 0.2867,0.2909 0.5734,0.2909c0,0.4364 0,0.8728 0,1.1637c-0.5734,-0.2909 -1.1468,-0.7273 -1.7202,-1.3091z" fill="#17324e"/><path d="M250.4935,181.7591v0c0.1434,0 0.4301,0 0.4301,0.2909c0,0.2909 -0.1434,0.4364 -0.1434,0.7273c-0.1433,0.7273 -0.8601,1.1637 -0.7167,1.891c0,0 0,0.1454 0,0.2909c-0.1434,0 -0.1434,0.1455 -0.2867,0.2909c-0.5734,0.2909 -0.5734,0.7273 -0.5734,1.3091c0.2867,0.5819 0.7167,0.5819 1.1468,0.5819c0.2867,0 0.2867,0.1454 0.43,0.2909c0,0.2909 -0.1433,0.7273 -0.1433,1.0182c-0.1434,0.5818 -0.7168,1.0182 -0.5734,1.7455c0,0 0,0 0,0.1455c-0.1434,0.1454 -0.1434,0.1454 -0.2867,0.1454c-0.2867,0 -0.2867,0.5819 -0.7168,0.7273c0,-0.7273 0,-1.6 -0.1433,-2.1819c0,-0.1454 0,-0.2909 -0.1434,-0.4363c-0.8601,-1.1637 -0.43,-2.1819 0.2867,-3.0547c0.1434,-0.4363 0.1434,-0.7273 0.1434,-1.1636c0,-0.8728 -0.5734,-1.7455 -0.5734,-2.6183c0,-0.5818 0.1433,-1.1637 0.5734,-1.4546c-0.1434,0.7273 0.5734,1.0182 0.8601,1.4546c0.1433,0.2909 0.2867,0.1455 0.43,0z" fill="#59687c"/><path d="M253.6472,180.0136v0c-0.1433,0.1455 -0.2867,0.2909 -0.43,0.4364c-0.4301,0.4363 -0.8601,0.5818 -1.4335,0.1454c-0.4301,-0.5818 -1.1468,-0.7273 -1.7202,-1.4546c0.1433,0 0.2867,-0.1454 0.2867,-0.1454c0.7167,0 1.2901,-0.4364 1.8635,-1.0182c0.1434,0 0.4301,-0.4364 0.4301,0.1454c0.1433,0.7273 0.5734,1.3092 1.0034,1.891z" fill="#051331"/><path d="M253.6472,180.0136v0c-0.43,-0.5818 -0.8601,-1.1637 -1.0034,-1.891c0,-0.5818 -0.2867,-0.1454 -0.4301,-0.1454c-0.5734,0.5818 -1.1468,1.0182 -1.8635,1.0182v-0.1455c0.8601,-0.4364 1.4335,-1.1636 2.2936,-1.6c0.43,0.4364 0.7167,0.7273 1.0034,1.0182c0.4301,0.4364 0.7168,0.7273 1.2902,0.5818c0,0.1455 0,0.1455 0.1433,0.2909c-0.43,0.1455 -0.8601,0.7273 -1.4335,0.8728z" fill="#17324e"/><path d="M249.06,191.2139v0c0.4301,-0.1454 0.4301,-0.7273 0.7168,-0.7273c0.1433,0.7273 -0.2867,1.7455 0.7167,2.1819c-0.7167,0.2909 -1.4335,-0.2909 -1.4335,-1.4546z" fill="#4e5c73"/><path d="M250.4935,181.7591v0c-0.1433,0.1455 -0.2867,0.2909 -0.43,0c-0.2867,-0.4364 -1.0035,-0.7273 -0.8601,-1.4546c0.2867,-0.4364 0.2867,-0.7273 0.7167,-1.0182c0.1434,0.2909 0.1434,0.7273 0.1434,1.0182c-0.1434,0.5818 0,1.0182 0.43,1.4546z" fill="#4e5c73"/><path d="M234.8683,189.4684v0c1.2901,0.5819 2.0069,1.7455 2.867,2.6183c0.2867,0.2909 0.43,0.7273 0.2867,1.1637c-0.2867,0 -0.4301,-0.1455 -0.5734,-0.291c-0.5734,-0.2909 -1.0035,-0.5818 -1.4335,-0.1454c-0.7168,-0.4364 -1.2902,-0.8728 -1.8636,-1.3092c0.2867,-0.7272 0.7168,-1.3091 0.7168,-2.0364z" fill="#0b213d"/><path d="M235.2983,184.2319v0c-0.43,0.5818 -1.0034,1.0182 -1.4335,1.6001c-0.43,-0.1455 -0.7167,-0.5819 -1.0034,-0.7273c0.43,-0.7273 1.1468,-0.8728 1.5768,-1.3092c0.2867,0.1455 0.5734,0.1455 0.8601,0.4364z" fill="#17324e"/><path d="M234.8683,189.4684v0c0,0.7273 -0.4301,1.3092 -0.7168,2.0364c-0.43,-0.2909 -0.8601,-0.5818 -1.2901,-0.8727c0.1433,-0.4364 0.5734,-0.5818 1.0034,-0.8728c0.1434,-0.1454 0.4301,-0.2909 0.5734,-0.5818c0.2867,0 0.2867,0.1455 0.4301,0.2909z" fill="#17324e"/><path d="M236.0151,192.814v0c0.43,-0.4364 0.8601,-0.1455 1.4335,0.1454c0.1433,0.1455 0.2867,0.291 0.5734,0.291c0,0.2909 0,0.7273 0,1.1636c-0.8601,-0.5818 -1.4335,-1.0182 -2.0069,-1.6z" fill="#17324e"/><path d="M249.7768,185.2501v0c0.1433,-0.1454 0.1433,-0.2909 0.2867,-0.2909c0.1433,0 0.2867,0 0.43,0.1455c0.4301,0.5818 1.1468,0.7273 1.7202,1.3091c0.1434,0.1454 0.4301,0 0.5734,0c0.2867,-0.2909 0.5734,-0.5818 0.8601,-0.8728c0.4301,-0.2909 1.0035,-0.4363 1.2902,-0.8727c0,-0.1455 0,-0.1455 0,-0.1455c0.43,0.5819 0.43,1.891 0,2.3274c-0.2867,0.1454 -0.5734,0.1454 -0.7168,0.4363c-0.5734,0.291 -1.1468,0.5819 -1.4335,1.3092v0c-0.2867,0 -0.43,0 -0.5734,0c-0.2867,-0.5819 -0.8601,-0.8728 -1.4335,-1.1637c-0.1433,-0.1455 -0.1433,-0.2909 -0.43,-0.2909c-0.7168,-0.5819 -0.4301,-1.3091 -0.5734,-1.891z" fill="#19395d"/><path d="M250.4935,192.6685v0c-1.0034,-0.4364 -0.5734,-1.4546 -0.7167,-2.1819c0.1433,0 0.1433,0 0.2867,-0.1454c0,0.1454 0.2867,0.1454 0.43,0.2909c0.4301,0.2909 0.8601,0.5818 1.4335,1.0182c0.2867,0.2909 0.5734,0.4364 0.8601,0.1455c0.2867,-0.291 0.7168,-0.5819 0.8601,-0.8728c0.1434,0 0.4301,0 0.5734,-0.2909c0.2867,-0.1455 0.4301,-0.4364 0.8601,-0.2909c0,0.1454 0,0.4364 0,0.5818c0.1434,0.8728 -0.1433,1.4546 -0.8601,1.7455c-0.43,0.4364 -1.1468,0.5819 -1.4335,1.3092c0,0 0,0 -0.1433,0c-0.1434,0 -0.4301,0 -0.5734,0c-0.1434,-0.4364 -0.5734,-0.5819 -1.0035,-0.7273c-0.1433,-0.1455 -0.2867,-0.4364 -0.5734,-0.5819z" fill="#19395d"/><path d="M252.7871,193.9777v0c0.2867,-0.7273 1.0035,-0.8728 1.4335,-1.3092c0.5734,0.2909 0.5734,0.7273 0.4301,1.3092c0,0.4363 0,0.8727 0,1.3091c-0.7168,-0.1455 -1.2902,-0.5819 -1.8636,-1.3091z" fill="#333974"/><path d="M253.2172,183.5046v0c-0.4301,-0.8727 -0.1434,-1.1637 1.1468,-1.7455c0.7167,0.7273 0.2867,1.6 0.43,2.4728c-0.1433,0 -0.1433,0 -0.1433,0c0,0 -0.2867,0 -0.4301,0c-0.1433,-0.1455 -0.1433,-0.2909 -0.43,-0.2909c-0.2867,-0.1455 -0.4301,-0.2909 -0.5734,-0.4364z" fill="#333974"/><path d="M252.7871,188.5957v0c0.2867,-0.7273 0.8601,-1.0182 1.4335,-1.3092c0.4301,0.1455 0.5734,0.4364 0.5734,1.0183c-0.1433,0.4363 -0.1433,1.0182 -0.1433,1.6c-0.7168,-0.2909 -1.1468,-0.8728 -1.8636,-1.3091z" fill="#333974"/><path d="M252.7871,193.9777v0c0.5734,0.7272 1.1468,1.1636 1.8636,1.3091c0.1433,0.1454 0.2867,0.2909 0.43,0.2909c-0.2867,0.1455 -0.5734,0.2909 -0.8601,0.2909c-0.8601,-0.2909 -1.4335,-0.8727 -1.5768,-1.8909c0.1433,0 0.1433,0 0.1433,0z" fill="#17324e"/><path d="M252.7871,188.5957v0c0.7168,0.4363 1.1468,1.0182 1.8636,1.3091c0.2867,0 0.43,0.2909 0.43,0.4364c-0.43,-0.1455 -0.5734,0.1454 -0.8601,0.2909c-0.43,-0.5818 -0.8601,-1.1637 -1.4335,-1.4546v0c0,-0.1455 0,-0.2909 0,-0.5818z" fill="#17324e"/><path d="M254.794,184.2319v0c0,0.1455 0.1434,0.1455 0.1434,0.2909v0.1455c-0.1434,-0.1455 -0.1434,-0.2909 -0.2867,-0.4364z" fill="#333974"/><path d="M252.6438,193.9777v0c0.1433,1.0182 0.7167,1.6 1.5768,1.8909c0,0.4364 -0.2867,0.5819 -0.5734,0.5819c-0.5734,-0.4364 -1.1468,-0.7273 -1.1468,-1.4546c0,-0.1455 0,-0.291 -0.2867,-0.291c-0.5734,0.4364 -1.2901,0.5819 -1.7202,1.4546c-0.1433,-0.1454 -0.43,-0.1454 -0.5734,-0.2909c-0.1433,0 0,-0.2909 0.1434,-0.2909c0.7167,-0.4364 1.2901,-1.0182 2.0069,-1.6c0.1433,0 0.43,0 0.5734,0z" fill="#0b213d"/><path d="M252.0704,193.9777v0c-0.7168,0.5818 -1.2902,1.1636 -2.0069,1.6c0,-0.8728 0.7167,-1.6 1.0034,-2.3273c0.4301,0.1454 0.8601,0.2909 1.0035,0.7273z" fill="#4e5c73"/><path d="M250.4935,196.1595v0c0.4301,-0.8727 1.1468,-1.0182 1.7202,-1.4546c0.2867,0 0.2867,0.1455 0.2867,0.291c0,0.7273 0.5734,1.0182 1.1468,1.4546c-0.1433,0.2909 -0.5734,0.5818 -0.8601,0.8727c-0.2867,0.1455 -0.5734,0 -0.8601,-0.1455c-0.5734,-0.4363 -1.0034,-0.7272 -1.4335,-1.0182z" fill="#051331"/><path d="M235.0116,173.0316v0c-0.1433,0.7273 -0.5734,1.3091 -1.0034,1.8909c-0.4301,-0.2909 -0.8601,-0.5818 -1.2902,-0.8727c0.4301,-0.7273 1.2902,-0.8728 1.7202,-1.4546c0.2867,0.1454 0.5734,0.2909 0.5734,0.4364z" fill="#17324e"/><path d="M237.7353,175.5044v0c-0.2867,0 -0.4301,-0.1455 -0.4301,-0.4364c0.2867,0 0.4301,0.1454 0.4301,0.4364z" fill="#17324e"/><path d="M235.0116,178.7045v0c0,0.8727 -0.7167,1.1636 -1.0034,1.6c-0.5734,-0.1454 -0.8601,-0.4364 -1.1468,-0.7273c0.5734,-0.5818 1.0034,-0.8727 1.5768,-1.4546c0.2867,0.1455 0.5734,0.2909 0.5734,0.5819z" fill="#17324e"/><path d="M254.6507,184.2319v0c0.1433,0.1455 0.1433,0.2909 0.2867,0.4364c-0.2867,0.4364 -0.8601,0.5818 -1.2902,0.8727c-0.2867,-0.5818 -1.1468,-0.7273 -1.0034,-1.6c0,0 -0.1434,-0.1455 -0.2867,0c-0.5734,0.4364 -1.4335,0.4364 -1.8636,1.1637c-0.1433,-0.1455 -0.2867,-0.1455 -0.43,-0.1455c0,-0.1455 0,-0.2909 0,-0.2909c0.7167,-0.4364 1.4335,-1.0182 2.1502,-1.6001c0.5734,-0.2909 0.5734,0.4364 1.0035,0.4364c0.1433,0.1455 0.2867,0.2909 0.5734,0.4364c0,0.2909 0.2867,0.2909 0.43,0.2909c0.1434,0 0.4301,0 0.4301,0z" fill="#0b213d"/><path d="M252.2137,183.0682v0c-0.7167,0.5819 -1.4335,1.1637 -2.1502,1.6001c-0.1434,-0.7273 0.5734,-1.1637 0.7167,-1.891c0,-0.2909 0.1434,-0.4364 0.1434,-0.7273c0.5734,0.2909 1.0034,0.4364 1.2901,1.0182z" fill="#4e5c73"/><path d="M250.7802,187.432v0c0.5734,0.2909 1.1468,0.5818 1.4335,1.1637c-0.7167,0.4363 -1.4335,1.0182 -2.1502,1.6c-0.1434,-0.7273 0.43,-1.1637 0.5734,-1.7455c0,-0.2909 0.1433,-0.7273 0.1433,-1.0182z" fill="#4e5c73"/><path d="M250.0635,190.1957v0c0.7167,-0.5818 1.4335,-1.1637 2.1502,-1.6c0.1434,0 0.2867,0 0.5734,0c0,0.2909 0,0.4363 0,0.5818c-0.8601,0.4364 -1.5768,0.8728 -2.1502,1.3091c-0.1434,0 -0.1434,0.1455 -0.1434,0.1455c-0.1433,-0.1455 -0.43,-0.1455 -0.43,-0.2909c0,-0.1455 0,-0.1455 0,-0.1455z" fill="#0b213d"/><path d="M249.7768,185.2501v0c0.1433,0.5819 -0.1434,1.3091 0.5734,1.891c-0.4301,0 -0.8601,0 -1.1468,-0.5819c0,-0.5818 0,-1.0182 0.5734,-1.3091z" fill="#4e5c73"/><path d="M250.4935,185.1047v0c0.4301,-0.7273 1.2902,-0.7273 1.8636,-1.1637c0.1433,-0.1455 0.2867,0 0.2867,0c-0.1434,0.8727 0.7167,1.0182 1.0034,1.6c-0.2867,0.291 -0.5734,0.5819 -0.8601,0.8728c-0.1433,0 -0.43,0.1454 -0.5734,0c-0.5734,-0.5818 -1.2901,-0.7273 -1.7202,-1.3091z" fill="#051331"/><path d="M250.4935,190.6321v0c0,0 0,-0.1455 0.1434,-0.1455c0.5734,-0.4363 1.2901,-0.8727 2.1502,-1.3091v0c-0.2867,0.8728 0.2867,1.3091 0.8601,1.7455c-0.1433,0.2909 -0.5734,0.5818 -0.8601,0.8728c-0.2867,0.2909 -0.5734,0.1454 -0.8601,-0.1455c-0.5734,-0.4364 -1.0034,-0.7273 -1.4335,-1.0182z" fill="#051331"/><path d="M253.6472,190.923v0c-0.5734,-0.4364 -1.1468,-0.8727 -0.8601,-1.7455c0.5734,0.2909 1.0035,0.8728 1.4335,1.4546c-0.1433,0.2909 -0.43,0.2909 -0.5734,0.2909z" fill="#0b213d"/><path d="M254.2206,184.2319v0c-0.1433,0 -0.43,0 -0.43,-0.2909c0.2867,0 0.2867,0.1454 0.43,0.2909z" fill="#19395d"/></g></g></g></g></svg>