<svg version="1.1" xmlns="http://www.w3.org/2000/svg" xmlns:xlink="http://www.w3.org/1999/xlink" width="727.09018" height="547.82912" viewBox="0,0,727.09018,547.82912"><defs><linearGradient x1="245.68024" y1="458.08316" x2="245.68024" y2="105.94473" gradientUnits="userSpaceOnUse" id="color-1"><stop offset="0" stop-color="#ff0000"/><stop offset="1" stop-color="#ff0000" stop-opacity="0"/></linearGradient><linearGradient x1="242.18172" y1="-89.74596" x2="242.18172" y2="450.08016" gradientUnits="userSpaceOnUse" id="color-2"><stop offset="0" stop-color="#ff0000"/><stop offset="1" stop-color="#ff0000" stop-opacity="0"/></linearGradient></defs><g transform="translate(119.61411,89.74596)"><g data-paper-data="{&quot;isPaintingLayer&quot;:true}" fill-rule="nonzero" stroke="none" stroke-linecap="butt" stroke-linejoin="miter" stroke-miterlimit="10" stroke-dasharray="" stroke-dashoffset="0" style="mix-blend-mode: normal"><path d="M607.47607,105.94473v352.13843h-723.59168v-352.13843z" data-paper-data="{&quot;index&quot;:null}" fill="url(#color-1)" stroke-width="0"/><path d="M-119.6141,450.08016v-539.82612h723.59168v539.82612z" fill="url(#color-2)" stroke-width="0"/><g fill="#ff0000" stroke-width="1"><path d="M46.41973,122.21295c0.3015,0.7086 0.64537,1.39846 1.02977,2.06574c0.12679,0.22886 0.54587,0.89072 1.25717,1.9855c0.25511,0.46078 0.53963,0.94322 0.85817,1.4535c0.31698,0.51021 0.60252,0.94319 0.85662,1.29884c0.70807,-1.09484 1.42813,-2.20929 2.16008,-3.34324c0.73289,-1.13493 1.40242,-2.28842 2.00855,-3.46044h9.32206c-0.89921,0.94525 -1.70158,1.97809 -2.39508,3.08316c-0.70971,1.09165 -1.40603,2.18225 -2.08895,3.2718c-1.16587,1.70082 -2.04,2.9698 -2.62241,3.80681c-1.09009,1.57402 -1.95133,2.85535 -2.58372,3.84392v5.82008c0,0.7885 0.02473,1.96678 0.07575,3.54084c0.05102,1.57405 0.07578,2.75228 0.07578,3.53777l-7.86565,0.04006l0.11441,-4.1097v-8.90625l-9.61441,-13.92839z"/><path d="M78.54097,121.4553c3.89145,-0.15662 7.69627,1.17597 10.63959,3.72641c2.88401,2.63502 4.45579,6.41012 4.294,10.3133c0.1356,3.99997 -1.52253,7.8514 -4.5213,10.50196c-3.0147,2.62539 -6.9116,4.01201 -10.90708,3.88104c-3.83018,0.14111 -7.56023,-1.24108 -10.37362,-3.84392c-2.74727,-2.64781 -4.22734,-6.34657 -4.06502,-10.15867c-0.1508,-3.9184 1.38485,-7.71362 4.218,-10.42467c2.90082,-2.69977 6.75517,-4.13693 10.71543,-3.99545zM78.50234,143.5694c2.04031,0.10694 4.01172,-0.7536 5.32054,-2.32243c1.24827,-1.62171 1.8811,-3.63353 1.786,-5.67783c0.08844,-1.95383 -0.50214,-3.87806 -1.67149,-5.44581c-1.2338,-1.53257 -3.12658,-2.38212 -5.09171,-2.28529c-2.01169,-0.08097 -3.95729,0.72643 -5.32054,2.20799c-1.363,1.52576 -2.08468,3.51864 -2.01473,5.56333c-0.08788,2.01264 0.53076,3.99266 1.74876,5.59731c1.27062,1.57906 3.21857,2.45686 5.24318,2.36275z"/><path d="M95.82932,122.13873h7.67698v15.37876c-0.07904,1.40299 0.19535,2.80336 0.798,4.07274c0.76858,1.14567 2.04962,1.84214 3.42902,1.86434c1.37943,0.0222 2.6822,-0.6327 3.48726,-1.75307c0.65962,-1.20026 0.9753,-2.55927 0.91225,-3.9274l-0.11457,-15.5983l7.67546,-0.03711l-0.15153,17.6053c0.23953,3.08288 -1.16077,6.06436 -3.68622,7.84865c-2.67165,1.54334 -5.73616,2.27208 -8.81657,2.09668c-2.87331,0.18265 -5.72438,-0.60829 -8.09292,-2.24517c-2.18766,-1.89861 -3.34441,-4.7228 -3.11717,-7.61051z"/><path d="M136.94493,122.13873c0.3046,0.94012 0.76076,2.33687 1.36841,4.19026c0.60768,1.85237 1.07619,3.23573 1.40553,4.15007c0.73445,2.109 1.20299,3.45525 1.40553,4.03874c0.48114,1.36008 0.88736,2.74553 1.21685,4.15007l5.09172,-16.52914h6.004l5.09171,16.30029l5.282,-16.30029h7.75276c-1.11486,3.30277 -2.12816,6.28799 -3.04,8.95575c-1.59572,4.59844 -2.6219,7.58265 -3.07854,8.95261c-1.21533,3.66146 -2.17813,6.67248 -2.88835,9.03304h-7.44813c-0.35406,-1.65446 -0.80968,-3.41097 -1.36686,-5.26952c-0.22882,-0.76383 -0.76741,-2.43168 -1.61579,-5.00359c-0.84889,-2.56981 -1.42513,-4.35106 -1.72868,-5.34375l-4.67425,15.61686h-7.44816c-0.86133,-2.92543 -1.82413,-5.90143 -2.88835,-8.92788c-1.06378,-3.02752 -2.11467,-6.03028 -3.15273,-9.00831c-1.26635,-3.63673 -2.26727,-6.63844 -3.00276,-9.00521z"/><path d="M172.74158,122.21295h15.88283v6.27149h-8.54908v3.87483h7.48537v6.27149h-7.48537v4.25521h8.8908v6.19416h-16.22454z"/><path d="M190.98085,122.21295h7.76666c1.11638,1.70702 2.43634,3.55214 3.95989,5.53533c1.39625,1.80909 2.79249,3.60373 4.18874,5.38397c1.72558,2.26676 3.04503,4.13769 3.95833,5.61279l-0.49327,-16.53209h7.79v26.86717h-7.90451c-0.9633,-1.49055 -2.03997,-3.04503 -3.23,-4.66339c-1.5447,-2.02245 -2.68476,-3.53878 -3.42025,-4.54901c-0.93695,-1.21533 -1.87397,-2.44204 -2.81102,-3.68001c-0.94592,-1.23833 -1.82144,-2.5289 -2.62241,-3.86555c0.16049,1.01941 0.26831,2.04646 0.32316,3.07699c0.06333,1.11638 0.09478,2.2946 0.09433,3.53466c0,1.34213 0.04433,3.19761 0.133,5.5664c0.08968,2.36879 0.13401,3.89544 0.133,4.57992h-7.86565c0,-1.83071 0.03816,-4.6036 0.11441,-8.31867c0.07578,-3.71403 0.11391,-6.50034 0.11441,-8.35889c0,-1.57716 -0.01549,-2.84918 -0.04639,-3.81609c-0.12214,-3.89028 -0.18294,-6.0148 -0.18243,-6.37352z"/><path d="M219.10047,122.21295h18.80981v6.23434h-5.66073v20.63283h-7.714c0,-1.69461 0.01238,-2.95843 0.03711,-3.79132c0.12679,-4.22433 0.19019,-6.34885 0.19019,-6.37355v-10.46796h-5.66238z"/><path d="M249.04469,122.2533l8.25059,-0.11457c2.94795,-0.30068 5.91058,0.40917 8.40218,2.01318c1.37927,1.30479 2.10108,3.15916 1.96682,5.05308c0.05852,1.11245 -0.17721,2.22069 -0.68343,3.21303c-0.63941,0.95206 -1.48298,1.74965 -2.46934,2.33481c3.04694,0.80098 5.14055,3.5954 5.05318,6.74462c0.26448,2.78264 -1.28142,5.42228 -3.83772,6.55291c-2.60278,0.88239 -5.35046,1.25812 -8.0946,1.10694h-8.81502c0,-1.29266 0.03762,-3.244 0.11286,-5.85403c0.07733,-2.60683 0.11549,-4.56947 0.11448,-5.88797zM256.98767,132.81711c1.11103,0.09975 2.22291,-0.18164 3.15273,-0.79784c0.52456,-0.47183 0.80475,-1.15748 0.76076,-1.86165c0.01397,-0.70487 -0.285,-1.37975 -0.81643,-1.843c-0.53279,-0.48988 -1.23383,-0.75569 -1.95751,-0.7422h-1.976v5.24454zM258.31742,143.79838c0.91045,0.0539 1.81805,-0.14516 2.62238,-0.57519c0.79353,-0.49957 1.24621,-1.39656 1.17667,-2.33168c0.04934,-0.91064 -0.44207,-1.76494 -1.254,-2.18019c-0.81576,-0.39308 -1.71621,-0.57795 -2.62086,-0.53808h-2.09048v5.62498z"/><path d="M278.26669,122.21295h8.28311c1.06384,3.01201 2.12813,6.01065 3.19289,8.99593c1.16426,3.23779 2.2533,6.23542 3.26714,8.99283c1.11486,2.9842 2.22968,5.96945 3.34451,8.95575h-7.82841l-1.44419,-4.79022h-9.30981l-1.44416,4.79006h-7.82708c0.42984,-1.16587 1.53178,-4.14289 3.30581,-8.93101c2.10289,-5.67467 3.20492,-8.664 3.306,-8.968c0.63238,-1.72244 1.68378,-4.73756 3.15419,-9.04533zM285.18294,138.66787c-0.58444,-1.61427 -1.10396,-3.21619 -1.55857,-4.80567c-0.45619,-1.59264 -0.8613,-3.23367 -1.21534,-4.92319c-0.33909,2.06641 -0.83477,4.10403 -1.48282,6.09523c-0.55822,1.64204 -0.9633,2.85329 -1.21533,3.63362z"/><path d="M296.99923,122.21295h7.76669c1.11635,1.70702 2.43631,3.55214 3.95985,5.53533c1.39625,1.80909 2.79249,3.60373 4.18874,5.38397c1.72558,2.26676 3.04503,4.13769 3.95833,5.61279l-0.49324,-16.53209h7.79v26.86717h-7.90432c-0.9633,-1.49055 -2.03997,-3.04503 -3.23,-4.66339c-1.5447,-2.02245 -2.68476,-3.53878 -3.42022,-4.54901c-0.93702,-1.21533 -1.87403,-2.44204 -2.81105,-3.68001c-0.94595,-1.23833 -1.82143,-2.52887 -2.62238,-3.86555c0.16049,1.01941 0.26834,2.04646 0.32316,3.07699c0.06333,1.11638 0.09475,2.2946 0.0943,3.53466c0,1.34213 0.04433,3.19761 0.133,5.5664c0.08968,2.36879 0.13401,3.89544 0.133,4.57992h-7.86587c0,-1.83071 0.03816,-4.6036 0.11441,-8.31867c0.07578,-3.71403 0.11391,-6.50034 0.11441,-8.35889c0,-1.57716 -0.01545,-2.84918 -0.04636,-3.81609c-0.12217,-3.89028 -0.18297,-6.0148 -0.18246,-6.37352z"/><path d="M327.7026,141.59333v-14.43867c0,-0.736 -0.01238,-1.3421 -0.03711,-1.82454c-0.10203,-1.874 -0.15254,-2.89962 -0.15152,-3.07683h7.86565v10.75229l7.79,-10.86686h9.65153l-10.52527,13.20475l11.05705,13.73665h-9.956l-8.13159,-11.21l-0.03727,4.06644c0,0.81022 0.02524,2.17189 0.07578,4.085c0.04949,1.91115 0.07477,2.93062 0.07578,3.05843h-7.86565c0,-0.85969 0.03144,-2.15849 0.0943,-3.89649c0.0634,-1.73476 0.09484,-2.93151 0.09434,-3.59018z"/><path d="M363.30901,122.10161c2.57456,-0.17227 5.14485,0.39308 7.40949,1.62973c2.12775,1.54549 3.2831,4.09824 3.04,6.71679c0.03471,1.66244 -0.38551,3.30274 -1.21533,4.74367c-0.83312,1.38488 -2.1033,2.45328 -3.61044,3.03683l7.75121,10.85137h-9.00521l-6.30867,-9.31124l0.11441,9.31136h-7.258v-21.09047c0,-0.83499 -0.03249,-1.96371 -0.09434,-3.38007c-0.06333,-1.41943 -0.09529,-2.25543 -0.09586,-2.508zM362.2066,134.0694c0.96992,0.04725 1.93639,-0.14722 2.81257,-0.56592c0.85832,-0.47212 1.36268,-1.40122 1.29108,-2.37817c0.11273,-0.99598 -0.38105,-1.96286 -1.254,-2.4554c-0.94493,-0.35847 -1.95516,-0.51237 -2.964,-0.4515h-0.79784v5.85099z"/><path d="M377.3673,122.13873h7.67701v15.37876c-0.0791,1.40296 0.19522,2.80336 0.79784,4.07274c0.76858,1.14567 2.04963,1.84214 3.42903,1.86434c1.37943,0.0222 2.6822,-0.6327 3.48726,-1.75307c0.65962,-1.20026 0.9753,-2.55927 0.91225,-3.9274l-0.11441,-15.5983l7.67546,-0.03711l-0.15156,17.6053c0.23956,3.08288 -1.16074,6.06436 -3.68619,7.84865c-2.67165,1.54331 -5.73613,2.27202 -8.81648,2.09662c-2.87334,0.18265 -5.72438,-0.60829 -8.09292,-2.24517c-2.18769,-1.89861 -3.34444,-4.7228 -3.1172,-7.61051z"/><path d="M404.87927,122.21295h7.61362c5.48289,0 9.07427,0.7587 10.77408,2.27604c1.71807,1.76139 2.58061,4.18567 2.3611,6.63638c0.28133,2.78198 -0.88014,5.51456 -3.07854,7.24252c-2.41541,1.35913 -5.17693,1.97853 -7.9414,1.78125h-2.508l-0.07733,2.88835c0,0.65867 0.03813,1.65959 0.11441,3.00276c0.07578,1.3421 0.11394,2.35543 0.11444,3.04l-7.37241,-0.03711c0,-1.64515 0.02524,-4.3459 0.07578,-8.1022c0.05098,-3.75731 0.07625,-5.74987 0.07575,-5.97768zM413.12527,133.95495c1.10311,0.05488 2.20767,-0.07366 3.2687,-0.38038c1.09411,-0.35141 1.81247,-1.3978 1.74724,-2.54508c0.03037,-0.88204 -0.43038,-1.70832 -1.19668,-2.14614c-0.81684,-0.50002 -1.75908,-0.75743 -2.71671,-0.74217h-2.20492v5.81381z"/><path d="M424.18234,122.21295h18.80981v6.23434h-5.66064v20.63283h-7.714c0,-1.69461 0.01238,-2.95843 0.03711,-3.79132c0.12679,-4.22433 0.19019,-6.34885 0.19019,-6.37355v-10.46796h-5.66225z"/></g><g fill="#ffffff" stroke-width="1"><path d="M46.41372,120.37211c0.3015,0.70861 0.64537,1.39846 1.02977,2.06574c0.1268,0.22885 0.54587,0.89072 1.25717,1.9855c0.25511,0.46078 0.53963,0.94323 0.85816,1.4535c0.31699,0.51022 0.60252,0.94319 0.85661,1.29884c0.70806,-1.09484 1.42813,-2.20929 2.16008,-3.34324c0.73289,-1.13493 1.40243,-2.28842 2.00856,-3.46044h9.32207c-0.89921,0.94525 -1.70158,1.97809 -2.39508,3.08316c-0.70972,1.09164 -1.40603,2.18225 -2.08895,3.2718c-1.16587,1.70082 -2.04,2.96979 -2.62241,3.8068c-1.09009,1.57403 -1.95133,2.85535 -2.58372,3.84392v5.82008c0,0.7885 0.02473,1.96678 0.07575,3.54084c0.05101,1.57405 0.07578,2.75227 0.07578,3.53777l-7.86565,0.04006l0.11441,-4.1097v-8.90625l-9.61442,-13.92839z"/><path d="M78.53496,119.61445c3.89145,-0.15663 7.69627,1.17597 10.63959,3.72641c2.88401,2.63501 4.45578,6.41012 4.294,10.31329c0.13559,3.99998 -1.52254,7.8514 -4.5213,10.50197c-3.0147,2.62539 -6.91159,4.01201 -10.90707,3.88103c-3.83018,0.14111 -7.56023,-1.24108 -10.37362,-3.84392c-2.74728,-2.64781 -4.22735,-6.34657 -4.06502,-10.15867c-0.1508,-3.9184 1.38484,-7.71362 4.218,-10.42467c2.90082,-2.69978 6.75516,-4.13693 10.71543,-3.99544zM78.49633,141.72855c2.04032,0.10694 4.01172,-0.7536 5.32053,-2.32243c1.24827,-1.62171 1.8811,-3.63352 1.786,-5.67783c0.08844,-1.95383 -0.50213,-3.87806 -1.67149,-5.44582c-1.2338,-1.53257 -3.12658,-2.38212 -5.09172,-2.28528c-2.01169,-0.08097 -3.95729,0.72644 -5.32054,2.20799c-1.36299,1.52577 -2.08468,3.51864 -2.01473,5.56332c-0.08787,2.01264 0.53076,3.99266 1.74876,5.59731c1.27062,1.57906 3.21857,2.45686 5.24318,2.36274z"/><path d="M95.82331,120.29788h7.67698v15.37876c-0.07904,1.40299 0.19535,2.80336 0.798,4.07274c0.76858,1.14567 2.04962,1.84214 3.42902,1.86434c1.37943,0.0222 2.6822,-0.6327 3.48726,-1.75306c0.65962,-1.20026 0.97531,-2.55927 0.91226,-3.92739l-0.11457,-15.59831l7.67546,-0.03711l-0.15153,17.60531c0.23953,3.08288 -1.16077,6.06436 -3.68622,7.84865c-2.67166,1.54334 -5.73616,2.27208 -8.81657,2.09668c-2.87331,0.18266 -5.72439,-0.60828 -8.09293,-2.24516c-2.18766,-1.89861 -3.34441,-4.7228 -3.11717,-7.61052z"/><path d="M136.93894,120.29788c0.3046,0.94012 0.76076,2.33687 1.36841,4.19026c0.60769,1.85238 1.07619,3.23573 1.40553,4.15008c0.73444,2.109 1.20298,3.45524 1.40552,4.03874c0.48114,1.36008 0.88737,2.74553 1.21686,4.15007l5.09171,-16.52914h6.004l5.09172,16.30029l5.282,-16.30029h7.75276c-1.11486,3.30277 -2.12816,6.28799 -3.04,8.95575c-1.59572,4.59844 -2.6219,7.58264 -3.07853,8.95261c-1.21534,3.66146 -2.17813,6.67249 -2.88835,9.03305h-7.44813c-0.35406,-1.65446 -0.80969,-3.41098 -1.36686,-5.26953c-0.22883,-0.76383 -0.76741,-2.43168 -1.61579,-5.00358c-0.84889,-2.56982 -1.42513,-4.35107 -1.72868,-5.34375l-4.67426,15.61686h-7.44816c-0.86133,-2.92543 -1.82412,-5.90144 -2.88834,-8.92788c-1.06378,-3.02752 -2.11467,-6.03028 -3.15274,-9.00831c-1.26635,-3.63673 -2.26727,-6.63844 -3.00276,-9.00521z"/><path d="M172.73557,120.37211h15.88282v6.27149h-8.54908v3.87483h7.48537v6.27148h-7.48537v4.25521h8.89079v6.19416h-16.22454z"/><path d="M190.97484,120.37211h7.76666c1.11638,1.70703 2.43634,3.55214 3.95988,5.53534c1.39624,1.80908 2.7925,3.60373 4.18874,5.38396c1.72558,2.26676 3.04504,4.13769 3.95834,5.61279l-0.49327,-16.53209h7.79v26.86718h-7.90451c-0.9633,-1.49055 -2.03996,-3.04504 -3.23,-4.6634c-1.5447,-2.02246 -2.68476,-3.53878 -3.42025,-4.54901c-0.93696,-1.21534 -1.87397,-2.44204 -2.81102,-3.68001c-0.94592,-1.23833 -1.82143,-2.5289 -2.62241,-3.86555c0.16048,1.01942 0.26831,2.04645 0.32315,3.07698c0.06333,1.11638 0.09478,2.2946 0.09434,3.53467c0,1.34213 0.04434,3.1976 0.133,5.5664c0.08968,2.3688 0.13401,3.89545 0.133,4.57992h-7.86565c0,-1.83071 0.03815,-4.60361 0.11441,-8.31868c0.07578,-3.71402 0.11391,-6.50034 0.11442,-8.35889c0,-1.57716 -0.01549,-2.84918 -0.0464,-3.81609c-0.12214,-3.89028 -0.18293,-6.0148 -0.18243,-6.37352z"/><path d="M219.09446,120.37211h18.80981v6.23434h-5.66073v20.63283h-7.714c0,-1.69461 0.01238,-2.95843 0.03712,-3.79133c0.12679,-4.22433 0.19019,-6.34885 0.19019,-6.37355v-10.46795h-5.66238z"/><path d="M249.03868,120.41245l8.25059,-0.11457c2.94795,-0.30067 5.91059,0.40917 8.40218,2.01318c1.37928,1.30479 2.10108,3.15916 1.96681,5.05308c0.05852,1.11245 -0.17721,2.22069 -0.68343,3.21303c-0.63941,0.95206 -1.48298,1.74964 -2.46934,2.33481c3.04694,0.80097 5.14055,3.5954 5.05318,6.74462c0.26448,2.78265 -1.28143,5.42228 -3.83772,6.55291c-2.60278,0.88239 -5.35046,1.25812 -8.0946,1.10694h-8.81502c0,-1.29266 0.03762,-3.244 0.11286,-5.85403c0.07733,-2.60683 0.11549,-4.56947 0.11447,-5.88798zM256.98167,130.97626c1.11103,0.09975 2.2229,-0.18164 3.15273,-0.79784c0.52456,-0.47183 0.80475,-1.15748 0.76076,-1.86165c0.01396,-0.70487 -0.285,-1.37975 -0.81643,-1.843c-0.53279,-0.48988 -1.23383,-0.75569 -1.95751,-0.7422h-1.976v5.24454zM258.31141,141.95753c0.91045,0.0539 1.81804,-0.14515 2.62238,-0.57519c0.79354,-0.49957 1.24621,-1.39657 1.17667,-2.33168c0.04934,-0.91064 -0.44206,-1.76494 -1.254,-2.18019c-0.81576,-0.39308 -1.7162,-0.57795 -2.62086,-0.53808h-2.09047v5.62498z"/><path d="M278.26068,120.37211h8.28312c1.06384,3.01201 2.12812,6.01065 3.19288,8.99593c1.16426,3.23779 2.25331,6.23542 3.26715,8.99283c1.11486,2.98421 2.22969,5.96945 3.34451,8.95575h-7.82841l-1.44419,-4.79022h-9.30981l-1.44416,4.79006h-7.82709c0.42985,-1.16587 1.53178,-4.14289 3.30581,-8.93102c2.10289,-5.67467 3.20492,-8.664 3.306,-8.968c0.63238,-1.72244 1.68378,-4.73755 3.15419,-9.04533zM285.17694,136.82703c-0.58444,-1.61427 -1.10397,-3.21619 -1.55857,-4.80567c-0.45619,-1.59265 -0.8613,-3.23367 -1.21533,-4.92318c-0.33909,2.06641 -0.83477,4.10403 -1.48283,6.09523c-0.55822,1.64204 -0.9633,2.8533 -1.21533,3.63362z"/><path d="M296.99323,120.37211h7.7667c1.11635,1.70703 2.4363,3.55214 3.95985,5.53534c1.39625,1.80908 2.79249,3.60373 4.18874,5.38396c1.72558,2.26676 3.04504,4.13769 3.95834,5.61279l-0.49324,-16.53209h7.79v26.86718h-7.90431c-0.9633,-1.49055 -2.03997,-3.04504 -3.23,-4.6634c-1.5447,-2.02246 -2.68477,-3.53878 -3.42023,-4.54901c-0.93701,-1.21534 -1.87403,-2.44204 -2.81105,-3.68001c-0.94595,-1.23833 -1.82144,-2.52887 -2.62238,-3.86555c0.16048,1.01942 0.26834,2.04645 0.32316,3.07698c0.06334,1.11638 0.09475,2.2946 0.09431,3.53467c0,1.34213 0.04433,3.1976 0.133,5.5664c0.08968,2.3688 0.13402,3.89545 0.133,4.57992h-7.86587c0,-1.83071 0.03815,-4.60361 0.11441,-8.31868c0.07578,-3.71402 0.11391,-6.50034 0.11442,-8.35889c0,-1.57716 -0.01546,-2.84918 -0.04636,-3.81609c-0.12217,-3.89028 -0.18297,-6.0148 -0.18246,-6.37352z"/><path d="M327.69659,139.75249v-14.43867c0,-0.736 -0.01238,-1.3421 -0.03711,-1.82453c-0.10203,-1.874 -0.15254,-2.89963 -0.15152,-3.07683h7.86565v10.75229l7.79,-10.86686h9.65152l-10.52527,13.20475l11.05705,13.73666h-9.956l-8.13159,-11.21l-0.03727,4.06644c0,0.81023 0.02523,2.17189 0.07577,4.085c0.04949,1.91115 0.07477,2.93062 0.07578,3.05843h-7.86565c0,-0.85969 0.03144,-2.15849 0.0943,-3.89648c0.0634,-1.73477 0.09484,-2.93151 0.09434,-3.59018z"/><path d="M363.30301,120.26077c2.57457,-0.17226 5.14485,0.39308 7.40949,1.62973c2.12775,1.54549 3.28311,4.09823 3.04,6.71678c0.0347,1.66243 -0.38551,3.30274 -1.21534,4.74367c-0.83312,1.38488 -2.1033,2.45328 -3.61044,3.03683l7.75121,10.85137h-9.00521l-6.30867,-9.31124l0.11441,9.31137h-7.258v-21.09048c0,-0.83498 -0.03249,-1.96371 -0.09434,-3.38007c-0.06333,-1.41942 -0.09528,-2.25543 -0.09585,-2.508zM362.20059,132.22855c0.96992,0.04725 1.93638,-0.14722 2.81257,-0.56591c0.85833,-0.47212 1.36269,-1.40122 1.29109,-2.37816c0.11273,-0.99598 -0.38105,-1.96286 -1.25401,-2.45541c-0.94493,-0.35846 -1.95516,-0.51236 -2.96399,-0.4515h-0.79785v5.85098z"/><path d="M377.3613,120.29788h7.67701v15.37876c-0.07911,1.40296 0.19523,2.80336 0.79784,4.07274c0.76858,1.14567 2.04963,1.84214 3.42903,1.86434c1.37943,0.0222 2.6822,-0.6327 3.48726,-1.75306c0.65962,-1.20026 0.9753,-2.55927 0.91225,-3.92739l-0.11441,-15.59831l7.67546,-0.03711l-0.15155,17.60531c0.23956,3.08288 -1.16074,6.06436 -3.68619,7.84865c-2.67165,1.54331 -5.73613,2.27202 -8.81648,2.09662c-2.87334,0.18266 -5.72438,-0.60829 -8.09292,-2.24517c-2.18769,-1.89861 -3.34444,-4.7228 -3.1172,-7.61051z"/><path d="M404.87326,120.37211h7.61362c5.48289,0 9.07427,0.7587 10.77408,2.27604c1.71807,1.76139 2.58061,4.18567 2.3611,6.63638c0.28132,2.78198 -0.88014,5.51456 -3.07854,7.24251c-2.41541,1.35914 -5.17693,1.97853 -7.9414,1.78125h-2.508l-0.07733,2.88835c0,0.65867 0.03813,1.65958 0.11442,3.00276c0.07578,1.3421 0.11393,2.35543 0.11444,3.04l-7.37241,-0.03712c0,-1.64515 0.02524,-4.3459 0.07578,-8.1022c0.05098,-3.75732 0.07625,-5.74988 0.07574,-5.97769zM413.11925,132.11411c1.10311,0.05488 2.20767,-0.07366 3.2687,-0.38038c1.09411,-0.3514 1.81247,-1.39779 1.74724,-2.54508c0.03037,-0.88205 -0.43039,-1.70832 -1.19669,-2.14615c-0.81684,-0.50001 -1.75909,-0.75743 -2.71672,-0.74217h-2.20492v5.81381z"/><path d="M424.17635,120.37211h18.80981v6.23434h-5.66064v20.63283h-7.714c0,-1.69461 0.01238,-2.95843 0.03711,-3.79133c0.1268,-4.22433 0.1902,-6.34885 0.1902,-6.37355v-10.46795h-5.66226z"/></g></g></g></svg>