<svg version="1.1" xmlns="http://www.w3.org/2000/svg" xmlns:xlink="http://www.w3.org/1999/xlink" width="56.17696" height="71.14259" viewBox="0,0,56.17696,71.14259"><g transform="translate(-210.57952,-133.08687)"><g data-paper-data="{&quot;isPaintingLayer&quot;:true}" fill-rule="nonzero" stroke="none" stroke-width="1" stroke-linecap="butt" stroke-linejoin="miter" stroke-miterlimit="10" stroke-dasharray="" stroke-dashoffset="0" style="mix-blend-mode: normal"><g><path d="M216.05672,152.36504c2.77914,-3.18326 5.55843,-6.36638 8.33787,-9.54938c1.22364,-1.40034 2.4511,-2.79734 3.68237,-4.19099c0.14617,-0.16496 0.23647,-0.41321 0.51014,-0.43563c0.89296,0.6363 1.73347,1.33995 2.57766,2.03706c3.29279,2.7191 6.56437,5.46341 9.88896,8.14456c1.54519,1.24613 3.07279,2.51627 4.60683,3.77767c0.05921,0.22311 -0.09132,0.35893 -0.21997,0.49378c-2.10245,2.20396 -4.03036,4.56243 -6.04892,6.84056c-1.9622,2.2145 -3.92121,4.43279 -5.84503,6.68131c-0.09042,0.11802 -0.2043,0.21604 -0.33447,0.28787c-0.05843,0.01946 -0.1204,0.02596 -0.18159,0.01905c-1.00267,-0.56465 -1.79844,-1.39544 -2.68688,-2.10631c-3.02084,-2.41712 -5.987,-4.90148 -8.9774,-7.35598c-1.64965,-1.35403 -3.32465,-2.67873 -4.92823,-4.08884c-0.17706,-0.15572 -0.36539,-0.29311 -0.38135,-0.55472z" fill="#743000"/><path d="M245.63315,152.17754c-0.62748,-0.11862 -0.97129,-0.65208 -1.42368,-1.01102c-1.79554,-1.42462 -3.56029,-2.88818 -5.32923,-4.34605c-1.62344,-1.33795 -3.21974,-2.70941 -4.86117,-4.02474c-1.4771,-1.18364 -2.85711,-2.48562 -4.39858,-3.5898c-0.39197,-0.28702 -0.74006,-0.62958 -1.03331,-1.01691c2.9443,-1.22936 5.88875,-2.45852 8.83334,-3.68749c1.13059,-0.47122 2.26411,-0.93543 3.42496,-1.41466c2.14561,1.76446 4.28665,3.52532 6.42311,5.28257c3.52703,2.90461 7.0533,5.81014 10.57882,8.71658c0.00641,0.34956 -0.30056,0.3645 -0.5128,0.4565c-2.35269,1.01981 -4.74769,1.93801 -7.10482,2.94713c-1.24707,0.53388 -2.51572,1.01474 -3.76298,1.54827c-0.25585,0.10945 -0.51773,0.32856 -0.83366,0.13964z" fill="#542200"/><path d="M216.05671,152.36504c1.03775,1.02707 2.22158,1.88249 3.33631,2.8185c2.31406,1.94306 4.6596,3.84871 6.99525,5.76602c2.22091,1.82313 4.44383,3.64379 6.66878,5.46199c0.22849,0.27271 0.16608,0.60232 0.1665,0.91361c0.00467,3.46896 0.00547,6.93794 0.0024,10.40692c-0.00045,1.39482 0.0915,2.79006 -0.01568,4.18276c-0.04248,0.14105 -0.08313,0.28692 -0.27261,0.31848c-0.22926,0.01053 -0.37429,-0.15467 -0.53663,-0.28746c-3.98306,-3.25821 -7.95759,-6.52679 -11.92359,-9.80572c-1.36865,-1.13571 -2.78416,-2.21448 -4.11858,-3.39144c-0.15629,-0.13786 -0.36141,-0.23607 -0.36554,-0.48683c0.0013,-5.07179 0.00383,-10.14358 0.00759,-15.21536c0.00027,-0.22639 -0.0675,-0.46334 0.0558,-0.68148z" fill="#ce8900"/><path d="M258.09573,154.4702l8.51958,6.99745c0.16286,0.33984 -0.14633,0.44249 -0.32028,0.57798c-2.70785,2.10924 -5.41588,4.21825 -8.12411,6.32702c-0.56243,0.43581 -1.17036,0.82485 -1.71234,1.4032c0.78887,0.85079 1.61806,1.61739 2.10571,2.6443c0.56341,1.17557 0.8649,2.39909 0.68825,3.71117c-0.16824,1.31245 -0.71069,2.47163 -1.48171,3.52845c-0.34776,0.47666 -0.70947,0.95479 -1.30553,1.16221c-0.73467,0.25539 -1.50999,0.18354 -2.26083,0.2297c-2.21064,0.13589 -4.418,0.3221 -6.63014,0.43587c-1.39024,0.0715 -2.77287,0.27092 -4.16731,0.25828c-0.64725,0.20426 -0.94987,-0.39468 -1.41742,-0.60793c-0.11491,-0.05372 -0.21123,-0.00432 -0.30476,0.05947c-0.39774,0.26761 -0.72512,0.65052 -1.22766,0.74448c-0.77566,0.0034 -1.53842,0.18424 -2.31655,0.16586c-0.27655,-0.02635 -0.54469,0.10383 -0.69505,0.33742c0.52729,0.11176 0.97203,0.04983 1.4227,-0.01719c0.27356,-0.04069 0.56875,-0.21564 0.8285,0.05138c-0.09677,0.60569 -0.64283,0.72373 -1.06223,0.98034c-0.68468,0.20983 -1.36282,0.24272 -2.02172,-0.09174c-0.24764,-0.1257 -0.46305,-0.28985 -0.56758,-0.56183c-0.04815,-0.19929 0.06076,-0.32633 0.2151,-0.41471c1.04713,-0.59969 1.86876,-1.43963 2.5791,-2.40024c0.03572,-0.04733 0.08249,-0.0852 0.13623,-0.11029c0.18247,-0.11965 0.39146,-0.01304 0.68812,-0.1731c0.34546,-0.66975 0.69109,-1.49792 1.49463,-1.98009c0.70811,-0.42491 1.18067,-1.32405 2.26369,-1.04096c-0.42248,-0.51316 -0.97404,-0.83167 -1.26348,-1.38631c0.4424,-0.69797 1.08518,-1.15205 1.82079,-1.4936c0.69298,0.2836 1.25187,0.04601 1.79826,-0.401c0.31361,-0.25658 0.66377,-0.51454 1.11525,-0.54799c0.01244,0.85816 -1.46994,2.056 -2.97148,2.42544c0.16335,0.46244 0.49748,0.57484 0.88311,0.37856c1.10805,-0.56401 2.07043,-1.3179 2.77937,-2.35553c0.21562,-0.31557 0.41697,-0.66558 0.2146,-1.06488c-0.21116,-0.41661 -0.5988,-0.3128 -0.95539,-0.28309c-0.06404,0.00166 -0.12704,-0.01641 -0.18046,-0.05176c-0.03051,-0.4793 0.42208,-0.532 0.67284,-0.76354c0.27076,-0.08541 0.41811,-0.31562 0.59608,-0.51084c0.14259,-0.09831 0.28617,-0.14804 0.43323,-0.00895c0.19219,0.35317 0.0865,0.74243 0.13279,1.11355c0.0331,0.2654 0.01388,0.55146 0.38037,0.75831c0.34938,-0.88932 -0.02575,-1.81355 0.24571,-2.66079c0.13284,-0.16086 0.24427,-0.37365 0.51065,-0.21366c0.26923,0.54834 0.07875,1.21541 0.44358,1.79058c0.23512,-0.16591 0.20307,-0.38505 0.20756,-0.5826c0.01059,-0.46586 -0.01017,-0.93236 0.00963,-1.3979c0.03115,-0.73227 0.22747,-0.91054 0.94187,-0.83046c0.71664,0.08032 1.44208,-0.00944 2.15534,0.12645c0.12517,0.02385 0.25351,-0.0055 0.44438,-0.13581c0.3105,-0.83241 0.17112,-1.80275 0.34975,-2.72343c0.02851,-0.06019 0.07976,-0.10658 0.14248,-0.12895c0.24854,0.05161 0.21362,0.27421 0.25348,0.44167c0.07069,0.30626 0.27422,0.56506 0.55518,0.70595c0.36957,0.18627 0.81099,0.158 1.15378,-0.0739c1.22245,-0.76127 2.26627,-1.68779 2.89343,-3.0308c0.4544,-0.97304 0.20169,-1.72141 -0.9123,-1.92661c-0.17022,-0.03136 -0.33341,-0.075 -0.40829,-0.25944c-0.15512,-0.49871 -0.01285,-1.01375 -0.09076,-1.5163c-0.10216,-0.91402 0.10261,-1.82682 0.0066,-2.74119c-0.00532,-0.73549 -0.01876,-1.47109 0.00797,-2.20555c0.009,-0.24726 -0.0709,-0.57151 0.30774,-0.66216z" fill="#200d00"/><path d="M231.00936,204.18802c-1.83716,-1.49303 -3.68032,-2.97875 -5.51032,-4.4805c-4.956,-4.06699 -9.90642,-8.14079 -14.91442,-12.25741c0,-1.7604 -0.00123,-3.55429 0.00027,-5.34818c0.00255,-3.04437 0.00732,-6.08873 0.01432,-9.13308c0.00041,-0.14098 -0.06795,-0.29708 0.04773,-0.42779c0.33139,-0.13291 0.50545,0.14681 0.6973,0.30142c2.48863,2.00538 4.92789,4.07095 7.40956,6.08504c1.98912,1.61433 3.96956,3.23927 5.94133,4.87482c2.00718,1.65917 4.02402,3.3065 6.03271,4.9638c0.21685,0.1789 0.40178,0.37777 0.4496,0.67187c0.0417,0.35822 0.05531,0.71915 0.04069,1.07949c0.00118,4.19181 0.00034,8.38362 -0.00252,12.57542c-0.00048,0.37378 0.07266,0.77002 -0.20625,1.09512z" fill="#ce8a00"/><path d="M231.03591,189.20845c-2.923,-2.39548 -5.84604,-4.79093 -8.76912,-7.18633c-2.49774,-2.04627 -4.99529,-4.09279 -7.49262,-6.13956c-1.36614,-1.126 -2.68458,-2.31042 -4.12724,-3.34169c0.06736,-0.32931 0.37686,-0.4281 0.597,-0.60018c1.57754,-1.23314 3.16483,-2.4538 4.74921,-3.67862c5.5792,4.58735 11.15884,9.17413 16.73893,13.76035c0.10271,0.07139 0.21127,0.13399 0.32451,0.18712c0.093,-0.07186 0.20971,-0.10596 0.32677,-0.09548c0.44672,0.08083 0.86539,-0.118 1.30289,-0.13238c0.198,0.00608 0.33766,0.12448 0.47641,0.24487c0.22137,0.31647 0.64574,0.23147 0.91203,0.45886c0.6703,0.92349 1.60713,0.80742 2.55353,0.65406c-0.00737,0.32606 -0.28641,0.45045 -0.48909,0.60609c-2.12088,1.62865 -4.20721,3.30179 -6.33956,4.91536c-0.22023,0.16666 -0.40991,0.45269 -0.76364,0.34753z" fill="#712b00"/><path d="M258.09573,154.4702c-0.23272,0.71148 -0.04755,1.44285 -0.10151,2.16303c-0.01869,0.24953 -0.01421,0.50078 -0.02033,0.75125c-0.26412,0.39115 -0.0666,0.91869 -0.2974,1.2203c-0.30239,0.25607 -0.5811,0.09712 -0.81006,0.20141c-0.18332,0.15034 -0.10703,0.40538 -0.3152,0.65343c-0.15588,0.14315 -0.46956,0.22335 -0.68206,0.3622c-0.24589,0.10468 -0.4167,-0.07705 -0.65502,-0.00797c-0.30992,0.21236 -0.49113,0.803 -1.09286,0.5272c-0.25063,-0.11488 -0.41609,-0.27693 -0.42267,-0.56671c0.43709,-0.72905 0.71269,-1.53089 1.04061,-2.30921c0.15031,-0.12686 0.35075,-0.12831 0.57484,-0.19308c-0.20862,-0.37315 0.08082,-0.65584 0.13803,-1.06474c-0.59443,-0.41496 -0.51749,-1.32985 -1.16485,-1.67295c-0.0634,-0.12006 -0.08936,-0.25636 -0.07453,-0.39131c0.05842,-0.89925 -0.44838,-1.36942 -1.2694,-1.03324c-0.86732,0.35514 -1.7531,0.76221 -2.33957,1.55513c-0.32553,0.44011 -0.70578,0.79824 -1.2155,0.97534c-0.52653,0.18295 -0.8615,0.51477 -1.00726,1.07696c-0.30316,0.02115 -0.56442,0.10153 -0.72361,0.3988c-0.11171,0.2086 -0.34248,0.31205 -0.56465,0.38976c-0.78561,0.27056 -1.47392,0.76689 -1.97874,1.42684c-0.36696,0.47092 -1.08656,0.65564 -1.02463,1.465c-0.87454,-0.06182 -1.38733,0.4152 -1.86495,0.9285c-0.33534,0.3604 -0.8037,0.19096 -1.17785,0.3478c-0.34324,0.84508 -1.05831,1.39034 -1.70393,1.91636c-0.82113,0.66904 -1.32463,1.51333 -1.8383,2.38134c-0.14999,0.27996 -0.33258,0.54118 -0.54395,0.77824c-0.23372,0.22608 -0.35165,0.54637 -0.32035,0.87004c0.09757,0.74199 -0.15715,1.47152 -0.02508,2.21107c0.08959,0.50165 -0.20308,0.83776 -0.58387,1.07385c-0.00869,0.54189 0.71564,0.82633 0.32172,1.37807c0.57649,0.27593 1.2306,0.1054 1.69869,0.50644c0.031,0.52529 -0.3812,0.41059 -0.65857,0.48044c0.63323,0.7641 0.53675,1.12356 -0.32895,1.32049c-0.22411,-0.07981 -0.13478,-0.34502 -0.27685,-0.46813c-0.23665,-0.04202 -0.35372,0.20291 -0.52096,1.12382c-0.51404,0.20254 -0.6707,0.80963 -1.12986,1.20536c0.25577,0.70488 -0.51664,0.96134 -0.699,1.50256c-0.33673,0.35052 -0.6859,0.67643 -1.17887,0.7057c-0.18619,-0.13061 -0.14527,-0.28968 -0.14535,-0.43059c-0.00227,-3.84221 -0.00284,-7.68442 -0.00172,-11.52662c-0.01157,-0.1052 0.00709,-0.21151 0.05379,-0.30648c2.47916,-2.83404 4.95858,-5.66788 7.43823,-8.5015c1.67309,-1.90878 3.34972,-3.81442 5.02989,-5.71691c1.9749,-0.80645 3.9498,-1.61316 5.92471,-2.42011c1.99518,-0.81813 3.98885,-1.63993 5.98101,-2.46538c0.10941,-0.05822 0.21274,-0.12722 0.30843,-0.20597c0.24293,0.17248 0.12085,0.42752 0.12199,0.6386c0.01042,1.96153 0.00194,3.92316 0.00497,5.88475c0.00045,0.29042 -0.05652,0.59351 0.12135,0.86085z" fill="#76837f"/><path d="M258.37799,172.3606c-0.54766,-0.99336 -1.30359,-1.81575 -2.20965,-2.61021c1.16985,-0.9144 2.29768,-1.79982 3.42962,-2.67993c2.18773,-1.70096 4.37562,-3.40168 6.56367,-5.10216c0.17514,-0.13673 0.41674,-0.23144 0.45366,-0.50065c0.18379,0.07812 0.13543,0.2425 0.13548,0.38248c0.00161,4.88455 0.00135,9.76911 0.00135,14.72702c-1.12297,0.87612 -2.26954,1.77269 -3.41829,2.66647c-1.86987,1.45486 -3.74069,2.90851 -5.61244,4.36095c-0.1841,0.14289 -0.37433,0.27724 -0.48542,0.4911c-0.32894,-0.35856 -0.15457,-0.80069 -0.19832,-1.20597c-0.09919,-0.91877 0.10602,-1.72554 0.72184,-2.46177c0.50119,-0.59919 0.78217,-1.34278 0.96948,-2.11038c0.06443,-0.26404 0.11141,-0.53897 0.28288,-0.765c0.66319,-0.65549 1.4335,-1.18055 2.1749,-1.73884c0.39044,-0.29401 0.5758,-0.62671 0.56832,-1.12175c-0.02045,-1.35189 -0.00158,-2.70438 -0.01456,-4.05646c-0.00156,-0.16142 0.1573,-0.45293 -0.21834,-0.4539c-0.87471,0.54151 -1.60475,1.2692 -2.44255,1.85386c-0.2096,0.14626 -0.3798,0.40916 -0.70164,0.32515z" fill="#77837e"/><path d="M231.03591,189.20845c1.70172,-1.17075 3.27441,-2.51029 4.91667,-3.75888c0.90422,-0.68746 1.78483,-1.40592 2.67586,-2.11025c0.34774,-0.2675 0.69563,-0.53511 1.04368,-0.80283c0.15644,-0.3376 0.35532,-0.61542 0.79016,-0.56096c0.20931,0.10716 0.27262,0.32275 0.17163,0.48239c-0.2763,0.43674 -0.27063,0.9854 -0.56316,1.3968c-0.26571,0.37366 -0.3865,0.74292 -0.24736,1.13824c-0.04029,0.24126 -0.24259,0.34829 -0.27253,0.61045c0.08735,0.33244 0.06985,0.68375 -0.05011,1.00586c0.00523,0.27744 0.20368,0.42442 0.23085,0.63868c0.03154,0.21263 -0.06471,0.41813 -0.03642,0.63046c0.03127,0.21869 0.22871,0.35642 0.27346,0.56907c0.07012,0.23158 -0.18635,0.36725 -0.18832,0.54742c0.11536,0.31527 0.37788,0.504 0.45821,0.83413c-0.27363,0.56845 -0.64517,0.17196 -0.99999,0.10295c-0.28212,-0.74841 0.02582,-1.52934 -0.2008,-2.25316c-0.1935,0.03257 -0.29733,0.19384 -0.44091,0.29709c-0.80817,0.61581 -1.57782,1.27945 -2.40084,1.87245c-0.39975,0.28803 -0.56844,0.6367 -0.56383,1.12632c0.01274,1.35225 0.01285,2.7044 0.00031,4.05645c0.01729,0.16383 -0.05445,0.33663 0.08614,0.55816c1.12575,-0.81763 2.20541,-1.68332 3.28688,-2.54508c0.24277,-0.63647 0.05025,-1.29657 0.10992,-1.94212c0.02845,-0.30776 -0.0683,-0.63916 0.19048,-0.92924c0.47801,0.14229 0.54161,0.58609 0.72971,0.97379c-0.28911,0.39123 -0.09104,0.8858 -0.30941,1.30705c0.21812,0.45175 0.23174,0.88078 -0.03253,1.32816c-0.23135,0.39168 -0.09744,0.8226 0.00315,1.26277c0.19845,0.23742 0.60645,0.27969 0.72529,0.65088c-0.03337,0.25831 -0.39959,0.23064 -0.44918,0.56581c0.00511,0.29575 0.51504,0.29702 0.53975,0.65366c-1.49199,1.31408 -3.11828,2.45861 -4.67285,3.69375c-1.42557,1.13265 -2.86987,2.24192 -4.31498,3.34966c-0.14329,0.10984 -0.24858,0.37223 -0.51545,0.22964c0.00686,-4.61236 0.01378,-9.22471 0.02077,-13.83706c0.00059,-0.38082 0.00379,-0.76167 0.00578,-1.1425z" fill="#77837f"/><path d="M241.94602,180.919c0.47844,0.15669 0.71125,0.73085 1.27199,0.74763c0.04235,0.04392 0.07386,0.09713 0.092,0.15539c0.19198,0.5379 0.53274,0.99611 0.80582,1.49005c0.2334,0.42216 0.68277,0.50793 1.09407,0.6709c0.44633,0.17686 1.04117,0.04737 1.31753,0.60014c0.12332,0.49985 -0.00399,1.02466 0.15997,1.52033c0.09963,1.56088 0.03339,3.12254 0.03995,4.68362c-0.00398,0.21252 -0.06944,0.41933 -0.18846,0.59544c-0.20352,0.37982 -0.09335,0.78927 -0.09933,1.18418c-0.01604,1.05746 -0.0044,2.1153 -0.00823,3.17298c-0.00364,0.9981 -0.3531,1.46289 -1.17721,1.57793c-0.98897,0.13804 -1.80446,-0.35756 -2.0567,-1.24993c-0.10674,-0.37767 0.0474,-0.77892 -0.10465,-1.15235c-0.34301,-1.16231 -0.15118,-2.34953 -0.16297,-3.52722c-0.0262,-2.62031 -0.02622,-5.24077 -0.03831,-7.86117c0.01334,-0.23731 -0.11945,-0.45874 -0.33506,-0.55876c-0.8363,-0.62713 -0.99483,-1.16046 -0.61042,-2.04917z" fill="#604a00"/><path d="M259.12269,177.5831c-0.30203,1.37123 -0.82804,2.63681 -1.75622,3.71179c-0.13595,0.15742 -0.13705,0.34428 -0.13633,0.53488c0.00279,0.75537 0.00475,1.51069 0.00585,2.26599c0.00308,1.0779 0.00603,2.15587 0.00887,3.23391c0.00134,0.98743 -0.3455,1.45722 -1.16687,1.58734c-0.96165,0.15233 -1.80349,-0.35197 -2.06442,-1.23669c-0.10425,-1.15616 -0.43531,-2.28484 -0.29014,-3.41883c-0.3985,-0.13361 -0.61627,0.0301 -0.85147,0.10842c-0.75898,0.23819 -1.54891,0.35081 -2.26112,0.50779c-0.23144,0.30856 -0.19558,0.58916 -0.19773,0.85829c-0.0078,0.96715 0.01511,1.93478 -0.0146,2.9013c-0.00764,0.24877 0.0998,0.611 -0.33889,0.6624c-0.03065,-0.03525 -0.06131,-0.07051 -0.09197,-0.10577c-0.1516,-1.04484 -0.03222,-2.0958 -0.07131,-3.14315c-0.01083,-0.29012 0.0423,-0.58895 -0.12016,-0.89448c-0.50677,-0.26145 -1.1108,0.01329 -1.63818,-0.21397c-0.06213,-0.02846 -0.10674,-0.08511 -0.11984,-0.15219c0.1491,-0.34236 0.53816,-0.14736 0.78849,-0.36636c0.13601,-0.16844 0.10032,-0.39039 0.04048,-0.61368c-0.06573,-0.23268 -0.43048,-0.20446 -0.42746,-0.49496c0.18756,-0.1818 0.42892,-0.17245 0.65771,-0.16373c2.52569,0.09615 4.79193,-0.64266 6.84235,-2.09691c0.20749,-0.14584 0.42629,-0.27487 0.65434,-0.38585c1.32061,-1.15132 2.193,-2.55583 2.44456,-4.31316c0.01973,-0.05892 0.0492,-0.11411 0.08719,-0.16328c0.21037,0.16567 0.17505,0.40812 0.19919,0.63232c0.02932,0.26637 -0.03514,0.53463 -0.18231,0.7586z" fill="#604900"/><path d="M240.51267,196.91496c-0.26337,-0.26748 -0.80417,-0.24579 -0.80942,-0.78826c0.10528,-0.25776 0.31356,-0.37222 0.71152,-0.34048c-0.33596,-0.26806 -0.50068,-0.585 -0.93577,-0.45637c-0.04079,-0.37655 0.14348,-0.75884 -0.17353,-0.98528c0.14295,-0.62912 0.66795,-1.0797 0.28801,-1.81007c-0.16258,-0.31253 0.01129,-0.93474 0.31645,-1.37265c-0.16239,-0.28802 -0.33059,-0.58636 -0.49877,-0.88468c-0.04329,0.00606 -0.08658,0.01212 -0.12986,0.01819c0,0.76511 0.008,1.53036 -0.00511,2.29525c-0.00369,0.21526 0.10832,0.47511 -0.1573,0.63105c-0.11825,-0.15136 -0.17561,-0.34149 -0.16078,-0.533c0.01662,-1.76597 -0.08967,-3.53355 0.06668,-5.29774c0.34657,-0.14837 0.24969,0.13892 0.25181,0.27786c0.01064,0.69825 0.00487,1.39676 0.00487,2.16252c0.30112,-0.13003 0.50175,0.36717 0.85962,0.04384c-0.2125,-0.30983 -0.41684,-0.60776 -0.64104,-0.93465c0.02043,-0.18212 0.31879,-0.15058 0.37411,-0.38793c0.01045,-0.24234 -0.27542,-0.32226 -0.39468,-0.5739c0.04036,-0.22144 0.0888,-0.48727 0.14307,-0.78503c-0.42624,-0.28672 -0.45947,-0.65032 -0.11438,-1.04079c-0.07658,-0.25933 -0.1478,-0.50043 -0.21076,-0.71364c0.02924,-0.27361 0.36046,-0.1638 0.41215,-0.41572c0.005,-0.20231 -0.22526,-0.38062 -0.13663,-0.73678c0.61613,-0.36188 0.42489,-1.25066 0.92581,-1.80026c0.11285,-0.12383 0.08155,-0.32467 -0.09076,-0.44497c-0.04675,-0.14433 0.06283,-0.18153 0.15717,-0.22918c0.37541,-0.26169 0.75083,-0.52338 1.12623,-0.78506c0.273,-0.04113 0.19191,0.17369 0.18814,0.2909c-0.04629,1.43585 0.08396,2.86927 0.09172,4.30503c0.00669,1.23769 -0.12756,2.47872 -0.01295,3.71547c0.04423,0.33651 0.00415,0.67873 -0.11665,0.99591c0.38063,0.68303 0.26399,1.43974 0.1843,2.12317c-0.12422,1.06523 0.05758,2.05794 0.29787,3.06523c-0.542,0.54424 -1.19272,0.94717 -1.8112,1.39202z" fill="#707872"/><path d="M248.06813,184.83034h2.03668c-0.07908,1.50547 0.16649,2.93702 -0.13735,4.36341c-0.10983,-0.0541 -0.21986,-0.10836 -0.3175,-0.15653c-1.05323,0.79397 -2.08212,1.5696 -3.11104,2.34524c-0.00716,-1.79772 -0.01429,-3.59546 -0.02141,-5.39324c0.42185,-0.51331 0.86561,-0.99734 1.55061,-1.15888z" fill="#004905"/><path d="M242.32386,195.52293c-0.53929,-0.39242 -0.45359,-1.05947 -0.50768,-1.56034c-0.10617,-0.98311 0.04997,-1.99452 0.10115,-3.06946c-0.08697,-0.1552 -0.20945,-0.37375 -0.32037,-0.57169c-0.05079,-0.24648 0.20866,-0.26046 0.27557,-0.4441c-0.43183,-1.33302 0.30868,-2.73964 -0.18477,-4.11068c0.29277,-0.89243 0.07059,-1.80416 0.06912,-2.71244c-0.00076,-0.47778 0.04918,-0.95547 0.05879,-1.43355c0.00407,-0.20217 0.06952,-0.42819 -0.12424,-0.59343c0.04722,-0.09323 0.15467,-0.13896 0.2546,-0.10835v1.28182c0.2299,0.22369 0.43391,0.42218 0.63791,0.62068c0.23334,0.08853 0.13485,0.29582 0.12823,0.43915c-0.06031,1.30666 0.12456,2.607 0.00991,3.92455c-0.05898,0.67766 0.16509,1.4127 0.08695,2.127c-0.14989,1.37007 0.01967,2.73004 0.09349,4.09331c0.02765,0.51083 -0.18789,1.07075 0.29313,1.49311c0.05549,0.3877 0.05609,0.78128 0.00179,1.16914c-0.18477,-0.30559 0.00508,-0.66231 -0.13518,-0.98973c-0.30927,0.04749 -0.46152,0.35359 -0.73839,0.445z" fill="#646358"/><path d="M250.05962,189.2997c0.2358,-0.17389 0.13548,-0.42762 0.13711,-0.64581c0.0096,-1.28611 0.00472,-2.57233 0.00472,-3.89957l2.68662,-0.54695c0.3249,0.3841 0.15703,0.87446 0.20517,1.29601c0.05202,0.47521 0.16226,0.94223 0.32824,1.39055c-1.01761,0.80693 -2.03536,1.61369 -3.05324,2.42028c-0.10403,0.08234 -0.21325,0.1477 -0.30861,-0.01451z" fill="#707871"/><path d="M253.42148,186.89393c-0.43515,-0.09334 -0.2195,-0.59942 -0.50465,-0.74168c0.03734,-0.27437 0.06818,-0.50092 0.10209,-0.75007c-0.08208,-0.14981 -0.17093,-0.31199 -0.2448,-0.44681c0.00748,-0.27924 0.2872,-0.47823 0.11396,-0.74797c0.2657,-0.23063 0.60884,-0.22823 0.88768,-0.34623c0.18785,0.17025 0.14414,0.35142 0.12998,0.50595c-0.10164,1.10959 0.18391,2.20548 0.10784,3.31315c-0.17018,-0.31195 -0.02354,-0.65989 -0.11401,-0.98849c-0.21424,-0.0671 -0.32756,0.11338 -0.4781,0.20215z" fill="#5c564a"/><path d="M233.16517,166.39589v12.2992c0.49132,-0.42178 0.96845,-0.57451 1.28054,-0.97076c0.16472,-0.28877 0.3116,-0.63125 0.70489,-0.23448c0.1051,0.49247 -0.11934,0.9569 -0.12738,1.44349c-0.00533,0.32237 -0.0152,0.63234 0.11329,0.93315c-0.04132,0.51377 -0.32493,0.94323 -0.49248,1.41348c-0.43994,0.32005 -0.79738,0.76291 -1.35118,0.91595c-0.07911,-0.00074 -0.15191,0.11179 -0.23636,0.0134c0.00021,-5.26575 0.00037,-10.53166 0.0005,-15.79773c0.03609,-0.00552 0.07215,-0.01075 0.10821,-0.01568z" fill="#856c6c"/><path d="M222.38647,167.52488c0.46614,-0.18781 0.09594,-0.54829 0.15856,-0.7967c0.09391,-0.20172 0.25217,-0.3029 0.44224,-0.43219c0.93439,0.31611 1.54303,1.00375 2.03144,1.75401c0.01178,0.28026 -0.25525,0.27463 -0.29328,0.46122c0.16436,0.25571 0.37665,0.49567 0.4556,0.80913c0.02453,0.30677 -0.07139,0.51942 -0.41886,0.53548c-0.94627,-0.1808 -1.47381,-0.91891 -2.07258,-1.56031c-0.11379,-0.12188 -0.20736,-0.26261 -0.31026,-0.39464c-0.1297,-0.12784 -0.12451,-0.25313 0.00714,-0.37601z" fill="#fb0431"/><path d="M231.67278,175.56236c-1.1473,-0.36062 -1.85,-1.20988 -2.42261,-2.20211c-0.32755,-0.35726 -0.47906,-0.71765 -0.01938,-1.08891c0.3824,-0.36616 0.77219,-0.32289 1.20166,-0.06419c0.64013,0.36878 1.15669,0.91891 1.48449,1.58096c-0.06722,0.5291 0.41319,0.98163 0.21476,1.53001c-0.08694,0.20559 -0.24695,0.27393 -0.45893,0.24424z" fill="#fa0833"/><path d="M217.54812,163.35103c0.51892,0.64971 1.00929,1.33445 1.94265,1.42974c0.06955,0.0071 0.12529,0.14935 0.18744,0.22877c-0.09165,0.24098 -0.25654,0.33853 -0.511,0.26066c-1.41424,-0.45579 -2.4961,-1.84814 -2.37226,-3.04863c0.38041,-0.5395 0.83731,-0.49087 1.31664,-0.16381c0.63863,0.43576 1.13601,0.99241 1.42831,1.69151c-0.06195,0.20364 -0.19296,0.23864 -0.36701,0.25488c-0.39006,-0.58221 -0.74138,-1.19072 -1.38809,-1.522c-0.17237,0.06404 -0.38174,0.02337 -0.52328,0.17784c-0.12846,0.32764 0.06573,0.51484 0.28659,0.69102z" fill="#fa0633"/><path d="M228.72149,173.27254c-0.34485,-0.02832 -0.39389,-0.34696 -0.53608,-0.56313c-0.44032,-0.66943 -0.75467,-1.41662 -1.25832,-2.04777c-0.27343,-0.01819 -0.28352,-0.31029 -0.44761,-0.44583c-0.08295,0.38241 0.27989,0.77677 -0.06239,1.13593c-0.28133,0.02995 -0.24234,-0.19894 -0.28966,-0.35809c-0.19651,-0.62841 -0.25396,-1.25385 0.04009,-1.87176c0.11116,-0.04884 0.20185,-0.16336 0.42166,-0.08272c0.27017,0.45424 0.57015,0.96169 0.87324,1.46727c0.288,0.48041 0.57926,0.95887 0.89622,1.48307c0.17238,-0.29275 0.03977,-0.5428 0.12873,-0.74538c0.09528,-0.21694 0.21278,-0.56411 0.48906,-0.11644c-0.13875,0.49252 -0.01049,0.99896 -0.07801,1.49615c-0.03071,0.22606 -0.00018,0.46412 -0.17692,0.64871z" fill="#e80727"/><path d="M221.72116,167.10797c-0.66576,-0.47594 -1.15511,-1.24667 -2.10666,-1.26746c-0.06124,-0.13233 0.08521,-0.20855 0.11235,-0.32255c0.01036,-0.05729 0.04904,-0.10544 0.10276,-0.12791c0.47139,-0.1366 0.66779,-0.62322 1.09352,-0.8494c0.16409,-0.04216 0.24832,0.0681 0.31082,0.21309c-0.05963,0.41965 0.17631,0.75556 0.30329,1.12597c0.13452,0.39241 0.47513,0.76798 0.18392,1.22827z" fill="#fa0833"/><path d="M221.72116,167.10797c-0.0098,-0.63083 -0.3725,-1.14413 -0.56493,-1.71424c-0.07101,-0.21037 -0.29365,-0.47051 0.07763,-0.63999c0.4967,0.87701 0.8165,1.82747 1.15243,2.77123c-0.0023,0.1254 -0.00467,0.25078 -0.00712,0.37614c-0.65846,0.0997 -0.4626,-0.50896 -0.65801,-0.79315z" fill="#ab0715"/><path d="M225.66074,170.71721c-0.47964,-0.00028 -0.29717,-0.39675 -0.38001,-0.63446c-0.20122,-0.23316 -0.1509,-0.47066 -0.01229,-0.7097c0.01532,-0.22592 -0.01539,-0.46803 0.05709,-0.67385c0.10132,-0.28773 0.27215,-0.58283 0.57437,-0.13054c0.01705,0.47919 0.1221,0.95347 0.07513,1.43648c-0.0266,0.27346 -0.04278,0.54811 -0.31428,0.71207z" fill="#de0b24"/><path d="M228.72149,173.27254c0.00389,-0.53995 0.01108,-1.07991 0.01005,-1.61985c-0.00041,-0.21734 0.00708,-0.42263 0.24485,-0.52513c0.27059,0.34 0.25853,0.74269 0.25438,1.1437c-0.2411,0.36757 -0.04817,0.72744 0.01928,1.08925c-0.22309,0.25336 -0.32911,-0.19864 -0.52857,-0.08797z" fill="#9f1d0b"/><path d="M225.66074,170.71721c0.19645,-0.48256 0.10924,-0.98981 0.13277,-1.48782c0.01053,-0.22297 -0.07341,-0.46417 0.10653,-0.66073c0.08915,0.18414 0.17836,0.36842 0.26762,0.55283c-0.01333,0.62435 -0.02664,1.24841 -0.03995,1.87221c-0.15586,-0.09221 -0.31152,-0.18437 -0.46697,-0.2765z" fill="#9c330b"/><path d="M226.41708,171.35174c0.05081,-0.50416 -0.20696,-0.9924 -0.05644,-1.55902c0.3086,0.2324 0.37171,0.59915 0.56665,0.86965c-0.15578,0.21972 -0.04902,0.49371 -0.14743,0.74019c-0.12295,-0.01723 -0.24286,-0.03403 -0.36278,-0.05082z" fill="#9e0618"/><path d="M217.54812,163.35103c-0.6652,-0.0377 -0.5212,-0.4802 -0.47839,-0.8637c0.26718,-0.24543 0.49157,-0.14114 0.71507,-0.00524c-0.26077,0.2402 -0.29294,0.54254 -0.23667,0.86895z" fill="#931b0e"/><path d="M231.67278,175.56236c0.11498,-0.08515 0.22997,-0.1703 0.34495,-0.25544c0.25072,-0.20232 0.01107,-0.58393 0.28467,-0.77789c0.28592,0.40159 0.36537,0.81028 0.08567,1.23753c-0.30037,0.04039 -0.52747,-0.01583 -0.7153,-0.2042z" fill="#714601"/><path d="M232.3024,174.52904c-0.05004,0.27566 0.08533,0.61909 -0.28461,0.77787c0.04839,-0.40386 -0.08078,-0.76995 -0.23889,-1.13044c-0.07485,-0.17067 -0.19374,-0.36042 0.13796,-0.38843c0.17868,0.21748 0.30998,0.46986 0.38553,0.741z" fill="#9e0719"/><path d="M225.26845,169.37305c0.00413,0.23663 0.00824,0.47322 0.01233,0.70979c-0.20489,0.058 -0.42216,-0.03717 -0.51847,-0.22709c0.1394,-0.17835 0.27894,-0.35679 0.4186,-0.53532c0.03139,0.01356 0.06083,0.03125 0.08753,0.05262z" fill="#7e4201"/><path d="M219.8296,165.39004c-0.03445,0.04271 -0.06879,0.08538 -0.10304,0.12801c-0.22849,0.01276 -0.43858,-0.01655 -0.5592,-0.24788c0.17023,-0.08685 0.34053,-0.17372 0.51092,-0.26061c0.14918,0.08755 0.13994,0.23811 0.15133,0.38048z" fill="#914b01"/><path d="M235.08169,177.47152c-0.3171,-0.1798 -0.45143,0.09967 -0.636,0.25284c-0.09323,-0.48088 0.56086,-0.42548 0.58494,-0.92218c-0.03433,-0.10057 -0.1005,-0.29439 -0.16141,-0.4728c0.13369,-0.19897 0.39834,-0.07606 0.54715,-0.34314c0.02079,-0.0997 0.05876,-0.28179 0.09574,-0.45904c0.21438,-0.14952 0.49785,-0.16098 0.65352,-0.38117c-0.01342,-0.95696 0.29227,-1.37951 0.86255,-1.18951c0.14292,0.16361 -0.14424,0.36537 0.05585,0.53933c0.23739,-0.01003 0.38119,-0.21354 0.57439,-0.31084c-0.00813,-0.49317 -0.00813,-0.49317 -0.48756,-0.73944c-0.09358,-0.15892 0.01058,-0.28103 0.09807,-0.45344c0.20719,-0.035 0.52891,0.38725 0.72899,-0.1719c-0.59921,-0.11276 -1.1494,-0.33176 -1.78233,-0.25084c-0.08015,-0.24578 0.09899,-0.49414 0.09702,-0.64396c-0.04079,-0.36384 -0.28943,-0.40632 -0.44883,-0.55856v-0.65781c0.62103,-0.13623 0.73945,-0.57018 0.54974,-1.09526c-0.11591,-0.32083 0.07419,-0.5776 0.06618,-0.8674c-0.01121,-0.40633 -0.00956,-0.8132 -0.02914,-1.21908c-0.03189,-0.66096 0.52688,-1.00232 0.8253,-1.47014c0.46424,-0.72777 0.67287,-1.67204 1.44329,-2.14557c0.79865,-0.49089 1.18086,-1.3984 1.93063,-1.74088c0.22149,-0.26488 0.06412,-0.45494 0.082,-0.65816c0.42214,-0.13086 0.86038,0.01686 1.08828,-0.08088c0.72726,-0.53624 1.08798,-1.34564 2.06439,-1.12123c0.09961,-0.30191 0.19019,-0.57642 0.28076,-0.85094c1.01431,-1.23004 2.49662,-1.86537 3.71648,-2.8289c0.11523,-0.22534 0.24138,-0.01486 0.39153,-0.00812c0.11939,-0.53175 0.34422,-0.89325 0.9349,-1.0653c0.64575,-0.18811 0.99869,-0.82767 1.48529,-1.25316c0.82448,-0.72091 1.73135,-1.45666 2.95765,-1.48407c0.24132,0.15794 0.51649,0.27591 0.70092,0.51997c0.14484,0.35423 0.0306,0.70475 -0.01738,1.02106c0.09039,0.25365 0.34852,0.18804 0.47839,0.32693c0.13135,0.3464 0.26236,0.69274 0.4054,1.0709c0.1839,0.11714 0.43487,0.21977 0.45288,0.57549c-0.09442,0.17517 -0.21261,0.39437 -0.31754,0.58904c-0.01528,0.24511 0.32981,0.2463 0.26172,0.52074c-0.25525,0.1477 -0.56419,-0.06457 -0.83257,0.06596c-0.28038,-0.17438 -0.49014,-0.44218 -0.59228,-0.75617c0.07039,-0.3864 -0.23369,-0.67173 -0.28111,-1.02707c-0.08272,-0.37706 0.04124,-0.75403 0.00837,-1.12236c-0.15272,-0.30316 -0.37835,-0.51148 -0.7371,-0.70357c-0.46483,0.53745 -1.22381,0.29728 -1.79006,0.65478c-0.9896,0.91885 -1.89795,1.90408 -2.56956,3.10054c-0.7453,0.52997 -1.80936,0.14592 -2.51268,0.83862c-0.106,0.10366 -0.2191,0.19979 -0.33849,0.28769c-0.67819,0.66528 -1.22283,1.44633 -1.86202,2.14511c-0.0314,0.04966 -0.0662,0.0971 -0.10412,0.14199c-0.48327,0.73536 -1.1907,1.06894 -2.04055,1.20518c-0.36526,0.05855 -0.70816,0.25288 -1.03795,0.43846c-0.13986,0.10627 -0.29011,0.19656 -0.43832,0.29001c-1.35225,1.32864 -2.67504,2.6755 -3.09852,4.64925c0.62764,0.51634 0.67849,1.05073 0.26516,1.69907c-0.25396,0.39836 -0.41,0.877 -0.25095,1.40893c0.33619,0.09698 0.67129,-0.07498 0.99939,-0.00118c0.18887,0.03646 0.32966,0.18846 0.56907,0.22634c0.67838,0.00623 1.15666,-0.86124 2.01799,-0.48363c0.18688,-1.04835 1.00485,-1.56578 1.61627,-2.24417c0.33081,-0.38405 0.59786,-0.8187 0.79097,-1.28735c0.09292,-0.21081 0.16283,-0.44264 0.43184,-0.50384c0.1225,-0.00229 0.24243,0.03533 0.34168,0.10718c0.3384,0.26283 0.63737,0.08821 0.93501,-0.08569c0.40055,-0.23402 0.77783,-0.55726 1.34991,-0.19434c0.20167,-1.04118 1.00246,-1.51941 1.56719,-2.18481c0.36534,-0.41237 0.65921,-0.88289 0.86948,-1.39211c0.08265,-0.21138 0.12945,-0.45624 0.38863,-0.54576c0.19093,-0.00105 0.33768,0.11062 0.49616,0.1922c0.31309,0.1582 0.584,0.00968 0.82931,-0.14788c0.40156,-0.25793 0.80451,-0.46009 1.38938,-0.2581c0.00349,-0.97054 0.85715,-1.29669 1.32404,-1.9172c0.1082,-0.14377 0.22467,-0.32133 0.46175,-0.2387c0.13012,0.38299 0.44164,0.46292 0.79981,0.48793c0.30188,-0.22543 0.33969,-0.70755 0.82816,-0.77918c0.06707,0.06103 0.17032,0.15499 0.2961,0.26944c0.2609,-0.16178 0.46874,-0.42904 0.83552,-0.40448c0.02241,-0.26371 0.04161,-0.48975 0.06182,-0.72746c0.27886,-0.19332 0.566,0.06107 0.89268,-0.02866c0.30475,-0.32715 -0.01879,-0.95516 0.479,-1.23464c-0.00505,0.70883 0.11196,1.41935 -0.07219,2.12653c-0.04276,0.16427 0.0425,0.36185 0.06887,0.5441c-0.13109,0.15904 0.01553,0.38335 -0.10427,0.51358c-0.20405,0.24609 -0.48818,0.20205 -0.71836,0.29665c-0.98513,0.40485 -1.8008,1.03229 -2.59013,1.75067c-0.73242,0.66431 -1.51759,1.26804 -2.34775,1.80522c-0.16306,0.09729 -0.31669,0.2096 -0.45886,0.33546c-0.99701,0.95297 -2.24726,1.56907 -3.29641,2.42963c-1.03983,0.85292 -2.28341,1.42504 -3.20716,2.42269c-0.26169,0.28262 -0.66083,0.3645 -0.97626,0.58342c-0.44605,0.30956 -0.67647,0.80757 -1.09225,1.13414c-0.35251,0.0476 -0.51927,0.33718 -0.73291,0.56544c-0.04286,0.03984 -0.08876,0.0763 -0.13726,0.10904c-0.5079,0.42059 -1.1274,0.70902 -1.50924,1.27833c-0.04437,0.03651 -0.09286,0.06772 -0.14447,0.09299c-0.31814,0.10787 -0.62637,0.22891 -0.76016,0.57963c-0.04302,0.07515 -0.09812,0.1427 -0.16309,0.19994c-0.31054,0.25964 -0.60696,0.5357 -0.888,0.827c-0.13345,0.15919 -0.27946,0.30741 -0.43662,0.44324c-1.02344,0.45951 -1.80076,1.28589 -2.75392,1.85154c-0.18292,0.10856 -0.34124,0.24487 -0.57172,0.19779z" fill="#6e7b78"/><path d="M243.97184,173.88278c-0.59404,0.47084 -1.1881,0.94167 -1.78217,1.4125c-0.36747,0.0962 -0.50003,-0.37571 -0.94639,-0.32834c-0.63273,0.47636 -0.57489,1.44258 -1.11795,2.05403c-0.32141,0.27412 -0.62474,0.57272 -1.01187,0.76027c-0.39691,-0.0709 -0.7496,-0.26238 -1.1182,-0.41105c0.02399,-0.56851 0.39142,-0.9001 0.81742,-1.17995c0.27795,-0.52588 0.6365,-1.00457 0.65288,-1.58251c0.63763,-0.31678 1.14612,-0.70725 1.80813,-0.84862c0.21838,-0.5266 0.64869,-0.87583 1.07272,-1.22232c0.51106,-0.41762 0.99328,-0.82715 1.18477,-1.51347c0.10197,-0.36552 0.45633,-0.60961 0.78254,-0.80618c1.14216,-0.67729 2.24022,-1.42632 3.28757,-2.24257c0.78641,-0.62188 1.63877,-1.12625 2.5,-1.62081c0.43192,-0.24803 0.92631,-0.35735 1.35292,-0.65383c0.38267,-0.26596 0.7991,-0.4676 1.06795,-0.87111c0.12173,-0.17929 0.32204,-0.28935 0.53864,-0.29597c0.67153,-0.04479 1.33795,-0.14733 1.99187,-0.30649c0.21175,0.35611 -0.12231,0.57809 -0.2102,0.86089c-0.1268,0.23906 -0.11781,0.56417 -0.43149,0.68553c-0.04127,0.01819 -0.08256,0.03639 -0.12385,0.05458c-0.29804,-0.0165 -0.23857,-0.43154 -0.55136,-0.47916c-0.36568,0.38628 -0.01171,0.98449 -0.37415,1.36912c-0.53813,0.49348 -1.07934,0.98299 -1.72273,1.34245c-0.52805,0.13831 -1.0926,-0.04501 -1.58663,0.14387c-0.3164,0.43255 0.02039,1.03613 -0.46809,1.36258c-0.12359,0.08488 -0.24716,0.16975 -0.37074,0.25463c-0.22298,-0.1347 -0.12717,-0.50973 -0.47346,-0.5881c-0.53212,0.30462 -0.04882,0.97474 -0.43607,1.33484c-0.12207,0.05425 -0.24412,0.10849 -0.36618,0.16275c-0.64935,-0.33345 -1.21781,-0.12854 -1.76346,0.25813c-0.49991,0.35428 -1.00039,0.70447 -1.40809,1.1716c-0.43523,0.49867 -0.7547,1.04469 -0.79439,1.72272z" fill="#5c5d5f"/><path d="M255.06771,164.25542c-0.64784,0.49277 -1.43034,0.32019 -2.24848,0.4688c-0.35436,0.35007 -0.72706,0.78667 -1.26173,1.11307c-0.71897,0.43892 -1.52047,0.67599 -2.22627,1.12804c-0.95714,0.61305 -1.82731,1.33812 -2.7546,1.98601c-0.50571,0.35332 -1.02632,0.69415 -1.55193,1.0176c-0.76521,0.47092 -1.5857,0.85829 -1.57669,1.86245c-0.78625,0.70746 -1.69101,1.17985 -2.10071,2.18422c-0.70822,-0.20726 -1.04642,0.60535 -1.79084,0.5917c0.14678,0.67351 -0.36636,1.10092 -0.54773,1.71706c-0.1241,0.0553 -0.31441,0.14011 -0.53999,0.24063c-0.03266,0.31307 -0.29416,0.51676 -0.46237,0.77935c-0.22383,0.29227 -0.48024,0.51628 -0.88763,0.42396c-0.13904,-0.14205 -0.12676,-0.30703 -0.04082,-0.4609c0.38899,-0.69642 0.63595,-1.48688 1.30949,-1.99696c0.07989,-0.16741 0.21511,-0.30211 0.38282,-0.38137c0.32911,-0.26353 0.65423,-0.53105 0.88951,-0.88844c0.04303,-0.04305 0.08605,-0.08609 0.12907,-0.12913c0.22807,-0.30652 0.54422,-0.48971 0.88828,-0.63383l0.00214,-0.00159c0.46659,-0.56518 1.14297,-0.88247 1.65241,-1.39702l0.00124,-0.00087c0.35776,-0.08709 0.40656,-0.54413 0.76117,-0.63499c0.7928,-1.18933 2.14217,-1.70629 3.15251,-2.62392c0.45911,-0.41697 0.97145,-0.67853 1.48648,-0.97187c0.21499,-0.12967 0.38317,-0.32434 0.48023,-0.55589c2.29643,-1.28927 4.0773,-3.09396 5.9742,-4.34655c1.09631,-1.10742 2.15035,-1.85901 3.66161,-2.22466c0.08168,-0.02614 -0.07528,-0.34575 0.12151,-0.46521c0.01522,0.55075 0.03045,1.10149 0.0457,1.65223c0.01175,0.15064 -0.089,0.2355 -0.19806,0.29736c-0.95064,0.53932 -1.71919,1.28605 -2.42415,2.10727c-0.08259,0.09621 -0.17992,0.18157 -0.32638,0.14347z" fill="#656768"/><path d="M256.57407,180.66865c-0.68566,0.73541 -1.54995,1.19609 -2.44048,1.63233c-1.80592,0.88466 -3.72277,1.10509 -5.69783,1.02595c-0.42257,0.30557 -0.87243,0.14479 -1.31569,0.07409c-0.22519,-0.03592 -0.43753,-0.12862 -0.66406,-0.15919c-0.97125,-0.16256 -1.85961,-0.55776 -2.73688,-0.98281c-0.21658,-0.09179 -0.39364,-0.25734 -0.49974,-0.46727c0.00005,-0.04169 -0.00039,-0.0834 -0.00132,-0.1251c0.72238,-0.27408 1.48969,-0.12924 2.23398,-0.21828c1.49946,-0.17937 3.01834,-0.19112 4.52764,-0.29481c2.19886,-0.15108 4.39632,-0.32228 6.59439,-0.4849z" fill="#672a00"/><path d="M240.04189,176.97899c0.45297,-0.73249 0.50358,-1.68121 1.16715,-2.28376c0.47214,0.03711 0.65341,0.4337 0.98071,0.6002c0.50877,0.46498 1.01816,0.93057 1.52817,1.39677c-0.29962,0.51999 -0.55226,0.05079 -0.87161,0.01433c-0.70473,0.34269 -1.24011,1.01248 -1.93456,1.42144c-0.78246,0.46076 -0.69468,1.44701 -1.35076,1.91025c-0.20764,0.08957 -0.30096,-0.19511 -0.54329,-0.07408c-0.71617,1.13333 -1.73058,2.03487 -2.94278,2.72126c-0.37773,-0.00356 -0.78488,0.07147 -0.99507,-0.37521c-0.30564,-0.79453 0.11975,-2.01615 0.89794,-2.58055c0.03277,-0.0004 0.06609,-0.00047 0.09854,-0.00096c0.05366,0.03501 0.09267,0.08842 0.1097,0.15018c0.04784,0.27775 -0.1505,0.46817 -0.24738,0.69571c-0.15372,0.36103 -0.40156,0.70631 -0.2131,1.13123c0.20408,0.2758 0.47108,0.31693 0.80592,0.20976c-0.10497,-0.18295 -0.34775,-0.07141 -0.44287,-0.22643c-0.04286,-0.30535 0.23267,-0.36764 0.39743,-0.50762c0.59597,-0.50638 1.19393,-1.01242 1.57087,-1.71469c0.19007,-0.395 0.58809,-0.64765 1.02642,-0.65155c0.41315,-0.56773 0.43097,-1.3405 0.95856,-1.8363z" fill="#6d011d"/><path d="M259.15584,176.81c-0.0166,-0.20587 -0.03324,-0.41177 -0.04991,-0.61771c0.12284,-1.34665 -0.16239,-2.6157 -0.72801,-3.83163c1.00342,-0.7571 2.0068,-1.51415 3.01014,-2.27114c0.23467,0.18368 0.20256,0.45117 0.20438,0.6983c0.0088,1.20211 -0.00283,2.40436 0.00666,3.60641c0.00398,0.50378 -0.17025,0.89775 -0.56897,1.20493c-0.41768,0.32181 -0.81461,0.67079 -1.24894,0.97072c-0.18663,0.12888 -0.36254,0.30241 -0.62535,0.24011z" fill="#2a1e6a"/><path d="M243.97184,173.88278c-0.21297,-0.46235 -0.03834,-0.8567 0.22095,-1.23327c0.6467,-0.9392 1.50654,-1.62826 2.51532,-2.14543c0.47376,-0.24288 0.8871,-0.21553 1.22957,0.2263c-0.05427,0.29189 -0.20984,0.47765 -0.52298,0.49811c-0.80379,0.2644 -1.38291,0.85442 -2.05017,1.39804c0.4535,-0.25694 0.71825,-0.74167 1.27106,-0.73757c0.52596,-0.18074 1.03631,-0.29334 1.41458,0.38231c0.08897,0.79203 -0.43409,1.35281 -0.96406,1.89563c-0.55888,0.5736 -1.19084,1.07113 -1.87959,1.47976c-0.73115,0.43362 -0.97859,0.39286 -1.56169,-0.27889c-0.03031,-0.21275 0.14642,-0.28023 0.24863,-0.38812c0.89325,0.1409 2.359,-0.85211 2.97414,-2.02357c-0.84502,0.2908 -1.38879,1.07708 -2.29356,1.22456c-0.1929,-0.09541 -0.39755,-0.19663 -0.60219,-0.29784z" fill="#61001b"/><path d="M255.06771,164.25542c0.8274,-1.02897 1.77471,-1.91937 2.94841,-2.54817c1.33589,-0.00756 1.88223,0.80616 1.36537,2.02097c-0.62273,1.46359 -1.74332,2.45753 -3.06813,3.25539c-0.40071,0.24133 -0.8303,0.2994 -1.26191,0.0528c-0.23115,-0.24819 -0.3284,-0.59264 -0.26118,-0.92507c0.06405,-0.37318 -0.00377,-0.73598 -0.08778,-1.09741c0.12174,-0.25283 0.24347,-0.50567 0.3652,-0.75851z" fill="#63001b"/><path d="M249.58422,169.56621c0.19672,-0.4792 0.02003,-1.00695 0.19893,-1.56057c0.61911,-0.17906 1.27462,-0.0114 1.91305,-0.07196c0.44616,-0.26122 0.966,0.11234 1.4162,-0.15761c0.19663,-0.3519 0.03676,-0.75711 0.17552,-1.11348c0.15535,-0.29665 0.09607,-0.61793 0.10073,-0.93026c0.00387,-0.25895 0.0004,-0.51176 0.27886,-0.64946c0.50596,-0.00197 0.44593,0.46827 0.61971,0.74401c0.04292,0.78342 -0.07922,1.55805 -0.11531,2.33693c-0.03098,0.66899 -0.26175,0.89443 -0.91085,0.75306c-0.87308,-0.19015 -1.76265,0.03137 -2.67983,-0.23833c-0.27513,1.05298 0.09031,2.1228 -0.37079,3.082c-0.72595,-0.62225 -0.55306,-1.44093 -0.62623,-2.19434z" fill="#63001a"/><path d="M248.30395,170.5676c0.00694,-0.3382 0.01804,-0.67638 0.01956,-1.0146c0.00126,-0.27801 0.08835,-0.49484 0.38009,-0.5976c0.51687,0.08233 0.5009,0.4815 0.50978,0.86562c-0.05366,0.97598 0.07627,1.96912 -0.08458,2.90245c-0.46881,0.05 -0.57468,-0.18981 -0.82485,-0.41245z" fill="#600119"/><path d="M240.5652,181.81228c-0.05233,0.07642 -0.10469,0.15283 -0.15709,0.22922c-0.31294,0.06499 -0.44886,0.39279 -0.73622,0.49516c-0.63023,-0.09713 -1.22212,0.25772 -1.85474,0.15598c-0.20429,-0.03285 -0.42215,0.04504 -0.65022,-0.08299c0.03029,-0.42144 0.29956,-0.6739 0.68154,-0.66339c0.91143,0.02508 1.8053,-0.22908 2.71674,-0.13399z" fill="#662800"/><path d="M246.63558,171.88895c-0.50667,0.36266 -1.01334,0.72532 -1.52,1.08798c-0.03228,-0.04521 -0.06456,-0.09043 -0.09683,-0.13565c0.6983,-0.6753 1.27651,-1.51548 2.39599,-1.61268c-0.25975,0.22004 -0.51946,0.44016 -0.77915,0.66035z" fill="#4a4146"/><path d="M254.7025,165.01393c0.25509,0.19918 0.36802,0.53053 0.28764,0.84403c-0.10472,0.41549 -0.04592,0.7907 0.06135,1.17857c-0.19946,-0.17124 -0.3989,-0.34238 -0.64038,-0.54961c0,-0.23108 0,-0.47261 -0.00006,-0.71415c0.09713,-0.25294 0.19428,-0.50589 0.29146,-0.75884z" fill="#63001a"/><path d="M220.98354,192.48885c-0.26953,-0.16407 -0.53907,-0.32813 -0.77241,-0.47016c-0.26003,-0.0675 -0.36033,0.18819 -0.55812,0.18132c-0.24926,-0.06121 -0.33844,-0.26201 -0.37234,-0.83879c-0.69425,-0.8056 -1.68101,-1.37264 -2.0169,-2.47048c-0.20089,-0.46421 -0.0946,-0.78959 0.41992,-0.93058c0.31468,0.20478 0.15957,0.5768 0.29892,0.8476c0.11374,0.22101 0.16665,0.47436 0.36683,0.6591c0.25717,0.02451 0.40947,-0.16294 0.63249,-0.31683c-0.25827,-0.50866 -0.71738,-0.86024 -1.01501,-1.32787c-0.11536,-0.17798 -0.23482,-0.35332 -0.34394,-0.53561c-0.21289,-0.57271 -0.65101,-1.10008 -0.3639,-1.77523c0.12548,-0.15924 0.26566,-0.30633 0.41869,-0.43931c0.11698,-0.11603 0.27483,-0.18151 0.43959,-0.18235c0.86165,-0.62799 0.86165,-0.62799 2.34877,0.33961c0.2345,0.00056 0.58375,-0.29449 0.75188,0.16481c0.01712,0.50489 -0.61652,0.54047 -0.71618,0.97485c0.41496,0.27096 0.82032,-0.0587 1.22235,0.00704l0.78753,0.65808c0.01655,0.05599 0.01171,0.11613 -0.01357,0.16876c-0.27213,0.48661 -0.97522,0.67081 -0.95581,1.36258c-0.04278,0.11049 -0.13236,0.19632 -0.24459,0.23431c-0.11323,-0.00579 -0.164,-0.08899 -0.21585,-0.17102c-0.19473,-0.39098 -0.33132,-0.82 -0.74165,-1.16992c-0.10231,0.38881 -0.1648,0.70393 -0.01375,1.02892c0.4885,0.71816 1.10862,1.33836 1.54912,2.09204c0.27383,0.50813 0.48759,1.02932 0.35799,1.6263c-0.09222,0.23831 -0.20748,0.44883 -0.51775,0.41567c-0.03722,-0.00088 -0.07444,0.00172 -0.11118,0.00774c-0.25814,0.17873 -0.43092,-0.01939 -0.62114,-0.14055z" fill="#009510"/><path d="M226.34129,196.90992c-0.28105,-0.17995 -0.56238,-0.36009 -0.84402,-0.54042c-0.19193,0.09116 -0.35845,0.17025 -0.49958,0.23728c-0.46926,-0.1673 -0.29888,-0.56946 -0.37268,-0.88288c-0.74694,-0.77102 -1.7096,-1.37414 -2.02635,-2.49683c-0.16659,-0.38283 -0.0362,-0.63836 0.33784,-0.7893c0.29147,0.11012 0.28645,0.38801 0.34972,0.62565c0.08173,0.30694 0.15903,0.61482 0.45944,0.7991c0.26306,0.02165 0.43846,-0.10359 0.58939,-0.33999c-0.35277,-0.41256 -0.66744,-0.85722 -1.02124,-1.2724c-0.13396,-0.21135 -0.25693,-0.42946 -0.36841,-0.65349c-0.27672,-0.54458 -0.47492,-1.10322 -0.30912,-1.72688c0.05275,-0.1211 0.13456,-0.22731 0.23819,-0.30922c0.12422,-0.09559 0.23037,-0.22998 0.41475,-0.20408c0.37393,-0.10185 0.57263,-0.50936 1.00137,-0.56409c0.57951,0.11424 1.02935,0.51086 1.54823,0.86759c0.25543,-0.12172 0.56486,-0.32137 0.73264,0.13259c0.06508,0.27202 -0.16134,0.35918 -0.31566,0.48662c-0.17349,0.1433 -0.39126,0.24605 -0.44468,0.51307c0.43978,0.32619 0.86043,-0.09735 1.27764,0.00257c0.26124,0.21916 0.52248,0.43832 0.78373,0.65748c0.0159,0.05765 0.01308,0.11886 -0.00804,0.17481c-0.43403,0.39158 -0.89774,0.76251 -0.98341,1.39968c-0.04551,0.10595 -0.13465,0.187 -0.24444,0.22224c-0.12759,-0.02432 -0.16895,-0.11417 -0.21192,-0.20244c-0.11564,-0.47678 -0.40824,-0.84874 -0.73617,-1.18321c-0.00788,0.2886 -0.14539,0.59045 -0.08342,0.91314c0.48217,0.79024 1.20075,1.41001 1.6176,2.24718c0.31218,0.49804 0.46536,1.03045 0.35348,1.62087c-0.09155,0.32897 -0.34332,0.39236 -0.6383,0.38367l-0.02003,0.00911c-0.24592,0.20045 -0.40393,0.00347 -0.57655,-0.12742z" fill="#009510"/><path d="M212.66322,183.43979c0.09796,-0.42732 -0.24687,-0.69601 -0.38528,-1.03525c-0.42569,-1.04331 0.07897,-2.10087 1.17009,-2.35401c0.33016,-0.0766 0.62295,0.08268 0.89108,0.25594c0.26581,0.17176 0.51664,0.36666 0.80669,0.57485c0.2604,-0.10767 0.57801,-0.32242 0.74132,0.14025c-0.09361,0.44239 -0.59228,0.57008 -0.77234,0.98086c0.43685,0.3893 0.87355,-0.14461 1.29329,0.01353c0.25931,0.21732 0.51862,0.43463 0.77793,0.65195c0.01774,0.05599 0.01995,0.11575 0.00638,0.1729c-0.29055,0.41807 -0.86912,0.59323 -0.98029,1.16302c-0.10566,0.14088 -0.09559,0.47472 -0.42029,0.25624c-0.19692,-0.43844 -0.46507,-0.84124 -0.7936,-1.19206c-0.11242,0.29968 -0.13972,0.62462 -0.07887,0.93886c0.26078,0.58273 0.78056,0.96377 1.14367,1.4672c0.1832,0.25401 0.32904,0.52739 0.4929,0.79239c0.34358,0.51651 0.47666,1.07132 0.30975,1.68181c-0.40966,0.40295 -0.75159,0.43401 -1.24293,0.1139c-0.27522,-0.15581 -0.55043,-0.31162 -0.84731,-0.4797c-0.14959,0.08173 -0.31227,0.1706 -0.45446,0.24829c-0.46151,-0.17151 -0.34522,-0.55148 -0.35211,-0.86638c-0.58764,-0.57597 -1.20241,-1.09651 -1.68998,-1.73514c-0.48656,-0.6373 -0.46313,-1.05345 0.05063,-1.52754c0.26145,0.20001 0.24506,0.52245 0.34838,0.79195c0.08227,0.2146 0.13282,0.44795 0.37083,0.57871c0.24552,0.01749 0.42626,-0.09522 0.55906,-0.31184c-0.17905,-0.54249 -0.72487,-0.81614 -0.94451,-1.32072z" fill="#009510"/><path d="M226.93787,197.02822c0.1644,-0.12668 0.42343,-0.11755 0.51041,-0.35533c0.05178,-0.06712 -0.0238,0.00568 0.03888,-0.04949c0.49234,-0.43338 0.87642,-0.93071 0.9728,-1.60337c0.3505,0.57293 0.67114,1.16489 0.79668,1.82884c0.07802,0.41263 0.08817,0.8472 -0.40882,1.07789c-0.76518,-0.02578 -1.28902,-0.56697 -1.90995,-0.89853z" fill="#624b00"/><path d="M227.06785,195.01749c-0.46333,-0.78843 -1.11458,-1.43485 -1.64405,-2.17329c0.40856,-0.22982 0.77245,-0.07876 1.12927,0.13236l0.04241,0.18502l0.20285,-0.18351c0.17407,-0.01467 0.34617,-0.02268 0.46878,0.1377c0.26323,0.38023 0.63599,0.68507 0.78704,1.1425c-0.23959,0.36882 -0.62754,0.54508 -0.9863,0.75922z" fill="#007a0a"/><path d="M227.06785,195.01749c0.20701,-0.41113 0.62088,-0.55377 0.98635,-0.75919c0.13525,0.2539 0.27051,0.50782 0.4058,0.76175c-0.00003,0.30717 -0.00004,0.61482 -0.00003,0.92297c-0.33487,0.27549 -0.6281,0.56296 -1.01167,0.72984c0.0527,-0.57822 -0.08059,-1.15817 -0.38044,-1.65537z" fill="#024e04"/><path d="M212.66322,183.43979c0.57948,0.31479 0.83882,0.91865 1.30453,1.39661c-0.25851,0.2238 -0.63231,0.21016 -0.76406,0.59028c-0.72162,-0.43249 -0.72344,-1.11683 -0.87442,-1.7249c0.11144,-0.0874 0.22275,-0.17473 0.33394,-0.262z" fill="#004903"/><path d="M215.62269,188.06216c0.40191,0.10042 0.81509,0.27795 1.13738,-0.16615c0.27225,-0.32359 0.47242,-0.76195 1.02323,-0.642c0.07549,0.17139 0.26733,0.29023 0.23147,0.51193c-0.00979,0.12371 -0.1083,0.22183 -0.23206,0.2311c-0.45532,0.13443 -0.50769,0.50238 -0.51885,0.89399c-0.29931,-0.19059 -0.59851,-0.3809 -0.8709,-0.55414c-0.20571,0.0354 -0.12121,0.30136 -0.33306,0.29394c-0.20915,-0.13126 -0.38938,-0.29766 -0.43721,-0.56867z" fill="#5d4e01"/><path d="M227.83054,191.58027c0.01385,-0.04271 0.02777,-0.0854 0.04175,-0.12808c0.4156,0.80818 1.10861,1.54621 0.65427,2.62971c-0.44054,-0.44773 -0.37357,-1.17644 -0.95139,-1.47529c-0.00873,-0.35886 0.07949,-0.71343 0.25537,-1.02635z" fill="#5d4a00"/><path d="M217.14501,182.79985c0.01356,-0.04399 0.02716,-0.08797 0.04082,-0.13195c0.46866,0.66373 0.78679,1.42176 0.93219,2.22115c-0.11687,0.06944 -0.2333,0.13847 -0.3493,0.2071c-0.55269,-0.26784 -0.62201,-0.87426 -0.92468,-1.31773c0.10084,-0.32584 0.11989,-0.67717 0.30097,-0.97857z" fill="#564a00"/><path d="M216.40805,182.01596c-0.46212,0.27453 -0.94731,0.38845 -1.53277,0.20821c0.02251,-0.67797 0.68218,-0.80992 1.01182,-1.20256c0.24637,0.29336 0.35936,0.65657 0.52094,0.99435z" fill="#064502"/><path d="M223.28923,189.35645c-0.08931,0.0968 -0.17864,0.1936 -0.26796,0.2904c-0.37802,-0.45069 -0.58973,-0.98325 -0.75888,-1.53759c0.03946,-0.32743 0.0214,-0.6687 0.22555,-0.95732c0.00448,-0.03999 0.01233,-0.07953 0.02349,-0.11818c0.36443,0.73932 1.05801,1.36816 0.7778,2.32269z" fill="#564b00"/><path d="M227.08877,190.7948c-0.46214,0.32738 -0.96121,0.35853 -1.50209,0.21188c-0.05815,-0.7463 0.73191,-0.76137 0.98475,-1.21418c0.17248,0.33413 0.34493,0.66823 0.51735,1.0023z" fill="#074402"/><path d="M223.00475,192.44592c-0.30705,0.17138 -0.37237,0.46817 -0.40598,0.78131c-0.32223,-0.16144 -0.64385,-0.32344 -0.88292,-0.60562c0.13214,-0.1258 0.26429,-0.25164 0.39645,-0.37752c0.26671,-0.32383 0.52143,-0.66598 1.00584,-0.65668c0.09657,0.20277 0.26387,0.37834 0.24129,0.62691c-0.04882,0.18339 -0.17444,0.24928 -0.35468,0.23159z" fill="#594b01"/><path d="M221.72419,186.37596c-0.45469,0.37825 -0.95832,0.28665 -1.50169,0.18607c0.05583,-0.66477 0.75606,-0.72177 0.99538,-1.16816c0.26843,0.27621 0.33546,0.65588 0.50631,0.98208z" fill="#074402"/><path d="M227.83054,191.58027c-0.01074,0.36058 0.10185,0.75182 -0.25534,1.02633c-0.22384,0.09646 -0.28623,0.29046 -0.30804,0.50909c-0.16305,-0.02254 -0.35093,0.0395 -0.46867,-0.13758c-0.01509,-0.73082 0.46315,-1.09778 1.03205,-1.39785z" fill="#034b03"/><path d="M220.98354,192.48885c0.20712,0.04679 0.4142,0.09362 0.62123,0.14047c-0.03305,0.15345 0.0046,0.33848 -0.18992,0.42198c-0.25787,-0.10021 -0.34487,-0.33112 -0.43131,-0.56245z" fill="#594b01"/><path d="M226.34129,196.90992c0.19225,0.0425 0.38448,0.08499 0.57667,0.12746c0.00728,0.16832 -0.02063,0.32333 -0.16767,0.44009c-0.24079,-0.11514 -0.35619,-0.31841 -0.409,-0.56755z" fill="#624b00"/><path d="M236.06832,179.73494c-0.63512,0.74117 -1.08744,1.55245 -0.98845,2.5752c-0.12656,-0.08309 -0.25312,-0.16623 -0.37966,-0.2494c-0.34514,-0.195 -0.30914,-0.47974 -0.18508,-0.78522c0.18091,-0.46725 0.36182,-0.9345 0.54273,-1.40175c0.16829,-0.65688 0.53305,-1.14546 1.18792,-1.38705c0.26639,-0.02731 0.5384,-0.079 0.78454,0.18709c-0.1802,0.47338 -0.54245,0.79156 -0.96199,1.06113z" fill="#fb023d"/><path d="M234.51513,181.27552c0.02951,0.26926 0.02125,0.54741 0.18504,0.78514c-0.46099,0.12851 -0.9104,0.37811 -1.40721,0.13511c0.39126,-0.32797 0.74154,-0.71058 1.22218,-0.92026z" fill="#330f04"/><path d="M251.36313,154.45892c0.09778,-0.16345 0.20857,-0.31285 0.27896,-0.34006c0.31309,-0.07771 0.41296,0.12488 0.62437,0.14738c0.27278,-0.18201 0.56794,-0.37897 0.88838,-0.59277c0.41961,0.17512 0.66742,0.5485 1.01553,0.82324c-0.11507,0.39258 -0.16666,0.80102 -0.15283,1.20988c-0.26226,0.33692 -0.70021,-0.21474 -0.97473,0.22512c0.56678,0.06556 0.94196,0.39608 1.23115,0.84411c0.19432,0.22769 0.43801,0.42117 0.509,0.73423c-0.09241,0.86941 -0.50327,1.59965 -1.00215,2.29145c-0.48473,0.46749 -0.91049,0.99547 -1.4441,1.37529c-0.15296,0.35426 0.05677,0.8399 -0.50784,1.00908c-0.13612,0.02795 -0.2148,-0.19379 -0.44316,-0.22042c-0.30662,0.16663 -0.64875,0.37094 -1.00733,0.54049c-0.21349,0.10095 -0.45293,0.28723 -0.68048,0.00514c-0.24196,-0.72483 -0.15613,-1.01711 0.42981,-1.4544c0.26229,-0.00497 0.35582,0.27644 0.61891,0.36022c0.2641,0.02369 0.52647,-0.09439 0.80526,-0.26184c0.13666,-0.41301 0.37674,-0.83049 0.04696,-1.25837c-0.24786,-0.10865 -0.43549,0.04969 -0.64044,0.06071c-0.9538,0.23193 -1.56902,-0.37556 -2.01709,-1.00951c-0.41843,-0.59204 -0.12931,-1.30463 0.23292,-1.90079c0.39948,-0.67062 0.92044,-1.26091 1.53619,-1.74065c0.29536,-0.22704 0.43605,-0.56459 0.65271,-0.84753z" fill="#004d06"/><path d="M259.15584,176.81c0.74856,-0.57583 1.52337,-1.11962 2.23249,-1.78867c0,-1.64763 -0.00004,-3.29157 -0.00013,-4.93184c0.13584,-0.11901 0.23751,-0.29833 0.48773,-0.26923v5.68638c-0.90325,0.68125 -1.82827,1.37892 -2.75326,2.07653c0.01106,-0.25775 0.02212,-0.51547 0.03317,-0.77316z" fill="#190a05"/><path d="M235.47218,195.16232v-4.98247c1.02745,-0.78024 2.099,-1.59396 3.17056,-2.40769c0.17555,0.15986 0.17445,0.37658 0.17577,0.58536c0.00807,1.28417 0.00837,2.56835 0.00089,3.85254c-0.00219,0.38201 -0.13273,0.70845 -0.4324,0.94201c-0.78033,0.60819 -1.52221,1.26535 -2.33353,1.83379c-0.17256,0.12091 -0.34987,0.24193 -0.58128,0.17645z" fill="#2b1f6c"/><path d="M235.47218,195.16232c1.12077,-0.74889 2.14822,-1.61393 3.17056,-2.47511v-4.91505c0.12734,-0.12707 0.2547,-0.25415 0.38206,-0.38124c0.04384,0.06656 0.12601,0.13316 0.12594,0.19967c-0.00199,1.87707 0.06546,3.75466 -0.03177,5.6311c-1.1822,0.89395 -2.36432,1.78794 -3.59298,2.71712c-0.1089,-0.29344 -0.07326,-0.53583 -0.05383,-0.7765z" fill="#180903"/><path d="M243.19565,194.89852c-0.44674,-0.0183 -0.45813,-0.34259 -0.48453,-0.67092c-0.10767,-1.3396 0.00888,-2.68451 -0.18456,-4.02935c-0.08489,-0.5902 0.16407,-1.23149 0.14751,-1.87717c-0.00952,-0.37162 -0.04467,-0.68752 -0.22351,-0.99188c0.09512,-0.50678 0.43574,-0.99858 0.01532,-1.46179c0.23651,-0.70778 0.25071,-1.37099 -0.08357,-2.08548c0.25587,-0.23234 0.25088,-0.59193 0.20163,-0.96062c0.48336,0.06098 0.51832,0.40578 0.51726,0.79112c-0.00444,1.62644 -0.00082,3.2529 -0.00065,4.87936c0.00016,1.37988 0.00005,2.75977 -0.00031,4.13966c0.00048,0.75694 -0.03241,1.51542 0.0954,2.26706z" fill="#585043"/><path d="M243.21938,181.79175c0.98898,0.58657 2.0606,1.02097 3.17887,1.28861c0.49395,0.35756 0.26453,0.87763 0.30127,1.33816c-0.02431,0.04649 -0.06779,0.07998 -0.11894,0.09161c-0.05115,0.01163 -0.10484,0.00024 -0.14686,-0.03117c-0.18146,-0.04813 -0.36087,-0.1067 -0.5447,-0.14275c-1.51776,-0.29756 -2.48056,-1.21301 -2.66963,-2.54445z" fill="#ad7500"/><path d="M246.4337,184.47895c0.07533,-0.00412 0.15065,-0.00824 0.22597,-0.01235c0.51315,-0.17104 0.97811,-0.07013 1.40449,0.2486c-0.00113,0.03848 0.00014,0.07699 0.0038,0.11531c-0.51666,0.38613 -1.03345,0.77236 -1.55037,1.15871c-0.2134,-0.49314 -0.07672,-1.00568 -0.0839,-1.51026z" fill="#71776d"/><path d="M248.06417,184.7152c-0.4682,-0.08288 -0.93637,-0.16575 -1.40454,-0.24862c-0.28448,-0.42497 0.02666,-0.96214 -0.26137,-1.38635c0.67874,0.0856 1.33863,0.32696 2.03748,0.24663c0.14248,0.19967 0.41246,0.05109 0.59203,0.22877c0.08613,0.32836 0.04952,0.68056 0.01557,1.04365c-0.30934,0.21249 -0.65607,0.07393 -0.97918,0.11591z" fill="#8a6100"/><path d="M236.20208,178.62322c-0.54967,0.26312 -0.77196,0.82545 -1.14422,1.25063c-0.36198,-0.21278 -0.23761,-0.56129 -0.2086,-0.85684c0.05084,-0.51778 0.15221,-1.03058 0.23242,-1.54548c0.89311,-0.4803 1.6023,-1.22241 2.47155,-1.73537c0.26836,-0.15836 0.55562,-0.2847 0.83422,-0.42571c0.32187,0.38169 -0.27825,0.23119 -0.27469,0.47617c0.00351,0.24183 -0.26547,0.34869 -0.47269,0.51765c0.16797,0.5893 -0.55336,0.87316 -0.51684,1.44573c-0.11599,0.49243 -0.57491,0.62344 -0.92116,0.87321z" fill="#6f6b6a"/><path d="M224.44414,169.15663c-0.68715,-0.32562 -1.2189,-0.79602 -1.54021,-1.55263c0.54338,0.54776 1.04179,1.0502 1.54021,1.55263z" fill="#ef6916"/><path d="M223.55035,167.12576c0.38173,0.14119 0.6574,0.60079 0.93662,0.99914c-0.32412,-0.34575 -0.67898,-0.72431 -0.93662,-0.99914z" fill="#f8611f"/><path d="M230.22651,172.72123c0.84065,0.48294 1.38562,1.16515 1.57771,2.26427c-0.9259,-0.18695 -1.33769,-0.81322 -1.81671,-1.34806c-0.32789,-0.57292 -0.2879,-0.72624 0.23899,-0.91621z" fill="#d98503"/><path d="M230.22651,172.72123c-0.48502,0.20003 -0.24741,0.58816 -0.23893,0.91644c-0.60908,-0.10564 -0.75594,-0.52263 -0.38313,-1.09784c0.24618,-0.07862 0.43796,0.03795 0.62206,0.18139z" fill="#9b1910"/><path d="M220.77622,165.06938c0.15016,0.21731 0.26084,0.39109 0.25241,0.6553c-0.24831,-0.03658 -0.48553,-0.07153 -0.74077,-0.10913c0.08413,-0.25616 0.27579,-0.38048 0.48836,-0.54617z" fill="#99250c"/><path d="M243.85285,166.51838c-0.35753,0.37181 -0.42684,0.89834 -0.71693,1.31304c-0.5128,0.73306 -1.18138,1.31564 -1.79448,1.94013c-0.10037,0.3393 0.0139,0.76751 -0.43684,0.92593c-0.21509,0.07417 -0.3057,-0.20623 -0.5427,-0.18052c-0.46102,0.2149 -0.87911,0.60844 -1.4862,0.67379c-0.1481,-0.09799 -0.32117,-0.21251 -0.49424,-0.32701c-0.91657,-0.43796 -1.01738,-1.13422 -0.3005,-2.07092c0.49804,-0.14452 0.70858,0.35732 1.08687,0.48302c0.19622,0.16867 0.21424,0.46086 0.46314,0.64625c0.397,0.13861 0.79462,0.02061 1.02028,-0.33988c0.24273,-0.35058 0.19359,-0.82577 -0.11574,-1.11926c-0.26126,-0.08376 -0.3886,0.1274 -0.57448,0.15024c-0.3382,-0.08051 -0.7038,-0.02417 -1.02432,-0.20055c-0.22407,-0.12758 -0.39063,-0.32322 -0.57877,-0.49199c-0.72884,-0.65386 -0.79186,-1.14169 -0.33439,-2.01072c0.41969,-0.79727 1.01923,-1.44304 1.65407,-2.06128c0.29927,-0.29477 0.55897,-0.62717 0.77257,-0.98886c0.1183,-0.08801 0.23661,-0.17603 0.35492,-0.26404c0.57395,0.21174 0.89966,-0.37254 1.42863,-0.43875c0.4079,0.12534 0.71484,0.43319 1.01396,0.77495c0.03826,0.50958 0.01456,1.00074 -0.2768,1.44464c-0.32362,0.03758 -0.66876,-0.29672 -0.95699,0.11917c0.59117,0.00444 0.95729,0.39755 1.3702,0.70593c0.36893,0.36304 0.79795,0.70551 0.46874,1.3167z" fill="#004e06"/><path d="M245.90807,158.66056c0.08098,-0.08298 0.16196,-0.16597 0.24295,-0.24894c0.41462,-0.11904 0.82858,-0.19644 1.23304,-0.3987c0.59638,-0.29824 1.46559,0.42849 1.38604,1.09993c-0.03876,0.32702 -0.02336,0.68661 -0.32408,0.93621c-0.24663,0.10689 -0.54187,-0.17051 -0.81973,0.13046c0.48362,0.19042 0.93382,0.45667 1.33367,0.78876c0.36261,0.35184 0.67094,0.71934 0.35979,1.26224c-0.53937,1.26842 -1.38919,2.38076 -2.47121,3.2346c-0.10469,0.40417 -0.01764,0.84924 -0.52895,1.00521c-0.11416,-0.07294 -0.25293,-0.16158 -0.40012,-0.25561c-0.37234,0.20222 -0.73875,0.40664 -1.11031,0.60119c-0.26943,0.14107 -0.52524,0.16215 -0.71591,-0.13557c0.06121,-0.43434 0.14034,-0.86186 0.42288,-1.21849c0.54395,-0.00276 1.09743,0.51474 1.55578,-0.05449c0.27608,-0.34288 0.23728,-0.77427 0.20486,-1.14562c-0.41748,-0.31585 -0.61004,0.14557 -0.90696,0.15002c-0.62543,-0.13706 -1.18399,-0.38162 -1.63247,-0.86848c-0.5847,-0.63472 -0.66044,-1.03793 -0.25415,-1.80624c0.13931,-0.28162 0.31277,-0.54501 0.51645,-0.78423l-0.00183,0.00243c0.29827,-0.48845 0.74657,-0.84863 1.13792,-1.24836c0.30089,-0.31449 0.56043,-0.66609 0.77234,-1.04627z" fill="#004e06"/><path d="M248.7787,161.0562c-0.41388,-0.35278 -0.80535,-0.75265 -1.44309,-0.63065c-0.0865,-0.50532 0.31473,-0.49142 0.46919,-0.59436c0.29744,-0.08605 0.39566,0.17951 0.61448,0.14583c0.19697,-0.3804 0.13742,-0.81465 0.26713,-1.23097c-0.34049,-0.25839 -0.61015,-0.58098 -0.98356,-0.74877c-0.37799,0.06406 -0.55275,0.42288 -0.88661,0.50958c-0.23446,0.06556 -0.42523,-0.18462 -0.66523,-0.09531c0.48037,-0.31512 0.91592,-0.70017 1.58436,-0.54288c0.34495,0.08117 0.62302,-0.33169 0.98101,-0.26012c0.33682,-0.75666 0.82631,-1.43559 1.43779,-1.99423c0.40588,-0.38223 0.60225,-0.9849 1.20894,-1.15541c0.0798,0.36534 -0.12449,0.5944 -0.37644,0.80939c-0.57742,0.49266 -1.14811,0.98325 -1.565,1.64057c-0.36686,0.57843 -0.5769,1.16692 -0.45641,1.9264c0.58132,0.40816 0.99426,1.22756 1.97484,0.97742c0.28046,0.21884 0.09076,0.41657 -0.05031,0.58383c-0.20657,0.24491 -0.46367,0.43251 -0.7319,0.48347c-0.37951,0.03071 -0.58307,-0.26787 -0.87033,-0.28841c-0.28298,0.04696 -0.2731,0.38651 -0.50888,0.4646z" fill="#5a6e66"/><path d="M243.99965,160.95276c-0.18194,0.42516 -0.36976,0.84793 -0.54417,1.27617c-0.17166,0.42147 -0.07647,0.79358 0.26807,1.08368c0.44263,0.37267 0.80878,0.88815 1.49541,0.83305c0.12272,-0.00984 0.16703,0.10956 0.21212,0.20527c-0.10167,0.79096 -0.65558,0.961 -1.64619,0.50471c-0.24459,0.03139 -0.25442,0.31734 -0.44319,0.40925c-0.38762,-0.08342 -0.59417,-0.46282 -0.95187,-0.57933c-0.20812,-0.1053 -0.40746,0.14615 -0.64548,-0.02234c-0.04792,-0.45868 0.40073,-0.43191 0.59526,-0.59843c0.26649,-0.06662 0.34711,0.18834 0.57771,0.22793c0.16136,-0.41807 0.19741,-0.86105 0.22601,-1.32454c-0.30945,-0.2509 -0.6161,-0.49952 -0.94687,-0.76772c-0.30998,0.22134 -0.59764,0.42673 -0.86299,0.6162c-0.24987,0.05233 -0.34908,-0.17295 -0.52836,-0.2209c0.4672,-0.20576 0.90912,-0.44468 1.43477,-0.53524c0.52658,-0.09073 1.09099,-0.22116 1.38014,-0.79719c0.06696,-0.1334 0.25002,-0.20859 0.37964,-0.31057z" fill="#586d65"/><path d="M238.13101,168.81822c-0.08036,0.19505 -0.15514,0.39262 -0.24211,0.58467c-0.29062,0.64176 -0.00283,1.08555 0.49257,1.46084c-0.32236,0.06325 -0.66561,0.01109 -0.93496,0.18869c-0.65175,-0.26524 0.05713,-0.81485 -0.37456,-1.11257c0.45567,-0.27907 0.35993,-0.78873 0.67617,-1.09466c0.15875,-0.15357 0.08666,-0.50627 -0.02523,-0.59016c-0.88877,-0.66641 -0.30025,-1.32982 -0.03314,-1.99071c0.24747,-0.60143 0.60441,-1.15171 1.05269,-1.62289c0.56395,-0.59693 0.97606,-1.34595 1.70761,-1.78167c-0.00219,0.40981 -0.20337,0.6904 -0.5106,0.95974c-0.7293,0.63938 -1.44048,1.30186 -1.82503,2.23221c-0.37652,0.91089 -0.32475,1.1735 0.4056,1.80754c0.17266,0.14988 0.33281,0.31416 0.49871,0.47181c0.14432,0.22134 -0.01494,0.27863 -0.18017,0.32806c-0.23202,0.06942 -0.49183,0.01618 -0.70755,0.15909z" fill="#64746c"/><path d="M243.34169,165.2649c0.0066,-0.10331 0.0267,-0.20532 0.05979,-0.3034c0.07877,-0.14457 0.16575,-0.28451 0.26052,-0.41913c1.0918,0.56486 1.34857,0.53543 1.76866,-0.19102c0.09237,-0.40406 0.44785,-0.36817 0.75146,-0.44699c0.74105,0.39263 -0.03307,1.00258 0.24772,1.42102c-0.20901,0.2517 -0.47979,0.44483 -0.78585,0.56047c-0.36074,-0.03728 -0.70937,-0.15116 -1.02257,-0.33402c-0.3281,0.32671 -0.14975,0.85733 -0.52818,1.12843c-0.08011,-0.05384 -0.16023,-0.10776 -0.24037,-0.16176c0.05848,-0.51119 -0.20375,-0.89161 -0.51121,-1.25359z" fill="#003303"/><path d="M248.7787,161.0562c0.08599,-0.275 0.1257,-0.57549 0.41133,-0.7519c0.36507,0.01473 0.50459,0.43997 0.91263,0.47249c0.32784,-0.24004 0.89137,-0.31674 0.83771,-0.96414c0.21801,-0.07195 0.43626,-0.14395 0.69529,-0.22941c0.11428,0.19762 0.23519,0.4067 0.36273,0.62723c-0.0921,0.3205 -0.22377,0.63231 -0.17376,0.93747c-0.28053,0.41612 -0.77395,0.27259 -1.03948,0.5227c-0.37465,-0.0337 -0.37753,-0.42569 -0.63248,-0.53096c-0.50393,0.34656 -0.44426,0.87029 -0.45475,1.37122c-0.12602,-0.09338 -0.25206,-0.18685 -0.3781,-0.28044c-0.00239,-0.47333 -0.04904,-0.92631 -0.54113,-1.17425z" fill="#003303"/><path d="M254.27396,156.77582l-0.87021,-0.64301c-0.18537,0.01532 -0.38514,0.03184 -0.60512,0.05002c-0.10966,-0.52963 0.33358,-0.5103 0.54968,-0.66936c0.26293,0.01561 0.40507,0.31108 0.66931,0.19323c0.10486,0.35161 0.43358,0.64975 0.25633,1.0691z" fill="#5d736a"/><path d="M245.90807,158.66056c0.01845,0.36104 -0.11926,0.62046 -0.40711,0.86433c-0.52686,0.44636 -1.00491,0.95026 -1.50323,1.43025c0.16287,-0.62535 0.75352,-0.9223 1.10867,-1.40302c0.22895,-0.30991 0.32603,-0.78911 0.80167,-0.89155z" fill="#586d65"/><path d="M242.33167,171.87907c-0.0041,0.14822 -0.08378,0.28403 -0.21116,0.35992c-0.48358,0.34123 -0.96133,0.69073 -1.44126,1.03711c0.35612,-0.69577 1.02348,-1.02368 1.65242,-1.39703z" fill="#6f6b6a"/><path d="M243.09408,171.2432c-0.13994,0.24683 -0.40142,0.41259 -0.43992,0.75796c-0.13688,-0.05239 -0.22908,-0.08768 -0.32127,-0.12297c0.21748,-0.25509 0.28115,-0.69435 0.76119,-0.63499z" fill="#6f6b6a"/><path d="M239.65977,174.04063c-0.13077,0.42537 -0.46399,0.75819 -0.88952,0.88844c0.19591,-0.39677 0.57246,-0.61285 0.88952,-0.88844z" fill="#6f6b6a"/><path d="M240.67712,173.27768c-0.2802,0.23356 -0.54002,0.49564 -0.8883,0.63384c0.10306,-0.48158 0.45987,-0.60785 0.8883,-0.63384z" fill="#6f6b6a"/><path d="M235.5967,181.80153c-0.31569,-0.45765 0.02638,-0.8341 0.16623,-1.22716c0.08279,-0.23269 0.23276,-0.44148 0.3525,-0.66102c0.65939,-0.72737 1.51984,-1.21229 2.24477,-1.86109c0.29161,-0.03644 0.5761,-0.08811 0.76016,-0.35518c0.26352,-0.2907 0.57529,-0.53368 0.92156,-0.7182c-0.27009,0.6819 -0.54016,1.36371 -0.79086,1.99657c-0.25552,0.16438 -0.47034,-0.07079 -0.77721,0.15523c-0.51702,0.9749 -1.34782,1.84859 -2.37915,2.53183c-0.12755,0.18395 -0.2841,0.26409 -0.498,0.13902z" fill="#200900"/><path d="M239.12035,177.69708c0.06441,0.22718 -0.08569,0.34738 -0.23632,0.47217c-0.16859,0.09748 -0.31693,-0.06818 -0.48134,-0.04473c-0.6277,0.34861 -1.20571,0.77999 -1.7185,1.28257c-0.15227,0.1545 -0.30463,0.35935 -0.56596,0.36853c-0.01663,-0.01337 -0.03322,-0.02688 -0.04976,-0.04056c0.16764,-0.43429 0.62337,-0.64037 0.88291,-1.11198c-0.28296,0 -0.5159,0 -0.74907,0.00007c0.22146,-0.381 0.63603,-0.55888 0.92091,-0.87328c0.29442,-0.13507 0.58882,-0.27024 0.88319,-0.40552c0.44201,-0.10545 0.75943,0.18212 1.11395,0.35273z" fill="#6d011d"/><path d="M253.28792,166.6626c0.20568,0.42114 0.08222,0.85764 0.08158,1.31042c-0.57457,0.22701 -1.12271,0.01967 -1.6729,-0.03937c0.48616,-0.47872 1.04084,-0.87226 1.59132,-1.27106z" fill="#1e0902"/><path d="M236.11823,179.77562c0.59019,-0.48763 1.011,-1.17599 1.75687,-1.47941c0.17187,-0.06992 0.32619,-0.19202 0.52744,-0.17183c-0.68055,0.6941 -1.44958,1.29551 -2.28723,1.78871c0.00104,-0.04565 0.00197,-0.09156 0.00291,-0.13747z" fill="#4e484d"/><path d="M241.03581,176.98551c0.19046,-0.56078 0.2829,-0.97457 0.59386,-1.26993c0.27526,-0.04385 0.41045,0.09719 0.51363,0.31431c-0.24034,0.39408 -0.65667,0.57819 -1.10749,0.95562z" fill="#200802"/><path d="M235.5967,181.80153c0.166,-0.04633 0.332,-0.09266 0.498,-0.139c0.27594,0.04872 0.57456,-0.0525 0.86268,0.09156c-0.50717,0.54279 -0.8346,0.54611 -1.36068,0.04744z" fill="#be0027"/><path d="M257.99997,162.7263c0.18369,-0.00225 0.3426,-0.19724 0.54298,-0.06974c0.12359,1.39089 -1.82922,3.63166 -3.19306,3.58582c-0.06584,-0.67426 0.34541,-1.18168 0.60749,-1.73552c0.6066,-0.67863 1.41213,-1.12927 2.04259,-1.78056z" fill="#1e0a00"/><path d="M257.99997,162.7263c0.02391,0.24326 -0.13623,0.36722 -0.30481,0.49878c-0.56782,0.44308 -1.10261,0.9303 -1.73791,1.28174c0.46495,-0.80334 1.18343,-1.4296 2.04272,-1.78052z" fill="#515055"/><path d="M221.21125,188.52791c0.01273,0.0528 0.02545,0.10558 0.04328,0.17948c0.07833,-0.06746 0.14276,-0.12294 0.20718,-0.17841c0.18887,0.0392 0.39547,-0.01219 0.56875,0.1106c0.25399,0.35588 0.6644,0.62357 0.64211,1.13535c-0.21897,0.3813 -0.56398,0.61214 -0.95,0.79394c-0.50824,-0.67817 -1.01647,-1.35634 -1.52471,-2.0345c0.33606,-0.27403 0.67436,-0.19747 1.01338,-0.00645z" fill="#007a0a"/><path d="M221.72257,190.56886c0.20564,-0.3792 0.587,-0.55111 0.92046,-0.77953c0.06416,-0.02101 0.09895,0.00007 0.09987,0.06965c-0.0631,0.60145 0.06844,1.20728 0.37529,1.7284c-0.33534,0.21875 -0.67065,0.43758 -1.00591,0.65647c0.06887,-0.60437 -0.14586,-1.14307 -0.38971,-1.675z" fill="#014d03"/><path d="M217.78331,187.25402c-0.40567,0.11114 -0.65085,0.4778 -1.02321,0.64201c0.07697,-0.57786 -0.05679,-1.16411 -0.37678,-1.65139c0.14146,-0.47409 0.43014,-0.78021 0.94547,-0.82803c0.02453,0.01929 0.04902,0.03872 0.07348,0.05829c-0.29975,0.68435 0.18145,1.20161 0.38105,1.77912z" fill="#004a02"/><path d="M217.78272,187.99704c0.07747,-0.077 0.15488,-0.15402 0.23223,-0.23105c0.48176,0.41201 0.85993,0.91051 1.23552,1.4394c-0.32265,0.19106 -0.61879,0.36641 -0.95441,0.56515c-0.28404,-0.58717 -0.73419,-1.07601 -0.51334,-1.7735z" fill="#004803"/><path d="M221.21125,188.52791c-0.33779,0.00215 -0.67558,0.0043 -1.01338,0.00644c-0.27028,-0.43983 -0.0349,-0.86526 -0.01101,-1.35672c0.60578,0.31519 0.77363,0.86411 1.02438,1.35028z" fill="#004203"/><path d="M221.91441,188.66557c-0.13875,-0.08555 -0.39944,0.23273 -0.45261,-0.13656c0.01108,-0.18382 0.02226,-0.36761 0.03642,-0.60054c0.31914,-0.25051 0.65441,-0.51368 0.98969,-0.77669c0.00968,0.34833 0.0432,0.69958 -0.13243,1.02381c-0.1474,0.16299 -0.16866,0.43942 -0.44108,0.48998z" fill="#044c02"/><path d="M216.88249,183.81145c0.53263,0.26478 0.50434,0.91615 0.88628,1.28473c-0.08106,0.1604 -0.20885,0.29245 -0.3665,0.37874l0.00201,0.00652c-0.45978,-0.2713 -0.70483,-0.70291 -0.8855,-1.18371c0.00153,-0.25147 0.03548,-0.47924 0.36372,-0.48629z" fill="#b98401"/><path d="M219.51331,187.54125c-0.49172,-0.2722 -0.71293,-0.64473 -0.81478,-1.12843c0.46297,-0.32918 0.69215,0.02746 0.97646,0.27017c-0.01496,0.27958 0.11039,0.57381 -0.16167,0.85825z" fill="#005c05"/><path d="M220.69064,191.24216c-0.26412,0.10998 -0.55994,0.11662 -0.82873,0.01859c-0.0795,-0.36536 -0.04744,-0.73453 0.00116,-1.18805c0.43765,0.31167 0.66331,0.68121 0.82757,1.16946z" fill="#004703"/><path d="M223.00475,192.44592c0.11834,-0.07716 0.23662,-0.15435 0.35486,-0.23154c0.57705,0.30887 0.75068,0.98449 1.337,1.3628c-0.33483,0.21665 -0.60248,0.38984 -0.88276,0.57119c-0.67942,-0.39558 -0.66712,-1.08617 -0.8091,-1.70245z" fill="#004a03"/><path d="M226.55307,192.97655c-0.38973,0.06905 -0.74661,-0.14244 -1.12937,-0.13225c-0.05974,-0.40322 0.12033,-0.77291 0.13869,-1.22706c0.53391,0.35612 0.85746,0.78665 0.99067,1.35931z" fill="#004103"/><path d="M225.01745,191.07041c-0.00263,0.29097 0.10385,0.59318 -0.1857,0.8735c-0.52707,-0.21241 -0.68666,-0.65756 -0.77582,-1.16868c0.43838,-0.21797 0.68924,0.05636 0.96152,0.29518z" fill="#005c05"/><path d="M221.91441,188.66557c0.0832,-0.22081 0.08123,-0.51822 0.44115,-0.49004c0.2794,0.46459 0.57122,0.92354 0.6654,1.47159c-0.09249,0.07033 -0.18518,0.1409 -0.27807,0.21171c-0.02266,-0.03557 -0.05864,-0.06058 -0.09987,-0.06944c-0.14241,-0.43971 -0.52643,-0.72287 -0.72859,-1.12383z" fill="#bd8400"/><path d="M225.31986,194.54399c0.35229,0.27295 0.60357,0.65551 0.71414,1.08722c-0.30643,0.02248 -0.56475,0.04143 -0.86654,0.06357c0.02113,-0.40473 -0.10349,-0.77718 0.1524,-1.1508z" fill="#004302"/><path d="M216.57133,184.33984c0.27763,0.38053 0.55528,0.76106 0.83293,1.14159c-0.4973,0.0446 -0.66281,0.53262 -1.02095,0.76319c-0.41315,-0.82614 -1.17461,-1.38937 -1.64267,-2.17408c0.40928,-0.25516 0.77142,-0.10389 1.12392,0.13028c0.24764,0.0867 0.09748,-0.24393 0.25946,-0.24709c0.16235,0.1125 0.31231,0.24193 0.44732,0.3861z" fill="#007609"/><path d="M215.86455,184.20084c-0.37472,-0.04336 -0.7494,-0.08675 -1.12403,-0.13017c-0.02331,-0.4001 -0.02461,-0.79713 0.1702,-1.20502c0.49775,0.32755 0.82514,0.75746 0.95384,1.33519z" fill="#004003"/><path d="M216.57133,184.33984c-0.1184,-0.01076 -0.23679,-0.02152 -0.38192,-0.03471c-0.02294,-0.12338 -0.04413,-0.23736 -0.06535,-0.35137c0.02928,-0.65956 0.62339,-0.81973 1.02095,-1.15379c-0.02207,0.35405 0.12879,0.75305 -0.26247,1.01152c-0.21603,0.11003 -0.27914,0.31005 -0.3112,0.52834z" fill="#054b02"/><path d="M214.33369,182.21091c0.00346,0.36455 0.08761,0.6809 -0.18932,0.98349c-0.41208,-0.31935 -0.70284,-0.66581 -0.77558,-1.18448c0.38675,-0.21226 0.65128,0.00213 0.96489,0.20099z" fill="#005a05"/><path d="M214.65116,185.75212c0.3232,0.29095 0.56658,0.65976 0.707,1.07134c-0.29632,0.04835 -0.54975,0.0897 -0.83362,0.13601c-0.0762,-0.40517 -0.09803,-0.76813 0.12661,-1.20735z" fill="#004302"/><path d="M239.94728,168.56977c0.167,-0.25266 0.33541,-0.50216 0.72401,-0.2981c0.38371,0.40549 0.2596,0.90808 0.22228,1.40638c-0.46504,0.34395 -0.90965,0.69224 -1.53832,0.32586c-0.0697,-0.22233 -0.13761,-0.43896 -0.20551,-0.65558c0.1841,-0.34317 0.55513,-0.49505 0.79754,-0.77857z" fill="#003102"/><path d="M239.94728,168.56977c-0.01714,0.514 -0.49108,0.56043 -0.79751,0.77847c-0.45914,0.05296 -0.59659,-0.51182 -1.01875,-0.52997c0.15812,-0.41329 0.7013,-0.12568 0.88776,-0.48725c0.28279,0.1833 0.69735,-0.14536 0.9285,0.23875z" fill="#496157"/></g></g></g></svg>