<svg version="1.1" xmlns="http://www.w3.org/2000/svg" xmlns:xlink="http://www.w3.org/1999/xlink" width="98.9" height="32.87771" viewBox="0,0,98.9,32.87771"><g transform="translate(-367.14887,-315.95183)"><g data-paper-data="{&quot;isPaintingLayer&quot;:true}" fill-rule="nonzero" stroke="none" stroke-width="1" stroke-linecap="butt" stroke-linejoin="miter" stroke-miterlimit="10" stroke-dasharray="" stroke-dashoffset="0" style="mix-blend-mode: normal"><text transform="translate(367.79887,341.40183) scale(0.5,0.5)" font-size="40" xml:space="preserve" fill="none" fill-rule="nonzero" stroke="none" stroke-width="1" stroke-linecap="butt" stroke-linejoin="miter" stroke-miterlimit="10" stroke-dasharray="" stroke-dashoffset="0" font-family="Pixel" font-weight="normal" text-anchor="start" style="mix-blend-mode: normal"><tspan x="0" dy="0">Loading...</tspan></text><g fill="#ffffff"><path d="M396.57809,335.9247l2.85089,0.01417c0,0.1682 -0.00945,0.45602 -0.02834,0.86345c-0.01872,0.40727 -0.02802,0.62485 -0.02789,0.65273v6.09442h3.13109v2.30287h-5.99569c0,-0.72997 0.01173,-1.6568 0.03519,-2.78049c0.02332,-1.12308 0.0349,-1.77825 0.03474,-1.9655z"/><path d="M406.82887,338.81718c1.03275,-0.04176 2.04714,0.28213 2.86461,0.91465c0.80659,0.65922 1.2543,1.66076 1.2076,2.70142c0.05735,1.05158 -0.38505,2.06852 -1.19348,2.74347c-0.83847,0.63225 -1.8719,0.95085 -2.92082,0.90048c-1.03129,0.04751 -2.04908,-0.24952 -2.89295,-0.84426c-0.82649,-0.63353 -1.28848,-1.63306 -1.23552,-2.67308c-0.04347,-1.06616 0.41353,-2.09143 1.23552,-2.77182c0.83005,-0.66551 1.87186,-1.01013 2.93504,-0.97087zM406.78682,343.97092c0.40614,0.01805 0.79944,-0.14462 1.07417,-0.4443c0.27161,-0.30915 0.41469,-0.71046 0.39995,-1.12171c0.0134,-0.38917 -0.13388,-0.76671 -0.40727,-1.044c-0.59364,-0.55888 -1.5244,-0.54327 -2.09897,0.0352c-0.28024,0.28293 -0.43463,0.66685 -0.4283,1.06502c-0.01291,0.39819 0.13066,0.78559 0.39995,1.0792c0.27444,0.29034 0.6613,0.44742 1.06046,0.43059z"/><path d="M416.6582,339.05625l2.63971,-0.01417c-0.02788,0.24363 -0.04662,0.50097 -0.05622,0.77203c-0.00914,0.27196 -0.01385,0.58096 -0.01416,0.92698c0,0.58965 0.00945,1.55854 0.02834,2.90667c0.01872,1.34797 0.02802,2.06408 0.02789,2.14834h-2.6676l0.04205,-0.54763c-0.30243,0.24284 -0.63934,0.43927 -0.99966,0.5828c-1.21711,0.44416 -2.58115,0.14913 -3.50591,-0.75832c-0.59387,-0.70175 -0.90051,-1.60206 -0.85843,-2.52041c-0.03631,-0.94711 0.26192,-1.87678 0.84242,-2.62601c0.60129,-0.7408 1.51836,-1.15244 2.47151,-1.10937c0.37667,-0.00141 0.74956,0.07515 1.09519,0.2249c0.34488,0.15576 0.66628,0.359 0.95485,0.6038zM415.4506,343.92841c0.38733,0.01453 0.76081,-0.14513 1.01794,-0.43516c0.26058,-0.29867 0.39857,-0.68484 0.38625,-1.08102c0.01253,-0.37822 -0.12367,-0.7463 -0.37938,-1.02527c-0.2577,-0.27369 -0.62136,-0.42225 -0.99698,-0.40727c-0.40368,-0.01375 -0.79591,0.1355 -1.08833,0.41413c-0.56031,0.60259 -0.57237,1.53186 -0.02789,2.1488c0.29686,0.26851 0.68865,0.40737 1.08835,0.38575z"/><path d="M425.30777,335.34877h2.55563v10.48937h-2.55563v-0.58965c-0.26675,0.27137 -0.58712,0.48418 -0.9407,0.62485c-0.36761,0.13964 -0.75823,0.2088 -1.15144,0.20387c-0.92249,0.03538 -1.80928,-0.35881 -2.40111,-1.06732c-0.57845,-0.71235 -0.87804,-1.61078 -0.84288,-2.52773c-0.04493,-0.96502 0.27323,-1.91186 0.89179,-2.65392c0.64703,-0.69644 1.57145,-1.06728 2.52041,-1.01109c0.69917,0.01091 1.37903,0.2311 1.95183,0.63217zM422.62555,342.52418c-0.00754,0.3661 0.14046,0.71824 0.40727,0.96903c0.26579,0.25998 0.62523,0.40171 0.99692,0.3931c0.38959,0.01568 0.76911,-0.12598 1.05314,-0.3931c0.27622,-0.27338 0.42413,-0.6507 0.40727,-1.03897c0.01097,-0.39227 -0.13268,-0.77313 -0.39996,-1.06045c-0.26608,-0.28507 -0.64238,-0.44122 -1.03212,-0.4283c-0.39769,-0.01811 -0.78226,0.14451 -1.04628,0.44246c-0.26325,0.311 -0.40098,0.70904 -0.38625,1.11623z"/><path d="M430.19209,335.64412c0.36649,-0.01223 0.72173,0.12759 0.98155,0.38635c0.26782,0.25695 0.41767,0.61309 0.41414,0.98423c0.01632,0.36657 -0.12716,0.72218 -0.3933,0.97479c-0.26179,0.25373 -0.61263,0.39467 -0.9772,0.39255c-0.36057,0.01431 -0.71174,-0.11705 -0.97438,-0.36451c-0.26371,-0.24481 -0.4115,-0.58979 -0.40678,-0.94958c-0.00746,-0.36899 0.13428,-0.7254 0.39311,-0.9885c0.24503,-0.27463 0.59482,-0.43277 0.96287,-0.43532zM428.94946,339.10241l2.59783,-0.03733l0.09726,6.76794l-2.63991,0.03794l-0.00859,-3.52443z"/><path d="M432.84951,342.69288c0,-0.54303 -0.00472,-0.98762 -0.01416,-1.33379c-0.03748,-1.36671 -0.05622,-2.11573 -0.05622,-2.24707h2.626v0.75877c0.24343,-0.22355 0.50051,-0.43177 0.76975,-0.62346c0.4606,-0.29033 0.99603,-0.43968 1.54041,-0.42968c0.7038,-0.06041 1.39144,0.2337 1.83387,0.78437c0.3811,0.596 0.56249,1.29788 0.51788,2.0039v1.93441c0,0.26146 0.00945,0.70058 0.02835,1.31735c0.01828,0.61616 0.02757,0.94771 0.02788,0.99464h-2.66806v-3.72074c0.01098,-0.30446 -0.08599,-0.603 -0.2738,-0.84288c-0.19185,-0.22932 -0.48084,-0.35441 -0.77934,-0.33733c-0.32844,-0.00502 -0.63097,0.17775 -0.77934,0.47081c-0.18119,0.30867 -0.27577,0.66049 -0.27381,1.0184c0,0.3931 0.00945,1.04583 0.02835,1.95819c0.01828,0.91327 0.02758,1.39779 0.02788,1.45355h-2.62601c0,-0.34648 0.01173,-0.87062 0.0352,-1.5724c0.02331,-0.7021 0.03504,-1.2311 0.03519,-1.58703z"/><path d="M446.20304,339.05625h2.65392v6.38925c0.05259,0.92826 -0.307,1.83245 -0.98275,2.47105c-0.71313,0.61061 -1.63189,0.92699 -2.56978,0.88493c-1.09165,0.10738 -2.19147,-0.09475 -3.1736,-0.58325c-0.56504,-0.45773 -0.93616,-1.11213 -1.03897,-1.832h2.62601c0.11038,0.20615 0.28208,0.37291 0.49137,0.47721c0.24327,0.08556 0.50069,0.12373 0.75832,0.11245c0.40193,0.01965 0.78314,-0.17926 0.99692,-0.52018c0.20927,-0.34633 0.31182,-0.74666 0.29482,-1.15096v-0.22493c-0.31669,0.21425 -0.65976,0.38664 -1.02069,0.51286c-0.34679,0.11768 -0.7107,0.17699 -1.07691,0.17552c-0.90526,0.05496 -1.78872,-0.29188 -2.41482,-0.94802c-0.59421,-0.70655 -0.8985,-1.61209 -0.85157,-2.5341c-0.03694,-0.91989 0.28833,-1.81758 0.90596,-2.5003c0.6346,-0.65846 1.52233,-1.0113 2.4358,-0.96812c0.36642,-0.00377 0.7297,0.06779 1.06732,0.21026c0.33329,0.15503 0.65273,0.33824 0.95485,0.54763zM443.54912,342.42594c0.00191,0.36022 0.14869,0.70452 0.40727,0.95533c0.2446,0.26874 0.59145,0.4215 0.95485,0.42053c0.41519,0.02146 0.81949,-0.13713 1.10937,-0.43515c0.27945,-0.31112 0.42569,-0.71946 0.40727,-1.13725c0.01312,-0.37113 -0.13548,-0.72968 -0.40727,-0.98275c-0.26963,-0.25241 -0.6277,-0.38867 -0.99692,-0.37938c-0.40473,-0.01502 -0.79541,0.14961 -1.06732,0.44977c-0.27303,0.30367 -0.41883,0.70071 -0.40722,1.10891z"/><path d="M451.87649,343.09363c0.40194,-0.00763 0.78916,0.15125 1.06991,0.43899c0.28953,0.2859 0.4482,0.67865 0.43849,1.08545c0.01211,0.40209 -0.15078,0.78967 -0.4465,1.06239c-0.29097,0.27402 -0.6778,0.423 -1.07742,0.41493c-0.3955,0.01002 -0.77837,-0.13953 -1.06239,-0.41493c-0.28523,-0.27252 -0.44181,-0.65301 -0.43096,-1.04736c-0.00236,-0.40462 0.15864,-0.79309 0.44651,-1.07744c0.27294,-0.29719 0.65887,-0.46504 1.06238,-0.46203z"/><path d="M459.48252,343.21064c0.40194,-0.00763 0.78916,0.15125 1.06991,0.43899c0.28953,0.2859 0.4482,0.67865 0.43849,1.08545c0.01211,0.40209 -0.15078,0.78967 -0.4465,1.06239c-0.29097,0.27402 -0.6778,0.423 -1.07742,0.41493c-0.3955,0.01002 -0.77837,-0.13953 -1.06239,-0.41493c-0.28523,-0.27252 -0.44181,-0.65301 -0.43096,-1.04736c-0.00236,-0.40462 0.15864,-0.79309 0.44651,-1.07744c0.27294,-0.29719 0.65887,-0.46504 1.06238,-0.46203z"/><path d="M455.62099,343.21064c0.40194,-0.00763 0.78916,0.15125 1.06991,0.43899c0.28953,0.2859 0.4482,0.67865 0.43849,1.08545c0.01211,0.40209 -0.15078,0.78967 -0.4465,1.06239c-0.29097,0.27402 -0.6778,0.423 -1.07742,0.41493c-0.3955,0.01002 -0.77837,-0.13953 -1.06239,-0.41493c-0.28523,-0.27252 -0.44181,-0.65301 -0.43096,-1.04736c-0.00236,-0.40462 0.15864,-0.79309 0.44651,-1.07744c0.27294,-0.29719 0.65887,-0.46504 1.06238,-0.46203z"/></g></g></g></svg>