<svg version="1.1" xmlns="http://www.w3.org/2000/svg" xmlns:xlink="http://www.w3.org/1999/xlink" width="218.71977" height="24.4283" viewBox="0,0,218.71977,24.4283"><g transform="translate(-130.4665,-168.13037)"><g data-paper-data="{&quot;isPaintingLayer&quot;:true}" fill="#000000" fill-rule="nonzero" stroke="none" stroke-width="1" stroke-linecap="butt" stroke-linejoin="miter" stroke-miterlimit="10" stroke-dasharray="" stroke-dashoffset="0" style="mix-blend-mode: normal"><g><path d="M132.48196,168.17822l1.104,0.61231c-0.4113,0.77794 -0.73523,1.59902 -0.96585,2.44824c-0.20559,0.84035 -0.30435,1.70329 -0.29394,2.56836c-0.00537,0.5749 0.04071,1.14913 0.13769,1.71582c0.09486,0.51475 0.23339,1.02049 0.4141,1.51172c0.0962,0.26367 0.32016,0.80371 0.67188,1.62011l-1.05566,0.66016c-0.47948,-0.82279 -0.85057,-1.70412 -1.10405,-2.62207c-0.25523,-0.91636 -0.38451,-1.86321 -0.38428,-2.81445c-0.0039,-0.66804 0.05446,-1.33498 0.17432,-1.99219c0.11843,-0.62513 0.28895,-1.23925 0.50979,-1.83594c0.16013,-0.43164 0.42413,-1.05566 0.792,-1.87207z"/><path d="M136.37011,171.45752v3.23144c-0.01121,0.25771 0.06258,0.51196 0.21,0.72364c0.15409,0.19422 0.39435,0.29954 0.6416,0.28125c0.30128,0.02534 0.59203,-0.11731 0.75635,-0.3711c0.14242,-0.26804 0.20878,-0.56994 0.1919,-0.873c0,-0.45508 -0.00407,-0.82618 -0.01221,-1.11329c-0.03174,-1.14062 -0.04769,-1.76692 -0.04785,-1.8789h2.24406v3.36519c0.05959,0.78653 -0.27816,1.55073 -0.8999,2.03614c-0.66537,0.4212 -1.44637,0.62243 -2.23243,0.57519c-0.76775,0.05146 -1.5321,-0.14133 -2.18359,-0.55078c-0.59853,-0.48935 -0.9173,-1.24235 -0.85205,-2.0127l-0.07223,-3.41308z"/><path d="M141.31347,174.5415c0,-0.46386 -0.00391,-0.84374 -0.01172,-1.13965c-0.03222,-1.16796 -0.04817,-1.80793 -0.04785,-1.91992h2.24365v0.64744c0.20846,-0.19053 0.42826,-0.36826 0.65821,-0.53222c0.39348,-0.24803 0.85086,-0.37565 1.31591,-0.36719c0.6014,-0.05148 1.18899,0.19966 1.56739,0.66992c0.32577,0.50946 0.4809,1.1094 0.4429,1.71291v1.65332c0,0.22266 0.00781,0.59864 0.02392,1.125c0.01563,0.52733 0.0236,0.81086 0.02393,0.85059h-2.2803v-3.17969c0.00935,-0.26028 -0.07348,-0.51551 -0.23389,-0.7207c-0.1642,-0.19561 -0.41101,-0.30237 -0.666,-0.28809c-0.28064,-0.00416 -0.53912,0.15199 -0.666,0.40235c-0.15457,0.26382 -0.23536,0.56435 -0.23389,0.87011c0,0.33594 0.00798,0.89388 0.02393,1.67383c0.01611,0.78027 0.02408,1.19434 0.02392,1.24219h-2.24368c0,-0.2959 0.00993,-0.74382 0.02979,-1.34375c0.02002,-0.60058 0.02978,-1.05176 0.02978,-1.35645z"/><path d="M148.66943,168.26611h2.26807v8.97559l-2.26807,-0.01172c0,-0.69629 0.00602,-1.58431 0.01807,-2.66406c0.0122,-1.08008 0.01822,-1.7041 0.01806,-1.87207z"/><path d="M153.1455,168.51807c0.31332,-0.00637 0.61526,0.11737 0.834,0.34179c0.22602,0.22252 0.34991,0.52863 0.34228,0.84571c0.00948,0.31345 -0.11754,0.61559 -0.34814,0.82812c-0.22668,0.2139 -0.52824,0.33032 -0.83985,0.32422c-0.3084,0.00765 -0.60689,-0.10921 -0.82812,-0.32422c-0.22255,-0.21228 -0.34464,-0.50898 -0.33594,-0.81641c-0.00187,-0.31543 0.12366,-0.61825 0.34815,-0.83984c0.21284,-0.23115 0.51341,-0.36166 0.82762,-0.35937zM152.0415,171.45752h2.22021v5.78418h-2.25586l0.03565,-3.01172z"/><path d="M154.99316,173.45361c0,-0.22461 -0.00798,-0.60515 -0.02393,-1.1416c-0.01611,-0.53711 -0.02409,-0.82194 -0.02392,-0.85449h2.23193v0.71973c0.2273,-0.30789 0.53731,-0.54494 0.894,-0.6836c0.38072,-0.14679 0.78583,-0.22002 1.19385,-0.21582c0.34874,-0.01244 0.69272,0.08379 0.98438,0.27539c0.26764,0.21696 0.50206,0.47195 0.6958,0.75684c0.24296,-0.3222 0.55067,-0.58998 0.90332,-0.78614c0.36335,-0.17476 0.76352,-0.25918 1.1665,-0.24609c0.18084,-0.00293 0.3614,0.0151 0.53809,0.05371c0.54682,0.14568 1.00452,0.5196 1.25635,1.02637c0.12027,0.36333 0.17306,0.7456 0.15576,1.12793v2.02832c0,0.26367 0.00993,0.60156 0.02978,1.01367c0.02,0.41211 0.03009,0.65006 0.03028,0.71387h-2.2441v-3.15625c0.00095,-0.25239 -0.07896,-0.49846 -0.228,-0.70215c-0.13254,-0.20152 -0.35893,-0.32125 -0.6001,-0.31738c-0.37411,0.00371 -0.69451,0.26891 -0.76807,0.63574c-0.10653,0.35813 -0.15499,0.73102 -0.14355,1.10449v0.81543c0,0.17578 0.01172,0.44043 0.03564,0.792c0.02393,0.35254 0.03598,0.61654 0.03614,0.792h-2.24417v-3.1465c-0.00042,-0.2481 -0.08494,-0.48874 -0.23975,-0.68262c-0.13735,-0.19527 -0.36137,-0.31119 -0.6001,-0.31054c-0.33434,-0.0073 -0.63301,0.20789 -0.73193,0.52734c-0.11342,0.31134 -0.16645,0.64146 -0.15625,0.97266v1.45215l0.03613,1.22363h-2.23193c0,-0.35254 0.00797,-0.94369 0.02392,-1.77344c0.01612,-0.83008 0.0241,-1.27311 0.02393,-1.3291z"/><path d="M167.24511,168.51807c0.31332,-0.00637 0.61526,0.11737 0.834,0.34179c0.22602,0.22252 0.34991,0.52863 0.34228,0.84571c0.00948,0.31345 -0.11754,0.61559 -0.34814,0.82812c-0.22668,0.2139 -0.52824,0.33032 -0.83985,0.32422c-0.3084,0.00765 -0.60689,-0.10921 -0.82812,-0.32422c-0.22255,-0.21228 -0.34464,-0.50898 -0.33594,-0.81641c-0.00187,-0.31543 0.12366,-0.61825 0.34815,-0.83984c0.21284,-0.23115 0.51341,-0.36166 0.82762,-0.35937zM166.14111,171.45752h2.22021v5.78418h-2.25586l0.03565,-3.01172z"/><path d="M168.85302,171.43408h0.80371v-1.56055h2.18409v1.56055h1.188v1.43945h-1.188v4.36817h-2.18409v-4.36817h-0.80371z"/><path d="M175.20117,174.89014c0.05695,0.64577 0.62615,1.1234 1.272,1.06738c0.179,-0.00085 0.35469,-0.04831 0.50977,-0.1377c0.17676,-0.1013 0.34013,-0.22432 0.48632,-0.36621h2.208c-0.26717,0.62656 -0.72219,1.15478 -1.3023,1.51176c-0.6167,0.33118 -1.31019,0.49293 -2.00977,0.46875c-0.85987,0.04959 -1.70725,-0.22382 -2.376,-0.7666c-0.62695,-0.59961 -0.95657,-1.44582 -0.90039,-2.31152c-0.03907,-0.85053 0.30708,-1.6734 0.94239,-2.24024c0.66279,-0.56338 1.51254,-0.85813 2.38183,-0.82617c0.94646,-0.06899 1.87447,0.28718 2.53174,0.97168c0.57971,0.7489 0.86572,1.68385 0.8042,2.62891zM177.61328,173.62937c-0.11348,-0.22988 -0.27779,-0.43092 -0.48047,-0.58789c-0.20024,-0.16248 -0.45013,-0.25141 -0.708,-0.25195c-0.25876,-0.00681 -0.51229,0.07369 -0.71973,0.22852c-0.20049,0.16845 -0.36392,0.37659 -0.48,0.61132z"/><path d="M184.51269,168.26611h2.18408v8.96387h-2.18408v-0.50391c-0.22782,0.2318 -0.50158,0.41342 -0.80371,0.53321c-0.31406,0.1196 -0.64785,0.17891 -0.98389,0.1748c-0.7884,0.03009 -1.54627,-0.30674 -2.05224,-0.91211c-0.49418,-0.60883 -0.75015,-1.37657 -0.72022,-2.16015c-0.0385,-0.82489 0.23344,-1.63427 0.76221,-2.26856c0.55322,-0.59464 1.34304,-0.91121 2.15381,-0.86328c0.59763,0.00913 1.1788,0.19722 1.66845,0.54zM182.22069,174.39795c-0.0062,0.31284 0.12027,0.61369 0.34814,0.82812c0.2273,0.22195 0.53439,0.34303 0.852,0.33594c0.33286,0.01309 0.65705,-0.10793 0.89991,-0.33594c0.236,-0.234 0.36243,-0.55666 0.34822,-0.8887c0.00919,-0.33499 -0.11375,-0.66016 -0.34228,-0.90527c-0.22716,-0.24385 -0.54877,-0.3774 -0.88184,-0.36621c-0.33977,-0.01544 -0.66833,0.12345 -0.894,0.37793c-0.2251,0.26579 -0.34283,0.60606 -0.33014,0.95413z"/><path d="M190.58447,173.45361c0,-0.22461 -0.00798,-0.60515 -0.02393,-1.1416c-0.01611,-0.53711 -0.02409,-0.82194 -0.02392,-0.85449h2.23193v0.71973c0.2273,-0.30789 0.53731,-0.54494 0.894,-0.6836c0.38072,-0.14679 0.78583,-0.22002 1.19385,-0.21582c0.34874,-0.01244 0.69272,0.08379 0.98438,0.27539c0.26763,0.21696 0.50205,0.47195 0.6958,0.75684c0.24296,-0.3222 0.55067,-0.58998 0.90332,-0.78614c0.36335,-0.17476 0.76352,-0.25918 1.1665,-0.24609c0.18084,-0.00293 0.3614,0.0151 0.53809,0.05371c0.54682,0.14568 1.00452,0.5196 1.25634,1.02637c0.12028,0.36333 0.17307,0.7456 0.15577,1.12793v2.02832c0,0.26367 0.00993,0.60156 0.02978,1.01367c0.02,0.41211 0.03009,0.65006 0.03027,0.71387h-2.2441v-3.15625c0.00095,-0.25239 -0.07896,-0.49846 -0.228,-0.70215c-0.13254,-0.20152 -0.35893,-0.32125 -0.6001,-0.31738c-0.37411,0.00371 -0.69451,0.26891 -0.76807,0.63574c-0.10653,0.35813 -0.15499,0.73102 -0.14355,1.10449v0.81543c0,0.17578 0.01172,0.44043 0.03564,0.792c0.02393,0.35254 0.03598,0.61654 0.03614,0.792h-2.24417v-3.1465c-0.00042,-0.2481 -0.08493,-0.48874 -0.23974,-0.68262c-0.13735,-0.19527 -0.36137,-0.31119 -0.6001,-0.31054c-0.33434,-0.0073 -0.63301,0.20789 -0.73193,0.52734c-0.11342,0.31134 -0.16645,0.64146 -0.15625,0.97266v1.45215l0.03613,1.22363h-2.23193c0,-0.35254 0.00797,-0.94369 0.02392,-1.77344c0.01612,-0.83008 0.0241,-1.27311 0.02393,-1.3291z"/><path d="M204.79248,171.22998c0.88255,-0.03554 1.7494,0.24108 2.44824,0.78125c0.68913,0.56346 1.07163,1.41932 1.03174,2.30859c0.04908,0.89875 -0.32902,1.76792 -1.02,2.34473c-0.71653,0.54034 -1.5997,0.81262 -2.4961,0.76953c-0.88115,0.04032 -1.75069,-0.21357 -2.4717,-0.72171c-0.70642,-0.54126 -1.10135,-1.3954 -1.05615,-2.28418c-0.03705,-0.91127 0.3536,-1.78755 1.05615,-2.36911c0.70934,-0.56839 1.59947,-0.86267 2.50782,-0.8291zM204.75634,175.6333c0.347,0.0158 0.68317,-0.12296 0.918,-0.37891c0.23208,-0.2644 0.35451,-0.6074 0.34229,-0.959c-0.00162,-0.50713 -0.31039,-0.9627 -0.78083,-1.15208c-0.47044,-0.18938 -1.00873,-0.0748 -1.36126,0.28977c-0.23928,0.2419 -0.3711,0.56995 -0.36573,0.91016c-0.01117,0.34048 0.11154,0.67179 0.3418,0.92285c0.23449,0.24779 0.56489,0.38174 0.90573,0.36721z"/><path d="M208.93212,174.5415c0,-0.46386 -0.0039,-0.84374 -0.01171,-1.13965c-0.03223,-1.16796 -0.04818,-1.80793 -0.04786,-1.91992h2.24366v0.64744c0.20845,-0.19053 0.42826,-0.36826 0.6582,-0.53222c0.39348,-0.24803 0.85087,-0.37566 1.31592,-0.36719c0.6014,-0.05148 1.18898,0.19966 1.56738,0.66992c0.32576,0.50945 0.48087,1.10939 0.44287,1.71289v1.65334c0,0.22266 0.00781,0.59864 0.02393,1.125c0.01562,0.52733 0.02359,0.81086 0.02392,0.85059h-2.28027v-3.17969c0.00935,-0.26028 -0.07348,-0.51551 -0.23389,-0.7207c-0.1642,-0.19561 -0.41101,-0.30237 -0.666,-0.28809c-0.28064,-0.00416 -0.53912,0.15199 -0.666,0.40235c-0.15457,0.26382 -0.23536,0.56435 -0.23389,0.87011c0,0.33594 0.00798,0.89388 0.02393,1.67383c0.01611,0.78027 0.02409,1.19434 0.02393,1.24219h-2.24369c0,-0.2959 0.00993,-0.74382 0.02979,-1.34375c0.02002,-0.60058 0.02978,-1.05176 0.02978,-1.35645z"/><path d="M217.96826,174.89014c0.05695,0.64577 0.62615,1.1234 1.272,1.06738c0.179,-0.00085 0.35469,-0.04831 0.50977,-0.1377c0.17676,-0.1013 0.34013,-0.22432 0.48632,-0.36621h2.208c-0.26716,0.62656 -0.72217,1.15477 -1.30226,1.51176c-0.6167,0.33118 -1.31019,0.49293 -2.00977,0.46875c-0.85987,0.04959 -1.70725,-0.22382 -2.376,-0.7666c-0.62695,-0.59962 -0.95656,-1.44585 -0.90036,-2.31156c-0.03907,-0.85053 0.30708,-1.6734 0.94239,-2.24024c0.66279,-0.56338 1.51254,-0.85813 2.38183,-0.82617c0.94646,-0.06899 1.87447,0.28718 2.53174,0.97168c0.57971,0.7489 0.86572,1.68385 0.8042,2.62891zM220.38037,173.62937c-0.11348,-0.22988 -0.27779,-0.43092 -0.48047,-0.58789c-0.20024,-0.16248 -0.45013,-0.25141 -0.708,-0.25195c-0.25876,-0.00681 -0.51229,0.07369 -0.71973,0.22852c-0.20049,0.16845 -0.36392,0.37659 -0.48,0.61132z"/><path d="M224.70019,171.43408l1.36768,2.748l1.5122,-2.748h2.3877l-4.43994,8.21973h-2.48387l1.87207,-3.37207l-2.688,-4.84766z"/><path d="M237.57568,171.43408l2.25586,-0.01269c-0.02393,0.208 -0.04,0.42871 -0.04785,0.66015c-0.0083,0.23242 -0.01237,0.49642 -0.01221,0.792c0,0.50391 0.00814,1.33204 0.02441,2.48438c0.01563,1.15137 0.0236,1.76335 0.02393,1.83594h-2.28027l0.03613,-0.46778c-0.25854,0.20748 -0.54653,0.37532 -0.85449,0.498c-1.04003,0.37964 -2.20568,0.12732 -2.99561,-0.64844c-0.50784,-0.59969 -0.77002,-1.36929 -0.73389,-2.15429c-0.03086,-0.80933 0.22391,-1.60373 0.71973,-2.24414c0.51406,-0.63284 1.29783,-0.98433 2.11231,-0.94727c0.32185,-0.00134 0.64051,0.06383 0.936,0.19141c0.2946,0.13355 0.56921,0.30741 0.81592,0.5166zM236.54345,175.59814c0.33111,0.01249 0.6504,-0.12404 0.87012,-0.37207c0.22286,-0.25553 0.34078,-0.58591 0.33008,-0.9248c0.01071,-0.32317 -0.10569,-0.63767 -0.32422,-0.876c-0.22028,-0.23349 -0.53081,-0.36026 -0.85156,-0.34765c-0.34515,-0.01197 -0.68053,0.11585 -0.93018,0.35449c-0.24623,0.24056 -0.37925,0.57402 -0.36621,0.918c-0.01948,0.34043 0.10468,0.67343 0.34228,0.918c0.25354,0.22949 0.5882,0.34829 0.92969,0.33003z"/><path d="M240.71923,174.5415c0,-0.46386 -0.00391,-0.84374 -0.01172,-1.13965c-0.03222,-1.16796 -0.04817,-1.80793 -0.04785,-1.91992h2.24366v0.64744c0.20845,-0.19053 0.42826,-0.36826 0.6582,-0.53222c0.39348,-0.24803 0.85087,-0.37566 1.31592,-0.36719c0.6014,-0.05148 1.18898,0.19966 1.56738,0.66992c0.32576,0.50945 0.48087,1.10939 0.44287,1.71289v1.65334c0,0.22266 0.00781,0.59864 0.02393,1.125c0.01562,0.52733 0.02359,0.81086 0.02392,0.85059h-2.28027v-3.17969c0.00935,-0.26028 -0.07348,-0.51551 -0.23389,-0.7207c-0.1642,-0.19561 -0.41101,-0.30237 -0.666,-0.28809c-0.28064,-0.00416 -0.53912,0.15199 -0.666,0.40235c-0.15457,0.26382 -0.23536,0.56435 -0.23389,0.87011c0,0.33594 0.00798,0.89388 0.02393,1.67383c0.01611,0.78027 0.02408,1.19434 0.02393,1.24219h-2.24369c0,-0.2959 0.00993,-0.74382 0.02979,-1.34375c0.02002,-0.60058 0.02978,-1.05176 0.02978,-1.35645z"/><path d="M252.14306,168.26611h2.18408v8.96387h-2.18408v-0.50391c-0.22782,0.2318 -0.50158,0.41343 -0.80371,0.53321c-0.31406,0.1196 -0.64785,0.17891 -0.98389,0.1748c-0.7884,0.03009 -1.54627,-0.30674 -2.05224,-0.91211c-0.49418,-0.60883 -0.75015,-1.37657 -0.72022,-2.16015c-0.0385,-0.82489 0.23344,-1.63427 0.76221,-2.26856c0.55322,-0.59464 1.34304,-0.91121 2.15381,-0.86328c0.59764,0.00913 1.17881,0.19722 1.66846,0.54zM249.85106,174.39795c-0.0062,0.31284 0.12027,0.61369 0.34814,0.82812c0.22731,0.22196 0.53442,0.34305 0.85205,0.33594c0.33286,0.01309 0.65705,-0.10793 0.89991,-0.33594c0.23597,-0.23401 0.36236,-0.55665 0.34814,-0.88867c0.00919,-0.33499 -0.11375,-0.66016 -0.34228,-0.90527c-0.22716,-0.24385 -0.54877,-0.3774 -0.88184,-0.36621c-0.33977,-0.01544 -0.66833,0.12345 -0.894,0.37793c-0.22508,0.26579 -0.3428,0.60604 -0.33011,0.9541z"/><path d="M262.66696,171.43408l2.25586,-0.01269c-0.02393,0.208 -0.04,0.42871 -0.04785,0.66015c-0.00831,0.23242 -0.01238,0.49642 -0.01221,0.792c0,0.50391 0.00814,1.33204 0.02441,2.48438c0.01563,1.15137 0.0236,1.76335 0.02393,1.83594h-2.28028l0.03614,-0.46778c-0.25854,0.20748 -0.54653,0.37532 -0.85449,0.498c-1.04003,0.37964 -2.20568,0.12732 -2.99561,-0.64844c-0.50784,-0.59968 -0.77002,-1.36928 -0.7339,-2.15427c-0.03086,-0.80933 0.22391,-1.60373 0.71973,-2.24414c0.51406,-0.63284 1.29783,-0.98432 2.1123,-0.94727c0.32185,-0.00134 0.64051,0.06383 0.936,0.19141c0.2946,0.13355 0.56921,0.30741 0.81592,0.5166zM261.63476,175.59814c0.33111,0.01249 0.6504,-0.12404 0.87012,-0.37207c0.22286,-0.25553 0.34078,-0.58591 0.33008,-0.9248c0.01071,-0.32317 -0.10569,-0.63767 -0.32422,-0.876c-0.22028,-0.23349 -0.53081,-0.36027 -0.85157,-0.34765c-0.34515,-0.01196 -0.68053,0.11585 -0.93017,0.35449c-0.24623,0.24056 -0.37925,0.57402 -0.36621,0.918c-0.01948,0.34043 0.10468,0.67343 0.34228,0.918c0.25354,0.22949 0.5882,0.34829 0.92969,0.33003z"/><path d="M270.29882,173.53369c-0.17069,-0.13569 -0.35829,-0.24862 -0.5581,-0.33594c-0.1838,-0.07923 -0.38185,-0.1201 -0.582,-0.12011c-0.31739,0.00922 -0.61782,0.14536 -0.834,0.37793c-0.23924,0.20752 -0.38071,0.5057 -0.39013,0.82226v0.10742c0.02948,0.31907 0.16474,0.61913 0.38427,0.85254c0.25266,0.19553 0.56927,0.28957 0.8877,0.26367c0.2355,-0.011 0.46716,-0.06391 0.68408,-0.15625c0.13623,-0.04785 0.272,-0.09961 0.4082,-0.15527v1.82422c-0.24893,0.11697 -0.50797,0.21111 -0.77392,0.28125c-1.04531,0.26755 -2.15536,0.00513 -2.97022,-0.70215c-0.59683,-0.5517 -0.92511,-1.33509 -0.8999,-2.14746c-0.03072,-0.85557 0.28268,-1.68777 0.87012,-2.31055c0.59161,-0.60856 1.41361,-0.93757 2.26172,-0.90527c0.2525,0.00298 0.50394,0.0331 0.75,0.08984c0.26051,0.05496 0.51559,0.13307 0.7622,0.2334z"/><path d="M275.32666,173.53369c-0.17069,-0.13569 -0.3583,-0.24862 -0.55811,-0.33594c-0.1838,-0.07923 -0.38185,-0.1201 -0.582,-0.12011c-0.31739,0.00922 -0.61782,0.14536 -0.834,0.37793c-0.23924,0.20752 -0.38071,0.5057 -0.39013,0.82226v0.10742c0.02948,0.31907 0.16474,0.61913 0.38427,0.85254c0.25266,0.19553 0.56927,0.28957 0.8877,0.26367c0.2355,-0.011 0.46716,-0.06391 0.68408,-0.15625c0.13623,-0.04785 0.272,-0.09961 0.40821,-0.15527v1.82422c-0.24894,0.11697 -0.50798,0.21111 -0.77393,0.28125c-1.04531,0.26755 -2.15536,0.00513 -2.97022,-0.70215c-0.59683,-0.5517 -0.92511,-1.33509 -0.8999,-2.14746c-0.03072,-0.85557 0.28268,-1.68777 0.87012,-2.31055c0.59161,-0.60856 1.41361,-0.93757 2.26172,-0.90527c0.2525,0.00298 0.50394,0.0331 0.75,0.08984c0.26051,0.05496 0.51559,0.13307 0.76221,0.2334z"/><path d="M277.72656,174.89014c0.05695,0.64577 0.62615,1.1234 1.272,1.06738c0.179,-0.00085 0.35469,-0.04831 0.50977,-0.1377c0.17676,-0.1013 0.34013,-0.22432 0.48632,-0.36621h2.208c-0.26716,0.62656 -0.72217,1.15477 -1.30226,1.51176c-0.6167,0.33118 -1.31019,0.49293 -2.00977,0.46875c-0.85987,0.04959 -1.70725,-0.22382 -2.376,-0.7666c-0.62695,-0.59961 -0.95657,-1.44582 -0.90039,-2.31152c-0.03907,-0.85053 0.30708,-1.6734 0.94239,-2.24024c0.66279,-0.56338 1.51254,-0.85812 2.38183,-0.82617c0.94646,-0.06899 1.87447,0.28718 2.53174,0.97168c0.57971,0.7489 0.86572,1.68385 0.8042,2.62891zM280.13867,173.62937c-0.11348,-0.22988 -0.27779,-0.43092 -0.48047,-0.58789c-0.20024,-0.16248 -0.45013,-0.25141 -0.708,-0.25195c-0.25876,-0.0068 -0.51229,0.07369 -0.71973,0.22852c-0.20049,0.16845 -0.36392,0.37659 -0.48,0.61132z"/><path d="M282.89746,175.17725c0.27971,0.15722 0.56995,0.29492 0.86865,0.4121c0.29606,0.11758 0.61072,0.1814 0.9292,0.18848c0.13505,-0.00618 0.26694,-0.0429 0.38574,-0.10742c0.14502,-0.07227 0.21745,-0.16016 0.21729,-0.26367c0,-0.11133 -0.416,-0.29883 -1.248,-0.5625c-0.74539,-0.15233 -1.27251,-0.81968 -1.24805,-1.58008c-0.02767,-0.57164 0.22848,-1.12011 0.68457,-1.46582c0.47477,-0.35282 1.0542,-0.53611 1.64551,-0.52051c0.71074,0.00274 1.41354,0.14958 2.06592,0.43164l-0.48,1.62012c-0.21285,-0.09664 -0.43116,-0.18078 -0.65381,-0.252c-0.22258,-0.07536 -0.45547,-0.11588 -0.69043,-0.12012c-0.10644,0.00067 -0.21009,0.03409 -0.29688,0.0957c-0.08469,0.05021 -0.1372,0.14082 -0.13867,0.23926c0,0.12012 0.41585,0.30371 1.24756,0.55078c0.76582,0.16022 1.29755,0.85882 1.248,1.63965c0.01037,0.62933 -0.33239,1.21152 -0.8877,1.50781c-0.53979,0.30861 -1.15437,0.46204 -1.77588,0.44336c-0.39269,0.00819 -0.78512,-0.02619 -1.17041,-0.10254c-0.40737,-0.10392 -0.80643,-0.23808 -1.19384,-0.40137z"/><path d="M288.1416,175.17725c0.27971,0.15722 0.56995,0.29492 0.86865,0.4121c0.29606,0.11758 0.61072,0.1814 0.9292,0.18848c0.13505,-0.00618 0.26694,-0.0429 0.38574,-0.10742c0.14502,-0.07227 0.21745,-0.16016 0.21729,-0.26367c0,-0.11133 -0.41602,-0.29883 -1.24805,-0.5625c-0.74539,-0.15233 -1.27251,-0.81968 -1.24805,-1.58008c-0.02766,-0.57163 0.22849,-1.12009 0.68458,-1.46579c0.47477,-0.35282 1.0542,-0.5361 1.64551,-0.52051c0.71074,0.00274 1.41354,0.14958 2.06592,0.43164l-0.48,1.62012c-0.21285,-0.09664 -0.43116,-0.18078 -0.65381,-0.252c-0.22258,-0.07536 -0.45547,-0.11588 -0.69043,-0.12012c-0.10644,0.00067 -0.21009,0.03409 -0.29688,0.0957c-0.08469,0.05021 -0.1372,0.14082 -0.13867,0.23926c0,0.12012 0.41585,0.30371 1.24756,0.55078c0.76584,0.1602 1.2976,0.85881 1.24805,1.63965c0.01037,0.62933 -0.33239,1.21152 -0.8877,1.50781c-0.53979,0.30861 -1.15437,0.46204 -1.77588,0.44336c-0.39269,0.00819 -0.78512,-0.02619 -1.17041,-0.10254c-0.40737,-0.10392 -0.80643,-0.23808 -1.19384,-0.40137z"/><path d="M295.95459,171.43408h0.80371v-1.56055h2.18408v1.56055h1.188v1.43945h-1.188v4.36817h-2.18408v-4.36817h-0.80371z"/><path d="M303.70654,171.22998c0.88255,-0.03554 1.7494,0.24108 2.44824,0.78125c0.68913,0.56346 1.07163,1.41932 1.03174,2.30859c0.04908,0.89875 -0.32902,1.76792 -1.02,2.34473c-0.71653,0.54034 -1.5997,0.81261 -2.49609,0.76953c-0.88114,0.04033 -1.75068,-0.21355 -2.47168,-0.72168c-0.70642,-0.54125 -1.10136,-1.39539 -1.05616,-2.28418c-0.03706,-0.91128 0.3536,-1.78758 1.05616,-2.36914c0.70933,-0.56839 1.59945,-0.86267 2.50779,-0.8291zM303.67041,175.6333c0.347,0.0158 0.68317,-0.12295 0.918,-0.37891c0.23208,-0.2644 0.35451,-0.6074 0.34229,-0.959c-0.00162,-0.50713 -0.31039,-0.9627 -0.78083,-1.15208c-0.47044,-0.18938 -1.00873,-0.0748 -1.36126,0.28977c-0.23928,0.2419 -0.3711,0.56995 -0.36572,0.91016c-0.01117,0.34048 0.11153,0.67178 0.34179,0.92285c0.23449,0.24779 0.56489,0.38174 0.90573,0.36721z"/><path d="M315.44238,173.53369c-0.17069,-0.13569 -0.3583,-0.24862 -0.55811,-0.33594c-0.1838,-0.07923 -0.38185,-0.1201 -0.582,-0.12011c-0.31739,0.00921 -0.61782,0.14536 -0.834,0.37793c-0.23924,0.20752 -0.38072,0.5057 -0.39014,0.82226v0.10742c0.02949,0.31907 0.16474,0.61914 0.38428,0.85254c0.25265,0.19553 0.56926,0.28957 0.88769,0.26367c0.2355,-0.011 0.46716,-0.06391 0.68408,-0.15625c0.13624,-0.04785 0.272,-0.09961 0.40821,-0.15527v1.82422c-0.24894,0.11697 -0.50798,0.21111 -0.77393,0.28125c-1.0453,0.26755 -2.15535,0.00513 -2.97021,-0.70215c-0.59683,-0.5517 -0.92512,-1.33509 -0.8999,-2.14746c-0.03072,-0.85557 0.28267,-1.68777 0.87011,-2.31055c0.59161,-0.60855 1.41361,-0.93756 2.26172,-0.90527c0.2525,0.00298 0.50394,0.0331 0.75,0.08984c0.26051,0.05496 0.51559,0.13307 0.76221,0.2334z"/><path d="M315.95796,168.26611h2.24414v3.86326c0.27306,-0.24573 0.57069,-0.46269 0.88819,-0.64746c0.32987,-0.17038 0.69663,-0.25691 1.06787,-0.25195c0.54377,-0.04372 1.07922,0.15416 1.46387,0.541c0.45003,0.72523 0.64443,1.58019 0.55224,2.42871v3.042h-2.24414v-3.03317c0.01535,-0.2633 -0.04282,-0.52568 -0.168,-0.75782c-0.15349,-0.20966 -0.3969,-0.3346 -0.65673,-0.3371c-0.25982,-0.0025 -0.5056,0.11774 -0.66309,0.32441c-0.15985,0.21482 -0.2443,0.4764 -0.24024,0.74414v3.05957h-2.24411z"/><path d="M325.01806,174.89014c0.05689,0.64559 0.62581,1.12317 1.27149,1.06738c0.17931,-0.00085 0.35531,-0.0483 0.51074,-0.1377c0.17628,-0.10157 0.3393,-0.22458 0.48535,-0.36621h2.208c-0.26697,0.62652 -0.72181,1.15473 -1.30175,1.51176c-0.6167,0.33119 -1.31019,0.49293 -2.00977,0.46875c-0.85985,0.04943 -1.70718,-0.22396 -2.376,-0.7666c-0.62715,-0.59947 -0.9568,-1.44578 -0.90039,-2.31152c-0.03885,-0.85048 0.30726,-1.67327 0.94238,-2.24024c0.6628,-0.56338 1.51254,-0.85813 2.38184,-0.82617c0.94659,-0.06888 1.8747,0.28726 2.53222,0.97168c0.57912,0.74918 0.86491,1.68397 0.80371,2.62891zM327.43017,173.62937c-0.11332,-0.22998 -0.27765,-0.43105 -0.48047,-0.58789c-0.20028,-0.16241 -0.45015,-0.25133 -0.708,-0.25195c-0.25876,-0.00681 -0.51228,0.07369 -0.71972,0.22852c-0.20051,0.16854 -0.36408,0.37666 -0.48047,0.61132z"/><path d="M334.3413,171.43408l2.25684,-0.01269c-0.02441,0.208 -0.04,0.42871 -0.04883,0.66015c-0.00781,0.23242 -0.01172,0.49642 -0.01172,0.792c0,0.50391 0.00814,1.33204 0.02442,2.48438c0.01562,1.15137 0.02343,1.76335 0.02343,1.83594h-2.27929l0.03515,-0.46778c-0.25827,0.20736 -0.54591,0.37519 -0.85351,0.498c-1.04019,0.37962 -2.20597,0.12731 -2.9961,-0.64844c-0.50799,-0.59963 -0.77033,-1.36923 -0.73437,-2.15429c-0.03077,-0.80947 0.22437,-1.60395 0.7207,-2.24414c0.51366,-0.63281 1.29713,-0.98432 2.11133,-0.94727c0.32203,-0.00144 0.64088,0.06372 0.93652,0.19141c0.29451,0.13345 0.56896,0.30733 0.81543,0.5166zM333.31005,175.59814c0.33106,0.01219 0.65023,-0.12428 0.87012,-0.37207c0.22266,-0.25564 0.34055,-0.58595 0.33008,-0.9248c0.01048,-0.32314 -0.10589,-0.63755 -0.32422,-0.876c-0.22056,-0.23368 -0.53147,-0.36046 -0.85254,-0.34765c-0.34499,-0.01187 -0.68019,0.11594 -0.92969,0.35449c-0.24623,0.24056 -0.37925,0.57402 -0.36621,0.918c-0.01941,0.34033 0.10454,0.67324 0.3418,0.918c0.25392,0.2295 0.58888,0.34828 0.93066,0.33003z"/><path d="M337.05419,171.43408h0.80372v-1.56055h2.18457v1.56055h1.1875v1.43945h-1.1875v4.36817h-2.18452v-4.36817h-0.80372z"/><path d="M341.64896,175.17725c0.27982,0.15733 0.57023,0.29502 0.86914,0.4121c0.29585,0.1177 0.61038,0.18154 0.92871,0.18848c0.13505,-0.00618 0.26694,-0.0429 0.38574,-0.10742c0.14454,-0.07227 0.21681,-0.16016 0.2168,-0.26367c0,-0.11133 -0.41602,-0.29883 -1.24805,-0.5625c-0.7452,-0.15242 -1.27198,-0.81986 -1.24707,-1.58008c-0.0279,-0.57166 0.22829,-1.12022 0.68453,-1.46579c0.47473,-0.35289 1.05419,-0.53618 1.64551,-0.52051c0.71058,0.00279 1.41321,0.14963 2.06543,0.43164l-0.48047,1.62012c-0.21269,-0.09662 -0.43083,-0.18077 -0.65332,-0.252c-0.22257,-0.0754 -0.45547,-0.11592 -0.69043,-0.12012c-0.10643,0.00067 -0.21008,0.03409 -0.29687,0.0957c-0.08469,0.05021 -0.1372,0.14082 -0.13867,0.23926c0,0.12012 0.416,0.30371 1.248,0.55078c0.76584,0.1602 1.2976,0.85881 1.24805,1.63965c0.01039,0.6296 -0.33283,1.21194 -0.88867,1.50781c-0.53959,0.30867 -1.15403,0.46211 -1.77539,0.44336c-0.39253,0.00822 -0.7848,-0.02616 -1.16992,-0.10254c-0.40758,-0.10375 -0.80682,-0.23792 -1.19434,-0.40137z"/><path d="M347.87744,173.59717c0.01017,-0.83365 -0.09467,-1.66472 -0.31153,-2.46973c-0.25452,-0.79143 -0.56319,-1.56442 -0.92382,-2.31348l1.08007,-0.68359c0.46726,0.85718 0.8374,1.76384 1.10352,2.70313c0.24564,0.91678 0.36684,1.86243 0.36035,2.81152c0.0004,0.95564 -0.1267,1.90707 -0.37793,2.8291c-0.26879,0.97047 -0.62845,1.91344 -1.07422,2.81641l-1.12792,-0.57516c0.42822,-0.76978 0.74922,-1.59446 0.9541,-2.45117c0.2115,-0.87322 0.31805,-1.76856 0.31738,-2.66703z"/></g><g><path d="M137.04782,186.61479c-0.24872,-0.23739 -0.53207,-0.43561 -0.84033,-0.58789c-0.30819,-0.15914 -0.64882,-0.24536 -0.99561,-0.252c-0.60767,-0.01704 -1.19341,0.22764 -1.60839,0.67188c-0.42143,0.4419 -0.65011,1.03308 -0.63575,1.64355c-0.01713,0.60648 0.18521,1.19877 0.56983,1.668c0.3831,0.45789 0.95777,0.71101 1.5542,0.68457c0.36038,-0.00009 0.71648,-0.07804 1.04394,-0.22852c0.32392,-0.16028 0.63307,-0.34883 0.92383,-0.56347v2.33984c-0.3458,0.18315 -0.70975,0.32978 -1.08594,0.4375c-0.36707,0.08998 -0.74419,0.13233 -1.12207,0.126c-1.18199,0.05381 -2.33336,-0.38503 -3.17968,-1.21192c-0.81895,-0.85536 -1.25256,-2.00836 -1.2002,-3.1914c-0.06105,-1.24283 0.42327,-2.45042 1.32617,-3.30664c0.94575,-0.83465 2.17774,-1.27104 3.438,-1.21778c0.63285,-0.00364 1.25628,0.15327 1.812,0.45606z"/><path d="M137.58737,183.35112h2.24414v3.86328c0.27305,-0.24571 0.57066,-0.46266 0.88814,-0.64741c0.32987,-0.1704 0.69662,-0.25695 1.06787,-0.252c0.54377,-0.04372 1.07922,0.15416 1.46387,0.541c0.45003,0.72523 0.64443,1.58019 0.55224,2.42871v3.042h-2.24409v-3.0332c0.01535,-0.2633 -0.04282,-0.52568 -0.168,-0.75782c-0.15349,-0.20964 -0.3969,-0.33458 -0.65671,-0.33708c-0.25982,-0.0025 -0.50558,0.11773 -0.66308,0.32439c-0.15985,0.21482 -0.2443,0.4764 -0.24024,0.74414v3.05957h-2.24414z"/><path d="M146.64743,189.97515c0.05695,0.64577 0.62615,1.1234 1.272,1.06738c0.179,-0.00085 0.35469,-0.04831 0.50977,-0.1377c0.17676,-0.1013 0.34014,-0.22432 0.48633,-0.36621h2.208c-0.26716,0.62654 -0.72217,1.15474 -1.30225,1.51172c-0.6167,0.33119 -1.31019,0.49293 -2.00977,0.46875c-0.85987,0.04959 -1.70726,-0.22381 -2.376,-0.7666c-0.62695,-0.5996 -0.95658,-1.44582 -0.90039,-2.31152c-0.03908,-0.85053 0.30707,-1.6734 0.94238,-2.24024c0.6628,-0.56338 1.51254,-0.85813 2.38184,-0.82617c0.94646,-0.06899 1.87446,0.28718 2.53173,0.97168c0.57971,0.7489 0.86572,1.68385 0.8042,2.62891zM149.05954,188.7144c-0.11348,-0.22988 -0.27779,-0.43092 -0.48047,-0.58789c-0.20023,-0.1625 -0.45012,-0.25144 -0.708,-0.252c-0.25876,-0.00681 -0.51228,0.07369 -0.71972,0.22852c-0.20049,0.16845 -0.36393,0.37659 -0.48,0.61132z"/><path d="M155.97116,186.51909l2.25586,-0.01269c-0.02392,0.208 -0.04,0.42871 -0.04785,0.66015c-0.0083,0.23242 -0.01237,0.49642 -0.01221,0.792c0,0.50391 0.00814,1.33203 0.02442,2.48438c0.01562,1.15137 0.02359,1.76335 0.02392,1.83594h-2.28027l0.03613,-0.46778c-0.25854,0.2075 -0.54652,0.37535 -0.85449,0.49805c-1.04003,0.37964 -2.20568,0.12732 -2.99561,-0.64844c-0.50783,-0.59969 -0.77001,-1.36929 -0.73388,-2.15429c-0.03086,-0.80933 0.22391,-1.60372 0.71972,-2.24414c0.51406,-0.63285 1.29783,-0.98433 2.11231,-0.94728c0.32185,-0.00134 0.64051,0.06383 0.936,0.19141c0.2946,0.13355 0.56921,0.30741 0.81592,0.5166zM154.93894,190.68315c0.33111,0.01249 0.6504,-0.12404 0.87011,-0.37207c0.22286,-0.25552 0.34078,-0.58591 0.33008,-0.9248c0.01071,-0.32317 -0.10569,-0.63767 -0.32422,-0.876c-0.22028,-0.23349 -0.53081,-0.36026 -0.85156,-0.34765c-0.34515,-0.01197 -0.68053,0.11585 -0.93018,0.35449c-0.47905,0.51472 -0.4894,1.30892 -0.02392,1.83594c0.25353,0.22951 0.58819,0.34834 0.92969,0.33009z"/><path d="M158.68308,186.51909h0.80371v-1.56055h2.18408v1.56055h1.188v1.43945h-1.188v4.36817h-2.18408v-4.36817h-0.80371z"/><path d="M170.76706,188.6187c-0.17069,-0.13569 -0.3583,-0.24862 -0.55811,-0.33594c-0.1838,-0.07923 -0.38185,-0.1201 -0.582,-0.12011c-0.31739,0.00922 -0.61782,0.14536 -0.834,0.37793c-0.23924,0.20752 -0.38072,0.5057 -0.39014,0.82226v0.10742c0.02949,0.31907 0.16475,0.61913 0.38428,0.85254c0.25266,0.19553 0.56927,0.28958 0.8877,0.26367c0.2355,-0.011 0.46715,-0.06392 0.68408,-0.15625c0.13623,-0.04785 0.272,-0.0996 0.4082,-0.15527v1.82422c-0.24894,0.11697 -0.50798,0.21111 -0.77393,0.28125c-1.0453,0.26755 -2.15535,0.00513 -2.97021,-0.70215c-0.59683,-0.5517 -0.92512,-1.33509 -0.8999,-2.14746c-0.03072,-0.85557 0.28267,-1.68777 0.87011,-2.31055c0.59161,-0.60855 1.4136,-0.93756 2.26171,-0.90527c0.2525,0.00298 0.50394,0.0331 0.75,0.08984c0.26051,0.05496 0.51559,0.13307 0.76221,0.2334z"/><path d="M174.57077,186.31499c0.88255,-0.03554 1.7494,0.24108 2.44824,0.78125c0.68913,0.56346 1.07163,1.41932 1.03174,2.30859c0.04909,0.89875 -0.32902,1.76792 -1.02,2.34473c-0.71653,0.54034 -1.5997,0.81262 -2.49609,0.76953c-0.88114,0.04033 -1.75068,-0.21355 -2.47168,-0.72168c-0.70642,-0.54126 -1.10135,-1.3954 -1.05615,-2.28418c-0.03706,-0.91128 0.35359,-1.78758 1.05615,-2.36914c0.70933,-0.56839 1.59945,-0.86267 2.50779,-0.8291zM174.53465,190.71831c0.347,0.0158 0.68317,-0.12296 0.918,-0.37891c0.23207,-0.2644 0.3545,-0.60741 0.34228,-0.959c-0.00162,-0.50713 -0.31038,-0.96271 -0.78083,-1.15209c-0.47045,-0.18938 -1.00874,-0.07479 -1.36126,0.28979c-0.23928,0.2419 -0.3711,0.56994 -0.36572,0.91015c-0.01117,0.34048 0.11154,0.67179 0.3418,0.92285c0.23449,0.24779 0.56489,0.38174 0.90573,0.36721z"/><path d="M178.71042,189.62651c0,-0.46386 -0.00391,-0.84374 -0.01172,-1.13964c-0.03223,-1.168 -0.04818,-1.80798 -0.04785,-1.91993h2.24365v0.64746c0.20846,-0.19053 0.42826,-0.36826 0.6582,-0.53222c0.39349,-0.24803 0.85089,-0.37566 1.31595,-0.36719c0.6014,-0.05148 1.18899,0.19966 1.56739,0.66992c0.32576,0.50945 0.48087,1.10939 0.44287,1.71289v1.65332c0,0.22266 0.00781,0.59864 0.02392,1.125c0.01563,0.52733 0.0236,0.81086 0.02393,0.85059h-2.28031v-3.17972c0.00935,-0.26028 -0.07348,-0.51551 -0.23388,-0.7207c-0.1642,-0.19561 -0.41101,-0.30237 -0.666,-0.28809c-0.28064,-0.00416 -0.53912,0.15199 -0.666,0.40235c-0.15457,0.26382 -0.23536,0.56435 -0.23389,0.87011c0,0.33594 0.00798,0.89388 0.02393,1.67383c0.01611,0.78027 0.02408,1.19434 0.02392,1.24219h-2.24368c0,-0.2959 0.00993,-0.74382 0.02978,-1.34375c0.02002,-0.60056 0.02979,-1.05173 0.02979,-1.35642z"/><path d="M185.99365,190.26226c0.27971,0.15723 0.56995,0.29492 0.86866,0.41211c0.29606,0.11757 0.61072,0.18139 0.92919,0.18847c0.13505,-0.00618 0.26694,-0.0429 0.38575,-0.10742c0.14502,-0.07227 0.21745,-0.16016 0.21728,-0.26367c0,-0.11133 -0.416,-0.29883 -1.248,-0.5625c-0.74537,-0.15234 -1.27247,-0.81969 -1.248,-1.58008c-0.02767,-0.57164 0.22848,-1.12011 0.68457,-1.46582c0.47477,-0.35282 1.0542,-0.53611 1.64551,-0.52051c0.71074,0.00274 1.41353,0.14958 2.06591,0.43164l-0.48,1.62012c-0.21285,-0.09662 -0.43116,-0.18075 -0.65381,-0.25195c-0.22258,-0.07536 -0.45547,-0.11588 -0.69042,-0.12012c-0.10644,0.00067 -0.21009,0.03408 -0.29688,0.0957c-0.08469,0.05021 -0.1372,0.14082 -0.13867,0.23926c0,0.12012 0.41585,0.30371 1.24756,0.55078c0.76582,0.16022 1.29755,0.85882 1.248,1.63965c0.01037,0.62933 -0.33238,1.21152 -0.88769,1.50781c-0.53979,0.30861 -1.15437,0.46204 -1.77588,0.44336c-0.39269,0.00819 -0.78512,-0.02619 -1.17041,-0.10254c-0.40738,-0.10392 -0.80643,-0.23808 -1.19385,-0.40136z"/><path d="M194.3945,186.31499c0.88255,-0.03554 1.7494,0.24108 2.44824,0.78125c0.68913,0.56346 1.07163,1.41932 1.03174,2.30859c0.04909,0.89875 -0.32902,1.76792 -1.02,2.34473c-0.71653,0.54034 -1.5997,0.81262 -2.49609,0.76953c-0.88114,0.04033 -1.75067,-0.21355 -2.47168,-0.72168c-0.70642,-0.54126 -1.10135,-1.3954 -1.05615,-2.28418c-0.03707,-0.91127 0.35356,-1.78756 1.05609,-2.36914c0.70935,-0.5684 1.59948,-0.86268 2.50785,-0.8291zM194.35837,190.71831c0.347,0.0158 0.68317,-0.12296 0.918,-0.37891c0.23207,-0.2644 0.3545,-0.60741 0.34228,-0.959c-0.00162,-0.50713 -0.31038,-0.96271 -0.78083,-1.15209c-0.47045,-0.18938 -1.00874,-0.07479 -1.36126,0.28979c-0.23928,0.2419 -0.3711,0.56994 -0.36572,0.91015c-0.01117,0.34048 0.11154,0.67179 0.3418,0.92285c0.23449,0.24779 0.56489,0.38174 0.90573,0.36721z"/><path d="M198.71433,183.35112h2.26806v8.97559l-2.26806,-0.01172c0,-0.69629 0.00602,-1.58431 0.01806,-2.66406c0.01221,-1.08008 0.01824,-1.7041 0.01807,-1.87207z"/><path d="M203.74216,189.97515c0.05695,0.64577 0.62615,1.1234 1.272,1.06738c0.179,-0.00085 0.35469,-0.04831 0.50977,-0.1377c0.17676,-0.1013 0.34013,-0.22432 0.48632,-0.36621h2.208c-0.26715,0.62654 -0.72216,1.15474 -1.30224,1.51172c-0.6167,0.33119 -1.31019,0.49293 -2.00977,0.46875c-0.85987,0.04959 -1.70725,-0.22382 -2.376,-0.7666c-0.62694,-0.5996 -0.95656,-1.44581 -0.90039,-2.3115c-0.03907,-0.85053 0.30708,-1.6734 0.94239,-2.24024c0.66279,-0.56338 1.51254,-0.85812 2.38183,-0.82617c0.94646,-0.06899 1.87447,0.28718 2.53174,0.97168c0.57971,0.7489 0.86572,1.68385 0.8042,2.62891zM206.15427,188.7144c-0.11348,-0.22988 -0.27779,-0.43092 -0.48047,-0.58789c-0.20023,-0.1625 -0.45012,-0.25144 -0.708,-0.252c-0.25876,-0.0068 -0.51229,0.07369 -0.71973,0.22852c-0.20049,0.16845 -0.36392,0.37659 -0.48,0.61132z"/></g></g></g></svg>