<svg version="1.1" xmlns="http://www.w3.org/2000/svg" xmlns:xlink="http://www.w3.org/1999/xlink" width="256.34292" height="25.35794" viewBox="0,0,256.34292,25.35794"><g transform="translate(-111.66638,-290.11082)"><g data-paper-data="{&quot;isPaintingLayer&quot;:true}" fill-rule="nonzero" stroke="none" stroke-linecap="butt" stroke-linejoin="miter" stroke-miterlimit="10" stroke-dasharray="" stroke-dashoffset="0" style="mix-blend-mode: normal"><path d="M111.66638,315.46876v-25.35794h256.34292v25.35794z" fill="#000000" stroke-width="0"/><g fill="#ffffff" stroke-width="1"><path d="M328.35706,301.38789c-0.2251,-0.21518 -0.48166,-0.39482 -0.76086,-0.53271c-0.27912,-0.14413 -0.58759,-0.2223 -0.90166,-0.22851c-0.55035,-0.01536 -1.08077,0.2065 -1.4563,0.60912c-0.38204,0.39998 -0.58923,0.93553 -0.57586,1.48849c-0.01554,0.54922 0.16772,1.08558 0.51609,1.51045c0.34694,0.41437 0.86724,0.64325 1.40713,0.61902c0.32629,-0.00003 0.64875,-0.07024 0.94552,-0.20587c0.29313,-0.14569 0.57305,-0.3166 0.83657,-0.51078v2.11884c-0.31324,0.16582 -0.64278,0.29882 -0.98336,0.39688c-0.33238,0.08122 -0.6738,0.1195 -1.01591,0.1139c-1.07052,0.04853 -2.11324,-0.34904 -2.87971,-1.09798c-0.74143,-0.77466 -1.13401,-1.81871 -1.08666,-2.88996c-0.05539,-1.12535 0.38321,-2.21881 1.20091,-2.99395c0.8563,-0.75597 1.97194,-1.15121 3.11317,-1.10292c0.57313,-0.00332 1.13772,0.13884 1.64094,0.41315z"/><path d="M328.84592,298.43214h2.0318v3.49908c0.24722,-0.22287 0.51677,-0.41965 0.80438,-0.58719c0.29877,-0.15422 0.63093,-0.23246 0.96712,-0.2278c0.49224,-0.0392 0.97685,0.1398 1.32542,0.48956c0.40748,0.65681 0.58353,1.43105 0.50017,2.19948v2.75484h-2.03218v-2.74634c0.01387,-0.23865 -0.0388,-0.47646 -0.15213,-0.68694c-0.13907,-0.18977 -0.35951,-0.30284 -0.59479,-0.30507c-0.23528,-0.00223 -0.45782,0.10664 -0.60046,0.29375c-0.14469,0.19442 -0.22116,0.43117 -0.21754,0.67351v2.7711h-2.03179z"/><path d="M339.22322,301.30088l2.04278,-0.01132c-0.02158,0.18889 -0.03643,0.38769 -0.04351,0.5978c-0.00708,0.21012 -0.01097,0.44923 -0.01097,0.71736c0,0.45631 0.00731,1.20597 0.02194,2.249c0.01449,1.0435 0.02168,1.59791 0.02157,1.66323h-2.06433l0.03255,-0.42379c-0.23405,0.18783 -0.49478,0.33971 -0.77361,0.45065c-0.94178,0.34423 -1.99758,0.11601 -2.7131,-0.58648c-0.45958,-0.54334 -0.69687,-1.24028 -0.6643,-1.95117c-0.0281,-0.73282 0.2027,-1.45215 0.65193,-2.03181c0.46526,-0.57331 1.17502,-0.89177 1.9126,-0.85815c0.29141,-0.00099 0.57991,0.05801 0.84754,0.17333c0.26668,0.12108 0.51534,0.27845 0.73892,0.46763zM338.2887,305.07162c0.2997,0.01109 0.58867,-0.11245 0.78775,-0.33675c0.20161,-0.2313 0.30837,-0.53023 0.2989,-0.83692c0.00975,-0.2926 -0.09566,-0.57735 -0.2936,-0.79306c-0.19937,-0.21189 -0.48077,-0.32698 -0.77148,-0.31553c-0.31242,-0.0108 -0.61602,0.10472 -0.84223,0.32048c-0.43359,0.46619 -0.44292,1.18524 -0.02158,1.66252c0.22955,0.20817 0.5328,0.31591 0.84223,0.29925z"/><path d="M342.07005,304.11514c0,-0.42023 -0.00365,-0.76429 -0.01096,-1.03217c-0.02901,-1.05765 -0.04351,-1.63729 -0.04351,-1.73893h2.03216v0.58719c0.18838,-0.17299 0.38732,-0.33413 0.59568,-0.48247c0.35645,-0.22467 0.77079,-0.34025 1.19207,-0.33252c0.54465,-0.04675 1.07678,0.18086 1.41917,0.607c0.29492,0.46123 0.43529,1.00439 0.40077,1.55075v1.49697c0,0.20234 0.00731,0.54215 0.02194,1.01944c0.01415,0.47682 0.02133,0.7334 0.02157,0.76972h-2.06471v-2.87935c0.0085,-0.23561 -0.06655,-0.46664 -0.21189,-0.65228c-0.14846,-0.17747 -0.37211,-0.27426 -0.6031,-0.26105c-0.25417,-0.00388 -0.48828,0.13755 -0.6031,0.36434c-0.14022,0.23887 -0.21341,0.51113 -0.21189,0.78811c0,0.3042 0.00731,0.80934 0.02194,1.51538c0.01415,0.70675 0.02134,1.0817 0.02157,1.12485h-2.03218c0,-0.26813 0.00908,-0.67374 0.02724,-1.21683c0.01804,-0.54333 0.02712,-0.9527 0.02723,-1.22814z"/><path d="M352.40387,301.30088h2.05378v4.94441c0.0407,0.71835 -0.23757,1.41807 -0.76051,1.91226c-0.55187,0.47253 -1.26287,0.71736 -1.98867,0.68481c-0.84479,0.0831 -1.6959,-0.07332 -2.45593,-0.45136c-0.43726,-0.35422 -0.72447,-0.86064 -0.80402,-1.41772h2.03217c0.08542,0.15954 0.2183,0.28858 0.38026,0.36929c0.18826,0.06621 0.38746,0.09575 0.58683,0.08702c0.31104,0.01521 0.60604,-0.13872 0.77148,-0.40255c0.16195,-0.26801 0.24131,-0.57781 0.22815,-0.89068v-0.17407c-0.24508,0.1658 -0.51057,0.29921 -0.78987,0.39688c-0.26836,0.09107 -0.54998,0.13697 -0.83338,0.13583c-0.70055,0.04253 -1.38424,-0.22587 -1.86875,-0.73363c-0.45983,-0.54677 -0.69532,-1.24753 -0.659,-1.96105c-0.02858,-0.71187 0.22313,-1.40657 0.70109,-1.9349c0.4911,-0.50956 1.17808,-0.78261 1.88498,-0.7492c0.28356,-0.00292 0.56469,0.05247 0.82596,0.16272c0.25792,0.11998 0.50513,0.26175 0.73893,0.42379zM350.3501,303.90856c0.00148,0.27876 0.11507,0.54521 0.31518,0.73929c0.18929,0.20797 0.45771,0.32619 0.73892,0.32543c0.3213,0.0166 0.63417,-0.10612 0.8585,-0.33675c0.21626,-0.24077 0.32943,-0.55676 0.31517,-0.88008c0.01015,-0.28721 -0.10484,-0.56468 -0.31517,-0.76051c-0.20866,-0.19533 -0.48575,-0.30078 -0.77148,-0.2936c-0.31321,-0.01163 -0.61554,0.11578 -0.82596,0.34807c-0.21129,0.235 -0.32412,0.54225 -0.31513,0.85814z"/><path d="M356.95707,304.42996c0.05142,0.58488 0.56678,1.01764 1.15174,0.96713c0.16221,-0.00054 0.32146,-0.04346 0.46197,-0.12451c0.15981,-0.09202 0.30761,-0.20346 0.44004,-0.33179h1.99927c-0.24207,0.56738 -0.65393,1.04585 -1.17898,1.36963c-0.55863,0.29934 -1.18652,0.44556 -1.81993,0.4238c-0.77867,0.04495 -1.54606,-0.20256 -2.15173,-0.69401c-0.56766,-0.54307 -0.86601,-1.30943 -0.81499,-2.09337c-0.03559,-0.77002 0.27768,-1.51507 0.85284,-2.02828c0.60025,-0.51022 1.36977,-0.77724 2.15704,-0.74849c0.85731,-0.06254 1.69788,0.26037 2.29284,0.88079c0.52478,0.67771 0.7838,1.52383 0.72833,2.37918zM359.14099,303.28954c-0.10219,-0.20843 -0.25079,-0.39066 -0.43437,-0.53271c-0.18142,-0.14714 -0.40773,-0.22778 -0.64132,-0.22851c-0.23429,-0.00595 -0.46381,0.06679 -0.65192,0.20658c-0.18176,0.15278 -0.3298,0.34165 -0.43474,0.55464z"/></g></g></g></svg>