<svg xmlns="http://www.w3.org/2000/svg" xmlns:xlink="http://www.w3.org/1999/xlink" width="87.043" height="67" version="1.1" viewBox="-0.447 0.19 87.043 67"><path id="ID0.8299277680926025" fill="#FFA533" stroke="none" stroke-width=".046" d="M 43.0745 0.7024 L 86.083 33.6897 L 43.0745 66.677 L 0.066 33.6897 L 43.0745 0.7024 L 43.0745 0.7024 Z M 0.066 0.7024 L 0.066 0.7024 Z M 86.083 66.677 L 86.083 66.677 Z"/><path id="ID0.5525333690457046" fill="#EA9931" stroke="none" stroke-width="1.026" d="M 42.9807 33.66 C 44.3244 33.66 45.543 34.0047 46.4252 34.5617 C 47.3074 35.1187 47.8531 35.888 47.8531 36.7374 C 47.8531 37.5867 47.3074 38.356 46.4252 38.913 C 45.543 39.47 44.3244 39.8147 42.9807 39.8147 C 41.6369 39.8147 40.4183 39.47 39.5361 38.913 C 38.654 38.356 38.1082 37.5867 38.1082 36.7374 C 38.1082 35.888 38.654 35.1187 39.5361 34.5617 C 40.4183 34.0047 41.6369 33.66 42.9807 33.66 Z"/><g id="ID0.6998324277810752"><g id="ID0.8861678722314537"><g id="ID0.7426662109792233"><g id="container-id1"><g id="id1"><g id="ID0.9204198196530342"><g id="ID0.29017878975719213"><g id="ID0.896405050996691"><g id="id6"><path id="ID0.8145374120213091" fill="none" stroke="none" stroke-width=".02" d="M 43.2586 19.2477 L 45.0092 19.2477 L 45.0092 31.797 L 43.2586 31.797 L 43.2586 19.2477 Z"/><path id="ID0.11995292780920863" fill="#114B04" stroke="none" stroke-width=".02" d="M 43.3569 19.2673 L 43.3569 19.2673 C 44.2224 19.5427 44.5765 20.0738 44.5765 20.9589 C 44.5371 24.0274 44.5175 27.0959 44.4781 30.1251 C 44.4781 30.3415 44.4781 30.5185 44.6552 30.6168 C 44.7338 30.6562 44.8125 30.7742 44.8912 30.7349 C 44.9895 30.6562 44.9895 30.5382 44.9305 30.4202 C 44.9109 30.6759 44.9109 30.9316 44.8912 31.1873 C 44.5175 31.1873 44.0847 31.1873 43.7503 31.502 C 43.593 31.5807 43.4356 31.6594 43.2783 31.7577 L 43.2783 31.7184 C 43.3176 30.4792 43.2783 29.24 43.3176 28.0204 C 43.3373 27.4107 43.3569 26.7812 43.3373 26.1518 C 43.2783 25.2863 43.3373 24.4208 43.3569 23.5554 C 43.3766 22.7096 43.2783 21.8834 43.652 21.077 C 43.947 20.4475 43.7307 19.8378 43.3569 19.2673 Z"/></g></g><g id="ID0.7919668043032289"><g id="id7"><path id="ID0.8539097933098674" fill="none" stroke="none" stroke-width=".02" d="M 41.2916 19.405 L 42.6095 19.405 L 42.6095 37.4423 L 41.2916 37.4423 L 41.2916 19.405 Z"/><path id="ID0.6411475581116974" fill="#3A9804" stroke="none" stroke-width=".02" d="M 41.8817 37.403 L 41.8817 37.403 C 41.5473 37.2259 41.2916 36.9899 41.2916 36.5768 C 41.3309 31.325 41.3703 26.0731 41.4096 20.8213 C 41.4096 20.1918 41.7047 19.7197 42.2751 19.4247 C 42.7865 20.2705 42.6488 21.0376 42.0784 21.8047 C 42.0391 21.8834 42.0391 21.9818 42.0391 22.0801 C 42.0194 23.221 41.9604 24.3815 41.9604 25.542 C 41.9604 28.4925 41.9801 31.4823 41.8817 34.4328 C 41.862 35.436 41.8817 36.3998 41.8817 37.403 Z"/></g></g><g id="ID0.3566599334590137"><g id="id8"><path id="ID0.9113563471473753" fill="none" stroke="none" stroke-width=".02" d="M 45.5403 25.424 L 47.7433 25.424 L 47.7433 34.5115 L 45.5403 34.5115 L 45.5403 25.424 Z"/><path id="ID0.6175864916294813" fill="#114B04" stroke="none" stroke-width=".02" d="M 46.7598 25.4437 L 46.7598 25.4437 C 47.3696 25.6404 47.704 26.0928 47.704 26.7222 C 47.6843 28.7876 47.6253 30.8726 47.6056 32.9576 C 47.586 33.9607 46.3861 34.7672 45.5403 34.3738 L 45.678 34.3738 C 46.1697 34.3345 46.5041 34.0591 46.5238 33.6067 C 46.5435 33.1739 46.5828 32.7412 46.5828 32.3281 C 46.5828 30.8726 46.7402 29.4367 46.6812 28.0008 C 46.6615 27.6467 46.6221 27.273 46.8975 26.9779 C 46.9959 26.8796 46.9762 26.6829 46.9959 26.5255 C 47.0549 26.1321 46.7795 25.8174 46.7598 25.4437 Z"/></g></g><g id="ID0.2389600952155888"><g id="id9"><path id="ID0.6105575421825051" fill="none" stroke="none" stroke-width=".02" d="M 42.2554 19.2477 L 43.3766 19.2477 L 43.3766 37.698 L 42.2554 37.698 L 42.2554 19.2477 Z"/><path id="ID0.7185845822095871" fill="#2B7C01" stroke="none" stroke-width=".02" d="M 42.8062 37.639 L 42.8062 37.639 C 42.6095 37.6587 42.4128 37.698 42.2751 37.5603 C 42.2751 36.9309 42.3735 36.3014 42.3144 35.6917 C 42.2554 35.0426 42.3735 34.4328 42.3341 33.8034 C 42.2751 32.9379 42.3735 32.0528 42.3341 31.1873 C 42.3341 29.9677 42.2948 28.7679 42.3735 27.5877 C 42.4128 26.8402 42.3735 26.0731 42.4128 25.306 C 42.4521 24.4602 42.4128 23.5947 42.4128 22.7096 C 42.4128 22.3948 42.4521 22.0998 42.6292 21.7654 C 43.0029 20.9786 43.1799 20.1131 42.5702 19.3067 C 42.6095 19.287 42.6292 19.287 42.6685 19.2673 C 42.8849 19.228 42.9439 19.3854 43.0422 19.5427 C 43.3963 20.0935 43.4356 20.6836 43.2193 21.254 C 42.9439 21.9621 42.8259 22.6702 42.8652 23.4177 C 42.9045 24.0865 42.8849 24.7749 42.8849 25.424 C 42.8455 26.4075 42.8849 27.3517 42.8455 28.3155 C 42.8062 29.476 42.8455 30.6365 42.8062 31.797 C 42.8062 31.9347 42.7668 32.0724 42.8849 32.1904 L 42.8849 32.5052 C 42.7078 32.7412 42.8062 33.0166 42.7668 33.2723 C 42.6685 34.1574 42.8062 35.0622 42.7275 35.9671 C 42.7078 36.3408 42.7275 36.7342 42.6882 37.1079 C 42.6488 37.3243 42.6685 37.4816 42.8062 37.639 Z"/></g></g><g id="ID0.9853858696296811"><g id="id10"><path id="ID0.7485670326277614" fill="none" stroke="none" stroke-width=".02" d="M 41.862 19.287 L 43.0029 19.287 L 43.0029 37.5997 L 41.862 37.5997 L 41.862 19.287 Z"/><path id="ID0.3129809284582734" fill="#318900" stroke="none" stroke-width=".02" d="M 42.5702 19.3067 L 42.5702 19.3067 C 43.1799 20.1131 43.0029 20.9786 42.6292 21.7654 C 42.4521 22.0998 42.4128 22.3948 42.4128 22.7096 C 42.4128 23.5947 42.4521 24.4602 42.4128 25.306 C 42.3735 26.0731 42.4128 26.8402 42.3735 27.5877 C 42.2948 28.7679 42.3341 29.9677 42.3341 31.1873 C 42.3735 32.0528 42.2751 32.9379 42.3341 33.8034 C 42.3735 34.4328 42.2554 35.0426 42.3144 35.6917 C 42.3735 36.3014 42.2751 36.9309 42.2751 37.5603 C 42.1964 37.5406 42.1177 37.5013 42.0391 37.462 C 41.9997 37.4423 41.9604 37.4226 41.921 37.4226 L 41.9014 37.4226 L 41.8817 37.403 C 41.8817 36.3998 41.862 35.436 41.8817 34.4328 C 41.9801 31.4823 41.9604 28.4925 41.9604 25.542 C 41.9604 24.3815 42.0194 23.221 42.0391 22.0801 C 42.0391 21.9818 42.0391 21.8834 42.0784 21.8047 C 42.6488 21.0376 42.7865 20.2705 42.2751 19.4247 L 42.5702 19.3067 Z"/></g></g><g id="ID0.37747830199077725"><g id="id11"><path id="ID0.4121943973004818" fill="none" stroke="none" stroke-width=".02" d="M 42.8652 25.6404 L 46.0124 25.6404 L 46.0124 33.8034 L 42.8652 33.8034 L 42.8652 25.6404 Z"/><path id="ID0.2017332073301077" fill="#3A9804" stroke="none" stroke-width=".02" d="M 42.8849 32.5052 L 42.8849 32.5052 L 42.8849 32.1904 C 43.0226 32.0331 43.1406 31.8954 43.2783 31.7577 C 43.4356 31.6594 43.593 31.5807 43.7503 31.502 C 44.1044 31.5217 44.3601 31.7577 44.5961 31.9151 C 44.6748 31.9544 44.8322 32.1118 44.8715 31.9151 C 44.9109 31.6987 45.0879 31.443 44.8912 31.1873 C 44.9109 30.9316 44.9109 30.6759 44.9305 30.4202 C 45.0092 29.2203 44.9699 27.9811 44.9895 26.7616 C 44.9895 26.3091 45.1469 25.9354 45.5403 25.66 C 45.9927 25.9157 46.1107 26.5255 45.8354 27.0566 C 45.678 27.273 45.5206 27.509 45.5206 27.8237 C 45.501 28.5515 45.5206 29.3186 45.4616 30.0464 C 45.3633 31.0889 45.3829 32.1118 45.3633 33.1346 C 45.3633 33.2526 45.3633 33.3706 45.3043 33.4887 C 45.1666 33.7837 44.8912 33.8624 44.6158 33.6854 C 44.3601 33.4887 44.0847 33.2526 43.77 33.0559 C 43.5733 32.9182 43.3963 32.7215 43.1209 32.7412 L 42.8849 32.5052 Z"/></g></g><g id="ID0.08049388416111469"><g id="id12"><path id="ID0.9891948499716818" fill="none" stroke="none" stroke-width=".02" d="M 42.6488 19.228 L 43.8094 19.228 L 43.8094 32.2298 L 42.6488 32.2298 L 42.6488 19.228 Z"/><path id="ID0.8456581584177911" fill="#1B5C00" stroke="none" stroke-width=".02" d="M 43.2783 31.7577 L 43.2783 31.7577 C 43.1406 31.8954 43.0226 32.0331 42.8849 32.1904 C 42.7668 32.0724 42.8062 31.9347 42.8062 31.797 C 42.8455 30.6365 42.8062 29.476 42.8455 28.3155 C 42.8849 27.3517 42.8455 26.4075 42.8849 25.424 C 42.8849 24.7749 42.9045 24.0865 42.8652 23.4177 C 42.8259 22.6702 42.9439 21.9621 43.2193 21.254 C 43.4356 20.6836 43.3963 20.0935 43.0422 19.5427 C 42.9439 19.3854 42.8849 19.228 42.6685 19.2673 C 42.9045 19.2083 43.1209 19.228 43.3569 19.2673 C 43.7307 19.8378 43.947 20.4475 43.652 21.077 C 43.2783 21.8834 43.3766 22.7096 43.3569 23.5554 C 43.3373 24.4208 43.2783 25.2863 43.3373 26.1518 C 43.3569 26.7812 43.3373 27.4107 43.3176 28.0204 C 43.2783 29.24 43.3176 30.4792 43.2783 31.7184 L 43.2783 31.7577 Z"/></g></g><g id="ID0.2194098443724215"><g id="id13"><path id="ID0.12132740905508399" fill="none" stroke="none" stroke-width=".02" d="M 43.1799 33.0362 L 44.4191 33.0362 L 44.4191 37.6193 L 43.1799 37.6193 L 43.1799 33.0362 Z"/><path id="ID0.22044118493795395" fill="#114B04" stroke="none" stroke-width=".02" d="M 44.3994 36.7735 L 44.3994 36.7735 C 44.2224 37.2653 43.8487 37.4816 43.3766 37.58 C 43.1406 37.5406 43.1996 37.3636 43.1996 37.2063 C 43.1996 36.4981 43.2193 35.8097 43.2586 35.1016 C 43.3176 34.4131 43.1996 33.7247 43.2783 33.0362 C 43.593 33.1543 43.8094 33.4296 44.0847 33.5673 C 44.3208 33.6854 44.3994 33.8624 44.3798 34.0984 C 44.3798 34.9836 44.3798 35.8884 44.3994 36.7735 Z"/></g></g><g id="ID0.9238214329816401"><g id="id14"><path id="ID0.4261969975195825" fill="none" stroke="none" stroke-width=".02" d="M 43.1012 25.4043 L 46.3664 25.4043 L 46.3664 36.8129 L 43.1012 36.8129 L 43.1012 25.4043 Z"/><path id="ID0.4142678580246866" fill="#318900" stroke="none" stroke-width=".02" d="M 44.3994 36.7735 L 44.3994 36.7735 C 44.3798 35.8884 44.3798 34.9836 44.3798 34.0984 C 44.3994 33.8624 44.3208 33.6854 44.0847 33.5673 C 43.8094 33.4296 43.593 33.1543 43.2783 33.0362 C 43.2193 32.9379 43.1799 32.8395 43.1209 32.7412 C 43.3963 32.7215 43.5733 32.9182 43.77 33.0559 C 44.0847 33.2526 44.3601 33.4887 44.6158 33.6854 C 44.8912 33.8624 45.1666 33.7837 45.3043 33.4887 C 45.3633 33.3706 45.3633 33.2526 45.3633 33.1346 C 45.3829 32.1118 45.3633 31.0889 45.4616 30.0464 C 45.5206 29.3186 45.501 28.5515 45.5206 27.8237 C 45.5206 27.509 45.678 27.273 45.8354 27.0566 C 46.1107 26.5255 45.9927 25.9157 45.5403 25.66 C 45.6387 25.5027 45.8157 25.4437 45.9927 25.424 C 46.4254 25.9354 46.3861 26.4862 46.1894 27.0763 C 46.0714 27.4303 45.914 27.7844 45.914 28.1778 C 45.914 29.24 45.914 30.2825 45.8354 31.3643 C 45.796 32.0528 45.796 32.7609 45.7567 33.469 C 45.737 33.7837 45.619 34.0591 45.2256 34.0984 C 45.1469 34.0984 45.1469 34.1378 45.1272 34.2164 C 44.8519 34.2164 44.7338 33.9607 44.4781 33.882 C 44.4388 34.8459 44.4191 35.8294 44.3994 36.7735 Z"/></g></g><g id="ID0.9313868121244013"><g id="id15"><path id="ID0.45022565964609385" fill="none" stroke="none" stroke-width=".02" d="M 45.678 25.4043 L 47.0352 25.4043 L 47.0352 34.4131 L 45.678 34.4131 L 45.678 25.4043 Z"/><path id="ID0.09508206695318222" fill="#1B5C00" stroke="none" stroke-width=".02" d="M 46.7598 25.4437 L 46.7598 25.4437 C 46.7795 25.8174 47.0549 26.1321 46.9959 26.5255 C 46.9762 26.6829 46.9959 26.8796 46.8975 26.9779 C 46.6221 27.273 46.6615 27.6467 46.6812 28.0008 C 46.7402 29.4367 46.5828 30.8726 46.5828 32.3281 C 46.5828 32.7412 46.5435 33.1739 46.5238 33.6067 C 46.5041 34.0591 46.1697 34.3345 45.678 34.3738 C 45.7567 34.0591 46.1107 33.882 46.0911 33.4887 C 46.0517 32.9576 46.1304 32.4265 46.1501 31.8954 C 46.1697 30.5775 46.2681 29.2793 46.2287 27.9811 C 46.2287 27.8631 46.2287 27.745 46.2878 27.627 C 46.5828 26.9779 46.7402 26.2698 46.3468 25.5617 C 46.2878 25.4633 46.3861 25.4437 46.4648 25.424 L 46.7008 25.424 L 46.7205 25.424 L 46.7402 25.424 L 46.7598 25.4437 Z"/></g></g><g id="ID0.27722778217867017"><g id="id16"><path id="ID0.9330933527089655" fill="none" stroke="none" stroke-width=".02" d="M 45.1272 25.3257 L 46.6221 25.3257 L 46.6221 34.4131 L 45.1272 34.4131 L 45.1272 25.3257 Z"/><path id="ID0.6953630242496729" fill="#2B7C01" stroke="none" stroke-width=".02" d="M 46.4648 25.424 L 46.4648 25.424 C 46.3861 25.4437 46.2878 25.4633 46.3468 25.5617 C 46.7402 26.2698 46.5828 26.9779 46.2878 27.627 C 46.2287 27.745 46.2287 27.8631 46.2287 27.9811 C 46.2681 29.2793 46.1697 30.5775 46.1501 31.8954 C 46.1304 32.4265 46.0517 32.9576 46.0911 33.4887 C 46.1107 33.882 45.7567 34.0591 45.678 34.3738 L 45.5403 34.3738 C 45.4026 34.3541 45.2453 34.2951 45.1272 34.2164 C 45.1469 34.1378 45.1469 34.0984 45.2256 34.0984 C 45.619 34.0591 45.737 33.7837 45.7567 33.469 C 45.796 32.7609 45.796 32.0528 45.8354 31.3643 C 45.914 30.2825 45.914 29.24 45.914 28.1778 C 45.914 27.7844 46.0714 27.4303 46.1894 27.0763 C 46.3861 26.4862 46.4254 25.9354 45.9927 25.424 C 46.1501 25.3257 46.3074 25.2863 46.4648 25.424 Z"/></g></g><g id="ID0.32493132585659623"><g id="id17"><path id="ID0.19111468084156513" fill="none" stroke="none" stroke-width=".02" d="M 42.6488 32.5052 L 43.3963 32.5052 L 43.3963 37.698 L 42.6488 37.698 L 42.6488 32.5052 Z"/><path id="ID0.5692764059640467" fill="#1B5C00" stroke="none" stroke-width=".02" d="M 43.1209 32.7412 L 43.1209 32.7412 C 43.1799 32.8395 43.2193 32.9379 43.2783 33.0362 C 43.1996 33.7247 43.3176 34.4131 43.2586 35.1016 C 43.2193 35.8097 43.1996 36.4981 43.1996 37.2063 C 43.1996 37.3636 43.1406 37.5406 43.3766 37.58 C 43.1996 37.7177 43.0029 37.639 42.8062 37.639 C 42.6685 37.4816 42.6488 37.3243 42.6882 37.1079 C 42.7275 36.7342 42.7078 36.3408 42.7275 35.9671 C 42.8062 35.0622 42.6685 34.1574 42.7668 33.2723 C 42.8062 33.0166 42.7078 32.7412 42.8849 32.5052 L 43.1209 32.7412 Z"/></g></g><g id="ID0.7377631613053381"><g id="id18"><path id="ID0.6317945476621389" fill="none" stroke="none" stroke-width=".02" d="M 41.9014 37.4226 L 42.0587 37.4226 L 42.0587 37.5013 L 41.9014 37.5013 L 41.9014 37.4226 Z"/><path id="ID0.4196614408865571" fill="#3A9804" stroke="none" stroke-width=".02" d="M 41.921 37.4226 L 41.921 37.4226 C 41.9604 37.4226 41.9997 37.4423 42.0391 37.462 C 41.9997 37.4423 41.9604 37.4226 41.921 37.4226 Z"/></g></g><g id="ID0.8111468208953738"><g id="id19"><path id="ID0.022609313018620014" fill="none" stroke="none" stroke-width=".02" d="M 46.7008 25.3847 L 46.7795 25.3847 L 46.7795 25.4437 L 46.7008 25.4437 L 46.7008 25.3847 Z"/><path id="ID0.540135947521776" fill="#114B04" stroke="none" stroke-width=".02" d="M 46.7402 25.424 L 46.7402 25.424 L 46.7205 25.424 L 46.7008 25.424 L 46.7205 25.4043 L 46.7402 25.424 Z"/></g></g><g id="ID0.3964701765216887"><g id="id20"><path id="ID0.5675387680530548" fill="none" stroke="none" stroke-width=".02" d="M 43.7307 31.1873 L 45.0289 31.1873 L 45.0289 32.0528 L 43.7307 32.0528 L 43.7307 31.1873 Z"/><path id="ID0.7947640842758119" fill="#318900" stroke="none" stroke-width=".02" d="M 44.8912 31.1873 L 44.8912 31.1873 C 45.0879 31.443 44.9109 31.6987 44.8715 31.9151 C 44.8322 32.1118 44.6748 31.9544 44.5961 31.9151 C 44.3601 31.7577 44.1044 31.5217 43.7503 31.502 C 44.0847 31.1873 44.5175 31.1873 44.8912 31.1873 Z"/></g></g></g></g></g></g></g></g></g></svg>