<svg version="1.1" xmlns="http://www.w3.org/2000/svg" xmlns:xlink="http://www.w3.org/1999/xlink" width="86.017" height="67.04122" viewBox="0,0,86.017,67.04122"><defs><radialGradient cx="240" cy="180" r="43.0085" gradientUnits="userSpaceOnUse" id="color-1"><stop offset="0" stop-color="#6cc924" stop-opacity="0"/><stop offset="1" stop-color="#6cc924" stop-opacity="0"/></radialGradient></defs><g transform="translate(-196.9915,-146.47939)"><g data-paper-data="{&quot;isPaintingLayer&quot;:true}" fill-rule="nonzero" stroke="none" stroke-linejoin="miter" stroke-miterlimit="10" stroke-dasharray="" stroke-dashoffset="0" style="mix-blend-mode: normal"><path d="M220.45198,161.29878c-0.10353,0 -0.10353,0 0,0l-0.93181,0.74338v0z" fill="#000000" stroke-width="1.0129" stroke-linecap="butt"/><path d="M214.41102,163.93727v0l0.93196,-0.74018c-0.10355,0 -0.10355,0 0,0z" data-paper-data="{&quot;index&quot;:null}" fill="#000000" stroke-width="1.0106" stroke-linecap="butt"/><path d="M242.41993,181.0162c0,-10.54775 -5.59116,-20.01931 -14.55811,-26.80002l5.27468,-4.08989c10.33838,7.85704 16.77348,18.83527 16.77348,30.88992c0,11.94702 -6.32961,22.81764 -16.56249,30.67467l-5.27468,-4.09c8.86147,-6.78071 14.34713,-16.25216 14.34713,-26.58467z" data-paper-data="{&quot;index&quot;:null}" fill="#9a9a9a" stroke-width="1.0106" stroke-linecap="butt"/><path d="M235.19026,177.68807l-8.28405,25.51804l-15.27371,-10.20722l-2.84764,-22.83196l15.01483,-12.89329c0,0 6.98259,11.66243 9.03964,15.34912c1.09883,1.96935 2.35093,5.06531 2.35093,5.06531z" data-paper-data="{&quot;index&quot;:null}" fill="#2c2d2e" stroke-width="1.0106" stroke-linecap="round"/><path d="M227.57928,153.82502l5.17753,-4.08283c10.14796,7.84345 16.46454,18.80271 16.46454,30.83652c0,11.92638 -6.21303,22.7782 -16.25744,30.62165l-5.17753,-4.08293c8.69825,-6.769 14.08288,-16.22408 14.08288,-26.53872c0,-10.52951 -5.48818,-19.9847 -14.28998,-26.75369z" data-paper-data="{&quot;index&quot;:null}" fill="#c2c1ba" stroke-width="1.0106" stroke-linecap="butt"/><path d="M241.86926,180.57872c0,10.31465 -5.38463,19.66229 -14.18643,26.53872l-6.31658,-5.04984l1.34616,-1.93403l-4.03847,-3.22334c1.96746,-1.71906 3.62427,-3.65309 4.97043,-5.80199l4.45267,1.61172l0.72485,-2.1489l-4.03847,-1.50419c1.13906,-2.36387 1.76036,-4.83506 1.96746,-7.52114h4.55623v-2.47121h-4.55623c-0.2071,-2.57874 -0.8284,-5.04994 -1.96746,-7.41371l3.83137,-2.1489l-1.03551,-2.04146l-3.83137,2.1489c-1.24261,-1.93393 -2.69232,-3.76052 -4.55623,-5.47958l3.62427,-2.90105l-1.65681,-2.25633l-4.14202,3.33078v0l10.56216,-8.38062c8.8018,6.76901 14.28998,16.22408 14.28998,26.64616z" data-paper-data="{&quot;index&quot;:null}" fill="#2c2d2e" stroke-width="1.0106" stroke-linecap="butt"/><path d="M213.49641,192.71997l-1.34616,1.82649l-6.93789,-5.58711c2.69231,-2.14879 4.34912,-5.15728 4.34912,-8.38062c0,-3.33079 -1.76036,-6.4467 -4.65978,-8.5956l11.28701,-9.02523v0l-4.34912,3.43821l1.65681,2.25633l4.86688,-3.86806c1.76036,1.61172 3.31361,3.43821 4.45267,5.37224l-3.31362,1.82649l1.03551,2.04146l3.31362,-1.82649c1.03551,2.1489 1.65681,4.51266 1.86391,6.87643h-4.97043v2.47121h4.97043c-0.2071,2.4712 -0.8284,4.83497 -1.96746,7.0913l-3.52072,-1.28932l-0.72485,2.1489l3.10652,1.18188c-1.24261,2.04147 -2.89942,3.86796 -4.76333,5.47968z" data-paper-data="{&quot;index&quot;:null}" fill="#2c2d2e" stroke-width="1.0106" stroke-linecap="butt"/><path d="M209.96879,181.14344c0,3.22335 -1.65681,6.23182 -4.34912,8.38062l-5.17753,-4.19026c1.34616,-1.07445 2.17456,-2.57874 2.17456,-4.19036c0,-1.82659 -0.93195,-3.33079 -2.48521,-4.51267l5.17753,-4.08293c2.89942,2.1489 4.65978,5.26482 4.65978,8.5956z" data-paper-data="{&quot;index&quot;:null}" fill="#9a9a9a" stroke-width="1.0106" stroke-linecap="butt"/><path d="M209.45792,180.57871c0,3.22335 -1.65681,6.23182 -4.34912,8.38062l-5.17753,-4.19026c1.34616,-1.07445 2.17456,-2.57874 2.17456,-4.19036c0,-1.82659 -0.93195,-3.33079 -2.48521,-4.51267l5.17753,-4.08293c2.89942,2.1489 4.65978,5.26482 4.65978,8.5956z" data-paper-data="{&quot;index&quot;:null}" fill="#c2c1ba" stroke-width="1.0106" stroke-linecap="butt"/><path d="M222.81595,170.15661c-1.13905,-1.93403 -2.69231,-3.76052 -4.45267,-5.26481l0.93196,-0.75204c1.76036,1.61162 3.31362,3.43822 4.55623,5.47958l-1.03551,0.53728z" data-paper-data="{&quot;index&quot;:null}" fill="#ffffff" stroke-width="1.0106" stroke-linecap="butt"/><path d="M217.84553,196.15815c1.96746,-1.61172 3.52072,-3.43822 4.76333,-5.47968l1.13906,0.42974c-1.34616,2.1489 -3.00297,4.08293 -4.97043,5.80199l-0.93196,-0.75204z" data-paper-data="{&quot;index&quot;:null}" fill="#ffffff" stroke-width="1.0106" stroke-linecap="butt"/><path d="M225.61182,181.54572h1.13906c-0.10355,2.57864 -0.8284,5.15727 -1.96746,7.52114l-1.03551,-0.42984c1.13906,-2.25633 1.76036,-4.62009 1.86391,-7.0913z" data-paper-data="{&quot;index&quot;:null}" fill="#ffffff" stroke-width="1.0106" stroke-linecap="butt"/><path d="M223.85146,172.19808l1.03551,-0.53728c1.13906,2.25634 1.76036,4.83497 1.96746,7.41371h-1.13906c-0.2071,-2.4712 -0.8284,-4.72753 -1.86391,-6.87643z" data-paper-data="{&quot;index&quot;:null}" fill="#ffffff" stroke-width="1.0106" stroke-linecap="butt"/><path d="M218.77748,196.91022l4.03847,3.22334l-1.34616,1.82659l-9.4231,-7.52114l1.34616,-1.82649l4.45267,3.54565l0.93196,0.75204" data-paper-data="{&quot;index&quot;:null}" fill="#2c2d2e" stroke-width="1.0106" stroke-linecap="butt"/><path d="M211.73605,166.50353l4.45267,-3.54565l0.93196,-0.75215l4.03847,-3.22334l1.65681,2.25633l-3.52072,2.7935l-0.93196,0.75215l-4.97043,3.86806l-1.65681,-2.1489" data-paper-data="{&quot;index&quot;:null}" fill="#2c2d2e" stroke-width="1.0106" stroke-linecap="butt"/><path d="M283.0085,180l-43.0085,33.52061l-43.0085,-33.52061l43.0085,-33.52061zM283.0085,146.47939zM196.9915,213.52061z" data-paper-data="{&quot;index&quot;:null}" fill="url(#color-1)" stroke-width="0.04598" stroke-linecap="butt"/></g></g></svg>