<svg xmlns="http://www.w3.org/2000/svg" xmlns:xlink="http://www.w3.org/1999/xlink" version="1.1" width="25.09950065612793" height="20.375099182128906" viewBox="-0.5002000000094995 0.40390002727508545 25.09950065612793 20.375099182128906">
  <!-- Exported by Scratch - http://scratch.mit.edu/ -->
  <g id="ID0.5141469733789563">
    <g id="ID0.358306766487658">
      <g id="ID0.045219899620860815">
        <g id="container-id1">
          <g id="id1">
            <g id="ID0.7180701862089336">
              <g id="ID0.9010128821246326">
                <g id="id6">
                  <path id="ID0.44769747694954276" fill="none" stroke="none" d="M -0.0002 0.9039 L 24.0993 0.9039 L 24.0993 20.279 L -0.0002 20.279 L -0.0002 0.9039 Z " stroke-width="0.023664568508236814"/>
                  <path id="ID0.2315921294502914" fill="#0280FF" stroke="none" d="M 11.8982 16.4569 L 11.8982 16.4569 C 9.9656 15.0386 8.0563 13.5963 6.1237 12.154 C 6.0771 12.154 6.0305 12.1299 5.984 12.1059 C 5.5881 11.9617 5.3087 11.6492 4.9827 11.4328 C 4.5869 10.9521 4.1212 10.4953 3.8418 9.9424 C 3.6788 9.654 3.4459 9.4376 3.2364 9.1972 C 3.0035 8.9568 2.7008 8.9568 2.4214 8.9568 C 2.142 8.6924 1.8859 8.3799 1.5832 8.1395 C 1.1408 7.7549 0.7915 7.2501 0.3724 6.8655 C 0.0231 6.553 -0.0234 6.1684 0.0231 5.7357 C 0.0464 5.4472 0.093 5.1587 0.2327 4.8943 C 0.6285 5.0385 0.9079 5.327 1.2339 5.5674 C 2.3749 6.4088 3.4925 7.2261 4.6102 8.0915 C 4.7033 8.1636 4.8197 8.2357 4.9361 8.2597 C 5.5415 8.2357 6.1237 8.0674 6.7058 7.9953 C 6.8688 7.9713 7.0085 7.8991 7.1482 8.0434 C 7.1482 8.2357 6.9852 8.1876 6.8688 8.2357 C 6.4264 8.404 5.9374 8.4761 5.4251 8.6924 C 8.522 10.9761 11.5489 13.2357 14.6225 15.4954 C 14.4362 14.63 14.2034 13.8367 14.0637 13.0194 C 14.087 12.8992 14.1568 12.8271 14.2499 12.9473 C 14.3198 13.0434 14.3431 13.1876 14.4129 13.3078 C 14.8088 14.2453 15.1348 15.2309 15.5539 16.1684 C 15.973 16.6732 16.3921 17.1781 16.8345 17.6588 C 16.9277 17.779 17.0674 17.8752 17.0674 18.0435 C 16.9975 18.356 16.8345 18.6444 16.7647 18.9329 C 16.6948 19.1252 16.7181 19.3415 16.7181 19.5579 C 16.6948 19.7983 16.9975 19.9185 16.9044 20.1829 C 16.6017 19.9665 16.299 19.7502 15.973 19.5098 C 15.5073 19.3415 15.1813 18.981 14.7855 18.7165 C 14.4362 18.2838 14.0171 17.9233 13.6911 17.4665 C 13.4583 17.13 13.2021 16.8175 12.8529 16.5771 C 12.5502 16.3607 12.2242 16.3607 11.8982 16.4569 Z " stroke-width="0.023664568508236814"/>
                  <path id="ID0.36677903681993484" fill="#016EDB" stroke="none" d="M 4.8896 8.3318 L 4.8896 8.3318 C 4.4472 8.1876 4.1445 7.827 3.7719 7.5866 C 2.631 6.7453 1.49 5.8799 0.3491 5.0145 C 0.3025 4.9905 0.2793 4.9424 0.2327 4.8943 C 0.5354 4.3414 0.8614 3.8366 1.3969 3.5001 C 2.3749 2.8751 3.3062 2.1779 4.2609 1.5529 C 4.7732 1.1924 5.4018 1.1443 5.984 0.9279 C 6.0538 0.8799 6.1702 0.976 6.2634 1.0241 C 7.7303 1.7693 9.1739 2.5385 10.6408 3.3078 C 10.7573 3.3799 10.897 3.428 11.0134 3.476 C 11.1531 3.5722 11.3161 3.6683 11.4558 3.7645 C 11.4791 3.8847 11.3627 3.9087 11.2695 3.9328 C 10.1519 4.5097 9.0342 5.0626 7.9166 5.6395 C 7.4742 5.8318 7.1715 6.1924 6.8688 6.5289 C 6.3099 7.0818 5.7278 7.6107 5.1923 8.1636 C 5.0991 8.2597 5.0293 8.3318 4.8896 8.3318 Z " stroke-width="0.023664568508236814"/>
                  <path id="ID0.3351324344985187" fill="rgb(38,38,38)" stroke="none" d="M 11.8982 16.4569 L 11.8982 16.4569 C 12.2009 16.1684 12.5036 16.2886 12.8063 16.4329 C 13.1789 16.6492 13.4816 16.9617 13.7377 17.3463 C 14.0404 17.8511 14.4828 18.2117 14.8553 18.6685 C 14.5992 19.0531 14.2732 19.2694 13.8541 19.3896 C 13.2254 19.4137 12.8529 18.981 12.4803 18.5723 C 12.1543 18.1636 11.9448 17.7309 11.8284 17.2261 C 11.7818 16.9858 11.8051 16.6973 11.8982 16.4569 Z " stroke-width="0.023664568508236814"/>
                  <path id="ID0.5928625375963748" fill="rgb(38,38,38)" stroke="none" d="M 2.4214 8.9568 L 2.4214 8.9568 C 2.7241 8.7645 3.0035 8.8847 3.2597 9.1011 C 3.4925 9.2934 3.7021 9.5338 3.8418 9.8222 C 4.1445 10.4232 4.6567 10.8559 5.006 11.3847 C 4.843 11.7213 4.5403 11.8896 4.1678 11.9617 C 3.5158 11.9857 3.1432 11.529 2.7707 11.0482 C 2.5146 10.7117 2.305 10.303 2.2351 9.8703 C 2.142 9.5097 2.142 9.1972 2.4214 8.9568 Z " stroke-width="0.023664568508236814"/>
                  <path id="ID0.5147991999983788" fill="rgb(146,145,145)" stroke="none" d="M 14.0171 19.4617 L 14.0171 19.4617 C 13.9472 19.4377 13.9007 19.4137 13.8541 19.3896 Z " stroke-width="0.023664568508236814"/>
                  <path id="ID0.4724537907168269" fill="rgb(146,145,145)" stroke="none" d="M 15.973 19.5098 L 15.973 19.5098 Z " stroke-width="0.023664568508236814"/>
                  <path id="ID0.17520350078120828" fill="none" stroke="none" stroke-width="0" stroke-linejoin="round" d="M 1167 1082 L 1167 1082 Z " transform="matrix(0.023284487426280975,6.5995196182815084e-34,-6.3924760330158365e-34,0.024038640782237053,-11.2,-6.5)"/>
                  <path id="ID0.33534536231309175" fill="rgb(72,70,70)" stroke="none" d="M 16.9044 20.1829 L 16.9044 20.1829 C 16.8578 19.9665 16.625 19.8464 16.625 19.606 C 16.6948 19.5338 16.788 19.4858 16.9044 19.4617 C 17.4399 19.3175 17.9522 19.1492 18.4877 19.005 C 18.6274 18.981 18.7671 18.9088 18.9068 19.029 C 18.6507 19.2694 18.348 19.4137 18.0686 19.606 C 17.7659 19.7742 17.5098 19.9665 17.2071 20.1589 C 17.1139 20.2069 17.0208 20.3271 16.9044 20.1829 Z " stroke-width="0.023664568508236814"/>
                  <path id="ID0.20975186489522457" fill="rgb(146,145,145)" stroke="none" d="M 5.006 11.3847 L 5.006 11.3847 C 5.3786 11.5771 5.6813 11.8415 5.984 12.1059 Z " stroke-width="0.023664568508236814"/>
                  <path id="ID0.5071036396548152" fill="#016EDB" stroke="none" d="M 12.8994 4.3895 L 12.8994 4.3895 C 13.8308 5.0866 14.7622 5.7597 15.7169 6.4328 C 16.6482 7.1059 17.6029 7.803 18.5343 8.5001 C 18.6274 8.5482 18.7671 8.6203 18.7671 8.7405 C 18.6041 9.2453 18.2782 9.5819 17.9056 9.9184 C 17.5563 10.2549 17.1605 10.5915 16.7647 10.8799 C 15.973 11.3847 15.158 11.8415 14.2732 12.0819 C 14.1568 12.1299 14.0171 12.2021 13.8774 12.178 C 13.3418 11.8896 12.8762 11.4809 12.4105 11.1203 C 11.0833 10.1588 9.7328 9.1732 8.4055 8.1876 C 8.2891 8.1155 8.1727 8.0434 8.0796 7.8991 C 8.0563 7.7068 8.1727 7.6107 8.2658 7.5145 C 8.8712 6.9616 9.4533 6.4088 10.0355 5.8559 C 10.1286 5.7597 10.2683 5.7116 10.3847 5.6395 C 11.0833 5.2789 11.8051 4.8943 12.5036 4.5337 C 12.62 4.4616 12.7365 4.3895 12.8994 4.3895 Z " stroke-width="0.023664568508236814"/>
                  <path id="ID0.4422818198800087" fill="rgb(148,148,185)" stroke="none" d="M 16.7647 10.8078 L 16.7647 10.8078 C 17.5098 10.2069 18.2316 9.5819 18.7671 8.7405 C 19.0465 8.6924 19.163 8.9568 19.3027 9.1011 C 20.1642 9.7982 21.0024 10.4953 21.8407 11.1924 C 21.9571 11.3126 22.0968 11.4088 22.0735 11.6011 C 22.1667 11.7213 22.0968 11.8174 22.0502 11.9376 C 21.8873 12.3703 21.7243 12.8271 21.5147 13.2357 C 20.9792 13.9328 20.4203 14.5578 19.7218 15.0627 C 19.6519 15.0867 19.6287 15.0627 19.5821 15.0386 C 19.3027 14.4136 18.837 13.9088 18.4412 13.3559 C 17.9755 12.6828 17.4632 12.0819 16.9975 11.4088 C 16.8811 11.2405 16.6948 11.0722 16.7647 10.8078 Z " stroke-width="0.023664568508236814"/>
                  <path id="ID0.223691841121763" fill="#0159B1" stroke="none" d="M 19.5821 15.0146 L 19.5821 15.0146 C 19.6287 15.0146 19.6752 15.0146 19.6985 15.0146 C 20.0711 15.1107 20.3039 14.9665 20.5368 14.7021 C 20.723 14.4136 20.9559 14.1492 21.1887 13.9328 C 21.375 13.7405 21.3983 13.4761 21.4449 13.2357 C 21.6544 12.6828 21.864 12.154 22.0735 11.6011 C 22.19 11.529 22.2598 11.6011 22.3064 11.6732 C 22.7721 12.2021 23.2145 12.7309 23.6569 13.2598 C 23.7267 13.3559 23.7034 13.4521 23.6569 13.5723 C 23.4473 14.0771 23.3309 14.6059 23.1213 15.1107 C 23.0282 15.4232 22.7954 15.6396 22.5392 15.8319 C 21.538 16.505 20.5833 17.2502 19.5821 17.9473 C 19.4424 18.0194 19.3027 18.1156 19.1397 18.1156 C 18.5809 18.1156 18.0453 18.1877 17.5098 18.0915 C 17.4632 18.0675 17.4166 18.0194 17.4166 17.9954 C 17.4166 17.5867 17.3934 17.1781 17.4632 16.7694 C 17.4865 16.5531 17.696 16.4809 17.8358 16.3848 C 18.0919 16.2646 18.2549 16.0963 18.1617 15.7598 C 18.1617 15.7357 18.1617 15.7117 18.185 15.7117 C 18.6274 15.3992 19.0698 15.1107 19.5821 15.0146 Z " stroke-width="0.023664568508236814"/>
                  <path id="ID0.610075845848769" fill="rgb(208,208,253)" stroke="none" d="M 12.8994 4.3895 L 12.8994 4.3895 C 12.1311 4.7982 11.3627 5.2309 10.571 5.6155 C 10.1984 5.7837 9.8725 6.0962 9.5698 6.3847 C 9.1041 6.8174 8.6384 7.2741 8.1727 7.7068 C 8.1261 7.7549 8.0796 7.827 8.1261 7.8991 C 7.7769 7.9232 7.4974 8.1876 7.1249 8.0915 C 6.8688 7.9232 6.5893 8.1155 6.3099 8.1395 C 5.8675 8.1876 5.4484 8.2838 5.006 8.3799 C 4.9594 8.404 4.9129 8.404 4.8896 8.3318 C 5.495 7.7309 6.1469 7.178 6.7058 6.553 C 7.3577 5.8318 8.1494 5.3751 8.9877 4.9905 C 9.8026 4.5818 10.6176 4.1732 11.4558 3.7645 C 11.9448 3.9087 12.4338 4.1491 12.8994 4.3895 Z " stroke-width="0.023664568508236814"/>
                  <path id="ID0.7148164957761765" fill="#01458A" stroke="none" d="M 19.2328 18.0194 L 19.2328 18.0194 C 19.8382 17.6829 20.3738 17.2261 20.9792 16.8415 C 21.4681 16.505 21.9571 16.0963 22.4461 15.7598 C 22.7255 15.5915 22.9351 15.3992 23.0515 15.1107 C 23.3309 14.7502 23.5172 14.3415 23.7966 13.9809 C 23.8664 13.8607 23.913 13.7405 24.0527 13.7405 C 24.1226 14.053 24.0527 14.3415 23.9363 14.63 C 23.6569 15.1107 23.424 15.6636 23.0515 16.0963 C 21.7475 17.0338 20.4436 17.9473 19.163 18.9088 C 19.0698 18.9569 18.9767 18.981 18.9068 19.029 C 18.2316 19.1492 17.5796 19.3896 16.9277 19.5579 C 16.8345 19.5819 16.7181 19.606 16.625 19.606 C 16.625 19.3656 16.5551 19.1252 16.6715 18.8848 C 17.3468 18.7406 17.9755 18.404 18.6274 18.2117 C 18.8137 18.1396 19.0233 18.0675 19.2328 18.0194 Z " stroke-width="0.023664568508236814"/>
                  <path id="ID0.38432395039126277" fill="rgb(123,25,25)" stroke="none" d="M 24.0527 13.7405 L 24.0527 13.7405 C 23.7267 14.1492 23.4939 14.63 23.1912 15.0386 C 23.1446 15.0867 23.1213 15.1829 23.0515 15.1107 C 23.261 14.4857 23.4473 13.8607 23.6569 13.2598 C 23.8432 13.38 23.9829 13.5482 24.0527 13.7405 Z " stroke-width="0.023664568508236814"/>
                  <path id="ID0.377463539596647" fill="rgb(93,68,68)" stroke="none" d="M 23.0515 16.0963 L 23.0515 16.0963 C 23.3309 15.5915 23.5637 15.0627 23.9363 14.63 C 23.7966 15.2069 23.5637 15.7357 23.0515 16.0963 Z " stroke-width="0.023664568508236814"/>
                  <path id="ID0.5684583224356174" fill="rgb(238,238,254)" stroke="none" d="M 7.1249 8.0915 L 7.1249 8.0915 C 7.4742 8.0915 7.7536 7.779 8.1261 7.8991 C 9.5698 8.9568 11.0134 10.0145 12.4803 11.0963 C 12.946 11.4328 13.4117 11.7934 13.8774 12.1299 C 14.1102 12.3703 14.087 12.6828 14.1102 13.0194 C 14.3198 13.8607 14.5294 14.7502 14.7622 15.7117 C 11.5489 13.3319 8.4055 11.0242 5.2156 8.6443 C 5.8908 8.452 6.5195 8.2357 7.1249 8.0915 Z " stroke-width="0.023664568508236814"/>
                  <path id="ID0.6117870477028191" fill="rgb(168,168,210)" stroke="none" d="M 14.1102 13.0194 L 14.1102 13.0194 C 13.9705 12.7309 13.9705 12.4184 13.8774 12.1299 C 14.7622 11.8655 15.6237 11.4809 16.4154 10.9761 C 16.5318 10.904 16.625 10.8559 16.7647 10.8078 C 17.1372 11.6011 17.7659 12.2501 18.2316 12.9713 C 18.6274 13.5242 19.0465 14.053 19.4657 14.5819 C 19.5588 14.7021 19.6054 14.8463 19.5821 15.0146 C 19.1164 15.255 18.6507 15.4954 18.2083 15.7357 C 18.0919 15.9281 17.9056 15.9761 17.7426 16.0002 C 17.0907 16.1204 16.4387 16.2165 15.7634 16.2886 C 15.6936 16.3127 15.6004 16.2886 15.5073 16.2406 C 15.158 15.6396 14.995 14.9665 14.7156 14.3175 C 14.5294 13.8607 14.3664 13.428 14.2034 12.9713 C 14.1801 12.9713 14.1801 12.9713 14.1801 12.9473 C 14.1568 12.9713 14.1335 12.9713 14.1102 13.0194 Z " stroke-width="0.023664568508236814"/>
                  <path id="ID0.5621068137697875" fill="#0159B1" stroke="none" d="M 15.5073 16.2406 L 15.5073 16.2406 C 16.1127 16.1444 16.7414 16.0482 17.3468 15.9521 C 17.6262 15.9281 17.9056 15.8319 18.2083 15.7357 C 18.3713 15.9521 18.3247 16.2886 18.0453 16.3848 C 17.5331 16.5771 17.4399 16.9136 17.5098 17.3944 C 17.5563 17.6108 17.4632 17.8031 17.4399 18.0194 C 17.3002 18.1636 17.1605 18.1636 17.0208 18.0194 C 16.5318 17.4184 16.0196 16.8415 15.5073 16.2406 Z " stroke-width="0.023664568508236814"/>
                  <path id="ID0.3554665087722242" fill="rgb(122,26,26)" stroke="none" d="M 17.0208 18.0194 L 17.0208 18.0194 C 17.1605 18.0194 17.3002 18.0194 17.4399 18.0194 C 18.0453 18.0194 18.6274 18.0194 19.2328 18.0194 C 18.511 18.356 17.7659 18.5963 17.0208 18.9088 C 16.9044 18.9329 16.788 19.005 16.6715 18.8848 C 16.788 18.5963 16.9044 18.3079 17.0208 18.0194 Z " stroke-width="0.023664568508236814"/>
                  <path id="ID0.9783568484708667" fill="#0159B1" stroke="#0159B1" stroke-width="0.04732913701647363" d="M 21.4449 13.2357 L 21.4449 13.2357 C 21.5846 13.5242 21.4449 13.7405 21.3051 13.9328 C 21.0024 14.2694 20.6997 14.5578 20.4436 14.9184 C 20.2108 15.1829 19.9779 15.2309 19.6985 15.0146 C 20.3505 14.4857 20.9093 13.8607 21.4449 13.2357 Z "/>
                </g>
              </g>
            </g>
          </g>
        </g>
      </g>
    </g>
  </g>
<defs/></svg>