<svg version="1.1" xmlns="http://www.w3.org/2000/svg" xmlns:xlink="http://www.w3.org/1999/xlink" width="305.75675" height="74.97484" viewBox="0,0,305.75675,74.97484"><g transform="translate(-87.12162,-142.51258)"><g data-paper-data="{&quot;isPaintingLayer&quot;:true}" fill-rule="nonzero" stroke="none" stroke-linecap="butt" stroke-linejoin="miter" stroke-miterlimit="10" stroke-dasharray="" stroke-dashoffset="0" style="mix-blend-mode: normal"><path d="M87.12163,217.48742v-74.97484h305.75675v74.97484z" fill="#000000" stroke-width="0"/><g fill="#ffffff" stroke-width="1"><path d="M101.66074,172.6427h4.23771c1.86713,0 3.39367,0.96919 3.39367,3.10385c0,2.36226 -1.52085,3.63094 -4.38262,3.63094h-3.47029l-0.9136,4.80157h-1.14262zM101.65155,178.32508h3.24788c1.66488,0 3.20236,-0.51571 3.18967,-2.51724c-0.01269,-1.41836 -0.93073,-2.11622 -2.51548,-2.11622h-2.98479z"/><path d="M116.76546,181.99542c-0.13835,0.73196 -0.28937,1.50333 -0.39531,2.18365h-1.07737c0.05221,-0.51792 0.13407,-1.03242 0.24516,-1.54099c-0.52413,1.15899 -1.71789,1.86568 -2.9861,1.76776c-1.67319,0 -2.70066,-1.08832 -2.23225,-3.43132l0.97977,-4.94342h1.09488l-0.93466,4.68687c-0.25435,1.29846 -0.18213,2.65995 1.39038,2.65995c1.73185,0 2.78602,-1.27744 3.31705,-3.90499l0.68994,-3.44183h1.08217z"/><path d="M119.83034,181.61193c0.1795,1.40438 1.23759,1.85356 2.45419,1.85356c1.18682,0 2.12846,-0.55161 2.12846,-1.51033c0,-0.7661 -0.47674,-1.21878 -2.11797,-1.60576c-2.10658,-0.50171 -2.64106,-1.16101 -2.64106,-2.18453c0,-1.41053 1.16099,-2.3605 3.02111,-2.3605c2.78296,0 3.19054,1.80364 3.19798,2.53036h-1.08749c-0.10857,-0.70044 -0.55073,-1.58651 -2.20904,-1.58651c-1.15443,0 -1.80015,0.50432 -1.80015,1.30371c0,0.66017 0.55292,0.97713 2.0094,1.33435c2.11491,0.51746 2.77727,1.20476 2.77727,2.42791c0,1.49369 -1.23016,2.59165 -3.40681,2.59165c-2.00459,0 -3.31748,-0.92898 -3.40593,-2.79392z"/><path d="M130.42549,171.96765l-1.13561,5.65787c0.62156,-1.12075 1.80085,-1.8175 3.08241,-1.82115c1.6815,0 2.74357,1.08043 2.26462,3.48122l-0.9701,4.89349h-1.08486l0.92459,-4.69388c0.2955,-1.51383 0.10595,-2.63718 -1.54099,-2.63718c-1.61015,0 -2.78998,1.43417 -3.22687,3.68086l-0.72234,3.6502h-1.08263l2.41179,-12.21142z"/><path d="M137.76921,176.0311h1.08217l-1.61185,8.14797h-1.08263zM138.56598,171.96762h1.08486l-0.34717,1.77563h-1.08486z"/><path d="M140.95145,178.08429c0.13615,-0.68469 0.28499,-1.48494 0.38043,-2.05315h1.05199c-0.06567,0.52006 -0.16677,1.08744 -0.27537,1.62941c0.5531,-1.1374 1.70777,-1.85844 2.97252,-1.8562c1.69289,0 2.86045,0.96486 2.33861,3.62304l-0.94693,4.75166h-1.08486l0.93732,-4.79456c0.29332,-1.45956 -0.00831,-2.53649 -1.56419,-2.53649c-1.73576,0 -2.81229,1.59615 -3.21637,3.62744l-0.72233,3.70361h-1.08264z"/><path d="M156.16472,183.13978c-0.58969,2.95502 -1.29977,4.8926 -4.48593,4.8926c-3.01366,0 -3.30173,-1.93061 -3.31442,-2.77903h1.08486c0.10332,1.00339 0.72583,1.79315 2.36926,1.79315c2.21823,0 2.77901,-1.5296 3.27152,-3.86734l0.10595,-0.49207c-0.62244,1.0652 -1.79792,1.68208 -3.02812,1.58913c-1.84919,0 -3.02242,-1.28707 -3.02242,-3.50836c0,-2.52424 1.657,-4.96354 4.28981,-4.96354c1.67537,0 2.56844,0.9097 2.74094,1.69158c0.11382,-0.53409 0.29813,-1.22491 0.37386,-1.4648h1.05986c-0.13835,0.62776 -0.30732,1.38341 -0.44565,2.07682zM150.27747,180.71797c0,1.58826 0.79412,2.55139 2.17182,2.55139c1.81634,0 2.91605,-1.31509 3.24657,-3.01193c0.37606,-1.90872 -0.23947,-3.44182 -2.2712,-3.44182c-1.89602,-0.00001 -3.14719,1.77125 -3.14719,3.90237z"/><path d="M164.13231,180.84055c0.2723,1.62417 1.4543,2.56101 3.42124,2.56101c1.5725,0 3.24918,-0.63658 3.24918,-2.39728c0,-1.17764 -0.6466,-1.86056 -2.93137,-2.45244c-2.57585,-0.66892 -3.47947,-1.37025 -3.47947,-2.96027c0,-1.70295 1.42191,-3.19229 4.03938,-3.19229c3.25532,0 4.12652,1.84569 4.17685,3.19754h-1.14258c-0.13136,-0.96399 -0.7578,-2.16876 -3.1494,-2.16876c-1.66531,0 -2.72211,0.81514 -2.72211,2.05315c0,1.01391 0.61814,1.48057 2.75319,2.01549c2.95983,0.74518 3.66553,1.85976 3.66553,3.35784c0,2.12761 -1.5922,3.56702 -4.56166,3.56702c-2.54394,0 -4.20925,-1.09356 -4.48987,-3.58104z"/><path d="M180.84503,181.61805c-0.48072,1.72145 -2.09071,2.8795 -3.87567,2.78779c-2.34694,0 -3.28992,-1.68546 -3.28992,-3.60905c0,-2.52512 1.57294,-4.99244 4.29199,-4.99244c0.82215,-0.08735 1.64296,0.17649 2.26019,0.72656c0.61725,0.55006 0.97353,1.33517 0.98108,2.1619h-1.07694c-0.0433,-0.55397 -0.30793,-1.06713 -0.73413,-1.42364c-0.4262,-0.35651 -0.97805,-0.52632 -1.53095,-0.47107c-1.95949,0 -3.07365,1.95951 -3.07365,3.93127c0,1.54274 0.7254,2.67745 2.31805,2.67745c1.16838,0.02743 2.22471,-0.69169 2.62755,-1.78878z"/><path d="M183.26896,178.42751c0.15323,-0.80114 0.3244,-1.66531 0.44303,-2.3964h1.02966c-0.01752,0.23114 -0.17161,1.14522 -0.34103,1.93849c0.54158,-1.26388 1.77837,-2.08875 3.15333,-2.1031l-0.26179,1.20389c-1.81108,0.03501 -2.96027,1.43154 -3.39585,3.66071l-0.67901,3.44795h-1.08701z"/><path d="M194.40344,181.70122c-0.25216,1.29233 -0.4137,2.09435 -0.4566,2.47783h-1.0752c0.02539,-0.31345 0.13439,-0.86505 0.23026,-1.33611c-0.63865,1.08749 -1.8558,1.69922 -3.10955,1.56289c-0.67035,0.08891 -1.34621,-0.11818 -1.8517,-0.56734c-0.50549,-0.44917 -0.79059,-1.096 -0.78111,-1.77215c0,-2.53386 2.76546,-2.77115 4.06478,-2.90074c0.62997,-0.06479 1.77389,-0.06741 2.39206,-0.06918l0.05559,-0.28193c0.19963,-1.02616 -0.0547,-2.04531 -1.89733,-2.04531c-1.4508,0 -2.12806,0.50869 -2.39817,1.49279h-1.10715c0.25916,-1.25643 1.12073,-2.4577 3.60162,-2.4577c2.54178,0 3.21637,1.43855 2.88147,3.11174zM193.65923,180.01052c-0.9815,0.00263 -1.66532,0.02102 -2.28608,0.08406c-1.43636,0.13484 -2.85564,0.45441 -2.85564,1.86756c0,0.8563 0.6221,1.42278 1.73404,1.42278c2.02692,0 2.90992,-1.14873 3.35427,-3.13275z"/><path d="M196.63437,176.0311h1.49502l0.53934,-2.72298h1.08486l-0.53938,2.72298h1.95991l-0.20269,0.95874h-1.95991l-0.94648,4.82081c-0.19963,1.00427 -0.04509,1.4508 0.80508,1.4508c0.33438,0.00327 0.66801,-0.03228 0.99419,-0.10595l-0.18781,0.93512c-0.38932,0.12575 -0.79767,0.18235 -1.20653,0.16724c-1.42453,0 -1.81153,-0.82828 -1.51954,-2.32811l0.97625,-4.93991h-1.49502z"/><path d="M208.51396,181.61805c-0.48072,1.72145 -2.09071,2.8795 -3.87567,2.78779c-2.34694,0 -3.28992,-1.68546 -3.28992,-3.60905c0,-2.52512 1.57294,-4.99244 4.29199,-4.99244c0.82212,-0.08746 1.64296,0.17638 2.26016,0.72647c0.6172,0.5501 0.97337,1.33527 0.98072,2.162h-1.07649c-0.0433,-0.55397 -0.30793,-1.06713 -0.73413,-1.42364c-0.4262,-0.35651 -0.97805,-0.52632 -1.53095,-0.47107c-1.95949,0 -3.07365,1.95951 -3.07365,3.93127c0,1.54274 0.7254,2.67745 2.31805,2.67745c1.16838,0.02743 2.22471,-0.69169 2.62755,-1.78878z"/><path d="M213.37023,171.96765l-1.1356,5.65787c0.62176,-1.12076 1.80116,-1.81749 3.08284,-1.82115c1.68197,0 2.74313,1.08043 2.2642,3.48122l-0.96924,4.89349h-1.08486l0.92459,-4.69388c0.29507,-1.51383 0.10507,-2.63718 -1.54185,-2.63718c-1.60928,0 -2.78952,1.43417 -3.22643,3.68086l-0.72233,3.6502h-1.08217l2.41129,-12.21142z"/><path d="M224.06082,176.0311h1.49548l0.53934,-2.72298h1.08486l-0.5394,2.72298h1.95949l-0.20316,0.95875h-1.95951l-0.94648,4.82081c-0.19963,1.00427 -0.04464,1.4508 0.80552,1.4508c0.33425,0.00325 0.66772,-0.03231 0.99376,-0.10595l-0.18738,0.93512c-0.38935,0.12566 -0.79767,0.18226 -1.20653,0.16724c-1.4254,0 -1.81241,-0.82828 -1.51997,-2.32811l0.97624,-4.93991h-1.49548z"/><path d="M236.53315,179.60251c0,2.39296 -1.35624,4.80069 -4.30775,4.80332c-2.15476,0.00263 -3.45057,-1.5585 -3.45057,-3.76052c0,-2.47345 1.55499,-4.84096 4.31564,-4.84096c2.32109,0 3.44269,1.83166 3.44269,3.79817zM229.87977,180.58402c0,1.7082 1.00601,2.81754 2.45858,2.81754c2.16701,0 3.08022,-1.94725 3.08022,-3.75527c0,-1.57338 -0.79589,-2.84381 -2.46383,-2.84381c-1.89559,0 -3.07497,1.80977 -3.07497,3.78153z"/><path d="M243.93771,176.0311h1.08217l-1.61191,8.14796h-1.08217zM244.73447,171.96762h1.08486l-0.34668,1.77565h-1.08486z"/><path d="M246.52765,176.0311h1.49548l0.53934,-2.72298h1.08486l-0.5394,2.72298h1.95951l-0.20312,0.95874h-1.95951l-0.94648,4.82081c-0.19962,1.00427 -0.04464,1.4508 0.80552,1.4508c0.33425,0.00325 0.66772,-0.03231 0.99376,-0.10595l-0.18738,0.93512c-0.38935,0.12566 -0.79767,0.18226 -1.20653,0.16724c-1.4254,0 -1.8124,-0.82828 -1.51997,-2.32811l0.97625,-4.93991h-1.49548z"/><path d="M252.17063,181.61193c0.17948,1.40438 1.23717,1.85356 2.4533,1.85356c1.18727,0 2.12937,-0.55161 2.12937,-1.51033c0,-0.7661 -0.47717,-1.21878 -2.11797,-1.60576c-2.10748,-0.5017 -2.64156,-1.16099 -2.64156,-2.18452c0,-1.41053 1.16099,-2.3605 3.02156,-2.3605c2.78252,0 3.19054,1.80364 3.19754,2.53036h-1.08747c-0.10857,-0.70044 -0.55072,-1.58651 -2.20902,-1.58651c-1.15487,0 -1.80016,0.50432 -1.80016,1.30371c0,0.66017 0.55335,0.97713 2.0094,1.33435c2.11448,0.51746 2.77727,1.20476 2.77727,2.42791c0,1.49369 -1.23016,2.59165 -3.4068,2.59165c-2.00416,0 -3.31751,-0.92898 -3.40593,-2.79392z"/><path d="M263.86809,184.17907l2.41131,-12.21142h1.08306l-2.41217,12.21142z"/><path d="M269.12671,176.0311h1.08217l-1.61183,8.14797h-1.08217zM269.92347,171.96762h1.08486l-0.34673,1.77563h-1.08486z"/><path d="M272.26645,178.31109c0.15063,-0.7661 0.29155,-1.53747 0.42289,-2.27999h1.06029c-0.01575,0.17248 -0.1471,1.02616 -0.24604,1.41753c0.52104,-1.00979 1.56219,-1.64421 2.69847,-1.64431c0.49868,-0.05042 0.99633,0.1049 1.3778,0.43c0.38147,0.32511 0.61372,0.79185 0.64298,1.29221c0.56299,-1.07809 1.68733,-1.74502 2.90336,-1.72222c1.46832,0 2.52074,0.9421 2.05405,3.30698l-0.99726,5.06774h-1.07782l0.97539,-4.98015c0.21451,-1.02791 0.20925,-2.35088 -1.33698,-2.35088c-1.34048,0 -2.34474,1.13472 -2.70372,2.99091l-0.85105,4.34014h-1.08217l0.98764,-4.99332c0.20226,-1.01478 0.21451,-2.33774 -1.29583,-2.33774c-1.562,0 -2.46907,1.50333 -2.78777,3.145l-0.82036,4.18605h-1.08045z"/><path d="M286.31741,176.0311h1.08217l-1.61191,8.14796h-1.08217zM287.11419,171.96762h1.08486l-0.34673,1.77563h-1.08486z"/><path d="M288.90733,176.0311h1.49548l0.53934,-2.72298h1.08486l-0.53942,2.72298h1.95949l-0.20312,0.95874h-1.95951l-0.94646,4.82084c-0.19963,1.00427 -0.04466,1.4508 0.80552,1.4508c0.33423,0.00325 0.66772,-0.03231 0.99376,-0.10595l-0.18738,0.93512c-0.38935,0.12566 -0.79767,0.18226 -1.20653,0.16724c-1.42541,0 -1.81241,-0.82828 -1.51998,-2.32811l0.97625,-4.93991h-1.49548z"/><path d="M294.5503,181.61193c0.1795,1.40438 1.23717,1.85356 2.45333,1.85356c1.18727,0 2.12937,-0.55161 2.12937,-1.51033c0,-0.7661 -0.47718,-1.21878 -2.11798,-1.60576c-2.10747,-0.5017 -2.64155,-1.16099 -2.64155,-2.18452c0,-1.41053 1.16099,-2.3605 3.02155,-2.3605c2.78253,0 3.19054,1.80364 3.19754,2.53036h-1.08744c-0.10857,-0.70044 -0.55073,-1.58651 -2.20904,-1.58651c-1.15487,0 -1.80015,0.50432 -1.80015,1.30371c0,0.66017 0.55335,0.97713 2.0094,1.33435c2.11448,0.51746 2.77727,1.20476 2.77727,2.42791c0,1.49369 -1.23016,2.59165 -3.40681,2.59165c-2.00415,0 -3.31748,-0.92898 -3.40593,-2.79392z"/><path d="M307.23629,181.61193c0.17948,1.40438 1.23717,1.85356 2.4533,1.85356c1.18727,0 2.12937,-0.55161 2.12937,-1.51033c0,-0.7661 -0.47717,-1.21878 -2.11797,-1.60576c-2.10748,-0.5017 -2.64156,-1.16099 -2.64156,-2.18452c0,-1.41053 1.16099,-2.3605 3.02156,-2.3605c2.78252,0 3.19054,1.80364 3.19754,2.53036h-1.08744c-0.10857,-0.70044 -0.55073,-1.58651 -2.20902,-1.58651c-1.15487,0 -1.80016,0.50432 -1.80016,1.30371c0,0.66017 0.55335,0.97713 2.0094,1.33435c2.11448,0.51746 2.77727,1.20476 2.77727,2.42791c0,1.49369 -1.23016,2.59165 -3.4068,2.59165c-2.00416,0 -3.31751,-0.92898 -3.40593,-2.79392z"/><path d="M315.99624,176.0311h1.08217l-1.61191,8.14796h-1.08217zM316.793,171.96762h1.08486l-0.34673,1.77563h-1.08486z"/><path d="M319.17978,178.08429c0.13572,-0.68469 0.28456,-1.48494 0.38,-2.05315h1.05242c-0.06654,0.52006 -0.16723,1.08744 -0.2758,1.62941c0.55311,-1.13737 1.70779,-1.85842 2.97252,-1.85618c1.69333,0 2.86045,0.96486 2.33861,3.62304l-0.94648,4.75166h-1.08486l0.93684,-4.79457c0.29332,-1.45956 -0.00876,-2.53649 -1.56374,-2.53649c-1.73624,0 -2.81317,1.59615 -3.2168,3.62744l-0.72234,3.70361h-1.08217z"/><path d="M334.53272,181.61805c-0.48039,1.72148 -2.09033,2.87966 -3.87524,2.78779c-2.34736,0 -3.28948,-1.68546 -3.28948,-3.60905c0,-2.52512 1.5725,-4.99244 4.29112,-4.99244c0.82219,-0.08754 1.64311,0.17624 2.2604,0.72634c0.6173,0.5501 0.97354,1.33532 0.98092,2.16212h-1.07694c-0.04307,-0.5539 -0.30751,-1.06705 -0.73357,-1.42359c-0.42606,-0.35654 -0.97781,-0.52636 -1.53061,-0.47113c-1.95951,0 -3.07409,1.95951 -3.07409,3.93127c0,1.54274 0.72583,2.67745 2.31764,2.67745c1.16845,0.02766 2.2249,-0.69153 2.62756,-1.78878z"/><path d="M337.18214,180.35725c-0.01649,0.12395 -0.02497,0.24883 -0.02539,0.37386c0,1.78614 0.9132,2.67572 2.31675,2.67572c1.05816,0.07729 2.05614,-0.49964 2.51724,-1.45519h1.13735c-0.56785,1.57043 -2.10966,2.57268 -3.77541,2.45419c-2.10397,0 -3.28594,-1.42805 -3.28594,-3.66249c0,-2.51197 1.58038,-4.93903 4.35503,-4.93903c2.2747,0 3.24307,1.57863 3.24307,3.41905c0.00074,0.3813 -0.04036,0.76152 -0.12257,1.13385zM342.58695,179.43178c0,-0.01926 0.01312,-0.15146 0.01312,-0.32309c0.06688,-0.63066 -0.15276,-1.25805 -0.59839,-1.70929c-0.44564,-0.45123 -1.07023,-0.67868 -1.70168,-0.61968c-1.51451,0.01487 -2.78399,1.14882 -2.96902,2.65206z"/><path d="M348.58543,184.17907l0.04553,-0.21277c0.30906,-1.42892 1.39301,-3.09598 4.13526,-4.80506c1.81505,-1.12597 3.07147,-1.69246 3.07147,-3.13538c0.04911,-0.57019 -0.16276,-1.13192 -0.57618,-1.52766c-0.41342,-0.39574 -0.98389,-0.58286 -1.55138,-0.50889c-1.26169,0 -2.17751,0.79676 -2.62231,2.34563h-1.10233c0.49469,-2.04706 1.73449,-3.36827 3.84719,-3.36827c0.82931,-0.07408 1.65019,0.21383 2.25155,0.78968c0.60136,0.57587 0.92455,1.38348 0.88646,2.21523c0,1.98143 -1.45604,2.74225 -3.53462,3.98905c-2.16964,1.31421 -2.91207,2.28258 -3.37441,3.19578h6.24886l-0.36598,1.02266z"/><path d="M366.32426,176.98284c0,3.31836 -1.43504,7.423 -4.82608,7.423c-2.06806,0 -3.14763,-1.46744 -3.14763,-4.03457c0,-3.15553 1.5112,-7.4046 4.85147,-7.4046c2.07422,0 3.12225,1.42013 3.12225,4.01619zM359.49052,180.31698c0,1.95074 0.66718,3.04695 2.14249,3.04695c2.50672,0 3.55042,-3.86734 3.55042,-6.35131c0,-1.92885 -0.62514,-3.01017 -2.07683,-3.01017c-2.50152,0.00001 -3.61609,3.7509 -3.61609,6.31455z"/><path d="M368.80121,184.17907l1.88683,-9.46042c-0.78727,0.43624 -1.64191,0.73779 -2.52861,0.8922l0.19262,-0.96488c1.05585,-0.27424 2.04153,-0.76931 2.89197,-1.45253h0.82126l-2.17138,10.98564z"/><path d="M374.01601,175.73344c0.36078,-1.68015 1.88666,-2.85079 3.60293,-2.76414c2.08995,0 2.99617,1.2608 2.99617,2.68184c0.04628,1.20705 -0.7615,2.28067 -1.93412,2.57065v0.03239c1.03409,0.40289 1.68827,1.42897 1.61715,2.53649c0,1.85182 -1.22666,3.61518 -3.92864,3.61518c-0.89784,0.09615 -1.79416,-0.19419 -2.46511,-0.79848c-0.67094,-0.60428 -1.05315,-1.46546 -1.05113,-2.36842h1.09357c0.03322,0.62229 0.31919,1.20399 0.79166,1.61034c0.47247,0.40635 1.09043,0.60205 1.71067,0.54179c0.70601,0.07719 1.41037,-0.15903 1.9271,-0.64626c0.51672,-0.48724 0.79386,-1.17653 0.75823,-1.88585c0,-1.44117 -0.84491,-2.16438 -2.38678,-2.16438h-0.78629l0.21976,-1.01653h0.64266c1.80891,0 2.66783,-0.66981 2.66783,-1.96651c0,-0.9386 -0.53759,-1.7301 -2.00591,-1.7301c-1.0943,-0.0202 -2.06493,0.69916 -2.36401,1.75199z"/></g></g></g></svg>