<svg xmlns="http://www.w3.org/2000/svg" xmlns:xlink="http://www.w3.org/1999/xlink" width="62.489" height="69.953" version="1.1" viewBox="-0.305 -0.365 62.489 69.953"><g id="ID0.6294984817504883"><path id="ID0.8153925891965628" fill="#B5AFAD" stroke="none" stroke-width=".189" d="M 0.3821 18.4981 L 0.3821 18.4981 C 9.0056 12.599 17.8165 6.5097 26.4399 0.4204 C 27.0023 0.0398 27.3773 0.0398 27.9397 0.4204 C 37.8754 7.4612 47.8111 14.5019 57.7469 21.5427 C 58.8717 22.3039 59.9965 23.2553 60.9338 24.0165 C 61.3087 24.2068 61.6837 24.3971 61.6837 24.968 C 61.4962 26.1097 61.6837 27.4417 61.4962 28.5835 C 61.1213 28.2029 61.3087 27.8223 61.3087 27.4417 C 61.3087 26.8709 61.3087 25.9194 61.1213 24.968 C 60.9338 24.968 60.7463 25.1582 60.5589 25.3485 C 58.4967 26.8709 56.4346 28.2029 54.5599 29.7252 C 54.185 29.9155 54.185 30.1058 54.5599 30.2961 C 55.4973 31.0573 56.2471 31.4379 56.997 32.199 C 57.5594 32.5796 57.5594 32.7699 56.997 33.1505 C 55.3098 34.4825 53.6226 35.6243 51.9354 36.9563 C 50.4357 38.0981 48.9359 39.2398 47.4362 40.1913 C 46.8738 40.5718 46.6863 41.1427 46.6863 41.7136 C 46.6863 42.4747 46.6863 43.0456 46.6863 43.6165 C 46.6863 43.8068 46.6863 44.1874 46.3114 44.1874 C 45.9365 43.4262 46.1239 42.4747 46.1239 41.7136 C 46.1239 41.1427 45.9365 40.5718 45.1866 40.1913 C 44.4367 39.6204 43.8743 38.8592 42.937 38.6689 C 42.5621 38.2883 42.3746 38.6689 41.9997 38.8592 C 40.8749 39.6204 39.5626 40.5718 38.4378 41.333 C 37.313 42.0942 36.3757 42.8553 35.4383 43.6165 C 35.0634 43.8068 35.0634 44.1874 34.6885 44.3777 C 32.8138 42.4747 30.5642 41.333 28.3146 39.4301 C 28.3146 40.7621 28.3146 41.9039 28.3146 43.0456 C 28.3146 43.6165 28.3146 43.8068 27.9397 44.1874 C 27.9397 44.1874 27.9397 44.1874 27.7522 44.1874 C 27.5647 43.6165 27.7522 43.0456 27.5647 42.4747 C 27.7522 41.7136 27.5647 40.7621 27.7522 40.001 C 27.7522 39.4301 27.5647 38.8592 27.0023 38.6689 C 25.5026 37.5272 24.0029 36.3854 22.3157 35.2437 C 19.1288 32.7699 15.9418 30.2961 12.5674 28.0126 C 8.6306 25.1582 4.8813 22.3039 0.9445 19.4495 C 0.5696 19.2592 0.3821 19.0689 0.3821 18.4981 Z"/><path id="ID0.043189027812331915" fill="#667675" stroke="none" stroke-width=".189" d="M 46.3114 44.1874 L 46.3114 44.1874 C 46.6863 43.2359 46.4989 42.2845 46.4989 41.333 C 46.4989 40.9524 46.6863 40.5718 47.0613 40.3815 C 50.2482 37.9078 53.4351 35.6243 56.8095 33.1505 C 57.1845 32.7699 57.5594 32.5796 56.8095 32.199 C 55.6847 31.4379 54.7474 30.6767 53.6226 29.9155 C 55.4973 28.5835 57.3719 27.4417 59.2466 26.1097 C 59.6215 25.7291 60.3714 25.3485 60.7463 24.968 C 60.9338 24.7777 61.1213 24.5874 61.3087 24.5874 C 61.4962 24.7777 61.3087 24.968 61.3087 25.3485 C 61.3087 26.4903 61.3087 27.4417 61.4962 28.5835 C 61.3087 35.434 61.3087 42.0942 61.1213 48.9447 C 61.1213 49.3252 60.9338 49.7058 60.7463 49.8961 C 59.6215 50.6573 58.6842 51.0379 57.9343 51.9893 C 57.7469 52.1796 57.5594 51.799 57.3719 51.799 C 57.3719 52.3699 57.3719 52.9408 57.3719 53.5116 C 57.5594 54.0825 57.3719 54.6534 57.1845 55.4146 C 57.1845 55.6048 56.997 55.7951 57.1845 55.9854 C 57.3719 57.5078 56.8095 58.2689 55.6847 59.0301 C 52.6853 60.933 49.6858 63.2165 47.0613 65.5 C 46.3114 66.0709 45.9365 65.8806 45.5615 65.3097 C 45.1866 65.1194 44.8117 64.9291 44.4367 64.7388 C 44.8117 63.9777 44.9991 63.2165 44.6242 62.0747 C 44.4367 61.3136 44.6242 60.3621 44.2493 59.601 C 44.8117 58.6495 45.1866 57.8883 44.6242 56.7466 C 44.4367 56.366 44.4367 55.9854 44.4367 55.4146 C 44.4367 55.034 44.4367 54.6534 44.2493 54.2728 C 44.2493 54.0825 44.2493 53.8922 44.2493 53.8922 C 45.3741 53.1311 44.9991 52.1796 44.6242 51.0379 C 44.4367 50.2767 44.8117 49.5155 44.2493 48.7544 C 44.0618 48.5641 44.2493 48.3738 44.4367 48.1835 C 45.1866 47.4223 45.1866 46.6612 44.8117 45.9 C 44.6242 45.7097 44.4367 45.3291 44.4367 44.9485 C 44.8117 43.4262 43.8743 42.8553 42.7495 42.0942 C 42.5621 42.2845 42.5621 42.0942 42.5621 42.2845 C 41.8122 43.6165 40.6874 44.568 40.3125 45.9 C 40.3125 45.9 40.125 46.0903 40.125 46.0903 C 40.125 46.0903 39.9375 46.0903 39.9375 46.2806 C 39.7501 46.4709 39.5626 46.6612 39.3751 46.8514 C 39.1877 47.232 39.1877 47.6126 39.0002 47.9932 C 38.8127 48.3738 38.8127 48.9447 39.3751 49.3252 C 39.9375 49.5155 39.9375 49.8961 39.7501 50.467 C 39.5626 51.2281 39.5626 51.799 39.1877 52.5602 C 38.6253 53.5116 38.8127 54.0825 39.3751 55.034 C 39.7501 55.4146 39.7501 55.6048 39.7501 55.9854 C 39.5626 56.7466 39.5626 57.5078 39.1877 58.0786 C 38.8127 58.8398 38.6253 59.7913 39.5626 60.5524 C 39.7501 60.7427 39.9375 61.3136 39.7501 61.6942 C 39.5626 62.4553 39.5626 63.2165 39.1877 63.7874 C 38.6253 64.3582 38.8127 65.1194 39.1877 65.6903 C 38.0629 66.6417 36.7506 67.5932 35.6258 68.5446 C 35.4383 68.5446 35.2509 68.9252 35.0634 68.9252 C 34.501 69.1155 34.501 68.7349 34.501 68.5446 C 34.3135 68.1641 34.3135 67.7835 34.3135 67.4029 C 34.3135 60.1718 34.3135 52.9408 34.3135 45.7097 C 34.3135 45.3291 34.3135 44.7582 34.6885 44.3777 C 34.6885 43.9971 34.6885 43.8068 35.0634 43.6165 C 36.0007 42.8553 37.1255 42.0942 38.2503 41.333 C 38.8127 41.333 38.8127 41.7136 39.0002 41.9039 C 39.5626 42.665 39.9375 42.8553 40.6874 42.2845 C 41.4373 41.7136 41.8122 41.1427 42.1871 40.001 C 42.1871 39.8107 42.3746 39.4301 42.7495 39.2398 C 42.937 39.2398 43.1245 39.6204 43.3119 39.8107 C 43.4994 40.001 43.6869 40.1913 43.8743 40.1913 C 44.6242 41.1427 44.9991 42.0942 45.5615 43.2359 C 45.5615 43.6165 45.9365 43.9971 46.1239 44.3777 C 46.1239 44.3777 46.1239 44.3777 46.1239 44.3777 C 46.1239 44.3777 46.3114 44.3777 46.3114 44.3777 C 46.3114 44.1874 46.3114 44.1874 46.3114 44.1874 Z"/><path id="ID0.2854668712243438" fill="#FEF4C3" stroke="none" stroke-width=".189" d="M 0.3821 18.4981 L 0.3821 18.4981 C 1.3194 19.6398 2.6317 20.401 3.7565 21.3524 C 9.7554 25.7291 15.9418 30.1058 21.9408 34.6728 C 22.1282 34.6728 22.3157 35.0534 22.3157 35.0534 C 22.8781 35.6243 22.6906 36.3854 22.6906 37.1466 C 22.6906 37.5272 22.6906 37.7175 22.6906 38.0981 C 22.6906 38.8592 22.8781 39.8107 22.6906 40.7621 C 22.6906 40.9524 22.6906 40.9524 22.6906 41.1427 C 22.6906 42.0942 22.8781 42.8553 22.6906 43.8068 C 22.8781 44.7582 22.6906 45.7097 22.6906 46.4709 C 22.8781 47.4223 22.6906 48.3738 22.6906 49.3252 C 22.8781 50.0864 23.0656 51.0379 23.0656 51.9893 C 23.0656 52.9408 23.0656 53.8922 23.0656 54.6534 C 23.0656 55.6048 23.0656 56.7466 23.0656 57.5078 C 22.8781 58.4592 23.0656 59.2204 22.6906 60.1718 C 20.441 58.6495 18.3789 56.9369 16.1293 55.2243 C 11.6301 51.799 7.1309 48.5641 2.6317 45.1388 C 1.3194 44.1874 0.9445 43.6165 0.9445 42.0942 C 0.9445 38.2883 0.757 34.4825 0.5696 30.6767 C 0.5696 27.8223 0.3821 24.5874 0.3821 21.733 C 0.3821 20.9718 0.1946 20.2107 0.1946 19.2592 C 0.1946 19.0689 0.1946 18.8786 0.3821 18.4981 Z"/><path id="ID0.023422976955771446" fill="#FEF4C3" stroke="none" stroke-width=".189" d="M 34.6885 44.3777 L 34.6885 44.3777 C 34.6885 52.1796 34.6885 60.1718 34.6885 68.1641 C 34.6885 68.3544 34.501 68.7349 35.0634 68.9252 C 34.6885 69.3058 34.3135 68.9252 34.1261 68.7349 C 32.2514 67.2126 30.0018 65.6903 28.1271 64.168 C 27.9397 62.8359 27.9397 61.3136 27.9397 59.9815 C 27.9397 59.601 27.9397 59.2204 27.9397 58.6495 C 27.7522 57.8883 27.9397 56.9369 27.9397 55.9854 C 27.9397 55.2243 27.7522 54.4631 27.9397 53.7019 C 27.9397 51.0379 27.9397 48.1835 27.7522 45.5194 C 27.7522 44.9485 27.7522 44.568 27.9397 44.1874 C 27.9397 42.4747 27.9397 40.9524 27.9397 39.0495 C 30.1893 40.7621 32.2514 42.0942 34.3135 43.6165 C 34.6885 43.8068 34.501 44.1874 34.6885 44.3777 Z"/><path id="ID0.28544786712154746" fill="#576361" stroke="none" stroke-width=".189" d="M 39.1877 65.6903 L 39.1877 65.6903 C 38.6253 65.1194 38.4378 64.3582 38.8127 63.5971 C 39.3751 63.0262 39.3751 62.0747 39.5626 61.5039 C 39.7501 61.1233 39.5626 60.7427 39.1877 60.5524 C 38.6253 59.9815 38.4378 59.2204 38.8127 58.2689 C 39.1877 57.5078 39.5626 56.7466 39.5626 55.7951 C 39.5626 55.6048 39.5626 55.4146 39.3751 55.034 C 38.6253 54.2728 38.4378 53.5116 38.8127 52.7505 C 39.1877 51.799 39.5626 51.0379 39.5626 50.2767 C 39.7501 49.8961 39.7501 49.7058 39.3751 49.5155 C 38.6253 49.1349 38.6253 48.3738 38.8127 47.6126 C 39.0002 47.4223 39.0002 46.8514 39.3751 46.8514 C 39.5626 46.8514 39.5626 47.0417 39.5626 47.4223 C 39.3751 47.8029 39.5626 47.8029 39.9375 47.9932 C 40.4999 48.3738 41.0623 48.5641 41.4373 49.3252 C 41.4373 50.0864 40.6874 50.467 40.4999 51.2281 C 40.3125 51.4184 40.3125 51.4184 40.125 51.6087 C 40.125 51.799 39.9375 51.799 39.9375 51.9893 C 39.7501 52.1796 39.5626 52.3699 39.5626 52.5602 C 39.3751 53.1311 39.3751 53.5116 40.125 53.5116 C 40.6874 53.8922 41.2498 54.2728 41.8122 54.8437 C 41.9997 55.034 42.1871 55.2243 42.1871 55.4146 C 41.6247 56.366 40.8749 56.5563 40.3125 57.1272 C 40.125 57.3175 39.9375 57.5078 39.9375 57.5078 C 39.7501 58.0786 39.3751 58.4592 39.9375 58.8398 C 40.3125 59.4107 41.0623 59.601 41.4373 60.1718 C 41.6247 60.7427 41.2498 60.933 41.0623 61.3136 C 40.6874 61.6942 40.6874 61.8845 40.4999 62.0747 C 40.3125 62.4553 40.3125 62.4553 40.125 62.6456 C 40.125 62.8359 39.9375 62.8359 39.9375 63.2165 C 39.7501 63.5971 39.5626 63.9777 39.9375 64.3582 C 40.125 64.5485 40.3125 64.5485 40.3125 64.9291 C 39.9375 65.3097 39.5626 65.5 39.1877 65.6903 Z"/><path id="ID0.10882878582924604" fill="#71AC50" stroke="none" stroke-width=".189" d="M 28.1271 58.6495 L 28.1271 58.6495 C 28.3146 60.5524 28.3146 62.265 28.1271 64.168 C 26.2525 62.8359 24.5653 61.5039 22.6906 60.1718 C 22.6906 59.2204 22.6906 58.4592 22.6906 57.5078 C 22.8781 57.5078 22.8781 57.5078 23.0656 57.5078 C 23.4405 57.698 23.8154 58.0786 24.1904 58.2689 C 25.5026 59.2204 26.6274 59.9815 27.7522 60.933 C 27.9397 60.1718 27.9397 59.601 27.9397 59.0301 C 27.9397 58.8398 27.9397 58.8398 28.1271 58.6495 Z"/><path id="ID0.015473865903913975" fill="#29522C" stroke="none" stroke-width=".189" d="M 39.9375 63.0262 L 39.9375 63.0262 C 39.9375 62.8359 39.9375 62.6456 39.9375 62.4553 C 40.6874 62.8359 41.0623 63.2165 41.6247 63.5971 C 42.1871 63.9777 42.5621 64.168 43.1245 63.5971 C 43.3119 63.4068 43.4994 63.4068 43.4994 63.2165 C 44.0618 63.0262 44.4367 62.6456 44.6242 62.265 C 44.8117 62.265 44.8117 62.265 44.8117 62.0747 C 45.3741 62.8359 45.1866 64.3582 44.4367 64.7388 C 44.4367 64.9291 44.4367 64.9291 44.4367 64.9291 C 43.8743 65.3097 43.1245 66.0709 42.3746 66.2612 C 41.6247 66.4514 41.2498 65.3097 40.6874 64.9291 C 40.4999 64.9291 40.3125 64.9291 40.3125 64.9291 C 40.125 64.7388 39.9375 64.5485 39.9375 64.5485 C 39.5626 63.9777 39.7501 63.5971 39.9375 63.0262 Z"/><path id="ID0.6744837337173522" fill="#2C5330" stroke="none" stroke-width=".189" d="M 57.1845 55.4146 L 57.1845 55.4146 C 56.8095 54.6534 57.1845 54.0825 57.1845 53.5116 C 57.5594 52.9408 57.9343 52.5602 58.4967 52.3699 C 58.8717 53.8922 58.6842 54.4631 57.1845 55.4146 Z"/><path id="ID0.14268413372337818" fill="#113013" stroke="none" stroke-width=".189" d="M 58.4967 52.3699 L 58.4967 52.3699 C 58.1218 52.7505 57.5594 53.1311 57.1845 53.5116 C 57.1845 52.7505 57.1845 52.1796 57.1845 51.4184 C 57.5594 51.4184 57.7469 51.799 57.9343 51.9893 C 58.1218 52.1796 58.3093 52.1796 58.4967 52.3699 Z"/><path id="ID0.4260910036973655" fill="#71AC50" stroke="none" stroke-width=".189" d="M 27.9397 44.1874 L 27.9397 44.1874 C 27.9397 47.4223 27.9397 50.6573 27.9397 53.7019 C 27.5647 53.8922 27.1898 53.5116 27.0023 53.1311 C 26.2525 52.1796 25.3151 51.6087 24.5653 50.8476 C 23.8154 50.2767 23.0656 49.8961 22.6906 49.3252 C 22.5032 48.3738 22.6906 47.4223 22.6906 46.4709 C 22.6906 46.4709 22.6906 46.4709 22.6906 46.4709 C 23.4405 46.8514 24.0029 47.232 24.5653 47.6126 C 24.5653 47.8029 24.7528 47.8029 24.5653 48.1835 C 24.1904 48.1835 23.8154 48.1835 23.4405 47.8029 C 23.0656 47.4223 23.0656 47.8029 22.8781 48.1835 C 22.8781 48.5641 23.0656 48.7544 23.4405 48.9447 C 24.1904 49.7058 24.9402 49.8961 25.5026 50.8476 C 25.6901 51.0379 25.8775 51.0379 25.8775 51.0379 C 26.4399 50.8476 26.8149 51.0379 27.0023 51.6087 C 27.0023 51.799 27.1898 51.9893 27.3773 51.799 C 27.5647 51.799 27.5647 51.4184 27.5647 51.2281 C 27.5647 50.8476 27.3773 50.6573 27.1898 50.467 C 26.8149 50.2767 26.2525 49.8961 26.4399 49.5155 C 27.0023 49.1349 27.3773 49.8961 27.5647 49.8961 C 28.1271 48.3738 27.1898 47.6126 26.2525 46.8514 C 25.6901 46.2806 25.1277 45.9 24.5653 45.3291 C 23.8154 44.7582 23.0656 44.568 22.6906 43.8068 C 22.6906 42.8553 22.6906 41.9039 22.6906 40.9524 C 23.253 40.9524 23.4405 41.5233 24.1904 41.7136 C 25.1277 42.665 26.2525 43.4262 27.3773 44.1874 C 27.5647 44.3777 27.7522 44.3777 27.9397 44.1874 C 27.9397 44.1874 27.9397 44.1874 27.9397 44.1874 Z"/><path id="ID0.25117026921361685" fill="#71AC50" stroke="none" stroke-width=".189" d="M 22.5032 38.0981 L 22.5032 38.0981 C 22.3157 37.1466 22.3157 36.0048 22.3157 35.0534 C 23.628 35.6243 24.5653 36.5757 25.5026 37.1466 C 26.2525 37.9078 27.3773 38.0981 27.7522 39.0495 C 28.1271 40.001 27.9397 41.1427 27.9397 42.0942 C 27.9397 42.2845 27.9397 42.4747 27.9397 42.4747 C 27.5647 42.4747 27.3773 42.2845 27.0023 42.0942 C 26.4399 41.333 25.8775 40.7621 25.1277 40.3815 C 24.7528 40.001 24.5653 40.001 24.1904 39.6204 C 23.628 39.0495 22.8781 38.8592 22.5032 38.0981 Z"/><path id="ID0.48548600682988763" fill="#667675" stroke="none" stroke-width=".189" d="M 43.8743 40.3815 L 43.8743 40.3815 C 43.4994 40.3815 43.3119 40.001 43.1245 39.8107 C 42.937 39.6204 42.937 39.4301 42.7495 39.4301 C 42.3746 39.4301 42.3746 39.6204 42.3746 40.001 C 42.1871 41.1427 41.6247 42.0942 40.4999 42.665 C 39.9375 43.0456 39.1877 42.8553 38.8127 42.0942 C 38.8127 41.7136 38.6253 41.333 38.2503 41.333 C 39.5626 40.3815 40.8749 39.4301 42.1871 38.4786 C 42.3746 38.2883 42.7495 38.0981 42.7495 38.4786 C 43.4994 38.8592 43.8743 39.6204 43.8743 40.3815 Z"/><path id="ID0.8505598157644272" fill="#1A4112" stroke="none" stroke-width=".189" d="M 25.1277 40.1913 L 25.1277 40.1913 C 25.8775 40.5718 26.6274 41.1427 27.0023 41.7136 C 27.1898 42.0942 27.5647 42.0942 27.9397 42.4747 C 27.9397 43.0456 27.9397 43.6165 27.9397 44.1874 C 27.9397 44.3777 27.9397 44.568 27.9397 44.7582 C 26.6274 43.8068 25.1277 42.8553 24.0029 41.9039 C 23.8154 41.333 24.3778 40.3815 25.1277 40.1913 Z"/><path id="ID0.3214833843521774" fill="#FCF1BF" stroke="none" stroke-width=".189" d="M 43.8743 40.3815 L 43.8743 40.3815 C 43.4994 39.6204 43.1245 39.0495 42.7495 38.4786 C 43.1245 38.0981 43.3119 38.4786 43.4994 38.6689 C 44.2493 39.2398 45.1866 39.8107 45.9365 40.3815 C 46.3114 40.5718 46.3114 40.9524 46.3114 41.333 C 46.3114 42.2845 46.3114 43.2359 46.3114 44.1874 C 46.3114 44.1874 46.3114 44.3777 46.3114 44.568 C 45.749 44.1874 45.749 43.6165 45.3741 43.2359 C 44.8117 42.2845 44.4367 41.333 43.8743 40.3815 Z"/><path id="ID0.6161646801047027" fill="#2A532C" stroke="none" stroke-width=".189" d="M 41.4373 49.3252 L 41.4373 49.3252 C 41.0623 48.9447 40.3125 48.5641 39.9375 48.1835 C 39.5626 47.4223 39.5626 46.8514 39.9375 46.0903 C 39.9375 46.0903 39.9375 46.0903 39.9375 46.0903 C 40.6874 46.0903 41.0623 46.6612 41.4373 47.0417 C 42.3746 47.6126 42.3746 47.6126 43.3119 47.0417 C 43.4994 46.8514 43.4994 46.8514 43.4994 46.8514 C 44.0618 46.4709 44.4367 46.0903 44.8117 45.7097 C 44.8117 45.7097 44.8117 45.7097 44.8117 45.7097 C 45.5615 46.4709 45.3741 47.8029 44.6242 48.3738 C 44.4367 48.3738 44.4367 48.5641 44.2493 48.5641 C 43.8743 49.1349 43.3119 49.3252 42.7495 49.8961 C 42.7495 49.8961 42.7495 49.8961 42.5621 49.8961 C 42.3746 49.8961 42.3746 49.8961 42.1871 49.8961 C 41.9997 49.8961 41.6247 49.7058 41.4373 49.3252 Z"/><path id="ID0.7942218058742583" fill="#29522C" stroke="none" stroke-width=".189" d="M 41.9997 55.6048 L 41.9997 55.6048 C 41.9997 54.8437 41.2498 54.6534 40.6874 54.2728 C 40.6874 54.0825 40.3125 53.8922 39.9375 53.7019 C 39.3751 53.1311 39.5626 52.3699 39.9375 51.799 C 39.9375 51.799 39.9375 51.6087 39.9375 51.4184 C 40.6874 51.799 41.0623 52.1796 41.6247 52.7505 C 42.1871 53.1311 42.7495 53.1311 43.1245 52.5602 C 43.3119 52.3699 43.4994 52.3699 43.4994 52.3699 C 43.8743 52.1796 44.4367 51.799 44.6242 51.4184 C 44.6242 51.2281 44.8117 51.2281 44.8117 51.2281 C 45.5615 52.1796 45.3741 53.1311 44.2493 54.0825 C 43.8743 54.6534 43.3119 55.034 42.7495 55.4146 C 42.7495 55.6048 42.5621 55.6048 42.5621 55.6048 C 42.3746 55.6048 42.1871 55.6048 41.9997 55.6048 Z"/><path id="ID0.7936798203736544" fill="#29522B" stroke="none" stroke-width=".189" d="M 41.4373 60.1718 L 41.4373 60.1718 C 40.6874 59.7913 40.3125 59.601 39.9375 59.0301 C 39.5626 58.4592 39.7501 57.8883 39.9375 57.5078 C 39.9375 57.3175 39.9375 57.1272 39.9375 57.1272 C 40.6874 57.3175 41.0623 57.8883 41.6247 58.0786 C 42.3746 58.6495 42.3746 58.6495 43.1245 58.0786 C 43.3119 58.0786 43.4994 57.8883 43.4994 57.8883 C 44.0618 57.5078 44.4367 57.3175 44.6242 56.9369 C 44.6242 56.7466 44.8117 56.7466 44.8117 56.7466 C 45.3741 57.5078 45.1866 58.8398 44.2493 59.601 C 43.8743 60.1718 43.3119 60.3621 42.7495 60.933 C 42.7495 60.933 42.7495 60.933 42.5621 60.933 C 42.3746 61.1233 42.1871 61.1233 41.9997 60.933 C 41.6247 60.933 41.4373 60.5524 41.4373 60.1718 Z"/><path id="ID0.07644298300147057" fill="#3C4588" stroke="none" stroke-width=".189" d="M 50.4357 53.5116 L 50.4357 53.5116 C 50.8106 54.8437 49.6858 55.2243 48.9359 55.7951 C 48.561 55.9854 47.9986 56.7466 47.8111 56.5563 C 47.2487 56.366 47.6237 55.6048 47.6237 55.034 C 47.6237 54.2728 47.9986 53.8922 48.561 53.3213 C 48.7485 53.1311 49.1234 53.1311 49.3109 52.7505 C 49.6858 52.5602 50.0607 52.1796 50.2482 52.1796 C 50.6231 52.3699 50.2482 53.1311 50.4357 53.5116 Z"/><path id="ID0.14042086666449904" fill="#3B4588" stroke="none" stroke-width=".189" d="M 47.6237 45.5194 L 47.6237 45.5194 C 47.6237 44.7582 47.6237 43.9971 47.6237 43.2359 C 47.6237 42.8553 47.9986 42.8553 48.1861 42.665 C 48.7485 42.0942 49.4983 41.5233 50.2482 41.1427 C 50.8106 43.2359 50.0607 44.568 47.6237 45.5194 Z"/><path id="ID0.30591659620404243" fill="#3C4588" stroke="none" stroke-width=".189" d="M 55.8722 44.1874 L 55.8722 44.1874 C 56.2471 44.9485 55.4973 45.5194 54.7474 46.0903 C 54.3725 46.4709 53.8101 47.0417 53.4351 46.8514 C 52.8727 46.6612 53.2477 45.9 53.2477 45.3291 C 53.0602 44.568 53.4351 44.1874 53.9975 43.8068 C 54.3725 43.6165 54.9349 43.2359 55.4973 42.8553 C 55.4973 42.8553 55.6847 42.4747 55.6847 42.665 C 56.0597 42.8553 55.8722 43.0456 55.8722 43.2359 C 55.8722 43.4262 55.8722 43.6165 55.8722 44.1874 Z"/><path id="ID0.12926939129829407" fill="#3C4588" stroke="none" stroke-width=".189" d="M 53.2477 41.7136 L 53.2477 41.7136 C 53.2477 41.333 53.2477 41.1427 53.2477 41.1427 C 53.2477 38.8592 53.6226 38.0981 55.8722 37.1466 C 55.8722 37.9078 55.8722 38.6689 55.8722 39.2398 C 55.8722 39.6204 55.6847 39.8107 55.6847 40.001 C 54.9349 40.3815 54.185 40.9524 53.2477 41.7136 Z"/><path id="ID0.7836918602697551" fill="#3B4488" stroke="none" stroke-width=".189" d="M 50.4357 46.6612 L 50.4357 46.6612 C 50.4357 46.8514 50.4357 46.8514 50.4357 46.8514 C 50.9981 49.1349 49.4983 50.2767 47.6237 51.0379 C 47.6237 50.2767 47.6237 49.7058 47.6237 48.9447 C 47.6237 48.5641 47.8111 48.3738 47.9986 48.1835 C 48.7485 47.8029 49.4983 47.232 50.4357 46.6612 Z"/><path id="ID0.9201159221120179" fill="#3B4588" stroke="none" stroke-width=".189" d="M 55.6847 48.1835 L 55.6847 48.1835 C 55.6847 48.9447 55.6847 49.7058 55.6847 50.2767 C 55.6847 50.6573 55.4973 50.8476 55.3098 51.0379 C 54.7474 51.6087 53.9975 51.9893 53.4351 52.3699 C 53.2477 52.7505 53.0602 52.3699 53.0602 52.1796 C 53.0602 51.6087 53.0602 51.0379 53.0602 50.467 C 53.0602 50.2767 53.2477 49.8961 53.2477 49.8961 C 53.9975 49.3252 54.7474 48.7544 55.6847 48.1835 Z"/><path id="ID0.1600715541280806" fill="#3B4588" stroke="none" stroke-width=".189" d="M 53.0602 58.0786 L 53.0602 58.0786 C 53.0602 57.1272 53.0602 56.366 53.0602 55.7951 C 53.0602 55.6048 53.2477 55.4146 53.2477 55.2243 C 53.9975 54.8437 54.7474 54.2728 55.3098 53.8922 C 55.6847 53.5116 55.6847 53.7019 55.6847 54.0825 C 55.6847 54.6534 55.6847 55.2243 55.6847 55.6048 C 55.6847 55.9854 55.6847 56.1757 55.4973 56.366 C 54.7474 56.9369 53.9975 57.5078 53.0602 58.0786 Z"/><path id="ID0.7577434973791242" fill="#3C4588" stroke="none" stroke-width=".189" d="M 50.2482 57.5078 L 50.2482 57.5078 C 50.2482 58.4592 50.2482 59.2204 50.2482 59.7913 C 50.2482 60.1718 50.0607 60.3621 49.8733 60.3621 C 49.3109 60.933 48.7485 61.3136 47.9986 61.8845 C 47.6237 62.0747 47.6237 61.8845 47.6237 61.6942 C 47.6237 60.933 47.6237 60.5524 47.6237 59.9815 C 47.6237 59.7913 47.6237 59.601 47.6237 59.4107 C 48.561 58.8398 49.3109 58.2689 50.2482 57.5078 Z"/><path id="ID0.46888485457748175" fill="#112715" stroke="none" stroke-width=".189" d="M 43.6869 46.8514 L 43.6869 46.8514 C 42.3746 47.8029 42.3746 47.8029 41.2498 47.0417 C 40.8749 46.8514 40.3125 46.4709 39.9375 46.0903 C 39.9375 46.0903 39.9375 46.0903 39.9375 45.9 C 40.6874 45.3291 41.6247 44.568 42.5621 44.1874 C 42.5621 44.1874 42.7495 44.1874 42.7495 44.1874 C 42.7495 45.3291 43.1245 46.0903 43.6869 46.8514 Z"/><path id="ID0.4993957169353962" fill="#384079" stroke="none" stroke-width=".189" d="M 42.5621 41.9039 L 42.5621 41.9039 C 43.4994 42.0942 43.8743 42.8553 44.4367 43.2359 C 44.8117 43.4262 44.8117 43.8068 44.8117 43.9971 C 44.8117 44.568 44.6242 45.1388 44.8117 45.7097 C 44.8117 45.7097 44.8117 45.7097 44.8117 45.7097 C 44.6242 46.0903 44.4367 45.9 44.0618 45.7097 C 43.4994 45.3291 42.937 44.9485 42.5621 44.1874 C 42.5621 44.1874 42.5621 44.1874 42.5621 44.1874 C 42.1871 43.4262 42.1871 42.665 42.5621 41.9039 Z"/><path id="ID0.11050990503281355" fill="#363C71" stroke="none" stroke-width=".189" d="M 44.8117 51.2281 L 44.8117 51.2281 C 44.8117 51.2281 44.8117 51.4184 44.8117 51.4184 C 44.4367 51.4184 44.4367 51.4184 44.0618 51.4184 C 43.6869 51.0379 43.1245 50.6573 42.7495 50.2767 C 42.7495 50.0864 42.5621 49.8961 42.7495 49.7058 C 43.1245 49.3252 43.6869 48.9447 44.2493 48.5641 C 44.6242 48.9447 44.8117 49.1349 44.8117 49.5155 C 44.8117 50.0864 44.8117 50.6573 44.8117 51.2281 Z"/><path id="ID0.7042687316425145" fill="#363C71" stroke="none" stroke-width=".189" d="M 42.7495 55.4146 L 42.7495 55.4146 C 43.1245 54.8437 43.8743 54.4631 44.2493 54.0825 C 44.6242 54.2728 44.8117 54.6534 44.8117 55.034 C 44.8117 55.6048 44.8117 56.1757 44.8117 56.7466 C 44.8117 56.7466 44.8117 56.7466 44.8117 56.7466 C 44.0618 56.9369 42.937 56.1757 42.7495 55.4146 Z"/><path id="ID0.1661812262609601" fill="#556167" stroke="none" stroke-width=".189" d="M 42.5621 41.9039 L 42.5621 41.9039 C 42.5621 42.665 42.5621 43.4262 42.5621 44.1874 C 41.6247 44.7582 41.0623 45.5194 39.9375 45.9 C 39.9375 45.5194 40.3125 45.1388 40.4999 44.7582 C 41.2498 43.9971 41.6247 43.2359 41.9997 42.4747 C 42.1871 42.0942 42.3746 42.0942 42.5621 41.9039 Z"/><path id="ID0.9098788877017796" fill="#383D70" stroke="none" stroke-width=".189" d="M 42.7495 60.7427 L 42.7495 60.7427 C 43.1245 60.3621 43.8743 59.9815 44.2493 59.601 C 45.1866 60.3621 44.6242 61.3136 44.8117 62.0747 C 44.8117 62.0747 44.8117 62.265 44.8117 62.265 C 43.8743 62.4553 42.937 61.6942 42.7495 60.7427 Z"/><path id="ID0.4740398973226547" fill="#28502D" stroke="none" stroke-width=".189" d="M 58.4967 35.6243 L 58.4967 35.6243 C 59.2466 37.1466 58.8717 38.0981 57.3719 38.8592 C 57.3719 37.5272 57.3719 36.3854 57.3719 35.2437 C 57.3719 35.0534 57.5594 34.8631 57.7469 35.0534 C 57.7469 35.434 57.7469 36.0048 57.7469 36.3854 C 58.1218 36.1951 58.3093 35.8146 58.4967 35.6243 Z"/><path id="ID0.34830955136567354" fill="#28502D" stroke="none" stroke-width=".189" d="M 58.4967 47.0417 L 58.4967 47.0417 C 58.4967 47.232 58.4967 47.4223 58.4967 47.6126 C 58.8717 48.7544 58.1218 49.3252 57.1845 49.8961 C 57.1845 48.5641 57.1845 47.4223 57.1845 46.2806 C 57.1845 46.0903 57.3719 45.9 57.5594 46.0903 C 57.5594 46.6612 57.5594 47.0417 57.5594 47.4223 C 57.9343 47.232 58.1218 47.0417 58.4967 47.0417 Z"/><path id="ID0.7153398101218045" fill="#28512D" stroke="none" stroke-width=".189" d="M 58.4967 41.333 L 58.4967 41.333 C 59.2466 42.8553 58.6842 43.8068 57.3719 44.1874 C 57.3719 43.6165 57.3719 43.0456 57.3719 42.4747 C 57.5594 41.9039 58.1218 41.7136 58.4967 41.333 Z"/><path id="ID0.41539653250947595" fill="#102E12" stroke="none" stroke-width=".189" d="M 58.4967 41.333 L 58.4967 41.333 C 58.3093 41.9039 57.7469 42.0942 57.3719 42.4747 C 57.3719 41.7136 57.3719 41.1427 57.3719 40.5718 C 57.9343 40.7621 58.1218 41.1427 58.4967 41.333 Z"/><path id="ID0.6049448517151177" fill="#113013" stroke="none" stroke-width=".189" d="M 58.4967 47.0417 L 58.4967 47.0417 C 58.1218 47.232 57.9343 47.4223 57.3719 47.8029 C 57.3719 47.0417 57.1845 46.6612 57.5594 46.0903 C 57.9343 46.4709 58.3093 46.6612 58.4967 47.0417 Z"/><path id="ID0.981452330481261" fill="#113114" stroke="none" stroke-width=".189" d="M 58.4967 35.6243 L 58.4967 35.6243 C 58.4967 36.3854 57.9343 36.3854 57.5594 36.766 C 57.5594 36.0048 57.3719 35.6243 57.7469 35.0534 C 57.9343 35.2437 58.3093 35.434 58.4967 35.6243 Z"/><path id="ID0.22179271606728435" fill="#566360" stroke="none" stroke-width=".189" d="M 39.9375 46.0903 L 39.9375 46.0903 C 39.9375 46.8514 39.9375 47.4223 39.9375 48.1835 C 39.1877 48.1835 39.1877 47.8029 39.1877 47.4223 C 39.1877 47.0417 39.3751 47.0417 39.3751 46.8514 C 39.3751 46.4709 39.5626 46.2806 39.9375 46.0903 Z"/><path id="ID0.7126530935056508" fill="#B5AFAD" stroke="none" stroke-width=".189" d="M 45.3741 43.2359 L 45.3741 43.2359 C 45.9365 43.6165 45.9365 44.1874 46.3114 44.568 C 46.3114 44.568 46.3114 44.7582 46.3114 44.7582 C 46.1239 44.9485 46.1239 44.7582 45.9365 44.568 C 45.9365 44.1874 45.5615 43.8068 45.3741 43.2359 Z"/><path id="ID0.24686531024053693" fill="#71AB4F" stroke="none" stroke-width=".189" d="M 28.1271 58.6495 L 28.1271 58.6495 C 28.1271 58.8398 27.9397 59.0301 27.9397 59.2204 C 27.5647 59.2204 27.0023 58.8398 26.8149 58.2689 C 26.2525 57.698 25.6901 57.1272 25.1277 56.7466 C 24.7528 56.5563 24.5653 56.366 24.3778 56.1757 C 23.8154 55.6048 23.0656 55.4146 22.6906 54.6534 C 22.6906 53.8922 22.6906 52.9408 22.6906 51.9893 C 22.6906 51.9893 22.8781 51.9893 22.8781 51.9893 C 24.5653 53.1311 26.065 54.2728 27.5647 55.4146 C 27.7522 55.6048 27.9397 55.6048 27.9397 55.9854 C 27.9397 56.7466 28.1271 57.8883 28.1271 58.6495 Z"/><path id="ID0.11455694539472461" fill="#9E93E0" stroke="none" stroke-width=".189" d="M 17.8165 37.5272 L 17.8165 37.5272 C 17.0666 36.9563 16.3168 36.3854 15.5669 35.6243 C 15.0045 35.434 15.3794 34.8631 15.3794 34.2922 C 15.3794 33.9116 15.0045 33.3408 15.3794 33.1505 C 15.7544 32.9602 16.1293 33.5311 16.5042 33.7214 C 18.1914 34.4825 18.1914 35.8146 18.004 37.3369 C 18.004 37.3369 17.8165 37.3369 17.8165 37.5272 Z"/><path id="ID0.8747687512077391" fill="#9E93E0" stroke="none" stroke-width=".189" d="M 15.3794 38.4786 L 15.3794 38.4786 C 16.3168 39.0495 17.0666 39.6204 17.8165 40.3815 C 17.8165 40.3815 18.004 40.3815 18.004 40.5718 C 18.004 41.333 18.1914 42.0942 18.1914 43.2359 C 17.2541 42.4747 16.5042 41.9039 15.7544 41.333 C 15.3794 41.1427 15.5669 40.7621 15.3794 40.5718 C 15.3794 40.001 15.3794 39.2398 15.3794 38.4786 Z"/><path id="ID0.8334632804617286" fill="#9E93E0" stroke="none" stroke-width=".189" d="M 7.3184 29.7252 L 7.3184 29.7252 C 6.381 28.9641 5.6312 28.5835 4.8813 27.8223 C 4.5064 27.4417 4.6938 26.8709 4.6938 26.1097 C 4.6938 25.9194 4.5064 25.3485 4.8813 25.3485 C 5.0688 25.1582 5.2562 25.5388 5.4437 25.7291 C 5.6312 25.7291 5.8186 25.9194 5.8186 25.9194 C 7.5058 26.6806 7.5058 28.0126 7.3184 29.7252 Z"/><path id="ID0.31495129922404885" fill="#9E93E0" stroke="none" stroke-width=".189" d="M 12.5674 33.5311 L 12.5674 33.5311 C 11.6301 32.7699 10.8802 32.3893 10.1304 31.8184 C 9.7554 31.4379 9.9429 31.0573 9.9429 30.6767 C 9.7554 30.2961 9.7554 29.7252 9.7554 28.9641 C 10.6928 29.5349 11.4426 29.9155 12.1925 30.6767 C 12.38 30.6767 12.5674 30.867 12.5674 31.0573 C 12.5674 31.8184 12.5674 32.5796 12.5674 33.5311 Z"/><path id="ID0.4014454488642514" fill="#9E93E0" stroke="none" stroke-width=".189" d="M 12.5674 39.0495 L 12.5674 39.0495 C 11.8176 38.4786 11.0677 37.9078 10.5053 37.5272 C 9.9429 37.1466 10.1304 36.5757 10.1304 36.1951 C 10.1304 35.6243 9.7554 35.0534 10.1304 34.6728 C 10.5053 34.6728 10.8802 35.2437 11.4426 35.434 C 13.1298 36.1951 12.5674 37.5272 12.5674 39.0495 Z"/><path id="ID0.6216404107399285" fill="#9E93E0" stroke="none" stroke-width=".189" d="M 10.1304 40.001 L 10.1304 40.001 C 11.0677 40.7621 11.8176 41.1427 12.5674 41.7136 C 12.7549 41.9039 12.9424 42.0942 12.9424 42.4747 C 12.9424 43.2359 12.9424 43.8068 12.9424 44.568 C 11.8176 43.9971 11.0677 43.4262 10.5053 42.8553 C 10.1304 42.665 10.1304 42.4747 10.1304 42.2845 C 10.1304 41.5233 10.1304 40.9524 10.1304 40.001 Z"/><path id="ID0.4083469524048269" fill="#9E93E0" stroke="none" stroke-width=".189" d="M 15.3794 45.5194 L 15.3794 45.5194 C 15.5669 44.9485 15.3794 44.3777 15.5669 44.1874 C 15.9418 43.9971 16.3168 44.568 16.6917 44.7582 C 16.6917 44.9485 16.6917 44.9485 16.8792 44.9485 C 18.3789 45.5194 18.1914 46.8514 18.1914 48.1835 C 18.1914 48.5641 18.004 48.5641 17.8165 48.1835 C 17.0666 47.8029 16.5042 47.4223 15.9418 46.8514 C 15.192 46.4709 15.7544 45.9 15.3794 45.5194 Z"/><path id="ID0.7276486530900002" fill="#9E93E0" stroke="none" stroke-width=".189" d="M 7.5058 35.2437 L 7.5058 35.2437 C 6.5685 34.6728 5.8186 34.1019 5.0688 33.5311 C 4.8813 33.3408 4.6938 31.2476 4.8813 30.867 C 4.8813 30.6767 5.0688 30.867 5.0688 30.867 C 5.8186 31.4379 6.5685 31.8184 7.3184 32.3893 C 7.3184 32.5796 7.5058 32.5796 7.5058 32.7699 C 7.5058 33.5311 7.5058 34.2922 7.5058 35.2437 Z"/><path id="ID0.3557143663056195" fill="#9E93DF" stroke="none" stroke-width=".189" d="M 18.3789 54.0825 L 18.3789 54.0825 C 17.4416 53.3213 16.6917 52.7505 15.7544 52.1796 C 15.7544 52.1796 15.7544 51.9893 15.7544 51.799 C 15.7544 51.0379 15.7544 50.2767 15.7544 49.3252 C 16.5042 50.0864 17.4416 50.6573 18.1914 51.4184 C 18.3789 51.4184 18.1914 51.799 18.3789 52.1796 C 18.3789 52.5602 18.3789 53.1311 18.3789 54.0825 Z"/><path id="ID0.22243940131738782" fill="#9E93DF" stroke="none" stroke-width=".189" d="M 10.5053 45.5194 L 10.5053 45.5194 C 11.0677 46.0903 11.8176 46.6612 12.5674 47.0417 C 13.1298 47.4223 12.9424 47.9932 12.9424 48.5641 C 12.9424 48.9447 13.3173 49.7058 12.9424 49.7058 C 12.5674 49.8961 12.1925 49.3252 11.8176 49.1349 C 10.1304 48.3738 10.1304 47.0417 10.5053 45.5194 Z"/><path id="ID0.6104503511451185" fill="#9E93E0" stroke="none" stroke-width=".189" d="M 7.6933 40.7621 L 7.6933 40.7621 C 6.756 40.1913 6.0061 39.6204 5.4437 39.0495 C 5.0688 38.8592 5.0688 38.4786 5.0688 38.0981 C 4.8813 37.5272 5.0688 36.9563 5.0688 36.1951 C 5.8186 36.766 6.9434 37.3369 7.5058 38.0981 C 8.0682 38.8592 7.6933 39.8107 7.6933 40.7621 Z"/><path id="ID0.4417302757501602" fill="#9E93DF" stroke="none" stroke-width=".189" d="M 7.6933 46.0903 L 7.6933 46.0903 C 6.9434 45.5194 6.1936 44.9485 5.4437 44.568 C 5.0688 44.1874 5.0688 43.8068 5.0688 43.6165 C 5.0688 42.8553 5.0688 42.4747 5.0688 41.7136 C 6.0061 42.2845 6.756 42.8553 7.5058 43.4262 C 7.6933 43.6165 7.6933 43.6165 7.6933 43.8068 C 7.6933 44.568 7.6933 45.3291 7.6933 46.0903 Z"/><path id="ID0.40167985716834664" fill="#2B571E" stroke="none" stroke-width=".189" d="M 25.1277 40.1913 L 25.1277 40.1913 C 24.5653 40.7621 24.1904 41.1427 24.0029 41.9039 C 23.4405 41.7136 23.0656 41.333 22.6906 40.9524 C 22.5032 40.9524 22.5032 40.9524 22.6906 40.7621 C 23.0656 40.3815 23.628 39.8107 24.3778 39.6204 C 24.5653 39.6204 24.9402 40.001 25.1277 40.1913 Z"/><path id="ID0.07401935709640384" fill="#7F8370" stroke="none" stroke-width=".189" d="M 22.6906 43.8068 L 22.6906 43.8068 C 23.253 44.1874 23.8154 44.568 24.5653 45.3291 C 24.0029 45.9 23.4405 46.0903 22.6906 46.4709 C 22.6906 46.4709 22.6906 46.4709 22.6906 46.4709 C 22.6906 45.7097 22.6906 44.7582 22.6906 43.8068 Z"/><path id="ID0.10653467196971178" fill="#7D8270" stroke="none" stroke-width=".189" d="M 24.3778 39.6204 L 24.3778 39.6204 C 23.8154 40.001 23.253 40.3815 22.6906 40.7621 C 22.5032 40.001 22.3157 39.0495 22.5032 38.0981 C 23.0656 38.6689 23.8154 38.8592 24.3778 39.6204 Z"/><path id="ID0.35950132459402084" fill="#828571" stroke="none" stroke-width=".189" d="M 22.6906 54.6534 L 22.6906 54.6534 C 23.253 55.4146 24.0029 55.6048 24.5653 56.1757 C 24.1904 56.9369 23.4405 57.1272 22.8781 57.5078 C 22.8781 57.5078 22.6906 57.5078 22.6906 57.5078 C 22.6906 56.7466 22.6906 55.6048 22.6906 54.6534 Z"/><path id="ID0.5377933862619102" fill="#7D826F" stroke="none" stroke-width=".189" d="M 22.6906 51.9893 L 22.6906 51.9893 C 22.6906 51.9893 22.6906 51.9893 22.6906 51.9893 C 22.6906 51.0379 22.6906 50.2767 22.6906 49.3252 C 23.253 49.7058 24.0029 50.0864 24.5653 50.6573 C 24.1904 51.4184 23.4405 51.799 22.6906 51.9893 Z"/><path id="ID0.677839333191514" fill="#1D4413" stroke="none" stroke-width=".189" d="M 22.6906 51.9893 L 22.6906 51.9893 C 23.4405 51.6087 23.8154 51.0379 24.5653 50.6573 C 25.8775 51.4184 26.8149 52.7505 27.9397 53.7019 C 27.9397 54.4631 27.9397 55.2243 27.9397 55.9854 C 26.2525 54.6534 24.5653 53.3213 22.6906 51.9893 Z"/><path id="ID0.6304129287600517" fill="#0F2112" stroke="none" stroke-width=".189" d="M 43.6869 57.8883 L 43.6869 57.8883 C 43.4994 58.0786 43.1245 58.4592 42.7495 58.6495 C 42.5621 58.8398 42.3746 58.8398 41.9997 58.6495 C 41.4373 58.0786 40.6874 57.8883 39.9375 57.1272 C 40.6874 56.5563 41.4373 55.9854 41.9997 55.6048 C 42.1871 55.6048 42.3746 55.6048 42.5621 55.6048 C 42.7495 55.6048 42.7495 55.6048 42.7495 55.7951 C 42.7495 56.5563 42.937 57.1272 43.4994 57.5078 C 43.6869 57.5078 43.8743 57.698 43.6869 57.8883 Z"/><path id="ID0.8912791046313941" fill="#102212" stroke="none" stroke-width=".189" d="M 41.9997 60.933 L 41.9997 60.933 C 42.1871 60.933 42.3746 60.933 42.5621 60.933 C 42.7495 60.933 42.7495 61.1233 42.7495 61.3136 C 42.7495 62.0747 43.1245 62.4553 43.4994 63.0262 C 43.6869 63.2165 43.6869 63.2165 43.6869 63.4068 C 43.3119 63.5971 43.1245 63.9777 42.7495 64.168 C 42.5621 64.168 42.3746 64.3582 42.1871 64.168 C 41.4373 63.5971 40.6874 63.2165 39.9375 62.4553 C 40.125 62.4553 40.3125 62.265 40.3125 62.0747 C 40.8749 61.6942 41.4373 61.1233 41.9997 60.933 Z"/><path id="ID0.10005836794152856" fill="#0F2112" stroke="none" stroke-width=".189" d="M 43.6869 52.3699 L 43.6869 52.3699 C 42.3746 53.5116 42.3746 53.5116 41.0623 52.3699 C 40.6874 52.1796 40.3125 52.1796 39.9375 51.4184 C 40.125 51.4184 40.3125 51.4184 40.3125 51.2281 C 41.0623 50.6573 41.4373 50.0864 42.1871 49.8961 C 42.3746 49.8961 42.3746 49.8961 42.5621 49.8961 C 42.7495 50.0864 42.7495 50.2767 42.7495 50.467 C 42.7495 51.0379 42.937 51.6087 43.4994 51.9893 C 43.6869 52.1796 43.6869 52.1796 43.6869 52.3699 Z"/><path id="ID0.8021456631831825" fill="#566360" stroke="none" stroke-width=".189" d="M 42.1871 49.8961 L 42.1871 49.8961 C 41.6247 50.2767 41.0623 51.0379 40.3125 51.2281 C 40.4999 50.467 41.2498 49.8961 41.4373 49.3252 C 41.6247 49.5155 41.9997 49.7058 42.1871 49.8961 Z"/><path id="ID0.5949518829584122" fill="#54615F" stroke="none" stroke-width=".189" d="M 41.9997 60.933 L 41.9997 60.933 C 41.4373 61.3136 41.0623 61.8845 40.3125 62.0747 C 40.3125 61.6942 40.6874 61.3136 41.0623 60.933 C 41.2498 60.7427 41.4373 60.3621 41.4373 60.1718 C 41.6247 60.3621 41.8122 60.7427 41.9997 60.933 Z"/><path id="ID0.20852551981806755" fill="#566360" stroke="none" stroke-width=".189" d="M 39.9375 51.799 L 39.9375 51.799 C 39.9375 52.3699 39.7501 53.1311 39.9375 53.7019 C 39.7501 53.7019 39.3751 53.8922 39.1877 53.5116 C 39.1877 52.7505 39.1877 52.1796 39.9375 51.799 Z"/><path id="ID0.16276572085916996" fill="#54615F" stroke="none" stroke-width=".189" d="M 39.9375 57.5078 L 39.9375 57.5078 C 39.9375 57.8883 39.9375 58.4592 39.9375 59.0301 C 39.0002 58.4592 39.5626 57.8883 39.9375 57.5078 Z"/><path id="ID0.16979488171637058" fill="#54615F" stroke="none" stroke-width=".189" d="M 39.9375 63.0262 L 39.9375 63.0262 C 39.9375 63.5971 39.9375 63.9777 39.9375 64.5485 C 39.3751 63.9777 39.5626 63.5971 39.9375 63.0262 Z"/><path id="ID0.4574762019328773" fill="#194111" stroke="none" stroke-width=".189" d="M 25.1277 56.5563 L 25.1277 56.5563 C 26.2525 57.1272 27.0023 58.4592 27.9397 59.2204 C 27.9397 59.9815 27.9397 60.5524 27.9397 61.3136 C 26.6274 60.3621 25.5026 59.4107 24.1904 58.4592 C 24.0029 57.5078 24.5653 57.1272 25.1277 56.5563 Z"/><path id="ID0.27249277709051967" fill="#2A551D" stroke="none" stroke-width=".189" d="M 25.1277 56.5563 L 25.1277 56.5563 C 24.7528 57.1272 24.1904 57.698 24.1904 58.4592 C 23.8154 58.0786 23.4405 57.8883 22.8781 57.5078 C 23.253 56.7466 24.0029 56.7466 24.5653 56.1757 C 24.7528 56.366 24.9402 56.366 25.1277 56.5563 Z"/><path id="ID0.5268015377223492" fill="#1E2245" stroke="none" stroke-width=".189" d="M 43.6869 63.4068 L 43.6869 63.4068 C 42.7495 62.8359 42.3746 62.0747 42.5621 60.933 C 42.5621 60.933 42.7495 60.7427 42.7495 60.7427 C 43.1245 61.5039 43.8743 62.0747 44.8117 62.265 C 44.8117 63.0262 44.0618 63.0262 43.6869 63.4068 Z"/><path id="ID0.5575625961646438" fill="#1D4413" stroke="none" stroke-width=".189" d="M 22.6906 46.4709 L 22.6906 46.4709 C 23.253 46.0903 23.8154 45.7097 24.5653 45.3291 C 25.6901 45.9 26.6274 46.8514 27.7522 47.8029 C 27.9397 48.1835 27.9397 48.5641 27.9397 48.9447 C 27.9397 49.3252 27.9397 49.8961 27.9397 50.2767 C 27.3773 49.8961 27.0023 49.7058 26.6274 49.3252 C 25.6901 49.1349 25.1277 48.5641 24.5653 47.9932 C 24.0029 47.4223 23.4405 47.0417 22.6906 46.4709 Z"/><path id="ID0.6946578300558031" fill="#71AC50" stroke="none" stroke-width=".189" d="M 24.5653 47.9932 L 24.5653 47.9932 C 25.3151 48.3738 25.8775 48.9447 26.6274 49.3252 C 26.6274 49.8961 27.0023 50.0864 27.3773 50.467 C 27.5647 50.6573 27.9397 51.0379 27.9397 51.4184 C 27.9397 51.799 27.7522 52.1796 27.3773 52.1796 C 27.0023 52.1796 27.0023 51.9893 26.8149 51.799 C 26.6274 51.2281 26.4399 50.8476 25.8775 51.2281 C 25.6901 51.2281 25.5026 51.0379 25.3151 51.0379 C 24.7528 49.8961 23.8154 49.7058 23.0656 49.1349 C 22.6906 48.7544 22.6906 47.8029 22.8781 47.4223 C 23.0656 47.4223 23.4405 47.232 23.4405 47.4223 C 23.8154 48.1835 24.1904 47.9932 24.5653 47.9932 Z"/><path id="ID0.7640159330330789" fill="#1F2447" stroke="none" stroke-width=".189" d="M 42.5621 44.1874 L 42.5621 44.1874 C 43.1245 44.568 43.4994 44.9485 44.0618 45.3291 C 44.2493 45.7097 44.4367 45.7097 44.8117 45.7097 C 44.6242 46.4709 44.0618 46.6612 43.6869 46.8514 C 42.7495 46.2806 42.3746 45.3291 42.5621 44.1874 Z"/><path id="ID0.03235942265018821" fill="#1C2143" stroke="none" stroke-width=".189" d="M 43.6869 52.3699 L 43.6869 52.3699 C 43.6869 52.3699 43.4994 52.3699 43.4994 52.3699 C 42.5621 51.799 42.3746 50.8476 42.5621 49.8961 C 42.5621 49.8961 42.7495 49.8961 42.7495 49.7058 C 43.3119 50.467 43.8743 51.0379 44.8117 51.4184 C 44.6242 51.9893 44.0618 52.1796 43.6869 52.3699 Z"/><path id="ID0.6209553773514926" fill="#1D2244" stroke="none" stroke-width=".189" d="M 43.6869 57.8883 L 43.6869 57.8883 C 42.7495 57.3175 42.3746 56.5563 42.5621 55.6048 C 42.5621 55.4146 42.7495 55.4146 42.7495 55.4146 C 43.3119 55.9854 43.8743 56.7466 44.8117 56.7466 C 44.8117 57.5078 44.0618 57.698 43.6869 57.8883 Z"/></g></svg>