<svg version="1.1" xmlns="http://www.w3.org/2000/svg" xmlns:xlink="http://www.w3.org/1999/xlink" width="128.20557" height="97.67194" viewBox="0,0,128.20557,97.67194"><g transform="translate(-175.89721,-131.17407)"><g data-paper-data="{&quot;isPaintingLayer&quot;:true}" fill-rule="nonzero" stroke="none" stroke-width="1" stroke-linecap="butt" stroke-linejoin="miter" stroke-miterlimit="10" stroke-dasharray="" stroke-dashoffset="0" style="mix-blend-mode: normal"><path d="M177.12134,160.19361h2.50781c0,0.55956 -0.00406,1.01562 -0.0122,1.36816c-0.03174,1.39942 -0.04769,2.16342 -0.04785,2.292v4.84766l-2.4961,-0.01172c0,-0.55274 0.01611,-1.38086 0.04834,-2.48438c0.03174,-1.10351 0.04769,-1.93163 0.04785,-2.48437c0,-0.40723 -0.00798,-1.08105 -0.02392,-2.02149c-0.01612,-0.94044 -0.0241,-1.44238 -0.02393,-1.50586z" fill="#000000"/><path d="M180.5647,160.21704h2.45264c0.35254,0.53907 0.76937,1.12174 1.25049,1.748c0.44092,0.57129 0.88185,1.13804 1.32275,1.70024c0.54492,0.71583 0.96159,1.30666 1.25,1.77247l-0.15576,-5.22071h2.46v8.48438h-2.4961c-0.30418,-0.47072 -0.64419,-0.9616 -1.02,-1.47266c-0.4878,-0.63867 -0.84783,-1.1175 -1.08008,-1.43652c-0.2959,-0.38379 -0.5918,-0.77116 -0.8877,-1.16211c-0.29871,-0.39105 -0.57519,-0.79859 -0.82812,-1.2207c0.05068,0.32192 0.08474,0.64625 0.10205,0.97168c0.02,0.35253 0.02992,0.7246 0.02978,1.11621c0,0.42382 0.014,1.00976 0.042,1.75781c0.02832,0.74804 0.04232,1.23014 0.042,1.44629h-2.48395c0,-0.57814 0.01204,-1.4538 0.03613,-2.627c0.02393,-1.17284 0.03598,-2.05273 0.03614,-2.63964c0,-0.49804 -0.00489,-0.89974 -0.01465,-1.20508c-0.03858,-1.22848 -0.05778,-1.89937 -0.05762,-2.01266z" fill="#000000"/><path d="M193.33277,160.19361h2.772c0.60733,-0.01454 1.21454,0.03356 1.812,0.14355c0.6033,0.13411 1.16519,0.4122 1.6377,0.81055c0.46489,0.37698 0.82282,0.86926 1.03808,1.42773c0.21723,0.60182 0.32296,1.2382 0.312,1.87793c0.00532,0.60207 -0.10045,1.19996 -0.312,1.76367c-0.21026,0.54773 -0.54256,1.04033 -0.97168,1.44043c-0.3751,0.34785 -0.82148,0.60978 -1.3081,0.76758c-0.78332,0.20102 -1.59191,0.28593 -2.3999,0.252h-2.64016c0,-0.416 0.01595,-1.04066 0.04785,-1.874c0.03174,-0.83301 0.04769,-1.46192 0.04785,-1.88672zM195.97242,166.75708c0.6585,0.03987 1.30782,-0.17006 1.81835,-0.58789c0.46212,-0.45644 0.70105,-1.09242 0.65381,-1.74023c0.01054,-0.38079 -0.05468,-0.75987 -0.19189,-1.11524c-0.22965,-0.56622 -0.74029,-0.96983 -1.34424,-1.0625c-0.23809,-0.03706 -0.47877,-0.05501 -0.71973,-0.05371h-0.44384l0.01172,4.55957z" fill="#000000"/><path d="M201.81665,160.21704h5.01563v1.98047h-2.69971v1.22363h2.36377v1.98047h-2.36377v1.34375h2.80765v1.95606h-5.12357z" fill="#000000"/><path d="M209.31622,160.19361c0.15966,0.51171 0.34357,1.05565 0.55175,1.63183c0.12793,0.36034 0.33203,0.90039 0.61231,1.62012c0.20752,0.53614 0.41552,1.07194 0.624,1.60742l1.79981,-4.85937h2.53173c-0.12793,0.32714 -0.25585,0.63866 -0.38378,0.93457c-0.416,0.9502 -0.63996,1.46549 -0.67188,1.54589c-0.06445,0.16016 -0.33642,0.82716 -0.81592,2.001c-0.36034,0.88672 -0.63248,1.55762 -0.8164,2.0127c-0.272,0.67186 -0.53991,1.34309 -0.80371,2.01367h-1.74027c-0.12507,-0.49333 -0.29166,-0.97519 -0.498,-1.44043c-0.228,-0.52733 -0.44594,-1.03514 -0.6538,-1.52344c-0.376,-0.92774 -0.75002,-1.84766 -1.12208,-2.75977c-0.37205,-0.91211 -0.77,-1.84017 -1.19384,-2.78417z" fill="#000000"/><path d="M215.92798,160.21704h5.01563v1.98047h-2.69971v1.22363h2.36377v1.98047h-2.36377v1.34375h2.80762v1.95606h-5.12354z" fill="#000000"/><path d="M221.97535,160.21704l2.436,0.0127c0,0.14354 -0.00798,0.38932 -0.02393,0.7373c-0.01611,0.34864 -0.02392,0.53418 -0.02392,0.5586v5.208h2.67578v1.96778h-5.124c0,-0.624 0.01009,-1.416 0.03027,-2.376c0.01952,-0.95996 0.02945,-1.51986 0.02979,-1.67969z" fill="#000000"/><path d="M231.81522,159.97778c1.22887,-0.04946 2.4304,0.37136 3.35986,1.17676c0.91075,0.83211 1.4071,2.02426 1.356,3.25684c0.04283,1.26314 -0.48077,2.47938 -1.42774,3.3164c-0.95201,0.82907 -2.1826,1.26695 -3.44433,1.22559c-1.20953,0.04456 -2.38744,-0.39192 -3.27588,-1.21387c-0.86757,-0.83615 -1.33496,-2.00418 -1.28369,-3.208c-0.04761,-1.23739 0.43731,-2.43588 1.332,-3.292c0.91604,-0.85255 2.13318,-1.30639 3.38378,-1.26172zM231.80301,166.96118c0.64431,0.03378 1.26687,-0.23797 1.68018,-0.7334c0.39419,-0.51212 0.59404,-1.14743 0.564,-1.793c0.02793,-0.617 -0.15858,-1.22464 -0.52783,-1.71973c-0.38962,-0.48398 -0.98734,-0.75225 -1.60791,-0.72168c-0.63528,-0.02558 -1.24968,0.2294 -1.68018,0.69727c-0.43041,0.48182 -0.65832,1.11114 -0.63623,1.75683c-0.02777,0.63558 0.16755,1.26086 0.55218,1.76762c0.40126,0.49864 1.01641,0.77583 1.65576,0.74609z" fill="#000000"/><path d="M237.37085,160.21704h2.4043c1.73146,0 2.86556,0.23959 3.40234,0.71875c0.54255,0.55623 0.81492,1.32179 0.74561,2.09571c0.08884,0.87852 -0.27794,1.74144 -0.97217,2.28711c-0.76275,0.4292 -1.63482,0.6248 -2.50781,0.5625h-0.792l-0.02442,0.9121c0,0.208 0.01205,0.52409 0.03614,0.94825c0.02392,0.42382 0.03596,0.74382 0.03613,0.96l-2.32813,-0.01172c0,-0.51952 0.00798,-1.37239 0.02393,-2.55859c0.01611,-1.18653 0.02408,-1.81576 0.02392,-1.8877zM239.97485,163.92504c0.34835,0.01733 0.69716,-0.02326 1.03222,-0.12012c0.34551,-0.11097 0.57235,-0.44141 0.55176,-0.80371c0.00958,-0.27855 -0.13593,-0.53948 -0.37793,-0.67773c-0.25796,-0.1579 -0.5555,-0.23919 -0.85791,-0.23438h-0.69629v1.83594z" fill="#000000"/><path d="M244.83472,160.19361h2.71191c0.27979,0.832 0.56378,1.65979 0.852,2.48339c0.28602,0.83299 0.48308,1.6939 0.5879,2.56836l0.12011,-0.63867c0.17197,-0.7505 0.38437,-1.49114 0.63628,-2.21871c0.3916,-1.17382 0.6276,-1.90527 0.708,-2.19433h2.71192l1.332,8.50781h-2.5083c-0.18409,-1.73633 -0.36408,-3.47625 -0.54,-5.21973c-0.16016,0.5918 -0.33204,1.1758 -0.51563,1.752c-0.09619,0.28808 -0.29232,0.86393 -0.58838,1.72754c-0.2959,0.86426 -0.49186,1.44434 -0.58789,1.74024h-1.56006c-0.56006,-1.74414 -1.11996,-3.48828 -1.67968,-5.23242c-0.00559,0.87497 -0.06576,1.74873 -0.18018,2.61621c-0.17628,1.168 -0.30827,2.04007 -0.396,2.61621h-2.49609c0.19189,-0.96094 0.368,-1.90235 0.52832,-2.82422c0.12744,-0.76074 0.27929,-1.70605 0.45557,-2.83594c0.14404,-0.92876 0.2801,-1.87801 0.4082,-2.84774z" fill="#000000"/><path d="M255.1189,160.21704h5.01562v1.98047h-2.6997v1.22363h2.36377v1.98047h-2.36377v1.34375h2.80761v1.95606h-5.12353z" fill="#000000"/><path d="M260.87867,160.21704h2.45263c0.35254,0.53907 0.76937,1.12174 1.25049,1.748c0.44092,0.57129 0.88183,1.13803 1.32275,1.70019c0.54492,0.71583 0.96159,1.30666 1.25,1.77247l-0.15576,-5.22071h2.46v8.48438h-2.49613c-0.3042,-0.47072 -0.6442,-0.9616 -1.02,-1.47266c-0.48778,-0.63867 -0.84782,-1.1175 -1.08008,-1.43652c-0.2959,-0.38379 -0.5918,-0.77117 -0.88769,-1.16211c-0.29872,-0.39105 -0.5752,-0.7986 -0.82813,-1.2207c0.05068,0.32192 0.08474,0.64625 0.10205,0.97168c0.02,0.35253 0.02993,0.7246 0.02979,1.11621c0,0.42382 0.014,1.00976 0.042,1.75781c0.02832,0.74804 0.04232,1.23014 0.042,1.44629h-2.48392c0,-0.57814 0.01205,-1.4538 0.03613,-2.627c0.02392,-1.17284 0.03596,-2.05272 0.03613,-2.63964c0,-0.49804 -0.00488,-0.89974 -0.01465,-1.20508c-0.03857,-1.22844 -0.05777,-1.89932 -0.05761,-2.01261z" fill="#000000"/><path d="M269.75855,160.21704h5.93994v1.96875h-1.7876v6.51563h-2.436c0,-0.53516 0.00391,-0.93425 0.01172,-1.19727c0.04,-1.334 0.06001,-2.0049 0.06005,-2.01269v-3.30567h-1.78811z" fill="#000000"/><path d="M183.14527,191.79028c-0.24873,-0.23738 -0.53207,-0.43561 -0.84034,-0.58789c-0.30819,-0.15914 -0.64881,-0.24536 -0.9956,-0.252c-0.60768,-0.01704 -1.19341,0.22764 -1.6084,0.67188c-0.42142,0.44192 -0.65009,1.03312 -0.63571,1.6436c-0.01713,0.60648 0.1852,1.19877 0.56982,1.668c0.38311,0.45789 0.95777,0.711 1.5542,0.68457c0.36038,-0.00009 0.71649,-0.07804 1.04395,-0.22852c0.32392,-0.16028 0.63307,-0.34884 0.92383,-0.56347v2.33984c-0.34581,0.18315 -0.70975,0.32978 -1.08594,0.4375c-0.36706,0.08998 -0.74419,0.13233 -1.12207,0.126c-1.182,0.05381 -2.33337,-0.38503 -3.17969,-1.21192c-0.81894,-0.85536 -1.25255,-2.00836 -1.20019,-3.1914c-0.06107,-1.24284 0.42324,-2.45045 1.32614,-3.30669c0.94573,-0.83465 2.17771,-1.27105 3.43795,-1.2178c0.63285,-0.00364 1.25628,0.15328 1.812,0.45606z" fill="#000000"/><path d="M186.9729,191.49048c0.88255,-0.03554 1.7494,0.24108 2.44825,0.78125c0.68912,0.56347 1.07162,1.41933 1.03173,2.30859c0.04908,0.89875 -0.32902,1.76792 -1.02,2.34473c-0.71652,0.54034 -1.59969,0.81262 -2.49609,0.76953c-0.88115,0.04033 -1.75068,-0.21355 -2.47168,-0.72168c-0.70641,-0.54126 -1.10135,-1.3954 -1.05615,-2.28418c-0.03706,-0.91127 0.35358,-1.78757 1.05613,-2.36914c0.70934,-0.56839 1.59946,-0.86268 2.50781,-0.8291zM186.93677,195.8938c0.347,0.0158 0.68316,-0.12295 0.918,-0.37891c0.23208,-0.2644 0.35451,-0.6074 0.34228,-0.959c-0.00161,-0.50713 -0.31038,-0.9627 -0.78083,-1.15208c-0.47045,-0.18938 -1.00874,-0.07479 -1.36126,0.28978c-0.23928,0.24189 -0.3711,0.56994 -0.36572,0.91015c-0.01117,0.34049 0.11154,0.67178 0.3418,0.92285c0.23449,0.24778 0.56489,0.38174 0.90573,0.36721z" fill="#000000"/><path d="M190.92066,193.71411c0,-0.2246 -0.00798,-0.60514 -0.02393,-1.1416c-0.01612,-0.53711 -0.02409,-0.82194 -0.02392,-0.85449h2.23193v0.71973c0.22729,-0.30788 0.53731,-0.54494 0.894,-0.6836c0.38072,-0.14678 0.78583,-0.22002 1.19385,-0.21582c0.34874,-0.01244 0.69272,0.08379 0.98438,0.27539c0.26764,0.21696 0.50205,0.47195 0.6958,0.75684c0.24296,-0.3222 0.55066,-0.58998 0.90332,-0.78613c0.36335,-0.17477 0.76352,-0.25919 1.1665,-0.2461c0.18084,-0.00293 0.3614,0.0151 0.53809,0.05371c0.54682,0.14568 1.00452,0.5196 1.25634,1.02637c0.12028,0.36333 0.17307,0.7456 0.15577,1.12793v2.02832c0,0.26367 0.00992,0.60155 0.02978,1.01367c0.02,0.4121 0.03009,0.65006 0.03027,0.71387h-2.2441v-3.15622c0.00095,-0.2524 -0.07895,-0.49846 -0.228,-0.70215c-0.13254,-0.20152 -0.35894,-0.32126 -0.6001,-0.31738c-0.37411,0.00371 -0.69451,0.26891 -0.76807,0.63574c-0.10653,0.35814 -0.15499,0.73102 -0.14355,1.10449v0.81543c0,0.17578 0.01172,0.44043 0.03564,0.792c0.02393,0.35254 0.03597,0.61654 0.03613,0.792h-2.24416v-3.14653c-0.00042,-0.24811 -0.08494,-0.48874 -0.23974,-0.68262c-0.13735,-0.19527 -0.36137,-0.31119 -0.6001,-0.31054c-0.33434,-0.00731 -0.63302,0.20789 -0.73193,0.52734c-0.11343,0.31134 -0.16646,0.64146 -0.15625,0.97266v1.45215l0.03613,1.22363h-2.23193c0,-0.35254 0.00798,-0.94368 0.02392,-1.77344c0.01612,-0.83008 0.0241,-1.27311 0.02393,-1.3291z" fill="#000000"/><path d="M203.17261,188.77857c0.31331,-0.00637 0.61526,0.11738 0.834,0.34179c0.22602,0.22251 0.34991,0.52863 0.34228,0.84571c0.00948,0.31346 -0.11754,0.61559 -0.34814,0.82812c-0.22668,0.2139 -0.52824,0.33032 -0.83985,0.32422c-0.3084,0.00765 -0.60689,-0.10921 -0.82812,-0.32422c-0.22255,-0.21228 -0.34463,-0.50898 -0.33594,-0.81641c-0.00187,-0.31543 0.12366,-0.61825 0.34814,-0.83984c0.21284,-0.23115 0.51342,-0.36166 0.82763,-0.35937zM202.06861,191.71798h2.22021v5.78418h-2.25586l0.03565,-3.01172z" fill="#000000"/><path d="M205.21265,194.80198c0,-0.46386 -0.00391,-0.84374 -0.01172,-1.13964c-0.03223,-1.168 -0.04818,-1.80797 -0.04785,-1.91993h2.24365v0.64746c0.20845,-0.19053 0.42826,-0.36826 0.6582,-0.53222c0.39348,-0.24803 0.85087,-0.37565 1.31592,-0.36719c0.6014,-0.05148 1.18899,0.19966 1.56739,0.66992c0.32575,0.50946 0.48087,1.10938 0.44287,1.71289v1.65332c0,0.22266 0.00781,0.59864 0.02392,1.125c0.01564,0.52733 0.02361,0.81087 0.02393,0.85059h-2.28028v-3.17967c0.00935,-0.26028 -0.07348,-0.51551 -0.23388,-0.7207c-0.16421,-0.19561 -0.411,-0.30237 -0.666,-0.28809c-0.28064,-0.00416 -0.53912,0.15199 -0.666,0.40235c-0.15457,0.26382 -0.23535,0.56435 -0.23389,0.87011c0,0.33594 0.00798,0.89388 0.02393,1.67383c0.01611,0.78027 0.02408,1.19433 0.02392,1.24219h-2.24368c0,-0.2959 0.00992,-0.74382 0.02978,-1.34375c0.02002,-0.60059 0.02979,-1.05176 0.02979,-1.35647z" fill="#000000"/><path d="M216.62476,191.69458h2.26807v5.46c0.0448,0.79324 -0.26271,1.56583 -0.84034,2.11133c-0.60937,0.52169 -1.39443,0.79194 -2.1958,0.75586c-0.93268,0.0916 -1.87234,-0.08063 -2.71191,-0.49707c-0.48292,-0.39151 -0.80016,-0.95099 -0.88818,-1.56641h2.24414c0.09447,0.17616 0.24116,0.31876 0.41992,0.40821c0.20798,0.0727 0.42789,0.10518 0.648,0.0957c0.34346,0.01688 0.66926,-0.15303 0.852,-0.44434c0.17873,-0.29594 0.26638,-0.63796 0.252,-0.98339v-0.19239c-0.27065,0.18301 -0.56375,0.33038 -0.87207,0.43848c-0.29647,0.1002 -0.60747,0.15068 -0.92041,0.14941c-0.7735,0.04729 -1.52849,-0.24892 -2.06348,-0.80957c-0.508,-0.60387 -0.76815,-1.37789 -0.728,-2.166c-0.03186,-0.78582 0.24605,-1.55274 0.77392,-2.13574c0.5421,-0.56337 1.30105,-0.86525 2.082,-0.82813c0.31313,-0.00311 0.62356,0.05804 0.91211,0.17969c0.28472,0.13256 0.55767,0.28905 0.81592,0.46777zM214.35669,194.57446c0.00128,0.30765 0.12684,0.60172 0.34815,0.81543c0.2088,0.23007 0.50523,0.361 0.81592,0.36036c0.35473,0.01808 0.70006,-0.11749 0.94775,-0.37207c0.23865,-0.26591 0.36363,-0.61472 0.34814,-0.97168c0.01109,-0.31716 -0.11592,-0.62354 -0.34814,-0.83985c-0.2303,-0.21594 -0.53641,-0.33243 -0.852,-0.32422c-0.34562,-0.01284 -0.67926,0.12762 -0.91162,0.38379c-0.23365,0.25956 -0.35835,0.59915 -0.3482,0.94824z" fill="#000000"/><path d="M223.00757,195.43775c0.27971,0.15723 0.56995,0.29492 0.86865,0.41211c0.29606,0.11757 0.61073,0.1814 0.9292,0.18847c0.13505,-0.00618 0.26694,-0.0429 0.38575,-0.10742c0.145,-0.07227 0.21743,-0.16017 0.21728,-0.26367c0,-0.11133 -0.416,-0.29883 -1.248,-0.5625c-0.74537,-0.15234 -1.27247,-0.81969 -1.248,-1.58008c-0.02768,-0.57163 0.22848,-1.12011 0.68457,-1.46582c0.47476,-0.35282 1.05419,-0.53611 1.6455,-0.52051c0.71074,0.00274 1.41354,0.14958 2.06592,0.43164l-0.48,1.62012c-0.21285,-0.09664 -0.43116,-0.18079 -0.65381,-0.252c-0.22259,-0.07536 -0.45547,-0.11588 -0.69043,-0.12012c-0.10644,0.00068 -0.21008,0.03409 -0.29687,0.0957c-0.08469,0.05021 -0.1372,0.14082 -0.13867,0.23926c0,0.12012 0.41585,0.30372 1.24756,0.55078c0.76582,0.16021 1.29756,0.85882 1.248,1.63965c0.01037,0.62932 -0.33238,1.21151 -0.88769,1.50781c-0.53979,0.30861 -1.15437,0.46204 -1.77588,0.44336c-0.3927,0.00819 -0.78512,-0.02619 -1.17041,-0.10254c-0.40738,-0.10392 -0.80643,-0.23808 -1.19385,-0.40136z" fill="#000000"/><path d="M231.40845,191.49048c0.88255,-0.03554 1.7494,0.24108 2.44824,0.78125c0.68913,0.56346 1.07163,1.41932 1.03174,2.30859c0.04908,0.89875 -0.32902,1.76792 -1.02,2.34473c-0.71653,0.54034 -1.59969,0.81261 -2.49609,0.76953c-0.88115,0.04033 -1.75068,-0.21355 -2.47168,-0.72168c-0.70641,-0.54126 -1.10135,-1.3954 -1.05615,-2.28418c-0.03706,-0.91128 0.3536,-1.78757 1.05615,-2.36914c0.70933,-0.56839 1.59945,-0.86267 2.50779,-0.8291zM231.37232,195.8938c0.347,0.0158 0.68317,-0.12295 0.918,-0.37891c0.23208,-0.26441 0.3545,-0.6074 0.34228,-0.959c-0.00161,-0.50713 -0.31038,-0.9627 -0.78083,-1.15208c-0.47045,-0.18938 -1.00874,-0.07479 -1.36126,0.28978c-0.23928,0.24189 -0.3711,0.56994 -0.36572,0.91015c-0.01117,0.34049 0.11154,0.67178 0.3418,0.92285c0.23449,0.24779 0.56489,0.38174 0.90573,0.36721z" fill="#000000"/><path d="M238.81222,191.49048c0.88255,-0.03554 1.7494,0.24108 2.44824,0.78125c0.68914,0.56346 1.07164,1.41932 1.03176,2.30859c0.04908,0.89875 -0.32902,1.76792 -1.02,2.34473c-0.71653,0.54034 -1.59969,0.81261 -2.49609,0.76953c-0.88115,0.04033 -1.75068,-0.21355 -2.47168,-0.72168c-0.70641,-0.54126 -1.10135,-1.3954 -1.05616,-2.28418c-0.03705,-0.91128 0.3536,-1.78758 1.05616,-2.36914c0.70933,-0.56839 1.59943,-0.86267 2.50777,-0.8291zM238.77609,195.8938c0.347,0.01579 0.68317,-0.12296 0.918,-0.37891c0.23208,-0.26441 0.35449,-0.6074 0.34228,-0.959c-0.00161,-0.50713 -0.31038,-0.9627 -0.78083,-1.15208c-0.47045,-0.18938 -1.00874,-0.07479 -1.36126,0.28978c-0.23928,0.24189 -0.3711,0.56994 -0.36572,0.91015c-0.01117,0.34048 0.11153,0.67178 0.34179,0.92285c0.2345,0.2478 0.56492,0.38175 0.90578,0.36721z" fill="#000000"/><path d="M242.95191,194.80198c0,-0.46386 -0.00391,-0.84374 -0.01172,-1.13964c-0.03223,-1.168 -0.04818,-1.80797 -0.04785,-1.91993h2.24365v0.64746c0.20845,-0.19053 0.42826,-0.36826 0.6582,-0.53222c0.39348,-0.24803 0.85087,-0.37565 1.31592,-0.36719c0.60139,-0.05148 1.18898,0.19966 1.56738,0.66992c0.32576,0.50946 0.48087,1.10938 0.44287,1.71289v1.65332c0,0.22266 0.00782,0.59864 0.02393,1.125c0.01563,0.52733 0.02361,0.81087 0.02393,0.85059h-2.28028v-3.17967c0.00935,-0.26028 -0.07348,-0.51551 -0.23388,-0.7207c-0.16421,-0.19561 -0.411,-0.30237 -0.666,-0.28809c-0.28064,-0.00416 -0.53912,0.15199 -0.666,0.40235c-0.15457,0.26382 -0.23535,0.56435 -0.23388,0.87011c0,0.33594 0.00798,0.89388 0.02392,1.67383c0.01612,0.78027 0.02409,1.19433 0.02393,1.24219h-2.24369c0,-0.2959 0.00992,-0.74382 0.02978,-1.34375c0.02002,-0.60059 0.02979,-1.05176 0.02979,-1.35647z" fill="#000000"/><path d="M177.12134,217.79419h2.50781c0,0.55957 -0.00406,1.01579 -0.0122,1.36865c-0.03174,1.39942 -0.04769,2.16342 -0.04785,2.292v4.84765l-2.4961,-0.01172c0,-0.55274 0.01611,-1.38086 0.04834,-2.48437c0.03174,-1.10352 0.04769,-1.93164 0.04785,-2.48438c0,-0.40722 -0.00798,-1.08104 -0.02392,-2.02148c-0.01612,-0.94092 -0.0241,-1.44304 -0.02393,-1.50635z" fill="#000000"/><path d="M181.80054,219.89429h-0.876v-2.05225h2.0044v2.186c-0.00942,0.32149 -0.10032,0.63533 -0.26416,0.91211c-0.28626,0.48198 -0.65594,0.9092 -1.0918,1.26172l-0.64842,-0.87789c0.23253,-0.18033 0.43864,-0.39236 0.61231,-0.62989c0.13333,-0.24941 0.22254,-0.51999 0.26367,-0.7998z" fill="#000000"/><path d="M183.7688,222.51441c0,-0.2246 -0.00798,-0.60514 -0.02392,-1.14161c-0.01612,-0.53711 -0.0241,-0.82194 -0.02393,-0.85449h2.23193v0.71973c0.22732,-0.30788 0.53734,-0.54494 0.89405,-0.6836c0.38072,-0.14678 0.78582,-0.22002 1.19384,-0.21582c0.34874,-0.01245 0.69273,0.0838 0.98438,0.2754c0.26764,0.21696 0.50205,0.47194 0.6958,0.75683c0.24296,-0.32219 0.55067,-0.58998 0.90332,-0.78613c0.36335,-0.17477 0.76352,-0.25919 1.1665,-0.2461c0.18084,-0.00293 0.3614,0.0151 0.53809,0.05372c0.54682,0.14568 1.00452,0.5196 1.25636,1.02636c0.12027,0.36333 0.17306,0.7456 0.15576,1.12793v2.02835c0,0.26368 0.00993,0.60156 0.02979,1.01367c0.02,0.41212 0.03009,0.65007 0.03027,0.71387h-2.24415v-3.15628c0.00095,-0.2524 -0.07895,-0.49846 -0.228,-0.70215c-0.13253,-0.20152 -0.35894,-0.32125 -0.6001,-0.31738c-0.37411,0.00371 -0.6945,0.26891 -0.76806,0.63574c-0.10654,0.35814 -0.15501,0.73102 -0.14356,1.10449v0.81543c0,0.17579 0.01172,0.44043 0.03565,0.792c0.02392,0.35254 0.03597,0.61654 0.03613,0.792h-2.24417v-3.1465c-0.00042,-0.2481 -0.08494,-0.48873 -0.23975,-0.68261c-0.13735,-0.19528 -0.36137,-0.31121 -0.6001,-0.31055c-0.33434,-0.00731 -0.63302,0.20789 -0.73193,0.52734c-0.11342,0.31134 -0.16645,0.64145 -0.15625,0.97266v1.45215l0.03613,1.22363h-2.23193c0,-0.35254 0.00798,-0.94368 0.02393,-1.77344c0.01611,-0.83007 0.02408,-1.27311 0.02392,-1.3291z" fill="#000000"/><path d="M199.24878,220.51831l1.104,2.85645l1.03222,-2.85645h1.37989l1.03173,2.82031l1.188,-2.82031h2.3042l-2.65185,5.78418h-1.51221l-1.05615,-2.94043l-1.12793,2.94043h-1.59571c-0.312,-0.86719 -0.70409,-1.83918 -1.17627,-2.916c-0.43212,-0.95606 -0.86002,-1.91212 -1.28369,-2.86817z" fill="#000000"/><path d="M210.88843,220.29077c0.88255,-0.03554 1.7494,0.24108 2.44824,0.78125c0.68913,0.56347 1.07162,1.41933 1.03174,2.3086c0.04908,0.89874 -0.32902,1.76791 -1.02,2.34472c-0.71653,0.54034 -1.59969,0.81261 -2.49609,0.76953c-0.88115,0.04033 -1.75068,-0.21355 -2.47168,-0.72168c-0.70643,-0.54126 -1.10138,-1.39541 -1.05617,-2.28421c-0.03706,-0.91128 0.3536,-1.78758 1.05615,-2.36915c0.70934,-0.56838 1.59947,-0.86264 2.50781,-0.82906zM210.8523,224.69409c0.347,0.0158 0.68317,-0.12295 0.918,-0.3789c0.23207,-0.26441 0.35449,-0.6074 0.34228,-0.959c-0.00162,-0.50713 -0.31039,-0.96269 -0.78083,-1.15207c-0.47045,-0.18938 -1.00873,-0.07479 -1.36125,0.28977c-0.23928,0.24189 -0.3711,0.56995 -0.36572,0.91015c-0.01117,0.34049 0.11154,0.67179 0.3418,0.92286c0.2345,0.24778 0.56489,0.38172 0.90573,0.36719z" fill="#000000"/><path d="M215.14822,220.53003h2.124v0.69629c0.3323,-0.26553 0.69725,-0.48738 1.08594,-0.66016c0.2634,-0.09627 0.54182,-0.14488 0.82226,-0.14355c0.08876,-0.00007 0.17724,0.01009 0.26368,0.03027c0.08837,0.01953 0.20019,0.04981 0.33642,0.08985l0.01172,2.01562c-0.19243,-0.0677 -0.38875,-0.1238 -0.58789,-0.168c-0.1733,-0.03868 -0.35026,-0.05866 -0.52783,-0.05957c-0.44424,-0.04783 -0.87558,0.16775 -1.104,0.55176c-0.17656,0.40399 -0.25471,0.84411 -0.228,1.28418c0,0.23926 0.00798,0.64518 0.02392,1.21777c0.01564,0.57226 0.02361,0.87826 0.02393,0.918h-2.24415c0,-0.28808 0.00602,-0.76204 0.01806,-1.42187c0.01221,-0.66016 0.01807,-1.01758 0.01807,-1.07422z" fill="#000000"/><path d="M222.23999,217.31372v5.47315l1.86524,-2.292h2.69482l-2.64013,2.86719l2.84423,2.94043h-2.76025l-2.00391,-2.18359v2.17187l-2.15966,0.01172v-4.80078c0,-0.46484 -0.01009,-1.16276 -0.03028,-2.09375c-0.02,-0.93115 -0.02993,-1.62924 -0.02978,-2.09424z" fill="#000000"/><path d="M228.5398,217.57837c0.31332,-0.00637 0.61527,0.11738 0.834,0.3418c0.22603,0.22251 0.34992,0.52862 0.34229,0.8457c0.00958,0.31362 -0.11745,0.61595 -0.34815,0.82861c-0.22668,0.21391 -0.52823,0.33032 -0.83984,0.32422c-0.3084,0.00765 -0.6069,-0.10921 -0.82813,-0.32422c-0.22264,-0.21241 -0.34472,-0.5093 -0.33593,-0.81689c-0.00188,-0.31543 0.12366,-0.61825 0.34814,-0.83984c0.21284,-0.23116 0.51341,-0.36167 0.82762,-0.35938zM227.4358,220.51831h2.22022v5.78418h-2.25587l0.03564,-3.01172z" fill="#000000"/><path d="M230.57984,223.6023c0,-0.46388 -0.00391,-0.84376 -0.01172,-1.13965c-0.03223,-1.168 -0.04819,-1.80797 -0.04785,-1.91992h2.24365v0.64746c0.20845,-0.19053 0.42826,-0.36827 0.6582,-0.53223c0.39348,-0.24803 0.85087,-0.37565 1.31592,-0.36719c0.60139,-0.05148 1.18898,0.19967 1.56738,0.66992c0.32576,0.50946 0.48087,1.10939 0.44287,1.7129v1.65332c0,0.22265 0.00782,0.59863 0.02393,1.125c0.01564,0.52733 0.02361,0.81086 0.02393,0.85058h-2.28028v-3.17969c0.00935,-0.26028 -0.07348,-0.51551 -0.23388,-0.7207c-0.16421,-0.19561 -0.41101,-0.30236 -0.666,-0.28808c-0.28064,-0.00417 -0.53912,0.15198 -0.666,0.40234c-0.15457,0.26382 -0.23535,0.56436 -0.23388,0.87012c0,0.33594 0.00798,0.89388 0.02392,1.67382c0.01612,0.78028 0.0241,1.19434 0.02393,1.24219h-2.24369c0,-0.2959 0.00993,-0.74382 0.02978,-1.34375c0.02002,-0.60058 0.02979,-1.05176 0.02979,-1.35644z" fill="#000000"/><path d="M241.99195,220.49487h2.26806v5.46c0.0448,0.79324 -0.26269,1.56583 -0.84033,2.11132c-0.60937,0.52169 -1.39443,0.79193 -2.1958,0.75586c-0.93268,0.0916 -1.87234,-0.08063 -2.71191,-0.49707c-0.48292,-0.39151 -0.80016,-0.95098 -0.88819,-1.5664h2.24414c0.09447,0.17616 0.24116,0.31876 0.41993,0.4082c0.20796,0.0727 0.42785,0.10518 0.64794,0.0957c0.34348,0.01691 0.66931,-0.15301 0.85206,-0.44433c0.17872,-0.29595 0.26634,-0.63797 0.25195,-0.9834v-0.19238c-0.27066,0.183 -0.56376,0.33037 -0.87207,0.43847c-0.29647,0.1002 -0.60747,0.15068 -0.92041,0.14942c-0.7735,0.04729 -1.52849,-0.24892 -2.06348,-0.80957c-0.508,-0.60387 -0.76815,-1.37789 -0.728,-2.166c-0.03186,-0.78582 0.24605,-1.55274 0.77393,-2.13574c0.5421,-0.56338 1.30105,-0.86525 2.082,-0.82813c0.31313,-0.00311 0.62356,0.05804 0.91211,0.17969c0.28472,0.13256 0.55767,0.28905 0.81592,0.46777zM239.72388,223.37476c0.00128,0.30765 0.12684,0.60171 0.34814,0.81543c0.2088,0.23006 0.50523,0.36098 0.81592,0.36035c0.35474,0.01809 0.70007,-0.11749 0.94776,-0.37207c0.23865,-0.26591 0.36363,-0.61472 0.34814,-0.97168c0.01109,-0.31716 -0.11592,-0.62355 -0.34814,-0.83985c-0.23031,-0.21595 -0.53644,-0.33244 -0.85205,-0.32421c-0.34562,-0.01285 -0.67927,0.12761 -0.91163,0.38379c-0.23364,0.25957 -0.35832,0.59915 -0.34814,0.94824z" fill="#000000"/><path d="M251.5315,220.29077c0.88255,-0.03553 1.74939,0.24108 2.44824,0.78125c0.68913,0.56347 1.07162,1.41933 1.03174,2.3086c0.04908,0.89874 -0.32902,1.76791 -1.02,2.34472c-0.71653,0.54034 -1.5997,0.81261 -2.4961,0.76953c-0.88115,0.04033 -1.75068,-0.21355 -2.47168,-0.72168c-0.70643,-0.54126 -1.10138,-1.39541 -1.05617,-2.28421c-0.03706,-0.91128 0.3536,-1.78758 1.05615,-2.36915c0.70935,-0.56838 1.59947,-0.86264 2.50782,-0.82906zM251.49536,224.69409c0.347,0.0158 0.68317,-0.12295 0.918,-0.3789c0.23208,-0.2644 0.3545,-0.6074 0.34229,-0.959c-0.00162,-0.50713 -0.31039,-0.96269 -0.78083,-1.15207c-0.47045,-0.18938 -1.00873,-0.07479 -1.36125,0.28977c-0.23928,0.24189 -0.3711,0.56995 -0.36572,0.91015c-0.01117,0.34049 0.11154,0.67179 0.34179,0.92286c0.2345,0.24777 0.56489,0.38171 0.90573,0.36719z" fill="#000000"/><path d="M255.67115,223.6023c0,-0.46388 -0.00391,-0.84376 -0.01172,-1.13965c-0.03223,-1.168 -0.04818,-1.80797 -0.04785,-1.91992h2.24364v0.64746c0.20846,-0.19053 0.42826,-0.36827 0.6582,-0.53223c0.39348,-0.24803 0.85087,-0.37565 1.31592,-0.36719c0.6014,-0.05148 1.18898,0.19967 1.56738,0.66992c0.32576,0.50946 0.48087,1.10939 0.44287,1.7129v1.65332c0,0.22265 0.00782,0.59863 0.02393,1.125c0.01562,0.52733 0.0236,0.81086 0.02392,0.85058h-2.28022v-3.17969c0.00935,-0.26028 -0.07348,-0.51551 -0.23389,-0.7207c-0.1642,-0.19561 -0.41101,-0.30236 -0.666,-0.28808c-0.28064,-0.00417 -0.53912,0.15198 -0.666,0.40234c-0.15457,0.26382 -0.23535,0.56436 -0.23388,0.87012c0,0.33594 0.00798,0.89388 0.02392,1.67382c0.01612,0.78028 0.02409,1.19434 0.02393,1.24219h-2.24372c0,-0.2959 0.00993,-0.74382 0.02978,-1.34375c0.02002,-0.60058 0.02979,-1.05176 0.02979,-1.35644z" fill="#000000"/><path d="M267.26294,217.57837c0.31332,-0.00637 0.61527,0.11738 0.834,0.3418c0.22602,0.22251 0.34991,0.52862 0.34228,0.8457c0.00959,0.31361 -0.11744,0.61595 -0.34814,0.82861c-0.22668,0.2139 -0.52824,0.33032 -0.83985,0.32422c-0.3084,0.00765 -0.60689,-0.10921 -0.82812,-0.32422c-0.22264,-0.21241 -0.34473,-0.5093 -0.33594,-0.81689c-0.00187,-0.31543 0.12366,-0.61826 0.34815,-0.83984c0.21285,-0.23116 0.51341,-0.36167 0.82762,-0.35938zM266.15894,220.51831h2.22021v5.78418h-2.25586l0.03565,-3.01172z" fill="#000000"/><path d="M268.87084,220.49487h0.80371v-1.56054h2.18409v1.56054h1.188v1.43946h-1.188v4.36816h-2.18409v-4.36816h-0.80371z" fill="#000000"/><path d="M277.47486,224.0105h2.208l-1.896,3.876h-1.71631zM278.39868,220.35034c0.35156,-0.00334 0.69015,0.13252 0.9419,0.37793c0.25926,0.23477 0.40569,0.56924 0.40233,0.91899c-0.00336,0.34975 -0.15619,0.68134 -0.41991,0.91109c-0.25141,0.25206 -0.59224,0.39457 -0.94824,0.39649c-0.33393,0.00459 -0.65346,-0.13576 -0.876,-0.38477c-0.23395,-0.24056 -0.36331,-0.56386 -0.35986,-0.89941c-0.00573,-0.34605 0.12576,-0.6803 0.36572,-0.92969c0.22752,-0.25336 0.55358,-0.39582 0.89406,-0.39063z" fill="#000000"/><path d="M281.13452,222.65798c0.01002,-0.83367 -0.09497,-1.66474 -0.312,-2.46973c-0.25473,-0.79153 -0.56339,-1.56468 -0.92383,-2.314l1.07959,-0.68359c0.46762,0.85724 0.83792,1.76407 1.104,2.70361c0.24564,0.91678 0.36685,1.86243 0.36035,2.81152c0.0004,0.95565 -0.1267,1.90707 -0.37793,2.8291c-0.269,0.9704 -0.62866,1.91335 -1.07422,2.81641l-1.12793,-0.5752c0.42801,-0.76987 0.74901,-1.59453 0.9541,-2.45117c0.21166,-0.87318 0.31837,-1.76849 0.31787,-2.66695z" fill="#000000"/><g fill="#ffffff"><path d="M178.86939,131.41724c0.09521,0.22377 0.2038,0.44162 0.32519,0.65234c0.04004,0.07227 0.17238,0.28128 0.397,0.627c0.08056,0.14551 0.17041,0.29786 0.271,0.459c0.1001,0.16112 0.19027,0.29785 0.27051,0.41016c0.2236,-0.34574 0.45099,-0.69767 0.68213,-1.05576c0.23144,-0.3584 0.44287,-0.72266 0.63428,-1.09277h2.94381c-0.28396,0.2985 -0.53734,0.62466 -0.75634,0.97363c-0.22412,0.34473 -0.44401,0.68913 -0.65967,1.0332c-0.36817,0.5371 -0.64421,0.93783 -0.82813,1.20215c-0.34424,0.49706 -0.61621,0.90169 -0.81591,1.21387v1.83792c0,0.249 0.00781,0.62109 0.02392,1.11816c0.01611,0.49707 0.02393,0.86914 0.02393,1.11719l-2.48389,0.01265l0.03613,-1.2978v-2.8125l-3.03613,-4.39844z"/><path d="M189.01294,131.17798c1.22888,-0.04946 2.4304,0.37136 3.35987,1.17676c0.91074,0.83211 1.40709,2.02425 1.356,3.25683c0.04282,1.26315 -0.4808,2.47939 -1.42778,3.31641c-0.95201,0.82907 -2.18261,1.26695 -3.44434,1.22559c-1.20953,0.04456 -2.38744,-0.39192 -3.27588,-1.21387c-0.86756,-0.83615 -1.33495,-2.00418 -1.28369,-3.208c-0.04762,-1.23739 0.43732,-2.43588 1.332,-3.292c0.91605,-0.85256 2.13321,-1.3064 3.38382,-1.26172zM189.00074,138.16138c0.64431,0.03377 1.26686,-0.23798 1.68017,-0.7334c0.39419,-0.51212 0.59403,-1.14743 0.564,-1.793c0.02793,-0.617 -0.15857,-1.22465 -0.52784,-1.71973c-0.38962,-0.48397 -0.98734,-0.75225 -1.60791,-0.72167c-0.63527,-0.02557 -1.24967,0.2294 -1.68017,0.69726c-0.43042,0.48182 -0.65832,1.11115 -0.63623,1.75684c-0.02775,0.63557 0.16761,1.26084 0.55224,1.76757c0.40125,0.49865 1.01639,0.77585 1.65574,0.74613z"/><path d="M194.47242,131.3938h2.42431v4.85645c-0.02496,0.44305 0.06169,0.88527 0.252,1.28613c0.24271,0.36179 0.64725,0.58173 1.08285,0.58874c0.43561,0.00701 0.84701,-0.1998 1.10124,-0.5536c0.2083,-0.37903 0.30799,-0.80819 0.28808,-1.24023l-0.03618,-4.92578l2.42383,-0.01172l-0.04785,5.55957c0.07564,0.97354 -0.36656,1.91506 -1.16407,2.47852c-0.84368,0.48737 -1.81142,0.7175 -2.78418,0.66211c-0.90736,0.05768 -1.8077,-0.19209 -2.55566,-0.709c-0.69084,-0.59956 -1.05613,-1.49141 -0.98437,-2.40332z"/><path d="M207.4563,131.3938c0.09619,0.29688 0.24024,0.73796 0.43213,1.32324c0.1919,0.58496 0.33985,1.02181 0.44385,1.31055c0.23193,0.666 0.37989,1.09113 0.44385,1.27539c0.15194,0.4295 0.28022,0.86701 0.38427,1.31055l1.60791,-5.21973h1.896l1.60791,5.14746l1.668,-5.14746h2.44824c-0.35206,1.04298 -0.67205,1.98568 -0.96,2.82813c-0.50391,1.45214 -0.82797,2.39452 -0.97217,2.82714c-0.38379,1.15625 -0.68783,2.1071 -0.91211,2.85254h-2.35204c-0.11181,-0.52246 -0.25569,-1.07715 -0.43164,-1.66406c-0.07226,-0.24121 -0.24234,-0.7679 -0.51025,-1.58008c-0.26807,-0.81152 -0.45004,-1.37402 -0.5459,-1.6875l-1.47608,4.93164h-2.35205c-0.272,-0.92382 -0.57604,-1.86361 -0.91211,-2.81933c-0.33593,-0.95606 -0.66779,-1.9043 -0.9956,-2.84473c-0.3999,-1.14844 -0.71598,-2.09635 -0.94824,-2.84375z"/><path d="M218.7605,131.41724h5.01563v1.98047h-2.69971v1.22363h2.3638v1.98047h-2.3638v1.34375h2.80762v1.95605h-5.12354z"/><path d="M224.52027,131.41724h2.45263c0.35254,0.53906 0.76937,1.12173 1.25049,1.748c0.44092,0.57129 0.88184,1.13802 1.32276,1.7002c0.54492,0.71582 0.96159,1.30664 1.25,1.77246l-0.15577,-5.22066h2.46v8.48437h-2.49616c-0.3042,-0.4707 -0.6442,-0.96159 -1.02,-1.47265c-0.4878,-0.63867 -0.84782,-1.11751 -1.08008,-1.43653c-0.29588,-0.38379 -0.59178,-0.77117 -0.88769,-1.16211c-0.29871,-0.39105 -0.57519,-0.7986 -0.82813,-1.2207c0.05068,0.32192 0.08473,0.64625 0.10205,0.97168c0.02,0.35254 0.02993,0.72461 0.02979,1.11621c0,0.42383 0.014,1.00977 0.042,1.75781c0.02832,0.74804 0.04232,1.23014 0.042,1.44629h-2.48389c0,-0.57812 0.01205,-1.45377 0.03613,-2.62695c0.02393,-1.17285 0.03597,-2.05274 0.03613,-2.63965c0,-0.49805 -0.00489,-0.89974 -0.01465,-1.20508c-0.03857,-1.22851 -0.05777,-1.89941 -0.05761,-2.01269z"/><path d="M233.40015,131.41724h5.93994v1.96874h-1.7876v6.51563h-2.436c0,-0.53514 0.00391,-0.93424 0.01172,-1.19726c0.04004,-1.334 0.06006,-2.0049 0.06006,-2.0127v-3.30567h-1.78812z"/><path d="M242.85622,131.42998l2.60545,-0.03618c0.93093,-0.09495 1.8665,0.12921 2.65332,0.63574c0.43556,0.41204 0.6635,0.99763 0.6211,1.59571c0.01848,0.3513 -0.05596,0.70127 -0.21582,1.01464c-0.20192,0.30065 -0.46831,0.55252 -0.77979,0.73731c0.96219,0.25294 1.62333,1.13539 1.59574,2.12988c0.08352,0.87873 -0.40466,1.7123 -1.21191,2.06934c-0.82193,0.27865 -1.68962,0.3973 -2.55619,0.34956h-2.78369c0,-0.40821 0.01188,-1.02442 0.03564,-1.84864c0.02442,-0.82321 0.03647,-1.44299 0.03615,-1.85936zM245.36453,134.76592c0.35085,0.0315 0.70197,-0.05736 0.9956,-0.25195c0.16565,-0.149 0.25413,-0.36552 0.24024,-0.58789c0.00441,-0.22259 -0.09,-0.43571 -0.25782,-0.582c-0.16825,-0.1547 -0.38963,-0.23864 -0.61816,-0.23438h-0.624v1.65617zM245.78445,138.23369c0.28751,0.01702 0.57412,-0.04584 0.82812,-0.18164c0.25059,-0.15776 0.39354,-0.44102 0.37158,-0.73632c0.01558,-0.28757 -0.1396,-0.55735 -0.396,-0.68848c-0.25761,-0.12413 -0.54196,-0.18251 -0.82764,-0.16992h-0.66015v1.77631z"/><path d="M252.08422,131.41724h2.61572c0.33595,0.95116 0.67204,1.8981 1.00828,2.84082c0.36766,1.02246 0.71157,1.96908 1.03173,2.83984c0.35206,0.94238 0.70411,1.88509 1.05616,2.82813h-2.47213l-0.45606,-1.5127h-2.93994l-0.45605,1.51265h-2.47171c0.13574,-0.36817 0.48372,-1.30828 1.04394,-2.82032c0.66407,-1.792 1.01208,-2.736 1.044,-2.832c0.1997,-0.54393 0.53172,-1.49607 0.99606,-2.85642zM254.2683,136.61353c-0.18456,-0.50977 -0.34862,-1.01564 -0.49218,-1.51758c-0.14406,-0.50294 -0.27199,-1.02116 -0.38379,-1.55469c-0.10708,0.65255 -0.26361,1.29601 -0.46826,1.92481c-0.17628,0.51854 -0.3042,0.90104 -0.38379,1.14746z"/><path d="M257.99976,131.41724h2.45264c0.35253,0.53906 0.76936,1.12173 1.25048,1.748c0.44092,0.57129 0.88184,1.13802 1.32276,1.7002c0.54492,0.71582 0.96159,1.30664 1.25,1.77246l-0.15576,-5.22066h2.46v8.48437h-2.4961c-0.3042,-0.4707 -0.6442,-0.96159 -1.02,-1.47265c-0.4878,-0.63867 -0.84782,-1.11751 -1.08007,-1.43653c-0.2959,-0.38379 -0.5918,-0.77117 -0.8877,-1.16211c-0.29872,-0.39105 -0.57519,-0.79859 -0.82812,-1.2207c0.05068,0.32192 0.08474,0.64625 0.10205,0.97168c0.02,0.35254 0.02992,0.72461 0.02978,1.11621c0,0.42383 0.014,1.00977 0.042,1.75781c0.02832,0.74804 0.04232,1.23014 0.042,1.44629h-2.48396c0,-0.57812 0.01205,-1.45377 0.03613,-2.62695c0.02393,-1.17285 0.03597,-2.05274 0.03613,-2.63965c0,-0.49805 -0.00488,-0.89974 -0.01464,-1.20508c-0.03858,-1.22851 -0.05778,-1.89941 -0.05762,-2.01269z"/><path d="M267.69556,137.53736v-4.55958c0,-0.23242 -0.00391,-0.42382 -0.01172,-0.57617c-0.03222,-0.59179 -0.04817,-0.91567 -0.04785,-0.97163h2.48389v3.39546l2.46,-3.43164h3.04785l-3.32377,4.16992l3.4917,4.33789h-3.144l-2.56787,-3.54l-0.01177,1.28414c0,0.25586 0.00797,0.68586 0.02393,1.29c0.01563,0.60352 0.02361,0.92546 0.02393,0.96582h-2.48389c0,-0.27148 0.00993,-0.68163 0.02978,-1.23047c0.02002,-0.54782 0.02995,-0.92574 0.02979,-1.13374z"/><path d="M278.93969,131.38208c0.81302,-0.0544 1.62469,0.12413 2.33984,0.51465c0.67192,0.48805 1.03677,1.29418 0.96,2.12109c0.01096,0.52498 -0.12174,1.04297 -0.38379,1.498c-0.26309,0.43733 -0.6642,0.77472 -1.14014,0.959l2.44775,3.42675h-2.84375l-1.99221,-2.94039l0.03613,2.94043h-2.292v-6.66015c0,-0.26368 -0.01026,-0.62012 -0.02979,-1.06739c-0.02,-0.44824 -0.03009,-0.71224 -0.03027,-0.792zM278.59156,135.16138c0.30629,0.01492 0.61149,-0.04649 0.88818,-0.17871c0.27105,-0.14909 0.43032,-0.44249 0.40771,-0.751c0.0356,-0.31452 -0.12033,-0.61985 -0.396,-0.77539c-0.2984,-0.1132 -0.61742,-0.1618 -0.936,-0.14258h-0.25195v1.84768z"/><path d="M283.37915,131.3938h2.42432v4.85645c-0.02498,0.44304 0.06165,0.88527 0.25195,1.28613c0.24271,0.36179 0.64725,0.58173 1.08285,0.58874c0.43561,0.00701 0.84701,-0.1998 1.10124,-0.5536c0.2083,-0.37903 0.30799,-0.80819 0.28808,-1.24023l-0.03613,-4.92578l2.42383,-0.01172l-0.04786,5.55957c0.07565,0.97354 -0.36655,1.91506 -1.16406,2.47852c-0.84368,0.48736 -1.81141,0.71748 -2.78415,0.66209c-0.90737,0.05768 -1.8077,-0.19209 -2.55566,-0.709c-0.69085,-0.59956 -1.05614,-1.49141 -0.98438,-2.40332z"/><path d="M292.06714,131.41724h2.4043c1.73144,0 2.86556,0.23959 3.40234,0.71875c0.54255,0.55623 0.81493,1.32179 0.74561,2.0957c0.08884,0.87852 -0.27794,1.74144 -0.97217,2.28711c-0.76276,0.4292 -1.63482,0.6248 -2.50781,0.5625h-0.792l-0.02442,0.91211c0,0.208 0.01204,0.52408 0.03613,0.94824c0.02393,0.42382 0.03598,0.74382 0.03614,0.96l-2.32813,-0.01172c0,-0.51952 0.00797,-1.37239 0.02393,-2.55859c0.0161,-1.18652 0.02408,-1.81575 0.02392,-1.88769zM294.67114,135.12524c0.34835,0.01733 0.69716,-0.02326 1.03222,-0.12012c0.34551,-0.11097 0.57236,-0.44141 0.55176,-0.80371c0.00959,-0.27854 -0.13591,-0.53947 -0.3779,-0.67773c-0.25795,-0.1579 -0.5555,-0.23919 -0.85791,-0.23437h-0.69629v1.83594z"/><path d="M298.16285,131.41724h5.93994v1.96874h-1.78757v6.51563h-2.436c0,-0.53514 0.00391,-0.93424 0.01172,-1.19726c0.04004,-1.334 0.06006,-2.0049 0.06006,-2.0127v-3.30567h-1.78808z"/></g></g></g></svg>