<svg version="1.1" xmlns="http://www.w3.org/2000/svg" xmlns:xlink="http://www.w3.org/1999/xlink" width="59.55488" height="146.38306" viewBox="0,0,59.55488,146.38306"><g transform="translate(-210.97963,-60.16397)"><g data-paper-data="{&quot;isPaintingLayer&quot;:true}" fill-rule="nonzero" stroke="none" stroke-linecap="butt" stroke-linejoin="miter" stroke-miterlimit="10" stroke-dasharray="" stroke-dashoffset="0" style="mix-blend-mode: normal"><path d="M226.93029,189.32772c1.21594,0.94289 2.43189,1.88578 3.64783,2.82866c0.25902,0.45504 0.27989,1.00407 0.05613,1.47671c-1.70515,-1.38244 -3.32541,-2.79117 -5.31081,-4.17597c0.70424,-0.05671 1.15555,-0.09305 1.60687,-0.1294z" fill="#fdf9fc" stroke-width="1"/><path d="M217.57105,182.88299c0.48187,-0.00792 0.96372,-0.01588 1.44551,-0.02385c1.17405,0.94981 2.34823,1.89965 3.52253,2.84957c0.23651,0.44863 0.26277,0.97569 0.072,1.44475c-1.70952,-1.46843 -3.58296,-2.62035 -5.04004,-4.27046z" fill="#fdfafc" stroke-width="1"/><path d="M233.89861,195.68424c0.27808,-0.02397 0.55615,-0.04795 0.83423,-0.07192c1.17559,0.94726 2.35123,1.89454 3.52695,2.84184c0.39004,0.38851 0.51602,0.82665 0.24741,1.45597c-0.91231,-0.70428 -1.78822,-1.35765 -2.63721,-2.04305c-0.68221,-0.55073 -1.30357,-1.17702 -2.0077,-1.69727c-0.35979,-0.26584 -0.10001,-0.33524 0.03632,-0.48557z" fill="#fdfafc" stroke-width="1"/><path d="M270.44302,96.30941c0.02406,4.86989 0.0675,9.73976 0.0689,14.60965c0.00687,23.72919 0.01441,47.45836 0.02258,71.18753c0.00117,1.05556 -0.27761,1.73896 -1.1703,2.41416c-9.6099,7.26854 -19.19549,14.56794 -28.75676,21.89825c-0.55817,-0.10815 -0.51791,-0.57422 -0.57067,-0.95995c-0.04364,-0.48143 -0.05453,-0.96515 -0.0326,-1.44799c-0.00063,-27.5033 -0.00037,-55.00661 0.00075,-82.5099c-0.02438,-0.63032 -0.00444,-1.26155 0.05969,-1.88919c0.06937,-0.50791 0.38868,-0.85197 0.78638,-1.1566c1.98181,-1.51804 3.9572,-3.04413 5.94361,-4.55639c0.26501,-0.20174 0.58843,-0.3488 0.58656,-0.74835c4.8011,-3.05721 9.09727,-6.76862 13.65738,-10.13811c2.72655,-2.01467 5.33723,-4.17827 8.10764,-6.13809c0.38607,-0.27312 0.72473,-0.68713 1.29684,-0.56504z" fill="#6b798c" stroke-width="1"/><path d="M240.38474,119.08556c-0.00185,14.42129 -0.00382,28.84258 -0.00588,43.26387c-0.00284,13.49158 -0.00102,26.98316 0.00547,40.47471c0.00208,1.195 -0.26625,2.42281 0.22313,3.59477c-0.54559,0.36033 -0.82413,-0.12792 -1.13776,-0.37931c-3.79851,-3.045 -7.58992,-6.0985 -11.37423,-9.1605c-3.66695,-2.97009 -7.31762,-5.95945 -10.98067,-8.93418c-1.74422,-1.41646 -3.45827,-2.87432 -5.27326,-4.19851c-0.6859,-0.50042 -0.86266,-1.00669 -0.86191,-1.76667c0.0142,-14.20811 0.01748,-28.41625 0.00985,-42.62437c-0.00024,-13.98498 0.0001,-27.96997 0.00102,-41.95496c0.00008,-0.59471 0.02416,-1.1894 0.03705,-1.78412c0.50412,-0.25571 0.76169,0.14834 1.06932,0.39361c4.9293,3.92988 9.81981,7.90597 14.7175,11.87348c3.46862,2.80985 6.95724,5.59546 10.46584,8.35685c1.07696,0.90397 2.19991,1.76036 3.10453,2.84531z" fill="#e6ddd6" stroke-width="1"/><path d="M237.18491,75.08657c0.0192,-0.03203 0.03029,-0.07971 0.05873,-0.09387c2.24155,-1.11408 2.65628,-2.95173 2.47956,-5.25439c-0.19849,-2.5857 -0.05573,-5.19728 -0.03871,-7.79744c0.00251,-0.3837 -0.18049,-0.82233 0.205,-1.14902c0.54047,0.507 0.39177,1.17296 0.39303,1.7843c0.01345,6.52694 0.00403,13.0539 0.01322,19.58083c0.00097,0.69529 -0.10749,1.41846 0.33195,2.04584c0.22763,0.27464 0.49735,0.45941 0.88351,0.36966c1.48809,-0.34584 3.02554,-0.04752 4.52537,-0.35023c0.70637,-0.19161 1.46362,-0.04505 2.04254,0.39529c-2.0277,2.05092 -4.3611,3.64825 -6.46549,5.5179c0.4439,0.0476 0.75073,-0.1945 1.05373,-0.43047c1.87007,-1.45639 3.78001,-2.86295 5.64075,-4.33067c0.60325,-0.52432 1.39493,-0.79149 2.19983,-0.74241c1.29631,0.10091 2.56139,-0.2937 3.85411,-0.22179c0.52097,0.02898 1.09476,-0.04 1.3507,0.58502c-0.02741,0.5673 -0.50421,0.79338 -0.87968,1.08443c-4.38588,3.39982 -8.87288,6.67317 -13.20372,10.14193c-0.2744,0.25983 -0.63062,0.42086 -1.01049,0.4568c-0.62713,-0.11971 -1.06163,-0.55736 -1.51769,-0.93323c-4.1365,-3.40896 -8.38238,-6.68721 -12.52828,-10.08475c-0.28149,-0.19015 -0.50924,-0.44703 -0.662,-0.74671c-0.10702,-0.63347 0.33876,-0.97651 0.77725,-1.25053c1.44811,-0.94881 2.84256,-1.97391 4.1772,-3.07083c1.79976,-1.41539 3.6837,-2.73229 5.41468,-4.23296c0.37392,-0.37026 0.68001,-0.80077 0.90491,-1.2727z" fill="#b2aba9" stroke-width="1"/><path d="M255.62802,85.13536c-0.1768,-0.53705 -0.63648,-0.45163 -1.04191,-0.43172c-1.58962,0.07814 -3.17777,0.18706 -4.76784,0.25271c-0.41713,0.04053 -0.80895,0.21472 -1.11472,0.49562c-1.9729,1.50882 -3.9374,3.02818 -5.90764,4.54035c-0.53655,0.4118 -1.06971,0.85047 -2.09318,0.54696c2.24797,-2.22345 4.83043,-3.8578 7.01248,-6.09432c-1.97577,0.12449 -3.95182,0.24476 -5.92703,0.37696c-0.40029,0.0268 -0.81064,0.25481 -1.17506,-0.09882c0.56262,-0.39729 0.79045,-1.05947 1.26032,-1.53239c1.46366,-0.43451 2.99113,-0.30361 4.48095,-0.49441c0.11131,-0.01582 0.24705,-0.06181 0.33453,-0.01213c1.93161,1.09681 3.97412,0.27302 6.10434,0.38623c-2.03479,-1.74911 -4.18355,-3.17969 -5.94518,-5.05805c0.45501,-0.57732 0.84973,-0.49203 1.26525,-0.21804c5.08753,4.09743 10.17507,8.19486 15.26259,12.29228c0.29138,0.71243 -0.39566,0.88899 -0.74311,1.17421c-2.22825,1.82931 -4.55621,3.53701 -6.84598,5.29131c-1.63668,1.25391 -3.33622,2.43005 -4.90071,3.77287c-0.77216,0.66277 -1.6132,1.07797 -2.67271,0.96248c-0.41699,-0.01553 -0.83324,0.04616 -1.22687,0.18186c-1.30284,0.1383 -2.59646,0.38555 -3.91554,0.29709c-0.65593,-0.09562 -1.36749,0.12664 -2.02613,-0.33493c0.02663,-0.67315 0.54151,-1.01262 1.01055,-1.35451c3.12687,-2.27936 6.1596,-4.67776 9.24093,-7.01458c1.01627,-0.77073 2.00082,-1.5818 3.04846,-2.31316c0.73888,-0.51578 1.00926,-1.20509 1.02232,-2.10271c0.01706,-1.1704 -0.27934,-2.37545 0.26087,-3.51114z" fill="#3f536c" stroke-width="1"/><path d="M237.17057,116.42839c-1.76831,-1.02366 -3.17935,-2.4881 -4.76341,-3.73772c-4.96381,-3.91582 -9.92549,-7.83684 -14.79269,-11.86644c-1.95963,-1.62238 -4.05652,-3.08179 -5.91825,-4.81712c-0.17328,-0.19845 -0.40828,-0.33569 -0.6689,-0.39064c1.16762,-1.30536 2.67578,-2.2115 4.03224,-3.29447c0.89854,-0.71736 1.84501,-1.37703 2.77002,-2.06254c0.56466,0.89427 0.3441,1.90101 0.24701,2.816c-0.18266,1.72117 0.55661,2.76394 1.87624,3.82752c5.14224,4.1444 10.32036,8.24729 15.40674,12.45892c1.26995,1.05154 2.57483,2.069 3.88921,3.07093c0.50058,0.33741 0.92832,0.76821 1.25873,1.26776c0.02906,1.29766 -0.96087,2.46301 -2.22033,2.57367c-0.3769,0.0331 -0.74063,0.13125 -1.11661,0.1541z" fill="#c1b8b2" stroke-width="1"/><path d="M237.18491,75.08657c0.1241,1.46426 -1.23049,1.85431 -2.0538,2.54283c-2.0225,1.69139 -4.16296,3.24793 -6.26811,4.84329c-0.6237,0.47266 -1.28831,0.89336 -1.93332,1.33908c-0.40114,0.27719 -0.83114,0.53235 -0.89569,1.07852c0.08131,1.21986 0.09563,2.44312 0.04291,3.66449c-0.04045,0.71176 0.27247,1.39885 0.84017,1.84481c2.36582,1.95988 4.81452,3.82006 7.18259,5.778c2.13467,1.765 4.28542,3.51389 6.50966,5.17269c0.07282,0.08566 0.12282,0.18766 0.14551,0.29689c-0.01324,0.82727 -0.48761,1.5811 -1.23612,1.96436c-0.7793,0.44613 -1.37641,1.13347 -2.05274,1.71599c-0.81019,0.16471 -1.25572,-0.45264 -1.74718,-0.86079c-5.0058,-4.15723 -10.13455,-8.16741 -15.19907,-12.25423c-0.64425,-0.51988 -1.23852,-1.09538 -1.90052,-1.59698c-0.31832,-0.24121 -0.67198,-0.51303 -0.57531,-1.00525c6.15262,-4.70882 12.3061,-9.41653 18.46045,-14.12315c0.21806,-0.14735 0.44536,-0.28115 0.68055,-0.40057z" fill="#beb5b0" stroke-width="1"/><path d="M270.44302,96.30941c-3.8864,2.6344 -7.47051,5.65506 -11.23213,8.44911c-2.82955,2.10175 -5.6369,4.23225 -8.45184,6.35288c-0.21069,0.15807 -0.41086,0.32914 -0.59933,0.51215c-0.77858,0.75968 -1.61763,1.41695 -2.73763,1.62073c-1.15183,0.67708 -2.47508,0.31171 -3.69723,0.57598c-0.40783,0.05253 -0.82065,0.05651 -1.22947,0.01184c-0.54567,-0.07825 -1.14468,0.07319 -1.66584,-0.35907c0.08702,-0.57186 0.58116,-0.83143 0.97387,-1.1383c5.65492,-4.41855 11.38155,-8.74727 17.10408,-13.08099c1.19918,-0.90816 2.34427,-1.88512 3.58105,-2.74341c0.58071,-0.37354 0.90431,-1.02993 0.84191,-1.70772c-0.03093,-1.00168 -0.01926,-2.00527 -0.00136,-3.0077c0.0071,-0.39779 -0.06957,-0.82989 0.30371,-1.13927c2.2076,1.75841 4.41359,3.51876 6.61797,5.28107c0.10048,0.08065 0.12979,0.24653 0.19224,0.3727z" fill="#3d5067" stroke-width="1"/><path d="M263.63281,90.65565c-0.00669,1.52351 -0.02197,3.04707 -0.01496,4.57052c0.00213,0.46732 -0.06417,0.86554 -0.47801,1.17919c-3.46311,2.62479 -6.92142,5.25563 -10.37493,7.89258c-3.92541,2.99149 -7.84873,5.98557 -11.98503,9.14027c0.66132,0.04172 1.04882,0.06616 1.43631,0.09061c-0.23038,0.64575 -0.76415,0.48127 -1.22547,0.40578c-0.50023,-0.08186 -0.64653,-0.49066 -0.65935,-0.92011c-0.04658,-1.55977 -0.04399,-3.12022 -0.00202,-4.68026c0.01542,-0.57387 0.3716,-0.94556 0.79343,-1.28921c2.27356,-1.85205 4.68315,-3.53388 7.02869,-5.4319c-0.28497,-0.21322 -0.75011,-0.07435 -0.9487,-0.41232c0.02906,-0.0239 0.0608,-0.07125 0.08683,-0.06838c2.30233,0.25172 3.70087,-1.29819 5.27699,-2.51766c3.46787,-2.68314 6.94609,-5.35339 10.43467,-8.01079c0.18642,-0.14264 0.36423,-0.26449 0.37464,-0.51735c0.27916,0.10574 0.26224,0.33991 0.2569,0.56906z" fill="#68778b" stroke-width="1"/><path d="M218.0439,89.61029c1.5789,1.70857 3.50083,3.02877 5.29749,4.49033c3.28238,2.67018 6.54086,5.37 9.87332,7.97891c1.37879,1.07941 2.59415,2.37406 4.18361,3.18947c1.23058,0.40168 1.9956,1.39825 2.91325,2.19843c0.11041,0.10542 0.1696,0.25203 0.16266,0.40291c-0.04803,1.94109 0.17639,3.88756 -0.11861,5.82371c-5.41045,-4.36574 -10.8206,-8.73183 -16.23043,-13.09829c-1.91895,-1.55022 -3.81052,-3.13368 -5.75466,-4.65267c-0.36955,-0.25372 -0.57511,-0.67956 -0.54082,-1.12034c0.01383,-1.52084 0.00185,-3.04193 -0.00017,-4.56309c0.001,-0.23891 -0.0446,-0.49244 0.21434,-0.64937z" fill="#eae0d9" stroke-width="1"/><path d="M248.11332,77.79431l-1.21282,0.06711c2.24394,1.8358 4.30174,3.51931 6.35956,5.20283c-0.02289,0.0949 -0.04576,0.18981 -0.06864,0.28472c-2.22285,-0.16561 -4.493,0.87096 -6.66955,-0.47105c-1.30886,-0.79684 -2.41948,-1.84231 -3.59639,-2.80078c-0.50261,-0.40932 -1.24257,-0.59899 -1.4457,-1.33157c-0.18201,-1.73821 -0.07918,-3.47825 -0.06589,-5.21682c-0.03377,-0.33866 0.09956,-0.67277 0.35885,-0.89921c2.16164,1.66482 4.30535,3.35083 6.3406,5.16477z" fill="#b2aba9" stroke-width="1"/><path d="M241.7727,72.62953c0.0017,2.16277 0.00339,4.32553 0.00507,6.4883c0.5182,1.35785 0.51798,2.85343 -0.00063,4.21113c0.01277,0.78644 -0.20453,1.38819 -1.16425,1.39396c-0.68442,-0.33077 -0.755,-0.90604 -0.75287,-1.58339c0.02354,-7.44919 0.03336,-14.89841 0.02946,-22.34767c0.26303,-0.20738 0.52607,-0.41476 0.79638,-0.62789c0.87422,0.27331 1.07814,0.85162 1.07103,1.69201c-0.03036,3.59088 0.00465,7.18231 0.0158,10.77353z" fill="#191919" stroke-width="1"/><path d="M257.6763,111.30037c0,1.0833 0,1.81971 -0.00001,2.55614c-0.00071,25.04392 -0.00064,50.08783 0.00019,75.13175c0.00003,0.56214 0.04086,1.10964 -0.50046,1.51283c-1.49696,1.11499 -2.97825,2.25023 -4.44943,3.36513c-0.3937,-0.27986 -0.25935,-0.60225 -0.25942,-0.87644c-0.00619,-25.52571 -0.01424,-51.05142 -0.02416,-76.57712c-0.00072,-0.83386 0.25666,-1.39551 0.92906,-1.87964c1.36506,-0.98282 2.69197,-2.01654 4.30422,-3.23266z" fill="#3e3e47" stroke-width="1"/><path d="M248.58955,118.24049c0,2.65396 0.00003,4.99145 0,7.32893c-0.00018,23.369 0.0082,46.738 0.02516,70.10697c0.00153,1.06878 -0.36249,1.71399 -1.22624,2.29096c-1.30195,0.8697 -2.43488,1.97226 -3.79716,2.78123c-0.35686,-0.3457 -0.20919,-0.73959 -0.20346,-1.08487c0.06555,-3.94034 0.12288,-7.88793 0.06809,-11.82083c-0.12747,-9.15148 -0.0337,-18.30137 -0.06599,-27.45161c-0.04359,-12.35433 -0.00228,-24.70893 -0.02923,-37.06336c-0.00182,-0.8361 0.25485,-1.40206 0.92685,-1.88456c1.36574,-0.98062 2.69886,-2.00488 4.30197,-3.20284z" fill="#3e3e47" stroke-width="1"/><path d="M266.60287,104.49354c0,4.88435 -0.00025,9.49245 0.00003,14.10054c0.00135,21.16926 0.00777,42.33851 0.01927,63.50776c0.00082,0.8545 -0.19154,1.42426 -0.97029,1.94074c-1.36712,0.90672 -2.6171,1.98313 -3.93085,2.99984c-0.30628,-0.3182 -0.17072,-0.66707 -0.17083,-0.97501c-0.00805,-25.56013 -0.01562,-51.12027 -0.02272,-76.6804c-0.00056,-0.78055 0.20314,-1.29542 0.88492,-1.75965c1.36147,-0.92701 2.64361,-1.96598 4.19045,-3.13383z" fill="#3e3e47" stroke-width="1"/><path d="M240.35565,113.69402c0.006,-1.73173 0.0034,-3.46356 0.02361,-5.19513c0.03047,-0.43964 -0.18024,-0.86194 -0.5531,-1.10845c-0.85299,-0.65219 -1.62318,-1.40845 -2.42761,-2.12168c0.28806,-0.88741 1.10343,-1.41606 1.79616,-1.7699c0.877,-0.44794 1.11919,-1.12401 1.43132,-1.86126c0.74382,-0.24776 1.53155,0.0892 2.27495,-0.16415c1.43395,-0.09083 2.8679,-0.1817 4.30183,-0.2726c0.55038,-0.0001 1.10078,-0.00014 1.65119,-0.0001l0.07054,0.23112c-1.83301,1.40347 -3.64502,2.83429 -5.50392,4.20403c-2.81697,2.07574 -2.82998,2.05768 -2.8124,5.50474c0.00414,0.81154 0.0006,1.62312 0.0006,2.4721c0.61435,0.12819 1.11701,0.22471 1.60739,-0.08409c1.73533,-0.09461 3.47064,-0.18934 5.20595,-0.28423c0.62565,0.17627 0.20466,0.40518 0.00571,0.55537c-2.34267,1.76833 -4.69038,3.53023 -7.04312,5.28574c-1.25844,-0.66837 -2.10118,-1.81969 -3.21395,-2.65736c0.14343,-0.30588 0.46412,-0.49388 0.80709,-0.4731c1.36248,-0.06359 2.2144,-0.8853 2.37777,-2.26106z" fill="#b3aba8" stroke-width="1"/><path d="M215.54812,103.72537c0.07016,0.02562 0.13708,0.05908 0.19941,0.09971c1.33209,1.1007 3.15578,1.96927 3.85094,3.37408c0.67296,1.35996 0.20301,3.27215 0.20318,4.9418c0.00255,24.05455 -0.0003,48.10909 -0.00855,72.16364c-0.00015,0.43374 0.13548,0.89214 -0.13548,1.30307c-0.35353,0.17691 -0.56245,-0.08716 -0.77681,-0.26802c-1.10453,-0.93195 -2.30763,-1.74933 -3.34647,-2.76109c-0.26172,-0.20894 -0.38739,-0.54036 -0.32836,-0.86602c0.01121,-25.39385 0.0152,-50.78664 0.01196,-76.17836c0.0003,-0.6125 -0.18322,-1.27779 0.33019,-1.80884z" fill="#6b758d" stroke-width="1"/><path d="M233.12942,117.91637c1.2418,0.97396 2.46843,1.9674 3.73243,2.91284c0.55217,0.41302 0.50358,0.94662 0.50349,1.50372c-0.00188,13.42866 -0.00257,26.8573 -0.0021,40.28597c-0.00045,11.9779 -0.0074,23.95579 -0.02087,35.93365c-0.0007,0.36076 0.35625,0.92722 -0.35437,1.10562c-1.60812,-0.81483 -3.0219,-1.95396 -4.14835,-3.34245c-0.03603,-0.12897 -0.06052,-0.26079 -0.07317,-0.39393c-0.03561,-10.78972 -0.01158,-21.57635 -0.01508,-32.36297c-0.00475,-14.65506 -0.00293,-29.31009 0.00547,-43.96513c0.00036,-0.57537 -0.16707,-1.20794 0.37255,-1.67729z" fill="#6b758d" stroke-width="1"/><path d="M224.25716,110.77693c1.29976,1.02015 2.585,2.05885 3.90674,3.05084c0.49728,0.3732 0.38788,0.84721 0.38808,1.3139c0.00489,10.90132 0.00676,21.80265 0.00565,32.70398c0.0004,14.47325 -0.00016,28.94651 -0.00168,43.41977c-0.00007,0.48336 -0.02366,0.96671 -0.03629,1.45008c-0.07513,0.0871 -0.20305,0.10921 -0.30408,0.05257c-1.32983,-0.95422 -2.70988,-1.8532 -3.71723,-3.17083l-0.28971,-0.20203c-0.10344,-0.10688 -0.18438,-0.23266 -0.2382,-0.37017c-0.17873,-3.41652 -0.09247,-6.83545 -0.04057,-10.25289c0.013,-0.85428 -0.0564,-1.70147 -0.0556,-2.55359c0.01372,-14.64805 -0.00645,-29.29612 0.01965,-43.94414c0.00813,-4.56724 -0.06488,-9.13455 -0.00182,-13.70136c0.02971,-2.15263 -0.02885,-4.30425 -0.00091,-6.45613c0.00609,-0.46882 -0.10074,-0.98465 0.36597,-1.34z" fill="#6b758d" stroke-width="1"/><path d="M215.30022,182.10042l0.47402,0.36582c-0.52269,0.49721 -1.0568,0.33265 -1.59334,0.0264c-0.33126,-0.55235 -0.18597,-1.16229 -0.18628,-1.74289c-0.01224,-23.51042 -0.01726,-47.02083 -0.01507,-70.53126c-0.00022,-2.51483 -0.00003,-5.02965 -0.00003,-7.56322c0.51969,0.0041 0.70903,0.27131 0.89107,0.54869c0.39961,0.60085 0.33785,1.27807 0.33783,1.94606c-0.00035,25.05762 0.00026,50.11526 0.00182,75.1729c0.00007,0.5932 -0.05384,1.19065 0.08998,1.77752z" fill="#585a61" stroke-width="1"/><path d="M233.0793,196.30783c0.00947,0.07223 0.01628,0.1447 0.02044,0.21743c-0.28132,0.30744 -0.59047,0.30469 -0.9196,0.0793c-0.84668,-0.05391 -0.63151,-0.68718 -0.63239,-1.16375c-0.01349,-7.24975 -0.02045,-14.49947 -0.0209,-21.74923c-0.00301,-18.62641 -0.00422,-37.25284 -0.00365,-55.87928c-0.00003,-0.32787 0,-0.65574 0,-1.06461c0.56267,0.08763 0.85317,0.4091 1.13486,0.74422c0.08161,0.58969 0.11189,1.1851 0.09051,1.77981c-0.0008,25.11312 0.00136,50.22625 0.00648,75.33936c0.00019,0.57578 -0.183,1.20561 0.32424,1.69671z" fill="#585a61" stroke-width="1"/><path d="M224.19985,189.20734c-0.00182,0.06275 0.00116,0.12554 0.00888,0.18787c-0.40989,0.02597 -0.82484,0.12279 -1.31285,-0.12035v-79.43423c0.39109,-0.06696 0.63229,0.20054 0.85919,0.49493c0.32746,0.55129 0.21927,1.15944 0.21945,1.74711c0.00628,21.33615 0.00837,42.67231 0.00626,64.00847c0.00102,3.90175 -0.01438,7.80351 -0.00017,11.70527c0.00176,0.47906 -0.06733,0.97268 0.21924,1.41095z" fill="#585a61" stroke-width="1"/><path d="M233.0793,196.30783c-0.85262,-0.05713 -0.63133,-0.70024 -0.63299,-1.17505c-0.02156,-6.20773 -0.0344,-12.41551 -0.03852,-18.62331c-0.00295,-19.21796 0.0012,-38.43591 0.01244,-57.65387c0.0003,-0.45523 -0.21444,-0.97362 0.23783,-1.36365c0.15707,0.14145 0.31416,0.28291 0.47127,0.42438c-0.01227,9.10639 -0.02413,18.21275 -0.03561,27.31909c-0.00901,17.02413 -0.01382,34.04826 -0.01444,51.0724z" fill="#0d0d0d" stroke-width="1"/><path d="M215.30022,182.10042c-0.67651,-0.2441 -0.40461,-0.81906 -0.40534,-1.24971c-0.02136,-12.42057 -0.03149,-24.84116 -0.03038,-37.26177c-0.00198,-13.46167 0.00005,-26.92333 0.00608,-40.38499c0.22581,0.17375 0.45162,0.34753 0.67746,0.52135c0.0011,25.66515 -0.00052,51.33025 -0.00483,76.9953c-0.00014,0.46346 0.16701,0.97692 -0.24297,1.37983z" fill="#0d0d0d" stroke-width="1"/><path d="M224.19983,189.20734c-0.66253,-0.29218 -0.45133,-0.88423 -0.45199,-1.36961c-0.01644,-11.97082 -0.025,-23.94163 -0.02567,-35.91244c-0.00279,-10.07481 -0.00218,-20.14961 0.00182,-30.22442c0.00176,-3.78843 0.02023,-7.57689 0.03107,-11.36533c0.16725,0.14702 0.33456,0.2941 0.50192,0.44123c0.00864,5.52851 -0.03134,11.0564 0.01574,16.58544c0.0689,8.09277 -0.03891,16.1869 -0.05144,24.28046c-0.01306,8.44113 -0.01408,16.88227 -0.00306,25.32342c-0.00129,4.08041 -0.00742,8.16083 -0.0184,12.24122z" fill="#0d0d0d" stroke-width="1"/><path d="M240.58764,101.43451c-1.1305,-0.01949 -1.62043,-1.01724 -2.35034,-1.58395c-3.86403,-3.00005 -7.63929,-6.10974 -11.45737,-9.16698c-0.68709,-0.55018 -1.12016,-1.15047 -0.99293,-2.08069c0.16813,-1.22942 -0.24519,-2.49955 0.24697,-3.71231c4.8467,3.88241 9.69339,7.76502 14.54008,11.64784c0.63182,1.57248 0.63667,3.32026 0.0136,4.89608z" fill="#eae0d9" stroke-width="1"/><path d="M240.58764,101.43451c-0.00448,-1.63205 -0.00897,-3.26408 -0.0135,-4.89612c1.38346,-1.02584 2.77775,-2.03816 4.14855,-3.08018c3.64058,-2.76741 7.27571,-5.54167 10.90541,-8.32281c0.00474,1.00261 -0.07656,2.01457 0.03471,3.00575c0.16438,1.46426 -0.43794,2.36835 -1.63872,3.23137c-2.94546,2.11688 -5.76616,4.40015 -8.64771,6.6031c-1.06995,0.81797 -2.17422,1.59267 -3.25313,2.39958c-0.34944,0.26136 -0.73666,0.50292 -0.95115,1.09796c0.62847,0 1.17865,0 1.72887,0.00015c-0.73594,0.3532 -1.51328,0.15637 -2.27506,0.16451c-0.00327,-0.06916 -0.01614,-0.13756 -0.03826,-0.2033z" fill="#6b798d" stroke-width="1"/><path d="M240.59172,90.44779c-2.5535,-1.84591 -5.15282,-3.64165 -7.21233,-6.02805c2.53355,1.86773 5.21266,3.5762 7.21233,6.02805z" fill="#ede3db" stroke-width="1"/><path d="M241.77716,83.32894l0.00063,-4.21113c1.78694,0.98172 3.39102,2.25313 4.74409,3.76015c-1.55366,0.43258 -3.16419,0.29004 -4.7447,0.45098z" fill="#b1aaa9" stroke-width="1"/><path d="M252.55572,178.54814c-0.59548,-3.02122 0.29764,-5.13604 2.9774,-6.64665c0.89311,-0.30199 1.48859,-1.51061 2.08407,-1.2084c0.59548,0.6042 0.29784,1.8126 0.29784,2.71901c0,0.90641 0.29763,2.11482 -0.59548,3.02123c-1.4888,1.2084 -3.27524,2.11481 -4.76383,3.62542v0c0,-0.90641 0,-1.2084 0,-1.51061z" data-paper-data="{&quot;index&quot;:null}" fill="#2f2c42" stroke-width="0.14441"/><path d="M253.76339,135.71653c-0.21194,-0.49167 -0.21194,-0.73736 -0.21194,-1.47473v0c-0.21208,-1.22888 0.42405,-2.21191 1.69611,-3.19511c0.21194,-0.24567 0.63595,-0.49152 1.05997,-0.73719c0.42402,-0.24586 0.63613,-1.22888 1.27209,-0.98321c0.6361,0.24586 0.21209,1.22888 0.21209,1.96624c0,1.72039 -0.21206,2.94927 -1.69609,3.68664c-0.6361,0.24569 -1.06013,0.73736 -1.48415,1.22888c-0.42402,0.24567 -0.42402,0.4915 -0.84805,0.4915c-0.42402,-0.24586 0,-0.73735 0,-0.98303z" data-paper-data="{&quot;index&quot;:null}" fill="#272727" stroke-width="0.14441"/><path d="M243.96926,161.0222c-0.21194,-0.49167 -0.21194,-0.73736 -0.21194,-1.47473v0c-0.21208,-1.22888 0.42405,-2.21191 1.69611,-3.19511c0.21194,-0.24567 0.63595,-0.49152 1.05997,-0.73719c0.42402,-0.24586 0.63613,-1.22888 1.27209,-0.98321c0.6361,0.24586 0.21209,1.22888 0.21209,1.96624c0,1.72039 -0.21206,2.94927 -1.69609,3.68664c-0.6361,0.24569 -1.06013,0.73736 -1.48415,1.22888c-0.42402,0.24567 -0.42402,0.4915 -0.84805,0.4915c-0.42402,-0.24586 0,-0.73735 0,-0.98303z" data-paper-data="{&quot;index&quot;:null}" fill="#272727" stroke-width="0.14441"/><path d="M262.31299,183.13697c-0.21194,-0.49167 -0.21194,-0.73736 -0.21194,-1.47473v0c-0.21208,-1.22888 0.42405,-2.21191 1.69611,-3.19511c0.21194,-0.24567 0.63595,-0.49152 1.05997,-0.73719c0.42402,-0.24586 0.63613,-1.22888 1.27209,-0.98321c0.6361,0.24586 0.21209,1.22888 0.21209,1.96624c0,1.72039 -0.21206,2.94927 -1.69609,3.68664c-0.6361,0.24569 -1.06013,0.73736 -1.48415,1.22888c-0.42402,0.24567 -0.42402,0.4915 -0.84805,0.4915c-0.42402,-0.24586 0,-0.73735 0,-0.98303z" data-paper-data="{&quot;index&quot;:null}" fill="#272727" stroke-width="0.14441"/><path d="M227.85186,180.21053v0c0,0.53372 0.35064,1.06745 0,1.42322c-0.52602,0.17795 -1.05192,-0.53372 -1.40256,-0.71155c0,-0.17795 0,-0.17795 -0.17538,-0.17795c-1.75319,-0.71155 -1.57794,-2.3126 -1.75319,-3.73583c0,-0.71167 0.35064,-0.71167 0.70128,-0.35578c0.70128,0.5336 1.40256,1.06733 2.27921,1.60105c0.70128,0.53372 0.17526,1.24528 0.35064,1.95683z" fill="#282538" stroke-width="0.14441"/><path d="M218.97211,117.51013v0c0,0.53372 0.35064,1.06745 0,1.42322c-0.52602,0.17795 -1.05192,-0.53372 -1.40256,-0.71155c0,-0.17795 0,-0.17795 -0.17538,-0.17795c-1.75319,-0.71155 -1.57794,-2.3126 -1.75319,-3.73583c0,-0.71167 0.35064,-0.71167 0.70128,-0.35578c0.70128,0.5336 1.40256,1.06733 2.27921,1.60105c0.70128,0.53372 0.17526,1.24528 0.35064,1.95683z" fill="#282538" stroke-width="0.14441"/><path d="M236.97211,163.01012v0c0,0.53372 0.35064,1.06745 0,1.42322c-0.52602,0.17795 -1.05192,-0.53372 -1.40256,-0.71155c0,-0.17795 0,-0.17795 -0.17538,-0.17795c-1.75319,-0.71155 -1.57794,-2.3126 -1.75319,-3.73583c0,-0.71167 0.35064,-0.71167 0.70128,-0.35578c0.70128,0.5336 1.40256,1.06733 2.27921,1.60105c0.70128,0.53372 0.17526,1.24528 0.35064,1.95683z" fill="#282538" stroke-width="0.14441"/><path d="M227.75815,145.3838v0c0,0.53372 0.35064,1.06745 0,1.42322c-0.52602,0.17795 -1.05192,-0.53372 -1.40256,-0.71155c0,-0.17795 0,-0.17795 -0.17538,-0.17795c-1.75319,-0.71155 -1.57794,-2.3126 -1.75319,-3.73583c0,-0.71167 0.35064,-0.71167 0.70128,-0.35578c0.70128,0.5336 1.40256,1.06733 2.27921,1.60105c0.70128,0.53372 0.17526,1.24528 0.35064,1.95683z" fill="#282538" stroke-width="0.14441"/><path d="M237.16544,157.07428v0c0,0.53372 0.35064,1.06745 0,1.42322c-0.52602,0.17795 -1.05192,-0.53372 -1.40256,-0.71155c0,-0.17795 0,-0.17795 -0.17538,-0.17795c-1.75319,-0.71155 -1.57794,-2.3126 -1.75319,-3.73583c0,-0.71167 0.35064,-0.71167 0.70128,-0.35578c0.70128,0.5336 1.40256,1.06733 2.27921,1.60105c0.70128,0.53372 0.17526,1.24528 0.35064,1.95683z" fill="#282538" stroke-width="0.14441"/><path d="M218.90289,180.04068v0c0,0.53372 0.35064,1.06745 0,1.42322c-0.52602,0.17795 -1.05192,-0.53372 -1.40256,-0.71155c0,-0.17795 0,-0.17795 -0.17538,-0.17795c-1.75319,-0.71155 -1.57794,-2.3126 -1.75319,-3.73583c0,-0.71167 0.35064,-0.71167 0.70128,-0.35578c0.70128,0.5336 1.40256,1.06733 2.27921,1.60105c0.70128,0.53372 0.17526,1.24528 0.35064,1.95683z" fill="#282538" stroke-width="0.14441"/><path d="M236.95653,127.31458v0c0,0.53372 0.35064,1.06745 0,1.42322c-0.52602,0.17795 -1.05192,-0.53372 -1.40256,-0.71155c0,-0.17795 0,-0.17795 -0.17538,-0.17795c-1.75319,-0.71155 -1.57794,-2.3126 -1.75319,-3.73583c0,-0.71167 0.35064,-0.71167 0.70128,-0.35578c0.70128,0.5336 1.40256,1.06733 2.27921,1.60105c0.70128,0.53372 0.17526,1.24528 0.35064,1.95683z" fill="#282538" stroke-width="0.14441"/><path d="M219.1919,160.13614v0c-0.7167,-0.7273 -1.5768,-1.1637 -2.2936,-1.7455c-0.43,-0.4364 -0.2867,-1.0182 -0.2867,-1.4546c0,-0.4364 -0.1433,-1.0182 0.1434,-1.3091c0.2867,-0.1455 0.5734,0.4364 1.0034,0.5818c1.2902,0.7273 1.7202,1.7455 1.4335,3.2001c0,0.1455 0,0.2909 0,0.7273z" fill="#2f2c42" stroke-width="0.14441"/><path d="M218.72329,160.95123c0,0.11828 0.20415,0.35492 0,0.47329c-0.20415,0 -0.20415,-0.11836 -0.4083,-0.23664c-0.20415,-0.23665 -0.4083,-0.47337 -0.71456,-0.59166c-0.7145,-0.35501 -0.8166,-0.94667 -0.8166,-1.77497c0,-0.35501 -0.20415,-0.8283 0.10211,-0.94667c0.30619,-0.11828 0.40831,0.35501 0.61246,0.47338c0.20415,0.11828 0.4083,0.23665 0.51034,0.35493c0.61245,0.47337 0.91872,0.94666 0.81661,1.53832v0c0,0.35501 0,0.4733 -0.10204,0.71002z" data-paper-data="{&quot;index&quot;:null}" fill="#6c6c6c" stroke-width="0.14441"/><path d="M227.80062,144.57422c0,0.11828 0.20415,0.35492 0,0.47329c-0.20415,0 -0.20415,-0.11836 -0.4083,-0.23664c-0.20415,-0.23665 -0.4083,-0.47337 -0.71456,-0.59166c-0.71449,-0.35501 -0.81661,-0.94667 -0.81661,-1.77497c0,-0.35501 -0.20415,-0.8283 0.10211,-0.94666c0.3062,-0.11828 0.40831,0.35501 0.61246,0.47337c0.20415,0.11828 0.4083,0.23665 0.51033,0.35493c0.61245,0.47337 0.91872,0.94666 0.81661,1.53832v0c0,0.35501 -0.00001,0.47329 -0.10205,0.71002z" data-paper-data="{&quot;index&quot;:null}" fill="#6c6c6c" stroke-width="0.14441"/><path d="M217.33789,133.16812c0.42706,0.15556 0.83346,0.33431 1.14502,0.61992c0.03042,0.02789 0.06836,0.05006 0.08399,0.08786c0.12088,0.29238 0.27702,0.57758 0.20539,0.89946c-0.03311,0.14881 -0.02895,0.30267 -0.04169,0.45424c-0.10168,0.00847 -0.12556,-0.06256 -0.16789,-0.10731c-0.13152,-0.13908 -0.26058,-0.27956 -0.40153,-0.41298c-0.12217,-0.11565 -0.1237,-0.1151 -0.21124,0.02547c-0.11307,0.18158 -0.22006,0.36551 -0.33889,0.54483c-0.03149,0.04751 -0.07013,0.12074 -0.1567,0.03349c-0.10322,-0.20998 -0.14803,-0.43209 -0.22015,-0.64839c-0.0289,-0.08667 -0.06395,-0.17202 -0.09043,-0.25904c0.02891,-0.36208 -0.00924,-0.72751 0.08368,-1.0868c0.01543,-0.05965 0.02531,-0.12205 0.11043,-0.15073z" fill="#262626" stroke-width="1"/><path d="M245.87101,141.48138c0.11349,0.03824 0.12667,0.12144 0.14724,0.20097c0.12389,0.47905 0.07303,0.96629 0.11157,1.44907c-0.03531,0.11603 -0.08204,0.22983 -0.12057,0.34539c-0.09616,0.2884 -0.15591,0.58455 -0.29353,0.86452c-0.11543,0.11633 -0.16695,0.01869 -0.20893,-0.04465c-0.15844,-0.23909 -0.30109,-0.48433 -0.45185,-0.72644c-0.11672,-0.18743 -0.11876,-0.18816 -0.28165,-0.03396c-0.18793,0.17789 -0.36001,0.3652 -0.53537,0.55064c-0.05644,0.05967 -0.08828,0.15437 -0.22385,0.14308c-0.01699,-0.20209 -0.01144,-0.40724 -0.05559,-0.60565c-0.09551,-0.42917 0.11268,-0.80944 0.27385,-1.19928c0.02084,-0.0504 0.07143,-0.07996 0.11199,-0.11715c0.41541,-0.38081 0.95728,-0.61915 1.52669,-0.82656z" data-paper-data="{&quot;index&quot;:null}" fill="#262626" stroke-width="1"/><path d="M265.70757,150.28535c0.21989,0.07409 0.24542,0.23529 0.28528,0.38939c0.24004,0.92817 0.14149,1.87219 0.21617,2.80757c-0.06841,0.2248 -0.15895,0.44529 -0.23361,0.66919c-0.18631,0.55877 -0.30207,1.13256 -0.56872,1.67501c-0.22364,0.2254 -0.32346,0.03622 -0.40481,-0.08652c-0.30698,-0.46324 -0.58337,-0.9384 -0.87547,-1.40748c-0.22614,-0.36314 -0.2301,-0.36456 -0.5457,-0.0658c-0.36412,0.34467 -0.69753,0.70757 -1.03729,1.06687c-0.10935,0.1156 -0.17104,0.2991 -0.43372,0.27722c-0.03291,-0.39156 -0.02216,-0.78903 -0.1077,-1.17345c-0.18504,-0.83152 0.21832,-1.56829 0.53059,-2.3236c0.04038,-0.09765 0.13839,-0.15492 0.21697,-0.22697c0.80486,-0.73783 1.85473,-1.1996 2.95797,-1.60146z" data-paper-data="{&quot;index&quot;:null}" fill="#262626" stroke-width="1"/><path d="M245.10145,140.33594c0.42706,0.15556 0.83346,0.33431 1.14502,0.61992c0.03042,0.02789 0.06836,0.05006 0.08399,0.08786c0.12088,0.29238 0.27702,0.57758 0.20539,0.89946c-0.03311,0.14881 -0.02895,0.30267 -0.04169,0.45424c-0.10168,0.00847 -0.12556,-0.06256 -0.16789,-0.10731c-0.13152,-0.13908 -0.26058,-0.27956 -0.40153,-0.41298c-0.12217,-0.11565 -0.1237,-0.1151 -0.21124,0.02547c-0.11307,0.18158 -0.22006,0.36551 -0.33889,0.54483c-0.03149,0.04751 -0.07013,0.12074 -0.1567,0.03349c-0.10322,-0.20998 -0.14803,-0.43209 -0.22015,-0.64839c-0.0289,-0.08667 -0.06395,-0.17202 -0.09043,-0.25904c0.02891,-0.36208 -0.00924,-0.72751 0.08368,-1.0868c0.01543,-0.05965 0.02531,-0.12205 0.11043,-0.15073z" fill="#262626" stroke-width="1"/></g></g></svg>