<svg version="1.1" xmlns="http://www.w3.org/2000/svg" xmlns:xlink="http://www.w3.org/1999/xlink" width="86.017" height="65.9746" viewBox="0,0,86.017,65.9746"><g transform="translate(-196.5575,-147.2151)"><g data-paper-data="{&quot;isPaintingLayer&quot;:true}" fill-rule="nonzero" stroke="none" stroke-linejoin="miter" stroke-miterlimit="10" stroke-dasharray="" stroke-dashoffset="0" style="mix-blend-mode: normal"><path d="M239.566,147.2151l43.0085,32.9873l-43.0085,32.9873l-43.0085,-32.9873l43.0085,-32.9873zM196.5575,147.2151zM282.5745,213.1897z" fill="#e4f1f5" stroke-width="0.04598" stroke-linecap="butt"/><g stroke-linecap="butt"><path d="M251.4915,174.9127c1.31,0 2.498,0.336 3.358,0.879c0.86,0.543 1.392,1.293 1.392,2.121c0,0.828 -0.532,1.578 -1.392,2.121c-0.86,0.543 -2.048,0.879 -3.358,0.879c-1.31,0 -2.498,-0.336 -3.358,-0.879c-0.86,-0.543 -1.392,-1.293 -1.392,-2.121c0,-0.828 0.532,-1.578 1.392,-2.121c0.86,-0.543 2.048,-0.879 3.358,-0.879z" fill="#d2dde1" stroke-width="1"/><g stroke-width="0.01418"><g><g><g><g><g><g><g><g><path d="M246.4637,161.6256h4.9613v14.2745h-4.9613z" fill="none"/><path d="M250.0926,173.8872v0c-1.2191,0.4395 -2.1263,1.6018 -3.6147,1.9846c0.4536,-1.0207 0.7796,-1.857 1.2899,-2.6933c0.3827,-0.7797 0.2552,-1.0915 -0.5812,-1.1624c-0.1843,-0.7088 0.3261,-1.1624 0.5245,-1.6727c0.1843,-0.567 0.8931,-1.0773 0,-1.6585c-0.1984,-0.0709 -0.0709,-0.3969 0,-0.5812c0.8931,-2.1263 1.9279,-4.2526 2.9485,-6.2513c0.1417,-0.1985 0.3402,-0.3119 0.5812,-0.1276c0.3827,0.5812 0,1.2191 -0.0567,1.8712c0,0.4536 -0.1276,0.893 -0.1843,1.4175c0.1134,0.7655 -1.0348,1.2191 -0.5245,2.1263c0,0.1276 0.0709,0.2551 0.0709,0.3118c-0.3969,0.8364 -0.5812,1.6869 -0.3261,2.5091c0,0.1417 -0.0708,0.2693 -0.1275,0.3118c-0.9073,0.5812 -0.1276,0.9072 0.1842,1.29c0.1985,0.5245 0.1985,1.0348 0.2694,1.616c0,0.2551 -0.1276,0.5103 -0.4536,0.7087z" fill="#20a900"/></g></g><g><g><path d="M244.8902,161.0728h6.3647v10.9716h-6.3647z" fill="none"/><path d="M251.1132,161.6539v0c-1.0915,2.2539 -2.183,4.5787 -3.3454,6.9034c0.326,0.3119 0.5812,-0.1417 0.9639,0c-0.2551,1.2758 -0.9639,2.2964 -1.5451,3.4588c-0.5103,-0.1276 -1.0915,-0.1985 -1.6018,-0.3828c-0.2551,-0.0708 -1.0348,-0.0708 -0.5245,-0.7796c0.8506,-0.2551 1.29,-1.0206 1.8712,-1.5876c0.1275,-0.1985 0.5245,-0.5245 -0.0567,-0.6521c-0.4536,-0.1276 -0.9072,-0.2551 -1.5451,-0.3827c0.9639,-0.8364 1.8002,-1.616 2.6366,-2.3248c-0.3969,-0.5812 -1.0915,-0.2551 -1.5451,-0.7087c0.2551,-0.6379 1.0348,-0.8364 1.4175,-1.4176c1.0348,-0.893 1.857,-2.1263 3.1611,-2.6933c0.1134,0.0567 0.1843,0.1134 0.241,0.2552c0,0.1276 -0.0567,0.1984 -0.1276,0.3118z" fill="#35db00"/></g></g><g><g><path d="M251.3683,161.5122h4.4794v12.1199h-4.4794z" fill="none"/><path d="M255.1673,173.5612v0h-0.1276l-0.0708,-0.0709c-0.2552,-0.2551 -0.7797,0 -0.964,-0.4394c-0.2693,-0.4536 -0.3827,-0.9639 -0.2693,-1.4884c0.6521,-1.0348 0.3402,-1.857 -0.4394,-2.6225c0.0567,-0.7796 -0.3261,-1.3466 -0.4536,-2.0696c-0.3119,-0.893 -0.3119,-1.9278 -1.0348,-2.6933c-0.2977,-0.8505 -0.7513,-1.6726 -0.0567,-2.5799c0.893,-0.326 1.4175,0.4537 1.9845,0.8364c0.2693,0.5812 0.7797,0.7087 1.1624,1.0348c0.1417,0.6379 -1.2191,0.893 -0.4394,1.7294c0.1842,0.652 0.6378,1.2332 0.5103,1.8711c0.0708,0 0.0567,0 0.0708,0c-0.3969,0.1985 -0.5811,0.4536 -0.2693,0.7088c0.9072,0.9072 0.9639,2.0554 0.8505,3.2036c0.1134,0.652 0,1.3608 0.1843,2.0696c0.1276,0.6379 -0.2552,0.5812 -0.6379,0.5103z" fill="#209900"/></g></g><g><g><path d="M250.0784,173.0509h2.5232v5.174h-2.5232z" fill="none"/><path d="M250.0926,173.8872v0c0.1275,-0.1984 0.1842,-0.4536 0.2551,-0.652c0.1276,-0.1276 0.3119,-0.1843 0.5103,-0.1843c0.5812,0.1276 0.5245,0.6379 0.7088,0.9639c0.3827,-0.7796 0.6946,-0.2552 0.9639,0.0567c0.1134,0.2552 0,0.5245 -0.0709,0.7796c0,0.6379 0.0709,1.3467 0,1.9988c0,0.567 0.3828,1.4175 -0.7796,1.3466c-0.9498,0 -1.5876,-0.2551 -1.5876,-1.4175c0.0567,-0.9639 0,-1.9279 0,-2.8918z" fill="#7f471c"/></g></g><g><g><path d="M255.1673,170.8537h2.9201v3.3879h-2.9201z" fill="none"/><path d="M255.1673,173.5612v0c0.1134,-0.0709 0.5103,-0.1985 0.4536,-0.2552c-0.9781,-0.7796 0,-1.616 -0.1417,-2.3814c0.0567,-0.0142 0.0708,-0.0709 0.1417,-0.0709c0.0567,0 0.0567,0.0709 0.1134,0.0709c0.7088,1.0915 1.6727,1.9845 2.3248,3.2887c-1.0915,-0.1985 -1.9987,-0.3261 -2.8918,-0.6521z" fill="#35a700"/></g></g><g><g><path d="M252.389,172.654h2.6082v3.8982h-2.6082z" fill="none"/><path d="M252.4598,174.8511v0c-0.0708,-0.2551 -0.0708,-0.5811 -0.0708,-0.8363c0.0708,-0.0709 0.0708,-0.0709 0.1417,-0.1276c0.1843,0 0.3827,0 0.3827,-0.326c0,-0.4536 0.2552,-0.7797 0.7088,-0.8931c0.3119,-0.0708 0.4536,0.1134 0.567,0.3119c0.2694,0.1985 0.5245,0.326 0.7797,0.5103c-1.0915,-0.2551 -1.29,0.1985 -0.8931,1.1624c0.1134,0.3827 0.241,0.7796 0.3828,1.1624c0.0567,0.2551 0.3827,0.6378 -0.1985,0.7087c-0.4536,-0.5812 -0.8363,-1.0915 -1.2191,-1.6727c-0.1984,-0.2551 -0.3969,-0.2551 -0.5812,0z" fill="#35a700"/></g></g><g><g><path d="M254.416,167.0547h2.4665v3.8982h-2.4665z" fill="none"/><path d="M255.4792,170.9246v0c-0.1985,-1.0915 -0.1276,-2.2397 -0.9639,-3.2036c-0.2552,-0.2694 0,-0.6521 0.5244,-0.6521c-0.5244,0.6521 0.1276,0.9639 0.4395,1.0915c0.9072,0.5245 0.9639,1.4884 1.3466,2.2397c0.1418,0.2693 -0.1134,0.1985 -0.3118,0.2693c-0.3828,-0.1984 -0.7088,-0.2693 -0.964,0.1843z" fill="#35a700"/></g></g><g><g><path d="M254.3735,165.1836h1.7152v2.0979h-1.7152z" fill="none"/><path d="M254.9689,167.0689v0c-0.3261,-0.5812 -0.7797,-1.0915 -0.5103,-1.8711c0.893,0.3969 1.5451,0.9781 1.6018,1.9987c-0.3828,0.1984 -0.7088,-0.0567 -1.0915,-0.1276z" fill="#35a700"/></g></g><g><g><path d="M245.0462,169.2519h1.8994v1.6302h-1.8994z" fill="none"/><path d="M246.9315,169.2661v0c-0.3828,0.8363 -0.8364,1.5309 -1.8712,1.5876c0.5812,-0.5812 1.2333,-1.1482 1.8712,-1.5876z" fill="#3cdc00"/></g></g><g><g><path d="M253.7356,162.6179h1.1907v0.8647h-1.1907z" fill="none"/><path d="M253.7356,162.632v0c0.1418,0 0.2693,0.0567 0.4536,0.0567c0.1276,0.3969 0.7088,0.3261 0.7088,0.7797c-0.5103,-0.1418 -1.0206,-0.1985 -1.1624,-0.8364z" fill="#66b500"/></g></g><g><g><path d="M249.9508,163.6668h1.7294v9.5967h-1.7294z" fill="none"/><path d="M250.858,173.2352v0h-0.5103c-0.326,-0.4537 -0.0709,-1.0207 -0.2551,-1.5452c0.326,-0.5103 -0.3969,-1.0206 0,-1.5309v0c0.1275,-0.9639 0.5103,-1.8711 0.2551,-2.835v0c-0.326,-0.8931 0.6521,-1.4743 0.5103,-2.3106c-0.2551,-0.4536 0.0709,-0.8364 0,-1.29c0.1418,-0.0708 0.2552,-0.0708 0.3828,0c0.4394,0.3828 0.4394,0.9073 0.3827,1.4176c0,2.183 -0.0567,4.3801 0,6.6198c0,0.5812 -0.1134,1.1482 -0.7655,1.4743z" fill="#178e00"/></g></g><g><g><path d="M249.724,167.3099h0.9781v2.8634h-0.9781z" fill="none"/><path d="M250.3477,167.3241v0c0.5103,0.9072 0.4536,2.1263 -0.2551,2.835c-0.5812,-1.0206 -0.3969,-1.9278 0.2551,-2.835z" fill="#179b00"/></g></g><g><g><path d="M248.9869,170.1449h1.5026v1.5735h-1.5026z" fill="none"/><path d="M250.0926,170.1591v0c0.1842,0.5103 0.7654,1.0206 0,1.5309c0,-0.0567 -0.0709,-0.0567 -0.0709,-0.1275c-0.3827,-0.1985 -1.0206,-0.1985 -1.0206,-0.7655c0,-0.5245 0.7654,-0.326 1.0915,-0.6379z" fill="#179f00"/></g></g><g><g><path d="M249.8091,164.9993h1.1198v2.3389h-1.1198z" fill="none"/><path d="M250.858,165.0135v0c0.1985,0.8363 -0.1984,1.6018 -0.5103,2.3106c-0.3827,-0.5104 -1.0348,-1.0348 0.1276,-1.4743c0.2551,-0.1275 0,-0.652 0.3827,-0.8363z" fill="#179b00"/></g></g><g><g><path d="M250.8439,161.3846h0.7654v2.3531h-0.7654z" fill="none"/><path d="M251.1132,163.7235v0h-0.2552c0,-0.7087 0.3828,-1.3608 0.2552,-2.0696v-0.2551c0.6946,0.7796 0.567,1.5451 0,2.3247z" fill="#209900"/></g></g><g><g><path d="M250.8439,161.1011h2.1688v13.0838h-2.1688z" fill="none"/><path d="M251.1132,163.7235v0c0.1276,-0.7796 0.567,-1.5451 0,-2.3247v-0.1985c0.3969,-0.2409 0.567,0.0709 0.8363,0.3969c-0.567,0.9073 -0.1417,1.8003 0.1843,2.6366c0.1985,0.5812 0.3969,1.1624 0.5103,1.8003c0.2693,2.0696 -0.0567,4.125 0.326,6.1804c0.0709,0.6379 -0.1984,1.2758 -0.5811,1.8003v0c-0.0567,-0.0709 -0.1985,-0.1276 -0.1985,-0.0709c-0.9497,0.7088 -0.8789,-0.5103 -1.3325,-0.7087c0.8222,-1.6727 0.3261,-3.4588 0.3828,-5.1315c0.0708,-1.0915 0.2693,-2.1972 0.1417,-3.2887c-0.0709,-0.3827 -0.0709,-0.7654 -0.2693,-1.0915z" fill="#177c00"/></g></g><g><g><path d="M252.3606,166.0199h2.2539v8.0941h-2.2539z" fill="none"/><path d="M252.389,174.0148v0c0.3827,-2.6508 -0.1276,-5.3299 0,-7.9807c0.652,0.0709 0.3827,0.6521 0.5811,1.0348c0.1276,0.5812 0.5812,1.1624 0.4537,1.8003c1.0348,0.7087 1.7435,1.4033 0.5103,2.5657c-0.6379,-0.2552 -0.4395,-0.9072 -0.7088,-1.3325c0,-0.0283 0.0709,-0.0709 0,-0.0709c0,0.1276 0.0709,0.241 0.0709,0.3119c0.1276,0.8363 0.6379,1.5451 0.3827,2.3814c-0.1843,0.2552 -0.5812,0.4537 -0.5103,0.9073c0.0567,0.6946 -0.4536,0.3827 -0.7796,0.3827z" fill="#179200"/></g></g><g><g><path d="M253.1119,169.8614h1.1057v3.147h-1.1057z" fill="none"/><path d="M253.6789,172.7248v0c-0.1276,-0.8363 -0.5812,-1.6726 -0.5103,-2.5657c-0.1276,-0.2551 0,-0.326 0.2552,-0.2551c0.1984,0.4961 0.3118,1.0206 0.5103,1.5309c-0.0567,0.5103 0.1984,1.0348 0.2551,1.5451c-0.1843,-0.0709 -0.3118,-0.1985 -0.5103,-0.2552z" fill="#17c200"/></g></g><g><g><path d="M252.1338,164.2197h1.0632v2.8634h-1.0632z" fill="none"/><path d="M252.9134,167.0689v0c-0.3827,-0.1985 -0.1417,-0.8363 -0.5244,-1.0348c-0.0567,-0.5812 -0.1985,-1.2191 -0.2552,-1.8003c0.7088,0.7088 0.7088,1.7436 1.0348,2.5799c-0.1276,0.0567 -0.1276,0.2552 -0.2552,0.2552z" fill="#17ab00"/></g></g><g><g><path d="M252.9134,166.7996h0.7372v2.0837h-0.7372z" fill="none"/><path d="M252.9134,167.0689v0c0.0567,-0.0567 0.1843,-0.1985 0.2552,-0.2552c-0.0709,0.7088 0.8363,1.29 0.2552,2.0555c-0.2552,-0.5812 -0.5104,-1.1482 -0.5104,-1.8003z" fill="#17bc00"/></g></g><g><g><path d="M252.8993,169.3086h0.5528v0.8647h-0.5528z" fill="none"/><path d="M253.4238,169.904v0c-0.0709,0.0567 -0.1985,0.1984 -0.2552,0.2551c-0.2552,-0.2551 -0.3969,-0.5103 -0.1276,-0.8363c0.1276,0.1984 0.2552,0.3827 0.3828,0.5812z" fill="#17b100"/></g></g></g></g></g></g></g></g></g></g><path d="M253.2915,161.6627c0.212,0.334 -0.693,0.564 -0.75,0.95c-0.078,0.533 0.581,1.462 0.25,1.6c-0.374,0.155 -0.921,-1.009 -1.55,-1.05c-0.594,-0.092 -1.118,0.821 -1.65,0.7c-0.323,-0.078 -0.004,-0.695 -0.15,-1c-0.046,-0.219 -0.536,-0.31 -0.4,-0.5c0.542,-0.761 1.176,-1.707 2.1,-1.85c0.797,-0.137 1.691,0.471 2.15,1.15z" fill="#ffffff" stroke-width="1" stroke-linecap="round"/><path d="M246.6415,167.0627c0.17,0.022 0.043,0.421 0.002,0.648c-0.061,0.375 0.048,0.909 -0.252,1.102c-0.251,0.153 -0.805,-0.125 -0.95,-0.45c-0.076,-0.288 0.284,-0.572 0.5,-0.8c0.217,-0.228 0.519,-0.551 0.7,-0.5z" fill="#ffffff" stroke-width="1" stroke-linecap="round"/><g><path d="M220.51509,178.71123c1.61235,0 3.07454,0.41355 4.13303,1.08187c1.05849,0.66832 1.71327,1.59143 1.71327,2.61053c0,1.0191 -0.65479,1.9422 -1.71327,2.61053c-1.05849,0.66832 -2.52068,1.08187 -4.13303,1.08187c-1.61235,0 -3.07454,-0.41355 -4.13303,-1.08187c-1.05849,-0.66832 -1.71327,-1.59143 -1.71327,-2.61053c0,-1.0191 0.65479,-1.9422 1.71327,-2.61053c1.05849,-0.66832 2.52068,-1.08187 4.13303,-1.08187z" fill="#d2dde1" stroke-width="1" stroke-linecap="butt"/><g stroke-width="0.01418" stroke-linecap="butt"><g><g><path d="M214.32687,162.35745h6.10637v17.56907h-6.10637z" fill="none"/><path d="M218.79332,177.44904v0c-1.50047,0.54094 -2.61705,1.9715 -4.44898,2.44265c0.55829,-1.25628 0.95953,-2.2856 1.58761,-3.31492c0.47103,-0.95966 0.3141,-1.34342 -0.71534,-1.43068c-0.22684,-0.87239 0.40136,-1.43068 0.64556,-2.05876c0.22684,-0.69786 1.09923,-1.32594 0,-2.04128c-0.24419,-0.08726 -0.08726,-0.4885 0,-0.71534c1.09923,-2.61705 2.37286,-5.2341 3.62902,-7.69411c0.1744,-0.24431 0.41872,-0.38389 0.71534,-0.15705c0.47103,0.71534 0,1.50047 -0.06979,2.30307c0,0.55829 -0.15705,1.09911 -0.22684,1.74466c0.13957,0.94218 -1.27363,1.50047 -0.64556,2.61705c0,0.15705 0.08726,0.31398 0.08726,0.38376c-0.4885,1.02944 -0.71534,2.07624 -0.40136,3.0882c0,0.1744 -0.08714,0.33145 -0.15693,0.38376c-1.11671,0.71534 -0.15705,1.11658 0.22671,1.58773c0.24431,0.64556 0.24431,1.27363 0.33158,1.98897c0,0.31398 -0.15705,0.62808 -0.55829,0.87227z" fill="#20a900"/></g></g><g><g><path d="M212.3902,161.67707h7.83368v13.50385h-7.83368z" fill="none"/><path d="M220.04947,162.39229v0c-1.34342,2.7741 -2.68684,5.63547 -4.11752,8.49671c0.40124,0.38389 0.71534,-0.1744 1.18637,0c-0.31398,1.57026 -1.18637,2.82641 -1.90171,4.25709c-0.62808,-0.15705 -1.34342,-0.24431 -1.9715,-0.47115c-0.31398,-0.08714 -1.27363,-0.08714 -0.64556,-0.95953c1.04692,-0.31398 1.58773,-1.25616 2.30307,-1.95402c0.15693,-0.24431 0.64556,-0.64556 -0.06979,-0.80261c-0.55829,-0.15705 -1.11658,-0.31398 -1.90171,-0.47103c1.18637,-1.02944 2.21569,-1.98897 3.24513,-2.86137c-0.4885,-0.71534 -1.34342,-0.31398 -1.90171,-0.87227c0.31398,-0.78513 1.27363,-1.02944 1.74466,-1.74478c1.27363,-1.09911 2.2856,-2.61705 3.89068,-3.31492c0.13957,0.06979 0.22684,0.13957 0.29662,0.3141c0,0.15705 -0.06979,0.24419 -0.15705,0.38376z" fill="#35db00"/></g></g><g><g><path d="M220.36345,162.21788h5.51325v14.91718h-5.51325z" fill="none"/><path d="M225.03926,177.0478v0h-0.15705l-0.08714,-0.08726c-0.3141,-0.31398 -0.95966,0 -1.18649,-0.54081c-0.33145,-0.55829 -0.47103,-1.18637 -0.33145,-1.83192c0.80261,-1.27363 0.41872,-2.2856 -0.54081,-3.22778c0.06979,-0.95953 -0.40136,-1.6574 -0.55829,-2.54727c-0.38389,-1.09911 -0.38389,-2.37274 -1.27363,-3.31492c-0.36641,-1.0468 -0.9247,-2.05864 -0.06979,-3.17534c1.09911,-0.40124 1.74466,0.55841 2.44252,1.02944c0.33145,0.71534 0.95966,0.87227 1.43068,1.27363c0.1744,0.78513 -1.50047,1.09911 -0.54081,2.12855c0.22671,0.80248 0.785,1.51782 0.62808,2.30295c0.08714,0 0.06979,0 0.08714,0c-0.4885,0.24431 -0.71522,0.55829 -0.33145,0.87239c1.11658,1.11658 1.18637,2.52979 1.0468,3.94299c0.13957,0.80248 0,1.67487 0.22684,2.54727c0.15705,0.78513 -0.3141,0.71534 -0.78513,0.62808z" fill="#209900"/></g></g><g><g><path d="M218.77584,176.41972h3.10556v6.36816h-3.10556z" fill="none"/><path d="M218.79332,177.44904v0c0.15693,-0.24419 0.22671,-0.55829 0.31398,-0.80248c0.15705,-0.15705 0.38389,-0.22684 0.62808,-0.22684c0.71534,0.15705 0.64556,0.78513 0.87239,1.18637c0.47103,-0.95953 0.85491,-0.3141 1.18637,0.06979c0.13957,0.3141 0,0.64556 -0.08726,0.95953c0,0.78513 0.08726,1.65752 0,2.46012c0,0.69786 0.47115,1.74466 -0.95953,1.6574c-1.16901,0 -1.95402,-0.31398 -1.95402,-1.74466c0.06979,-1.18637 0,-2.37286 0,-3.55923z" fill="#7f471c"/></g></g><g><g><path d="M225.03926,173.71541h3.59406v4.16983h-3.59406z" fill="none"/><path d="M225.03926,177.0478v0c0.13957,-0.08726 0.62808,-0.24431 0.55829,-0.3141c-1.20385,-0.95953 0,-1.98897 -0.1744,-2.93103c0.06979,-0.01748 0.08714,-0.08726 0.1744,-0.08726c0.06979,0 0.06979,0.08726 0.13957,0.08726c0.87239,1.34342 2.05876,2.44252 2.86137,4.04773c-1.34342,-0.24431 -2.46,-0.40136 -3.55923,-0.80261z" fill="#35a700"/></g></g><g><g><path d="M221.61973,175.93122h3.21017v4.79791h-3.21017z" fill="none"/><path d="M221.70687,178.63541v0c-0.08714,-0.31398 -0.08714,-0.71522 -0.08714,-1.02932c0.08714,-0.08726 0.08714,-0.08726 0.1744,-0.15705c0.22684,0 0.47103,0 0.47103,-0.40124c0,-0.55829 0.3141,-0.95966 0.87239,-1.09923c0.38389,-0.08714 0.55829,0.13957 0.69786,0.38389c0.33158,0.24431 0.64556,0.40124 0.95966,0.62808c-1.34342,-0.31398 -1.58773,0.24431 -1.09923,1.43068c0.13957,0.47103 0.29662,0.95953 0.47115,1.43068c0.06979,0.31398 0.47103,0.785 -0.24431,0.87227c-0.55829,-0.71534 -1.02932,-1.34342 -1.50047,-2.05876c-0.24419,-0.31398 -0.4885,-0.31398 -0.71534,0z" fill="#35a700"/></g></g><g><g><path d="M224.11456,169.0396h3.03577v4.79791h-3.03577z" fill="none"/><path d="M225.42315,173.80267v0c-0.24431,-1.34342 -0.15705,-2.75662 -1.18637,-3.94299c-0.3141,-0.33158 0,-0.80261 0.64543,-0.80261c-0.64543,0.80261 0.15705,1.18637 0.54094,1.34342c1.11658,0.64556 1.18637,1.83192 1.6574,2.75662c0.17453,0.33145 -0.13957,0.24431 -0.38376,0.33145c-0.47115,-0.24419 -0.87239,-0.33145 -1.18649,0.22684z" fill="#35a700"/></g></g><g><g><path d="M224.06225,166.73664h2.11107v2.5821h-2.11107z" fill="none"/><path d="M224.79507,169.05707v0c-0.40136,-0.71534 -0.95966,-1.34342 -0.62808,-2.30295c1.09911,0.4885 1.90171,1.20385 1.9715,2.46c-0.47115,0.24419 -0.87239,-0.06979 -1.34342,-0.15705z" fill="#35a700"/></g></g><g><g><path d="M212.5822,171.74391h2.33778v2.00645h-2.33778z" fill="none"/><path d="M214.90263,171.76139v0c-0.47115,1.02932 -1.02944,1.88423 -2.30307,1.95402c0.71534,-0.71534 1.51795,-1.41321 2.30307,-1.95402z" fill="#3cdc00"/></g></g><g><g><path d="M223.27713,163.57878h1.46551v1.06427h-1.46551z" fill="none"/><path d="M223.27713,163.59613v0c0.17453,0 0.33145,0.06979 0.55829,0.06979c0.15705,0.4885 0.87239,0.40136 0.87239,0.95966c-0.62808,-0.17453 -1.25616,-0.24431 -1.43068,-1.02944z" fill="#66b500"/></g></g><g><g><path d="M218.61879,164.86977h2.12855v11.81163h-2.12855z" fill="none"/><path d="M219.73537,176.64656v0h-0.62808c-0.40124,-0.55841 -0.08726,-1.25628 -0.31398,-1.90183c0.40124,-0.62808 -0.4885,-1.25616 0,-1.88423v0c0.15693,-1.18637 0.62808,-2.30295 0.31398,-3.48932v0c-0.40124,-1.09923 0.80261,-1.81457 0.62808,-2.84389c-0.31398,-0.55829 0.08726,-1.02944 0,-1.58773c0.17453,-0.08714 0.3141,-0.08714 0.47115,0c0.54081,0.47115 0.54081,1.11671 0.47103,1.74478c0,2.68684 -0.06979,5.39103 0,8.14766c0,0.71534 -0.13957,1.41321 -0.94218,1.81457z" fill="#178e00"/></g></g><g><g><path d="M218.33964,169.3537h1.20385v3.52428h-1.20385z" fill="none"/><path d="M219.1073,169.37117v0c0.62808,1.11658 0.55829,2.61705 -0.31398,3.48932c-0.71534,-1.25616 -0.4885,-2.37274 0.31398,-3.48932z" fill="#179b00"/></g></g><g><g><path d="M217.43242,172.84302h1.8494v1.93667h-1.8494z" fill="none"/><path d="M218.79332,172.86049v0c0.22671,0.62808 0.94205,1.25616 0,1.88423c0,-0.06979 -0.08726,-0.06979 -0.08726,-0.15693c-0.47103,-0.24431 -1.25616,-0.24431 -1.25616,-0.94218c0,-0.64556 0.94205,-0.40124 1.34342,-0.78513z" fill="#179f00"/></g></g><g><g><path d="M218.44439,166.50981h1.37825v2.87872h-1.37825z" fill="none"/><path d="M219.73537,166.52728v0c0.24431,1.02932 -0.24419,1.9715 -0.62808,2.84389c-0.47103,-0.6282 -1.27363,-1.27363 0.15705,-1.81457c0.31398,-0.15693 0,-0.80248 0.47103,-1.02932z" fill="#179b00"/></g></g><g><g><path d="M219.71802,162.06083h0.94205v2.8962h-0.94205z" fill="none"/><path d="M220.04947,164.93955v0h-0.3141c0,-0.87227 0.47115,-1.67487 0.3141,-2.54727v-0.31398c0.85491,0.95953 0.69786,1.90171 0,2.86124z" fill="#209900"/></g></g><g><g><path d="M219.71802,161.7119h2.66936v16.10355h-2.66936z" fill="none"/><path d="M220.04947,164.93955v0c0.15705,-0.95953 0.69786,-1.90171 0,-2.86124v-0.24431c0.4885,-0.2965 0.69786,0.08726 1.02932,0.4885c-0.69786,1.11671 -0.1744,2.21581 0.22684,3.24513c0.24431,0.71534 0.4885,1.43068 0.62808,2.21581c0.33145,2.54727 -0.06979,5.07705 0.40124,7.60684c0.08726,0.78513 -0.24419,1.57026 -0.71522,2.21581v0c-0.06979,-0.08726 -0.24431,-0.15705 -0.24431,-0.08726c-1.16889,0.87239 -1.08175,-0.62808 -1.64004,-0.87227c1.01196,-2.05876 0.40136,-4.25709 0.47115,-6.31585c0.08714,-1.34342 0.33145,-2.70432 0.1744,-4.04773c-0.08726,-0.47103 -0.08726,-0.94205 -0.33145,-1.34342z" fill="#177c00"/></g></g><g><g><path d="M221.58477,167.76596h2.7741v9.96222h-2.7741z" fill="none"/><path d="M221.61973,177.60609v0c0.47103,-3.26261 -0.15705,-6.56005 0,-9.82265c0.80248,0.08726 0.47103,0.80261 0.71522,1.27363c0.15705,0.71534 0.71534,1.43068 0.55841,2.21581c1.27363,0.87227 2.1459,1.72718 0.62808,3.15787c-0.78513,-0.3141 -0.54094,-1.11658 -0.87239,-1.64004c0,-0.03483 0.08726,-0.08726 0,-0.08726c0,0.15705 0.08726,0.29662 0.08726,0.38389c0.15705,1.02932 0.78513,1.90171 0.47103,2.93103c-0.22684,0.3141 -0.71534,0.55841 -0.62808,1.11671c0.06979,0.85491 -0.55829,0.47103 -0.95953,0.47103z" fill="#179200"/></g></g><g><g><path d="M222.50948,172.49408h1.3609v3.87333h-1.3609z" fill="none"/><path d="M223.20734,176.01836v0c-0.15705,-1.02932 -0.71534,-2.05864 -0.62808,-3.15787c-0.15705,-0.31398 0,-0.40124 0.3141,-0.31398c0.24419,0.6106 0.38376,1.25616 0.62808,1.88423c-0.06979,0.62808 0.24419,1.27363 0.31398,1.90171c-0.22684,-0.08726 -0.38376,-0.24431 -0.62808,-0.3141z" fill="#17c200"/></g></g><g><g><path d="M221.30563,165.55028h1.30859v3.52428h-1.30859z" fill="none"/><path d="M222.26516,169.05707v0c-0.47103,-0.24431 -0.1744,-1.02932 -0.64543,-1.27363c-0.06979,-0.71534 -0.24431,-1.50047 -0.3141,-2.21581c0.87239,0.87239 0.87239,2.14602 1.27363,3.17534c-0.15705,0.06979 -0.15705,0.3141 -0.3141,0.3141z" fill="#17ab00"/></g></g><g><g><path d="M222.26516,168.72562h0.90735v2.56462h-0.90735z" fill="none"/><path d="M222.26516,169.05707v0c0.06979,-0.06979 0.22684,-0.24431 0.3141,-0.3141c-0.08726,0.87239 1.02932,1.58773 0.3141,2.52991c-0.3141,-0.71534 -0.6282,-1.41321 -0.6282,-2.21581z" fill="#17bc00"/></g></g><g><g><path d="M222.24781,171.8137h0.68039v1.06427h-0.68039z" fill="none"/><path d="M222.89336,172.54652v0c-0.08726,0.06979 -0.24431,0.24419 -0.3141,0.31398c-0.3141,-0.31398 -0.4885,-0.62808 -0.15705,-1.02932c0.15705,0.24419 0.3141,0.47103 0.47115,0.71534z" fill="#17b100"/></g></g></g><path d="M220.63817,161.23386c1.13726,0.176 1.91759,1.34034 2.58468,2.27698c0.16739,0.23385 -0.4357,0.34586 -0.49232,0.6154c-0.1797,0.37539 0.21293,1.1348 -0.18462,1.2308c-0.65479,0.14893 -1.29973,-0.97479 -2.03082,-0.86156c-0.77417,0.05046 -1.44742,1.48311 -1.90774,1.29234c-0.4074,-0.16985 0.4037,-1.31326 0.3077,-1.96928c-0.07016,-0.47509 -1.18403,-0.75817 -0.9231,-1.16926c0.56494,-0.83571 1.66527,-1.58404 2.64622,-1.41542z" fill="#ffffff" stroke-width="1" stroke-linecap="round"/><path d="M222.73053,172.43414c0.26708,0.6474 0.34216,1.41542 0.55386,2.03082c0.13416,0.39016 0.58832,0.7114 0.55386,1.10772c-0.03077,0.34955 -0.39139,1.07695 -0.6154,0.86156c-0.64371,-0.62771 -0.98587,-1.62096 -1.2308,-2.52314c-0.31755,-1.17788 -0.53294,-3.44624 -0.36924,-3.75394c0.128,-0.27447 0.79633,1.51881 1.10772,2.27698z" fill="#ffffff" stroke-width="1" stroke-linecap="round"/></g></g></g></svg>