<svg xmlns="http://www.w3.org/2000/svg" xmlns:xlink="http://www.w3.org/1999/xlink" width="25.099" height="20.375" version="1.1" viewBox="0.201 -0.296 25.099 20.375"><g id="ID0.5141469733789563"><g id="ID0.358306766487658"><g id="ID0.045219899620860815"><g id="container-id1"><g id="id1"><g id="ID0.7180701862089336"><g id="ID0.9010128821246326"><g id="id6"><path id="ID0.44769747694954276" fill="none" stroke="none" stroke-width=".024" d="M 24.8002 0.2039 L 0.7007 0.2039 L 0.7007 19.579 L 24.8002 19.579 L 24.8002 0.2039 Z"/><path id="ID0.2315921294502914" fill="#0280FF" stroke="none" stroke-width=".024" d="M 12.9018 15.7569 L 12.9018 15.7569 C 14.8344 14.3386 16.7437 12.8963 18.6763 11.454 C 18.7229 11.454 18.7695 11.4299 18.816 11.4059 C 19.2119 11.2617 19.4913 10.9492 19.8173 10.7328 C 20.2131 10.2521 20.6788 9.7953 20.9582 9.2424 C 21.1212 8.954 21.3541 8.7376 21.5636 8.4972 C 21.7965 8.2568 22.0992 8.2568 22.3786 8.2568 C 22.658 7.9924 22.9141 7.6799 23.2168 7.4395 C 23.6592 7.0549 24.0085 6.5501 24.4276 6.1655 C 24.7769 5.853 24.8234 5.4684 24.7769 5.0357 C 24.7536 4.7472 24.707 4.4587 24.5673 4.1943 C 24.1715 4.3385 23.8921 4.627 23.5661 4.8674 C 22.4251 5.7088 21.3075 6.5261 20.1898 7.3915 C 20.0967 7.4636 19.9803 7.5357 19.8639 7.5597 C 19.2585 7.5357 18.6763 7.3674 18.0942 7.2953 C 17.9312 7.2713 17.7915 7.1991 17.6518 7.3434 C 17.6518 7.5357 17.8148 7.4876 17.9312 7.5357 C 18.3736 7.704 18.8626 7.7761 19.3749 7.9924 C 16.278 10.2761 13.2511 12.5357 10.1775 14.7954 C 10.3638 13.93 10.5966 13.1367 10.7363 12.3194 C 10.713 12.1992 10.6432 12.1271 10.5501 12.2473 C 10.4802 12.3434 10.4569 12.4876 10.3871 12.6078 C 9.9912 13.5453 9.6652 14.5309 9.2461 15.4684 C 8.827 15.9732 8.4079 16.4781 7.9655 16.9588 C 7.8723 17.079 7.7326 17.1752 7.7326 17.3435 C 7.8025 17.656 7.9655 17.9444 8.0353 18.2329 C 8.1052 18.4252 8.0819 18.6415 8.0819 18.8579 C 8.1052 19.0983 7.8025 19.2185 7.8956 19.4829 C 8.1983 19.2665 8.501 19.0502 8.827 18.8098 C 9.2927 18.6415 9.6187 18.281 10.0145 18.0165 C 10.3638 17.5838 10.7829 17.2233 11.1089 16.7665 C 11.3417 16.43 11.5979 16.1175 11.9471 15.8771 C 12.2498 15.6607 12.5758 15.6607 12.9018 15.7569 Z"/><path id="ID0.36677903681993484" fill="#016EDB" stroke="none" stroke-width=".024" d="M 19.9104 7.6318 L 19.9104 7.6318 C 20.3528 7.4876 20.6555 7.127 21.0281 6.8866 C 22.169 6.0453 23.31 5.1799 24.4509 4.3145 C 24.4975 4.2905 24.5207 4.2424 24.5673 4.1943 C 24.2646 3.6414 23.9386 3.1366 23.4031 2.8001 C 22.4251 2.1751 21.4938 1.4779 20.5391 0.8529 C 20.0268 0.4924 19.3982 0.4443 18.816 0.2279 C 18.7462 0.1799 18.6298 0.276 18.5366 0.3241 C 17.0697 1.0693 15.6261 1.8385 14.1592 2.6078 C 14.0427 2.6799 13.903 2.728 13.7866 2.776 C 13.6469 2.8722 13.4839 2.9683 13.3442 3.0645 C 13.3209 3.1847 13.4373 3.2087 13.5305 3.2328 C 14.6481 3.8097 15.7658 4.3626 16.8834 4.9395 C 17.3258 5.1318 17.6285 5.4924 17.9312 5.8289 C 18.4901 6.3818 19.0722 6.9107 19.6077 7.4636 C 19.7009 7.5597 19.7707 7.6318 19.9104 7.6318 Z"/><path id="ID0.3351324344985187" fill="#262626" stroke="none" stroke-width=".024" d="M 12.9018 15.7569 L 12.9018 15.7569 C 12.5991 15.4684 12.2964 15.5886 11.9937 15.7329 C 11.6211 15.9492 11.3184 16.2617 11.0623 16.6463 C 10.7596 17.1511 10.3172 17.5117 9.9447 17.9685 C 10.2008 18.3531 10.5268 18.5694 10.9459 18.6896 C 11.5746 18.7137 11.9471 18.281 12.3197 17.8723 C 12.6457 17.4636 12.8552 17.0309 12.9716 16.5261 C 13.0182 16.2858 12.9949 15.9973 12.9018 15.7569 Z"/><path id="ID0.5928625375963748" fill="#262626" stroke="none" stroke-width=".024" d="M 22.3786 8.2568 L 22.3786 8.2568 C 22.0759 8.0645 21.7965 8.1847 21.5403 8.4011 C 21.3075 8.5934 21.0979 8.8338 20.9582 9.1222 C 20.6555 9.7232 20.1433 10.1559 19.794 10.6847 C 19.957 11.0213 20.2597 11.1896 20.6322 11.2617 C 21.2842 11.2857 21.6568 10.829 22.0293 10.3482 C 22.2854 10.0117 22.495 9.603 22.5649 9.1703 C 22.658 8.8097 22.658 8.4972 22.3786 8.2568 Z"/><path id="ID0.5147991999983788" fill="#929191" stroke="none" stroke-width=".024" d="M 10.7829 18.7617 L 10.7829 18.7617 C 10.8528 18.7377 10.8993 18.7137 10.9459 18.6896 Z"/><path id="ID0.4724537907168269" fill="#929191" stroke="none" stroke-width=".024" d="M 8.827 18.8098 L 8.827 18.8098 Z"/><path id="ID0.17520350078120828" fill="none" stroke="none" stroke-linejoin="round" stroke-width="0" d="M 1167 1082 L 1167 1082 Z" transform="matrix(-0.023284487426280975,6.5995196182815084e-34,6.3924760330158365e-34,0.024038640782237053,36,-7.2)"/><path id="ID0.33534536231309175" fill="#484646" stroke="none" stroke-width=".024" d="M 7.8956 19.4829 L 7.8956 19.4829 C 7.9422 19.2665 8.175 19.1464 8.175 18.906 C 8.1052 18.8338 8.012 18.7858 7.8956 18.7617 C 7.3601 18.6175 6.8478 18.4492 6.3123 18.305 C 6.1726 18.281 6.0329 18.2088 5.8932 18.329 C 6.1493 18.5694 6.452 18.7137 6.7314 18.906 C 7.0341 19.0742 7.2902 19.2665 7.5929 19.4589 C 7.6861 19.5069 7.7792 19.6271 7.8956 19.4829 Z"/><path id="ID0.20975186489522457" fill="#929191" stroke="none" stroke-width=".024" d="M 19.794 10.6847 L 19.794 10.6847 C 19.4214 10.8771 19.1187 11.1415 18.816 11.4059 Z"/><path id="ID0.5071036396548152" fill="#016EDB" stroke="none" stroke-width=".024" d="M 11.9006 3.6895 L 11.9006 3.6895 C 10.9692 4.3866 10.0378 5.0597 9.0831 5.7328 C 8.1518 6.4059 7.1971 7.103 6.2657 7.8001 C 6.1726 7.8482 6.0329 7.9203 6.0329 8.0405 C 6.1959 8.5453 6.5218 8.8819 6.8944 9.2184 C 7.2437 9.5549 7.6395 9.8915 8.0353 10.1799 C 8.827 10.6847 9.642 11.1415 10.5268 11.3819 C 10.6432 11.4299 10.7829 11.5021 10.9226 11.478 C 11.4582 11.1896 11.9238 10.7809 12.3895 10.4203 C 13.7167 9.4588 15.0672 8.4732 16.3945 7.4876 C 16.5109 7.4155 16.6273 7.3434 16.7204 7.1991 C 16.7437 7.0068 16.6273 6.9107 16.5342 6.8145 C 15.9288 6.2616 15.3467 5.7088 14.7645 5.1559 C 14.6714 5.0597 14.5317 5.0116 14.4153 4.9395 C 13.7167 4.5789 12.9949 4.1943 12.2964 3.8337 C 12.18 3.7616 12.0635 3.6895 11.9006 3.6895 Z"/><path id="ID0.4422818198800087" fill="#9494B9" stroke="none" stroke-width=".024" d="M 8.0353 10.1078 L 8.0353 10.1078 C 7.2902 9.5069 6.5684 8.8819 6.0329 8.0405 C 5.7535 7.9924 5.637 8.2568 5.4973 8.4011 C 4.6358 9.0982 3.7976 9.7953 2.9593 10.4924 C 2.8429 10.6126 2.7032 10.7088 2.7265 10.9011 C 2.6333 11.0213 2.7032 11.1174 2.7498 11.2376 C 2.9127 11.6703 3.0757 12.1271 3.2853 12.5357 C 3.8208 13.2328 4.3797 13.8578 5.0782 14.3627 C 5.1481 14.3867 5.1713 14.3627 5.2179 14.3386 C 5.4973 13.7136 5.963 13.2088 6.3588 12.6559 C 6.8245 11.9828 7.3368 11.3819 7.8025 10.7088 C 7.9189 10.5405 8.1052 10.3722 8.0353 10.1078 Z"/><path id="ID0.223691841121763" fill="#0159B1" stroke="none" stroke-width=".024" d="M 5.2179 14.3146 L 5.2179 14.3146 C 5.1713 14.3146 5.1248 14.3146 5.1015 14.3146 C 4.7289 14.4107 4.4961 14.2665 4.2632 14.0021 C 4.077 13.7136 3.8441 13.4492 3.6113 13.2328 C 3.425 13.0405 3.4017 12.7761 3.3551 12.5357 C 3.1456 11.9828 2.936 11.454 2.7265 10.9011 C 2.61 10.829 2.5402 10.9011 2.4936 10.9732 C 2.0279 11.5021 1.5855 12.0309 1.1431 12.5598 C 1.0733 12.6559 1.0966 12.7521 1.1431 12.8723 C 1.3527 13.3771 1.4691 13.9059 1.6787 14.4107 C 1.7718 14.7232 2.0046 14.9396 2.2608 15.1319 C 3.262 15.805 4.2167 16.5502 5.2179 17.2473 C 5.3576 17.3194 5.4973 17.4156 5.6603 17.4156 C 6.2191 17.4156 6.7547 17.4877 7.2902 17.3915 C 7.3368 17.3675 7.3834 17.3194 7.3834 17.2954 C 7.3834 16.8867 7.4066 16.4781 7.3368 16.0694 C 7.3135 15.8531 7.104 15.7809 6.9642 15.6848 C 6.7081 15.5646 6.5451 15.3963 6.6383 15.0598 C 6.6383 15.0357 6.6383 15.0117 6.615 15.0117 C 6.1726 14.6992 5.7302 14.4107 5.2179 14.3146 Z"/><path id="ID0.610075845848769" fill="#D0D0FD" stroke="none" stroke-width=".024" d="M 11.9006 3.6895 L 11.9006 3.6895 C 12.6689 4.0982 13.4373 4.5309 14.229 4.9155 C 14.6016 5.0837 14.9275 5.3962 15.2302 5.6847 C 15.6959 6.1174 16.1616 6.5741 16.6273 7.0068 C 16.6739 7.0549 16.7204 7.127 16.6739 7.1991 C 17.0231 7.2232 17.3026 7.4876 17.6751 7.3915 C 17.9312 7.2232 18.2107 7.4155 18.4901 7.4395 C 18.9325 7.4876 19.3516 7.5838 19.794 7.6799 C 19.8406 7.704 19.8871 7.704 19.9104 7.6318 C 19.305 7.0309 18.6531 6.478 18.0942 5.853 C 17.4423 5.1318 16.6506 4.6751 15.8123 4.2905 C 14.9974 3.8818 14.1824 3.4732 13.3442 3.0645 C 12.8552 3.2087 12.3662 3.4491 11.9006 3.6895 Z"/><path id="ID0.7148164957761765" fill="#01458A" stroke="none" stroke-width=".024" d="M 5.5672 17.3194 L 5.5672 17.3194 C 4.9618 16.9829 4.4262 16.5261 3.8208 16.1415 C 3.3319 15.805 2.8429 15.3963 2.3539 15.0598 C 2.0745 14.8915 1.8649 14.6992 1.7485 14.4107 C 1.4691 14.0502 1.2828 13.6415 1.0034 13.2809 C 0.9336 13.1607 0.887 13.0405 0.7473 13.0405 C 0.6774 13.353 0.7473 13.6415 0.8637 13.93 C 1.1431 14.4107 1.376 14.9636 1.7485 15.3963 C 3.0525 16.3338 4.3564 17.2473 5.637 18.2088 C 5.7302 18.2569 5.8233 18.281 5.8932 18.329 C 6.5684 18.4492 7.2204 18.6896 7.8723 18.8579 C 7.9655 18.8819 8.0819 18.906 8.175 18.906 C 8.175 18.6656 8.2449 18.4252 8.1285 18.1848 C 7.4532 18.0406 6.8245 17.704 6.1726 17.5117 C 5.9863 17.4396 5.7767 17.3675 5.5672 17.3194 Z"/><path id="ID0.38432395039126277" fill="#7B1919" stroke="none" stroke-width=".024" d="M 0.7473 13.0405 L 0.7473 13.0405 C 1.0733 13.4492 1.3061 13.93 1.6088 14.3386 C 1.6554 14.3867 1.6787 14.4829 1.7485 14.4107 C 1.539 13.7857 1.3527 13.1607 1.1431 12.5598 C 0.9568 12.68 0.8171 12.8482 0.7473 13.0405 Z"/><path id="ID0.377463539596647" fill="#5D4444" stroke="none" stroke-width=".024" d="M 1.7485 15.3963 L 1.7485 15.3963 C 1.4691 14.8915 1.2363 14.3627 0.8637 13.93 C 1.0034 14.5069 1.2363 15.0357 1.7485 15.3963 Z"/><path id="ID0.5684583224356174" fill="#EEEEFE" stroke="none" stroke-width=".024" d="M 17.6751 7.3915 L 17.6751 7.3915 C 17.3258 7.3915 17.0464 7.079 16.6739 7.1991 C 15.2302 8.2568 13.7866 9.3145 12.3197 10.3963 C 11.854 10.7328 11.3883 11.0934 10.9226 11.4299 C 10.6898 11.6703 10.713 11.9828 10.6898 12.3194 C 10.4802 13.1607 10.2706 14.0502 10.0378 15.0117 C 13.2511 12.6319 16.3945 10.3242 19.5844 7.9443 C 18.9092 7.752 18.2805 7.5357 17.6751 7.3915 Z"/><path id="ID0.6117870477028191" fill="#A8A8D2" stroke="none" stroke-width=".024" d="M 10.6898 12.3194 L 10.6898 12.3194 C 10.8295 12.0309 10.8295 11.7184 10.9226 11.4299 C 10.0378 11.1655 9.1763 10.7809 8.3846 10.2761 C 8.2682 10.204 8.175 10.1559 8.0353 10.1078 C 7.6628 10.9011 7.0341 11.5501 6.5684 12.2713 C 6.1726 12.8242 5.7535 13.353 5.3343 13.8819 C 5.2412 14.0021 5.1946 14.1463 5.2179 14.3146 C 5.6836 14.555 6.1493 14.7954 6.5917 15.0357 C 6.7081 15.2281 6.8944 15.2761 7.0574 15.3002 C 7.7093 15.4204 8.3613 15.5165 9.0366 15.5886 C 9.1064 15.6127 9.1996 15.5886 9.2927 15.5406 C 9.642 14.9396 9.805 14.2665 10.0844 13.6175 C 10.2706 13.1607 10.4336 12.728 10.5966 12.2713 C 10.6199 12.2713 10.6199 12.2713 10.6199 12.2473 C 10.6432 12.2713 10.6665 12.2713 10.6898 12.3194 Z"/><path id="ID0.5621068137697875" fill="#0159B1" stroke="none" stroke-width=".024" d="M 9.2927 15.5406 L 9.2927 15.5406 C 8.6873 15.4444 8.0586 15.3482 7.4532 15.2521 C 7.1738 15.2281 6.8944 15.1319 6.5917 15.0357 C 6.4287 15.2521 6.4753 15.5886 6.7547 15.6848 C 7.2669 15.8771 7.3601 16.2136 7.2902 16.6944 C 7.2437 16.9108 7.3368 17.1031 7.3601 17.3194 C 7.4998 17.4636 7.6395 17.4636 7.7792 17.3194 C 8.2682 16.7184 8.7804 16.1415 9.2927 15.5406 Z"/><path id="ID0.3554665087722242" fill="#7A1A1A" stroke="none" stroke-width=".024" d="M 7.7792 17.3194 L 7.7792 17.3194 C 7.6395 17.3194 7.4998 17.3194 7.3601 17.3194 C 6.7547 17.3194 6.1726 17.3194 5.5672 17.3194 C 6.289 17.656 7.0341 17.8963 7.7792 18.2088 C 7.8956 18.2329 8.012 18.305 8.1285 18.1848 C 8.012 17.8963 7.8956 17.6079 7.7792 17.3194 Z"/><path id="ID0.9783568484708667" fill="#0159B1" stroke="#0159B1" stroke-width=".047" d="M 3.3551 12.5357 L 3.3551 12.5357 C 3.2154 12.8242 3.3551 13.0405 3.4949 13.2328 C 3.7976 13.5694 4.1003 13.8578 4.3564 14.2184 C 4.5892 14.4829 4.8221 14.5309 5.1015 14.3146 C 4.4495 13.7857 3.8907 13.1607 3.3551 12.5357 Z"/></g></g></g></g></g></g></g></g></svg>