<svg version="1.1" xmlns="http://www.w3.org/2000/svg" xmlns:xlink="http://www.w3.org/1999/xlink" width="111.60703" height="90.61672" viewBox="0,0,111.60703,90.61672"><g transform="translate(-367.14262,-260.27903)"><g data-paper-data="{&quot;isPaintingLayer&quot;:true}" fill-rule="nonzero" stroke-linejoin="miter" stroke-miterlimit="10" stroke-dasharray="" stroke-dashoffset="0" style="mix-blend-mode: normal"><path d="M376.34752,350.89575v-90.61672h102.40213v90.61672z" fill="#000000" stroke="none" stroke-width="0" stroke-linecap="butt"/><text transform="translate(367.79887,341.40183) scale(0.5,0.5)" font-size="40" xml:space="preserve" fill="none" fill-rule="nonzero" stroke="none" stroke-width="1" stroke-linecap="butt" stroke-linejoin="miter" stroke-miterlimit="10" stroke-dasharray="" stroke-dashoffset="0" font-family="Pixel" font-weight="normal" text-anchor="start" style="mix-blend-mode: normal"><tspan x="0" dy="0">Loading...</tspan></text><g fill="none" stroke="#ffffff" stroke-width="1.5"><path d="M403.64318,296.18978v0c-1.13435,-0.83844 -2.318,-1.67688 -3.50165,-2.46596c-0.39457,-0.29591 -0.39457,-0.44387 -0.14796,-0.78908c4.09348,-5.91831 8.18701,-11.83661 12.28049,-17.70562c0.34521,-0.59182 0.83844,-0.83844 1.47956,-0.54253c-0.29591,0.34527 0,0.49323 0.24662,0.64119c1.67688,1.0357 3.2551,2.21934 4.88262,3.3537c3.74827,2.61391 7.54583,5.12917 11.24479,7.74308c3.84686,2.66327 7.74308,5.32649 11.6393,7.98976c0.93709,0.64112 0.9371,0.98639 0.29591,1.92343c-1.87413,2.76187 -3.79757,5.52374 -5.721,8.23631c-2.17005,3.15644 -4.29079,6.26358 -6.46084,9.37066c-0.14795,0.14796 -0.24661,0.39457 -0.44387,0.44387c-0.44387,0.0493 -0.69049,-0.29592 -0.9864,-0.49317c-1.23295,-0.83844 -2.46595,-1.77553 -3.69896,-2.61392c-0.73978,-0.49323 -0.73978,-0.49323 -1.3316,0.0986c-0.83844,0.83844 -1.67682,1.67687 -2.46596,2.51531c-1.77548,1.97273 -3.64961,3.74826 -5.52374,5.62239c-1.08505,1.085 -1.08505,1.085 -2.318,0.24656c-3.99488,-2.90983 -8.03906,-5.81965 -12.03388,-8.68018c-0.24662,-0.19726 -0.49323,-0.34521 -0.64119,-0.59183c-0.64112,-0.49317 -1.18365,-0.93703 -1.82483,-1.3809c-0.49317,-0.29591 -0.44387,-0.49323 -0.0986,-0.83844c1.77548,-1.77553 3.50165,-3.60031 5.22782,-5.37578c0.64112,-0.8878 1.47957,-1.52892 2.17005,-2.31806c0.34521,-0.34521 0.69048,-0.64112 0.9864,-0.98633c0.44387,-0.49322 0.44387,-0.64119 -0.09866,-0.9864c-0.78908,-0.59183 -1.62752,-1.18365 -2.46596,-1.77547c-0.24662,-0.14801 -0.54253,-0.34527 -0.69048,-0.64118z" stroke-linecap="butt"/><path d="M450.94035,296.38703v0c-0.19732,4.04417 -0.19731,8.08835 -0.24661,12.08323c-0.0493,0.93709 -0.09866,1.82484 -0.09866,2.76187c0,0.24661 -0.09859,0.49322 -0.34521,0.64118c-1.92343,1.3316 -3.84692,2.71252 -5.81965,4.04418c-0.34527,-0.54252 -0.24662,-1.08506 -0.14796,-1.67688c0.19725,-1.0357 0,-2.07138 0.19726,-3.10708c0.0493,-0.34527 -0.09866,-0.44393 -0.39457,-0.24661c-0.78908,0.54253 -1.62752,1.08499 -2.4166,1.72618c-0.29591,0.19726 -0.29591,0.49316 -0.34527,0.83844c-0.24662,1.3809 -0.0986,2.76187 -0.29592,4.14278c0,0.29591 -0.0493,0.59182 -0.19725,0.83844c-2.2194,1.57822 -4.38945,3.15644 -6.60879,4.73466c-0.73978,0.49317 -1.43027,0.9864 -2.17005,1.52886c-0.49317,-0.0986 -0.39457,-0.44387 -0.39457,-0.73978c0,-0.88774 0,-1.82478 0,-2.71251c0,-2.2687 0,-4.58671 0,-6.90471c0,-0.59182 -0.14796,-1.0357 -0.78908,-1.13435c-0.49322,-0.24661 -0.14796,-0.49323 0,-0.73978c1.82477,-2.51531 3.55095,-5.07987 5.32649,-7.64448c1.82477,-2.61392 3.64961,-5.22783 5.42508,-7.84174c0.19732,-0.29597 0.39457,-0.64118 0.83844,-0.69048c1.62752,0 3.30439,0.0986 4.98127,0.24656c0.78908,0.09866 1.62752,0.04936 2.4166,0.24662c0.49322,0.09866 0.73978,-0.29592 1.08505,-0.39457z" stroke-linecap="butt"/><path d="M442.26018,296.38703v0c-2.46596,3.55101 -4.93192,7.10201 -7.34857,10.60367c-1.43027,2.02209 -2.81123,4.04417 -4.24149,6.06627c-0.0493,0.54252 -0.44387,0.88774 -0.73978,1.33161c-0.14796,0.14796 -0.39451,0.29591 -0.54247,-0.0493c1.57816,-2.318 3.20574,-4.5867 4.78396,-6.90471c2.61392,-3.74826 5.22783,-7.54582 7.89104,-11.34345c0.49322,-0.69043 0.44387,-0.93704 -0.24656,-1.43027c-3.00849,-2.07138 -6.01697,-4.14277 -8.97615,-6.21422c-2.26864,-1.47956 -4.48804,-2.95912 -6.70739,-4.53735c-2.61391,-1.87413 -5.32648,-3.6496 -7.9404,-5.47444c-1.47956,-1.08499 -2.95913,-2.17005 -4.53734,-3.15644c-0.19732,-0.0986 -0.44387,-0.19725 -0.39457,-0.44387c0.0493,-0.24661 0.34521,-0.04931 0.49316,-0.14796c2.76187,0.24661 5.42515,0.49323 8.18702,0.78914c0.44387,0.0493 0.93703,0.14796 1.38096,0.14796c1.72611,-0.04936 3.05778,0.69042 4.38939,1.62751c8.97609,6.21422 18.00154,12.37914 26.97763,18.54401c0.19725,0.09866 0.64113,0.14795 0.49317,0.59182c-0.14796,0.39457 -0.49316,0.24661 -0.73978,0.24661c-0.93703,-0.09866 -1.92343,-0.14796 -2.90983,-0.24661c-0.9864,-0.0493 -1.97278,0.09866 -2.95918,-0.0493c-1.47956,-0.14795 -3.00842,-0.19725 -4.48804,-0.34521c-0.69043,-0.09866 -1.28231,-0.04936 -1.82477,0.39451z" stroke-linecap="butt"/><path d="M415.33184,319.41913v0c0.54253,0.09866 0.59182,0.49316 0.59182,0.93704c0,2.2194 0,4.38945 0.04936,6.60879c-0.93709,-0.29591 -1.62758,-1.03569 -2.36736,-1.57822c-3.79756,-2.66321 -7.54582,-5.42509 -11.24479,-8.13766c-0.0986,-0.0493 -0.14795,-0.09865 -0.24655,-0.09865c-1.82484,-0.69048 -1.52893,-2.41666 -1.67688,-3.84687c-0.0493,-0.93709 0,-1.87413 0,-2.81122c1.92343,1.18365 3.64961,2.56462 5.47444,3.84692c2.56462,1.82478 5.17853,3.64961 7.69378,5.57304c0.59183,0.39457 0.9864,0.49323 1.38097,-0.14796c0.0986,-0.14796 0.24661,-0.24656 0.34521,-0.34521z" stroke-linecap="butt"/><path d="M440.82991,318.43275v0c0.0986,-1.77548 0.19726,-3.60031 0.29592,-5.37578c0,-0.29591 0.14795,-0.44387 0.34521,-0.59183c0.83844,-0.59182 1.67688,-1.18364 2.51532,-1.77553c0.19725,-0.0986 0.44387,-0.39451 0.64112,-0.29591c0.24662,0.14795 0.14796,0.49322 0.09866,0.73984c-0.19732,1.57816 -0.24661,3.20574 -0.29591,4.78396c-1.18365,0.83838 -2.41666,1.67682 -3.60031,2.51526z" stroke-linecap="butt"/><path d="M403.64318,296.18978v0c1.2823,0.78914 2.51531,1.77547 3.74826,2.61391c0.29591,0.14796 0.19732,0.29592 0,0.49323c-1.18365,1.18365 -2.41666,2.4166 -3.64961,3.6003c0,-1.92349 0,-3.84692 0,-5.77035c0,-0.29591 -0.04929,-0.59188 -0.09865,-0.93709z" stroke-linecap="butt"/><path d="M416.38514,326.75515l8.94646,-5.76004l6.12771,3.79922" stroke-linecap="round"/></g><g fill="#ffffff" stroke="none" stroke-width="1" stroke-linecap="butt"><path d="M402.00021,342.48625c0.33895,0.28259 0.70399,0.53233 1.09019,0.74583c0.38029,0.21983 0.80877,0.34289 1.24776,0.35833c0.31868,0.01005 0.63314,-0.07487 0.90344,-0.24395c0.27422,-0.16662 0.4385,-0.46709 0.43071,-0.78788c0,-0.53576 -0.38248,-0.92327 -1.14743,-1.16255c-0.72333,-0.19564 -1.43265,-0.43977 -2.12319,-0.73069c-0.78634,-0.48034 -1.23544,-1.36231 -1.16139,-2.28077c-0.01951,-0.85193 0.32148,-1.67254 0.93904,-2.25975c0.6131,-0.60182 1.44347,-0.93019 2.30236,-0.91044c0.63286,-0.01567 1.26489,0.05501 1.87865,0.2101c0.62552,0.19947 1.22685,0.46803 1.79286,0.80072l-1.00381,2.0018c-0.3018,-0.23812 -0.63483,-0.43369 -0.9898,-0.58128c-0.33108,-0.16419 -0.69203,-0.25949 -1.06102,-0.28013c-0.26528,-0.00973 -0.52593,0.07139 -0.73885,0.22994c-0.19895,0.1588 -0.30859,0.40417 -0.29415,0.65832c0,0.37234 0.37779,0.65401 1.13339,0.84504c0.73579,0.14201 1.44628,0.39298 2.10801,0.74464c0.79327,0.57127 1.22879,1.51673 1.14743,2.49089c0.04991,0.9776 -0.3361,1.92704 -1.05401,2.59248c-0.75839,0.64942 -1.73494,0.98688 -2.73248,0.94424c-0.63871,0.01425 -1.27487,-0.08535 -1.87866,-0.29415c-0.63308,-0.25496 -1.2309,-0.58996 -1.77886,-0.99683z"/><path d="M414.20595,338.67175l2.6963,-0.01518c-0.0286,0.24861 -0.04781,0.51241 -0.05719,0.78905c-0.00992,0.2778 -0.01479,0.59334 -0.01459,0.94663c0,0.60231 0.00972,1.59211 0.02918,2.96944c0.01868,1.37612 0.02822,2.10758 0.0286,2.19438h-2.72548l0.04318,-0.5591c-0.30902,0.248 -0.65324,0.44865 -1.02132,0.59529c-0.36227,0.13958 -0.74749,0.21006 -1.13572,0.20777c-0.92033,0.05107 -1.81586,-0.30895 -2.44476,-0.98281c-0.60699,-0.71678 -0.92035,-1.63665 -0.87716,-2.57491c-0.0369,-0.96735 0.26763,-1.91684 0.86024,-2.68229c0.61444,-0.75639 1.55123,-1.1765 2.52472,-1.13221c0.38469,-0.0016 0.76557,0.07628 1.11875,0.22877c0.35212,0.15964 0.68033,0.36744 0.97522,0.61746zM412.97218,343.64882c0.39576,0.01493 0.7774,-0.14826 1.04,-0.44471c0.26637,-0.30542 0.40731,-0.7003 0.39453,-1.10536c0.0128,-0.38627 -0.12633,-0.76217 -0.38752,-1.04703c-0.26329,-0.27909 -0.63445,-0.43062 -1.01782,-0.41554c-0.41255,-0.0143 -0.8134,0.13847 -1.11179,0.42371c-0.57258,0.6152 -0.58495,1.56447 -0.02859,2.19438c0.30302,0.27433 0.70302,0.41636 1.11119,0.39455z"/><path d="M419.8425,338.69977l1.43453,3.45732l1.53432,-3.45732h2.76808l-3.24139,6.94268h-2.09407c-0.34434,-0.83224 -0.67895,-1.60688 -1.00382,-2.32396c-0.19143,-0.4202 -0.55967,-1.18513 -1.10478,-2.29477c-0.38226,-0.75518 -0.75986,-1.51544 -1.1328,-2.28076z"/><path d="M427.51587,335.1864c0.37449,-0.00761 0.7354,0.1403 0.99683,0.40853c0.27015,0.26595 0.41823,0.63183 0.40911,1.01082c0.01133,0.37466 -0.14049,0.73579 -0.41611,0.98982c-0.27094,0.25566 -0.63138,0.39481 -1.00382,0.38752c-0.36861,0.00914 -0.72538,-0.13053 -0.9898,-0.38752c-0.266,-0.25373 -0.41193,-0.60835 -0.40153,-0.97581c-0.00224,-0.37702 0.1478,-0.73896 0.41612,-1.00381c0.25441,-0.27629 0.61365,-0.43228 0.98921,-0.42955zM426.19632,338.69977h2.65369v6.9135h-2.69632l0.04261,-3.59974z"/><path d="M429.95362,342.38588c0,-0.55445 -0.00467,-1.0085 -0.01401,-1.36216c-0.03851,-1.39604 -0.05757,-2.16096 -0.05719,-2.29477h2.68171v0.77387c0.24916,-0.22773 0.51189,-0.44017 0.78672,-0.63614c0.4703,-0.29644 1.017,-0.44898 1.57284,-0.43887c0.71881,-0.06153 1.42112,0.23864 1.8734,0.80072c0.38936,0.60893 0.57476,1.32599 0.52934,2.04732v1.97612c0,0.26613 0.00933,0.71551 0.0286,1.34465c0.01867,0.63029 0.02821,0.96919 0.02859,1.01666h-2.72548v-3.8005c0.01118,-0.3111 -0.08783,-0.61616 -0.27956,-0.86141c-0.19626,-0.2338 -0.49124,-0.36141 -0.79603,-0.34434c-0.33543,-0.00498 -0.64438,0.18165 -0.79603,0.48089c-0.18475,0.31533 -0.2813,0.67454 -0.27956,1.04c0,0.40153 0.00954,1.06842 0.0286,2.00063c0.01926,0.9326 0.02878,1.42751 0.02859,1.48472h-2.68174c0,-0.35367 0.01187,-0.88905 0.03561,-1.60611c0.02393,-0.71785 0.03559,-1.25711 0.03559,-1.62129z"/><path d="M443.59328,338.67175h2.71148v6.52603c0.05362,0.94823 -0.31416,1.87177 -1.00498,2.52355c-0.72812,0.62353 -1.66628,0.94655 -2.62393,0.90344c-1.11479,0.10948 -2.23791,-0.09637 -3.2414,-0.59412c-0.57721,-0.46795 -0.95639,-1.13666 -1.06159,-1.87224h2.68229c0.11287,0.21039 0.28796,0.38078 0.50132,0.4879c0.24878,0.08683 0.51179,0.12566 0.77504,0.1144c0.41042,0.02033 0.79975,-0.18281 1.01782,-0.53109c0.21364,-0.35372 0.31839,-0.76252 0.3012,-1.1754v-0.22994c-0.32336,0.21896 -0.67372,0.39512 -1.04234,0.52409c-0.35416,0.11972 -0.72569,0.18005 -1.09954,0.17858c-0.92452,0.05652 -1.82692,-0.29752 -2.46635,-0.96763c-0.60718,-0.72177 -0.91813,-1.64691 -0.87014,-2.5889c-0.03808,-0.93925 0.2941,-1.85591 0.92503,-2.55273c0.64794,-0.67336 1.55507,-1.03417 2.4885,-0.9898c0.37427,-0.00372 0.74531,0.06938 1.09019,0.21476c0.34011,0.15849 0.66614,0.34552 0.97464,0.55911zM440.88299,342.11391c0.00153,0.36772 0.1516,0.71919 0.41611,0.97464c0.24948,0.27509 0.60385,0.43159 0.97522,0.43071c0.42381,0.02162 0.8364,-0.14044 1.13221,-0.44471c0.28568,-0.3176 0.43531,-0.73462 0.41671,-1.16139c0.01332,-0.37921 -0.13874,-0.74552 -0.41671,-1.00381c-0.27505,-0.2581 -0.64077,-0.39735 -1.01782,-0.38752c-0.4131,-0.01535 -0.81188,0.15254 -1.08961,0.45872c-0.27926,0.31025 -0.42828,0.71613 -0.41611,1.13338z"/><path d="M448.95788,342.7022c0.40822,-0.0046 0.80112,0.15525 1.09018,0.44354c0.29778,0.27803 0.46436,0.66882 0.45872,1.07618c0.00869,0.41782 -0.15166,0.82144 -0.44471,1.11938c-0.28234,0.29996 -0.67832,0.46658 -1.09019,0.45872c-0.41951,0.00317 -0.82273,-0.16209 -1.11937,-0.45872c-0.29664,-0.29665 -0.46189,-0.69987 -0.45872,-1.11938c-0.00564,-0.40735 0.16094,-0.79816 0.45872,-1.07618c0.29387,-0.2904 0.69227,-0.45026 1.10537,-0.44354z"/><path d="M452.95914,342.7022c0.40831,-0.00504 0.80139,0.15488 1.09019,0.44354c0.29778,0.27803 0.46436,0.66882 0.45872,1.07618c0.00869,0.41782 -0.15166,0.82144 -0.44471,1.11938c-0.28234,0.29996 -0.67834,0.46656 -1.09019,0.45872c-0.4193,0.00286 -0.82224,-0.16254 -1.11863,-0.45914c-0.29638,-0.2966 -0.46147,-0.69966 -0.4583,-1.11896c-0.00564,-0.40735 0.16094,-0.79816 0.45872,-1.07618c0.29342,-0.29036 0.69146,-0.45026 1.1042,-0.44354z"/><path d="M456.9604,342.7022c0.40831,-0.00504 0.80139,0.15488 1.09019,0.44354c0.29778,0.27803 0.46436,0.66882 0.45872,1.07618c0.00869,0.41782 -0.15166,0.82144 -0.44471,1.11938c-0.28234,0.29996 -0.67832,0.46656 -1.09019,0.45872c-0.4193,0.00286 -0.82224,-0.16254 -1.11863,-0.45914c-0.29638,-0.2966 -0.46147,-0.69966 -0.4583,-1.11896c-0.00564,-0.40735 0.16094,-0.79816 0.45872,-1.07618c0.29342,-0.29036 0.69145,-0.45026 1.1042,-0.44354z"/></g></g></g></svg>