<svg version="1.1" xmlns="http://www.w3.org/2000/svg" xmlns:xlink="http://www.w3.org/1999/xlink" width="86.017" height="65.9746" viewBox="0,0,86.017,65.9746"><g transform="translate(-196.5575,-147.3651)"><g data-paper-data="{&quot;isPaintingLayer&quot;:true}" fill-rule="nonzero" stroke="none" stroke-linejoin="miter" stroke-miterlimit="10" stroke-dasharray="" stroke-dashoffset="0" style="mix-blend-mode: normal"><path d="M239.566,147.3651l43.0085,32.9873l-43.0085,32.9873l-43.0085,-32.9873l43.0085,-32.9873zM196.5575,147.3651zM282.5745,213.3397z" fill="#e4f1f5" stroke-width="0.04598" stroke-linecap="butt"/><g><path d="M237.47289,186.9551c1.15883,0 2.20973,0.29723 2.97049,0.77756c0.76076,0.48034 1.23136,1.14379 1.23136,1.87624c0,0.73245 -0.47061,1.3959 -1.23136,1.87624c-0.76076,0.48034 -1.81166,0.77756 -2.97049,0.77756c-1.15883,0 -2.20973,-0.29723 -2.97049,-0.77756c-0.76076,-0.48034 -1.23136,-1.14379 -1.23136,-1.87624c0,-0.73245 0.47061,-1.3959 1.23136,-1.87624c0.76076,-0.48034 1.81166,-0.77756 2.97049,-0.77756z" fill="#d2dde1" stroke-width="1" stroke-linecap="butt"/><g stroke-width="0.01418" stroke-linecap="butt"><g><g><path d="M233.0253,175.20134h4.38876v12.62722h-4.38876z" fill="none"/><path d="M236.23543,186.04795v0c-1.07842,0.38878 -1.88092,1.41695 -3.19756,1.75558c0.40125,-0.90291 0.68963,-1.6427 1.14105,-2.38249c0.33854,-0.68972 0.22575,-0.96554 -0.51413,-1.02826c-0.16303,-0.627 0.28847,-1.02826 0.46397,-1.47967c0.16303,-0.50157 0.79004,-0.95298 0,-1.46711c-0.1755,-0.06272 -0.06272,-0.3511 0,-0.51413c0.79004,-1.88092 1.70542,-3.76185 2.60824,-5.5299c0.12535,-0.17559 0.30094,-0.27591 0.51413,-0.11287c0.33854,0.51413 0,1.07842 -0.05016,1.65526c0,0.40125 -0.11287,0.78995 -0.16303,1.25392c0.10031,0.67716 -0.91538,1.07842 -0.46397,1.88092c0,0.11287 0.06272,0.22566 0.06272,0.27582c-0.3511,0.73988 -0.51413,1.49223 -0.28847,2.21955c0,0.12535 -0.06263,0.23822 -0.11279,0.27582c-0.8026,0.51413 -0.11287,0.80251 0.16294,1.14113c0.17559,0.46397 0.17559,0.91538 0.23831,1.42951c0,0.22566 -0.11287,0.45141 -0.40125,0.62692z" fill="#20a900"/></g></g><g><g><path d="M231.63338,174.71233h5.63021v9.70547h-5.63021z" fill="none"/><path d="M237.13825,175.22637v0c-0.96554,1.9938 -1.93108,4.05032 -2.95934,6.10674c0.28838,0.27591 0.51413,-0.12535 0.85267,0c-0.22566,1.12857 -0.85267,2.03139 -1.36679,3.05965c-0.45141,-0.11287 -0.96554,-0.17559 -1.41695,-0.33862c-0.22566,-0.06263 -0.91538,-0.06263 -0.46397,-0.68963c0.75244,-0.22566 1.14113,-0.90282 1.65526,-1.40439c0.11279,-0.17559 0.46397,-0.46397 -0.05016,-0.57685c-0.40125,-0.11287 -0.80251,-0.22566 -1.36679,-0.33854c0.85267,-0.73988 1.59246,-1.42951 2.33234,-2.05652c-0.3511,-0.51413 -0.96554,-0.22566 -1.36679,-0.62692c0.22566,-0.56429 0.91538,-0.73988 1.25392,-1.25401c0.91538,-0.78995 1.6427,-1.88092 2.79631,-2.38249c0.10031,0.05016 0.16303,0.10031 0.21319,0.22575c0,0.11287 -0.05016,0.1755 -0.11287,0.27582z" fill="#35db00"/></g></g><g><g><path d="M237.36391,175.10103h3.96248v10.72126h-3.96248z" fill="none"/><path d="M240.7245,185.75957v0h-0.11287l-0.06263,-0.06272c-0.22575,-0.22566 -0.68972,0 -0.85275,-0.38869c-0.23822,-0.40125 -0.33854,-0.85267 -0.23822,-1.31664c0.57685,-0.91538 0.30094,-1.6427 -0.38869,-2.31986c0.05016,-0.68963 -0.28847,-1.1912 -0.40125,-1.83077c-0.27591,-0.78995 -0.27591,-1.70533 -0.91538,-2.38249c-0.26335,-0.75235 -0.6646,-1.47958 -0.05016,-2.28218c0.78995,-0.28838 1.25392,0.40134 1.75549,0.73988c0.23822,0.51413 0.68972,0.62692 1.02826,0.91538c0.12535,0.56429 -1.07842,0.78995 -0.38869,1.52983c0.16294,0.57676 0.5642,1.09089 0.45141,1.65517c0.06263,0 0.05016,0 0.06263,0c-0.3511,0.17559 -0.51404,0.40125 -0.23822,0.627c0.80251,0.80251 0.85267,1.81821 0.75235,2.8339c0.10031,0.57676 0,1.20376 0.16303,1.83077c0.11287,0.56429 -0.22575,0.51413 -0.56429,0.45141z" fill="#209900"/></g></g><g><g><path d="M236.22286,185.30815h2.23202v4.57692h-2.23202z" fill="none"/><path d="M236.23543,186.04795v0c0.11279,-0.1755 0.16294,-0.40125 0.22566,-0.57676c0.11287,-0.11287 0.27591,-0.16303 0.45141,-0.16303c0.51413,0.11287 0.46397,0.56429 0.627,0.85267c0.33854,-0.68963 0.61444,-0.22575 0.85267,0.05016c0.10031,0.22575 0,0.46397 -0.06272,0.68963c0,0.56429 0.06272,1.19129 0,1.76814c0,0.50157 0.33862,1.25392 -0.68963,1.1912c-0.84019,0 -1.40439,-0.22566 -1.40439,-1.25392c0.05016,-0.85267 0,-1.70542 0,-2.55809z" fill="#7f471c"/></g></g><g><g><path d="M240.7245,183.36451h2.58312v2.99693h-2.58312z" fill="none"/><path d="M240.7245,185.75957v0c0.10031,-0.06272 0.45141,-0.17559 0.40125,-0.22575c-0.86523,-0.68963 0,-1.42951 -0.12535,-2.10659c0.05016,-0.01256 0.06263,-0.06272 0.12535,-0.06272c0.05016,0 0.05016,0.06272 0.10031,0.06272c0.627,0.96554 1.47967,1.75549 2.05652,2.90918c-0.96554,-0.17559 -1.76805,-0.28847 -2.55809,-0.57685z" fill="#35a700"/></g></g><g><g><path d="M238.26682,184.95706h2.30721v3.44835h-2.30721z" fill="none"/><path d="M238.32945,186.90061v0c-0.06263,-0.22566 -0.06263,-0.51404 -0.06263,-0.73979c0.06263,-0.06272 0.06263,-0.06272 0.12535,-0.11287c0.16303,0 0.33854,0 0.33854,-0.28838c0,-0.40125 0.22575,-0.68972 0.627,-0.79004c0.27591,-0.06263 0.40125,0.10031 0.50157,0.27591c0.23831,0.17559 0.46397,0.28838 0.68972,0.45141c-0.96554,-0.22566 -1.14113,0.17559 -0.79004,1.02826c0.10031,0.33854 0.21319,0.68963 0.33862,1.02826c0.05016,0.22566 0.33854,0.5642 -0.17559,0.62692c-0.40125,-0.51413 -0.73979,-0.96554 -1.07842,-1.47967c-0.1755,-0.22566 -0.3511,-0.22566 -0.51413,0z" fill="#35a700"/></g></g><g><g><path d="M240.0599,180.00392h2.18186v3.44835h-2.18186z" fill="none"/><path d="M241.00041,183.42723v0c-0.17559,-0.96554 -0.11287,-1.98124 -0.85267,-2.8339c-0.22575,-0.23831 0,-0.57685 0.46388,-0.57685c-0.46388,0.57685 0.11287,0.85267 0.38878,0.96554c0.80251,0.46397 0.85267,1.31664 1.1912,1.98124c0.12544,0.23822 -0.10031,0.17559 -0.27582,0.23822c-0.33862,-0.1755 -0.627,-0.23822 -0.85275,0.16303z" fill="#35a700"/></g></g><g><g><path d="M240.02231,178.34874h1.51727v1.8558h-1.51727z" fill="none"/><path d="M240.549,180.01648v0c-0.28847,-0.51413 -0.68972,-0.96554 -0.45141,-1.65517c0.78995,0.3511 1.36679,0.86523 1.41695,1.76805c-0.33862,0.1755 -0.627,-0.05016 -0.96554,-0.11287z" fill="#35a700"/></g></g><g><g><path d="M231.77138,181.94756h1.68021v1.44207h-1.68021z" fill="none"/><path d="M233.43912,181.96012v0c-0.33862,0.73979 -0.73988,1.35423 -1.65526,1.40439c0.51413,-0.51413 1.09098,-1.0157 1.65526,-1.40439z" fill="#3cdc00"/></g></g><g><g><path d="M239.45802,176.07913h1.05329v0.76491h-1.05329z" fill="none"/><path d="M239.45802,176.0916v0c0.12544,0 0.23822,0.05016 0.40125,0.05016c0.11287,0.3511 0.627,0.28847 0.627,0.68972c-0.45141,-0.12544 -0.90282,-0.17559 -1.02826,-0.73988z" fill="#66b500"/></g></g><g><g><path d="M236.10999,177.00698h1.52983v8.48924h-1.52983z" fill="none"/><path d="M236.9125,185.47119v0h-0.45141c-0.28838,-0.40134 -0.06272,-0.90291 -0.22566,-1.36688c0.28838,-0.45141 -0.3511,-0.90282 0,-1.35423v0c0.11279,-0.85267 0.45141,-1.65517 0.22566,-2.50784v0c-0.28838,-0.79004 0.57685,-1.30417 0.45141,-2.04396c-0.22566,-0.40125 0.06272,-0.73988 0,-1.14113c0.12544,-0.06263 0.22575,-0.06263 0.33862,0c0.38869,0.33862 0.38869,0.8026 0.33854,1.25401c0,1.93108 -0.05016,3.87463 0,5.85587c0,0.51413 -0.10031,1.0157 -0.67716,1.30417z" fill="#178e00"/></g></g><g><g><path d="M235.90936,180.22967h0.86523v2.53296h-0.86523z" fill="none"/><path d="M236.46109,180.24223v0c0.45141,0.80251 0.40125,1.88092 -0.22566,2.50784c-0.51413,-0.90282 -0.3511,-1.70533 0.22566,-2.50784z" fill="#179b00"/></g></g><g><g><path d="M235.25732,182.73751h1.3292v1.39192h-1.3292z" fill="none"/><path d="M236.23543,182.75007v0c0.16294,0.45141 0.67707,0.90282 0,1.35423c0,-0.05016 -0.06272,-0.05016 -0.06272,-0.11279c-0.33854,-0.17559 -0.90282,-0.17559 -0.90282,-0.67716c0,-0.46397 0.67707,-0.28838 0.96554,-0.56429z" fill="#179f00"/></g></g><g><g><path d="M235.98464,178.18571h0.99057v2.06899h-0.99057z" fill="none"/><path d="M236.9125,178.19827v0c0.17559,0.73979 -0.1755,1.41695 -0.45141,2.04396c-0.33854,-0.4515 -0.91538,-0.91538 0.11287,-1.30417c0.22566,-0.11279 0,-0.57676 0.33854,-0.73979z" fill="#179b00"/></g></g><g><g><path d="M236.90003,174.98815h0.67707v2.08155h-0.67707z" fill="none"/><path d="M237.13825,177.05714v0h-0.22575c0,-0.62692 0.33862,-1.20376 0.22575,-1.83077v-0.22566c0.61444,0.68963 0.50157,1.36679 0,2.05643z" fill="#209900"/></g></g><g><g><path d="M236.90003,174.73737h1.91852v11.57392h-1.91852z" fill="none"/><path d="M237.13825,177.05714v0c0.11287,-0.68963 0.50157,-1.36679 0,-2.05643v-0.17559c0.3511,-0.2131 0.50157,0.06272 0.73979,0.3511c-0.50157,0.8026 -0.12535,1.59254 0.16303,2.33234c0.17559,0.51413 0.3511,1.02826 0.45141,1.59254c0.23822,1.83077 -0.05016,3.64897 0.28838,5.46718c0.06272,0.56429 -0.1755,1.12857 -0.51404,1.59254v0c-0.05016,-0.06272 -0.17559,-0.11287 -0.17559,-0.06272c-0.8401,0.627 -0.77747,-0.45141 -1.17873,-0.62692c0.72732,-1.47967 0.28847,-3.05965 0.33862,-4.53932c0.06263,-0.96554 0.23822,-1.94364 0.12535,-2.90918c-0.06272,-0.33854 -0.06272,-0.67707 -0.23822,-0.96554z" fill="#177c00"/></g></g><g><g><path d="M238.2417,179.08854h1.9938v7.16004h-1.9938z" fill="none"/><path d="M238.26682,186.16082v0c0.33854,-2.3449 -0.11287,-4.71483 0,-7.05972c0.57676,0.06272 0.33854,0.57685 0.51404,0.91538c0.11287,0.51413 0.51413,1.02826 0.40134,1.59254c0.91538,0.62692 1.5423,1.24136 0.45141,2.26962c-0.56429,-0.22575 -0.38878,-0.80251 -0.627,-1.17873c0,-0.02503 0.06272,-0.06272 0,-0.06272c0,0.11287 0.06272,0.21319 0.06272,0.27591c0.11287,0.73979 0.56429,1.36679 0.33854,2.10659c-0.16303,0.22575 -0.51413,0.40134 -0.45141,0.8026c0.05016,0.61444 -0.40125,0.33854 -0.68963,0.33854z" fill="#179200"/></g></g><g><g><path d="M238.9063,182.48672h0.9781v2.78383h-0.9781z" fill="none"/><path d="M239.40787,185.01969v0c-0.11287,-0.73979 -0.51413,-1.47958 -0.45141,-2.26962c-0.11287,-0.22566 0,-0.28838 0.22575,-0.22566c0.1755,0.43885 0.27582,0.90282 0.45141,1.35423c-0.05016,0.45141 0.1755,0.91538 0.22566,1.36679c-0.16303,-0.06272 -0.27582,-0.17559 -0.45141,-0.22575z" fill="#17c200"/></g></g><g><g><path d="M238.04107,177.49608h0.94051v2.53296h-0.94051z" fill="none"/><path d="M238.7307,180.01648v0c-0.33854,-0.17559 -0.12535,-0.73979 -0.46388,-0.91538c-0.05016,-0.51413 -0.17559,-1.07842 -0.22575,-1.59254c0.627,0.627 0.627,1.54239 0.91538,2.28218c-0.11287,0.05016 -0.11287,0.22575 -0.22575,0.22575z" fill="#17ab00"/></g></g><g><g><path d="M238.7307,179.77826h0.65213v1.84324h-0.65213z" fill="none"/><path d="M238.7307,180.01648v0c0.05016,-0.05016 0.16303,-0.17559 0.22575,-0.22575c-0.06272,0.627 0.73979,1.14113 0.22575,1.81829c-0.22575,-0.51413 -0.4515,-1.0157 -0.4515,-1.59254z" fill="#17bc00"/></g></g><g><g><path d="M238.71823,181.99772h0.48901v0.76491h-0.48901z" fill="none"/><path d="M239.1822,182.52441v0c-0.06272,0.05016 -0.17559,0.1755 -0.22575,0.22566c-0.22575,-0.22566 -0.3511,-0.45141 -0.11287,-0.73979c0.11287,0.1755 0.22575,0.33854 0.33862,0.51413z" fill="#17b100"/></g></g></g><path d="M237.7825,174.39379c0.81737,0.1265 1.37821,0.96333 1.85766,1.63651c0.12031,0.16807 -0.31315,0.24857 -0.35384,0.4423c-0.12915,0.2698 0.15304,0.8156 -0.13269,0.8846c-0.47061,0.10704 -0.93414,-0.7006 -1.45959,-0.61922c-0.55641,0.03627 -1.04029,1.06594 -1.37113,0.92883c-0.2928,-0.12207 0.29015,-0.94387 0.22115,-1.41536c-0.05042,-0.34146 -0.85098,-0.54491 -0.66345,-0.84037c0.40603,-0.60064 1.19686,-1.13848 1.90189,-1.01729z" fill="#ffffff" stroke-width="1" stroke-linecap="round"/><path d="M235.26139,178.94948c0.17427,-0.2123 0.50864,-0.78199 0.66345,-0.66345c0.10881,0.15215 0.00265,0.8386 -0.13269,1.23844c-0.13357,0.43965 -0.4078,0.79702 -0.75191,1.19421c-0.22823,0.26184 -0.72803,0.79614 -0.84037,0.61922c-0.14773,-0.23973 0.19196,-1.0279 0.39807,-1.50382c0.16188,-0.37242 0.42992,-0.60064 0.66345,-0.8846z" fill="#ffffff" stroke-width="1" stroke-linecap="round"/><path d="M239.94977,182.5321c0.19196,0.4653 0.24592,1.01729 0.39807,1.45959c0.09642,0.28042 0.42284,0.5113 0.39807,0.79614c-0.02211,0.25123 -0.2813,0.77402 -0.4423,0.61922c-0.46265,-0.45115 -0.70856,-1.16502 -0.8846,-1.81343c-0.22823,-0.84656 -0.38303,-2.47688 -0.26538,-2.69803c0.092,-0.19727 0.57234,1.0916 0.79614,1.63651z" fill="#ffffff" stroke-width="1" stroke-linecap="round"/><path d="M232.65182,182.57633c0.15038,0.01946 0.03804,0.37242 0.00177,0.57322c-0.05396,0.33172 0.04246,0.8041 -0.22292,0.97483c-0.22203,0.13534 -0.7121,-0.11057 -0.84037,-0.39807c-0.06723,-0.25476 0.25123,-0.50599 0.4423,-0.70768c0.19196,-0.20169 0.45911,-0.48741 0.61922,-0.4423z" fill="#ffffff" stroke-width="1" stroke-linecap="round"/></g></g></g></svg>