<svg version="1.1" xmlns="http://www.w3.org/2000/svg" xmlns:xlink="http://www.w3.org/1999/xlink" width="78.9019" height="60.52263" viewBox="0,0,78.9019,60.52263"><g transform="translate(-200.54905,-149.80165)"><g data-paper-data="{&quot;isPaintingLayer&quot;:true}" fill-rule="nonzero" stroke-linejoin="miter" stroke-miterlimit="10" stroke-dasharray="" stroke-dashoffset="0" style="mix-blend-mode: normal"><path d="M205.80217,171.54445l23.11374,-17.75137l45.17686,34.66247l-23.11374,17.75137l-45.17686,-34.66247" fill="#2c2d2e" stroke="none" stroke-width="1.00875" stroke-linecap="butt"/><g stroke="none" stroke-linecap="butt"><path d="M263.27133,197.01884l-45.38698,-34.87256" fill="#000000" stroke-width="1.00875"/><path d="M262.88975,197.27291l-45.435,-34.83962l0.70329,-0.91687l45.4351,34.83973z" fill="#ffffff" stroke-width="1.00869"/></g><g stroke="none" stroke-linecap="butt"><path d="M278.1902,183.88908l-32.14911,24.57878" fill="#000000" stroke-width="1.00875"/><path d="M246.74984,209.16102l-1.21452,-1.584l32.10446,-24.60346l1.21442,1.584z" fill="#2c2d2e" stroke-width="1.00874"/></g><g stroke="none" stroke-linecap="butt"><g fill="#000000"><path d="M237.21584,202.16562l31.20355,-24.57878" stroke-width="1.00875"/><path d="M237.59607,202.53181l-0.65097,-0.82447l31.17119,-24.60077l0.65097,0.82447z" stroke-width="1.00866"/></g><g fill="#2c2d2e" stroke-width="1.00875"><path d="M237.84622,203.00599l-1.26075,-1.57563l31.20355,-24.68388l1.26075,1.68063l-31.20355,24.57889"/><path d="M237.74116,203.84626l-1.78606,-2.4159l32.04405,-25.31406l1.78606,2.4158zM237.32091,201.43035l0.63037,0.73527l30.36305,-23.94861l-0.63037,-0.73527z"/></g></g><g stroke="none" stroke-linecap="butt"><g fill="#000000"><path d="M228.07541,195.23311l31.20355,-24.57878" stroke-width="1.00875"/><path d="M228.37978,195.52383l-0.65097,-0.82447l31.1713,-24.60077l0.65097,0.82447z" stroke-width="1.00866"/></g><g fill="#2c2d2e" stroke-width="1.00875"><path d="M228.60072,196.07347l-1.15569,-1.68063l31.20355,-24.57878l1.15569,1.57554l-31.20355,24.68388"/><path d="M228.49566,196.80875l-1.78606,-2.4159l32.04405,-25.31406l1.78606,2.4158zM228.18047,194.49784l0.63037,0.73527l30.36305,-23.94861l-0.63037,-0.73527z"/></g></g><g stroke="none" stroke-linecap="butt"><g fill="#000000"><path d="M219.1451,188.40568l31.20355,-24.68388" stroke-width="1.00875"/><path d="M219.5165,188.60835l-0.65097,-0.82436l31.17119,-24.60077l0.65097,0.82436z" stroke-width="1.00866"/></g><g fill="#2c2d2e" stroke-width="1.00875"><path d="M219.77548,189.14096l-1.26075,-1.57554l31.20355,-24.68388l1.15569,1.68063l-31.09849,24.57878"/><path d="M219.56535,189.98122l-1.78606,-2.4158l32.04405,-25.31416l1.78606,2.4159zM219.25016,187.56542l0.63037,0.73527l30.36305,-23.94861l-0.63037,-0.73527z"/></g></g><g stroke="none" stroke-linecap="butt"><g fill="#000000"><path d="M241.41834,156.4742l-31.20355,24.57889" stroke-width="1.00875"/><path d="M210.48028,181.3944l-0.65097,-0.82436l31.17119,-24.60077l0.65097,0.82436z" stroke-width="1.00866"/></g><g fill="#2c2d2e" stroke-width="1.00875"><path d="M210.7401,181.89336l-1.15569,-1.57554l31.20355,-24.68388l1.15569,1.68053l-31.20355,24.57889"/><path d="M210.63504,182.73363l-1.78606,-2.4158l32.04405,-25.31416l1.78606,2.4159zM210.31985,180.31782l0.63037,0.73527l30.36305,-23.94861l-0.63037,-0.73527z"/></g></g><path d="M279.45095,184.46412l-5.35819,3.99143l-45.17686,-34.66247l5.25312,-3.99143" fill="#c2c1ba" stroke="none" stroke-width="1.00875" stroke-linecap="butt"/><path d="M200.54905,175.53588l5.25312,-3.99143l45.17686,34.66247l-5.14806,3.99143" fill="#c2c1ba" stroke="none" stroke-width="1.00875" stroke-linecap="butt"/><g stroke="none" stroke-linecap="butt"><path d="M225.76404,156.3692l-14.39356,11.02895" fill="#000000" stroke-width="1.00875"/><path d="M211.61244,167.81886l-0.57532,-0.75034l14.42613,-11.05558l0.57532,0.75034z" fill="#2c2d2e" stroke-width="1.00874"/></g><path d="M274.42883,188.19394l-44.84187,-34.47192" data-paper-data="{&quot;index&quot;:null}" fill="#b5b5b5" stroke="#d8d8d1" stroke-width="1" stroke-linecap="round"/><path d="M201.23978,175.35236l44.84187,34.47192" data-paper-data="{&quot;index&quot;:null}" fill="#e8e8e8" stroke="#d8d8d8" stroke-width="1" stroke-linecap="round"/><path d="M242.17662,173.76553c-0.66681,-0.58909 -1.70819,-0.30842 -2.07147,-1.05182c-0.03547,-0.07259 0.3401,-1.03737 0.33867,-1.11743c-0.01099,-0.61926 -1.62234,-1.48788 -1.26145,-2.02312c0.16683,-0.24745 1.80033,-0.29355 1.93203,-0.56061c0.19133,0.05734 0.184,0.20386 0.22911,0.31569c0.1401,0.34754 0.99397,-1.44474 1.1553,-1.10076c0.13983,0.29816 -0.57624,2.43888 -0.31612,2.2454c0.33598,-0.24993 0.66257,-0.50849 1.00742,-0.75018c0.09138,-0.06403 0.2142,-0.1698 0.30949,0.05113c0.03779,0.45647 -0.03953,0.89325 -0.06292,1.33899c-0.00937,0.1786 0.82666,1.24599 0.81263,1.4235c-0.91389,2.60929 -1.33711,0.44542 -1.76356,1.03357c-0.0708,0.09764 -0.13347,0.20427 -0.30909,0.19561z" data-paper-data="{&quot;index&quot;:null}" fill="#282828" stroke="none" stroke-width="1" stroke-linecap="butt"/><path d="M245.37634,171.3044c-0.77613,0.43507 -0.85482,1.51074 -1.67645,1.60837c-0.08022,0.00953 -0.86704,-0.66336 -0.94309,-0.68843c-0.5882,-0.19397 -1.93988,1.0405 -2.32605,0.52321c-0.17854,-0.23914 0.31696,-1.79636 0.10833,-2.0088c0.11727,-0.16169 0.25315,-0.10643 0.37361,-0.1121c0.37431,-0.01757 -1.03582,-1.41503 -0.65787,-1.45382c0.3276,-0.03361 2.11212,1.34875 2.01531,1.03935c-0.12506,-0.39963 -0.26138,-0.79324 -0.37573,-1.19854c-0.03029,-0.10739 -0.08961,-0.25823 0.15039,-0.27528c0.44338,0.11495 0.83018,0.33207 1.24322,0.50124c0.16551,0.06778 1.44898,-0.3692 1.61192,-0.29739c2.16157,1.72371 -0.02075,1.40919 0.39374,2.00583c0.06881,0.09906 0.14879,0.1934 0.08266,0.35632z" data-paper-data="{&quot;index&quot;:null}" fill="#282828" stroke="none" stroke-width="1" stroke-linecap="butt"/><path d="M219.43799,177.06122c-0.78883,-0.69689 -2.02078,-0.36486 -2.45054,-1.24429c-0.04196,-0.08587 0.40233,-1.2272 0.40064,-1.32191c-0.013,-0.73257 -1.91922,-1.76015 -1.49229,-2.39333c0.19736,-0.29273 2.12977,-0.34727 2.28557,-0.6632c0.22635,0.06784 0.21768,0.24116 0.27103,0.37346c0.16574,0.41114 1.17585,-1.70911 1.36671,-1.30219c0.16542,0.35272 -0.68168,2.88517 -0.37397,2.65628c0.39746,-0.29567 0.78381,-0.60154 1.19177,-0.88746c0.1081,-0.07575 0.2534,-0.20087 0.36613,0.06048c0.0447,0.54001 -0.04676,1.05671 -0.07444,1.58401c-0.01109,0.21129 0.97793,1.47399 0.96133,1.68399c-1.08112,3.08676 -1.58178,0.52693 -2.08627,1.22271c-0.08376,0.11551 -0.15789,0.24165 -0.36565,0.2314z" data-paper-data="{&quot;index&quot;:null}" fill="#282828" stroke="none" stroke-width="1" stroke-linecap="butt"/><path d="M244.31619,194.11263c-0.48412,-0.67572 -1.49103,-0.6377 -1.66653,-1.39052c-0.01713,-0.07351 0.5264,-0.87357 0.54183,-0.94677c0.11936,-0.56619 -1.16646,-1.69377 -0.72602,-2.10575c0.20361,-0.19047 1.70069,0.1088 1.8764,-0.10687c0.16225,0.09219 0.12496,0.22406 0.14267,0.33532c0.05497,0.34574 1.20692,-1.10792 1.28196,-0.76099c0.06504,0.30072 0.13397,1.06205 0.41125,0.9402c0.35815,-0.1574 -0.45864,0.71378 -0.09412,0.56574c0.09659,-0.03921 0.23052,-0.10987 0.27113,0.11121c-0.06095,0.42356 -0.2226,0.80513 -0.33702,1.20612c-0.04585,0.16067 0.49245,1.30728 0.44259,1.46599c-1.37727,2.18507 -1.31061,0.12626 -1.8218,0.57274c-0.08487,0.07412 -0.16421,0.15812 -0.32232,0.11354z" data-paper-data="{&quot;index&quot;:null}" fill="#282828" stroke="none" stroke-width="1" stroke-linecap="butt"/></g></g></svg>