<svg version="1.1" xmlns="http://www.w3.org/2000/svg" xmlns:xlink="http://www.w3.org/1999/xlink" width="78.99964" height="39.00977" viewBox="0,0,78.99964,39.00977"><g transform="translate(-200.28691,-149.40484)"><g data-paper-data="{&quot;isPaintingLayer&quot;:true}" fill-rule="nonzero" stroke="none" stroke-linecap="butt" stroke-linejoin="miter" stroke-miterlimit="10" stroke-dasharray="" stroke-dashoffset="0" style="mix-blend-mode: normal"><path d="M239.78673,182.70319c13.41304,0 25.45309,-4.09489 34.2191,-10.88389l5.28072,4.09499c-10.13899,7.75876 -24.0801,12.50032 -39.49982,12.50032c-15.41972,0 -29.36083,-4.74156 -39.49982,-12.50032l5.28072,-4.09499c8.766,6.68128 20.80605,10.88389 34.2191,10.88389z" fill="#c2c1ba" stroke-width="1.01022"/><path d="M205.46202,171.8193l8.23793,-6.46572l2.74598,2.80185l5.0695,-5.17258l-2.11229,-2.15527l9.18846,-7.22002c2.85159,2.15527 6.75933,3.55615 11.08952,3.55615c4.33019,0 8.23793,-1.40087 11.08952,-3.55615l9.29408,7.32774l-1.16176,1.18542l5.0695,5.17258l1.79545,-1.83199l8.13232,6.35799c-8.766,6.68128 -20.91167,10.88389 -34.2191,10.88389c-13.30743,0 -25.34748,-4.20261 -34.2191,-10.88389zM229.22528,162.65957l-3.27405,11.09945l2.85159,0.86213l3.27405,-11.09956zM251.72117,174.40559l2.74598,-1.07758l-4.22458,-10.77627l-2.74598,1.07769zM241.15972,162.98285h-2.85159v13.14689h2.85159z" fill="#2c2d2e" stroke-width="1.01022"/><path d="M228.69721,153.60756l5.28072,-4.20272c1.4786,1.18542 3.48528,1.83199 5.8088,1.83199c2.2179,0 4.33019,-0.7544 5.8088,-1.83199l5.28072,4.20272c-2.85159,2.15527 -6.75933,3.55615 -11.08952,3.55615c-4.33019,0 -8.23793,-1.29314 -11.08952,-3.55615z" fill="#c2c1ba" stroke-width="1.01022"/><path d="M239.68112,169.5563c8.766,0 16.7927,-2.69401 22.6015,-7.00456l0.95053,0.7544c-6.02003,4.63373 -14.36357,7.43558 -23.55203,7.43558c-9.08285,0 -17.42639,-2.80185 -23.44642,-7.32785l0.95053,-0.7543c5.8088,4.31044 13.72988,6.89673 22.49589,6.89673z" fill="#ffffff" stroke-width="1.01022"/><path d="M216.47415,169.55083l-3.34325,-3.59158l6.81033,-5.58691l2.47648,2.66047l-5.94356,6.51802" fill="#2c2d2e" stroke-width="1.01022"/><path d="M258.76692,162.1918l1.21098,-1.23558l6.05488,4.71769l-1.98154,1.90962l-5.28432,-5.39173" fill="#2c2d2e" stroke-width="1.05302"/><path d="M238.08051,162.98285h3.42064v13.2607h-3.42064z" fill="#2c2d2e" stroke-width="1.01022"/><path d="M229.19876,162.6997l3.13688,0.95518l-3.37368,11.13546l-3.13688,-0.95507z" fill="#2c2d2e" stroke-width="1.05545"/><path d="M250.52794,162.58311l4.2363,10.80605l-3.13802,1.28079l-4.2363,-10.80616z" fill="#2c2d2e" stroke-width="1.0837"/><path d="M227.1658,161.70741h23.65765v5.92687h-23.65765z" fill="#2c2d2e" stroke-width="1.01022"/><path d="M225.05351,169.08304h3.53809v4.47214h-3.53809z" fill="#2c2d2e" stroke-width="1.01022"/></g></g></svg>