<svg version="1.1" xmlns="http://www.w3.org/2000/svg" xmlns:xlink="http://www.w3.org/1999/xlink" width="86.017" height="65.9746" viewBox="0,0,86.017,65.9746"><g transform="translate(-196.9915,-147.0127)"><g data-paper-data="{&quot;isPaintingLayer&quot;:true}" fill-rule="nonzero" stroke="none" stroke-linecap="butt" stroke-linejoin="miter" stroke-miterlimit="10" stroke-dasharray="" stroke-dashoffset="0" style="mix-blend-mode: normal"><path d="M240,147.0127l43.0085,32.9873l-43.0085,32.9873l-43.0085,-32.9873z" fill="#70a12e" stroke-width="0.04598"/><path d="M254.5928,176.79189c0.50349,0.49206 0.96319,1.01574 1.22148,1.6852c0.02522,0.06537 0.06466,0.12415 0.06274,0.20007c-0.01483,0.58728 0.0246,1.17907 -0.28029,1.72426c-0.14096,0.25205 -0.23256,0.53165 -0.34655,0.79876c-0.14872,-0.03505 -0.13738,-0.17501 -0.16869,-0.2767c-0.0973,-0.31601 -0.19025,-0.63332 -0.30442,-0.94379c-0.09897,-0.26911 -0.10148,-0.26887 -0.31393,-0.05864c-0.27444,0.27158 -0.5418,0.55041 -0.82292,0.81504c-0.07449,0.07012 -0.17535,0.18307 -0.24213,-0.01718c-0.01248,-0.42989 0.06506,-0.85275 0.10042,-1.27865c0.01417,-0.17065 0.01883,-0.34197 0.03662,-0.51207c0.27015,-0.63884 0.44786,-1.31694 0.80651,-1.91908c0.05954,-0.09996 0.11301,-0.20764 0.25117,-0.21724z" fill="#27211a" stroke-width="1"/><path d="M254.5928,176.79189c-0.23775,0.21979 -0.35745,0.51053 -0.47734,0.79994c-0.17741,0.42826 -0.30837,0.87523 -0.51991,1.28982c-0.17783,0.07184 -0.33551,-0.03119 -0.49818,-0.06578c-0.30208,-0.06423 -0.34443,-0.04806 -0.42457,0.25641c-0.08172,0.31049 -0.15508,0.62333 -0.2608,0.92702c-0.02282,0.06556 -0.03632,0.1379 -0.10351,0.17836c-0.12506,-0.46948 -0.24832,-0.93946 -0.37671,-1.40803c-0.01532,-0.03633 -0.01472,-0.07742 0.00164,-0.1133c0.01636,-0.03587 0.047,-0.06326 0.08448,-0.07551c0.62525,-0.29838 1.07169,-0.77757 1.39984,-1.3777c0.02073,-0.04214 0.0549,-0.07616 0.09713,-0.0967c0.34084,-0.12049 0.68377,-0.23513 1.02703,-0.34865c0.01189,-0.00393 0.03371,0.02207 0.0509,0.03413z" fill="#795335" stroke-width="1"/><path d="M252.30849,180.17765c0.12468,-0.44118 0.25356,-0.88123 0.37189,-1.3241c0.04469,-0.16729 0.14544,-0.18159 0.2845,-0.14321c0.20999,0.05796 0.42042,0.11428 0.63067,0.1713c0.00336,0.52528 -0.08147,1.04313 -0.13086,1.564c-0.01036,0.10918 -0.00803,0.21957 -0.01154,0.3294c-0.02644,0.02487 -0.00914,0.07221 -0.04697,0.09123c-0.37766,-0.21084 -0.75766,-0.41796 -1.09769,-0.68863z" fill="#6d4a2f" stroke-width="1"/><path d="M253.40619,180.86628c-0.0027,-0.03681 0.01543,-0.07204 0.04697,-0.09123c0.10836,0.04604 0.129,-0.06355 0.17597,-0.1091c0.31054,-0.30115 0.61779,-0.6059 0.9186,-0.91673c0.12162,-0.12566 0.1801,-0.11434 0.23419,0.0529c0.15124,0.46759 0.31154,0.93224 0.46826,1.39807c-0.17113,0.08268 -0.32771,-0.01799 -0.48609,-0.04809c-0.45431,-0.08634 -0.91593,-0.14061 -1.35791,-0.28581z" fill="#503825" stroke-width="1"/><path d="M248.14719,177.65429c0.06415,-0.04248 0.12742,-0.10974 0.1975,-0.00837c0.18978,0.27452 0.41793,0.52269 0.43308,0.89178c0.00772,0.18816 -0.03484,0.29455 -0.20934,0.35745c-0.0937,0.03916 -0.18515,0.08353 -0.27391,0.13288c-0.09231,0.04275 -0.14526,-0.01197 -0.14834,-0.0879c-0.0147,-0.36227 -0.16938,-0.69769 -0.19565,-1.05701c0.01388,-0.12038 0.10973,-0.17077 0.19666,-0.22882z" fill="#27201a" stroke-width="1"/><path d="M248.14719,177.65429c-0.0485,0.06156 -0.09701,0.12313 -0.14551,0.18469c-0.07406,0.36527 -0.25724,0.70291 -0.27428,1.08289c0.00071,0.04811 -0.02397,0.09305 -0.06497,0.11825c-0.0074,-0.00264 -0.01679,-0.00323 -0.0219,-0.00821c-0.12441,-0.12124 -0.34946,-0.18805 -0.3436,-0.38205c0.00859,-0.28446 0.10967,-0.55326 0.35393,-0.7388c0.14745,-0.11662 0.31595,-0.2038 0.49632,-0.25678z" fill="#765135" stroke-width="1"/><path d="M247.66243,179.04013c0.00095,-0.43198 0.13265,-0.82711 0.33926,-1.20114c0.00122,0.2548 0.12825,0.48188 0.16221,0.73083c0.01548,0.09218 0.02526,0.18523 0.0293,0.27861c0.00101,0.07871 -0.01026,0.1635 0.10133,0.17959c-0.20894,0.0963 -0.42064,0.04804 -0.6321,0.01211z" fill="#4c3624" stroke-width="1"/></g></g></svg>