<svg version="1.1" xmlns="http://www.w3.org/2000/svg" xmlns:xlink="http://www.w3.org/1999/xlink" width="322.46759" height="177.84026" viewBox="0,0,322.46759,177.84026"><defs><linearGradient x1="140.12444" y1="244.47915" x2="360.81579" y2="23.7878" gradientUnits="userSpaceOnUse" id="color-1"><stop offset="0" stop-color="#9c712d"/><stop offset="0.27765" stop-color="#ceab55"/><stop offset="0.51453" stop-color="#e7f386"/><stop offset="0.63855" stop-color="#f4ffcc"/><stop offset="1" stop-color="#b57305"/></linearGradient><linearGradient x1="6282.17662" y1="19044.28538" x2="21168.26314" y2="1297.05447" gradientUnits="userSpaceOnUse" id="color-2"><stop offset="0" stop-color="#9c712d"/><stop offset="0.27765" stop-color="#ceab55"/><stop offset="0.51453" stop-color="#e7f386"/><stop offset="0.63855" stop-color="#f4ffcc"/><stop offset="1" stop-color="#b57305"/></linearGradient><linearGradient x1="4043.49231" y1="23098.63176" x2="18291.09164" y2="-491.74159" gradientUnits="userSpaceOnUse" id="color-3"><stop offset="0" stop-color="#9c712d"/><stop offset="0.27765" stop-color="#ceab55"/><stop offset="0.51453" stop-color="#e7f386"/><stop offset="0.63855" stop-color="#f4ffcc"/><stop offset="1" stop-color="#b57305"/></linearGradient><linearGradient x1="11104.21554" y1="25499.41061" x2="35642.99016" y2="6609.2042" gradientUnits="userSpaceOnUse" id="color-4"><stop offset="0" stop-color="#9c712d"/><stop offset="0.27765" stop-color="#ceab55"/><stop offset="0.51453" stop-color="#e7f386"/><stop offset="0.63855" stop-color="#f4ffcc"/><stop offset="1" stop-color="#b57305"/></linearGradient><linearGradient x1="364.45395" y1="37035.00604" x2="10170.23733" y2="4396.11207" gradientUnits="userSpaceOnUse" id="color-5"><stop offset="0" stop-color="#9c712d"/><stop offset="0.27765" stop-color="#ceab55"/><stop offset="0.51453" stop-color="#e7f386"/><stop offset="0.63855" stop-color="#f4ffcc"/><stop offset="1" stop-color="#b57305"/></linearGradient><linearGradient x1="3978.13165" y1="33590.53243" x2="18225.94693" y2="10000.39833" gradientUnits="userSpaceOnUse" id="color-6"><stop offset="0" stop-color="#9c712d"/><stop offset="0.27765" stop-color="#ceab55"/><stop offset="0.51453" stop-color="#e7f386"/><stop offset="0.63855" stop-color="#f4ffcc"/><stop offset="1" stop-color="#b57305"/></linearGradient><linearGradient x1="9735.68728" y1="32075.43133" x2="24621.92014" y2="14328.02724" gradientUnits="userSpaceOnUse" id="color-7"><stop offset="0" stop-color="#9c712d"/><stop offset="0.27765" stop-color="#ceab55"/><stop offset="0.51453" stop-color="#e7f386"/><stop offset="0.63855" stop-color="#f4ffcc"/><stop offset="1" stop-color="#b57305"/></linearGradient><radialGradient cx="118.65097" cy="294.58665" r="84.18074" gradientUnits="userSpaceOnUse" id="color-8"><stop offset="0" stop-color="#ffcc00"/><stop offset="1" stop-color="#ffffff"/></radialGradient></defs><g transform="translate(-78.7662,-91.07988)"><g data-paper-data="{&quot;isPaintingLayer&quot;:true}" fill-rule="nonzero" stroke="none" stroke-width="1" stroke-linecap="butt" stroke-linejoin="miter" stroke-miterlimit="10" stroke-dasharray="" stroke-dashoffset="0" style="mix-blend-mode: normal"><g fill="#000000" opacity="0.2"><path d="M134.79408,226.57435c8.82866,0.1088 25.81738,-1.10335 29.82191,4.43117c2.77428,2.96808 3.47213,8.9077 2.41328,14.16791c-1.94785,9.37803 -11.38917,9.85297 -20.85518,9.67118l-0.11986,4.55234c-0.02827,1.73392 0.38147,7.57397 0.35958,9.52319l-11.61973,-0.05993c0.15438,-11.58535 0.27765,-31.0354 0,-42.28585zM147.7912,245.08169c6.54721,0.7081 10.63898,-3.97713 6.01963,-7.99631c-1.86278,-1.38099 -5.5035,-1.18726 -7.7566,-1.16765v9.16394z"/><path d="M183.6682,226.39456c22.18221,-1.02546 18.89591,22.04412 8.86429,25.41988l12.21902,17.10565h-14.1957l-9.94237,-14.67448l0.17946,14.67448h-11.43962c-0.03492,-6.87925 0.16675,-36.35158 -0.29932,-42.52554zM181.93123,245.26147c10.01604,0.04036 7.89181,-10.91701 -1.43765,-9.22387v9.22387z"/><path d="M206.66729,226.57435h25.03602v9.88244h-13.47655v6.10951h11.79985v9.88275h-11.79985v6.70814h14.01558v9.7629h-25.57506z"/><path d="M238.82999,226.45448h13.5368c1.39683,4.15323 2.81439,8.28595 4.25269,12.39815c1.59637,4.91158 2.57446,9.18413 2.93425,12.81766l0.59929,-3.18951c0.74075,-4.39104 5.97177,-19.21156 6.70814,-22.0263h13.53616l6.64854,42.46562h-12.51833c-0.9187,-8.6641 -1.81708,-17.34893 -2.69516,-26.05449c-1.79619,7.12117 -6.14079,18.99003 -8.44511,26.05449h-7.78624c-2.7956,-8.70459 -5.59077,-17.4094 -8.38551,-26.11442c-0.02774,4.36691 -0.32786,8.72783 -0.89861,13.05737c-0.87854,5.83027 -1.53722,10.18262 -1.97604,13.05705h-12.45873c2.79064,-13.96074 4.95694,-27.7625 6.94786,-42.46562z"/><path d="M290.99858,226.45448h12.51833c-0.24902,15.98586 -0.37278,28.24195 -0.29932,42.46562l-12.45873,-0.05993c0.24661,-12.12445 0.67993,-30.4822 0.23971,-42.40568z"/><path d="M309.26555,226.57435h25.03667v9.88244h-13.47655v6.10951h11.79919v9.88275h-11.79919v6.70814h14.01558v9.7629h-25.57571z"/><path d="M353.04798,226.39456c22.18249,-1.02552 18.89723,22.0428 8.86494,25.41988l12.21837,17.10565h-14.19507l-9.94236,-14.67448l0.17946,14.67448h-11.44026c-0.03508,-6.87924 0.16699,-36.35159 -0.29932,-42.52554zM351.31102,245.26147c10.01617,0.04072 7.89317,-10.91685 -1.437,-9.22387v9.22387z"/></g><g><path d="M134.79408,222.82677c8.82866,0.1088 25.81738,-1.10335 29.82191,4.43117c2.77428,2.96808 3.47213,8.9077 2.41328,14.16791c-1.94785,9.37803 -11.38917,9.85297 -20.85518,9.67118l-0.11986,4.55234c-0.02827,1.73392 0.38147,7.57397 0.35958,9.52319l-11.61973,-0.05993c0.15438,-11.58535 0.27765,-31.0354 0,-42.28585zM147.7912,241.33411c6.54721,0.7081 10.63898,-3.97713 6.01963,-7.99631c-1.86278,-1.38099 -5.5035,-1.18726 -7.7566,-1.16765v9.16394z" fill="url(#color-1)"/><path d="M183.6682,222.64699c22.18221,-1.02546 18.89591,22.04412 8.86429,25.41988l12.21902,17.10565h-14.1957l-9.94237,-14.67448l0.17946,14.67448h-11.43962c-0.03492,-6.87925 0.16675,-36.35158 -0.29932,-42.52554zM181.93123,241.5139c10.01604,0.04036 7.89181,-10.91701 -1.43765,-9.22387v9.22387z" fill="url(#color-2)"/><path d="M206.66729,222.82677h25.03602v9.88244h-13.47655v6.10951h11.79985v9.88276h-11.79985v6.70814h14.01558v9.7629h-25.57506z" fill="url(#color-3)"/><path d="M238.82999,222.70691h13.5368c1.39683,4.15323 2.81439,8.28595 4.25269,12.39815c1.59637,4.91158 2.57446,9.18413 2.93425,12.81766l0.59929,-3.18953c0.74075,-4.39104 5.97177,-19.21156 6.70814,-22.0263h13.53616l6.64854,42.46562h-12.51833c-0.9187,-8.6641 -1.81708,-17.34893 -2.69516,-26.05449c-1.79619,7.12117 -6.14079,18.99003 -8.44511,26.05449h-7.78624c-2.7956,-8.70459 -5.59077,-17.4094 -8.38551,-26.11442c-0.02774,4.36691 -0.32786,8.72783 -0.89861,13.05737c-0.87854,5.83027 -1.53722,10.18262 -1.97604,13.05705h-12.45873c2.79064,-13.96073 4.95694,-27.76249 6.94786,-42.4656z" fill="url(#color-4)"/><path d="M290.99858,222.70691h12.51833c-0.24902,15.98586 -0.37278,28.24195 -0.29932,42.46562l-12.45873,-0.05993c0.24661,-12.12446 0.67993,-30.4822 0.23971,-42.40568z" fill="url(#color-5)"/><path d="M309.26555,222.82677h25.03667v9.88244h-13.47655v6.10951h11.79919v9.88276h-11.79919v6.70814h14.01558v9.7629h-25.57571z" fill="url(#color-6)"/><path d="M353.04798,222.64699c22.18249,-1.02552 18.89723,22.0428 8.86494,25.41988l12.21837,17.10565h-14.19507l-9.94236,-14.67448l0.17946,14.67448h-11.44026c-0.03508,-6.87924 0.16699,-36.35159 -0.29932,-42.52554zM351.31102,241.5139c10.01617,0.04072 7.89317,-10.91685 -1.437,-9.22387v9.22387z" fill="url(#color-7)"/></g><g fill="url(#color-8)" opacity="0.33"><path d="M134.84678,222.38536c8.82866,0.1088 25.81738,-1.10335 29.82191,4.43116c2.77428,2.96808 3.47213,8.9077 2.41328,14.16791c-1.94784,9.37803 -11.38916,9.85297 -20.8552,9.67118l-0.11986,4.55234c-0.02827,1.73393 0.38147,7.57397 0.35958,9.52319l-11.61973,-0.05993c0.15441,-11.58536 0.27768,-31.03542 0.00002,-42.28585zM147.8439,240.89269c6.54721,0.7081 10.63898,-3.97713 6.01963,-7.99631c-1.86278,-1.38099 -5.5035,-1.18726 -7.7566,-1.16762v9.16393z"/><path d="M183.72089,222.20555c22.18221,-1.02546 18.8959,22.04412 8.86429,25.41988l12.21902,17.10565h-14.1957l-9.94237,-14.67447l0.17946,14.67448h-11.43962c-0.03492,-6.87925 0.16675,-36.35158 -0.29932,-42.52554zM181.98393,241.07246c10.01604,0.04036 7.89181,-10.91701 -1.43765,-9.22387v9.22387z"/><path d="M206.71998,222.38536h25.03602v9.88243h-13.47655v6.10947h11.79985v9.88276h-11.79985v6.70814h14.01558v9.7629h-25.57506z"/><path d="M238.88269,222.26548h13.5368c1.39683,4.15324 2.81439,8.28595 4.25268,12.39815c1.59638,4.91158 2.57446,9.18413 2.93425,12.81766l0.59929,-3.18951c0.74075,-4.39104 5.97178,-19.21156 6.70814,-22.0263h13.53616l6.64855,42.46562h-12.51832c-0.9187,-8.6641 -1.81708,-17.34893 -2.69516,-26.05449c-1.79619,7.12117 -6.14079,18.99003 -8.44511,26.05449h-7.78624c-2.7956,-8.70459 -5.59077,-17.4094 -8.38551,-26.11442c-0.02773,4.36691 -0.32785,8.72783 -0.89861,13.05737c-0.87854,5.83027 -1.53722,10.18262 -1.97603,13.05705h-12.45873c2.79066,-13.96075 4.95695,-27.7625 6.94787,-42.46562z"/><path d="M291.05128,222.26548h12.51833c-0.24902,15.98586 -0.37278,28.24195 -0.29932,42.46562l-12.45873,-0.05993c0.24661,-12.12446 0.67993,-30.4822 0.23972,-42.40568z"/><path d="M309.31825,222.38536h25.03667v9.88243h-13.47655v6.10947h11.79919v9.88276h-11.79919v6.70814h14.01558v9.7629h-25.57571z"/><path d="M353.10068,222.20555c22.18249,-1.02552 18.89723,22.0428 8.86494,25.41988l12.21837,17.10565h-14.19505l-9.94236,-14.67447l0.17946,14.67448h-11.44026c-0.03508,-6.87923 0.16699,-36.35159 -0.29932,-42.52554zM351.36371,241.07246c10.01617,0.04072 7.89317,-10.91685 -1.437,-9.22387v9.22387z"/></g><g fill="#000000" opacity="0.2"><g><path d="M124.78173,120.30003c-2.02463,-1.73536 -3.61535,-2.89227 -4.77216,-3.47072c-1.79546,-0.89266 -3.77971,-1.33915 -5.78448,-1.30159c-2.71263,-0.03399 -5.32256,1.03609 -7.23057,2.96456c-1.9825,1.87689 -3.08455,4.50081 -3.03681,7.23041c-0.02044,2.65546 1.11425,5.1887 3.10919,6.94143c1.91478,1.86498 4.48528,2.90356 7.15818,2.89217c1.89007,0.04192 3.76981,-0.28975 5.5314,-0.97598c1.89763,-0.84885 3.6827,-1.92969 5.31438,-3.21778l-0.57841,18.87849c-3.99605,1.40057 -8.20216,2.10752 -12.43651,2.09031c-7.7616,0 -14.20884,-2.46707 -19.34172,-7.4012c-5.13371,-4.93384 -7.70056,-11.27605 -7.70056,-19.02661c0,-7.99092 2.54276,-14.50175 7.62829,-19.5325c5.08506,-5.02972 11.62868,-7.54495 19.63087,-7.5457c2.03696,-0.00763 4.07022,0.17388 6.07362,0.54221c2.17929,0.42782 4.32882,0.99533 6.43528,1.69903z"/><path d="M128.96495,99.83767h18.79937v51.48137h-18.79937z"/><path d="M150.6242,99.94611h39.11726v15.1839h-10.12274v36.08058h-18.79953v-36.08058h-10.19499z"/><path d="M211.22817,100.05455c1.34896,2.60318 2.43352,4.74827 3.25368,6.43528c1.05968,2.21776 1.99966,4.45928 2.81992,6.72455l5.85673,-13.37671h21.0409l-17.42568,28.56063l-0.21689,22.63177h-18.72701v-22.5594l-17.57033,-28.41611z"/><g><path d="M165.03871,196.38033l-7.11123,23.02224h-22.36198c-0.50046,-3.42583 -6.15142,-26.49374 -7.42404,-33.09593l-8.13975,33.09593h-22.36201l-18.8735,-63.41857h23.07769c2.633,11.71561 6.38657,26.65509 8.31835,37.29961c0.9535,-9.93499 6.56658,-27.80902 8.76623,-37.29961h18.24754c3.2808,12.46777 6.53664,25.0483 8.76556,36.40514l8.31885,-36.40514h23.25611l-2.09376,6.77851c-0.48605,0.40554 -0.96675,0.82229 -1.438,1.25888c-8.88266,7.79867 -11.7048,20.82202 -8.94607,32.35895z"/><path d="M229.89115,168.20241v39.95693c-16.09315,21.15882 -55.01392,15.99975 -61.44945,-11.77901l10.38406,-33.61783c12.76099,-11.08033 35.47301,-10.58841 47.53461,1.48257c1.28206,1.22141 2.46286,2.54487 3.53078,3.95734zM193.38952,179.74113c-9.73664,11.37089 5.5732,29.5021 17.09384,16.40466c8.83591,-11.61056 -4.92985,-28.54046 -17.09384,-16.40466z"/><path d="M175.42278,162.76249l-10.38408,33.61783c-2.68442,-11.48999 -0.06014,-24.47205 8.94608,-32.35895c0.47127,-0.43659 0.95194,-0.85334 1.438,-1.25888z"/><path d="M288.7934,215.87828v3.52429h-22.29207l-11.98595,-23.97216v23.97216h-21.64663v-11.24321c8.54856,-10.55056 8.39006,-29.36869 0,-39.95694v-11.95012c10.63967,0.71636 35.85529,-2.46429 45.06396,3.84183c12.48715,7.18207 13.49974,27.58298 -2.12893,34.26304zM257.46711,172.88962l-2.9517,0.26835v10.73358c2.38206,0.04184 6.19607,0.15256 8.05019,-1.2523c5.0427,-3.98201 1.53109,-10.10989 -5.09849,-9.74963z"/><path d="M229.89114,208.15936v-39.95694c8.32641,10.55192 8.61248,29.36873 0,39.95694z"/><path d="M335.73561,198.6504v20.75216h-40.98672l-2.12713,-3.52429v-59.98386h22.89859v42.75599z"/><path d="M288.7934,215.87843l2.12729,3.52422h-2.12729z"/><path d="M376.52141,218.84511c-3.35934,0.75482 -33.64549,0.23319 -37.38282,0.37836v-62.97118c15.87706,0.14396 37.2666,-2.65265 50.26986,6.61914c18.47225,12.37033 16.12821,51.49546 -12.88704,55.97368zM362.21592,175.48351v24.95584l0.44739,-0.08921c4.71033,0.00092 8.3479,-0.95325 10.9127,-2.86249c6.82174,-5.08366 7.86428,-22.84771 -11.36009,-22.00413z"/></g></g><path d="M362.16773,146.0113v4.59446h-20.53021h-5.00111h-3.72457h-4.62168h-3.00101h-1.35737h-2.09794h-3.35662h-1.36672h-5.14574v0.15016h-12.99643v0.02935h-7.0931h-6.06752h-6.38358h-0.89839h-1.64662h-2.54543h-3.06737h-1.58324h-3.94661h-2.84447h-15.47338h-14.13388v-4.20609h14.13388v-25.1587h4.36263v-1.63556h4.00234v-8.70526h1.58792v8.70526h3.57441v1.63556h4.79055v19.99595h3.94661v-27.0397h4.65061v-5.99479h4.19205v-8.19311h0.89839v8.19311v8.19269v6.04498h6.38358v11.34045h6.06752v12.52001h4.9909v-15.56228h2.60796v-15.40957h2.14005v-8.53894h2.48418v-12.48641h0.74015v12.48641h2.37826v8.53894h2.24597v15.40957h2.50205v10.49864h5.14574v-26.52245h4.72334v-2.53437h6.45632v10.61944h4.62168v23.03226h3.72457v-16.20119h5.00111v16.20119z"/></g><g><g><path d="M92.7142,141.52717c-5.13369,-4.93412 -7.70053,-11.27633 -7.70053,-19.02663c-0.00064,-7.99086 2.54213,-14.50169 7.62829,-19.53249c5.08514,-5.03046 11.62876,-7.5457 19.63086,-7.5457c2.03696,-0.00764 4.07022,0.17388 6.07362,0.54221c2.17929,0.42784 4.32882,0.99536 6.43528,1.69906v19.23339c-2.02462,-1.73525 -3.61534,-2.89215 -4.77216,-3.4707c-1.79546,-0.89263 -3.77972,-1.33911 -5.78448,-1.30157c-2.71262,-0.03398 -5.32254,1.03609 -7.23057,2.96455c-1.98249,1.87689 -3.08455,4.50081 -3.03681,7.23041c-0.02043,2.65548 1.11426,5.18874 3.10922,6.94148c1.91478,1.86496 4.48527,2.90352 7.15816,2.89214c1.89007,0.0419 3.76982,-0.28977 5.53141,-0.976c1.89762,-0.84886 3.6827,-1.92969 5.31439,-3.21777l-0.5784,18.87849c-3.99605,1.40055 -8.20216,2.10751 -12.43651,2.09031c-7.76082,0.00055 -14.20807,-2.46651 -19.34176,-7.4012z" fill="#f2f2f2"/><path d="M128.96496,147.91603v-51.48138h18.79937v51.48138z" fill="#f2f2f2"/><path d="M160.81901,111.72706h-10.19492v-15.18412h39.11732v15.18412h-10.12261v36.08058h-18.7998z" fill="#f2f2f2"/><path d="M207.82984,125.06769l-17.57032,-28.4161h20.96869c1.34894,2.60346 2.43348,4.74853 3.25365,6.43523c1.05978,2.21778 1.99975,4.4593 2.81992,6.72456l5.85673,-13.37672h21.04092l-17.42566,28.56065l-0.21694,22.63176h-18.72696z" fill="#f2f2f2"/><path d="M164.98372,192.73086c0.01901,0.08199 0.03542,0.16465 0.05499,0.24649l-7.11122,23.02223h-22.36198c-0.50048,-3.42583 -6.15142,-26.49376 -7.42404,-33.09593l-8.13976,33.09593h-22.362l-18.87351,-63.41857h23.0777c2.63298,11.71563 6.38657,26.6551 8.31835,37.29961c0.95348,-9.935 6.56657,-27.80898 8.76624,-37.29961h18.24753c3.2808,12.46777 6.53663,25.04832 8.76556,36.40514l8.31885,-36.40514h23.25611l-2.09376,6.7785c-0.19173,0.15998 -0.38181,0.32345 -0.57162,0.48743z" fill="#ffffff"/><path d="M288.79339,212.4753l2.12713,3.52428h-24.41919l-11.98595,-23.97216v23.97216h-21.64663v-11.24321c8.54854,-10.55058 8.39006,-29.36867 0,-39.95694v-11.95012c10.63963,0.71636 35.85525,-2.46428 45.06391,3.84181c12.48719,7.18212 13.49979,27.583 -2.12889,34.26306zM257.46711,169.48664l-2.9517,0.26835v10.73358c2.38206,0.04184 6.19609,0.15254 8.05019,-1.2523c5.04269,-3.98201 1.53108,-10.10988 -5.09849,-9.74963z" fill="#ffffff"/><path d="M229.89115,204.75636c-16.09315,21.15881 -55.01392,15.99975 -61.44945,-11.77901l10.38407,-33.61783c12.761,-11.08032 35.473,-10.58837 47.53461,1.48258c1.28205,1.22141 2.46286,2.54487 3.53077,3.95734c8.3264,10.55192 8.61246,29.36872 0,39.95693zM193.38951,176.33815c-9.73661,11.37084 5.57321,29.50206 17.09388,16.40465c8.83584,-11.61056 -4.92988,-28.54046 -17.09388,-16.40465z" fill="#ffffff"/><path d="M315.52037,195.24742h20.21525v20.75216h-40.98673l-2.12713,-3.52428v-59.98387h22.89861z" fill="#ffffff"/><path d="M376.52144,215.44216c-3.35936,0.75478 -33.64551,0.23314 -37.38284,0.37833v-62.97118c15.87704,0.14399 37.26658,-2.65267 50.26985,6.61914c18.47222,12.37035 16.12821,51.49545 -12.88701,55.97371zM362.21593,172.08052v24.95584l0.44739,-0.08921c4.71033,0.00092 8.34789,-0.95325 10.9127,-2.86249c6.82175,-5.08366 7.86426,-22.84772 -11.36009,-22.00414z" fill="#ffffff"/></g><path d="M362.16773,142.60831v4.59446h-20.53021h-5.00111h-3.72457h-4.62168h-3.00101h-1.35737h-2.09794h-3.35662h-1.36672h-5.14574v0.15016h-12.99643v0.02935h-7.0931h-6.06752h-6.38358h-0.89839h-1.64662h-2.54543h-3.06737h-1.58324h-3.94661h-2.84447h-15.47338h-14.13388v-4.20609h14.13388v-25.1587h4.36263v-1.63556h4.00234v-8.70526h1.58792v8.70526h3.57441v1.63556h4.79055v19.99595h3.94661v-27.0397h4.65061v-5.99479h4.19205v-8.19311h0.89839v8.19311v8.19269v6.04498h6.38358v11.34045h6.06752v12.52001h4.9909v-15.56228h2.60796v-15.40957h2.14005v-8.53894h2.48418v-12.48641h0.74015v12.48641h2.37826v8.53894h2.24597v15.40957h2.50205v10.49864h5.14574v-26.52245h4.72334v-2.53437h6.45632v10.61944h4.62168v23.03226h3.72457v-16.20119h5.00111v16.20119z" fill="#f2f2f2"/></g></g></g></svg>