<svg version="1.1" xmlns="http://www.w3.org/2000/svg" xmlns:xlink="http://www.w3.org/1999/xlink" width="72.49472" height="75.70875" viewBox="0,0,72.49472,75.70875"><g transform="translate(-210.64316,-132.95827)"><g data-paper-data="{&quot;isPaintingLayer&quot;:true}" fill-rule="nonzero" stroke="none" stroke-width="1" stroke-linecap="butt" stroke-linejoin="miter" stroke-miterlimit="10" stroke-dasharray="" stroke-dashoffset="0" style="mix-blend-mode: normal"><g><path d="M239.67104,141.98691c-0.04064,0.08208 -0.1227,0.13557 -0.21421,0.13961c0.02802,-0.09239 0.11837,-0.15127 0.21421,-0.13961z" fill="#afa8a5"/><path d="M239.45402,142.12903c-0.01123,0.05914 -0.05985,0.10395 -0.1197,0.11032c0.01054,-0.05952 0.05953,-0.10467 0.1197,-0.11032z" fill="#afa8a5"/><path d="M239.92756,142.09766c-0.06121,-0.00436 -0.11229,-0.04843 -0.12557,-0.10834c0.06444,-0.00431 0.12039,0.04396 0.12557,0.10834z" fill="#afa8a5"/><path d="M239.80159,141.98896l-0.13069,-0.00208c0.04481,-0.0771 0.08847,-0.08267 0.13069,0.00208z" fill="#afa8a5"/><g><g><path d="M213.32532,158.27319c-0.89411,-0.69847 -1.78816,-1.39691 -2.68216,-2.09531l0.00796,-1.01689c9.58778,-7.38013 19.20256,-14.78104 28.84432,-22.20272c14.54616,11.05521 29.09018,22.10878 43.63205,33.16071c-0.06336,0.36562 0.13263,0.74426 -0.13612,1.0771c-0.19453,-0.14356 -0.06062,-0.39783 -0.22048,-0.58537c-1.35052,0.99617 -2.66481,2.02764 -3.99077,3.04392c-1.69678,1.30051 -3.37399,2.62473 -5.07767,3.91705c-1.88775,1.43195 -3.72498,2.92404 -5.62445,4.34097c-1.74541,1.30202 -3.45143,2.6501 -5.17932,3.9724c-2.64603,2.0249 -5.25766,4.0912 -7.94248,6.06928c-0.45541,0.33553 -0.49609,0.77228 -0.53368,1.24049c-0.01936,0.05179 -0.0498,0.09914 -0.08936,0.13905c-0.60345,0.03889 -0.84025,-0.49146 -1.25893,-0.74004c-1.85316,-1.40565 -3.68525,-2.83704 -5.58421,-4.18696c-0.07236,-0.04108 -0.13791,-0.09225 -0.19448,-0.15184c-1.03168,-0.86122 -2.13035,-1.64282 -3.20069,-2.45774c-2.11046,-1.60685 -4.22044,-3.21429 -6.32993,-4.82232c-1.36596,-1.03544 -2.72573,-2.07825 -4.09368,-3.11136c-1.09147,-0.82431 -2.15047,-1.68798 -3.2864,-2.45797c-2.02295,-1.62837 -4.11869,-3.16999 -6.18864,-4.74225c-3.40444,-2.58588 -6.79113,-5.19313 -10.21016,-7.76149c-0.24406,-0.18332 -0.50435,-0.35797 -0.66071,-0.62869z" fill="#1f1d1d"/><path d="M281.04625,174.06485l-0.05623,7.17571c-2.33041,1.79315 -4.67404,3.5965 -7.03088,5.41004c-6.35129,4.88864 -12.70271,9.77712 -19.05426,14.66544c-0.13608,0.10471 -0.28345,0.19605 -0.42554,0.29363c-0.33178,-0.04182 -0.31353,-0.30634 -0.31285,-0.51133c0.00709,-2.12413 -0.02499,-4.24883 0.06972,-6.37065c0.06312,-0.31963 0.30712,-0.50556 0.55696,-0.69373c1.98469,-1.49478 3.91176,-3.05884 5.88918,-4.56018c1.88691,-1.43261 3.74129,-2.90511 5.65248,-4.30784c1.66399,-1.22128 3.24805,-2.53514 4.88861,-3.78341c2.00858,-1.52828 4.01301,-3.06159 6.01332,-4.59992c0.92987,-0.71712 1.87185,-1.42065 2.77062,-2.17568c0.29158,-0.24493 0.55763,-0.60174 1.03887,-0.54209z" fill="#00003b"/><path d="M281.04625,174.06485c-0.94565,0.5074 -1.67699,1.27632 -2.52562,1.90298c-1.62095,1.19695 -3.20301,2.44219 -4.79638,3.67309c-1.48726,1.14892 -2.9656,2.30842 -4.4528,3.45741c-1.59389,1.2314 -3.19075,2.45929 -4.79056,3.68365c-0.98805,0.75981 -1.97237,1.52412 -2.96357,2.28015c-1.55463,1.18579 -3.14307,2.33313 -4.65891,3.56248c-0.80118,0.64976 -1.63569,1.25241 -2.46007,1.8705c-0.02602,-0.02595 -0.05203,-0.0519 -0.07844,-0.07762c-0.03176,-0.04711 -0.05339,-0.09981 -0.06362,-0.15501c-0.07335,-1.65345 -0.05526,-3.30945 0.05421,-4.96106c0.0034,-0.03327 0.00618,-0.06659 0.00834,-0.09995c0.80079,-0.80433 1.76419,-1.42509 2.6571,-2.12314c2.74515,-2.14613 5.53028,-4.24512 8.27533,-6.39201c1.18196,-0.92441 2.38369,-1.82801 3.56935,-2.74899c2.26583,-1.76 4.5611,-3.48476 6.82304,-5.24975c1.59335,-1.24329 3.19951,-2.47285 4.81846,-3.68869c0.17892,-0.13461 0.35347,-0.31273 0.62561,-0.23388c-0.01382,1.76661 -0.02764,3.53322 -0.04147,5.29984z" fill="#00005b"/><path d="M254.39834,194.4951c-0.01918,2.19954 -0.03781,4.39908 -0.05589,6.59863c-0.00137,0.18049 -0.05298,0.37925 0.13699,0.51588c-0.22889,0.24763 -0.34749,-0.01899 -0.47076,-0.1125c-5.21019,-3.95195 -10.4173,-7.90761 -15.62133,-11.86701c-2.5337,-1.92612 -5.06647,-3.85335 -7.59833,-5.7817c-0.13362,-0.10186 -0.30896,-0.16863 -0.37108,-0.34341c-0.14941,-0.19991 -0.11538,-0.43065 -0.11391,-0.65338c0.01265,-1.91338 0.02774,-3.82674 0.04526,-5.74008c0.00224,-0.23931 -0.03249,-0.49036 0.1889,-0.74638c0.54684,0.20121 0.99894,0.55891 1.43883,0.9137c1.7686,1.42646 3.62569,2.74622 5.42108,4.13988c2.29829,1.78403 4.63593,3.52066 6.94534,5.29137c2.38599,1.82943 4.79297,3.63393 7.17858,5.46419c0.85476,0.65578 1.74907,1.26455 2.56783,1.9642c0.11707,0.09986 0.21743,0.21633 0.29757,0.34533z" fill="#00005d"/><path d="M213.32532,158.27319c1.51232,1.13192 3.03127,2.25587 4.53569,3.39732c4.07383,3.09095 8.14391,6.1864 12.21024,9.28639c0.15173,0.11552 0.28345,0.2551 0.42449,0.38345c0.0609,0.11779 0.09618,0.24618 0.10372,0.3774c-0.01394,1.42099 0.04031,2.84301 -0.06735,4.26138c-0.12144,0.3579 -0.3531,0.29539 -0.58453,0.11981c-0.38419,-0.29148 -0.78763,-0.55765 -1.17038,-0.85162c-2.70578,-2.07811 -5.44855,-4.11245 -8.14974,-6.19513c-2.31914,-1.78812 -4.69018,-3.5135 -6.98602,-5.32901c-0.1033,-0.06509 -0.18824,-0.15354 -0.24732,-0.25751c-0.11374,-0.16974 0.03602,-0.39781 -0.09679,-0.58075c0.00934,-1.53725 0.01867,-3.07449 0.028,-4.61173z" fill="#fef4ed"/><path d="M213.29733,162.88491c0.1945,0.13297 0.04137,0.36563 0.23304,0.59373c2.1687,1.6378 4.42454,3.32929 6.66635,5.03764c2.45553,1.87121 4.90066,3.75445 7.38049,5.59685c0.84552,0.62818 1.68095,1.27637 2.50241,1.93708c0.086,0.07732 0.19787,0.12297 0.31572,0.12885c0.13106,0.23158 0.03965,0.47765 0.03887,0.71442c-0.00664,2.00014 -0.02486,4.00025 -0.04393,6.00034c-0.00194,0.20351 0.03647,0.41166 -0.04543,0.61043c-0.76594,-0.36907 -1.34674,-0.9754 -2.02313,-1.45915c-0.27211,-0.1946 -0.61143,-0.34073 -0.76891,-0.67064c-0.13165,-0.55411 0.13293,-1.14476 -0.14477,-1.69315c-0.00133,-1.19661 0.02094,-2.39311 0.00525,-3.58986c-0.00452,-0.3449 -0.20063,-0.54921 -0.46013,-0.73674c-2.43977,-1.76311 -4.76628,-3.66365 -7.20054,-5.43308c-0.78064,-0.56743 -1.49264,-1.21534 -2.29856,-1.75153c-0.49158,-0.32963 -0.94119,-0.71453 -1.52125,-1.08048c-0.11361,1.79821 0.01788,3.5307 -0.12534,5.25422c-0.16494,0.20979 -0.26028,0.018 -0.36615,-0.06315c-0.7149,-0.548 -1.42713,-1.09919 -2.2043,-1.69878z" fill="#e1d7d0"/><path d="M230.34483,183.50425l0.05048,-7.32515c0.0215,-1.40995 0.04338,-2.81988 0.06566,-4.22977c0.00342,-0.20316 0.02276,-0.40606 0.03476,-0.60903c1.36032,0.87496 2.58914,1.91232 3.8723,2.88188c1.1611,0.87733 2.35764,1.71422 3.45099,2.67203c-0.02089,0.01931 -0.04176,0.03867 -0.06261,0.05809c-0.13167,0.04591 -0.27887,0.02214 -0.38751,-0.06255c-0.4013,-0.29991 -0.85908,-0.30797 -1.33136,-0.26302c-0.31292,-0.11915 -0.32365,-0.42904 -0.44962,-0.66374c-0.08717,-0.20221 -0.21184,-0.38766 -0.36801,-0.54741c-0.86385,-0.80393 -1.80285,-1.53047 -2.80523,-2.17051c-0.34397,0.16823 -0.31583,0.38964 -0.32393,0.59042c-0.01283,0.31828 0.031,0.64271 -0.01855,0.95454c-0.1198,0.75408 0.15925,1.30841 0.82977,1.69712c0.12899,0.10226 0.24112,0.07419 0.35121,-0.03388c0.12095,-0.11872 0.2432,-0.2418 0.44531,-0.19771c0.20121,0.06887 0.38462,0.17827 0.53783,0.3208c0.35703,0.29021 0.7553,0.43762 1.22816,0.36525c0.08326,0.02356 0.15138,0.08114 0.18609,0.15729c0.17742,1.92302 1.61883,2.89074 3.14749,3.78095c0.33083,0.19266 0.68181,0.12964 0.9678,-0.14517c0.1136,-0.0656 0.22307,-0.1502 0.39965,-0.06341c0.26236,0.41754 -0.00475,0.92723 0.18364,1.37153c0.73844,0.77182 1.67204,1.31803 2.50312,1.98156c0.23071,0.05863 0.42532,0.20681 0.53681,0.40875c0.31765,0.2591 0.60479,0.55953 1.02606,0.67144c0.19748,-0.01864 0.33763,-0.27486 0.57508,-0.12844c0.53773,0.92593 1.20598,1.73615 2.11622,2.36637c0.87984,0.60916 0.97507,0.66237 1.975,0.53253c0.14528,0.07209 0.22287,0.22771 0.19003,0.3811c-0.08022,0.5463 0.23145,0.87204 0.65116,1.15966c0.85916,0.58876 1.62772,1.28973 2.50347,1.85665c0.50275,-0.03991 0.47344,-0.31771 0.31851,-0.6505c-0.08056,-0.0776 -0.13854,-0.17398 -0.16822,-0.2796c-0.01729,-0.5887 0.16003,-1.14102 0.34342,-1.69263c0.04401,-0.08326 0.0981,-0.15231 0.21218,-0.13339c0.43025,0.21039 0.70264,0.63746 1.1785,0.78516c0.18255,0.14518 0.11761,0.3453 0.1165,0.52458c-0.00953,1.55267 -0.02546,3.10531 -0.03956,4.65788c-0.60332,-0.28656 -1.05,-0.77284 -1.57424,-1.15781c-2.13247,-1.56601 -4.22589,-3.1808 -6.32779,-4.7847c-1.73817,-1.32634 -3.46087,-2.67128 -5.20356,-3.99213c-1.80439,-1.36762 -3.63238,-2.70678 -5.43541,-4.07601c-1.43613,-1.0906 -2.84782,-2.21058 -4.276,-3.31081c-0.31505,-0.2427 -0.65392,-0.45712 -1.09643,-0.76407c-0.01912,2.43956 -0.03741,4.77349 -0.0559,7.10702l-0.03684,0.00798z" fill="#00008c"/><path d="M217.61626,168.10792c3.3146,2.51373 6.63417,5.03122 9.95869,7.55247c-0.00802,1.02356 -0.00639,2.0273 -0.02912,3.03053c-0.00752,0.33151 0.25981,0.70638 -0.13781,0.99024c-3.14748,-2.39064 -6.29462,-4.7818 -9.44141,-7.17347c-0.13608,-0.10347 -0.25693,-0.22524 -0.38488,-0.33849c-0.11056,-0.17714 -0.17307,-0.37792 -0.18185,-0.58407c-0.00581,-0.989 -0.00021,-1.97797 0.02534,-2.96667c0.0048,-0.18581 0.02417,-0.37586 0.19104,-0.51054z" fill="#9891ec"/><path d="M281.08772,168.76501c-1.08114,0.64702 -1.99814,1.49555 -2.99807,2.2422c-1.40079,1.04594 -2.77091,2.12943 -4.15544,3.19535c-1.8707,1.44021 -3.74192,2.87983 -5.61366,4.31883c-1.79392,1.38259 -3.58649,2.76677 -5.37771,4.15253c-1.70207,1.31268 -3.40524,2.62406 -5.1095,3.93415c-1.08109,0.83152 -2.16386,1.66104 -3.24831,2.48855c-0.08321,0.0466 -0.17282,0.08187 -0.26622,0.1048c0.00207,-0.262 0.00413,-0.52406 0.00701,-0.89139c9.48316,-7.29976 19.04085,-14.65688 28.67305,-22.07137l-0.00751,0.95745c-0.58641,0.57638 -1.34886,0.95742 -1.90364,1.56891z" fill="#080a0e"/><path d="M217.61626,168.10792c-0.01153,1.35374 -0.02306,2.70749 -0.03457,4.06125c-0.24907,-0.17549 -0.49819,-0.35101 -0.77193,-0.54387c-0.38018,0.17266 -0.66803,0.47683 -1.00233,0.71855c-0.10361,-0.08593 -0.08049,-0.20307 -0.07971,-0.31212c0.01241,-1.73019 0.02632,-3.46036 0.0408,-5.30848c0.66955,0.50174 1.25866,0.9432 1.84775,1.38466z" fill="#3d43a4"/><path d="M252.40063,191.46173l-3.23696,-2.4552l0.00898,-1.14658c-0.69441,0.57459 -1.23667,0.22056 -1.75879,-0.13368c-1.0616,-0.72027 -2.02585,-1.52829 -2.4948,-2.74435c-0.30169,-0.33028 -0.27622,-0.6911 -0.11018,-1.06574c0.53742,-0.63305 1.03642,-0.73173 1.72449,-0.31227c0.30953,0.1887 0.63799,0.36184 0.87387,0.64515c-0.00032,0.03501 0.01828,0.05135 0.05579,0.049c0.3809,0.1837 0.62822,0.51653 0.94456,0.77253c-0.06784,0.62377 0.45717,1.12438 0.39903,1.74676c-0.53717,-0.08056 -1.01274,-0.37697 -1.30684,-0.81454c-0.26364,-0.37871 -0.55515,-0.72841 -1.03975,-0.86285c-0.42802,0.15636 -0.0933,0.41818 -0.16143,0.61043c0.31745,0.18756 0.65449,0.17729 0.88718,0.38372c0.49386,0.46553 1.2638,0.43508 1.72415,0.93874c0.13583,-0.15224 0.08354,-0.29063 0.11371,-0.41322c0.0188,-0.13715 0.07139,-0.26806 0.15343,-0.38196c0.12631,-0.15143 0.3192,-0.23783 0.52164,-0.23364c0.79174,0.50774 1.5566,1.13646 2.3396,1.73973c0.32475,0.25021 0.73633,0.42041 0.92259,0.81631c-0.20875,0.40203 -0.25999,0.84514 -0.34295,1.27756c-0.03199,0.16675 -0.14262,0.3657 0.056,0.5196c0.06718,0.0495 0.13434,0.09899 0.20151,0.1485c0.06957,0.37204 -0.12319,0.74386 -0.47485,0.916z" fill="#fdf3ec"/><path d="M247.40724,184.24906c-0.25948,-0.16414 -0.51285,-0.33805 -0.77961,-0.49057c-0.77325,-0.4421 -1.03635,-0.41001 -1.68939,0.18413c-0.31867,-0.0274 -0.25354,-0.28034 -0.27758,-0.4612c-0.01889,-0.23949 -0.02141,-0.47991 -0.0075,-0.71971c-0.09965,-0.4981 -0.52823,-0.68954 -0.92155,-0.93773c-0.53956,0.33363 -0.07546,0.9572 -0.48494,1.33928c-0.54639,-0.04856 -0.83633,-0.52915 -1.27712,-0.76784c-0.28814,-0.18633 -0.3557,-0.46222 -0.36397,-0.77298c-0.01274,-0.47928 0.04909,-0.95989 -0.02914,-1.43622c-0.37695,-0.30365 -0.63747,-0.8435 -1.29289,-0.57632c-0.24674,0.11464 -0.3463,-0.03664 -0.43002,-0.21739c-0.153,-0.33578 -0.35606,-0.64858 -0.60284,-0.92863c-0.37184,-0.37682 -0.72985,-0.76622 -1.16927,-1.077c-0.15417,-0.10904 -0.31013,-0.22908 -0.3113,-0.44225c0.01618,-0.01681 0.03245,-0.0336 0.04881,-0.05035c1.06962,0.63062 1.96825,1.4728 2.9592,2.20116c2.10985,1.55077 4.17301,3.15963 6.2566,4.74313c0.15206,0.11556 0.33662,0.20018 0.37251,0.41048z" fill="#00008c"/><path d="M248.32596,185.13138c-0.28759,-0.27775 -0.57521,-0.55551 -0.86286,-0.83329c0.70159,0.27212 1.20067,0.81241 1.78207,1.24179c1.31369,0.97023 2.64081,1.92513 3.88689,2.97635c-0.03505,0.0334 -0.07006,0.06675 -0.10502,0.10008c-0.03398,0.05833 -0.06766,0.06119 -0.10096,-0.00052c-1.0818,-0.83338 -2.16362,-1.66676 -3.21168,-2.47414c-0.23642,-0.04117 -0.32691,0.10103 -0.4464,0.18961c-0.45722,-0.1326 -0.47754,-0.59944 -0.73207,-0.8881c-0.07867,-0.08921 -0.09485,-0.2337 -0.20998,-0.31178z" fill="#0d0c8c"/><path d="M234.34909,183.63789c-0.62021,-0.02168 -1.24106,0.01988 -1.85207,0.12399l0.0336,-4.28808c0.44821,0.19581 0.6661,0.57455 1.01569,0.7921c0.27472,0.41027 0.15357,0.8687 0.13482,1.30013c-0.03145,0.72414 -0.00559,1.40371 0.67026,1.88721c0.02799,0.05882 0.02714,0.12649 -0.0023,0.18465z" fill="#000033"/><path d="M238.43887,186.7158c-0.02483,0.11957 -0.08368,0.2068 -0.22494,0.21433c-0.44128,0.02355 -0.88257,0.04684 -1.37838,0.07313l0.03269,-4.17096c0.43543,0.07034 0.60914,0.52754 1.01457,0.61801c0.22251,0.36079 0.14538,0.75866 0.14955,1.14478c0.00788,0.73005 -0.11582,1.48144 0.40651,2.12072z" fill="#000034"/><path d="M251.58586,196.71285c-0.59533,0.09639 -1.20067,0.12334 -1.80278,0.08025c-0.13189,-1.33355 -0.08182,-2.68225 -0.02641,-4.13974c0.42342,0.26584 0.82148,0.33555 1.00964,0.70248c0.27224,0.43732 0.14766,0.919 0.12574,1.374c-0.03391,0.70375 0.02488,1.34341 0.67631,1.7973c0.02913,0.05784 0.03535,0.12381 0.01751,0.1857z" fill="#000034"/><path d="M242.87427,190.12676c-0.55734,-0.02375 -1.10648,0.24177 -1.71438,0.03051l0.03204,-4.08797c0.44627,0.18329 0.65372,0.57342 1.00982,0.77629c0.25552,0.31432 0.15373,0.68268 0.16064,1.03069c0.01455,0.73385 -0.16446,1.5068 0.51713,2.09028c0.04329,0.03707 0.01078,0.10658 -0.00526,0.16021z" fill="#000036"/><path d="M247.10292,193.31205c-0.48174,0.41876 -1.04152,0.12409 -1.63538,0.23757l0.03227,-4.11756c0.44543,0.05297 0.6042,0.41266 0.8778,0.63288c0.1449,0.89358 -0.12208,1.79631 0.12434,2.67486c0.27682,0.11728 0.59012,0.1995 0.60097,0.57225z" fill="#000135"/><path d="M251.55417,196.60574c-0.25946,-0.18836 -0.51891,-0.37672 -0.80903,-0.58736c0.007,-0.89248 0.01393,-1.77767 0.02102,-2.6627c0.41373,0.12516 0.69667,0.43773 1.04052,0.66285c-0.13295,0.61039 -0.04264,1.22944 -0.07862,1.84356c-0.01504,0.25669 0.0424,0.52968 -0.17389,0.74365z" fill="#323a7f"/><path d="M247.10292,193.31205c-0.20025,-0.19071 -0.40053,-0.38144 -0.60085,-0.57219c0.00666,-0.86501 0.01343,-1.72998 0.0209,-2.68255c0.37003,0.26552 0.65644,0.47105 0.94286,0.67656c0.00243,0.70666 -0.00077,1.41336 -0.01393,2.11987c-0.00367,0.19755 0.05603,0.4152 -0.13061,0.57772z" fill="#323b80"/><path d="M234.32543,183.5399c-0.2664,-0.21025 -0.53307,-0.42071 -0.8,-0.63139c0.00707,-0.90125 0.01389,-1.77197 0.0208,-2.64266c0.40983,0.13876 0.70462,0.44 1.04543,0.67618c-0.13056,0.62042 -0.0413,1.24911 -0.07747,1.87304c-0.01464,0.25244 0.04234,0.52337 -0.18875,0.72483z" fill="#333c81"/><path d="M238.43887,186.7158c-0.18307,-0.16188 -0.36615,-0.32376 -0.57787,-0.51097c0.00714,-0.91111 0.01436,-1.83289 0.0217,-2.75459c0.26916,0.22535 0.53826,0.45065 0.80729,0.67591c0.27873,0.88504 0.26779,1.83049 -0.03136,2.70941z" fill="#333b81"/><path d="M242.87427,190.12676c-0.12546,-0.29257 -0.49072,-0.35817 -0.6927,-0.70915c0.00627,-0.79978 0.01322,-1.68581 0.02017,-2.57193c0.3571,0.13016 0.63727,0.37051 0.92938,0.59378c0.00734,0.70564 -0.0001,1.41128 -0.01188,2.11676c-0.00329,0.19732 0.0556,0.41444 -0.12931,0.57739c-0.03856,-0.00209 -0.07711,-0.00438 -0.11566,-0.00686z" fill="#323b80"/><path d="M251.55417,196.60574c0.00761,-0.7004 0.00936,-1.40094 0.02678,-2.10112c0.00455,-0.18233 -0.0967,-0.43036 0.22572,-0.48609c0.25243,0.39564 0.09602,0.82906 0.11536,1.24409c0.02323,0.49833 -0.00141,0.99871 -0.0051,1.46937c-0.1533,0.15006 -0.23337,0.01368 -0.33113,-0.01913c-0.00748,-0.03647 -0.01806,-0.0723 -0.03163,-0.10713z" fill="#7d77c7"/><path d="M234.32543,183.5399c0.00831,-0.72754 0.01305,-1.45515 0.0276,-2.18257c0.0034,-0.17014 -0.07323,-0.39987 0.23862,-0.4153c0.22314,0.9165 0.02659,1.83602 0.07601,2.72266c-0.16263,0.09595 -0.23066,-0.00658 -0.31855,-0.02675c-0.00247,-0.03366 -0.01046,-0.06674 -0.02367,-0.09804z" fill="#7c75c5"/><path d="M238.65863,186.83554c0.01045,-0.90314 0.0209,-1.80627 0.03135,-2.70941c0.1796,0.08551 0.32673,0.18904 0.32409,0.4115c-0.00961,0.80779 -0.01396,1.61565 -0.02002,2.38971c-0.21691,0.11265 -0.26252,-0.01676 -0.33542,-0.0918z" fill="#7872c1"/><path d="M242.98993,190.13361c0.00626,-0.72536 0.00752,-1.4508 0.02238,-2.176c0.0036,-0.17597 -0.07235,-0.37797 0.1188,-0.51818c0.18239,0.13484 0.15607,0.32746 0.15469,0.5128c-0.00569,0.76096 -0.01182,1.52192 -0.01764,2.26529c-0.16758,0.07558 -0.21384,-0.02332 -0.27823,-0.08392z" fill="#8b83d6"/><path d="M247.32128,193.43144c0.00425,-0.72796 0.00315,-1.456 0.01666,-2.1838c0.00325,-0.17509 -0.07592,-0.38005 0.12788,-0.51379c0.23946,0.23466 0.12957,0.52766 0.13302,0.79573c0.00837,0.64807 -0.00579,1.2964 -0.0107,1.92233c-0.12378,0.1047 -0.19702,0.05106 -0.26686,-0.02047z" fill="#8c84d7"/><path d="M237.77013,176.94464c0.5218,0.47609 1.13962,0.85761 1.55235,1.44116c0.07164,0.14736 -0.11619,0.22797 -0.10965,0.30549c0.32373,0.73435 0.97467,1.33344 0.56428,2.18584c-0.25344,0.35597 -0.61906,0.33372 -0.94237,0.17425c-1.35414,-0.66792 -2.46053,-1.5947 -3.12968,-2.93227c-0.15591,-0.3071 -0.20264,-0.65453 -0.13308,-0.98938c0.04904,-0.27089 0.16144,-0.49173 0.47694,-0.5521c0.41254,-0.30114 0.79562,-0.11816 1.17492,0.06988c0.18585,0.09213 0.36442,0.19767 0.54629,0.29713z" fill="#fcf2eb"/><path d="M242.11696,182.33604c0.35294,0.25774 0.70588,0.5155 1.09328,0.79841c0.1223,-0.42643 0.04535,-0.81503 0.07475,-1.1751c0.10683,-0.15415 0.25781,-0.27559 0.43488,-0.34981c0.37969,0.30436 0.86086,0.50218 1.09244,0.96775c-0.2727,0.40832 -0.13462,0.86686 -0.17599,1.30375c-0.04467,0.47187 0.12135,0.97116 -0.19644,1.40819c-0.49356,-0.12016 -0.7948,-0.49721 -1.15733,-0.79241c-0.11138,-0.17439 -0.03229,-0.40239 -0.18182,-0.56647c-0.11277,0.05206 -0.0622,0.3095 -0.29425,0.22865c-0.85417,-0.64855 -1.70835,-1.29711 -2.56251,-1.94567c-0.13007,-0.71707 -0.00077,-1.45152 -0.16436,-2.16843c-0.04222,-0.18501 0.07085,-0.36441 0.17602,-0.52629c0.10804,-0.10297 0.20474,-0.22276 0.41519,-0.23705c0.31065,0.23158 0.6432,0.4795 0.97575,0.72742c0.12788,0.09769 0.04472,0.20558 0.00146,0.29676c-0.29105,0.61345 -0.20522,1.22518 -0.02953,1.8137c0.15371,0.15269 0.34247,0.14759 0.49845,0.21661z" fill="#fcf2eb"/><path d="M232.86972,176.63517c-0.30178,-0.23739 -0.60359,-0.47478 -0.92391,-0.72674l0.02022,-2.58012c0.07777,-0.14289 0.23136,-0.22415 0.44394,-0.34627c0.9435,0.79902 2.05472,1.43487 2.91536,2.36404c0.0608,0.38573 0.06862,0.77808 0.22016,1.15169c0.08923,0.17123 0.04218,0.37879 -0.11319,0.49926c-0.29521,0.21135 -0.58481,0.14749 -0.85726,-0.03376c-0.3031,-0.20163 -0.59424,-0.41971 -0.89058,-0.63063c-0.09257,-0.12554 -0.26132,-0.03727 -0.34086,-0.13015c-0.24501,0.08501 0.01339,0.61832 -0.47387,0.43268z" fill="#fcf2eb"/><path d="M240.25563,179.51861c-0.00389,0.89823 -0.00778,1.79647 -0.01167,2.6947c-0.30759,-0.46098 0.01561,-0.98979 -0.17457,-1.48209c-0.10124,0.05051 -0.19672,0.09815 -0.29224,0.14585c0.10044,-0.82112 -0.33135,-1.47884 -0.74657,-2.15346c0.1024,-0.11851 0.19715,-0.22816 0.2919,-0.33782c0.34825,0.21776 0.44693,0.59202 0.6259,0.91552c0.06716,0.12139 0.07965,0.30625 0.30725,0.21729z" fill="#a09bb2"/><path d="M244.43989,185.28922c0.00681,-0.73701 0.02343,-1.47412 0.01522,-2.21098c-0.02209,-0.22736 0.12786,-0.43764 0.35717,-0.50089c0.13406,0.4473 -0.08354,0.92433 0.12594,1.36531c-0.16176,0.34365 -0.0379,0.69219 -0.01922,1.03911c-0.15967,0.10259 -0.31938,0.20507 -0.47911,0.30746z" fill="#9290a4"/><path d="M235.4323,176.99704c0.11694,-0.45037 -0.16446,-0.81116 -0.30036,-1.20686c0.06453,-0.14818 0.129,-0.29622 0.19339,-0.4441c0.35672,0.19347 0.36474,0.57631 0.52339,0.8777c0.06295,0.11961 -0.02013,0.31602 0.20018,0.35387c-0.15895,0.18395 -0.31792,0.36795 -0.47691,0.55199c-0.04656,-0.04414 -0.09313,-0.08833 -0.13969,-0.1326z" fill="#a59eb6"/><path d="M252.92609,188.6158c0.03319,-0.00778 0.06786,-0.00759 0.10095,0.00056c-0.1177,0.5936 -0.23538,1.18722 -0.35308,1.78087c-0.27859,-0.05629 -0.37083,-0.30813 -0.24869,-0.45337c0.24755,-0.29436 0.15586,-0.59286 0.1365,-0.90043c0.12487,-0.14658 0.2446,-0.28709 0.36431,-0.42763z" fill="#636990"/><path d="M252.40063,191.46173c0.1583,-0.30533 0.31659,-0.61066 0.47487,-0.91599c0.29764,0.16258 0,0.40887 0.16684,0.61743c-0.26842,0.08022 -0.241,0.54117 -0.64171,0.29855z" fill="#6d7395"/><path d="M242.80649,184.15899c0.2774,-0.12211 -0.01536,-0.55537 0.43284,-0.63105c0.0713,0.31832 0.08592,0.64588 0.04323,0.96886c-0.04714,-0.09404 -0.09429,-0.18811 -0.14288,-0.28504c-0.1075,-0.03051 -0.2528,0.13651 -0.33319,-0.05276z" fill="#a19bb0"/><path d="M232.86972,176.63517c0.46204,-0.08157 0.0917,-0.47242 0.29868,-0.67924c0.20529,0.07711 0.38398,0.20756 0.51594,0.37662c-0.2418,-0.00819 -0.29315,0.22013 -0.44016,0.32948c-0.14459,0.10754 -0.26347,0.16703 -0.37446,-0.02686z" fill="#65698a"/><path d="M249.14293,186.69764l-0.00638,0.81404c-0.51292,-0.84156 -1.48875,-0.67444 -2.01452,-1.27476c-0.1555,-0.21006 -0.43064,-0.30821 -0.56991,-0.52243c-0.1449,-0.22285 -0.32086,-0.4687 -0.07576,-0.73931c0.48257,0.16313 0.88355,0.49364 1.12359,0.92612c0.28222,0.46644 0.72517,0.6888 1.19561,0.90092c0.11263,-0.04445 0.18691,-0.20541 0.34737,-0.10458z" fill="#101094"/><path d="M249.14293,186.69764c-0.12752,-0.00081 -0.18038,0.22514 -0.34735,0.10459c-0.05692,-0.37672 -0.30195,-0.66963 -0.50024,-1.00115c-0.03799,-0.21762 0.19881,-0.44009 0.03061,-0.6697c0.50307,0.26422 0.57535,0.83776 0.94204,1.19989c-0.04168,0.12212 -0.08337,0.24424 -0.12507,0.36637z" fill="#b4adc4"/><path d="M246.47636,184.97519c-0.09102,0.56399 0.40022,0.85544 0.64574,1.2618c-0.2405,-0.12713 -0.45786,-0.33417 -0.74669,-0.1668c-0.46794,-0.6713 -0.42783,-1.0059 0.10095,-1.095z" fill="#727798"/><path d="M242.11696,182.33604l-0.65947,-0.00473c-0.17972,-0.58803 -0.10659,-1.17654 -0.11719,-1.72404c0.02911,-0.26024 0.3788,-0.32603 0.30622,-0.59837c0.28386,0.36217 0.05682,0.77143 0.1109,1.15616c0.01916,0.27477 0.02236,0.55035 0.00957,0.82546c0.02326,0.20476 0.2702,0.19911 0.34998,0.34552z" fill="#797b9a"/><path d="M237.21627,177.90921c0.71594,0.35782 1.22286,0.86626 1.36355,1.73861c-0.44349,-0.1849 -0.79815,-0.36474 -1.04617,-0.69887c-0.40504,-0.26304 -0.62833,-0.57682 -0.31739,-1.03974z" fill="#07078f"/><path d="M237.21627,177.90921c-0.1596,0.42068 0.17472,0.70349 0.31739,1.03976c-0.11466,0.06128 -0.22931,0.12258 -0.37386,0.19987c-0.26576,-0.21633 -0.4181,-0.53391 -0.41626,-0.86775c0.00056,-0.26731 0.07959,-0.52322 0.47273,-0.37188z" fill="#9695b0"/></g><g><path d="M223.32462,189.94543c0.45727,-0.80058 1.29613,-0.42387 1.94727,-0.62681c0.92184,-0.28732 1.84276,-0.5569 2.82623,-0.36343c0.11807,-0.01132 0.23408,0.03661 0.30972,0.12796c0.83733,1.79286 1.47379,3.67282 1.8978,5.60562c0.0014,0.17191 -0.00729,0.34376 -0.026,0.51466c-0.02805,0.70436 0.46171,0.66009 0.90867,0.58574c2.37774,-0.39554 4.79131,-0.5889 7.12559,-1.23312c0.55341,-0.11985 0.65225,0.72414 1.33324,0.55298c-0.16331,-0.45587 -1.11118,-0.29054 -0.84481,-0.99523c0.13666,-0.31903 0.37468,-0.58409 0.67721,-0.75416c0.37333,-0.08141 0.67227,-0.3604 0.77927,-0.7272c-0.33671,-1.8085 -1.18012,-3.46696 -1.61267,-5.22876c0.99435,-0.78852 2.89522,-0.84743 3.52452,-0.13728c0.80607,1.75868 1.23814,3.6501 1.93808,5.30426c-0.25214,-0.77439 -0.62056,-1.65185 -0.89511,-2.56071c-0.07795,-0.25806 -0.28178,-0.51784 0.0365,-0.75441c0.64281,-0.01083 1.29505,-0.11044 2.09314,0.33469c0.56921,1.58443 1.20216,3.34633 1.83513,5.10824c0.04543,0.36396 -0.36318,0.31631 -0.45343,0.52505c-1.44202,0.86179 -3.1157,0.82327 -4.68455,1.19352c-0.29739,0.02542 -0.59316,0.06717 -0.88597,0.12504c-1.85967,0.28758 -3.69046,0.75604 -5.57698,0.87354c-1.66478,0.13255 -3.31477,0.34427 -4.90342,0.89099c-1.45902,0.33888 -2.9148,0.73386 -4.42503,0.27738c-0.34511,-0.20252 -0.69021,-0.40506 -1.12958,-0.66291c-0.27177,-0.30365 -0.14311,-1.19334 -1.00599,-0.83945c-0.70132,-1.99527 -1.3546,-3.84452 -1.99941,-5.69668c-0.1205,-0.34616 -0.2544,-0.71888 0.27294,-0.87341c0.45511,0.15879 0.46364,0.61701 0.65105,0.95595c0.57991,1.22377 1.02151,2.50842 1.31662,3.8301c0.08712,0.28259 0.13173,0.5957 0.49176,0.71645c0.16756,-0.38161 -0.10301,-0.63473 -0.15132,-0.92807c-0.51462,-1.48926 -1.09699,-2.95633 -1.45063,-4.49663c-0.03987,-0.22276 -0.12175,-0.45182 0.08018,-0.64389z" fill="#010102"/><path d="M247.31493,195.57491c0.58571,-0.01086 1.17143,-0.02173 1.77272,-0.03289c0.37485,0.14395 0.14638,0.5769 0.36133,0.80508c0.79779,1.05319 0.98832,2.35462 1.46474,3.53928c0.22365,0.55615 0.36268,1.14248 0.54645,1.55921c-0.13864,-1.06583 -1.05415,-2.07392 -0.8566,-3.37395c0.71841,-0.12587 1.44825,-0.32823 2.0788,0.36842c0.65964,1.58619 1.33954,3.23532 1.7199,5.23562c0.02225,0.14936 -0.44911,0.1062 -0.53972,0.37432c-0.13941,0.50295 -0.59318,0.50549 -0.97684,0.57715c-5.52422,1.03208 -11.082,1.86912 -16.62809,2.77257c-0.67739,0.11036 -1.44354,0.386 -2.11521,-0.13577l-1.32279,-0.28464c-0.66266,-0.44966 -0.41001,-1.52557 -1.36068,-1.14989c-0.57601,-1.56247 -1.10662,-2.99101 -1.62869,-4.4226c-0.2494,-0.68388 -0.51854,-1.36935 -0.25567,-2.11565c0.65441,0.02525 0.60626,0.60926 0.80505,0.99803c0.47226,1.26187 0.98659,2.50953 1.35168,3.80866c0.12328,0.2429 0.15542,0.54445 0.52645,0.7157c0.18387,-0.36135 -0.07774,-0.65976 -0.12755,-0.96765c-0.57363,-1.50135 -1.24793,-2.96802 -1.56146,-4.55781c-0.19074,-0.84094 0.34809,-1.09955 1.01047,-1.26165c0.9239,-0.12231 1.83834,-0.30313 2.74797,-0.50048c0.91924,-0.19946 1.49401,0.13662 1.77017,1.01788c0.48356,1.54315 1.14231,3.02693 1.57547,4.58715c0.06236,0.22956 0.10381,0.46429 0.12388,0.70132c0.02113,0.2319 -0.06932,0.47912 0.1578,0.81315c2.3863,-0.30791 4.80403,-0.69655 7.20599,-1.18191c0.69976,-0.14141 0.93995,-0.84614 1.41233,-1.26808c0.30113,-0.28256 0.83369,-0.14706 1.04921,-0.58053c-0.1577,-0.96037 -0.22197,-1.94696 -0.91715,-2.72571c-0.42183,-0.96928 -1.11127,-1.87287 -0.75991,-3.03366c0.37838,-0.46879 0.88173,-0.33814 1.36993,-0.28067z" fill="#010101"/><path d="M234.14241,207.26396c6.62361,-0.76803 13.19171,-1.87117 19.72011,-3.21395c0.68632,0.1727 0.68632,0.1727 1.07274,0.9092l-22.05286,3.70781c-0.42193,-0.21492 -0.45722,-0.5687 -0.50763,-0.97511c0.6019,-0.14572 1.18478,-0.28684 1.76764,-0.42795z" fill="#d9d5d4"/><path d="M230.99163,188.16584l2.83666,-0.45611c0.42782,-0.02144 0.4692,0.32805 0.61602,0.60797c0.19342,-0.0787 0.41163,-0.06855 0.59691,0.02775c0.53989,0.57176 0.77853,1.36465 0.64393,2.13943c-0.19606,0.36372 -0.19461,0.77095 -0.24851,1.16709c-0.50769,1.04166 -1.60334,0.95859 -2.48467,1.28905c-0.24825,0.02549 -0.49771,-0.03543 -0.70628,-0.17247c-0.77047,-1.29055 -1.13903,-2.72669 -1.51274,-4.16185c-0.00504,-0.18428 0.09533,-0.35536 0.25867,-0.44084z" fill="#fdfdfd"/><path d="M237.70986,188.31006c0.35251,1.00805 0.70502,2.01609 1.05752,3.02414c0.03708,0.74844 -0.58243,0.75293 -1.05406,0.92761c-0.22159,0.08028 -0.45766,0.11269 -0.69268,0.09511c-0.90915,-0.2526 -0.99449,-1.07089 -1.19394,-1.78328c-0.23388,-0.83536 -0.36377,-1.70356 -0.94059,-2.40373c-0.19356,-0.15544 -0.22915,-0.43629 -0.08047,-0.63508c0.60673,-0.07691 1.21346,-0.1538 1.82018,-0.2307c0.81155,-0.14649 0.79699,0.5911 1.08403,1.00594z" fill="#fbf3f2"/><path d="M231.53192,198.21779c-0.27053,0.19733 -0.67516,0.11431 -0.89848,0.48936c0.05492,0.15856 0.1298,0.3748 0.20468,0.59104c-0.02915,0.47838 0.23009,1.14917 -0.69231,1.03151c-0.25727,-0.30972 -0.13495,-0.82634 -0.57123,-1.0385c-1.37732,-0.00477 -2.69031,0.44354 -4.07576,0.56681c-0.32355,-0.1831 -0.48129,-0.56264 -0.38286,-0.92114c0.37712,-0.11747 0.75481,-0.23511 1.13304,-0.35291c1.45456,-0.18258 2.93356,-0.17333 4.36401,-0.54508c0.308,-0.17819 0.70026,-0.10182 0.9189,0.17891z" fill="#f5ece3"/><path d="M237.64228,192.02785c0.34476,-0.27991 0.93553,-0.16427 1.12514,-0.69364c0.49711,0.43274 0.99423,0.86548 1.49138,1.29823c0.06318,0.21874 0.39851,0.28885 0.31527,0.61346c-0.27421,0.22258 -0.63208,0.18845 -0.96957,0.22998c-0.1654,0.0688 -0.3486,0.08231 -0.5223,0.03852c-0.5439,-0.42934 -1.02813,-0.92925 -1.43992,-1.48655z" fill="#bdb6be"/><path d="M250.60357,198.07164c0.44739,1.44432 0.89479,2.88864 1.34219,4.33294c-0.14045,0.05018 -0.2809,0.10036 -0.42135,0.15054c-0.56925,-2.10832 -1.26221,-4.18126 -2.07531,-6.20807c0.05714,-0.09596 0.1144,-0.19199 0.21422,-0.35931c0.59367,0.6086 0.33515,1.55201 0.94026,2.08389z" fill="#474856"/><path d="M243.25013,189.25552c0.20629,1.51858 1.1271,2.83794 1.31894,4.36054l-0.37167,0.12911c-0.67557,-2.15957 -1.35114,-4.31914 -2.02672,-6.47873c0.79569,0.42864 0.52301,1.43176 1.07945,1.98909z" fill="#464856"/><path d="M247.31493,195.57491c-0.3766,0.22925 -0.87758,-0.04439 -1.22593,0.29914c-0.32328,0.37118 -0.7419,0.64692 -1.21058,0.79735c-0.90415,-0.48533 -1.8361,0.04895 -2.75083,-0.07673c-0.16791,-0.08819 -0.26033,-0.21194 -0.19333,-0.40971c1.5969,-0.32048 3.19379,-0.64097 4.79069,-0.96147c0.18427,0.13784 0.5055,0.04697 0.58998,0.35141z" fill="#c1bbc4"/><path d="M223.32462,189.94543l0.15294,0.52975c-0.05967,0.46162 0.25374,1.18128 -0.70866,1.01852c-0.12732,-0.32739 -0.25462,-0.65479 -0.38192,-0.98218c0.20666,-0.36253 0.30481,-0.90323 0.93765,-0.56609z" fill="#f2ece3"/><path d="M230.99163,188.16583l-0.10116,0.40637c-0.78043,0.482 -1.7173,0.64278 -2.61377,0.44854c-0.05353,-0.03561 -0.11472,-0.05806 -0.17857,-0.06555c-0.01612,-0.66186 0.52441,-0.47884 0.86791,-0.53643c0.67042,-0.1124 1.34987,-0.17167 2.02559,-0.25293z" fill="#bab1ab"/><path d="M234.80565,187.5348c0.04474,0.15329 0.08949,0.30659 0.13423,0.4599c0.2115,0.1651 0.13591,0.31782 -0.01953,0.4671c-0.19936,0.01351 -0.39871,0.02701 -0.62676,0.04248c-0.1501,-0.25625 -0.30775,-0.52539 -0.46535,-0.79454c0.10609,-0.15323 0.26888,-0.25785 0.45234,-0.29068c0.18345,-0.03284 0.37243,0.00882 0.52508,0.11575z" fill="#ea2829"/><path d="M237.70986,188.31006c-0.43466,-0.25685 -0.50024,-0.90871 -1.08404,-1.00594c0.51294,-0.30199 1.08621,-0.19917 1.9168,-0.29628c-0.42444,0.2503 -0.62635,0.36937 -0.82777,0.48919c-0.00135,0.27151 -0.00301,0.54253 -0.00499,0.81303z" fill="#bdb6be"/><path d="M231.53192,198.21779c-0.30637,-0.05962 -0.6127,-0.11925 -0.91899,-0.17889c1.59503,-0.66269 3.28245,-0.82798 4.98492,-0.91216c0.39969,0.52459 0.88554,0.15351 1.32494,0.10595c0.47251,-0.05114 0.93838,-0.26177 1.38986,0.06751c0.83331,1.24239 1.34076,2.67441 1.47567,4.16429c-0.64884,0.73715 -1.11563,1.71005 -2.29208,1.77067c-0.67426,-1.79352 -1.34895,-3.5882 -2.02409,-5.38405c-1.39052,-0.31474 -2.61362,0.59977 -3.94024,0.36668z" fill="#2c2927"/><path d="M228.2767,189.02074c0.85183,-0.24642 1.72852,-0.39686 2.61376,-0.44855c0.46776,1.35028 0.93551,2.70054 1.40325,4.05079c-0.3826,0.98914 -1.18703,1.75567 -2.19347,2.09012c-0.60785,-1.89746 -1.2157,-3.7949 -1.82354,-5.69235z" fill="#2c2927"/><path d="M239.05681,193.38299c0.18257,0.03096 0.36514,0.06191 0.54771,0.09288c-0.21735,0.19935 -0.43469,0.39871 -0.652,0.59806c-0.26148,0.17239 -0.3092,0.53729 -0.6108,0.67356c-0.91609,0.61426 -2.00405,0.53806 -3.02246,0.71525c-1.76767,0.30756 -3.54796,0.54382 -5.2428,0.79797c-0.3621,-0.52981 -0.12519,-0.84499 -0.00771,-1.17163c0.36475,-0.31075 0.56801,-0.84106 1.15845,-0.84765c1.07535,0.02749 2.14833,-0.11432 3.17963,-0.42022c0.4669,-0.43172 0.42432,-0.95665 0.77042,-1.26525c0.40839,-0.15772 0.42763,0.15773 0.48066,0.40696c0.04579,0.21533 0.01371,0.46299 0.30602,0.53429c1.04183,0.18646 2.05199,-0.37717 3.0929,-0.11421z" fill="#6b6e81"/><path d="M222.76889,191.4937c0.59497,-0.09124 0.59069,-0.59706 0.70868,-1.01841c0.49027,1.53965 0.98055,3.07937 1.47084,4.61918c-0.19736,0.26483 -0.41412,0.48542 -0.79009,0.3431c-0.46314,-1.31463 -0.92629,-2.62925 -1.38943,-3.94387z" fill="#423625"/><path d="M238.26192,197.38514c-0.90692,0.09004 -1.81383,0.18005 -2.69053,0.26707c-0.27312,-0.22594 -0.0722,-0.36953 0.0265,-0.52546c1.90213,-0.28389 3.80428,-0.56779 5.70647,-0.8517c0.01671,0.11586 -0.00494,0.23401 -0.06164,0.33642c-0.89038,0.64894 -1.98583,0.52006 -2.9808,0.77367z" fill="#c7c0bf"/><path d="M238.34172,194.74749c0.26436,-0.1699 0.02087,-0.79721 0.61089,-0.67362c-0.04266,1.07521 1.18543,-0.09427 1.27339,0.9493c-0.12297,0.4738 -0.6201,0.59464 -1.21372,0.54988c-0.53773,-0.0352 -0.07138,-0.85625 -0.67055,-0.82556z" fill="#5e5d66"/><path d="M231.12939,194.38427c-0.35354,0.23492 -0.70709,0.46985 -1.06063,0.70479c0.01049,-0.12532 0.02098,-0.25064 0.03147,-0.37598c0.73117,-0.69669 1.46233,-1.39339 2.19349,-2.09011c0.2131,0.02674 0.4262,0.05348 0.6393,0.08022c0.03286,0.04624 0.0658,0.0925 0.09881,0.13878c-0.41656,0.73595 -1.09624,1.28697 -1.90244,1.5423z" fill="#bdb6be"/><path d="M224.15833,195.43758c0.24221,-0.16261 0.44493,-0.41516 0.79007,-0.3433c0.16766,0.3495 0.473,0.64984 0.38399,1.12045c-0.13406,0.24169 -0.38226,0.33292 -0.73745,0.37448c-0.192,-0.35388 -0.44602,-0.69474 -0.43661,-1.15163z" fill="#f5f2ef"/><path d="M229.26251,196.58338c-0.48978,0.75331 -0.95284,1.02513 -1.70447,0.51443c0.34672,-0.82183 0.85559,-0.97125 1.70447,-0.51443z" fill="#5a5f6a"/><path d="M241.20417,196.55333c0.03294,-0.09259 0.06589,-0.18517 0.09952,-0.27802c0.17507,-0.14965 0.42078,-0.18484 0.63082,-0.09034c0.07494,0.11311 0.15004,0.22621 0.22532,0.3393c0.17544,0.04483 0.30595,0.19191 0.32959,0.37144c0.00966,0.18022 -0.06625,0.35444 -0.20484,0.47005c-0.78381,0.28994 -1.142,0.016 -1.08041,-0.81243z" fill="#f3363a"/><path d="M246.74102,202.26236c-0.46008,1.12995 -1.33903,1.59606 -2.52411,1.75316c-2.27335,0.30135 -4.53409,0.69605 -6.75002,1.04416c-0.35147,-0.56142 0.10269,-0.87564 0.09978,-1.25944c0.13749,-0.39794 0.48356,-0.68736 0.89954,-0.7523c1.13772,0.03428 2.22373,-0.27847 3.20385,-0.43323c0.51499,-0.25672 0.52264,-0.74345 0.8314,-1.00581c0.69685,-0.16383 0.31489,0.76417 0.81811,0.7941c1.01304,-0.05356 2.01336,-0.25068 2.971,-0.58544c0.24543,0.00278 0.44457,0.19942 0.45046,0.4448z" fill="#656f86"/><path d="M243.16073,202.66803c-0.12699,0.10967 -0.26051,0.18 -0.42469,0.06879c-0.14675,-0.37867 0.17905,-0.79343 -0.08991,-1.16318c-0.80968,0.08902 -1.59992,0.48866 -2.43707,0.14833c-0.08875,-0.06766 -0.14158,-0.17228 -0.14333,-0.28387c0.62147,-0.81291 1.72591,-0.63329 2.46912,-1.19275c0.12502,-0.08664 0.26524,-0.15987 0.29608,-0.33203c-0.03923,-0.19054 -0.09407,-0.37753 -0.16397,-0.55908c-0.06844,-0.71358 -0.55597,-1.34726 -0.40583,-2.10131c0.01912,-0.15505 0.03825,-0.3101 0.05739,-0.46516c0.66803,-0.02693 0.70355,0.5514 0.88465,0.95617c0.34114,0.76247 0.45988,1.6157 0.90431,2.30812c0.4375,0.23777 0.81032,0.13531 1.19704,-0.06781c0.32352,-0.67052 -0.61031,-1.36798 0.01583,-2.03521c0.69508,-0.03789 0.697,0.55705 0.85258,0.97132c0.27301,0.72692 0.55554,1.43555 1.19316,1.93428c0.20839,0.3362 0.47767,0.63155 0.67157,0.97798c-0.29395,0.55561 -0.85269,0.32142 -1.29661,0.42978c-0.13769,-0.12991 -0.27536,-0.25981 -0.41303,-0.38972c-0.78454,-0.39252 -1.543,-0.99201 -2.46479,-0.29569c-0.34267,0.28329 -0.30509,0.82478 -0.70251,1.09106z" fill="#c1bbc4"/><path d="M247.22458,201.0708c-0.82117,-0.33078 -0.9907,-1.10326 -1.27177,-1.81557c-0.17062,-0.4324 -0.13014,-0.96933 -0.58688,-1.27228c-0.5893,-0.31528 -0.82839,-0.74685 -0.46321,-1.37906c0.17951,-0.59117 0.74669,-0.55777 1.1863,-0.72985c-0.0338,1.06391 0.39738,1.9924 0.85855,2.91215c0.24894,0.74293 0.98722,1.42774 0.27699,2.28461z" fill="#1e1c1b"/><path d="M230.14581,200.32969c0.55726,-0.1259 0.54761,-0.63012 0.69233,-1.03142c0.50784,1.50325 1.01568,3.00654 1.52354,4.50989c-0.26735,0.18148 -0.56541,0.31293 -0.87971,0.38796c-0.4454,-1.2888 -0.89079,-2.57761 -1.33617,-3.86642z" fill="#342c22"/><path d="M236.62753,205.32975c-0.46024,0.87308 -0.97585,1.01837 -1.77414,0.59884c0.38655,-0.90954 0.87558,-1.13884 1.77414,-0.59884z" fill="#585f6e"/><path d="M231.48198,204.19612c0.18535,-0.37187 0.42321,-0.62568 0.87983,-0.38776c0.14195,0.3685 0.28402,0.73717 0.41332,1.07269c-0.17061,0.40252 -0.48119,0.44192 -0.80615,0.49517c-0.3333,-0.32773 -0.37774,-0.7677 -0.487,-1.1801z" fill="#eed9b8"/><path d="M238.45709,203.16763c-0.29674,0.21092 -0.59351,0.42181 -0.89033,0.63268c-0.14792,-0.15108 -0.17677,-0.38233 -0.07053,-0.56514c0.86015,-0.42372 1.37754,-1.25463 2.1434,-1.79038c0.06483,-0.05232 0.14828,-0.07578 0.23088,-0.0649c0.0826,0.01089 0.15712,0.05516 0.20618,0.1225c0.02672,0.04752 0.05457,0.09438 0.08354,0.1406c-0.27155,0.76474 -0.91313,1.33907 -1.70314,1.52465z" fill="#c8c1c0"/><path d="M247.76197,203.58879c-0.59526,0.72661 -1.07516,1.04413 -1.84827,0.44026c0.46843,-0.69058 0.97861,-0.87526 1.84827,-0.44026z" fill="#656f86"/><path d="M247.22458,201.0708c0.375,-0.81697 -0.26256,-1.51379 -0.27683,-2.2846c0.93966,0.81147 0.66386,2.05312 1.08992,3.0464c-0.27104,-0.25394 -0.54206,-0.50787 -0.81309,-0.76179z" fill="#010102"/><path d="M235.84213,193.61941c-0.12147,0.12187 -0.11866,0.38894 -0.4149,0.33074c-0.35537,-0.40013 0.30791,-0.97815 -0.21015,-1.35712c-0.69183,0.44993 -1.40476,0.72061 -2.2045,0.25434c-0.02643,-0.04793 -0.05291,-0.09592 -0.07944,-0.14397c0.72737,-0.46869 1.81386,-0.19172 2.32513,-1.10918c0.49354,-0.25707 0.24799,-0.68835 0.25029,-1.06121c0.07383,-0.76613 -0.31689,-1.40194 -0.58828,-2.0712c0.00669,-0.15566 0.01329,-0.31134 0.01979,-0.46704c0.82982,0.80248 0.83937,1.96233 1.27844,2.93569c0.21721,0.48153 0.31833,1.01305 0.88412,1.23427c-0.28818,0.5985 -0.93397,0.88918 -1.26049,1.45468z" fill="#bdb6be"/><path d="M235.50857,190.533c0.39475,0.22057 0.47851,0.58682 0.48295,0.98709c-0.2253,0.32828 -0.48168,0.17684 -0.73348,0.07353c-0.05798,-0.22862 -0.11622,-0.45782 -0.16607,-0.65399c0.04062,-0.20908 0.20659,-0.37109 0.4166,-0.40663z" fill="#f81718"/><path d="M235.84213,193.61941c0.05376,-0.34746 0.10751,-0.69492 0.15096,-0.97569c0.30785,-0.4346 0.81014,-0.20161 1.10953,-0.47897l0.53967,-0.13689c0.87244,0.03615 1.0725,0.76927 1.41457,1.35515c-1.06607,0.15204 -2.09823,0.75129 -3.21472,0.23641z" fill="#18181b"/><path d="M244.90273,196.60388c0.15441,0.45969 0.30883,0.91938 0.46323,1.37907c-0.23951,0.80013 0.55669,1.42001 0.36374,2.31553c-0.52902,0.10116 -1.10535,0.21136 -1.68837,0.32284c-0.87552,-1.1852 -0.71852,-2.7705 -1.7224,-3.8333c-0.05327,-0.08801 -0.10629,-0.17589 -0.15907,-0.26363c0.91852,-0.12765 1.8542,-0.87515 2.74287,0.07949z" fill="#fcf4f2"/><path d="M240.07671,201.50239l-0.43706,-0.05759c-0.45925,-1.35323 -0.91848,-2.70645 -1.37773,-4.05966c0.8419,-0.76198 1.993,-0.44401 2.9421,-0.8319c0.12596,0.22861 0.25177,0.45713 0.39099,0.71c0.22293,-0.00346 0.44452,-0.00689 0.66613,-0.01033c0.28262,0.66001 0.66783,1.28988 0.60936,2.05005c-0.15051,0.34927 0.09476,0.78985 -0.2525,1.09372c-0.64685,0.82418 -1.77218,0.55975 -2.54129,1.10572z" fill="#fdfdfd"/><path d="M233.01258,192.84736c0.73482,-0.08479 1.46965,-0.16958 2.20448,-0.25437c-0.07502,0.47237 -0.15005,0.94473 -0.24105,1.51749c-1.32931,0.00757 -2.5185,0.80071 -3.84658,0.27374c0.62417,-0.51656 1.11699,-1.19287 1.88316,-1.53687z" fill="#17171a"/><path d="M238.45709,203.16763c0.56772,-0.50821 1.13544,-1.01642 1.70315,-1.52464c0.83122,0.06385 1.64401,-0.49158 2.48589,-0.06938c-0.1066,0.38734 -0.2132,0.77465 -0.36405,1.32268c-1.25763,-0.07035 -2.45924,0.81422 -3.82499,0.27134z" fill="#18181a"/><path d="M243.16073,202.66803c0.06113,-0.4729 0.12228,-0.9458 0.19042,-1.47302c0.75073,-0.12201 1.42064,-0.23088 2.03427,-0.3306c0.51126,0.22601 0.66091,0.67653 0.94257,1.0082c-0.88524,0.93516 -2.09316,0.60235 -3.16726,0.79542z" fill="#18191c"/><path d="M242.61798,200.39667c-0.02697,-0.39002 -0.50105,-0.88281 0.25205,-1.09365c0.31341,0.24158 0.48906,0.62102 0.47044,1.01629c-0.19716,0.18285 -0.49108,0.21433 -0.72248,0.07736z" fill="#f41618"/></g></g></g></g></g></svg>