<svg version="1.1" xmlns="http://www.w3.org/2000/svg" xmlns:xlink="http://www.w3.org/1999/xlink" width="86.017" height="65.9746" viewBox="0,0,86.017,65.9746"><g transform="translate(-196.5575,-147.3651)"><g data-paper-data="{&quot;isPaintingLayer&quot;:true}" fill-rule="nonzero" stroke="none" stroke-linejoin="miter" stroke-miterlimit="10" stroke-dasharray="" stroke-dashoffset="0" style="mix-blend-mode: normal"><path d="M282.5745,180.3524l-43.0085,32.9873l-43.0085,-32.9873l43.0085,-32.9873z" fill="#e4f1f5" stroke-width="1" stroke-linecap="butt"/><g><path d="M240.01509,178.8779c1.61235,0 3.07454,0.41354 4.13303,1.08187c1.05849,0.66833 1.71328,1.59142 1.71328,2.61053c0,1.0191 -0.65479,1.94221 -1.71328,2.61053c-1.05849,0.66833 -2.52068,1.08187 -4.13303,1.08187c-1.61235,0 -3.07454,-0.41355 -4.13303,-1.08187c-1.05849,-0.66833 -1.71328,-1.59143 -1.71328,-2.61053c0,-1.0191 0.65479,-1.9422 1.71328,-2.61053c1.05849,-0.66833 2.52068,-1.08187 4.13303,-1.08187z" fill="#d2dde1" stroke-width="1" stroke-linecap="butt"/><g stroke-width="0.01418" stroke-linecap="butt"><g><g><path d="M233.82687,162.52412h6.10637v17.56907h-6.10637z" fill="none"/><path d="M238.29332,177.61571v0c-1.50047,0.54093 -2.61705,1.9715 -4.44898,2.44265c0.55829,-1.25628 0.95953,-2.2856 1.58761,-3.31492c0.47102,-0.95965 0.3141,-1.34342 -0.71534,-1.43069c-0.22683,-0.87239 0.40136,-1.43068 0.64556,-2.05876c0.22683,-0.69787 1.09923,-1.32595 0,-2.04129c-0.24419,-0.08727 -0.08727,-0.48851 0,-0.71534c1.09923,-2.61705 2.37286,-5.2341 3.62902,-7.69411c0.17441,-0.24432 0.41872,-0.38388 0.71534,-0.15705c0.47102,0.71534 -0.00001,1.50047 -0.06979,2.30308c0,0.55829 -0.15705,1.09911 -0.22683,1.74466c0.13958,0.94218 -1.27364,1.50047 -0.64556,2.61705c0,0.15705 0.08727,0.31398 0.08727,0.38376c-0.48851,1.02944 -0.71534,2.07624 -0.40136,3.08821c0,0.17441 -0.08714,0.33145 -0.15693,0.38376c-1.1167,0.71534 -0.15706,1.11658 0.22671,1.58773c0.24432,0.64556 0.24432,1.27364 0.33158,1.98898c0,0.31397 -0.15705,0.62807 -0.55829,0.87226z" fill="#20a900"/></g></g><g><g><path d="M231.8902,161.84374h7.83368v13.50385h-7.83368z" fill="none"/><path d="M239.54948,162.55895v0c-1.34342,2.7741 -2.68684,5.63547 -4.11753,8.49671c0.40124,0.38388 0.71535,-0.17441 1.18637,0c-0.31397,1.57026 -1.18637,2.82641 -1.90171,4.25709c-0.62808,-0.15705 -1.34341,-0.24432 -1.9715,-0.47115c-0.31397,-0.08714 -1.27364,-0.08714 -0.64556,-0.95953c1.04692,-0.31397 1.58774,-1.25615 2.30308,-1.95402c0.15693,-0.24432 0.64555,-0.64556 -0.06979,-0.8026c-0.55829,-0.15705 -1.11658,-0.31398 -1.90171,-0.47103c1.18637,-1.02944 2.21569,-1.98898 3.24513,-2.86137c-0.48851,-0.71534 -1.34342,-0.31398 -1.90171,-0.87227c0.31397,-0.78513 1.27364,-1.02944 1.74466,-1.74478c1.27364,-1.09911 2.2856,-2.61705 3.89068,-3.31492c0.13958,0.06978 0.22684,0.13957 0.29663,0.3141c0,0.15705 -0.06978,0.24418 -0.15705,0.38376z" fill="#35db00"/></g></g><g><g><path d="M239.86345,162.38455h5.51325v14.91718h-5.51325z" fill="none"/><path d="M244.53927,177.21447v0h-0.15705l-0.08714,-0.08727c-0.3141,-0.31397 -0.95966,0.00001 -1.18649,-0.54081c-0.33146,-0.55829 -0.47103,-1.18637 -0.33145,-1.83193c0.8026,-1.27364 0.41871,-2.28559 -0.54082,-3.22777c0.06978,-0.95953 -0.40136,-1.6574 -0.55829,-2.54727c-0.38388,-1.09911 -0.38388,-2.37273 -1.27363,-3.31491c-0.36641,-1.0468 -0.92471,-2.05864 -0.06979,-3.17535c1.09911,-0.40124 1.74466,0.55842 2.44253,1.02944c0.33146,0.71534 0.95966,0.87227 1.43068,1.27363c0.17441,0.78513 -1.50047,1.09911 -0.54082,2.12855c0.22672,0.80248 0.785,1.51782 0.62808,2.30295c0.08714,0 0.06979,0 0.08714,0c-0.48851,0.24432 -0.71522,0.55829 -0.33146,0.87239c1.11658,1.11658 1.18637,2.52979 1.0468,3.94299c0.13958,0.80248 0,1.67488 0.22683,2.54727c0.15705,0.78513 -0.3141,0.71534 -0.78512,0.62807z" fill="#209900"/></g></g><g><g><path d="M238.27584,176.5864h3.10556v6.36816h-3.10556z" fill="none"/><path d="M238.29332,177.61571v0c0.15693,-0.24419 0.22671,-0.55829 0.31397,-0.80248c0.15705,-0.15705 0.38389,-0.22683 0.62808,-0.22683c0.71534,0.15705 0.64556,0.78512 0.87239,1.18636c0.47102,-0.95953 0.85492,-0.31409 1.18637,0.06979c0.13958,0.3141 0,0.64556 -0.08727,0.95953c0,0.78513 0.08727,1.65752 0,2.46013c0,0.69787 0.47116,1.74466 -0.95953,1.65739c-1.16902,0 -1.95402,-0.31397 -1.95402,-1.74466c0.06978,-1.18637 0,-2.37286 0,-3.55923z" fill="#7f471c"/></g></g><g><g><path d="M244.53927,173.88208h3.59406v4.16983h-3.59406z" fill="none"/><path d="M244.53927,177.21447v0c0.13958,-0.08727 0.62807,-0.24432 0.55829,-0.3141c-1.20385,-0.95953 0,-1.98897 -0.17441,-2.93103c0.06978,-0.01747 0.08714,-0.08726 0.17441,-0.08726c0.06978,0 0.06978,0.08726 0.13957,0.08726c0.87239,1.34342 2.05877,2.44252 2.86137,4.04773c-1.34342,-0.24432 -2.46,-0.40136 -3.55923,-0.8026z" fill="#35a700"/></g></g><g><g><path d="M241.11973,176.09789h3.21017v4.79791h-3.21017z" fill="none"/><path d="M241.20687,178.80208v0c-0.08714,-0.31397 -0.08714,-0.71522 -0.08714,-1.02932c0.08714,-0.08727 0.08714,-0.08727 0.17441,-0.15705c0.22683,0 0.47102,0 0.47102,-0.40124c0,-0.55829 0.3141,-0.95965 0.87239,-1.09922c0.38388,-0.08714 0.55829,0.13957 0.69786,0.38388c0.33158,0.24432 0.64556,0.40124 0.95965,0.62807c-1.34342,-0.31397 -1.58773,0.24432 -1.09923,1.43069c0.13958,0.47102 0.29662,0.95953 0.47115,1.43068c0.06978,0.31397 0.47103,0.785 -0.24431,0.87227c-0.55829,-0.71534 -1.02932,-1.34342 -1.50047,-2.05876c-0.24419,-0.31397 -0.48851,-0.31397 -0.71534,0z" fill="#35a700"/></g></g><g><g><path d="M243.61456,169.20627h3.03578v4.79791h-3.03578z" fill="none"/><path d="M244.92315,173.96934v0c-0.24432,-1.34342 -0.15705,-2.75662 -1.18637,-3.94299c-0.3141,-0.33158 0,-0.8026 0.64543,-0.8026c-0.64543,0.8026 0.15705,1.18636 0.54093,1.34341c1.11658,0.64556 1.18637,1.83193 1.6574,2.75663c0.17453,0.33146 -0.13957,0.24432 -0.38376,0.33146c-0.47115,-0.24419 -0.8724,-0.33145 -1.1865,0.22684z" fill="#35a700"/></g></g><g><g><path d="M243.56226,166.90332h2.11107v2.58209h-2.11107z" fill="none"/><path d="M244.29507,169.22375v0c-0.40136,-0.71534 -0.95966,-1.34342 -0.62808,-2.30295c1.09911,0.48851 1.90171,1.20385 1.9715,2.46c-0.47115,0.24419 -0.87239,-0.06978 -1.34342,-0.15705z" fill="#35a700"/></g></g><g><g><path d="M232.08221,171.91058h2.33779v2.00645h-2.33779z" fill="none"/><path d="M234.40264,171.92806v0c-0.47115,1.02932 -1.02944,1.88423 -2.30308,1.95402c0.71534,-0.71534 1.51794,-1.4132 2.30308,-1.95402z" fill="#3cdc00"/></g></g><g><g><path d="M242.77713,163.74544h1.46551v1.06427h-1.46551z" fill="none"/><path d="M242.77713,163.7628v0c0.17453,0 0.33146,0.06978 0.55829,0.06978c0.15705,0.48851 0.87239,0.40136 0.87239,0.95965c-0.62808,-0.17453 -1.25615,-0.24431 -1.43068,-1.02944z" fill="#66b500"/></g></g><g><g><path d="M238.11879,165.03644h2.12855v11.81162h-2.12855z" fill="none"/><path d="M239.23538,176.81323v0h-0.62808c-0.40124,-0.55841 -0.08726,-1.25628 -0.31397,-1.90184c0.40124,-0.62808 -0.48851,-1.25615 0,-1.88423v0c0.15693,-1.18637 0.62807,-2.30295 0.31397,-3.48932v0c-0.40124,-1.09923 0.80261,-1.81457 0.62808,-2.84389c-0.31397,-0.55829 0.08727,-1.02945 0,-1.58774c0.17453,-0.08714 0.3141,-0.08714 0.47115,0c0.54082,0.47115 0.54081,1.1167 0.47102,1.74479c0,2.68684 -0.06978,5.39103 0,8.14765c0,0.71534 -0.13957,1.41321 -0.94217,1.81457z" fill="#178e00"/></g></g><g><g><path d="M237.83965,169.52037h1.20385v3.52428h-1.20385z" fill="none"/><path d="M238.6073,169.53785v0c0.62808,1.11658 0.55829,2.61705 -0.31397,3.48932c-0.71534,-1.25616 -0.48851,-2.37274 0.31397,-3.48932z" fill="#179b00"/></g></g><g><g><path d="M236.93242,173.00969h1.8494v1.93667h-1.8494z" fill="none"/><path d="M238.29332,173.02717v0c0.22672,0.62808 0.94206,1.25615 0,1.88423c0,-0.06978 -0.08727,-0.06978 -0.08727,-0.15693c-0.47102,-0.24432 -1.25615,-0.24431 -1.25615,-0.94218c0,-0.64556 0.94205,-0.40124 1.34342,-0.78513z" fill="#179f00"/></g></g><g><g><path d="M237.94439,166.67648h1.37825v2.87872h-1.37825z" fill="none"/><path d="M239.23538,166.69395v0c0.24432,1.02932 -0.2442,1.9715 -0.62808,2.84389c-0.47102,-0.6282 -1.27364,-1.27364 0.15705,-1.81457c0.31397,-0.15693 0.00001,-0.80248 0.47103,-1.02932z" fill="#179b00"/></g></g><g><g><path d="M239.21802,162.2275h0.94206v2.8962h-0.94206z" fill="none"/><path d="M239.54948,165.10622v0h-0.3141c0,-0.87227 0.47115,-1.67488 0.3141,-2.54727v-0.31397c0.85492,0.95953 0.69787,1.90171 0,2.86124z" fill="#209900"/></g></g><g><g><path d="M239.21802,161.87857h2.66936v16.10355h-2.66936z" fill="none"/><path d="M239.54948,165.10622v0c0.15705,-0.95953 0.69787,-1.90171 0,-2.86124v-0.24432c0.48851,-0.2965 0.69786,0.08727 1.02931,0.48851c-0.69787,1.1167 -0.1744,2.21581 0.22684,3.24513c0.24432,0.71534 0.4885,1.43068 0.62807,2.21581c0.33146,2.54727 -0.06978,5.07705 0.40124,7.60684c0.08727,0.78513 -0.24419,1.57026 -0.71522,2.21581v0c-0.06978,-0.08727 -0.24432,-0.15704 -0.24432,-0.08726c-1.16889,0.87239 -1.08175,-0.62808 -1.64004,-0.87227c1.01197,-2.05876 0.40136,-4.25709 0.47115,-6.31585c0.08714,-1.34342 0.33146,-2.70431 0.17441,-4.04773c-0.08727,-0.47102 -0.08727,-0.94206 -0.33146,-1.34342z" fill="#177c00"/></g></g><g><g><path d="M241.08478,167.93264h2.7741v9.96223h-2.7741z" fill="none"/><path d="M241.11973,177.77276v0c0.47102,-3.26261 -0.15705,-6.56004 0,-9.82265c0.80248,0.08727 0.47103,0.80261 0.71522,1.27363c0.15705,0.71534 0.71534,1.43068 0.55841,2.21581c1.27364,0.87227 2.1459,1.72718 0.62808,3.15786c-0.78513,-0.3141 -0.54094,-1.11658 -0.87239,-1.64004c0,-0.03483 0.08727,-0.08726 0,-0.08726c0,0.15705 0.08726,0.29662 0.08726,0.38389c0.15705,1.02932 0.78513,1.90171 0.47103,2.93103c-0.22683,0.3141 -0.71534,0.55841 -0.62808,1.1167c0.06978,0.85492 -0.55829,0.47102 -0.95953,0.47102z" fill="#179200"/></g></g><g><g><path d="M242.00948,172.66076h1.36089v3.87333h-1.36089z" fill="none"/><path d="M242.70734,176.18503v0c-0.15705,-1.02932 -0.71534,-2.05864 -0.62808,-3.15787c-0.15705,-0.31397 0,-0.40124 0.3141,-0.31398c0.24419,0.6106 0.38377,1.25615 0.62808,1.88423c-0.06978,0.62808 0.24419,1.27363 0.31397,1.90171c-0.22683,-0.08727 -0.38376,-0.24432 -0.62808,-0.3141z" fill="#17c200"/></g></g><g><g><path d="M240.80563,165.71695h1.30858v3.52427h-1.30858z" fill="none"/><path d="M241.76516,169.22375v0c-0.47102,-0.24432 -0.17441,-1.02932 -0.64543,-1.27363c-0.06978,-0.71534 -0.24432,-1.50047 -0.3141,-2.21581c0.87239,0.87239 0.87239,2.14602 1.27363,3.17534c-0.15705,0.06978 -0.15705,0.3141 -0.3141,0.3141z" fill="#17ab00"/></g></g><g><g><path d="M241.76516,168.89229h0.90734v2.56462h-0.90734z" fill="none"/><path d="M241.76516,169.22375v0c0.06978,-0.06978 0.22683,-0.24432 0.3141,-0.3141c-0.08727,0.87239 1.02932,1.58773 0.3141,2.52991c-0.3141,-0.71534 -0.6282,-1.41321 -0.6282,-2.21581z" fill="#17bc00"/></g></g><g><g><path d="M241.74781,171.98037h0.68039v1.06427h-0.68039z" fill="none"/><path d="M242.39336,172.71319v0c-0.08727,0.06978 -0.24432,0.24419 -0.3141,0.31398c-0.3141,-0.31397 -0.48851,-0.62808 -0.15705,-1.02932c0.15705,0.24419 0.3141,0.47102 0.47115,0.71534z" fill="#17b100"/></g></g></g><path d="M240.13817,161.40052c1.13726,0.17601 1.91759,1.34034 2.58468,2.27698c0.16739,0.23385 -0.43571,0.34586 -0.49232,0.6154c-0.1797,0.37539 0.21293,1.1348 -0.18462,1.2308c-0.65479,0.14892 -1.29972,-0.9748 -2.03082,-0.86156c-0.77418,0.05047 -1.44742,1.48312 -1.90774,1.29234c-0.4074,-0.16985 0.4037,-1.31327 0.3077,-1.96928c-0.07015,-0.47509 -1.18403,-0.75817 -0.9231,-1.16926c0.56494,-0.83571 1.66527,-1.58405 2.64622,-1.41542z" fill="#ffffff" stroke-width="1" stroke-linecap="round"/><path d="M242.23053,172.60082c0.26709,0.6474 0.34216,1.41542 0.55386,2.03082c0.13415,0.39016 0.58832,0.7114 0.55387,1.10772c-0.03077,0.34955 -0.3914,1.07695 -0.6154,0.86156c-0.64371,-0.62771 -0.98587,-1.62097 -1.2308,-2.52314c-0.31754,-1.17788 -0.53293,-3.44624 -0.36924,-3.75394c0.12801,-0.27447 0.79632,1.51881 1.10772,2.27698z" fill="#ffffff" stroke-width="1" stroke-linecap="round"/></g></g></g></svg>