<svg xmlns="http://www.w3.org/2000/svg" xmlns:xlink="http://www.w3.org/1999/xlink" width="87.017" height="66.975" version="1.1" viewBox="-0.434 0.352 87.017 66.975"><path id="ID0.8299277680926025" fill="#E4F1F5" stroke="none" stroke-width=".046" d="M 43.0745 0.8524 L 86.083 33.8397 L 43.0745 66.827 L 0.066 33.8397 L 43.0745 0.8524 L 43.0745 0.8524 Z M 0.066 0.8524 L 0.066 0.8524 Z M 86.083 66.827 L 86.083 66.827 Z"/><g id="ID0.2873590891249478"><path id="ID0.5525333690457046" fill="#D2DDE1" stroke="none" stroke-width="1" d="M 30.75 29.5 C 32.06 29.5 33.248 29.836 34.108 30.379 C 34.968 30.922 35.5 31.672 35.5 32.5 C 35.5 33.328 34.968 34.078 34.108 34.621 C 33.248 35.164 32.06 35.5 30.75 35.5 C 29.44 35.5 28.252 35.164 27.392 34.621 C 26.532 34.078 26 33.328 26 32.5 C 26 31.672 26.532 30.922 27.392 30.379 C 28.252 29.836 29.44 29.5 30.75 29.5 Z"/><g id="ID0.4068884118460119"><g id="ID0.3669395186007023"><g id="ID0.5140059418044984"><g id="container-id1"><g id="id1"><g id="ID0.8642571847885847"><g id="ID0.6160394051112235"><g id="ID0.19017640501260757"><g id="id6"><path id="ID0.6014199838973582" fill="none" stroke="none" stroke-width=".014" d="M 25.7222 16.2129 L 30.6835 16.2129 L 30.6835 30.4874 L 25.7222 30.4874 L 25.7222 16.2129 Z"/><path id="ID0.26377308275550604" fill="#20A900" stroke="none" stroke-width=".014" d="M 29.3511 28.4745 L 29.3511 28.4745 C 28.132 28.914 27.2248 30.0763 25.7364 30.4591 C 26.19 29.4384 26.516 28.6021 27.0263 27.7658 C 27.409 26.9861 27.2815 26.6743 26.4451 26.6034 C 26.2608 25.8946 26.7712 25.441 26.9696 24.9307 C 27.1539 24.3637 27.8627 23.8534 26.9696 23.2722 C 26.7712 23.2013 26.8987 22.8753 26.9696 22.691 C 27.8627 20.5647 28.8975 18.4384 29.9181 16.4397 C 30.0598 16.2412 30.2583 16.1278 30.4993 16.3121 C 30.882 16.8933 30.4993 17.5312 30.4426 18.1833 C 30.4426 18.6369 30.315 19.0763 30.2583 19.6008 C 30.3717 20.3663 29.2235 20.8199 29.7338 21.7271 C 29.7338 21.8547 29.8047 21.9822 29.8047 22.0389 C 29.4078 22.8753 29.2235 23.7258 29.4786 24.548 C 29.4786 24.6897 29.4078 24.8173 29.3511 24.8598 C 28.4438 25.441 29.2235 25.767 29.5353 26.1498 C 29.7338 26.6743 29.7338 27.1846 29.8047 27.7658 C 29.8047 28.0209 29.6771 28.2761 29.3511 28.4745 Z"/></g></g><g id="ID0.07849532412365079"><g id="id7"><path id="ID0.1920809685252607" fill="none" stroke="none" stroke-width=".014" d="M 24.1487 15.6601 L 30.5134 15.6601 L 30.5134 26.6317 L 24.1487 26.6317 L 24.1487 15.6601 Z"/><path id="ID0.40783840510994196" fill="#35DB00" stroke="none" stroke-width=".014" d="M 30.3717 16.2412 L 30.3717 16.2412 C 29.2802 18.4951 28.1887 20.8199 27.0263 23.1446 C 27.3523 23.4565 27.6075 23.0029 27.9902 23.1446 C 27.7351 24.4204 27.0263 25.441 26.4451 26.6034 C 25.9348 26.4758 25.3536 26.4049 24.8433 26.2206 C 24.5882 26.1498 23.8085 26.1498 24.3188 25.441 C 25.1694 25.1859 25.6088 24.4204 26.19 23.8534 C 26.3175 23.6549 26.7145 23.3289 26.1333 23.2013 C 25.6797 23.0737 25.2261 22.9462 24.5882 22.8186 C 25.5521 21.9822 26.3884 21.2026 27.2248 20.4938 C 26.8279 19.9126 26.1333 20.2387 25.6797 19.7851 C 25.9348 19.1472 26.7145 18.9487 27.0972 18.3675 C 28.132 17.4745 28.9542 16.2412 30.2583 15.6742 C 30.3717 15.7309 30.4426 15.7876 30.4993 15.9294 C 30.4993 16.057 30.4426 16.1278 30.3717 16.2412 Z"/></g></g><g id="ID0.0643974794074893"><g id="id8"><path id="ID0.048499985598027706" fill="none" stroke="none" stroke-width=".014" d="M 30.6268 16.0995 L 35.1062 16.0995 L 35.1062 28.2194 L 30.6268 28.2194 L 30.6268 16.0995 Z"/><path id="ID0.2103452212177217" fill="#209900" stroke="none" stroke-width=".014" d="M 34.4258 28.1485 L 34.4258 28.1485 L 34.2982 28.1485 L 34.2274 28.0776 C 33.9722 27.8225 33.4477 28.0776 33.2634 27.6382 C 32.9941 27.1846 32.8807 26.6743 32.9941 26.1498 C 33.6462 25.115 33.3343 24.2928 32.5547 23.5273 C 32.6114 22.7477 32.2286 22.1807 32.1011 21.4577 C 31.7892 20.5647 31.7892 19.5299 31.0663 18.7644 C 30.7686 17.9139 30.315 17.0918 31.0096 16.1845 C 31.9026 15.8585 32.4271 16.6382 32.9941 17.0209 C 33.2634 17.6021 33.7738 17.7296 34.1565 18.0557 C 34.2982 18.6936 32.9374 18.9487 33.7171 19.7851 C 33.9013 20.4371 34.3549 21.0183 34.2274 21.6562 C 34.2982 21.6562 34.2841 21.6562 34.2982 21.6562 C 33.9013 21.8547 33.7171 22.1098 34.0289 22.365 C 34.9361 23.2722 34.9928 24.4204 34.8794 25.5686 C 34.9928 26.2206 34.8794 26.9294 35.0637 27.6382 C 35.1913 28.2761 34.8085 28.2194 34.4258 28.1485 Z"/></g></g><g id="ID0.22372102364897728"><g id="id9"><path id="ID0.931830583140254" fill="none" stroke="none" stroke-width=".014" d="M 29.3369 27.6382 L 31.8601 27.6382 L 31.8601 32.8122 L 29.3369 32.8122 L 29.3369 27.6382 Z"/><path id="ID0.7673993106000125" fill="#7F471C" stroke="none" stroke-width=".014" d="M 29.3511 28.4745 L 29.3511 28.4745 C 29.4786 28.2761 29.5353 28.0209 29.6062 27.8225 C 29.7338 27.6949 29.9181 27.6382 30.1165 27.6382 C 30.6977 27.7658 30.641 28.2761 30.8253 28.6021 C 31.208 27.8225 31.5199 28.3469 31.7892 28.6588 C 31.9026 28.914 31.7892 29.1833 31.7183 29.4384 C 31.7183 30.0763 31.7892 30.7851 31.7183 31.4372 C 31.7183 32.0042 32.1011 32.8547 30.9387 32.7838 C 29.9889 32.7838 29.3511 32.5287 29.3511 31.3663 C 29.4078 30.4024 29.3511 29.4384 29.3511 28.4745 Z"/></g></g><g id="ID0.6957251871936023"><g id="id10"><path id="ID0.24212318193167448" fill="none" stroke="none" stroke-width=".014" d="M 34.4258 25.441 L 37.3459 25.441 L 37.3459 28.8289 L 34.4258 28.8289 L 34.4258 25.441 Z"/><path id="ID0.28458312153816223" fill="#35A700" stroke="none" stroke-width=".014" d="M 34.4258 28.1485 L 34.4258 28.1485 C 34.5392 28.0776 34.9361 27.95 34.8794 27.8933 C 33.9013 27.1137 34.8794 26.2773 34.7377 25.5119 C 34.7944 25.4977 34.8085 25.441 34.8794 25.441 C 34.9361 25.441 34.9361 25.5119 34.9928 25.5119 C 35.7016 26.6034 36.6655 27.4964 37.3176 28.8006 C 36.2261 28.6021 35.3189 28.4745 34.4258 28.1485 Z"/></g></g><g id="ID0.6787915863096714"><g id="id11"><path id="ID0.43362822476774454" fill="none" stroke="none" stroke-width=".014" d="M 31.6475 27.2413 L 34.2557 27.2413 L 34.2557 31.1395 L 31.6475 31.1395 L 31.6475 27.2413 Z"/><path id="ID0.19614603137597442" fill="#35A700" stroke="none" stroke-width=".014" d="M 31.7183 29.4384 L 31.7183 29.4384 C 31.6475 29.1833 31.6475 28.8573 31.6475 28.6021 C 31.7183 28.5312 31.7183 28.5312 31.7892 28.4745 C 31.9735 28.4745 32.1719 28.4745 32.1719 28.1485 C 32.1719 27.6949 32.4271 27.3688 32.8807 27.2554 C 33.1926 27.1846 33.3343 27.3688 33.4477 27.5673 C 33.7171 27.7658 33.9722 27.8933 34.2274 28.0776 C 33.1359 27.8225 32.9374 28.2761 33.3343 29.24 C 33.4477 29.6227 33.5753 30.0196 33.7171 30.4024 C 33.7738 30.6575 34.0998 31.0402 33.5186 31.1111 C 33.065 30.5299 32.6823 30.0196 32.2995 29.4384 C 32.1011 29.1833 31.9026 29.1833 31.7183 29.4384 Z"/></g></g><g id="ID0.2698882888071239"><g id="id12"><path id="ID0.2244947892613709" fill="none" stroke="none" stroke-width=".014" d="M 33.6745 21.642 L 36.141 21.642 L 36.141 25.5402 L 33.6745 25.5402 L 33.6745 21.642 Z"/><path id="ID0.34266897896304727" fill="#35A700" stroke="none" stroke-width=".014" d="M 34.7377 25.5119 L 34.7377 25.5119 C 34.5392 24.4204 34.6101 23.2722 33.7738 22.3083 C 33.5186 22.0389 33.7738 21.6562 34.2982 21.6562 C 33.7738 22.3083 34.4258 22.6201 34.7377 22.7477 C 35.6449 23.2722 35.7016 24.2361 36.0843 24.9874 C 36.2261 25.2567 35.9709 25.1859 35.7725 25.2567 C 35.3897 25.0583 35.0637 24.9874 34.8085 25.441 L 34.7377 25.5119 Z"/></g></g><g id="ID0.17592711467295885"><g id="id13"><path id="ID0.941427989397198" fill="none" stroke="none" stroke-width=".014" d="M 33.632 19.7709 L 35.3472 19.7709 L 35.3472 21.8688 L 33.632 21.8688 L 33.632 19.7709 Z"/><path id="ID0.5322858421131968" fill="#35A700" stroke="none" stroke-width=".014" d="M 34.2274 21.6562 L 34.2274 21.6562 C 33.9013 21.075 33.4477 20.5647 33.7171 19.7851 C 34.6101 20.182 35.2622 20.7632 35.3189 21.7838 C 34.9361 21.9822 34.6101 21.7271 34.2274 21.6562 Z"/></g></g><g id="ID0.24675848567858338"><g id="id14"><path id="ID0.24969814717769623" fill="none" stroke="none" stroke-width=".014" d="M 24.3047 23.8392 L 26.2041 23.8392 L 26.2041 25.4694 L 24.3047 25.4694 L 24.3047 23.8392 Z"/><path id="ID0.7695348025299609" fill="#3CDC00" stroke="none" stroke-width=".014" d="M 26.19 23.8534 L 26.19 23.8534 C 25.8072 24.6897 25.3536 25.3843 24.3188 25.441 C 24.9 24.8598 25.5521 24.2928 26.19 23.8534 Z"/></g></g><g id="ID0.05338037619367242"><g id="id15"><path id="ID0.41675254749134183" fill="none" stroke="none" stroke-width=".014" d="M 32.9941 17.2052 L 34.1848 17.2052 L 34.1848 18.0699 L 32.9941 18.0699 L 32.9941 17.2052 Z"/><path id="ID0.6570142083801329" fill="#66B500" stroke="none" stroke-width=".014" d="M 32.9941 17.2193 L 32.9941 17.2193 C 33.1359 17.2193 33.2634 17.276 33.4477 17.276 C 33.5753 17.6729 34.1565 17.6021 34.1565 18.0557 C 33.6462 17.9139 33.1359 17.8572 32.9941 17.2193 Z"/></g></g><g id="ID0.9759047823026776"><g id="id16"><path id="ID0.7301865429617465" fill="none" stroke="none" stroke-width=".014" d="M 29.2093 18.2541 L 30.9387 18.2541 L 30.9387 27.8508 L 29.2093 27.8508 L 29.2093 18.2541 Z"/><path id="ID0.3122160127386451" fill="#178E00" stroke="none" stroke-width=".014" d="M 30.1165 27.8225 L 30.1165 27.8225 L 29.6062 27.8225 C 29.2802 27.3688 29.5353 26.8018 29.3511 26.2773 C 29.6771 25.767 28.9542 25.2567 29.3511 24.7464 L 29.3511 24.7464 C 29.4786 23.7825 29.8614 22.8753 29.6062 21.9114 L 29.6062 21.9114 C 29.2802 21.0183 30.2583 20.4371 30.1165 19.6008 C 29.8614 19.1472 30.1874 18.7644 30.1165 18.3108 C 30.2583 18.24 30.3717 18.24 30.4993 18.3108 C 30.9387 18.6936 30.9387 19.2181 30.882 19.7284 C 30.882 21.9114 30.8253 24.1085 30.882 26.3482 C 30.882 26.9294 30.7686 27.4964 30.1165 27.8225 Z"/></g></g><g id="ID0.17701990995556116"><g id="id17"><path id="ID0.8399108126759529" fill="none" stroke="none" stroke-width=".014" d="M 28.9825 21.8972 L 29.9606 21.8972 L 29.9606 24.7606 L 28.9825 24.7606 L 28.9825 21.8972 Z"/><path id="ID0.6053869654424489" fill="#179B00" stroke="none" stroke-width=".014" d="M 29.6062 21.9114 L 29.6062 21.9114 C 30.1165 22.8186 30.0598 24.0377 29.3511 24.7464 C 28.7699 23.7258 28.9542 22.8186 29.6062 21.9114 Z"/></g></g><g id="ID0.20602833246812224"><g id="id18"><path id="ID0.8787700147368014" fill="none" stroke="none" stroke-width=".014" d="M 28.2454 24.7322 L 29.748 24.7322 L 29.748 26.3057 L 28.2454 26.3057 L 28.2454 24.7322 Z"/><path id="ID0.034924795385450125" fill="#179F00" stroke="none" stroke-width=".014" d="M 29.3511 24.7464 L 29.3511 24.7464 C 29.5353 25.2567 30.1165 25.767 29.3511 26.2773 C 29.3511 26.2206 29.2802 26.2206 29.2802 26.1498 C 28.8975 25.9513 28.2596 25.9513 28.2596 25.3843 C 28.2596 24.8598 29.025 25.0583 29.3511 24.7464 Z"/></g></g><g id="ID0.7764386218041182"><g id="id19"><path id="ID0.8974712924100459" fill="none" stroke="none" stroke-width=".014" d="M 29.0676 19.5866 L 30.1874 19.5866 L 30.1874 21.9255 L 29.0676 21.9255 L 29.0676 19.5866 Z"/><path id="ID0.1342467712238431" fill="#179B00" stroke="none" stroke-width=".014" d="M 30.1165 19.6008 L 30.1165 19.6008 C 30.315 20.4371 29.9181 21.2026 29.6062 21.9114 C 29.2235 21.401 28.5714 20.8766 29.7338 20.4371 C 29.9889 20.3096 29.7338 19.7851 30.1165 19.6008 Z"/></g></g><g id="ID0.9476307830773294"><g id="id20"><path id="ID0.7197245117276907" fill="none" stroke="none" stroke-width=".014" d="M 30.1024 15.9719 L 30.8678 15.9719 L 30.8678 18.325 L 30.1024 18.325 L 30.1024 15.9719 Z"/><path id="ID0.20512797823175788" fill="#209900" stroke="none" stroke-width=".014" d="M 30.3717 18.3108 L 30.3717 18.3108 L 30.1165 18.3108 C 30.1165 17.6021 30.4993 16.95 30.3717 16.2412 L 30.3717 15.9861 C 31.0663 16.7657 30.9387 17.5312 30.3717 18.3108 Z"/></g></g><g id="ID0.5043629305437207"><g id="id21"><path id="ID0.8874374930746853" fill="none" stroke="none" stroke-width=".014" d="M 30.1024 15.6884 L 32.2712 15.6884 L 32.2712 28.7722 L 30.1024 28.7722 L 30.1024 15.6884 Z"/><path id="ID0.4482048638164997" fill="#177C00" stroke="none" stroke-width=".014" d="M 30.3717 18.3108 L 30.3717 18.3108 C 30.4993 17.5312 30.9387 16.7657 30.3717 15.9861 L 30.3717 15.7876 C 30.7686 15.5467 30.9387 15.8585 31.208 16.1845 C 30.641 17.0918 31.0663 17.9848 31.3923 18.8211 C 31.5908 19.4023 31.7892 19.9835 31.9026 20.6214 C 32.1719 22.691 31.8459 24.7464 32.2286 26.8018 C 32.2995 27.4397 32.0302 28.0776 31.6475 28.6021 L 31.6475 28.6021 C 31.5908 28.5312 31.449 28.4745 31.449 28.5312 C 30.4993 29.24 30.5701 28.0209 30.1165 27.8225 C 30.9387 26.1498 30.4426 24.3637 30.4993 22.691 C 30.5701 21.5995 30.7686 20.4938 30.641 19.4023 C 30.5701 19.0196 30.5701 18.6369 30.3717 18.3108 Z"/></g></g><g id="ID0.49894630489870906"><g id="id22"><path id="ID0.3664407921023667" fill="none" stroke="none" stroke-width=".014" d="M 31.6191 20.6072 L 33.873 20.6072 L 33.873 28.7013 L 31.6191 28.7013 L 31.6191 20.6072 Z"/><path id="ID0.9261976396664977" fill="#179200" stroke="none" stroke-width=".014" d="M 31.6475 28.6021 L 31.6475 28.6021 C 32.0302 25.9513 31.5199 23.2722 31.6475 20.6214 C 32.2995 20.6923 32.0302 21.2735 32.2286 21.6562 C 32.3562 22.2374 32.8098 22.8186 32.6823 23.4565 C 33.7171 24.1652 34.4258 24.8598 33.1926 26.0222 C 32.5547 25.767 32.7531 25.115 32.4838 24.6897 C 32.4838 24.6614 32.5547 24.6188 32.4838 24.6188 C 32.4838 24.7464 32.5547 24.8598 32.5547 24.9307 C 32.6823 25.767 33.1926 26.4758 32.9374 27.3121 C 32.7531 27.5673 32.3562 27.7658 32.4271 28.2194 C 32.4838 28.914 31.9735 28.6021 31.6475 28.6021 Z"/></g></g><g id="ID0.9834028538316488"><g id="id23"><path id="ID0.21667612250894308" fill="none" stroke="none" stroke-width=".014" d="M 32.3704 24.4487 L 33.4761 24.4487 L 33.4761 27.5957 L 32.3704 27.5957 L 32.3704 24.4487 Z"/><path id="ID0.6429127622395754" fill="#17C200" stroke="none" stroke-width=".014" d="M 32.9374 27.3121 L 32.9374 27.3121 C 32.8098 26.4758 32.3562 25.6395 32.4271 24.7464 C 32.2995 24.4913 32.4271 24.4204 32.6823 24.4913 C 32.8807 24.9874 32.9941 25.5119 33.1926 26.0222 C 33.1359 26.5325 33.391 27.057 33.4477 27.5673 C 33.2634 27.4964 33.1359 27.3688 32.9374 27.3121 Z"/></g></g><g id="ID0.32393949711695313"><g id="id24"><path id="ID0.6215000194497406" fill="none" stroke="none" stroke-width=".014" d="M 31.3923 18.807 L 32.4555 18.807 L 32.4555 21.6704 L 31.3923 21.6704 L 31.3923 18.807 Z"/><path id="ID0.05012080166488886" fill="#17AB00" stroke="none" stroke-width=".014" d="M 32.1719 21.6562 L 32.1719 21.6562 C 31.7892 21.4577 32.0302 20.8199 31.6475 20.6214 C 31.5908 20.0402 31.449 19.4023 31.3923 18.8211 C 32.1011 19.5299 32.1011 20.5647 32.4271 21.401 C 32.2995 21.4577 32.2995 21.6562 32.1719 21.6562 Z"/></g></g><g id="ID0.3704107408411801"><g id="id25"><path id="ID0.4437663019634783" fill="none" stroke="none" stroke-width=".014" d="M 32.1719 21.3869 L 32.9091 21.3869 L 32.9091 23.4706 L 32.1719 23.4706 L 32.1719 21.3869 Z"/><path id="ID0.8057762421667576" fill="#17BC00" stroke="none" stroke-width=".014" d="M 32.1719 21.6562 L 32.1719 21.6562 C 32.2286 21.5995 32.3562 21.4577 32.4271 21.401 C 32.3562 22.1098 33.2634 22.691 32.6823 23.4565 C 32.4271 22.8753 32.1719 22.3083 32.1719 21.6562 Z"/></g></g><g id="ID0.8795812628231943"><g id="id26"><path id="ID0.7004296602681279" fill="none" stroke="none" stroke-width=".014" d="M 32.1578 23.8959 L 32.7106 23.8959 L 32.7106 24.7606 L 32.1578 24.7606 L 32.1578 23.8959 Z"/><path id="ID0.3726500878110528" fill="#17B100" stroke="none" stroke-width=".014" d="M 32.6823 24.4913 L 32.6823 24.4913 C 32.6114 24.548 32.4838 24.6897 32.4271 24.7464 C 32.1719 24.4913 32.0302 24.2361 32.2995 23.9101 C 32.4271 24.1085 32.5547 24.2928 32.6823 24.4913 Z"/></g></g></g></g></g></g></g></g></g></g><path id="ID0.36201768927276134" fill="#FFF" stroke="none" stroke-linecap="round" stroke-width="1" d="M 31.05 14.75 C 31.974 14.893 32.608 15.839 33.15 16.6 C 33.286 16.79 32.796 16.881 32.75 17.1 C 32.604 17.405 32.923 18.022 32.6 18.1 C 32.068 18.221 31.544 17.308 30.95 17.4 C 30.321 17.441 29.774 18.605 29.4 18.45 C 29.069 18.312 29.728 17.383 29.65 16.85 C 29.593 16.464 28.688 16.234 28.9 15.9 C 29.359 15.221 30.253 14.613 31.05 14.75 Z"/><path id="ID0.6841684100218117" fill="#FFF" stroke="none" stroke-linecap="round" stroke-width="1" d="M 32.4 19.85 C 32.617 20.376 32.678 21 32.85 21.5 C 32.959 21.817 33.328 22.078 33.3 22.4 C 33.275 22.684 32.982 23.275 32.8 23.1 C 32.277 22.59 31.999 21.783 31.8 21.05 C 31.542 20.093 31.367 18.25 31.5 18 C 31.604 17.777 32.147 19.234 32.4 19.85 Z"/><path id="ID0.8331470992416143" fill="#FFF" stroke="none" stroke-linecap="round" stroke-width="1" d="M 25.25 24.65 C 25.42 24.672 25.293 25.071 25.252 25.298 C 25.191 25.673 25.3 26.207 25 26.4 C 24.749 26.553 24.195 26.275 24.05 25.95 C 23.974 25.662 24.334 25.378 24.55 25.15 C 24.767 24.922 25.069 24.599 25.25 24.65 Z"/><path id="ID0.9972757115028799" fill="#FFF" stroke="none" stroke-linecap="round" stroke-width="1" d="M 26.6 27.65 C 26.797 27.41 27.175 26.766 27.35 26.9 C 27.473 27.072 27.353 27.848 27.2 28.3 C 27.049 28.797 26.739 29.201 26.35 29.65 C 26.092 29.946 25.527 30.55 25.4 30.35 C 25.233 30.079 25.617 29.188 25.85 28.65 C 26.033 28.229 26.336 27.971 26.6 27.65 Z"/></svg>