<svg version="1.1" xmlns="http://www.w3.org/2000/svg" xmlns:xlink="http://www.w3.org/1999/xlink" width="86.017" height="65.9746" viewBox="0,0,86.017,65.9746"><g transform="translate(-199.066,-146.85243)"><g data-paper-data="{&quot;isPaintingLayer&quot;:true}" fill-rule="nonzero" stroke="none" stroke-linecap="butt" stroke-linejoin="miter" stroke-miterlimit="10" stroke-dasharray="" stroke-dashoffset="0" style="mix-blend-mode: normal"><path d="M242.0745,146.85243l43.0085,32.9873l-43.0085,32.9873l-43.0085,-32.9873zM199.066,146.85243zM285.083,212.82703z" fill="#6cc924" stroke-width="0.04598"/><g><path d="M233.14378,163.75968c1.48906,0 2.83943,0.38192 3.81697,0.99914c0.97754,0.61722 1.58226,1.46973 1.58226,2.4109c0,0.94117 -0.60472,1.79369 -1.58226,2.41091c-0.97754,0.61722 -2.32792,0.99914 -3.81697,0.99914c-1.48906,0 -2.83943,-0.38192 -3.81698,-0.99914c-0.97754,-0.61722 -1.58226,-1.46974 -1.58226,-2.41091c0,-0.94117 0.60471,-1.79368 1.58226,-2.4109c0.97754,-0.61722 2.32792,-0.99914 3.81698,-0.99914z" fill="#65bd22" stroke-width="1"/><g stroke-width="0.01418"><g><g><g><g><g><g><g><g><path d="M227.42877,148.65648h5.63941v16.22556h-5.63941z" fill="none"/><path d="M231.55367,162.59401v0c-1.38573,0.49957 -2.41693,1.82074 -4.10876,2.25586c0.5156,-1.16021 0.88616,-2.11082 1.46621,-3.06142c0.43501,-0.88627 0.29008,-1.24069 -0.66064,-1.32128c-0.20949,-0.80568 0.37067,-1.32128 0.59619,-1.90133c0.20949,-0.6445 1.01517,-1.22454 0,-1.88518c-0.22552,-0.08059 -0.08059,-0.45115 0,-0.66064c1.01517,-2.41692 2.19141,-4.83385 3.35151,-7.10574c0.16107,-0.22563 0.3867,-0.35453 0.66064,-0.14504c0.43501,0.66064 0,1.38573 -0.06445,2.12696c0,0.5156 -0.14504,1.01505 -0.20949,1.61124c0.1289,0.87013 -1.17624,1.38573 -0.59619,2.41692c0,0.14504 0.08059,0.28997 0.08059,0.35442c-0.45115,0.95072 -0.66063,1.91746 -0.37067,2.85205c0,0.16107 -0.08048,0.30611 -0.14493,0.35442c-1.03131,0.66064 -0.14504,1.0312 0.20937,1.46632c0.22563,0.59619 0.22563,1.17623 0.30622,1.83687c0,0.28996 -0.14504,0.58005 -0.5156,0.80557z" fill="#20a900"/></g></g><g><g><path d="M225.6402,148.02812h7.23463v12.47122h-7.23463z" fill="none"/><path d="M232.71377,148.68864v0c-1.24069,2.56196 -2.48138,5.20453 -3.80266,7.84697c0.37056,0.35453 0.66064,-0.16107 1.09565,0c-0.28996,1.45018 -1.09565,2.61027 -1.75629,3.93155c-0.58005,-0.14504 -1.24068,-0.22563 -1.82073,-0.43512c-0.28996,-0.08048 -1.17624,-0.08048 -0.59619,-0.88616c0.96686,-0.28996 1.46632,-1.1601 2.12696,-1.8046c0.14493,-0.22563 0.59619,-0.59619 -0.06445,-0.74123c-0.5156,-0.14504 -1.03119,-0.28996 -1.75628,-0.435c1.09564,-0.95072 2.04626,-1.83688 2.99697,-2.64256c-0.45115,-0.66064 -1.24068,-0.28997 -1.75628,-0.80557c0.28996,-0.72509 1.17623,-0.95072 1.61124,-1.61136c1.17624,-1.01505 2.11082,-2.41692 3.59316,-3.06142c0.1289,0.06445 0.20949,0.1289 0.27394,0.29008c0,0.14504 -0.06445,0.22552 -0.14504,0.35441z" fill="#35db00"/></g></g><g><g><path d="M233.00374,148.52758h5.09165v13.77647h-5.09165z" fill="none"/><path d="M237.32199,162.22345v0h-0.14505l-0.08047,-0.0806c-0.29008,-0.28996 -0.88627,0.00001 -1.09576,-0.49945c-0.30611,-0.5156 -0.43501,-1.09564 -0.30611,-1.69183c0.74123,-1.17624 0.3867,-2.11082 -0.49946,-2.98095c0.06445,-0.88616 -0.37068,-1.53065 -0.5156,-2.35247c-0.35453,-1.01505 -0.35453,-2.1913 -1.17624,-3.06143c-0.33839,-0.96675 -0.85399,-1.90122 -0.06445,-2.93252c1.01505,-0.37056 1.61125,0.51571 2.25575,0.95072c0.30611,0.66064 0.88627,0.80557 1.32128,1.17624c0.16107,0.72509 -1.38573,1.01506 -0.49946,1.96578c0.20937,0.74112 0.72498,1.40176 0.58005,2.12685c0.08048,0 0.06445,0 0.08047,0c-0.45115,0.22563 -0.66052,0.5156 -0.30611,0.80568c1.03119,1.03119 1.09564,2.33634 0.96675,3.64148c0.1289,0.74112 0,1.5468 0.20949,2.35247c0.14504,0.72509 -0.29008,0.66064 -0.72509,0.58005z" fill="#209900"/></g></g><g><g><path d="M231.53753,161.6434h2.86808v5.88119h-2.86808z" fill="none"/><path d="M231.55367,162.59401v0c0.14493,-0.22552 0.20938,-0.5156 0.28997,-0.74112c0.14504,-0.14504 0.35453,-0.20949 0.58005,-0.20949c0.66064,0.14504 0.59619,0.72508 0.80568,1.09564c0.43501,-0.88616 0.78954,-0.29008 1.09565,0.06445c0.1289,0.29008 0,0.5962 -0.08059,0.88616c0,0.72509 0.08059,1.53076 0,2.27199c0,0.6445 0.43512,1.61125 -0.88616,1.53066c-1.07962,0 -1.80459,-0.28996 -1.80459,-1.61124c0.06445,-1.09564 0,-2.19141 0,-3.28706z" fill="#7f471c"/></g></g><g><g><path d="M237.32199,159.14587h3.31922v3.85096h-3.31922z" fill="none"/><path d="M237.32199,162.22345v0c0.1289,-0.08059 0.58004,-0.22564 0.51559,-0.29009c-1.11179,-0.88616 0.00001,-1.83688 -0.16106,-2.70689c0.06445,-0.01614 0.08047,-0.08059 0.16106,-0.08059c0.06445,0 0.06445,0.08059 0.1289,0.08059c0.80568,1.24069 1.90133,2.25575 2.64256,3.73821c-1.24069,-0.22563 -2.27188,-0.37067 -3.28706,-0.74123z" fill="#35a700"/></g></g><g><g><path d="M234.16395,161.19225h2.96469v4.43101h-2.96469z" fill="none"/><path d="M234.24443,163.68966v0c-0.08048,-0.28996 -0.08048,-0.66053 -0.08048,-0.95061c0.08048,-0.08059 0.08048,-0.08059 0.16107,-0.14504c0.20949,0 0.435,0.00001 0.435,-0.37055c0,-0.5156 0.29008,-0.88628 0.80568,-1.01517c0.35453,-0.08048 0.5156,0.12891 0.6445,0.35453c0.30622,0.22563 0.59619,0.37055 0.88627,0.58004c-1.24069,-0.28996 -1.46632,0.22564 -1.01517,1.32128c0.1289,0.43501 0.27394,0.88616 0.43512,1.32128c0.06445,0.28996 0.43501,0.72498 -0.22563,0.80557c-0.5156,-0.66064 -0.95061,-1.24068 -1.38573,-1.90132c-0.22552,-0.28996 -0.45114,-0.28996 -0.66063,0z" fill="#35a700"/></g></g><g><g><path d="M236.468,154.82763h2.80363v4.43101h-2.80363z" fill="none"/><path d="M237.67652,159.22646v0c-0.22563,-1.24069 -0.14505,-2.54583 -1.09565,-3.64147c-0.29008,-0.30622 0,-0.74123 0.59607,-0.74123c-0.59608,0.74123 0.14505,1.09565 0.49958,1.24069c1.03119,0.59619 1.09564,1.69183 1.53065,2.54583c0.16118,0.30611 -0.1289,0.22563 -0.35442,0.30611c-0.43512,-0.22552 -0.80568,-0.30611 -1.09576,0.20949z" fill="#35a700"/></g></g><g><g><path d="M236.41969,152.70076h1.94964v2.38465h-1.94964z" fill="none"/><path d="M237.09647,154.84376v0c-0.37067,-0.66064 -0.88627,-1.24069 -0.58005,-2.12685c1.01505,0.45115 1.75629,1.11179 1.82074,2.27188c-0.43512,0.22552 -0.80568,-0.06445 -1.24069,-0.14504z" fill="#35a700"/></g></g><g><g><path d="M225.81752,157.32513h2.15902v1.85302h-2.15902z" fill="none"/><path d="M227.96051,157.34129v0c-0.43512,0.9506 -0.95072,1.74015 -2.12696,1.8046c0.66064,-0.66064 1.40187,-1.30514 2.12696,-1.8046z" fill="#3cdc00"/></g></g><g><g><path d="M235.6946,149.78439h1.35344v0.98289h-1.35344z" fill="none"/><path d="M235.6946,149.80042v0c0.16118,0 0.30611,0.06445 0.5156,0.06445c0.14504,0.45115 0.80568,0.37067 0.80568,0.88627c-0.58005,-0.16118 -1.1601,-0.22563 -1.32128,-0.95072z" fill="#66b500"/></g></g><g><g><path d="M231.39249,150.97667h1.96577v10.9084h-1.96577z" fill="none"/><path d="M232.42369,161.85289v0h-0.58005c-0.37056,-0.51571 -0.08059,-1.16021 -0.28997,-1.7564c0.37056,-0.58005 -0.45115,-1.1601 0,-1.74015v0c0.14493,-1.09564 0.58005,-2.12685 0.28997,-3.2225v0c-0.37056,-1.01517 0.74123,-1.67581 0.58005,-2.62641c-0.28996,-0.5156 0.08059,-0.95072 0,-1.46632c0.16118,-0.08048 0.29009,-0.08048 0.43512,0c0.49946,0.43512 0.49945,1.03131 0.435,1.61136c0,2.48138 -0.06445,4.97878 0,7.52461c0,0.66064 -0.1289,1.30514 -0.87013,1.67581z" fill="#178e00"/></g></g><g><g><path d="M231.13469,155.11771h1.11179v3.25477h-1.11179z" fill="none"/><path d="M231.84364,155.13385v0c0.58005,1.03119 0.5156,2.41693 -0.28997,3.2225c-0.66064,-1.1601 -0.45115,-2.1913 0.28997,-3.2225z" fill="#179b00"/></g></g><g><g><path d="M230.29684,158.34021h1.70798v1.78857h-1.70798z" fill="none"/><path d="M231.55367,158.35635v0c0.20937,0.58005 0.87001,1.1601 0,1.74015c0,-0.06445 -0.08059,-0.06445 -0.08059,-0.14493c-0.43501,-0.22563 -1.1601,-0.22563 -1.1601,-0.87013c0,-0.59619 0.87002,-0.37056 1.24069,-0.72509z" fill="#179f00"/></g></g><g><g><path d="M231.23142,152.4913h1.27285v2.65858h-1.27285z" fill="none"/><path d="M232.42369,152.50744v0c0.22563,0.9506 -0.22552,1.82073 -0.58005,2.62641c-0.43501,-0.58016 -1.17624,-1.17623 0.14504,-1.6758c0.28996,-0.14493 0,-0.74112 0.43501,-0.95061z" fill="#179b00"/></g></g><g><g><path d="M232.40766,148.38253h0.87001v2.67472h-0.87001z" fill="none"/><path d="M232.71377,151.04111v0h-0.29009c0,-0.80557 0.43512,-1.5468 0.29009,-2.35248v-0.28996c0.78954,0.88616 0.6445,1.75629 0,2.64244z" fill="#209900"/></g></g><g><g><path d="M232.40766,148.06027h2.46524v14.87211h-2.46524z" fill="none"/><path d="M232.71377,151.04111v0c0.14504,-0.88616 0.6445,-1.75629 0,-2.64244v-0.22563c0.45115,-0.27382 0.6445,0.08058 0.9506,0.45114c-0.6445,1.03131 -0.16107,2.04637 0.20949,2.99698c0.22563,0.66064 0.45115,1.32128 0.58005,2.04637c0.30611,2.35247 -0.06446,4.68881 0.37055,7.02514c0.08059,0.72509 -0.22551,1.45018 -0.66052,2.04637v0c-0.06445,-0.08059 -0.22563,-0.14504 -0.22563,-0.08059c-1.07951,0.80568 -0.99903,-0.58005 -1.51463,-0.80557c0.93458,-1.90133 0.37068,-3.93155 0.43512,-5.83288c0.08048,-1.24069 0.30611,-2.49751 0.16107,-3.7382c-0.08059,-0.43501 -0.08059,-0.87002 -0.30611,-1.24069z" fill="#177c00"/></g></g><g><g><path d="M234.13167,153.65139h2.56197v9.20042h-2.56197z" fill="none"/><path d="M234.16395,162.73905v0c0.43501,-3.01311 -0.14504,-6.05839 0,-9.07151c0.74112,0.08059 0.435,0.74122 0.66052,1.17623c0.14504,0.66064 0.66064,1.32128 0.51572,2.04637c1.17624,0.80557 1.9818,1.5951 0.58005,2.91638c-0.72509,-0.29008 -0.49957,-1.03119 -0.80568,-1.51462c0,-0.03217 0.08059,-0.08059 0,-0.08059c0,0.14504 0.08059,0.27394 0.08059,0.35453c0.14504,0.9506 0.72509,1.75629 0.43501,2.70689c-0.20949,0.29008 -0.66064,0.51572 -0.58005,1.03132c0.06445,0.78954 -0.5156,0.435 -0.88616,0.435z" fill="#179200"/></g></g><g><g><path d="M234.98566,158.01796h1.25682v3.57713h-1.25682z" fill="none"/><path d="M235.63015,161.27273v0c-0.14504,-0.9506 -0.66064,-1.90121 -0.58005,-2.91638c-0.14504,-0.28996 0,-0.37056 0.29008,-0.28997c0.22552,0.56391 0.35442,1.1601 0.58005,1.74015c-0.06445,0.58005 0.22552,1.17624 0.28997,1.75629c-0.20949,-0.08059 -0.35442,-0.22564 -0.58005,-0.29009z" fill="#17c200"/></g></g><g><g><path d="M233.87387,151.60513h1.20852v3.25477h-1.20852z" fill="none"/><path d="M234.76002,154.84376v0c-0.43501,-0.22563 -0.16106,-0.9506 -0.59607,-1.17623c-0.06445,-0.66064 -0.22563,-1.38573 -0.29008,-2.04637c0.80568,0.80568 0.80568,1.98192 1.17624,2.93252c-0.14504,0.06445 -0.14505,0.29008 -0.29009,0.29008z" fill="#17ab00"/></g></g><g><g><path d="M234.76002,154.53767h0.83796v2.3685h-0.83796z" fill="none"/><path d="M234.76002,154.84376v0c0.06445,-0.06445 0.2095,-0.22563 0.29009,-0.29008c-0.08059,0.80568 0.9506,1.46632 0.29008,2.33645c-0.29008,-0.66064 -0.58016,-1.30514 -0.58016,-2.04637z" fill="#17bc00"/></g></g><g><g><path d="M234.744,157.3896h0.62835v0.98289h-0.62835z" fill="none"/><path d="M235.34019,158.06636v0c-0.08059,0.06445 -0.22563,0.22552 -0.29008,0.28997c-0.29008,-0.28996 -0.45115,-0.58005 -0.14505,-0.95061c0.14504,0.22552 0.29009,0.43501 0.43512,0.66064z" fill="#17b100"/></g></g></g></g></g></g></g></g></g></g><g><path d="M247.28623,193.20205c1.52486,0 2.90772,0.39111 3.90877,1.02317c1.00106,0.63206 1.62031,1.50507 1.62031,2.46888c0,0.96381 -0.61926,1.83682 -1.62031,2.46888c-1.00106,0.63206 -2.38391,1.02317 -3.90877,1.02317c-1.52486,0 -2.90772,-0.39111 -3.90877,-1.02317c-1.00106,-0.63206 -1.62031,-1.50507 -1.62031,-2.46888c0,-0.96381 0.61926,-1.83682 1.62031,-2.46888c1.00106,-0.63206 2.38391,-1.02317 3.90877,-1.02317z" fill="#65bd22" stroke-width="1"/><g stroke-width="0.01418"><g><g><path d="M241.43378,177.79384h5.77504v16.61577h-5.77504z" fill="none"/><path d="M245.65788,192.06656v0c-1.41905,0.51159 -2.47505,1.86452 -4.20757,2.31011c0.528,-1.18811 0.90747,-2.16158 1.50147,-3.13505c0.44547,-0.90758 0.29706,-1.27053 -0.67653,-1.35305c-0.21453,-0.82506 0.37959,-1.35305 0.61053,-1.94705c0.21453,-0.66 1.03958,-1.254 0,-1.93052c-0.23094,-0.08253 -0.08253,-0.462 0,-0.67653c1.03958,-2.47505 2.24411,-4.9501 3.43211,-7.27662c0.16494,-0.23106 0.396,-0.36306 0.67653,-0.14853c0.44547,0.67653 0,1.41905 -0.066,2.17811c0,0.528 -0.14853,1.03947 -0.21453,1.65c0.132,0.89106 -1.20453,1.41905 -0.61053,2.47505c0,0.14853 0.08253,0.29694 0.08253,0.36294c-0.462,0.97358 -0.67653,1.96358 -0.37959,2.92064c0,0.16494 -0.08241,0.31347 -0.14841,0.36294c-1.05611,0.67653 -0.14853,1.056 0.21441,1.50158c0.23106,0.61053 0.23106,1.20453 0.31359,1.88105c0,0.29694 -0.14853,0.594 -0.528,0.82494z" fill="#20a900"/></g></g><g><g><path d="M239.6022,177.15037h7.40862v12.77114h-7.40862z" fill="none"/><path d="M246.84588,177.82678v0c-1.27053,2.62358 -2.54105,5.32969 -3.8941,8.03568c0.37947,0.36306 0.67653,-0.16494 1.122,0c-0.29694,1.48505 -1.122,2.67305 -1.79852,4.0261c-0.594,-0.14853 -1.27053,-0.23106 -1.86452,-0.44559c-0.29694,-0.08241 -1.20453,-0.08241 -0.61053,-0.90747c0.99011,-0.29694 1.50158,-1.188 2.17811,-1.84799c0.14841,-0.23106 0.61053,-0.61053 -0.066,-0.75906c-0.528,-0.14853 -1.056,-0.29694 -1.79852,-0.44547c1.122,-0.97358 2.09546,-1.88105 3.06905,-2.70611c-0.462,-0.67653 -1.27053,-0.29694 -1.79852,-0.82494c0.29694,-0.74253 1.20453,-0.97358 1.65,-1.65011c1.20453,-1.03947 2.16158,-2.47505 3.67958,-3.13505c0.132,0.066 0.21453,0.132 0.28053,0.29706c0,0.14853 -0.066,0.23094 -0.14853,0.36294z" fill="#35db00"/></g></g><g><g><path d="M247.14282,177.66184h5.2141v14.10778h-5.2141z" fill="none"/><path d="M251.56492,191.68709v0h-0.14853l-0.08241,-0.08253c-0.29706,-0.29694 -0.90758,0 -1.12211,-0.51147c-0.31347,-0.528 -0.44547,-1.122 -0.31347,-1.73252c0.75906,-1.20453 0.396,-2.16158 -0.51147,-3.05264c0.066,-0.90747 -0.37959,-1.56747 -0.528,-2.40905c-0.36306,-1.03947 -0.36306,-2.24399 -1.20453,-3.13505c-0.34653,-0.99 -0.87453,-1.94694 -0.066,-3.00305c1.03947,-0.37947 1.65,0.52811 2.30999,0.97358c0.31347,0.67653 0.90758,0.82494 1.35305,1.20453c0.16494,0.74253 -1.41905,1.03947 -0.51147,2.01305c0.21441,0.75894 0.74241,1.43547 0.594,2.17799c0.08241,0 0.066,0 0.08241,0c-0.462,0.23106 -0.67641,0.528 -0.31347,0.82506c1.056,1.056 1.122,2.39252 0.99,3.72905c0.132,0.75894 0,1.584 0.21453,2.40905c0.14853,0.74253 -0.29706,0.67653 -0.74253,0.594z" fill="#209900"/></g></g><g><g><path d="M245.64135,191.09309h2.93705v6.02263h-2.93705z" fill="none"/><path d="M245.65788,192.06656v0c0.14841,-0.23094 0.21441,-0.528 0.29694,-0.75894c0.14853,-0.14853 0.36306,-0.21453 0.594,-0.21453c0.67653,0.14853 0.61053,0.74253 0.82506,1.122c0.44547,-0.90747 0.80853,-0.29706 1.122,0.066c0.132,0.29706 0,0.61053 -0.08253,0.90747c0,0.74253 0.08253,1.56758 0,2.32664c0,0.66 0.44559,1.65 -0.90747,1.56747c-1.10558,0 -1.84799,-0.29694 -1.84799,-1.65c0.066,-1.122 0,-2.24411 0,-3.36611z" fill="#7f471c"/></g></g><g><g><path d="M251.56492,188.53551h3.39905v3.94358h-3.39905z" fill="none"/><path d="M251.56492,191.68709v0c0.132,-0.08253 0.594,-0.23106 0.528,-0.29706c-1.13853,-0.90747 0,-1.88105 -0.16494,-2.77199c0.066,-0.01653 0.08241,-0.08253 0.16494,-0.08253c0.066,0 0.066,0.08253 0.132,0.08253c0.82506,1.27053 1.94705,2.30999 2.70611,3.8281c-1.27053,-0.23106 -2.32652,-0.37959 -3.36611,-0.75906z" fill="#35a700"/></g></g><g><g><path d="M248.33093,190.63109h3.03599v4.53757h-3.03599z" fill="none"/><path d="M248.41334,193.18855v0c-0.08241,-0.29694 -0.08241,-0.67641 -0.08241,-0.97347c0.08241,-0.08253 0.08241,-0.08253 0.16494,-0.14853c0.21453,0 0.44547,0 0.44547,-0.37947c0,-0.528 0.29706,-0.90758 0.82506,-1.03958c0.36306,-0.08241 0.528,0.132 0.66,0.36306c0.31359,0.23106 0.61053,0.37947 0.90758,0.594c-1.27053,-0.29694 -1.50158,0.23106 -1.03958,1.35305c0.132,0.44547 0.28053,0.90747 0.44559,1.35305c0.066,0.29694 0.44547,0.74241 -0.23106,0.82494c-0.528,-0.67653 -0.97347,-1.27053 -1.41905,-1.94705c-0.23094,-0.29694 -0.462,-0.29694 -0.67653,0z" fill="#35a700"/></g></g><g><g><path d="M250.69039,184.1134h2.87105v4.53757h-2.87105z" fill="none"/><path d="M251.92798,188.61804v0c-0.23106,-1.27053 -0.14853,-2.60705 -1.122,-3.72905c-0.29706,-0.31359 0,-0.75906 0.61041,-0.75906c-0.61041,0.75906 0.14853,1.122 0.51159,1.27053c1.056,0.61053 1.122,1.73252 1.56747,2.60705c0.16506,0.31347 -0.132,0.23106 -0.36294,0.31347c-0.44559,-0.23094 -0.82506,-0.31347 -1.12211,0.21453z" fill="#35a700"/></g></g><g><g><path d="M250.64092,181.93541h1.99652v2.44199h-1.99652z" fill="none"/><path d="M251.33398,184.12993v0c-0.37959,-0.67653 -0.90758,-1.27053 -0.594,-2.17799c1.03947,0.462 1.79852,1.13853 1.86452,2.32652c-0.44559,0.23094 -0.82506,-0.066 -1.27053,-0.14853z" fill="#35a700"/></g></g><g><g><path d="M239.78378,186.67098h2.21094v1.89758h-2.21094z" fill="none"/><path d="M241.9783,186.68751v0c-0.44559,0.97347 -0.97358,1.78199 -2.17811,1.84799c0.67653,-0.67653 1.43558,-1.33653 2.17811,-1.84799z" fill="#3cdc00"/></g></g><g><g><path d="M249.8984,178.94889h1.386v1.00653h-1.386z" fill="none"/><path d="M249.8984,178.9653v0c0.16506,0 0.31347,0.066 0.528,0.066c0.14853,0.462 0.82506,0.37959 0.82506,0.90758c-0.594,-0.16506 -1.188,-0.23106 -1.35305,-0.97358z" fill="#66b500"/></g></g><g><g><path d="M245.49282,180.16983h2.01305v11.17073h-2.01305z" fill="none"/><path d="M246.54882,191.30762v0h-0.594c-0.37947,-0.52811 -0.08253,-1.18811 -0.29694,-1.79864c0.37947,-0.594 -0.462,-1.188 0,-1.78199v0c0.14841,-1.122 0.594,-2.17799 0.29694,-3.29999v0c-0.37947,-1.03958 0.75906,-1.71611 0.594,-2.68958c-0.29694,-0.528 0.08253,-0.97358 0,-1.50158c0.16506,-0.08241 0.29706,-0.08241 0.44559,0c0.51147,0.44559 0.51147,1.05611 0.44547,1.65011c0,2.54105 -0.066,5.09851 0,7.70556c0,0.67653 -0.132,1.33653 -0.89106,1.71611z" fill="#178e00"/></g></g><g><g><path d="M245.22882,184.41046h1.13853v3.33305h-1.13853z" fill="none"/><path d="M245.95482,184.42699v0c0.594,1.056 0.528,2.47505 -0.29694,3.29999c-0.67653,-1.188 -0.462,-2.24399 0.29694,-3.29999z" fill="#179b00"/></g></g><g><g><path d="M244.37083,187.71045h1.74905v1.83158h-1.74905z" fill="none"/><path d="M245.65788,187.72698v0c0.21441,0.594 0.89094,1.188 0,1.78199c0,-0.066 -0.08253,-0.066 -0.08253,-0.14841c-0.44547,-0.23106 -1.188,-0.23106 -1.188,-0.89106c0,-0.61053 0.89094,-0.37947 1.27053,-0.74253z" fill="#179f00"/></g></g><g><g><path d="M245.32788,181.72088h1.30347v2.72252h-1.30347z" fill="none"/><path d="M246.54882,181.73741v0c0.23106,0.97347 -0.23094,1.86452 -0.594,2.68958c-0.44547,-0.59411 -1.20453,-1.20453 0.14853,-1.71611c0.29694,-0.14841 0,-0.75894 0.44547,-0.97347z" fill="#179b00"/></g></g><g><g><path d="M246.53241,177.51331h0.89094v2.73905h-0.89094z" fill="none"/><path d="M246.84588,180.23583v0h-0.29706c0,-0.82494 0.44559,-1.584 0.29706,-2.40905v-0.29694c0.80853,0.90747 0.66,1.79852 0,2.70599z" fill="#209900"/></g></g><g><g><path d="M246.53241,177.18331h2.52452v15.22977h-2.52452z" fill="none"/><path d="M246.84588,180.23583v0c0.14853,-0.90747 0.66,-1.79852 0,-2.70599v-0.23106c0.462,-0.28041 0.66,0.08253 0.97347,0.462c-0.66,1.05611 -0.16494,2.09558 0.21453,3.06905c0.23106,0.67653 0.462,1.35305 0.594,2.09558c0.31347,2.40905 -0.066,4.80157 0.37947,7.19409c0.08253,0.74253 -0.23094,1.48505 -0.67641,2.09558v0c-0.066,-0.08253 -0.23106,-0.14853 -0.23106,-0.08253c-1.10547,0.82506 -1.02306,-0.594 -1.55105,-0.82494c0.95706,-1.94705 0.37959,-4.0261 0.44559,-5.97316c0.08241,-1.27053 0.31347,-2.55758 0.16494,-3.8281c-0.08253,-0.44547 -0.08253,-0.89094 -0.31347,-1.27053z" fill="#177c00"/></g></g><g><g><path d="M248.29787,182.90888h2.62358v9.42168h-2.62358z" fill="none"/><path d="M248.33093,192.21508v0c0.44547,-3.08558 -0.14853,-6.2041 0,-9.28968c0.75894,0.08253 0.44547,0.75906 0.67641,1.20453c0.14853,0.67653 0.67653,1.35305 0.52811,2.09558c1.20453,0.82494 2.02946,1.63347 0.594,2.98652c-0.74253,-0.29706 -0.51159,-1.056 -0.82506,-1.55105c0,-0.03294 0.08253,-0.08253 0,-0.08253c0,0.14853 0.08253,0.28053 0.08253,0.36306c0.14853,0.97347 0.74253,1.79852 0.44547,2.77199c-0.21453,0.29706 -0.67653,0.52811 -0.594,1.05611c0.066,0.80853 -0.528,0.44547 -0.90747,0.44547z" fill="#179200"/></g></g><g><g><path d="M249.1724,187.38045h1.28705v3.66316h-1.28705z" fill="none"/><path d="M249.8324,190.7135v0c-0.14853,-0.97347 -0.67653,-1.94694 -0.594,-2.98652c-0.14853,-0.29694 0,-0.37947 0.29706,-0.29694c0.23094,0.57747 0.36294,1.188 0.594,1.78199c-0.066,0.594 0.23094,1.20453 0.29694,1.79852c-0.21453,-0.08253 -0.36294,-0.23106 -0.594,-0.29706z" fill="#17c200"/></g></g><g><g><path d="M248.03387,180.81341h1.23758v3.33305h-1.23758z" fill="none"/><path d="M248.94134,184.12993v0c-0.44547,-0.23106 -0.16494,-0.97347 -0.61041,-1.20453c-0.066,-0.67653 -0.23106,-1.41905 -0.29706,-2.09558c0.82506,0.82506 0.82506,2.02958 1.20453,3.00305c-0.14853,0.066 -0.14853,0.29706 -0.29706,0.29706z" fill="#17ab00"/></g></g><g><g><path d="M248.94134,183.81646h0.85811v2.42546h-0.85811z" fill="none"/><path d="M248.94134,184.12993v0c0.066,-0.066 0.21453,-0.23106 0.29706,-0.29706c-0.08253,0.82506 0.97347,1.50158 0.29706,2.39264c-0.29706,-0.67653 -0.59411,-1.33653 -0.59411,-2.09558z" fill="#17bc00"/></g></g><g><g><path d="M248.92493,186.73698h0.64347v1.00653h-0.64347z" fill="none"/><path d="M249.53546,187.43004v0c-0.08253,0.066 -0.23106,0.23094 -0.29706,0.29694c-0.29706,-0.29694 -0.462,-0.594 -0.14853,-0.97347c0.14853,0.23094 0.29706,0.44547 0.44559,0.67653z" fill="#17b100"/></g></g></g></g></g></g></svg>