<svg xmlns="http://www.w3.org/2000/svg" xmlns:xlink="http://www.w3.org/1999/xlink" width="229.995" height="15.648" version="1.1" viewBox="0.043 0.194 229.995 15.648"><g id="ID0.6867515780031681"><g id="ID0.42925142496824265"><g id="id45"><path id="ID0.6989138475619256" fill="none" stroke="none" stroke-width=".145" d="M 0.5433 0.9841 L 5.7643 0.9841 L 5.7643 15.0516 L 0.5433 15.0516 L 0.5433 0.9841 Z"/><path id="ID0.382640662137419" fill="#FFF" stroke="none" stroke-width=".145" d="M 0.5433 1.1291 L 5.6192 1.1291 L 5.6192 14.7615 L 0.5433 14.7615 L 0.5433 1.1291 Z"/></g></g><g id="ID0.03785404795780778"><g id="id46"><path id="ID0.18631386337801814" fill="none" stroke="none" stroke-width=".145" d="M 6.7794 0.9841 L 20.8469 0.9841 L 20.8469 15.0516 L 6.7794 15.0516 L 6.7794 0.9841 Z"/><path id="ID0.6424959897994995" fill="#FFF" stroke="none" stroke-width=".145" d="M 6.7794 1.1291 L 11.4202 1.1291 C 12.0004 1.8543 12.4354 2.5794 13.0155 3.3045 C 13.4506 4.1747 14.0307 4.8998 14.4658 5.6249 C 14.9009 6.35 15.3359 7.0752 15.916 8.0903 L 15.916 1.1291 L 20.5568 1.1291 L 20.5568 14.7615 L 15.916 14.7615 C 15.0459 13.7463 14.3208 12.5861 13.5956 11.4259 C 12.8705 10.4107 12.2904 9.3956 11.4202 8.0903 C 11.4202 8.2354 11.4202 8.5254 11.5653 8.9605 C 11.5653 9.2505 11.5653 9.3956 11.5653 9.5406 L 11.4202 13.0212 L 11.5653 14.7615 L 6.7794 14.7615 L 6.7794 1.1291 Z"/></g></g><g id="ID0.36424682941287756"><g id="id47"><path id="ID0.9077991670928895" fill="none" stroke="none" stroke-width=".145" d="M 21.717 0.9841 L 35.3494 0.9841 L 35.3494 15.0516 L 21.717 15.0516 L 21.717 0.9841 Z"/><path id="ID0.3779476694762707" fill="#FFF" stroke="none" stroke-width=".145" d="M 21.717 1.1291 L 26.5029 1.1291 C 29.1133 1.1291 31.1437 1.5642 32.594 2.5794 C 34.3343 3.7396 35.2044 5.6249 35.2044 8.2354 C 35.2044 10.1207 34.4793 11.716 33.3191 12.8762 C 32.1589 14.1814 30.5636 14.7615 28.6783 14.7615 L 21.717 14.7615 L 21.717 1.1291 Z M 30.1285 7.9453 C 30.1285 7.0752 29.8385 6.35 29.2584 5.915 C 28.6783 5.6249 27.9531 5.3349 27.083 5.3349 L 26.7929 5.3349 L 26.7929 10.7008 L 26.938 10.7008 C 27.9531 10.7008 28.6783 10.5558 29.2584 10.1207 C 29.8385 9.6856 30.1285 8.9605 30.1285 7.9453 Z"/></g></g><g id="ID0.5149162216112018"><g id="id48"><path id="ID0.7091310466639698" fill="none" stroke="none" stroke-width=".145" d="M 36.0746 0.9841 L 48.8368 0.9841 L 48.8368 15.3416 L 36.0746 15.3416 L 36.0746 0.9841 Z"/><path id="ID0.14702161215245724" fill="#FFF" stroke="none" stroke-width=".145" d="M 36.0746 1.1291 L 41.0054 1.1291 L 41.0054 9.2505 C 41.0054 9.5406 41.1504 9.9757 41.4405 10.2657 C 41.5855 10.5558 42.0206 10.8458 42.3107 10.8458 C 42.8908 10.8458 43.1808 10.5558 43.3258 10.1207 C 43.4709 9.8306 43.6159 9.2505 43.6159 8.8155 L 43.6159 1.1291 L 48.6918 1.1291 L 48.6918 9.5406 C 48.6918 11.2809 48.1117 12.7312 46.9515 13.7463 C 45.7913 14.6165 44.341 15.0516 42.6007 15.0516 C 40.5703 15.0516 38.9751 14.6165 37.8149 13.7463 C 36.6547 12.7312 36.0746 11.1359 36.0746 9.2505 L 36.0746 1.1291 Z"/></g></g><g id="ID0.9326323731802404"><g id="id49"><path id="ID0.1930544157512486" fill="none" stroke="none" stroke-width=".145" d="M 49.2719 0.694 L 60.8739 0.694 L 60.8739 15.3416 L 49.2719 15.3416 L 49.2719 0.694 Z"/><path id="ID0.6375978505238891" fill="#FFF" stroke="none" stroke-width=".145" d="M 50.8671 9.8306 C 51.4472 10.2657 52.0273 10.5558 52.4624 10.8458 C 53.0425 11.1359 53.6226 11.2809 54.2027 11.2809 C 54.4928 11.2809 54.7828 11.2809 55.0729 11.1359 C 55.3629 10.9908 55.508 10.7008 55.508 10.4107 C 55.508 10.1207 55.0729 9.8306 54.0577 9.6856 C 52.7525 9.3956 51.8823 8.9605 51.3022 8.6704 C 50.4321 7.9453 49.852 6.9301 49.852 5.6249 C 49.852 4.1747 50.4321 3.0145 51.5923 2.1443 C 52.7525 1.2741 54.0577 0.8391 55.508 0.8391 C 56.3781 0.8391 57.1032 0.9841 57.9734 1.1291 C 58.5535 1.4192 59.4236 1.7092 60.2938 2.1443 L 58.9886 5.6249 C 58.5535 5.3349 57.9734 5.0448 57.3933 4.8998 C 56.8132 4.6097 56.2331 4.6097 55.798 4.6097 C 55.653 4.6097 55.508 4.6097 55.2179 4.7548 C 55.0729 4.8998 54.9279 5.0448 54.9279 5.1898 C 54.9279 5.6249 55.3629 5.7699 56.3781 6.06 C 57.6833 6.4951 58.5535 6.7851 59.1336 7.0752 C 60.1488 7.8003 60.5838 8.8155 60.5838 10.1207 C 60.5838 11.5709 60.0037 12.8762 58.8435 13.7463 C 57.6833 14.6165 56.3781 15.0516 54.7828 15.0516 C 53.9127 15.0516 52.8975 14.9065 52.0273 14.6165 C 51.3022 14.4715 50.287 14.0364 49.2719 13.6013 L 50.8671 9.8306 Z"/></g></g><g id="ID0.5064812144264579"><g id="id50"><path id="ID0.3755290098488331" fill="none" stroke="none" stroke-width=".145" d="M 61.309 0.9841 L 72.0408 0.9841 L 72.0408 15.0516 L 61.309 15.0516 L 61.309 0.9841 Z"/><path id="ID0.2899172152392566" fill="#FFF" stroke="none" stroke-width=".145" d="M 61.309 1.1291 L 71.7508 1.1291 L 71.7508 5.1898 L 69.1403 5.1898 L 69.1403 14.7615 L 64.0645 14.7615 L 64.0645 5.1898 L 61.309 5.1898 L 61.309 1.1291 Z"/></g></g><g id="ID0.5352790867909789"><g id="id51"><path id="ID0.002341915387660265" fill="none" stroke="none" stroke-width=".145" d="M 72.6209 1.2741 L 85.3832 1.2741 L 85.3832 15.0516 L 72.6209 15.0516 L 72.6209 1.2741 Z"/><path id="ID0.8974404558539391" fill="#FFF" stroke="none" stroke-width=".145" d="M 72.6209 1.2741 L 78.857 1.2741 C 80.4523 1.2741 81.7575 1.5642 82.7727 2.2893 C 83.7879 3.0145 84.368 4.1747 84.368 5.7699 C 84.368 6.6401 84.223 7.5102 83.7879 7.9453 C 83.4979 8.3804 82.7727 8.9605 81.9026 9.3956 L 85.2382 14.7615 L 79.8722 14.7615 L 77.4068 9.6856 L 77.4068 14.7615 L 72.6209 14.7615 L 72.6209 1.2741 Z M 78.1319 7.2202 C 78.422 7.2202 78.857 7.0752 79.1471 6.9301 C 79.4371 6.6401 79.5822 6.35 79.5822 6.06 C 79.5822 5.6249 79.4371 5.3349 79.1471 5.0448 C 78.857 4.8998 78.422 4.7548 77.9869 4.7548 L 77.4068 4.8998 L 77.4068 7.2202 L 78.1319 7.2202 Z"/></g></g><g id="ID0.17754632141441107"><g id="id52"><path id="ID0.006195339374244213" fill="none" stroke="none" stroke-width=".145" d="M 85.9633 0.9841 L 91.3292 0.9841 L 91.3292 15.0516 L 85.9633 15.0516 L 85.9633 0.9841 Z"/><path id="ID0.37547634448856115" fill="#FFF" stroke="none" stroke-width=".145" d="M 85.9633 1.1291 L 91.0392 1.1291 L 91.0392 14.7615 L 85.9633 14.7615 L 85.9633 1.1291 Z"/></g></g><g id="ID0.9597177137620747"><g id="id53"><path id="ID0.14178577763959765" fill="none" stroke="none" stroke-width=".145" d="M 91.4742 1.1291 L 106.7019 1.1291 L 106.7019 15.0516 L 91.4742 15.0516 L 91.4742 1.1291 Z"/><path id="ID0.21219986770302057" fill="#FFF" stroke="none" stroke-width=".145" d="M 95.97 1.1291 L 102.0611 1.1291 L 106.4119 14.7615 L 101.336 14.7615 L 100.9009 13.1662 L 97.1302 13.1662 L 96.6952 14.7615 L 91.6193 14.7615 L 95.97 1.1291 Z M 100.0307 9.8306 L 98.8705 5.6249 L 97.8554 9.8306 L 100.0307 9.8306 Z"/></g></g><g id="ID0.023212237749248743"><g id="id54"><path id="ID0.689822668209672" fill="none" stroke="none" stroke-width=".145" d="M 106.992 0.9841 L 116.5636 0.9841 L 116.5636 15.0516 L 106.992 15.0516 L 106.992 0.9841 Z"/><path id="ID0.46032465528696775" fill="#FFF" stroke="none" stroke-width=".145" d="M 107.137 1.1291 L 112.0678 1.1291 L 112.0678 10.4107 L 116.4186 10.4107 L 116.4186 14.7615 L 107.137 14.7615 L 107.137 1.1291 Z"/></g></g><g id="ID0.9388827974908054"><g id="id55"><path id="ID0.6373791946098208" fill="none" stroke="none" stroke-width=".145" d="M 123.8149 0.9841 L 135.997 0.9841 L 135.997 15.0516 L 123.8149 15.0516 L 123.8149 0.9841 Z"/><path id="ID0.6327521866187453" fill="#FFF" stroke="none" stroke-width=".145" d="M 123.9599 1.1291 L 127.7306 1.1291 L 129.6159 1.1291 C 131.7913 1.1291 133.2415 1.4192 134.1117 2.1443 C 134.8368 2.8694 135.1269 3.7396 135.1269 4.8998 C 135.1269 5.4799 134.9819 6.06 134.6918 6.6401 C 134.4018 6.9301 134.1117 7.3652 133.5316 7.8003 C 134.2567 8.2354 134.8368 8.6704 135.1269 9.1055 C 135.562 9.5406 135.707 10.2657 135.707 10.9908 C 135.707 12.006 135.4169 13.0212 134.5468 13.7463 C 133.6766 14.4715 132.8065 14.7615 131.6463 14.7615 L 123.9599 14.7615 L 123.9599 1.1291 Z M 130.4861 5.3349 C 130.4861 4.8998 130.4861 4.7548 130.196 4.4647 C 130.051 4.3197 129.7609 4.3197 129.3259 4.3197 L 128.6007 4.3197 L 128.6007 6.4951 C 129.1808 6.4951 129.6159 6.35 129.906 6.35 C 130.341 6.205 130.4861 5.7699 130.4861 5.3349 Z M 129.4709 11.5709 C 129.906 11.5709 130.341 11.4259 130.4861 11.2809 C 130.9211 11.1359 131.0662 10.8458 131.0662 10.4107 C 131.0662 10.1207 130.9211 9.6856 130.6311 9.5406 C 130.341 9.3956 129.906 9.2505 129.4709 9.2505 L 128.6007 9.2505 L 128.6007 11.5709 L 129.4709 11.5709 Z"/></g></g><g id="ID0.9016021681018174"><g id="id56"><path id="ID0.8226928096264601" fill="none" stroke="none" stroke-width=".145" d="M 136.4321 0.9841 L 149.3394 0.9841 L 149.3394 15.3416 L 136.4321 15.3416 L 136.4321 0.9841 Z"/><path id="ID0.07290904596447945" fill="#FFF" stroke="none" stroke-width=".145" d="M 136.5771 1.1291 L 141.508 1.1291 L 141.508 9.2505 C 141.508 9.5406 141.653 9.9757 141.9431 10.2657 C 142.0881 10.5558 142.5232 10.8458 142.8132 10.8458 C 143.3933 10.8458 143.6834 10.5558 143.8284 10.1207 C 143.9734 9.8306 144.1185 9.2505 144.1185 8.8155 L 144.1185 1.1291 L 149.1943 1.1291 L 149.1943 9.5406 C 149.1943 11.2809 148.6142 12.7312 147.454 13.7463 C 146.2938 14.6165 144.8436 15.0516 143.1033 15.0516 C 141.0729 15.0516 139.4776 14.6165 138.3174 13.7463 C 137.1572 12.7312 136.5771 11.1359 136.5771 9.2505 L 136.5771 1.1291 Z"/></g></g><g id="ID0.2751608844846487"><g id="id57"><path id="ID0.45608875853940845" fill="none" stroke="none" stroke-width=".145" d="M 150.6446 0.9841 L 155.8655 0.9841 L 155.8655 15.0516 L 150.6446 15.0516 L 150.6446 0.9841 Z"/><path id="ID0.494114613160491" fill="#FFF" stroke="none" stroke-width=".145" d="M 150.6446 1.1291 L 155.7205 1.1291 L 155.7205 14.7615 L 150.6446 14.7615 L 150.6446 1.1291 Z"/></g></g><g id="ID0.04268569219857454"><g id="id58"><path id="ID0.20264212507754564" fill="none" stroke="none" stroke-width=".145" d="M 157.0257 0.9841 L 166.5974 0.9841 L 166.5974 15.0516 L 157.0257 15.0516 L 157.0257 0.9841 Z"/><path id="ID0.21565398387610912" fill="#FFF" stroke="none" stroke-width=".145" d="M 157.1707 1.1291 L 162.1016 1.1291 L 162.1016 10.4107 L 166.4524 10.4107 L 166.4524 14.7615 L 157.1707 14.7615 L 157.1707 1.1291 Z"/></g></g><g id="ID0.9333171704784036"><g id="id59"><path id="ID0.5859218505211174" fill="none" stroke="none" stroke-width=".145" d="M 167.1775 0.9841 L 180.8099 0.9841 L 180.8099 15.0516 L 167.1775 15.0516 L 167.1775 0.9841 Z"/><path id="ID0.10207045171409845" fill="#FFF" stroke="none" stroke-width=".145" d="M 167.3225 1.1291 L 171.9633 1.1291 C 174.7188 1.1291 176.7492 1.5642 178.1994 2.5794 C 179.7947 3.7396 180.6648 5.6249 180.6648 8.2354 C 180.6648 10.1207 180.0847 11.716 178.7795 12.8762 C 177.6193 14.1814 176.1691 14.7615 174.2837 14.7615 L 167.3225 14.7615 L 167.3225 1.1291 Z M 175.734 7.9453 C 175.734 7.0752 175.2989 6.35 174.7188 5.915 C 174.1387 5.6249 173.4136 5.3349 172.5434 5.3349 L 172.2534 5.3349 L 172.2534 10.7008 L 172.3984 10.7008 C 173.4136 10.7008 174.1387 10.5558 174.7188 10.1207 C 175.2989 9.6856 175.734 8.9605 175.734 7.9453 Z"/></g></g><g id="ID0.8467885088175535"><g id="id60"><path id="ID0.12837175000458956" fill="none" stroke="none" stroke-width=".145" d="M 181.825 0.9841 L 187.046 0.9841 L 187.046 15.0516 L 181.825 15.0516 L 181.825 0.9841 Z"/><path id="ID0.11957878852263093" fill="#FFF" stroke="none" stroke-width=".145" d="M 181.825 1.1291 L 186.9009 1.1291 L 186.9009 14.7615 L 181.825 14.7615 L 181.825 1.1291 Z"/></g></g><g id="ID0.30329852644354105"><g id="id61"><path id="ID0.6159367822110653" fill="none" stroke="none" stroke-width=".145" d="M 188.0611 0.9841 L 202.1286 0.9841 L 202.1286 15.0516 L 188.0611 15.0516 L 188.0611 0.9841 Z"/><path id="ID0.051450799219310284" fill="#FFF" stroke="none" stroke-width=".145" d="M 188.2062 1.1291 L 192.7019 1.1291 C 193.282 1.8543 193.8621 2.5794 194.2972 3.3045 C 194.8773 4.1747 195.3124 4.8998 195.7475 5.6249 C 196.1826 6.35 196.6176 7.0752 197.1977 8.0903 L 197.1977 1.1291 L 201.9836 1.1291 L 201.9836 14.7615 L 197.1977 14.7615 C 196.4726 13.7463 195.7475 12.5861 194.8773 11.4259 C 194.2972 10.4107 193.5721 9.3956 192.847 8.0903 C 192.847 8.2354 192.847 8.5254 192.847 8.9605 C 192.847 9.2505 192.847 9.3956 192.847 9.5406 L 192.847 13.0212 L 192.847 14.7615 L 188.2062 14.7615 L 188.2062 1.1291 Z"/></g></g><g id="ID0.8613491589203477"><g id="id62"><path id="ID0.07710900995880365" fill="none" stroke="none" stroke-width=".145" d="M 202.5637 0.694 L 217.7913 0.694 L 217.7913 15.3416 L 202.5637 15.3416 L 202.5637 0.694 Z"/><path id="ID0.06624496262520552" fill="#FFF" stroke="none" stroke-width=".145" d="M 212.5704 6.06 C 212.1353 5.7699 211.8453 5.4799 211.5552 5.3349 C 211.2652 5.0448 210.8301 5.0448 210.5401 5.0448 C 209.6699 5.0448 208.9448 5.3349 208.5097 5.915 C 208.0746 6.4951 207.7846 7.0752 207.7846 7.9453 C 207.7846 8.9605 207.9296 9.6856 208.5097 10.2657 C 208.9448 10.9908 209.6699 11.2809 210.5401 11.2809 C 210.9751 11.2809 211.4102 11.1359 211.8453 10.9908 C 212.1353 10.7008 212.4254 10.4107 212.5704 9.9757 L 210.105 9.9757 L 210.105 6.7851 L 217.6463 6.7851 L 217.6463 7.6553 C 217.6463 9.8306 216.9212 11.716 215.616 13.0212 C 214.1657 14.4715 212.4254 15.0516 210.105 15.0516 C 208.0746 15.0516 206.1893 14.4715 204.8841 13.0212 C 203.4338 11.716 202.7087 9.9757 202.7087 7.9453 C 202.7087 5.7699 203.4338 4.0296 204.7391 2.7244 C 206.1893 1.4192 207.9296 0.8391 210.105 0.8391 C 211.5552 0.8391 212.8605 1.1291 214.0207 1.5642 C 215.3259 2.2893 216.3411 3.1595 217.0662 4.3197 L 212.5704 6.06 Z"/></g></g><g id="ID0.9113375204615295"><g id="id63"><path id="ID0.43421340826898813" fill="none" stroke="none" stroke-width=".145" d="M 217.7913 0.694 L 229.5384 0.694 L 229.5384 15.3416 L 217.7913 15.3416 L 217.7913 0.694 Z"/><path id="ID0.8885420616716146" fill="#FFF" stroke="none" stroke-width=".145" d="M 219.5316 9.8306 C 220.1117 10.2657 220.6918 10.5558 221.1269 10.8458 C 221.707 11.1359 222.2871 11.2809 222.8672 11.2809 C 223.1573 11.2809 223.4473 11.2809 223.5923 11.1359 C 224.0274 10.9908 224.1724 10.7008 224.1724 10.4107 C 224.1724 10.1207 223.5923 9.8306 222.7222 9.6856 C 221.417 9.3956 220.5468 8.9605 219.9667 8.6704 C 218.9515 7.9453 218.5165 6.9301 218.5165 5.6249 C 218.5165 4.1747 219.0966 3.0145 220.2568 2.1443 C 221.2719 1.2741 222.5772 0.8391 224.0274 0.8391 C 224.8976 0.8391 225.7677 0.9841 226.6379 1.1291 C 227.218 1.4192 227.9431 1.7092 228.9583 2.1443 L 227.508 5.6249 C 227.073 5.3349 226.6379 5.0448 226.0578 4.8998 C 225.4777 4.6097 224.8976 4.6097 224.4625 4.6097 C 224.3175 4.6097 224.0274 4.6097 223.8824 4.7548 C 223.5923 4.8998 223.4473 5.0448 223.4473 5.1898 C 223.4473 5.6249 224.0274 5.7699 225.0426 6.06 C 226.3478 6.4951 227.218 6.7851 227.7981 7.0752 C 228.8133 7.8003 229.2483 8.8155 229.2483 10.1207 C 229.2483 11.5709 228.6682 12.8762 227.508 13.7463 C 226.3478 14.6165 225.0426 15.0516 223.4473 15.0516 C 222.4321 15.0516 221.562 14.9065 220.5468 14.6165 C 219.8217 14.4715 218.9515 14.0364 217.9364 13.6013 L 219.5316 9.8306 Z"/></g></g></g></svg>