<svg xmlns="http://www.w3.org/2000/svg" xmlns:xlink="http://www.w3.org/1999/xlink" width="24.336" height="18.939" version="1.1" viewBox="0.366 0.279 24.336 18.939"><g id="ID0.8559770211577415"><g id="ID0.5509724728763103"><g id="ID0.926967881154269"><g id="container-id1"><g id="id1"><g id="ID0.5499575794674456"><g id="ID0.7513383445329964"><g id="id6"><path id="ID0.7197263478301466" fill="none" stroke="none" stroke-width=".019" d="M 0.892 0.779 L 24.1833 0.779 L 24.1833 18.6981 L 0.892 18.6981 L 0.892 0.779 Z"/><path id="ID0.21323765255510807" fill="silver" stroke="none" stroke-width=".019" d="M 12.7357 15.786 L 12.7357 15.786 C 12.4716 15.6113 12.2265 15.4172 12.0002 15.2424 C 11.8116 15.1065 11.6418 14.9706 11.4721 14.8542 C 11.1326 14.6018 10.812 14.3688 10.4914 14.1358 C 10.1897 13.9029 9.8879 13.6699 9.5862 13.4369 C 9.4353 13.3205 9.2655 13.204 9.0958 13.0681 C 8.53 12.6604 7.9643 12.2527 7.3985 11.8256 C 7.3042 11.7479 7.2287 11.6897 7.1344 11.6314 C 6.8327 11.5149 6.5875 11.2626 6.3235 11.0684 C 6.2292 11.0102 6.1349 10.9325 6.0217 10.8743 C 5.7577 10.6801 5.6446 10.3889 5.3994 10.1754 C 5.1731 9.9618 4.9845 9.7289 4.8147 9.4571 C 4.6073 9.1076 4.3055 8.8552 3.9661 8.6805 C 3.7209 8.5252 3.4569 8.5446 3.2117 8.6999 C 2.9854 8.5252 2.7591 8.3505 2.5139 8.1951 C 2.3442 8.0592 2.1367 7.9039 1.967 7.7875 C 1.7784 7.6321 1.5898 7.4962 1.4201 7.3798 C 1.3635 7.3409 1.3446 7.3021 1.3069 7.2633 C 1.1937 7.108 1.0806 6.9332 0.9674 6.7779 C 0.9297 6.7391 0.9109 6.7003 0.892 6.642 C 0.892 6.5061 0.8731 6.3702 0.8731 6.2149 C 0.8543 6.1373 0.8731 6.079 0.9109 6.0208 C 1.024 5.749 1.1372 5.4772 1.2503 5.2054 C 1.288 5.0889 1.3823 5.0112 1.4578 4.8948 C 1.6275 4.6618 1.8161 4.4482 2.0047 4.2153 C 2.0613 4.157 2.1179 4.0988 2.1933 4.0405 C 2.7402 3.6717 3.2871 3.3028 3.8529 2.9339 C 4.3998 2.5651 4.9279 2.1962 5.4748 1.8273 C 5.6446 1.7109 5.8331 1.6526 6.0029 1.575 C 6.2481 1.4585 6.4932 1.342 6.7384 1.2255 C 6.9081 1.1478 7.0779 1.0702 7.2476 0.9925 C 7.3608 0.9537 7.4551 0.8955 7.5682 0.8566 C 7.6814 0.7984 7.7757 0.779 7.9077 0.8178 C 8.2094 0.9149 8.4923 0.9731 8.7752 1.0702 C 8.8318 1.0896 8.9072 1.0896 8.9638 1.0896 C 8.9827 1.109 9.0204 1.109 9.0392 1.1284 C 9.0392 1.1478 9.0392 1.1478 9.0392 1.1478 C 9.0581 1.1478 9.0581 1.1478 9.0581 1.1478 C 9.077 1.2643 8.9827 1.2643 8.9072 1.2837 C 8.4357 1.4391 7.9831 1.5944 7.5116 1.7109 C 6.927 1.8468 6.4178 2.1185 5.9086 2.4098 C 5.1353 2.7204 4.513 3.3028 3.8906 3.827 C 3.6643 4.0405 3.4569 4.2541 3.306 4.5453 C 3.1551 4.8365 2.9665 5.1277 2.7779 5.4578 C 2.9854 5.4578 3.174 5.4189 3.3437 5.3995 C 4.0226 5.283 4.7016 5.186 5.3994 5.0889 C 5.4748 5.0695 5.5314 5.0501 5.6068 5.1083 C 5.6257 5.1083 5.6257 5.1471 5.6257 5.1666 C 5.588 5.2054 5.5314 5.2248 5.4937 5.2248 C 4.8902 5.4772 4.3055 5.749 3.702 5.9625 C 3.6455 6.0014 3.5512 6.0014 3.5323 6.079 C 3.5134 6.1567 3.6077 6.1955 3.6643 6.2343 C 4.9279 7.1468 6.1538 8.0592 7.3985 8.9911 C 8.3414 9.6706 9.2655 10.3695 10.1897 11.049 C 10.9063 11.5732 11.623 12.1168 12.3962 12.6604 C 12.3773 12.4662 12.3019 12.2915 12.2642 12.1362 C 12.1699 11.8256 12.0756 11.5149 11.9813 11.2237 C 11.9624 11.1461 11.9436 11.0684 11.9436 11.0102 C 11.9436 10.9519 11.9624 10.8937 11.9813 10.8549 C 12.0002 10.8355 12.019 10.8355 12.019 10.8355 C 12.0567 10.8549 12.0567 10.8743 12.0756 10.8937 C 12.0756 10.9131 12.0945 10.9325 12.0945 10.9519 C 12.1133 10.9714 12.1133 11.0102 12.1133 11.0296 C 12.1322 11.049 12.1322 11.0684 12.1322 11.0684 C 12.151 11.1073 12.151 11.1267 12.1699 11.1655 C 12.1699 11.1849 12.1699 11.1849 12.1887 11.2043 C 12.2076 11.2432 12.2265 11.2626 12.2453 11.3014 C 12.4716 11.8644 12.6602 12.4274 12.8865 12.9904 C 13.1317 13.2428 13.4335 13.4369 13.7164 13.6311 C 15.2062 14.7571 16.715 15.8249 18.2049 16.9315 C 18.2992 17.0091 18.3935 17.0868 18.3935 17.2033 C 18.3935 17.3197 18.3746 17.4168 18.318 17.5333 C 18.2426 17.8051 18.2049 18.0575 18.2237 18.3293 C 18.2237 18.4458 18.2237 18.5428 18.1483 18.6011 C 18.0163 18.6787 17.8654 18.6593 17.7145 18.7176 C 17.6768 18.7176 17.6391 18.6981 17.6014 18.6787 C 17.5259 18.6399 17.4505 18.6011 17.3939 18.5428 C 17.2053 18.5428 17.0733 18.4263 16.9224 18.3293 C 16.5453 18.1157 16.1681 17.8828 15.8097 17.6692 C 15.6777 17.611 15.5834 17.5333 15.508 17.4168 C 15.4703 17.3586 15.4514 17.3197 15.4137 17.2809 C 15.0177 16.9121 14.6782 16.5044 14.301 16.1161 C 14.037 15.8443 13.7352 15.6501 13.3769 15.5725 C 13.1506 15.5337 12.9243 15.5142 12.7922 15.7666 C 12.7734 15.786 12.7357 15.786 12.7357 15.786 Z"/><path id="ID0.5980842281132936" fill="#B2B2B2" stroke="none" stroke-width=".019" d="M 12.3208 3.0698 L 12.3208 3.0698 C 12.5094 3.1863 12.7168 3.361 12.9054 3.4775 C 13.4335 3.8658 13.9804 4.2541 14.5085 4.6424 C 14.9045 4.9142 15.2817 5.2054 15.6777 5.4772 C 15.8286 5.5937 15.9795 5.6907 16.1304 5.8072 C 16.1869 5.846 16.2435 5.8655 16.2058 5.9431 C 15.9606 6.2926 15.6023 6.545 15.3005 6.8556 C 15.0365 7.108 14.7536 7.3409 14.4896 7.6127 C 14.3764 7.7292 14.2633 7.8263 14.1313 7.8845 C 13.3015 8.3116 12.5094 8.7387 11.6607 9.1464 C 11.5852 9.1853 11.5098 9.2241 11.4344 9.2047 C 11.1515 9.0882 10.9063 8.8746 10.6423 8.6805 C 9.2467 7.6127 7.8134 6.6032 6.4178 5.5742 C 6.1915 5.3995 5.9652 5.283 5.8143 5.0889 C 5.852 4.8948 6.0029 4.7783 6.0972 4.623 C 6.5687 3.9629 7.2287 3.5164 7.8511 3.0116 C 7.8888 3.0116 7.9077 2.9922 7.9265 2.9922 C 7.9454 2.9728 7.9454 2.9728 7.9643 2.9534 C 8.002 2.9534 8.002 2.9534 8.0397 2.9339 C 8.0585 2.9145 8.0585 2.9145 8.0774 2.8951 C 8.0963 2.8951 8.1151 2.8951 8.1151 2.8757 C 8.134 2.8757 8.1528 2.8563 8.1717 2.8563 C 8.3226 2.7786 8.4735 2.701 8.6055 2.6039 C 9.1524 2.235 9.7748 2.0603 10.3971 1.8468 C 10.4725 1.8273 10.5291 1.8079 10.6046 1.8273 C 10.812 1.9827 11.0195 2.138 11.2458 2.2739 C 11.6041 2.5457 11.9624 2.798 12.3208 3.0698 Z"/><path id="ID0.20991120440885425" fill="#262626" stroke="none" stroke-width=".019" d="M 12.7357 15.786 L 12.7357 15.786 C 12.7357 15.7666 12.7545 15.7472 12.7734 15.7084 C 12.83 15.5337 12.9997 15.4948 13.1694 15.4948 C 13.3769 15.5142 13.6032 15.5337 13.7729 15.689 C 14.037 15.786 14.2444 15.9802 14.4519 16.1743 C 14.565 16.2908 14.6782 16.4267 14.7536 16.5626 C 14.8102 16.6597 14.8668 16.6985 14.9422 16.7567 C 15.1497 16.9315 15.3571 17.1256 15.508 17.3197 C 15.6023 17.4556 15.6966 17.5527 15.8286 17.6498 C 15.8286 17.7469 15.7532 17.8051 15.6966 17.8633 C 15.4703 17.9992 15.244 18.174 15.0365 18.3293 C 14.8668 18.4263 14.697 18.4846 14.4896 18.4458 C 14.4896 18.4458 14.4896 18.4458 14.4707 18.4458 C 14.2256 18.3875 14.0181 18.271 13.8107 18.1157 C 13.6786 18.0187 13.5843 17.9022 13.49 17.7857 C 13.226 17.5333 13.0563 17.2227 12.8865 16.9121 C 12.7357 16.5626 12.6791 16.1743 12.7357 15.786 Z"/><path id="ID0.7878994774073362" fill="#262626" stroke="none" stroke-width=".019" d="M 3.2117 8.6999 L 3.2117 8.6999 C 3.2871 8.564 3.438 8.5446 3.5512 8.5058 C 3.57 8.4864 3.6077 8.5058 3.6266 8.5252 C 3.7209 8.5252 3.8152 8.564 3.8906 8.5834 C 3.9472 8.5834 3.9661 8.6028 4.0038 8.6223 C 4.1924 8.7776 4.3998 8.8941 4.5696 9.0882 C 4.7582 9.3017 4.9279 9.5153 5.0411 9.7483 C 5.0788 9.7871 5.0976 9.8259 5.1353 9.8648 C 5.3805 10.0589 5.588 10.3113 5.7954 10.5637 C 5.852 10.6607 5.9652 10.7384 6.0217 10.8355 C 6.0217 10.9131 5.9652 10.9519 5.9086 10.9908 C 5.72 11.1267 5.5314 11.2626 5.3239 11.379 C 5.1731 11.4761 4.9845 11.5149 4.8147 11.4567 C 4.4376 11.3985 4.1735 11.1461 3.9284 10.8743 C 3.7209 10.6607 3.5512 10.3889 3.4003 10.1171 C 3.3437 10.0395 3.306 9.9424 3.2871 9.8648 C 3.2494 9.7677 3.2306 9.6512 3.174 9.5347 C 3.1551 9.4765 3.1363 9.3794 3.1363 9.3017 C 3.1174 9.0882 3.1174 8.8941 3.2117 8.6999 Z"/><path id="ID0.5798938474617898" fill="#C4C4F5" stroke="none" stroke-width=".019" d="M 10.6046 1.8273 L 10.6046 1.8273 C 10.1897 1.9827 9.7559 2.1185 9.341 2.2739 C 9.1524 2.3321 8.9827 2.4486 8.7941 2.5651 C 8.5678 2.6816 8.3414 2.798 8.1151 2.9145 C 8.0963 2.7786 7.9831 2.7204 7.8322 2.6816 C 7.4362 2.5457 7.0024 2.5068 6.5687 2.468 C 6.3612 2.4486 6.116 2.4874 5.8897 2.3709 C 6.0217 2.2544 6.2103 2.1962 6.3612 2.1185 C 6.4366 2.0603 6.5121 2.0409 6.5687 2.0021 C 6.7573 1.8856 6.9647 1.8079 7.1722 1.7497 C 7.6814 1.5944 8.1717 1.4391 8.662 1.3032 C 8.7752 1.2643 8.8884 1.2449 8.9827 1.2061 C 9.0204 1.2061 9.0392 1.1673 9.0581 1.1478 C 9.0958 1.1284 9.1335 1.1478 9.1713 1.1478 C 9.4541 1.2837 9.7559 1.4391 10.0388 1.5555 C 10.2274 1.6526 10.416 1.7303 10.6046 1.8273 Z"/><path id="ID0.737728176638484" fill="#7F7F7F" stroke="none" stroke-width=".019" d="M 23.4666 14.2329 L 23.4666 14.2329 C 23.6175 14.2135 23.7684 14.1941 23.9381 14.1941 C 23.9947 14.1941 24.0701 14.2135 24.2022 14.2912 C 24.089 14.3688 23.9758 14.4659 23.8627 14.5435 C 23.5798 14.7377 23.3158 14.9318 23.0329 15.1454 C 22.9009 15.223 22.7688 15.3201 22.6368 15.4172 C 22.2596 15.689 21.8825 15.9413 21.5241 16.2326 C 21.279 16.3879 21.0526 16.5626 20.8075 16.7179 C 20.3549 17.0285 19.9211 17.3586 19.4685 17.6886 C 19.2044 17.8828 18.9027 18.0575 18.6575 18.2904 C 18.6575 18.2904 18.6575 18.2904 18.6575 18.2904 C 18.6387 18.2904 18.6198 18.3099 18.6009 18.3293 C 18.6009 18.3293 18.5821 18.3293 18.5632 18.3293 C 18.5444 18.3487 18.5444 18.3487 18.5255 18.3681 C 18.5066 18.3681 18.5066 18.3681 18.5066 18.3681 C 18.5066 18.3875 18.4878 18.3875 18.4878 18.3875 C 18.4689 18.4069 18.4501 18.4069 18.4501 18.4263 C 18.3369 18.3681 18.4312 18.3099 18.4501 18.271 C 18.6575 18.0381 18.8272 17.7857 19.0536 17.5721 C 19.3364 17.3197 19.6005 17.0868 19.8268 16.7567 C 20.9584 15.9608 22.0711 15.1454 23.2215 14.3494 C 23.2781 14.2912 23.3535 14.2135 23.4666 14.2329 Z"/><path id="ID0.8244834863580763" fill="#A3A2A2" stroke="none" stroke-width=".019" d="M 19.8645 16.7567 L 19.8645 16.7567 C 19.8645 16.8344 19.8079 16.8926 19.7514 16.9509 C 19.525 17.1838 19.2987 17.4168 19.0536 17.6498 C 18.8272 17.8828 18.6387 18.1157 18.4312 18.3487 C 18.3935 18.3875 18.4123 18.4069 18.4501 18.4263 C 18.3746 18.5234 18.2803 18.5817 18.1483 18.6011 C 18.1483 18.4263 18.1483 18.2322 18.1483 18.0381 C 18.1483 17.9216 18.186 17.8245 18.2237 17.708 C 18.2803 17.5333 18.318 17.3392 18.3558 17.1644 C 18.3935 17.0868 18.4501 17.048 18.5444 17.0285 C 18.9215 16.9315 19.2987 16.8538 19.6759 16.7373 C 19.7514 16.7373 19.8079 16.7373 19.8645 16.7567 Z"/><path id="ID0.9958756691776216" fill="#C4C4F5" stroke="none" stroke-width=".019" d="M 9.0392 1.1284 L 9.0392 1.1284 C 9.0015 1.1478 8.9827 1.1284 8.9638 1.0896 C 8.9827 1.0896 9.0204 1.0896 9.0392 1.1284 Z"/><path id="ID0.17204775055870414" fill="#929292" stroke="none" stroke-width=".019" d="M 18.6009 18.3293 L 18.6009 18.3293 C 18.6009 18.2904 18.6198 18.271 18.6575 18.2904 C 18.6387 18.3099 18.6198 18.3293 18.6009 18.3293 Z"/><path id="ID0.0728209507651627" fill="#A3A2A2" stroke="none" stroke-width=".019" d="M 18.5255 18.3681 L 18.5255 18.3681 C 18.5255 18.3293 18.5444 18.3293 18.5632 18.3293 C 18.5444 18.3681 18.5444 18.3681 18.5255 18.3681 Z"/><path id="ID0.35263131419196725" fill="#A3A2A2" stroke="none" stroke-width=".019" d="M 18.4878 18.3875 L 18.4878 18.3875 C 18.4878 18.3875 18.4878 18.3681 18.5066 18.3681 C 18.5066 18.3875 18.5066 18.4069 18.4878 18.3875 Z"/><path id="ID0.30188264790922403" fill="#B2B2B2" stroke="none" stroke-width=".019" d="M 19.8645 16.7567 L 19.8645 16.7567 C 19.4307 16.8732 18.997 16.9703 18.5444 17.0868 C 18.4878 17.1062 18.4312 17.1256 18.3558 17.1644 C 18.318 17.1062 18.2803 17.048 18.2237 17.0285 C 17.9974 16.8538 17.7523 16.6791 17.5071 16.5044 C 17.2053 16.2714 16.8847 16.019 16.5641 15.786 C 16.3567 15.6307 16.1304 15.4948 15.9229 15.3201 C 15.5646 15.0677 15.2062 14.8153 14.8668 14.5435 C 14.7536 14.4659 14.6405 14.3688 14.5273 14.2912 C 14.2067 14.0776 13.8861 13.8252 13.5843 13.5923 C 13.358 13.4369 13.1317 13.2816 12.9243 13.1069 C 12.8865 13.1069 12.8677 13.0681 12.83 13.0487 C 13.1506 12.8545 13.49 12.7186 13.8295 12.5439 C 14.6405 12.1944 15.4326 11.8062 16.2435 11.4567 C 16.4887 11.3596 16.6961 11.2432 16.8847 11.0296 C 17.3751 10.5248 17.8843 10.0201 18.3746 9.4959 C 18.6575 9.1853 18.9404 8.8552 19.261 8.564 C 19.261 8.5446 19.2987 8.5252 19.3176 8.5252 C 19.3176 8.5252 19.3176 8.5252 19.3364 8.5252 C 19.5628 8.7387 19.7891 8.9523 20.0154 9.1464 C 20.3926 9.5347 20.7886 9.9036 21.1658 10.2724 C 21.4298 10.5248 21.675 10.7772 21.9579 11.0296 C 22.2596 11.3402 22.5803 11.6314 22.882 11.9226 C 22.9574 12.0003 23.0329 12.078 23.1083 12.1362 C 23.3723 12.3886 23.6364 12.6604 23.9004 12.9128 C 23.9381 12.9322 23.9758 12.9904 23.9947 13.0098 C 24.0324 13.0487 24.0324 13.1069 24.0324 13.1457 C 23.8816 13.3981 23.7684 13.6505 23.6175 13.9029 C 23.5609 14.0194 23.5232 14.1358 23.4666 14.2329 C 23.2026 14.4076 22.9197 14.6018 22.6557 14.7959 C 22.1654 15.1454 21.6561 15.5142 21.1658 15.8831 C 20.8452 16.1161 20.5246 16.3296 20.204 16.5432 C 20.1474 16.6014 20.072 16.6403 19.9965 16.6985 C 19.9777 16.7373 19.9211 16.7373 19.8645 16.7567 Z"/><path id="ID0.6365372873842716" fill="#9797BD" stroke="none" stroke-width=".019" d="M 19.2987 8.5834 L 19.2987 8.5834 C 19.2233 8.6611 19.1479 8.7387 19.0724 8.797 C 18.318 9.6124 17.5448 10.4083 16.7904 11.2237 C 16.7339 11.2626 16.6773 11.3208 16.6207 11.3402 C 16.5075 11.379 16.4132 11.4567 16.2624 11.4761 C 16.2435 11.3596 16.3189 11.3402 16.3944 11.3014 C 16.5264 11.2237 16.5453 11.1267 16.451 11.0102 C 16.3944 10.9131 16.3378 10.8355 16.2812 10.7384 C 15.64 9.9424 15.0931 9.0882 14.4707 8.234 C 14.3764 8.0981 14.2444 7.9816 14.1313 7.8457 C 14.2256 7.7875 14.3199 7.7098 14.4142 7.6127 C 14.9799 7.0885 15.5269 6.545 16.0926 6.0208 C 16.1304 5.9819 16.1681 5.9625 16.2058 5.9431 C 16.2435 5.9431 16.3001 5.9043 16.3189 5.9625 C 16.451 6.0596 16.583 6.1373 16.6961 6.2537 C 16.9413 6.4673 17.1488 6.6614 17.3939 6.8556 C 17.5825 6.9915 17.7711 7.1856 17.9597 7.3409 C 18.1483 7.4962 18.318 7.6516 18.5066 7.7875 C 18.6009 7.8651 18.6764 7.9622 18.7707 8.001 C 18.9404 8.1369 19.0913 8.2728 19.2233 8.4087 C 19.261 8.4475 19.2987 8.4864 19.3364 8.5252 C 19.3364 8.5252 19.3364 8.5252 19.3364 8.5252 C 19.3176 8.5252 19.2987 8.5446 19.2987 8.5834 Z"/><path id="ID0.8802320300601423" fill="#EFEFFF" stroke="none" stroke-width=".019" d="M 5.8331 5.0695 L 5.8331 5.0695 C 6.3046 5.4189 6.795 5.7684 7.2665 6.1373 C 7.7379 6.4673 8.2283 6.8167 8.7186 7.1856 C 9.1901 7.5351 9.6616 7.8845 10.1519 8.234 C 10.5668 8.5446 10.9818 8.8552 11.4155 9.1658 C 11.4155 9.1658 11.4155 9.1853 11.4344 9.2047 C 11.623 9.3406 11.5852 9.593 11.6795 9.7677 C 11.7361 10.0201 11.8116 10.2724 11.887 10.5248 C 11.9436 10.6801 11.9624 10.8355 11.9813 10.9714 C 12.0002 11.049 12.019 11.1073 12.019 11.1655 C 12.0945 11.3985 12.151 11.6314 12.2265 11.8644 C 12.283 12.0585 12.3396 12.2721 12.4151 12.4856 C 12.4339 12.5439 12.4528 12.5827 12.4528 12.6215 C 12.4528 12.6604 12.4716 12.7186 12.4528 12.738 C 12.3962 12.7769 12.3773 12.7186 12.3396 12.6992 C 11.9813 12.4274 11.623 12.175 11.2646 11.9032 C 10.9629 11.6897 10.6989 11.4761 10.3971 11.2626 C 9.9445 10.9325 9.4919 10.5831 9.0204 10.253 C 8.7563 10.0395 8.4735 9.8453 8.1906 9.6318 C 7.8322 9.3794 7.4551 9.0882 7.0967 8.8358 C 6.8327 8.6223 6.5687 8.4281 6.2858 8.234 C 5.9086 7.9622 5.5314 7.671 5.1542 7.3992 C 4.8713 7.1662 4.5696 6.9526 4.2678 6.7197 C 4.0226 6.545 3.7775 6.3702 3.5323 6.1955 C 3.4946 6.1567 3.4191 6.1373 3.4003 6.0596 C 3.5323 5.9625 3.6643 5.9237 3.8152 5.8655 C 4.0981 5.749 4.3998 5.6325 4.7016 5.516 C 4.9656 5.3995 5.2296 5.283 5.4937 5.2054 C 5.5314 5.1666 5.588 5.2054 5.6068 5.1471 C 5.6068 5.1666 5.6068 5.1666 5.6068 5.1666 C 5.6634 5.0695 5.72 5.0112 5.8331 5.0695 Z"/><path id="ID0.09237040393054485" fill="#A0A0C8" stroke="none" stroke-width=".019" d="M 11.623 9.7677 L 11.623 9.7677 C 11.5664 9.69 11.5664 9.593 11.5475 9.5347 C 11.5098 9.4182 11.491 9.3017 11.4344 9.2047 C 11.623 9.127 11.8304 9.0299 12.019 8.9135 C 12.6791 8.5834 13.3392 8.234 14.0181 7.8845 C 14.037 7.8845 14.0935 7.8651 14.1313 7.8457 C 14.1501 7.8651 14.1878 7.8845 14.2067 7.8845 C 14.2821 7.9039 14.3199 7.9622 14.3576 8.001 C 14.5839 8.3505 14.8102 8.6805 15.0742 8.9911 C 15.244 9.2435 15.4326 9.4765 15.6023 9.7483 C 15.6589 9.8065 15.6966 9.8842 15.7532 9.9424 C 15.8286 10.0977 15.9229 10.2142 16.0361 10.3501 C 16.2435 10.5637 16.4132 10.816 16.5453 11.0684 C 16.6018 11.1655 16.583 11.1849 16.5264 11.2626 C 16.4887 11.3014 16.4698 11.3402 16.4132 11.3596 C 16.3378 11.3596 16.3001 11.3985 16.2624 11.4761 C 16.2435 11.4955 16.2247 11.5149 16.1869 11.5149 C 15.8097 11.7091 15.4137 11.8838 15.0365 12.078 C 14.697 12.2139 14.3764 12.3692 14.037 12.5245 C 13.6786 12.6798 13.3392 12.8351 12.9997 13.0098 C 12.9431 13.0292 12.8865 13.0487 12.83 13.0487 C 12.6791 12.6021 12.5094 12.1556 12.3396 11.6897 C 12.3019 11.5538 12.2453 11.3985 12.1887 11.2626 C 12.1699 11.2432 12.1699 11.2043 12.151 11.1849 C 12.151 11.1849 12.151 11.1849 12.151 11.1849 C 12.1133 11.1461 12.151 11.0878 12.1133 11.0684 C 12.1133 11.0684 12.1133 11.0684 12.1133 11.0684 C 12.0756 11.0102 12.1133 10.9519 12.0567 10.9325 C 12.0567 10.9325 12.0567 10.9325 12.0567 10.9325 C 12.0567 10.8937 12.0567 10.8743 12.0379 10.8355 C 12.0379 10.8355 12.0379 10.8355 12.0379 10.8355 C 11.8681 10.5831 11.8304 10.2724 11.7173 10.0007 C 11.6795 9.923 11.6607 9.8259 11.623 9.7677 Z"/><path id="ID0.49335492216050625" fill="#D1D1FF" stroke="none" stroke-width=".019" d="M 5.8331 5.0695 L 5.8331 5.0695 C 5.7577 5.0695 5.7011 5.1471 5.6068 5.1666 C 5.5503 5.0889 5.4748 5.1083 5.4182 5.1277 C 5.1919 5.186 4.9468 5.2054 4.7016 5.2442 C 4.5884 5.2636 4.4376 5.283 4.3244 5.3025 C 4.1735 5.3219 4.0604 5.3413 3.9284 5.3607 C 3.5889 5.4189 3.2494 5.4578 2.9288 5.516 C 2.8534 5.516 2.8156 5.5548 2.7402 5.5354 C 2.7214 5.5354 2.6836 5.516 2.7025 5.4966 C 2.7591 5.3995 2.8156 5.283 2.8722 5.1666 C 3.0608 4.8753 3.2306 4.5647 3.4003 4.2541 C 3.4569 4.1764 3.5134 4.0988 3.5889 4.0405 C 4.0038 3.6717 4.4376 3.3028 4.8713 2.9145 C 4.909 2.8757 4.9468 2.8563 5.0033 2.8175 C 5.2862 2.6816 5.5503 2.5262 5.8331 2.3903 C 5.852 2.3903 5.8709 2.3709 5.8897 2.3709 C 5.9652 2.3709 6.0595 2.3709 6.1349 2.3903 C 6.3801 2.4098 6.6252 2.3903 6.8704 2.4486 C 6.9081 2.4486 6.9458 2.4486 6.9647 2.4486 C 7.3419 2.4486 7.6814 2.5651 8.0208 2.6816 C 8.0397 2.6816 8.0585 2.6816 8.0585 2.6816 C 8.1528 2.7204 8.1717 2.7398 8.1528 2.8563 C 8.134 2.8757 8.134 2.8951 8.1151 2.9145 C 8.1151 2.9145 8.1151 2.9145 8.1151 2.9145 C 8.1151 2.9339 8.0963 2.9339 8.0774 2.9534 C 8.0774 2.9534 8.0585 2.9534 8.0585 2.9534 C 8.0397 2.9534 8.002 2.9728 8.002 2.9922 C 7.9831 3.0116 7.9831 3.0116 7.9831 3.0116 C 7.9643 3.0116 7.9643 3.0116 7.9643 3.0116 C 7.9454 3.0116 7.9454 3.0116 7.9265 3.031 C 7.6625 3.1863 7.4551 3.4193 7.2099 3.594 C 7.0401 3.7299 6.9081 3.8658 6.7384 3.9823 C 6.6064 4.0794 6.5121 4.1959 6.4178 4.3123 C 6.2103 4.5647 6.0217 4.8365 5.8331 5.0695 Z"/><path id="ID0.2465158523991704" fill="silver" stroke="silver" stroke-width=".038" d="M 11.623 9.7677 L 11.623 9.7677 C 11.6418 9.7677 11.6795 9.7871 11.6795 9.8259 C 11.7927 10.1365 11.9059 10.4472 12.019 10.7772 C 12.0379 10.7966 12.0379 10.8355 12.0379 10.8355 C 11.9813 10.8743 12.0002 10.9325 11.9813 10.9714 C 11.9059 10.8937 11.9059 10.7772 11.8681 10.6996 C 11.7927 10.4083 11.7173 10.1171 11.623 9.8259 C 11.623 9.8065 11.623 9.7677 11.623 9.7677 Z"/><path id="ID0.09684816189110279" fill="#EE4854" stroke="none" stroke-width=".019" d="M 12.0567 10.9325 L 12.0567 10.9325 C 12.1133 10.9519 12.1133 11.0102 12.1133 11.0684 C 12.0567 11.0296 12.0567 10.9714 12.0567 10.9325 Z"/><path id="ID0.03953919326886535" fill="#D1D1FF" stroke="none" stroke-width=".019" d="M 5.6068 5.1471 L 5.6068 5.1471 C 5.588 5.2054 5.5503 5.2054 5.4937 5.2054 C 5.5314 5.1666 5.5691 5.1666 5.6068 5.1471 Z"/><path id="ID0.6693325778469443" fill="#EE4854" stroke="silver" stroke-width=".038" d="M 12.1133 11.0684 L 12.1133 11.0684 C 12.151 11.0878 12.1699 11.1267 12.151 11.1849 C 12.1133 11.1461 12.1133 11.1073 12.1133 11.0684 Z"/><path id="ID0.48581429896876216" fill="#EE4854" stroke="none" stroke-width=".019" d="M 12.151 11.1849 L 12.151 11.1849 C 12.1887 11.2043 12.1887 11.2432 12.1887 11.2626 C 12.1699 11.2432 12.1322 11.2237 12.151 11.1849 Z"/><path id="ID0.2356218732893467" fill="#EE4854" stroke="none" stroke-width=".019" d="M 12.0379 10.8355 L 12.0379 10.8355 C 12.0567 10.8743 12.0756 10.8937 12.0567 10.9325 C 12.0379 10.9131 12.019 10.8937 12.0379 10.8355 Z"/><path id="ID0.06790122808888555" fill="#C4C4F5" stroke="none" stroke-width=".019" d="M 7.9265 3.031 L 7.9265 3.031 C 7.9265 3.0116 7.9454 3.0116 7.9643 3.0116 C 7.9454 3.0116 7.9454 3.031 7.9265 3.031 Z"/><path id="ID0.09332878701388836" fill="#C4C4F5" stroke="none" stroke-width=".019" d="M 8.002 2.9922 L 8.002 2.9922 C 8.002 2.9728 8.0208 2.9534 8.0585 2.9534 C 8.0397 2.9922 8.0208 2.9922 8.002 2.9922 Z"/><path id="ID0.17643386032432318" fill="#C4C4F5" stroke="none" stroke-width=".019" d="M 8.0774 2.9534 L 8.0774 2.9534 C 8.0963 2.9339 8.1151 2.9145 8.1151 2.9145 C 8.1151 2.9534 8.1151 2.9534 8.0774 2.9534 Z"/><path id="ID0.6944350725971162" fill="#929292" stroke="none" stroke-width=".019" d="M 19.2987 8.5834 L 19.2987 8.5834 C 19.2987 8.5446 19.3176 8.5252 19.3364 8.5252 C 19.3176 8.5446 19.3176 8.564 19.2987 8.5834 Z"/></g></g></g></g></g></g></g></g></svg>