<svg version="1.1" xmlns="http://www.w3.org/2000/svg" xmlns:xlink="http://www.w3.org/1999/xlink" width="141.17645" height="76.39081" viewBox="0,0,141.17645,76.39081"><g transform="translate(-4.6133,-144.35295)"><g data-paper-data="{&quot;isPaintingLayer&quot;:true}" fill-rule="nonzero" stroke="none" stroke-linecap="butt" stroke-linejoin="miter" stroke-miterlimit="10" stroke-dasharray="" stroke-dashoffset="0" style="mix-blend-mode: normal"><path d="M10.23256,144.51295h100.07911c3.10341,0 5.61923,2.26406 5.61923,5.05688v66.11704c0,2.79282 -2.51582,5.05688 -5.61923,5.05688h-100.07915c-3.10341,0 -5.61922,-2.26404 -5.61922,-5.05688v-66.11701c0,-2.79285 2.51583,-5.05692 5.61926,-5.05692z" fill="#000000" stroke-width="1"/><path d="M40.09142,144.35295h100.0791c3.10341,0 5.61923,2.26406 5.61923,5.05688v66.11704c0,2.79282 -2.51582,5.05688 -5.61923,5.05688h-100.07915c-3.10341,0 -5.61922,-2.26406 -5.61922,-5.05688v-66.11701c0,-2.79284 2.51583,-5.05692 5.61926,-5.05692z" fill="#000000" stroke-width="1"/><path d="M35.65511,183.10988v-1.5015h104.3239v1.5015z" fill="#ffffff" stroke-width="0"/></g></g></svg>