<svg version="1.1" xmlns="http://www.w3.org/2000/svg" xmlns:xlink="http://www.w3.org/1999/xlink" width="86.017" height="65.9746" viewBox="0,0,86.017,65.9746"><g transform="translate(-196.5575,-147.2151)"><g data-paper-data="{&quot;isPaintingLayer&quot;:true}" fill-rule="nonzero" stroke="none" stroke-linecap="butt" stroke-linejoin="miter" stroke-miterlimit="10" stroke-dasharray="" stroke-dashoffset="0" style="mix-blend-mode: normal"><path d="M239.566,147.2151l43.0085,32.9873l-43.0085,32.9873l-43.0085,-32.9873zM196.5575,147.2151zM282.5745,213.1897z" fill="#70a12e" stroke-width="0.04598"/><path d="M246.69983,171.59603c1.94202,0 3.70318,0.4981 4.97809,1.30308c1.27491,0.80498 2.06358,1.91682 2.06358,3.14429c0,1.22747 -0.78867,2.33931 -2.06358,3.14429c-1.27491,0.80498 -3.03607,1.30307 -4.97809,1.30307c-1.94202,0 -3.70317,-0.4981 -4.97808,-1.30307c-1.27491,-0.80498 -2.06358,-1.91682 -2.06358,-3.14429c0,-1.22747 0.78867,-2.33931 2.06358,-3.14429c1.27491,-0.80498 3.03606,-1.30308 4.97808,-1.30308z" fill="#66942b" stroke-width="1"/><g stroke-width="1"><path d="M237.25953,162.89902c-0.88234,0.25496 -1.10817,0.14101 -1.3956,-0.8247c-0.26471,-0.88942 -0.73552,-1.72413 -0.77347,-2.6739c-0.04675,-1.1698 -0.02773,-2.33107 0.70774,-3.3426c0.12404,-0.1706 0.18876,-0.38424 0.28088,-0.57799c0.38308,-0.10358 0.71833,-0.3559 1.13283,-0.36455c0.50645,0.13035 0.87559,0.55438 1.42325,0.62722c0.23651,0.03146 0.2903,0.29203 0.14118,0.52702c-0.48269,0.76066 -0.29105,1.54123 -0.03191,2.30632c0.11987,0.35391 0.30485,0.68538 0.33275,1.06806c-0.22389,0.89318 -0.68857,1.66941 -1.18526,2.42994c-0.19388,0.28765 -0.46856,0.51386 -0.63237,0.82517z" fill="#7d962f"/><path d="M247.83248,151.39701c0.80763,0.44066 1.48512,0.99057 2.03839,1.76547c0.51453,0.72065 0.86411,1.59216 1.6818,2.09274c0.36536,0.22367 0.5654,0.60708 0.51755,1.07186c-0.05443,0.52869 0.34917,0.97151 0.28533,1.50417c-0.01266,0.10565 0.12127,0.23041 -0.02905,0.31775c-0.14666,0.08522 -0.26556,0.00116 -0.37515,-0.08997c-0.33072,-0.275 -0.6603,-0.55137 -1.01458,-0.84747c-0.19337,0.5131 -0.15263,0.93216 0.12274,1.32866c0.56335,0.81119 0.0385,1.64727 0.05025,2.47119c-0.00424,0.04054 -0.02855,0.07623 -0.06472,0.09503c-0.72823,0.13616 -0.71213,0.87594 -1.07275,1.3085c-0.18194,0.21823 -0.14,0.00268 -0.15151,-0.09349c-0.15645,-0.84864 -0.35821,-1.6883 -0.60442,-2.51537c-0.10715,-0.34676 -0.27996,-0.62379 -0.60508,-0.83716c-0.49815,-0.32691 -0.46629,-0.51804 0.06114,-0.82119c0.44736,-0.29414 0.76573,-0.87376 0.57162,-1.29143c-0.25626,-0.55141 -0.34342,-1.11227 -0.37001,-1.70012c-0.0668,-0.49174 -0.02589,-0.9906 -0.10785,-1.48014c0.00326,-0.05893 0.01653,-0.11688 0.03922,-0.17137c0.18755,-0.23239 0.39368,0.00249 0.57986,-0.02204c-0.17948,-0.03738 -0.36336,-0.11103 -0.56293,-0.08969c-0.63743,-0.4172 -0.80812,-1.15188 -1.18016,-1.74822c-0.06673,-0.10697 -0.03982,-0.29186 0.19029,-0.24772z" fill="#284217"/><path d="M249.36363,162.42657c-0.05315,0.96793 -0.69582,1.59903 -1.31083,2.34885v-0.62275c-0.60039,0.57809 -1.28041,0.97097 -1.77183,1.58223c-0.75364,0.61928 -1.30277,0.47828 -1.58988,-0.42248c-0.15037,-0.46809 -0.24459,-0.95238 -0.2807,-1.44271c-0.0157,-0.21983 -0.04791,-0.42657 -0.16753,-0.61405c-0.07801,-0.25452 -0.09506,-0.50921 0.00332,-0.76229c0.43815,-0.08598 0.78048,0.21173 1.17574,0.30187c0.20571,0.04691 0.37082,0.20725 0.59842,0.29891c-0.15632,-0.63747 -0.32132,-1.26106 0.2236,-1.78481c0.32471,0.1242 0.57788,0.39282 0.96175,0.41305c0.23722,0.01251 0.3145,0.26953 0.43123,0.45624c0.19598,0.31349 0.23815,0.71332 0.60844,1.05915c0.05709,-0.55913 -0.16813,-1.01011 -0.11126,-1.47138c0.03438,-0.20622 0.09321,-0.41789 0.35603,-0.37433c0.3059,0.05069 0.23588,0.3705 0.34455,0.54817c-0.03388,-0.17235 -0.13837,-0.34598 -0.14538,-0.5359c-0.00977,-0.26486 0.15756,-0.39888 0.40746,-0.40576c0.24356,-0.00671 0.3806,0.13578 0.33128,0.37633c-0.0717,0.34975 0.08094,0.70953 -0.06443,1.05167z" fill="#294014"/><path d="M237.98155,152.00666c-0.00225,-0.03423 0.0028,-0.06854 0.01481,-0.10067c0.23707,-0.09449 0.48241,-0.0548 0.72617,-0.0456c0.20343,0.13264 0.47371,0.15463 0.62593,0.37366c0.06072,0.46449 0.47983,0.5992 0.77748,0.84804c0.5971,0.49919 1.28689,0.86489 1.90636,1.33151c0.12328,0.10496 0.28595,0.15144 0.44607,0.12746c0.23241,-0.01893 0.46402,0.04501 0.6538,0.1805c0.03544,0.04469 0.05198,0.10148 0.04607,0.15821c-0.09901,0.24845 -0.36041,0.17543 -0.55725,0.235c0.3925,0.69198 -0.15679,1.75138 -1.03667,2.0726c-0.30162,-0.28458 -0.62264,-0.53141 -0.41515,-1.05371c0.09259,-0.23307 -0.2032,-0.36382 -0.4192,-0.40006c-0.23078,-0.03871 -0.4801,-0.04557 -0.67027,0.13785c-0.06486,0.06255 -0.02135,0.15001 0.02029,0.21905c0.07246,0.12011 0.18016,0.21012 0.2743,0.31173c0.6929,0.74784 0.52032,1.28394 -0.49392,1.53441c-0.39659,-0.24248 -0.65662,-0.62612 -0.97671,-0.94756c-0.08443,-0.08479 -0.18106,-0.22351 -0.13106,-0.31783c0.29483,-0.55622 0.02949,-1.11185 0.02707,-1.6663c0.07551,-0.07688 0.17071,-0.08097 0.26933,-0.07232c-0.06423,-0.02756 -0.13515,-0.03755 -0.19785,-0.06641c-0.16022,-0.07373 -0.32321,-0.14924 -0.31579,-0.36832c0.12094,-0.37304 0.14354,-0.76925 0.25348,-1.14299c0.13739,-0.46708 0.03623,-0.73827 -0.48349,-0.84108c-0.20679,-0.04091 -0.63092,-0.07165 -0.3438,-0.50718z" fill="#485e1c"/><path d="M241.59055,157.16038c0.54608,-0.30854 0.76396,-0.89211 1.12769,-1.35264c0.14041,-0.17778 0.01147,-0.32323 -0.12599,-0.45353c-0.10381,-0.09839 -0.34035,-0.13891 -0.249,-0.34017c0.10052,-0.22147 0.29868,-0.11035 0.46019,-0.05543c0.13007,0.04424 0.22582,-0.03243 0.33268,-0.07425c0.3472,0.12537 0.61681,-0.011 0.83963,-0.26442c0.65031,-0.73959 1.33577,-1.44339 2.05252,-2.11985c0.33211,-0.31345 0.2597,-0.51848 -0.17567,-0.62939c-0.18575,-0.04732 -0.34515,-0.08787 -0.36084,-0.31397c0.11718,-0.1928 0.23906,-0.37926 0.50775,-0.35735c0.52149,0.0756 1.05931,-0.20463 1.57158,0.07196c0.08976,0.25684 -0.12075,0.35221 -0.26809,0.46408c-0.25627,0.19456 -0.45442,0.4017 -0.28414,0.74638c0.17936,0.36305 0.27574,0.79445 0.82027,0.82192c0.35226,0.01777 0.77303,-0.14867 1.02351,0.27343c0.22526,0.54092 0.09888,1.11064 0.1368,1.6669c0.12137,0.29875 0.04933,0.46096 -0.30127,0.42013c-0.21387,-0.02491 -0.41367,-0.13803 -0.63712,-0.10137c-0.52802,-0.00889 -0.64283,-0.33196 -0.65071,-0.79193c-0.01804,-1.0532 -0.11679,-1.10865 -1.01086,-0.55268c-0.62243,0.38706 -1.25037,0.77059 -1.80251,1.26077c-0.26081,0.24611 -0.6211,0.3572 -0.97522,0.30071c0.15566,0.40161 -0.07719,0.67852 -0.36795,0.93405c-0.29131,0.00809 -0.31932,0.19809 -0.32524,0.43343c-0.00809,0.32115 0.07086,0.65575 -0.11102,0.95786c-0.0438,0.03414 -0.10072,0.04657 -0.15476,0.0338c-0.155,-0.4888 -0.46532,-0.55516 -0.90315,-0.35563c-0.19643,0.08952 -0.41821,0.14297 -0.63229,0.01494c-0.10013,-0.3971 0.17414,-0.52281 0.46321,-0.63777z" fill="#698026"/><path d="M241.59055,157.16038c-0.16807,0.19387 -0.33613,0.38773 -0.50419,0.5816c-0.14999,0.38663 -0.18404,0.79707 -0.24585,1.20165c-0.44829,0.6595 -0.70133,1.40039 -0.85731,2.06312c0.07955,-0.22471 0.16455,-0.56813 0.38579,-0.84732c0.16345,-0.20626 0.31687,-0.17189 0.36422,0.07668c0.0581,0.30505 0.1354,0.63615 -0.20906,0.85174c-0.48479,0.47316 -0.85558,1.05041 -1.08432,1.68805c-0.10246,0.31095 -0.20259,0.62229 -0.29445,0.93688c-0.0667,0.22843 -0.27049,0.41994 -0.46219,0.13779c-0.31839,-0.4686 -0.61344,-0.95279 -0.95377,-1.40782c-0.08293,-0.11087 -0.04825,-0.26374 0.01976,-0.39186c0.49657,-0.74267 0.90261,-1.54202 1.20951,-2.38104c0.13487,-0.69855 0.48438,-1.28177 0.96614,-1.79393c0.12345,-0.06387 0.24282,-0.13532 0.35744,-0.21394c0.54732,-0.42336 0.55417,-0.56209 0.0699,-1.0773c-0.04395,-0.04036 -0.08484,-0.08393 -0.12232,-0.13036c-0.14744,-0.21404 -0.53685,-0.32834 -0.38428,-0.66512c0.15241,-0.33643 0.54179,-0.16845 0.81463,-0.23252c0.29863,-0.07013 0.52908,0.20027 0.73341,0.41459c0.02403,0.0252 0.04531,0.09591 0.03363,0.10601c-0.51981,0.44926 0.11517,0.7224 0.1633,1.0831z" fill="#20350f"/><path d="M244.31618,163.23657c0.40895,0.20262 0.20302,0.58846 0.2663,0.89385c0.04356,0.21022 0.08242,0.42142 0.12406,0.63204c0.24424,1.23544 0.38324,1.32122 1.57448,0.97245c0.47756,0.33383 0.45203,0.87599 0.54839,1.36011c0.07475,0.37551 0.01088,0.78312 0.3767,1.06626c0.09195,0.07117 0.09834,0.25329 0.14287,0.38481c0.20412,0.60277 0.08424,1.30872 0.64069,1.80783c0.14702,0.13187 0.20222,0.45041 0.17913,0.67063c-0.0618,0.58939 0.05014,1.13574 0.26982,1.67154c0.05405,0.12865 0.06505,0.27132 0.03138,0.40673c-0.11284,0.48654 -0.0398,0.95494 0.02098,1.45065c0.08331,0.67953 -0.01751,1.41067 -0.54361,1.9721c-0.33117,-0.02721 -0.27886,-0.28404 -0.25774,-0.48026c0.04882,-0.48845 0.05798,-0.98006 0.0274,-1.46999c-0.04428,-0.84077 -0.20049,-1.64142 -0.36461,-2.45172c-0.06425,-0.31725 0.00622,-0.59176 0.24946,-0.81973c-0.51481,-0.20795 -0.96322,-1.08643 -0.86181,-1.77054c0.04039,-0.27248 0.03163,-0.44776 -0.20979,-0.59774c-0.09934,-0.07073 -0.16756,-0.17706 -0.19047,-0.29683c-0.1519,-0.72675 -0.65642,-1.09545 -1.31198,-1.31761c-0.23058,-0.40839 -0.52229,-0.78211 -0.37043,-1.31991c0.0712,-0.25214 -0.23391,-0.42654 -0.34796,-0.64814c-0.09772,-0.18988 -0.22562,-0.36427 -0.34017,-0.54551c-0.28203,-0.35723 -0.02631,-0.68197 0.05997,-1.01722c0.05514,-0.20537 -0.00963,-0.47358 0.28695,-0.55381z" fill="#301e16"/><path d="M245.02781,167.32117c0.76687,0.01851 1.07803,0.23755 1.32018,0.92931c0.23502,0.67142 0.23502,0.67142 0.80428,0.77299c-0.47294,0.42081 -0.26869,0.88789 -0.13931,1.34898c0.13055,0.46532 0.29115,0.89543 1.01267,0.65667c-0.63595,0.42243 -0.59351,0.96988 -0.46054,1.53989c0.00895,0.03839 -0.00384,0.09675 0.01859,0.11494c0.62883,0.5099 0.1311,1.15746 0.21423,1.73287c0.03109,0.21515 -0.09242,0.48365 0.28421,0.54596c0.22103,0.03657 0.03286,0.1588 -0.00255,0.24861c-0.16747,0.42481 -0.43391,0.84171 -0.13213,1.31416c-0.40798,0.26491 -0.71235,0.16325 -0.83729,-0.2956c-0.15119,-0.55527 -0.49816,-1.22306 -0.32069,-1.66664c0.34634,-0.86567 -0.351,-1.55319 -0.14919,-2.37974c0.09159,-0.37513 -0.32349,-0.86766 -0.48884,-1.31429c-0.06937,-0.18739 -0.23408,-0.39547 0.02489,-0.5867c0.09032,-0.0667 0.06966,-0.17898 0.00742,-0.2691c-0.56637,-0.81999 -0.53366,-1.89645 -1.15592,-2.69232z" fill="#653823"/><path d="M244.31618,163.23657c-0.1682,0.17711 -0.07489,0.40047 -0.10667,0.60171c-0.23252,0.14728 -0.29815,0.39527 -0.39891,0.62919c-0.20138,0.46747 -0.41983,0.92937 -0.91066,1.17658c-0.37977,0.13319 -0.73012,-0.01551 -1.08581,-0.11307c0.61352,-0.39626 0.64392,-0.47185 0.49219,-1.24983c-0.0376,-0.19275 -0.05752,-0.38918 -0.1196,-0.57741c-0.07545,-0.37181 0.02956,-0.65456 0.37448,-0.85217c0.30282,-0.17349 0.40683,-0.47478 0.24038,-0.76652c-0.41955,-0.73535 -0.35648,-1.51973 -0.31291,-2.3085c0.01181,-0.21814 0.0106,-0.4368 -0.00364,-0.6548c0.02727,-0.34215 -0.08732,-0.70938 0.17862,-1.00859c0.03905,-0.00083 0.07811,-0.00136 0.11718,-0.00159c0.12647,0.01899 0.20975,0.10019 0.28061,0.19727c0.23765,0.3256 0.2175,0.74332 0.59748,1.07215c0.2796,0.24196 0.47139,0.7769 0.70527,1.18013c0.17673,0.30469 0.11132,0.65059 0.14044,0.98119c-0.02046,0.29589 0.06716,0.61174 -0.16256,0.86744z" fill="#5c7324"/><path d="M245.52729,151.55132c0.0622,0.10292 0.13639,0.23387 0.2666,0.19069c0.26584,-0.08815 0.50186,-0.02447 0.61692,0.1955c0.12512,0.23919 -0.0693,0.50304 -0.22239,0.62776c-0.84491,0.68831 -1.50037,1.55651 -2.27696,2.30621c-0.20476,0.19767 -0.51107,0.55658 -0.7753,0.01292c0.00118,-0.0372 0.00017,-0.07443 -0.00303,-0.11151c-0.04307,-0.38848 0.36352,-0.72631 0.12637,-1.13645c-0.35496,-1.08603 -0.45043,-2.24474 -0.93456,-3.29415c-0.04943,-0.10715 -0.07702,-0.22521 -0.00913,-0.3405c0.58983,-0.69971 1.37995,-0.56182 2.14885,-0.51267c-0.32757,1.18601 -0.24683,2.427 -0.51243,3.62264c0.29487,-0.52926 0.70851,-0.95167 1.09435,-1.39631c0.1351,-0.12872 0.27233,-0.25137 0.48072,-0.16414z" fill="#7b942d"/><path d="M242.65529,159.18271c0.01734,0.60506 -0.07939,1.20681 -0.00673,1.81674c0.04239,0.35584 0.01821,0.68685 0.3243,0.96867c0.23478,0.21617 0.07256,0.94133 -0.23403,1.00225c-0.49711,0.09877 -0.44053,0.42215 -0.43465,0.75876c0.11165,0.30821 0.05293,0.62357 0.03141,0.93551c-0.01084,0.15718 -0.04074,0.33515 -0.20912,0.40044c-0.19396,0.0752 -0.35133,-0.04714 -0.47262,-0.17753c-0.32298,-0.34718 -0.67506,-0.68336 -0.69467,-1.20572c-0.00571,-0.15212 -0.05462,-0.26966 -0.209,-0.3224c-0.12036,-0.56681 -0.13545,-1.14076 -0.1329,-1.71777c0.00082,-0.18468 0.10556,-0.39848 -0.0933,-0.55365c0.16984,-0.31282 0.10684,-0.64118 0.00679,-0.9993c-0.21887,0.45442 -0.43775,0.90884 -0.65662,1.36325c0.08002,-0.91394 0.20471,-1.80989 0.86372,-2.52112c0.26541,0.28158 0.14269,0.633 0.16034,0.95444c0.01904,0.34672 0.15776,0.47664 0.48499,0.33525c0.42423,-0.18331 0.92038,-0.28508 1.0106,-0.8684c0.00647,-0.0601 0.03969,-0.11409 0.09042,-0.14696c0.05073,-0.03287 0.11358,-0.04113 0.17107,-0.02248z" fill="#6a8228"/><path d="M249.36363,162.42657c0.10464,-0.38793 -0.38603,-0.74617 -0.04499,-1.1651c0.0692,-0.08501 -0.129,-0.16895 -0.25106,-0.15331c-0.21077,0.027 -0.32544,0.15153 -0.28183,0.36901c0.0483,0.24086 0.21569,0.45728 0.17782,0.74079c-0.26694,-0.09843 -0.20365,-0.34703 -0.3013,-0.50602c-0.05958,-0.097 -0.05951,-0.25075 -0.21908,-0.22859c-0.19751,0.02743 -0.14639,0.20123 -0.16396,0.33068c-0.27462,-0.26187 -0.28183,-0.32651 -0.07187,-0.64455c0.48487,-0.73446 0.47019,-0.71363 -0.2958,-1.15536c-0.59121,-0.34094 -0.64409,-0.97414 -0.62006,-1.56303c0.01091,-0.26742 -0.09851,-0.28434 -0.25849,-0.3429c-0.23319,-0.31087 -0.41981,-0.63755 -0.36225,-1.04843c0.1695,-0.19861 0.38611,-0.35154 0.63,-0.4448c0.45445,0.04124 0.67164,0.39847 0.93291,0.69776c0.20507,0.2883 0.56405,0.48952 0.52535,0.91707c-0.4965,0.28025 -0.52469,0.44674 -0.02383,0.64987c0.30973,0.12561 0.41943,0.32433 0.51006,0.57502c0.33478,0.92603 0.62753,1.86248 0.57556,2.86679c-0.04264,-0.14701 -0.08526,-0.29401 -0.13203,-0.45535c-0.24283,0.11513 -0.14148,0.42317 -0.32514,0.56045z" fill="#364f1a"/><path d="M236.34474,154.63094c-0.11671,-0.10046 -0.23409,-0.03496 -0.32813,0.02368c-0.55499,0.34609 -1.09875,0.71032 -1.65738,1.05026c-0.20668,0.12576 -0.20453,0.37539 -0.36833,0.52368c-0.18346,-1.1529 1.98047,-3.55539 3.64848,-4.05925c0.32678,0.78361 0.00112,1.45797 -0.35575,2.12764c-0.27291,0.22222 -0.55731,0.41486 -0.93888,0.33399z" fill="#809931"/><path d="M239.31798,152.27472c-0.14717,-0.20678 -0.55884,0.01283 -0.59709,-0.36953c-0.0217,-0.33544 0.33382,-0.32747 0.50093,-0.4855c-0.1767,-0.23215 -0.48592,-0.14943 -0.62248,-0.36952c0.72331,-0.41532 1.33293,-1.03419 2.18973,-1.2114c0.22961,-0.04749 0.45445,-0.12864 0.67735,0.01524c-0.13005,0.34778 0.36305,0.44541 0.30783,0.76372c-0.0604,0.29483 -0.29247,0.46722 -0.49365,0.64932c-0.45324,0.41026 -0.81126,0.9083 -1.25649,1.32538c-0.30712,0.0532 -0.53253,-0.07495 -0.70613,-0.31771z" fill="#7b942e"/><path d="M237.15864,154.28052c0.36256,-0.65779 0.48859,-1.36931 0.48077,-2.11123c0.11407,-0.05428 0.22814,-0.10853 0.34221,-0.16275c-0.08775,0.34495 0.18168,0.3453 0.38329,0.36835c0.57956,0.06626 0.86943,0.28687 0.60182,0.91681c-0.17031,0.40091 0.02768,0.91812 -0.38052,1.25144c-0.53588,0.23796 -0.99489,0.05905 -1.42758,-0.26262z" fill="#6d8529"/><path d="M245.15657,151.76826c-0.3916,0.60988 -0.99479,1.05439 -1.37928,1.69975c0.14667,-1.23163 0.29588,-2.46296 0.43701,-3.69522c0.00393,-0.14268 0.10943,-0.26209 0.25054,-0.28358c0.16156,0.08306 0.32324,0.16617 0.48505,0.24935c-0.12902,0.41183 -0.18382,0.7815 0.20985,1.12752c0.28516,0.25064 -0.00783,0.59761 -0.00317,0.90219z" fill="#4d631d"/><path d="M248.86264,153.57717c-0.3067,-0.20241 -0.65703,-0.14575 -0.9796,-0.11232c-0.84019,0.08708 -0.83595,-0.64783 -1.08358,-1.09985c-0.222,-0.40523 0.18835,-0.57863 0.4465,-0.77081c0.12622,-0.09396 0.27642,-0.15436 0.32518,-0.32279c0.1005,0.01415 0.20432,0.02152 0.26142,0.12566c-0.036,0.06363 -0.11838,0.16352 -0.10107,0.18566c0.4339,0.55491 0.60748,1.27983 1.15133,1.76134c0.03864,0.02239 0.05102,0.04384 0.03714,0.06434c-0.01344,0.01997 -0.02689,0.03002 -0.04055,0.03002z" fill="#526920"/><path d="M241.70515,150.58702c-0.14148,-0.16483 -0.28745,-0.32607 -0.42349,-0.49527c-0.26375,-0.32805 0.1545,-0.13376 0.18496,-0.2377c0.28279,0.0492 0.56578,0.09844 0.84898,0.14772c0.65101,1.14554 0.75608,2.44957 1.07489,3.69151c0.04928,0.09523 0.07273,0.2005 -0.05605,0.23439c-0.1085,0.02855 -0.19224,-0.06534 -0.23191,-0.15183c-0.48388,-1.05497 -1.19244,-2.01211 -1.39737,-3.18881z" fill="#304a16"/><path d="M237.74919,162.0509c-0.02924,0.32211 0.20783,0.4877 0.39586,0.68729c0.31075,0.32984 0.46472,0.7604 0.71839,1.186c0.29512,-0.35965 0.28622,-0.8338 0.57643,-1.14836c-0.04014,0.31257 -0.09709,0.62403 -0.11651,0.9378c-0.03061,0.49456 -0.4723,0.64095 -0.78373,0.78861c-0.23316,0.11056 -0.523,-0.21622 -0.69911,-0.45391c-0.25727,-0.34726 -0.51685,-0.70083 -0.58089,-1.14907c-0.10965,-0.44006 0.36549,-0.5431 0.48956,-0.84836z" fill="#627827"/><path d="M237.15864,154.28052c0.47589,0.08747 0.95176,0.17498 1.42762,0.26252c0.13216,0.07876 0.26925,0.15056 0.39433,0.23924c0.05482,0.03887 0.08514,0.1122 0.12659,0.16988c-0.09209,0.02045 -0.18418,0.04089 -0.27628,0.06134c-0.55453,0.13983 -1.12794,0.13376 -1.68965,0.2181c-0.29918,0.09485 -0.61276,0.1571 -0.8713,0.34898c-0.14953,0.11098 -0.14168,-0.04092 -0.19087,-0.10079c-0.05005,-0.32602 0.21914,-0.55237 0.2656,-0.84858c0.27135,-0.11709 0.54267,-0.23399 0.81395,-0.35069z" fill="#192b0a"/><path d="M245.15657,151.76826c-0.14885,-0.1263 -0.12378,-0.28635 -0.05484,-0.42965c0.11944,-0.24826 0.01863,-0.41767 -0.17112,-0.55788c-0.48618,-0.35924 -0.32133,-0.70108 0.01931,-1.04217c0.11145,0.03468 0.221,0.07521 0.32819,0.12141c0.29924,0.14631 0.70049,0.23261 0.85658,0.47451c0.11815,0.18311 -0.07859,0.56892 -0.13519,0.86472c-0.15739,0.11746 -0.31479,0.23481 -0.4722,0.35205c-0.12359,0.07238 -0.24717,0.14471 -0.37073,0.21701z" fill="#354c1a"/><path d="M240.75017,163.35944c0.19818,-0.12633 0.39676,-0.2616 0.35599,0.15803c-0.06205,0.63868 0.41672,0.98182 0.77834,1.38169c0.15632,0.17285 0.27133,0.11372 0.29631,-0.12033c0.0374,-0.35033 0.08185,-0.69992 0.12332,-1.04976c0.17803,0.31252 0.18484,0.66375 0.23574,1.00664c0.08457,0.56979 -0.11001,0.87078 -0.72594,0.79523c-0.76861,-0.1613 -0.90583,-0.78249 -1.01404,-1.41206c-0.04273,-0.24866 -0.03467,-0.50604 -0.04974,-0.75945z" fill="#334919"/><path d="M238.59933,151.05016c0.11727,0.01265 0.24206,0.00416 0.35016,0.04255c0.19551,0.06944 0.51533,0.05148 0.52746,0.29652c0.01315,0.26547 -0.29715,0.23046 -0.49179,0.29579c-0.10136,0.03402 -0.17706,0.14429 -0.26431,0.22014c-0.24134,0.14787 -0.48287,0.14196 -0.72451,0.00078c-0.25644,-0.27289 -0.35715,-0.5069 0.1281,-0.64107c0.16546,-0.04575 0.317,-0.1417 0.4749,-0.21471z" fill="#26380a"/><path d="M242.89993,165.64405c0.37195,-0.41024 0.64369,-0.88182 0.86666,-1.38605c0.08643,-0.19546 0.17743,-0.40449 0.44297,-0.41968c-0.16716,0.30157 -0.28046,0.61649 -0.24028,0.96932c-0.40381,0.2184 -0.45378,0.88812 -1.06935,0.83641z" fill="#33461a"/><path d="M237.14125,155.23161c0.54417,-0.22003 1.09069,-0.42191 1.68968,-0.21816c0.20587,0.51733 0.42552,1.02641 0.06349,1.57649c-0.10978,0.1668 0.08589,0.27849 0.18738,0.38865c0.278,0.30179 0.56149,0.59853 0.84292,0.8973c-0.32195,0.59799 -0.64397,1.19596 -0.96606,1.79393c-0.08714,-0.34175 -0.23057,-0.66592 -0.33889,-0.99724c-0.2725,-0.8335 -0.61959,-1.68951 0.06605,-2.52048c0.23964,-0.29044 -0.15552,-0.38409 -0.25093,-0.36765c-0.45656,0.07865 -0.72938,-0.11414 -0.95787,-0.47502c-0.04371,-0.06903 -0.22042,-0.05405 -0.33577,-0.07782z" fill="#687e27"/><path d="M248.75902,158.22979c-0.20028,-0.27537 -0.40057,-0.55074 -0.60085,-0.82612c-0.04235,-0.36134 0.18192,-0.63787 0.32376,-0.93114c0.17726,-0.36652 0.19412,-0.63024 -0.25151,-0.77702c-0.09502,-0.03369 -0.16567,-0.11438 -0.18652,-0.21302c0.22171,-0.25478 0.43878,-0.02168 0.62807,0.03897c0.31623,0.10132 0.32104,-0.06557 0.32747,-0.27739c0.01087,0.62097 0.25948,1.17514 0.45349,1.75114c0.13107,0.38912 -0.35593,1.14583 -0.6939,1.23458z" fill="#48601e"/><path d="M248.8794,153.43841c0.00159,-0.03147 0.00275,-0.06294 0.00347,-0.09441c0.36221,-0.00806 0.74877,-0.0724 0.97878,0.50209z" fill="#bfc1bd"/><path d="M247.08604,158.10964c0.1206,-0.01961 0.14203,-0.30182 0.32076,-0.13766c0.09712,0.08919 0.19001,0.23431 0.08101,0.36925c-0.31165,0.38581 0.06624,0.70499 0.10206,1.05381c0.04119,0.40121 0.32157,0.54246 0.7496,0.5732c0.36214,0.02601 0.45732,0.75249 0.18255,1.06844c-0.1922,0.22102 -0.5586,0.39522 -0.24279,0.77735c0.04434,0.39033 0.09016,0.78049 0.1323,1.17106c0.01637,0.15175 0.22831,0.38668 -0.03947,0.42889c-0.20052,0.03161 -0.49515,-0.08612 -0.54845,-0.35489c-0.04324,-0.21805 -0.13289,-0.40024 -0.21746,-0.59845c-0.17279,-0.40499 -0.327,-0.74634 -0.87833,-0.66078c-0.30032,0.04661 -0.27702,-0.34915 -0.47822,-0.4665c-0.46357,-0.39586 -0.55268,-0.952 -0.6469,-1.50604c0.29478,-0.37566 0.65062,-0.69513 1.01824,-0.99209c0.23601,-0.17921 0.40081,-0.43631 0.46509,-0.72559z" fill="#4c631f"/><path d="M245.64549,159.78579c0.20136,0.51587 0.40273,1.03174 0.6041,1.54759c-0.36574,0.70112 -0.27381,1.39373 0.16709,2.21125c-0.67789,-0.4069 -1.1746,-0.80781 -1.83941,-0.81985c-0.08032,-0.00145 -0.15698,-0.20511 -0.23527,-0.31505c-0.00052,-0.31615 -0.00107,-0.63232 -0.00166,-0.94848c0.01952,-0.93931 0.0337,-1.87883 -0.26889,-2.7862c-0.08893,-0.26666 -0.18722,-0.52598 -0.00388,-0.79031c0.57427,-0.17012 0.70811,0.39658 1.04581,0.623c0.27224,0.38001 0.45422,0.81711 0.53211,1.27804z" fill="#142408"/><path d="M241.70515,150.58702c0.48279,1.00766 0.96343,2.01637 1.45755,3.01845c0.01692,0.03431 0.01971,0.4261 0.22771,0.08777c0.29955,0.45145 -0.06344,0.74538 -0.25722,1.07959c-0.23422,-0.04339 -0.46841,-0.08682 -0.70255,-0.13027c-0.20089,0.01433 -0.33082,-0.12365 -0.45641,-0.23886c-0.59255,-0.54362 -1.19523,-1.07565 -1.79951,-1.60606c-0.08595,-0.07544 -0.18571,-0.15229 -0.15257,-0.29342c0.4033,-0.77719 1.18642,-1.22171 1.68299,-1.91721z" fill="#698026"/><path d="M240.02215,152.50422c0.80276,0.71281 1.60556,1.4256 2.40839,2.13838c-0.23369,0.25634 -0.36003,-0.04144 -0.48577,-0.12511c-0.8183,-0.54456 -1.61906,-1.1154 -2.42622,-1.6767c-0.2037,-0.14166 -0.40634,-0.28112 -0.2006,-0.56619c0.26522,-0.01666 0.42668,0.28413 0.7042,0.22962z" fill="#253f12"/><path d="M245.0431,158.59626c-0.27435,-0.24588 -0.54871,-0.49175 -0.82307,-0.73763c-0.63051,-0.08244 -1.00278,-0.53095 -0.97187,-1.17089c0.00001,-0.19641 0.16326,-0.31009 0.23604,-0.46893c0.04549,-0.09928 0.15714,-0.20194 0.05134,-0.32135c-0.09236,-0.10424 -0.40407,-0.06628 -0.2964,-0.27268c0.15486,-0.29682 0.32698,0.10548 0.48826,0.05955c0.24038,-0.06846 0.50615,-0.05031 0.71491,-0.24432c0.74347,-0.69093 1.62768,-1.1746 2.48994,-1.69643c0.40433,-0.2447 0.50756,-0.02388 0.58081,0.25147c0.06101,0.24982 0.07505,0.50881 0.04139,0.76376c-0.0483,0.40294 0.08769,0.64309 0.4894,0.7237c0.1463,0.05516 0.2924,0.11075 0.43886,0.16542c0.30532,0.11398 0.45521,0.27015 0.25304,0.6146c-0.21538,0.36694 -0.38689,0.75957 -0.57758,1.14107c-0.25573,-0.26753 -0.48046,-0.57048 -0.83256,-0.72816c-0.40009,-0.24915 -0.85056,-0.40627 -1.31882,-0.45997c0.24001,0.23641 0.59347,0.4108 0.65563,0.81971c-0.48983,0.57216 -0.91287,1.21331 -1.61934,1.56108z" fill="#7b942d"/><path d="M242.65529,159.18271c-0.1486,0.79104 -0.76098,1.05023 -1.42844,1.25972c-0.32791,0.10292 -0.48687,0.03263 -0.47907,-0.33475c0.00832,-0.39196 -0.00558,-0.78439 -0.00985,-1.17671c0.07819,-0.40747 -0.1609,-0.90772 0.34856,-1.1889c0.30461,0.05682 0.57116,-0.08192 0.84883,-0.16476c0.68602,-0.20467 0.70978,-0.18687 0.72829,0.53584c-0.00275,0.35654 -0.00553,0.71306 -0.00832,1.06957z" fill="#7b942e"/><path d="M243.24817,156.68775c0.1791,0.51029 0.4361,0.95607 0.97187,1.17096c-0.24328,0.25879 -0.09696,0.51149 0.01101,0.76577c0.39558,0.93162 0.25905,1.88396 0.10924,2.83673c0.14619,-0.61429 -0.21542,-1.07204 -0.56001,-1.47173c-0.21046,-0.24411 -0.23481,-0.44978 -0.18424,-0.69432c-0.2374,-0.14475 -0.2317,0.2181 -0.44094,0.12815c0.00555,-0.46328 -0.0589,-0.92548 -0.37428,-1.31174c-0.00052,-0.40697 -0.00541,-0.81401 0.001,-1.22087c0.00204,-0.12889 -0.06133,-0.29773 0.07594,-0.37601c0.1799,-0.10259 0.25251,0.12787 0.39042,0.17306z" fill="#445a1c"/><path d="M245.0431,158.59626c0.53288,-0.509 0.96539,-1.11836 1.56448,-1.56116c0.01439,-0.01691 0.03558,-0.02653 0.05778,-0.02622c0.02221,0.00031 0.04312,0.01051 0.05703,0.02782c0.1212,0.35766 0.24241,0.71531 0.36362,1.07295c0.06439,0.15892 0.20765,0.36379 0.02847,0.47872c-0.53736,0.34465 -0.84425,0.96615 -1.46898,1.19741c-0.29019,-0.35134 -0.37572,-0.80609 -0.60241,-1.18952z" fill="#667d27"/><path d="M246.7224,157.03671c-0.0383,0.00027 -0.07657,-0.00026 -0.11483,-0.00159c-0.21581,-0.3593 -0.57388,-0.58807 -0.90109,-0.9632c0.64505,0.06749 1.25637,-0.01616 1.61913,0.60355c-0.1717,0.16931 -0.33186,0.35787 -0.6032,0.36124z" fill="#4e6620"/></g></g></g></svg>