<svg version="1.1" xmlns="http://www.w3.org/2000/svg" xmlns:xlink="http://www.w3.org/1999/xlink" width="321.70666" height="51.05527" viewBox="0,0,321.70666,51.05527"><g transform="translate(-150.95,-260.2662)"><g data-paper-data="{&quot;isPaintingLayer&quot;:true}" fill="#ffffff" fill-rule="nonzero" stroke="none" stroke-width="0" stroke-linecap="butt" stroke-linejoin="miter" stroke-miterlimit="10" stroke-dasharray="" stroke-dashoffset="0" style="mix-blend-mode: normal"><g><path d="M150.96834,302.74867c0,-4.66559 3.75103,-8.44779 8.37816,-8.44779c4.62714,0 8.37817,3.7822 8.37817,8.44779c0,4.66559 -3.75103,8.44779 -8.37817,8.44779c-4.62714,0 -8.37816,-3.78221 -8.37816,-8.44779z"/><path d="M150.96834,302.81838v-8.55218h16.77366v8.55218z"/><path d="M159.14979,311.19647v-12.25394h8.5786v12.25394z"/></g><path d="M164.9375,311.29646v-51h293.25v51z"/><g data-paper-data="{&quot;index&quot;:null}"><path d="M159.34651,260.2662c4.62714,0 8.37817,3.78221 8.37817,8.44779c0,4.66559 -3.75103,8.44779 -8.37817,8.44779c-4.62714,0 -8.37816,-3.7822 -8.37816,-8.44779c0,-4.66559 3.75103,-8.44779 8.37816,-8.44779z"/><path d="M167.742,268.64429v8.55218h-16.77366v-8.55218z"/><path d="M167.72839,260.2662v12.25394h-8.5786v-12.25394z"/></g><path d="M150.95,295.54646v-20.25h18.95v20.25z"/><g data-paper-data="{&quot;index&quot;:null}"><path d="M464.2785,311.32147c-4.62714,0 -8.37817,-3.78221 -8.37817,-8.44779c0,-4.66559 3.75104,-8.44779 8.37817,-8.44779c4.62714,0 8.37816,3.7822 8.37816,8.44779c0,4.66559 -3.75103,8.44779 -8.37816,8.44779z"/><path d="M455.883,302.94338v-8.55218h16.77366v8.55218z"/><path d="M455.89661,311.32147v-12.25394h8.5786v12.25394z"/></g><g data-paper-data="{&quot;index&quot;:null}"><path d="M472.65666,268.83899c0,4.66559 -3.75103,8.44779 -8.37816,8.44779c-4.62714,0 -8.37817,-3.7822 -8.37817,-8.44779c0,-4.66559 3.75104,-8.44779 8.37817,-8.44779c4.62714,0 8.37816,3.78221 8.37816,8.44779z"/><path d="M472.65666,268.76929v8.55218h-16.77366v-8.55218z"/><path d="M464.47522,260.3912v12.25394h-8.5786v-12.25394z"/></g><path d="M454.25,295.29646v-20.25h18v20.25z" data-paper-data="{&quot;index&quot;:null}"/></g></g></svg>