<svg version="1.1" xmlns="http://www.w3.org/2000/svg" xmlns:xlink="http://www.w3.org/1999/xlink" width="65.39091" height="72.52013" viewBox="0,0,65.39091,72.52013"><g transform="translate(-210.18863,-133.53947)"><g data-paper-data="{&quot;isPaintingLayer&quot;:true}" fill-rule="nonzero" stroke="none" stroke-linecap="butt" stroke-linejoin="miter" stroke-miterlimit="10" stroke-dasharray="" stroke-dashoffset="0" style="mix-blend-mode: normal"><g><path d="M257.48266,183.70856v0c-0.16123,-0.81773 0.32235,-1.47187 1.28939,-2.12612c0.16111,-0.16348 0.48347,-0.32707 0.80581,-0.49054c0.32234,-0.16359 0.48358,-0.81773 0.96705,-0.65426c0.48357,0.16359 0.16123,0.81773 0.16123,1.30839c0,1.1448 -0.16123,1.96253 -1.28939,2.45319c-0.48357,0.16348 -0.80593,0.49066 -1.12827,0.81773c-0.32234,0.16348 -0.32235,0.32707 -0.6447,0.32707c-0.32234,-0.16359 0,-0.49066 0,-0.65414c-0.16111,-0.32718 -0.16112,-0.49066 -0.16112,-0.98132z" fill="#6c6c6c" stroke-width="0.14441"/><path d="M210.642,152.1946v0c0,-0.291 0.2867,-0.4364 0.43,-0.5819c8.6011,-5.9638 17.2021,-11.7821 25.6598,-17.746c0.5734,-0.4363 1.0035,-0.4363 1.5769,0c9.6045,6.8366 19.0657,13.8186 28.6702,20.8007c1.2901,0.7273 2.4369,1.6 3.7271,2.4728c0.2867,0.2909 0.7167,0.4363 0.8601,0.7273c-0.2867,0.4363 -0.5734,0.5818 -1.0035,0.8727c-2.0069,1.4546 -4.0138,2.9092 -6.0207,4.3638c-0.7168,0.4364 -0.4301,0.7273 0,1.0182c0.8601,0.5818 1.7202,1.3091 2.5803,1.891c0.4301,0.2909 0.4301,0.4363 0,0.5818c-2.2936,1.7455 -4.7306,3.491 -7.1675,5.2365c-1.1468,0.7273 -2.1503,1.7455 -3.4404,2.3274c-0.2868,0 -0.4301,-0.1455 -0.5735,-0.291c-1.0034,-0.7273 -1.8635,-1.6 -3.1537,-2.0364c-1.4335,0.5819 -2.5803,1.6001 -3.8704,2.6183c-1.4336,0.8727 -2.8671,1.8909 -4.1572,2.9092c-1.1468,-0.8728 -2.1503,-1.7456 -3.2971,-2.4728c-1.1468,-0.7273 -2.1502,-1.7456 -3.4404,-2.3274c-0.8601,-0.8727 -2.0069,-1.6 -3.1537,-2.4728c-0.7168,-0.5818 -1.4335,-1.1637 -2.2936,-1.6c-0.1434,-0.291 -0.5734,-0.5819 -0.7168,-0.7273c-5.1606,-3.9274 -10.4646,-7.7094 -15.6252,-11.4913c-1.8636,-1.4546 -3.7272,-2.7637 -5.5907,-4.0728z" fill="#84807f" stroke-width="0.14441"/><path d="M210.642,152.1946v0c1.8635,1.3091 3.7271,2.6182 5.5907,4.0728c5.1606,3.7819 10.4646,7.5639 15.6252,11.4913c0.1434,0.1454 0.5734,0.4363 0.7168,0.7273c0,1.0182 0,2.0364 0,3.0546c0,1.0182 0,1.891 0,2.9092c0,0.8727 0,1.8909 0.1433,2.7637c-0.1433,0.8728 -0.1433,1.7455 0,2.7637c0,0.8728 0,1.891 0,2.7637c0,0.8728 0,1.891 0,2.7638c0,0.8727 0,1.7455 0,2.6182c0,1.0182 0,1.891 0.1434,3.0547c0,0.7272 0,1.4545 0,2.1818c0,0.1455 -0.1434,0.1455 -0.1434,0.1455c-1.1468,-0.5818 -2.2936,-1.6001 -3.2971,-2.3273c-5.734,-4.2184 -11.3247,-8.5821 -16.9154,-12.8004c-1.4335,-1.0182 -1.2901,-2.1819 -1.4335,-3.3456c-0.1433,-0.1454 0,-0.2909 0,-0.2909c-0.1433,-3.2001 -0.1433,-6.5457 -0.2867,-9.7458c-0.1433,-2.0364 0.1434,-4.0728 -0.1433,-6.2547c-0.2867,-2.0364 0.1433,-4.2183 -0.2867,-6.4002c0,0 0.1433,-0.1454 0.2867,-0.1454zM222.8268,166.0132v0c-0.2867,-0.5819 0.1434,-1.3092 -0.43,-1.891c-0.5734,-0.7273 -1.2902,-1.0182 -2.007,-1.6001c-0.1433,-0.1454 -0.43,-0.2909 -0.43,0.1455c0,1.1637 -0.2867,2.4728 1.1468,3.0546c0.2867,0.291 0.7168,0.5819 1.0035,0.8728c0.1433,0 0.2867,0.2909 0.5734,0.1455c0.1433,-0.1455 0,-0.4364 0.1433,-0.7273zM225.5505,166.3041v0c-0.2867,1.7455 -0.1434,3.2001 1.4335,3.7819c0.43,0.2909 0.5734,0.8728 1.0034,0.5818c0.2867,-0.1454 0.1434,-0.7272 0.1434,-1.1636c-0.1434,-0.4364 0.1433,-1.0182 -0.2867,-1.4546c-0.5734,-0.5819 -1.4335,-1.1637 -2.2936,-1.7455zM225.6938,171.8315v0c-0.43,2.0364 -0.2867,2.6183 0.8601,3.491c0.4301,0.2909 1.0035,1.0182 1.4335,0.8728c0.4301,-0.1455 0.1434,-1.1637 0.1434,-1.7455c0,-0.2909 0.1433,-0.7273 -0.2867,-1.0182c-0.7168,-0.4364 -1.4335,-1.0182 -2.1503,-1.6001zM214.7992,159.1766v0c0,0.5818 0.1433,0.8727 0.1433,1.3091c0,0.4364 0,0.7273 0.2867,0.8728c0.7168,0.4364 1.2902,0.8727 1.8636,1.4546c0,0 0.2867,0.1454 0.43,0c0.1434,0 0,-0.1455 0,-0.291c0,-1.4545 -0.1433,-2.7637 -1.5768,-3.3455c-0.2867,-0.1455 -0.2867,-0.1455 -0.4301,-0.2909c-0.1433,-0.1455 -0.43,-0.4364 -0.5734,-0.2909c-0.2867,0.1454 0,0.4363 -0.1433,0.5818zM217.5228,168.6314v0c0,-0.4364 0,-0.5818 0,-0.7273c0.2867,-1.4546 -0.1433,-2.4728 -1.4335,-3.2001c-0.43,-0.1454 -0.7167,-0.7273 -1.0034,-0.5818c-0.2867,0.2909 -0.1434,0.8727 -0.1434,1.3091c0,0.4364 -0.1433,1.0182 0.2867,1.4546c0.7168,0.5818 1.5769,1.0182 2.2936,1.7455zM222.8268,170.9588v0c-0.1433,-0.291 0.2867,-1.0182 -0.2867,-1.4546c-0.7167,-0.4364 -1.2902,-0.8728 -2.0069,-1.3092c-0.2867,-0.2909 -0.4301,-0.2909 -0.4301,0.1455c-0.1433,1.3091 -0.1433,2.6183 1.4335,3.2001c0,0 0,0 0.1434,0.1455c0.2867,0.1454 0.7168,0.7273 1.0035,0.5818c0.2867,-0.2909 0,-0.7273 0.1433,-1.3091zM228.2741,182.0136v0c0.2867,-2.3273 0.1434,-2.6182 -1.2901,-3.6364c-0.4301,-0.2909 -0.8601,-0.8728 -1.2902,-0.7273c-0.2867,0.1454 0,0.8727 0,1.4546c0,0.4363 -0.2867,0.8727 0.1434,1.1636c0.8601,0.5819 1.5768,1.0182 2.4369,1.7455zM215.0859,169.5042v0c0,0.8727 0,1.6 0,2.3273c0,0.1455 0,0.2909 0.2867,0.4364c0.5734,0.5818 1.2901,1.1637 2.0069,1.6c0,0.1455 0.1433,0.1455 0.2867,0c0.1433,-0.1454 0.1433,-2.3273 -0.1434,-2.6182c-0.7167,-0.5819 -1.5768,-1.1637 -2.4369,-1.7455zM222.9702,178.0863v0c0,-0.4364 0,-0.5819 0,-0.8728c0.2867,-1.3091 -0.2867,-2.4728 -1.5769,-3.0546c-0.2867,-0.1455 -0.5734,-0.7273 -1.0035,-0.4364c-0.43,0 -0.1433,0.7273 -0.1433,1.0182c0,0.5818 -0.1434,1.1637 0.2867,1.6c0.7167,0.4364 1.5769,1.0183 2.437,1.7456zM225.6938,184.1955v0c-0.2867,1.0182 0.1434,1.4546 1.0035,2.0365c0.2867,0.2909 0.7167,0.5818 1.0034,0.7272c0.2867,0.291 0.5734,0.291 0.5734,-0.1454c0.1434,-1.3091 0.1434,-2.4728 -1.2901,-3.0547c0,0 -0.1434,-0.1454 -0.2867,-0.1454c-0.2867,-0.1455 -0.5734,-0.7273 -0.8601,-0.5818c-0.4301,0.1454 -0.1434,0.7272 -0.1434,1.1636zM215.2292,174.8862v0c0,0.4363 0,0.7272 0,0.8727c-0.1433,1.3091 0.1434,2.3274 1.5769,2.9092c0.2867,0.1454 0.5734,0.7273 1.0034,0.7273c0.2867,-0.2909 0,-0.8728 0,-1.3091c0,-0.4364 0.2867,-1.0183 -0.1433,-1.4546c-0.7168,-0.4364 -1.4335,-1.0183 -2.437,-1.7455zM222.9702,182.0136v0c-0.1434,-0.5818 0.2867,-1.1636 -0.2867,-1.6c-0.7168,-0.4364 -1.2902,-0.8728 -1.8636,-1.3091c-0.2867,-0.291 -0.5734,-0.291 -0.5734,0.2909c0.1433,1.1637 0,2.4728 1.4335,3.0546c0.1434,0 0.1434,0 0.1434,0.1455c0.2867,0.1454 0.7167,0.7273 1.1468,0.5818c0.2867,-0.2909 0,-0.7273 0,-1.1637z" fill="#b2aba2" stroke-width="0.14441"/><path d="M256.5143,174.1589v0c1.2901,-0.5819 2.2936,-1.6001 3.4404,-2.3274c2.4369,-1.7455 4.8739,-3.491 7.1675,-5.2365c0.2867,0.7273 0.4301,1.3091 0.4301,2.1819c0,0.5818 0,1.1637 0,1.6c0,0.7273 0,1.4546 0,2.0365c-0.5734,0.5818 -0.1434,1.1636 -0.1434,1.7455c0,0.5818 0,1.1636 0.1434,1.7455c-0.2867,0.7273 -0.1434,1.3091 -0.2867,2.0364c0,0.5818 0,1.1637 0,1.6c0,0.7273 0,1.3092 0,2.0365c0,0.5818 0,1.3091 0,1.8909c0,0.5819 -0.1434,1.1637 -0.1434,1.6001c0,0.5818 0.1434,1.3091 0.1434,1.8909c0,0.5819 -0.2867,1.3092 0,1.891c-0.2867,0.5818 -0.1434,1.4546 -0.2867,2.0364c0,0.4364 0,0.7273 -0.4301,1.0182c-3.2971,2.3274 -6.4508,4.6547 -9.6045,7.1275c-0.2867,0.1455 -0.43,0.5819 -1.0035,0.291c0.2867,-0.5819 0.4301,-1.4546 0,-1.891c-0.2867,-0.5818 -0.2867,-1.0182 -0.2867,-1.6001c0.1434,-0.5818 0.2867,-1.1636 0.2867,-1.7455c0,-0.5818 0.4301,-1.1636 0.2867,-1.7455c-0.7167,-1.3091 -0.43,-2.6182 -0.1433,-3.9274c0.1433,-0.8727 0.1433,-1.6 -0.1434,-2.4728c-0.1433,-0.2909 -0.2867,-0.5818 -0.1433,-1.1636c0.1433,-0.8728 0.2867,-1.891 0.2867,-2.9092c0.1433,-0.8728 -0.1434,-1.6001 -0.8601,-2.1819c0,0 0,0 0,-0.1455c0,-0.1454 0.1433,-0.5818 -0.2867,-0.5818c0,-0.4364 0,-0.7273 0,-1.0182c0.1433,-0.7273 -0.2867,-1.3091 -0.8601,-1.6001c-0.4301,-0.2909 -0.7168,-0.4363 -1.0035,-0.8727c0,-0.2909 0,-0.7273 -0.2867,-0.7273c-0.2867,0 -0.5734,0.4364 -0.43,0.8727c0,0.1455 0,0.291 -0.1434,0.291c-0.2867,0 -0.43,0.1454 -0.5734,0.2909c-0.5734,0.5818 -1.0034,1.3091 -1.8635,1.891c-1.0035,0.7272 -1.7202,1.7455 -2.437,2.9091c-0.5734,0.8728 -1.2902,1.7455 -1.8636,2.7637c-0.1433,0.291 -0.43,0.291 -0.7167,0.291c-0.1434,-2.1819 0,-4.5093 0,-6.6911c1.2901,-1.0183 2.7236,-2.0365 4.1572,-2.9092c0.2867,0.2909 0.8601,0.5818 0.8601,1.0182c0.2867,0.7273 0.5734,0.4364 0.8601,0.1454c0.8601,-0.7272 2.1502,-1.1636 1.8635,-2.9091c0.4301,0.4363 0.7168,0.5818 0.8601,0.8727c0.1434,0.2909 0.1434,0.4364 0.4301,0.2909c0,0.1455 0,0.1455 0,0.1455c0,0.1455 0,0.1455 0.2867,0.2909c0.8601,1.3091 1.4335,2.6183 2.1502,3.9274c0.1434,0 0.1434,0 0.2868,0c0,-1.4546 0,-2.7637 0,-4.0728zM257.6611,183.1773v0c0,0.4364 0,0.5818 0.1433,0.8728c0,0.1454 -0.2867,0.4363 0,0.5818c0.2867,0 0.2867,-0.1455 0.5734,-0.2909c0.2867,-0.2909 0.5734,-0.5819 1.0035,-0.7273c1.0034,-0.4364 1.1468,-1.1637 1.1468,-2.1819c0,-0.4364 0.2867,-1.0182 -0.1434,-1.1637c-0.43,-0.1454 -0.5734,0.4364 -0.8601,0.5819c-0.2867,0.1454 -0.5734,0.2909 -0.7167,0.4363c-0.8601,0.5819 -1.2902,1.1637 -1.1468,1.891zM257.6611,195.6868v0c0.43,-0.4364 1.0034,-0.8728 1.5768,-1.0182c1.2902,-0.7273 1.2902,-1.891 1.1468,-3.0547c0,-0.2909 -0.1433,-0.4363 -0.43,-0.2909c-2.1503,1.1637 -2.437,1.7455 -2.437,4.0729c0,0.1454 0,0.1454 0.1434,0.2909zM266.1188,170.6678v0c-1.0035,0.5819 -1.8636,1.1637 -2.5804,1.6001c-0.1433,0.1455 -0.1433,0.2909 -0.1433,0.5818c0,0.5819 0,1.1637 0,1.7455c0,0.4364 0.1433,0.4364 0.43,0.291c0.7168,-0.4364 1.2902,-0.8728 1.8636,-1.3092c0.1434,-0.1454 0.4301,-0.2909 0.4301,-0.5818c0,-0.7273 0,-1.4546 0,-2.3274zM265.9754,176.1953v0c-0.8601,0.5818 -1.7202,1.0182 -2.437,1.6c-0.1433,0.291 -0.2867,0.4364 -0.2867,0.7273c0,0.5819 0,1.1637 0,1.7455c0,0.4364 0.1434,0.4364 0.5734,0.1455c0.5734,-0.4364 1.1468,-0.8728 1.8636,-1.3091c0.1434,-0.291 0.2867,-0.291 0.2867,-0.5819c0,-0.7273 0,-1.4546 0,-2.3273zM265.8321,181.7227v0c-0.8602,0.5819 -1.5769,1.1637 -2.2937,1.7455c-0.2867,0 -0.2867,0.2909 -0.2867,0.4364c0,0.7273 0,1.4546 -0.1433,2.3274c1.7202,-0.8728 3.2971,-1.891 2.867,-4.3638c0,0 0,0 -0.1433,-0.1455zM260.5281,176.1953v0c0,-0.4364 0,-0.7273 0,-0.8728c0,-0.2909 0.1433,-0.4363 0,-0.5818c-0.2867,0 -0.4301,0.1455 -0.5734,0.2909c-0.4301,0.2909 -0.7168,0.5818 -1.2902,0.8728c-0.5734,0.2909 -0.8601,0.7273 -0.8601,1.6c0.1434,0.4364 -0.2867,1.1637 0.2867,1.4546c0.2867,0.1455 0.7168,-0.5818 1.1468,-0.8727c0.8601,-0.4364 1.7202,-0.8728 1.2902,-1.891zM257.6611,190.3048v0c1.0034,-0.7273 1.8635,-1.3091 2.5803,-1.891l0.1433,-0.2909c0,-0.7273 0,-1.3091 0,-1.8909c0,-0.291 -0.1433,-0.5819 -0.43,-0.291c-0.7168,0.5819 -1.4335,1.0182 -2.1503,1.6001v0.2909c-0.1433,0.8728 -0.1433,1.6 -0.1433,2.4728zM265.6887,188.7048v0c0,-0.291 0,-0.5819 0,-0.8728c0,-0.1455 0.1434,-0.4364 0,-0.5818c-0.2867,0 -0.43,0.1454 -0.5734,0.2909c-0.5734,0.2909 -1.0035,0.8727 -1.5769,1.1637c-0.43,0.2909 -0.5734,0.5818 -0.43,1.0182c0,0.5818 -0.2867,1.4546 0.1433,1.6c0.5734,0.2909 0.8601,-0.4364 1.4335,-0.7273c0.7168,-0.5818 1.2902,-1.0182 1.0035,-1.8909z" fill="#878787" stroke-width="0.14441"/><path d="M244.7595,177.359v0c0,2.1818 -0.1434,4.5092 0,6.6911v0.2909c0,6.1093 0,12.0731 0,18.1824c-0.1434,0 -0.2867,0 -0.4301,-0.1455c-1.8635,-1.3091 -3.7271,-2.7637 -5.5907,-4.0729c-0.1433,-0.1454 -0.43,-0.4363 -0.43,-0.7273c0,-0.4363 -0.1434,-0.8727 -0.1434,-1.3091c0,-2.3273 0.1434,-4.6547 -0.1433,-6.982c0,-0.2909 0,-0.7273 0,-1.1637c0,-0.2909 0,-0.7273 0,-1.1637c0.2867,-1.0182 0.2867,-2.0364 0,-3.0546c0,-0.4364 0,-0.7273 0,-1.1637c0,-0.4363 0,-0.8727 0,-1.3091c0.2867,-1.0182 0,-2.0364 0,-3.0546c0,-0.5819 0,-0.8728 0,-1.4546c0,-0.2909 0,-0.5819 0,-1.0182c0,-1.1637 0,-2.1819 0,-3.3456c1.2902,0.5818 2.2936,1.6001 3.4404,2.3274c1.1468,0.7272 2.1503,1.6 3.2971,2.4728z" fill="#b0a9a1" stroke-width="0.14441"/><path d="M267.5523,168.7769v0c0,-0.8728 -0.1434,-1.4546 -0.4301,-2.1819c0.4301,-0.1455 0.4301,-0.2909 0,-0.5818c-0.8601,-0.5819 -1.7202,-1.3092 -2.5803,-1.891c-0.4301,-0.2909 -0.7168,-0.5818 0,-1.0182c2.0069,-1.4546 4.0138,-2.9092 6.0207,-4.3638c0.4301,-0.2909 0.7168,-0.4364 1.0035,-0.8727c0.2867,0.2909 0.1433,0.7273 0.1433,1.0182c-0.1433,7.7093 -0.43,15.4186 -0.43,23.2734c-0.1434,0.7273 -0.2867,1.3091 -1.1468,1.7455c-0.7168,0.4364 -1.2902,1.0182 -2.0069,1.6001c-0.4301,-0.1455 -0.5734,-0.4364 -1.0035,-0.4364c0,-0.4364 0.1434,-1.0182 0.1434,-1.6001c0.5734,-0.1454 0.8601,-0.5818 1.2901,-0.8727c0.2867,-0.2909 0.2867,-1.7455 -0.1433,-2.1819c-0.2867,-0.4364 -0.5734,-0.5818 -1.1468,-0.8728c0,-0.4363 0,-1.0182 0,-1.6c1.5768,-0.5818 1.8635,-1.3091 1.5768,-2.6183c-0.2867,-0.7273 -0.8601,-1.0182 -1.4335,-1.1636c0,-0.5819 -0.43,-1.1637 0.1434,-1.7455c1.0034,-0.4364 1.2901,-0.8728 1.2901,-2.0365c0,-0.2909 0,-0.4363 0,-0.7273c-0.2867,-0.5818 -0.7167,-0.8727 -1.2901,-0.8727z" fill="#858585" stroke-width="0.14441"/><path d="M244.7595,202.5234v0c0,-6.1093 0,-12.0731 0,-18.1824v-0.2909c0.2867,0 0.5734,0 0.7167,-0.291c0.5734,-1.0182 1.2902,-1.8909 1.8636,-2.7637c0.7168,-1.1636 1.4335,-2.1819 2.437,-2.9091c0.8601,-0.5819 1.2901,-1.3092 1.8635,-1.891c0.1434,-0.1455 0.2867,-0.2909 0.5734,-0.2909c-0.1433,0.5818 -0.5734,1.1636 -0.8601,1.7455c-0.2867,0.5818 -1.0034,0.7273 -1.0034,1.6v0.1455c0,0 -0.1434,0.1454 -0.2867,0.1454c0,0.1455 0,0.1455 -0.1434,0.1455c-0.43,0.2909 -0.43,0.5818 -0.7167,1.0182c-0.4301,0.2909 -0.5734,0.8728 -0.5734,1.4546c0,0.8728 0.5734,1.7455 0.5734,2.6183c0,0.4363 0,0.7273 -0.1434,1.1636c-0.7167,0.8728 -1.1468,1.891 -0.2867,3.0547c0.1434,0.1454 0.1434,0.2909 0.1434,0.4363c0.1433,0.5819 0.1433,1.4546 0.1433,2.1819v0c-0.2867,0 -0.43,0.2909 -0.5734,0.5819c-0.43,0.8727 -0.1433,1.7455 0.2867,2.4728c0.2867,1.0182 0.4301,1.8909 -0.1433,2.7637c-0.4301,0.7273 -0.4301,1.4546 -0.1434,2.3273c-1.2902,0.8728 -2.437,1.891 -3.7271,2.7638z" fill="#858585" stroke-width="0.14441"/><path d="M238.022,189.2866v0c0.2867,2.3273 0.1433,4.6547 0.1433,6.982c0,0.4364 0.1434,0.8728 0.1434,1.3091c-1.5769,-0.8727 -2.867,-2.0364 -4.3005,-3.0546c-0.2867,-0.2909 -0.7168,-0.7273 -1.1468,-0.8727c0,0 0,-0.1455 0,-0.291c0,-0.7273 0,-1.4546 0,-2.1818c0,-0.1455 0,-0.1455 0,-0.1455c0.43,0.2909 0.8601,0.5818 1.2901,0.8727c0.5734,0.4364 1.1468,0.8728 1.8636,1.3092c0.5734,0.5818 1.1468,1.0182 2.0069,1.6c0,-0.4363 0,-0.8727 0,-1.1636c0.1433,-0.4364 0,-0.8728 -0.2867,-1.1637c-0.8601,-0.8728 -1.5769,-2.0364 -2.867,-2.6183c-0.1434,-0.1454 -0.1434,-0.2909 -0.4301,-0.2909c-0.43,-0.5818 -1.0034,-0.8727 -1.7202,-1.4546c0,-0.8727 0,-1.7455 0,-2.6182h0.1434c0.2867,0.1454 0.5734,0.5818 1.0034,0.7273c0.7168,0.5818 1.5769,1.1636 2.437,1.7455c0.5734,0.5818 1.1468,1.0182 1.7202,1.3091z" fill="#757575" stroke-width="0.14441"/><path d="M255.2241,179.6863v0c0.7167,0.5818 1.0034,1.3091 0.8601,2.1819c0,1.0182 -0.1434,2.0364 -0.2867,2.9092c-0.1434,0.5818 0,0.8727 0.1433,1.1636c0.2867,0.8728 0.2867,1.6001 0.1434,2.4728c-0.2867,1.3092 -0.5734,2.6183 0.1433,3.9274c0.1434,0.5819 -0.2867,1.1637 -0.2867,1.7455c0,0.5819 -0.1433,1.1637 -0.2867,1.7455c0,0.5819 0,1.0183 0.2867,1.6001c0.4301,0.4364 0.2867,1.3091 0,1.891c-0.43,-0.291 -0.8601,-0.5819 -1.2901,-1.0183c0.5734,-0.5818 0.43,-1.4545 0.43,-2.3273c-0.1433,0 -0.2867,-0.1455 -0.43,-0.2909c0,-0.4364 0,-0.8728 0,-1.3091c0.1433,-0.5819 0.1433,-1.0183 -0.4301,-1.3092c0.7168,-0.2909 1.0035,-0.8727 0.8601,-1.7455c0,-0.1454 0,-0.4364 0,-0.5818c0,-0.1455 -0.1433,-0.4364 -0.43,-0.4364c0,-0.5818 0,-1.1637 0.1433,-1.6c0,-0.5819 -0.1433,-0.8728 -0.5734,-1.0183c0.1434,-0.2909 0.4301,-0.2909 0.7168,-0.4363c0.43,-0.4364 0.43,-1.7455 0,-2.3274c0,-0.1454 -0.1434,-0.1454 -0.1434,-0.2909c-0.1433,-0.8728 0.2867,-1.7455 -0.43,-2.4728c0.8601,-0.5818 1.0034,-1.3091 0.8601,-2.1819c0,0 0,-0.1454 0,-0.2909z" fill="#7d7d7d" stroke-width="0.14441"/><path d="M248.4866,199.7596v0c-0.2867,-0.8727 -0.2867,-1.6 0.1434,-2.3273c0.5734,-0.8728 0.43,-1.7455 0.1433,-2.7637c-0.43,-0.7273 -0.7167,-1.6001 -0.2867,-2.4728c0.1434,-0.291 0.2867,-0.5819 0.5734,-0.5819c0,1.1637 0.7168,1.7455 1.4335,1.4546c0.2867,0.1455 0.4301,0.4364 0.5734,0.5819c-0.2867,0.7273 -1.0034,1.4545 -1.0034,2.3273c-0.1434,0 -0.2867,0.2909 -0.1434,0.2909c0,0.8728 -0.43,1.7455 0.5734,2.1819c-0.8601,0.2909 -1.2901,1.0182 -2.0069,1.3091z" fill="#7d7d7d" stroke-width="0.14441"/><path d="M250.4935,198.4505v0c-1.0034,-0.4364 -0.5734,-1.3091 -0.5734,-2.1819c0.1434,0.1455 0.4301,0.1455 0.5734,0.2909c0.4301,0.291 0.8601,0.5819 1.4335,1.0182c0.2867,0.1455 0.5734,0.291 0.8601,0.1455c0.2867,-0.2909 0.7168,-0.5818 0.8601,-0.8727c0.2867,0 0.5734,-0.1455 0.5734,-0.5819c0.2867,0 0.5734,-0.1454 0.8601,-0.2909c0,0.8728 0.1434,1.7455 -0.43,2.3273c-0.7168,0.1455 -1.1468,0.7273 -1.8636,1.3092c-0.2867,0.2909 -0.5734,0.2909 -1.0034,0c-0.4301,-0.4364 -0.8601,-0.7273 -1.2902,-1.1637z" fill="#5c5c5c" stroke-width="0.14441"/><path d="M267.2656,188.8502v0c-0.2867,-0.5818 0,-1.3091 0,-1.891c0.5734,0 0.7167,-0.7272 1.2901,-0.8727c0,0.1455 0,0.1455 0,0.2909c0.2867,1.1637 -0.1433,2.0364 -1.2901,2.4728z" fill="#5c5c5c" stroke-width="0.14441"/><path d="M268.5557,186.0865v0c-0.5734,0.1455 -0.7167,0.8727 -1.2901,0.8727c0,-0.5818 -0.1434,-1.3091 -0.1434,-1.8909c0.4301,0 0.5734,0.2909 1.0035,0.4364c0,0.2909 0.43,0.2909 0.43,0.5818z" fill="#3d3d3d" stroke-width="0.14441"/><path d="M232.8614,193.3594v0c0,0.1455 0,0.291 0,0.291l-0.1434,-0.1455c0,0 0.1434,0 0.1434,-0.1455z" fill="#818488" stroke-width="0.14441"/><path d="M238.022,172.5588v0c0,1.1637 0,2.1819 0,3.3456c0,0 -0.1434,0 -0.2867,0c0,-0.291 -0.1434,-0.4364 -0.4301,-0.4364c-0.5734,-0.8728 -1.4335,-1.4546 -2.2936,-2.0364c0,-0.1455 -0.2867,-0.291 -0.5734,-0.4364c-0.43,-0.5818 -1.2901,-1.0182 -1.8635,-1.4546c0,-1.0182 0,-2.0364 0,-3.0546c0.8601,0.4363 1.5768,1.0182 2.2936,1.6c1.1468,0.8728 2.2936,1.6001 3.1537,2.4728z" fill="#757575" stroke-width="0.14441"/><path d="M256.5143,174.1589v0c0,1.3091 0,2.6182 0,4.0728c-0.1434,0 -0.1434,0 -0.2868,0c-0.7167,-1.3091 -1.2901,-2.6183 -2.1502,-3.9274c0,-0.1454 0,-0.2909 -0.2867,-0.2909v-0.1455c-0.1434,-0.7273 -0.7168,-1.3091 -1.0035,-2.0364c1.2902,0.4364 2.1503,1.3091 3.1537,2.0364c0.1434,0.1455 0.2867,0.291 0.5735,0.291z" fill="#b2aba2" stroke-width="0.14441"/><path d="M252.7871,171.8315v0c0.2867,0.7273 0.8601,1.3091 1.0035,2.0364c-0.2867,0.1455 -0.2867,0 -0.4301,-0.2909c-0.1433,-0.2909 -0.43,-0.4364 -0.8601,-0.8727c0.2867,1.7455 -1.0034,2.1819 -1.8635,2.9091c-0.2867,0.291 -0.5734,0.5819 -0.8601,-0.1454c0,-0.4364 -0.5734,-0.7273 -0.8601,-1.0182c1.2901,-1.0182 2.4369,-2.0364 3.8704,-2.6183z" fill="#515151" stroke-width="0.14441"/><path d="M238.022,183.9046v0c0.2867,1.0182 0.2867,2.0364 0,3.0546c-0.4301,-0.1454 -0.8601,-0.4363 -1.0035,-0.7272c-0.43,-0.7273 -1.1468,-1.1637 -1.7202,-1.6001c-0.2867,-0.2909 -0.5734,-0.2909 -0.8601,-0.4364c-0.43,-0.7273 -1.0034,-1.0182 -1.7202,-1.4546c0,-0.8727 0,-1.8909 0,-2.7637c0,0 0,0 0.1434,0c0.2867,0.2909 0.5734,0.5819 1.1468,0.7273c0.43,0.5818 1.0034,0.8728 1.5768,1.3091c0.7168,0.7273 1.5769,1.1637 2.437,1.891z" fill="#757575" stroke-width="0.14441"/><path d="M238.022,178.3772v0c0,1.0182 0.2867,2.0364 0,3.0546c-1.1468,-0.7273 -1.7202,-1.7455 -3.0104,-2.3273c0,-0.291 -0.2867,-0.4364 -0.5734,-0.5819c-0.43,-0.5818 -1.1468,-0.8727 -1.7202,-1.3091c-0.1433,-0.8728 -0.1433,-1.891 -0.1433,-2.7637h0.1433c0.4301,0.2909 0.8601,0.5818 1.2902,0.8727c0.5734,0.5819 1.2901,1.0182 2.0069,1.4546c0.5734,0.5819 1.2901,1.0182 2.0069,1.6001z" fill="#757575" stroke-width="0.14441"/><path d="M222.8268,166.0132v0c-0.1433,0.2909 0,0.5818 -0.1433,0.7273c-0.2867,0.1454 -0.4301,-0.1455 -0.5734,-0.1455c-0.2867,-0.2909 -0.7168,-0.5818 -1.0035,-0.8728c-1.4335,-0.5818 -1.1468,-1.8909 -1.1468,-3.0546c0,-0.4364 0.2867,-0.2909 0.43,-0.1455c0.7168,0.5819 1.4336,0.8728 2.007,1.6001c0.5734,0.5818 0.1433,1.3091 0.43,1.891z" fill="#807ba1" stroke-width="0.14441"/><path d="M225.5505,166.3041v0c0.8601,0.5818 1.7202,1.1636 2.2936,1.7455c0.43,0.4364 0.1433,1.0182 0.2867,1.4546c0,0.4364 0.1433,1.0182 -0.1434,1.1636c-0.43,0.291 -0.5734,-0.2909 -1.0034,-0.5818c-1.5769,-0.5818 -1.7202,-2.0364 -1.4335,-3.7819z" fill="#807ba1" stroke-width="0.14441"/><path d="M225.6938,171.84261v0c0.7168,0.5819 1.4335,1.1637 2.1503,1.6001c0.43,0.2909 0.2867,0.7273 0.2867,1.0182c0,0.5818 0.2867,1.6 -0.1434,1.7455c-0.43,0.1454 -1.0034,-0.5819 -1.4335,-0.8728c-1.1468,-0.8727 -1.2901,-1.4546 -0.8601,-3.491z" fill="#807ba1" stroke-width="0.14441"/><path d="M214.7992,159.1766v0c0.1433,-0.1455 -0.1434,-0.4364 0.1433,-0.5818c0.1434,-0.1455 0.4301,0.1454 0.5734,0.2909c0.1434,0.1454 0.1434,0.1454 0.4301,0.2909c1.4335,0.5818 1.5768,1.891 1.5768,3.3455c0,0.1455 0.1434,0.291 0,0.291c-0.1433,0.1454 -0.43,0 -0.43,0c-0.5734,-0.5819 -1.1468,-1.0182 -1.8636,-1.4546c-0.2867,-0.1455 -0.2867,-0.4364 -0.2867,-0.8728c0,-0.4364 -0.1433,-0.7273 -0.1433,-1.3091z" fill="#6e6c7f" stroke-width="0.14441"/><path d="M217.5228,168.6314v0c-0.7167,-0.7273 -1.5768,-1.1637 -2.2936,-1.7455c-0.43,-0.4364 -0.2867,-1.0182 -0.2867,-1.4546c0,-0.4364 -0.1433,-1.0182 0.1434,-1.3091c0.2867,-0.1455 0.5734,0.4364 1.0034,0.5818c1.2902,0.7273 1.7202,1.7455 1.4335,3.2001c0,0.1455 0,0.2909 0,0.7273z" fill="#2f2c42" stroke-width="0.14441"/><path d="M222.8268,170.9588v0c-0.1433,0.5818 0.1434,1.0182 -0.1433,1.3091c-0.2867,0.1455 -0.7168,-0.4364 -1.0035,-0.5818c-0.1434,-0.1455 -0.1434,-0.1455 -0.1434,-0.1455c-1.5768,-0.5818 -1.5768,-1.891 -1.4335,-3.2001c0,-0.4364 0.1434,-0.4364 0.4301,-0.1455c0.7167,0.4364 1.2902,0.8728 2.0069,1.3092c0.5734,0.4364 0.1434,1.1636 0.2867,1.4546z" fill="#807ba1" stroke-width="0.14441"/><path d="M228.25694,182.22471v0c-0.98171,-0.83013 -1.79974,-1.32812 -2.78145,-1.9923c-0.49091,-0.33203 -0.16368,-0.83013 -0.16368,-1.32812c0,-0.66417 -0.32724,-1.49431 0,-1.66027c0.49091,-0.16607 0.98171,0.4981 1.47262,0.83013c1.63618,1.16216 1.79974,1.49419 1.47251,4.15055z" fill="#807ba1" stroke-width="0.14441"/><path d="M215.01946,169.3042v0c0.91993,0.62226 1.83985,1.24454 2.6064,1.86691c0.30664,0.31114 0.30664,2.6448 0.15337,2.80031c-0.15337,0.15562 -0.30664,0.15562 -0.30664,0c-0.76666,-0.46665 -1.53321,-1.08902 -2.14649,-1.71129c-0.30664,-0.15562 -0.30664,-0.31114 -0.30664,-0.46675c0,-0.77789 0,-1.55577 0,-2.48917z" fill="#807ba1" stroke-width="0.14441"/><path d="M223.23787,178.3863v0c-0.94182,-0.7964 -1.88374,-1.43358 -2.66853,-1.91145c-0.47097,-0.47776 -0.31394,-1.11493 -0.31394,-1.75202c0,-0.31854 -0.31394,-1.11493 0.15692,-1.11493c0.47097,-0.31854 0.7849,0.31854 1.09884,0.47786c1.41277,0.63707 2.04066,1.91133 1.72672,3.34481c0,0.31854 0,0.47786 0,0.95572z" fill="#807ba1" stroke-width="0.14441"/><path d="M225.50282,183.92091v0c0,-0.47843 -0.31431,-1.11626 0.15721,-1.27567c0.31431,-0.15951 0.62862,0.47832 0.94294,0.63783c0.1571,0 0.31431,0.1594 0.31431,0.1594c1.57156,0.63794 1.57156,1.91372 1.41435,3.3489c0,0.47843 -0.31431,0.47843 -0.62862,0.1594c-0.31431,-0.1594 -0.78572,-0.47832 -1.10004,-0.79724c-0.94294,-0.63794 -1.41446,-1.11637 -1.10015,-2.23263z" fill="#8e8ba1" stroke-width="0.14441"/><path d="M215.2292,174.8862v0c1.0035,0.7272 1.7202,1.3091 2.437,1.7455c0.43,0.4363 0.1433,1.0182 0.1433,1.4546c0,0.4363 0.2867,1.0182 0,1.3091c-0.43,0 -0.7167,-0.5819 -1.0034,-0.7273c-1.4335,-0.5818 -1.7202,-1.6001 -1.5769,-2.9092c0,-0.1455 0,-0.4364 0,-0.8727z" fill="#56526c" stroke-width="0.14441"/><path d="M222.9702,182.0136v0c0,0.4364 0.2867,0.8728 0,1.1637c-0.4301,0.1455 -0.8601,-0.4364 -1.1468,-0.5818c0,-0.1455 0,-0.1455 -0.1434,-0.1455c-1.4335,-0.5818 -1.2902,-1.8909 -1.4335,-3.0546c0,-0.5819 0.2867,-0.5819 0.5734,-0.2909c0.5734,0.4363 1.1468,0.8727 1.8636,1.3091c0.5734,0.4364 0.1433,1.0182 0.2867,1.6z" fill="#282538" stroke-width="0.14441"/><path d="M232.718,177.2135v0c0.5734,0.4364 1.2902,0.7273 1.7202,1.3091c-0.5734,0.5819 -1.0034,0.8728 -1.5768,1.4546c-0.1434,0 -0.1434,0 -0.1434,0c-0.1433,-1.0182 -0.1433,-1.8909 0,-2.7637z" fill="#818488" stroke-width="0.14441"/><path d="M232.718,174.4498v0h-0.1433c0,-1.0182 0,-1.891 0,-2.9092c0.5734,0.4364 1.4335,0.8728 1.8635,1.4546c-0.43,0.5818 -1.2901,0.7273 -1.7202,1.4546z" fill="#818488" stroke-width="0.14441"/><path d="M232.8614,191.0321v0c0,0 0,0 0,0.1455c-0.1434,-1.1637 -0.1434,-2.0365 -0.1434,-3.0547c0.7168,0.5819 1.2902,0.8728 1.7202,1.4546c-0.1433,0.2909 -0.43,0.4364 -0.5734,0.5818c-0.43,0.291 -0.8601,0.4364 -1.0034,0.8728z" fill="#818488" stroke-width="0.14441"/><path d="M232.718,182.7409v0c0.7168,0.4364 1.2902,0.7273 1.7202,1.4546c-0.43,0.4364 -1.1468,0.5819 -1.5768,1.3092h-0.1434c0,-0.8728 0,-1.891 0,-2.7638z" fill="#818488" stroke-width="0.14441"/><path d="M255.2241,179.6863v0c0,0.1455 0,0.2909 0,0.2909c0.1433,0.8728 0,1.6001 -0.8601,2.1819c-1.2902,0.5818 -1.5769,0.8728 -1.1468,1.7455c-0.4301,0 -0.4301,-0.7273 -1.0035,-0.4364c-0.2867,-0.5818 -0.7167,-0.7273 -1.2901,-1.0182c0,-0.2909 -0.2867,-0.2909 -0.4301,-0.2909c-0.43,-0.4364 -0.5734,-0.8728 -0.43,-1.4546c0,-0.2909 0,-0.7273 -0.1434,-1.0182c0.1434,0 0.1434,0 0.1434,-0.1455c0.5734,0.7273 1.2901,0.8728 1.7202,1.4546c0.5734,0.4364 1.0034,0.2909 1.4335,-0.1454c0.1433,-0.1455 0.2867,-0.2909 0.43,-0.4364c0.5734,-0.1455 1.0035,-0.7273 1.4335,-0.8728h0.1434c0,0.1455 0,0.1455 0,0.1455z" fill="#5c5c5c" stroke-width="0.14441"/><path d="M257.6611,182.34397v0c-0.1434,-0.7273 0.2867,-1.3091 1.1468,-1.891c0.1433,-0.1454 0.43,-0.2909 0.7167,-0.4363c0.2867,-0.1455 0.4301,-0.7273 0.8601,-0.5819c0.4301,0.1455 0.1434,0.7273 0.1434,1.1637c0,1.0182 -0.1434,1.7455 -1.1468,2.1819c-0.4301,0.1454 -0.7168,0.4364 -1.0035,0.7273c-0.2867,0.1454 -0.2867,0.2909 -0.5734,0.2909c-0.2867,-0.1455 0,-0.4364 0,-0.5818c-0.1433,-0.291 -0.1433,-0.4364 -0.1433,-0.8728z" fill="#363949" stroke-width="0.14441"/><path d="M257.6611,195.6868v0c-0.1434,-0.1455 -0.1434,-0.1455 -0.1434,-0.2909c0,-2.3274 0.2867,-2.9092 2.437,-4.0729c0.2867,-0.1454 0.43,0 0.43,0.2909c0.1434,1.1637 0.1434,2.3274 -1.1468,3.0547c-0.5734,0.1454 -1.1468,0.5818 -1.5768,1.0182z" fill="#3c4688" stroke-width="0.14441"/><path d="M266.1188,170.6678v0c0,0.8728 0,1.6001 0,2.3274c0,0.2909 -0.2867,0.4364 -0.4301,0.5818c-0.5734,0.4364 -1.1468,0.8728 -1.8636,1.3092c-0.2867,0.1454 -0.43,0.1454 -0.43,-0.291c0,-0.5818 0,-1.1636 0,-1.7455c0,-0.2909 0,-0.4363 0.1433,-0.5818c0.7168,-0.4364 1.5769,-1.0182 2.5804,-1.6001z" fill="#0f0f12" stroke-width="0.14441"/><path d="M265.9754,176.1953v0c0,0.8727 0,1.6 0,2.3273c0,0.2909 -0.1433,0.2909 -0.2867,0.5819c-0.7168,0.4363 -1.2902,0.8727 -1.8636,1.3091c-0.43,0.2909 -0.5734,0.2909 -0.5734,-0.1455c0,-0.5818 0,-1.1636 0,-1.7455c0,-0.2909 0.1434,-0.4363 0.2867,-0.7273c0.7168,-0.5818 1.5769,-1.0182 2.437,-1.6z" fill="#3c4688" stroke-width="0.14441"/><path d="M265.8321,181.7227v0c0.1433,0.1455 0.1433,0.1455 0.1433,0.1455c0.4301,2.4728 -1.1468,3.491 -2.867,4.3638c0.1433,-0.8728 0.1433,-1.6001 0.1433,-2.3274c0,-0.1455 0,-0.4364 0.2867,-0.4364c0.7168,-0.5818 1.4335,-1.1636 2.2937,-1.7455z" fill="#3c4688" stroke-width="0.14441"/><path d="M260.5281,176.1953v0c0.43,1.0182 -0.4301,1.4546 -1.2902,1.891c-0.43,0.2909 -0.8601,1.0182 -1.1468,0.8727c-0.5734,-0.2909 -0.1433,-1.0182 -0.2867,-1.4546c0,-0.8727 0.2867,-1.3091 0.8601,-1.6c0.5734,-0.291 0.8601,-0.5819 1.2902,-0.8728c0.1433,-0.1454 0.2867,-0.2909 0.5734,-0.2909c0.1433,0.1455 0,0.2909 0,0.5818c0,0.1455 0,0.4364 0,0.8728z" fill="#3c4688" stroke-width="0.14441"/><path d="M257.6611,190.3048v0c0,-0.8728 0,-1.6 0.1433,-2.4728v-0.2909c0.7168,-0.5819 1.4335,-1.0182 2.1503,-1.6001c0.2867,-0.2909 0.43,0 0.43,0.291c0,0.5818 0,1.1636 0,1.8909l-0.1433,0.2909c-0.7168,0.5819 -1.5769,1.1637 -2.5803,1.891z" fill="#181920" stroke-width="0.14441"/><path d="M265.6887,188.7048v0c0.2867,0.8727 -0.2867,1.3091 -1.0035,1.8909c-0.5734,0.2909 -0.8601,1.0182 -1.4335,0.7273c-0.43,-0.1454 -0.1433,-1.0182 -0.1433,-1.6c-0.1434,-0.4364 0,-0.7273 0.43,-1.0182c0.5734,-0.291 1.0035,-0.8728 1.5769,-1.1637c0.1434,-0.1455 0.2867,-0.2909 0.5734,-0.2909c0.1434,0.1454 0,0.4363 0,0.5818c0,0.2909 0,0.5818 0,0.8728z" fill="#3c4688" stroke-width="0.14441"/><path d="M253.0738,175.468v0c0.2867,0.4364 0.5734,0.5818 1.0035,0.8727c0.5734,0.291 1.0034,0.8728 0.8601,1.6001c0,0.2909 0,0.5818 0,1.0182c0,0.1455 0,0.1455 0,0.2909c-0.5734,0.1455 -0.8601,-0.1454 -1.2902,-0.5818c-0.2867,-0.2909 -0.5734,-0.5818 -1.0034,-1.0182c0,-0.7273 0.1433,-1.4546 0.1433,-2.0365c0,-0.1454 0,-0.1454 0.2867,-0.1454z" fill="#737373" stroke-width="0.14441"/><path d="M268.8424,175.3225v0c0.2867,1.3092 0,2.0365 -1.5768,2.6183c0.1433,-0.7273 0,-1.3091 0.2867,-2.0364c0.43,0 0.7167,-0.5819 1.2901,-0.5819z" fill="#5c5c5c" stroke-width="0.14441"/><path d="M268.4124,180.4136v0c0.43,0.4364 0.43,1.891 0.1433,2.1819c-0.43,0.2909 -0.7167,0.7273 -1.2901,0.8727c0,-0.5818 0,-1.3091 0,-1.8909c0.5734,-0.291 1.0034,-0.5819 1.1468,-1.1637z" fill="#5c5c5c" stroke-width="0.14441"/><path d="M252.7871,175.6134v0c0,0.5819 -0.1433,1.3092 -0.1433,2.0365c-0.8601,0.4364 -1.4335,1.1636 -2.2936,1.6c0,-0.8727 0.7167,-1.0182 1.0034,-1.6c0.2867,-0.5819 0.7168,-1.1637 0.8601,-1.7455c0.1434,0 0.1434,-0.1455 0.1434,-0.291c0.1433,0 0.1433,0 0.43,0z" fill="#737373" stroke-width="0.14441"/><path d="M268.8424,169.6496v0c0,0.291 0,0.4364 0,0.7273c0,1.1637 -0.2867,1.6001 -1.2901,2.0365c0,-0.5819 0,-1.3092 0,-2.0365c0.5734,0 0.7167,-0.5818 1.2901,-0.7273z" fill="#5c5c5c" stroke-width="0.14441"/><path d="M268.8424,169.6496v0c-0.5734,0.1455 -0.7167,0.7273 -1.2901,0.7273c0,-0.4363 0,-1.0182 0,-1.6c0.5734,0 1.0034,0.2909 1.2901,0.8727z" fill="#3d3d3d" stroke-width="0.14441"/><path d="M268.4124,180.4136v0c-0.1434,0.5818 -0.5734,0.8727 -1.1468,1.1637c0,-0.7273 0,-1.3092 0,-2.0365c0.5734,0.291 0.8601,0.4364 1.1468,0.8728z" fill="#3d3d3d" stroke-width="0.14441"/><path d="M268.8424,175.3225v0c-0.5734,0 -0.8601,0.5819 -1.2901,0.5819c-0.1434,-0.5819 -0.1434,-1.1637 -0.1434,-1.7455c0.5734,0.1454 1.1468,0.4363 1.4335,1.1636z" fill="#3d3d3d" stroke-width="0.14441"/><path d="M252.7871,175.6134v0c-0.2867,0 -0.2867,0 -0.43,0c-0.1434,-0.4363 0.1433,-0.8727 0.43,-0.8727c0.2867,0 0.2867,0.4364 0.2867,0.7273c-0.2867,0 -0.2867,0 -0.2867,0.1454z" fill="#6c6c6c" stroke-width="0.14441"/><path d="M254.9374,179.2499v0c0,-0.1454 0,-0.1454 0,-0.2909c0.43,0 0.2867,0.4364 0.2867,0.5818h-0.1434c-0.1433,-0.1454 -0.1433,-0.1454 -0.1433,-0.2909z" fill="#59687c" stroke-width="0.14441"/><path d="M253.7906,174.0134v0c0.2867,0 0.2867,0.1455 0.2867,0.2909c-0.2867,-0.1454 -0.2867,-0.1454 -0.2867,-0.2909z" fill="#818488" stroke-width="0.14441"/><path d="M235.2983,184.6319v0c0.5734,0.4364 1.2902,0.8728 1.7202,1.6001c0.1434,0.2909 0.5734,0.5818 1.0035,0.7272c0,0.4364 0,0.8728 0,1.1637c-0.2867,0 -0.4301,0 -0.5734,-0.2909c-0.4301,-0.2909 -0.8601,-0.4364 -1.1468,0.1455c-0.8601,-0.5819 -1.7202,-1.1637 -2.437,-1.7455c0.4301,-0.5819 1.0035,-1.0183 1.4335,-1.6001z" fill="#3d3d3d" stroke-width="0.14441"/><path d="M236.0151,176.7771v0c-0.7168,-0.4364 -1.4335,-0.8727 -2.0069,-1.4546c0.43,-0.5818 0.8601,-1.1636 1.0034,-1.8909c0.8601,0.5818 1.7202,1.1636 2.2936,2.0364c0,0.2909 0.1434,0.4364 0.4301,0.4364c0.1433,0 0.2867,0 0.2867,0c0,0.4363 0,0.7273 0,1.0182c-0.1434,0 -0.2867,0 -0.4301,0c-0.5734,-0.1455 -1.0034,-0.5819 -1.5768,-0.1455z" fill="#3d3d3d" stroke-width="0.14441"/><path d="M235.0116,179.1045v0c1.2902,0.5818 1.8636,1.6 3.0104,2.3273c0,0.4364 0,0.8728 0,1.3091c-0.1434,0 -0.2867,-0.1454 -0.4301,-0.2909c-0.5734,-0.5818 -1.2901,-0.7273 -2.0069,-0.4364c-0.5734,-0.4363 -1.1468,-0.7273 -1.5768,-1.3091c0.2867,-0.4364 1.0034,-0.7273 1.0034,-1.6z" fill="#3d3d3d" stroke-width="0.14441"/><path d="M235.585,182.0136v0c0.7168,-0.2909 1.4335,-0.1454 2.0069,0.4364c0.1434,0.1455 0.2867,0.2909 0.4301,0.2909c0,0.4364 0,0.7273 0,1.1637c-0.8601,-0.7273 -1.7202,-1.1637 -2.437,-1.891z" fill="#4f4f4f" stroke-width="0.14441"/><path d="M236.0151,176.7771v0c0.5734,-0.4364 1.0034,0 1.5768,0.1455c0.1434,0 0.2867,0 0.4301,0c0,0.5818 0,0.8727 0,1.4546c-0.7168,-0.5819 -1.4335,-1.0182 -2.0069,-1.6001z" fill="#4f4f4f" stroke-width="0.14441"/><path d="M236.3018,187.9775v0c0.2867,-0.5819 0.7167,-0.4364 1.1468,-0.1455c0.1433,0.2909 0.2867,0.2909 0.5734,0.2909c0,0.4364 0,0.8728 0,1.1637c-0.5734,-0.2909 -1.1468,-0.7273 -1.7202,-1.3091z" fill="#4f4f4f" stroke-width="0.14441"/><path d="M250.4935,182.1591v0c0.1434,0 0.4301,0 0.4301,0.2909c0,0.2909 -0.1434,0.4364 -0.1434,0.7273c-0.1433,0.7273 -0.8601,1.1637 -0.7167,1.891c0,0 0,0.1454 0,0.2909c-0.1434,0 -0.1434,0.1455 -0.2867,0.2909c-0.5734,0.2909 -0.5734,0.7273 -0.5734,1.3091c0.2867,0.5819 0.7167,0.5819 1.1468,0.5819c0.2867,0 0.2867,0.1454 0.43,0.2909c0,0.2909 -0.1433,0.7273 -0.1433,1.0182c-0.1434,0.5818 -0.7168,1.0182 -0.5734,1.7455c0,0 0,0 0,0.1455c-0.1434,0.1454 -0.1434,0.1454 -0.2867,0.1454c-0.2867,0 -0.2867,0.5819 -0.7168,0.7273c0,-0.7273 0,-1.6 -0.1433,-2.1819c0,-0.1454 0,-0.2909 -0.1434,-0.4363c-0.8601,-1.1637 -0.43,-2.1819 0.2867,-3.0547c0.1434,-0.4363 0.1434,-0.7273 0.1434,-1.1636c0,-0.8728 -0.5734,-1.7455 -0.5734,-2.6183c0,-0.5818 0.1433,-1.1637 0.5734,-1.4546c-0.1434,0.7273 0.5734,1.0182 0.8601,1.4546c0.1433,0.2909 0.2867,0.1455 0.43,0z" fill="#7d7d7d" stroke-width="0.14441"/><path d="M253.6472,180.4136v0c-0.1433,0.1455 -0.2867,0.2909 -0.43,0.4364c-0.4301,0.4363 -0.8601,0.5818 -1.4335,0.1454c-0.4301,-0.5818 -1.1468,-0.7273 -1.7202,-1.4546c0.1433,0 0.2867,-0.1454 0.2867,-0.1454c0.7167,0 1.2901,-0.4364 1.8635,-1.0182c0.1434,0 0.4301,-0.4364 0.4301,0.1454c0.1433,0.7273 0.5734,1.3092 1.0034,1.891z" fill="#303030" stroke-width="0.14441"/><path d="M253.6472,180.4136v0c-0.43,-0.5818 -0.8601,-1.1637 -1.0034,-1.891c0,-0.5818 -0.2867,-0.1454 -0.4301,-0.1454c-0.5734,0.5818 -1.1468,1.0182 -1.8635,1.0182v-0.1455c0.8601,-0.4364 1.4335,-1.1636 2.2936,-1.6c0.43,0.4364 0.7167,0.7273 1.0034,1.0182c0.4301,0.4364 0.7168,0.7273 1.2902,0.5818c0,0.1455 0,0.1455 0.1433,0.2909c-0.43,0.1455 -0.8601,0.7273 -1.4335,0.8728z" fill="#4f4f4f" stroke-width="0.14441"/><path d="M249.06,191.6139v0c0.4301,-0.1454 0.4301,-0.7273 0.7168,-0.7273c0.1433,0.7273 -0.2867,1.7455 0.7167,2.1819c-0.7167,0.2909 -1.4335,-0.2909 -1.4335,-1.4546z" fill="#737373" stroke-width="0.14441"/><path d="M250.4935,182.1591v0c-0.1433,0.1455 -0.2867,0.2909 -0.43,0c-0.2867,-0.4364 -1.0035,-0.7273 -0.8601,-1.4546c0.2867,-0.4364 0.2867,-0.7273 0.7167,-1.0182c0.1434,0.2909 0.1434,0.7273 0.1434,1.0182c-0.1434,0.5818 0,1.0182 0.43,1.4546z" fill="#2f2f2f" stroke-width="0.14441"/><path d="M234.8683,189.8684v0c1.2901,0.5819 2.0069,1.7455 2.867,2.6183c0.2867,0.2909 0.43,0.7273 0.2867,1.1637c-0.2867,0 -0.4301,-0.1455 -0.5734,-0.291c-0.5734,-0.2909 -1.0035,-0.5818 -1.4335,-0.1454c-0.7168,-0.4364 -1.2902,-0.8728 -1.8636,-1.3092c0.2867,-0.7272 0.7168,-1.3091 0.7168,-2.0364z" fill="#3d3d3d" stroke-width="0.14441"/><path d="M235.2983,184.6319v0c-0.43,0.5818 -1.0034,1.0182 -1.4335,1.6001c-0.43,-0.1455 -0.7167,-0.5819 -1.0034,-0.7273c0.43,-0.7273 1.1468,-0.8728 1.5768,-1.3092c0.2867,0.1455 0.5734,0.1455 0.8601,0.4364z" fill="#4f4f4f" stroke-width="0.14441"/><path d="M234.8683,189.8684v0c0,0.7273 -0.4301,1.3092 -0.7168,2.0364c-0.43,-0.2909 -0.8601,-0.5818 -1.2901,-0.8727c0.1433,-0.4364 0.5734,-0.5818 1.0034,-0.8728c0.1434,-0.1454 0.4301,-0.2909 0.5734,-0.5818c0.2867,0 0.2867,0.1455 0.4301,0.2909z" fill="#4f4f4f" stroke-width="0.14441"/><path d="M236.0151,193.214v0c0.43,-0.4364 0.8601,-0.1455 1.4335,0.1454c0.1433,0.1455 0.2867,0.291 0.5734,0.291c0,0.2909 0,0.7273 0,1.1636c-0.8601,-0.5818 -1.4335,-1.0182 -2.0069,-1.6z" fill="#4f4f4f" stroke-width="0.14441"/><path d="M249.7768,185.6501v0c0.1433,-0.1454 0.1433,-0.2909 0.2867,-0.2909c0.1433,0 0.2867,0 0.43,0.1455c0.4301,0.5818 1.1468,0.7273 1.7202,1.3091c0.1434,0.1454 0.4301,0 0.5734,0c0.2867,-0.2909 0.5734,-0.5818 0.8601,-0.8728c0.4301,-0.2909 1.0035,-0.4363 1.2902,-0.8727c0,-0.1455 0,-0.1455 0,-0.1455c0.43,0.5819 0.43,1.891 0,2.3274c-0.2867,0.1454 -0.5734,0.1454 -0.7168,0.4363c-0.5734,0.291 -1.1468,0.5819 -1.4335,1.3092v0c-0.2867,0 -0.43,0 -0.5734,0c-0.2867,-0.5819 -0.8601,-0.8728 -1.4335,-1.1637c-0.1433,-0.1455 -0.1433,-0.2909 -0.43,-0.2909c-0.7168,-0.5819 -0.4301,-1.3091 -0.5734,-1.891z" fill="#5c5c5c" stroke-width="0.14441"/><path d="M250.4935,193.0685v0c-1.0034,-0.4364 -0.5734,-1.4546 -0.7167,-2.1819c0.1433,0 0.1433,0 0.2867,-0.1454c0,0.1454 0.2867,0.1454 0.43,0.2909c0.4301,0.2909 0.8601,0.5818 1.4335,1.0182c0.2867,0.2909 0.5734,0.4364 0.8601,0.1455c0.2867,-0.291 0.7168,-0.5819 0.8601,-0.8728c0.1434,0 0.4301,0 0.5734,-0.2909c0.2867,-0.1455 0.4301,-0.4364 0.8601,-0.2909c0,0.1454 0,0.4364 0,0.5818c0.1434,0.8728 -0.1433,1.4546 -0.8601,1.7455c-0.43,0.4364 -1.1468,0.5819 -1.4335,1.3092c0,0 0,0 -0.1433,0c-0.1434,0 -0.4301,0 -0.5734,0c-0.1434,-0.4364 -0.5734,-0.5819 -1.0035,-0.7273c-0.1433,-0.1455 -0.2867,-0.4364 -0.5734,-0.5819z" fill="#5c5c5c" stroke-width="0.14441"/><path d="M252.7871,194.3777v0c0.2867,-0.7273 1.0035,-0.8728 1.4335,-1.3092c0.5734,0.2909 0.5734,0.7273 0.4301,1.3092c0,0.4363 0,0.8727 0,1.3091c-0.7168,-0.1455 -1.2902,-0.5819 -1.8636,-1.3091z" fill="#737373" stroke-width="0.14441"/><path d="M253.2172,183.9046v0c-0.4301,-0.8727 -0.1434,-1.1637 1.1468,-1.7455c0.7167,0.7273 0.2867,1.6 0.43,2.4728c-0.1433,0 -0.1433,0 -0.1433,0c0,0 -0.2867,0 -0.4301,0c-0.1433,-0.1455 -0.1433,-0.2909 -0.43,-0.2909c-0.2867,-0.1455 -0.4301,-0.2909 -0.5734,-0.4364z" fill="#737373" stroke-width="0.14441"/><path d="M252.7871,188.9957v0c0.2867,-0.7273 0.8601,-1.0182 1.4335,-1.3092c0.4301,0.1455 0.5734,0.4364 0.5734,1.0183c-0.1433,0.4363 -0.1433,1.0182 -0.1433,1.6c-0.7168,-0.2909 -1.1468,-0.8728 -1.8636,-1.3091z" fill="#737373" stroke-width="0.14441"/><path d="M252.7871,194.3777v0c0.5734,0.7272 1.1468,1.1636 1.8636,1.3091c0.1433,0.1454 0.2867,0.2909 0.43,0.2909c-0.2867,0.1455 -0.5734,0.2909 -0.8601,0.2909c-0.8601,-0.2909 -1.4335,-0.8727 -1.5768,-1.8909c0.1433,0 0.1433,0 0.1433,0z" fill="#4f4f4f" stroke-width="0.14441"/><path d="M252.7871,188.9957v0c0.7168,0.4363 1.1468,1.0182 1.8636,1.3091c0.2867,0 0.43,0.2909 0.43,0.4364c-0.43,-0.1455 -0.5734,0.1454 -0.8601,0.2909c-0.43,-0.5818 -0.8601,-1.1637 -1.4335,-1.4546v0c0,-0.1455 0,-0.2909 0,-0.5818z" fill="#4f4f4f" stroke-width="0.14441"/><path d="M254.794,184.6319v0c0,0.1455 0.1434,0.1455 0.1434,0.2909v0.1455c-0.1434,-0.1455 -0.1434,-0.2909 -0.2867,-0.4364z" fill="#333974" stroke-width="0.14441"/><path d="M252.6438,194.3777v0c0.1433,1.0182 0.7167,1.6 1.5768,1.8909c0,0.4364 -0.2867,0.5819 -0.5734,0.5819c-0.5734,-0.4364 -1.1468,-0.7273 -1.1468,-1.4546c0,-0.1455 0,-0.291 -0.2867,-0.291c-0.5734,0.4364 -1.2901,0.5819 -1.7202,1.4546c-0.1433,-0.1454 -0.43,-0.1454 -0.5734,-0.2909c-0.1433,0 0,-0.2909 0.1434,-0.2909c0.7167,-0.4364 1.2901,-1.0182 2.0069,-1.6c0.1433,0 0.43,0 0.5734,0z" fill="#3d3d3d" stroke-width="0.14441"/><path d="M252.0704,194.3777v0c-0.7168,0.5818 -1.2902,1.1636 -2.0069,1.6c0,-0.8728 0.7167,-1.6 1.0034,-2.3273c0.4301,0.1454 0.8601,0.2909 1.0035,0.7273z" fill="#494949" stroke-width="0.14441"/><path d="M250.4935,196.5595v0c0.4301,-0.8727 1.1468,-1.0182 1.7202,-1.4546c0.2867,0 0.2867,0.1455 0.2867,0.291c0,0.7273 0.5734,1.0182 1.1468,1.4546c-0.1433,0.2909 -0.5734,0.5818 -0.8601,0.8727c-0.2867,0.1455 -0.5734,0 -0.8601,-0.1455c-0.5734,-0.4363 -1.0034,-0.7272 -1.4335,-1.0182z" fill="#303030" stroke-width="0.14441"/><path d="M235.0116,173.4316v0c-0.1433,0.7273 -0.5734,1.3091 -1.0034,1.8909c-0.4301,-0.2909 -0.8601,-0.5818 -1.2902,-0.8727c0.4301,-0.7273 1.2902,-0.8728 1.7202,-1.4546c0.2867,0.1454 0.5734,0.2909 0.5734,0.4364z" fill="#4f4f4f" stroke-width="0.14441"/><path d="M237.7353,175.9044v0c-0.2867,0 -0.4301,-0.1455 -0.4301,-0.4364c0.2867,0 0.4301,0.1454 0.4301,0.4364z" fill="#17324e" stroke-width="0.14441"/><path d="M235.0116,179.1045v0c0,0.8727 -0.7167,1.1636 -1.0034,1.6c-0.5734,-0.1454 -0.8601,-0.4364 -1.1468,-0.7273c0.5734,-0.5818 1.0034,-0.8727 1.5768,-1.4546c0.2867,0.1455 0.5734,0.2909 0.5734,0.5819z" fill="#4f4f4f" stroke-width="0.14441"/><path d="M254.6507,184.6319v0c0.1433,0.1455 0.1433,0.2909 0.2867,0.4364c-0.2867,0.4364 -0.8601,0.5818 -1.2902,0.8727c-0.2867,-0.5818 -1.1468,-0.7273 -1.0034,-1.6c0,0 -0.1434,-0.1455 -0.2867,0c-0.5734,0.4364 -1.4335,0.4364 -1.8636,1.1637c-0.1433,-0.1455 -0.2867,-0.1455 -0.43,-0.1455c0,-0.1455 0,-0.2909 0,-0.2909c0.7167,-0.4364 1.4335,-1.0182 2.1502,-1.6001c0.5734,-0.2909 0.5734,0.4364 1.0035,0.4364c0.1433,0.1455 0.2867,0.2909 0.5734,0.4364c0,0.2909 0.2867,0.2909 0.43,0.2909c0.1434,0 0.4301,0 0.4301,0z" fill="#3d3d3d" stroke-width="0.14441"/><path d="M252.2137,183.4682v0c-0.7167,0.5819 -1.4335,1.1637 -2.1502,1.6001c-0.1434,-0.7273 0.5734,-1.1637 0.7167,-1.891c0,-0.2909 0.1434,-0.4364 0.1434,-0.7273c0.5734,0.2909 1.0034,0.4364 1.2901,1.0182z" fill="#737373" stroke-width="0.14441"/><path d="M250.7802,187.832v0c0.5734,0.2909 1.1468,0.5818 1.4335,1.1637c-0.7167,0.4363 -1.4335,1.0182 -2.1502,1.6c-0.1434,-0.7273 0.43,-1.1637 0.5734,-1.7455c0,-0.2909 0.1433,-0.7273 0.1433,-1.0182z" fill="#737373" stroke-width="0.14441"/><path d="M250.0635,190.5957v0c0.7167,-0.5818 1.4335,-1.1637 2.1502,-1.6c0.1434,0 0.2867,0 0.5734,0c0,0.2909 0,0.4363 0,0.5818c-0.8601,0.4364 -1.5768,0.8728 -2.1502,1.3091c-0.1434,0 -0.1434,0.1455 -0.1434,0.1455c-0.1433,-0.1455 -0.43,-0.1455 -0.43,-0.2909c0,-0.1455 0,-0.1455 0,-0.1455z" fill="#3d3d3d" stroke-width="0.14441"/><path d="M249.7768,185.6501v0c0.1433,0.5819 -0.1434,1.3091 0.5734,1.891c-0.4301,0 -0.8601,0 -1.1468,-0.5819c0,-0.5818 0,-1.0182 0.5734,-1.3091z" fill="#5d5d5d" stroke-width="0.14441"/><path d="M250.4935,185.5047v0c0.4301,-0.7273 1.2902,-0.7273 1.8636,-1.1637c0.1433,-0.1455 0.2867,0 0.2867,0c-0.1434,0.8727 0.7167,1.0182 1.0034,1.6c-0.2867,0.291 -0.5734,0.5819 -0.8601,0.8728c-0.1433,0 -0.43,0.1454 -0.5734,0c-0.5734,-0.5818 -1.2901,-0.7273 -1.7202,-1.3091z" fill="#303030" stroke-width="0.14441"/><path d="M250.4935,191.0321v0c0,0 0,-0.1455 0.1434,-0.1455c0.5734,-0.4363 1.2901,-0.8727 2.1502,-1.3091v0c-0.2867,0.8728 0.2867,1.3091 0.8601,1.7455c-0.1433,0.2909 -0.5734,0.5818 -0.8601,0.8728c-0.2867,0.2909 -0.5734,0.1454 -0.8601,-0.1455c-0.5734,-0.4364 -1.0034,-0.7273 -1.4335,-1.0182z" fill="#303030" stroke-width="0.14441"/><path d="M253.6472,191.323v0c-0.5734,-0.4364 -1.1468,-0.8727 -0.8601,-1.7455c0.5734,0.2909 1.0035,0.8728 1.4335,1.4546c-0.1433,0.2909 -0.43,0.2909 -0.5734,0.2909z" fill="#3d3d3d" stroke-width="0.14441"/><path d="M254.2206,184.6319v0c-0.1433,0 -0.43,0 -0.43,-0.2909c0.2867,0 0.2867,0.1454 0.43,0.2909z" fill="#19395d" stroke-width="0.14441"/><path d="M263.2957,181.0698v0c-0.13411,-0.59166 0.26813,-1.06495 1.07249,-1.53832c0.13401,-0.11828 0.40214,-0.23664 0.67026,-0.35493c0.26812,-0.11836 0.40223,-0.59166 0.80437,-0.47338c0.40223,0.11836 0.13411,0.59166 0.13411,0.94667c0,0.8283 -0.13411,1.41996 -1.07249,1.77497c-0.40223,0.11828 -0.67035,0.35501 -0.93848,0.59166c-0.26812,0.11828 -0.26813,0.23665 -0.53625,0.23665c-0.26812,-0.11836 0,-0.35501 0,-0.47329c-0.13401,-0.23673 -0.13402,-0.35501 -0.13402,-0.71002z" fill="#6c6c6c" stroke-width="0.14441"/><path d="M217.05419,169.44649c0,0.11828 0.20415,0.35492 0,0.47329c-0.20415,0 -0.20415,-0.11836 -0.4083,-0.23664c-0.20415,-0.23665 -0.4083,-0.47337 -0.71456,-0.59166c-0.7145,-0.35501 -0.8166,-0.94667 -0.8166,-1.77497c0,-0.35501 -0.20415,-0.8283 0.10211,-0.94667c0.30619,-0.11828 0.40831,0.35501 0.61246,0.47338c0.20415,0.11828 0.4083,0.23665 0.51034,0.35493c0.61245,0.47337 0.91872,0.94666 0.81661,1.53832v0c0,0.35501 0,0.4733 -0.10204,0.71002z" data-paper-data="{&quot;index&quot;:null}" fill="#6c6c6c" stroke-width="0.14441"/><path d="M222.27641,173.44649c0,0.11828 0.20415,0.35492 0,0.47329c-0.20415,0 -0.20415,-0.11836 -0.4083,-0.23664c-0.20415,-0.23665 -0.4083,-0.47337 -0.71456,-0.59166c-0.71449,-0.35501 -0.81661,-0.94667 -0.81661,-1.77497c0,-0.35501 -0.20415,-0.8283 0.10211,-0.94666c0.3062,-0.11828 0.40831,0.35501 0.61246,0.47337c0.20415,0.11828 0.4083,0.23665 0.51033,0.35493c0.61245,0.47337 0.91872,0.94666 0.81661,1.53832v0c0,0.35501 -0.00001,0.47329 -0.10205,0.71002z" data-paper-data="{&quot;index&quot;:null}" fill="#6c6c6c" stroke-width="0.14441"/><path d="M226.13266,173.055c0.42706,0.15556 0.83346,0.33431 1.14502,0.61992c0.03042,0.02789 0.06836,0.05006 0.08399,0.08786c0.12088,0.29238 0.27702,0.57758 0.20539,0.89946c-0.03311,0.14881 -0.02895,0.30267 -0.04169,0.45424c-0.10168,0.00847 -0.12556,-0.06256 -0.16789,-0.10731c-0.13152,-0.13908 -0.26058,-0.27956 -0.40153,-0.41298c-0.12217,-0.11565 -0.1237,-0.1151 -0.21124,0.02547c-0.11307,0.18158 -0.22006,0.36551 -0.33889,0.54483c-0.03149,0.04751 -0.07013,0.12074 -0.1567,0.03349c-0.10322,-0.20998 -0.14803,-0.43209 -0.22015,-0.64839c-0.0289,-0.08667 -0.06395,-0.17202 -0.09043,-0.25904c0.02891,-0.36208 -0.00924,-0.72751 0.08368,-1.0868c0.01543,-0.05965 0.02531,-0.12205 0.11043,-0.15073z" fill="#262626" stroke-width="1"/><path d="M249.63082,205.39678c-0.68533,-0.19438 -1.26773,-0.64867 -1.62314,-1.26606c-0.25386,-0.43538 -0.40158,-0.95238 0.45394,-0.91678c0.4293,0.01788 0.91831,-0.13423 1.27809,0.02359c0.74274,0.32579 1.53057,0.90553 1.40344,1.74576c-0.09275,0.61309 -0.8948,0.71289 -1.5123,0.41346z" data-paper-data="{&quot;index&quot;:null}" fill="#312a22" stroke-width="1"/><path d="M243.66841,199.94203c-0.34911,0.27346 -0.61305,0.23252 -0.8915,-0.04767c-0.71675,-0.72117 -1.01363,-1.6682 -1.42639,-2.55363c-0.09726,-0.20861 -0.17522,-0.42228 -0.46776,-0.40027c-0.08921,0.0117 -0.174,-0.04214 -0.20138,-0.12784c-0.28751,-0.71 -0.64371,-1.38951 -0.90473,-2.11285c-0.13653,-0.37834 -0.0664,-0.63395 0.24821,-0.85021c0.05187,-0.06751 0.12988,-0.06613 0.16112,-0.006c0.14343,0.27612 0.31255,0.54389 0.3652,0.83048c0.12756,-0.24239 0.19969,-0.55221 0.34805,-0.82865c0.05038,-0.09386 0.06147,-0.24632 0.23398,-0.21127c0.11979,0.11352 0.11353,0.26959 0.1471,0.41517c0.19749,0.85689 0.32445,1.72852 0.37962,2.60615c0.19748,-0.20956 0.17878,-0.50669 0.42103,-0.63018c0.17394,0.00952 0.19094,0.15562 0.22822,0.27398c0.07645,0.23669 0.14091,0.47709 0.1932,0.72028c0.05254,0.29152 0.24553,0.53837 0.51581,0.65964c0.21964,0.11117 0.45168,0.20813 0.64839,0.3635c0.07402,0.10694 0.10388,0.23832 0.0834,0.36674c-0.03591,0.51045 0.03054,1.02628 -0.08154,1.53267z" fill="#000000" stroke-width="1"/><path d="M228.23076,182.9067c0,0.12822 0.28092,0.38476 0,0.51308c-0.28092,0 -0.28092,-0.12831 -0.56183,-0.25653c-0.28092,-0.25654 -0.56183,-0.51316 -0.98325,-0.6414c-0.98316,-0.38485 -1.12368,-1.02625 -1.12368,-1.92418c0,-0.38485 -0.28092,-0.89793 0.14051,-1.02624c0.42134,-0.12822 0.56184,0.38485 0.84276,0.51316c0.28092,0.12822 0.56183,0.25654 0.70223,0.38477c0.84275,0.51316 1.26418,1.02624 1.12368,1.66764v0c0,0.38485 -0.00001,0.51308 -0.14042,0.76971z" data-paper-data="{&quot;index&quot;:null}" fill="#6c6c6c" stroke-width="0.14441"/><path d="M213.83627,187.48449c-0.6175,0.62428 -1.41955,0.41621 -1.5123,-0.86202c-0.12713,-1.7518 0.6607,-2.9605 1.40344,-3.63974c0.35978,-0.32904 0.84879,-0.0119 1.27809,-0.04918c0.85552,-0.07422 0.7078,1.00367 0.45394,1.91139c-0.35541,1.2872 -0.93781,2.23435 -1.62314,2.63961z" data-paper-data="{&quot;index&quot;:null}" fill="#312a22" stroke-width="1"/><path d="M275.5289,184.09954c0.01112,0.77362 -0.58821,1.3288 -1.413,0.83954c-1.13036,-0.67051 -1.39285,-1.83944 -1.36306,-2.73834c0.01442,-0.43543 0.49445,-0.68996 0.7257,-1.05272c0.46089,-0.72289 1.02288,-0.12806 1.41964,0.47731c0.56533,0.85474 0.79168,1.74253 0.63078,2.47422z" data-paper-data="{&quot;index&quot;:null}" fill="#312a22" stroke-width="1"/><path d="M227.78182,150.69448c0.98397,-0.76978 -2.645,-1.24768 -2.1815,-2.28207c0.50733,-1.13221 5.1085,-2.80338 6.33364,-3.14405c0.22892,-0.06364 2.81741,1.53963 3.04969,1.57844c1.79659,0.30021 5.17231,-3.89358 6.52653,-2.56304c0.62609,0.6151 -0.11638,5.36339 0.58525,5.88739c-0.26839,0.52253 -0.68814,0.42279 -1.03571,0.49325c-1.08011,0.21879 3.64483,3.64883 2.56364,3.93094c-0.93716,0.2445 -2.87312,6.91716 -2.4531,7.77305c0.54258,1.10555 -2.75524,-7.70248 -2.24124,-6.57567c0.13616,0.29857 0.37618,0.71043 -0.31378,0.86753c-1.34025,-0.13545 -2.56181,-0.59321 -3.83819,-0.89985c-0.51144,-0.12286 -4.04622,1.72241 -4.552,1.58667c-7.05527,-4.04163 -0.57112,-4.10529 -2.04324,-5.6538c-0.24439,-0.2571 -0.51913,-0.49547 -0.39992,-0.99867z" data-paper-data="{&quot;index&quot;:null}" fill="#5a5a5a" stroke-width="1"/><path d="M258.34749,162.062c-2.83726,1.09827 -3.62267,4.70162 -6.45111,4.63564c-0.27618,-0.00646 -2.61498,-2.66394 -2.86031,-2.78552c-1.89755,-0.94041 -7.06888,2.5862 -8.1265,0.64876c-0.48898,-0.89568 1.93977,-5.92802 1.336,-6.74784c0.47498,-0.49078 0.90832,-0.23813 1.31881,-0.19921c1.27557,0.12113 -2.82365,-5.28991 -1.52551,-5.23885c1.12521,0.04429 6.49907,5.58485 6.32064,4.49082c-0.23053,-1.41317 -0.50204,-2.81139 -0.69359,-4.23856c-0.05072,-0.37815 -0.17875,-0.9174 0.64192,-0.85931c1.44544,0.60308 2.65004,1.52468 3.96664,2.29666c0.52756,0.30932 5.08318,-0.55065 5.60009,-0.22891c6.48552,6.87805 -0.75021,4.76031 0.365,6.98005c0.18513,0.36854 0.41035,0.72648 0.10787,1.2461z" data-paper-data="{&quot;index&quot;:null}" fill="#262626" stroke-width="1"/></g><path d="M257.31599,184.20856v0c-0.16123,-0.81773 0.32235,-1.47187 1.28939,-2.12612c0.16111,-0.16348 0.48347,-0.32707 0.80581,-0.49054c0.32234,-0.16359 0.48358,-0.81773 0.96705,-0.65426c0.48357,0.16359 0.16123,0.81773 0.16123,1.30839c0,1.1448 -0.16123,1.96253 -1.28939,2.45319c-0.48357,0.16348 -0.80593,0.49066 -1.12827,0.81773c-0.32234,0.16348 -0.32235,0.32707 -0.6447,0.32707c-0.32234,-0.16359 0,-0.49066 0,-0.65414c-0.16111,-0.32718 -0.16112,-0.49066 -0.16112,-0.98132z" fill="#6c6c6c" stroke-width="0.14441"/><path d="M210.47533,152.6946v0c0,-0.291 0.2867,-0.4364 0.43,-0.5819c8.6011,-5.9638 17.2021,-11.7821 25.6598,-17.746c0.5734,-0.4363 1.0035,-0.4363 1.5769,0c9.6045,6.8366 19.0657,13.8186 28.6702,20.8007c1.2901,0.7273 2.4369,1.6 3.7271,2.4728c0.2867,0.2909 0.7167,0.4363 0.8601,0.7273c-0.2867,0.4363 -0.5734,0.5818 -1.0035,0.8727c-2.0069,1.4546 -4.0138,2.9092 -6.0207,4.3638c-0.7168,0.4364 -0.4301,0.7273 0,1.0182c0.8601,0.5818 1.7202,1.3091 2.5803,1.891c0.4301,0.2909 0.4301,0.4363 0,0.5818c-2.2936,1.7455 -4.7306,3.491 -7.1675,5.2365c-1.1468,0.7273 -2.1503,1.7455 -3.4404,2.3274c-0.2868,0 -0.4301,-0.1455 -0.5735,-0.291c-1.0034,-0.7273 -1.8635,-1.6 -3.1537,-2.0364c-1.4335,0.5819 -2.5803,1.6001 -3.8704,2.6183c-1.4336,0.8727 -2.8671,1.8909 -4.1572,2.9092c-1.1468,-0.8728 -2.1503,-1.7456 -3.2971,-2.4728c-1.1468,-0.7273 -2.1502,-1.7456 -3.4404,-2.3274c-0.8601,-0.8727 -2.0069,-1.6 -3.1537,-2.4728c-0.7168,-0.5818 -1.4335,-1.1637 -2.2936,-1.6c-0.1434,-0.291 -0.5734,-0.5819 -0.7168,-0.7273c-5.1606,-3.9274 -10.4646,-7.7094 -15.6252,-11.4913c-1.8636,-1.4546 -3.7272,-2.7637 -5.5907,-4.0728z" fill="#84807f" stroke-width="0.14441"/><path d="M210.47533,152.6946v0c1.8635,1.3091 3.7271,2.6182 5.5907,4.0728c5.1606,3.7819 10.4646,7.5639 15.6252,11.4913c0.1434,0.1454 0.5734,0.4363 0.7168,0.7273c0,1.0182 0,2.0364 0,3.0546c0,1.0182 0,1.891 0,2.9092c0,0.8727 0,1.8909 0.1433,2.7637c-0.1433,0.8728 -0.1433,1.7455 0,2.7637c0,0.8728 0,1.891 0,2.7637c0,0.8728 0,1.891 0,2.7638c0,0.8727 0,1.7455 0,2.6182c0,1.0182 0,1.891 0.1434,3.0547c0,0.7272 0,1.4545 0,2.1818c0,0.1455 -0.1434,0.1455 -0.1434,0.1455c-1.1468,-0.5818 -2.2936,-1.6001 -3.2971,-2.3273c-5.734,-4.2184 -11.3247,-8.5821 -16.9154,-12.8004c-1.4335,-1.0182 -1.2901,-2.1819 -1.4335,-3.3456c-0.1433,-0.1454 0,-0.2909 0,-0.2909c-0.1433,-3.2001 -0.1433,-6.5457 -0.2867,-9.7458c-0.1433,-2.0364 0.1434,-4.0728 -0.1433,-6.2547c-0.2867,-2.0364 0.1433,-4.2183 -0.2867,-6.4002c0,0 0.1433,-0.1454 0.2867,-0.1454zM222.66013,166.5132v0c-0.2867,-0.5819 0.1434,-1.3092 -0.43,-1.891c-0.5734,-0.7273 -1.2902,-1.0182 -2.007,-1.6001c-0.1433,-0.1454 -0.43,-0.2909 -0.43,0.1455c0,1.1637 -0.2867,2.4728 1.1468,3.0546c0.2867,0.291 0.7168,0.5819 1.0035,0.8728c0.1433,0 0.2867,0.2909 0.5734,0.1455c0.1433,-0.1455 0,-0.4364 0.1433,-0.7273zM225.38383,166.80409v0c-0.2867,1.7455 -0.1434,3.2001 1.4335,3.7819c0.43,0.2909 0.5734,0.8728 1.0034,0.5818c0.2867,-0.1454 0.1434,-0.7272 0.1434,-1.1636c-0.1434,-0.4364 0.1433,-1.0182 -0.2867,-1.4546c-0.5734,-0.5819 -1.4335,-1.1637 -2.2936,-1.7455zM225.52713,172.3315v0c-0.43,2.0364 -0.2867,2.6183 0.8601,3.491c0.4301,0.2909 1.0035,1.0182 1.4335,0.8728c0.4301,-0.1455 0.1434,-1.1637 0.1434,-1.7455c0,-0.2909 0.1433,-0.7273 -0.2867,-1.0182c-0.7168,-0.4364 -1.4335,-1.0182 -2.1503,-1.6001zM214.63253,159.6766v0c0,0.5818 0.1433,0.8727 0.1433,1.3091c0,0.4364 0,0.7273 0.2867,0.8728c0.7168,0.4364 1.2902,0.8727 1.8636,1.4546c0,0 0.2867,0.1454 0.43,0c0.1434,0 0,-0.1455 0,-0.291c0,-1.4545 -0.1433,-2.7637 -1.5768,-3.3455c-0.2867,-0.1455 -0.2867,-0.1455 -0.4301,-0.2909c-0.1433,-0.1455 -0.43,-0.4364 -0.5734,-0.2909c-0.2867,0.1454 0,0.4363 -0.1433,0.5818zM217.35613,169.1314v0c0,-0.4364 0,-0.5818 0,-0.7273c0.2867,-1.4546 -0.1433,-2.4728 -1.4335,-3.2001c-0.43,-0.1454 -0.7167,-0.7273 -1.0034,-0.5818c-0.2867,0.2909 -0.1434,0.8727 -0.1434,1.3091c0,0.4364 -0.1433,1.0182 0.2867,1.4546c0.7168,0.5818 1.5769,1.0182 2.2936,1.7455zM222.66013,171.4588v0c-0.1433,-0.291 0.2867,-1.0182 -0.2867,-1.4546c-0.7167,-0.4364 -1.2902,-0.8728 -2.0069,-1.3092c-0.2867,-0.2909 -0.4301,-0.2909 -0.4301,0.1455c-0.1433,1.3091 -0.1433,2.6183 1.4335,3.2001c0,0 0,0 0.1434,0.1455c0.2867,0.1454 0.7168,0.7273 1.0035,0.5818c0.2867,-0.2909 0,-0.7273 0.1433,-1.3091zM228.10743,182.5136v0c0.2867,-2.3273 0.1434,-2.6182 -1.2901,-3.6364c-0.4301,-0.2909 -0.8601,-0.8728 -1.2902,-0.7273c-0.2867,0.1454 0,0.8727 0,1.4546c0,0.4363 -0.2867,0.8727 0.1434,1.1636c0.8601,0.5819 1.5768,1.0182 2.4369,1.7455zM214.91923,170.0042v0c0,0.8727 0,1.6 0,2.3273c0,0.1455 0,0.2909 0.2867,0.4364c0.5734,0.5818 1.2901,1.1637 2.0069,1.6c0,0.1455 0.1433,0.1455 0.2867,0c0.1433,-0.1454 0.1433,-2.3273 -0.1434,-2.6182c-0.7167,-0.5819 -1.5768,-1.1637 -2.4369,-1.7455zM222.80353,178.5863v0c0,-0.4364 0,-0.5819 0,-0.8728c0.2867,-1.3091 -0.2867,-2.4728 -1.5769,-3.0546c-0.2867,-0.1455 -0.5734,-0.7273 -1.0035,-0.4364c-0.43,0 -0.1433,0.7273 -0.1433,1.0182c0,0.5818 -0.1434,1.1637 0.2867,1.6c0.7167,0.4364 1.5769,1.0183 2.437,1.7456zM225.52713,184.6955v0c-0.2867,1.0182 0.1434,1.4546 1.0035,2.0365c0.2867,0.2909 0.7167,0.5818 1.0034,0.7272c0.2867,0.291 0.5734,0.291 0.5734,-0.1454c0.1434,-1.3091 0.1434,-2.4728 -1.2901,-3.0547c0,0 -0.1434,-0.1454 -0.2867,-0.1454c-0.2867,-0.1455 -0.5734,-0.7273 -0.8601,-0.5818c-0.4301,0.1454 -0.1434,0.7272 -0.1434,1.1636zM215.06253,175.3862v0c0,0.4363 0,0.7272 0,0.8727c-0.1433,1.3091 0.1434,2.3274 1.5769,2.9092c0.2867,0.1454 0.5734,0.7273 1.0034,0.7273c0.2867,-0.2909 0,-0.8728 0,-1.3091c0,-0.4364 0.2867,-1.0183 -0.1433,-1.4546c-0.7168,-0.4364 -1.4335,-1.0183 -2.437,-1.7455zM222.80353,182.5136v0c-0.1434,-0.5818 0.2867,-1.1636 -0.2867,-1.6c-0.7168,-0.4364 -1.2902,-0.8728 -1.8636,-1.3091c-0.2867,-0.291 -0.5734,-0.291 -0.5734,0.2909c0.1433,1.1637 0,2.4728 1.4335,3.0546c0.1434,0 0.1434,0 0.1434,0.1455c0.2867,0.1454 0.7167,0.7273 1.1468,0.5818c0.2867,-0.2909 0,-0.7273 0,-1.1637z" fill="#b2aba2" stroke-width="0.14441"/><path d="M256.34763,174.6589v0c1.2901,-0.5819 2.2936,-1.6001 3.4404,-2.3274c2.4369,-1.7455 4.8739,-3.491 7.1675,-5.2365c0.2867,0.7273 0.4301,1.3091 0.4301,2.1819c0,0.5818 0,1.1637 0,1.6c0,0.7273 0,1.4546 0,2.0365c-0.5734,0.5818 -0.1434,1.1636 -0.1434,1.7455c0,0.5818 0,1.1636 0.1434,1.7455c-0.2867,0.7273 -0.1434,1.3091 -0.2867,2.0364c0,0.5818 0,1.1637 0,1.6c0,0.7273 0,1.3092 0,2.0365c0,0.5818 0,1.3091 0,1.8909c0,0.5819 -0.1434,1.1637 -0.1434,1.6001c0,0.5818 0.1434,1.3091 0.1434,1.8909c0,0.5819 -0.2867,1.3092 0,1.891c-0.2867,0.5818 -0.1434,1.4546 -0.2867,2.0364c0,0.4364 0,0.7273 -0.4301,1.0182c-3.2971,2.3274 -6.4508,4.6547 -9.6045,7.1275c-0.2867,0.1455 -0.43,0.5819 -1.0035,0.291c0.2867,-0.5819 0.4301,-1.4546 0,-1.891c-0.2867,-0.5818 -0.2867,-1.0182 -0.2867,-1.6001c0.1434,-0.5818 0.2867,-1.1636 0.2867,-1.7455c0,-0.5818 0.4301,-1.1636 0.2867,-1.7455c-0.7167,-1.3091 -0.43,-2.6182 -0.1433,-3.9274c0.1433,-0.8727 0.1433,-1.6 -0.1434,-2.4728c-0.1433,-0.2909 -0.2867,-0.5818 -0.1433,-1.1636c0.1433,-0.8728 0.2867,-1.891 0.2867,-2.9092c0.1433,-0.8728 -0.1434,-1.6001 -0.8601,-2.1819c0,0 0,0 0,-0.1455c0,-0.1454 0.1433,-0.5818 -0.2867,-0.5818c0,-0.4364 0,-0.7273 0,-1.0182c0.1433,-0.7273 -0.2867,-1.3091 -0.8601,-1.6001c-0.4301,-0.2909 -0.7168,-0.4363 -1.0035,-0.8727c0,-0.2909 0,-0.7273 -0.2867,-0.7273c-0.2867,0 -0.5734,0.4364 -0.43,0.8727c0,0.1455 0,0.291 -0.1434,0.291c-0.2867,0 -0.43,0.1454 -0.5734,0.2909c-0.5734,0.5818 -1.0034,1.3091 -1.8635,1.891c-1.0035,0.7272 -1.7202,1.7455 -2.437,2.9091c-0.5734,0.8728 -1.2902,1.7455 -1.8636,2.7637c-0.1433,0.291 -0.43,0.291 -0.7167,0.291c-0.1434,-2.1819 0,-4.5093 0,-6.6911c1.2901,-1.0183 2.7236,-2.0365 4.1572,-2.9092c0.2867,0.2909 0.8601,0.5818 0.8601,1.0182c0.2867,0.7273 0.5734,0.4364 0.8601,0.1454c0.8601,-0.7272 2.1502,-1.1636 1.8635,-2.9091c0.4301,0.4363 0.7168,0.5818 0.8601,0.8727c0.1434,0.2909 0.1434,0.4364 0.4301,0.2909c0,0.1455 0,0.1455 0,0.1455c0,0.1455 0,0.1455 0.2867,0.2909c0.8601,1.3091 1.4335,2.6183 2.1502,3.9274c0.1434,0 0.1434,0 0.2868,0c0,-1.4546 0,-2.7637 0,-4.0728zM257.49443,183.6773v0c0,0.4364 0,0.5818 0.1433,0.8728c0,0.1454 -0.2867,0.4363 0,0.5818c0.2867,0 0.2867,-0.1455 0.5734,-0.2909c0.2867,-0.2909 0.5734,-0.5819 1.0035,-0.7273c1.0034,-0.4364 1.1468,-1.1637 1.1468,-2.1819c0,-0.4364 0.2867,-1.0182 -0.1434,-1.1637c-0.43,-0.1454 -0.5734,0.4364 -0.8601,0.5819c-0.2867,0.1454 -0.5734,0.2909 -0.7167,0.4363c-0.8601,0.5819 -1.2902,1.1637 -1.1468,1.891zM257.49443,196.1868v0c0.43,-0.4364 1.0034,-0.8728 1.5768,-1.0182c1.2902,-0.7273 1.2902,-1.891 1.1468,-3.0547c0,-0.2909 -0.1433,-0.4363 -0.43,-0.2909c-2.1503,1.1637 -2.437,1.7455 -2.437,4.0729c0,0.1454 0,0.1454 0.1434,0.2909zM265.95213,171.1678v0c-1.0035,0.5819 -1.8636,1.1637 -2.5804,1.6001c-0.1433,0.1455 -0.1433,0.2909 -0.1433,0.5818c0,0.5819 0,1.1637 0,1.7455c0,0.4364 0.1433,0.4364 0.43,0.291c0.7168,-0.4364 1.2902,-0.8728 1.8636,-1.3092c0.1434,-0.1454 0.4301,-0.2909 0.4301,-0.5818c0,-0.7273 0,-1.4546 0,-2.3274zM265.80873,176.6953v0c-0.8601,0.5818 -1.7202,1.0182 -2.437,1.6c-0.1433,0.291 -0.2867,0.4364 -0.2867,0.7273c0,0.5819 0,1.1637 0,1.7455c0,0.4364 0.1434,0.4364 0.5734,0.1455c0.5734,-0.4364 1.1468,-0.8728 1.8636,-1.3091c0.1434,-0.291 0.2867,-0.291 0.2867,-0.5819c0,-0.7273 0,-1.4546 0,-2.3273zM265.66543,182.2227v0c-0.8602,0.5819 -1.5769,1.1637 -2.2937,1.7455c-0.2867,0 -0.2867,0.2909 -0.2867,0.4364c0,0.7273 0,1.4546 -0.1433,2.3274c1.7202,-0.8728 3.2971,-1.891 2.867,-4.3638c0,0 0,0 -0.1433,-0.1455zM260.36143,176.6953v0c0,-0.4364 0,-0.7273 0,-0.8728c0,-0.2909 0.1433,-0.4363 0,-0.5818c-0.2867,0 -0.4301,0.1455 -0.5734,0.2909c-0.4301,0.2909 -0.7168,0.5818 -1.2902,0.8728c-0.5734,0.2909 -0.8601,0.7273 -0.8601,1.6c0.1434,0.4364 -0.2867,1.1637 0.2867,1.4546c0.2867,0.1455 0.7168,-0.5818 1.1468,-0.8727c0.8601,-0.4364 1.7202,-0.8728 1.2902,-1.891zM257.49443,190.8048v0c1.0034,-0.7273 1.8635,-1.3091 2.5803,-1.891l0.1433,-0.2909c0,-0.7273 0,-1.3091 0,-1.8909c0,-0.291 -0.1433,-0.5819 -0.43,-0.291c-0.7168,0.5819 -1.4335,1.0182 -2.1503,1.6001v0.2909c-0.1433,0.8728 -0.1433,1.6 -0.1433,2.4728zM265.52203,189.2048v0c0,-0.291 0,-0.5819 0,-0.8728c0,-0.1455 0.1434,-0.4364 0,-0.5818c-0.2867,0 -0.43,0.1454 -0.5734,0.2909c-0.5734,0.2909 -1.0035,0.8727 -1.5769,1.1637c-0.43,0.2909 -0.5734,0.5818 -0.43,1.0182c0,0.5818 -0.2867,1.4546 0.1433,1.6c0.5734,0.2909 0.8601,-0.4364 1.4335,-0.7273c0.7168,-0.5818 1.2902,-1.0182 1.0035,-1.8909z" fill="#878787" stroke-width="0.14441"/><path d="M244.59283,177.859v0c0,2.1818 -0.1434,4.5092 0,6.6911v0.2909c0,6.1093 0,12.0731 0,18.1824c-0.1434,0 -0.2867,0 -0.4301,-0.1455c-1.8635,-1.3091 -3.7271,-2.7637 -5.5907,-4.0729c-0.1433,-0.1454 -0.43,-0.4363 -0.43,-0.7273c0,-0.4363 -0.1434,-0.8727 -0.1434,-1.3091c0,-2.3273 0.1434,-4.6547 -0.1433,-6.982c0,-0.2909 0,-0.7273 0,-1.1637c0,-0.2909 0,-0.7273 0,-1.1637c0.2867,-1.0182 0.2867,-2.0364 0,-3.0546c0,-0.4364 0,-0.7273 0,-1.1637c0,-0.4363 0,-0.8727 0,-1.3091c0.2867,-1.0182 0,-2.0364 0,-3.0546c0,-0.5819 0,-0.8728 0,-1.4546c0,-0.2909 0,-0.5819 0,-1.0182c0,-1.1637 0,-2.1819 0,-3.3456c1.2902,0.5818 2.2936,1.6001 3.4404,2.3274c1.1468,0.7272 2.1503,1.6 3.2971,2.4728z" fill="#b0a9a1" stroke-width="0.14441"/><path d="M267.38563,169.2769v0c0,-0.8728 -0.1434,-1.4546 -0.4301,-2.1819c0.4301,-0.1455 0.4301,-0.2909 0,-0.5818c-0.8601,-0.5819 -1.7202,-1.3092 -2.5803,-1.891c-0.4301,-0.2909 -0.7168,-0.5818 0,-1.0182c2.0069,-1.4546 4.0138,-2.9092 6.0207,-4.3638c0.4301,-0.2909 0.7168,-0.4364 1.0035,-0.8727c0.2867,0.2909 0.1433,0.7273 0.1433,1.0182c-0.1433,7.7093 -0.43,15.4186 -0.43,23.2734c-0.1434,0.7273 -0.2867,1.3091 -1.1468,1.7455c-0.7168,0.4364 -1.2902,1.0182 -2.0069,1.6001c-0.4301,-0.1455 -0.5734,-0.4364 -1.0035,-0.4364c0,-0.4364 0.1434,-1.0182 0.1434,-1.6001c0.5734,-0.1454 0.8601,-0.5818 1.2901,-0.8727c0.2867,-0.2909 0.2867,-1.7455 -0.1433,-2.1819c-0.2867,-0.4364 -0.5734,-0.5818 -1.1468,-0.8728c0,-0.4363 0,-1.0182 0,-1.6c1.5768,-0.5818 1.8635,-1.3091 1.5768,-2.6183c-0.2867,-0.7273 -0.8601,-1.0182 -1.4335,-1.1636c0,-0.5819 -0.43,-1.1637 0.1434,-1.7455c1.0034,-0.4364 1.2901,-0.8728 1.2901,-2.0365c0,-0.2909 0,-0.4363 0,-0.7273c-0.2867,-0.5818 -0.7167,-0.8727 -1.2901,-0.8727z" fill="#858585" stroke-width="0.14441"/><path d="M244.59283,203.0234v0c0,-6.1093 0,-12.0731 0,-18.1824v-0.2909c0.2867,0 0.5734,0 0.7167,-0.291c0.5734,-1.0182 1.2902,-1.8909 1.8636,-2.7637c0.7168,-1.1636 1.4335,-2.1819 2.437,-2.9091c0.8601,-0.5819 1.2901,-1.3092 1.8635,-1.891c0.1434,-0.1455 0.2867,-0.2909 0.5734,-0.2909c-0.1433,0.5818 -0.5734,1.1636 -0.8601,1.7455c-0.2867,0.5818 -1.0034,0.7273 -1.0034,1.6v0.1455c0,0 -0.1434,0.1454 -0.2867,0.1454c0,0.1455 0,0.1455 -0.1434,0.1455c-0.43,0.2909 -0.43,0.5818 -0.7167,1.0182c-0.4301,0.2909 -0.5734,0.8728 -0.5734,1.4546c0,0.8728 0.5734,1.7455 0.5734,2.6183c0,0.4363 0,0.7273 -0.1434,1.1636c-0.7167,0.8728 -1.1468,1.891 -0.2867,3.0547c0.1434,0.1454 0.1434,0.2909 0.1434,0.4363c0.1433,0.5819 0.1433,1.4546 0.1433,2.1819v0c-0.2867,0 -0.43,0.2909 -0.5734,0.5819c-0.43,0.8727 -0.1433,1.7455 0.2867,2.4728c0.2867,1.0182 0.4301,1.8909 -0.1433,2.7637c-0.4301,0.7273 -0.4301,1.4546 -0.1434,2.3273c-1.2902,0.8728 -2.437,1.891 -3.7271,2.7638z" fill="#858585" stroke-width="0.14441"/><path d="M237.85533,189.7866v0c0.2867,2.3273 0.1433,4.6547 0.1433,6.982c0,0.4364 0.1434,0.8728 0.1434,1.3091c-1.5769,-0.8727 -2.867,-2.0364 -4.3005,-3.0546c-0.2867,-0.2909 -0.7168,-0.7273 -1.1468,-0.8727c0,0 0,-0.1455 0,-0.291c0,-0.7273 0,-1.4546 0,-2.1818c0,-0.1455 0,-0.1455 0,-0.1455c0.43,0.2909 0.8601,0.5818 1.2901,0.8727c0.5734,0.4364 1.1468,0.8728 1.8636,1.3092c0.5734,0.5818 1.1468,1.0182 2.0069,1.6c0,-0.4363 0,-0.8727 0,-1.1636c0.1433,-0.4364 0,-0.8728 -0.2867,-1.1637c-0.8601,-0.8728 -1.5769,-2.0364 -2.867,-2.6183c-0.1434,-0.1454 -0.1434,-0.2909 -0.4301,-0.2909c-0.43,-0.5818 -1.0034,-0.8727 -1.7202,-1.4546c0,-0.8727 0,-1.7455 0,-2.6182h0.1434c0.2867,0.1454 0.5734,0.5818 1.0034,0.7273c0.7168,0.5818 1.5769,1.1636 2.437,1.7455c0.5734,0.5818 1.1468,1.0182 1.7202,1.3091z" fill="#757575" stroke-width="0.14441"/><path d="M255.05743,180.1863v0c0.7167,0.5818 1.0034,1.3091 0.8601,2.1819c0,1.0182 -0.1434,2.0364 -0.2867,2.9092c-0.1434,0.5818 0,0.8727 0.1433,1.1636c0.2867,0.8728 0.2867,1.6001 0.1434,2.4728c-0.2867,1.3092 -0.5734,2.6183 0.1433,3.9274c0.1434,0.5819 -0.2867,1.1637 -0.2867,1.7455c0,0.5819 -0.1433,1.1637 -0.2867,1.7455c0,0.5819 0,1.0183 0.2867,1.6001c0.4301,0.4364 0.2867,1.3091 0,1.891c-0.43,-0.291 -0.8601,-0.5819 -1.2901,-1.0183c0.5734,-0.5818 0.43,-1.4545 0.43,-2.3273c-0.1433,0 -0.2867,-0.1455 -0.43,-0.2909c0,-0.4364 0,-0.8728 0,-1.3091c0.1433,-0.5819 0.1433,-1.0183 -0.4301,-1.3092c0.7168,-0.2909 1.0035,-0.8727 0.8601,-1.7455c0,-0.1454 0,-0.4364 0,-0.5818c0,-0.1455 -0.1433,-0.4364 -0.43,-0.4364c0,-0.5818 0,-1.1637 0.1433,-1.6c0,-0.5819 -0.1433,-0.8728 -0.5734,-1.0183c0.1434,-0.2909 0.4301,-0.2909 0.7168,-0.4363c0.43,-0.4364 0.43,-1.7455 0,-2.3274c0,-0.1454 -0.1434,-0.1454 -0.1434,-0.2909c-0.1433,-0.8728 0.2867,-1.7455 -0.43,-2.4728c0.8601,-0.5818 1.0034,-1.3091 0.8601,-2.1819c0,0 0,-0.1454 0,-0.2909z" fill="#7d7d7d" stroke-width="0.14441"/><path d="M248.31993,200.2596v0c-0.2867,-0.8727 -0.2867,-1.6 0.1434,-2.3273c0.5734,-0.8728 0.43,-1.7455 0.1433,-2.7637c-0.43,-0.7273 -0.7167,-1.6001 -0.2867,-2.4728c0.1434,-0.291 0.2867,-0.5819 0.5734,-0.5819c0,1.1637 0.7168,1.7455 1.4335,1.4546c0.2867,0.1455 0.4301,0.4364 0.5734,0.5819c-0.2867,0.7273 -1.0034,1.4545 -1.0034,2.3273c-0.1434,0 -0.2867,0.2909 -0.1434,0.2909c0,0.8728 -0.43,1.7455 0.5734,2.1819c-0.8601,0.2909 -1.2901,1.0182 -2.0069,1.3091z" fill="#7d7d7d" stroke-width="0.14441"/><path d="M250.32683,198.9505v0c-1.0034,-0.4364 -0.5734,-1.3091 -0.5734,-2.1819c0.1434,0.1455 0.4301,0.1455 0.5734,0.2909c0.4301,0.291 0.8601,0.5819 1.4335,1.0182c0.2867,0.1455 0.5734,0.291 0.8601,0.1455c0.2867,-0.2909 0.7168,-0.5818 0.8601,-0.8727c0.2867,0 0.5734,-0.1455 0.5734,-0.5819c0.2867,0 0.5734,-0.1454 0.8601,-0.2909c0,0.8728 0.1434,1.7455 -0.43,2.3273c-0.7168,0.1455 -1.1468,0.7273 -1.8636,1.3092c-0.2867,0.2909 -0.5734,0.2909 -1.0034,0c-0.4301,-0.4364 -0.8601,-0.7273 -1.2902,-1.1637z" fill="#5c5c5c" stroke-width="0.14441"/><path d="M267.09893,189.3502v0c-0.2867,-0.5818 0,-1.3091 0,-1.891c0.5734,0 0.7167,-0.7272 1.2901,-0.8727c0,0.1455 0,0.1455 0,0.2909c0.2867,1.1637 -0.1433,2.0364 -1.2901,2.4728z" fill="#5c5c5c" stroke-width="0.14441"/><path d="M268.38903,186.5865v0c-0.5734,0.1455 -0.7167,0.8727 -1.2901,0.8727c0,-0.5818 -0.1434,-1.3091 -0.1434,-1.8909c0.4301,0 0.5734,0.2909 1.0035,0.4364c0,0.2909 0.43,0.2909 0.43,0.5818z" fill="#3d3d3d" stroke-width="0.14441"/><path d="M232.69473,193.8594v0c0,0.1455 0,0.291 0,0.291l-0.1434,-0.1455c0,0 0.1434,0 0.1434,-0.1455z" fill="#818488" stroke-width="0.14441"/><path d="M237.85533,173.0588v0c0,1.1637 0,2.1819 0,3.3456c0,0 -0.1434,0 -0.2867,0c0,-0.291 -0.1434,-0.4364 -0.4301,-0.4364c-0.5734,-0.8728 -1.4335,-1.4546 -2.2936,-2.0364c0,-0.1455 -0.2867,-0.291 -0.5734,-0.4364c-0.43,-0.5818 -1.2901,-1.0182 -1.8635,-1.4546c0,-1.0182 0,-2.0364 0,-3.0546c0.8601,0.4363 1.5768,1.0182 2.2936,1.6c1.1468,0.8728 2.2936,1.6001 3.1537,2.4728z" fill="#757575" stroke-width="0.14441"/><path d="M256.34763,174.6589v0c0,1.3091 0,2.6182 0,4.0728c-0.1434,0 -0.1434,0 -0.2868,0c-0.7167,-1.3091 -1.2901,-2.6183 -2.1502,-3.9274c0,-0.1454 0,-0.2909 -0.2867,-0.2909v-0.1455c-0.1434,-0.7273 -0.7168,-1.3091 -1.0035,-2.0364c1.2902,0.4364 2.1503,1.3091 3.1537,2.0364c0.1434,0.1455 0.2867,0.291 0.5735,0.291z" fill="#b2aba2" stroke-width="0.14441"/><path d="M252.62043,172.3315v0c0.2867,0.7273 0.8601,1.3091 1.0035,2.0364c-0.2867,0.1455 -0.2867,0 -0.4301,-0.2909c-0.1433,-0.2909 -0.43,-0.4364 -0.8601,-0.8727c0.2867,1.7455 -1.0034,2.1819 -1.8635,2.9091c-0.2867,0.291 -0.5734,0.5819 -0.8601,-0.1454c0,-0.4364 -0.5734,-0.7273 -0.8601,-1.0182c1.2901,-1.0182 2.4369,-2.0364 3.8704,-2.6183z" fill="#515151" stroke-width="0.14441"/><path d="M237.85533,184.4046v0c0.2867,1.0182 0.2867,2.0364 0,3.0546c-0.4301,-0.1454 -0.8601,-0.4363 -1.0035,-0.7272c-0.43,-0.7273 -1.1468,-1.1637 -1.7202,-1.6001c-0.2867,-0.2909 -0.5734,-0.2909 -0.8601,-0.4364c-0.43,-0.7273 -1.0034,-1.0182 -1.7202,-1.4546c0,-0.8727 0,-1.8909 0,-2.7637c0,0 0,0 0.1434,0c0.2867,0.2909 0.5734,0.5819 1.1468,0.7273c0.43,0.5818 1.0034,0.8728 1.5768,1.3091c0.7168,0.7273 1.5769,1.1637 2.437,1.891z" fill="#757575" stroke-width="0.14441"/><path d="M237.85533,178.8772v0c0,1.0182 0.2867,2.0364 0,3.0546c-1.1468,-0.7273 -1.7202,-1.7455 -3.0104,-2.3273c0,-0.291 -0.2867,-0.4364 -0.5734,-0.5819c-0.43,-0.5818 -1.1468,-0.8727 -1.7202,-1.3091c-0.1433,-0.8728 -0.1433,-1.891 -0.1433,-2.7637h0.1433c0.4301,0.2909 0.8601,0.5818 1.2902,0.8727c0.5734,0.5819 1.2901,1.0182 2.0069,1.4546c0.5734,0.5819 1.2901,1.0182 2.0069,1.6001z" fill="#757575" stroke-width="0.14441"/><path d="M222.66013,166.5132v0c-0.1433,0.2909 0,0.5818 -0.1433,0.7273c-0.2867,0.1454 -0.4301,-0.1455 -0.5734,-0.1455c-0.2867,-0.2909 -0.7168,-0.5818 -1.0035,-0.8728c-1.4335,-0.5818 -1.1468,-1.8909 -1.1468,-3.0546c0,-0.4364 0.2867,-0.2909 0.43,-0.1455c0.7168,0.5819 1.4336,0.8728 2.007,1.6001c0.5734,0.5818 0.1433,1.3091 0.43,1.891z" fill="#807ba1" stroke-width="0.14441"/><path d="M225.38383,166.80409v0c0.8601,0.5818 1.7202,1.1636 2.2936,1.7455c0.43,0.4364 0.1433,1.0182 0.2867,1.4546c0,0.4364 0.1433,1.0182 -0.1434,1.1636c-0.43,0.291 -0.5734,-0.2909 -1.0034,-0.5818c-1.5769,-0.5818 -1.7202,-2.0364 -1.4335,-3.7819z" fill="#807ba1" stroke-width="0.14441"/><path d="M225.52713,172.34261v0c0.7168,0.5819 1.4335,1.1637 2.1503,1.6001c0.43,0.2909 0.2867,0.7273 0.2867,1.0182c0,0.5818 0.2867,1.6 -0.1434,1.7455c-0.43,0.1454 -1.0034,-0.5819 -1.4335,-0.8728c-1.1468,-0.8727 -1.2901,-1.4546 -0.8601,-3.491z" fill="#807ba1" stroke-width="0.14441"/><path d="M214.63253,159.6766v0c0.1433,-0.1455 -0.1434,-0.4364 0.1433,-0.5818c0.1434,-0.1455 0.4301,0.1454 0.5734,0.2909c0.1434,0.1454 0.1434,0.1454 0.4301,0.2909c1.4335,0.5818 1.5768,1.891 1.5768,3.3455c0,0.1455 0.1434,0.291 0,0.291c-0.1433,0.1454 -0.43,0 -0.43,0c-0.5734,-0.5819 -1.1468,-1.0182 -1.8636,-1.4546c-0.2867,-0.1455 -0.2867,-0.4364 -0.2867,-0.8728c0,-0.4364 -0.1433,-0.7273 -0.1433,-1.3091z" fill="#6e6c7f" stroke-width="0.14441"/><path d="M217.35613,169.1314v0c-0.7167,-0.7273 -1.5768,-1.1637 -2.2936,-1.7455c-0.43,-0.4364 -0.2867,-1.0182 -0.2867,-1.4546c0,-0.4364 -0.1433,-1.0182 0.1434,-1.3091c0.2867,-0.1455 0.5734,0.4364 1.0034,0.5818c1.2902,0.7273 1.7202,1.7455 1.4335,3.2001c0,0.1455 0,0.2909 0,0.7273z" fill="#2f2c42" stroke-width="0.14441"/><path d="M222.66013,171.4588v0c-0.1433,0.5818 0.1434,1.0182 -0.1433,1.3091c-0.2867,0.1455 -0.7168,-0.4364 -1.0035,-0.5818c-0.1434,-0.1455 -0.1434,-0.1455 -0.1434,-0.1455c-1.5768,-0.5818 -1.5768,-1.891 -1.4335,-3.2001c0,-0.4364 0.1434,-0.4364 0.4301,-0.1455c0.7167,0.4364 1.2902,0.8728 2.0069,1.3092c0.5734,0.4364 0.1434,1.1636 0.2867,1.4546z" fill="#807ba1" stroke-width="0.14441"/><path d="M228.09027,182.72471v0c-0.98171,-0.83013 -1.79974,-1.32812 -2.78145,-1.9923c-0.49091,-0.33203 -0.16368,-0.83013 -0.16368,-1.32812c0,-0.66417 -0.32724,-1.49431 0,-1.66027c0.49091,-0.16607 0.98171,0.4981 1.47262,0.83013c1.63618,1.16216 1.79974,1.49419 1.47251,4.15055z" fill="#807ba1" stroke-width="0.14441"/><path d="M214.85279,169.8042v0c0.91993,0.62226 1.83985,1.24454 2.6064,1.86691c0.30664,0.31114 0.30664,2.6448 0.15337,2.80031c-0.15337,0.15562 -0.30664,0.15562 -0.30664,0c-0.76666,-0.46665 -1.53321,-1.08902 -2.14649,-1.71129c-0.30664,-0.15562 -0.30664,-0.31114 -0.30664,-0.46675c0,-0.77789 0,-1.55577 0,-2.48917z" fill="#807ba1" stroke-width="0.14441"/><path d="M223.0712,178.8863v0c-0.94182,-0.7964 -1.88374,-1.43358 -2.66853,-1.91145c-0.47097,-0.47776 -0.31394,-1.11493 -0.31394,-1.75202c0,-0.31854 -0.31394,-1.11493 0.15692,-1.11493c0.47097,-0.31854 0.7849,0.31854 1.09884,0.47786c1.41277,0.63707 2.04066,1.91133 1.72672,3.34481c0,0.31854 0,0.47786 0,0.95572z" fill="#807ba1" stroke-width="0.14441"/><path d="M225.33615,184.42091v0c0,-0.47843 -0.31431,-1.11626 0.15721,-1.27567c0.31431,-0.15951 0.62862,0.47832 0.94294,0.63783c0.1571,0 0.31431,0.1594 0.31431,0.1594c1.57156,0.63794 1.57156,1.91372 1.41435,3.3489c0,0.47843 -0.31431,0.47843 -0.62862,0.1594c-0.31431,-0.1594 -0.78572,-0.47832 -1.10004,-0.79724c-0.94294,-0.63794 -1.41446,-1.11637 -1.10015,-2.23263z" fill="#8e8ba1" stroke-width="0.14441"/><path d="M215.06253,175.3862v0c1.0035,0.7272 1.7202,1.3091 2.437,1.7455c0.43,0.4363 0.1433,1.0182 0.1433,1.4546c0,0.4363 0.2867,1.0182 0,1.3091c-0.43,0 -0.7167,-0.5819 -1.0034,-0.7273c-1.4335,-0.5818 -1.7202,-1.6001 -1.5769,-2.9092c0,-0.1455 0,-0.4364 0,-0.8727z" fill="#56526c" stroke-width="0.14441"/><path d="M222.80353,182.5136v0c0,0.4364 0.2867,0.8728 0,1.1637c-0.4301,0.1455 -0.8601,-0.4364 -1.1468,-0.5818c0,-0.1455 0,-0.1455 -0.1434,-0.1455c-1.4335,-0.5818 -1.2902,-1.8909 -1.4335,-3.0546c0,-0.5819 0.2867,-0.5819 0.5734,-0.2909c0.5734,0.4363 1.1468,0.8727 1.8636,1.3091c0.5734,0.4364 0.1433,1.0182 0.2867,1.6z" fill="#282538" stroke-width="0.14441"/><path d="M232.55133,177.7135v0c0.5734,0.4364 1.2902,0.7273 1.7202,1.3091c-0.5734,0.5819 -1.0034,0.8728 -1.5768,1.4546c-0.1434,0 -0.1434,0 -0.1434,0c-0.1433,-1.0182 -0.1433,-1.8909 0,-2.7637z" fill="#818488" stroke-width="0.14441"/><path d="M232.55133,174.9498v0h-0.1433c0,-1.0182 0,-1.891 0,-2.9092c0.5734,0.4364 1.4335,0.8728 1.8635,1.4546c-0.43,0.5818 -1.2901,0.7273 -1.7202,1.4546z" fill="#818488" stroke-width="0.14441"/><path d="M232.69473,191.5321v0c0,0 0,0 0,0.1455c-0.1434,-1.1637 -0.1434,-2.0365 -0.1434,-3.0547c0.7168,0.5819 1.2902,0.8728 1.7202,1.4546c-0.1433,0.2909 -0.43,0.4364 -0.5734,0.5818c-0.43,0.291 -0.8601,0.4364 -1.0034,0.8728z" fill="#818488" stroke-width="0.14441"/><path d="M232.55133,183.2409v0c0.7168,0.4364 1.2902,0.7273 1.7202,1.4546c-0.43,0.4364 -1.1468,0.5819 -1.5768,1.3092h-0.1434c0,-0.8728 0,-1.891 0,-2.7638z" fill="#818488" stroke-width="0.14441"/><path d="M255.05743,180.1863v0c0,0.1455 0,0.2909 0,0.2909c0.1433,0.8728 0,1.6001 -0.8601,2.1819c-1.2902,0.5818 -1.5769,0.8728 -1.1468,1.7455c-0.4301,0 -0.4301,-0.7273 -1.0035,-0.4364c-0.2867,-0.5818 -0.7167,-0.7273 -1.2901,-1.0182c0,-0.2909 -0.2867,-0.2909 -0.4301,-0.2909c-0.43,-0.4364 -0.5734,-0.8728 -0.43,-1.4546c0,-0.2909 0,-0.7273 -0.1434,-1.0182c0.1434,0 0.1434,0 0.1434,-0.1455c0.5734,0.7273 1.2901,0.8728 1.7202,1.4546c0.5734,0.4364 1.0034,0.2909 1.4335,-0.1454c0.1433,-0.1455 0.2867,-0.2909 0.43,-0.4364c0.5734,-0.1455 1.0035,-0.7273 1.4335,-0.8728h0.1434c0,0.1455 0,0.1455 0,0.1455z" fill="#5c5c5c" stroke-width="0.14441"/><path d="M257.49443,182.84397v0c-0.1434,-0.7273 0.2867,-1.3091 1.1468,-1.891c0.1433,-0.1454 0.43,-0.2909 0.7167,-0.4363c0.2867,-0.1455 0.4301,-0.7273 0.8601,-0.5819c0.4301,0.1455 0.1434,0.7273 0.1434,1.1637c0,1.0182 -0.1434,1.7455 -1.1468,2.1819c-0.4301,0.1454 -0.7168,0.4364 -1.0035,0.7273c-0.2867,0.1454 -0.2867,0.2909 -0.5734,0.2909c-0.2867,-0.1455 0,-0.4364 0,-0.5818c-0.1433,-0.291 -0.1433,-0.4364 -0.1433,-0.8728z" fill="#363949" stroke-width="0.14441"/><path d="M257.49443,196.1868v0c-0.1434,-0.1455 -0.1434,-0.1455 -0.1434,-0.2909c0,-2.3274 0.2867,-2.9092 2.437,-4.0729c0.2867,-0.1454 0.43,0 0.43,0.2909c0.1434,1.1637 0.1434,2.3274 -1.1468,3.0547c-0.5734,0.1454 -1.1468,0.5818 -1.5768,1.0182z" fill="#3c4688" stroke-width="0.14441"/><path d="M265.95213,171.1678v0c0,0.8728 0,1.6001 0,2.3274c0,0.2909 -0.2867,0.4364 -0.4301,0.5818c-0.5734,0.4364 -1.1468,0.8728 -1.8636,1.3092c-0.2867,0.1454 -0.43,0.1454 -0.43,-0.291c0,-0.5818 0,-1.1636 0,-1.7455c0,-0.2909 0,-0.4363 0.1433,-0.5818c0.7168,-0.4364 1.5769,-1.0182 2.5804,-1.6001z" fill="#0f0f12" stroke-width="0.14441"/><path d="M265.80873,176.6953v0c0,0.8727 0,1.6 0,2.3273c0,0.2909 -0.1433,0.2909 -0.2867,0.5819c-0.7168,0.4363 -1.2902,0.8727 -1.8636,1.3091c-0.43,0.2909 -0.5734,0.2909 -0.5734,-0.1455c0,-0.5818 0,-1.1636 0,-1.7455c0,-0.2909 0.1434,-0.4363 0.2867,-0.7273c0.7168,-0.5818 1.5769,-1.0182 2.437,-1.6z" fill="#3c4688" stroke-width="0.14441"/><path d="M265.66543,182.2227v0c0.1433,0.1455 0.1433,0.1455 0.1433,0.1455c0.4301,2.4728 -1.1468,3.491 -2.867,4.3638c0.1433,-0.8728 0.1433,-1.6001 0.1433,-2.3274c0,-0.1455 0,-0.4364 0.2867,-0.4364c0.7168,-0.5818 1.4335,-1.1636 2.2937,-1.7455z" fill="#3c4688" stroke-width="0.14441"/><path d="M260.36143,176.6953v0c0.43,1.0182 -0.4301,1.4546 -1.2902,1.891c-0.43,0.2909 -0.8601,1.0182 -1.1468,0.8727c-0.5734,-0.2909 -0.1433,-1.0182 -0.2867,-1.4546c0,-0.8727 0.2867,-1.3091 0.8601,-1.6c0.5734,-0.291 0.8601,-0.5819 1.2902,-0.8728c0.1433,-0.1454 0.2867,-0.2909 0.5734,-0.2909c0.1433,0.1455 0,0.2909 0,0.5818c0,0.1455 0,0.4364 0,0.8728z" fill="#3c4688" stroke-width="0.14441"/><path d="M257.49443,190.8048v0c0,-0.8728 0,-1.6 0.1433,-2.4728v-0.2909c0.7168,-0.5819 1.4335,-1.0182 2.1503,-1.6001c0.2867,-0.2909 0.43,0 0.43,0.291c0,0.5818 0,1.1636 0,1.8909l-0.1433,0.2909c-0.7168,0.5819 -1.5769,1.1637 -2.5803,1.891z" fill="#181920" stroke-width="0.14441"/><path d="M265.52203,189.2048v0c0.2867,0.8727 -0.2867,1.3091 -1.0035,1.8909c-0.5734,0.2909 -0.8601,1.0182 -1.4335,0.7273c-0.43,-0.1454 -0.1433,-1.0182 -0.1433,-1.6c-0.1434,-0.4364 0,-0.7273 0.43,-1.0182c0.5734,-0.291 1.0035,-0.8728 1.5769,-1.1637c0.1434,-0.1455 0.2867,-0.2909 0.5734,-0.2909c0.1434,0.1454 0,0.4363 0,0.5818c0,0.2909 0,0.5818 0,0.8728z" fill="#3c4688" stroke-width="0.14441"/><path d="M252.90713,175.968v0c0.2867,0.4364 0.5734,0.5818 1.0035,0.8727c0.5734,0.291 1.0034,0.8728 0.8601,1.6001c0,0.2909 0,0.5818 0,1.0182c0,0.1455 0,0.1455 0,0.2909c-0.5734,0.1455 -0.8601,-0.1454 -1.2902,-0.5818c-0.2867,-0.2909 -0.5734,-0.5818 -1.0034,-1.0182c0,-0.7273 0.1433,-1.4546 0.1433,-2.0365c0,-0.1454 0,-0.1454 0.2867,-0.1454z" fill="#737373" stroke-width="0.14441"/><path d="M268.67573,175.8225v0c0.2867,1.3092 0,2.0365 -1.5768,2.6183c0.1433,-0.7273 0,-1.3091 0.2867,-2.0364c0.43,0 0.7167,-0.5819 1.2901,-0.5819z" fill="#5c5c5c" stroke-width="0.14441"/><path d="M268.24573,180.9136v0c0.43,0.4364 0.43,1.891 0.1433,2.1819c-0.43,0.2909 -0.7167,0.7273 -1.2901,0.8727c0,-0.5818 0,-1.3091 0,-1.8909c0.5734,-0.291 1.0034,-0.5819 1.1468,-1.1637z" fill="#5c5c5c" stroke-width="0.14441"/><path d="M252.62043,176.1134v0c0,0.5819 -0.1433,1.3092 -0.1433,2.0365c-0.8601,0.4364 -1.4335,1.1636 -2.2936,1.6c0,-0.8727 0.7167,-1.0182 1.0034,-1.6c0.2867,-0.5819 0.7168,-1.1637 0.8601,-1.7455c0.1434,0 0.1434,-0.1455 0.1434,-0.291c0.1433,0 0.1433,0 0.43,0z" fill="#737373" stroke-width="0.14441"/><path d="M268.67573,170.1496v0c0,0.291 0,0.4364 0,0.7273c0,1.1637 -0.2867,1.6001 -1.2901,2.0365c0,-0.5819 0,-1.3092 0,-2.0365c0.5734,0 0.7167,-0.5818 1.2901,-0.7273z" fill="#5c5c5c" stroke-width="0.14441"/><path d="M268.67573,170.1496v0c-0.5734,0.1455 -0.7167,0.7273 -1.2901,0.7273c0,-0.4363 0,-1.0182 0,-1.6c0.5734,0 1.0034,0.2909 1.2901,0.8727z" fill="#3d3d3d" stroke-width="0.14441"/><path d="M268.24573,180.9136v0c-0.1434,0.5818 -0.5734,0.8727 -1.1468,1.1637c0,-0.7273 0,-1.3092 0,-2.0365c0.5734,0.291 0.8601,0.4364 1.1468,0.8728z" fill="#3d3d3d" stroke-width="0.14441"/><path d="M268.67573,175.8225v0c-0.5734,0 -0.8601,0.5819 -1.2901,0.5819c-0.1434,-0.5819 -0.1434,-1.1637 -0.1434,-1.7455c0.5734,0.1454 1.1468,0.4363 1.4335,1.1636z" fill="#3d3d3d" stroke-width="0.14441"/><path d="M252.62043,176.1134v0c-0.2867,0 -0.2867,0 -0.43,0c-0.1434,-0.4363 0.1433,-0.8727 0.43,-0.8727c0.2867,0 0.2867,0.4364 0.2867,0.7273c-0.2867,0 -0.2867,0 -0.2867,0.1454z" fill="#6c6c6c" stroke-width="0.14441"/><path d="M254.77073,179.7499v0c0,-0.1454 0,-0.1454 0,-0.2909c0.43,0 0.2867,0.4364 0.2867,0.5818h-0.1434c-0.1433,-0.1454 -0.1433,-0.1454 -0.1433,-0.2909z" fill="#59687c" stroke-width="0.14441"/><path d="M253.62393,174.5134v0c0.2867,0 0.2867,0.1455 0.2867,0.2909c-0.2867,-0.1454 -0.2867,-0.1454 -0.2867,-0.2909z" fill="#818488" stroke-width="0.14441"/><path d="M235.13163,185.1319v0c0.5734,0.4364 1.2902,0.8728 1.7202,1.6001c0.1434,0.2909 0.5734,0.5818 1.0035,0.7272c0,0.4364 0,0.8728 0,1.1637c-0.2867,0 -0.4301,0 -0.5734,-0.2909c-0.4301,-0.2909 -0.8601,-0.4364 -1.1468,0.1455c-0.8601,-0.5819 -1.7202,-1.1637 -2.437,-1.7455c0.4301,-0.5819 1.0035,-1.0183 1.4335,-1.6001z" fill="#3d3d3d" stroke-width="0.14441"/><path d="M235.84843,177.2771v0c-0.7168,-0.4364 -1.4335,-0.8727 -2.0069,-1.4546c0.43,-0.5818 0.8601,-1.1636 1.0034,-1.8909c0.8601,0.5818 1.7202,1.1636 2.2936,2.0364c0,0.2909 0.1434,0.4364 0.4301,0.4364c0.1433,0 0.2867,0 0.2867,0c0,0.4363 0,0.7273 0,1.0182c-0.1434,0 -0.2867,0 -0.4301,0c-0.5734,-0.1455 -1.0034,-0.5819 -1.5768,-0.1455z" fill="#3d3d3d" stroke-width="0.14441"/><path d="M234.84493,179.6045v0c1.2902,0.5818 1.8636,1.6 3.0104,2.3273c0,0.4364 0,0.8728 0,1.3091c-0.1434,0 -0.2867,-0.1454 -0.4301,-0.2909c-0.5734,-0.5818 -1.2901,-0.7273 -2.0069,-0.4364c-0.5734,-0.4363 -1.1468,-0.7273 -1.5768,-1.3091c0.2867,-0.4364 1.0034,-0.7273 1.0034,-1.6z" fill="#3d3d3d" stroke-width="0.14441"/><path d="M235.41833,182.5136v0c0.7168,-0.2909 1.4335,-0.1454 2.0069,0.4364c0.1434,0.1455 0.2867,0.2909 0.4301,0.2909c0,0.4364 0,0.7273 0,1.1637c-0.8601,-0.7273 -1.7202,-1.1637 -2.437,-1.891z" fill="#4f4f4f" stroke-width="0.14441"/><path d="M235.84843,177.2771v0c0.5734,-0.4364 1.0034,0 1.5768,0.1455c0.1434,0 0.2867,0 0.4301,0c0,0.5818 0,0.8727 0,1.4546c-0.7168,-0.5819 -1.4335,-1.0182 -2.0069,-1.6001z" fill="#4f4f4f" stroke-width="0.14441"/><path d="M236.13513,188.4775v0c0.2867,-0.5819 0.7167,-0.4364 1.1468,-0.1455c0.1433,0.2909 0.2867,0.2909 0.5734,0.2909c0,0.4364 0,0.8728 0,1.1637c-0.5734,-0.2909 -1.1468,-0.7273 -1.7202,-1.3091z" fill="#4f4f4f" stroke-width="0.14441"/><path d="M250.32683,182.6591v0c0.1434,0 0.4301,0 0.4301,0.2909c0,0.2909 -0.1434,0.4364 -0.1434,0.7273c-0.1433,0.7273 -0.8601,1.1637 -0.7167,1.891c0,0 0,0.1454 0,0.2909c-0.1434,0 -0.1434,0.1455 -0.2867,0.2909c-0.5734,0.2909 -0.5734,0.7273 -0.5734,1.3091c0.2867,0.5819 0.7167,0.5819 1.1468,0.5819c0.2867,0 0.2867,0.1454 0.43,0.2909c0,0.2909 -0.1433,0.7273 -0.1433,1.0182c-0.1434,0.5818 -0.7168,1.0182 -0.5734,1.7455c0,0 0,0 0,0.1455c-0.1434,0.1454 -0.1434,0.1454 -0.2867,0.1454c-0.2867,0 -0.2867,0.5819 -0.7168,0.7273c0,-0.7273 0,-1.6 -0.1433,-2.1819c0,-0.1454 0,-0.2909 -0.1434,-0.4363c-0.8601,-1.1637 -0.43,-2.1819 0.2867,-3.0547c0.1434,-0.4363 0.1434,-0.7273 0.1434,-1.1636c0,-0.8728 -0.5734,-1.7455 -0.5734,-2.6183c0,-0.5818 0.1433,-1.1637 0.5734,-1.4546c-0.1434,0.7273 0.5734,1.0182 0.8601,1.4546c0.1433,0.2909 0.2867,0.1455 0.43,0z" fill="#7d7d7d" stroke-width="0.14441"/><path d="M253.48053,180.9136v0c-0.1433,0.1455 -0.2867,0.2909 -0.43,0.4364c-0.4301,0.4363 -0.8601,0.5818 -1.4335,0.1454c-0.4301,-0.5818 -1.1468,-0.7273 -1.7202,-1.4546c0.1433,0 0.2867,-0.1454 0.2867,-0.1454c0.7167,0 1.2901,-0.4364 1.8635,-1.0182c0.1434,0 0.4301,-0.4364 0.4301,0.1454c0.1433,0.7273 0.5734,1.3092 1.0034,1.891z" fill="#303030" stroke-width="0.14441"/><path d="M253.48053,180.9136v0c-0.43,-0.5818 -0.8601,-1.1637 -1.0034,-1.891c0,-0.5818 -0.2867,-0.1454 -0.4301,-0.1454c-0.5734,0.5818 -1.1468,1.0182 -1.8635,1.0182v-0.1455c0.8601,-0.4364 1.4335,-1.1636 2.2936,-1.6c0.43,0.4364 0.7167,0.7273 1.0034,1.0182c0.4301,0.4364 0.7168,0.7273 1.2902,0.5818c0,0.1455 0,0.1455 0.1433,0.2909c-0.43,0.1455 -0.8601,0.7273 -1.4335,0.8728z" fill="#4f4f4f" stroke-width="0.14441"/><path d="M248.89333,192.1139v0c0.4301,-0.1454 0.4301,-0.7273 0.7168,-0.7273c0.1433,0.7273 -0.2867,1.7455 0.7167,2.1819c-0.7167,0.2909 -1.4335,-0.2909 -1.4335,-1.4546z" fill="#737373" stroke-width="0.14441"/><path d="M250.32683,182.6591v0c-0.1433,0.1455 -0.2867,0.2909 -0.43,0c-0.2867,-0.4364 -1.0035,-0.7273 -0.8601,-1.4546c0.2867,-0.4364 0.2867,-0.7273 0.7167,-1.0182c0.1434,0.2909 0.1434,0.7273 0.1434,1.0182c-0.1434,0.5818 0,1.0182 0.43,1.4546z" fill="#2f2f2f" stroke-width="0.14441"/><path d="M234.70163,190.3684v0c1.2901,0.5819 2.0069,1.7455 2.867,2.6183c0.2867,0.2909 0.43,0.7273 0.2867,1.1637c-0.2867,0 -0.4301,-0.1455 -0.5734,-0.291c-0.5734,-0.2909 -1.0035,-0.5818 -1.4335,-0.1454c-0.7168,-0.4364 -1.2902,-0.8728 -1.8636,-1.3092c0.2867,-0.7272 0.7168,-1.3091 0.7168,-2.0364z" fill="#3d3d3d" stroke-width="0.14441"/><path d="M235.13163,185.1319v0c-0.43,0.5818 -1.0034,1.0182 -1.4335,1.6001c-0.43,-0.1455 -0.7167,-0.5819 -1.0034,-0.7273c0.43,-0.7273 1.1468,-0.8728 1.5768,-1.3092c0.2867,0.1455 0.5734,0.1455 0.8601,0.4364z" fill="#4f4f4f" stroke-width="0.14441"/><path d="M234.70163,190.3684v0c0,0.7273 -0.4301,1.3092 -0.7168,2.0364c-0.43,-0.2909 -0.8601,-0.5818 -1.2901,-0.8727c0.1433,-0.4364 0.5734,-0.5818 1.0034,-0.8728c0.1434,-0.1454 0.4301,-0.2909 0.5734,-0.5818c0.2867,0 0.2867,0.1455 0.4301,0.2909z" fill="#4f4f4f" stroke-width="0.14441"/><path d="M235.84843,193.714v0c0.43,-0.4364 0.8601,-0.1455 1.4335,0.1454c0.1433,0.1455 0.2867,0.291 0.5734,0.291c0,0.2909 0,0.7273 0,1.1636c-0.8601,-0.5818 -1.4335,-1.0182 -2.0069,-1.6z" fill="#4f4f4f" stroke-width="0.14441"/><path d="M249.61013,186.1501v0c0.1433,-0.1454 0.1433,-0.2909 0.2867,-0.2909c0.1433,0 0.2867,0 0.43,0.1455c0.4301,0.5818 1.1468,0.7273 1.7202,1.3091c0.1434,0.1454 0.4301,0 0.5734,0c0.2867,-0.2909 0.5734,-0.5818 0.8601,-0.8728c0.4301,-0.2909 1.0035,-0.4363 1.2902,-0.8727c0,-0.1455 0,-0.1455 0,-0.1455c0.43,0.5819 0.43,1.891 0,2.3274c-0.2867,0.1454 -0.5734,0.1454 -0.7168,0.4363c-0.5734,0.291 -1.1468,0.5819 -1.4335,1.3092v0c-0.2867,0 -0.43,0 -0.5734,0c-0.2867,-0.5819 -0.8601,-0.8728 -1.4335,-1.1637c-0.1433,-0.1455 -0.1433,-0.2909 -0.43,-0.2909c-0.7168,-0.5819 -0.4301,-1.3091 -0.5734,-1.891z" fill="#5c5c5c" stroke-width="0.14441"/><path d="M250.32683,193.5685v0c-1.0034,-0.4364 -0.5734,-1.4546 -0.7167,-2.1819c0.1433,0 0.1433,0 0.2867,-0.1454c0,0.1454 0.2867,0.1454 0.43,0.2909c0.4301,0.2909 0.8601,0.5818 1.4335,1.0182c0.2867,0.2909 0.5734,0.4364 0.8601,0.1455c0.2867,-0.291 0.7168,-0.5819 0.8601,-0.8728c0.1434,0 0.4301,0 0.5734,-0.2909c0.2867,-0.1455 0.4301,-0.4364 0.8601,-0.2909c0,0.1454 0,0.4364 0,0.5818c0.1434,0.8728 -0.1433,1.4546 -0.8601,1.7455c-0.43,0.4364 -1.1468,0.5819 -1.4335,1.3092c0,0 0,0 -0.1433,0c-0.1434,0 -0.4301,0 -0.5734,0c-0.1434,-0.4364 -0.5734,-0.5819 -1.0035,-0.7273c-0.1433,-0.1455 -0.2867,-0.4364 -0.5734,-0.5819z" fill="#5c5c5c" stroke-width="0.14441"/><path d="M252.62043,194.8777v0c0.2867,-0.7273 1.0035,-0.8728 1.4335,-1.3092c0.5734,0.2909 0.5734,0.7273 0.4301,1.3092c0,0.4363 0,0.8727 0,1.3091c-0.7168,-0.1455 -1.2902,-0.5819 -1.8636,-1.3091z" fill="#737373" stroke-width="0.14441"/><path d="M253.05053,184.4046v0c-0.4301,-0.8727 -0.1434,-1.1637 1.1468,-1.7455c0.7167,0.7273 0.2867,1.6 0.43,2.4728c-0.1433,0 -0.1433,0 -0.1433,0c0,0 -0.2867,0 -0.4301,0c-0.1433,-0.1455 -0.1433,-0.2909 -0.43,-0.2909c-0.2867,-0.1455 -0.4301,-0.2909 -0.5734,-0.4364z" fill="#737373" stroke-width="0.14441"/><path d="M252.62043,189.4957v0c0.2867,-0.7273 0.8601,-1.0182 1.4335,-1.3092c0.4301,0.1455 0.5734,0.4364 0.5734,1.0183c-0.1433,0.4363 -0.1433,1.0182 -0.1433,1.6c-0.7168,-0.2909 -1.1468,-0.8728 -1.8636,-1.3091z" fill="#737373" stroke-width="0.14441"/><path d="M252.62043,194.8777v0c0.5734,0.7272 1.1468,1.1636 1.8636,1.3091c0.1433,0.1454 0.2867,0.2909 0.43,0.2909c-0.2867,0.1455 -0.5734,0.2909 -0.8601,0.2909c-0.8601,-0.2909 -1.4335,-0.8727 -1.5768,-1.8909c0.1433,0 0.1433,0 0.1433,0z" fill="#4f4f4f" stroke-width="0.14441"/><path d="M252.62043,189.4957v0c0.7168,0.4363 1.1468,1.0182 1.8636,1.3091c0.2867,0 0.43,0.2909 0.43,0.4364c-0.43,-0.1455 -0.5734,0.1454 -0.8601,0.2909c-0.43,-0.5818 -0.8601,-1.1637 -1.4335,-1.4546v0c0,-0.1455 0,-0.2909 0,-0.5818z" fill="#4f4f4f" stroke-width="0.14441"/><path d="M254.62733,185.1319v0c0,0.1455 0.1434,0.1455 0.1434,0.2909v0.1455c-0.1434,-0.1455 -0.1434,-0.2909 -0.2867,-0.4364z" fill="#333974" stroke-width="0.14441"/><path d="M252.47713,194.8777v0c0.1433,1.0182 0.7167,1.6 1.5768,1.8909c0,0.4364 -0.2867,0.5819 -0.5734,0.5819c-0.5734,-0.4364 -1.1468,-0.7273 -1.1468,-1.4546c0,-0.1455 0,-0.291 -0.2867,-0.291c-0.5734,0.4364 -1.2901,0.5819 -1.7202,1.4546c-0.1433,-0.1454 -0.43,-0.1454 -0.5734,-0.2909c-0.1433,0 0,-0.2909 0.1434,-0.2909c0.7167,-0.4364 1.2901,-1.0182 2.0069,-1.6c0.1433,0 0.43,0 0.5734,0z" fill="#3d3d3d" stroke-width="0.14441"/><path d="M251.90373,194.8777v0c-0.7168,0.5818 -1.2902,1.1636 -2.0069,1.6c0,-0.8728 0.7167,-1.6 1.0034,-2.3273c0.4301,0.1454 0.8601,0.2909 1.0035,0.7273z" fill="#494949" stroke-width="0.14441"/><path d="M250.32683,197.0595v0c0.4301,-0.8727 1.1468,-1.0182 1.7202,-1.4546c0.2867,0 0.2867,0.1455 0.2867,0.291c0,0.7273 0.5734,1.0182 1.1468,1.4546c-0.1433,0.2909 -0.5734,0.5818 -0.8601,0.8727c-0.2867,0.1455 -0.5734,0 -0.8601,-0.1455c-0.5734,-0.4363 -1.0034,-0.7272 -1.4335,-1.0182z" fill="#303030" stroke-width="0.14441"/><path d="M234.84493,173.9316v0c-0.1433,0.7273 -0.5734,1.3091 -1.0034,1.8909c-0.4301,-0.2909 -0.8601,-0.5818 -1.2902,-0.8727c0.4301,-0.7273 1.2902,-0.8728 1.7202,-1.4546c0.2867,0.1454 0.5734,0.2909 0.5734,0.4364z" fill="#4f4f4f" stroke-width="0.14441"/><path d="M237.56863,176.4044v0c-0.2867,0 -0.4301,-0.1455 -0.4301,-0.4364c0.2867,0 0.4301,0.1454 0.4301,0.4364z" fill="#17324e" stroke-width="0.14441"/><path d="M234.84493,179.6045v0c0,0.8727 -0.7167,1.1636 -1.0034,1.6c-0.5734,-0.1454 -0.8601,-0.4364 -1.1468,-0.7273c0.5734,-0.5818 1.0034,-0.8727 1.5768,-1.4546c0.2867,0.1455 0.5734,0.2909 0.5734,0.5819z" fill="#4f4f4f" stroke-width="0.14441"/><path d="M254.48403,185.1319v0c0.1433,0.1455 0.1433,0.2909 0.2867,0.4364c-0.2867,0.4364 -0.8601,0.5818 -1.2902,0.8727c-0.2867,-0.5818 -1.1468,-0.7273 -1.0034,-1.6c0,0 -0.1434,-0.1455 -0.2867,0c-0.5734,0.4364 -1.4335,0.4364 -1.8636,1.1637c-0.1433,-0.1455 -0.2867,-0.1455 -0.43,-0.1455c0,-0.1455 0,-0.2909 0,-0.2909c0.7167,-0.4364 1.4335,-1.0182 2.1502,-1.6001c0.5734,-0.2909 0.5734,0.4364 1.0035,0.4364c0.1433,0.1455 0.2867,0.2909 0.5734,0.4364c0,0.2909 0.2867,0.2909 0.43,0.2909c0.1434,0 0.4301,0 0.4301,0z" fill="#3d3d3d" stroke-width="0.14441"/><path d="M252.04703,183.9682v0c-0.7167,0.5819 -1.4335,1.1637 -2.1502,1.6001c-0.1434,-0.7273 0.5734,-1.1637 0.7167,-1.891c0,-0.2909 0.1434,-0.4364 0.1434,-0.7273c0.5734,0.2909 1.0034,0.4364 1.2901,1.0182z" fill="#737373" stroke-width="0.14441"/><path d="M250.61353,188.332v0c0.5734,0.2909 1.1468,0.5818 1.4335,1.1637c-0.7167,0.4363 -1.4335,1.0182 -2.1502,1.6c-0.1434,-0.7273 0.43,-1.1637 0.5734,-1.7455c0,-0.2909 0.1433,-0.7273 0.1433,-1.0182z" fill="#737373" stroke-width="0.14441"/><path d="M249.89683,191.0957v0c0.7167,-0.5818 1.4335,-1.1637 2.1502,-1.6c0.1434,0 0.2867,0 0.5734,0c0,0.2909 0,0.4363 0,0.5818c-0.8601,0.4364 -1.5768,0.8728 -2.1502,1.3091c-0.1434,0 -0.1434,0.1455 -0.1434,0.1455c-0.1433,-0.1455 -0.43,-0.1455 -0.43,-0.2909c0,-0.1455 0,-0.1455 0,-0.1455z" fill="#3d3d3d" stroke-width="0.14441"/><path d="M249.61013,186.1501v0c0.1433,0.5819 -0.1434,1.3091 0.5734,1.891c-0.4301,0 -0.8601,0 -1.1468,-0.5819c0,-0.5818 0,-1.0182 0.5734,-1.3091z" fill="#5d5d5d" stroke-width="0.14441"/><path d="M250.32683,186.0047v0c0.4301,-0.7273 1.2902,-0.7273 1.8636,-1.1637c0.1433,-0.1455 0.2867,0 0.2867,0c-0.1434,0.8727 0.7167,1.0182 1.0034,1.6c-0.2867,0.291 -0.5734,0.5819 -0.8601,0.8728c-0.1433,0 -0.43,0.1454 -0.5734,0c-0.5734,-0.5818 -1.2901,-0.7273 -1.7202,-1.3091z" fill="#303030" stroke-width="0.14441"/><path d="M250.32683,191.5321v0c0,0 0,-0.1455 0.1434,-0.1455c0.5734,-0.4363 1.2901,-0.8727 2.1502,-1.3091v0c-0.2867,0.8728 0.2867,1.3091 0.8601,1.7455c-0.1433,0.2909 -0.5734,0.5818 -0.8601,0.8728c-0.2867,0.2909 -0.5734,0.1454 -0.8601,-0.1455c-0.5734,-0.4364 -1.0034,-0.7273 -1.4335,-1.0182z" fill="#303030" stroke-width="0.14441"/><path d="M253.48053,191.823v0c-0.5734,-0.4364 -1.1468,-0.8727 -0.8601,-1.7455c0.5734,0.2909 1.0035,0.8728 1.4335,1.4546c-0.1433,0.2909 -0.43,0.2909 -0.5734,0.2909z" fill="#3d3d3d" stroke-width="0.14441"/><path d="M254.05393,185.1319v0c-0.1433,0 -0.43,0 -0.43,-0.2909c0.2867,0 0.2867,0.1454 0.43,0.2909z" fill="#19395d" stroke-width="0.14441"/><path d="M263.12903,181.5698v0c-0.13411,-0.59166 0.26813,-1.06495 1.07249,-1.53832c0.13401,-0.11828 0.40214,-0.23664 0.67026,-0.35493c0.26812,-0.11836 0.40223,-0.59166 0.80437,-0.47338c0.40223,0.11836 0.13411,0.59166 0.13411,0.94667c0,0.8283 -0.13411,1.41996 -1.07249,1.77497c-0.40223,0.11828 -0.67035,0.35501 -0.93848,0.59166c-0.26812,0.11828 -0.26813,0.23665 -0.53625,0.23665c-0.26812,-0.11836 0,-0.35501 0,-0.47329c-0.13401,-0.23673 -0.13402,-0.35501 -0.13402,-0.71002z" fill="#6c6c6c" stroke-width="0.14441"/><path d="M216.88752,169.94649c0,0.11828 0.20415,0.35492 0,0.47329c-0.20415,0 -0.20415,-0.11836 -0.4083,-0.23664c-0.20415,-0.23665 -0.4083,-0.47337 -0.71456,-0.59166c-0.7145,-0.35501 -0.8166,-0.94667 -0.8166,-1.77497c0,-0.35501 -0.20415,-0.8283 0.10211,-0.94667c0.30619,-0.11828 0.40831,0.35501 0.61246,0.47338c0.20415,0.11828 0.4083,0.23665 0.51034,0.35493c0.61245,0.47337 0.91872,0.94666 0.81661,1.53832v0c0,0.35501 0,0.4733 -0.10204,0.71002z" data-paper-data="{&quot;index&quot;:null}" fill="#6c6c6c" stroke-width="0.14441"/><path d="M222.10974,173.94649c0,0.11828 0.20415,0.35492 0,0.47329c-0.20415,0 -0.20415,-0.11836 -0.4083,-0.23664c-0.20415,-0.23665 -0.4083,-0.47337 -0.71456,-0.59166c-0.71449,-0.35501 -0.81661,-0.94667 -0.81661,-1.77497c0,-0.35501 -0.20415,-0.8283 0.10211,-0.94666c0.3062,-0.11828 0.40831,0.35501 0.61246,0.47337c0.20415,0.11828 0.4083,0.23665 0.51033,0.35493c0.61245,0.47337 0.91872,0.94666 0.81661,1.53832v0c0,0.35501 -0.00001,0.47329 -0.10205,0.71002z" data-paper-data="{&quot;index&quot;:null}" fill="#6c6c6c" stroke-width="0.14441"/><path d="M225.96599,173.555c0.42706,0.15556 0.83346,0.33431 1.14502,0.61992c0.03042,0.02789 0.06836,0.05006 0.08399,0.08786c0.12088,0.29238 0.27702,0.57758 0.20539,0.89946c-0.03311,0.14881 -0.02895,0.30267 -0.04169,0.45424c-0.10168,0.00847 -0.12556,-0.06256 -0.16789,-0.10731c-0.13152,-0.13908 -0.26058,-0.27956 -0.40153,-0.41298c-0.12217,-0.11565 -0.1237,-0.1151 -0.21124,0.02547c-0.11307,0.18158 -0.22006,0.36551 -0.33889,0.54483c-0.03149,0.04751 -0.07013,0.12074 -0.1567,0.03349c-0.10322,-0.20998 -0.14803,-0.43209 -0.22015,-0.64839c-0.0289,-0.08667 -0.06395,-0.17202 -0.09043,-0.25904c0.02891,-0.36208 -0.00924,-0.72751 0.08368,-1.0868c0.01543,-0.05965 0.02531,-0.12205 0.11043,-0.15073z" fill="#262626" stroke-width="1"/><path d="M249.46415,205.89678c-0.68533,-0.19438 -1.26773,-0.64867 -1.62314,-1.26606c-0.25386,-0.43538 -0.40158,-0.95238 0.45394,-0.91678c0.4293,0.01788 0.91831,-0.13423 1.27809,0.02359c0.74274,0.32579 1.53057,0.90553 1.40344,1.74576c-0.09275,0.61309 -0.8948,0.71289 -1.5123,0.41346z" data-paper-data="{&quot;index&quot;:null}" fill="#312a22" stroke-width="1"/><path d="M243.50174,200.44203c-0.34911,0.27346 -0.61305,0.23252 -0.8915,-0.04767c-0.71675,-0.72117 -1.01363,-1.6682 -1.42639,-2.55363c-0.09726,-0.20861 -0.17522,-0.42228 -0.46776,-0.40027c-0.08921,0.0117 -0.174,-0.04214 -0.20138,-0.12784c-0.28751,-0.71 -0.64371,-1.38951 -0.90473,-2.11285c-0.13653,-0.37834 -0.0664,-0.63395 0.24821,-0.85021c0.05187,-0.06751 0.12988,-0.06613 0.16112,-0.006c0.14343,0.27612 0.31255,0.54389 0.3652,0.83048c0.12756,-0.24239 0.19969,-0.55221 0.34805,-0.82865c0.05038,-0.09386 0.06147,-0.24632 0.23398,-0.21127c0.11979,0.11352 0.11353,0.26959 0.1471,0.41517c0.19749,0.85689 0.32445,1.72852 0.37962,2.60615c0.19748,-0.20956 0.17878,-0.50669 0.42103,-0.63018c0.17394,0.00952 0.19094,0.15562 0.22822,0.27398c0.07645,0.23669 0.14091,0.47709 0.1932,0.72028c0.05254,0.29152 0.24553,0.53837 0.51581,0.65964c0.21964,0.11117 0.45168,0.20813 0.64839,0.3635c0.07402,0.10694 0.10388,0.23832 0.0834,0.36674c-0.03591,0.51045 0.03054,1.02628 -0.08154,1.53267z" fill="#000000" stroke-width="1"/><path d="M228.06409,183.4067c0,0.12822 0.28092,0.38476 0,0.51308c-0.28092,0 -0.28092,-0.12831 -0.56183,-0.25653c-0.28092,-0.25654 -0.56183,-0.51316 -0.98325,-0.6414c-0.98316,-0.38485 -1.12368,-1.02625 -1.12368,-1.92418c0,-0.38485 -0.28092,-0.89793 0.14051,-1.02624c0.42134,-0.12822 0.56184,0.38485 0.84276,0.51316c0.28092,0.12822 0.56183,0.25654 0.70223,0.38477c0.84275,0.51316 1.26418,1.02624 1.12368,1.66764v0c0,0.38485 -0.00001,0.51308 -0.14042,0.76971z" data-paper-data="{&quot;index&quot;:null}" fill="#6c6c6c" stroke-width="0.14441"/><path d="M213.6696,187.98449c-0.6175,0.62428 -1.41955,0.41621 -1.5123,-0.86202c-0.12713,-1.7518 0.6607,-2.9605 1.40344,-3.63974c0.35978,-0.32904 0.84879,-0.0119 1.27809,-0.04918c0.85552,-0.07422 0.7078,1.00367 0.45394,1.91139c-0.35541,1.2872 -0.93781,2.23435 -1.62314,2.63961z" data-paper-data="{&quot;index&quot;:null}" fill="#312a22" stroke-width="1"/><path d="M275.36223,184.59954c0.01112,0.77362 -0.58821,1.3288 -1.413,0.83954c-1.13036,-0.67051 -1.39285,-1.83944 -1.36306,-2.73834c0.01442,-0.43543 0.49445,-0.68996 0.7257,-1.05272c0.46089,-0.72289 1.02288,-0.12806 1.41964,0.47731c0.56533,0.85474 0.79168,1.74253 0.63078,2.47422z" data-paper-data="{&quot;index&quot;:null}" fill="#312a22" stroke-width="1"/><path d="M227.61515,151.19448c0.98397,-0.76978 -2.645,-1.24768 -2.1815,-2.28207c0.50733,-1.13221 5.1085,-2.80338 6.33364,-3.14405c0.22892,-0.06364 2.81741,1.53963 3.04969,1.57844c1.79659,0.30021 5.17231,-3.89358 6.52653,-2.56304c0.62609,0.6151 -0.11638,5.36339 0.58525,5.88739c-0.26839,0.52253 -0.68814,0.42279 -1.03571,0.49325c-1.08011,0.21879 3.64483,3.64883 2.56364,3.93094c-0.93716,0.2445 -2.87312,6.91716 -2.4531,7.77305c0.54258,1.10555 -2.75524,-7.70248 -2.24124,-6.57567c0.13616,0.29857 0.37618,0.71043 -0.31378,0.86753c-1.34025,-0.13545 -2.56181,-0.59321 -3.83819,-0.89985c-0.51144,-0.12286 -4.04622,1.72241 -4.552,1.58667c-7.05527,-4.04163 -0.57112,-4.10529 -2.04324,-5.6538c-0.24439,-0.2571 -0.51913,-0.49547 -0.39992,-0.99867z" data-paper-data="{&quot;index&quot;:null}" fill="#5a5a5a" stroke-width="1"/><path d="M258.18082,162.562c-2.83726,1.09827 -3.62267,4.70162 -6.45111,4.63564c-0.27618,-0.00646 -2.61498,-2.66394 -2.86031,-2.78552c-1.89755,-0.94041 -7.06888,2.5862 -8.1265,0.64876c-0.48898,-0.89568 1.93977,-5.92802 1.336,-6.74784c0.47498,-0.49078 0.90832,-0.23813 1.31881,-0.19921c1.27557,0.12113 -2.82365,-5.28991 -1.52551,-5.23885c1.12521,0.04429 6.49907,5.58485 6.32064,4.49082c-0.23053,-1.41317 -0.50204,-2.81139 -0.69359,-4.23856c-0.05072,-0.37815 -0.17875,-0.9174 0.64192,-0.85931c1.44544,0.60308 2.65004,1.52468 3.96664,2.29666c0.52756,0.30932 5.08318,-0.55065 5.60009,-0.22891c6.48552,6.87805 -0.75021,4.76031 0.365,6.98005c0.18513,0.36854 0.41035,0.72648 0.10787,1.2461z" data-paper-data="{&quot;index&quot;:null}" fill="#262626" stroke-width="1"/></g></g></svg>