<svg version="1.1" xmlns="http://www.w3.org/2000/svg" xmlns:xlink="http://www.w3.org/1999/xlink" width="78.9929" height="61.0581" viewBox="0,0,78.9929,61.0581"><g transform="translate(-200.60789,-149.59152)"><g data-paper-data="{&quot;isPaintingLayer&quot;:true}" fill-rule="nonzero" stroke-linejoin="miter" stroke-miterlimit="10" stroke-dasharray="" stroke-dashoffset="0" style="mix-blend-mode: normal"><path d="M234.84568,210.14962l44.2551,-34.02336" fill="#b5b5b5" stroke="#999999" stroke-width="1" stroke-linecap="round"/><path d="M201.88006,176.24121l43.13499,33.15976" data-paper-data="{&quot;index&quot;:null}" fill="#e8e8e8" stroke="#d8d8d8" stroke-width="2" stroke-linecap="round"/><path d="M278.68107,184.54714l-5.20489,3.9722l-44.76192,-34.391l5.20489,-4.07675" fill="#c2c1ba" stroke="none" stroke-width="1.02139" stroke-linecap="butt"/><path d="M200.96343,175.5574l5.20489,-3.9722l44.76202,34.49554l-5.20489,3.9722" fill="#c2c1ba" stroke="none" stroke-width="1.02139" stroke-linecap="butt"/><g stroke="none" stroke-linecap="butt"><path d="M233.85922,208.43445l-31.85392,-24.46047" fill="#000000" stroke-width="1.02139"/><path d="M201.45859,184.64875l1.20329,-1.57632l31.80964,24.48495l-1.20329,1.57632z" fill="#2c2d2e" stroke-width="1.0213"/></g><g stroke="none" stroke-linecap="butt"><g fill="#000000"><path d="M211.68642,177.70204l30.91698,24.46047" stroke-width="1.02139"/><path d="M211.40963,177.98271l0.64499,-0.82046l30.88489,24.48233l-0.64499,0.82046z" stroke-width="1.02123"/></g><g fill="#2c2d2e" stroke-width="1.02139"><path d="M241.97884,202.99876l-30.91708,-24.46047l1.24921,-1.67247l30.91698,24.56493l-1.24911,1.56804"/><path d="M210.4372,178.64282l1.76964,-2.40427l31.74979,25.19218l-1.76964,2.40427zM212.41509,177.5975l-0.62466,0.73169l30.08428,23.83333l0.62455,-0.7318z"/></g></g><g fill="#000000" stroke="none" stroke-linecap="butt"><g><path d="M251.65986,195.26343l-30.81285,-24.46058" stroke-width="1.02139"/><path d="M220.55504,171.06916l0.64499,-0.82046l30.88499,24.48221l-0.64499,0.82046z" stroke-width="1.02123"/></g><g stroke-width="1.02139"><path d="M251.13944,196.09967l-30.91698,-24.56502l1.14498,-1.56804l30.91708,24.46047l-1.14508,1.67257"/><path d="M219.49367,171.63919l1.76974,-2.40427l31.74979,25.19218l-1.76974,2.40427zM221.47156,170.69842l-0.62455,0.73169l30.08417,23.83333l0.62466,-0.7318z"/></g></g><g fill="#000000" stroke="none" stroke-linecap="butt"><g><path d="M229.6953,163.90377l30.81285,24.56502" stroke-width="1.02139"/><path d="M229.31346,164.16795l0.64499,-0.82046l30.88499,24.48233l-0.64499,0.82046z" stroke-width="1.02123"/></g><g stroke-width="1.02139"><path d="M259.98771,189.20048l-30.91698,-24.46047l1.14498,-1.67247l30.91708,24.56502l-1.14508,1.56793"/><path d="M228.34196,164.84455l1.76974,-2.40416l31.74979,25.19218l-1.76974,2.40427zM230.31986,163.79922l-0.62455,0.7318l30.08417,23.83323l0.62466,-0.73169z"/></g></g><path d="M246.10212,149.59152l5.29003,4.03718l-45.49424,35.05991l-5.29003,-4.03729" fill="#c2c1ba" stroke="none" stroke-width="1.02139" stroke-linecap="butt"/><path d="M234.17057,210.05294l-5.10077,-3.9722l44.76192,-34.49554l5.20489,3.9722" fill="#c2c1ba" stroke="none" stroke-width="1.02139" stroke-linecap="butt"/><path d="M205.79328,188.11871l44.84187,-34.47447" fill="#b5b5b5" stroke="#999999" stroke-width="1" stroke-linecap="round"/><path d="M205.65235,171.5852l22.90149,-17.66593l44.76192,34.49563l-22.90139,17.66584l-44.76202,-34.49554" fill="#2c2d2e" stroke="none" stroke-width="1.02139" stroke-linecap="butt"/><g stroke="none" stroke-width="1.02139" stroke-linecap="butt"><g fill="#ffffff"><path d="M210.4372,170.48933l1.66562,-1.25441l9.05645,7.21271l-1.56149,1.25441l-9.16058,-7.21271"/><path d="M214.18475,167.66699l1.66551,-1.25441l9.05655,7.21271l-1.56149,1.2543l-9.16058,-7.21261"/><path d="M218.24456,164.63556l1.66551,-1.25441l9.05655,7.31726l-1.56149,1.14976l-9.16058,-7.21261"/><path d="M225.84363,158.36362l1.66562,-1.25441l9.05645,7.31726l-1.56149,1.25441l-9.16058,-7.31726"/><path d="M221.99208,161.60413l1.56139,-1.25441l9.05655,7.21271l-1.45736,1.2543l-9.16058,-7.21261"/></g><path d="M209.29213,170.07116l17.90485,-13.27556l1.24911,0.52271l-17.80072,13.69363l-1.35324,-0.94078" fill="#2c2d2e"/><path d="M237.71078,165.05363l-17.80072,13.17101l-1.24911,-0.52261l17.59247,-13.58919l1.45736,0.94078" fill="#2c2d2e"/></g><g stroke="none" stroke-width="1.02139" stroke-linecap="butt"><g fill="#ffffff"><path d="M243.12383,195.47242l1.66562,-1.2543l9.05645,7.21261l-1.45736,1.25441l-9.2647,-7.21271"/><path d="M246.87137,192.65008l1.66562,-1.25441l9.16058,7.21271l-1.56149,1.14986l-9.2647,-7.10817"/><path d="M250.93118,189.61865l1.56149,-1.25441l9.16058,7.21271l-1.56149,1.14986l-9.16058,-7.10817"/><path d="M258.42623,183.34672l1.66551,-1.25441l9.16068,7.21271l-1.56149,1.14986l-9.2647,-7.10817"/><path d="M254.57456,186.48269l1.66562,-1.25441l9.05645,7.21271l-1.45736,1.25441l-9.2647,-7.21271"/></g><path d="M241.97884,195.15889l17.80062,-13.48464l1.35334,0.52261l-17.6966,13.79827l-1.45736,-0.83624" fill="#2c2d2e"/><path d="M270.29339,189.82774l-17.59257,13.27556l-1.24911,-0.41817l17.48834,-13.69363l1.35334,0.83624" fill="#2c2d2e"/></g><path d="M229.58697,153.72202l44.84187,34.47192" data-paper-data="{&quot;index&quot;:null}" fill="#b5b5b5" stroke="#d8d8d1" stroke-width="1" stroke-linecap="round"/><g stroke="none" stroke-width="1.02139" stroke-linecap="butt"><g fill="#ffffff"><path d="M210.64537,188.9915l9.16068,-7.21271l1.56139,1.2543l-9.05645,7.21271l-1.66562,-1.2543"/><path d="M214.49702,191.81384l9.16058,-7.21271l1.56149,1.25441l-9.16058,7.21271l-1.56149,-1.25441"/><path d="M218.45269,194.84526l9.16058,-7.21271l1.56149,1.14986l-9.05645,7.31726l-1.66562,-1.25441"/><path d="M226.05189,201.1172l9.16058,-7.21271l1.56149,1.14986l-9.05655,7.31726l-1.66551,-1.25441"/><path d="M222.20025,197.87669l9.16058,-7.21271l1.56149,1.25441l-9.05645,7.31726l-1.66562,-1.35895"/></g><path d="M209.50039,189.40957l1.45736,-0.94078l17.80062,13.69373l-1.35324,0.52261l-17.90475,-13.27556" fill="#2c2d2e"/><path d="M237.91903,194.53163l-1.35334,0.83624l-17.6966,-13.58909l1.35334,-0.52271l17.6966,13.27556" fill="#2c2d2e"/></g><path d="M273.83171,171.5852l-44.76192,34.49554l-22.90149,-17.66584l44.76202,-34.49563l22.90139,17.66593" fill="#2c2d2e" stroke="none" stroke-width="1.02139" stroke-linecap="butt"/><g stroke="none" stroke-width="1.02139" stroke-linecap="butt"><g fill="#ffffff"><path d="M242.70753,164.11285l9.16058,-7.21271l1.56139,1.14986l-9.05645,7.31726l-1.66551,-1.25441"/><path d="M246.55909,166.93519l9.16058,-7.21271l1.56149,1.14986l-9.05645,7.31726l-1.66562,-1.25441"/><path d="M250.51475,169.96662l9.16068,-7.21271l1.56139,1.14986l-9.05645,7.31726l-1.66562,-1.25441"/><path d="M258.11395,176.13401l9.2647,-7.21271l1.45736,1.25441l-9.05655,7.21271l-1.66551,-1.25441"/><path d="M254.26231,172.99804l9.16058,-7.21271l1.56149,1.14986l-9.05645,7.31726l-1.66562,-1.25441"/></g><path d="M241.56246,164.42648l1.45736,-0.83624l17.80062,13.69363l-1.35324,0.52271l-17.90475,-13.38011" fill="#2c2d2e"/><path d="M269.98107,169.54855l-1.35334,0.83624l-17.59247,-13.48464l1.24921,-0.52261l17.6966,13.17101" fill="#2c2d2e"/></g><g stroke="none" stroke-width="1.02139" stroke-linecap="butt"><g fill="#ffffff"><path d="M210.19809,190.26747l9.16058,-7.21271l1.56139,1.14986l-9.05645,7.31726l-1.66551,-1.25441"/><path d="M214.04964,193.08981l9.16058,-7.21271l1.56149,1.14986l-9.05645,7.31726l-1.66562,-1.25441"/><path d="M218.00531,196.12124l9.16068,-7.21271l1.56139,1.14986l-9.05645,7.31726l-1.66562,-1.25441"/><path d="M225.6045,202.28863l9.2647,-7.21271l1.45736,1.25441l-9.05655,7.21271l-1.66551,-1.25441"/><path d="M221.75286,199.15266l9.16058,-7.21271l1.56149,1.14986l-9.05645,7.31726l-1.66562,-1.25441"/></g><path d="M209.05301,190.5811l1.45736,-0.83624l17.80062,13.69363l-1.35324,0.52271l-17.90475,-13.38011" fill="#2c2d2e"/><path d="M237.47163,195.70317l-1.35334,0.83624l-17.59247,-13.48464l1.24921,-0.52261l17.6966,13.17101" fill="#2c2d2e"/></g></g></g></svg>