<svg xmlns="http://www.w3.org/2000/svg" xmlns:xlink="http://www.w3.org/1999/xlink" version="1.1" width="25.099498748779297" height="20.37510108947754" viewBox="-0.3002000004053116 -0.296099990606308 25.099498748779297 20.37510108947754">
  <!-- Exported by Scratch - http://scratch.mit.edu/ -->
  <g id="ID0.5141469733789563">
    <g id="ID0.358306766487658">
      <g id="ID0.045219899620860815">
        <g id="container-id1">
          <g id="id1">
            <g id="ID0.7180701862089336">
              <g id="ID0.9010128821246326">
                <g id="id6">
                  <path id="ID0.44769747694954276" fill="none" stroke="none" d="M 0.1998 0.2039 L 24.2993 0.2039 L 24.2993 19.579 L 0.1998 19.579 L 0.1998 0.2039 Z " stroke-width="0.023664568508236814"/>
                  <path id="ID0.2315921294502914" fill="#C0C0C0" stroke="none" d="M 12.0982 15.7569 L 12.0982 15.7569 C 10.1656 14.3386 8.2563 12.8963 6.3237 11.454 C 6.2771 11.454 6.2305 11.4299 6.184 11.4059 C 5.7881 11.2617 5.5087 10.9492 5.1827 10.7328 C 4.7869 10.2521 4.3212 9.7953 4.0418 9.2424 C 3.8788 8.954 3.6459 8.7376 3.4364 8.4972 C 3.2035 8.2568 2.9008 8.2568 2.6214 8.2568 C 2.342 7.9924 2.0859 7.6799 1.7832 7.4395 C 1.3408 7.0549 0.9915 6.5501 0.5724 6.1655 C 0.2231 5.853 0.1766 5.4684 0.2231 5.0357 C 0.2464 4.7472 0.293 4.4587 0.4327 4.1943 C 0.8285 4.3385 1.1079 4.627 1.4339 4.8674 C 2.5749 5.7088 3.6925 6.5261 4.8102 7.3915 C 4.9033 7.4636 5.0197 7.5357 5.1361 7.5597 C 5.7415 7.5357 6.3237 7.3674 6.9058 7.2953 C 7.0688 7.2713 7.2085 7.1991 7.3482 7.3434 C 7.3482 7.5357 7.1852 7.4876 7.0688 7.5357 C 6.6264 7.704 6.1374 7.7761 5.6251 7.9924 C 8.722 10.2761 11.7489 12.5357 14.8225 14.7954 C 14.6362 13.93 14.4034 13.1367 14.2637 12.3194 C 14.287 12.1992 14.3568 12.1271 14.4499 12.2473 C 14.5198 12.3434 14.5431 12.4876 14.6129 12.6078 C 15.0088 13.5453 15.3348 14.5309 15.7539 15.4684 C 16.173 15.9732 16.5921 16.4781 17.0345 16.9588 C 17.1277 17.079 17.2674 17.1752 17.2674 17.3435 C 17.1975 17.656 17.0345 17.9444 16.9647 18.2329 C 16.8948 18.4252 16.9181 18.6415 16.9181 18.8579 C 16.8948 19.0983 17.1975 19.2185 17.1044 19.4829 C 16.8017 19.2665 16.499 19.0502 16.173 18.8098 C 15.7073 18.6415 15.3813 18.281 14.9855 18.0165 C 14.6362 17.5838 14.2171 17.2233 13.8911 16.7665 C 13.6583 16.43 13.4021 16.1175 13.0529 15.8771 C 12.7502 15.6607 12.4242 15.6607 12.0982 15.7569 Z " stroke-width="0.023664568508236814"/>
                  <path id="ID0.36677903681993484" fill="#B2B2B2" stroke="none" d="M 5.0896 7.6318 L 5.0896 7.6318 C 4.6472 7.4876 4.3445 7.127 3.9719 6.8866 C 2.831 6.0453 1.69 5.1799 0.5491 4.3145 C 0.5025 4.2905 0.4793 4.2424 0.4327 4.1943 C 0.7354 3.6414 1.0614 3.1366 1.5969 2.8001 C 2.5749 2.1751 3.5062 1.4779 4.4609 0.8529 C 4.9732 0.4924 5.6018 0.4443 6.184 0.2279 C 6.2538 0.1799 6.3702 0.276 6.4634 0.3241 C 7.9303 1.0693 9.3739 1.8385 10.8408 2.6078 C 10.9573 2.6799 11.097 2.728 11.2134 2.776 C 11.3531 2.8722 11.5161 2.9683 11.6558 3.0645 C 11.6791 3.1847 11.5627 3.2087 11.4695 3.2328 C 10.3519 3.8097 9.2342 4.3626 8.1166 4.9395 C 7.6742 5.1318 7.3715 5.4924 7.0688 5.8289 C 6.5099 6.3818 5.9278 6.9107 5.3923 7.4636 C 5.2991 7.5597 5.2293 7.6318 5.0896 7.6318 Z " stroke-width="0.023664568508236814"/>
                  <path id="ID0.3351324344985187" fill="rgb(38,38,38)" stroke="none" d="M 12.0982 15.7569 L 12.0982 15.7569 C 12.4009 15.4684 12.7036 15.5886 13.0063 15.7329 C 13.3789 15.9492 13.6816 16.2617 13.9377 16.6463 C 14.2404 17.1511 14.6828 17.5117 15.0553 17.9685 C 14.7992 18.3531 14.4732 18.5694 14.0541 18.6896 C 13.4254 18.7137 13.0529 18.281 12.6803 17.8723 C 12.3543 17.4636 12.1448 17.0309 12.0284 16.5261 C 11.9818 16.2858 12.0051 15.9973 12.0982 15.7569 Z " stroke-width="0.023664568508236814"/>
                  <path id="ID0.5928625375963748" fill="rgb(38,38,38)" stroke="none" d="M 2.6214 8.2568 L 2.6214 8.2568 C 2.9241 8.0645 3.2035 8.1847 3.4597 8.4011 C 3.6925 8.5934 3.9021 8.8338 4.0418 9.1222 C 4.3445 9.7232 4.8567 10.1559 5.206 10.6847 C 5.043 11.0213 4.7403 11.1896 4.3678 11.2617 C 3.7158 11.2857 3.3432 10.829 2.9707 10.3482 C 2.7146 10.0117 2.505 9.603 2.4351 9.1703 C 2.342 8.8097 2.342 8.4972 2.6214 8.2568 Z " stroke-width="0.023664568508236814"/>
                  <path id="ID0.5147991999983788" fill="rgb(146,145,145)" stroke="none" d="M 14.2171 18.7617 L 14.2171 18.7617 C 14.1472 18.7377 14.1007 18.7137 14.0541 18.6896 Z " stroke-width="0.023664568508236814"/>
                  <path id="ID0.4724537907168269" fill="rgb(146,145,145)" stroke="none" d="M 16.173 18.8098 L 16.173 18.8098 Z " stroke-width="0.023664568508236814"/>
                  <path id="ID0.17520350078120828" fill="none" stroke="none" stroke-width="0" stroke-linejoin="round" d="M 1167 1082 L 1167 1082 Z " transform="matrix(0.023284487426280975,6.5995196182815084e-34,-6.3924760330158365e-34,0.024038640782237053,-11,-7.2)"/>
                  <path id="ID0.33534536231309175" fill="rgb(72,70,70)" stroke="none" d="M 17.1044 19.4829 L 17.1044 19.4829 C 17.0578 19.2665 16.825 19.1464 16.825 18.906 C 16.8948 18.8338 16.988 18.7858 17.1044 18.7617 C 17.6399 18.6175 18.1522 18.4492 18.6877 18.305 C 18.8274 18.281 18.9671 18.2088 19.1068 18.329 C 18.8507 18.5694 18.548 18.7137 18.2686 18.906 C 17.9659 19.0742 17.7098 19.2665 17.4071 19.4589 C 17.3139 19.5069 17.2208 19.6271 17.1044 19.4829 Z " stroke-width="0.023664568508236814"/>
                  <path id="ID0.20975186489522457" fill="rgb(146,145,145)" stroke="none" d="M 5.206 10.6847 L 5.206 10.6847 C 5.5786 10.8771 5.8813 11.1415 6.184 11.4059 Z " stroke-width="0.023664568508236814"/>
                  <path id="ID0.5071036396548152" fill="#B2B2B2" stroke="none" d="M 13.0994 3.6895 L 13.0994 3.6895 C 14.0308 4.3866 14.9622 5.0597 15.9169 5.7328 C 16.8482 6.4059 17.8029 7.103 18.7343 7.8001 C 18.8274 7.8482 18.9671 7.9203 18.9671 8.0405 C 18.8041 8.5453 18.4782 8.8819 18.1056 9.2184 C 17.7563 9.5549 17.3605 9.8915 16.9647 10.1799 C 16.173 10.6847 15.358 11.1415 14.4732 11.3819 C 14.3568 11.4299 14.2171 11.5021 14.0774 11.478 C 13.5418 11.1896 13.0762 10.7809 12.6105 10.4203 C 11.2833 9.4588 9.9328 8.4732 8.6055 7.4876 C 8.4891 7.4155 8.3727 7.3434 8.2796 7.1991 C 8.2563 7.0068 8.3727 6.9107 8.4658 6.8145 C 9.0712 6.2616 9.6533 5.7088 10.2355 5.1559 C 10.3286 5.0597 10.4683 5.0116 10.5847 4.9395 C 11.2833 4.5789 12.0051 4.1943 12.7036 3.8337 C 12.82 3.7616 12.9365 3.6895 13.0994 3.6895 Z " stroke-width="0.023664568508236814"/>
                  <path id="ID0.4422818198800087" fill="rgb(148,148,185)" stroke="none" d="M 16.9647 10.1078 L 16.9647 10.1078 C 17.7098 9.5069 18.4316 8.8819 18.9671 8.0405 C 19.2465 7.9924 19.363 8.2568 19.5027 8.4011 C 20.3642 9.0982 21.2024 9.7953 22.0407 10.4924 C 22.1571 10.6126 22.2968 10.7088 22.2735 10.9011 C 22.3667 11.0213 22.2968 11.1174 22.2502 11.2376 C 22.0873 11.6703 21.9243 12.1271 21.7147 12.5357 C 21.1792 13.2328 20.6203 13.8578 19.9218 14.3627 C 19.8519 14.3867 19.8287 14.3627 19.7821 14.3386 C 19.5027 13.7136 19.037 13.2088 18.6412 12.6559 C 18.1755 11.9828 17.6632 11.3819 17.1975 10.7088 C 17.0811 10.5405 16.8948 10.3722 16.9647 10.1078 Z " stroke-width="0.023664568508236814"/>
                  <path id="ID0.223691841121763" fill="#7F7F7F" stroke="none" d="M 19.7821 14.3146 L 19.7821 14.3146 C 19.8287 14.3146 19.8752 14.3146 19.8985 14.3146 C 20.2711 14.4107 20.5039 14.2665 20.7368 14.0021 C 20.923 13.7136 21.1559 13.4492 21.3887 13.2328 C 21.575 13.0405 21.5983 12.7761 21.6449 12.5357 C 21.8544 11.9828 22.064 11.454 22.2735 10.9011 C 22.39 10.829 22.4598 10.9011 22.5064 10.9732 C 22.9721 11.5021 23.4145 12.0309 23.8569 12.5598 C 23.9267 12.6559 23.9034 12.7521 23.8569 12.8723 C 23.6473 13.3771 23.5309 13.9059 23.3213 14.4107 C 23.2282 14.7232 22.9954 14.9396 22.7392 15.1319 C 21.738 15.805 20.7833 16.5502 19.7821 17.2473 C 19.6424 17.3194 19.5027 17.4156 19.3397 17.4156 C 18.7809 17.4156 18.2453 17.4877 17.7098 17.3915 C 17.6632 17.3675 17.6166 17.3194 17.6166 17.2954 C 17.6166 16.8867 17.5934 16.4781 17.6632 16.0694 C 17.6865 15.8531 17.896 15.7809 18.0358 15.6848 C 18.2919 15.5646 18.4549 15.3963 18.3617 15.0598 C 18.3617 15.0357 18.3617 15.0117 18.385 15.0117 C 18.8274 14.6992 19.2698 14.4107 19.7821 14.3146 Z " stroke-width="0.023664568508236814"/>
                  <path id="ID0.610075845848769" fill="rgb(208,208,253)" stroke="none" d="M 13.0994 3.6895 L 13.0994 3.6895 C 12.3311 4.0982 11.5627 4.5309 10.771 4.9155 C 10.3984 5.0837 10.0725 5.3962 9.7698 5.6847 C 9.3041 6.1174 8.8384 6.5741 8.3727 7.0068 C 8.3261 7.0549 8.2796 7.127 8.3261 7.1991 C 7.9769 7.2232 7.6974 7.4876 7.3249 7.3915 C 7.0688 7.2232 6.7893 7.4155 6.5099 7.4395 C 6.0675 7.4876 5.6484 7.5838 5.206 7.6799 C 5.1594 7.704 5.1129 7.704 5.0896 7.6318 C 5.695 7.0309 6.3469 6.478 6.9058 5.853 C 7.5577 5.1318 8.3494 4.6751 9.1877 4.2905 C 10.0026 3.8818 10.8176 3.4732 11.6558 3.0645 C 12.1448 3.2087 12.6338 3.4491 13.0994 3.6895 Z " stroke-width="0.023664568508236814"/>
                  <path id="ID0.7148164957761765" fill="#666666" stroke="none" d="M 19.4328 17.3194 L 19.4328 17.3194 C 20.0382 16.9829 20.5738 16.5261 21.1792 16.1415 C 21.6681 15.805 22.1571 15.3963 22.6461 15.0598 C 22.9255 14.8915 23.1351 14.6992 23.2515 14.4107 C 23.5309 14.0502 23.7172 13.6415 23.9966 13.2809 C 24.0664 13.1607 24.113 13.0405 24.2527 13.0405 C 24.3226 13.353 24.2527 13.6415 24.1363 13.93 C 23.8569 14.4107 23.624 14.9636 23.2515 15.3963 C 21.9475 16.3338 20.6436 17.2473 19.363 18.2088 C 19.2698 18.2569 19.1767 18.281 19.1068 18.329 C 18.4316 18.4492 17.7796 18.6896 17.1277 18.8579 C 17.0345 18.8819 16.9181 18.906 16.825 18.906 C 16.825 18.6656 16.7551 18.4252 16.8715 18.1848 C 17.5468 18.0406 18.1755 17.704 18.8274 17.5117 C 19.0137 17.4396 19.2233 17.3675 19.4328 17.3194 Z " stroke-width="0.023664568508236814"/>
                  <path id="ID0.38432395039126277" fill="rgb(123,25,25)" stroke="none" d="M 24.2527 13.0405 L 24.2527 13.0405 C 23.9267 13.4492 23.6939 13.93 23.3912 14.3386 C 23.3446 14.3867 23.3213 14.4829 23.2515 14.4107 C 23.461 13.7857 23.6473 13.1607 23.8569 12.5598 C 24.0432 12.68 24.1829 12.8482 24.2527 13.0405 Z " stroke-width="0.023664568508236814"/>
                  <path id="ID0.377463539596647" fill="rgb(93,68,68)" stroke="none" d="M 23.2515 15.3963 L 23.2515 15.3963 C 23.5309 14.8915 23.7637 14.3627 24.1363 13.93 C 23.9966 14.5069 23.7637 15.0357 23.2515 15.3963 Z " stroke-width="0.023664568508236814"/>
                  <path id="ID0.5684583224356174" fill="rgb(238,238,254)" stroke="none" d="M 7.3249 7.3915 L 7.3249 7.3915 C 7.6742 7.3915 7.9536 7.079 8.3261 7.1991 C 9.7698 8.2568 11.2134 9.3145 12.6803 10.3963 C 13.146 10.7328 13.6117 11.0934 14.0774 11.4299 C 14.3102 11.6703 14.287 11.9828 14.3102 12.3194 C 14.5198 13.1607 14.7294 14.0502 14.9622 15.0117 C 11.7489 12.6319 8.6055 10.3242 5.4156 7.9443 C 6.0908 7.752 6.7195 7.5357 7.3249 7.3915 Z " stroke-width="0.023664568508236814"/>
                  <path id="ID0.6117870477028191" fill="rgb(168,168,210)" stroke="none" d="M 14.3102 12.3194 L 14.3102 12.3194 C 14.1705 12.0309 14.1705 11.7184 14.0774 11.4299 C 14.9622 11.1655 15.8237 10.7809 16.6154 10.2761 C 16.7318 10.204 16.825 10.1559 16.9647 10.1078 C 17.3372 10.9011 17.9659 11.5501 18.4316 12.2713 C 18.8274 12.8242 19.2465 13.353 19.6657 13.8819 C 19.7588 14.0021 19.8054 14.1463 19.7821 14.3146 C 19.3164 14.555 18.8507 14.7954 18.4083 15.0357 C 18.2919 15.2281 18.1056 15.2761 17.9426 15.3002 C 17.2907 15.4204 16.6387 15.5165 15.9634 15.5886 C 15.8936 15.6127 15.8004 15.5886 15.7073 15.5406 C 15.358 14.9396 15.195 14.2665 14.9156 13.6175 C 14.7294 13.1607 14.5664 12.728 14.4034 12.2713 C 14.3801 12.2713 14.3801 12.2713 14.3801 12.2473 C 14.3568 12.2713 14.3335 12.2713 14.3102 12.3194 Z " stroke-width="0.023664568508236814"/>
                  <path id="ID0.5621068137697875" fill="#7F7F7F" stroke="none" d="M 15.7073 15.5406 L 15.7073 15.5406 C 16.3127 15.4444 16.9414 15.3482 17.5468 15.2521 C 17.8262 15.2281 18.1056 15.1319 18.4083 15.0357 C 18.5713 15.2521 18.5247 15.5886 18.2453 15.6848 C 17.7331 15.8771 17.6399 16.2136 17.7098 16.6944 C 17.7563 16.9108 17.6632 17.1031 17.6399 17.3194 C 17.5002 17.4636 17.3605 17.4636 17.2208 17.3194 C 16.7318 16.7184 16.2196 16.1415 15.7073 15.5406 Z " stroke-width="0.023664568508236814"/>
                  <path id="ID0.3554665087722242" fill="rgb(122,26,26)" stroke="none" d="M 17.2208 17.3194 L 17.2208 17.3194 C 17.3605 17.3194 17.5002 17.3194 17.6399 17.3194 C 18.2453 17.3194 18.8274 17.3194 19.4328 17.3194 C 18.711 17.656 17.9659 17.8963 17.2208 18.2088 C 17.1044 18.2329 16.988 18.305 16.8715 18.1848 C 16.988 17.8963 17.1044 17.6079 17.2208 17.3194 Z " stroke-width="0.023664568508236814"/>
                  <path id="ID0.9783568484708667" fill="#7F7F7F" stroke="none" d="M 21.6449 12.5357 L 21.6449 12.5357 C 21.7846 12.8242 21.6449 13.0405 21.5051 13.2328 C 21.2024 13.5694 20.8997 13.8578 20.6436 14.2184 C 20.4108 14.4829 20.1779 14.5309 19.8985 14.3146 C 20.5505 13.7857 21.1093 13.1607 21.6449 12.5357 Z " stroke-width="0.023664568508236814"/>
                </g>
              </g>
            </g>
          </g>
        </g>
      </g>
    </g>
  </g>
<defs/></svg>