<svg version="1.1" xmlns="http://www.w3.org/2000/svg" xmlns:xlink="http://www.w3.org/1999/xlink" width="341.55217" height="213.53556" viewBox="0,0,341.55217,213.53556"><g transform="translate(-68.677,-77.95215)"><g data-paper-data="{&quot;isPaintingLayer&quot;:true}" fill-rule="nonzero" stroke-linejoin="miter" stroke-miterlimit="10" stroke-dasharray="" stroke-dashoffset="0" style="mix-blend-mode: normal"><text transform="translate(81.53004,117.47498) scale(0.27339,0.27339)" font-size="40" xml:space="preserve" fill="#000000" fill-rule="nonzero" stroke="none" stroke-width="1" stroke-linecap="butt" stroke-linejoin="miter" stroke-miterlimit="10" stroke-dasharray="" stroke-dashoffset="0" font-family="Sans Serif" font-weight="normal" text-anchor="start" style="mix-blend-mode: normal"><tspan x="0" dy="0">- Buildings need to be placed near the road; </tspan><tspan x="0" dy="48px">they cannot be placed on the road nor other buildings. </tspan><tspan x="0" dy="48px"> </tspan><tspan x="0" dy="48px">There are 6 building types:</tspan><tspan x="0" dy="48px">- Residential buildings (produce money and give population)</tspan><tspan x="0" dy="48px">- Industrial buildings (produce money and decrease</tspan><tspan x="0" dy="48px"> approval rating)</tspan><tspan x="0" dy="48px">- Commercial buildings (produce money and increase</tspan><tspan x="0" dy="48px"> approval rating)</tspan><tspan x="0" dy="48px">- Supply buildings</tspan><tspan x="0" dy="48px">- Government buildings</tspan><tspan x="0" dy="48px">- Parks (increase approval rating)</tspan><tspan x="0" dy="48px"> </tspan><tspan x="0" dy="48px">Almost every building has their own special requirements.</tspan></text><text transform="translate(209.50005,90.59276) scale(0.29461,0.29461)" font-size="40" xml:space="preserve" fill="#000000" fill-rule="nonzero" stroke="none" stroke-width="1" stroke-linecap="butt" stroke-linejoin="miter" stroke-miterlimit="10" stroke-dasharray="" stroke-dashoffset="0" font-family="Sans Serif" font-weight="normal" text-anchor="start" style="mix-blend-mode: normal"><tspan x="0" dy="0">BUILDINGS</tspan></text><g stroke="none" stroke-linecap="butt"><path d="M368.29888,178.01477h31.83759v95.0447h-31.83759z" fill="none" stroke-width="0.11074"/><path d="M384.78978,272.99093v0c-1.14428,-0.41145 -2.01927,-1.30294 -2.96162,-1.98871c-4.0386,-2.81155 -8.00988,-5.69169 -12.04847,-8.50324c-0.53852,-0.41145 -0.80774,-0.75436 -0.80774,-1.50867c0,-4.80026 0,-9.53192 -0.13461,-14.33211c-0.13461,-3.42878 -0.06731,-6.8575 -0.13461,-10.28628c-0.13461,-4.04589 -0.06731,-8.02325 -0.13461,-12.00055c-0.13461,-3.63451 -0.06731,-7.26895 -0.13461,-10.97199c-0.06731,-2.05725 -0.13461,-4.11449 -0.06731,-6.10314c0.20192,-0.06859 0.40384,0.06854 0.60576,0.20572c3.97128,2.74295 8.00988,5.55456 11.98116,8.29751c1.07697,0.68577 2.01933,1.44007 3.0963,2.12584c0.26923,0.20572 0.53845,0.41145 0.60576,0.7543c0.06731,0.34291 0.06731,0.61717 0.06731,0.89149c0.20192,11.6577 0,23.24686 0.20192,34.90462c0.06737,5.76028 0,11.45198 0.06737,17.21226c0,0.41145 0.06731,0.89149 -0.20198,1.30294z" fill="#9f94e0" stroke-width="0.11074"/><path d="M384.78978,272.99093v0c0,-2.94874 0,-5.89748 -0.06731,-8.77762c-0.06731,-12.89205 -0.06731,-25.71556 -0.20192,-38.6076c0,-2.40016 0,-4.73166 -0.06731,-7.13182c0,-0.06854 0,-0.06854 0,-0.13713c0.06731,-0.20572 0.33654,-0.34286 0.47115,-0.41145c3.83667,-2.81155 7.53873,-5.69169 11.3081,-8.5033c1.00966,-0.7543 1.95202,-1.44007 2.89438,-2.19437c0.26923,-0.20572 0.47115,-0.41145 0.80768,-0.34286c0.13461,0.13713 0.06731,0.34286 0.06731,0.47998c0,2.81161 0.06731,5.62316 0,8.4347c0,8.5033 0,17.07513 -0.06731,25.57843c0,6.44605 -0.06731,12.89211 -0.06731,19.40669c0,0.34286 -0.06731,0.61717 -0.40384,0.96003c-4.84634,3.70304 -9.62537,7.40608 -14.47164,11.17772c-0.06737,0 -0.13467,0.06859 -0.20198,0.06859z" fill="#3e4688" stroke-width="0.11074"/><path d="M400.00185,207.36477v0c0,-0.13713 -0.06731,-0.34286 -0.06731,-0.47998c-0.20192,-0.20572 -0.13461,-0.54864 -0.13461,-0.8229c0,-1.37154 0,-2.74301 0,-4.11449c0,-0.27432 0.06731,-0.48004 -0.13461,-0.75436c-0.60582,0.34291 -1.14428,0.8229 -1.68273,1.23435c-4.30788,3.15446 -8.5484,6.30893 -12.7216,9.53192c-0.20192,0.13713 -0.4039,0.27432 -0.53852,0.34286c-0.40384,0.13719 -0.67307,-0.13713 -0.9423,-0.27426c-4.98095,-3.42878 -9.9619,-6.9261 -15.01016,-10.35482c-0.20192,-0.13713 -0.33654,-0.27432 -0.47115,-0.48004c0.33654,-0.68571 1.0096,-0.89143 1.61542,-1.37148c2.7597,-2.05725 5.5194,-4.11449 8.34641,-6.17173c0.33659,0.06854 0.26923,0.41145 0.26923,0.61717c0,1.09716 0.13467,2.19437 -0.06731,3.29159c0,0.27426 0,0.41145 0.33659,0.27426c1.68273,-0.47998 3.43277,-0.7543 5.11556,-1.16575c2.22118,-0.48004 4.44243,-0.96003 6.73099,-1.44007c0.33654,-0.06859 0.67307,-0.20572 0.94236,-0.48004c2.28849,1.57726 4.50974,3.22306 6.93291,4.66313c1.27889,0.7543 1.75004,1.6458 1.61542,3.15446c-0.20192,1.5772 -0.06731,3.223 -0.13461,4.80019z" fill="#5c5958" stroke-width="0.11074"/><path d="M368.29888,201.19303v0c2.28849,1.37154 4.37513,2.94874 6.59637,4.45741c2.96162,2.05725 5.92324,4.11449 8.81762,6.17173c0.33654,0.13713 0.53845,0.41145 0.9423,0.34286c0.13461,0.61717 0.06731,1.23435 0.06731,1.78293c0,1.16581 0,2.26297 0,3.36019c0,0.41145 0,0.7543 -0.26923,1.09722c0,0 0,0 0,0.06854c-5.25018,-3.63444 -10.50035,-7.26889 -15.81783,-10.97193c-0.06731,-0.06859 -0.20192,-0.13719 -0.26923,-0.20572c0,-2.05725 -0.06731,-4.11449 -0.06731,-6.1032z" fill="#191613" stroke-width="0.11074"/><path d="M379.06846,192.96405v0c1.07697,-0.61717 1.88465,-1.44007 2.89431,-2.05725c0.33654,0.06859 0.26923,0.34286 0.26923,0.54858c0.06731,0.89149 0.06731,1.78299 0,2.60588c0,0.27426 -0.06731,0.47998 -0.20192,0.68571c-0.20192,0.20572 -0.20192,0.41145 0.06731,0.61717c0.26923,0.20572 0.47121,0.06859 0.60582,-0.20572c0.20192,-0.20572 0.40384,-0.27426 0.67307,-0.34286c1.95202,-0.34286 3.90398,-0.8229 5.78869,-1.23435c0.20192,-0.06859 0.40384,-0.06859 0.53845,-0.06859c0.60582,0.34291 1.21158,0.75436 1.7501,1.16581c-0.20198,0.20572 -0.33659,0.27426 -0.60582,0.27426c-3.56745,0.8229 -7.2022,1.6458 -10.76958,2.4687c-0.20192,0.06859 -0.4039,0.13719 -0.60582,0.13719c-0.33654,0 -0.53845,-0.13719 -0.53845,-0.41145c-0.06731,-1.37154 -0.06731,-2.74301 0.06731,-4.04596c0,-0.06854 0.06731,-0.13713 0.06731,-0.13713z" fill="#5c5857" stroke-width="0.11074"/><path d="M382.77051,190.15251v0c0.87499,-0.8229 1.61542,-0.34291 2.49048,0.20572c1.27889,1.02862 2.6924,1.92005 4.0386,2.88014c-0.13461,0.20572 -0.40384,0.27426 -0.60582,0.34286c-1.75004,0.41145 -3.43277,0.8229 -5.18287,1.16575c-0.74038,0.13719 -0.9423,0 -0.9423,-0.8229c0,-0.96003 0,-1.98865 0,-3.01727c0,-0.27432 0,-0.54858 0.20192,-0.7543z" fill="#5c5958" stroke-width="0.11074"/><path d="M379.06846,192.96405v0c0,1.30294 0,2.60582 0,3.90877c0,0.41145 0.06731,0.54858 0.53845,0.41145c3.43283,-0.8229 6.86567,-1.5772 10.36574,-2.33157c0.47121,-0.13713 0.94236,-0.20572 1.48087,-0.27426c0,0 0.06731,0.06854 0.13461,0.06854c0.13461,0.41145 -0.13461,0.48004 -0.4039,0.48004c-1.61542,0.41145 -3.23085,0.7543 -4.84627,1.16575c-1.95202,0.41145 -3.90398,0.8229 -5.78869,1.23435c-0.60576,0.13719 -1.14428,0.20572 -1.75004,0.34291c-0.26929,-0.20572 -0.20192,-0.54864 -0.20192,-0.8229c0,-3.15446 0,-6.17173 -0.06737,-9.2576c-0.06731,-1.98871 -0.06731,-3.90877 -0.06731,-5.89748c0,-0.41145 -0.06731,-0.89143 0.47121,-0.96003v0c0.13461,0.27432 0.06731,0.54858 0.06731,0.7543c0,2.81161 0,5.55456 0,8.29757c0,0.34286 0,0.54858 0.06731,0.8229c0,0.68577 0,1.37148 0,2.05725z" fill="#383f48" stroke-width="0.11074"/><path d="M382.77051,195.22702v0c0,0.20572 0,0.54858 -0.26923,0.54858c-0.33659,0 -0.67313,-0.34286 -0.94236,-0.61717c-0.13461,-0.13713 0.06731,-0.27426 0.20192,-0.41145c0.13461,-0.13713 0.33654,-0.20572 0.26923,-0.41145c0,-1.16575 0.20192,-2.26297 -0.06731,-3.42872c0.13461,-0.27432 0.13461,-0.54858 0.13461,-0.8229c-0.06731,-3.63444 -0.06731,-7.26895 -0.13461,-10.97199c0,-0.13713 0,-0.27426 0,-0.47998c0,-0.27432 0.06731,-0.54864 0.40384,-0.54864c0.33659,0 0.4039,0.27432 0.4039,0.61717c0,1.85152 0,3.70304 0,5.62316c0,0.7543 0,1.50867 0,2.26297c-0.33654,-0.06859 -0.20192,-0.34286 -0.20192,-0.48004c-0.06731,-2.4001 -0.13461,-4.73166 -0.06731,-6.24027c-0.06731,4.18302 0.26923,9.32614 0.13461,14.40071c0,0.34286 0.06731,0.68571 0.13461,0.96003z" fill="#8d847a" stroke-width="0.11074"/><path d="M382.77051,195.22702v0c-0.4039,0 -0.26923,-0.34286 -0.26923,-0.61717c0,-1.50867 0,-3.08587 0,-4.59453c-0.06731,-3.56585 -0.13467,-7.20035 -0.13467,-10.76621c0,-0.27432 -0.06731,-0.54864 0.20198,-0.8229c0,0.20572 0.06731,0.41145 0.06731,0.54858c0,2.33157 0,4.52594 0.06731,6.8575c0,0.20572 -0.13461,0.47998 0.06731,0.7543c0,1.16575 0,2.33157 0,3.56591c0,1.30288 0,2.67442 0,3.9773c0,0.41145 0.06731,0.54864 0.53845,0.41145c2.01933,-0.47998 3.97128,-0.89143 5.99061,-1.30288c0.13461,0.06854 0.26923,0.20572 0.40384,0.27426c-1.21158,0.54864 -2.62509,0.61717 -3.90398,1.02862c-1.00966,0.27432 -2.08657,0.27432 -3.02893,0.68577z" fill="#353d47" stroke-width="0.11074"/><path d="M378.93384,181.03204v0c-0.33654,0.13713 -0.26923,0.41145 -0.26923,0.68577c0,2.88014 -0.06731,5.69169 0,8.50324c0.13461,2.60588 0,5.21171 0.13461,7.74899c-0.13461,0.27426 -0.26929,0.41145 -0.53852,0.20572c-0.26923,-0.13719 -0.13461,-0.34291 0,-0.54864c0.20192,-0.41145 0.13461,-0.7543 0.13461,-1.16575c-0.06731,-0.96003 0.13461,-1.92012 -0.13461,-2.81155c0.13461,-0.27432 0.13461,-0.61717 0.13461,-0.89149c-0.06731,-3.70304 -0.06731,-7.47467 -0.13461,-11.17772c0,-0.27426 -0.06731,-0.61717 0.26923,-0.7543c0.26929,-0.13713 0.33659,0 0.4039,0.20572z" fill="#91887f" stroke-width="0.11074"/><path d="M379.06846,190.90681v0c-0.06731,-0.06859 -0.06731,-0.20572 -0.06731,-0.27432c0,-3.223 -0.06731,-6.37746 -0.06731,-9.60046c0.06731,0.06859 0.13461,0.13713 0.13461,0.20572c0,3.223 0,6.44605 0,9.66905z" fill="#91887f" stroke-width="0.11074"/><path d="M384.45324,218.40536v0c0,-1.78299 0,-3.63451 0,-5.34884c0,-0.34291 0,-0.61717 0.20192,-0.89149c3.70206,-2.81155 7.47143,-5.62316 11.24079,-8.5033c1.21158,-0.8229 2.42317,-1.78293 3.56745,-2.60582c0.06731,-0.06859 0.26923,-0.13713 0.47115,-0.27432c0,2.05725 0,4.11449 0,6.1032c-4.64436,3.49732 -9.28877,6.99463 -13.93319,10.49195c-0.47115,0.34286 -0.9423,0.7543 -1.54812,1.02862z" fill="#040507" stroke-width="0.11074"/><path d="M375.90486,209.14775v0c0.26929,0.27426 0.60582,0.61717 0,0.96003c-0.13461,0.06859 -0.06731,0.68577 -0.06731,1.09722c-0.67307,-0.13719 -0.9423,-0.54864 -0.87499,-1.23435c0.06731,-0.34291 0.13461,-0.68577 -0.26923,-0.96009c-0.06737,-0.06854 -0.13467,-0.13713 -0.26929,-0.13713c-0.13461,0.06859 -0.13461,0.27432 -0.13461,0.34286c0,0.27432 0,0.61717 0,0.89149c-0.60576,-0.13713 -0.94236,-0.48004 -0.87499,-1.09722c0,-0.34286 0.06731,-0.7543 -0.20198,-1.09716c-0.33654,-0.34291 0.13461,-0.54864 0.26929,-0.8229c0.13461,-0.27432 0.40384,-0.13719 0.53845,0c0.26923,0.34286 1.21158,0.27426 0.53845,1.02862c-0.06731,0.13713 0.06731,0.20572 0.13467,0.20572c0.13461,0.13713 0.26923,0.13713 0.33654,-0.06859c0.13461,-0.27432 0.33654,-0.27432 0.53845,-0.13713c0.33654,0.20572 0.74044,0.34286 0.80774,0.7543c0.06731,0.48004 -0.33654,0.06859 -0.47121,0.27432z" fill="#a4a6a0" stroke-width="0.11074"/><path d="M373.01054,207.77622v0c0,0.89149 -0.47115,1.16581 -1.21158,0.75436c-1.21158,-0.61717 -1.95196,-1.85152 -1.81734,-2.94874c0,-0.54858 0.33654,-0.7543 0.87505,-0.61717c1.07691,0.34286 2.08657,1.71439 2.15388,2.81155z" fill="#a7a8a2" stroke-width="0.11074"/><path d="M382.43397,215.11376v0c0,0.27426 0.47115,0.27426 0.26923,0.54858c-0.20192,0.20572 -0.47121,0.06859 -0.60582,0c-0.80768,-0.48004 -1.48081,-1.02862 -1.68273,-1.98865c0,-0.34291 0,-0.54864 0.26923,-0.8229c0.26923,-0.13719 0.47121,0 0.74044,0.06854c0.67307,0.48004 1.27889,1.02862 1.48081,1.85152c0.06731,0.34291 0,0.61717 -0.47115,0.34291z" fill="#a5a6a0" stroke-width="0.11074"/><path d="M380.14542,212.7822v0c-0.47121,-0.13713 -0.80774,-0.34286 -0.94236,-0.68577c-0.13461,-0.13713 -0.26923,-0.27426 -0.47115,-0.20572c-0.20198,0.13719 -0.13461,0.34291 -0.06731,0.54864c0.13461,0.27426 0.26923,0.61717 0.67307,0.54858c0,0 0,0 0.06731,0c0.33654,0.06859 0.53852,0.34286 0.74044,0.54858c0.06731,0.06859 0,0.20572 -0.06731,0.27432c-0.33659,0.20572 -0.60582,0 -0.87505,-0.13713c-0.74044,-0.48004 -1.41351,-1.02862 -1.41351,-1.98871c-0.06731,-0.68571 0.20192,-0.96003 0.80774,-0.61717c0.67307,0.34291 1.27889,0.8229 1.54812,1.71439z" fill="#a4a59f" stroke-width="0.11074"/><path d="M377.18374,210.03918v0c0.06731,0.06859 0.13467,0.20572 0.13467,0.27432c0.06731,0.61717 0,1.23435 0,1.92012c-0.53852,-0.13719 -0.87505,-0.41145 -0.80774,-1.09722c0.06731,-0.34286 0,-0.68577 0,-1.09722c0,-0.20572 0.06731,-0.34286 0.33654,-0.27426c0.20192,-0.06859 0.26923,0.13713 0.33654,0.27426z" fill="#a4a59f" stroke-width="0.11074"/><path d="M377.18374,210.03918v0c-0.20192,0 -0.20192,-0.20572 -0.33654,-0.27426c-0.20192,-0.20572 -0.40384,-0.41145 -0.33654,-0.75436c0.06731,-0.13713 0.13461,-0.13713 0.20192,-0.06854c0.26923,0.27426 0.67313,0.27426 0.67313,0.68571c0,0.20572 -0.06731,0.34291 -0.20198,0.41145z" fill="#9b9d97" stroke-width="0.11074"/><path d="M391.11693,212.23362v0c-0.06731,-0.48004 -0.13461,-0.89149 -0.13461,-1.30294c-0.67307,0.13713 -0.60576,0.61717 -0.53845,1.09722c0.06731,0.61717 -0.13461,1.02862 -0.80774,1.23435c-0.06731,-0.96009 -0.47115,-1.85152 0.06731,-2.74301c0.26923,-0.48004 0.60582,-0.8229 1.07697,-1.02862c0.20192,0.41145 -0.13461,0.61717 -0.26923,0.89149c0.47115,0 0.47115,-0.34291 0.60576,-0.61717c0.06731,-0.61717 0.47121,-1.02862 0.94236,-1.23435c0.06731,-0.06859 0.20192,-0.13719 0.26923,-0.06859c0.06731,0.06859 0.13461,0.20572 0.06731,0.27432c-0.26923,0.89143 -0.53845,1.78293 -0.53845,2.67442c0,0.47998 -0.40384,0.54858 -0.74044,0.8229z" fill="#3e4d5d" stroke-width="0.11074"/><path d="M386.20328,214.3594v0c0,-1.09716 1.00966,-2.4687 1.88471,-2.88014c0.67307,-0.20572 1.00966,0 1.07697,0.75436c0.06731,1.09716 -1.14428,2.81155 -2.22125,3.01727c-0.53845,0.13713 -0.74044,-0.13713 -0.74044,-0.89149z" fill="#415161" stroke-width="0.11074"/><path d="M396.23248,207.22764v0c0,-0.8229 0.94236,-2.12584 1.7501,-2.26297c0.40384,-0.13713 0.74038,0 0.67307,0.54858c-0.13461,0.96009 -0.60576,1.78299 -1.54812,2.19443c-0.47115,0.27426 -0.80774,0.13713 -0.87505,-0.48004z" fill="#404f5f" stroke-width="0.11074"/><path d="M395.96327,207.9134v0c-0.13461,0.68571 -1.00966,1.6458 -1.54812,1.85152c-0.40384,0.06854 -0.67313,0 -0.74044,-0.48004c-0.06731,-0.89149 1.00966,-2.33157 1.81741,-2.4687c0.13461,0 0.33654,0 0.40384,0.13713c0.13461,0.13719 0,0.34291 -0.13461,0.41145c-0.20192,0.20572 -0.33654,0.27432 -0.60582,0.34291c-0.26923,0 -0.40384,0.27426 -0.53845,0.47998c-0.06731,0.20572 -0.13461,0.48004 0.06731,0.61717c0.20192,0.13719 0.40384,-0.13713 0.47115,-0.27426c0.13467,-0.34291 0.33659,-0.61717 0.80774,-0.61717z" fill="#404f5f" stroke-width="0.11074"/><path d="M393.40548,209.35348v0c-0.06731,0.61717 0.20192,1.16575 -0.40384,1.50861c-0.26923,0.13719 -0.47121,0.20572 -0.4039,-0.20572c0.06731,-0.61717 -0.33654,-1.30288 0.20198,-1.92005c0.06731,0 0.06731,-0.06859 0,-0.13719c-0.20198,-0.34286 -0.06731,-0.7543 0.33654,-0.89143c0.20192,0 0.33654,0.13713 0.26923,0.27426c-0.20192,0.54864 0.13461,1.02862 0,1.37154z" fill="#3e4d5d" stroke-width="0.11074"/><path d="M372.00087,207.22764v0c0,0.20572 0.06731,0.48004 -0.26923,0.48004c-0.40384,-0.06859 -0.87499,-0.75436 -0.87499,-1.30294c0,-0.20572 0,-0.41145 0.33654,-0.48004c0.33654,0 0.80768,0.68577 0.80768,1.30294z" fill="#1e1c19" stroke-width="0.11074"/><path d="M382.03008,214.22227v0c-0.33654,-0.13713 -0.53845,-0.20572 -0.67307,-0.54858c0.40384,-0.13719 0.53845,0.13713 0.67307,0.54858z" fill="#3d3c39" stroke-width="0.11074"/><path d="M387.14564,213.74223v0c0.06731,-0.61717 0.20192,-1.09716 0.74044,-1.23435c0.33654,-0.06854 0.26923,0.27432 0.26923,0.48004c0,0.54858 -0.40384,1.23435 -0.74044,1.23435c-0.40384,-0.06859 -0.20192,-0.34286 -0.26923,-0.48004z" fill="#010203" stroke-width="0.11074"/><g fill="#ebffe8" stroke-width="1"><path d="M386.03102,222.65732c0,-0.74618 0.00405,-1.3897 -0.0025,-2.03312c-0.00194,-0.1908 0.11915,-0.29888 0.2497,-0.39843c0.6083,-0.46382 1.22131,-0.92187 1.92708,-1.45306c0,0.78674 0.00194,1.48202 -0.0041,2.17722c-0.01007,0.05851 -0.04339,0.11092 -0.09288,0.14606c-0.66568,0.50403 -1.33449,1.0042 -2.07731,1.56133z"/><path d="M394.19654,215.32636c-0.21755,-0.77578 0.14459,-1.27513 0.8063,-1.66955c0.38597,-0.23007 0.72733,-0.52994 1.088,-0.79935c0.16996,-0.12695 0.29762,-0.17508 0.29526,0.11668c-0.00465,0.57348 -0.00274,1.14702 -0.00146,1.72053c0.01061,0.1186 -0.04263,0.23414 -0.14095,0.30593c-0.58041,0.42638 -1.16064,0.85314 -1.73308,1.28938c-0.27179,0.20712 -0.32461,0.0973 -0.31595,-0.16957c0.00858,-0.26444 0.00188,-0.52934 0.00188,-0.79404z"/><path d="M396.3846,218.58148c0,0.70858 -0.00283,1.3523 0.00192,1.99597c-0.0035,0.15002 -0.0842,0.28847 -0.21517,0.36922c-0.62143,0.47083 -1.24524,0.93873 -1.96002,1.47674c0,-0.78501 -0.00194,-1.48073 0.00411,-2.17639c0.00974,-0.05862 0.04318,-0.11111 0.09297,-0.14593c0.67416,-0.49241 1.30343,-1.04373 2.07618,-1.5196z"/><path d="M394.19642,228.33104c0,-0.73759 0.00442,-1.35396 -0.0028,-1.97021c-0.01323,-0.1635 0.06002,-0.3224 0.19471,-0.4223c0.6333,-0.47433 1.26661,-0.94868 1.98536,-1.48703c0,0.77277 0.02243,1.46794 -0.01195,2.16049c-0.01234,0.24871 -0.31916,0.33445 -0.50593,0.47709c-0.51924,0.39654 -1.04595,0.78397 -1.65939,1.24196z"/><path d="M396.38522,250.98221c0,0.68871 -0.00611,1.29257 0.00352,1.89619c0.01474,0.1786 -0.06581,0.35213 -0.21368,0.46035c-0.57586,0.43415 -1.15227,0.86765 -1.72442,1.30633c-0.2149,0.16475 -0.25427,0.05745 -0.25414,-0.13634c0.00038,-0.57473 0.00023,-1.14945 -0.00043,-1.72418c-0.01427,-0.10429 0.02456,-0.20879 0.10424,-0.28053c0.66769,-0.50225 1.29749,-1.05394 2.08492,-1.5218z"/><path d="M394.19739,231.23736c0,-0.73799 0.00182,-1.3703 -0.00138,-2.00259c-0.00854,-0.13492 0.05158,-0.2654 0.16109,-0.34959c0.64181,-0.48801 1.28557,-0.97366 2.02136,-1.53025c0,0.78438 0.00443,1.46841 -0.00646,2.15221c-0.01733,0.08659 -0.06858,0.16339 -0.14308,0.21441c-0.64557,0.48805 -1.29671,0.96924 -2.03154,1.51581z"/><path d="M388.21692,227.62085c0,0.77735 -0.0003,1.43584 0.00022,2.09434c0.00012,0.15137 -0.10032,0.24047 -0.21127,0.32256c-0.62822,0.46488 -1.25694,0.92911 -1.95752,1.4468c0,-0.75557 -0.00467,-1.4479 0.00708,-2.13997c0.0012,-0.07075 0.08833,-0.15517 0.15675,-0.20749c0.63117,-0.48268 1.267,-0.95968 2.00474,-1.51624z"/><path d="M386.0294,247.87069c-0.19807,-0.63377 0.11789,-1.15539 0.79765,-1.54917c0.38958,-0.22568 0.73186,-0.52805 1.09195,-0.80019c0.17177,-0.12982 0.29958,-0.18167 0.29916,0.1107c-0.0008,0.56043 -0.00069,1.12087 0.00031,1.68131c0.00011,0.13535 -0.06728,0.26248 -0.18106,0.34153c-0.57175,0.44001 -1.14444,0.8789 -1.71805,1.31666c-0.18541,0.14213 -0.29728,0.14383 -0.29133,-0.12831c0.00613,-0.2801 0.00136,-0.5604 0.00136,-0.97253z"/><path d="M388.77671,232.39547c0,-0.72615 0.00912,-1.34308 -0.00484,-1.95952c-0.00349,-0.19384 0.09684,-0.37569 0.26539,-0.48101c0.52678,-0.39728 1.05832,-0.78866 1.58549,-1.18547c0.17451,-0.13135 0.27164,-0.12286 0.27133,0.11622c-0.0008,0.58801 -0.00072,1.17602 0.00023,1.76402c0.00222,0.12003 -0.05676,0.23347 -0.15777,0.30345c-0.624,0.46139 -1.24993,0.92033 -1.95983,1.4423z"/><path d="M390.89362,240.33074c0,0.7516 -0.0003,1.40918 0.0003,2.06676c0.01157,0.10418 -0.03055,0.20721 -0.1127,0.27565c-0.64299,0.47997 -1.28673,0.95898 -2.00405,1.49327c0,-0.75277 -0.0002,-1.40804 0.00013,-2.06333c0.00009,-0.18737 0.14367,-0.28765 0.2723,-0.38574c0.58232,-0.44405 1.17032,-0.88117 1.84402,-1.38662z"/><path d="M399.06065,220.64493c0.25998,0.89827 -0.25179,1.40277 -0.97032,1.82673c-0.32266,0.19038 -0.60429,0.44583 -0.90287,0.67379c-0.16194,0.12363 -0.24514,0.09423 -0.24534,-0.1104c-0.00055,-0.59003 0.00097,-1.18008 -0.00208,-1.7701c-0.00078,-0.14918 0.07703,-0.23549 0.19518,-0.32413c0.55382,-0.41546 1.09807,-0.84278 1.64795,-1.26317c0.0564,-0.04312 0.13493,-0.10468 0.19033,-0.09422c0.11711,0.02211 0.08425,0.13867 0.0855,0.2207c0.00429,0.2802 0.00165,0.56051 0.00165,0.84078z"/><path d="M393.63951,235.32215c0,0.7619 -0.00039,1.40629 0.00038,2.0507c0.01206,0.10433 -0.0293,0.20779 -0.11083,0.27722c-0.63284,0.47613 -1.26685,0.95083 -2.00069,1.50114c0,-0.78655 -0.00444,-1.46524 0.00641,-2.1437c0.01698,-0.08663 0.06787,-0.16363 0.14211,-0.21496c0.61803,-0.4696 1.24182,-0.93214 1.96262,-1.47041z"/><path d="M396.94124,214.46267c0,-0.75522 0.00118,-1.38664 -0.00102,-2.01805c-0.0155,-0.11888 0.03034,-0.23755 0.12269,-0.31758c0.63215,-0.47401 1.26625,-0.94558 1.99239,-1.48709c0,0.77281 0.00051,1.43926 -0.0005,2.10571c-0.00691,0.10518 -0.0654,0.20085 -0.15743,0.25751c-0.61876,0.46489 -1.24039,0.92625 -1.95612,1.4595z"/><path d="M396.94164,240.98155c0,-0.73743 0.00719,-1.36862 -0.0038,-1.99951c-0.00399,-0.22864 0.14328,-0.34977 0.29652,-0.46627c0.50127,-0.38109 1.00975,-0.75335 1.51573,-1.12865c0.06948,-0.05154 0.12818,-0.14427 0.23103,-0.10647c0.11013,0.04048 0.07719,0.14863 0.07766,0.23065c0.00318,0.55884 -0.0007,1.11774 0.00289,1.67659c0.01167,0.13412 -0.04735,0.26489 -0.15703,0.34794c-0.62552,0.46107 -1.25138,0.92171 -1.963,1.44574z"/><path d="M388.7786,223.54491c0,-0.74937 0.00217,-1.39404 -0.00162,-2.03869c0.00092,-0.13519 0.0705,-0.26133 0.18616,-0.3375c0.61739,-0.47065 1.23752,-0.93794 1.92993,-1.46177c0,0.75932 -0.00007,1.43082 0.00007,2.10233c0.00093,0.10515 -0.05175,0.20401 -0.14089,0.2644c-0.62677,0.46691 -1.25326,0.93416 -1.97365,1.47125z"/><path d="M388.77467,238.26606c0,-0.75866 0.00136,-1.37717 -0.00104,-1.99567c-0.00053,-0.138 0.01617,-0.26454 0.13873,-0.35608c0.62415,-0.46616 1.24802,-0.93266 1.97435,-1.47555c0,0.79264 0.00184,1.47247 -0.0037,2.15224c-0.00631,0.05886 -0.03646,0.11292 -0.08388,0.1504c-0.64117,0.48717 -1.28599,0.96988 -2.02447,1.52465z"/><path d="M396.94199,249.79124c0,-0.7299 0.00106,-1.38803 -0.00092,-2.04616c-0.00723,-0.11865 0.04861,-0.23269 0.14815,-0.30259c0.62491,-0.46403 1.24648,-0.93227 1.95446,-1.46304c0,0.77373 0.01687,1.46435 -0.0111,2.15327c-0.00761,0.18747 -0.2346,0.30005 -0.38785,0.41502c-0.53752,0.40322 -1.085,0.79408 -1.70275,1.2435z"/><path d="M393.6389,250.04906c0,0.76018 0.00224,1.4159 -0.00123,2.0716c-0.00119,0.22437 -0.19925,0.32617 -0.34642,0.43971c-0.47423,0.36588 -0.96301,0.71424 -1.44843,1.06648c-0.07864,0.05706 -0.14042,0.18494 -0.26508,0.11552c-0.09004,-0.05015 -0.05534,-0.15853 -0.05573,-0.24255c-0.00243,-0.54395 -0.00075,-1.0879 -0.00173,-1.63185c-0.00022,-0.11991 0.00021,-0.24444 0.10651,-0.32403c0.64265,-0.48118 1.28864,-0.95818 2.01211,-1.49487z"/><path d="M391.52118,256.81553c0,-0.72762 0.00636,-1.35924 -0.00396,-1.99062c-0.00713,-0.16244 0.07558,-0.31633 0.21725,-0.40418c0.61267,-0.45221 1.21959,-0.91167 1.90214,-1.42365c0,0.75776 0.00042,1.43954 -0.00041,2.12131c-0.00533,0.10443 -0.06442,0.19936 -0.15742,0.25291c-0.62614,0.45932 -1.24997,0.92157 -1.95761,1.44424z"/><path d="M393.64097,229.42332c0,0.73931 -0.0032,1.3566 0.0022,1.97382c0.0134,0.14883 -0.0508,0.29434 -0.17124,0.3881c-0.57438,0.43419 -1.14798,0.86934 -1.72561,1.29948c-0.14854,0.11062 -0.22331,0.04323 -0.22373,-0.11853c-0.00157,-0.60319 -0.00373,-1.20644 0.00512,-1.80952c0.00144,-0.08758 0.03839,-0.17114 0.10291,-0.2327c0.6389,-0.48602 1.28576,-0.9623 2.01034,-1.50066z"/><path d="M391.51988,245.06682c0,-0.73753 0.01094,-1.34189 -0.00541,-1.94554c-0.0065,-0.24 0.1094,-0.38937 0.28377,-0.52c0.58747,-0.44011 1.17687,-0.87784 1.83807,-1.37053c0,0.7527 0.00025,1.43531 -0.00034,2.11792c-0.00155,0.0745 -0.04079,0.14356 -0.10505,0.18482c-0.64189,0.48753 -1.28216,0.97707 -2.01105,1.53333z"/><path d="M396.94048,232.13178c0,-0.72732 0.00602,-1.34364 -0.0035,-1.95973c-0.00914,-0.17847 0.0774,-0.34894 0.22908,-0.45127c0.5289,-0.39362 1.05712,-0.7881 1.58466,-1.18344c0.06986,-0.05216 0.13616,-0.14288 0.23294,-0.10302c0.12775,0.05262 0.0733,0.17989 0.0743,0.27396c0.0056,0.52886 0.0022,1.05779 0.00303,1.58671c0.00021,0.13435 -0.00324,0.26316 -0.12991,0.35693c-0.63523,0.47029 -1.26869,0.9428 -1.99061,1.47985z"/></g><g fill="#ebffe8" stroke-width="1"><path d="M386.03102,231.45566c0,-0.74618 0.00405,-1.3897 -0.0025,-2.03312c-0.00194,-0.1908 0.11915,-0.29888 0.2497,-0.39843c0.6083,-0.46382 1.22131,-0.92187 1.92708,-1.45306c0,0.78674 0.00194,1.48202 -0.0041,2.17722c-0.01007,0.05851 -0.04339,0.11092 -0.09288,0.14606c-0.66568,0.50403 -1.33449,1.0042 -2.07731,1.56133z"/><path d="M394.19654,224.1247c-0.21755,-0.77578 0.14459,-1.27513 0.8063,-1.66955c0.38597,-0.23007 0.72733,-0.52994 1.088,-0.79935c0.16996,-0.12695 0.29762,-0.17508 0.29526,0.11668c-0.00465,0.57348 -0.00274,1.14702 -0.00146,1.72053c0.01061,0.1186 -0.04263,0.23414 -0.14095,0.30593c-0.58041,0.42638 -1.16064,0.85314 -1.73308,1.28938c-0.27179,0.20712 -0.32461,0.0973 -0.31595,-0.16957c0.00858,-0.26444 0.00188,-0.52934 0.00188,-0.79404z"/><path d="M396.3846,227.37982c0,0.70858 -0.00283,1.3523 0.00192,1.99597c-0.0035,0.15002 -0.0842,0.28847 -0.21517,0.36922c-0.62143,0.47083 -1.24524,0.93873 -1.96002,1.47674c0,-0.78501 -0.00194,-1.48073 0.00411,-2.17639c0.00974,-0.05862 0.04318,-0.11111 0.09297,-0.14593c0.67416,-0.49241 1.30343,-1.04373 2.07618,-1.5196z"/><path d="M394.19642,237.12938c0,-0.73759 0.00442,-1.35396 -0.0028,-1.97021c-0.01323,-0.1635 0.06002,-0.3224 0.19471,-0.4223c0.6333,-0.47433 1.26661,-0.94868 1.98536,-1.48703c0,0.77277 0.02243,1.46794 -0.01195,2.16049c-0.01234,0.24871 -0.31916,0.33445 -0.50593,0.47709c-0.51924,0.39654 -1.04595,0.78397 -1.65939,1.24196z"/><path d="M396.38522,259.78055c0,0.68871 -0.00611,1.29257 0.00352,1.89619c0.01474,0.1786 -0.06581,0.35213 -0.21368,0.46035c-0.57586,0.43415 -1.15227,0.86765 -1.72442,1.30633c-0.2149,0.16475 -0.25427,0.05745 -0.25414,-0.13634c0.00038,-0.57473 0.00023,-1.14945 -0.00043,-1.72418c-0.01427,-0.10429 0.02456,-0.20879 0.10424,-0.28053c0.66769,-0.50225 1.29749,-1.05394 2.08492,-1.5218z"/><path d="M394.19739,240.0357c0,-0.73799 0.00182,-1.3703 -0.00138,-2.00259c-0.00854,-0.13492 0.05158,-0.2654 0.16109,-0.34959c0.64181,-0.48801 1.28557,-0.97366 2.02136,-1.53025c0,0.78438 0.00443,1.46841 -0.00646,2.15221c-0.01733,0.08659 -0.06858,0.16339 -0.14308,0.21441c-0.64557,0.48805 -1.29671,0.96924 -2.03154,1.51581z"/><path d="M388.21692,236.41919c0,0.77735 -0.0003,1.43584 0.00022,2.09434c0.00012,0.15137 -0.10032,0.24047 -0.21127,0.32256c-0.62822,0.46488 -1.25694,0.92911 -1.95752,1.4468c0,-0.75557 -0.00467,-1.4479 0.00708,-2.13997c0.0012,-0.07075 0.08833,-0.15517 0.15675,-0.20749c0.63117,-0.48268 1.267,-0.95968 2.00474,-1.51624z"/><path d="M386.0294,256.66903c-0.19807,-0.63377 0.11789,-1.15539 0.79765,-1.54917c0.38958,-0.22568 0.73186,-0.52805 1.09195,-0.80019c0.17177,-0.12982 0.29958,-0.18167 0.29916,0.1107c-0.0008,0.56043 -0.00069,1.12087 0.00031,1.68131c0.00011,0.13535 -0.06728,0.26248 -0.18106,0.34153c-0.57175,0.44001 -1.14444,0.8789 -1.71805,1.31666c-0.18541,0.14213 -0.29728,0.14383 -0.29133,-0.12831c0.00613,-0.2801 0.00136,-0.5604 0.00136,-0.97253z"/><path d="M388.77671,241.19381c0,-0.72615 0.00912,-1.34308 -0.00484,-1.95952c-0.00349,-0.19384 0.09684,-0.37569 0.26539,-0.48101c0.52678,-0.39728 1.05832,-0.78866 1.58549,-1.18547c0.17451,-0.13135 0.27164,-0.12286 0.27133,0.11622c-0.0008,0.58801 -0.00072,1.17602 0.00023,1.76402c0.00222,0.12003 -0.05676,0.23347 -0.15777,0.30345c-0.624,0.46139 -1.24993,0.92033 -1.95983,1.4423z"/><path d="M390.89362,249.12908c0,0.7516 -0.0003,1.40918 0.0003,2.06676c0.01157,0.10418 -0.03055,0.20721 -0.1127,0.27565c-0.64299,0.47997 -1.28673,0.95898 -2.00405,1.49327c0,-0.75277 -0.0002,-1.40804 0.00013,-2.06333c0.00009,-0.18737 0.14367,-0.28765 0.2723,-0.38574c0.58232,-0.44405 1.17032,-0.88117 1.84402,-1.38662z"/><path d="M399.06065,229.44327c0.25998,0.89827 -0.25179,1.40277 -0.97032,1.82673c-0.32266,0.19038 -0.60429,0.44583 -0.90287,0.67379c-0.16194,0.12363 -0.24514,0.09423 -0.24534,-0.1104c-0.00055,-0.59003 0.00097,-1.18008 -0.00208,-1.7701c-0.00078,-0.14918 0.07703,-0.23549 0.19518,-0.32413c0.55382,-0.41546 1.09807,-0.84278 1.64795,-1.26317c0.0564,-0.04312 0.13493,-0.10468 0.19033,-0.09422c0.11711,0.02211 0.08425,0.13867 0.0855,0.2207c0.00429,0.2802 0.00165,0.56051 0.00165,0.84078z"/><path d="M393.63951,244.1205c0,0.7619 -0.00039,1.40629 0.00038,2.0507c0.01206,0.10433 -0.0293,0.20779 -0.11083,0.27722c-0.63284,0.47613 -1.26685,0.95083 -2.00069,1.50114c0,-0.78655 -0.00444,-1.46524 0.00641,-2.1437c0.01698,-0.08663 0.06787,-0.16363 0.14211,-0.21496c0.61803,-0.4696 1.24182,-0.93214 1.96262,-1.47041z"/><path d="M396.94124,223.26102c0,-0.75522 0.00118,-1.38664 -0.00102,-2.01805c-0.0155,-0.11888 0.03034,-0.23755 0.12269,-0.31758c0.63215,-0.47401 1.26625,-0.94558 1.99239,-1.48709c0,0.77281 0.00051,1.43926 -0.0005,2.10571c-0.00691,0.10518 -0.0654,0.20085 -0.15743,0.25751c-0.61876,0.46489 -1.24039,0.92625 -1.95612,1.4595z"/><path d="M396.94164,249.7799c0,-0.73743 0.00719,-1.36862 -0.0038,-1.99951c-0.00399,-0.22864 0.14328,-0.34977 0.29652,-0.46627c0.50127,-0.38109 1.00975,-0.75335 1.51573,-1.12865c0.06948,-0.05154 0.12818,-0.14427 0.23103,-0.10647c0.11013,0.04048 0.07719,0.14863 0.07766,0.23065c0.00318,0.55884 -0.0007,1.11774 0.00289,1.67659c0.01167,0.13412 -0.04735,0.26489 -0.15703,0.34794c-0.62552,0.46107 -1.25138,0.92171 -1.963,1.44574z"/><path d="M388.7786,232.34325c0,-0.74937 0.00217,-1.39404 -0.00162,-2.03869c0.00092,-0.13519 0.0705,-0.26133 0.18616,-0.3375c0.61739,-0.47065 1.23752,-0.93794 1.92993,-1.46177c0,0.75932 -0.00007,1.43082 0.00007,2.10233c0.00093,0.10515 -0.05175,0.20401 -0.14089,0.2644c-0.62677,0.46691 -1.25326,0.93416 -1.97365,1.47125z"/><path d="M388.77467,247.0644c0,-0.75866 0.00136,-1.37717 -0.00104,-1.99567c-0.00053,-0.138 0.01617,-0.26454 0.13873,-0.35608c0.62415,-0.46616 1.24802,-0.93266 1.97435,-1.47555c0,0.79264 0.00184,1.47247 -0.0037,2.15224c-0.00631,0.05886 -0.03646,0.11292 -0.08388,0.1504c-0.64117,0.48717 -1.28599,0.96988 -2.02447,1.52465z"/><path d="M396.94199,258.58958c0,-0.7299 0.00106,-1.38803 -0.00092,-2.04616c-0.00723,-0.11865 0.04861,-0.23269 0.14815,-0.30259c0.62491,-0.46403 1.24648,-0.93227 1.95446,-1.46304c0,0.77373 0.01687,1.46435 -0.0111,2.15327c-0.00761,0.18747 -0.2346,0.30005 -0.38785,0.41502c-0.53752,0.40322 -1.085,0.79408 -1.70275,1.2435z"/><path d="M393.6389,258.8474c0,0.76018 0.00224,1.4159 -0.00123,2.0716c-0.00119,0.22437 -0.19925,0.32617 -0.34642,0.43971c-0.47423,0.36588 -0.96301,0.71424 -1.44843,1.06648c-0.07864,0.05706 -0.14042,0.18494 -0.26508,0.11552c-0.09004,-0.05015 -0.05534,-0.15853 -0.05573,-0.24255c-0.00243,-0.54395 -0.00075,-1.0879 -0.00173,-1.63185c-0.00022,-0.11991 0.00021,-0.24444 0.10651,-0.32403c0.64265,-0.48118 1.28864,-0.95818 2.01211,-1.49487z"/><path d="M391.52118,265.61387c0,-0.72762 0.00636,-1.35924 -0.00396,-1.99062c-0.00713,-0.16244 0.07558,-0.31633 0.21725,-0.40418c0.61267,-0.45221 1.21959,-0.91167 1.90214,-1.42365c0,0.75776 0.00042,1.43954 -0.00041,2.12131c-0.00533,0.10443 -0.06442,0.19936 -0.15742,0.25291c-0.62614,0.45932 -1.24997,0.92157 -1.95761,1.44424z"/><path d="M393.64097,238.22167c0,0.73931 -0.0032,1.3566 0.0022,1.97382c0.0134,0.14883 -0.0508,0.29434 -0.17124,0.3881c-0.57438,0.43419 -1.14798,0.86934 -1.72561,1.29948c-0.14854,0.11062 -0.22331,0.04323 -0.22373,-0.11853c-0.00157,-0.60319 -0.00373,-1.20644 0.00512,-1.80952c0.00144,-0.08758 0.03839,-0.17114 0.10291,-0.2327c0.6389,-0.48602 1.28576,-0.9623 2.01034,-1.50066z"/><path d="M391.51988,253.86516c0,-0.73753 0.01094,-1.34189 -0.00541,-1.94554c-0.0065,-0.24 0.1094,-0.38937 0.28377,-0.52c0.58747,-0.44011 1.17687,-0.87784 1.83807,-1.37053c0,0.7527 0.00025,1.43531 -0.00034,2.11792c-0.00155,0.0745 -0.04079,0.14356 -0.10505,0.18482c-0.64189,0.48753 -1.28216,0.97707 -2.01105,1.53333z"/><path d="M396.94048,240.93012c0,-0.72732 0.00602,-1.34364 -0.0035,-1.95973c-0.00914,-0.17847 0.0774,-0.34894 0.22908,-0.45127c0.5289,-0.39362 1.05712,-0.7881 1.58466,-1.18344c0.06986,-0.05216 0.13616,-0.14288 0.23294,-0.10302c0.12775,0.05262 0.0733,0.17989 0.0743,0.27396c0.0056,0.52886 0.0022,1.05779 0.00303,1.58671c0.00021,0.13435 -0.00324,0.26316 -0.12991,0.35693c-0.63523,0.47029 -1.26869,0.9428 -1.99061,1.47985z"/></g><g fill="#ebffe8" stroke-width="1"><path d="M372.7198,221.6064c0.71642,0.56391 1.35094,1.06375 1.98607,1.56287c0.08197,0.06845 0.12464,0.17093 0.11455,0.27514c-0.00124,0.65836 -0.00062,1.31672 -0.00062,2.07516c-0.71253,-0.56525 -1.35411,-1.07396 -1.99529,-1.58313c-0.10757,-0.08543 -0.10505,-0.20501 -0.10495,-0.32411c0.00052,-0.63279 0.00024,-1.26558 0.00024,-2.00591z"/><path d="M372.71889,248.08651c0.72325,0.57627 1.35172,1.07718 1.98043,1.57782c0.121,0.09635 0.1218,0.22848 0.12159,0.36305c-0.001,0.61846 -0.00043,1.23693 -0.00043,1.97349c-0.42879,-0.33876 -0.76494,-0.6768 -1.16736,-0.90688c-0.79105,-0.45226 -1.08034,-1.07993 -0.94218,-1.94226c0.04956,-0.30932 0.00795,-0.63222 0.00795,-1.06521z"/><path d="M372.16901,232.23234c-0.73806,-0.5875 -1.37948,-1.09783 -2.02052,-1.6086c-0.0955,-0.07609 -0.08345,-0.18432 -0.08365,-0.28611c-0.00129,-0.63301 -0.00065,-1.26603 -0.00065,-1.92884c0.23426,0.02134 0.35163,0.18164 0.49562,0.29212c0.2147,0.16471 0.4024,0.37259 0.6377,0.49999c0.83171,0.45032 1.12884,1.11564 0.97899,2.0113c-0.04794,0.28657 -0.0075,0.58692 -0.0075,1.02013z"/><path d="M377.47171,230.53593c-0.71077,-0.56552 -1.31968,-1.05013 -1.9288,-1.5345c-0.10241,-0.06659 -0.16495,-0.17708 -0.16769,-0.29628c0.00309,-0.65764 0.00141,-1.3153 0.00141,-2.0813c0.71408,0.56805 1.35303,1.07583 1.99114,1.58459c0.07098,0.0577 0.10971,0.14429 0.10454,0.23375c-0.00111,0.65653 -0.00059,1.31305 -0.00059,2.09374z"/><path d="M372.71939,212.74271c0.70504,0.56425 1.32343,1.05854 1.94088,1.55392c0.09969,0.0712 0.15878,0.1836 0.15947,0.30333c-0.00142,0.65594 -0.00065,1.31189 -0.00065,2.05861c-0.71185,-0.5624 -1.35499,-1.06995 -1.99727,-1.57853c-0.10733,-0.08498 -0.10276,-0.20573 -0.10267,-0.32448c0.00049,-0.6319 0.00023,-1.2638 0.00023,-2.01284z"/><path d="M375.38922,250.20622c0.65328,0.51939 1.22479,0.98384 1.80913,1.43275c0.18885,0.12726 0.29526,0.34045 0.28073,0.56238c-0.01498,0.60137 -0.00489,1.20331 -0.00489,1.90689c-0.71387,-0.56776 -1.36481,-1.08462 -2.01365,-1.60391c-0.03661,-0.02725 -0.06105,-0.06697 -0.06831,-0.11106c-0.00406,-0.70693 -0.00299,-1.41389 -0.00299,-2.18706z"/><path d="M375.39281,214.86676c0.67658,0.53928 1.27452,1.01747 1.8748,1.4929c0.10794,0.0855 0.20759,0.1632 0.20642,0.31959c-0.00491,0.65599 -0.00208,1.31203 -0.00208,2.09481c-0.72807,-0.58454 -1.36555,-1.09565 -2.00129,-1.60876c-0.03775,-0.02565 -0.06432,-0.0639 -0.07459,-0.10737c-0.00442,-0.70594 -0.00327,-1.41191 -0.00327,-2.19117z"/><path d="M374.82094,234.33438c-0.71731,-0.57036 -1.34639,-1.07195 -1.97747,-1.57118c-0.12283,-0.09717 -0.12442,-0.22527 -0.12406,-0.36001c0.00162,-0.6183 0.00072,-1.23661 0.00072,-1.89621c0.40361,0.14405 0.6318,0.47456 0.95878,0.66127c0.92963,0.53085 1.36337,1.2728 1.149,2.33159c-0.04752,0.23471 -0.00696,0.48603 -0.00696,0.83454z"/><path d="M370.06854,240.09137c0.36874,0.28614 0.61816,0.53599 0.91758,0.70173c0.99845,0.55271 1.39307,1.35233 1.18431,2.44487c-0.03958,0.20713 -0.00567,0.42734 -0.00567,0.75964c-0.72577,-0.57899 -1.3656,-1.08895 -2.00464,-1.59982c-0.06802,-0.06099 -0.10222,-0.14942 -0.09225,-0.23854c0.0013,-0.65657 0.00069,-1.31315 0.00069,-2.06788z"/><path d="M374.81967,249.05305c-0.71925,-0.57173 -1.33023,-1.05843 -1.94276,-1.5433c-0.10083,-0.06875 -0.16013,-0.18104 -0.15854,-0.30023c0.00427,-0.65914 0.00195,-1.31831 0.00195,-2.06973c0.71099,0.56285 1.35337,1.07123 1.9955,1.57991c0.07122,0.05784 0.10986,0.14482 0.10418,0.23452c-0.0006,0.65773 -0.00032,1.31547 -0.00032,2.09882z"/><path d="M374.82104,237.28916c-0.74035,-0.59179 -1.38144,-1.10127 -2.01652,-1.61765c-0.05117,-0.05262 -0.07958,-0.12213 -0.07939,-0.19432c-0.00571,-0.66979 -0.00349,-1.33964 -0.00349,-2.10862c0.7059,0.56462 1.33423,1.06666 1.96173,1.56969c0.09475,0.07697 0.1462,0.1927 0.13873,0.31204c-0.00235,0.63075 -0.00107,1.26152 -0.00107,2.03884z"/><path d="M377.47018,245.24983c-0.73166,-0.58035 -1.37233,-1.08744 -2.01114,-1.59666c-0.06517,-0.06415 -0.09581,-0.15389 -0.08293,-0.2429c-0.00001,-0.65728 0,-1.31455 0,-2.066c0.69843,0.55531 1.32685,1.05447 1.95445,1.55454c0.08671,0.06338 0.13809,0.162 0.13912,0.267c0.00099,0.6553 0.00049,1.3106 0.00049,2.08402z"/><path d="M380.12646,241.49887c-0.71831,-0.57091 -1.34926,-1.07246 -1.98032,-1.57388c-0.1056,-0.0839 -0.11675,-0.1976 -0.1164,-0.31906c0.00181,-0.63177 0.00084,-1.26354 0.00084,-1.94412c0.44421,0.19433 0.7396,0.51385 1.07165,0.77489c1.07411,0.8444 1.06591,0.85267 1.0253,2.19409c-0.0075,0.24768 -0.00107,0.49577 -0.00107,0.8681z"/><path d="M378.03017,249.35271c0.71595,0.56755 1.33752,1.05757 1.95378,1.55373c0.0565,0.04887 0.09162,0.11666 0.09826,0.18962c0.01697,0.60186 0.0318,1.204 0.02974,1.80601c-0.00084,0.24748 -0.12125,0.26548 -0.31006,0.11231c-0.52516,-0.42599 -1.05436,-0.84731 -1.58763,-1.26393c-0.12406,-0.08719 -0.19425,-0.22889 -0.18668,-0.37688c0.00638,-0.63208 0.0026,-1.26427 0.0026,-2.02086z"/><path d="M380.08961,229.70376c-0.66985,-0.53263 -1.29063,-1.02566 -1.91054,-1.51971c-0.09773,-0.07345 -0.15305,-0.1877 -0.14878,-0.3072c0.00362,-0.6466 0.00165,-1.29323 0.00165,-2.05376c0.71304,0.56711 1.35434,1.07382 1.98877,1.58841c0.04738,0.05729 0.07093,0.12959 0.06604,0.20275c0.00476,0.67336 0.00286,1.34676 0.00286,2.08951z"/><path d="M380.68537,251.4593c0.71313,0.56545 1.32161,1.04812 1.93041,1.53042c0.07628,0.0511 0.12314,0.13393 0.12646,0.22353c0.00056,0.66885 0.0003,1.33769 0.0003,2.13455c-0.72438,-0.58098 -1.35043,-1.08237 -1.97528,-1.58514c-0.06481,-0.06431 -0.09497,-0.15408 -0.08158,-0.24288c-0.00059,-0.64376 -0.00032,-1.28751 -0.00032,-2.06047z"/><path d="M378.03107,219.91168c0.69017,0.55158 1.29378,1.03694 1.90169,1.51725c0.10855,0.08248 0.16798,0.21137 0.15882,0.34446c-0.00339,0.64273 -0.00149,1.28548 -0.00149,2.02541c-0.69795,-0.55605 -1.34785,-1.06901 -1.98837,-1.59263c-0.05526,-0.04518 -0.06702,-0.1608 -0.06771,-0.24394c-0.00531,-0.6453 -0.00293,-1.29065 -0.00293,-2.05056z"/><path d="M380.68521,219.06926c0.71063,0.56591 1.31791,1.0518 1.92859,1.5337c0.09414,0.07687 0.14329,0.1934 0.13157,0.31191c-0.00115,0.64641 -0.00054,1.29282 -0.00054,2.03799c-0.69426,-0.55069 -1.32302,-1.0494 -1.95174,-1.54817c-0.08002,-0.07038 -0.12033,-0.17348 -0.10846,-0.27737c0.00119,-0.64458 0.00058,-1.28917 0.00058,-2.05806z"/><path d="M380.68658,245.55332c0.68923,0.55125 1.27479,1.01983 1.86072,1.48794c0.09362,0.07481 0.19566,0.14024 0.19529,0.27917c-0.00175,0.67092 -0.00079,1.34184 -0.00079,2.11583c-0.70906,-0.56213 -1.34048,-1.05975 -1.96605,-1.56415c-0.05312,-0.05131 -0.08371,-0.12042 -0.08541,-0.19295c-0.00616,-0.67087 -0.00377,-1.34182 -0.00377,-2.12583z"/><path d="M382.74256,234.71949c-0.7144,-0.56561 -1.32302,-1.04651 -1.93001,-1.52932c-0.07545,-0.05238 -0.12109,-0.13589 -0.1233,-0.2256c0.00066,-0.66926 0.00034,-1.33852 0.00034,-2.12126c0.71426,0.56814 1.34264,1.06708 1.96952,1.56774c0.06528,0.06399 0.09602,0.15365 0.08319,0.24262c0.00047,0.64411 0.00026,1.28822 0.00026,2.06582z"/></g><g fill="#ebffe8" stroke-width="1"><path d="M372.5591,233.41788c0.71642,0.56391 1.35094,1.06375 1.98607,1.56287c0.08197,0.06845 0.12464,0.17093 0.11455,0.27514c-0.00124,0.65836 -0.00062,1.31672 -0.00062,2.07516c-0.71253,-0.56525 -1.35411,-1.07396 -1.99529,-1.58313c-0.10757,-0.08543 -0.10505,-0.20501 -0.10495,-0.32411c0.00052,-0.63279 0.00024,-1.26558 0.00024,-2.00591z"/><path d="M372.55819,259.89798c0.72325,0.57627 1.35172,1.07718 1.98043,1.57782c0.121,0.09635 0.1218,0.22848 0.12159,0.36305c-0.001,0.61846 -0.00043,1.23693 -0.00043,1.97349c-0.42879,-0.33876 -0.76494,-0.6768 -1.16736,-0.90688c-0.79105,-0.45226 -1.08034,-1.07993 -0.94218,-1.94226c0.04956,-0.30932 0.00795,-0.63222 0.00795,-1.06521z"/><path d="M372.00831,244.04382c-0.73806,-0.5875 -1.37948,-1.09783 -2.02052,-1.6086c-0.0955,-0.07609 -0.08345,-0.18432 -0.08365,-0.28611c-0.00129,-0.63301 -0.00065,-1.26603 -0.00065,-1.92884c0.23426,0.02134 0.35163,0.18164 0.49562,0.29212c0.2147,0.16471 0.4024,0.37259 0.6377,0.49999c0.83171,0.45032 1.12884,1.11564 0.97899,2.0113c-0.04794,0.28657 -0.0075,0.58692 -0.0075,1.02013z"/><path d="M377.311,242.34741c-0.71077,-0.56552 -1.31968,-1.05013 -1.9288,-1.5345c-0.10241,-0.06659 -0.16495,-0.17708 -0.16769,-0.29628c0.00309,-0.65764 0.00141,-1.3153 0.00141,-2.0813c0.71408,0.56805 1.35303,1.07583 1.99114,1.58459c0.07098,0.0577 0.10971,0.14429 0.10454,0.23375c-0.00111,0.65653 -0.00059,1.31305 -0.00059,2.09374z"/><path d="M372.55868,224.55418c0.70504,0.56425 1.32343,1.05854 1.94088,1.55392c0.09969,0.0712 0.15878,0.1836 0.15947,0.30333c-0.00142,0.65594 -0.00065,1.31189 -0.00065,2.05861c-0.71185,-0.5624 -1.35499,-1.06995 -1.99727,-1.57853c-0.10733,-0.08498 -0.10276,-0.20573 -0.10267,-0.32448c0.00049,-0.6319 0.00023,-1.2638 0.00023,-2.01284z"/><path d="M375.22852,262.0177c0.65328,0.51939 1.22479,0.98384 1.80913,1.43275c0.18885,0.12726 0.29526,0.34045 0.28073,0.56238c-0.01498,0.60137 -0.00489,1.20331 -0.00489,1.90689c-0.71387,-0.56776 -1.36481,-1.08462 -2.01365,-1.60391c-0.03661,-0.02725 -0.06105,-0.06697 -0.06831,-0.11106c-0.00406,-0.70693 -0.00299,-1.41389 -0.00299,-2.18706z"/><path d="M375.23211,226.67824c0.67658,0.53928 1.27452,1.01747 1.8748,1.4929c0.10794,0.0855 0.20759,0.1632 0.20642,0.31959c-0.00491,0.65599 -0.00208,1.31203 -0.00208,2.09481c-0.72807,-0.58454 -1.36555,-1.09565 -2.00129,-1.60876c-0.03775,-0.02565 -0.06432,-0.0639 -0.07459,-0.10737c-0.00442,-0.70594 -0.00327,-1.41191 -0.00327,-2.19117z"/><path d="M374.66024,246.14586c-0.71731,-0.57036 -1.34639,-1.07195 -1.97747,-1.57118c-0.12283,-0.09717 -0.12442,-0.22527 -0.12406,-0.36001c0.00162,-0.6183 0.00072,-1.23661 0.00072,-1.89621c0.40361,0.14405 0.6318,0.47456 0.95878,0.66127c0.92963,0.53085 1.36337,1.2728 1.149,2.33159c-0.04752,0.23471 -0.00696,0.48603 -0.00696,0.83454z"/><path d="M369.90784,251.90285c0.36874,0.28614 0.61816,0.53599 0.91758,0.70173c0.99845,0.55271 1.39307,1.35233 1.18431,2.44487c-0.03958,0.20713 -0.00567,0.42734 -0.00567,0.75964c-0.72577,-0.57899 -1.3656,-1.08895 -2.00464,-1.59982c-0.06802,-0.06099 -0.10222,-0.14942 -0.09225,-0.23854c0.0013,-0.65657 0.00069,-1.31315 0.00069,-2.06788z"/><path d="M374.65897,260.86453c-0.71925,-0.57173 -1.33023,-1.05843 -1.94276,-1.5433c-0.10083,-0.06875 -0.16013,-0.18104 -0.15854,-0.30023c0.00427,-0.65914 0.00195,-1.31831 0.00195,-2.06973c0.71099,0.56285 1.35337,1.07123 1.9955,1.57991c0.07122,0.05784 0.10986,0.14482 0.10418,0.23452c-0.0006,0.65773 -0.00032,1.31547 -0.00032,2.09882z"/><path d="M374.66034,249.10063c-0.74035,-0.59179 -1.38144,-1.10127 -2.01652,-1.61765c-0.05117,-0.05262 -0.07958,-0.12213 -0.07939,-0.19432c-0.00571,-0.66979 -0.00349,-1.33964 -0.00349,-2.10862c0.7059,0.56462 1.33423,1.06666 1.96173,1.56969c0.09475,0.07697 0.1462,0.1927 0.13873,0.31204c-0.00235,0.63075 -0.00107,1.26152 -0.00107,2.03884z"/><path d="M377.30948,257.06131c-0.73166,-0.58035 -1.37233,-1.08744 -2.01114,-1.59666c-0.06517,-0.06415 -0.09581,-0.15389 -0.08293,-0.2429c-0.00001,-0.65728 0,-1.31455 0,-2.066c0.69843,0.55531 1.32685,1.05447 1.95445,1.55454c0.08671,0.06338 0.13809,0.162 0.13912,0.267c0.00099,0.6553 0.00049,1.3106 0.00049,2.08402z"/><path d="M379.96575,253.31035c-0.71831,-0.57091 -1.34926,-1.07246 -1.98032,-1.57388c-0.1056,-0.0839 -0.11675,-0.1976 -0.1164,-0.31906c0.00181,-0.63177 0.00084,-1.26354 0.00084,-1.94412c0.44421,0.19433 0.7396,0.51385 1.07165,0.77489c1.07411,0.8444 1.06591,0.85267 1.0253,2.19409c-0.0075,0.24768 -0.00107,0.49577 -0.00107,0.8681z"/><path d="M377.86947,261.16419c0.71595,0.56755 1.33752,1.05757 1.95378,1.55373c0.0565,0.04887 0.09162,0.11666 0.09826,0.18962c0.01697,0.60186 0.0318,1.204 0.02974,1.80601c-0.00084,0.24748 -0.12125,0.26548 -0.31006,0.11231c-0.52516,-0.42599 -1.05436,-0.84731 -1.58763,-1.26393c-0.12406,-0.08719 -0.19425,-0.22889 -0.18668,-0.37688c0.00638,-0.63208 0.0026,-1.26427 0.0026,-2.02086z"/><path d="M379.92891,241.51524c-0.66985,-0.53263 -1.29063,-1.02566 -1.91054,-1.51971c-0.09773,-0.07345 -0.15305,-0.1877 -0.14878,-0.3072c0.00362,-0.6466 0.00165,-1.29323 0.00165,-2.05376c0.71304,0.56711 1.35434,1.07382 1.98877,1.58841c0.04738,0.05729 0.07093,0.12959 0.06604,0.20275c0.00476,0.67336 0.00286,1.34676 0.00286,2.08951z"/><path d="M380.52467,263.27078c0.71313,0.56545 1.32161,1.04812 1.93041,1.53042c0.07628,0.0511 0.12314,0.13393 0.12646,0.22353c0.00056,0.66885 0.0003,1.33769 0.0003,2.13455c-0.72438,-0.58098 -1.35043,-1.08237 -1.97528,-1.58514c-0.06481,-0.06431 -0.09497,-0.15408 -0.08158,-0.24288c-0.00059,-0.64376 -0.00032,-1.28751 -0.00032,-2.06047z"/><path d="M377.87036,231.72315c0.69017,0.55158 1.29378,1.03694 1.90169,1.51725c0.10855,0.08248 0.16798,0.21137 0.15882,0.34446c-0.00339,0.64273 -0.00149,1.28548 -0.00149,2.02541c-0.69795,-0.55605 -1.34785,-1.06901 -1.98837,-1.59263c-0.05526,-0.04518 -0.06702,-0.1608 -0.06771,-0.24394c-0.00531,-0.6453 -0.00293,-1.29065 -0.00293,-2.05056z"/><path d="M380.52451,230.88074c0.71063,0.56591 1.31791,1.0518 1.92859,1.5337c0.09414,0.07687 0.14329,0.1934 0.13157,0.31191c-0.00115,0.64641 -0.00054,1.29282 -0.00054,2.03799c-0.69426,-0.55069 -1.32302,-1.0494 -1.95174,-1.54817c-0.08002,-0.07038 -0.12033,-0.17348 -0.10846,-0.27737c0.00119,-0.64458 0.00058,-1.28917 0.00058,-2.05806z"/><path d="M380.52588,257.3648c0.68923,0.55125 1.27479,1.01983 1.86072,1.48794c0.09362,0.07481 0.19566,0.14024 0.19529,0.27917c-0.00175,0.67092 -0.00079,1.34184 -0.00079,2.11583c-0.70906,-0.56213 -1.34048,-1.05975 -1.96605,-1.56415c-0.05312,-0.05131 -0.08371,-0.12042 -0.08541,-0.19295c-0.00616,-0.67087 -0.00377,-1.34182 -0.00377,-2.12583z"/><path d="M382.58185,246.53097c-0.7144,-0.56561 -1.32302,-1.04651 -1.93001,-1.52932c-0.07545,-0.05238 -0.12109,-0.13589 -0.1233,-0.2256c0.00066,-0.66926 0.00034,-1.33852 0.00034,-2.12126c0.71426,0.56814 1.34264,1.06708 1.96952,1.56774c0.06528,0.06399 0.09602,0.15365 0.08319,0.24262c0.00047,0.64411 0.00026,1.28822 0.00026,2.06582z"/></g><g data-paper-data="{&quot;index&quot;:null}" fill="#ebffe8" stroke-width="1"><path d="M380.0913,247.32778c-0.71642,-0.56391 -1.35094,-1.06375 -1.98607,-1.56287c-0.08197,-0.06845 -0.12464,-0.17093 -0.11455,-0.27514c0.00124,-0.65836 0.00062,-1.31672 0.00062,-2.07516c0.71253,0.56525 1.35411,1.07396 1.99529,1.58313c0.10757,0.08543 0.10505,0.20501 0.10495,0.32411c-0.00052,0.63279 -0.00024,1.26558 -0.00024,2.00591z"/><path d="M380.0922,220.84768c-0.72325,-0.57627 -1.35172,-1.07718 -1.98043,-1.57782c-0.121,-0.09635 -0.1218,-0.22848 -0.12159,-0.36305c0.001,-0.61846 0.00043,-1.23693 0.00043,-1.97349c0.42879,0.33876 0.76494,0.6768 1.16736,0.90688c0.79105,0.45226 1.08034,1.07993 0.94218,1.94226c-0.04956,0.30932 -0.00795,0.63222 -0.00795,1.06521z"/><path d="M380.64209,236.70184c0.73806,0.5875 1.37948,1.09783 2.02052,1.6086c0.0955,0.07609 0.08345,0.18432 0.08365,0.28611c0.00129,0.63301 0.00065,1.26603 0.00065,1.92884c-0.23426,-0.02134 -0.35163,-0.18164 -0.49562,-0.29212c-0.2147,-0.16471 -0.4024,-0.37259 -0.6377,-0.49999c-0.83171,-0.45032 -1.12884,-1.11564 -0.97899,-2.0113c0.04794,-0.28657 0.0075,-0.58692 0.0075,-1.02013z"/><path d="M375.33939,238.39825c0.71077,0.56552 1.31968,1.05013 1.9288,1.5345c0.10241,0.06659 0.16495,0.17708 0.16769,0.29628c-0.00309,0.65764 -0.00141,1.3153 -0.00141,2.0813c-0.71408,-0.56805 -1.35303,-1.07583 -1.99114,-1.58459c-0.07098,-0.0577 -0.10971,-0.14429 -0.10454,-0.23375c0.00111,-0.65653 0.00059,-1.31305 0.00059,-2.09374z"/><path d="M380.09171,256.19147c-0.70504,-0.56425 -1.32343,-1.05854 -1.94088,-1.55392c-0.09969,-0.0712 -0.15878,-0.1836 -0.15947,-0.30333c0.00142,-0.65594 0.00065,-1.31189 0.00065,-2.05861c0.71185,0.5624 1.35499,1.06995 1.99727,1.57853c0.10733,0.08498 0.10276,0.20573 0.10267,0.32448c-0.00049,0.6319 -0.00023,1.2638 -0.00023,2.01284z"/><path d="M377.42187,218.72796c-0.65328,-0.51939 -1.22479,-0.98384 -1.80913,-1.43275c-0.18885,-0.12726 -0.29526,-0.34045 -0.28073,-0.56238c0.01498,-0.60137 0.00489,-1.20331 0.00489,-1.90689c0.71387,0.56776 1.36481,1.08462 2.01365,1.60391c0.03661,0.02725 0.06105,0.06697 0.06831,0.11106c0.00406,0.70693 0.00299,1.41389 0.00299,2.18706z"/><path d="M377.41829,254.06742c-0.67658,-0.53928 -1.27452,-1.01747 -1.8748,-1.4929c-0.10794,-0.0855 -0.20759,-0.1632 -0.20642,-0.31959c0.00491,-0.65599 0.00208,-1.31203 0.00208,-2.09481c0.72807,0.58454 1.36555,1.09565 2.00129,1.60876c0.03775,0.02565 0.06432,0.0639 0.07459,0.10737c0.00442,0.70594 0.00327,1.41191 0.00327,2.19117z"/><path d="M377.99015,234.5998c0.71731,0.57036 1.34639,1.07195 1.97747,1.57118c0.12283,0.09717 0.12442,0.22527 0.12406,0.36001c-0.00162,0.6183 -0.00072,1.23661 -0.00072,1.89621c-0.40361,-0.14405 -0.6318,-0.47456 -0.95878,-0.66127c-0.92963,-0.53085 -1.36337,-1.2728 -1.149,-2.33159c0.04752,-0.23471 0.00696,-0.48603 0.00696,-0.83454z"/><path d="M382.74255,228.84281c-0.36874,-0.28614 -0.61816,-0.53599 -0.91758,-0.70173c-0.99845,-0.55271 -1.39307,-1.35233 -1.18431,-2.44487c0.03958,-0.20713 0.00567,-0.42734 0.00567,-0.75964c0.72577,0.57899 1.3656,1.08895 2.00464,1.59982c0.06802,0.06099 0.10222,0.14942 0.09225,0.23854c-0.0013,0.65657 -0.00069,1.31315 -0.00069,2.06788z"/><path d="M377.99143,219.88113c0.71925,0.57173 1.33023,1.05843 1.94276,1.5433c0.10083,0.06875 0.16013,0.18104 0.15854,0.30023c-0.00427,0.65914 -0.00195,1.31831 -0.00195,2.06973c-0.71099,-0.56285 -1.35337,-1.07123 -1.9955,-1.57991c-0.07122,-0.05784 -0.10986,-0.14482 -0.10418,-0.23452c0.0006,-0.65773 0.00032,-1.31547 0.00032,-2.09882z"/><path d="M377.99005,231.64502c0.74035,0.59179 1.38144,1.10127 2.01652,1.61765c0.05117,0.05262 0.07958,0.12213 0.07939,0.19432c0.00571,0.66979 0.00349,1.33964 0.00349,2.10862c-0.7059,-0.56462 -1.33423,-1.06666 -1.96173,-1.56969c-0.09475,-0.07697 -0.1462,-0.1927 -0.13873,-0.31204c0.00235,-0.63075 0.00107,-1.26152 0.00107,-2.03884z"/><path d="M375.34092,223.68435c0.73166,0.58035 1.37233,1.08744 2.01114,1.59666c0.06517,0.06415 0.09581,0.15389 0.08293,0.2429c0.00001,0.65728 0,1.31455 0,2.066c-0.69843,-0.55531 -1.32685,-1.05447 -1.95445,-1.55454c-0.08671,-0.06338 -0.13809,-0.162 -0.13912,-0.267c-0.00099,-0.6553 -0.00049,-1.3106 -0.00049,-2.08402z"/><path d="M372.68464,227.43531c0.71831,0.57091 1.34926,1.07246 1.98032,1.57388c0.1056,0.0839 0.11675,0.1976 0.1164,0.31906c-0.00181,0.63177 -0.00084,1.26354 -0.00084,1.94412c-0.44421,-0.19433 -0.7396,-0.51385 -1.07165,-0.77489c-1.07411,-0.8444 -1.06591,-0.85267 -1.0253,-2.19409c0.0075,-0.24768 0.00107,-0.49577 0.00107,-0.8681z"/><path d="M374.78093,219.58147c-0.71595,-0.56755 -1.33752,-1.05757 -1.95378,-1.55373c-0.0565,-0.04887 -0.09162,-0.11666 -0.09826,-0.18962c-0.01697,-0.60186 -0.0318,-1.204 -0.02974,-1.80601c0.00084,-0.24748 0.12125,-0.26548 0.31006,-0.11231c0.52516,0.42599 1.05436,0.84731 1.58763,1.26393c0.12406,0.08719 0.19425,0.22889 0.18668,0.37688c-0.00638,0.63208 -0.0026,1.26427 -0.0026,2.02086z"/><path d="M372.72149,239.23042c0.66985,0.53263 1.29063,1.02566 1.91054,1.51971c0.09773,0.07345 0.15305,0.1877 0.14878,0.3072c-0.00362,0.6466 -0.00165,1.29323 -0.00165,2.05376c-0.71304,-0.56711 -1.35434,-1.07382 -1.98877,-1.58841c-0.04738,-0.05729 -0.07093,-0.12959 -0.06604,-0.20275c-0.00476,-0.67336 -0.00286,-1.34676 -0.00286,-2.08951z"/><path d="M372.12572,217.47488c-0.71313,-0.56545 -1.32161,-1.04812 -1.93041,-1.53042c-0.07628,-0.0511 -0.12314,-0.13393 -0.12646,-0.22353c-0.00056,-0.66885 -0.0003,-1.33769 -0.0003,-2.13455c0.72438,0.58098 1.35043,1.08237 1.97528,1.58514c0.06481,0.06431 0.09497,0.15408 0.08158,0.24288c0.00059,0.64376 0.00032,1.28751 0.00032,2.06047z"/><path d="M374.78003,249.02251c-0.69017,-0.55158 -1.29378,-1.03694 -1.90169,-1.51725c-0.10855,-0.08248 -0.16798,-0.21137 -0.15882,-0.34446c0.00339,-0.64273 0.00149,-1.28548 0.00149,-2.02541c0.69795,0.55605 1.34785,1.06901 1.98837,1.59263c0.05526,0.04518 0.06702,0.1608 0.06771,0.24394c0.00531,0.6453 0.00293,1.29065 0.00293,2.05056z"/><path d="M372.12589,249.86492c-0.71063,-0.56591 -1.31791,-1.0518 -1.92859,-1.5337c-0.09414,-0.07687 -0.14329,-0.1934 -0.13157,-0.31191c0.00115,-0.64641 0.00054,-1.29282 0.00054,-2.03799c0.69426,0.55069 1.32302,1.0494 1.95174,1.54817c0.08002,0.07038 0.12033,0.17348 0.10846,0.27737c-0.00119,0.64458 -0.00058,1.28917 -0.00058,2.05806z"/><path d="M372.12451,223.38086c-0.68923,-0.55125 -1.27479,-1.01983 -1.86072,-1.48794c-0.09362,-0.07481 -0.19566,-0.14024 -0.19529,-0.27917c0.00175,-0.67092 0.00079,-1.34184 0.00079,-2.11583c0.70906,0.56213 1.34048,1.05975 1.96605,1.56415c0.05312,0.05131 0.08371,0.12042 0.08541,0.19295c0.00616,0.67087 0.00377,1.34182 0.00377,2.12583z"/><path d="M370.06854,234.21469c0.7144,0.56561 1.32302,1.04651 1.93001,1.52932c0.07545,0.05238 0.12109,0.13589 0.1233,0.2256c-0.00066,0.66926 -0.00034,1.33852 -0.00034,2.12126c-0.71426,-0.56814 -1.34264,-1.06708 -1.96952,-1.56774c-0.06528,-0.06399 -0.09602,-0.15365 -0.08319,-0.24262c-0.00047,-0.64411 -0.00026,-1.28822 -0.00026,-2.06582z"/></g></g><path d="M69.177,98.30274h340.55217" fill="none" stroke="#cdcdcd" stroke-width="1" stroke-linecap="round"/></g></g></svg>