<svg xmlns="http://www.w3.org/2000/svg" xmlns:xlink="http://www.w3.org/1999/xlink" version="1.1" width="24.336471557617188" height="18.9385986328125" viewBox="0.2157285213470459 -0.42099998891353607 24.336471557617188 18.9385986328125">
  <!-- Exported by Scratch - http://scratch.mit.edu/ -->
  <g id="ID0.8559770211577415">
    <g id="ID0.5509724728763103">
      <g id="ID0.926967881154269">
        <g id="container-id1">
          <g id="id1">
            <g id="ID0.5499575794674456">
              <g id="ID0.7513383445329964">
                <g id="id6">
                  <path id="ID0.7197263478301466" fill="none" stroke="none" d="M 0.742 0.079 L 24.0333 0.079 L 24.0333 17.9981 L 0.742 17.9981 L 0.742 0.079 Z " stroke-width="0.019138712280949172"/>
                  <path id="ID0.21323765255510807" fill="#0280FF" stroke="none" d="M 12.5857 15.086 L 12.5857 15.086 C 12.3216 14.9113 12.0765 14.7172 11.8502 14.5424 C 11.6616 14.4065 11.4918 14.2706 11.3221 14.1542 C 10.9826 13.9018 10.662 13.6688 10.3414 13.4358 C 10.0397 13.2029 9.7379 12.9699 9.4362 12.7369 C 9.2853 12.6205 9.1155 12.504 8.9458 12.3681 C 8.38 11.9604 7.8143 11.5527 7.2485 11.1256 C 7.1542 11.0479 7.0787 10.9897 6.9844 10.9314 C 6.6827 10.8149 6.4375 10.5626 6.1735 10.3684 C 6.0792 10.3102 5.9849 10.2325 5.8717 10.1743 C 5.6077 9.9801 5.4946 9.6889 5.2494 9.4754 C 5.0231 9.2618 4.8345 9.0289 4.6647 8.7571 C 4.4573 8.4076 4.1555 8.1552 3.8161 7.9805 C 3.5709 7.8252 3.3069 7.8446 3.0617 7.9999 C 2.8354 7.8252 2.6091 7.6505 2.3639 7.4951 C 2.1942 7.3592 1.9867 7.2039 1.817 7.0875 C 1.6284 6.9321 1.4398 6.7962 1.2701 6.6798 C 1.2135 6.6409 1.1946 6.6021 1.1569 6.5633 C 1.0437 6.408 0.9306 6.2332 0.8174 6.0779 C 0.7797 6.0391 0.7609 6.0003 0.742 5.942 C 0.742 5.8061 0.7231 5.6702 0.7231 5.5149 C 0.7043 5.4373 0.7231 5.379 0.7609 5.3208 C 0.874 5.049 0.9872 4.7772 1.1003 4.5054 C 1.138 4.3889 1.2323 4.3112 1.3078 4.1948 C 1.4775 3.9618 1.6661 3.7482 1.8547 3.5153 C 1.9113 3.457 1.9679 3.3988 2.0433 3.3405 C 2.5902 2.9717 3.1371 2.6028 3.7029 2.2339 C 4.2498 1.8651 4.7779 1.4962 5.3248 1.1273 C 5.4946 1.0109 5.6831 0.9526 5.8529 0.875 C 6.0981 0.7585 6.3432 0.642 6.5884 0.5255 C 6.7581 0.4478 6.9279 0.3702 7.0976 0.2925 C 7.2108 0.2537 7.3051 0.1955 7.4182 0.1566 C 7.5314 0.0984 7.6257 0.079 7.7577 0.1178 C 8.0594 0.2149 8.3423 0.2731 8.6252 0.3702 C 8.6818 0.3896 8.7572 0.3896 8.8138 0.3896 C 8.8327 0.409 8.8704 0.409 8.8892 0.4284 C 8.8892 0.4478 8.8892 0.4478 8.8892 0.4478 C 8.9081 0.4478 8.9081 0.4478 8.9081 0.4478 C 8.927 0.5643 8.8327 0.5643 8.7572 0.5837 C 8.2857 0.7391 7.8331 0.8944 7.3616 1.0109 C 6.777 1.1468 6.2678 1.4185 5.7586 1.7098 C 4.9853 2.0204 4.363 2.6028 3.7406 3.127 C 3.5143 3.3405 3.3069 3.5541 3.156 3.8453 C 3.0051 4.1365 2.8165 4.4277 2.6279 4.7578 C 2.8354 4.7578 3.024 4.7189 3.1937 4.6995 C 3.8726 4.583 4.5516 4.486 5.2494 4.3889 C 5.3248 4.3695 5.3814 4.3501 5.4568 4.4083 C 5.4757 4.4083 5.4757 4.4471 5.4757 4.4666 C 5.438 4.5054 5.3814 4.5248 5.3437 4.5248 C 4.7402 4.7772 4.1555 5.049 3.552 5.2625 C 3.4955 5.3014 3.4012 5.3014 3.3823 5.379 C 3.3634 5.4567 3.4577 5.4955 3.5143 5.5343 C 4.7779 6.4468 6.0038 7.3592 7.2485 8.2911 C 8.1914 8.9706 9.1155 9.6695 10.0397 10.349 C 10.7563 10.8732 11.473 11.4168 12.2462 11.9604 C 12.2273 11.7662 12.1519 11.5915 12.1142 11.4362 C 12.0199 11.1256 11.9256 10.8149 11.8313 10.5237 C 11.8124 10.4461 11.7936 10.3684 11.7936 10.3102 C 11.7936 10.2519 11.8124 10.1937 11.8313 10.1549 C 11.8502 10.1355 11.869 10.1355 11.869 10.1355 C 11.9067 10.1549 11.9067 10.1743 11.9256 10.1937 C 11.9256 10.2131 11.9445 10.2325 11.9445 10.2519 C 11.9633 10.2714 11.9633 10.3102 11.9633 10.3296 C 11.9822 10.349 11.9822 10.3684 11.9822 10.3684 C 12.001 10.4073 12.001 10.4267 12.0199 10.4655 C 12.0199 10.4849 12.0199 10.4849 12.0387 10.5043 C 12.0576 10.5432 12.0765 10.5626 12.0953 10.6014 C 12.3216 11.1644 12.5102 11.7274 12.7365 12.2904 C 12.9817 12.5428 13.2835 12.7369 13.5664 12.9311 C 15.0562 14.0571 16.565 15.1249 18.0549 16.2315 C 18.1492 16.3091 18.2435 16.3868 18.2435 16.5033 C 18.2435 16.6197 18.2246 16.7168 18.168 16.8333 C 18.0926 17.1051 18.0549 17.3575 18.0737 17.6293 C 18.0737 17.7458 18.0737 17.8428 17.9983 17.9011 C 17.8663 17.9787 17.7154 17.9593 17.5645 18.0176 C 17.5268 18.0176 17.4891 17.9981 17.4514 17.9787 C 17.3759 17.9399 17.3005 17.9011 17.2439 17.8428 C 17.0553 17.8428 16.9233 17.7263 16.7724 17.6293 C 16.3953 17.4157 16.0181 17.1828 15.6597 16.9692 C 15.5277 16.911 15.4334 16.8333 15.358 16.7168 C 15.3203 16.6586 15.3014 16.6197 15.2637 16.5809 C 14.8677 16.2121 14.5282 15.8044 14.151 15.4161 C 13.887 15.1443 13.5852 14.9501 13.2269 14.8725 C 13.0006 14.8337 12.7743 14.8142 12.6422 15.0666 C 12.6234 15.086 12.5857 15.086 12.5857 15.086 Z " stroke-width="0.019138712280949172"/>
                  <path id="ID0.5980842281132936" fill="#016EDB" stroke="none" d="M 12.1708 2.3698 L 12.1708 2.3698 C 12.3594 2.4863 12.5668 2.661 12.7554 2.7775 C 13.2835 3.1658 13.8304 3.5541 14.3585 3.9424 C 14.7545 4.2142 15.1317 4.5054 15.5277 4.7772 C 15.6786 4.8937 15.8295 4.9907 15.9804 5.1072 C 16.0369 5.146 16.0935 5.1655 16.0558 5.2431 C 15.8106 5.5926 15.4523 5.845 15.1505 6.1556 C 14.8865 6.408 14.6036 6.6409 14.3396 6.9127 C 14.2264 7.0292 14.1133 7.1263 13.9813 7.1845 C 13.1515 7.6116 12.3594 8.0387 11.5107 8.4464 C 11.4352 8.4853 11.3598 8.5241 11.2844 8.5047 C 11.0015 8.3882 10.7563 8.1746 10.4923 7.9805 C 9.0967 6.9127 7.6634 5.9032 6.2678 4.8742 C 6.0415 4.6995 5.8152 4.583 5.6643 4.3889 C 5.702 4.1948 5.8529 4.0783 5.9472 3.923 C 6.4187 3.2629 7.0787 2.8164 7.7011 2.3116 C 7.7388 2.3116 7.7577 2.2922 7.7765 2.2922 C 7.7954 2.2728 7.7954 2.2728 7.8143 2.2534 C 7.852 2.2534 7.852 2.2534 7.8897 2.2339 C 7.9085 2.2145 7.9085 2.2145 7.9274 2.1951 C 7.9463 2.1951 7.9651 2.1951 7.9651 2.1757 C 7.984 2.1757 8.0028 2.1563 8.0217 2.1563 C 8.1726 2.0786 8.3235 2.001 8.4555 1.9039 C 9.0024 1.535 9.6248 1.3603 10.2471 1.1468 C 10.3225 1.1273 10.3791 1.1079 10.4546 1.1273 C 10.662 1.2827 10.8695 1.438 11.0958 1.5739 C 11.4541 1.8457 11.8124 2.098 12.1708 2.3698 Z " stroke-width="0.019138712280949172"/>
                  <path id="ID0.20991120440885425" fill="rgb(38,38,38)" stroke="none" d="M 12.5857 15.086 L 12.5857 15.086 C 12.5857 15.0666 12.6045 15.0472 12.6234 15.0084 C 12.68 14.8337 12.8497 14.7948 13.0194 14.7948 C 13.2269 14.8142 13.4532 14.8337 13.6229 14.989 C 13.887 15.086 14.0944 15.2802 14.3019 15.4743 C 14.415 15.5908 14.5282 15.7267 14.6036 15.8626 C 14.6602 15.9597 14.7168 15.9985 14.7922 16.0567 C 14.9997 16.2315 15.2071 16.4256 15.358 16.6197 C 15.4523 16.7556 15.5466 16.8527 15.6786 16.9498 C 15.6786 17.0469 15.6032 17.1051 15.5466 17.1633 C 15.3203 17.2992 15.094 17.474 14.8865 17.6293 C 14.7168 17.7263 14.547 17.7846 14.3396 17.7458 C 14.3396 17.7458 14.3396 17.7458 14.3207 17.7458 C 14.0756 17.6875 13.8681 17.571 13.6607 17.4157 C 13.5286 17.3187 13.4343 17.2022 13.34 17.0857 C 13.076 16.8333 12.9063 16.5227 12.7365 16.2121 C 12.5857 15.8626 12.5291 15.4743 12.5857 15.086 Z " stroke-width="0.019138712280949172"/>
                  <path id="ID0.7878994774073362" fill="rgb(38,38,38)" stroke="none" d="M 3.0617 7.9999 L 3.0617 7.9999 C 3.1371 7.864 3.288 7.8446 3.4012 7.8058 C 3.42 7.7864 3.4577 7.8058 3.4766 7.8252 C 3.5709 7.8252 3.6652 7.864 3.7406 7.8834 C 3.7972 7.8834 3.8161 7.9028 3.8538 7.9223 C 4.0424 8.0776 4.2498 8.1941 4.4196 8.3882 C 4.6082 8.6017 4.7779 8.8153 4.8911 9.0483 C 4.9288 9.0871 4.9476 9.1259 4.9853 9.1648 C 5.2305 9.3589 5.438 9.6113 5.6454 9.8637 C 5.702 9.9607 5.8152 10.0384 5.8717 10.1355 C 5.8717 10.2131 5.8152 10.2519 5.7586 10.2908 C 5.57 10.4267 5.3814 10.5626 5.1739 10.679 C 5.0231 10.7761 4.8345 10.8149 4.6647 10.7567 C 4.2876 10.6985 4.0235 10.4461 3.7784 10.1743 C 3.5709 9.9607 3.4012 9.6889 3.2503 9.4171 C 3.1937 9.3395 3.156 9.2424 3.1371 9.1648 C 3.0994 9.0677 3.0806 8.9512 3.024 8.8347 C 3.0051 8.7765 2.9863 8.6794 2.9863 8.6017 C 2.9674 8.3882 2.9674 8.1941 3.0617 7.9999 Z " stroke-width="0.019138712280949172"/>
                  <path id="ID0.5798938474617898" fill="rgb(196,196,245)" stroke="none" d="M 10.4546 1.1273 L 10.4546 1.1273 C 10.0397 1.2827 9.6059 1.4185 9.191 1.5739 C 9.0024 1.6321 8.8327 1.7486 8.6441 1.8651 C 8.4178 1.9816 8.1914 2.098 7.9651 2.2145 C 7.9463 2.0786 7.8331 2.0204 7.6822 1.9816 C 7.2862 1.8457 6.8524 1.8068 6.4187 1.768 C 6.2112 1.7486 5.966 1.7874 5.7397 1.6709 C 5.8717 1.5544 6.0603 1.4962 6.2112 1.4185 C 6.2866 1.3603 6.3621 1.3409 6.4187 1.3021 C 6.6073 1.1856 6.8147 1.1079 7.0222 1.0497 C 7.5314 0.8944 8.0217 0.7391 8.512 0.6032 C 8.6252 0.5643 8.7384 0.5449 8.8327 0.5061 C 8.8704 0.5061 8.8892 0.4673 8.9081 0.4478 C 8.9458 0.4284 8.9835 0.4478 9.0213 0.4478 C 9.3041 0.5837 9.6059 0.7391 9.8888 0.8555 C 10.0774 0.9526 10.266 1.0303 10.4546 1.1273 Z " stroke-width="0.019138712280949172"/>
                  <path id="ID0.737728176638484" fill="#01458A" stroke="none" d="M 23.3166 13.5329 L 23.3166 13.5329 C 23.4675 13.5135 23.6184 13.4941 23.7881 13.4941 C 23.8447 13.4941 23.9201 13.5135 24.0522 13.5912 C 23.939 13.6688 23.8258 13.7659 23.7127 13.8435 C 23.4298 14.0377 23.1658 14.2318 22.8829 14.4454 C 22.7509 14.523 22.6188 14.6201 22.4868 14.7172 C 22.1096 14.989 21.7325 15.2413 21.3741 15.5326 C 21.129 15.6879 20.9026 15.8626 20.6575 16.0179 C 20.2049 16.3285 19.7711 16.6586 19.3185 16.9886 C 19.0544 17.1828 18.7527 17.3575 18.5075 17.5904 C 18.5075 17.5904 18.5075 17.5904 18.5075 17.5904 C 18.4887 17.5904 18.4698 17.6099 18.4509 17.6293 C 18.4509 17.6293 18.4321 17.6293 18.4132 17.6293 C 18.3944 17.6487 18.3944 17.6487 18.3755 17.6681 C 18.3566 17.6681 18.3566 17.6681 18.3566 17.6681 C 18.3566 17.6875 18.3378 17.6875 18.3378 17.6875 C 18.3189 17.7069 18.3001 17.7069 18.3001 17.7263 C 18.1869 17.6681 18.2812 17.6099 18.3001 17.571 C 18.5075 17.3381 18.6772 17.0857 18.9036 16.8721 C 19.1864 16.6197 19.4505 16.3868 19.6768 16.0567 C 20.8084 15.2608 21.9211 14.4454 23.0715 13.6494 C 23.1281 13.5912 23.2035 13.5135 23.3166 13.5329 Z " stroke-width="0.019138712280949172"/>
                  <path id="ID0.8244834863580763" fill="rgb(163,162,162)" stroke="none" d="M 19.7145 16.0567 L 19.7145 16.0567 C 19.7145 16.1344 19.6579 16.1926 19.6014 16.2509 C 19.375 16.4838 19.1487 16.7168 18.9036 16.9498 C 18.6772 17.1828 18.4887 17.4157 18.2812 17.6487 C 18.2435 17.6875 18.2623 17.7069 18.3001 17.7263 C 18.2246 17.8234 18.1303 17.8817 17.9983 17.9011 C 17.9983 17.7263 17.9983 17.5322 17.9983 17.3381 C 17.9983 17.2216 18.036 17.1245 18.0737 17.008 C 18.1303 16.8333 18.168 16.6392 18.2058 16.4644 C 18.2435 16.3868 18.3001 16.348 18.3944 16.3285 C 18.7715 16.2315 19.1487 16.1538 19.5259 16.0373 C 19.6014 16.0373 19.6579 16.0373 19.7145 16.0567 Z " stroke-width="0.019138712280949172"/>
                  <path id="ID0.9958756691776216" fill="rgb(196,196,245)" stroke="none" d="M 8.8892 0.4284 L 8.8892 0.4284 C 8.8515 0.4478 8.8327 0.4284 8.8138 0.3896 C 8.8327 0.3896 8.8704 0.3896 8.8892 0.4284 Z " stroke-width="0.019138712280949172"/>
                  <path id="ID0.17204775055870414" fill="rgb(146,146,146)" stroke="none" d="M 18.4509 17.6293 L 18.4509 17.6293 C 18.4509 17.5904 18.4698 17.571 18.5075 17.5904 C 18.4887 17.6099 18.4698 17.6293 18.4509 17.6293 Z " stroke-width="0.019138712280949172"/>
                  <path id="ID0.0728209507651627" fill="rgb(163,162,162)" stroke="none" d="M 18.3755 17.6681 L 18.3755 17.6681 C 18.3755 17.6293 18.3944 17.6293 18.4132 17.6293 C 18.3944 17.6681 18.3944 17.6681 18.3755 17.6681 Z " stroke-width="0.019138712280949172"/>
                  <path id="ID0.35263131419196725" fill="rgb(163,162,162)" stroke="none" d="M 18.3378 17.6875 L 18.3378 17.6875 C 18.3378 17.6875 18.3378 17.6681 18.3566 17.6681 C 18.3566 17.6875 18.3566 17.7069 18.3378 17.6875 Z " stroke-width="0.019138712280949172"/>
                  <path id="ID0.30188264790922403" fill="#016EDB" stroke="none" d="M 19.7145 16.0567 L 19.7145 16.0567 C 19.2807 16.1732 18.847 16.2703 18.3944 16.3868 C 18.3378 16.4062 18.2812 16.4256 18.2058 16.4644 C 18.168 16.4062 18.1303 16.348 18.0737 16.3285 C 17.8474 16.1538 17.6023 15.9791 17.3571 15.8044 C 17.0553 15.5714 16.7347 15.319 16.4141 15.086 C 16.2067 14.9307 15.9804 14.7948 15.7729 14.6201 C 15.4146 14.3677 15.0562 14.1153 14.7168 13.8435 C 14.6036 13.7659 14.4905 13.6688 14.3773 13.5912 C 14.0567 13.3776 13.7361 13.1252 13.4343 12.8923 C 13.208 12.7369 12.9817 12.5816 12.7743 12.4069 C 12.7365 12.4069 12.7177 12.3681 12.68 12.3487 C 13.0006 12.1545 13.34 12.0186 13.6795 11.8439 C 14.4905 11.4944 15.2826 11.1062 16.0935 10.7567 C 16.3387 10.6596 16.5461 10.5432 16.7347 10.3296 C 17.2251 9.8248 17.7343 9.3201 18.2246 8.7959 C 18.5075 8.4853 18.7904 8.1552 19.111 7.864 C 19.111 7.8446 19.1487 7.8252 19.1676 7.8252 C 19.1676 7.8252 19.1676 7.8252 19.1864 7.8252 C 19.4128 8.0387 19.6391 8.2523 19.8654 8.4464 C 20.2426 8.8347 20.6386 9.2036 21.0158 9.5724 C 21.2798 9.8248 21.525 10.0772 21.8079 10.3296 C 22.1096 10.6402 22.4303 10.9314 22.732 11.2226 C 22.8074 11.3003 22.8829 11.378 22.9583 11.4362 C 23.2223 11.6886 23.4864 11.9604 23.7504 12.2128 C 23.7881 12.2322 23.8258 12.2904 23.8447 12.3098 C 23.8824 12.3487 23.8824 12.4069 23.8824 12.4457 C 23.7316 12.6981 23.6184 12.9505 23.4675 13.2029 C 23.4109 13.3194 23.3732 13.4358 23.3166 13.5329 C 23.0526 13.7076 22.7697 13.9018 22.5057 14.0959 C 22.0154 14.4454 21.5061 14.8142 21.0158 15.1831 C 20.6952 15.4161 20.3746 15.6296 20.054 15.8432 C 19.9974 15.9014 19.922 15.9403 19.8465 15.9985 C 19.8277 16.0373 19.7711 16.0373 19.7145 16.0567 Z " stroke-width="0.019138712280949172"/>
                  <path id="ID0.6365372873842716" fill="rgb(151,151,189)" stroke="none" d="M 19.1487 7.8834 L 19.1487 7.8834 C 19.0733 7.9611 18.9979 8.0387 18.9224 8.097 C 18.168 8.9124 17.3948 9.7083 16.6404 10.5237 C 16.5839 10.5626 16.5273 10.6208 16.4707 10.6402 C 16.3575 10.679 16.2632 10.7567 16.1124 10.7761 C 16.0935 10.6596 16.1689 10.6402 16.2444 10.6014 C 16.3764 10.5237 16.3953 10.4267 16.301 10.3102 C 16.2444 10.2131 16.1878 10.1355 16.1312 10.0384 C 15.49 9.2424 14.9431 8.3882 14.3207 7.534 C 14.2264 7.3981 14.0944 7.2816 13.9813 7.1457 C 14.0756 7.0875 14.1699 7.0098 14.2642 6.9127 C 14.8299 6.3885 15.3769 5.845 15.9426 5.3208 C 15.9804 5.2819 16.0181 5.2625 16.0558 5.2431 C 16.0935 5.2431 16.1501 5.2043 16.1689 5.2625 C 16.301 5.3596 16.433 5.4373 16.5461 5.5537 C 16.7913 5.7673 16.9988 5.9614 17.2439 6.1556 C 17.4325 6.2915 17.6211 6.4856 17.8097 6.6409 C 17.9983 6.7962 18.168 6.9516 18.3566 7.0875 C 18.4509 7.1651 18.5264 7.2622 18.6207 7.301 C 18.7904 7.4369 18.9413 7.5728 19.0733 7.7087 C 19.111 7.7475 19.1487 7.7864 19.1864 7.8252 C 19.1864 7.8252 19.1864 7.8252 19.1864 7.8252 C 19.1676 7.8252 19.1487 7.8446 19.1487 7.8834 Z " stroke-width="0.019138712280949172"/>
                  <path id="ID0.8802320300601423" fill="rgb(239,239,255)" stroke="none" d="M 5.6831 4.3695 L 5.6831 4.3695 C 6.1546 4.7189 6.645 5.0684 7.1165 5.4373 C 7.5879 5.7673 8.0783 6.1167 8.5686 6.4856 C 9.0401 6.8351 9.5116 7.1845 10.0019 7.534 C 10.4168 7.8446 10.8318 8.1552 11.2655 8.4658 C 11.2655 8.4658 11.2655 8.4853 11.2844 8.5047 C 11.473 8.6406 11.4352 8.893 11.5295 9.0677 C 11.5861 9.3201 11.6616 9.5724 11.737 9.8248 C 11.7936 9.9801 11.8124 10.1355 11.8313 10.2714 C 11.8502 10.349 11.869 10.4073 11.869 10.4655 C 11.9445 10.6985 12.001 10.9314 12.0765 11.1644 C 12.133 11.3585 12.1896 11.5721 12.2651 11.7856 C 12.2839 11.8439 12.3028 11.8827 12.3028 11.9215 C 12.3028 11.9604 12.3216 12.0186 12.3028 12.038 C 12.2462 12.0769 12.2273 12.0186 12.1896 11.9992 C 11.8313 11.7274 11.473 11.475 11.1146 11.2032 C 10.8129 10.9897 10.5489 10.7761 10.2471 10.5626 C 9.7945 10.2325 9.3419 9.8831 8.8704 9.553 C 8.6063 9.3395 8.3235 9.1453 8.0406 8.9318 C 7.6822 8.6794 7.3051 8.3882 6.9467 8.1358 C 6.6827 7.9223 6.4187 7.7281 6.1358 7.534 C 5.7586 7.2622 5.3814 6.971 5.0042 6.6992 C 4.7213 6.4662 4.4196 6.2526 4.1178 6.0197 C 3.8726 5.845 3.6275 5.6702 3.3823 5.4955 C 3.3446 5.4567 3.2691 5.4373 3.2503 5.3596 C 3.3823 5.2625 3.5143 5.2237 3.6652 5.1655 C 3.9481 5.049 4.2498 4.9325 4.5516 4.816 C 4.8156 4.6995 5.0796 4.583 5.3437 4.5054 C 5.3814 4.4666 5.438 4.5054 5.4568 4.4471 C 5.4568 4.4666 5.4568 4.4666 5.4568 4.4666 C 5.5134 4.3695 5.57 4.3112 5.6831 4.3695 Z " stroke-width="0.019138712280949172"/>
                  <path id="ID0.09237040393054485" fill="rgb(160,160,200)" stroke="none" d="M 11.473 9.0677 L 11.473 9.0677 C 11.4164 8.99 11.4164 8.893 11.3975 8.8347 C 11.3598 8.7182 11.341 8.6017 11.2844 8.5047 C 11.473 8.427 11.6804 8.3299 11.869 8.2135 C 12.5291 7.8834 13.1892 7.534 13.8681 7.1845 C 13.887 7.1845 13.9435 7.1651 13.9813 7.1457 C 14.0001 7.1651 14.0378 7.1845 14.0567 7.1845 C 14.1321 7.2039 14.1699 7.2622 14.2076 7.301 C 14.4339 7.6505 14.6602 7.9805 14.9242 8.2911 C 15.094 8.5435 15.2826 8.7765 15.4523 9.0483 C 15.5089 9.1065 15.5466 9.1842 15.6032 9.2424 C 15.6786 9.3977 15.7729 9.5142 15.8861 9.6501 C 16.0935 9.8637 16.2632 10.116 16.3953 10.3684 C 16.4518 10.4655 16.433 10.4849 16.3764 10.5626 C 16.3387 10.6014 16.3198 10.6402 16.2632 10.6596 C 16.1878 10.6596 16.1501 10.6985 16.1124 10.7761 C 16.0935 10.7955 16.0747 10.8149 16.0369 10.8149 C 15.6597 11.0091 15.2637 11.1838 14.8865 11.378 C 14.547 11.5139 14.2264 11.6692 13.887 11.8245 C 13.5286 11.9798 13.1892 12.1351 12.8497 12.3098 C 12.7931 12.3292 12.7365 12.3487 12.68 12.3487 C 12.5291 11.9021 12.3594 11.4556 12.1896 10.9897 C 12.1519 10.8538 12.0953 10.6985 12.0387 10.5626 C 12.0199 10.5432 12.0199 10.5043 12.001 10.4849 C 12.001 10.4849 12.001 10.4849 12.001 10.4849 C 11.9633 10.4461 12.001 10.3878 11.9633 10.3684 C 11.9633 10.3684 11.9633 10.3684 11.9633 10.3684 C 11.9256 10.3102 11.9633 10.2519 11.9067 10.2325 C 11.9067 10.2325 11.9067 10.2325 11.9067 10.2325 C 11.9067 10.1937 11.9067 10.1743 11.8879 10.1355 C 11.8879 10.1355 11.8879 10.1355 11.8879 10.1355 C 11.7181 9.8831 11.6804 9.5724 11.5673 9.3007 C 11.5295 9.223 11.5107 9.1259 11.473 9.0677 Z " stroke-width="0.019138712280949172"/>
                  <path id="ID0.49335492216050625" fill="rgb(209,209,255)" stroke="none" d="M 5.6831 4.3695 L 5.6831 4.3695 C 5.6077 4.3695 5.5511 4.4471 5.4568 4.4666 C 5.4003 4.3889 5.3248 4.4083 5.2682 4.4277 C 5.0419 4.486 4.7968 4.5054 4.5516 4.5442 C 4.4384 4.5636 4.2876 4.583 4.1744 4.6025 C 4.0235 4.6219 3.9104 4.6413 3.7784 4.6607 C 3.4389 4.7189 3.0994 4.7578 2.7788 4.816 C 2.7034 4.816 2.6656 4.8548 2.5902 4.8354 C 2.5714 4.8354 2.5336 4.816 2.5525 4.7966 C 2.6091 4.6995 2.6656 4.583 2.7222 4.4666 C 2.9108 4.1753 3.0806 3.8647 3.2503 3.5541 C 3.3069 3.4764 3.3634 3.3988 3.4389 3.3405 C 3.8538 2.9717 4.2876 2.6028 4.7213 2.2145 C 4.759 2.1757 4.7968 2.1563 4.8533 2.1175 C 5.1362 1.9816 5.4003 1.8262 5.6831 1.6903 C 5.702 1.6903 5.7209 1.6709 5.7397 1.6709 C 5.8152 1.6709 5.9095 1.6709 5.9849 1.6903 C 6.2301 1.7098 6.4752 1.6903 6.7204 1.7486 C 6.7581 1.7486 6.7958 1.7486 6.8147 1.7486 C 7.1919 1.7486 7.5314 1.8651 7.8708 1.9816 C 7.8897 1.9816 7.9085 1.9816 7.9085 1.9816 C 8.0028 2.0204 8.0217 2.0398 8.0028 2.1563 C 7.984 2.1757 7.984 2.1951 7.9651 2.2145 C 7.9651 2.2145 7.9651 2.2145 7.9651 2.2145 C 7.9651 2.2339 7.9463 2.2339 7.9274 2.2534 C 7.9274 2.2534 7.9085 2.2534 7.9085 2.2534 C 7.8897 2.2534 7.852 2.2728 7.852 2.2922 C 7.8331 2.3116 7.8331 2.3116 7.8331 2.3116 C 7.8143 2.3116 7.8143 2.3116 7.8143 2.3116 C 7.7954 2.3116 7.7954 2.3116 7.7765 2.331 C 7.5125 2.4863 7.3051 2.7193 7.0599 2.894 C 6.8901 3.0299 6.7581 3.1658 6.5884 3.2823 C 6.4564 3.3794 6.3621 3.4959 6.2678 3.6123 C 6.0603 3.8647 5.8717 4.1365 5.6831 4.3695 Z " stroke-width="0.019138712280949172"/>
                  <path id="ID0.2465158523991704" fill="#C0C0C0" stroke="#C0C0C0" stroke-width="0.038277424561898345" d="M 11.473 9.0677 L 11.473 9.0677 C 11.4918 9.0677 11.5295 9.0871 11.5295 9.1259 C 11.6427 9.4365 11.7559 9.7472 11.869 10.0772 C 11.8879 10.0966 11.8879 10.1355 11.8879 10.1355 C 11.8313 10.1743 11.8502 10.2325 11.8313 10.2714 C 11.7559 10.1937 11.7559 10.0772 11.7181 9.9996 C 11.6427 9.7083 11.5673 9.4171 11.473 9.1259 C 11.473 9.1065 11.473 9.0677 11.473 9.0677 Z "/>
                  <path id="ID0.09684816189110279" fill="rgb(238,72,84)" stroke="none" d="M 11.9067 10.2325 L 11.9067 10.2325 C 11.9633 10.2519 11.9633 10.3102 11.9633 10.3684 C 11.9067 10.3296 11.9067 10.2714 11.9067 10.2325 Z " stroke-width="0.019138712280949172"/>
                  <path id="ID0.03953919326886535" fill="rgb(209,209,255)" stroke="none" d="M 5.4568 4.4471 L 5.4568 4.4471 C 5.438 4.5054 5.4003 4.5054 5.3437 4.5054 C 5.3814 4.4666 5.4191 4.4666 5.4568 4.4471 Z " stroke-width="0.019138712280949172"/>
                  <path id="ID0.6693325778469443" fill="rgb(238,72,84)" stroke="#C0C0C0" stroke-width="0.038277424561898345" d="M 11.9633 10.3684 L 11.9633 10.3684 C 12.001 10.3878 12.0199 10.4267 12.001 10.4849 C 11.9633 10.4461 11.9633 10.4073 11.9633 10.3684 Z "/>
                  <path id="ID0.48581429896876216" fill="rgb(238,72,84)" stroke="none" d="M 12.001 10.4849 L 12.001 10.4849 C 12.0387 10.5043 12.0387 10.5432 12.0387 10.5626 C 12.0199 10.5432 11.9822 10.5237 12.001 10.4849 Z " stroke-width="0.019138712280949172"/>
                  <path id="ID0.2356218732893467" fill="rgb(238,72,84)" stroke="none" d="M 11.8879 10.1355 L 11.8879 10.1355 C 11.9067 10.1743 11.9256 10.1937 11.9067 10.2325 C 11.8879 10.2131 11.869 10.1937 11.8879 10.1355 Z " stroke-width="0.019138712280949172"/>
                  <path id="ID0.06790122808888555" fill="rgb(196,196,245)" stroke="none" d="M 7.7765 2.331 L 7.7765 2.331 C 7.7765 2.3116 7.7954 2.3116 7.8143 2.3116 C 7.7954 2.3116 7.7954 2.331 7.7765 2.331 Z " stroke-width="0.019138712280949172"/>
                  <path id="ID0.09332878701388836" fill="rgb(196,196,245)" stroke="none" d="M 7.852 2.2922 L 7.852 2.2922 C 7.852 2.2728 7.8708 2.2534 7.9085 2.2534 C 7.8897 2.2922 7.8708 2.2922 7.852 2.2922 Z " stroke-width="0.019138712280949172"/>
                  <path id="ID0.17643386032432318" fill="rgb(196,196,245)" stroke="none" d="M 7.9274 2.2534 L 7.9274 2.2534 C 7.9463 2.2339 7.9651 2.2145 7.9651 2.2145 C 7.9651 2.2534 7.9651 2.2534 7.9274 2.2534 Z " stroke-width="0.019138712280949172"/>
                  <path id="ID0.6944350725971162" fill="rgb(146,146,146)" stroke="none" d="M 19.1487 7.8834 L 19.1487 7.8834 C 19.1487 7.8446 19.1676 7.8252 19.1864 7.8252 C 19.1676 7.8446 19.1676 7.864 19.1487 7.8834 Z " stroke-width="0.019138712280949172"/>
                </g>
              </g>
            </g>
          </g>
        </g>
      </g>
    </g>
  </g>
<defs/></svg>