<svg version="1.1" xmlns="http://www.w3.org/2000/svg" xmlns:xlink="http://www.w3.org/1999/xlink" width="59.8906" height="49.0524" viewBox="0,0,59.8906,49.0524"><g transform="translate(-211.5632,-152.4601)"><g data-paper-data="{&quot;isPaintingLayer&quot;:true}" fill-rule="nonzero" stroke="none" stroke-linecap="butt" stroke-linejoin="miter" stroke-miterlimit="10" stroke-dasharray="" stroke-dashoffset="0" style="mix-blend-mode: normal"><g><g stroke-width="0.04112"><path d="M215.5739,153.8158l55.8799,5.2842l-4.0106,42.4125l-55.88,-5.2842z" fill="none"/><path d="M250.2413,181.4789v0c1.0694,-1.2751 2.0997,-2.5539 2.9462,-3.9791c0.764,-1.39 1.4537,-2.83 1.7676,-4.4775c0.0121,-0.1279 0.0242,-0.2558 0.1458,-0.2873c1.3191,0.6838 2.591,1.4492 3.8669,2.1719c1.1624,0.6691 2.3599,1.3844 3.4831,2.0497c1.507,0.7876 2.9276,1.653 4.3914,2.4796c0.3014,0.1575 0.5284,0.265 0.7866,0.4614c0.0531,0.6931 -0.129,1.364 -0.4246,1.9812c-0.7501,2.0794 -1.8247,3.8271 -3.1304,5.5099c-0.3146,0.4003 -0.6333,0.8432 -0.9831,1.1972c-0.1296,0.1168 -0.2281,0.3225 -0.3889,0.3503c-0.2582,-0.1964 -0.4812,-0.3466 -0.4882,-0.6913c0.0081,-0.0852 -0.0662,-0.1352 -0.1446,-0.1427c-0.2351,-0.0222 -0.3366,-0.2038 -0.4812,-0.3465c-0.4933,-0.2187 -0.8881,-0.6431 -1.507,-0.7876c-0.5014,-0.1334 -0.8881,-0.6431 -1.3341,-0.9433c-0.3366,-0.2039 -0.5435,-0.5245 -0.9826,-0.48c-0.1608,0.0278 -0.219,-0.1927 -0.3366,-0.2038c-0.3797,-0.165 -0.5354,-0.6098 -1.0488,-0.6153c-0.0432,0.0389 -0.1136,-0.0537 -0.1487,-0.1001c-0.1395,-0.6153 -0.6922,-0.6245 -1.1232,-0.6653c-0.2311,-0.0648 -0.4702,-0.0444 -0.5596,-0.3539c-0.0311,-0.089 -0.1446,-0.1427 -0.3054,-0.1149c-0.208,0.1093 -0.4351,0.0018 -0.623,-0.1019c-0.3757,-0.2076 -0.6529,-0.6209 -1.1393,-0.4948c-0.0784,-0.0075 -0.1487,-0.1001 -0.219,-0.1928c-0.1596,-0.4021 -0.4651,-0.517 -0.8137,-0.593c-0.4622,-0.1297 -0.842,-0.2947 -1.2056,-0.6301z" fill="#3a3632"/><path d="M250.2413,181.4789v0c0.5988,0.3577 1.3433,0.4281 1.9421,0.7857c0.0743,0.0501 0.1095,0.0964 0.1446,0.1427c0.0029,0.3874 0.1516,0.4875 0.4853,0.304c0.0824,-0.0352 0.1919,0.0611 0.3014,0.1575c0.223,0.1501 0.5083,0.4781 0.8177,0.5504c0.3135,0.0296 0.7296,-0.1891 0.9082,0.4299c0.408,-0.1334 0.7094,0.0241 1.0892,0.189c0.1176,0.0112 0.2351,0.0223 0.2351,0.0223c-0.0293,0.7283 0.661,0.5356 0.9463,0.8636c0.1758,0.2316 0.449,0.6875 0.9042,0.4725c0.2472,-0.1056 0.4893,0.2613 0.6731,0.4078c0.3556,0.4206 0.9002,0.5151 1.2085,1.0174c0,0 0,0 0.0392,0.0037c0.5567,-0.0334 0.9123,0.3873 1.3624,0.6449c0.1527,0.0574 0.3054,0.1149 0.4109,0.2539c0.0351,0.0463 0.0622,0.1779 0.1014,0.1816c0.6823,-0.1075 0.5233,0.7376 0.895,0.9878c-0.2011,0.454 -0.5779,0.6764 -0.8453,0.9952c-0.4834,0.5134 -1.0372,0.9341 -1.5166,1.4048c-0.4241,0.304 -0.8131,0.6543 -1.194,0.9193c-0.0824,0.0352 -0.1256,0.0741 -0.2,0.0241c-0.3676,-0.2928 -0.7785,-0.5467 -1.1894,-0.8006c-1.8044,-0.9878 -3.5183,-2.096 -5.3578,-3.1301c-0.6812,-0.3224 -1.3785,-0.4744 -2.1783,-0.378c-0.9958,0.0779 -1.9484,0.1168 -2.9672,0.0205c-0.196,-0.0185 -0.3487,-0.076 -0.6311,-0.0167c0.8962,0.5578 1.7572,1.0693 2.6181,1.5808c1.0178,0.5263 2.0274,1.1379 3.0371,1.7494c0.1879,0.1038 0.419,0.1687 0.5164,0.3929c-0.2755,0.404 -0.6091,0.5875 -0.9468,0.8136c-0.4713,0.3855 -0.8995,0.7321 -1.3668,1.075c-0.1297,0.1167 -0.3337,0.1834 -0.5256,0.1223c-1.1353,-0.5374 -2.176,-1.2379 -3.2641,-1.8569c-2.8492,-1.6457 -5.6592,-3.2876 -8.4651,-4.9722c-0.3055,-0.1149 -0.5757,-0.1834 -0.7394,-0.543c0.809,-0.6116 1.6221,-1.2658 2.3919,-1.8811c0.2161,-0.1946 0.3175,-0.013 0.4703,0.0445c1.0096,0.6115 2.0233,1.1805 3.033,1.792c0.2622,0.1538 0.4973,0.1761 0.7486,0.0278c2.1073,-0.9619 3.7887,-2.4372 5.4512,-4.1292c0.216,-0.1946 0.4754,-0.4282 0.6563,-0.6691z" fill="#302e2c"/><path d="M227.3347,166.5828v0c0.0446,2.4556 1.082,4.446 2.3274,6.327c0.1366,0.228 0.3124,0.4596 0.453,0.645c0.0461,0.3484 -0.1619,0.4577 -0.3699,0.5671c-0.7145,0.4485 -1.4723,0.9359 -2.2341,1.466c-1.2331,0.9155 -2.6559,0.91 -4.0637,1.1639c-1.3606,0.1724 -2.682,0.3485 -3.8719,1.2252c-0.5065,0.3391 -1.0251,0.8062 -1.6682,0.9174c-0.1527,-0.0575 -0.215,-0.2354 -0.2853,-0.3281c-0.6749,-1.225 -1.185,-2.5204 -1.4047,-3.9604c-0.0109,-0.3021 -0.0259,-0.5615 0.0063,-0.9025c0.0323,-0.341 0.2092,-0.5393 0.4996,-0.6839c3.3647,-2.1332 6.7293,-4.2664 10.094,-6.3996c0.1648,-0.0705 0.3458,-0.3114 0.5175,-0.0371z" fill="#10151c"/><path d="M237.49,186.294v0c4.1602,2.4148 8.3556,4.8758 12.5119,7.3332c0.1919,0.0611 0.2933,0.2427 0.2731,0.4559c-0.1813,1.9181 -0.2844,3.8437 -0.5793,5.7081c-0.1728,0.1557 -0.2823,0.0593 -0.3959,0.0056c-2.6573,-1.5845 -5.2754,-3.1653 -7.9015,-4.6608c-1.4206,-0.8655 -2.8844,-1.692 -4.3049,-2.5575c-0.1879,-0.1037 -0.2974,-0.2001 -0.2732,-0.4559c0.1733,-1.8329 0.3507,-3.7084 0.528,-5.5839c0.0121,-0.1279 0.0594,-0.2094 0.1418,-0.2447z" fill="#e9d9c7"/><path d="M217.9585,178.7702v0c0.6201,-0.2854 1.2482,-0.6561 1.8803,-1.0694c0.8131,-0.6542 1.8169,-0.8173 2.7816,-0.9842c1.0822,-0.1557 2.1996,-0.265 3.2859,-0.4634c0.7647,-0.1427 1.3657,-0.6449 1.9586,-1.0619c0.6241,-0.3281 1.1387,-0.7525 1.7236,-1.0842c0.208,-0.1094 0.4592,-0.2577 0.5266,-0.5523c0.7504,0.845 1.4616,1.6864 2.3024,2.411c0.4069,0.2965 0.8097,0.6357 1.2085,1.0174c-3.6983,2.3167 -7.3615,4.6798 -11.0206,7.0002c-0.3567,0.0092 -0.5285,-0.265 -0.7867,-0.4615c-1.4355,-1.1249 -2.651,-2.487 -3.6855,-4.0901c-0.1014,-0.1816 -0.3245,-0.3317 -0.1747,-0.6616z" fill="#2a2828"/><path d="M244.5682,169.9757v0c-0.1648,0.0704 -0.2702,-0.0685 -0.3838,-0.1223c-2.8883,-1.6493 -5.7727,-3.3413 -8.7002,-4.9944c-0.3014,-0.1575 -0.3326,-0.2465 -0.0692,-0.5226c1.2071,-1.4771 2.4224,-3.0394 3.5904,-4.5202c0.0472,-0.0816 0.1417,-0.2447 0.3025,-0.2725c0.423,0.126 0.7515,0.4151 1.1664,0.6264c2.2896,1.2917 4.5008,2.5759 6.7513,3.8639c0.4933,0.2187 0.9825,0.48 1.3854,0.8191c0.0663,0.1353 -0.0202,0.2132 -0.0674,0.2947c-1.2464,1.4734 -2.3873,3.0858 -3.6728,4.5555c-0.0865,0.0778 -0.2161,0.1946 -0.3026,0.2724z" fill="#383431"/><path d="M248.611,164.8531v0c-0.8771,-0.3409 -1.6557,-0.8876 -2.5207,-1.3565c-1.726,-0.9803 -3.4952,-1.9218 -5.178,-2.941c-0.5596,-0.354 -1.1353,-0.5375 -1.6044,-1.0119c1.2804,-0.9971 2.6,-1.9905 3.9628,-3.0228c0.212,-0.152 0.5175,-0.0371 0.7837,0.0741v0c-0.0432,0.0389 -0.0472,0.0816 -0.0472,0.0816c0.2702,0.0685 0.5676,0.2687 0.869,0.4262c2.3248,1.338 4.6887,2.6797 7.0135,4.0177c0.4541,0.215 0.861,0.5115 1.3352,0.5134c0.1568,0.0148 0.2743,0.0259 0.3366,0.2038c-0.0905,0.1205 -0.208,0.1094 -0.3648,0.0946c-0.427,-0.0834 -0.7255,0.1464 -1.0672,0.4151c-1.0643,0.8025 -2.1286,1.605 -3.2362,2.4464c-0.0864,0.0779 -0.1769,0.1983 -0.2823,0.0593z" fill="#2e2c2b"/><path d="M267.6681,179.9013v0c-0.3175,0.013 -0.5406,-0.1371 -0.7987,-0.3335c-2.5167,-1.3992 -5.0334,-2.7984 -7.542,-4.2828c-1.2759,-0.7227 -2.5478,-1.4881 -3.8237,-2.2109c-0.1487,-0.1 -0.3406,-0.1612 -0.4028,-0.3391c0.601,-0.5023 1.2372,-0.9582 1.799,-1.4641c0.2121,-0.152 0.3959,-0.0056 0.5486,0.0518c2.81,1.642 5.624,3.2413 8.434,4.8832c1.2016,0.6727 2.4424,1.3492 3.6439,2.0219c0.0703,0.0926 0.1015,0.1816 0.011,0.302c-0.5658,0.5486 -1.1709,1.0935 -1.8693,1.3715z" fill="#2e2c2b"/><path d="M227.3347,166.5828v0c-0.4662,-0.0871 -0.7457,0.3595 -1.0833,0.5856c-2.3044,1.3734 -4.5345,2.7968 -6.8078,4.2591c-0.9617,0.5541 -1.8923,1.1972 -2.8581,1.794c-0.2081,0.1094 -0.189,0.3262 -0.2443,0.493c-0.5274,-0.695 -1.3261,-1.0286 -2.0263,-1.5678c-0.1487,-0.1001 -0.3838,-0.1223 -0.3988,-0.3818c3.6159,-2.2815 7.1494,-4.5278 10.7653,-6.8092c0.2121,-0.152 0.408,-0.1335 0.5919,0.0129c0.6299,0.4466 1.2246,0.8469 1.8626,1.2083c0.1054,0.139 0.3014,0.1575 0.1988,0.4059z" fill="#2e2c2b"/><path d="M213.9161,171.7649v0c0.661,0.5356 1.3382,0.9007 2.0424,1.3973c0.1879,0.1038 0.3677,0.2928 0.3827,0.5523c-0.0968,1.023 0.1713,1.9515 0.5217,2.8448c0.2409,0.7969 0.6035,1.5623 1.0956,2.2109c0.7643,1.5345 1.8311,2.7966 3.0315,3.8992c0.5043,0.5208 1.0558,0.96 1.6154,1.314c-0.1418,0.2446 -0.2784,0.0167 -0.3919,-0.0371c-2.8993,-1.9514 -5.7163,-3.9381 -8.5764,-5.8858c-0.1879,-0.1038 -0.2934,-0.2428 -0.2732,-0.4559c0.2165,-1.8718 0.2331,-3.7195 0.4496,-5.5914c0.0081,-0.0852 0.0202,-0.2131 0.1026,-0.2483z" fill="#ecdcc9"/><path d="M249.6957,199.7912v0c-0.1878,-0.1038 -0.0853,-0.3521 -0.0732,-0.48c0.1653,-1.7476 0.3225,-3.41 0.4877,-5.1577c0.0162,-0.1705 0.0795,-0.4225 -0.1083,-0.5263c0.3526,0.0333 0.5416,-0.2929 0.8321,-0.4374c0.5577,-0.4634 1.1115,-0.8841 1.6693,-1.3474c0.0432,-0.0389 0.1729,-0.1557 0.2432,-0.063c0.1487,0.1001 0.0934,0.2669 0.0772,0.4374c0.0399,1.2509 0.8023,1.9681 1.9197,1.8588c1.3606,-0.1724 2.5263,-0.7933 3.7082,-1.5847c0.1688,-0.1131 0.2674,-0.3188 0.5376,-0.2502c0.0432,-0.0389 0.0824,-0.0352 0.1608,-0.0278c-1.1277,1.0545 -2.396,1.9238 -3.5548,2.8893c-1.9638,1.5346 -3.9316,3.1118 -5.8995,4.689z" fill="#5d6978"/><path d="M267.6681,179.9013v0c0.5538,-0.4207 1.1075,-0.8414 1.6653,-1.3047c0.0864,-0.0779 0.2864,-0.102 0.193,-0.3688c0.196,0.0185 0.1407,0.1853 0.1205,0.3984c-0.1733,1.8329 -0.3899,3.7047 -0.5672,5.5803c-0.0202,0.2131 -0.1498,0.3299 -0.3227,0.4855c-2.3919,1.8812 -4.7799,3.7197 -7.1759,5.6435c-0.4281,0.3465 -0.7779,0.7005 -1.2371,0.9581c0.2281,-0.3224 0.4915,-0.5986 0.7548,-0.8747c0.5618,-0.506 1.0453,-1.0194 1.6071,-1.5253c2.0796,-2.3408 3.7794,-4.8465 4.7047,-7.9415c0.1146,-0.3762 -0.0099,-0.732 0.2575,-1.0508z" fill="#5d6977"/><path d="M248.611,164.8531v0c1.1035,-0.7988 2.2462,-1.5938 3.3577,-2.4779c0.4754,-0.4281 0.9739,-0.682 1.5536,-0.5412c0.3769,-0.2224 0.7445,0.0704 1.1012,0.0612c0.1528,0.0574 0.5054,0.0908 0.0813,0.3947c-3.3658,2.5632 -6.6924,5.1301 -10.0582,7.6932c0,0 -0.0392,-0.0037 -0.0784,-0.0074c1.3057,-1.6828 2.6939,-3.4008 4.0428,-5.1226z" fill="#5f6977"/><path d="M254.6235,161.8952v0c-0.3688,0.1371 -0.7485,-0.0278 -1.1012,-0.0612c-2.6163,-0.7635 -4.8224,-2.5203 -7.2728,-3.7842c-0.7163,-0.3688 -1.3502,-0.7728 -2.0666,-1.1416c-0.1135,-0.0537 -0.2662,-0.1112 -0.3676,-0.2928c0.0824,-0.0352 0.1999,-0.0241 0.2391,-0.0204c0.9445,0.0463 1.7945,0.2557 2.6163,0.7635c2.6221,1.5382 5.2875,3.0374 7.9528,4.5367z" fill="#10161e"/><path d="M258.9892,192.2407v0c-0.8563,0.6931 -1.818,1.2473 -2.8028,1.6272c-0.5768,0.2465 -1.22,0.3578 -1.8078,0.3022c-1.0228,-0.0537 -1.6637,-0.8025 -1.6332,-1.9608c-0.0231,-0.1742 -0.011,-0.302 0.0011,-0.4299c-0.88,-0.7283 -1.941,-1.2157 -2.8723,-1.8199c-1.088,-0.6189 -2.1369,-1.2342 -3.2249,-1.8532c-0.0743,-0.05 -0.2703,-0.0685 -0.215,-0.2353c0.0202,-0.2132 0.2121,-0.152 0.3297,-0.1409c1.2891,0.1649 2.5551,0.1556 3.8333,0.0184c0.7998,-0.0963 1.5554,0.2761 2.2285,0.6839c1.8706,1.123 3.7493,2.1608 5.624,3.2412c0.1798,0.189 0.4461,0.3002 0.5394,0.5671z" fill="#0c131b"/></g><g stroke-width="0.01418"><g><g><path d="M224.4722,179.9129h4.9613v14.2745h-4.9613z" fill="none"/><path d="M228.1011,192.1745v0c-1.2191,0.4395 -2.1263,1.6018 -3.6147,1.9846c0.4536,-1.0207 0.7796,-1.857 1.2899,-2.6933c0.3827,-0.7797 0.2552,-1.0915 -0.5812,-1.1624c-0.1843,-0.7088 0.3261,-1.1624 0.5245,-1.6727c0.1843,-0.567 0.8931,-1.0773 0,-1.6585c-0.1984,-0.0709 -0.0709,-0.3969 0,-0.5812c0.8931,-2.1263 1.9279,-4.2526 2.9485,-6.2513c0.1417,-0.1985 0.3402,-0.3119 0.5812,-0.1276c0.3827,0.5812 0,1.2191 -0.0567,1.8712c0,0.4536 -0.1276,0.893 -0.1843,1.4175c0.1134,0.7655 -1.0348,1.2191 -0.5245,2.1263c0,0.1276 0.0709,0.2551 0.0709,0.3118c-0.3969,0.8364 -0.5812,1.6869 -0.3261,2.5091c0,0.1417 -0.0708,0.2693 -0.1275,0.3118c-0.9073,0.5812 -0.1276,0.9072 0.1842,1.29c0.1985,0.5245 0.1985,1.0348 0.2694,1.616c0,0.2551 -0.1276,0.5103 -0.4536,0.7087z" fill="#20a900"/></g></g><g><g><path d="M222.8987,179.3601h6.3647v10.9716h-6.3647z" fill="none"/><path d="M229.1217,179.9412v0c-1.0915,2.2539 -2.183,4.5787 -3.3454,6.9034c0.326,0.3119 0.5812,-0.1417 0.9639,0c-0.2551,1.2758 -0.9639,2.2964 -1.5451,3.4588c-0.5103,-0.1276 -1.0915,-0.1985 -1.6018,-0.3828c-0.2551,-0.0708 -1.0348,-0.0708 -0.5245,-0.7796c0.8506,-0.2551 1.29,-1.0206 1.8712,-1.5876c0.1275,-0.1985 0.5245,-0.5245 -0.0567,-0.6521c-0.4536,-0.1276 -0.9072,-0.2551 -1.5451,-0.3827c0.9639,-0.8364 1.8002,-1.616 2.6366,-2.3248c-0.3969,-0.5812 -1.0915,-0.2551 -1.5451,-0.7087c0.2551,-0.6379 1.0348,-0.8364 1.4175,-1.4176c1.0348,-0.893 1.857,-2.1263 3.1611,-2.6933c0.1134,0.0567 0.1843,0.1134 0.241,0.2552c0,0.1276 -0.0567,0.1984 -0.1276,0.3118z" fill="#35db00"/></g></g><g><g><path d="M229.3768,179.7995h4.4794v12.1199h-4.4794z" fill="none"/><path d="M233.1758,191.8485v0h-0.1276l-0.0708,-0.0709c-0.2552,-0.2551 -0.7797,0 -0.964,-0.4394c-0.2693,-0.4536 -0.3827,-0.9639 -0.2693,-1.4884c0.6521,-1.0348 0.3402,-1.857 -0.4394,-2.6225c0.0567,-0.7796 -0.3261,-1.3466 -0.4536,-2.0696c-0.3119,-0.893 -0.3119,-1.9278 -1.0348,-2.6933c-0.2977,-0.8505 -0.7513,-1.6726 -0.0567,-2.5799c0.893,-0.326 1.4175,0.4537 1.9845,0.8364c0.2693,0.5812 0.7797,0.7087 1.1624,1.0348c0.1417,0.6379 -1.2191,0.893 -0.4394,1.7294c0.1842,0.652 0.6378,1.2332 0.5103,1.8711c0.0708,0 0.0567,0 0.0708,0c-0.3969,0.1985 -0.5811,0.4536 -0.2693,0.7088c0.9072,0.9072 0.9639,2.0554 0.8505,3.2036c0.1134,0.652 0,1.3608 0.1843,2.0696c0.1276,0.6379 -0.2552,0.5812 -0.6379,0.5103z" fill="#209900"/></g></g><g><g><path d="M228.0869,191.3382h2.5232v5.174h-2.5232z" fill="none"/><path d="M228.1011,192.1745v0c0.1275,-0.1984 0.1842,-0.4536 0.2551,-0.652c0.1276,-0.1276 0.3119,-0.1843 0.5103,-0.1843c0.5812,0.1276 0.5245,0.6379 0.7088,0.9639c0.3827,-0.7796 0.6946,-0.2552 0.9639,0.0567c0.1134,0.2552 0,0.5245 -0.0709,0.7796c0,0.6379 0.0709,1.3467 0,1.9988c0,0.567 0.3828,1.4175 -0.7796,1.3466c-0.9498,0 -1.5876,-0.2551 -1.5876,-1.4175c0.0567,-0.9639 0,-1.9279 0,-2.8918z" fill="#7f471c"/></g></g><g><g><path d="M233.1758,189.141h2.9201v3.3879h-2.9201z" fill="none"/><path d="M233.1758,191.8485v0c0.1134,-0.0709 0.5103,-0.1985 0.4536,-0.2552c-0.9781,-0.7796 0,-1.616 -0.1417,-2.3814c0.0567,-0.0142 0.0708,-0.0709 0.1417,-0.0709c0.0567,0 0.0567,0.0709 0.1134,0.0709c0.7088,1.0915 1.6727,1.9845 2.3248,3.2887c-1.0915,-0.1985 -1.9987,-0.3261 -2.8918,-0.6521z" fill="#35a700"/></g></g><g><g><path d="M230.3975,190.9413h2.6082v3.8982h-2.6082z" fill="none"/><path d="M230.4683,193.1384v0c-0.0708,-0.2551 -0.0708,-0.5811 -0.0708,-0.8363c0.0708,-0.0709 0.0708,-0.0709 0.1417,-0.1276c0.1843,0 0.3827,0 0.3827,-0.326c0,-0.4536 0.2552,-0.7797 0.7088,-0.8931c0.3119,-0.0708 0.4536,0.1134 0.567,0.3119c0.2694,0.1985 0.5245,0.326 0.7797,0.5103c-1.0915,-0.2551 -1.29,0.1985 -0.8931,1.1624c0.1134,0.3827 0.241,0.7796 0.3828,1.1624c0.0567,0.2551 0.3827,0.6378 -0.1985,0.7087c-0.4536,-0.5812 -0.8363,-1.0915 -1.2191,-1.6727c-0.1984,-0.2551 -0.3969,-0.2551 -0.5812,0z" fill="#35a700"/></g></g><g><g><path d="M232.4245,185.342h2.4665v3.8982h-2.4665z" fill="none"/><path d="M233.4877,189.2119v0c-0.1985,-1.0915 -0.1276,-2.2397 -0.9639,-3.2036c-0.2552,-0.2694 0,-0.6521 0.5244,-0.6521c-0.5244,0.6521 0.1276,0.9639 0.4395,1.0915c0.9072,0.5245 0.9639,1.4884 1.3466,2.2397c0.1418,0.2693 -0.1134,0.1985 -0.3118,0.2693c-0.3828,-0.1984 -0.7088,-0.2693 -0.964,0.1843z" fill="#35a700"/></g></g><g><g><path d="M232.382,183.4709h1.7152v2.0979h-1.7152z" fill="none"/><path d="M232.9774,185.3562v0c-0.3261,-0.5812 -0.7797,-1.0915 -0.5103,-1.8711c0.893,0.3969 1.5451,0.9781 1.6018,1.9987c-0.3828,0.1984 -0.7088,-0.0567 -1.0915,-0.1276z" fill="#35a700"/></g></g><g><g><path d="M223.0547,187.5392h1.8994v1.6302h-1.8994z" fill="none"/><path d="M224.94,187.5534v0c-0.3828,0.8363 -0.8364,1.5309 -1.8712,1.5876c0.5812,-0.5812 1.2333,-1.1482 1.8712,-1.5876z" fill="#3cdc00"/></g></g><g><g><path d="M231.7441,180.9052h1.1907v0.8647h-1.1907z" fill="none"/><path d="M231.7441,180.9193v0c0.1418,0 0.2693,0.0567 0.4536,0.0567c0.1276,0.3969 0.7088,0.3261 0.7088,0.7797c-0.5103,-0.1418 -1.0206,-0.1985 -1.1624,-0.8364z" fill="#66b500"/></g></g><g><g><path d="M227.9593,181.9541h1.7294v9.5967h-1.7294z" fill="none"/><path d="M228.8665,191.5225v0h-0.5103c-0.326,-0.4537 -0.0709,-1.0207 -0.2551,-1.5452c0.326,-0.5103 -0.3969,-1.0206 0,-1.5309v0c0.1275,-0.9639 0.5103,-1.8711 0.2551,-2.835v0c-0.326,-0.8931 0.6521,-1.4743 0.5103,-2.3106c-0.2551,-0.4536 0.0709,-0.8364 0,-1.29c0.1418,-0.0708 0.2552,-0.0708 0.3828,0c0.4394,0.3828 0.4394,0.9073 0.3827,1.4176c0,2.183 -0.0567,4.3801 0,6.6198c0,0.5812 -0.1134,1.1482 -0.7655,1.4743z" fill="#178e00"/></g></g><g><g><path d="M227.7325,185.5972h0.9781v2.8634h-0.9781z" fill="none"/><path d="M228.3562,185.6114v0c0.5103,0.9072 0.4536,2.1263 -0.2551,2.835c-0.5812,-1.0206 -0.3969,-1.9278 0.2551,-2.835z" fill="#179b00"/></g></g><g><g><path d="M226.9954,188.4322h1.5026v1.5735h-1.5026z" fill="none"/><path d="M228.1011,188.4464v0c0.1842,0.5103 0.7654,1.0206 0,1.5309c0,-0.0567 -0.0709,-0.0567 -0.0709,-0.1275c-0.3827,-0.1985 -1.0206,-0.1985 -1.0206,-0.7655c0,-0.5245 0.7654,-0.326 1.0915,-0.6379z" fill="#179f00"/></g></g><g><g><path d="M227.8176,183.2866h1.1198v2.3389h-1.1198z" fill="none"/><path d="M228.8665,183.3008v0c0.1985,0.8363 -0.1984,1.6018 -0.5103,2.3106c-0.3827,-0.5104 -1.0348,-1.0348 0.1276,-1.4743c0.2551,-0.1275 0,-0.652 0.3827,-0.8363z" fill="#179b00"/></g></g><g><g><path d="M228.8524,179.6719h0.7654v2.3531h-0.7654z" fill="none"/><path d="M229.1217,182.0108v0h-0.2552c0,-0.7087 0.3828,-1.3608 0.2552,-2.0696v-0.2551c0.6946,0.7796 0.567,1.5451 0,2.3247z" fill="#209900"/></g></g><g><g><path d="M228.8524,179.3884h2.1688v13.0838h-2.1688z" fill="none"/><path d="M229.1217,182.0108v0c0.1276,-0.7796 0.567,-1.5451 0,-2.3247v-0.1985c0.3969,-0.2409 0.567,0.0709 0.8363,0.3969c-0.567,0.9073 -0.1417,1.8003 0.1843,2.6366c0.1985,0.5812 0.3969,1.1624 0.5103,1.8003c0.2693,2.0696 -0.0567,4.125 0.326,6.1804c0.0709,0.6379 -0.1984,1.2758 -0.5811,1.8003v0c-0.0567,-0.0709 -0.1985,-0.1276 -0.1985,-0.0709c-0.9497,0.7088 -0.8789,-0.5103 -1.3325,-0.7087c0.8222,-1.6727 0.3261,-3.4588 0.3828,-5.1315c0.0708,-1.0915 0.2693,-2.1972 0.1417,-3.2887c-0.0709,-0.3827 -0.0709,-0.7654 -0.2693,-1.0915z" fill="#177c00"/></g></g><g><g><path d="M230.3691,184.3072h2.2539v8.0941h-2.2539z" fill="none"/><path d="M230.3975,192.3021v0c0.3827,-2.6508 -0.1276,-5.3299 0,-7.9807c0.652,0.0709 0.3827,0.6521 0.5811,1.0348c0.1276,0.5812 0.5812,1.1624 0.4537,1.8003c1.0348,0.7087 1.7435,1.4033 0.5103,2.5657c-0.6379,-0.2552 -0.4395,-0.9072 -0.7088,-1.3325c0,-0.0283 0.0709,-0.0709 0,-0.0709c0,0.1276 0.0709,0.241 0.0709,0.3119c0.1276,0.8363 0.6379,1.5451 0.3827,2.3814c-0.1843,0.2552 -0.5812,0.4537 -0.5103,0.9073c0.0567,0.6946 -0.4536,0.3827 -0.7796,0.3827z" fill="#179200"/></g></g><g><g><path d="M231.1204,188.1487h1.1057v3.147h-1.1057z" fill="none"/><path d="M231.6874,191.0121v0c-0.1276,-0.8363 -0.5812,-1.6726 -0.5103,-2.5657c-0.1276,-0.2551 0,-0.326 0.2552,-0.2551c0.1984,0.4961 0.3118,1.0206 0.5103,1.5309c-0.0567,0.5103 0.1984,1.0348 0.2551,1.5451c-0.1843,-0.0709 -0.3118,-0.1985 -0.5103,-0.2552z" fill="#17c200"/></g></g><g><g><path d="M230.1423,182.507h1.0632v2.8634h-1.0632z" fill="none"/><path d="M230.9219,185.3562v0c-0.3827,-0.1985 -0.1417,-0.8363 -0.5244,-1.0348c-0.0567,-0.5812 -0.1985,-1.2191 -0.2552,-1.8003c0.7088,0.7088 0.7088,1.7436 1.0348,2.5799c-0.1276,0.0567 -0.1276,0.2552 -0.2552,0.2552z" fill="#17ab00"/></g></g><g><g><path d="M230.9219,185.0869h0.7372v2.0837h-0.7372z" fill="none"/><path d="M230.9219,185.3562v0c0.0567,-0.0567 0.1843,-0.1985 0.2552,-0.2552c-0.0709,0.7088 0.8363,1.29 0.2552,2.0555c-0.2552,-0.5812 -0.5104,-1.1482 -0.5104,-1.8003z" fill="#17bc00"/></g></g><g><g><path d="M230.9078,187.5959h0.5528v0.8647h-0.5528z" fill="none"/><path d="M231.4323,188.1913v0c-0.0709,0.0567 -0.1985,0.1984 -0.2552,0.2551c-0.2552,-0.2551 -0.3969,-0.5103 -0.1276,-0.8363c0.1276,0.1984 0.2552,0.3827 0.3828,0.5812z" fill="#17b100"/></g></g></g><g stroke-width="0.01418"><g><g><path d="M227.7222,153.0129h4.9613v14.2745h-4.9613z" fill="none"/><path d="M231.3511,165.2745v0c-1.2191,0.4395 -2.1263,1.6018 -3.6147,1.9846c0.4536,-1.0207 0.7796,-1.857 1.2899,-2.6933c0.3827,-0.7797 0.2552,-1.0915 -0.5812,-1.1624c-0.1843,-0.7088 0.3261,-1.1624 0.5245,-1.6727c0.1843,-0.567 0.8931,-1.0773 0,-1.6585c-0.1984,-0.0709 -0.0709,-0.3969 0,-0.5812c0.8931,-2.1263 1.9279,-4.2526 2.9485,-6.2513c0.1417,-0.1985 0.3402,-0.3119 0.5812,-0.1276c0.3827,0.5812 0,1.2191 -0.0567,1.8712c0,0.4536 -0.1276,0.893 -0.1843,1.4175c0.1134,0.7655 -1.0348,1.2191 -0.5245,2.1263c0,0.1276 0.0709,0.2551 0.0709,0.3118c-0.3969,0.8364 -0.5812,1.6869 -0.3261,2.5091c0,0.1417 -0.0708,0.2693 -0.1275,0.3118c-0.9073,0.5812 -0.1276,0.9072 0.1842,1.29c0.1985,0.5245 0.1985,1.0348 0.2694,1.616c0,0.2551 -0.1276,0.5103 -0.4536,0.7087z" fill="#20a900"/></g></g><g><g><path d="M226.1487,152.4601h6.3647v10.9716h-6.3647z" fill="none"/><path d="M232.3717,153.0412v0c-1.0915,2.2539 -2.183,4.5787 -3.3454,6.9034c0.326,0.3119 0.5812,-0.1417 0.9639,0c-0.2551,1.2758 -0.9639,2.2964 -1.5451,3.4588c-0.5103,-0.1276 -1.0915,-0.1985 -1.6018,-0.3828c-0.2551,-0.0708 -1.0348,-0.0708 -0.5245,-0.7796c0.8506,-0.2551 1.29,-1.0206 1.8712,-1.5876c0.1275,-0.1985 0.5245,-0.5245 -0.0567,-0.6521c-0.4536,-0.1276 -0.9072,-0.2551 -1.5451,-0.3827c0.9639,-0.8364 1.8002,-1.616 2.6366,-2.3248c-0.3969,-0.5812 -1.0915,-0.2551 -1.5451,-0.7087c0.2551,-0.6379 1.0348,-0.8364 1.4175,-1.4176c1.0348,-0.893 1.857,-2.1263 3.1611,-2.6933c0.1134,0.0567 0.1843,0.1134 0.241,0.2552c0,0.1276 -0.0567,0.1984 -0.1276,0.3118z" fill="#35db00"/></g></g><g><g><path d="M232.6268,152.8995h4.4794v12.1199h-4.4794z" fill="none"/><path d="M236.4258,164.9485v0h-0.1276l-0.0708,-0.0709c-0.2552,-0.2551 -0.7797,0 -0.964,-0.4394c-0.2693,-0.4536 -0.3827,-0.9639 -0.2693,-1.4884c0.6521,-1.0348 0.3402,-1.857 -0.4394,-2.6225c0.0567,-0.7796 -0.3261,-1.3466 -0.4536,-2.0696c-0.3119,-0.893 -0.3119,-1.9278 -1.0348,-2.6933c-0.2977,-0.8505 -0.7513,-1.6726 -0.0567,-2.5799c0.893,-0.326 1.4175,0.4537 1.9845,0.8364c0.2693,0.5812 0.7797,0.7087 1.1624,1.0348c0.1417,0.6379 -1.2191,0.893 -0.4394,1.7294c0.1842,0.652 0.6378,1.2332 0.5103,1.8711c0.0708,0 0.0567,0 0.0708,0c-0.3969,0.1985 -0.5811,0.4536 -0.2693,0.7088c0.9072,0.9072 0.9639,2.0554 0.8505,3.2036c0.1134,0.652 0,1.3608 0.1843,2.0696c0.1276,0.6379 -0.2552,0.5812 -0.6379,0.5103z" fill="#209900"/></g></g><g><g><path d="M231.3369,164.4382h2.5232v5.174h-2.5232z" fill="none"/><path d="M231.3511,165.2745v0c0.1275,-0.1984 0.1842,-0.4536 0.2551,-0.652c0.1276,-0.1276 0.3119,-0.1843 0.5103,-0.1843c0.5812,0.1276 0.5245,0.6379 0.7088,0.9639c0.3827,-0.7796 0.6946,-0.2552 0.9639,0.0567c0.1134,0.2552 0,0.5245 -0.0709,0.7796c0,0.6379 0.0709,1.3467 0,1.9988c0,0.567 0.3828,1.4175 -0.7796,1.3466c-0.9498,0 -1.5876,-0.2551 -1.5876,-1.4175c0.0567,-0.9639 0,-1.9279 0,-2.8918z" fill="#7f471c"/></g></g><g><g><path d="M236.4258,162.241h2.9201v3.3879h-2.9201z" fill="none"/><path d="M236.4258,164.9485v0c0.1134,-0.0709 0.5103,-0.1985 0.4536,-0.2552c-0.9781,-0.7796 0,-1.616 -0.1417,-2.3814c0.0567,-0.0142 0.0708,-0.0709 0.1417,-0.0709c0.0567,0 0.0567,0.0709 0.1134,0.0709c0.7088,1.0915 1.6727,1.9845 2.3248,3.2887c-1.0915,-0.1985 -1.9987,-0.3261 -2.8918,-0.6521z" fill="#35a700"/></g></g><g><g><path d="M233.6475,164.0413h2.6082v3.8982h-2.6082z" fill="none"/><path d="M233.7183,166.2384v0c-0.0708,-0.2551 -0.0708,-0.5811 -0.0708,-0.8363c0.0708,-0.0709 0.0708,-0.0709 0.1417,-0.1276c0.1843,0 0.3827,0 0.3827,-0.326c0,-0.4536 0.2552,-0.7797 0.7088,-0.8931c0.3119,-0.0708 0.4536,0.1134 0.567,0.3119c0.2694,0.1985 0.5245,0.326 0.7797,0.5103c-1.0915,-0.2551 -1.29,0.1985 -0.8931,1.1624c0.1134,0.3827 0.241,0.7796 0.3828,1.1624c0.0567,0.2551 0.3827,0.6378 -0.1985,0.7087c-0.4536,-0.5812 -0.8363,-1.0915 -1.2191,-1.6727c-0.1984,-0.2551 -0.3969,-0.2551 -0.5812,0z" fill="#35a700"/></g></g><g><g><path d="M235.6745,158.442h2.4665v3.8982h-2.4665z" fill="none"/><path d="M236.7377,162.3119v0c-0.1985,-1.0915 -0.1276,-2.2397 -0.9639,-3.2036c-0.2552,-0.2694 0,-0.6521 0.5244,-0.6521c-0.5244,0.6521 0.1276,0.9639 0.4395,1.0915c0.9072,0.5245 0.9639,1.4884 1.3466,2.2397c0.1418,0.2693 -0.1134,0.1985 -0.3118,0.2693c-0.3828,-0.1984 -0.7088,-0.2693 -0.964,0.1843z" fill="#35a700"/></g></g><g><g><path d="M235.632,156.5709h1.7152v2.0979h-1.7152z" fill="none"/><path d="M236.2274,158.4562v0c-0.3261,-0.5812 -0.7797,-1.0915 -0.5103,-1.8711c0.893,0.3969 1.5451,0.9781 1.6018,1.9987c-0.3828,0.1984 -0.7088,-0.0567 -1.0915,-0.1276z" fill="#35a700"/></g></g><g><g><path d="M226.3047,160.6392h1.8994v1.6302h-1.8994z" fill="none"/><path d="M228.19,160.6534v0c-0.3828,0.8363 -0.8364,1.5309 -1.8712,1.5876c0.5812,-0.5812 1.2333,-1.1482 1.8712,-1.5876z" fill="#3cdc00"/></g></g><g><g><path d="M234.9941,154.0052h1.1907v0.8647h-1.1907z" fill="none"/><path d="M234.9941,154.0193v0c0.1418,0 0.2693,0.0567 0.4536,0.0567c0.1276,0.3969 0.7088,0.3261 0.7088,0.7797c-0.5103,-0.1418 -1.0206,-0.1985 -1.1624,-0.8364z" fill="#66b500"/></g></g><g><g><path d="M231.2093,155.0541h1.7294v9.5967h-1.7294z" fill="none"/><path d="M232.1165,164.6225v0h-0.5103c-0.326,-0.4537 -0.0709,-1.0207 -0.2551,-1.5452c0.326,-0.5103 -0.3969,-1.0206 0,-1.5309v0c0.1275,-0.9639 0.5103,-1.8711 0.2551,-2.835v0c-0.326,-0.8931 0.6521,-1.4743 0.5103,-2.3106c-0.2551,-0.4536 0.0709,-0.8364 0,-1.29c0.1418,-0.0708 0.2552,-0.0708 0.3828,0c0.4394,0.3828 0.4394,0.9073 0.3827,1.4176c0,2.183 -0.0567,4.3801 0,6.6198c0,0.5812 -0.1134,1.1482 -0.7655,1.4743z" fill="#178e00"/></g></g><g><g><path d="M230.9825,158.6972h0.9781v2.8634h-0.9781z" fill="none"/><path d="M231.6062,158.7114v0c0.5103,0.9072 0.4536,2.1263 -0.2551,2.835c-0.5812,-1.0206 -0.3969,-1.9278 0.2551,-2.835z" fill="#179b00"/></g></g><g><g><path d="M230.2454,161.5322h1.5026v1.5735h-1.5026z" fill="none"/><path d="M231.3511,161.5464v0c0.1842,0.5103 0.7654,1.0206 0,1.5309c0,-0.0567 -0.0709,-0.0567 -0.0709,-0.1275c-0.3827,-0.1985 -1.0206,-0.1985 -1.0206,-0.7655c0,-0.5245 0.7654,-0.326 1.0915,-0.6379z" fill="#179f00"/></g></g><g><g><path d="M231.0676,156.3866h1.1198v2.3389h-1.1198z" fill="none"/><path d="M232.1165,156.4008v0c0.1985,0.8363 -0.1984,1.6018 -0.5103,2.3106c-0.3827,-0.5104 -1.0348,-1.0348 0.1276,-1.4743c0.2551,-0.1275 0,-0.652 0.3827,-0.8363z" fill="#179b00"/></g></g><g><g><path d="M232.1024,152.7719h0.7654v2.3531h-0.7654z" fill="none"/><path d="M232.3717,155.1108v0h-0.2552c0,-0.7087 0.3828,-1.3608 0.2552,-2.0696v-0.2551c0.6946,0.7796 0.567,1.5451 0,2.3247z" fill="#209900"/></g></g><g><g><path d="M232.1024,152.4884h2.1688v13.0838h-2.1688z" fill="none"/><path d="M232.3717,155.1108v0c0.1276,-0.7796 0.567,-1.5451 0,-2.3247v-0.1985c0.3969,-0.2409 0.567,0.0709 0.8363,0.3969c-0.567,0.9073 -0.1417,1.8003 0.1843,2.6366c0.1985,0.5812 0.3969,1.1624 0.5103,1.8003c0.2693,2.0696 -0.0567,4.125 0.326,6.1804c0.0709,0.6379 -0.1984,1.2758 -0.5811,1.8003v0c-0.0567,-0.0709 -0.1985,-0.1276 -0.1985,-0.0709c-0.9497,0.7088 -0.8789,-0.5103 -1.3325,-0.7087c0.8222,-1.6727 0.3261,-3.4588 0.3828,-5.1315c0.0708,-1.0915 0.2693,-2.1972 0.1417,-3.2887c-0.0709,-0.3827 -0.0709,-0.7654 -0.2693,-1.0915z" fill="#177c00"/></g></g><g><g><path d="M233.6191,157.4072h2.2539v8.0941h-2.2539z" fill="none"/><path d="M233.6475,165.4021v0c0.3827,-2.6508 -0.1276,-5.3299 0,-7.9807c0.652,0.0709 0.3827,0.6521 0.5811,1.0348c0.1276,0.5812 0.5812,1.1624 0.4537,1.8003c1.0348,0.7087 1.7435,1.4033 0.5103,2.5657c-0.6379,-0.2552 -0.4395,-0.9072 -0.7088,-1.3325c0,-0.0283 0.0709,-0.0709 0,-0.0709c0,0.1276 0.0709,0.241 0.0709,0.3119c0.1276,0.8363 0.6379,1.5451 0.3827,2.3814c-0.1843,0.2552 -0.5812,0.4537 -0.5103,0.9073c0.0567,0.6946 -0.4536,0.3827 -0.7796,0.3827z" fill="#179200"/></g></g><g><g><path d="M234.3704,161.2487h1.1057v3.147h-1.1057z" fill="none"/><path d="M234.9374,164.1121v0c-0.1276,-0.8363 -0.5812,-1.6726 -0.5103,-2.5657c-0.1276,-0.2551 0,-0.326 0.2552,-0.2551c0.1984,0.4961 0.3118,1.0206 0.5103,1.5309c-0.0567,0.5103 0.1984,1.0348 0.2551,1.5451c-0.1843,-0.0709 -0.3118,-0.1985 -0.5103,-0.2552z" fill="#17c200"/></g></g><g><g><path d="M233.3923,155.607h1.0632v2.8634h-1.0632z" fill="none"/><path d="M234.1719,158.4562v0c-0.3827,-0.1985 -0.1417,-0.8363 -0.5244,-1.0348c-0.0567,-0.5812 -0.1985,-1.2191 -0.2552,-1.8003c0.7088,0.7088 0.7088,1.7436 1.0348,2.5799c-0.1276,0.0567 -0.1276,0.2552 -0.2552,0.2552z" fill="#17ab00"/></g></g><g><g><path d="M234.1719,158.1869h0.7372v2.0837h-0.7372z" fill="none"/><path d="M234.1719,158.4562v0c0.0567,-0.0567 0.1843,-0.1985 0.2552,-0.2552c-0.0709,0.7088 0.8363,1.29 0.2552,2.0555c-0.2552,-0.5812 -0.5104,-1.1482 -0.5104,-1.8003z" fill="#17bc00"/></g></g><g><g><path d="M234.1578,160.6959h0.5528v0.8647h-0.5528z" fill="none"/><path d="M234.6823,161.2913v0c-0.0709,0.0567 -0.1985,0.1984 -0.2552,0.2551c-0.2552,-0.2551 -0.3969,-0.5103 -0.1276,-0.8363c0.1276,0.1984 0.2552,0.3827 0.3828,0.5812z" fill="#17b100"/></g></g></g></g></g></g></svg>