<svg version="1.1" xmlns="http://www.w3.org/2000/svg" xmlns:xlink="http://www.w3.org/1999/xlink" width="67.65299" height="91.108" viewBox="0,0,67.65299,91.108"><g transform="translate(-202.75496,-112.46004)"><g data-paper-data="{&quot;isPaintingLayer&quot;:true}" fill-rule="nonzero" stroke="none" stroke-linecap="butt" stroke-linejoin="miter" stroke-miterlimit="10" stroke-dasharray="" stroke-dashoffset="0" style="mix-blend-mode: normal"><path d="M213.57275,139.38333c-0.58495,-0.4721 -1.1699,-0.94421 -1.86118,-1.50212c0.72169,-0.77874 1.41539,-1.53469 2.11706,-2.28319c4.69379,-5.00701 9.38853,-10.01313 14.08421,-15.01835c0.55591,-0.15254 0.848,0.27013 1.20983,0.5486c5.0768,3.90721 10.09394,7.89081 15.15246,11.82155c3.55105,2.75935 7.12286,5.49378 10.61794,8.32493c0.19423,0.1613 0.37358,0.33971 0.53591,0.53309c0.10481,0.11762 0.17748,0.26032 0.21094,0.41427c-0.12119,0.63482 -0.56049,1.08224 -0.976,1.51464c-2.16326,2.25122 -4.25875,4.56633 -6.41195,6.82519c-2.72369,2.85733 -5.30642,5.848 -8.13874,8.60281c-0.21425,0.19347 -0.43987,0.36528 -0.68785,0.38127c-0.47504,-0.05126 -0.7731,-0.31593 -1.08737,-0.55056c-1.85589,-1.4526 -3.72155,-2.89337 -5.5829,-4.33957c-0.58584,-0.60271 -1.26969,-1.08318 -1.95839,-1.5577c-2.09761,-1.6217 -4.20611,-3.22939 -6.25971,-4.90674c-0.46651,-0.49911 -1.04133,-0.86246 -1.59082,-1.25745c-0.08264,-0.05174 -0.16151,-0.10927 -0.23601,-0.17216c-0.3053,-0.31178 -0.64966,-0.58276 -1.02449,-0.80617c-1.82885,-1.37909 -3.62991,-2.7938 -5.43344,-4.20538c-0.8538,-0.8332 -2.02435,-1.30943 -2.67948,-2.36695z" fill="#211f1e" stroke-width="1"/><path d="M255.59283,142.19633c-0.08544,-0.08185 -0.17089,-0.16369 -0.25635,-0.24554c-0.15908,-0.40656 0.35394,-0.61065 0.28766,-1.07206c-1.93004,-1.68568 -4.0471,-3.23859 -6.11891,-4.84608c-3.78148,-2.934 -7.53019,-5.90971 -11.31948,-8.83393c-2.7926,-2.15506 -5.57363,-4.32531 -8.34311,-6.51075c-0.34469,-0.27143 -0.85956,-0.45544 -0.72622,-1.06432c4.63014,-2.37586 9.26029,-4.75171 13.96066,-7.16361c9.12613,7.13501 18.23643,14.25762 27.33088,21.36786c-0.26424,1.41638 -1.66595,1.4045 -2.46813,2.11077c-0.26702,0.28919 -0.58217,0.52987 -0.93144,0.71135c-3.40233,1.65182 -6.70226,3.50435 -10.10584,5.15375c-0.41059,0.19897 -0.79583,0.52158 -1.30973,0.39255z" fill="#171718" stroke-width="1"/><path d="M255.59283,142.19633c4.11567,-2.08589 8.23134,-4.17177 12.34702,-6.25766c0.0123,7.04849 0.02413,14.09698 0.03547,21.14546c0.00605,7.76869 0.00625,15.5374 0.00061,23.3061c-0.00001,0.39412 0.00001,0.78823 0.00001,1.2968c-1.17385,0.93394 -2.37798,1.89199 -3.58212,2.85003c-0.56074,0.23532 -0.58472,-0.23032 -0.66289,-0.54478c-0.12137,-0.48829 -0.07487,-0.99619 -0.07402,-1.4963c0.00501,-2.96832 -0.01613,-5.93666 0.00687,-8.90281c-0.06118,-0.8209 0.667,-1.51443 0.35519,-2.30736c-0.09085,0.18555 0.18368,0.45716 -0.03681,0.74853c-0.38629,0.28821 -0.75477,0.129 -1.11082,-0.15869c-0.13133,-0.17716 -0.18956,-0.39802 -0.16265,-0.61691c0.06238,-0.75989 1.16576,-0.9805 0.97298,-1.8743c0.0357,-0.27409 0.24825,-0.50217 0.19661,-0.87226c-0.31093,-0.31501 -0.89007,-0.44809 -1.05939,-0.99168c-0.02912,-0.09454 -0.03964,-0.19383 -0.03097,-0.29237c0.19,-0.65455 1.15665,-0.96317 0.82256,-1.8494c-0.13148,-0.46756 -0.45068,-0.80314 -0.79077,-1.1226c-0.46398,-0.46961 -0.71772,0.05417 -0.97499,0.25315c-2.24915,1.73961 -4.42446,3.57206 -6.62993,5.36581c-3.01513,2.45227 -6.01429,4.92517 -9.03819,7.36699c-0.53192,0.42953 -0.81298,0.88853 -0.72801,1.56217c-0.01151,0.50772 0.00682,1.01569 0.05488,1.52126c0.00407,0.42045 -0.28138,0.83503 -0.02394,1.26207c0.03561,0.30328 -0.03365,0.60298 -0.02279,0.9053c-0.01593,0.55999 -0.0007,1.12042 0.04561,1.67872c0.01975,0.45108 -0.31821,0.898 -0.01555,1.35489c0.01885,0.35732 -0.04919,0.71132 -0.02613,1.06861c-0.00869,0.54365 0.01448,1.08561 0.05037,1.62746c-0.24281,1.92085 -0.24837,3.85263 -0.20361,5.78139c0.04068,1.75264 -0.04598,3.50403 0.00859,5.25552c0.01294,0.4151 -0.18422,0.75994 -0.33723,1.12143c-1.16748,0.9832 -2.33496,1.9664 -3.50246,2.94959c-0.51367,-0.04751 -0.46334,-0.47533 -0.51223,-0.80375c-0.06892,-0.46304 -0.03537,-0.93494 -0.03539,-1.40313c-0.00069,-12.86123 0.00317,-25.72245 0.0116,-38.58367c0.00198,-1.28322 -0.01473,-2.51522 -0.96833,-3.5142c2.62926,-2.80581 5.29245,-5.58083 7.87817,-8.42613c2.56184,-2.81901 5.30516,-5.47068 7.74268,-8.40329z" fill="#4d5766" stroke-width="1"/><path d="M263.77913,173.30521c0.35332,0.31738 0.21047,0.73918 0.21188,1.11636c0.01141,3.05031 0.00026,6.10072 0.0155,9.15099c0.00174,0.34884 -0.21071,0.83402 0.38733,0.9645c-1.38152,1.1491 -2.76287,2.29839 -4.14405,3.44786c-0.26245,0.21869 -0.51916,0.43792 -0.80097,0.02797c0.27572,-1.12965 0.16129,-2.28598 0.10926,-3.41657c-0.03353,-0.72858 0.07407,-1.47868 -0.07578,-2.33349c-1.3666,0.92086 -2.49351,1.96016 -3.70302,2.89025c-0.76266,0.04442 -1.15143,0.67884 -1.67492,1.0858c-1.10558,0.85944 -2.17705,1.76268 -3.30957,2.68633v6.81293c-1.94639,1.55375 -3.88506,3.10135 -5.81601,4.64278c0.0115,-2.23675 0.11828,-4.47173 -0.00831,-6.71081c-0.09302,-1.6453 0.23723,-3.29281 0.05806,-4.94443c-0.02858,-0.26342 0.27906,-0.30195 0.36367,-0.49434c0.37543,-0.97786 1.3159,-1.40726 2.04835,-2.00437c5.04651,-4.11399 10.08753,-8.23466 15.12306,-12.36203c0.3477,-0.28448 0.67002,-0.67962 1.2155,-0.55973z" fill="#5b6777" stroke-width="1"/><path d="M221.56367,188.25359c-1.73575,-1.36282 -3.4715,-2.72564 -5.20726,-4.08845c-0.18133,-0.27103 -0.28207,-0.58793 -0.29051,-0.91392c-0.05647,-2.08602 -0.14002,-4.17995 -0.0971,-6.25784c0.07958,-3.8522 0.01232,-7.7013 0.04162,-11.5511c0.0197,-2.58803 -0.09121,-5.18226 0.13099,-7.76632c0.21647,-0.64756 0.6532,-0.46083 1.01434,-0.20552c1.60951,1.13786 3.10182,2.42702 4.64453,3.65128c0.26114,0.2047 0.38914,0.53601 0.33348,0.8631c0.03642,8.31277 0.01732,16.62323 0.00318,24.93365c-0.00084,0.49663 0.12619,1.11023 -0.57327,1.33512z" fill="#5f5e5b" stroke-width="1"/><path d="M238.24533,201.24789c-1.88099,-1.28512 -3.62191,-2.75153 -5.40285,-4.16615c-0.27319,-0.4033 -0.348,-0.85609 -0.34883,-1.33276c-0.01407,-8.18615 -0.01211,-16.3723 0.00588,-24.55844c-0.00387,-0.251 0.02402,-0.50148 0.08301,-0.74548c0.0532,-0.2106 0.20664,-0.38153 0.4103,-0.45707c1.29473,0.66106 2.38268,1.71933 3.54382,2.65695c0.70675,0.57071 1.66985,0.91719 1.97899,1.9147c0.10115,0.50024 0.08233,1.00536 0.08248,1.50865c0.00226,7.77427 0.00039,15.54853 -0.00563,23.32279c-0.00088,0.63143 0.14516,1.3091 -0.34716,1.85681z" fill="#5f5e5b" stroke-width="1"/><path d="M229.8036,194.71711c-1.73396,-1.36536 -3.46792,-2.73071 -5.20188,-4.09605c-0.36939,-0.58202 -0.33439,-1.23528 -0.33442,-1.88311c-0.00021,-6.22406 0.01482,-12.44817 -0.00851,-18.67215c-0.00741,-1.97656 -0.07942,-3.95216 0.10569,-5.92276c0.13553,-0.43752 0.47641,-0.61962 0.81559,-0.34177c1.62993,1.33524 3.53345,2.33555 4.90839,3.98155c0.10648,0.14653 0.1761,0.31655 0.20297,0.49568c0.06426,0.35439 0.09157,0.71449 0.0815,1.07452c0.00521,7.9377 0.00068,15.87538 -0.01359,23.81304c-0.00165,0.54484 0.24209,1.25714 -0.55573,1.55105z" fill="#5f5e5b" stroke-width="1"/><path d="M238.24533,201.24789c-0.00585,-9.03017 -0.0117,-18.06034 -0.01754,-27.09052c-0.30884,-0.47582 -0.3308,-1.01044 -0.33079,-1.55378c0.00003,-4.0889 -0.00744,-8.17782 0.00884,-12.26666c0.0022,-0.55358 -0.12102,-1.17014 0.43719,-1.58275c0.52575,0.19354 0.93303,1.09627 1.62893,0.27163c0.51474,0.05928 0.78704,0.46354 1.11358,0.76006c0.2214,0.46797 0.13316,0.94357 0.13336,1.40527c0.00611,13.64822 0.01231,27.29643 0.01858,40.94465c0.00041,0.39804 -0.21274,0.87329 0.23885,1.19475c-0.16148,0.30097 -0.40088,0.29375 -0.6173,0.1021c-0.85061,-0.75328 -1.8723,-1.30205 -2.6137,-2.18473z" fill="#88817e" stroke-width="1"/><path d="M216.40273,157.29575c-0.00404,5.81129 -0.00849,11.62258 -0.01335,17.43387c-0.00448,3.14504 -0.02136,6.29006 -0.03281,9.4353c-0.99499,-0.52247 -1.76132,-1.34183 -2.61737,-1.95973c-0.22479,-0.50975 -0.13221,-0.9844 -0.13241,-1.44506c-0.00564,-13.07228 -0.00755,-26.14455 -0.00571,-39.21683c-0.00009,-0.71999 -0.01848,-1.43998 -0.02834,-2.15997l2.89946,2.25492c0.26073,0.4978 0.26988,1.0372 0.26987,1.58055c-0.00008,4.17912 0.00498,8.35826 -0.00609,12.53736c-0.00141,0.5298 0.08485,1.09335 -0.33324,1.5396z" fill="#88817e" stroke-width="1"/><path d="M224.64657,163.73913c-0.01154,8.49406 -0.02319,16.98811 -0.03496,25.48217c-0.00066,0.46653 -0.00641,0.93307 -0.00985,1.39967c-1.0756,-0.70493 -2.09168,-1.49675 -3.03804,-2.36752c0.3906,-0.34559 0.23033,-0.80775 0.23083,-1.21895c0.00966,-8.05467 0.01445,-16.10934 0.01439,-24.16402c0.00048,-0.41622 -0.14421,-0.86815 0.17838,-1.24413c1.22104,0.28391 2.0939,1.00521 2.65926,2.11278z" fill="#88817e" stroke-width="1"/><path d="M229.8036,194.71711c0.37867,-0.35305 0.21346,-0.81363 0.21399,-1.22437c0.01111,-8.52253 0.01465,-17.04507 0.01062,-25.56762c1.21227,0.27466 2.24054,1.07231 2.80801,2.1782c0.00207,8.99282 0.00416,17.98564 0.00624,26.97844c-1.01294,-0.78824 -2.0259,-1.57646 -3.03886,-2.36466z" fill="#88817e" stroke-width="1"/><path d="M229.11644,119.62366c1.36233,1.43578 3.02365,2.50865 4.56168,3.72926c3.90197,3.0967 7.8184,6.17519 11.7493,9.23547c2.99284,2.33825 6.00414,4.65289 9.00567,6.98005c0.56324,0.4367 1.11909,0.88292 1.66669,1.31553c-0.09185,0.51921 -0.60073,0.66722 -0.76323,1.06697c-3.64959,-2.88292 -7.28245,-5.78709 -10.95274,-8.64324c-4.96885,-3.86665 -9.96727,-7.69536 -14.95038,-11.54374c-0.50843,-0.39265 -0.88787,-0.95044 -1.52059,-1.18431c0.29076,-0.45744 0.65996,-0.81631 1.20359,-0.956z" fill="#3c3938" stroke-width="1"/><path d="M255.77929,185.15308c0.62714,-1.29445 2.01128,-1.76946 2.9722,-2.70618c0.24879,-0.24252 0.51579,-0.61036 1.12912,-0.63572c0,1.90926 -0.00155,3.80201 0.00159,5.69477c0.0005,0.30144 -0.13019,0.47337 -0.4334,0.50692c-1.22316,-0.95326 -2.44633,-1.90653 -3.66952,-2.8598z" fill="#535861" stroke-width="1"/><path d="M232.83621,170.10333c-0.89204,-0.78271 -1.79334,-1.55353 -2.80803,-2.17832c-1.72249,-1.48674 -3.54446,-2.84594 -5.38181,-4.18551c-0.80395,-0.8076 -1.71682,-1.47827 -2.65876,-2.11298c-1.84641,-1.46354 -3.62477,-3.01414 -5.58494,-4.33069c-0.0095,-5.08146 -0.01769,-10.16287 -0.02457,-15.24424c0.01504,-0.14115 0.04627,-0.2801 0.09307,-0.41411c1.77459,1.37733 3.54849,2.75413 5.32171,4.13041c0.34646,0.33871 0.67338,0.70042 1.10577,0.93803l-0.00595,-0.00385c0.54084,0.50547 1.15226,0.91766 1.76246,1.33148c2.07859,1.61393 4.15718,3.22786 6.23577,4.8418c0.57156,0.67288 1.30899,1.13996 2.02726,1.63081c1.80911,1.41663 3.6178,2.83295 5.42608,4.24895c-0.2248,2.61604 -0.04996,5.2379 -0.09176,7.85727c-0.04012,2.5145 -0.01879,5.02997 -0.02459,7.545c-1.91707,-1.19242 -3.53552,-2.78102 -5.39171,-4.05405z" fill="#296426" stroke-width="1"/><path d="M240.63127,148.44588c0.47402,-0.6014 0.00891,-1.34215 0.3646,-2.11432c4.13805,-0.93501 8.37535,-1.89244 12.61265,-2.84986c-1.91542,1.86795 -2.99518,4.63002 -6.24775,4.91259c-2.25999,0.19634 -4.47282,0.94296 -6.70327,1.45865c-0.25676,0.05936 -0.48343,0.15643 -0.6786,-0.0987c-0.07808,-0.58319 0.34298,-0.91798 0.65238,-1.30834z" fill="#04080d" stroke-width="1"/><path d="M251.20009,142.20393c-0.30497,0.51553 -0.68531,0.80771 -1.21182,0.92449c-2.99613,0.66454 -5.99052,1.33698 -9.07142,2.02595v-3.29036c1.24224,-0.63353 2.70541,-0.88467 4.11406,-1.12207c1.26696,-0.21353 2.47367,-0.64959 3.76469,-0.78692c1.83723,-0.19543 2.47974,0.29494 2.40449,2.24891z" fill="#05080d" stroke-width="1"/><path d="M236.06324,134.38955c0.00924,1.22835 0.01848,2.45669 0.02772,3.68503c0.54708,2.45344 0.45726,4.90953 0.00153,7.36105c-0.07064,0.32614 -0.33245,0.57658 -0.66141,0.63267c-0.46493,0.31329 -0.9336,0.61763 -1.52206,0.63577c-0.2908,-0.32065 -0.31075,-0.7212 -0.2931,-1.11476c0.14266,-3.18071 0.27417,-6.36115 0.10238,-9.54525c0.00154,-0.14346 0.02612,-0.28573 0.07278,-0.4214c0.32891,-0.57342 1.10114,-0.3626 1.48663,-0.83832c0.25029,-0.1533 0.42751,-0.45534 0.78552,-0.3948z" fill="#525760" stroke-width="1"/><path d="M240.63127,148.44588c0.04202,0.5652 -0.37931,0.8998 -0.65236,1.30827c-0.74617,0.40478 -1.46039,0.98495 -2.3808,0.43282c0.57445,-0.38153 0.64049,-0.96684 0.67626,-1.58804c0.14604,-2.53649 0.05953,-5.07488 0.0869,-7.61224c0.00576,-0.53476 -0.04476,-1.07366 0.10427,-1.59836c0.29439,-0.65597 1.0551,-0.57841 1.52235,-0.96507c0.18788,-0.11335 0.3774,-0.22409 0.6116,-0.15279c0.01059,3.3918 0.02119,6.78361 0.03178,10.1754z" fill="#4c5765" stroke-width="1"/><path d="M230.65774,142.5963c-0.60396,0.35525 -1.16504,0.88744 -1.95553,0.47297c0.28358,-0.34898 0.34404,-0.7535 0.38282,-1.19478c0.25202,-2.86769 0.0862,-5.7364 0.05467,-8.60463c-0.00476,-0.43359 -0.05463,-0.86753 0.25061,-1.23397c0.40735,-0.40849 1.03654,-0.50955 1.38666,-0.99787c0.36058,-0.31588 0.16913,-0.89303 0.56264,-1.19262c0.24676,0.22324 0.23075,0.52162 0.19851,0.80428c-0.42103,3.69103 -0.08044,7.39735 -0.22953,11.09356c0.11016,0.53345 -0.23161,0.72277 -0.65086,0.85308z" fill="#535861" stroke-width="1"/><path d="M240.62368,136.99185c1.47225,-0.10045 2.86034,-0.62583 4.35217,-0.83822c1.28257,0.38373 1.7506,1.05306 1.63812,2.57858c-1.54839,1.41971 -3.74685,1.00092 -5.58346,1.81281c-0.42835,-1.21637 0.09171,-2.3316 -0.35839,-3.3468c-0.06663,-0.03277 -0.09602,-0.07427 -0.08816,-0.12449c0.0085,-0.05458 0.02174,-0.08186 0.03972,-0.08187z" fill="#05080d" stroke-width="1"/><path d="M237.36854,149.97114c-0.61212,-0.41748 -0.60342,-1.05531 -0.60923,-1.69267c-0.00673,-0.73681 -0.02537,-1.47352 -0.03885,-2.21027c-0.2831,-0.31697 -0.32895,-0.70728 -0.32298,-1.10481c0.02895,-1.92961 0.00215,-3.8593 0.0134,-5.78891c0.00233,-0.39984 0.03168,-0.78806 0.32119,-1.10264l0.02837,0.03676c0.80795,0.02529 1.14413,0.58165 1.39591,1.2357c0.29332,2.14392 -0.10013,4.29673 0.11008,6.44944c0.12152,1.24443 -0.20884,2.49994 -0.25446,3.75765c-0.01253,0.34546 -0.192,0.64337 -0.64344,0.41976z" fill="#a7a09b" stroke-width="1"/><path d="M228.26848,142.85391c-0.34209,-0.18898 -0.58919,-0.51283 -0.68112,-0.89268c-0.1051,-3.65569 -0.02139,-7.31041 -0.05076,-11.02289c0.68791,-0.03597 1.00517,0.32662 1.29457,0.73889c0.19262,0.36257 0.22025,0.7603 0.20661,1.1565c-0.09894,2.8721 0.1565,5.7445 -0.00549,8.61519c-0.03152,0.55852 0.16678,1.30672 -0.76381,1.40499z" fill="#a69f99" stroke-width="1"/><path d="M232.62579,146.2845c-0.55138,-0.49062 -0.45309,-1.15678 -0.45891,-1.78124c-0.01932,-2.0718 -0.01759,-4.1438 -0.02393,-6.21573c-0.12982,-1.2821 -0.02237,-2.56145 -0.06818,-3.96582c0.70432,0.17217 0.98932,0.61555 1.29392,1.03403c0.35544,1.44316 0.26621,2.91517 0.18607,4.37186c-0.10377,1.88615 0.08183,3.77621 -0.11924,5.65493c-0.04541,0.42432 0.00054,1.09153 -0.80973,0.90197z" fill="#aba39d" stroke-width="1"/><path d="M228.71164,131.82961c-0.30756,-0.24684 -0.6151,-0.49368 -1.12416,-0.90224c0,3.77778 0,7.40586 -0.00007,11.0339c-0.23076,-0.23563 -0.17286,-0.53529 -0.17311,-0.81723c-0.00296,-3.27251 -0.01752,-6.54512 0.00393,-9.81749c0.01124,-1.7143 0.97934,-2.68596 2.45917,-2.53691c0.12818,0.01291 0.24647,0.12367 0.36936,0.18899c-0.23723,0.41807 -0.01252,0.72823 0.22104,1.05688c0.23501,0.33068 0.61282,0.6215 0.42638,1.11789c-0.17728,0.68754 -0.81191,0.68849 -1.32085,0.87812c-0.36093,0.24665 -0.60785,0.00763 -0.86169,-0.2019z" fill="#3a3c43" stroke-width="1"/><path d="M232.62579,146.2845c0.58023,-0.12104 0.62353,-0.63985 0.5231,-1.00334c-0.08071,-0.24021 -0.0358,-0.50487 0.11962,-0.70501v-9.09408c0.21673,-0.17525 0.42254,-0.18776 0.61214,0.04102c0.3678,0.53543 0.20625,1.18976 0.1953,1.72677c-0.03609,1.77147 0.06408,3.5428 -0.04405,5.32094c-0.08298,1.36481 -0.22421,2.75249 -0.12286,4.13331c-0.49021,0.05068 -0.94375,-0.01041 -1.28326,-0.41961z" fill="#848283" stroke-width="1"/><path d="M237.36854,149.97114c0.17455,-0.03973 0.42423,-0.07845 0.39926,-0.28184c-0.1833,-1.49281 0.44646,-2.9551 0.1535,-4.44814c-0.19998,-1.0192 -0.05306,-2.03262 0.07334,-3.04178c0.07305,-0.58326 -0.0413,-1.12788 -0.15231,-1.69067c-0.08909,-0.45169 -0.07267,-0.92984 0.18763,-1.35316c0.21722,-0.17437 0.42359,-0.18596 0.61407,0.04085c0.02554,3.60172 0.14368,7.20554 -0.12082,10.64285c-0.34097,0.42864 -0.6518,0.31061 -0.92519,0.34768c-0.07645,-0.0719 -0.15294,-0.14383 -0.22949,-0.21579z" fill="#848385" stroke-width="1"/><path d="M228.71164,131.82961c0.28735,0.06722 0.57465,0.13449 0.86188,0.20178c-0.34315,1.48235 -0.16996,3.00104 -0.07743,4.46981c0.13271,2.10668 -0.22208,4.17529 -0.12608,6.17256c-0.14794,0.39454 -0.43522,0.3379 -0.66774,0.39539c-0.14463,-0.07172 -0.28922,-0.14349 -0.43379,-0.21531c0.43559,-0.2059 0.46927,-0.58934 0.45809,-1.00376c-0.05152,-1.90931 0.03893,-3.8137 -0.09153,-5.73277c-0.09481,-1.39448 0.0558,-2.85558 0.0766,-4.2877z" fill="#7d7c7e" stroke-width="1"/><path d="M233.88066,135.52308c-0.20404,-0.01369 -0.40809,-0.02736 -0.61213,-0.04104c-0.31367,-0.28754 -0.62733,-0.5751 -1.12551,-1.03183c0,1.38275 0,2.61007 -0.00003,3.83735c-0.29409,-1.56277 -0.30806,-3.13291 0.07794,-4.67171c0.24862,-0.99112 1.52753,-1.39061 2.79133,-0.97622c-0.2579,0.39785 -0.09788,0.73084 0.12833,1.0842c0.20151,0.3148 0.54115,0.60571 0.34461,1.05777c-0.24642,0.87009 -1.00564,0.63265 -1.60453,0.74148z" fill="#3b3d43" stroke-width="1"/><path d="M238.64404,139.19641c-0.20469,-0.01363 -0.40938,-0.02725 -0.61407,-0.04087c-0.42323,-0.34904 -0.84642,-0.69806 -1.26959,-1.04705c0.01393,-1.4109 0.54763,-1.9466 1.95607,-1.96323c0.79451,0.60251 1.39881,1.32298 1.47364,2.37178c-0.36272,0.57312 -0.98604,0.55434 -1.54604,0.67937z" fill="#36383d" stroke-width="1"/><path d="M236.73208,138.07182c-0.00387,2.66546 -0.00774,5.33091 -0.01162,7.99637c-0.42978,0.00334 -0.85952,0.49832 -1.28936,0.00009c0.52686,-0.6484 0.6126,-1.4233 0.62027,-2.21405c0.01868,-1.92651 0.02699,-3.85312 0.03954,-5.77968c0.21375,-0.00091 0.42748,-0.00181 0.64118,-0.00273z" fill="#080a0d" stroke-width="1"/><path d="M240.1901,138.51702c-0.49133,-0.79065 -0.9826,-1.58127 -1.47382,-2.37186c0.804,-0.09563 1.3856,0.3083 1.90741,0.84668c-0.00559,0.07214 0.01133,0.14424 0.04842,0.20637c-0.02414,0.35746 -0.04832,0.7149 -0.07254,1.07233c-0.13654,0.08213 -0.27304,0.16429 -0.40947,0.24649z" fill="#8f8881" stroke-width="1"/><path d="M230.89419,131.15339c-0.4219,-0.64884 -0.8438,-1.29768 -1.24698,-1.91774c0.16097,-0.30483 0.40993,-0.19516 0.59955,-0.25699c0.46695,0.12831 0.86153,0.44124 1.09282,0.86669c-0.1323,0.44151 0.3437,1.08976 -0.44538,1.30804z" fill="#928983" stroke-width="1"/><path d="M235.48519,134.78161c-0.23362,-0.71741 -0.92224,-1.18959 -1.08073,-1.92543c0.16721,-0.25637 0.40667,-0.17487 0.60777,-0.21648c0.76765,0.33306 1.18497,0.87622 1.05106,1.74981c-0.19484,0.12763 -0.23028,0.48969 -0.57811,0.3921z" fill="#918881" stroke-width="1"/><path d="M230.65774,142.5963c0.21702,-0.28435 0.434,-0.56871 0.65095,-0.85307c0.54199,-0.75066 -0.0208,-1.67036 0.51704,-2.46033v3.21277c-0.33797,0.02974 -0.69099,0.47856 -1.168,0.10064z" fill="#05070b" stroke-width="1"/><path d="M232.91821,154.50615c-0.85167,-0.3253 -1.59939,-0.77956 -2.02722,-1.63078c0.72384,0.48386 1.45014,0.96475 2.02722,1.63078z" fill="#96c18a" stroke-width="1"/><path d="M224.65516,148.03354c-0.73562,-0.20314 -1.36599,-0.67937 -1.76243,-1.33148c0.71103,0.28056 1.2604,0.77475 1.76243,1.33148z" fill="#94b987" stroke-width="1"/><path d="M222.89866,146.70591c-0.5786,-0.06519 -0.88402,-0.45193 -1.10565,-0.93774c0.43419,0.23506 0.86531,0.47417 1.10565,0.93774z" fill="#96bd8a" stroke-width="1"/><path d="M245.38966,184.33678c-0.42737,-0.61818 -0.13847,-1.31008 -0.20273,-1.96563c4.09915,-3.40342 8.27496,-6.71364 12.36089,-10.13284c1.32622,-1.10981 2.7051,-2.15206 4.0454,-3.24342c0.5317,-0.42272 0.98217,-0.93854 1.32944,-1.52232c0.36931,0.27267 0.6175,0.78452 1.19071,0.52963c0.1987,0.60484 0.12713,1.0596 -0.3369,1.40853c-0.39343,0.91301 -1.27407,1.34162 -1.98549,1.91243c-4.93488,3.95946 -9.79511,8.00998 -14.71743,11.98435c-0.50674,0.40915 -0.91298,1.03236 -1.68389,1.02928z" fill="#354a6e" stroke-width="1"/><path d="M263.77913,173.30521c-2.83256,2.29096 -5.6649,4.5822 -8.49701,6.87372c-2.49767,2.0254 -4.99228,4.05456 -7.48383,6.0875c-0.80309,0.65366 -1.60512,1.30861 -2.40612,1.96485c-0.43441,-0.54524 -0.13974,-1.17401 -0.20205,-1.7619c0.94011,-1.20426 2.22369,-2.02302 3.38669,-2.97076c4.78833,-3.90204 9.5306,-7.86052 14.3628,-11.70878c0.26887,0.07264 0.53775,0.14528 0.74936,0.20245c0.51526,-0.18989 -0.15994,-0.7413 0.46509,-0.90405c0.00404,0.77945 0.36937,1.56693 -0.37493,2.21698z" fill="#354a6f" stroke-width="1"/><path d="M262.48926,143.4837c0.08692,-0.04136 0.24869,-0.12152 0.25021,-0.11859c0.35309,0.67948 0.69497,1.36478 1.03717,2.04991c-0.66405,1.06714 -1.76203,1.67196 -2.69382,2.43414c-4.98988,4.08162 -9.96238,8.1847 -14.97473,12.23895c-0.27893,0.22561 -0.53219,0.4976 -0.93854,0.46294c-0.34529,-0.9038 -0.34807,-1.90269 -0.00783,-2.8084c0.3284,0.39312 0.58528,0.20139 0.89946,-0.05922c5.18481,-4.30071 10.40476,-8.5585 15.65986,-12.77336c0.46544,-0.37162 0.85236,-0.76774 0.7682,-1.42636z" fill="#354a6e" stroke-width="1"/><path d="M245.38454,164.22564c-0.71405,-0.80946 -0.46691,-1.70022 -0.21958,-2.59099c0.35401,0.39411 0.63781,0.14212 0.91845,-0.10263c2.90398,-2.53261 5.96817,-4.87098 8.92261,-7.34358c2.4019,-2.01017 4.84176,-3.98047 7.32935,-5.88776c0.17082,-0.13097 0.34722,-0.26057 0.57464,-0.28053c0.81235,0.24282 0.62522,0.9167 0.64819,1.49997c-1.37881,1.52581 -3.09691,2.65663 -4.65156,3.97737c-3.96449,3.36796 -8.11647,6.50937 -12.04396,9.92307c-0.42563,0.36996 -0.84726,0.79125 -1.47812,0.80508z" fill="#354a6e" stroke-width="1"/><path d="M245.38484,180.43912c-0.42495,-0.53744 -0.12776,-1.15969 -0.20453,-1.73803c0.70824,-1.23258 1.9591,-1.89336 3.00322,-2.74929c4.56586,-3.74291 9.08143,-7.54799 13.72203,-11.19958c0.30809,-0.24242 0.57797,-0.55779 1.02663,-0.52538c0.63858,0.08226 0.73761,0.58649 0.84784,1.08197c-0.12137,0.53428 -0.54466,0.84647 -0.927,1.15497c-3.41341,2.75408 -6.80006,5.54085 -10.19892,8.31266c-2.08907,1.70367 -4.18238,3.40224 -6.25392,5.12725c-0.30157,0.25113 -0.56532,0.56786 -1.01535,0.53544z" fill="#35496e" stroke-width="1"/><path d="M245.17319,172.22449c0.00059,-0.64812 0.00118,-1.29624 0.00178,-1.94436c2.08359,-1.97809 4.36389,-3.723 6.57859,-5.54599c3.29749,-2.71428 6.62406,-5.39298 9.92408,-8.10419c0.38032,-0.31246 0.7227,-0.70839 1.23877,-0.82958c0.47274,0.30769 0.92276,0.63052 0.86311,1.29293c-0.3052,0.74125 -1.01364,1.10851 -1.57689,1.57144c-5.35364,4.40007 -10.67502,8.84007 -16.10793,13.14311c-0.26468,0.20964 -0.48633,0.56318 -0.92151,0.41664z" fill="#354a6e" stroke-width="1"/><path d="M245.17697,168.33008c-0.00117,-0.64575 -0.00234,-1.29149 -0.00351,-1.93723c1.73666,-1.72518 3.70263,-3.18043 5.59376,-4.72238c4.06281,-3.31263 8.13239,-6.61688 12.15496,-9.97838c0.30751,0.49082 0.99998,0.76332 0.85758,1.50929c-0.07454,0.42977 -0.40515,0.66605 -0.70996,0.91255c-5.52963,4.4717 -10.99625,9.02033 -16.52185,13.49681c-0.3961,0.32089 -0.7418,0.81121 -1.37099,0.71935z" fill="#364a6f" stroke-width="1"/><path d="M262.92121,160.12219c0.37713,0.38476 0.65786,0.8533 0.81924,1.36732c-6.07893,4.96563 -12.21359,9.97679 -18.55832,15.15954v-1.84223c0.19198,-0.30131 0.35126,-0.61918 0.64306,-0.85433c5.62617,-4.53377 11.173,-9.16481 16.80792,-13.6879c0.08568,-0.06603 0.1836,-0.11444 0.2881,-0.14241z" fill="#354a6e" stroke-width="1"/><path d="M245.17319,172.22449c4.91774,-4.01024 9.8358,-8.02009 14.75417,-12.02956c1.27817,-1.04108 2.56782,-2.06808 3.85219,-3.10159c0.37876,0.316 0.14559,0.73062 0.21104,1.04565c-0.30976,0.62369 -0.85852,0.92328 -1.29212,1.33601c-0.20824,0.66404 -0.76672,1.02737 -1.26356,1.43063c-5.05867,4.10595 -10.10035,8.2326 -15.12504,12.37995c-0.32685,0.26997 -0.62661,0.62015 -1.13094,0.48108c-0.37643,-0.51267 -0.12744,-1.02766 -0.00574,-1.54218z" fill="#5a6677" stroke-width="1"/><path d="M245.38454,164.22564c4.26121,-3.49564 8.49563,-7.02464 12.7965,-10.47088c1.77944,-1.42585 3.4282,-3.02261 5.37722,-4.23453c0.78982,0.23793 0.37546,0.60506 0.06607,0.89332c-0.30436,0.2836 -0.74367,0.41887 -0.92761,0.83945c-0.33476,0.90686 -1.15961,1.34648 -1.85192,1.89826c-4.72646,3.767 -9.34899,7.66134 -14.07045,11.43401c-0.3998,0.31946 -0.75172,0.803 -1.37632,0.73043c-0.92246,-0.35201 -0.09505,-0.72564 -0.0135,-1.09006z" fill="#596577" stroke-width="1"/><path d="M245.38484,180.43912c4.46843,-3.74361 8.98292,-7.43093 13.54349,-11.06196c1.65294,-1.31118 3.2365,-2.70966 4.85171,-4.06833c0.64669,1.06902 -0.51458,1.34109 -0.8695,1.9686c-0.28393,0.55784 -0.7348,0.95226 -1.21885,1.33873c-4.54649,3.62992 -9.04321,7.32095 -13.5439,11.00728c-0.85742,0.70228 -1.59519,1.63238 -2.76683,1.89789c-0.9086,-0.364 -0.06243,-0.72171 0.00389,-1.08221z" fill="#596577" stroke-width="1"/><path d="M245.16956,160.55108c4.7147,-3.87743 9.43065,-7.75333 14.14785,-11.62771c1.46356,-1.19729 2.97164,-2.34028 4.45928,-3.50823c0.32479,0.24601 0.19447,0.57685 0.19279,0.92744c-0.49518,0.34283 -0.99023,0.68558 -1.48514,1.02823c0.1085,0.51968 -0.34927,0.66937 -0.62976,0.89925c-3.39405,2.78178 -6.77709,5.57697 -10.17788,8.35063c-1.75592,1.43213 -3.55011,2.81704 -5.28177,4.27888c-0.29918,0.25256 -0.57812,0.55741 -1.02825,0.51349l-0.40619,-0.34696c0.07885,-0.19424 0.14397,-0.35464 0.20908,-0.51504z" fill="#586477" stroke-width="1"/><path d="M245.38966,184.33678c6.12897,-4.97529 12.25792,-9.95062 18.38686,-14.92597c0.28218,0.20042 0.21943,0.47137 0.17304,0.73471c-0.28852,0.41158 -0.85751,0.50788 -1.03464,1.00286c-0.66061,1.23043 -1.92208,1.81878 -2.93355,2.65312c-4.52191,3.73 -9.03314,7.47407 -13.62011,11.12484c-0.28788,0.22913 -0.49617,0.65897 -0.98936,0.48269c-0.88729,-0.3722 -0.05917,-0.716 0.01778,-1.07224z" fill="#586477" stroke-width="1"/><path d="M245.17697,168.33008c4.13877,-3.37511 8.27784,-6.74984 12.41721,-10.1242c2.05689,-1.67424 4.11876,-3.34239 6.18559,-5.00445c0.46167,0.48626 0.11592,0.82287 -0.20228,1.18512c-0.26005,0.29605 -0.71922,0.35383 -0.88035,0.75813c-0.34869,0.95186 -1.26053,1.36507 -1.96605,1.93531c-4.64525,3.75455 -9.24258,7.56742 -13.88293,11.32764c-0.42723,0.34619 -0.79585,0.85212 -1.45539,0.79645c-0.36033,-0.22026 -0.64152,-0.46002 -0.2158,-0.874z" fill="#586477" stroke-width="1"/><path d="M245.37189,185.409c4.22487,-3.45239 8.4503,-6.9041 12.67629,-10.35512c1.6125,-1.31379 3.24395,-2.60438 4.86674,-3.90553c0.00807,0.21386 0.01623,0.4277 0.02446,0.64151c-0.55196,1.21364 -1.78339,1.71156 -2.71986,2.50122c-3.45115,2.91008 -6.94303,5.77176 -10.47563,8.58502c-1.50912,1.20793 -2.91329,2.55197 -4.55395,3.59354c-0.04409,-0.36373 0.01916,-0.73241 0.18195,-1.06064z" fill="#151c60" stroke-width="1"/><path d="M245.39277,169.20408c4.79414,-3.89282 9.58821,-7.78571 14.38222,-11.67867c0.97526,-0.79207 1.94932,-1.58564 2.92217,-2.38069c0.25301,0.15845 0.20151,0.41859 0.21924,0.65564c-1.23402,1.40912 -2.81066,2.42064 -4.23241,3.60962c-3.01693,2.52303 -6.05857,5.01834 -9.14303,7.4582c-1.44793,1.14534 -2.70491,2.53921 -4.36602,3.41197c-0.0273,-0.37889 -0.00401,-0.74754 0.21783,-1.07608z" fill="#151b60" stroke-width="1"/><path d="M245.17892,173.76668c1.90522,-1.52303 3.82212,-3.03177 5.7131,-4.57223c3.4234,-2.78881 6.83832,-5.58799 10.24477,-8.39754c0.52704,-0.43277 1.04145,-0.88089 1.56168,-1.3219c0.26167,0.15138 0.19987,0.41381 0.22269,0.64721c-0.82122,1.25967 -2.16072,1.94434 -3.26702,2.87864c-3.00715,2.5396 -6.09273,4.9865 -9.14668,7.47081c-1.77572,1.44451 -3.55086,2.88962 -5.32543,4.33535c-0.00097,-0.34689 -0.00201,-0.69366 -0.00312,-1.04033z" fill="#151c60" stroke-width="1"/><path d="M245.36669,161.41308c5.70588,-4.68077 11.41177,-9.36152 17.11766,-14.04228c0.44375,0.01888 0.41525,0.34684 0.42572,0.64931c-1.15612,1.2301 -2.57467,2.14704 -3.86307,3.21892c-3.05273,2.5397 -6.13102,5.04881 -9.20623,7.56144c-1.48954,1.21703 -2.99537,2.41417 -4.49043,3.61758c-0.26711,-0.28457 -0.15138,-0.54663 -0.18531,-0.78339c0.06717,-0.07386 0.13439,-0.14772 0.20167,-0.22157z" fill="#151b60" stroke-width="1"/><path d="M262.48926,143.4837c0.44426,0.55173 0.23249,0.99795 -0.24255,1.37907c-3.87685,3.1103 -7.76563,6.20584 -11.63193,9.32916c-1.5027,1.21394 -2.95847,2.48594 -4.43193,3.73584c-0.27085,0.22975 -0.49395,0.53093 -0.89908,0.53462c-0.19211,-0.21698 -0.08971,-0.47982 -0.12193,-0.71972c5.66157,-4.61571 11.32231,-9.23254 16.98219,-13.85046c0.12764,-0.12503 0.24322,-0.2618 0.34523,-0.4085z" fill="#151c60" stroke-width="1"/><path d="M245.39803,165.3157c4.74095,-3.84481 9.48165,-7.68992 14.2221,-11.53534c1.03043,-0.83641 2.05134,-1.68453 3.07661,-2.5273c0.18074,0.09218 0.21142,0.26129 0.22537,0.43901c-0.20481,1.01061 -1.17423,1.32978 -1.82847,1.87442c-5.11039,4.25416 -10.27656,8.44147 -15.43144,12.64214c-0.12793,0.10425 -0.32431,0.12466 -0.48876,0.1842c-0.02492,-0.37981 -0.00676,-0.75064 0.2246,-1.07713z" fill="#151c60" stroke-width="1"/><path d="M245.38095,181.52133c5.25549,-4.28031 10.5112,-8.56032 15.76715,-12.84005c0.58253,-0.47417 1.17479,-0.93644 1.7625,-1.40404c-0.00199,0.06533 0.00203,0.13072 0.012,0.19531c0.11661,1.34983 -1.13206,1.67313 -1.86249,2.28437c-4.09721,3.42865 -8.24107,6.8013 -12.43158,10.11794c-1.10562,0.87646 -2.01629,2.05164 -3.44175,2.49646c-0.03964,-0.30726 0.06036,-0.58248 0.19416,-0.85z" fill="#151c60" stroke-width="1"/><path d="M262.93218,164.22681c-5.0736,4.16039 -10.14779,8.32004 -15.22259,12.47895c-0.83089,0.68013 -1.68569,1.33111 -2.52937,1.99543c0.00008,-0.32012 0.00011,-0.64061 0.00008,-0.96149c5.87572,-4.7895 11.72228,-9.55524 17.53968,-14.29721c0.28002,0.28303 0.15427,0.55185 0.2122,0.78431z" fill="#151b60" stroke-width="1"/><path d="M217.72899,157.17857v-13.15585c6.46497,5.0519 12.78505,9.99059 19.11792,14.93926c0.07617,4.32653 0.10172,8.6046 -0.01949,13.15102c-6.52668,-5.10368 -12.82578,-10.02939 -19.09843,-14.93442z" fill="#72896a" stroke-width="1"/><path d="M230.68222,156.23554v1.47647l-6.59137,-5.13299v2.10482c2.13591,1.67583 4.36639,3.42585 6.56704,5.15247v1.46379c-2.23152,-1.73804 -4.34039,-3.38057 -6.58162,-5.12618v2.12816c2.17411,1.7058 4.37528,3.43284 6.60351,5.1811v1.46749l-8.43204,-6.58471v-8.70696c2.8715,2.23897 5.63212,4.39149 8.43448,6.57654z" fill="#000000" stroke-width="1"/><path d="M218.93837,172.12863v0c0,0.53372 0.35064,1.06745 0,1.42322c-0.52602,0.17795 -1.05192,-0.53372 -1.40256,-0.71155c0,-0.17795 0,-0.17795 -0.17538,-0.17795c-1.75319,-0.71155 -1.57794,-2.3126 -1.75319,-3.73583c0,-0.71167 0.35064,-0.71167 0.70128,-0.35578c0.70128,0.5336 1.40256,1.06733 2.27921,1.60105c0.70128,0.53372 0.17526,1.24528 0.35064,1.95683z" fill="#282538" stroke-width="0.14441"/><path d="M239.07709,181.15415v0c0,0.93402 0.51993,1.86804 0,2.49064c-0.77998,0.3114 -1.55977,-0.93402 -2.0797,-1.24521c0,-0.3114 0,-0.3114 -0.26005,-0.3114c-2.59963,-1.24521 -2.33975,-4.04705 -2.59963,-6.5377c0,-1.24542 0.51993,-1.24543 1.03986,-0.62261c1.03986,0.9338 2.0797,1.86783 3.37961,2.80183c1.03986,0.93402 0.25987,2.17923 0.51993,3.42445z" fill="#282538" stroke-width="0.14441"/><path d="M233.02172,188.96197v0c0,0.53372 0.35064,1.06745 0,1.42322c-0.52602,0.17795 -1.05192,-0.53372 -1.40256,-0.71155c0,-0.17795 0,-0.17795 -0.17538,-0.17795c-1.75319,-0.71155 -1.57794,-2.3126 -1.75319,-3.73583c0,-0.71167 0.35064,-0.71167 0.70128,-0.35578c0.70128,0.5336 1.40256,1.06733 2.27921,1.60105c0.70128,0.53372 0.17526,1.24528 0.35064,1.95683z" fill="#282538" stroke-width="0.14441"/><g stroke-width="1"><g><path d="M208.2707,181.19001c-0.02923,-0.0892 -0.11103,-0.12775 -0.17645,-0.18155c-1.72674,-1.42013 -3.45356,-2.84014 -5.18049,-4.26005c-0.05294,-0.04353 -0.10291,-0.09067 -0.1588,-0.14013v-12.90861c0.40776,0.33123 0.78604,0.63535 1.16096,0.94355c3.3797,2.77816 6.75906,5.55673 10.1381,8.33569c2.8217,2.32014 5.64344,4.64023 8.4652,6.96029c0.85616,0.70392 1.71247,1.40767 2.56891,2.11125c0.11774,0.09635 0.09649,0.23324 0.09622,0.35859c-0.00548,2.53571 0.00242,5.07143 -0.00521,7.60717c-0.0045,1.49541 0.00011,2.99117 0.00588,4.48676c0.00059,0.15171 0.02714,0.31342 -0.10017,0.43767c-0.57687,-0.4016 -1.09581,-0.87537 -1.63969,-1.31794c-0.95074,-0.77365 -1.89584,-1.55421 -2.84403,-2.33101c-0.03434,-0.02417 -0.0705,-0.04564 -0.10815,-0.06422c-0.2871,-0.06009 -0.44069,-0.31193 -0.66248,-0.46585c-0.09754,-0.06769 -0.18592,-0.15212 -0.28207,-0.22454c-0.51332,-0.45052 -1.05522,-0.86671 -1.57464,-1.30987c-0.06892,-0.05881 -0.16625,-0.09798 -0.16877,-0.21106c-0.59902,-0.50181 -1.19463,-1.00775 -1.79771,-1.50464c-1.61825,-1.33333 -3.23839,-2.66437 -4.86041,-3.99312c-0.05906,-0.04847 -0.12607,-0.08727 -0.18937,-0.13057c-0.19474,0.00363 -0.28762,-0.16265 -0.41771,-0.26047c-0.1838,-0.13819 -0.35283,-0.29646 -0.5364,-0.43616c-0.46672,-0.39794 -0.94239,-0.78509 -1.41843,-1.17179c-0.1188,-0.09651 -0.24479,-0.18598 -0.31429,-0.32941z" fill="#feba00"/><path d="M225.08485,194.94065c0.00067,-3.90141 0.00137,-7.80282 0.00208,-11.70423c0.00008,-0.39532 0.00049,-0.79064 0.00125,-1.18597c0.28872,-0.22834 0.57749,-0.45669 0.90379,-0.71472v12.93726c-0.28919,0.21727 -0.55782,0.49511 -0.90712,0.66766z" fill="#7a899e"/><path d="M217.80502,189.01617c0.59152,0.49261 1.18304,0.98521 1.77456,1.47782c0.06165,0.12352 0.08987,0.26103 0.08185,0.39885c-0.00082,1.41827 -0.00127,2.83654 -0.00134,4.25482c-0.00013,0.12836 0.00807,0.26022 -0.08497,0.36785c-0.24861,-0.1057 -0.42237,-0.31139 -0.62731,-0.47452c-0.3892,-0.30983 -0.76968,-0.63061 -1.15777,-0.95011c0,-0.97478 -0.00187,-1.94413 0.00062,-2.91347c0.00185,-0.72043 0.00936,-1.44083 0.01436,-2.16125z" fill="#3b3836"/><path d="M208.2707,181.19001c0.59751,0.46959 1.18982,0.94547 1.75748,1.45117c0.05449,0.08794 0.08111,0.19029 0.07638,0.29363c-0.00205,1.47194 0.00941,2.94388 0.00061,4.41582c0.00448,0.11187 -0.02463,0.22251 -0.08357,0.3177c-0.24225,-0.11623 -0.42091,-0.31611 -0.62638,-0.48012c-0.38263,-0.3054 -0.75782,-0.62011 -1.12452,-0.92143z" fill="#3b3836"/><path d="M210.0216,187.66832c0.00218,-1.67572 0.00436,-3.35144 0.00656,-5.02715c0.30981,0.24889 0.6196,0.49778 0.92937,0.74666v3.61467c-0.31959,0.22078 -0.57677,0.51258 -0.93593,0.66582z" fill="#171b20"/><path d="M219.57511,195.51552c0.00148,-1.67384 0.00297,-3.34769 0.00446,-5.02153c0.30448,0.2445 0.60895,0.489 0.91341,0.73349v3.60763c-0.30866,0.22525 -0.57703,0.49995 -0.91787,0.68041z" fill="#171b20"/><path d="M215.33906,185.25164c-0.26145,-0.20706 -0.5251,-0.41143 -0.78344,-0.62229c-0.13228,-0.10797 -0.07971,-0.29362 -0.16158,-0.42499c-0.13426,-0.11691 -0.12657,-0.29628 -0.19562,-0.44211c-0.10395,-0.51828 -0.28156,-1.02221 -0.31795,-1.55458c0.03492,0.50018 0.10881,0.99944 0.08925,1.50343c-0.00463,0.11926 0.01138,0.2419 -0.06275,0.34853c-0.29771,-0.15855 -0.51835,-0.41388 -0.77604,-0.60387c-0.02157,-0.12396 -0.04043,-0.23241 -0.05931,-0.34087c-0.0945,-0.11072 -0.07091,-0.24747 -0.08386,-0.37635c-0.00456,-1.04317 -0.00205,-2.08635 -0.00188,-3.12953c-0.00495,-0.09393 0.00338,-0.18809 0.02473,-0.2797c0.02948,-0.0897 0.10125,-0.13886 0.17652,-0.08399c0.32227,0.23492 0.69283,0.4214 0.8681,0.81407c0.2147,0.82648 0.40348,1.65861 0.52272,2.42715c-0.13033,-0.54631 -0.07827,-1.18369 -0.13407,-1.81196c-0.00809,-0.09107 -0.00385,-0.19121 0.08662,-0.25559c0.12581,-0.02821 0.20992,0.05268 0.30253,0.11334c0.42595,0.27898 0.62055,0.63442 0.59477,1.17979c-0.04984,1.05452 -0.01391,2.11305 -0.01533,3.16992c-0.00017,0.12705 0.02121,0.26042 -0.07343,0.36961z" fill="#fe0003"/><path d="M204.33848,171.38124c-0.00065,-0.04229 -0.00874,-0.08414 -0.0239,-0.12362c-0.348,-0.55434 -0.42764,-1.16369 -0.39211,-1.80285c0.01759,-0.31633 0.00227,-0.6344 0.00588,-0.95163c0.00215,-0.18916 0.05179,-0.35715 0.23884,-0.45025c0.20446,-0.07718 0.3688,0.03466 0.52882,0.1262c0.73479,0.42033 1.32447,1.00084 1.82162,1.67962c0.08104,0.11066 0.15473,0.22686 0.23299,0.34032c0.1279,0.22431 0.19558,0.47788 0.19647,0.73609c0.00581,0.50459 0.00259,1.00925 0.00151,1.51388c-0.00034,0.12859 -0.02516,0.25594 -0.07312,0.37525c-0.06252,0.1396 -0.1957,0.23442 -0.34807,0.24782c-0.11044,0.0022 -0.22048,-0.01383 -0.32571,-0.04744c-0.24718,-0.07982 -0.4559,-0.22701 -0.66182,-0.37926c-0.3838,-0.34944 -0.80572,-0.65999 -1.11391,-1.08698c-0.03925,-0.05439 -0.09717,-0.09889 -0.0875,-0.17715z" fill="#fe0003"/><path d="M217.20953,181.86555c-0.27538,-0.50555 -0.40232,-1.07863 -0.36617,-1.65319c0.01698,-0.33236 -0.00235,-0.66642 0.00633,-0.99941c0.00532,-0.20397 0.00827,-0.41847 0.23699,-0.52615c0.07209,-0.05317 0.14697,-0.0295 0.22102,-0.00677c0.19092,0.05133 0.37218,0.13347 0.53665,0.24317c0.71567,0.51391 1.35288,1.10481 1.8094,1.8705c0.14504,0.25595 0.21689,0.54685 0.20771,0.84089c-0.00587,0.47297 -0.00086,0.94607 -0.00194,1.41912c-0.00032,0.13772 0.00094,0.27611 -0.06595,0.40312c-0.05548,0.10604 -0.14778,0.18817 -0.25955,0.23095c-0.27652,0.06608 -0.50713,-0.0423 -0.72674,-0.19205c-0.10411,-0.09976 -0.21845,-0.18826 -0.34113,-0.26403c-0.08395,-0.05979 -0.17198,-0.11397 -0.25427,-0.17637c-0.06059,-0.05217 -0.12447,-0.10052 -0.18386,-0.15429c-0.28968,-0.23685 -0.54226,-0.51575 -0.74933,-0.82742c-0.04385,-0.06268 -0.09402,-0.1228 -0.06915,-0.20808z" fill="#fe0003"/><path d="M205.98329,177.28127c-0.19086,0.00937 -0.37885,-0.04924 -0.53057,-0.16542c-0.53488,-0.37409 -1.01264,-0.81875 -1.52647,-1.22434c0,-1.19588 -0.00072,-2.37927 0.00069,-3.56265c0.00024,-0.20539 0.00946,-0.41077 0.01454,-0.61615c0.08462,-0.02167 0.14922,0.02105 0.20763,0.07086c0.36738,0.31325 0.75202,0.60619 1.10535,0.93615c0.30544,0.29442 0.59322,0.60324 0.79929,0.97898c0.10948,0.19604 0.17886,0.4119 0.2041,0.63501c0.03637,0.35896 0.04305,0.71485 -0.3339,0.93625c0.29665,0.58428 0.54096,1.16032 0.29716,1.81097c-0.05772,0.09223 -0.10994,0.19132 -0.23783,0.20033z" fill="#fe0003"/><path d="M208.67841,179.58195c-0.21528,-0.00576 -0.4233,-0.07911 -0.59457,-0.20968c-0.62278,-0.44005 -1.10465,-0.99203 -1.37448,-1.71434c-0.17037,-0.1869 -0.12609,-0.42995 -0.16775,-0.65003c-0.01563,-0.08254 0.00376,-0.16905 -0.0083,-0.25349c-0.00041,-0.38782 -0.00555,-0.77556 0.001,-1.16332c0.00993,-0.32518 -0.00932,-0.65042 0.00163,-0.97555c0.00926,-0.22422 -0.04671,-0.45389 0.05496,-0.67047c0.03846,-0.03622 0.09526,-0.04502 0.14288,-0.02214c0.05547,0.02343 0.10645,0.05632 0.15067,0.0972c0.79161,0.65723 0.6664,0.4027 0.67865,1.38183c0.0104,0.83171 -0.02133,1.66371 0.01767,2.49459c0.01865,0.10263 0.05214,0.20199 0.09943,0.29497c0.05065,0.08556 0.09582,0.17768 0.21984,0.17398c0.1187,-0.05634 0.08536,-0.1648 0.08874,-0.26045c-0.00202,-0.1148 -0.0101,-0.22914 -0.00356,-0.34398c0.00283,-0.75491 -0.00083,-1.50941 0.00192,-2.26391c0.00044,-0.11867 -0.01873,-0.24109 0.04174,-0.3532c0.03168,-0.04272 0.08846,-0.05823 0.13746,-0.03755c0.05673,0.02013 0.10891,0.0513 0.15352,0.09172c0.80225,0.63732 0.68166,0.44072 0.68828,1.37428c0.00553,0.77996 -0.00015,1.55998 0.0024,2.33982c0.01063,0.16459 -0.01444,0.32954 -0.07348,0.48355c-0.0546,0.10563 -0.10518,0.21758 -0.25864,0.18619z" fill="#fe0003"/><path d="M211.07051,181.55246c-0.7348,-0.12879 -1.17357,-0.63096 -1.53866,-1.22331c-0.07148,-0.11596 -0.12768,-0.24134 -0.19093,-0.36237c-0.21021,-0.20745 -0.17035,-0.48873 -0.22035,-0.74355c-0.02314,-0.14935 -0.07356,-0.30231 0.05399,-0.43286c0.08308,-0.04355 0.14971,0.00477 0.20781,0.04914c0.18757,0.14327 0.36793,0.29573 0.54685,0.4498c0.07521,0.07005 0.11485,0.17027 0.1079,0.27281c-0.00433,0.23792 0.05742,0.47237 0.17837,0.67729c0.0571,0.07008 0.10445,0.15312 0.22321,0.15505c0.11332,-0.08118 0.09012,-0.19238 0.05334,-0.30602c-0.11374,-0.26561 -0.25456,-0.51879 -0.42022,-0.75553c-0.15503,-0.30613 -0.36696,-0.5803 -0.50497,-0.89608c-0.07,-0.14947 -0.14424,-0.29669 -0.22545,-0.44065c-0.15757,-0.35979 -0.25261,-0.73004 -0.1767,-1.12555c0.02452,-0.12779 0.06726,-0.24985 0.17869,-0.33304c0.07846,-0.05454 0.1657,-0.0952 0.25793,-0.12021c0.29569,-0.02255 0.51802,0.14105 0.73491,0.30356c0.27602,0.20682 0.47262,0.48636 0.66125,0.77066c0.29225,0.47435 0.50542,0.9678 0.41102,1.52974c-0.08581,0.03912 -0.18703,0.01904 -0.25141,-0.04987c-0.30846,-0.25251 -0.66313,-0.46222 -0.69482,-0.93466c-0.00514,-0.19967 -0.1242,-0.37875 -0.30632,-0.46076c-0.09928,0.13582 -0.02301,0.25292 0.028,0.36015c0.1926,0.40492 0.45193,0.77098 0.68754,1.15072c0.36468,0.58774 0.63659,1.20027 0.56298,1.91729c-0.01321,0.12874 -0.01658,0.25711 -0.06763,0.37844c-0.06255,0.11967 -0.14476,0.2054 -0.2963,0.16979z" fill="#fe0003"/><path d="M219.89222,188.81504c-0.73772,-0.13788 -1.16951,-0.65629 -1.54477,-1.24347c-0.05962,-0.0933 -0.10826,-0.19361 -0.16198,-0.29068c-0.18532,-0.17708 -0.20224,-0.41348 -0.22885,-0.64676c0.0186,-0.19078 -0.04273,-0.39282 0.08077,-0.60163c0.30498,0.13817 0.57632,0.34092 0.79526,0.59424c0.05703,0.29549 0.05535,0.60522 0.2101,0.87724c0.05825,0.07814 0.10397,0.17309 0.22944,0.16877c0.11626,-0.08773 0.08518,-0.19956 0.04905,-0.3119c-0.10149,-0.27241 -0.25882,-0.51505 -0.40577,-0.76317c-0.17501,-0.29399 -0.34481,-0.59098 -0.51914,-0.88544c-0.0947,-0.19132 -0.19003,-0.38233 -0.2696,-0.58073c-0.09123,-0.21576 -0.14679,-0.44492 -0.16451,-0.67851c0.00397,-0.09956 0.01572,-0.19865 0.03514,-0.29638c0.0384,-0.10352 0.08624,-0.20329 0.14292,-0.29805c0.08632,-0.11249 0.21409,-0.18574 0.35478,-0.20338c0.37815,0.01791 0.62152,0.27634 0.86648,0.51129c0.20651,0.19489 0.38313,0.41919 0.52416,0.66565c0.15874,0.30554 0.32452,0.60913 0.35965,0.96008c0.01675,0.16738 0.0603,0.34087 -0.06088,0.49675c-0.19654,0.0182 -0.28469,-0.14715 -0.41167,-0.23717c-0.24213,-0.17165 -0.43517,-0.36654 -0.46239,-0.70059c-0.01604,-0.1968 -0.08043,-0.42306 -0.34362,-0.50743c-0.05427,0.229 0.05346,0.39746 0.15109,0.56364c0.28739,0.48919 0.61984,0.95147 0.87718,1.45862c0.28858,0.54552 0.35663,1.18104 0.19009,1.7753c-0.07354,0.09834 -0.13575,0.21634 -0.29292,0.17373z" fill="#fe0003"/><path d="M222.2794,190.77061c-0.69808,-0.12626 -1.13407,-0.59511 -1.49699,-1.15367c-0.09252,-0.1424 -0.1594,-0.30143 -0.23806,-0.45283c-0.19908,-0.18155 -0.16928,-0.43546 -0.21152,-0.66677c0.01727,-0.16348 -0.04922,-0.34203 0.11664,-0.5268c0.28384,0.23658 0.65918,0.36118 0.79286,0.76205c-0.00167,0.22065 0.04392,0.43909 0.13369,0.64065c0.04745,0.12982 0.11061,0.24124 0.26953,0.24452c0.11589,-0.08917 0.08765,-0.19319 0.05094,-0.29819c-0.09261,-0.24952 -0.24012,-0.47157 -0.35511,-0.70981c-0.19064,-0.31666 -0.40774,-0.61715 -0.57716,-0.94684c-0.15896,-0.31758 -0.32215,-0.63351 -0.37557,-0.99107c-0.0081,-0.16159 -0.00177,-0.32373 -0.01998,-0.48497c0.01367,-0.2371 0.10955,-0.42087 0.33778,-0.51855c0.48196,-0.12374 0.77087,0.19275 1.06109,0.48161c0.18434,0.19138 0.34731,0.40224 0.48604,0.62888c0.2464,0.45409 0.47445,0.9124 0.338,1.44903c-0.14495,0.03369 -0.2231,-0.03763 -0.3014,-0.10453c-0.06691,-0.06691 -0.13886,-0.12858 -0.21523,-0.18447c-0.22141,-0.12246 -0.36421,-0.35024 -0.37797,-0.60288c-0.01859,-0.2166 -0.09647,-0.4309 -0.34981,-0.53761c-0.0795,0.227 0.03998,0.38539 0.1301,0.54241c0.20115,0.35047 0.42917,0.6847 0.64518,1.02621c0.35322,0.55844 0.57678,1.15071 0.51848,1.82622c-0.01191,0.13797 -0.01939,0.27408 -0.0769,0.40231c-0.0713,0.09646 -0.12841,0.21656 -0.28462,0.17509z" fill="#fe0003"/><path d="M217.77402,187.25047c-0.65298,-0.52506 -1.30597,-1.05013 -1.951,-1.56879c-0.01241,-0.12566 -0.0224,-0.2269 -0.0324,-0.32814c-0.07074,-0.11138 -0.06078,-0.23554 -0.05733,-0.35866c0.0109,-1.17141 -0.01521,-2.34365 0.01504,-3.52587c0.19842,-0.00535 0.29206,0.0877 0.39035,0.16395c0.52303,0.40577 1.02022,0.84294 1.53214,1.26224c0.10673,0.08742 0.17196,0.1901 0.16639,0.33094c-0.00708,0.17927 0.02731,0.36084 -0.02938,0.53727c-0.15104,0.15609 -0.23813,-0.04265 -0.35727,-0.06411c-0.24039,-0.14427 -0.4234,-0.36138 -0.6682,-0.53836c-0.05885,0.19382 -0.03388,0.37434 -0.0191,0.55408c0.19622,0.25001 0.45942,0.42264 0.70587,0.61426c0.17956,0.13962 0.33442,0.29215 0.3185,0.54556c-0.00597,0.1806 0.02785,0.36343 -0.03123,0.54075c-0.13307,0.14142 -0.21527,-0.00531 -0.31475,-0.05517c-0.12808,-0.09867 -0.25707,-0.19654 -0.38817,-0.29148c-0.10479,-0.07688 -0.20488,-0.15996 -0.29974,-0.2488c-0.00115,0.25648 -0.02744,0.47797 0.02383,0.6992c0.23139,0.21759 0.47725,0.41732 0.72297,0.61705c0.35268,0.28667 0.44768,0.66956 0.27348,1.1141z" fill="#fe0003"/><path d="M222.62065,184.95577c-0.15136,-0.10791 -0.30271,-0.21581 -0.45407,-0.32372c-0.18339,0.01346 -0.24139,-0.17646 -0.38105,-0.23389c-0.11896,-0.07619 -0.19075,-0.22611 -0.35659,-0.2256c-0.06044,0.35051 -0.00645,0.70216 -0.0303,1.0513c-0.00749,0.10971 0.01888,0.26658 -0.18451,0.22132c-0.27256,-0.22659 -0.51987,-0.48475 -0.82693,-0.66935c-0.05823,-0.02936 -0.10606,-0.07586 -0.13704,-0.13324c-0.02532,-0.04768 -0.03667,-0.10153 -0.03274,-0.15538c0.02435,-0.17524 0.01456,-0.35355 -0.02884,-0.52507c-0.02506,-0.29659 -0.02809,-0.59463 -0.00906,-0.89167c0.00125,-0.02891 0.00536,-0.05762 0.01227,-0.08572c0.08497,-0.47701 0.01588,-0.9583 0.03882,-1.43705c0.00717,-0.14954 -0.03143,-0.3079 0.06156,-0.43792c0.13352,-0.02657 0.21005,0.04648 0.28878,0.11143c0.68839,0.5679 1.37462,1.13848 2.07148,1.696c0.12251,0.09801 0.20124,0.20845 0.19632,0.36904c-0.00312,0.12269 0.01439,0.24714 -0.02787,0.36672c-0.02245,0.04341 -0.02153,0.10559 -0.13825,0.11504c-0.24681,-0.114 -0.45044,-0.35402 -0.6956,-0.53612c-0.19786,-0.12033 -0.31735,-0.34345 -0.54916,-0.41665c-0.08365,0.11997 -0.02465,0.24584 -0.02874,0.37962c0.33284,0.27821 0.66198,0.5613 0.99728,0.83717c0.30575,0.25157 0.3754,0.54815 0.21424,0.92373z" fill="#fe0003"/><path d="M212.65188,183.01893c-0.32481,-0.17486 -0.57303,-0.44592 -0.85994,-0.66471c-0.00806,-0.1482 -0.01543,-0.28367 -0.0228,-0.41914c-0.12449,-0.19527 -0.0571,-0.41328 -0.07173,-0.62126c-0.00711,-0.10112 0.01257,-0.20317 0.00149,-0.30497c-0.00692,-0.42459 -0.00345,-0.84922 -0.00258,-1.27378c0.02321,-0.21978 -0.01296,-0.44035 0.00656,-0.66011c0.00063,-0.1047 -0.00038,-0.20958 0.00353,-0.31431c0.02322,-0.19726 -0.04715,-0.40708 0.09127,-0.63088c0.35208,0.21538 0.69291,0.42182 0.91791,0.77581c0.0375,0.17812 0.0233,0.35841 0.02351,0.53769c0.00126,1.05249 0.00137,2.10498 0.00034,3.15748c-0.00009,0.14522 0.00969,0.29304 -0.08756,0.41817z" fill="#fe0003"/><path d="M222.51221,190.6062c0.18735,-0.7742 0.00355,-1.47738 -0.4097,-2.13642c-0.23699,-0.37794 -0.48289,-0.75061 -0.70864,-1.13512c-0.11262,-0.19181 -0.24166,-0.39768 -0.09273,-0.67063c0.45067,0.18982 0.45823,0.5855 0.50984,0.97643c0.23261,0.18985 0.47494,0.38763 0.74969,0.61189c0.06386,-0.56373 -0.13377,-1.01166 -0.35964,-1.45267c-0.03468,-0.33243 0.11512,-0.44649 0.42506,-0.32365c0.16607,0.21601 0.25726,0.47008 0.36427,0.7161c0.02755,0.14981 0.11191,0.2835 0.11768,0.4404c0.01031,0.28047 -0.05616,0.38413 -0.33254,0.49738c-0.08287,-0.00425 -0.1206,0.04677 -0.14461,0.1191c0.11704,0.25155 0.23452,0.50405 0.35245,0.75751c0.12257,0.34514 0.1718,0.6979 0.0934,1.05951c-0.06649,0.30669 -0.28447,0.50984 -0.56453,0.54017z" fill="#570000"/><path d="M213.32921,175.95538c-0.00002,0.01611 -0.00671,0.03149 -0.01848,0.04248c-0.02229,0.01237 -0.05038,0.00487 -0.06353,-0.01698c-0.03444,-0.06063 -0.04621,-0.13151 -0.03321,-0.20002c0.07305,-0.37201 -0.13877,-0.5824 -0.4048,-0.78808c-0.77392,-0.59833 -1.51387,-1.23886 -2.27089,-1.85842c-0.04114,-0.0868 0.01798,-0.13715 0.06907,-0.19058c0.08586,-0.05716 0.16709,-0.12645 0.28112,-0.11599c0.04223,-0.02622 0.08446,-0.05244 0.14001,-0.08694c0.90341,0.76989 1.8475,1.48069 2.72408,2.27318c-0.00621,0.01157 -0.01242,0.02314 -0.01848,0.0348c-0.22326,0.18574 -0.40641,0.38884 -0.34444,0.71451c0.01277,0.0671 -0.02579,0.13233 -0.06042,0.19201z" fill="#930000"/><path d="M222.78463,183.28124c-0.01361,-0.09995 -0.02083,-0.1884 -0.11792,-0.26676c-0.73806,-0.59556 -1.46809,-1.20106 -2.2016,-1.80225c-0.05551,-0.03771 -0.11327,-0.07201 -0.17294,-0.10271c0,0.43396 0.00636,0.83085 -0.00257,1.22739c-0.00475,0.21129 0.04342,0.42662 -0.03459,0.63415c-0.09099,-0.07477 -0.08844,-0.18143 -0.08953,-0.2827c-0.00515,-0.4785 -0.00513,-0.95702 0.00003,-1.43556c0.00111,-0.10123 -0.00153,-0.20799 0.09016,-0.28231c0.23519,0.08772 0.29482,-0.20212 0.50924,-0.22164c0.64482,0.53032 1.30988,1.07339 1.96978,1.62266c0.17089,0.14224 0.36304,0.26085 0.5053,0.43643c-0.00488,0.01098 -0.00977,0.02196 -0.01454,0.03303c-0.16905,0.12461 -0.28982,0.29757 -0.44082,0.44027z" fill="#930000"/><path d="M219.57534,180.75048c-0.47279,-0.66505 -1.02445,-1.25126 -1.69641,-1.72151c-0.2378,-0.16719 -0.50746,-0.28367 -0.79221,-0.3422c0.4182,-0.39254 0.5237,-0.4111 1.01181,-0.12911c0.74204,0.42869 1.33269,1.02162 1.82486,1.71683c0.02849,0.05143 0.0511,0.1059 0.06739,0.16239c-0.06015,0.2082 -0.24453,0.25198 -0.41545,0.31359z" fill="#8d0100"/><path d="M206.66704,170.1661c-0.39626,-0.5739 -0.84922,-1.09566 -1.40163,-1.52643c-0.33222,-0.25906 -0.66989,-0.50732 -1.09811,-0.5868c0.42624,-0.38386 0.51366,-0.41091 0.98834,-0.12906c0.79005,0.46912 1.45838,1.07094 1.91469,1.88342c-0.13803,0.11558 -0.3027,0.20125 -0.40328,0.35887z" fill="#900100"/><path d="M212.65188,183.01894l-0.00212,-4.17796c0.10396,-0.15821 0.23016,-0.28626 0.42924,-0.31554c0.0114,0.0243 0.02083,0.04949 0.02819,0.07531c0.04435,0.19231 0.04848,0.39172 0.01212,0.5857c-0.01233,0.02585 -0.02658,0.05073 -0.04263,0.07445c-0.00415,1.16395 -0.0083,2.32791 -0.01245,3.49186c-0.05035,0.14577 -0.18579,0.16888 -0.30689,0.21267c-0.03516,0.01784 -0.07031,0.03567 -0.10547,0.05351z" fill="#380000"/><path d="M215.4974,185.19131c-0.03362,0.01653 -0.06725,0.03307 -0.10087,0.04961c-0.04411,-0.05182 -0.02837,-0.1144 -0.02841,-0.17281c-0.00082,-1.27774 -0.00082,-2.55547 0,-3.83321c0.00033,-0.28935 0.13742,-0.42672 0.43315,-0.44611c0.10146,0.19662 0.11474,0.42706 0.03654,0.63403c-0.09131,0.0825 -0.05716,0.19214 -0.05736,0.2911c-0.00215,1.0633 -0.00258,2.12651 -0.00131,3.18962c0.02142,0.20841 -0.14489,0.2337 -0.28174,0.28777z" fill="#360000"/><path d="M215.75471,184.98481c-0.00054,-1.10916 -0.00077,-2.21831 -0.00069,-3.32747c0.00006,-0.08273 -0.02615,-0.1747 0.05513,-0.24014c0.05472,-0.13555 0.17461,-0.17101 0.30133,-0.19599c0.03596,-0.05107 0.09122,-0.08524 0.15298,-0.09459c0.31292,0.2443 0.62939,0.49137 0.94596,0.73869c0.22825,0.3857 0.54458,0.69686 0.85459,1.01333c-0.22708,0.27164 -0.17884,0.59421 -0.16813,0.90994c-0.02825,0.0749 -0.06305,0.12111 -0.12816,0.02811v-0.74538c-0.62886,-0.5192 -1.26834,-1.04717 -1.97329,-1.62919v3.54621c-0.01511,0.01996 -0.02844,0.01981 -0.03972,-0.00351z" fill="#930000"/><path d="M219.57534,180.75048c0.09507,-0.16198 0.31918,-0.15313 0.41544,-0.31356c0.11762,0.16165 0.20714,0.34198 0.26481,0.53339c-0.02169,0.66704 -0.0219,1.33397 -0.00061,2.00078c-0.00143,0.01145 -0.00359,0.0228 -0.00646,0.03398c-0.08814,0.24931 -0.22431,0.44688 -0.51515,0.47788c0.07252,-0.21634 0.05305,-0.44001 0.05336,-0.66221c0.00054,-0.38587 -0.00791,-0.77211 0.00613,-1.15751c0.01195,-0.3278 -0.09122,-0.6214 -0.21753,-0.91274z" fill="#3c0100"/><path d="M206.66704,170.1661c0.02685,-0.24041 0.19784,-0.31896 0.40329,-0.35884c0.12508,0.16171 0.18489,0.35544 0.26449,0.53946c0.03607,0.09872 0.01282,0.20241 0.02644,0.30328c-0.00525,0.59062 0.02765,1.18144 -0.01628,1.7714c-0.11485,0.2202 -0.25333,0.412 -0.53265,0.42887c0.04671,-0.89987 0.20593,-1.80582 -0.1453,-2.68416z" fill="#3f0000"/><path d="M217.77402,187.25047v-0.78759c-0.35616,-0.3035 -0.71737,-0.61131 -1.07857,-0.91911c0.19921,-0.15235 0.43151,-0.11072 0.65605,-0.11248c0.02594,0.00063 0.05177,0.00374 0.07712,0.00931c0.24883,0.07989 0.39336,0.31705 0.6038,0.416c0.11802,0.01497 0.1831,-0.04673 0.25621,-0.08724c0.04686,-0.03555 0.10189,-0.05877 0.16006,-0.06753c0.17149,0.29094 0.34298,0.58188 0.51447,0.87282c-0.03309,0.07878 -0.0833,0.11099 -0.16399,0.06017c-0.24094,-0.18333 -0.48188,-0.36666 -0.7755,-0.59007v0.59077c-0.05242,0.01479 -0.07196,-0.03245 -0.11353,-0.06202c-0.06811,0.22176 0.04088,0.46307 -0.08466,0.67131c-0.01715,0.00189 -0.03429,0.00378 -0.05143,0.00567z" fill="#880000"/><path d="M222.62608,186.47602c-0.09953,0.00523 -0.19906,0.01045 -0.28941,0.01519c-0.0893,0.09552 -0.10188,0.20649 -0.1356,0.30841c-0.24434,-0.30462 -0.45203,-0.63936 -0.77559,-0.87694c-0.21536,-0.15812 -0.43543,-0.26887 -0.71037,-0.21738c-0.02641,-0.05841 0.00665,-0.09589 0.04583,-0.1314c0.14946,-0.04669 0.24936,-0.209 0.42941,-0.18516c0.03888,0.01184 0.07775,0.02368 0.14672,0.04469c0,-0.43017 -0.0029,-0.83759 0.00347,-1.24486c0.00085,-0.05424 -0.06652,-0.19203 0.10085,-0.14264c0.03314,0.33728 0.00665,0.67548 0.01636,1.01309c0.00259,0.09031 -0.02472,0.18786 0.05024,0.26456c0.25453,0.11325 0.50927,0.22614 0.64935,0.49027c0.15329,0.22281 0.37115,0.39995 0.46873,0.66215z" fill="#840100"/><path d="M213.28132,175.98448c0.00987,0.00438 0.01969,0.00883 0.02947,0.01336c-0.00005,0.82991 -0.00005,1.6598 -0.00005,2.48491c-0.05314,0.06351 -0.09458,0.01478 -0.13811,-0.00493c-0.18927,-0.06409 -0.32025,-0.21111 -0.46963,-0.33155c-0.04755,-0.03833 -0.08068,-0.08716 -0.04406,-0.15315c0.19485,-0.15148 0.23318,-0.35408 0.23479,-0.59156c0.00355,-0.5223 -0.0462,-1.04615 0.02861,-1.56722c0.21381,-0.17551 0.25571,0.06068 0.359,0.15015z" fill="#765a00"/><path d="M222.51221,190.6062c0.4826,-0.29572 0.62526,-0.63479 0.50919,-1.24255c-0.02453,-0.11747 -0.03727,-0.2371 -0.03805,-0.3571c0.33882,0.5676 0.50391,1.17211 0.36497,1.83235c-0.06039,0.28696 -0.20436,0.3677 -0.48509,0.28362c-0.22289,-0.06237 -0.4247,-0.18399 -0.58396,-0.35193c0.10287,-0.01922 0.15845,-0.10517 0.23294,-0.16438z" fill="#7a5f00"/><path d="M207.29222,170.58655c-0.01827,-0.08573 -0.02219,-0.16892 0.04252,-0.23992c0.17502,-0.03571 0.27248,-0.20047 0.45391,-0.26977l1.04578,0.87532c0.00937,0.02985 0.00524,0.06231 -0.01131,0.08886c-0.28869,0.20643 -0.34243,0.49293 -0.33034,0.83095c0.02138,0.5981 0.00692,1.19752 0.00524,1.79638c-0.00033,0.11871 0.01383,0.24078 -0.05033,0.35079c-0.12693,0.06988 -0.12044,-0.04837 -0.13614,-0.10741c-0.02874,-0.10809 -0.0158,-0.22179 -0.01592,-0.33321c-0.00074,-0.66079 -0.00394,-1.32161 0.00191,-1.98234c0.00175,-0.19718 -0.05935,-0.34426 -0.22147,-0.46221c-0.17327,-0.12606 -0.32468,-0.28024 -0.48708,-0.42049c-0.08634,-0.07457 -0.17355,-0.1412 -0.29675,-0.12693z" fill="#930100"/><path d="M214.51844,180.44503l0.08934,2.2088l-0.03178,0.00629c-0.19471,-0.87592 -0.38942,-1.75184 -0.58414,-2.62776c-0.01538,-0.25627 0.07561,-0.34909 0.40956,-0.41782c0.02319,0.04848 0.04639,0.09695 0.06958,0.14543c0.04333,0.18592 0.15427,0.35425 0.1447,0.55416c-0.0073,0.06226 -0.05462,0.09484 -0.09727,0.13089z" fill="#420000"/><path d="M214.51844,180.44503c0.01846,-0.03561 0.03692,-0.07121 0.05537,-0.10682c0.04036,-0.04926 0.07938,-0.10044 0.15107,-0.10441c0.07925,-0.04993 0.15849,-0.09986 0.26732,-0.16842c0.26683,0.22522 0.53961,0.45546 0.81238,0.68569c0.0165,0.01383 0.02109,0.02627 0.01375,0.03732c-0.00683,0.01034 -0.01348,0.01551 -0.01994,0.01552c-0.16057,0.04946 -0.26328,0.17826 -0.40195,0.27217c0,1.39389 0,2.77937 0.00004,4.16485c-0.01257,0.03889 -0.03104,0.04619 -0.05745,0.01069c0.00001,-1.38696 0.00001,-2.77395 0.00001,-4.18222c-0.28072,-0.19248 -0.4851,-0.49076 -0.82061,-0.62436z" fill="#980100"/><path d="M222.62065,184.95577v-0.66058c-0.43379,-0.35965 -0.85499,-0.70885 -1.28294,-1.06365c0,-0.15557 -0.00252,-0.30958 0.00125,-0.46343c0.0015,-0.06104 0.00792,-0.13651 0.09995,-0.06193c0.02959,0.1311 -0.00618,0.26997 0.04695,0.40724c0.16369,0.07931 0.34694,0.02371 0.51703,0.06276c0.20472,0.16331 0.40851,0.32779 0.61484,0.48902c0.04697,0.0367 0.0943,0.11904 0.16445,0.02537c0.00935,-0.00716 0.0214,-0.00982 0.0329,-0.00725c0.0115,0.00257 0.02127,0.01009 0.02669,0.02055c0.029,0.14607 0.19767,0.17122 0.25426,0.2934c-0.00432,0.01245 -0.00865,0.0249 -0.01287,0.03741c-0.25554,0.17885 -0.39605,0.41048 -0.34852,0.73489c-0.00017,0.06062 -0.02102,0.11936 -0.05911,0.16652c-0.01026,0.02895 -0.02725,0.03911 -0.05487,0.01968z" fill="#850000"/><path d="M209.24375,171.78632c0.10239,-0.07424 0.20479,-0.14848 0.33292,-0.24138c0.35529,0.2999 0.71019,0.59948 1.0647,0.89872c0.01206,0.01009 0.01841,0.02544 0.01703,0.0411c-0.00181,0.01523 -0.00454,0.02285 -0.00807,0.02288c-0.11969,0.1343 -0.26685,0.24128 -0.43152,0.31372c-0.18532,-0.04457 -0.29241,-0.20204 -0.43341,-0.30865c-0.2386,-0.18042 -0.46867,-0.37294 -0.69431,-0.57027c-0.02572,-0.12673 0.07027,-0.13477 0.15265,-0.15612z" fill="#940100"/><path d="M209.24375,171.78632c-0.04533,0.0447 -0.09066,0.0894 -0.13599,0.13411c0.04561,0.07301 0.06856,0.1579 0.06596,0.24394c0.00399,0.55547 0.00392,1.11094 -0.00022,1.66641c0.00663,0.08598 -0.01468,0.17181 -0.06076,0.24471c-0.15625,0.05469 -0.1891,-0.08135 -0.23764,-0.16793c-0.08648,-0.16926 -0.12812,-0.35786 -0.12094,-0.54779c-0.00355,-0.67831 -0.00137,-1.35662 -0.00139,-2.03493c-0.00671,-0.11205 0.01888,-0.22367 0.07374,-0.3216c0.00263,-0.01705 0.00527,-0.0341 0.00791,-0.05112c0.13646,0.2781 0.27291,0.55617 0.40934,0.8342z" fill="#6d4d00"/><path d="M205.21862,172.75014c-0.42573,-0.34578 -0.85145,-0.69158 -1.27717,-1.03739c0.09608,-0.15387 0.25452,-0.23302 0.39699,-0.33143c0.35465,0.46156 0.8029,0.82912 1.22735,1.22061c-0.07646,0.14128 -0.2275,0.10803 -0.34716,0.14821z" fill="#880000"/><path d="M214.40143,179.61454c-0.13415,0.14157 -0.40834,0.14601 -0.40953,0.41781c-0.24631,-0.32682 -0.56457,-0.56835 -0.91523,-0.77146c-0.00035,-0.02056 -0.00071,-0.04113 -0.00108,-0.06171c0.0789,-0.09435 0.15812,-0.18821 0.29487,-0.19527l0.17859,-0.12301c0.28247,0.25555 0.60306,0.45178 0.85237,0.73366z" fill="#920100"/><path d="M222.15735,185.81387c-0.21788,-0.14945 -0.39732,-0.35924 -0.66828,-0.42539c0.23088,-0.27935 0.25097,-0.61527 0.25876,-0.9552c0.0052,-0.03402 0.02621,-0.06356 0.05664,-0.07964c0.14763,0.05772 0.23556,0.19305 0.36207,0.27834c-0.00304,0.39401 -0.0061,0.78797 -0.00919,1.18189z" fill="#775900"/><path d="M213.90698,184.05962v-1.88431c0.11018,0.4806 0.24131,1.05261 0.37245,1.62462c-0.01305,0.14057 -0.12445,0.16763 -0.23116,0.20012c-0.04421,0.02669 -0.08179,0.0691 -0.14129,0.05957z" fill="#390000"/><path d="M213.75256,175.01405c0.25014,0.40502 0.45019,0.82223 0.31855,1.3409c-0.23797,-0.12684 -0.39086,-0.36201 -0.63906,-0.45675c-0.00511,-0.01707 -0.01184,-0.04133 -0.00218,-0.04848c0.23497,-0.17396 0.26055,-0.42138 0.24598,-0.68481c0.0006,-0.05185 0.01824,-0.10206 0.0502,-0.14289c0.00847,-0.00376 0.01738,-0.00644 0.02652,-0.00796z" fill="#7d6200"/><path d="M223.09602,183.99727c0.24536,0.40571 0.44745,0.82202 0.32037,1.33849c-0.24491,-0.11416 -0.38987,-0.35932 -0.6365,-0.45514c0.24082,-0.23487 0.2316,-0.55266 0.28257,-0.85053c0.00159,-0.00837 0.00391,-0.01658 0.00693,-0.02455c0.00805,-0.00491 0.0172,-0.00776 0.02662,-0.00827z" fill="#7e6400"/><path d="M223.24,182.80794c0.2208,0.40503 0.45999,0.8053 0.32889,1.31935c-0.20918,-0.15169 -0.41758,-0.29357 -0.58657,-0.48564c-0.00742,-0.02464 -0.01712,-0.05618 0.00065,-0.07295c0.18501,-0.17454 0.20398,-0.39839 0.19492,-0.63223c0.00313,-0.04255 0.01523,-0.08395 0.0355,-0.12149c0.00814,-0.00455 0.01729,-0.00697 0.02661,-0.00704z" fill="#806400"/><path d="M222.77549,188.1299c0.04973,-0.10848 0.17214,-0.13888 0.24168,-0.22205c0.07367,-0.24391 -0.03092,-0.47767 -0.02681,-0.71567c0.27436,0.419 0.41513,0.91138 0.40368,1.41209c-0.24769,-0.14009 -0.42802,-0.31428 -0.61855,-0.47436z" fill="#7d6200"/><path d="M206.61294,176.7641c0.00521,0.30022 0.03749,0.59937 0.09644,0.89379c-0.3126,0.01051 -0.52259,-0.17663 -0.72602,-0.37657c0.05856,-0.06375 0.11717,-0.12747 0.17582,-0.19116c0.14273,-0.12053 0.24664,-0.29504 0.45375,-0.32606z" fill="#816300"/><path d="M211.76076,181.01572c0.00282,0.30647 0.00562,0.61293 0.00841,0.91938c-0.26731,-0.05118 -0.51177,-0.18508 -0.69882,-0.38277c0.09839,-0.02685 0.18393,-0.08802 0.24115,-0.17245c0.1288,-0.14517 0.28058,-0.26819 0.44926,-0.36416z" fill="#816000"/><path d="M223.21339,182.81498c0.05427,0.19188 0.02493,0.38603 0.02307,0.57125c-0.06503,0.11521 -0.20935,0.13564 -0.25414,0.25543c-0.04685,0.02071 -0.09369,0.04143 -0.14054,0.06217c-0.0199,-0.00439 -0.03977,-0.00881 -0.05963,-0.01326c0.00082,-0.13645 0.00163,-0.27289 0.00245,-0.40933c0.02608,-0.0707 0.05213,-0.14141 0.08654,-0.23476c0.10318,-0.0698 0.22271,-0.15065 0.34224,-0.2315z" fill="#520200"/><path d="M213.72605,175.02201c0.02658,0.21279 0.02953,0.42787 0.0088,0.64131c-0.10268,0.07965 -0.20275,0.15727 -0.30281,0.23489c-0.03427,0.01905 -0.06854,0.03811 -0.10283,0.05717c0.00001,-0.20519 0.00001,-0.41039 0.00001,-0.62915c0.14341,-0.0856 0.22299,-0.25243 0.39683,-0.30422z" fill="#500100"/><path d="M223.0694,184.00554c0.03952,0.21145 0.02225,0.42323 0.01122,0.63918c-0.10198,0.08 -0.20138,0.15795 -0.30075,0.2359c-0.03477,0.01848 -0.06956,0.03697 -0.10435,0.05546c0,-0.21249 0,-0.42498 0,-0.6524c0.13268,-0.09369 0.26328,-0.18592 0.39388,-0.27814z" fill="#4d0200"/><path d="M209.17532,179.21094c0.05523,0.252 0.11044,0.50397 0.16563,0.75592c-0.268,-0.04737 -0.47952,-0.1917 -0.66253,-0.38498c0.09236,-0.02588 0.1399,-0.10438 0.1989,-0.16945c0.08102,-0.09421 0.14931,-0.20725 0.298,-0.20149z" fill="#856300"/><path d="M220.39545,188.49777c0.02734,0.22653 0.07724,0.44975 0.14896,0.66636c-0.264,-0.02955 -0.46769,-0.17154 -0.65224,-0.34912c0.10627,-0.0188 0.16718,-0.10364 0.24306,-0.16667c0.05008,-0.07485 0.12012,-0.13418 0.20218,-0.17127c0.02178,-0.00633 0.04517,0.00201 0.05804,0.0207z" fill="#846400"/><path d="M217.82545,187.2448c0.0263,-0.28216 -0.06846,-0.57756 0.06207,-0.86451c0.13509,0.06694 0.04714,0.20073 0.13613,0.25522c0.02343,0.22169 0.07789,0.43898 0.16177,0.64552c-0.06158,-0.03532 -0.1232,-0.0705 -0.19537,-0.11171c-0.0506,0.0232 -0.1076,0.04934 -0.1646,0.07548z" fill="#470c00"/><path d="M213.37046,179.0039c-0.10003,0.06255 -0.16454,0.1787 -0.29494,0.19531c-0.0004,-0.22338 -0.00085,-0.44674 -0.00135,-0.67007c0.00554,-0.00729 0.01433,-0.01138 0.02347,-0.01093c0.00915,0.00045 0.01748,0.00539 0.02228,0.01319c0.08703,0.15564 0.10977,0.34533 0.25054,0.4725z" fill="#6a4300"/><path d="M215.79841,180.8039c0.00206,-0.01761 0.00413,-0.03522 0.00619,-0.05283c0.15031,0.12526 0.10905,0.37514 0.30596,0.47009c-0.10054,0.06541 -0.20102,0.13077 -0.30145,0.19608c-0.00354,-0.20447 -0.00711,-0.40892 -0.01071,-0.61334z" fill="#6d4500"/><path d="M213.11993,178.5314l-0.02282,-0.00288l-0.02297,0.00061l-0.00465,-0.00022c-0.20057,-0.08973 -0.37121,-0.21446 -0.48077,-0.41075c0.00418,-0.04123 0.01975,-0.06836 0.06811,-0.05429c0.19591,0.10511 0.37076,0.24544 0.51578,0.41397c-0.01756,0.01785 -0.03513,0.03571 -0.05269,0.05357z" fill="#d88a00"/><path d="M210.63605,172.49679c0.00177,-0.01772 0.00354,-0.03544 0.00531,-0.05314c0.12713,0.09921 0.10586,0.29393 0.24724,0.38401c-0.08282,0.03837 -0.13914,0.12333 -0.23744,0.1339c-0.13351,-0.15074 -0.09589,-0.30705 -0.01512,-0.46476z" fill="#674000"/><path d="M214.04827,184.00005c0.07699,-0.06675 0.15401,-0.13348 0.23106,-0.20018c0.03838,0.13493 0.07665,0.26978 0.11482,0.40457c-0.14157,-0.02387 -0.1931,-0.19972 -0.34588,-0.20439z" fill="#956300"/><path d="M214.72489,180.23379c-0.02662,0.06056 -0.08509,0.10094 -0.15114,0.1044c-0.0342,-0.19272 -0.06844,-0.38545 -0.10274,-0.5782c0.08463,0.15792 0.16925,0.31585 0.25388,0.4738z" fill="#794b00"/><path d="M215.75471,184.98481c0.01327,0.00124 0.02653,0.0024 0.03978,0.00349c-0.00131,0.12173 -0.00258,0.24346 -0.00383,0.36518c-0.11504,-0.02286 -0.16453,-0.16405 -0.29326,-0.16218c0.08577,-0.06883 0.17154,-0.13766 0.25731,-0.2065z" fill="#956100"/><path d="M212.75735,182.96542c0.1023,-0.07084 0.2046,-0.1417 0.3069,-0.21259c0.00246,0.12068 0.00492,0.24138 0.00738,0.36212c-0.1138,-0.0309 -0.17335,-0.17568 -0.31428,-0.14952z" fill="#876600"/><path d="M205.12546,171.45312c-0.07173,-0.08578 -0.11203,-0.19347 -0.11425,-0.30527c-0.00049,-0.58826 -0.00164,-1.17652 -0.00036,-1.76477c0.00542,-0.04371 0.01557,-0.08669 0.03028,-0.1282c0.19791,-0.00615 0.32554,0.09405 0.43419,0.23105c0.10032,0.1541 0.07713,0.3281 0.07882,0.49757c0.00448,0.44931 -0.05384,0.90703 0.18232,1.3244c-0.00138,0.0326 -0.00277,0.06521 -0.00415,0.09781c-0.19489,0.11045 -0.39852,0.10905 -0.60685,0.0474z" fill="#400100"/><path d="M205.21862,172.75014c0.06741,-0.16254 0.24643,-0.0639 0.34721,-0.14824c0.20207,0.1177 0.40417,0.2354 0.6063,0.35307c0.19234,0.13914 0.32454,0.31645 0.35493,0.55839c-0.09424,0.13956 -0.22834,0.05768 -0.38829,0.06273c-0.04397,0.00033 -0.0801,0.08562 -0.15098,0.11131c-0.22384,-0.33777 -0.48157,-0.65182 -0.76917,-0.93725z" fill="#6c0000"/><path d="M206.4979,173.52365c-0.06207,-0.21615 -0.22216,-0.37621 -0.32571,-0.56867c0.11798,0.02554 0.23599,0.05109 0.35404,0.07665c0.29509,0.11521 0.55622,0.30994 0.87391,0.37258c0.12175,0.17355 0.20976,0.36846 0.25943,0.57456c-0.10456,0.09033 -0.17159,-0.00041 -0.23896,-0.05585c-0.09823,-0.09042 -0.20618,-0.16969 -0.32187,-0.23636c-0.15651,0.03229 -0.23581,0.18438 -0.40152,0.2084c-0.05423,0.00223 -0.08601,-0.04888 -0.11854,-0.09949c-0.03723,-0.08751 -0.10738,-0.16544 -0.08078,-0.27184z" fill="#fbae00"/><path d="M207.36873,173.41079c-0.34477,0.01524 -0.59557,-0.17806 -0.84263,-0.37926c0.12182,-0.01885 0.20319,-0.1014 0.28627,-0.18125c0.18798,-0.08606 0.32539,-0.23667 0.47493,-0.37181c0.10002,0.30442 0.15502,0.61276 0.08143,0.93232z" fill="#7e5f00"/><path d="M205.73646,171.3079c-0.20812,-0.19486 -0.27724,-0.43479 -0.26587,-0.71707c0.01482,-0.36771 0.00438,-0.73644 0.00477,-1.10482c0.17955,0.13483 0.28079,0.34974 0.27041,0.57403c-0.00611,0.41591 -0.00651,0.83189 -0.00931,1.24785z" fill="#705000"/><path d="M205.12546,171.45312c0.19845,-0.06497 0.40368,-0.04317 0.60686,-0.0474c0.01746,0.15441 0.01023,0.31061 -0.02143,0.46274c-0.29784,-0.00102 -0.44658,-0.20065 -0.58543,-0.41535z" fill="#830000"/><path d="M218.02791,182.03954c-0.06681,-0.10003 -0.10078,-0.2184 -0.0972,-0.33863c-0.00312,-0.54557 -0.003,-1.09117 -0.00293,-1.63676c0.00001,-0.0681 0.00119,-0.13824 0.07717,-0.18806c0.16429,-0.00673 0.27052,0.10586 0.37959,0.21313c0.07311,0.10329 0.07834,0.22255 0.07921,0.34232c0.00903,0.19585 0.00805,0.39204 -0.00293,0.58779c-0.03137,0.32809 0.06063,0.62146 0.20766,0.90531c0.00602,0.07317 -0.004,0.15496 -0.09183,0.15009c-0.18286,-0.01012 -0.37207,0.06478 -0.54875,-0.03519z" fill="#400000"/><path d="M220.26234,184.50687c0.00821,0.0396 0.01643,0.0792 0.02465,0.1188c-0.12059,0.14316 -0.31604,0.12456 -0.46172,0.21349c-0.20772,-0.26651 -0.4007,-0.54298 -0.65912,-0.76931c-0.19227,-0.17973 -0.42583,-0.30937 -0.68006,-0.37745c-0.02177,-0.10751 0.07087,-0.13541 0.12955,-0.18722c0.05404,-0.04503 0.12188,-0.07017 0.1922,-0.07124c0.22329,0.13049 0.4474,0.25817 0.7226,0.21149c0.2015,0.02694 0.28688,0.19329 0.39749,0.32963c0.13428,0.16291 0.30708,0.30181 0.33442,0.53181z" fill="#7a0100"/><path d="M218.64323,181.93725c-0.20924,-0.22655 -0.27674,-0.49244 -0.26082,-0.79897c0.01811,-0.3488 0.00291,-0.69933 0.00217,-1.04908c0.18781,0.13996 0.2994,0.35966 0.30166,0.59387c0.00614,0.41777 -0.0052,0.8358 -0.00922,1.25372c-0.01126,0.00016 -0.02253,0.00031 -0.03378,0.00047z" fill="#724d00"/><path d="M219.88444,184.00088c-0.11803,-0.11849 -0.23605,-0.23697 -0.35405,-0.35546c0.06769,-0.05413 0.13535,-0.10828 0.20298,-0.16244c0.2099,-0.11235 0.38732,-0.27687 0.51516,-0.47771c0.00491,0.33369 0.00981,0.66752 0.01472,1.00148c-0.129,0.17419 -0.25299,0.02494 -0.37881,-0.00587z" fill="#7b5900"/><path d="M217.85439,183.80316c-0.06847,-0.22771 -0.01299,-0.45921 -0.02915,-0.6809c0.05967,-0.0986 0.14141,-0.182 0.23878,-0.24365c0.05798,0.04709 0.11597,0.09417 0.17396,0.14124c0.13773,0.35771 0.09044,0.51885 -0.22054,0.75308c-0.05041,0.03094 -0.10114,0.06131 -0.16306,0.03022z" fill="#3c0000"/><path d="M217.97066,183.73887c0.08213,-0.07087 0.16426,-0.14173 0.26727,-0.23061c0,-0.15358 0,-0.321 0.00003,-0.4884c0.07985,0.05428 0.15968,0.10856 0.23949,0.16283c0.082,0.10684 0.17126,0.21036 0.1643,0.35799c-0.05185,0.05057 -0.10373,0.10115 -0.15562,0.15172c-0.10294,0.064 -0.20585,0.12799 -0.30872,0.19198c-0.12917,0.03703 -0.17162,-0.04904 -0.20675,-0.1455z" fill="#724800"/><path d="M218.64323,181.93725c0.01125,-0.00135 0.0226,-0.00152 0.03388,-0.00051c0.01327,0.18952 0.02244,0.37848 -0.0608,0.58454c-0.26277,-0.05539 -0.48222,-0.23506 -0.58839,-0.48174c0.18266,0.00568 0.36146,-0.08787 0.54897,-0.01351c0.04331,0.01718 0.06032,-0.04579 0.06634,-0.08879z" fill="#830000"/><path d="M218.64175,183.54066c-0.08324,-0.10407 -0.13963,-0.22701 -0.1642,-0.358c0.12557,0.06332 0.2505,0.12762 0.33025,0.25128c-0.05533,0.03556 -0.11068,0.07113 -0.16605,0.10671z" fill="#f39400"/><path d="M206.4979,173.52365c0.04077,0.09192 0.08154,0.18384 0.1223,0.27575c0.02684,0.04487 0.02722,0.10078 0.00097,0.14601c-0.00368,0.21766 -0.00737,0.43532 -0.01105,0.65298c-0.02729,0.13921 -0.11789,0.24132 -0.2247,0.33754c0.06641,0.23357 0.20408,0.4295 0.22381,0.66196c0.00123,0.38882 0.00247,0.7776 0.0037,1.16633c-0.13975,0.1245 -0.26755,0.26576 -0.45375,0.32585c0.20544,-0.68641 0.01434,-1.29744 -0.38248,-1.89158c0.3564,-0.04375 0.41047,-0.28445 0.42282,-0.56846c0.0146,-0.33598 -0.08423,-0.64131 -0.21171,-0.94267c0.00818,-0.08882 0.0645,-0.16597 0.1466,-0.20083c0.11719,0.01611 0.23419,0.09398 0.36348,0.03711z" fill="#410000"/><path d="M204.75886,175.79152v-0.98732c0.24857,0.23375 0.47718,0.42812 0.56863,0.73405c0.029,0.08824 0.02812,0.18358 -0.00253,0.27127c-0.18491,0.08907 -0.37499,0.10209 -0.5661,-0.018z" fill="#370100"/><path d="M204.76255,173.98181v-0.80772c0.25482,0.1473 0.44239,0.32455 0.51715,0.60192c-0.00295,0.27001 -0.20859,0.35185 -0.51715,0.20581z" fill="#2f0000"/><path d="M204.75886,175.79152c0.17904,0.00754 0.35836,0.02017 0.52408,-0.01527c0.06393,-0.08249 0.02488,-0.16481 0.04454,-0.23806c0.08662,0.20001 0.06432,0.39441 -0.02384,0.60472c-0.22677,-0.06339 -0.41657,-0.15745 -0.54477,-0.3514z" fill="#890100"/><path d="M204.76255,173.98181c0.19068,-0.02262 0.44197,0.1069 0.51713,-0.2058c0.09291,0.16518 -0.00112,0.30727 -0.04632,0.47014c-0.20733,-0.01748 -0.36981,-0.08391 -0.47081,-0.26434z" fill="#8b0000"/><path d="M208.05208,177.80859c-0.00054,0.11869 -0.00108,0.23739 -0.00161,0.35608c-0.12495,0.10118 -0.26643,0.09817 -0.41264,0.06539c-0.06199,-0.0736 -0.09771,-0.16574 -0.10153,-0.26189c-0.04141,-0.35942 -0.01475,-0.72009 -0.01694,-1.08009c-0.0047,-0.77295 -0.00198,-1.54595 -0.00116,-2.3125c0.09248,-0.13787 0.20588,-0.21802 0.36851,-0.21274c0.05073,0.00977 0.09336,0.04398 0.11388,0.0914c0.05244,0.20208 0.0329,0.40599 0.02469,0.61164c-0.03415,0.85551 -0.02225,1.71145 -0.00515,2.56719c-0.00238,0.06015 0.00853,0.12008 0.03197,0.17552z" fill="#3c0000"/><path d="M209.17532,179.21094c-0.09042,0.08028 -0.17757,0.1654 -0.29797,0.20144c0.03188,-0.15416 0.07695,-0.30647 0.06753,-0.46665c0.04216,-0.42773 0.01334,-0.85654 0.01757,-1.2848c0.0056,-0.56654 0.00528,-1.13312 -0.00096,-1.69975c-0.00186,-0.17055 0.04367,-0.30262 0.19782,-0.38679c0.13899,-0.04994 0.22168,0.02069 0.28519,0.13286c0.04369,0.28766 0.08872,0.57574 -0.03917,0.85582c-0.30487,0.30163 -0.19345,0.66363 -0.13732,1.01198c0.02408,0.14941 0.08939,0.29219 0.13596,0.43798c0.06609,0.16535 0.08644,0.34544 0.05891,0.52137c-0.035,0.14121 -0.14057,0.20917 -0.26688,0.25543c-0.05557,0.13799 -0.02345,0.28028 -0.02067,0.42112z" fill="#350000"/><path d="M207.90907,174.39642c-0.14526,0.0178 -0.24489,0.11329 -0.37273,0.2208c0,1.10558 0,2.22826 -0.00002,3.35093c-0.07442,-0.09975 -0.0445,-0.21563 -0.04476,-0.32445c-0.00242,-1.00488 -0.00143,-2.00976 -0.00143,-3.03144c-0.29752,-0.21401 -0.54237,-0.49144 -0.86897,-0.66687c-0.00036,-0.04879 -0.00071,-0.09752 -0.00104,-0.1462c0.08513,0.09513 0.14934,0.01802 0.21338,-0.02874c0.08148,-0.05951 0.15883,-0.12467 0.23641,-0.18617c0.22036,0.10718 0.35117,0.31366 0.56474,0.40328c0.14282,0.10185 0.26285,0.21899 0.27443,0.40885z" fill="#8b0100"/><path d="M209.19515,175.57857c-0.06179,0.08069 -0.12359,0.16139 -0.20575,0.26868c0,0.91498 0.00107,1.85796 -0.00158,2.80093c-0.00028,0.09965 0.03103,0.20722 -0.04295,0.29756c0.00001,-1.03593 0.00001,-2.07187 0.00001,-3.1199c-0.2702,-0.25944 -0.56254,-0.4948 -0.87368,-0.7034c-0.01597,-0.16033 0.14592,-0.15785 0.21754,-0.23839c0.0299,-0.02107 0.06465,-0.03422 0.101,-0.03823c0.28476,0.17149 0.51739,0.40891 0.77413,0.6159c0.03369,0.02867 0.04613,0.07518 0.03128,0.11685z" fill="#850000"/><path d="M208.31521,174.92968c-0.08141,0.06431 -0.16278,0.12859 -0.24412,0.19285c-0.00625,0.8953 -0.01258,1.79065 -0.01899,2.68606c-0.08625,-0.1268 -0.0969,-0.26995 -0.09674,-0.41776c0.00108,-0.97986 0.00103,-1.95972 -0.00015,-2.93958c0.14863,-0.02083 0.18049,0.10208 0.23864,0.19281c0.02777,0.10041 0.08649,0.18798 0.12136,0.28562z" fill="#6a4500"/><path d="M206.60924,175.59789c-0.10573,-0.22728 -0.2116,-0.45486 -0.31761,-0.68275c0.12237,-0.11136 0.24859,-0.187 0.3185,-0.31665c-0.0003,0.33306 -0.00059,0.66619 -0.00089,0.99939z" fill="#674800"/><path d="M207.63783,178.23006c0.12686,-0.08927 0.27392,-0.05115 0.41266,-0.06538c0.02026,0.12316 0.0121,0.23496 -0.12552,0.30149c-0.13416,-0.01457 -0.24692,-0.10729 -0.28714,-0.2361z" fill="#820000"/><path d="M211.76076,181.01572c-0.10384,0.16903 -0.26235,0.29748 -0.44923,0.36406c0.18619,-0.7854 -0.01962,-1.49185 -0.43477,-2.15634c-0.23176,-0.37096 -0.46838,-0.73907 -0.69155,-1.11514c-0.10733,-0.18088 -0.20731,-0.37355 -0.13871,-0.59594c0.32327,-0.03886 0.47803,0.2181 0.55616,0.90654c0.11178,0.09541 0.23416,0.20174 0.3586,0.30559c0.1223,0.10207 0.24668,0.20163 0.39691,0.32412c0.058,-0.59781 -0.14789,-1.07812 -0.41437,-1.5421c0.01478,-0.24163 0.26242,-0.34577 0.51282,-0.21597c0.06045,0.04477 0.1136,0.09864 0.15754,0.15969c0.09523,0.21016 0.22396,0.40865 0.22953,0.65056c-0.18121,0.17641 -0.0559,0.40026 -0.09276,0.59885c0.00502,0.1336 -0.09053,0.20223 -0.17763,0.27625c-0.09245,0.09907 -0.02999,0.19202 0.01646,0.28047c0.08178,0.14889 0.14268,0.30833 0.181,0.47382c-0.00334,0.42852 -0.00669,0.85703 -0.01003,1.28555z" fill="#4f0000"/><path d="M211.41515,177.34407c-0.03157,-0.02731 -0.06314,-0.05461 -0.11132,-0.09628c-0.05449,0.12432 -0.15229,0.12485 -0.24243,0.07305c-0.06516,0.041 -0.10835,0.1092 -0.11756,0.18564c-0.28618,-0.3658 -0.55135,-0.75206 -0.99622,-0.95447c-0.10532,-0.05514 -0.22144,-0.08655 -0.3402,-0.09202c-0.01476,-0.14893 0.11907,-0.18007 0.20014,-0.25346c0.24127,-0.16506 0.48294,-0.14231 0.71965,0.00642c0.35864,0.23356 0.66322,0.54107 0.89331,0.90194c0.03429,0.0772 0.06278,0.15446 -0.00538,0.22918z" fill="#870100"/><path d="M209.19599,178.78982c0.03664,-0.10162 0.14333,-0.13145 0.20878,-0.20354c0.04414,-0.08158 0.12142,-0.14006 0.21192,-0.16037c0.16759,0.29462 0.33519,0.58924 0.50278,0.88385c-0.04172,0.08866 0.00185,0.22601 -0.14537,0.25445c-0.01207,-0.08054 0.00297,-0.16249 -0.0821,-0.22613c-0.23643,-0.17683 -0.46458,-0.36473 -0.696,-0.54826z" fill="#860000"/><path d="M209.97408,179.56421c0.0788,-0.06752 0.01495,-0.21645 0.14539,-0.25447c0.18426,0.229 0.32682,0.48862 0.42116,0.767c-0.01256,0.25942 -0.20871,0.2001 -0.36498,0.21004c-0.1467,-0.21126 -0.21773,-0.46588 -0.20157,-0.72256z" fill="#410000"/><path d="M209.81269,176.27776c-0.0743,0.05414 -0.16246,0.0927 -0.20526,0.18225c-0.06739,0.03437 -0.13477,0.06874 -0.20214,0.10311c-0.00154,-0.29026 -0.0031,-0.58048 -0.00469,-0.87068c0.06905,-0.0523 0.12342,-0.01689 0.17622,0.02901c0.09578,0.17799 0.22658,0.34147 0.23587,0.55632z" fill="#6b4400"/><path d="M210.17565,180.28677c0.09842,-0.11034 0.30507,-0.03279 0.36498,-0.21003c0.08089,0.13944 0.05656,0.27052 -0.02483,0.40054c-0.18375,0.05149 -0.2656,-0.06299 -0.34015,-0.19051z" fill="#820000"/><path d="M209.61668,178.4259c-0.01707,0.12423 -0.14422,0.10301 -0.21194,0.16033c-0.00025,-0.19104 -0.00051,-0.38212 -0.00079,-0.57321c0.08983,0.12703 0.16143,0.266 0.21273,0.41288z" fill="#603b00"/><path d="M219.82526,184.83916c0.088,-0.21363 0.31191,-0.13362 0.46176,-0.21351c0.03186,0.03085 0.06375,0.06169 0.09566,0.09252c0.22039,0.25685 0.38175,0.53949 0.3891,0.88944c-0.01892,0.03258 -0.03782,0.06515 -0.05671,0.09771c-0.16398,0.09709 -0.273,0.26541 -0.29455,0.45476c-0.01814,0.06283 -0.07691,0.1091 -0.07348,0.19408c0.0418,0.10187 0.0545,0.22622 0.10831,0.33789c0.05535,0.35003 0.23686,0.65235 0.36858,0.9735c-0.0784,0.20153 -0.27011,0.27176 -0.43287,0.36094c-0.04128,0.16291 0.01353,0.31948 -0.03425,0.46861c-0.05016,0.08529 -0.1344,0.12132 -0.22156,0.15323c0.1749,-0.73401 0.02986,-1.41217 -0.36118,-2.04586c-0.22979,-0.3724 -0.46207,-0.74327 -0.69683,-1.11259c-0.10015,-0.15032 -0.17172,-0.31782 -0.21112,-0.49409c-0.021,-0.10165 -0.03933,-0.20814 0.08742,-0.26176c0.30691,0.12404 0.39031,0.2874 0.48422,0.95408c0.22908,0.19034 0.46555,0.38682 0.73837,0.6135c0.08354,-0.56478 -0.1314,-1.01412 -0.35088,-1.46243z" fill="#4f0000"/><path d="M217.72139,184.82929c0.01042,-0.14832 -0.05694,-0.25052 -0.16915,-0.34677c-0.28838,-0.24736 -0.6199,-0.44445 -0.86757,-0.73927c0.22967,-0.10823 0.47234,-0.10679 0.7172,-0.08514c0.23418,0.14319 0.4998,0.24838 0.63219,0.51649c0.03724,0.08211 -0.01589,0.16081 -0.00913,0.24178c-0.11862,0.12483 -0.15827,0.30766 -0.30355,0.41291z" fill="#890100"/><path d="M218.79915,186.63481c0.05465,-0.02004 0.10931,-0.04008 0.16397,-0.06014c0.16466,0.2451 0.32842,0.49069 0.41048,0.77926c-0.05893,0.18169 -0.22466,0.1786 -0.36877,0.21293c-0.19524,-0.28276 -0.20918,-0.60549 -0.20569,-0.93206z" fill="#410000"/><path d="M217.72139,184.82929c0.07414,-0.06405 0.02357,-0.16215 0.07567,-0.25625l0.22789,-0.15666c0.02946,0.24237 0.08201,0.48138 0.15696,0.71375c-0.03841,0.15824 -0.17579,0.22196 -0.29192,0.30632c-0.05469,0.03009 -0.10962,0.06005 -0.17111,0.01573c0.00084,-0.20763 0.00168,-0.41526 0.00253,-0.62288z" fill="#460100"/><path d="M217.86449,185.38568c0.10581,-0.08514 0.21161,-0.1703 0.31742,-0.25549c0.08888,0.19048 0.17778,0.38102 0.2667,0.57161c-0.03852,0.03354 -0.07707,0.06707 -0.11566,0.10058c-0.17217,-0.1209 -0.34212,-0.24432 -0.46846,-0.41671z" fill="#855c00"/><path d="M218.03407,184.1746l-0.58207,-0.47938c-0.01198,-0.00789 -0.01854,-0.02182 -0.01701,-0.03608c0.00209,-0.0137 0.00501,-0.02055 0.00877,-0.02055c0.14439,-0.00704 0.20135,0.14502 0.32391,0.17794c0.03519,0.03454 0.06393,0.02829 0.08688,-0.01347c0.03861,-0.02133 0.07732,-0.04273 0.11613,-0.06419c0.06889,0.04857 0.13779,0.0971 0.20671,0.14561c-0.04276,0.09911 -0.06597,0.20797 -0.14333,0.29012z" fill="#f39b00"/><path d="M219.00483,187.56687c0.0847,-0.13709 0.26553,-0.10787 0.36875,-0.21293c0.075,0.12833 0.05851,0.29043 -0.0408,0.40102c-0.17212,0.03989 -0.25182,-0.07099 -0.32794,-0.18809z" fill="#7f0000"/><path d="M220.35682,188.49509v-0.47809c0.14844,-0.1117 0.30775,-0.23158 0.4671,-0.35146c0.18779,0.30933 0.37556,0.61866 0.56332,0.92798c-0.08158,0.03595 -0.10012,0.15285 -0.20469,0.15927c-0.00875,-0.07634 -0.01634,-0.15188 -0.08417,-0.20544c-0.21622,-0.17072 -0.43122,-0.34299 -0.70286,-0.55941c0,0.2123 0,0.36102 -0.00003,0.50978c-0.0129,-0.00098 -0.02578,-0.00186 -0.03866,-0.00264z" fill="#8a0000"/><path d="M221.18254,188.7528c0.02436,-0.05055 0.04873,-0.1011 0.07271,-0.15168c0.04062,-0.05943 0.08712,-0.0183 0.13197,-0.00759c0.14214,0.22966 0.29553,0.45363 0.36394,0.7205c-0.10476,0.17213 -0.23965,0.2272 -0.41943,0.10784c-0.11653,-0.20269 -0.16857,-0.43607 -0.14919,-0.66907z" fill="#410000"/><path d="M221.33173,189.42187c0.16003,0.04266 0.28495,-0.05109 0.41942,-0.10784c0.07177,0.15293 0.07351,0.29143 -0.08479,0.4056c-0.16294,-0.01926 -0.29655,-0.13815 -0.33462,-0.29775z" fill="#7e0000"/><path d="M220.45536,186.69205c-0.07447,-0.12934 -0.14895,-0.25867 -0.21662,-0.3762c0.03311,-0.07729 0.10024,-0.13482 0.18168,-0.15572c0.05996,0.17411 0.02318,0.3546 0.03494,0.53192z" fill="#ea9300"/><path d="M217.40735,185.49213c-0.23732,0.01722 -0.47463,0.03444 -0.71193,0.05165c-0.0457,-0.27046 -0.01293,-0.54188 -0.02126,-0.83749c0.18394,0.07837 0.29282,0.21958 0.42601,0.32755c0.06387,0.17856 0.30102,0.24108 0.30718,0.45828z" fill="#360000"/><path d="M217.44377,183.63859c0.00274,0.01884 0.00549,0.0377 0.00823,0.05658c-0.2561,0.01084 -0.50887,0.07492 -0.76733,0.04809c0,-0.2334 0,-0.4668 0,-0.76053c0.28062,0.24246 0.51986,0.44916 0.75909,0.65587z" fill="#330000"/><path d="M217.86449,185.38568c0.1923,0.09833 0.36447,0.21925 0.46844,0.41674c-0.08541,0.05441 -0.15276,0.1384 -0.28016,0.16525l-0.58553,-0.47574c-0.05965,-0.05991 -0.06666,-0.12133 -0.00525,-0.18468c0.10073,0.02152 0.14358,0.14555 0.25685,0.14489c0.0627,0.00881 0.0981,-0.04211 0.14565,-0.06645z" fill="#faab00"/><path d="M217.462,185.30725c0.00175,0.06158 0.0035,0.12316 0.00525,0.18472c-0.01997,0.00008 -0.03995,0.00016 -0.05991,0.00024c-0.09039,-0.16088 -0.3001,-0.24178 -0.30719,-0.45837c0.12064,0.09115 0.24126,0.18228 0.36186,0.27341z" fill="#634000"/><path d="M221.80447,184.35364v0.71561c-0.09087,0.16787 -0.25684,0.18666 -0.31541,0.31931c-0.03119,0.01139 -0.0908,0.03008 -0.09018,0.00249c0.01022,-0.44844 -0.07766,-0.90038 0.04251,-1.34509c0.12103,0.10255 0.24206,0.20511 0.36308,0.30768z" fill="#480000"/><path d="M220.77178,185.60761c-0.12966,-0.29645 -0.25934,-0.59292 -0.38904,-0.88939c0.31231,0.16579 0.58717,0.39405 0.80751,0.6706c-0.14837,0.05578 -0.2412,0.21795 -0.41847,0.2188z" fill="#f9a600"/><path d="M222.00288,183.17618c-0.18454,0.10399 -0.38083,0.03248 -0.58631,0.0514c-0.0291,-0.18329 -0.07646,-0.35348 0.02232,-0.52139c0.188,0.15666 0.37599,0.31332 0.56398,0.46999z" fill="#310000"/><path d="M219.88444,184.00088c0.1273,-0.07144 0.25096,0.09999 0.37871,0.00578c0.05133,0.16283 0.05103,0.33756 -0.00085,0.50022c-0.12593,-0.16867 -0.25188,-0.33733 -0.37785,-0.50599z" fill="#f29c00"/><path d="M211.7339,178.74522c0.03025,-0.22229 -0.10783,-0.46953 0.0988,-0.66566c0.04831,-0.10183 0.13866,-0.1775 0.24739,-0.2072c0.13535,-0.02055 0.20344,0.09743 0.29803,0.14686c0.07011,0.01845 0.08536,-0.0509 0.13026,-0.06816c0.11233,0.00844 0.05583,0.11786 0.10028,0.16688c0.15361,0.13699 0.30722,0.27397 0.46082,0.41095c-0.1399,0.10402 -0.2798,0.20804 -0.41971,0.31207c-0.27383,-0.21608 -0.54764,-0.43216 -0.88103,-0.69526v0.59906z" fill="#850100"/><path d="M211.77079,179.73017c-0.10255,-0.1956 -0.20048,-0.39383 -0.30962,-0.58569c-0.05438,-0.0956 -0.04127,-0.15778 0.053,-0.20748c0.12565,-0.05298 0.19066,0.02966 0.25495,0.1139c0.02179,0.22587 0.02235,0.45329 0.00166,0.67927z" fill="#f2a400"/><path d="M211.76913,179.05091c-0.08497,-0.03796 -0.16995,-0.07593 -0.25493,-0.1139c0.06774,-0.07018 0.17243,-0.09817 0.21965,-0.19185c0.01157,-0.00175 0.02333,-0.0019 0.03494,-0.00045c0.00009,0.10211 0.00021,0.20418 0.00034,0.3062z" fill="#8d5a00"/><path d="M212.50708,177.96171c-0.00841,0.05883 -0.01682,0.11767 -0.02745,0.1921c-0.16897,-0.02819 -0.22834,-0.21013 -0.37661,-0.25012c-0.21834,-0.11237 -0.38704,-0.28443 -0.55313,-0.45961c-0.04491,-0.03334 -0.08981,-0.06667 -0.13472,-0.10001c-0.01336,-0.06492 -0.02671,-0.12985 -0.04006,-0.19477c-0.07606,-0.74073 -0.0304,-1.48366 -0.02985,-2.22531c0.00022,-0.30072 -0.06666,-0.53681 -0.3346,-0.69226c-0.15006,-0.10848 -0.28947,-0.23049 -0.43395,-0.34666c-0.15321,-0.22958 -0.16534,-0.52551 -0.03143,-0.76686c0.305,0.14278 0.53322,0.38817 0.78917,0.59547c0.64354,0.52124 1.28125,1.04965 1.94669,1.59603c0,0.21591 0,0.44544 0.00009,0.67486c-0.10507,-0.06842 -0.21021,-0.13677 -0.31541,-0.20505c-0.14188,0.02018 -0.21574,-0.12713 -0.34533,-0.14482c-0.07404,0.08293 -0.04281,0.18079 -0.0433,0.26958c-0.00324,0.57184 0.00015,1.1437 -0.00304,1.71554c-0.00065,0.11668 0.02332,0.24142 -0.06707,0.34188z" fill="#fe0003"/><path d="M210.54527,173.11822c0.03509,0.25462 -0.09757,0.53275 0.10715,0.76358c0.10404,0.15989 0.13795,0.35545 0.0938,0.54103c-0.04957,0.22886 -0.00978,0.46109 -0.0335,0.69135c-0.02522,0.24489 -0.15719,0.41155 -0.35544,0.53396c-0.06636,0.04097 -0.14694,0.1109 -0.22081,0.00096c-0.05743,-0.2061 0.01475,-0.40957 0.01207,-0.61519c-0.00806,-0.61917 -0.00469,-1.23853 -0.00157,-1.8578c0.00064,-0.12666 -0.02056,-0.26067 0.07425,-0.36972c0.11817,-0.12772 0.25879,-0.23268 0.41485,-0.30963c0.00494,0.15493 0.00993,0.30984 0.01498,0.46475c-0.03521,0.05227 -0.07048,0.1045 -0.1058,0.15671z" fill="#430000"/><path d="M210.22124,172.80639c0.00043,0.73058 -0.00162,1.46116 0.00275,2.19171c0.00382,0.23196 -0.01695,0.46366 -0.06196,0.69125c-0.01684,0.12439 -0.10401,0.17697 -0.21233,0.2084c-0.15994,0.02525 -0.28384,-0.04717 -0.39749,-0.1472l-0.1516,-0.05811c-0.06353,-0.04687 -0.12239,-0.10213 -0.20545,-0.11381c-0.2705,-0.23515 -0.54099,-0.47027 -0.81148,-0.70535c-0.13483,-0.00887 -0.15227,-0.15222 -0.24285,-0.21178c-0.04899,-0.08143 -0.09315,-0.16711 -0.1856,-0.21024c-0.0154,-0.01827 -0.03079,-0.03655 -0.04616,-0.05481c-0.09141,-0.13633 -0.18286,-0.27263 -0.27434,-0.40891c-0.08864,-0.19215 -0.17727,-0.38437 -0.26589,-0.57664c-0.07441,-0.30664 -0.06922,-0.62014 -0.08155,-0.93225c0.00164,-0.63081 0.00328,-1.26151 0.00492,-1.8921c0.02344,-0.04383 0.04686,-0.08767 0.07668,-0.14349c0.33419,0.27934 0.66156,0.55298 1.00438,0.83955c0,0.74798 -0.0033,1.50253 0.00255,2.25702c0.00131,0.16819 -0.0408,0.34248 0.03993,0.50532c0.09463,0.04991 0.11849,0.15118 0.16986,0.23246c0.07991,0.16418 0.20034,0.27064 0.38394,0.29186c0.09351,-0.11105 0.04188,-0.22905 0.06046,-0.33569c0.00082,-0.05152 0.02248,-0.10051 0.06004,-0.13577c0.00586,-0.72572 0.01175,-1.45147 0.01766,-2.17726c0.4095,0.24718 0.74439,0.58803 1.11356,0.88585z" fill="#fe0003"/><path d="M212.50708,177.96171v-2.53466c0.19859,0.09402 0.31743,0.23886 0.45878,0.35258c-0.00004,0.68083 -0.00005,1.36164 -0.00004,2.04243c-0.11034,0.08635 -0.20968,0.16409 -0.309,0.24182c-0.01604,0.01802 -0.03209,0.03604 -0.04815,0.05408c-0.07287,-0.02673 -0.0438,-0.1197 -0.10159,-0.15624z" fill="#490100"/><path d="M209.09002,174.09779l-0.0037,0.1452c-0.1751,0.13723 -0.37306,0.02495 -0.55833,0.05112c-0.05749,-0.07247 -0.09606,-0.1581 -0.11225,-0.24918c-0.00001,-0.90885 -0.00002,-1.81822 -0.00001,-2.72811c0.13899,-0.11468 0.24161,-0.25583 0.41081,-0.31363c0.00356,0.77942 0.00969,1.5588 0.00945,2.33817c-0.00008,0.28304 0.05423,0.54286 0.25402,0.75643z" fill="#410000"/><path d="M208.14082,174.66149c0.12241,0.02302 0.18085,0.11935 0.24281,0.21173c-0.02274,0.01881 -0.04553,0.03762 -0.06837,0.0564c-0.1351,-0.03937 -0.13517,-0.16648 -0.17444,-0.26813z" fill="#df8a00"/><path d="M211.54988,177.44408c0.21327,0.11846 0.41048,0.25621 0.55304,0.45968c-0.09005,0.05853 -0.18014,0.11712 -0.27027,0.17577c-0.09421,-0.2118 -0.18847,-0.42362 -0.28277,-0.63545z" fill="#f6a100"/><path d="M209.55221,175.75055c0.13774,0.03405 0.27547,0.0681 0.4132,0.10216c0.15933,0.02204 0.27856,0.1294 0.41666,0.19646c0.37087,0.18008 0.53828,0.08525 0.54591,-0.32171c0.00788,-0.42059 -0.00088,-0.8414 0.00392,-1.26205c0.00123,-0.10771 -0.02379,-0.22737 0.08358,-0.30839c0.14855,0.07331 0.25991,0.19227 0.39959,0.31432c-0.0306,0.8869 0.0453,1.78284 -0.04005,2.67789c-0.23343,-0.32998 -0.49112,-0.63713 -0.83194,-0.86353c-0.24077,-0.15994 -0.48458,-0.21594 -0.73035,-0.00796c-0.11048,-0.16302 -0.19814,-0.34039 -0.26053,-0.52717z" fill="#fdb200"/><path d="M211.01549,174.157c-0.00297,0.5307 -0.00088,1.06149 -0.0104,1.59207c-0.00859,0.47899 -0.20839,0.59298 -0.64117,0.37489c-0.14431,-0.07272 -0.29273,-0.14113 -0.39846,-0.27128c0.06555,-0.05444 0.1311,-0.10889 0.19665,-0.16335c0.33194,-0.15731 0.53415,-0.39626 0.49424,-0.78686c-0.03476,-0.34012 0.08437,-0.68082 -0.00401,-1.02068c0.14373,0.06191 0.23933,0.18715 0.36313,0.27521z" fill="#785a00"/><path d="M208.52799,174.29411c0.17596,-0.12793 0.37448,-0.00965 0.55835,-0.05111c-0.00001,0.12556 -0.00001,0.25112 -0.00001,0.40593c-0.28327,0.00379 -0.45669,-0.11586 -0.55833,-0.35482z" fill="#880000"/></g><path d="M202.77058,163.70275l1.15131,-0.55235l22.09583,18.20799l-0.92922,0.69502z" fill="#d3dbe5"/></g></g></g></svg>