<svg xmlns="http://www.w3.org/2000/svg" xmlns:xlink="http://www.w3.org/1999/xlink" version="1.1" width="87.0427714586258" height="67.00037491321564" viewBox="-0.4468865841627121 0.18951338529586792 87.0427714586258 67.00037491321564">
  <!-- Exported by Scratch - http://scratch.mit.edu/ -->
  <path id="ID0.8299277680926025" fill="#FFA533" stroke="none" d="M 43.0745 0.7024 L 86.083 33.6897 L 43.0745 66.677 L 0.066 33.6897 L 43.0745 0.7024 L 43.0745 0.7024 Z M 0.066 0.7024 L 0.066 0.7024 Z M 86.083 66.677 L 86.083 66.677 Z " stroke-width="0.04597659229208968"/>
  <path id="ID0.5525333690457046" fill="#EA9931" stroke="none" d="M 57.7307 38.16 C 59.0744 38.16 60.293 38.5047 61.1752 39.0617 C 62.0574 39.6187 62.6031 40.388 62.6031 41.2374 C 62.6031 42.0867 62.0574 42.856 61.1752 43.413 C 60.293 43.97 59.0744 44.3147 57.7307 44.3147 C 56.3869 44.3147 55.1683 43.97 54.2861 43.413 C 53.404 42.856 52.8582 42.0867 52.8582 41.2374 C 52.8582 40.388 53.404 39.6187 54.2861 39.0617 C 55.1683 38.5047 56.3869 38.16 57.7307 38.16 Z " stroke-width="1.0257731676101685"/>
  <g id="ID0.6998324277810752">
    <g id="ID0.8861678722314537">
      <g id="ID0.7426662109792233">
        <g id="container-id1">
          <g id="id1">
            <g id="ID0.9204198196530342">
              <g id="ID0.29017878975719213">
                <g id="ID0.896405050996691">
                  <g id="id6">
                    <path id="ID0.8145374120213091" fill="none" stroke="none" d="M 58.0086 24.1477 L 59.7592 24.1477 L 59.7592 36.697 L 58.0086 36.697 L 58.0086 24.1477 Z " stroke-width="0.019669875502586365"/>
                    <path id="ID0.11995292780920863" fill="rgb(17,75,4)" stroke="none" d="M 58.1069 24.1673 L 58.1069 24.1673 C 58.9724 24.4427 59.3265 24.9738 59.3265 25.8589 C 59.2871 28.9274 59.2675 31.9959 59.2281 35.0251 C 59.2281 35.2415 59.2281 35.4185 59.4052 35.5168 C 59.4838 35.5562 59.5625 35.6742 59.6412 35.6349 C 59.7395 35.5562 59.7395 35.4382 59.6805 35.3202 C 59.6609 35.5759 59.6609 35.8316 59.6412 36.0873 C 59.2675 36.0873 58.8347 36.0873 58.5003 36.402 C 58.343 36.4807 58.1856 36.5594 58.0283 36.6577 L 58.0283 36.6184 C 58.0676 35.3792 58.0283 34.14 58.0676 32.9204 C 58.0873 32.3107 58.1069 31.6812 58.0873 31.0518 C 58.0283 30.1863 58.0873 29.3208 58.1069 28.4554 C 58.1266 27.6096 58.0283 26.7834 58.402 25.977 C 58.697 25.3475 58.4807 24.7378 58.1069 24.1673 Z " stroke-width="0.019669875502586365"/>
                  </g>
                </g>
                <g id="ID0.7919668043032289">
                  <g id="id7">
                    <path id="ID0.8539097933098674" fill="none" stroke="none" d="M 56.0416 24.305 L 57.3595 24.305 L 57.3595 42.3423 L 56.0416 42.3423 L 56.0416 24.305 Z " stroke-width="0.019669875502586365"/>
                    <path id="ID0.6411475581116974" fill="rgb(58,152,4)" stroke="none" d="M 56.6317 42.303 L 56.6317 42.303 C 56.2973 42.1259 56.0416 41.8899 56.0416 41.4768 C 56.0809 36.225 56.1203 30.9731 56.1596 25.7213 C 56.1596 25.0918 56.4547 24.6197 57.0251 24.3247 C 57.5365 25.1705 57.3988 25.9376 56.8284 26.7047 C 56.7891 26.7834 56.7891 26.8818 56.7891 26.9801 C 56.7694 28.121 56.7104 29.2815 56.7104 30.442 C 56.7104 33.3925 56.7301 36.3823 56.6317 39.3328 C 56.612 40.336 56.6317 41.2998 56.6317 42.303 Z " stroke-width="0.019669875502586365"/>
                  </g>
                </g>
                <g id="ID0.3566599334590137">
                  <g id="id8">
                    <path id="ID0.9113563471473753" fill="none" stroke="none" d="M 60.2903 30.324 L 62.4933 30.324 L 62.4933 39.4115 L 60.2903 39.4115 L 60.2903 30.324 Z " stroke-width="0.019669875502586365"/>
                    <path id="ID0.6175864916294813" fill="rgb(17,75,4)" stroke="none" d="M 61.5098 30.3437 L 61.5098 30.3437 C 62.1196 30.5404 62.454 30.9928 62.454 31.6222 C 62.4343 33.6876 62.3753 35.7726 62.3556 37.8576 C 62.336 38.8607 61.1361 39.6672 60.2903 39.2738 L 60.428 39.2738 C 60.9197 39.2345 61.2541 38.9591 61.2738 38.5067 C 61.2935 38.0739 61.3328 37.6412 61.3328 37.2281 C 61.3328 35.7726 61.4902 34.3367 61.4312 32.9008 C 61.4115 32.5467 61.3721 32.173 61.6475 31.8779 C 61.7459 31.7796 61.7262 31.5829 61.7459 31.4255 C 61.8049 31.0321 61.5295 30.7174 61.5098 30.3437 Z " stroke-width="0.019669875502586365"/>
                  </g>
                </g>
                <g id="ID0.2389600952155888">
                  <g id="id9">
                    <path id="ID0.6105575421825051" fill="none" stroke="none" d="M 57.0054 24.1477 L 58.1266 24.1477 L 58.1266 42.598 L 57.0054 42.598 L 57.0054 24.1477 Z " stroke-width="0.019669875502586365"/>
                    <path id="ID0.7185845822095871" fill="rgb(43,124,1)" stroke="none" d="M 57.5562 42.539 L 57.5562 42.539 C 57.3595 42.5587 57.1628 42.598 57.0251 42.4603 C 57.0251 41.8309 57.1235 41.2014 57.0644 40.5917 C 57.0054 39.9426 57.1235 39.3328 57.0841 38.7034 C 57.0251 37.8379 57.1235 36.9528 57.0841 36.0873 C 57.0841 34.8677 57.0448 33.6679 57.1235 32.4877 C 57.1628 31.7402 57.1235 30.9731 57.1628 30.206 C 57.2021 29.3602 57.1628 28.4947 57.1628 27.6096 C 57.1628 27.2948 57.2021 26.9998 57.3792 26.6654 C 57.7529 25.8786 57.9299 25.0131 57.3202 24.2067 C 57.3595 24.187 57.3792 24.187 57.4185 24.1673 C 57.6349 24.128 57.6939 24.2854 57.7922 24.4427 C 58.1463 24.9935 58.1856 25.5836 57.9693 26.154 C 57.6939 26.8621 57.5759 27.5702 57.6152 28.3177 C 57.6545 28.9865 57.6349 29.6749 57.6349 30.324 C 57.5955 31.3075 57.6349 32.2517 57.5955 33.2155 C 57.5562 34.376 57.5955 35.5365 57.5562 36.697 C 57.5562 36.8347 57.5168 36.9724 57.6349 37.0904 L 57.6349 37.4052 C 57.4578 37.6412 57.5562 37.9166 57.5168 38.1723 C 57.4185 39.0574 57.5562 39.9622 57.4775 40.8671 C 57.4578 41.2408 57.4775 41.6342 57.4382 42.0079 C 57.3988 42.2243 57.4185 42.3816 57.5562 42.539 Z " stroke-width="0.019669875502586365"/>
                  </g>
                </g>
                <g id="ID0.9853858696296811">
                  <g id="id10">
                    <path id="ID0.7485670326277614" fill="none" stroke="none" d="M 56.612 24.187 L 57.7529 24.187 L 57.7529 42.4997 L 56.612 42.4997 L 56.612 24.187 Z " stroke-width="0.019669875502586365"/>
                    <path id="ID0.3129809284582734" fill="rgb(49,137,0)" stroke="none" d="M 57.3202 24.2067 L 57.3202 24.2067 C 57.9299 25.0131 57.7529 25.8786 57.3792 26.6654 C 57.2021 26.9998 57.1628 27.2948 57.1628 27.6096 C 57.1628 28.4947 57.2021 29.3602 57.1628 30.206 C 57.1235 30.9731 57.1628 31.7402 57.1235 32.4877 C 57.0448 33.6679 57.0841 34.8677 57.0841 36.0873 C 57.1235 36.9528 57.0251 37.8379 57.0841 38.7034 C 57.1235 39.3328 57.0054 39.9426 57.0644 40.5917 C 57.1235 41.2014 57.0251 41.8309 57.0251 42.4603 C 56.9464 42.4406 56.8677 42.4013 56.7891 42.362 C 56.7497 42.3423 56.7104 42.3226 56.671 42.3226 L 56.6514 42.3226 L 56.6317 42.303 C 56.6317 41.2998 56.612 40.336 56.6317 39.3328 C 56.7301 36.3823 56.7104 33.3925 56.7104 30.442 C 56.7104 29.2815 56.7694 28.121 56.7891 26.9801 C 56.7891 26.8818 56.7891 26.7834 56.8284 26.7047 C 57.3988 25.9376 57.5365 25.1705 57.0251 24.3247 L 57.3202 24.2067 Z " stroke-width="0.019669875502586365"/>
                  </g>
                </g>
                <g id="ID0.37747830199077725">
                  <g id="id11">
                    <path id="ID0.4121943973004818" fill="none" stroke="none" d="M 57.6152 30.5404 L 60.7624 30.5404 L 60.7624 38.7034 L 57.6152 38.7034 L 57.6152 30.5404 Z " stroke-width="0.019669875502586365"/>
                    <path id="ID0.2017332073301077" fill="rgb(58,152,4)" stroke="none" d="M 57.6349 37.4052 L 57.6349 37.4052 L 57.6349 37.0904 C 57.7726 36.9331 57.8906 36.7954 58.0283 36.6577 C 58.1856 36.5594 58.343 36.4807 58.5003 36.402 C 58.8544 36.4217 59.1101 36.6577 59.3461 36.8151 C 59.4248 36.8544 59.5822 37.0118 59.6215 36.8151 C 59.6609 36.5987 59.8379 36.343 59.6412 36.0873 C 59.6609 35.8316 59.6609 35.5759 59.6805 35.3202 C 59.7592 34.1203 59.7199 32.8811 59.7395 31.6616 C 59.7395 31.2091 59.8969 30.8354 60.2903 30.56 C 60.7427 30.8157 60.8607 31.4255 60.5854 31.9566 C 60.428 32.173 60.2706 32.409 60.2706 32.7237 C 60.251 33.4515 60.2706 34.2186 60.2116 34.9464 C 60.1133 35.9889 60.1329 37.0118 60.1133 38.0346 C 60.1133 38.1526 60.1133 38.2706 60.0543 38.3887 C 59.9166 38.6837 59.6412 38.7624 59.3658 38.5854 C 59.1101 38.3887 58.8347 38.1526 58.52 37.9559 C 58.3233 37.8182 58.1463 37.6215 57.8709 37.6412 L 57.6349 37.4052 Z " stroke-width="0.019669875502586365"/>
                  </g>
                </g>
                <g id="ID0.08049388416111469">
                  <g id="id12">
                    <path id="ID0.9891948499716818" fill="none" stroke="none" d="M 57.3988 24.128 L 58.5594 24.128 L 58.5594 37.1298 L 57.3988 37.1298 L 57.3988 24.128 Z " stroke-width="0.019669875502586365"/>
                    <path id="ID0.8456581584177911" fill="rgb(27,92,0)" stroke="none" d="M 58.0283 36.6577 L 58.0283 36.6577 C 57.8906 36.7954 57.7726 36.9331 57.6349 37.0904 C 57.5168 36.9724 57.5562 36.8347 57.5562 36.697 C 57.5955 35.5365 57.5562 34.376 57.5955 33.2155 C 57.6349 32.2517 57.5955 31.3075 57.6349 30.324 C 57.6349 29.6749 57.6545 28.9865 57.6152 28.3177 C 57.5759 27.5702 57.6939 26.8621 57.9693 26.154 C 58.1856 25.5836 58.1463 24.9935 57.7922 24.4427 C 57.6939 24.2854 57.6349 24.128 57.4185 24.1673 C 57.6545 24.1083 57.8709 24.128 58.1069 24.1673 C 58.4807 24.7378 58.697 25.3475 58.402 25.977 C 58.0283 26.7834 58.1266 27.6096 58.1069 28.4554 C 58.0873 29.3208 58.0283 30.1863 58.0873 31.0518 C 58.1069 31.6812 58.0873 32.3107 58.0676 32.9204 C 58.0283 34.14 58.0676 35.3792 58.0283 36.6184 L 58.0283 36.6577 Z " stroke-width="0.019669875502586365"/>
                  </g>
                </g>
                <g id="ID0.2194098443724215">
                  <g id="id13">
                    <path id="ID0.12132740905508399" fill="none" stroke="none" d="M 57.9299 37.9362 L 59.1691 37.9362 L 59.1691 42.5193 L 57.9299 42.5193 L 57.9299 37.9362 Z " stroke-width="0.019669875502586365"/>
                    <path id="ID0.22044118493795395" fill="rgb(17,75,4)" stroke="none" d="M 59.1494 41.6735 L 59.1494 41.6735 C 58.9724 42.1653 58.5987 42.3816 58.1266 42.48 C 57.8906 42.4406 57.9496 42.2636 57.9496 42.1063 C 57.9496 41.3981 57.9693 40.7097 58.0086 40.0016 C 58.0676 39.3131 57.9496 38.6247 58.0283 37.9362 C 58.343 38.0543 58.5594 38.3296 58.8347 38.4673 C 59.0708 38.5854 59.1494 38.7624 59.1298 38.9984 C 59.1298 39.8836 59.1298 40.7884 59.1494 41.6735 Z " stroke-width="0.019669875502586365"/>
                  </g>
                </g>
                <g id="ID0.9238214329816401">
                  <g id="id14">
                    <path id="ID0.4261969975195825" fill="none" stroke="none" d="M 57.8512 30.3043 L 61.1164 30.3043 L 61.1164 41.7129 L 57.8512 41.7129 L 57.8512 30.3043 Z " stroke-width="0.019669875502586365"/>
                    <path id="ID0.4142678580246866" fill="rgb(49,137,0)" stroke="none" d="M 59.1494 41.6735 L 59.1494 41.6735 C 59.1298 40.7884 59.1298 39.8836 59.1298 38.9984 C 59.1494 38.7624 59.0708 38.5854 58.8347 38.4673 C 58.5594 38.3296 58.343 38.0543 58.0283 37.9362 C 57.9693 37.8379 57.9299 37.7395 57.8709 37.6412 C 58.1463 37.6215 58.3233 37.8182 58.52 37.9559 C 58.8347 38.1526 59.1101 38.3887 59.3658 38.5854 C 59.6412 38.7624 59.9166 38.6837 60.0543 38.3887 C 60.1133 38.2706 60.1133 38.1526 60.1133 38.0346 C 60.1329 37.0118 60.1133 35.9889 60.2116 34.9464 C 60.2706 34.2186 60.251 33.4515 60.2706 32.7237 C 60.2706 32.409 60.428 32.173 60.5854 31.9566 C 60.8607 31.4255 60.7427 30.8157 60.2903 30.56 C 60.3887 30.4027 60.5657 30.3437 60.7427 30.324 C 61.1754 30.8354 61.1361 31.3862 60.9394 31.9763 C 60.8214 32.3303 60.664 32.6844 60.664 33.0778 C 60.664 34.14 60.664 35.1825 60.5854 36.2643 C 60.546 36.9528 60.546 37.6609 60.5067 38.369 C 60.487 38.6837 60.369 38.9591 59.9756 38.9984 C 59.8969 38.9984 59.8969 39.0378 59.8772 39.1164 C 59.6019 39.1164 59.4838 38.8607 59.2281 38.782 C 59.1888 39.7459 59.1691 40.7294 59.1494 41.6735 Z " stroke-width="0.019669875502586365"/>
                  </g>
                </g>
                <g id="ID0.9313868121244013">
                  <g id="id15">
                    <path id="ID0.45022565964609385" fill="none" stroke="none" d="M 60.428 30.3043 L 61.7852 30.3043 L 61.7852 39.3131 L 60.428 39.3131 L 60.428 30.3043 Z " stroke-width="0.019669875502586365"/>
                    <path id="ID0.09508206695318222" fill="rgb(27,92,0)" stroke="none" d="M 61.5098 30.3437 L 61.5098 30.3437 C 61.5295 30.7174 61.8049 31.0321 61.7459 31.4255 C 61.7262 31.5829 61.7459 31.7796 61.6475 31.8779 C 61.3721 32.173 61.4115 32.5467 61.4312 32.9008 C 61.4902 34.3367 61.3328 35.7726 61.3328 37.2281 C 61.3328 37.6412 61.2935 38.0739 61.2738 38.5067 C 61.2541 38.9591 60.9197 39.2345 60.428 39.2738 C 60.5067 38.9591 60.8607 38.782 60.8411 38.3887 C 60.8017 37.8576 60.8804 37.3265 60.9001 36.7954 C 60.9197 35.4775 61.0181 34.1793 60.9787 32.8811 C 60.9787 32.7631 60.9787 32.645 61.0378 32.527 C 61.3328 31.8779 61.4902 31.1698 61.0968 30.4617 C 61.0378 30.3633 61.1361 30.3437 61.2148 30.324 L 61.4508 30.324 L 61.4705 30.324 L 61.4902 30.324 L 61.5098 30.3437 Z " stroke-width="0.019669875502586365"/>
                  </g>
                </g>
                <g id="ID0.27722778217867017">
                  <g id="id16">
                    <path id="ID0.9330933527089655" fill="none" stroke="none" d="M 59.8772 30.2257 L 61.3721 30.2257 L 61.3721 39.3131 L 59.8772 39.3131 L 59.8772 30.2257 Z " stroke-width="0.019669875502586365"/>
                    <path id="ID0.6953630242496729" fill="rgb(43,124,1)" stroke="none" d="M 61.2148 30.324 L 61.2148 30.324 C 61.1361 30.3437 61.0378 30.3633 61.0968 30.4617 C 61.4902 31.1698 61.3328 31.8779 61.0378 32.527 C 60.9787 32.645 60.9787 32.7631 60.9787 32.8811 C 61.0181 34.1793 60.9197 35.4775 60.9001 36.7954 C 60.8804 37.3265 60.8017 37.8576 60.8411 38.3887 C 60.8607 38.782 60.5067 38.9591 60.428 39.2738 L 60.2903 39.2738 C 60.1526 39.2541 59.9953 39.1951 59.8772 39.1164 C 59.8969 39.0378 59.8969 38.9984 59.9756 38.9984 C 60.369 38.9591 60.487 38.6837 60.5067 38.369 C 60.546 37.6609 60.546 36.9528 60.5854 36.2643 C 60.664 35.1825 60.664 34.14 60.664 33.0778 C 60.664 32.6844 60.8214 32.3303 60.9394 31.9763 C 61.1361 31.3862 61.1754 30.8354 60.7427 30.324 C 60.9001 30.2257 61.0574 30.1863 61.2148 30.324 Z " stroke-width="0.019669875502586365"/>
                  </g>
                </g>
                <g id="ID0.32493132585659623">
                  <g id="id17">
                    <path id="ID0.19111468084156513" fill="none" stroke="none" d="M 57.3988 37.4052 L 58.1463 37.4052 L 58.1463 42.598 L 57.3988 42.598 L 57.3988 37.4052 Z " stroke-width="0.019669875502586365"/>
                    <path id="ID0.5692764059640467" fill="rgb(27,92,0)" stroke="none" d="M 57.8709 37.6412 L 57.8709 37.6412 C 57.9299 37.7395 57.9693 37.8379 58.0283 37.9362 C 57.9496 38.6247 58.0676 39.3131 58.0086 40.0016 C 57.9693 40.7097 57.9496 41.3981 57.9496 42.1063 C 57.9496 42.2636 57.8906 42.4406 58.1266 42.48 C 57.9496 42.6177 57.7529 42.539 57.5562 42.539 C 57.4185 42.3816 57.3988 42.2243 57.4382 42.0079 C 57.4775 41.6342 57.4578 41.2408 57.4775 40.8671 C 57.5562 39.9622 57.4185 39.0574 57.5168 38.1723 C 57.5562 37.9166 57.4578 37.6412 57.6349 37.4052 L 57.8709 37.6412 Z " stroke-width="0.019669875502586365"/>
                  </g>
                </g>
                <g id="ID0.7377631613053381">
                  <g id="id18">
                    <path id="ID0.6317945476621389" fill="none" stroke="none" d="M 56.6514 42.3226 L 56.8087 42.3226 L 56.8087 42.4013 L 56.6514 42.4013 L 56.6514 42.3226 Z " stroke-width="0.019669875502586365"/>
                    <path id="ID0.4196614408865571" fill="rgb(58,152,4)" stroke="none" d="M 56.671 42.3226 L 56.671 42.3226 C 56.7104 42.3226 56.7497 42.3423 56.7891 42.362 C 56.7497 42.3423 56.7104 42.3226 56.671 42.3226 Z " stroke-width="0.019669875502586365"/>
                  </g>
                </g>
                <g id="ID0.8111468208953738">
                  <g id="id19">
                    <path id="ID0.022609313018620014" fill="none" stroke="none" d="M 61.4508 30.2847 L 61.5295 30.2847 L 61.5295 30.3437 L 61.4508 30.3437 L 61.4508 30.2847 Z " stroke-width="0.019669875502586365"/>
                    <path id="ID0.540135947521776" fill="rgb(17,75,4)" stroke="none" d="M 61.4902 30.324 L 61.4902 30.324 L 61.4705 30.324 L 61.4508 30.324 L 61.4705 30.3043 L 61.4902 30.324 Z " stroke-width="0.019669875502586365"/>
                  </g>
                </g>
                <g id="ID0.3964701765216887">
                  <g id="id20">
                    <path id="ID0.5675387680530548" fill="none" stroke="none" d="M 58.4807 36.0873 L 59.7789 36.0873 L 59.7789 36.9528 L 58.4807 36.9528 L 58.4807 36.0873 Z " stroke-width="0.019669875502586365"/>
                    <path id="ID0.7947640842758119" fill="rgb(49,137,0)" stroke="none" d="M 59.6412 36.0873 L 59.6412 36.0873 C 59.8379 36.343 59.6609 36.5987 59.6215 36.8151 C 59.5822 37.0118 59.4248 36.8544 59.3461 36.8151 C 59.1101 36.6577 58.8544 36.4217 58.5003 36.402 C 58.8347 36.0873 59.2675 36.0873 59.6412 36.0873 Z " stroke-width="0.019669875502586365"/>
                  </g>
                </g>
              </g>
            </g>
          </g>
        </g>
      </g>
    </g>
  </g>
<defs/></svg>