<svg xmlns="http://www.w3.org/2000/svg" xmlns:xlink="http://www.w3.org/1999/xlink" version="1.1" width="63.65550231933594" height="71.48979949951172" viewBox="0.4279000163078308 0.37425291538238525 63.65550231933594 71.48979949951172">
  <!-- Exported by Scratch - http://scratch.mit.edu/ -->
  <g id="ID0.1487578609958291">
    <path id="ID0.1478725215420127" fill="rgb(181,175,173)" stroke="none" d="M 1.1873 19.1511 L 1.1873 19.1511 C 10.3976 13.0542 19.7375 7.087 28.9477 1.1199 C 29.4666 0.7307 29.7261 0.8604 30.1152 1.1199 C 37.3796 6.6979 44.6441 12.4056 51.9085 17.9837 C 55.5407 20.8375 59.1729 23.5617 62.6753 26.4156 C 63.0645 26.675 63.324 26.8047 63.5834 27.1939 C 63.324 27.583 63.0645 27.7128 62.6753 27.8425 C 60.5998 29.2694 58.3945 30.8261 56.1893 32.253 C 55.8001 32.6422 55.6704 32.7719 56.1893 33.1611 C 56.9676 33.68 57.6162 34.3286 58.3945 34.8475 C 58.9134 35.3663 58.9134 35.7555 58.3945 36.1447 C 54.7623 38.6094 51.2598 40.9444 47.7574 43.2794 C 47.4979 43.4091 47.3682 43.5388 47.2385 43.5388 C 46.071 43.1496 45.4224 42.3713 44.6441 41.7227 C 44.2549 41.4633 43.8657 41.0741 43.4766 40.9444 C 43.2171 40.9444 42.9577 41.2038 42.8279 41.3335 C 41.0118 42.501 39.066 43.7982 37.2499 45.0955 C 34.9149 46.6521 35.1744 45.8738 35.1744 48.8574 C 35.1744 50.8032 35.1744 52.6193 35.1744 54.5651 C 35.1744 54.9543 35.3041 55.3435 34.9149 55.6029 C 34.396 55.3435 34.5258 54.9543 34.5258 54.5651 C 34.5258 52.1004 34.5258 49.8952 34.6555 47.5602 C 34.6555 46.6521 34.2663 46.1332 33.7474 45.6143 C 31.9313 44.1874 30.245 42.7605 28.2991 41.4633 C 26.483 40.0363 24.6669 38.3499 22.7211 36.923 C 19.6078 34.3286 16.4945 31.8639 13.3812 29.3991 C 9.4895 26.2858 5.5979 23.1725 1.7062 20.0592 C 1.3171 19.7998 0.9279 19.5403 1.1873 19.1511 Z " stroke-width="0.129721537232399"/>
    <path id="ID0.9718391029164195" fill="rgb(254,231,177)" stroke="none" d="M 1.1873 19.1511 L 1.1873 19.1511 C 1.5765 19.9295 2.4846 20.3186 3.2629 20.9672 C 7.9329 24.8589 12.7326 28.6208 17.4025 32.3827 C 18.9592 33.68 20.5158 34.8475 22.0725 36.1447 C 22.3319 36.2744 22.5914 36.6636 22.8508 36.7933 C 23.24 37.831 22.9806 38.8688 22.9806 39.7769 C 22.9806 40.6849 23.1103 41.593 22.9806 42.501 C 22.9806 43.4091 22.9806 44.4468 23.1103 45.3549 C 22.9806 46.3927 22.9806 47.3007 23.1103 48.2088 C 23.24 49.1168 23.24 50.0249 23.24 50.9329 C 23.24 51.841 23.24 52.6193 23.24 53.5274 C 23.24 53.6571 23.24 53.6571 23.24 53.7868 C 23.24 54.6948 23.24 55.6029 23.24 56.3812 C 23.24 57.2893 23.24 58.0676 23.24 58.9757 C 23.24 58.9757 23.24 59.1054 23.24 59.2351 C 23.1103 60.0134 23.4994 60.9215 22.9806 61.8295 C 21.0347 60.2729 19.0889 58.7162 17.1431 57.1596 C 14.8081 55.3435 12.6028 53.3976 10.3976 51.5815 C 7.414 49.2465 4.6898 46.9116 1.8359 44.5766 C 1.4468 44.4468 1.4468 44.1874 1.4468 43.6685 C 1.3171 40.5552 1.4468 37.3122 1.3171 34.0691 C 1.1873 31.2152 1.3171 28.3614 1.1873 25.6372 C 0.9279 23.6914 1.0576 21.7456 0.9279 19.7998 C 0.9279 19.5403 0.9279 19.4106 1.1873 19.1511 Z " stroke-width="0.129721537232399"/>
    <path id="ID0.739715117495507" fill="rgb(104,112,106)" stroke="none" d="M 47.1088 43.4091 L 47.1088 43.4091 C 50.4815 41.2038 53.5948 38.9985 56.9676 36.923 C 57.227 36.6636 57.6162 36.4041 58.0054 36.1447 C 58.9134 35.6258 58.9134 35.6258 58.1351 34.8475 C 57.227 34.1988 56.319 33.4205 55.2812 32.7719 C 58.0054 30.8261 60.8592 29.01 63.5834 27.1939 C 63.4537 31.0855 63.324 35.1069 63.1942 38.9985 C 63.0645 43.1496 62.9348 47.3007 62.8051 51.4518 C 62.8051 51.9707 62.6753 52.2301 62.2862 52.6193 C 61.3781 53.0085 60.5998 53.6571 59.9512 54.176 C 59.6917 54.3057 59.4323 54.3057 59.4323 54.6948 C 59.0431 54.8246 58.9134 54.5651 58.7837 54.3057 C 58.654 54.3057 58.654 54.176 58.5243 54.3057 C 58.5243 54.3057 58.5243 54.3057 58.5243 54.4354 C 58.5243 55.6029 58.654 56.7704 58.5243 57.9379 C 58.1351 58.4568 58.2648 59.2351 58.2648 59.754 C 58.2648 60.4026 58.0054 60.7918 57.4865 61.0512 C 54.1137 63.3862 50.741 65.7212 47.3682 68.0562 C 46.8493 68.4453 46.4602 68.4453 45.9413 67.9264 C 45.6818 67.667 45.4224 67.4076 44.9035 67.2778 C 45.4224 66.3698 45.5521 65.5915 45.1629 64.6834 C 44.9035 63.9051 45.2927 62.8673 44.6441 62.089 C 45.4224 61.1809 45.5521 60.2729 45.1629 59.2351 C 44.9035 58.4568 45.1629 57.5487 44.9035 56.6407 C 45.2927 56.1218 45.6818 55.4732 45.5521 54.5651 C 45.5521 54.3057 45.4224 54.0462 45.2927 53.6571 C 45.1629 52.8787 45.4224 51.9707 44.9035 51.1924 C 45.2927 50.5438 45.8115 49.8952 45.5521 48.9871 C 45.5521 48.7277 45.5521 48.5979 45.4224 48.4682 C 45.4224 48.3385 45.2927 48.3385 45.2927 48.2088 C 45.1629 47.4304 45.1629 46.7818 45.4224 46.1332 C 45.5521 45.6143 45.8115 46.1332 45.8115 46.2629 C 46.071 46.7818 46.3304 47.5602 46.3304 48.2088 C 46.3304 48.4682 46.3304 48.7277 46.5899 49.1168 C 46.7196 48.3385 46.979 47.6899 46.8493 46.9116 C 46.8493 46.1332 46.8493 45.2252 46.8493 44.4468 C 46.8493 44.0577 46.8493 43.6685 47.1088 43.4091 Z " stroke-width="0.129721537232399"/>
    <path id="ID0.27522282022982836" fill="rgb(254,231,177)" stroke="none" d="M 28.2991 41.2038 L 28.2991 41.2038 C 30.5044 42.7605 32.4502 44.4468 34.5258 46.1332 C 34.9149 46.3927 34.7852 46.6521 34.7852 47.0413 C 34.7852 49.8952 34.7852 52.749 34.7852 55.6029 C 35.1744 55.8623 35.0447 56.2515 35.0447 56.7704 C 35.0447 61.1809 35.0447 65.7212 35.0447 70.1317 C 35.0447 70.5209 35.0447 70.91 34.9149 71.1695 C 34.7852 71.4289 34.6555 71.4289 34.396 71.1695 C 32.3205 69.4831 30.1152 67.667 28.0397 65.9806 C 27.91 65.0726 27.91 64.0348 27.91 63.1267 C 27.91 62.3484 27.91 61.6998 27.91 60.9215 C 27.91 59.3648 28.1694 57.8082 28.1694 56.2515 C 28.1694 55.9921 28.1694 55.6029 28.0397 55.2137 C 27.91 54.3057 27.91 53.3976 28.1694 52.3599 C 28.1694 51.4518 28.1694 50.5438 28.0397 49.7654 C 27.91 49.3763 27.91 48.9871 27.91 48.7277 C 28.2991 46.5224 28.1694 44.4468 28.1694 42.2416 C 28.1694 41.9821 28.0397 41.4633 28.2991 41.2038 Z " stroke-width="0.129721537232399"/>
    <path id="ID0.9707405678927898" fill="rgb(105,111,104)" stroke="none" d="M 34.9149 71.1695 L 34.9149 71.1695 C 34.6555 70.91 34.7852 70.6506 34.7852 70.2614 C 34.7852 65.332 34.7852 60.4026 34.7852 55.6029 C 35.0447 55.3435 34.9149 54.9543 34.9149 54.6948 C 34.9149 52.1004 34.9149 49.6357 34.9149 47.171 C 34.9149 46.5224 35.1744 46.1332 35.6933 45.8738 C 36.2122 45.4846 36.8608 45.0955 37.3796 44.7063 C 37.8985 44.5766 38.0283 44.9657 38.2877 45.3549 C 38.9363 46.5224 39.3255 46.5224 40.3632 46.0035 C 41.5307 45.3549 42.3091 44.4468 42.9577 43.2794 C 42.9577 43.0199 43.0874 42.7605 43.3468 42.7605 C 43.736 42.6307 43.8657 43.0199 43.9954 43.2794 C 44.3846 43.6685 44.6441 44.1874 44.9035 44.5766 C 45.1629 44.836 45.4224 45.0955 45.1629 45.6143 C 44.7738 45.8738 44.6441 45.4846 44.3846 45.3549 C 43.9954 45.0955 43.8657 44.836 43.4766 44.7063 C 43.3468 44.5766 43.2171 44.7063 43.0874 44.836 C 42.4388 46.1332 41.2713 47.171 40.7524 48.4682 C 40.6227 48.7277 40.493 48.8574 40.493 48.9871 C 39.7146 49.8952 39.3255 50.8032 40.1038 51.9707 C 40.6227 52.749 40.3632 53.6571 39.9741 54.5651 C 39.5849 55.6029 39.3255 56.2515 39.9741 57.2893 C 40.6227 58.1973 40.1038 59.2351 39.8444 60.1432 C 39.7146 60.4026 39.5849 60.662 39.4552 60.9215 C 39.3255 61.4404 39.3255 61.8295 39.5849 62.2187 C 40.6227 63.3862 40.2335 64.424 39.7146 65.5915 C 39.3255 66.2401 39.3255 67.0184 39.7146 67.667 C 38.4174 68.9642 36.8608 69.7425 35.4338 70.7803 C 35.3041 70.91 35.1744 71.0398 34.9149 71.1695 Z " stroke-width="0.129721537232399"/>
    <path id="ID0.6977176982909441" fill="rgb(95,92,86)" stroke="none" d="M 39.7146 67.667 L 39.7146 67.667 C 39.1957 67.2778 39.066 66.7589 39.3255 65.9806 C 39.5849 65.4617 39.8444 64.9428 39.9741 64.2942 C 40.1038 63.6456 40.1038 63.1267 39.5849 62.6079 C 39.066 62.089 38.8066 61.4404 39.3255 60.7918 C 39.7146 60.1432 39.9741 59.3648 39.9741 58.4568 C 39.9741 58.0676 40.1038 57.6784 39.7146 57.2893 C 39.066 56.5109 39.066 55.7326 39.5849 54.8246 C 40.2335 53.6571 40.3632 52.6193 39.5849 51.4518 C 39.066 50.8032 39.5849 49.6357 40.3632 48.7277 C 40.493 48.8574 40.493 48.8574 40.493 48.9871 C 40.7524 49.7654 41.5307 51.0626 41.9199 51.5815 C 41.9199 52.4896 41.2713 53.0085 40.8821 53.7868 C 40.7524 53.9165 40.7524 53.9165 40.7524 54.0462 C 40.3632 55.2137 40.6227 56.2515 41.6605 56.7704 C 42.1793 57.0298 42.5685 57.2893 42.6982 57.9379 C 42.4388 58.4568 41.7902 58.7162 41.401 58.9757 C 41.1416 59.2351 40.7524 59.4945 40.493 59.754 C 40.2335 60.5323 40.2335 61.4404 41.2713 61.9593 C 41.5307 62.089 41.6605 62.3484 41.7902 62.6079 C 41.6605 63.3862 41.1416 63.9051 40.8821 64.5537 C 40.7524 64.8131 40.6227 64.9428 40.493 65.0726 C 40.2335 65.7212 40.493 66.4995 40.493 67.2778 C 40.2335 67.4076 39.9741 67.5373 39.7146 67.667 Z " stroke-width="0.129721537232399"/>
    <path id="ID0.22894259775057435" fill="rgb(245,178,68)" stroke="none" d="M 28.1694 63.2565 L 28.1694 63.2565 C 28.1694 64.0348 28.4289 65.0726 28.0397 65.9806 C 26.3533 64.5537 24.6669 63.1267 22.9806 61.8295 C 22.9806 60.9215 22.9806 60.0134 22.9806 59.1054 C 23.24 58.9757 23.4994 59.2351 23.6292 59.2351 C 25.0561 60.5323 26.6128 61.6998 27.91 62.8673 C 28.1694 62.997 28.1694 63.1267 28.1694 63.2565 Z " stroke-width="0.129721537232399"/>
    <path id="ID0.30082809505984187" fill="rgb(98,84,36)" stroke="none" d="M 40.493 67.2778 L 40.493 67.2778 C 39.9741 66.4995 40.1038 65.7212 40.3632 64.8131 C 41.0118 65.0726 41.401 65.5915 41.7902 65.9806 C 42.6982 66.6292 42.6982 66.6292 43.6063 65.9806 C 43.736 65.8509 43.8657 65.7212 43.9954 65.5915 C 44.5143 65.4617 44.9035 65.0726 45.1629 64.8131 C 45.1629 64.8131 45.2927 64.6834 45.2927 64.6834 C 45.8115 65.5915 45.8115 66.6292 44.9035 67.2778 C 44.1252 67.667 43.4766 68.5751 42.6982 68.7048 C 41.9199 68.7048 41.401 67.667 40.493 67.2778 Z " stroke-width="0.129721537232399"/>
    <path id="ID0.0788394445553422" fill="rgb(98,86,42)" stroke="none" d="M 58.5243 57.9379 L 58.5243 57.9379 C 58.1351 56.7704 58.2648 55.4732 58.5243 54.176 C 58.9134 54.5651 58.5243 55.084 58.7837 55.6029 C 59.1729 55.4732 59.4323 55.084 59.8215 54.9543 C 60.3404 56.3812 60.0809 57.0298 58.5243 57.9379 Z " stroke-width="0.129721537232399"/>
    <path id="ID0.2191195166669786" fill="rgb(75,49,13)" stroke="none" d="M 59.8215 54.9543 L 59.8215 54.9543 C 59.562 55.4732 59.0431 55.7326 58.5243 56.1218 C 58.5243 55.3435 58.5243 54.8246 58.5243 54.176 C 58.5243 54.0462 58.5243 53.9165 58.7837 54.176 C 59.0431 54.3057 59.1729 54.5651 59.4323 54.6948 C 59.6917 54.8246 59.6917 54.8246 59.8215 54.9543 Z " stroke-width="0.129721537232399"/>
    <path id="ID0.16368524823337793" fill="rgb(118,118,102)" stroke="none" d="M 45.1629 45.6143 L 45.1629 45.6143 C 45.2927 44.836 44.5143 44.4468 44.2549 43.928 C 43.9954 43.5388 43.8657 42.8902 43.4766 42.8902 C 43.0874 42.8902 42.9577 43.6685 42.8279 44.0577 C 42.0496 45.2252 41.0118 46.1332 39.7146 46.5224 C 39.1957 46.7818 38.5471 46.3927 38.2877 45.6143 C 38.0283 45.0955 37.7688 44.836 37.3796 44.7063 C 39.3255 43.4091 41.1416 42.2416 42.9577 40.9444 C 43.2171 40.8146 43.3468 40.6849 43.6063 40.8146 C 43.9954 41.0741 44.1252 41.4633 44.3846 41.8524 C 45.0332 43.2794 45.8115 44.836 46.4602 46.2629 C 46.5899 46.5224 46.8493 46.9116 47.1088 47.0413 C 47.2385 47.9493 46.5899 48.7277 46.8493 49.7654 C 46.3304 49.2465 45.9413 48.9871 46.071 48.3385 C 46.2007 47.5602 45.8115 46.6521 45.4224 45.8738 C 45.1629 46.0035 45.1629 45.8738 45.1629 45.6143 Z " stroke-width="0.129721537232399"/>
    <path id="ID0.6698097954504192" fill="rgb(246,179,68)" stroke="none" d="M 28.2991 41.2038 L 28.2991 41.2038 C 28.2991 43.6685 28.5586 46.2629 28.1694 48.7277 C 27.3911 49.1168 27.1316 48.8574 27.1316 48.079 C 27.1316 47.5602 27.5208 47.171 27.91 46.7818 C 28.1694 45.3549 28.0397 44.0577 26.6128 43.1496 C 25.9641 42.7605 25.1858 42.1119 24.6669 41.593 C 24.0183 40.9444 23.24 40.6849 22.8508 39.9066 C 22.8508 38.8688 22.8508 37.831 22.8508 36.7933 C 24.2778 37.5716 25.4453 38.8688 26.7425 39.7769 C 27.2614 40.2958 27.91 40.6849 28.2991 41.2038 Z " stroke-width="0.129721537232399"/>
    <path id="ID0.7911677793599665" fill="rgb(250,225,171)" stroke="none" d="M 47.1088 47.0413 L 47.1088 47.0413 C 46.5899 47.5602 46.5899 46.9116 46.5899 46.7818 C 45.5521 44.836 44.6441 42.8902 43.6063 40.8146 C 44.3846 41.0741 44.9035 41.7227 45.4224 42.2416 C 46.071 42.6307 46.5899 43.0199 47.1088 43.4091 C 47.1088 44.5766 47.1088 45.8738 47.1088 47.0413 Z " stroke-width="0.129721537232399"/>
    <path id="ID0.04713926604017615" fill="rgb(246,179,68)" stroke="none" d="M 28.2991 49.6357 L 28.2991 49.6357 C 28.5586 50.414 28.4289 51.4518 28.2991 52.2301 C 28.1694 53.1382 28.2991 54.176 28.1694 55.2137 C 28.1694 55.2137 28.1694 55.3435 28.1694 55.3435 C 27.7803 55.3435 27.5208 55.084 27.3911 54.8246 C 26.483 54.176 25.575 53.3976 24.6669 52.6193 C 24.148 52.1004 23.4994 51.7113 22.9806 50.9329 C 22.9806 50.0249 22.9806 49.1168 22.9806 48.2088 C 22.9806 48.079 22.9806 48.079 23.1103 48.079 C 24.6669 49.3763 26.2236 50.6735 27.91 51.841 C 28.1694 51.1924 27.91 50.414 28.1694 49.7654 C 28.1694 49.7654 28.1694 49.7654 28.2991 49.6357 Z " stroke-width="0.129721537232399"/>
    <path id="ID0.41518953489139676" fill="rgb(245,178,68)" stroke="none" d="M 28.1694 55.2137 L 28.1694 55.2137 C 28.5586 55.9921 28.2991 56.7704 28.2991 57.5487 C 28.1694 58.5865 28.2991 59.754 28.1694 60.7918 C 27.91 60.9215 27.6505 60.662 27.3911 60.4026 C 26.6128 59.6243 25.575 58.8459 24.6669 58.0676 C 24.148 57.5487 23.3697 57.1596 22.9806 56.3812 C 22.9806 55.6029 22.9806 54.5651 22.9806 53.6571 C 23.24 53.6571 23.4994 53.7868 23.7589 53.9165 C 25.1858 55.2137 26.7425 56.2515 28.1694 57.5487 C 27.91 56.7704 27.91 56.1218 28.1694 55.3435 C 28.1694 55.3435 28.1694 55.2137 28.1694 55.2137 Z " stroke-width="0.129721537232399"/>
    <path id="ID0.959443090017885" fill="rgb(246,179,68)" stroke="none" d="M 28.1694 46.7818 L 28.1694 46.7818 C 28.1694 47.171 27.7803 47.171 27.6505 47.4304 C 27.2614 47.8196 27.3911 48.2088 27.3911 48.5979 C 27.5208 48.9871 27.91 48.7277 28.1694 48.7277 C 28.1694 49.1168 28.1694 49.3763 28.2991 49.6357 C 28.1694 49.6357 28.1694 49.7654 28.1694 49.7654 C 27.91 49.7654 27.6505 49.6357 27.3911 49.3763 C 26.483 48.4682 25.4453 47.8196 24.5372 47.0413 C 24.0183 46.5224 23.24 46.2629 22.9806 45.3549 C 22.7211 44.4468 22.8508 43.5388 22.8508 42.6307 C 22.9806 42.501 22.9806 42.501 22.9806 42.501 C 24.6669 43.7982 26.2236 45.0955 27.91 46.3927 C 28.0397 46.3927 28.1694 46.5224 28.1694 46.7818 Z " stroke-width="0.129721537232399"/>
    <path id="ID0.47173204785212874" fill="rgb(172,73,14)" stroke="none" d="M 28.1694 55.3435 L 28.1694 55.3435 C 28.1694 56.1218 28.1694 56.7704 28.1694 57.8082 C 26.3533 56.3812 24.6669 55.084 22.9806 53.6571 C 22.9806 53.6571 22.9806 53.6571 22.9806 53.6571 C 23.4994 53.0085 24.0183 52.4896 24.7967 52.4896 C 25.9641 53.3976 27.0019 54.3057 28.1694 55.3435 Z " stroke-width="0.129721537232399"/>
    <path id="ID0.651205531321466" fill="rgb(172,73,14)" stroke="none" d="M 24.6669 57.9379 L 24.6669 57.9379 C 25.7047 58.4568 26.6128 59.3648 27.3911 60.1432 C 27.6505 60.4026 27.91 60.662 28.1694 60.7918 C 28.1694 61.6998 28.1694 62.3484 28.1694 63.2565 C 26.6128 62.089 25.1858 60.9215 23.7589 59.754 C 23.4994 59.4945 23.24 59.3648 22.9806 59.1054 C 22.9806 59.1054 22.9806 58.9757 22.9806 58.9757 C 23.3697 58.4568 24.0183 57.9379 24.6669 57.9379 Z " stroke-width="0.129721537232399"/>
    <path id="ID0.32209028070792556" fill="rgb(159,147,224)" stroke="none" d="M 10.657 35.4961 L 10.657 35.4961 C 11.3056 36.1447 12.2137 36.7933 12.992 37.4419 C 13.2514 37.5716 13.1217 37.9608 13.1217 38.3499 C 13.1217 38.8688 13.1217 39.5174 13.1217 40.2958 C 12.2137 39.5174 11.1759 38.9985 10.657 38.0905 C 10.1381 37.4419 10.5273 36.5338 10.657 35.4961 Z " stroke-width="0.129721537232399"/>
    <path id="ID0.27500529447570443" fill="rgb(159,147,224)" stroke="none" d="M 15.7161 34.1988 L 15.7161 34.1988 C 16.7539 34.8475 17.4025 35.4961 18.1809 36.1447 C 18.4403 36.4041 18.4403 36.7933 18.4403 37.0527 C 18.4403 37.7013 18.4403 38.2202 18.4403 38.7391 C 16.3648 38.0905 15.4567 36.6636 15.7161 34.1988 Z " stroke-width="0.129721537232399"/>
    <path id="ID0.010180448181927204" fill="rgb(159,147,224)" stroke="none" d="M 7.8031 30.5666 L 7.8031 30.5666 C 7.0248 29.7883 6.2465 29.2694 5.4681 28.6208 C 5.2087 28.3614 5.2087 27.8425 5.2087 27.583 C 5.2087 26.9344 5.2087 26.4156 5.2087 25.8967 C 7.414 26.9344 8.1923 28.1019 7.8031 30.5666 Z " stroke-width="0.129721537232399"/>
    <path id="ID0.8714650729671121" fill="rgb(159,147,223)" stroke="none" d="M 15.9756 50.6735 L 15.9756 50.6735 C 16.7539 51.3221 17.5322 51.9707 18.3106 52.6193 C 18.57 52.8787 18.57 53.1382 18.57 53.5274 C 18.57 54.0462 18.57 54.5651 18.57 55.084 C 16.6242 54.5651 15.7161 53.0085 15.9756 50.6735 Z " stroke-width="0.129721537232399"/>
    <path id="ID0.5654357657767832" fill="rgb(159,148,224)" stroke="none" d="M 5.4681 36.7933 L 5.4681 36.7933 C 6.2465 37.5716 7.0248 38.0905 7.8031 38.7391 C 8.0626 38.8688 8.0626 39.1283 8.0626 39.3877 C 8.0626 40.0363 8.0626 40.6849 8.0626 41.3335 C 5.987 40.6849 5.2087 39.3877 5.4681 36.7933 Z " stroke-width="0.129721537232399"/>
    <path id="ID0.49086481099948287" fill="rgb(158,147,224)" stroke="none" d="M 12.8623 34.588 L 12.8623 34.588 C 12.0839 33.9394 11.3056 33.4205 10.657 32.7719 C 10.3976 32.6422 10.3976 32.3827 10.3976 32.1233 C 10.3976 31.6044 10.3976 31.0855 10.3976 30.5666 C 10.3976 30.4369 10.3976 30.3072 10.5273 30.1775 C 10.7867 30.0478 10.9165 30.3072 10.9165 30.3072 C 11.1759 30.5666 11.3056 30.6964 11.5651 30.8261 C 13.1217 31.6044 13.2514 33.0314 12.8623 34.588 Z " stroke-width="0.129721537232399"/>
    <path id="ID0.42621151404455304" fill="rgb(158,147,224)" stroke="none" d="M 15.8459 39.7769 L 15.8459 39.7769 C 16.7539 40.5552 17.4025 40.9444 18.1809 41.593 C 18.4403 41.8524 18.4403 42.1119 18.4403 42.3713 C 18.4403 43.0199 18.4403 43.6685 18.4403 44.4468 C 17.5322 43.7982 16.7539 43.1496 15.9756 42.501 C 15.7161 42.2416 15.8459 41.7227 15.8459 41.4633 C 15.8459 40.9444 15.8459 40.5552 15.8459 39.7769 Z " stroke-width="0.129721537232399"/>
    <path id="ID0.4224614482372999" fill="rgb(158,147,224)" stroke="none" d="M 7.9329 36.0149 L 7.9329 36.0149 C 7.0248 35.3663 6.2465 34.7177 5.5979 34.1988 C 5.3384 33.9394 5.3384 33.68 5.3384 33.4205 C 5.3384 32.9016 5.3384 32.253 5.3384 31.4747 C 7.414 32.253 8.1923 33.5502 7.9329 36.0149 Z " stroke-width="0.129721537232399"/>
    <path id="ID0.3355716113001108" fill="rgb(158,146,224)" stroke="none" d="M 15.8459 45.2252 L 15.8459 45.2252 C 16.7539 45.8738 17.4025 46.5224 18.1809 47.0413 C 18.4403 47.3007 18.4403 47.4304 18.4403 47.6899 C 18.4403 48.3385 18.4403 48.9871 18.4403 49.8952 C 17.4025 49.2465 16.7539 48.5979 15.9756 48.079 C 15.7161 47.6899 15.8459 47.0413 15.8459 46.6521 C 15.8459 46.2629 15.8459 45.8738 15.8459 45.2252 Z " stroke-width="0.129721537232399"/>
    <path id="ID0.3423566734418273" fill="rgb(158,147,224)" stroke="none" d="M 10.657 41.0741 L 10.657 41.0741 C 11.5651 41.7227 12.3434 42.2416 12.992 42.8902 C 13.3812 43.4091 13.1217 43.928 13.1217 44.4468 C 13.2514 44.7063 13.1217 45.0955 13.1217 45.4846 C 11.0462 44.7063 10.3976 43.4091 10.657 41.0741 Z " stroke-width="0.129721537232399"/>
    <path id="ID0.3353034760802984" fill="rgb(158,147,224)" stroke="none" d="M 8.0626 46.9116 L 8.0626 46.9116 C 7.1545 46.1332 6.5059 45.6143 5.7276 45.0955 C 5.4681 44.836 5.4681 44.5766 5.4681 44.3171 C 5.4681 43.6685 5.4681 43.0199 5.4681 42.2416 C 6.5059 42.8902 7.1545 43.5388 7.9329 44.1874 C 8.322 44.4468 8.0626 45.0955 8.0626 45.4846 C 8.1923 45.8738 8.0626 46.2629 8.0626 46.9116 Z " stroke-width="0.129721537232399"/>
    <path id="ID0.34311513788998127" fill="rgb(158,146,223)" stroke="none" d="M 10.657 46.3927 L 10.657 46.3927 C 11.5651 47.0413 12.2137 47.6899 12.992 48.3385 C 13.2514 48.4682 13.1217 48.7277 13.1217 49.1168 C 13.1217 49.7654 13.1217 50.2843 13.1217 50.9329 C 10.9165 49.7654 10.3976 48.9871 10.657 46.3927 Z " stroke-width="0.129721537232399"/>
    <path id="ID0.12074902141466737" fill="rgb(181,132,110)" stroke="none" d="M 22.9806 45.3549 L 22.9806 45.3549 C 23.4994 45.8738 24.2778 46.3927 24.6669 46.9116 C 24.2778 47.5602 23.7589 47.9493 22.9806 48.2088 C 22.9806 48.2088 22.9806 48.2088 22.9806 48.2088 C 22.7211 47.3007 22.7211 46.3927 22.9806 45.3549 Z " stroke-width="0.129721537232399"/>
    <path id="ID0.31114573031663895" fill="rgb(186,136,112)" stroke="none" d="M 22.9806 42.6307 L 22.9806 42.6307 C 22.9806 42.6307 22.8508 42.6307 22.8508 42.6307 C 22.7211 41.7227 22.7211 40.6849 22.8508 39.9066 C 23.4994 40.2958 24.148 40.8146 24.6669 41.4633 C 24.4075 42.1119 23.7589 42.501 22.9806 42.6307 Z " stroke-width="0.129721537232399"/>
    <path id="ID0.09703096700832248" fill="rgb(181,131,110)" stroke="none" d="M 24.7967 52.4896 L 24.7967 52.4896 C 24.148 52.6193 23.6292 53.2679 22.9806 53.6571 C 22.9806 52.6193 22.9806 51.841 22.9806 50.9329 C 23.6292 51.4518 24.148 51.9707 24.7967 52.4896 Z " stroke-width="0.129721537232399"/>
    <path id="ID0.26039409078657627" fill="rgb(182,132,110)" stroke="none" d="M 24.6669 57.9379 L 24.6669 57.9379 C 24.148 58.1973 23.4994 58.5865 22.9806 58.9757 C 22.9806 58.0676 22.9806 57.2893 22.9806 56.3812 C 23.4994 56.9001 24.2778 57.2893 24.6669 57.9379 Z " stroke-width="0.129721537232399"/>
    <path id="ID0.41388901555910707" fill="rgb(99,85,36)" stroke="none" d="M 41.9199 51.7113 L 41.9199 51.7113 C 41.7902 51.7113 41.6605 51.5815 41.6605 51.5815 C 40.493 50.9329 40.2335 50.0249 40.3632 48.7277 C 40.493 48.7277 40.493 48.4682 40.493 48.4682 C 40.493 48.4682 40.6227 48.4682 40.6227 48.4682 C 41.2713 48.7277 41.6605 49.2465 42.1793 49.6357 C 42.6982 50.1546 43.2171 50.1546 43.736 49.6357 C 43.8657 49.506 44.1252 49.3763 44.3846 49.2465 C 44.7738 48.9871 45.2927 48.7277 45.5521 48.3385 C 46.071 49.506 45.8115 50.414 44.9035 51.1924 C 44.6441 51.7113 43.8657 51.841 43.4766 52.3599 C 43.3468 52.3599 43.3468 52.3599 43.2171 52.4896 C 43.0874 52.6193 42.8279 52.749 42.5685 52.6193 C 42.3091 52.3599 42.0496 52.1004 41.9199 51.7113 Z " stroke-width="0.129721537232399"/>
    <path id="ID0.1823795256204903" fill="rgb(99,85,36)" stroke="none" d="M 42.5685 57.9379 L 42.5685 57.9379 C 42.1793 57.2893 41.6605 57.0298 41.2713 56.6407 C 40.3632 55.8623 40.1038 55.084 40.493 53.9165 C 41.0118 54.3057 41.6605 54.6948 42.1793 55.2137 C 42.6982 55.7326 43.2171 55.7326 43.6063 55.2137 C 43.8657 55.084 43.9954 54.8246 44.1252 54.8246 C 44.6441 54.5651 45.0332 54.3057 45.2927 53.9165 C 45.4224 53.9165 45.4224 53.7868 45.4224 53.7868 C 46.071 54.5651 45.8115 55.8623 44.9035 56.6407 C 44.5143 57.1596 43.8657 57.419 43.3468 57.9379 C 43.2171 57.9379 43.2171 57.9379 42.9577 58.0676 C 42.8279 58.0676 42.6982 58.0676 42.5685 57.9379 Z " stroke-width="0.129721537232399"/>
    <path id="ID0.18877858528867364" fill="rgb(98,84,36)" stroke="none" d="M 41.6605 62.6079 L 41.6605 62.6079 C 41.5307 62.3484 41.1416 62.089 40.8821 61.8295 C 40.1038 61.3106 39.9741 60.4026 40.3632 59.4945 C 41.0118 59.6243 41.401 60.1432 41.9199 60.5323 C 42.8279 61.1809 42.8279 61.1809 43.6063 60.5323 C 43.8657 60.4026 43.9954 60.2729 44.1252 60.1432 C 44.5143 60.0134 44.9035 59.754 45.1629 59.4945 C 45.1629 59.3648 45.2927 59.2351 45.2927 59.2351 C 45.9413 60.0134 45.6818 61.4404 44.7738 62.089 C 44.3846 62.6079 43.736 62.8673 43.3468 63.2565 C 43.2171 63.3862 43.2171 63.3862 43.0874 63.5159 C 42.9577 63.5159 42.6982 63.5159 42.5685 63.5159 C 42.1793 63.2565 41.9199 63.1267 41.6605 62.6079 Z " stroke-width="0.129721537232399"/>
    <path id="ID0.6802689773030579" fill="rgb(60,69,136)" stroke="none" d="M 51.3896 50.5438 L 51.3896 50.5438 C 51.649 51.5815 51.1301 52.1004 50.2221 52.6193 C 49.8329 52.8787 49.314 53.2679 48.9249 53.6571 C 48.7951 53.6571 48.6654 53.9165 48.5357 53.7868 C 48.2763 53.6571 48.2763 53.3976 48.2763 53.2679 C 48.2763 51.9707 48.5357 50.6735 49.9626 50.1546 C 49.9626 50.1546 50.0924 50.0249 50.2221 50.0249 C 50.6112 49.7654 50.8707 49.2465 51.2598 49.506 C 51.5193 49.6357 51.2598 50.2843 51.3896 50.5438 Z " stroke-width="0.129721537232399"/>
    <path id="ID0.9550685323774815" fill="rgb(60,69,136)" stroke="none" d="M 51.3896 43.6685 L 51.3896 43.6685 C 51.649 44.1874 51.3896 44.4468 51.3896 44.5766 C 51.9085 46.9116 49.9626 47.3007 48.5357 48.3385 C 48.5357 47.4304 48.5357 46.6521 48.5357 46.0035 C 48.5357 45.7441 48.5357 45.6143 48.7951 45.4846 C 49.7032 44.836 50.4815 44.3171 51.3896 43.6685 Z " stroke-width="0.129721537232399"/>
    <path id="ID0.5342276212759316" fill="rgb(60,69,136)" stroke="none" d="M 57.227 41.4633 L 57.227 41.4633 C 57.7459 42.501 56.5784 42.8902 55.8001 43.4091 C 55.4109 43.6685 55.0218 44.4468 54.6326 44.1874 C 54.1137 43.928 54.5029 43.1496 54.3732 42.7605 C 54.3732 41.9821 54.6326 41.4633 55.2812 41.0741 C 55.8001 40.8146 56.1893 40.5552 56.7082 40.166 C 57.0973 39.7769 57.3568 39.9066 57.227 40.5552 C 57.227 40.6849 57.227 40.9444 57.227 41.4633 Z " stroke-width="0.129721537232399"/>
    <path id="ID0.2230909769423306" fill="rgb(60,69,136)" stroke="none" d="M 54.2434 48.3385 L 54.2434 48.3385 C 53.984 47.5602 54.5029 47.0413 55.2812 46.5224 C 55.6704 46.3927 56.1893 46.0035 56.5784 45.6143 C 56.9676 45.3549 57.0973 45.6143 57.0973 46.0035 C 57.0973 46.1332 57.0973 46.1332 57.0973 46.1332 C 56.9676 46.7818 57.3568 47.5602 56.9676 47.9493 C 56.319 48.7277 55.4109 49.1168 54.6326 49.7654 C 54.3732 49.8952 54.2434 49.7654 54.2434 49.506 C 54.2434 49.1168 54.2434 48.7277 54.2434 48.3385 Z " stroke-width="0.129721537232399"/>
    <path id="ID0.1424108981154859" fill="rgb(60,69,136)" stroke="none" d="M 48.2763 59.2351 L 48.2763 59.2351 C 48.2763 58.4568 48.2763 57.8082 48.2763 57.0298 C 48.2763 56.7704 48.406 56.6407 48.5357 56.5109 C 49.314 55.9921 50.2221 55.3435 51.2598 54.8246 C 51.2598 55.6029 51.2598 56.2515 51.2598 57.0298 C 51.2598 57.1596 51.2598 57.419 51.0004 57.5487 C 50.0924 58.0676 49.4437 58.7162 48.2763 59.2351 Z " stroke-width="0.129721537232399"/>
    <path id="ID0.16575197409838438" fill="rgb(60,69,136)" stroke="none" d="M 48.2763 64.5537 L 48.2763 64.5537 C 47.8871 62.3484 48.406 61.5701 51.1301 60.1432 C 51.0004 60.4026 51.0004 60.662 51.0004 60.9215 C 51.0004 61.5701 51.3896 62.3484 50.8707 62.8673 C 50.0924 63.6456 49.1843 64.1645 48.2763 64.5537 Z " stroke-width="0.129721537232399"/>
    <path id="ID0.041295275557786226" fill="rgb(60,69,136)" stroke="none" d="M 54.1137 55.3435 L 54.1137 55.3435 C 53.8543 52.8787 54.3732 52.1004 57.0973 50.9329 C 56.8379 51.7113 56.9676 52.4896 56.9676 53.2679 C 56.9676 53.3976 56.8379 53.6571 56.7082 53.6571 C 55.8001 54.176 55.0218 54.8246 54.1137 55.3435 Z " stroke-width="0.129721537232399"/>
    <path id="ID0.5203336402773857" fill="rgb(60,69,135)" stroke="none" d="M 56.9676 57.1596 L 56.9676 57.1596 C 57.227 58.7162 56.319 59.3648 55.1515 60.0134 C 54.7623 60.1432 54.3732 60.7918 54.1137 60.5323 C 53.5948 60.4026 54.1137 59.754 54.1137 59.4945 C 53.8543 58.327 54.3732 57.6784 55.2812 57.2893 C 55.5407 57.0298 55.8001 56.9001 56.0595 56.7704 C 56.319 56.5109 56.5784 56.2515 56.8379 56.3812 C 57.0973 56.5109 56.8379 56.9001 56.9676 57.1596 Z " stroke-width="0.129721537232399"/>
    <path id="ID0.020525756757706404" fill="rgb(59,62,117)" stroke="none" d="M 45.1629 45.6143 L 45.1629 45.6143 C 45.1629 45.7441 45.4224 45.8738 45.4224 45.8738 C 45.4224 46.7818 45.4224 47.5602 45.4224 48.3385 C 44.9035 48.5979 44.6441 48.2088 44.2549 47.9493 C 43.736 47.5602 43.2171 47.171 43.0874 46.5224 C 43.0874 45.8738 43.2171 45.3549 43.2171 44.836 C 43.2171 44.5766 43.2171 44.4468 43.6063 44.4468 C 44.1252 44.836 44.6441 45.2252 45.1629 45.6143 Z " stroke-width="0.129721537232399"/>
    <path id="ID0.5073486492037773" fill="rgb(58,59,110)" stroke="none" d="M 45.4224 53.7868 L 45.4224 53.7868 C 45.4224 53.7868 45.4224 53.9165 45.4224 53.9165 C 44.6441 54.0462 43.3468 53.1382 43.3468 52.1004 C 43.8657 51.7113 44.3846 51.4518 44.9035 51.1924 C 45.4224 51.4518 45.4224 51.841 45.4224 52.3599 C 45.4224 52.749 45.4224 53.2679 45.4224 53.7868 Z " stroke-width="0.129721537232399"/>
    <path id="ID0.9674395937472582" fill="rgb(95,84,39)" stroke="none" d="M 59.9512 49.506 L 59.9512 49.506 C 60.4701 50.9329 60.2106 51.4518 58.5243 52.6193 C 58.5243 51.3221 58.5243 50.0249 58.5243 48.7277 C 58.5243 48.4682 58.7837 48.4682 58.7837 48.5979 C 58.7837 48.7277 58.7837 48.7277 58.7837 48.8574 C 58.9134 50.1546 58.9134 50.1546 59.9512 49.506 Z " stroke-width="0.129721537232399"/>
    <path id="ID0.7412822814658284" fill="rgb(57,58,110)" stroke="none" d="M 45.2927 59.2351 L 45.2927 59.2351 C 45.2927 59.3648 45.2927 59.4945 45.2927 59.4945 C 44.3846 59.4945 43.4766 58.5865 43.2171 57.8082 C 43.736 57.2893 44.2549 56.7704 44.9035 56.6407 C 45.4224 57.1596 45.2927 57.8082 45.2927 58.327 C 45.2927 58.7162 45.2927 58.9757 45.2927 59.2351 Z " stroke-width="0.129721537232399"/>
    <path id="ID0.5642337403260171" fill="rgb(59,60,109)" stroke="none" d="M 43.2171 63.1267 L 43.2171 63.1267 C 43.6063 62.6079 44.2549 62.3484 44.7738 62.089 C 45.1629 62.3484 45.2927 62.6079 45.2927 63.1267 C 45.2927 63.6456 45.2927 64.1645 45.2927 64.6834 C 45.2927 64.6834 45.2927 64.8131 45.2927 64.8131 C 44.3846 64.8131 43.4766 64.1645 43.2171 63.1267 Z " stroke-width="0.129721537232399"/>
    <path id="ID0.3715416695922613" fill="rgb(96,85,39)" stroke="none" d="M 60.2106 44.1874 L 60.2106 44.1874 C 60.5998 45.3549 60.2106 46.3927 59.0431 46.9116 C 58.7837 47.171 58.654 47.0413 58.654 46.6521 C 58.654 46.1332 58.654 45.6143 58.654 45.0955 C 59.1729 44.7063 59.562 44.3171 60.2106 44.1874 Z " stroke-width="0.129721537232399"/>
    <path id="ID0.06936331558972597" fill="rgb(96,84,37)" stroke="none" d="M 60.3404 38.7391 L 60.3404 38.7391 C 60.7295 40.0363 60.4701 40.8146 58.7837 41.593 C 58.7837 40.9444 58.7837 40.2958 58.7837 39.6471 C 59.1729 39.258 59.6917 38.7391 60.3404 38.7391 Z " stroke-width="0.129721537232399"/>
    <path id="ID0.9854167383164167" fill="rgb(45,36,68)" stroke="none" d="M 43.2171 46.5224 L 43.2171 46.5224 C 43.8657 47.3007 44.5143 48.079 45.4224 48.3385 C 45.5521 48.3385 45.5521 48.3385 45.5521 48.3385 C 45.5521 48.9871 44.9035 48.9871 44.3846 49.3763 C 43.6063 49.2465 43.2171 48.7277 43.0874 48.079 C 42.9577 47.5602 42.9577 47.171 43.2171 46.6521 C 43.2171 46.6521 43.2171 46.6521 43.2171 46.5224 Z " stroke-width="0.129721537232399"/>
    <path id="ID0.9267280814237893" fill="rgb(73,52,18)" stroke="none" d="M 60.3404 38.7391 L 60.3404 38.7391 C 59.8215 38.9985 59.3026 39.258 58.7837 39.6471 C 58.7837 39.1283 58.7837 38.6094 58.7837 37.9608 C 58.7837 37.831 58.7837 37.7013 58.9134 37.5716 C 59.1729 37.4419 59.1729 37.7013 59.3026 37.831 C 59.6917 38.0905 60.2106 38.2202 60.3404 38.7391 Z " stroke-width="0.129721537232399"/>
    <path id="ID0.822187858633697" fill="rgb(74,49,16)" stroke="none" d="M 60.2106 44.1874 L 60.2106 44.1874 C 59.6917 44.5766 59.3026 44.9657 58.654 45.0955 C 58.654 44.836 58.654 44.4468 58.654 44.1874 C 58.7837 43.7982 58.5243 43.2794 58.7837 43.1496 C 59.1729 43.0199 59.4323 43.4091 59.6917 43.6685 C 59.8215 43.928 59.9512 43.928 60.2106 44.1874 Z " stroke-width="0.129721537232399"/>
    <path id="ID0.42891754815354943" fill="rgb(75,50,14)" stroke="none" d="M 59.9512 49.506 L 59.9512 49.506 C 59.9512 49.506 59.9512 49.6357 59.9512 49.7654 C 59.562 50.0249 58.9134 50.6735 58.7837 50.414 C 58.5243 50.0249 58.5243 49.2465 58.7837 48.5979 C 59.1729 48.9871 59.562 49.2465 59.9512 49.506 Z " stroke-width="0.129721537232399"/>
    <path id="ID0.15098080271854997" fill="rgb(91,90,92)" stroke="none" d="M 43.6063 44.4468 L 43.6063 44.4468 C 43.3468 45.0955 43.3468 45.8738 43.2171 46.5224 C 43.2171 46.5224 43.2171 46.6521 43.2171 46.6521 C 42.4388 47.4304 41.6605 48.2088 40.493 48.4682 C 40.493 48.4682 40.493 48.4682 40.493 48.4682 C 40.7524 47.6899 41.2713 47.3007 41.6605 46.5224 C 42.0496 46.0035 42.4388 45.3549 42.9577 44.7063 C 43.0874 44.5766 43.2171 44.1874 43.6063 44.4468 Z " stroke-width="0.129721537232399"/>
    <path id="ID0.4587711216881871" fill="rgb(60,35,14)" stroke="none" d="M 44.2549 54.9543 L 44.2549 54.9543 C 42.8279 56.1218 42.8279 56.1218 41.5307 54.8246 C 41.1416 54.5651 40.493 54.4354 40.493 53.9165 C 40.6227 53.9165 40.6227 53.7868 40.7524 53.6571 C 41.2713 53.2679 41.7902 52.6193 42.5685 52.4896 C 42.8279 52.6193 42.9577 52.4896 43.2171 52.3599 C 43.3468 52.4896 43.3468 52.6193 43.3468 52.8787 C 43.3468 53.5274 43.6063 54.176 44.2549 54.5651 C 44.3846 54.6948 44.3846 54.8246 44.2549 54.9543 Z " stroke-width="0.129721537232399"/>
    <path id="ID0.8648541150614619" fill="rgb(61,36,14)" stroke="none" d="M 42.5685 63.3862 L 42.5685 63.3862 C 42.6982 63.3862 42.9577 63.3862 43.0874 63.3862 C 43.2171 63.3862 43.2171 63.6456 43.2171 63.7754 C 43.2171 64.424 43.4766 65.0726 43.9954 65.4617 C 44.1252 65.5915 44.1252 65.5915 44.1252 65.7212 C 43.9954 65.8509 43.8657 65.9806 43.736 66.1103 C 42.6982 66.8887 42.6982 66.8887 41.6605 66.1103 C 41.2713 65.7212 40.7524 65.4617 40.3632 64.8131 C 40.493 64.8131 40.6227 64.6834 40.7524 64.5537 C 41.2713 64.0348 41.7902 63.5159 42.5685 63.3862 Z " stroke-width="0.129721537232399"/>
    <path id="ID0.17873434768989682" fill="rgb(61,35,13)" stroke="none" d="M 44.2549 60.4026 L 44.2549 60.4026 C 42.6982 61.4404 42.6982 61.4404 41.2713 60.2729 C 41.0118 60.0134 40.7524 59.754 40.3632 59.4945 C 41.1416 58.9757 41.9199 58.4568 42.5685 57.9379 C 42.6982 57.9379 42.9577 57.9379 43.0874 57.9379 C 43.0874 57.9379 43.2171 57.9379 43.2171 57.9379 C 43.2171 58.9757 43.6063 59.754 44.2549 60.4026 Z " stroke-width="0.129721537232399"/>
    <path id="ID0.6398277869448066" fill="rgb(92,90,85)" stroke="none" d="M 42.5685 52.4896 L 42.5685 52.4896 C 41.9199 52.8787 41.5307 53.5274 40.7524 53.6571 C 41.0118 53.0085 41.5307 52.3599 41.9199 51.7113 C 42.1793 51.9707 42.5685 52.1004 42.5685 52.4896 Z " stroke-width="0.129721537232399"/>
    <path id="ID0.535868457518518" fill="rgb(91,89,86)" stroke="none" d="M 42.5685 63.3862 L 42.5685 63.3862 C 41.9199 63.7754 41.2713 64.1645 40.7524 64.5537 C 40.8821 63.9051 41.2713 63.2565 41.6605 62.6079 C 41.9199 62.8673 42.4388 62.997 42.5685 63.3862 Z " stroke-width="0.129721537232399"/>
    <path id="ID0.8633248470723629" fill="rgb(40,31,62)" stroke="none" d="M 44.1252 65.7212 L 44.1252 65.7212 C 43.2171 65.2023 42.9577 64.2942 43.0874 63.3862 C 43.2171 63.3862 43.2171 63.2565 43.2171 63.1267 C 43.8657 63.9051 44.2549 64.5537 45.2927 64.8131 C 45.1629 65.332 44.6441 65.5915 44.1252 65.7212 Z " stroke-width="0.129721537232399"/>
    <path id="ID0.31916171265766025" fill="rgb(173,76,15)" stroke="none" d="M 22.9806 42.6307 L 22.9806 42.6307 C 23.4994 42.2416 24.148 41.7227 24.6669 41.4633 C 25.7047 42.1119 26.6128 42.8902 27.5208 43.6685 C 28.0397 44.1874 28.2991 44.5766 28.1694 45.2252 C 28.1694 45.7441 28.1694 46.2629 28.1694 46.7818 C 26.3533 45.4846 24.6669 44.1874 22.9806 42.6307 Z " stroke-width="0.129721537232399"/>
    <path id="ID0.6413025031797588" fill="rgb(174,76,16)" stroke="none" d="M 22.9806 48.2088 L 22.9806 48.2088 C 23.6292 47.8196 24.148 47.3007 24.6669 46.9116 C 25.9641 47.8196 27.0019 48.7277 28.1694 49.7654 C 28.1694 50.5438 28.1694 51.4518 28.1694 52.3599 C 26.3533 50.9329 24.6669 49.7654 22.9806 48.2088 Z " stroke-width="0.129721537232399"/>
    <path id="ID0.8557856357656419" fill="rgb(67,43,17)" stroke="none" d="M 40.493 48.4682 L 40.493 48.4682 C 41.5307 47.8196 42.3091 47.3007 43.2171 46.6521 C 43.2171 47.8196 43.0874 48.8574 44.3846 49.3763 C 44.1252 49.7654 43.6063 49.8952 43.2171 50.2843 C 42.9577 50.414 42.6982 50.414 42.5685 50.2843 C 41.9199 49.6357 41.1416 49.2465 40.493 48.4682 Z " stroke-width="0.129721537232399"/>
    <path id="ID0.8351972843520343" fill="rgb(41,33,65)" stroke="none" d="M 44.2549 54.9543 L 44.2549 54.9543 C 43.2171 54.3057 43.2171 53.3976 43.2171 52.3599 C 43.3468 52.3599 43.3468 52.2301 43.3468 52.1004 C 43.8657 53.1382 44.5143 53.6571 45.4224 53.9165 C 45.2927 54.5651 44.7738 54.6948 44.2549 54.9543 Z " stroke-width="0.129721537232399"/>
    <path id="ID0.6047829780727625" fill="rgb(41,32,62)" stroke="none" d="M 44.2549 60.4026 L 44.2549 60.4026 C 43.2171 59.8837 42.9577 58.9757 43.0874 57.9379 C 43.2171 57.9379 43.2171 57.8082 43.2171 57.8082 C 43.736 58.4568 44.3846 59.1054 45.2927 59.4945 C 45.1629 60.0134 44.6441 60.1432 44.2549 60.4026 Z " stroke-width="0.129721537232399"/>
  </g>
<defs/></svg>