<svg version="1.1" xmlns="http://www.w3.org/2000/svg" xmlns:xlink="http://www.w3.org/1999/xlink" width="66.08524" height="197.1468" viewBox="0,0,66.08524,197.1468"><g transform="translate(-208.22943,-5.94234)"><g data-paper-data="{&quot;isPaintingLayer&quot;:true}" fill-rule="nonzero" stroke="none" stroke-linecap="butt" stroke-linejoin="miter" stroke-miterlimit="10" stroke-dasharray="" stroke-dashoffset="0" style="mix-blend-mode: normal"><path d="M208.22944,5.94234h66.03924v197.1468h-66.03924z" fill="none" stroke-width="0.11074"/><path d="M242.43576,202.94698v0c-2.37352,-0.85345 -4.18847,-2.70263 -6.14316,-4.12509c-8.37707,-5.83186 -16.61452,-11.80601 -24.99158,-17.63787c-1.11702,-0.85345 -1.67546,-1.56474 -1.67546,-3.12936c0,-9.95695 0,-19.77162 -0.27922,-29.72844c-0.27922,-7.11216 -0.13961,-14.2242 -0.27922,-21.33636c-0.27922,-8.39221 -0.13961,-16.64226 -0.27922,-24.89219c-0.27922,-7.53889 -0.13961,-15.07765 -0.27922,-22.75869c-0.13961,-4.26725 -0.27922,-8.53449 -0.13961,-12.65946c0.41883,-0.14228 0.83767,0.14216 1.2565,0.42672c8.23745,5.68958 16.61452,11.52157 24.85197,17.21114c2.23391,1.42246 4.1886,2.98707 6.42251,4.40953c0.55845,0.42672 1.11689,0.85345 1.2565,1.56461c0.13961,0.71129 0.13961,1.28017 0.13961,1.84918c0.41883,24.18102 0,48.21989 0.41883,72.40104c0.13974,11.94829 0,23.7543 0.13974,35.70259c0,0.85345 0.13961,1.84918 -0.41896,2.70263z" fill="#a4a1b0" stroke-width="0.11074"/><path d="M242.43576,202.94698v0c0,-6.11643 0,-12.23286 -0.13961,-18.207c-0.13961,-26.74137 -0.13961,-53.34059 -0.41883,-80.08196c0,-4.97854 0,-9.81467 -0.13961,-14.79321c0,-0.14216 0,-0.14216 0,-0.28444c0.13961,-0.42672 0.69806,-0.71117 0.97728,-0.85345c7.95823,-5.83186 15.63724,-11.80601 23.45586,-17.638c2.0943,-1.56461 4.04898,-2.98707 6.00367,-4.55169c0.55845,-0.42672 0.97728,-0.85345 1.67534,-0.71117c0.27922,0.28444 0.13961,0.71117 0.13961,0.99561c0,5.83199 0.13961,11.66385 0,17.49571c0,17.638 0,35.41815 -0.13961,53.05614c0,13.37075 -0.13961,26.7415 -0.13961,40.2544c0,0.71117 -0.13961,1.28017 -0.83767,1.99134c-10.05253,7.68104 -19.96545,15.36209 -30.01785,23.18542c-0.13974,0 -0.27935,0.14228 -0.41896,0.14228z" fill="#6b6c7a" stroke-width="0.11074"/><path d="M273.98945,66.82168v0c0,-0.28444 -0.13961,-0.71117 -0.13961,-0.99561c-0.41883,-0.42672 -0.27922,-1.13802 -0.27922,-1.7069c0,-2.84492 0,-5.6897 0,-8.53449c0,-0.56901 0.13961,-0.99573 -0.27922,-1.56474c-1.25663,0.71129 -2.37352,1.7069 -3.49041,2.56035c-8.93564,6.54315 -17.73154,13.08631 -26.38782,19.77162c-0.41883,0.28444 -0.8378,0.56901 -1.11702,0.71117c-0.83767,0.28457 -1.39611,-0.28444 -1.95456,-0.56888c-10.33175,-7.11216 -20.6635,-14.36648 -31.13487,-21.47852c-0.41883,-0.28444 -0.69806,-0.56901 -0.97728,-0.99573c0.69806,-1.42233 2.09417,-1.84906 3.3508,-2.84479c5.72432,-4.26725 11.44864,-8.53449 17.31258,-12.80174c0.69818,0.14216 0.55845,0.85345 0.55845,1.28017c0,2.27578 0.27935,4.55169 -0.13961,6.82759c0,0.56888 0,0.85345 0.69818,0.56888c3.49041,-0.99561 7.12044,-1.56461 10.61097,-2.41806c4.6073,-0.99573 9.21473,-1.99134 13.96178,-2.98707c0.69806,-0.14228 1.39611,-0.42672 1.95469,-0.99573c4.74691,3.27164 9.35434,6.68544 14.38061,9.67251c2.65274,1.56461 3.63002,3.4138 3.3508,6.54315c-0.41883,3.27151 -0.13961,6.68531 -0.27922,9.95682z" fill="#5c5958" stroke-width="0.11074"/><path d="M208.22944,54.01994v0c4.74691,2.84492 9.07512,6.11643 13.68255,9.24579c6.14316,4.26725 12.28631,8.53449 18.28998,12.80174c0.69806,0.28444 1.11689,0.85345 1.95456,0.71117c0.27922,1.28017 0.13961,2.56035 0.13961,3.69824c0,2.41819 0,4.69397 0,6.96988c0,0.85345 0,1.56461 -0.55845,2.27591c0,0 0,0 0,0.14216c-10.8902,-7.53876 -21.78039,-15.07752 -32.8102,-22.75857c-0.13961,-0.14228 -0.41883,-0.28457 -0.55845,-0.42672c0,-4.26725 -0.13961,-8.53449 -0.13961,-12.65958z" fill="#191613" stroke-width="0.11074"/><path d="M230.56828,36.95095v0c2.23391,-1.28017 3.90925,-2.98707 6.00354,-4.26725c0.69806,0.14228 0.55845,0.71117 0.55845,1.13789c0.13961,1.84918 0.13961,3.69837 0,5.40526c0,0.56888 -0.13961,0.99561 -0.41883,1.42233c-0.41883,0.42672 -0.41883,0.85345 0.13961,1.28017c0.55845,0.42672 0.97741,0.14228 1.25663,-0.42672c0.41883,-0.42672 0.83767,-0.56888 1.39611,-0.71117c4.04898,-0.71117 8.09784,-1.7069 12.00722,-2.56035c0.41883,-0.14228 0.83767,-0.14228 1.11689,-0.14228c1.25663,0.71129 2.51313,1.56474 3.63015,2.41819c-0.41896,0.42672 -0.69818,0.56888 -1.25663,0.56888c-7.39979,1.7069 -14.93918,3.4138 -22.33884,5.1207c-0.41883,0.14228 -0.8378,0.28457 -1.25663,0.28457c-0.69806,0 -1.11689,-0.28457 -1.11689,-0.85345c-0.13961,-2.84492 -0.13961,-5.6897 0.13961,-8.39234c0,-0.14216 0.13961,-0.28444 0.13961,-0.28444z" fill="#5c5857" stroke-width="0.11074"/><path d="M238.24728,31.11909v0c1.81495,-1.7069 3.3508,-0.71129 5.16588,0.42672c2.65274,2.13362 5.58471,3.98268 8.37707,5.97415c-0.27922,0.42672 -0.83767,0.56888 -1.25663,0.71117c-3.63002,0.85345 -7.12044,1.7069 -10.75059,2.41806c-1.53573,0.28457 -1.95456,0 -1.95456,-1.7069c0,-1.99134 0,-4.12496 0,-6.25859c0,-0.56901 0,-1.13789 0.41883,-1.56461z" fill="#5c5958" stroke-width="0.11074"/><path d="M230.56828,36.95095v0c0,2.70263 0,5.40514 0,8.10777c0,0.85345 0.13961,1.13789 1.11689,0.85345c7.12056,-1.7069 14.24113,-3.27151 21.50117,-4.83626c0.97741,-0.28444 1.95469,-0.42672 3.07171,-0.56888c0,0 0.13961,0.14216 0.27922,0.14216c0.27922,0.85345 -0.27922,0.99573 -0.8378,0.99573c-3.3508,0.85345 -6.7016,1.56461 -10.0524,2.41806c-4.04898,0.85345 -8.09784,1.7069 -12.00722,2.56035c-1.2565,0.28457 -2.37352,0.42672 -3.63002,0.71129c-0.55857,-0.42672 -0.41883,-1.13802 -0.41883,-1.7069c0,-6.54315 0,-12.80174 -0.13974,-19.20261c-0.13961,-4.12509 -0.13961,-8.10777 -0.13961,-12.23286c0,-0.85345 -0.13961,-1.84906 0.97741,-1.99134v0c0.27922,0.56901 0.13961,1.13789 0.13961,1.56461c0,5.83199 0,11.52157 0,17.21127c0,0.71117 0,1.13789 0.13961,1.7069c0,1.42246 0,2.84479 0,4.26725z" fill="#383f48" stroke-width="0.11074"/><path d="M238.24728,41.64492v0c0,0.42672 0,1.13789 -0.55845,1.13789c-0.69818,0 -1.39624,-0.71117 -1.95469,-1.28017c-0.27922,-0.28444 0.13961,-0.56888 0.41883,-0.85345c0.27922,-0.28444 0.69806,-0.42672 0.55845,-0.85345c0,-2.41806 0.41883,-4.69397 -0.13961,-7.11204c0.27922,-0.56901 0.27922,-1.13789 0.27922,-1.7069c-0.13961,-7.53876 -0.13961,-15.07765 -0.27922,-22.75869c0,-0.28444 0,-0.56888 0,-0.99561c0,-0.56901 0.13961,-1.13802 0.83767,-1.13802c0.69818,0 0.8378,0.56901 0.8378,1.28017c0,3.84052 0,7.68104 0,11.66385c0,1.56461 0,3.12936 0,4.69397c-0.69806,-0.14228 -0.41883,-0.71117 -0.41883,-0.99573c-0.13961,-4.97841 -0.27922,-9.81467 -0.13961,-12.9439c-0.13961,8.67665 0.55845,19.34477 0.27922,29.87073c0,0.71117 0.13961,1.42233 0.27922,1.99134z" fill="#8d847a" stroke-width="0.11074"/><path d="M238.24728,41.64492v0c-0.8378,0 -0.55845,-0.71117 -0.55845,-1.28017c0,-3.12936 0,-6.40087 0,-9.53023c-0.13961,-7.39648 -0.27935,-14.93536 -0.27935,-22.33184c0,-0.56901 -0.13961,-1.13802 0.41896,-1.7069c0,0.42672 0.13961,0.85345 0.13961,1.13789c0,4.83626 0,9.38794 0.13961,14.2242c0,0.42672 -0.27922,0.99561 0.13961,1.56461c0,2.41806 0,4.83626 0,7.3966c0,2.7025 0,5.54742 0,8.24993c0,0.85345 0.13961,1.13802 1.11689,0.85345c4.1886,-0.99561 8.23745,-1.84906 12.42605,-2.7025c0.27922,0.14216 0.55845,0.42672 0.83767,0.56888c-2.51313,1.13802 -5.4451,1.28017 -8.09784,2.13362c-2.0943,0.56901 -4.32808,0.56901 -6.28277,1.42246z" fill="#353d47" stroke-width="0.11074"/><path d="M230.28906,12.20092v0c-0.69806,0.28444 -0.55845,0.85345 -0.55845,1.42246c0,5.97415 -0.13961,11.80601 0,17.63787c0.27922,5.40526 0,10.8104 0.27922,16.07338c-0.27922,0.56888 -0.55857,0.85345 -1.11702,0.42672c-0.55845,-0.28457 -0.27922,-0.71129 0,-1.13802c0.41883,-0.85345 0.27922,-1.56461 0.27922,-2.41806c-0.13961,-1.99134 0.27922,-3.98281 -0.27922,-5.83186c0.27922,-0.56901 0.27922,-1.28017 0.27922,-1.84918c-0.13961,-7.68104 -0.13961,-15.50437 -0.27922,-23.18542c0,-0.56888 -0.13961,-1.28017 0.55845,-1.56461c0.55857,-0.28444 0.69818,0 0.8378,0.42672z" fill="#91887f" stroke-width="0.11074"/><path d="M230.56828,32.68371v0c-0.13961,-0.14228 -0.13961,-0.42672 -0.13961,-0.56901c0,-6.68531 -0.13961,-13.22847 -0.13961,-19.91378c0.13961,0.14228 0.27922,0.28444 0.27922,0.42672c0,6.68531 0,13.37075 0,20.05606z" fill="#91887f" stroke-width="0.11074"/><path d="M241.73769,89.72266v0c0,-3.69837 0,-7.53889 0,-11.09484c0,-0.71129 0,-1.28017 0.41883,-1.84918c7.67901,-5.83186 15.49763,-11.66385 23.31625,-17.638c2.51313,-1.7069 5.02626,-3.69824 7.39979,-5.40514c0.13961,-0.14228 0.55845,-0.28444 0.97728,-0.56901c0,4.26725 0,8.53449 0,12.65958c-9.63357,7.25432 -19.26726,14.50864 -28.90096,21.76296c-0.97728,0.71117 -1.95456,1.56461 -3.21119,2.13362z" fill="#040507" stroke-width="0.11074"/><path d="M224.00617,70.52004v0c0.55857,0.56888 1.25663,1.28017 0,1.99134c-0.27922,0.14228 -0.13961,1.42246 -0.13961,2.27591c-1.39611,-0.28457 -1.95456,-1.13802 -1.81495,-2.56035c0.13961,-0.71129 0.27922,-1.42246 -0.55845,-1.99147c-0.13974,-0.14216 -0.27935,-0.28444 -0.55857,-0.28444c-0.27922,0.14228 -0.27922,0.56901 -0.27922,0.71117c0,0.56901 0,1.28017 0,1.84918c-1.2565,-0.28444 -1.95469,-0.99573 -1.81495,-2.27591c0,-0.71117 0.13961,-1.56461 -0.41896,-2.27578c-0.69806,-0.71129 0.27922,-1.13802 0.55857,-1.7069c0.27922,-0.56901 0.83767,-0.28457 1.11689,0c0.55845,0.71117 2.51313,0.56888 1.11689,2.13362c-0.13961,0.28444 0.13961,0.42672 0.27935,0.42672c0.27922,0.28444 0.55845,0.28444 0.69806,-0.14228c0.27922,-0.56901 0.69806,-0.56901 1.11689,-0.28444c0.69806,0.42672 1.53585,0.71117 1.67546,1.56461c0.13961,0.99573 -0.69806,0.14228 -0.97741,0.56901z" fill="#a4a6a0" stroke-width="0.11074"/><path d="M218.00262,67.67513v0c0,1.84918 -0.97728,2.41819 -2.51313,1.56474c-2.51313,-1.28017 -4.04886,-3.84052 -3.76963,-6.11643c0,-1.13789 0.69806,-1.56461 1.81508,-1.28017c2.23378,0.71117 4.32808,3.55608 4.46769,5.83186z" fill="#a7a8a2" stroke-width="0.11074"/><path d="M237.54922,82.89506v0c0,0.56888 0.97728,0.56888 0.55845,1.13789c-0.41883,0.42672 -0.97741,0.14228 -1.25663,0c-1.67534,-0.99573 -3.07158,-2.13362 -3.49041,-4.12496c0,-0.71129 0,-1.13802 0.55845,-1.7069c0.55845,-0.28457 0.97741,0 1.53585,0.14216c1.39611,0.99573 2.65274,2.13362 3.07158,3.84052c0.13961,0.71129 0,1.28017 -0.97728,0.71129z" fill="#a5a6a0" stroke-width="0.11074"/><path d="M232.80218,78.05881v0c-0.97741,-0.28444 -1.67546,-0.71117 -1.95469,-1.42246c-0.27922,-0.28444 -0.55845,-0.56888 -0.97728,-0.42672c-0.41896,0.28457 -0.27922,0.71129 -0.13961,1.13802c0.27922,0.56888 0.55845,1.28017 1.39611,1.13789c0,0 0,0 0.13961,0c0.69806,0.14228 1.11702,0.71117 1.53585,1.13789c0.13961,0.14228 0,0.42672 -0.13961,0.56901c-0.69818,0.42672 -1.25663,0 -1.81508,-0.28444c-1.53585,-0.99573 -2.93197,-2.13362 -2.93197,-4.12509c-0.13961,-1.42233 0.41883,-1.99134 1.67546,-1.28017c1.39611,0.71129 2.65274,1.7069 3.21119,3.55608z" fill="#a4a59f" stroke-width="0.11074"/><path d="M226.6589,72.3691v0c0.13961,0.14228 0.27935,0.42672 0.27935,0.56901c0.13961,1.28017 0,2.56035 0,3.98281c-1.11702,-0.28457 -1.81508,-0.85345 -1.67546,-2.27591c0.13961,-0.71117 0,-1.42246 0,-2.27591c0,-0.42672 0.13961,-0.71117 0.69806,-0.56888c0.41883,-0.14228 0.55845,0.28444 0.69806,0.56888z" fill="#a4a59f" stroke-width="0.11074"/><path d="M226.6589,72.3691v0c-0.41883,0 -0.41883,-0.42672 -0.69806,-0.56888c-0.41883,-0.42672 -0.83767,-0.85345 -0.69806,-1.56474c0.13961,-0.28444 0.27922,-0.28444 0.41883,-0.14216c0.55845,0.56888 1.39624,0.56888 1.39624,1.42233c0,0.42672 -0.13961,0.71129 -0.41896,0.85345z" fill="#9b9d97" stroke-width="0.11074"/><path d="M255.55986,76.92092v0c-0.13961,-0.99573 -0.27922,-1.84918 -0.27922,-2.70263c-1.39611,0.28444 -1.2565,1.28017 -1.11689,2.27591c0.13961,1.28017 -0.27922,2.13362 -1.67546,2.56035c-0.13961,-1.99147 -0.97728,-3.84052 0.13961,-5.6897c0.55845,-0.99573 1.25663,-1.7069 2.23391,-2.13362c0.41883,0.85345 -0.27922,1.28017 -0.55845,1.84918c0.97728,0 0.97728,-0.71129 1.2565,-1.28017c0.13961,-1.28017 0.97741,-2.13362 1.95469,-2.56035c0.13961,-0.14228 0.41883,-0.28457 0.55845,-0.14228c0.13961,0.14228 0.27922,0.42672 0.13961,0.56901c-0.55845,1.84906 -1.11689,3.69824 -1.11689,5.54742c0,0.99561 -0.83767,1.13789 -1.53585,1.7069z" fill="#3e4d5d" stroke-width="0.11074"/><path d="M245.36772,81.33032v0c0,-2.27578 2.0943,-5.1207 3.90937,-5.97415c1.39611,-0.42672 2.0943,0 2.23391,1.56474c0.13961,2.27578 -2.37352,5.83186 -4.60743,6.25859c-1.11689,0.28444 -1.53585,-0.28444 -1.53585,-1.84918z" fill="#415161" stroke-width="0.11074"/><path d="M266.17082,66.53724v0c0,-1.7069 1.95469,-4.40953 3.63015,-4.69397c0.83767,-0.28444 1.53573,0 1.39611,1.13789c-0.27922,1.99147 -1.2565,3.69837 -3.21119,4.55181c-0.97728,0.56888 -1.67546,0.28444 -1.81508,-0.99573z" fill="#404f5f" stroke-width="0.11074"/><path d="M265.6124,67.95969v0c-0.27922,1.42233 -2.0943,3.4138 -3.21119,3.84052c-0.83767,0.14216 -1.39624,0 -1.53585,-0.99573c-0.13961,-1.84918 2.0943,-4.83626 3.76976,-5.1207c0.27922,0 0.69806,0 0.83767,0.28444c0.27922,0.28457 0,0.71129 -0.27922,0.85345c-0.41883,0.42672 -0.69806,0.56901 -1.25663,0.71129c-0.55845,0 -0.83767,0.56888 -1.11689,0.99561c-0.13961,0.42672 -0.27922,0.99573 0.13961,1.28017c0.41883,0.28457 0.83767,-0.28444 0.97728,-0.56888c0.27935,-0.71129 0.69818,-1.28017 1.67546,-1.28017z" fill="#404f5f" stroke-width="0.11074"/><path d="M260.3069,70.94677v0c-0.13961,1.28017 0.41883,2.41806 -0.83767,3.12923c-0.55845,0.28457 -0.97741,0.42672 -0.8378,-0.42672c0.13961,-1.28017 -0.69806,-2.7025 0.41896,-3.98268c0.13961,0 0.13961,-0.14228 0,-0.28457c-0.41896,-0.71117 -0.13961,-1.56461 0.69806,-1.84906c0.41883,0 0.69806,0.28444 0.55845,0.56888c-0.41883,1.13802 0.27922,2.13362 0,2.84492z" fill="#3e4d5d" stroke-width="0.11074"/><path d="M215.90832,66.53724v0c0,0.42672 0.13961,0.99573 -0.55845,0.99573c-0.83767,-0.14228 -1.81495,-1.56474 -1.81495,-2.70263c0,-0.42672 0,-0.85345 0.69806,-0.99573c0.69806,0 1.67534,1.42246 1.67534,2.70263z" fill="#1e1c19" stroke-width="0.11074"/><path d="M236.71144,81.04588v0c-0.69806,-0.28444 -1.11689,-0.42672 -1.39611,-1.13789c0.83767,-0.28457 1.11689,0.28444 1.39611,1.13789z" fill="#3d3c39" stroke-width="0.11074"/><path d="M247.3224,80.05015v0c0.13961,-1.28017 0.41883,-2.27578 1.53585,-2.56035c0.69806,-0.14216 0.55845,0.56901 0.55845,0.99573c0,1.13789 -0.83767,2.56035 -1.53585,2.56035c-0.83767,-0.14228 -0.41883,-0.71117 -0.55845,-0.99573z" fill="#010203" stroke-width="0.11074"/><path d="M214.52149,164.57809c-0.83817,-0.23773 -1.55046,-0.79333 -1.98513,-1.54841c-0.31048,-0.53248 -0.49114,-1.16478 0.55518,-1.12124c0.52504,0.02187 1.12311,-0.16417 1.56313,0.02885c0.90838,0.39845 1.87191,1.10748 1.71643,2.13509c-0.11343,0.74982 -1.09436,0.87188 -1.84957,0.50567z" data-paper-data="{&quot;index&quot;:null}" fill="#312a22" stroke-width="1"/><path d="M216.6431,133.62414v0c-0.87654,-0.8895 -1.92845,-1.42322 -2.80511,-2.13478c-0.5259,-0.53372 -0.35064,-1.24528 -0.35064,-1.779c0,-0.53372 -0.17526,-1.24528 0.17538,-1.60105c0.35064,-0.17795 0.70128,0.53372 1.22718,0.71155c1.57794,0.8895 2.10383,2.13478 1.75319,3.91378c0,0.17795 0,0.35578 0,0.8895z" fill="#2f2c42" stroke-width="0.14441"/><path d="M227.27169,149.46196v0c0,0.53372 0.35064,1.06745 0,1.42322c-0.52602,0.17795 -1.05192,-0.53372 -1.40256,-0.71155c0,-0.17795 0,-0.17795 -0.17538,-0.17795c-1.75319,-0.71155 -1.57794,-2.3126 -1.75319,-3.73583c0,-0.71167 0.35064,-0.71167 0.70128,-0.35578c0.70128,0.5336 1.40256,1.06733 2.27921,1.60105c0.70128,0.53372 0.17526,1.24528 0.35064,1.95683z" fill="#282538" stroke-width="0.14441"/><path d="M216.06998,134.62101c0,0.14466 0.24968,0.43407 0,0.57884c-0.24968,0 -0.24968,-0.14476 -0.49936,-0.28941c-0.24968,-0.28943 -0.49936,-0.57894 -0.87392,-0.72361c-0.87385,-0.43418 -0.99872,-1.15779 -0.99872,-2.17082c0,-0.43418 -0.24968,-1.01302 0.12488,-1.15779c0.37448,-0.14466 0.49937,0.43418 0.74905,0.57895c0.24968,0.14466 0.49936,0.28943 0.62415,0.43409c0.74904,0.57894 1.12361,1.15778 0.99873,1.88139v0c0,0.43418 0,0.57885 -0.1248,0.86837z" data-paper-data="{&quot;index&quot;:null}" fill="#6c6c6c" stroke-width="0.14441"/><path d="M230.30336,104.22629c1.60468,0.58453 3.13173,1.25617 4.30243,2.32936c0.11429,0.10481 0.25686,0.1881 0.31559,0.33014c0.45421,1.09861 1.0409,2.17027 0.77175,3.37972c-0.12441,0.55916 -0.10878,1.13729 -0.15666,1.70682c-0.38207,0.03182 -0.4718,-0.23508 -0.63085,-0.40322c-0.49419,-0.5226 -0.97914,-1.05044 -1.50876,-1.55179c-0.45906,-0.43455 -0.4648,-0.43249 -0.79374,0.09571c-0.42487,0.68229 -0.82688,1.37341 -1.27339,2.04721c-0.11833,0.17852 -0.26352,0.45369 -0.5888,0.12584c-0.38785,-0.789 -0.55622,-1.62358 -0.82721,-2.43634c-0.10859,-0.32567 -0.24029,-0.64638 -0.33978,-0.97334c0.10863,-1.36053 -0.03472,-2.73362 0.31444,-4.08366c0.05797,-0.22414 0.0951,-0.45861 0.41495,-0.56637z" fill="#262626" stroke-width="1"/><path d="M239.07707,181.15415v0c0,0.93402 0.51993,1.86804 0,2.49064c-0.77998,0.3114 -1.55977,-0.93402 -2.0797,-1.24521c0,-0.3114 0,-0.3114 -0.26005,-0.3114c-2.59963,-1.24521 -2.33975,-4.04705 -2.59963,-6.5377c0,-1.24542 0.51993,-1.24543 1.03986,-0.62261c1.03986,0.9338 2.0797,1.86783 3.37961,2.80183c1.03986,0.93402 0.25987,2.17923 0.51993,3.42445z" fill="#282538" stroke-width="0.14441"/><path d="M256.03019,108.84545c0.31984,0.10777 -6.88043,1.48498 -6.82246,1.70912c0.34915,1.35004 5.91955,8.05596 6.02818,9.41649c-0.09949,0.32697 -0.2312,0.64767 -0.33979,0.97334c-0.27099,0.81276 -0.43935,1.64734 -0.82721,2.43634c-0.32528,0.32785 -0.47047,0.05268 -0.5888,-0.12584c-0.44651,-0.67381 -0.84852,-1.36492 -1.27339,-2.04721c-0.32895,-0.5282 -0.33468,-0.53026 -0.79374,-0.09571c-0.52962,0.50135 -1.01457,1.0292 -1.50876,1.55179c-0.15905,0.16814 -0.24878,0.43504 -0.63085,0.40322c-0.04788,-0.56953 -0.03225,-1.14767 -0.15666,-1.70682c-0.26915,-1.20946 0.31753,-2.28112 0.77175,-3.37973c0.05874,-0.14203 0.2013,-0.22533 0.31559,-0.33013c1.1707,-1.07318 2.69775,-1.74483 4.30243,-2.32936z" data-paper-data="{&quot;index&quot;:null}" fill="#262626" stroke-width="1"/><path d="M264.27405,154.60348c0.19009,0.06405 2.47595,4.50461 2.51041,4.63781c0.2075,0.80233 -3.04701,1.16561 -2.98245,1.97418c-0.05913,0.19432 -0.1374,0.38491 -0.20194,0.57846c-0.16105,0.48303 -0.26111,0.97902 -0.49161,1.44793c-0.19331,0.19484 -0.2796,0.03131 -0.34992,-0.07479c-0.26536,-0.40044 -0.50428,-0.81117 -0.75678,-1.21666c-0.19549,-0.31391 1.15937,7.38178 0.88656,7.64004c-0.31475,0.29795 -1.96124,-7.08526 -2.25494,-6.77468c-0.09452,0.09993 -0.14785,0.25855 -0.37492,0.23964c-0.02845,-0.33847 -4.54676,-1.13482 -4.6207,-1.46713c-0.15996,-0.71878 4.71631,-0.90292 4.98625,-1.55582c0.03491,-0.08441 0.11963,-0.13391 0.18756,-0.1962c0.69575,-0.6378 -2.92432,-2.16886 -1.97065,-2.51625z" data-paper-data="{&quot;index&quot;:null}" fill="#262626" stroke-width="1"/><path d="M262.70855,137.93682c-0.59548,-3.02122 0.29764,-5.13604 2.9774,-6.64665c0.89311,-0.30199 1.48859,-1.51061 2.08407,-1.2084c0.59548,0.6042 0.29784,1.8126 0.29784,2.71901c0,0.90641 0.29763,2.11482 -0.59548,3.02123c-1.4888,1.2084 -3.27524,2.11481 -4.76383,3.62542v0c0,-0.90641 0,-1.2084 0,-1.51061z" data-paper-data="{&quot;index&quot;:null}" fill="#2f2c42" stroke-width="0.14441"/><path d="M261.01541,97.71594c-0.21194,-0.49167 -0.21194,-0.73736 -0.21194,-1.47473v0c-0.21208,-1.22888 0.42405,-2.21191 1.69611,-3.19511c0.21194,-0.24567 0.63595,-0.49152 1.05997,-0.73719c0.42402,-0.24586 0.63613,-1.22888 1.27209,-0.98321c0.6361,0.24586 0.21209,1.22888 0.21209,1.96624c0,1.72039 -0.21206,2.94927 -1.69609,3.68664c-0.6361,0.24569 -1.06013,0.73736 -1.48415,1.22888c-0.42402,0.24567 -0.42402,0.4915 -0.84805,0.4915c-0.42402,-0.24586 0,-0.73735 0,-0.98303z" data-paper-data="{&quot;index&quot;:null}" fill="#272727" stroke-width="0.14441"/><path d="M255.60912,185.45081c-1.25869,0.99142 -2.89356,0.66098 -3.08262,-1.36898c-0.25913,-2.78201 1.34675,-4.70155 2.86073,-5.78024c0.73336,-0.52254 1.73014,-0.0189 2.60521,-0.0781c1.74386,-0.11787 1.44275,1.59394 0.92529,3.03548c-0.72445,2.04419 -1.9116,3.54834 -3.30855,4.19194z" data-paper-data="{&quot;index&quot;:null}" fill="#312a22" stroke-width="1"/><path d="M236.84692,61.43998c-0.3082,-0.37058 -0.07954,-0.62617 0.10832,-0.88931c1.13171,-1.58488 -6.22462,-0.06802 0.36346,-4.98128c0.52535,-0.23 3.25791,-5.46722 3.79408,-5.68837c1.3381,-0.55192 0.93403,3.06151 2.40336,2.63002c0.83455,-0.0421 5.00567,-7.23232 4.95451,-6.96242c-0.08295,0.43732 1.02638,2.59888 3.52825,2.84191c3.32548,0.32304 8.28682,-1.29144 8.15394,-0.71585c-0.18025,0.78083 -7.8753,6.87249 -6.73104,6.84002c1.32016,-0.03745 -2.84273,3.8271 -1.54561,3.73965c0.41743,-0.02808 0.85785,-0.20873 1.34145,0.14114c-0.61312,0.58548 1.86246,4.17469 1.36617,4.81423c-1.07342,1.38339 -6.33652,-1.12919 -8.26526,-0.45662c-0.24938,0.08695 -2.62495,1.98517 -2.90581,1.98998c-1.50315,0.02575 -7.28335,-0.18841 -8.24724,-0.9644c-0.88061,-0.70896 3.05956,-1.96547 1.6814,-2.33858z" data-paper-data="{&quot;index&quot;:null}" fill="#1d0000" stroke-width="1"/><path d="M217.5217,88.21196v0c0,0.53372 0.35064,1.06745 0,1.42322c-0.52602,0.17795 -1.05192,-0.53372 -1.40256,-0.71155c0,-0.17795 0,-0.17795 -0.17538,-0.17795c-1.75319,-0.71155 -1.57794,-2.3126 -1.75319,-3.73583c0,-0.71167 0.35064,-0.71167 0.70128,-0.35578c0.70128,0.5336 1.40256,1.06733 2.27921,1.60105c0.70128,0.53372 0.17526,1.24528 0.35064,1.95683z" fill="#282538" stroke-width="0.14441"/><path d="M235.5217,133.71195v0c0,0.53372 0.35064,1.06745 0,1.42322c-0.52602,0.17795 -1.05192,-0.53372 -1.40256,-0.71155c0,-0.17795 0,-0.17795 -0.17538,-0.17795c-1.75319,-0.71155 -1.57794,-2.3126 -1.75319,-3.73583c0,-0.71167 0.35064,-0.71167 0.70128,-0.35578c0.70128,0.5336 1.40256,1.06733 2.27921,1.60105c0.70128,0.53372 0.17526,1.24528 0.35064,1.95683z" fill="#282538" stroke-width="0.14441"/><path d="M233.0217,188.96196v0c0,0.53372 0.35064,1.06745 0,1.42322c-0.52602,0.17795 -1.05192,-0.53372 -1.40256,-0.71155c0,-0.17795 0,-0.17795 -0.17538,-0.17795c-1.75319,-0.71155 -1.57794,-2.3126 -1.75319,-3.73583c0,-0.71167 0.35064,-0.71167 0.70128,-0.35578c0.70128,0.5336 1.40256,1.06733 2.27921,1.60105c0.70128,0.53372 0.17526,1.24528 0.35064,1.95683z" fill="#282538" stroke-width="0.14441"/></g></g></svg>