<svg version="1.1" xmlns="http://www.w3.org/2000/svg" xmlns:xlink="http://www.w3.org/1999/xlink" width="411.19772" height="253.74253" viewBox="0,0,411.19772,253.74253"><g transform="translate(-29.82422,-70.07715)"><g data-paper-data="{&quot;isPaintingLayer&quot;:true}" fill="#000000" fill-rule="nonzero" stroke="none" stroke-width="1" stroke-linecap="butt" stroke-linejoin="miter" stroke-miterlimit="10" stroke-dasharray="" stroke-dashoffset="0" style="mix-blend-mode: normal"><path d="M97.11475,70.94727l4.39209,-0.06055c2.16211,0 3.65315,0.35742 4.47314,1.07226c1.08454,1.19909 1.35298,2.92792 0.68311,4.39942c-0.34042,0.50727 -0.78963,0.93229 -1.31495,1.24414c1.62208,0.4266 2.73668,1.91422 2.69043,3.59082c0.14027,1.48117 -0.68253,2.88605 -2.043,3.48828c-1.38582,0.4686 -2.84839,0.66814 -4.30909,0.58789h-4.69332c0,-0.6875 0.02033,-1.72591 0.061,-3.11523c0.04053,-1.38867 0.06071,-2.43392 0.06055,-3.13575zM101.34275,76.57127c0.59171,0.05294 1.18385,-0.09686 1.6792,-0.42481c0.2791,-0.2513 0.42801,-0.6164 0.4043,-0.99121c0.00675,-0.37518 -0.15225,-0.73426 -0.43457,-0.98144c-0.28383,-0.26037 -0.6569,-0.40162 -1.042,-0.39453h-1.05168v2.792zM102.05075,82.41795c0.48459,0.02844 0.96764,-0.07733 1.396,-0.30567c0.42227,-0.26657 0.6633,-0.74413 0.62695,-1.24218c0.02601,-0.48482 -0.23543,-0.93963 -0.66748,-1.16114c-0.43477,-0.20849 -0.91429,-0.30644 -1.396,-0.28515h-1.11222v2.99419z"/><path d="M116.19092,75.43848l3.80322,-0.02051c-0.04053,0.35058 -0.06738,0.72167 -0.08057,1.11328c-0.01367,0.39063 -0.0205,0.83563 -0.0205,1.335c0,0.84961 0.01351,2.24545 0.04052,4.1875c0.02686,1.94141 0.04037,2.97299 0.04053,3.09473h-3.84375l0.06055,-0.78906c-0.43536,0.35026 -0.92072,0.63335 -1.43994,0.83984c-1.75333,0.63981 -3.7183,0.21463 -5.0503,-1.09277c-0.85626,-1.01055 -1.2983,-2.30773 -1.2373,-3.63086c-0.05211,-1.36448 0.37761,-2.70377 1.21387,-3.78321c0.86614,-1.0673 2.18743,-1.66018 3.56054,-1.59765c0.54255,-0.00225 1.07969,0.1078 1.57764,0.32324c0.49663,0.22485 0.95956,0.5177 1.37549,0.87012zM114.45117,82.458c0.55812,0.02098 1.0963,-0.20908 1.4668,-0.627c0.37527,-0.43044 0.57393,-0.98683 0.55615,-1.55761c0.0185,-0.5447 -0.17752,-1.0749 -0.5459,-1.47656c-0.37124,-0.39445 -0.89529,-0.60852 -1.43652,-0.58683c-0.58157,-0.01988 -1.14666,0.19517 -1.56787,0.59668c-0.8068,0.86795 -0.8241,2.20622 -0.04,3.09473c0.42728,0.38719 0.99156,0.58758 1.56734,0.55659z"/><path d="M129.05713,78.97852c-0.28746,-0.22922 -0.60381,-0.41966 -0.94092,-0.56641c-0.30988,-0.13331 -0.64366,-0.20209 -0.981,-0.20215c-0.53509,0.01543 -1.04164,0.24478 -1.40625,0.63672c-0.40306,0.3498 -0.64138,0.85229 -0.65722,1.38574v0.18258c0.04979,0.53759 0.27766,1.04317 0.64746,1.43652c0.42587,0.3298 0.95974,0.48831 1.49658,0.44434c0.39698,-0.01842 0.78752,-0.10737 1.15332,-0.2627c0.229,-0.081 0.4585,-0.168 0.688,-0.26269v3.07422c-0.41946,0.19844 -0.85638,0.35764 -1.30518,0.47558c-1.76207,0.44922 -3.63243,0.00708 -5.00683,-1.18359c-1.0061,-0.93046 -1.5595,-2.25134 -1.51709,-3.62109c-0.05165,-1.44182 0.47666,-2.8442 1.46679,-3.89356c0.99695,-1.02672 2.38293,-1.58189 3.813,-1.52734c0.4257,0.00577 0.84961,0.0565 1.26465,0.15136c0.43906,0.09321 0.86897,0.22525 1.28467,0.39454z"/><path d="M133.64893,70.07715v9.22461l3.144,-3.86328h4.543l-4.4502,4.835l4.79444,4.95605h-4.65284l-3.37841,-3.68164v3.66111l-3.64112,0.02051v-8.09279c0,-0.78418 -0.01693,-1.96061 -0.05078,-3.5293c-0.03369,-1.56933 -0.05061,-2.74609 -0.05078,-3.53027z"/><path d="M146.57471,75.43848h1.35547v-2.62989h3.68164v2.62989h2.00293v2.42773h-2.00293v7.36328h-3.68164v-7.36328h-1.35547z"/><path d="M159.64355,75.09473c1.4878,-0.05996 2.94911,0.4065 4.127,1.31738c1.16181,0.94973 1.80663,2.39252 1.73926,3.8916c0.08311,1.51495 -0.55427,2.98013 -1.71924,3.95215c-1.20785,0.91107 -2.69684,1.36997 -4.208,1.29687c-1.48546,0.06858 -2.9515,-0.35917 -4.167,-1.21582c-1.19105,-0.91226 -1.85682,-2.35227 -1.78028,-3.85058c-0.06282,-1.53605 0.59575,-3.01322 1.78028,-3.99317c1.19567,-0.95873 2.69645,-1.45512 4.22798,-1.39843zM159.58255,82.51855c0.58517,0.02627 1.15193,-0.20794 1.54785,-0.63964c0.39127,-0.4455 0.59756,-1.02365 0.57666,-1.61621c-0.00287,-0.85491 -0.5235,-1.62282 -1.31662,-1.94195c-0.79312,-0.31913 -1.70052,-0.12584 -2.29471,0.48882c-0.40341,0.40772 -0.62569,0.96068 -0.6167,1.53418c-0.01881,0.57367 0.18805,1.13184 0.57618,1.55469c0.39516,0.4183 0.95239,0.64455 1.52731,0.62011z"/><path d="M171.13281,75.43848h1.35547v-2.62989h3.68164v2.62989h2.00293v2.42773h-2.00293v7.36328h-3.68164v-7.36328h-1.35547z"/><path d="M178.6582,70.09766h3.78272v6.51367c0.45991,-0.41475 0.96162,-0.78064 1.49707,-1.0918c0.55615,-0.28719 1.17443,-0.43308 1.80029,-0.4248c0.9168,-0.07334 1.81946,0.26022 2.46826,0.91211c0.62012,0.70214 0.93034,2.06705 0.93067,4.09472v5.12793h-3.78321v-5.1123c0.02631,-0.44415 -0.07177,-0.88684 -0.2832,-1.27832c-0.25867,-0.35349 -0.66892,-0.56426 -1.10692,-0.56868c-0.438,-0.00442 -0.85243,0.19802 -1.11818,0.54622c-0.26939,0.36233 -0.41167,0.80343 -0.40478,1.25488v5.1582h-3.78272z"/><path d="M193.93115,81.26465c0.09639,1.08857 1.05574,1.89371 2.14453,1.7998c0.30197,-0.00132 0.59836,-0.08143 0.85987,-0.23242c0.29786,-0.17063 0.57313,-0.37798 0.81933,-0.61719h3.72217c-0.45061,1.05627 -1.21736,1.94703 -2.19482,2.54981c-1.0403,0.55692 -2.20939,0.82881 -3.38868,0.78808c-1.44955,0.0841 -2.87818,-0.37673 -4.00537,-1.292c-1.05694,-1.01063 -1.61239,-2.43723 -1.51709,-3.89648c-0.06614,-1.43335 0.51715,-2.8202 1.58789,-3.77539c1.1173,-0.95013 2.54995,-1.44731 4.01563,-1.39356c1.59578,-0.11598 3.16032,0.48464 4.26855,1.63867c0.97659,1.26237 1.45846,2.83799 1.355,4.43067zM197.99756,79.14065c-0.19061,-0.38776 -0.46736,-0.7268 -0.80908,-0.99122c-0.33774,-0.27382 -0.75906,-0.42373 -1.19385,-0.4248c-0.43602,-0.01154 -0.8633,0.1236 -1.21338,0.38379c-0.33833,0.2844 -0.61399,0.63588 -0.80957,1.03223z"/><path d="M214.84863,75.43848h3.82325v9.2041c0.07589,1.33755 -0.44225,2.64043 -1.416,3.56055c-1.0274,0.8796 -2.35103,1.33524 -3.70215,1.27441c-2.29297,0 -3.81689,-0.27995 -4.57178,-0.83984c-0.81436,-0.65934 -1.34917,-1.60233 -1.49707,-2.63965h3.78272c0.15906,0.29717 0.40668,0.53745 0.70849,0.6875c0.35035,0.12353 0.72117,0.17857 1.09229,0.16211c0.57877,0.02889 1.12798,-0.2572 1.436,-0.74805c0.30147,-0.49934 0.44922,-1.0764 0.42481,-1.65918v-0.32324c-0.45645,0.30801 -0.95056,0.55614 -1.47022,0.73828c-0.49965,0.16978 -1.02405,0.25525 -1.55175,0.25293c-1.3042,0.07956 -2.57706,-0.42036 -3.47852,-1.36621c-0.8562,-1.01807 -1.29465,-2.32285 -1.227,-3.65137c-0.05333,-1.32473 0.41512,-2.61752 1.30469,-3.60059c0.91426,-0.94905 2.19344,-1.45766 3.50976,-1.3955c0.52783,-0.00517 1.05112,0.09785 1.5376,0.30273c0.47996,0.2237 0.9401,0.48767 1.37549,0.78906zM211.0249,80.294c0.00232,0.51871 0.21395,1.01451 0.58692,1.375c0.35221,0.38753 0.85181,0.60815 1.37548,0.60742c0.59829,0.03062 1.18073,-0.19822 1.59815,-0.62793c0.40248,-0.44799 0.61306,-1.03605 0.58643,-1.6377c0.01895,-0.53497 -0.19497,-1.05188 -0.58643,-1.417c-0.38897,-0.36291 -0.9047,-0.5589 -1.43652,-0.5459c-0.58281,-0.0216 -1.1454,0.21537 -1.53711,0.64746c-0.39374,0.4377 -0.60391,1.01016 -0.58692,1.59865z"/><path d="M227.37012,75.43848l3.80322,-0.02051c-0.04053,0.35058 -0.06738,0.72167 -0.08057,1.11328c-0.01367,0.39063 -0.0205,0.83563 -0.0205,1.335c0,0.84961 0.01351,2.24545 0.04052,4.1875c0.02686,1.94141 0.04037,2.97299 0.04053,3.09473h-3.84375l0.06055,-0.78906c-0.43536,0.35026 -0.92073,0.63335 -1.43994,0.83984c-1.75333,0.63981 -3.7183,0.21463 -5.0503,-1.09277c-0.85626,-1.01055 -1.2983,-2.30773 -1.2373,-3.63086c-0.05211,-1.36448 0.37761,-2.70377 1.21387,-3.78321c0.86614,-1.0673 2.18743,-1.66018 3.56054,-1.59765c0.54255,-0.00225 1.07969,0.1078 1.57764,0.32324c0.49663,0.22485 0.95956,0.5177 1.37549,0.87012zM225.63037,82.458c0.55811,0.02097 1.09629,-0.20908 1.4668,-0.627c0.37527,-0.43044 0.57393,-0.98683 0.55615,-1.55761c0.0185,-0.5447 -0.17752,-1.0749 -0.5459,-1.47656c-0.37124,-0.39445 -0.89529,-0.60852 -1.43652,-0.58683c-0.58157,-0.01988 -1.14666,0.19517 -1.56787,0.59668c-0.8068,0.86795 -0.8241,2.20622 -0.04,3.09473c0.42728,0.38719 0.99156,0.58758 1.56734,0.55659z"/><path d="M232.34668,78.84375c0,-0.37793 -0.01351,-1.01986 -0.04053,-1.92578c-0.02733,-0.90527 -0.04084,-1.38509 -0.04052,-1.43945h3.76269v1.21386c0.3831,-0.51941 0.90581,-0.91936 1.50732,-1.15332c0.64185,-0.24743 1.32485,-0.3707 2.0127,-0.36328c0.58801,-0.02063 1.16792,0.14179 1.65967,0.46485c0.4511,0.36524 0.84624,0.7946 1.17285,1.27441c0.4097,-0.5429 0.92826,-0.99426 1.52246,-1.3252c0.61276,-0.29418 1.28744,-0.43622 1.9668,-0.41406c0.30489,-0.00468 0.60931,0.0258 0.90722,0.09082c0.9218,0.24529 1.69348,0.87537 2.11817,1.72949c0.20249,0.61254 0.29151,1.25688 0.26269,1.90137v3.419c0,0.44533 0.0166,1.015 0.04981,1.709c0.03418,0.69533 0.05111,1.0967 0.05078,1.2041h-3.78223v-5.32038c0.00167,-0.42553 -0.13319,-0.84038 -0.38476,-1.18359c-0.22345,-0.33987 -0.60501,-0.54208 -1.01172,-0.53614c-0.63084,0.00638 -1.17102,0.45368 -1.29492,1.07227c-0.17954,0.60354 -0.26131,1.23194 -0.24219,1.86133v1.375c0,0.29687 0.02018,0.74218 0.06055,1.33593c0.04,0.59375 0.06018,1.03875 0.06054,1.335h-3.78369v-5.30472c-0.00033,-0.41823 -0.14291,-0.82391 -0.4043,-1.15039c-0.2312,-0.32972 -0.60901,-0.52556 -1.01171,-0.52442c-0.56396,-0.01173 -1.06742,0.35167 -1.23389,0.89063c-0.19099,0.52454 -0.28015,1.08071 -0.2627,1.63867v2.44725l0.06055,2.06347h-3.76269c0,-0.59472 0.01351,-1.59146 0.04052,-2.99023c0.02686,-1.39844 0.04037,-2.14486 0.04053,-2.23926z"/><path d="M253.93262,81.26465c0.09594,1.08881 1.05559,1.89419 2.14453,1.7998c0.30181,-0.00132 0.59804,-0.08144 0.85937,-0.23242c0.29779,-0.17075 0.57304,-0.37809 0.81934,-0.61719h3.72168c-0.45028,1.05633 -1.2169,1.94714 -2.19434,2.54981c-1.04028,0.55698 -2.20938,0.82887 -3.38867,0.78808c-1.44969,0.08401 -2.87844,-0.3768 -4.00586,-1.292c-1.05641,-1.01095 -1.6116,-2.43737 -1.5166,-3.89648c-0.0659,-1.43332 0.51737,-2.82006 1.58793,-3.77538c1.11734,-0.95006 2.54996,-1.44723 4.01563,-1.39356c1.59578,-0.11598 3.16032,0.48464 4.26855,1.63867c0.97675,1.26231 1.45878,2.83793 1.35547,4.43067zM257.99805,79.14065c-0.1906,-0.38763 -0.46716,-0.72664 -0.8086,-0.99122c-0.33764,-0.27366 -0.75875,-0.42357 -1.19336,-0.4248c-0.43618,-0.01162 -0.86364,0.12353 -1.21386,0.38379c-0.33833,0.2844 -0.61399,0.63588 -0.80957,1.03223z"/><path d="M97.35742,105.09473c0.4778,0.39884 0.99268,0.75103 1.5376,1.05175c0.53621,0.31042 1.14057,0.48414 1.75977,0.50586c0.44944,0.01384 0.8929,-0.10578 1.27441,-0.34375c0.38629,-0.23591 0.61758,-0.6598 0.60693,-1.1123c0,-0.75586 -0.53939,-1.30208 -1.61816,-1.63867c-1.02012,-0.27638 -2.02043,-0.62123 -2.99414,-1.03223c-1.10949,-0.67665 -1.74331,-1.92049 -1.63867,-3.21582c-0.02749,-1.20154 0.45379,-2.3588 1.32519,-3.18652c0.86452,-0.84899 2.0357,-1.31218 3.24707,-1.28418c0.89257,-0.02183 1.78397,0.07738 2.6499,0.29492c0.88201,0.28226 1.7301,0.66119 2.52881,1.12988l-1.416,2.82324c-0.42552,-0.33589 -0.89526,-0.61159 -1.396,-0.81933c-0.46713,-0.23161 -0.97646,-0.36584 -1.49707,-0.39453c-0.37402,-0.01415 -0.74165,0.09989 -1.042,0.32324c-0.28042,0.22418 -0.43491,0.57028 -0.41455,0.92871c0,0.52539 0.53271,0.92252 1.59814,1.19141c1.03761,0.20118 2.0397,0.55495 2.97364,1.0498c1.1187,0.80651 1.73296,2.14028 1.61865,3.51465c0.07018,1.37849 -0.47434,2.71716 -1.48682,3.65527c-1.0692,0.91689 -2.44679,1.39336 -3.854,1.333c-0.90093,0.01997 -1.79822,-0.12055 -2.64991,-0.415c-0.8925,-0.35976 -1.73542,-0.832 -2.5083,-1.40527z"/><path d="M114.57227,99.71387l3.80322,-0.02051c-0.04053,0.35059 -0.06738,0.72169 -0.08057,1.11328c-0.01367,0.39063 -0.0205,0.83563 -0.02051,1.335c0,0.84961 0.01351,2.24544 0.04053,4.1875c0.02686,1.94141 0.04037,2.97299 0.04053,3.09473h-3.84375l0.06055,-0.78906c-0.43537,0.35026 -0.92073,0.63335 -1.43995,0.83984c-1.75333,0.63981 -3.7183,0.21463 -5.05029,-1.09277c-0.85626,-1.01055 -1.2983,-2.30773 -1.2373,-3.63086c-0.05211,-1.36447 0.37761,-2.70377 1.21386,-3.78321c0.86615,-1.0673 2.18744,-1.66018 3.56055,-1.59765c0.54255,-0.00225 1.07969,0.1078 1.57764,0.32324c0.49663,0.22485 0.95956,0.5177 1.37549,0.87012zM112.83252,106.7334c0.55811,0.02097 1.09629,-0.20908 1.4668,-0.627c0.37527,-0.43044 0.57394,-0.98684 0.55615,-1.55762c0.0185,-0.5447 -0.17752,-1.0749 -0.5459,-1.47656c-0.37122,-0.39448 -0.89527,-0.60859 -1.43652,-0.58692c-0.58157,-0.01988 -1.14666,0.19517 -1.56787,0.59668c-0.8068,0.86795 -0.8241,2.20622 -0.04,3.09473c0.42726,0.38723 0.99155,0.58765 1.56734,0.55669z"/><path d="M122.52246,99.75391l2.023,4.876l2.16455,-4.876h3.9043l-4.57178,9.791h-2.95361c-0.48533,-1.17285 -0.95733,-2.26498 -1.416,-3.27637c-0.27,-0.59375 -0.78921,-1.67285 -1.55762,-3.2373c-0.53955,-1.06543 -1.07226,-2.1377 -1.59814,-3.2168z"/><path d="M134.27539,105.54c0.09639,1.08857 1.05574,1.89371 2.14453,1.7998c0.30197,-0.00132 0.59836,-0.08143 0.85987,-0.23242c0.29787,-0.17062 0.57313,-0.37798 0.81933,-0.61719h3.72217c-0.45061,1.05628 -1.21736,1.94704 -2.19483,2.54981c-1.0403,0.55693 -2.20938,0.82882 -3.38867,0.78809c-1.44955,0.0841 -2.87818,-0.37673 -4.00537,-1.292c-1.05694,-1.01063 -1.61239,-2.43723 -1.51709,-3.89648c-0.06614,-1.43335 0.51715,-2.8202 1.58789,-3.77539c1.1173,-0.95013 2.54995,-1.44731 4.01563,-1.39356c1.59578,-0.11598 3.16033,0.48464 4.26855,1.63868c0.9766,1.26237 1.45846,2.83799 1.355,4.43066zM138.3418,103.416c-0.19061,-0.38776 -0.46736,-0.72681 -0.80909,-0.99122c-0.33774,-0.27381 -0.75905,-0.42372 -1.19384,-0.42478c-0.43602,-0.01154 -0.8633,0.1236 -1.21338,0.38379c-0.33833,0.2844 -0.61399,0.63588 -0.80957,1.03223z"/><path d="M155.19287,99.71387h3.82324v9.2041c0.07589,1.33755 -0.44225,2.64043 -1.416,3.56055c-1.02739,0.8796 -2.35103,1.33524 -3.70215,1.27441c-2.29297,0 -3.81689,-0.27995 -4.57178,-0.83984c-0.81436,-0.65934 -1.34917,-1.60233 -1.49707,-2.63965h3.78272c0.15905,0.29717 0.40667,0.53745 0.70849,0.6875c0.35035,0.12353 0.72117,0.17857 1.09229,0.16211c0.57877,0.02889 1.12798,-0.2572 1.436,-0.74805c0.30147,-0.49934 0.44922,-1.0764 0.42481,-1.65918v-0.32324c-0.45645,0.30801 -0.95056,0.55614 -1.47022,0.73828c-0.49965,0.16978 -1.02406,0.25526 -1.55176,0.25293c-1.3042,0.07956 -2.57705,-0.42036 -3.47851,-1.36621c-0.85622,-1.01806 -1.29469,-2.32284 -1.22705,-3.65137c-0.05333,-1.32473 0.41512,-2.61752 1.30469,-3.60058c0.91426,-0.94906 2.19343,-1.45767 3.50976,-1.39551c0.52783,-0.00517 1.05112,0.09786 1.5376,0.30273c0.47996,0.2237 0.9401,0.48767 1.37549,0.78906zM151.36914,104.56934c0.00232,0.5187 0.21395,1.0145 0.58691,1.375c0.35222,0.38753 0.85181,0.60815 1.37549,0.60742c0.59829,0.03062 1.18073,-0.19822 1.59815,-0.62793c0.40248,-0.44799 0.61305,-1.03606 0.58642,-1.6377c0.01896,-0.53497 -0.19496,-1.05188 -0.58642,-1.417c-0.38897,-0.36292 -0.9047,-0.5589 -1.43653,-0.5459c-0.58281,-0.02159 -1.14539,0.21538 -1.53711,0.64746c-0.39373,0.4377 -0.6039,1.01016 -0.58691,1.59865z"/><path d="M167.71436,99.71387l3.80322,-0.02051c-0.04053,0.35059 -0.06739,0.72169 -0.08057,1.11328c-0.01367,0.39063 -0.0205,0.83563 -0.02051,1.335c0,0.84961 0.01351,2.24544 0.04053,4.1875c0.02686,1.94141 0.04037,2.97299 0.04053,3.09473h-3.84375l0.06055,-0.78906c-0.43538,0.35026 -0.92077,0.63335 -1.44,0.83984c-1.75333,0.63981 -3.7183,0.21463 -5.05029,-1.09277c-0.85626,-1.01055 -1.2983,-2.30773 -1.2373,-3.63086c-0.05211,-1.36447 0.37761,-2.70377 1.21386,-3.78321c0.86615,-1.0673 2.18744,-1.66018 3.56055,-1.59765c0.54255,-0.00225 1.07969,0.1078 1.57764,0.32324c0.49663,0.22485 0.95956,0.5177 1.37549,0.87012zM165.97461,106.7334c0.55811,0.02097 1.09629,-0.20908 1.4668,-0.627c0.37527,-0.43044 0.57394,-0.98684 0.55615,-1.55762c0.0185,-0.5447 -0.17752,-1.0749 -0.5459,-1.47656c-0.37122,-0.39448 -0.89527,-0.60859 -1.43652,-0.58692c-0.58157,-0.01988 -1.14666,0.19517 -1.56787,0.59668c-0.8068,0.86795 -0.8241,2.20622 -0.04,3.09473c0.42726,0.38723 0.99155,0.58765 1.56734,0.55669z"/><path d="M172.69092,103.11914c0,-0.37793 -0.01351,-1.01986 -0.04053,-1.92578c-0.02733,-0.90527 -0.04084,-1.38509 -0.04053,-1.43945h3.7627v1.21386c0.38309,-0.51942 0.90581,-0.91937 1.50732,-1.15332c0.64186,-0.24738 1.32485,-0.37066 2.0127,-0.36328c0.58773,-0.02085 1.16739,0.14161 1.65869,0.46485c0.45152,0.36493 0.84687,0.79434 1.17334,1.27441c0.40971,-0.5429 0.92826,-0.99426 1.52246,-1.3252c0.61278,-0.29413 1.28745,-0.43617 1.9668,-0.41406c0.30505,-0.00465 0.60963,0.02583 0.90771,0.09082c0.92137,0.2459 1.69268,0.87582 2.11768,1.72949c0.20228,0.61258 0.29113,1.25691 0.2622,1.90137v3.419c0,0.44533 0.01693,1.015 0.05079,1.709c0.03369,0.69533 0.05045,1.0967 0.05029,1.2041h-3.78272v-5.32031c0.00184,-0.42548 -0.13285,-0.84033 -0.38427,-1.18359c-0.22337,-0.33996 -0.60499,-0.54219 -1.01172,-0.53614c-0.63078,0.00627 -1.17088,0.45367 -1.29444,1.07227c-0.1802,0.60341 -0.26214,1.23189 -0.24267,1.86133v1.375c0,0.29687 0.02018,0.74219 0.06055,1.33594c0.04052,0.59375 0.0607,1.03875 0.06054,1.335h-3.78271v-5.30469c-0.00052,-0.41828 -0.14327,-0.82395 -0.40479,-1.15039c-0.23108,-0.32961 -0.60869,-0.52544 -1.01123,-0.52442c-0.56412,-0.01191 -1.06782,0.35152 -1.23437,0.89063c-0.19099,0.52454 -0.28015,1.08071 -0.2627,1.63867v2.44727l0.06055,2.06347h-3.7627c0,-0.59472 0.01351,-1.59146 0.04053,-2.99023c0.02686,-1.39844 0.04037,-2.14486 0.04053,-2.23926z"/><path d="M194.27539,105.54c0.09639,1.08857 1.05574,1.89371 2.14453,1.7998c0.30197,-0.00132 0.59836,-0.08143 0.85987,-0.23242c0.29787,-0.17062 0.57313,-0.37798 0.81933,-0.61719h3.72217c-0.45061,1.05628 -1.21736,1.94704 -2.19483,2.54981c-1.0403,0.55693 -2.20938,0.82882 -3.38867,0.78809c-1.44955,0.0841 -2.87818,-0.37673 -4.00537,-1.292c-1.05694,-1.01063 -1.61239,-2.43723 -1.51709,-3.89648c-0.06614,-1.43335 0.51715,-2.8202 1.58789,-3.77539c1.1173,-0.95013 2.54995,-1.44731 4.01563,-1.39356c1.59578,-0.11598 3.16033,0.48464 4.26855,1.63868c0.9766,1.26237 1.45846,2.83799 1.355,4.43066zM198.3418,103.416c-0.19061,-0.38776 -0.46736,-0.72681 -0.80909,-0.99122c-0.33774,-0.27381 -0.75905,-0.42372 -1.19384,-0.42478c-0.43602,-0.01154 -0.8633,0.1236 -1.21338,0.38379c-0.33833,0.2844 -0.61399,0.63588 -0.80957,1.03223z"/><path d="M97.31689,119.47754l4.10694,0.02051c0,0.24316 -0.01351,0.65787 -0.04053,1.24414c-0.02733,0.58691 -0.04084,0.90039 -0.04053,0.94043v8.78027h4.51123v3.31738h-8.63818c0,-1.05175 0.01693,-2.38703 0.05078,-4.00586c0.0332,-1.61816 0.04996,-2.56216 0.05029,-2.832z"/><path d="M112.08447,123.64551c1.4878,-0.05996 2.94911,0.4065 4.127,1.31738c1.1618,0.94973 1.80662,2.39252 1.73925,3.8916c0.08311,1.51495 -0.55426,2.98013 -1.71923,3.95215c-1.20785,0.91108 -2.69683,1.36998 -4.208,1.29688c-1.48546,0.06858 -2.9515,-0.35917 -4.167,-1.21582c-1.19105,-0.91226 -1.85682,-2.35227 -1.78028,-3.85059c-0.06283,-1.53605 0.59574,-3.01322 1.78028,-3.99316c1.19567,-0.95874 2.69645,-1.45514 4.22798,-1.39844zM112.02347,131.06934c0.58517,0.02627 1.15193,-0.20795 1.54785,-0.63965c0.39127,-0.4455 0.59756,-1.02365 0.57666,-1.61621c-0.00287,-0.85491 -0.5235,-1.62282 -1.31662,-1.94195c-0.79312,-0.31913 -1.70052,-0.12584 -2.29471,0.48882c-0.40341,0.40772 -0.62569,0.96068 -0.6167,1.53418c-0.01881,0.57366 0.18805,1.13183 0.57617,1.55469c0.39516,0.4183 0.9524,0.64455 1.52732,0.62012z"/><path d="M126.24463,123.98926l3.80322,-0.02051c-0.04053,0.35059 -0.06739,0.72168 -0.08056,1.11328c-0.01368,0.39063 -0.02052,0.83563 -0.02051,1.335c0,0.84961 0.01351,2.24545 0.04052,4.1875c0.02686,1.94141 0.04037,2.97298 0.04053,3.09473h-3.84375l0.06055,-0.78906c-0.43536,0.35026 -0.92072,0.63335 -1.43994,0.83984c-1.75333,0.63981 -3.7183,0.21463 -5.0503,-1.09277c-0.85626,-1.01055 -1.2983,-2.30773 -1.2373,-3.63086c-0.05211,-1.36448 0.37761,-2.70377 1.21387,-3.78321c0.86614,-1.0673 2.18743,-1.66018 3.56054,-1.59765c0.54255,-0.00225 1.07969,0.1078 1.57764,0.32324c0.49663,0.22485 0.95956,0.5177 1.37549,0.87012zM124.50488,131.00879c0.55811,0.02099 1.09629,-0.20905 1.4668,-0.62695c0.37527,-0.43044 0.57394,-0.98684 0.55615,-1.55762c0.0185,-0.5447 -0.17752,-1.0749 -0.5459,-1.47656c-0.37122,-0.39448 -0.89527,-0.60859 -1.43652,-0.58692c-0.58157,-0.01988 -1.14666,0.19517 -1.56787,0.59668c-0.8068,0.86795 -0.8241,2.20622 -0.04,3.09473c0.42727,0.38721 0.99156,0.58761 1.56734,0.55664z"/><path d="M138.70605,118.64844h3.68165v15.11133h-3.68165v-0.84961c-0.38404,0.39142 -0.84576,0.69813 -1.35546,0.90039c-0.52963,0.20085 -1.09232,0.30025 -1.6587,0.293c-1.32904,0.05136 -2.60678,-0.51637 -3.45947,-1.53711c-0.83307,-1.02635 -1.26435,-2.3207 -1.21338,-3.64161c-0.0646,-1.39009 0.39352,-2.75401 1.28418,-3.82324c0.93241,-1.00309 2.26424,-1.5371 3.63135,-1.45605c1.00725,0.01539 1.98676,0.33242 2.812,0.91015zM134.84229,128.98633c-0.01075,0.52718 0.20232,1.03425 0.58642,1.39551c0.38301,0.37457 0.90094,0.57878 1.43652,0.5664c0.56123,0.02251 1.10793,-0.1816 1.51709,-0.5664c0.39786,-0.39402 0.61098,-0.93764 0.58692,-1.49707c0.01577,-0.56508 -0.19137,-1.11369 -0.57666,-1.52735c-0.38312,-0.41094 -0.92531,-0.636 -1.48682,-0.61719c-0.57296,-0.02599 -1.12697,0.2084 -1.50732,0.6377c-0.37932,0.4481 -0.57766,1.0217 -0.55615,1.6084z"/><path d="M156.40674,123.98926h3.82326v9.2041c0.07589,1.33755 -0.44225,2.64043 -1.416,3.56055c-1.02739,0.8796 -2.35102,1.33524 -3.70214,1.27441c-2.29297,0 -3.81689,-0.27995 -4.57178,-0.83984c-0.81436,-0.65934 -1.34917,-1.60233 -1.49707,-2.63965h3.78271c0.15906,0.29717 0.40668,0.53745 0.7085,0.6875c0.35034,0.12353 0.72116,0.17856 1.09228,0.16211c0.57877,0.02889 1.12797,-0.25721 1.436,-0.74805c0.30147,-0.49934 0.44921,-1.0764 0.4248,-1.65918v-0.32321c-0.45645,0.30801 -0.95056,0.55614 -1.47021,0.73828c-0.49965,0.16978 -1.02406,0.25526 -1.55176,0.25293c-1.3042,0.07956 -2.57705,-0.42036 -3.47851,-1.36621c-0.8562,-1.01807 -1.29465,-2.32285 -1.227,-3.65137c-0.05334,-1.32473 0.41511,-2.61752 1.30468,-3.60058c0.91426,-0.94906 2.19344,-1.45767 3.50977,-1.39551c0.52783,-0.00517 1.05112,0.09786 1.5376,0.30273c0.47996,0.2237 0.94009,0.48767 1.37548,0.78906zM152.58301,128.84473c0.00232,0.5187 0.21395,1.0145 0.58691,1.375c0.35222,0.38753 0.85181,0.60815 1.37549,0.60742c0.59829,0.03062 1.18072,-0.19822 1.59814,-0.62793c0.40248,-0.44799 0.61306,-1.03605 0.58643,-1.6377c0.01896,-0.53497 -0.19497,-1.05188 -0.58643,-1.417c-0.38897,-0.36292 -0.9047,-0.5589 -1.43652,-0.5459c-0.58281,-0.02159 -1.14539,0.21538 -1.53711,0.64746c-0.39374,0.4377 -0.60391,1.01016 -0.58692,1.59865z"/><path d="M168.92822,123.98926l3.80323,-0.02051c-0.04053,0.35059 -0.06738,0.72168 -0.08057,1.11328c-0.01367,0.39063 -0.0205,0.83563 -0.02051,1.335c0,0.84961 0.01351,2.24545 0.04053,4.1875c0.02685,1.94141 0.04036,2.97298 0.04053,3.09473h-3.84375l0.06054,-0.78906c-0.43536,0.35026 -0.92072,0.63335 -1.43994,0.83984c-1.75333,0.63981 -3.7183,0.21463 -5.05029,-1.09277c-0.85626,-1.01055 -1.29831,-2.30773 -1.23731,-3.63086c-0.05211,-1.36448 0.37761,-2.70377 1.21387,-3.78321c0.86615,-1.0673 2.18744,-1.66018 3.56055,-1.59765c0.54255,-0.00225 1.07969,0.1078 1.57763,0.32324c0.49663,0.22485 0.95956,0.5177 1.37549,0.87012zM167.18848,131.00879c0.5581,0.02098 1.09628,-0.20905 1.46679,-0.62695c0.37528,-0.43044 0.57394,-0.98684 0.55616,-1.55762c0.0185,-0.5447 -0.17752,-1.0749 -0.5459,-1.47656c-0.37123,-0.39448 -0.89528,-0.60859 -1.43653,-0.58692c-0.58157,-0.01988 -1.14666,0.19517 -1.56787,0.59668c-0.8068,0.86795 -0.8241,2.20622 -0.04,3.09473c0.42727,0.38721 0.99156,0.58761 1.56735,0.55664z"/><path d="M173.90479,127.39453c0,-0.37793 -0.01351,-1.01986 -0.04053,-1.92578c-0.02733,-0.90527 -0.04084,-1.38509 -0.04053,-1.43945h3.7627v1.21386c0.38309,-0.51942 0.90581,-0.91937 1.50732,-1.15332c0.64186,-0.24738 1.32485,-0.37066 2.0127,-0.36328c0.58773,-0.02084 1.16739,0.14161 1.65869,0.46485c0.45152,0.36493 0.84687,0.79434 1.17334,1.27441c0.4097,-0.5429 0.92826,-0.99426 1.52246,-1.32519c0.61277,-0.29414 1.28744,-0.43618 1.96679,-0.41407c0.30506,-0.00465 0.60963,0.02583 0.90772,0.09082c0.92137,0.2459 1.69268,0.87582 2.11768,1.7295c0.20228,0.61257 0.29114,1.2569 0.2622,1.90136v3.41895c0,0.44533 0.01693,1.015 0.05078,1.709c0.03369,0.69533 0.05045,1.0967 0.0503,1.2041h-3.78272v-5.32029c0.00184,-0.42548 -0.13285,-0.84034 -0.38428,-1.18359c-0.22337,-0.33996 -0.60498,-0.54219 -1.01171,-0.53614c-0.63078,0.00627 -1.17088,0.45367 -1.29444,1.07227c-0.18021,0.60341 -0.26215,1.23189 -0.24267,1.86133v1.375c0,0.29687 0.02018,0.74218 0.06054,1.33594c0.04053,0.59375 0.06071,1.03875 0.06055,1.335h-3.78268v-5.30481c-0.00052,-0.41828 -0.14326,-0.82395 -0.40478,-1.15039c-0.23108,-0.32961 -0.60869,-0.52544 -1.01123,-0.52442c-0.56412,-0.0119 -1.06781,0.35153 -1.23438,0.89063c-0.19098,0.52455 -0.28014,1.08071 -0.26269,1.63867v2.44727l0.06055,2.06347h-3.7627c0,-0.59472 0.01351,-1.59146 0.04053,-2.99023c0.02685,-1.39844 0.04036,-2.14486 0.04053,-2.23926z"/><path d="M195.48926,129.81543c0.09639,1.08857 1.05574,1.89371 2.14453,1.7998c0.30196,-0.00131 0.59835,-0.08143 0.85986,-0.23242c0.29787,-0.17062 0.57314,-0.37797 0.81934,-0.61718h3.72217c-0.45062,1.05627 -1.21737,1.94703 -2.19483,2.5498c-1.0403,0.55692 -2.20938,0.82881 -3.38867,0.78809c-1.44955,0.0841 -2.87818,-0.37673 -4.00537,-1.292c-1.05694,-1.01063 -1.61239,-2.43723 -1.51709,-3.89648c-0.06614,-1.43335 0.51715,-2.8202 1.58789,-3.77539c1.11729,-0.95013 2.54995,-1.44731 4.01562,-1.39356c1.59578,-0.11598 3.16033,0.48464 4.26856,1.63868c0.9766,1.26237 1.45846,2.83799 1.355,4.43066zM199.55566,127.69143c-0.19061,-0.38776 -0.46736,-0.7268 -0.80908,-0.99121c-0.33774,-0.27382 -0.75906,-0.42374 -1.19385,-0.42481c-0.43602,-0.01154 -0.8633,0.12361 -1.21337,0.38379c-0.33833,0.28439 -0.61399,0.63587 -0.80957,1.03223z"/><path d="M97.35742,153.64551c0.4778,0.39884 0.99268,0.75104 1.5376,1.05176c0.53622,0.31041 1.14057,0.48414 1.75977,0.50586c0.44943,0.01383 0.89289,-0.10578 1.27441,-0.34375c0.38629,-0.23591 0.61758,-0.6598 0.60693,-1.11231c0,-0.75586 -0.53939,-1.30208 -1.61816,-1.63867c-1.02012,-0.27637 -2.02044,-0.62123 -2.99414,-1.03223c-1.10949,-0.67665 -1.74331,-1.92049 -1.63867,-3.21582c-0.02749,-1.20154 0.45379,-2.3588 1.32519,-3.18652c0.86452,-0.84899 2.0357,-1.31218 3.24707,-1.28418c0.89257,-0.02183 1.78397,0.07738 2.6499,0.29492c0.88201,0.28226 1.7301,0.66119 2.52881,1.12988l-1.416,2.82325c-0.42552,-0.3359 -0.89526,-0.6116 -1.396,-0.81934c-0.46713,-0.23161 -0.97646,-0.36584 -1.49707,-0.39453c-0.37402,-0.01415 -0.74165,0.09989 -1.042,0.32324c-0.28042,0.22418 -0.43491,0.57028 -0.41455,0.92871c0,0.52539 0.53271,0.92252 1.59814,1.19141c1.03761,0.20118 2.0397,0.55495 2.97364,1.0498c1.1187,0.80651 1.73296,2.14028 1.61865,3.51465c0.07018,1.37849 -0.47434,2.71716 -1.48682,3.65527c-1.0692,0.91689 -2.44679,1.39337 -3.854,1.333c-0.90093,0.01997 -1.79822,-0.12055 -2.64991,-0.415c-0.89251,-0.35975 -1.73542,-0.83199 -2.5083,-1.40527z"/><path d="M110.52637,154.09082c0.09638,1.08858 1.05574,1.89372 2.14453,1.79981c0.30196,-0.00132 0.59835,-0.08144 0.85986,-0.23243c0.29787,-0.17062 0.57314,-0.37797 0.81934,-0.61718h3.72217c-0.45062,1.05627 -1.21737,1.94703 -2.19483,2.5498c-1.0403,0.55692 -2.20938,0.82881 -3.38867,0.78809c-1.44955,0.0841 -2.87818,-0.37673 -4.00537,-1.292c-1.05694,-1.01063 -1.61239,-2.43723 -1.51709,-3.89648c-0.06614,-1.43335 0.51715,-2.8202 1.58789,-3.77539c1.11729,-0.95013 2.54995,-1.44731 4.01562,-1.39356c1.59578,-0.11598 3.16033,0.48464 4.26856,1.63868c0.9766,1.26237 1.45846,2.83799 1.355,4.43066zM114.59277,151.96682c-0.19061,-0.38776 -0.46736,-0.7268 -0.80908,-0.99121c-0.33774,-0.27382 -0.75906,-0.42374 -1.19385,-0.42481c-0.43602,-0.01154 -0.8633,0.12361 -1.21338,0.38379c-0.33833,0.2844 -0.61399,0.63588 -0.80957,1.03223z"/><path d="M118.335,148.26465h1.35547v-2.62988h3.68164v2.62988h2.00289v2.42773h-2.00293v7.36328h-3.68164v-7.36328h-1.35543z"/><path d="M125.17285,148.26465h1.35547v-2.62988h3.68168v2.62988h2.00293v2.42773h-2.00293v7.36328h-3.68164v-7.36328h-1.35547z"/><path d="M134.94385,143.34863c0.5282,-0.01011 1.03704,0.1988 1.40576,0.57715c0.38087,0.37523 0.58958,0.89128 0.57666,1.42578c0.01596,0.52827 -0.19819,1.03744 -0.58691,1.39551c-0.38204,0.3609 -0.89055,0.5573 -1.416,0.54688c-0.51982,0.01301 -1.02293,-0.18415 -1.39551,-0.54688c-0.37506,-0.3574 -0.58091,-0.85713 -0.5664,-1.375c-0.00346,-0.53176 0.208,-1.04239 0.58642,-1.416c0.35839,-0.39091 0.86566,-0.61164 1.39598,-0.60744zM133.08252,148.30469h3.74268v9.751h-3.8032l0.06055,-5.07714z"/><path d="M138.38232,153.50391c0,-0.78223 -0.00683,-1.42286 -0.0205,-1.92188c-0.05371,-1.96875 -0.08057,-3.04752 -0.08057,-3.23633h3.78275v1.0918c0.35095,-0.32173 0.72145,-0.62145 1.10938,-0.89746c0.6633,-0.4181 1.43431,-0.6333 2.21826,-0.61914c1.01414,-0.08704 2.00496,0.33705 2.64209,1.13086c0.54951,0.85836 0.81103,1.86957 0.74658,2.88672v2.78613c0,0.37695 0.01351,1.00943 0.04053,1.89746c0.02686,0.88867 0.04037,1.36653 0.04053,1.43359h-3.84375v-5.36035c0.01586,-0.4385 -0.12389,-0.86848 -0.39453,-1.21386c-0.27633,-0.33037 -0.69255,-0.51069 -1.12256,-0.48633c-0.47314,-0.0074 -0.90907,0.25567 -1.12305,0.67773c-0.26079,0.44465 -0.39707,0.95132 -0.39453,1.4668c0,0.5664 0.01351,1.50715 0.04053,2.82226c0.02685,1.31446 0.04036,2.01238 0.04052,2.09375h-3.78271c0,-0.49902 0.01676,-1.25423 0.05029,-2.26562c0.03366,-1.01172 0.05057,-1.77376 0.05074,-2.28613z"/><path d="M157.62061,148.26465h3.82324v9.2041c0.07589,1.33755 -0.44225,2.64043 -1.416,3.56055c-1.02739,0.8796 -2.35103,1.33524 -3.70215,1.27441c-2.29297,0 -3.81689,-0.27995 -4.57177,-0.83984c-0.81436,-0.65934 -1.34917,-1.60233 -1.49707,-2.63965h3.78271c0.15906,0.29717 0.40668,0.53745 0.7085,0.6875c0.35034,0.12353 0.72116,0.17857 1.09228,0.16211c0.57877,0.02889 1.12797,-0.25721 1.436,-0.74805c0.30147,-0.49934 0.44921,-1.0764 0.4248,-1.65918v-0.32324c-0.45644,0.30802 -0.95056,0.55614 -1.47021,0.73828c-0.49965,0.16978 -1.02406,0.25526 -1.55176,0.25293c-1.3042,0.07956 -2.57706,-0.42036 -3.47852,-1.36621c-0.8562,-1.01807 -1.29465,-2.32285 -1.227,-3.65137c-0.05333,-1.32473 0.41512,-2.61752 1.30469,-3.60058c0.91426,-0.94906 2.19344,-1.45767 3.50977,-1.39551c0.52783,-0.00517 1.05112,0.09786 1.53759,0.30273c0.47996,0.22371 0.9401,0.48767 1.37549,0.78907zM153.79688,153.12012c0.00232,0.5187 0.21395,1.0145 0.58691,1.375c0.35222,0.38753 0.85181,0.60815 1.37549,0.60742c0.59829,0.03062 1.18072,-0.19822 1.59814,-0.62793c0.40248,-0.44799 0.61306,-1.03605 0.58643,-1.6377c0.01896,-0.53497 -0.19497,-1.05188 -0.58643,-1.417c-0.38897,-0.36291 -0.9047,-0.5589 -1.43652,-0.5459c-0.58281,-0.0216 -1.1454,0.21537 -1.53711,0.64746c-0.39373,0.4377 -0.6039,1.01016 -0.58691,1.59865z"/><path d="M163.14209,154.57617c0.47172,0.26423 0.9608,0.49621 1.46387,0.69434c0.499,0.19788 1.02925,0.30535 1.56592,0.31738c0.22796,-0.01017 0.45059,-0.0723 0.65087,-0.18164c0.24414,-0.12109 0.36621,-0.26855 0.36621,-0.44434c0,-0.1875 -0.70133,-0.50325 -2.104,-0.94726c-1.25646,-0.25724 -2.14492,-1.38219 -2.104,-2.66406c-0.04633,-0.96382 0.38551,-1.88852 1.15429,-2.47168c0.80022,-0.59496 1.77713,-0.90382 2.77393,-0.877c1.19805,0.00466 2.38272,0.25215 3.48242,0.72754l-0.80908,2.73145c-0.35893,-0.1625 -0.72687,-0.30433 -1.102,-0.42481c-0.37516,-0.12682 -0.76763,-0.19501 -1.16358,-0.20215c-0.17946,0.00075 -0.35429,0.05704 -0.50048,0.16114c-0.14304,0.08444 -0.23183,0.23723 -0.23438,0.40332c0,0.20215 0.70117,0.51172 2.10352,0.92871c1.29097,0.26989 2.18744,1.44743 2.104,2.76367c0.0171,1.06101 -0.56088,2.04241 -1.49707,2.542c-0.91005,0.51985 -1.94607,0.77806 -2.99365,0.7461c-0.66183,0.01404 -1.32323,-0.04359 -1.97266,-0.17188c-0.68722,-0.17419 -1.36008,-0.40076 -2.01269,-0.67773z"/><path d="M96.99316,167.98828l4.127,-0.02051l-0.08057,1.457v3.92481l4.57178,-0.02051l0.06055,-2.49805c0,-0.31152 -0.01009,-0.78515 -0.03028,-1.42089c-0.02051,-0.63672 -0.0306,-1.11752 -0.03027,-1.44239h4.167c0,1.04004 -0.01009,2.75196 -0.03027,5.13575c-0.02,2.38378 -0.03009,3.65005 -0.03028,3.79882l0.06055,5.40821l-4.167,0.0205l0.06055,-3.68847l-0.06055,-1.95508h-4.55225l-0.01953,2.97363c0,0.29688 0.01333,0.74188 0.04,1.335c0.02686,0.59375 0.04037,1.03875 0.04053,1.335h-4.228c0,-0.58007 0.01693,-1.31184 0.05078,-2.19531c0.03369,-0.88281 0.05046,-1.39193 0.05029,-1.52734v-10.62017z"/><path d="M114.53174,178.36621c0.09638,1.08858 1.05574,1.89372 2.14453,1.79981c0.30196,-0.00132 0.59835,-0.08144 0.85986,-0.23243c0.29787,-0.17062 0.57314,-0.37797 0.81934,-0.61718h3.72217c-0.45062,1.05627 -1.21737,1.94703 -2.19483,2.5498c-1.0403,0.55692 -2.20938,0.82881 -3.38867,0.78809c-1.44955,0.0841 -2.87818,-0.37673 -4.00537,-1.292c-1.05694,-1.01063 -1.61239,-2.43723 -1.51709,-3.89648c-0.06614,-1.43335 0.51715,-2.8202 1.58789,-3.77539c1.1173,-0.95013 2.54995,-1.4473 4.01563,-1.39355c1.59578,-0.11598 3.16033,0.48464 4.26855,1.63867c0.9766,1.26237 1.45846,2.83799 1.355,4.43066zM118.59814,176.24221c-0.19061,-0.38776 -0.46736,-0.7268 -0.80908,-0.99121c-0.33774,-0.27382 -0.75906,-0.42374 -1.19385,-0.42481c-0.43602,-0.01154 -0.8633,0.12361 -1.21337,0.38379c-0.33833,0.28439 -0.61399,0.63587 -0.80957,1.03223z"/><path d="M123.37207,167.19922h3.82373v15.13183l-3.82373,-0.0205c0,-1.17285 0.01009,-2.6696 0.03027,-4.49024c0.02051,-1.82129 0.03077,-2.87338 0.03077,-3.15625z"/><path d="M128.71289,172.54h3.54v0.95117c0.75088,-0.8548 1.84422,-1.32966 2.98145,-1.29492c1.35648,-0.05713 2.66437,0.51035 3.54931,1.54c0.86196,1.03912 1.30987,2.35992 1.25781,3.709c0.04035,1.31197 -0.38228,2.5963 -1.19384,3.62793c-0.8095,1.03571 -2.06456,1.62306 -3.37842,1.58106c-0.58254,0.00357 -1.16223,-0.0814 -1.71924,-0.252c-0.5443,-0.17147 -1.05196,-0.44268 -1.49707,-0.7998v4.95605h-3.54zM132.0708,177.51656c-0.02303,0.55476 0.2123,1.08888 0.63721,1.44629c0.4403,0.36295 0.99752,0.55349 1.56787,0.53613c0.54856,0.01996 1.07536,-0.21558 1.42627,-0.63769c0.36034,-0.43357 0.55087,-0.98331 0.53613,-1.54688c0.02626,-0.53245 -0.19377,-1.0474 -0.59668,-1.39648c-0.42423,-0.34626 -0.96009,-0.5261 -1.50732,-0.50586c-0.5613,-0.02844 -1.10857,0.18111 -1.50733,0.57715c-0.38221,0.41425 -0.58252,0.96436 -0.55615,1.52738z"/><path d="M97.11475,192.32422l4.39209,-0.06055c2.16211,0 3.65315,0.35742 4.47314,1.07227c1.08454,1.19908 1.35298,2.92791 0.68311,4.39941c-0.34042,0.50727 -0.78963,0.93229 -1.31495,1.24414c1.62208,0.4266 2.73668,1.91422 2.69043,3.59082c0.14027,1.48117 -0.68253,2.88605 -2.043,3.48828c-1.38582,0.4686 -2.84839,0.66814 -4.30909,0.58789h-4.69332c0,-0.6875 0.02033,-1.72591 0.061,-3.11523c0.04053,-1.38867 0.06071,-2.43391 0.06055,-3.13574zM101.34275,197.94822c0.59171,0.05294 1.18384,-0.09686 1.6792,-0.4248c0.2791,-0.2513 0.42801,-0.6164 0.4043,-0.99121c0.00675,-0.37518 -0.15224,-0.73426 -0.43457,-0.98145c-0.28383,-0.26036 -0.65691,-0.40162 -1.042,-0.39453h-1.05168v2.792zM102.05075,203.7949c0.48459,0.02844 0.96763,-0.07733 1.396,-0.30566c0.42227,-0.26658 0.6633,-0.74414 0.62695,-1.24219c0.02601,-0.48482 -0.23544,-0.93963 -0.66748,-1.16113c-0.43477,-0.20849 -0.91429,-0.30644 -1.396,-0.28516h-1.11222v2.99414z"/><path d="M116.19092,196.81543l3.80322,-0.02051c-0.04053,0.35059 -0.06738,0.72169 -0.08057,1.11328c-0.01367,0.39063 -0.0205,0.83563 -0.0205,1.335c0,0.84961 0.01351,2.24545 0.04052,4.1875c0.02686,1.94141 0.04037,2.97299 0.04053,3.09473h-3.84375l0.06055,-0.78906c-0.43536,0.35027 -0.92072,0.63335 -1.43994,0.83984c-1.75333,0.63981 -3.7183,0.21463 -5.0503,-1.09277c-0.85626,-1.01055 -1.2983,-2.30773 -1.2373,-3.63086c-0.05212,-1.36447 0.37761,-2.70377 1.21387,-3.7832c0.86614,-1.06731 2.18743,-1.66019 3.56054,-1.59766c0.54255,-0.00225 1.07969,0.1078 1.57764,0.32324c0.49663,0.22485 0.95956,0.5177 1.37549,0.87012zM114.45117,203.83496c0.55811,0.02099 1.09629,-0.20904 1.4668,-0.62695c0.37527,-0.43044 0.57394,-0.98684 0.55615,-1.55762c0.0185,-0.5447 -0.17752,-1.0749 -0.5459,-1.47656c-0.37123,-0.39447 -0.89527,-0.60858 -1.43652,-0.58692c-0.58157,-0.01988 -1.14666,0.19517 -1.56787,0.59668c-0.8068,0.86795 -0.8241,2.20622 -0.04,3.09473c0.42726,0.38722 0.99155,0.58764 1.56734,0.55668z"/><path d="M129.05713,200.35547c-0.28746,-0.22922 -0.60381,-0.41966 -0.94092,-0.56641c-0.30988,-0.13331 -0.64366,-0.20209 -0.981,-0.20215c-0.53509,0.01543 -1.04164,0.24478 -1.40625,0.63672c-0.40306,0.34981 -0.64138,0.8523 -0.65722,1.38575v0.18261c0.04979,0.53759 0.27766,1.04317 0.64746,1.43653c0.42587,0.32979 0.95974,0.48829 1.49658,0.44433c0.39698,-0.01841 0.78752,-0.10737 1.15332,-0.26269c0.229,-0.08106 0.4585,-0.168 0.688,-0.2627v3.07422c-0.41946,0.19844 -0.85638,0.35765 -1.30518,0.47559c-1.76207,0.44921 -3.63242,0.00706 -5.00683,-1.1836c-1.0061,-0.93046 -1.5595,-2.25134 -1.51709,-3.62109c-0.05165,-1.44182 0.47666,-2.8442 1.46679,-3.89356c0.99695,-1.02672 2.38293,-1.58189 3.813,-1.52734c0.42571,0.00577 0.84961,0.0565 1.26465,0.15137c0.43906,0.09321 0.86898,0.22524 1.28467,0.39453z"/><path d="M133.64893,191.4541v9.22461l3.144,-3.86328h4.543l-4.4502,4.835l4.79444,4.95606h-4.65284l-3.37841,-3.68165v3.66114l-3.64112,0.02051v-8.09278c0,-0.78418 -0.01693,-1.96061 -0.05078,-3.52929c-0.03369,-1.56933 -0.05061,-2.74609 -0.05078,-3.53028z"/><path d="M146.57471,196.81543h1.35547v-2.62988h3.68164v2.62988h2.00293v2.42773h-2.00293v7.36329h-3.68164v-7.36329h-1.35547z"/><path d="M159.64355,196.47168c1.4878,-0.05996 2.94911,0.4065 4.127,1.31738c1.16181,0.94973 1.80663,2.39252 1.73926,3.8916c0.08311,1.51495 -0.55427,2.98013 -1.71924,3.95215c-1.20785,0.91108 -2.69683,1.36998 -4.208,1.29688c-1.48546,0.06858 -2.9515,-0.35917 -4.167,-1.21582c-1.19104,-0.91226 -1.85682,-2.35227 -1.78028,-3.85059c-0.06282,-1.53605 0.59575,-3.01322 1.78028,-3.99316c1.19567,-0.95874 2.69645,-1.45513 4.22798,-1.39844zM159.58255,203.89551c0.58517,0.02627 1.15193,-0.20795 1.54785,-0.63965c0.39127,-0.4455 0.59756,-1.02365 0.57666,-1.61621c-0.00287,-0.85491 -0.5235,-1.62282 -1.31662,-1.94195c-0.79312,-0.31913 -1.70052,-0.12584 -2.29471,0.48882c-0.40341,0.40772 -0.62569,0.96068 -0.6167,1.53418c-0.01881,0.57367 0.18805,1.13184 0.57618,1.55469c0.39516,0.41831 0.95239,0.64455 1.52731,0.62012z"/><path d="M171.5376,200.2207c0,-0.37793 -0.01351,-1.01985 -0.04053,-1.92578c-0.02733,-0.90527 -0.04084,-1.38509 -0.04053,-1.43945h3.7627v1.21387c0.38309,-0.51942 0.9058,-0.91937 1.50732,-1.15332c0.64186,-0.24739 1.32485,-0.37067 2.0127,-0.36329c0.58773,-0.02085 1.16739,0.14161 1.65869,0.46485c0.45152,0.36494 0.84687,0.79434 1.17334,1.27441c0.40971,-0.54289 0.92826,-0.99426 1.52246,-1.32519c0.61278,-0.29414 1.28744,-0.43618 1.9668,-0.41407c0.30505,-0.00465 0.60963,0.02583 0.90771,0.09082c0.92137,0.2459 1.69268,0.87582 2.11768,1.7295c0.20228,0.61257 0.29114,1.2569 0.2622,1.90136v3.419c0,0.44533 0.01693,1.015 0.05079,1.709c0.03369,0.69533 0.05045,1.0967 0.05029,1.20411h-3.78272v-5.32032c0.00184,-0.42548 -0.13285,-0.84033 -0.38427,-1.18359c-0.22337,-0.33996 -0.60499,-0.54218 -1.01172,-0.53613c-0.63078,0.00627 -1.17088,0.45367 -1.29444,1.07226c-0.1802,0.60339 -0.26214,1.23184 -0.24267,1.86126v1.375c0,0.29688 0.02018,0.74219 0.06055,1.33594c0.04052,0.59375 0.0607,1.03875 0.06054,1.335h-3.78271v-5.30469c-0.00052,-0.41828 -0.14327,-0.82395 -0.40479,-1.15039c-0.23108,-0.32961 -0.60869,-0.52543 -1.01123,-0.52441c-0.56412,-0.01191 -1.06782,0.35151 -1.23437,0.89062c-0.19099,0.52454 -0.28015,1.08071 -0.2627,1.63867v2.44726l0.06055,2.06348h-3.7627c0,-0.59473 0.01351,-1.59147 0.04053,-2.99024c0.02686,-1.39844 0.04037,-2.14486 0.04053,-2.23926z"/><path d="M197.168,196.81543l3.80322,-0.02051c-0.04053,0.35059 -0.06739,0.72169 -0.08056,1.11328c-0.01368,0.39063 -0.02052,0.83563 -0.02051,1.335c0,0.84961 0.01351,2.24545 0.04052,4.1875c0.02686,1.94141 0.04037,2.97299 0.04053,3.09473h-3.84375l0.06055,-0.78906c-0.43536,0.35027 -0.92072,0.63335 -1.43994,0.83984c-1.75333,0.63981 -3.7183,0.21463 -5.0503,-1.09277c-0.85626,-1.01055 -1.2983,-2.30773 -1.2373,-3.63086c-0.05212,-1.36447 0.37761,-2.70377 1.21387,-3.7832c0.86614,-1.06731 2.18743,-1.66019 3.56054,-1.59766c0.54255,-0.00225 1.07969,0.1078 1.57764,0.32324c0.49663,0.22485 0.95956,0.5177 1.37549,0.87012zM195.42825,203.83496c0.55811,0.02099 1.09629,-0.20904 1.4668,-0.62695c0.37527,-0.43044 0.57394,-0.98684 0.55615,-1.55762c0.0185,-0.5447 -0.17752,-1.0749 -0.5459,-1.47656c-0.37122,-0.39448 -0.89527,-0.60859 -1.43652,-0.58692c-0.58157,-0.01988 -1.14666,0.19517 -1.56787,0.59668c-0.8068,0.86795 -0.8241,2.20622 -0.04,3.09473c0.42725,0.38721 0.99153,0.58763 1.56731,0.55668z"/><path d="M204.67334,191.89941c0.5282,-0.01011 1.03704,0.1988 1.40576,0.57715c0.38087,0.37523 0.58958,0.89128 0.57666,1.42578c0.01596,0.52827 -0.19819,1.03744 -0.58691,1.39551c-0.38204,0.3609 -0.89055,0.5573 -1.416,0.54688c-0.51982,0.01301 -1.02293,-0.18415 -1.39551,-0.54688c-0.37506,-0.3574 -0.58091,-0.85712 -0.5664,-1.375c-0.00347,-0.53177 0.208,-1.04239 0.58642,-1.416c0.35839,-0.39091 0.86566,-0.61164 1.39598,-0.60744zM202.81201,196.85547h3.74268v9.751h-3.80323l0.06055,-5.07715z"/><path d="M208.1123,202.05469c0,-0.78223 -0.00683,-1.42285 -0.0205,-1.92188c-0.05371,-1.96875 -0.08057,-3.04752 -0.08057,-3.23633h3.78277v1.0918c0.35094,-0.32173 0.72144,-0.62145 1.10937,-0.89746c0.6633,-0.4181 1.43431,-0.6333 2.21826,-0.61914c1.01414,-0.08704 2.00496,0.33705 2.64209,1.13086c0.54951,0.85836 0.81103,1.86957 0.74658,2.88672v2.78613c0,0.37695 0.01351,1.00944 0.04053,1.89746c0.02686,0.88867 0.04037,1.36653 0.04053,1.4336h-3.84375v-5.36036c0.01586,-0.4385 -0.12389,-0.86848 -0.39453,-1.21386c-0.27633,-0.33037 -0.69255,-0.51069 -1.12256,-0.48633c-0.47314,-0.0074 -0.90907,0.25567 -1.12305,0.67773c-0.26079,0.44465 -0.39707,0.95132 -0.39453,1.4668c0,0.56641 0.01351,1.50717 0.04053,2.82227c0.02685,1.31445 0.04036,2.01237 0.04053,2.09375h-3.78272c0,-0.49903 0.01676,-1.25424 0.05029,-2.26563c0.03366,-1.01172 0.05057,-1.77376 0.05073,-2.28613z"/><path d="M225.125,200.2207c0,-0.37793 -0.01351,-1.01985 -0.04053,-1.92578c-0.02733,-0.90527 -0.04084,-1.38509 -0.04052,-1.43945h3.76269v1.21387c0.3831,-0.51943 0.90583,-0.91939 1.50736,-1.15334c0.64186,-0.24739 1.32485,-0.37067 2.0127,-0.36329c0.58773,-0.02085 1.16739,0.14161 1.65869,0.46485c0.45152,0.36493 0.84687,0.79434 1.17334,1.27441c0.40971,-0.54289 0.92826,-0.99426 1.52246,-1.32519c0.61276,-0.29419 1.28744,-0.43623 1.9668,-0.41407c0.30489,-0.00467 0.60931,0.0258 0.90723,0.09082c0.92187,0.24539 1.69367,0.87542 2.11865,1.7295c0.20249,0.61253 0.29151,1.25687 0.26269,1.90136v3.419c0,0.44533 0.0166,1.015 0.04981,1.709c0.03418,0.69533 0.05111,1.0967 0.05078,1.20411h-3.78272v-5.32032c0.00167,-0.42553 -0.13319,-0.84038 -0.38476,-1.18359c-0.22345,-0.33987 -0.60502,-0.54207 -1.01172,-0.53613c-0.63078,0.00626 -1.17088,0.45366 -1.29443,1.07226c-0.18022,0.60339 -0.26217,1.23185 -0.24272,1.86128v1.375c0,0.29688 0.02018,0.74219 0.06055,1.33594c0.04053,0.59375 0.06071,1.03875 0.06054,1.335h-3.78271v-5.30469c-0.00052,-0.41828 -0.14326,-0.82395 -0.40479,-1.15039c-0.23108,-0.32961 -0.60869,-0.52543 -1.01123,-0.52441c-0.56412,-0.01191 -1.06782,0.35151 -1.23437,0.89062c-0.19099,0.52454 -0.28015,1.08071 -0.2627,1.63867v2.44726l0.06055,2.06348h-3.76264c0,-0.59473 0.01351,-1.59147 0.04052,-2.99024c0.02686,-1.39844 0.04037,-2.14486 0.04053,-2.23926z"/><path d="M246.71,202.6416c0.09594,1.08881 1.05558,1.8942 2.14453,1.79981c0.30181,-0.00132 0.59805,-0.08144 0.85938,-0.23243c0.29779,-0.17074 0.57303,-0.37808 0.81933,-0.61718h3.72168c-0.45028,1.05633 -1.2169,1.94713 -2.19433,2.5498c-1.04028,0.55698 -2.20937,0.82887 -3.38867,0.78809c-1.44969,0.08401 -2.87844,-0.3768 -4.00586,-1.292c-1.05641,-1.01096 -1.61161,-2.43738 -1.51661,-3.89649c-0.06591,-1.43331 0.51734,-2.82006 1.58789,-3.77539c1.11734,-0.95005 2.54997,-1.44722 4.01563,-1.39355c1.59578,-0.11599 3.16033,0.48463 4.26855,1.63867c0.97676,1.26231 1.45878,2.83793 1.35547,4.43066zM250.77543,200.5176c-0.1906,-0.38762 -0.46715,-0.72664 -0.80859,-0.99121c-0.33763,-0.27367 -0.75874,-0.42358 -1.19336,-0.42481c-0.43619,-0.01162 -0.86364,0.12353 -1.21387,0.38379c-0.33833,0.2844 -0.61399,0.63588 -0.80957,1.03223z"/><path d="M255.24707,202.05469c0,-0.78223 -0.00684,-1.42285 -0.02051,-1.92188c-0.05371,-1.96875 -0.08072,-3.04752 -0.08105,-3.23633h3.7832v1.0918c0.35085,-0.32185 0.72135,-0.62158 1.10938,-0.89746c0.66348,-0.41811 1.43465,-0.6333 2.21875,-0.61914c1.01402,-0.08715 2.00475,0.33698 2.6416,1.13086c0.54954,0.85833 0.81091,1.8696 0.74609,2.88672v2.78613c0,0.37695 0.01367,1.00944 0.041,1.89746c0.02636,0.88867 0.03969,1.36653 0.04,1.4336h-3.84375v-5.36036c0.01609,-0.43853 -0.12369,-0.86859 -0.39454,-1.21386c-0.27606,-0.33044 -0.69218,-0.5108 -1.12207,-0.48633c-0.47312,-0.00739 -0.90904,0.25569 -1.123,0.67773c-0.2608,0.44465 -0.39708,0.95132 -0.39453,1.4668c0,0.56641 0.01367,1.50717 0.041,2.82227c0.02637,1.31445 0.03971,2.01237 0.04,2.09375h-3.7832c0,-0.49903 0.01693,-1.25424 0.05078,-2.26563c0.03325,-1.01172 0.0502,-1.77376 0.05085,-2.28613z"/><path d="M271.10645,196.85547v5.44726c-0.01871,0.43429 0.10547,0.86275 0.35351,1.21973c0.26011,0.32781 0.66567,0.50555 1.083,0.47461c0.50754,0.04254 0.99731,-0.19766 1.27441,-0.625c0.2395,-0.45242 0.35125,-0.96153 0.32325,-1.47266c0,-0.7666 -0.00684,-1.39193 -0.02051,-1.876c-0.05371,-1.92383 -0.0804,-2.97983 -0.08008,-3.168h3.78223v5.67383c0.10078,1.32563 -0.4685,2.61375 -1.51661,3.43164c-1.12134,0.71012 -2.43784,1.04907 -3.76269,0.96875c-1.29455,0.08762 -2.58355,-0.23753 -3.68164,-0.92871c-1.00918,-0.82421 -1.5467,-2.09328 -1.43653,-3.3916l-0.12207,-5.75391z"/><g><path d="M35.02344,260.53613h4.40967c0.5664,1.60254 1.13297,3.19857 1.6997,4.78809c0.62012,1.72363 1.20004,3.31933 1.73975,4.78711c0.59326,1.58984 1.18652,3.17903 1.77978,4.76758h-4.167l-0.769,-2.54883h-4.95609l-0.76855,2.54883h-4.16748c0.22949,-0.62012 0.81624,-2.20476 1.76025,-4.75391c1.11914,-3.02051 1.70573,-4.61165 1.75977,-4.77344c0.33691,-0.91699 0.89665,-2.52213 1.6792,-4.81543zM38.70508,269.2959c-0.31055,-0.85938 -0.58708,-1.71225 -0.82959,-2.5586c-0.24267,-0.84667 -0.45833,-1.72004 -0.647,-2.62011c-0.1807,1.09976 -0.44448,2.18424 -0.78907,3.24414c-0.29687,0.874 -0.51269,1.51886 -0.64746,1.93457z"/><path d="M45.2793,265.1084h3.58056v1.17383c0.5599,-0.44835 1.17534,-0.82253 1.83106,-1.11328c0.44375,-0.1628 0.91307,-0.24483 1.38574,-0.24219c0.14965,0.00018 0.29883,0.01688 0.44482,0.0498c0.14844,0.03418 0.33724,0.08496 0.56641,0.15235l0.02051,3.39843c-0.32473,-0.11376 -0.65587,-0.20833 -0.9917,-0.2832c-0.29207,-0.06553 -0.59032,-0.09957 -0.88965,-0.10156c-0.749,-0.08015 -1.47605,0.28337 -1.86133,0.93066c-0.29739,0.68116 -0.42908,1.42311 -0.38427,2.165c0,0.4043 0.01351,1.08855 0.04052,2.05274c0.02686,0.96484 0.04037,1.48079 0.04053,1.54785h-3.7832c0,-0.48533 0.01009,-1.28449 0.03027,-2.39746c0.02051,-1.11231 0.0306,-1.71583 0.03027,-1.81055z"/><path d="M56.68848,270.874c0.09638,1.08858 1.05574,1.89372 2.14453,1.79981c0.30196,-0.00132 0.59835,-0.08143 0.85986,-0.23242c0.29787,-0.17063 0.57313,-0.37798 0.81934,-0.61719h3.72217c-0.45061,1.05627 -1.21736,1.94703 -2.19483,2.5498c-1.0403,0.55692 -2.20938,0.82881 -3.38867,0.78809c-1.44955,0.0841 -2.87818,-0.37673 -4.00537,-1.292c-1.05694,-1.01063 -1.61238,-2.43724 -1.51709,-3.89649c-0.06614,-1.43335 0.51715,-2.8202 1.58789,-3.77539c1.1173,-0.95013 2.54995,-1.4473 4.01562,-1.39355c1.59578,-0.11599 3.16033,0.48464 4.26856,1.63867c0.9766,1.26237 1.45846,2.83799 1.355,4.43066zM60.75488,268.75c-0.19061,-0.38776 -0.46736,-0.7268 -0.80908,-0.99121c-0.33773,-0.2738 -0.75903,-0.42371 -1.1938,-0.42479c-0.43602,-0.01154 -0.8633,0.12361 -1.21338,0.38379c-0.33834,0.28439 -0.61402,0.63586 -0.80962,1.03221z"/><path d="M73.27686,265.04785l2.30615,4.63281l2.54883,-4.63281h4.02539l-7.48487,13.85742h-4.1875l3.15577,-5.68457l-4.53125,-8.17285z"/><path d="M88.06445,264.7041c1.4878,-0.05996 2.94911,0.4065 4.127,1.31738c1.1618,0.94974 1.80661,2.39253 1.73925,3.89161c0.08311,1.51494 -0.55426,2.98013 -1.71923,3.95214c-1.20785,0.91108 -2.69683,1.36998 -4.208,1.29688c-1.48546,0.06858 -2.9515,-0.35917 -4.167,-1.21582c-1.19105,-0.91226 -1.85682,-2.35227 -1.78028,-3.85059c-0.06282,-1.53605 0.59575,-3.01322 1.78028,-3.99316c1.19567,-0.95874 2.69645,-1.45514 4.22798,-1.39844zM88.00345,272.12793c0.58517,0.02627 1.15193,-0.20795 1.54785,-0.63965c0.39127,-0.4455 0.59756,-1.02365 0.57666,-1.61621c-0.00287,-0.85492 -0.52352,-1.62283 -1.31664,-1.94195c-0.79313,-0.31912 -1.70053,-0.1258 -2.29472,0.48888c-0.40342,0.40772 -0.62569,0.96068 -0.6167,1.53418c-0.01881,0.57366 0.18805,1.13183 0.57617,1.55468c0.39518,0.4183 0.95242,0.64453 1.52735,0.62007z"/><path d="M98.80615,265.08789v5.44727c-0.01903,0.4344 0.10537,0.863 0.354,1.21972c0.25976,0.32769 0.66498,0.50544 1.082,0.47461c0.50758,0.04277 0.99747,-0.19748 1.27441,-0.625c0.24013,-0.4522 0.35208,-0.96143 0.32373,-1.47265c0,-0.76661 -0.00667,-1.39195 -0.02,-1.876c-0.0542,-1.92383 -0.08122,-2.97983 -0.08105,-3.168h3.7832v5.67383c0.1009,1.32587 -0.46883,2.61418 -1.51758,3.43164c-1.12128,0.71025 -2.43783,1.04921 -3.76269,0.96875c-1.29454,0.08749 -2.58349,-0.23766 -3.68164,-0.92871c-1.009,-0.82435 -1.54648,-2.09332 -1.43653,-3.3916l-0.12109,-5.75391z"/><path d="M112.56055,271.35938c0.47172,0.26423 0.96079,0.4962 1.46386,0.69433c0.499,0.19788 1.02925,0.30535 1.56592,0.31738c0.22797,-0.01016 0.45059,-0.07229 0.65088,-0.18164c0.24414,-0.12109 0.36621,-0.26855 0.36621,-0.44433c0,-0.1875 -0.70133,-0.50326 -2.104,-0.94727c-1.25646,-0.25724 -2.14492,-1.38219 -2.104,-2.66406c-0.04633,-0.96382 0.38552,-1.88852 1.1543,-2.47168c0.80022,-0.59495 1.77713,-0.90379 2.77393,-0.87695c1.19805,0.00465 2.38272,0.25215 3.48242,0.72754l-0.80908,2.73144c-0.35895,-0.1625 -0.7269,-0.30433 -1.10205,-0.4248c-0.37516,-0.12683 -0.76763,-0.19501 -1.16358,-0.20215c-0.17946,0.00075 -0.3543,0.05703 -0.50049,0.16113c-0.14304,0.08444 -0.23182,0.23724 -0.23437,0.40332c0,0.20215 0.70117,0.51172 2.10351,0.92871c1.29097,0.26989 2.18744,1.44743 2.104,2.76367c0.01709,1.06101 -0.56088,2.04241 -1.49707,2.542c-0.91005,0.51985 -1.94608,0.77805 -2.99365,0.74609c-0.66183,0.01404 -1.32323,-0.04359 -1.97266,-0.17188c-0.68722,-0.17419 -1.36009,-0.40076 -2.0127,-0.67773z"/><path d="M124.98242,265.08789v5.44727c-0.01903,0.4344 0.10537,0.863 0.354,1.21972c0.25976,0.32769 0.66498,0.50544 1.082,0.47461c0.50758,0.04277 0.99747,-0.19748 1.27441,-0.625c0.24013,-0.4522 0.35208,-0.96143 0.32373,-1.47265c0,-0.76661 -0.00667,-1.39195 -0.02,-1.876c-0.0542,-1.92383 -0.0812,-2.97983 -0.081,-3.168h3.7832v5.67383c0.1009,1.32587 -0.46883,2.61418 -1.51758,3.43164c-1.12128,0.71025 -2.43783,1.04921 -3.76269,0.96875c-1.29454,0.08749 -2.58349,-0.23766 -3.68164,-0.92871c-1.009,-0.82435 -1.54648,-2.09332 -1.43653,-3.3916l-0.12109,-5.75391z"/><path d="M133.519,265.1084h3.58057v1.17383c0.55988,-0.44834 1.1753,-0.82252 1.831,-1.11328c0.44376,-0.1628 0.91308,-0.24483 1.38575,-0.24219c0.14965,0.00018 0.29883,0.01688 0.44482,0.0498c0.14844,0.03418 0.33724,0.08496 0.56641,0.15235l0.0205,3.39843c-0.32472,-0.11376 -0.65586,-0.20833 -0.99169,-0.2832c-0.29207,-0.06553 -0.59032,-0.09957 -0.88965,-0.10156c-0.749,-0.08016 -1.47605,0.28337 -1.86133,0.93066c-0.2974,0.68115 -0.42909,1.42311 -0.38428,2.165c0,0.4043 0.01351,1.08855 0.04053,2.05274c0.02685,0.96484 0.04036,1.48079 0.04053,1.54785h-3.78316c0,-0.48533 0.01009,-1.28449 0.03028,-2.39746c0.0205,-1.11231 0.03059,-1.71583 0.03027,-1.81055z"/><path d="M144.92822,270.874c0.09638,1.08858 1.05574,1.89372 2.14453,1.79981c0.30197,-0.00132 0.59836,-0.08143 0.85987,-0.23242c0.29786,-0.17063 0.57312,-0.37798 0.81933,-0.61719h3.72217c-0.45061,1.05627 -1.21736,1.94703 -2.19482,2.5498c-1.0403,0.55692 -2.20938,0.82881 -3.38867,0.78809c-1.44955,0.08409 -2.87819,-0.37673 -4.00538,-1.292c-1.05694,-1.01064 -1.61238,-2.43724 -1.51709,-3.89649c-0.06614,-1.43335 0.51715,-2.8202 1.58789,-3.77539c1.1173,-0.95012 2.54995,-1.4473 4.01563,-1.39355c1.59578,-0.11599 3.16033,0.48463 4.26855,1.63867c0.9766,1.26237 1.45846,2.83799 1.355,4.43066zM148.99463,268.75c-0.19061,-0.38776 -0.46736,-0.7268 -0.80908,-0.99121c-0.33774,-0.27382 -0.75906,-0.42374 -1.19385,-0.42481c-0.43602,-0.01154 -0.8633,0.1236 -1.21338,0.38379c-0.33833,0.2844 -0.61399,0.63588 -0.80957,1.03223z"/><path d="M158.04688,260.2334c1.21474,-0.05811 2.40814,0.33453 3.35107,1.10254c0.87958,0.80959 1.34678,1.97292 1.27148,3.166c0.04053,0.92651 -0.21833,1.84145 -0.73828,2.60938c-0.57112,0.72602 -1.37478,1.23328 -2.27588,1.43652v1.21387h-3.60058l0.02,-3.70215c0.09375,0.01367 0.23779,0.02734 0.43213,0.04c0.19433,0.01367 0.37158,0.02051 0.53271,0.02051c0.51631,0.03286 1.03152,-0.07945 1.48731,-0.32422c0.42403,-0.31539 0.65251,-0.82937 0.60253,-1.35547c0.00589,-0.29349 -0.09848,-0.57853 -0.29248,-0.79883c-0.18849,-0.21989 -0.46637,-0.34268 -0.75586,-0.334c-0.37502,-0.04815 -0.75024,0.08747 -1.00781,0.36426c-0.17248,0.33479 -0.30773,0.68748 -0.40332,1.05175h-3.56885c0.10211,-1.26436 0.63266,-2.45601 1.50391,-3.37793c0.96047,-0.8016 2.19399,-1.20021 3.44192,-1.11223zM157.88525,270.71191c1.19782,0.01695 2.16322,0.98669 2.17481,2.18457c0.00008,0.58004 -0.25383,1.13103 -0.69483,1.50782c-0.42444,0.40903 -0.9911,0.63731 -1.58056,0.63672c-0.54635,0.00165 -1.07119,-0.21285 -1.46,-0.59668c-0.40405,-0.35555 -0.63521,-0.86804 -0.63428,-1.40625c-0.0188,-0.60975 0.19744,-1.2034 0.604,-1.65821c0.40556,-0.44676 0.98793,-0.69129 1.59086,-0.66797z"/><path d="M172.439,260.53613h4.41016c0.56641,1.60254 1.13282,3.19857 1.69922,4.78809c0.62109,1.72363 1.20117,3.31933 1.74023,4.78711c0.59375,1.58984 1.1875,3.17903 1.78125,4.76758h-4.168l-0.76954,-2.54883h-4.95507l-0.769,2.54883h-4.16748c0.22949,-0.62012 0.81624,-2.20476 1.76026,-4.75391c1.11914,-3.02051 1.70573,-4.61165 1.75976,-4.77344c0.33689,-0.91699 0.89629,-2.52213 1.67821,-4.81543zM176.12065,269.2959c-0.3086,-0.85938 -0.58464,-1.71225 -0.82813,-2.5586c-0.24219,-0.84667 -0.45834,-1.72004 -0.64844,-2.62011c-0.17975,1.09995 -0.44354,2.18451 -0.78906,3.24414c-0.29687,0.874 -0.51237,1.51886 -0.64648,1.93457z"/><path d="M182.79736,259.707h3.82325v15.13184l-3.82325,-0.02051c0,-1.17285 0.01009,-2.6696 0.03028,-4.49023c0.01953,-1.82129 0.02962,-2.87337 0.03027,-3.15625z"/><path d="M188.44189,259.707h3.82325v15.13184l-3.82325,-0.02051c0,-1.17285 0.01009,-2.6696 0.03028,-4.49023c0.01953,-1.82129 0.02962,-2.87337 0.03027,-3.15625z"/><path d="M202.78369,265.08789v5.44727c-0.01871,0.43429 0.10547,0.86274 0.35352,1.21972c0.26011,0.32781 0.66567,0.50555 1.083,0.47461c0.50754,0.04254 0.99732,-0.19766 1.27442,-0.625c0.23949,-0.45242 0.35124,-0.96152 0.32324,-1.47265c0,-0.76661 -0.00684,-1.39195 -0.02051,-1.876c-0.05371,-1.92383 -0.0804,-2.97983 -0.08007,-3.168h3.78222v5.67383c0.10078,1.32563 -0.4685,2.61375 -1.5166,3.43164c-1.12134,0.71013 -2.43785,1.04907 -3.7627,0.96875c-1.29455,0.08762 -2.58355,-0.23753 -3.68164,-0.92871c-1.00918,-0.82421 -1.54669,-2.09328 -1.43652,-3.3916l-0.12207,-5.75391z"/><path d="M211.11768,270.28711c0,-0.78223 -0.00684,-1.42285 -0.02051,-1.92188c-0.05371,-1.96875 -0.08073,-3.04752 -0.08106,-3.23632h3.78321v1.09179c0.35085,-0.32184 0.72135,-0.62157 1.10937,-0.89746c0.66348,-0.4181 1.43465,-0.63329 2.21875,-0.61914c1.01402,-0.08715 2.00475,0.33698 2.6416,1.13086c0.54955,0.85833 0.81092,1.8696 0.7461,2.88672v2.78613c0,0.37696 0.01367,1.00945 0.041,1.89746c0.02637,0.88867 0.0397,1.36653 0.04,1.4336h-3.84375v-5.36035c0.01609,-0.43854 -0.12368,-0.8686 -0.39453,-1.21387c-0.27606,-0.33044 -0.69218,-0.51079 -1.12207,-0.48633c-0.47314,-0.0074 -0.90907,0.25567 -1.12305,0.67773c-0.26079,0.44465 -0.39707,0.95132 -0.39453,1.4668c0,0.56641 0.01367,1.50717 0.041,2.82227c0.02636,1.31445 0.03969,2.01237 0.04,2.09375h-3.78321c0,-0.49903 0.01693,-1.25424 0.05078,-2.26563c0.03329,-1.01172 0.05025,-1.77376 0.0509,-2.28613z"/><path d="M223.396,271.35938c0.472,0.26434 0.9614,0.49632 1.46484,0.69433c0.49883,0.19788 1.02892,0.30535 1.56543,0.31738c0.22811,-0.01022 0.45089,-0.07234 0.65137,-0.18164c0.24316,-0.12109 0.36523,-0.26855 0.36523,-0.44433c0,-0.1875 -0.70117,-0.50326 -2.10351,-0.94727c-1.25626,-0.25745 -2.14447,-1.38234 -2.10352,-2.66406c-0.04624,-0.96359 0.38515,-1.88811 1.15332,-2.47168c0.80044,-0.59488 1.77748,-0.90371 2.77441,-0.87695c1.19805,0.0047 2.38271,0.2522 3.48243,0.72754l-0.8086,2.73144c-0.35911,-0.16252 -0.72722,-0.30435 -1.10254,-0.4248c-0.3753,-0.12691 -0.76795,-0.19509 -1.16406,-0.20215c-0.17931,0.00075 -0.35399,0.05704 -0.5,0.16113c-0.14304,0.08444 -0.23182,0.23724 -0.23437,0.40332c0,0.20215 0.70117,0.51172 2.10351,0.92871c1.29096,0.27 2.18752,1.44739 2.10449,2.76367c0.0171,1.06101 -0.56088,2.04241 -1.49707,2.542c-0.91027,0.51973 -1.94642,0.77792 -2.99414,0.74609c-0.66183,0.01406 -1.32323,-0.04357 -1.97265,-0.17188c-0.68724,-0.17411 -1.36012,-0.40069 -2.0127,-0.67773z"/><path d="M239.23682,265.04785l3.80224,-0.02051c-0.04004,0.35059 -0.06706,0.72169 -0.08105,1.11329c-0.01367,0.39062 -0.02018,0.83562 -0.01953,1.335c0,0.84961 0.01333,2.24544 0.04,4.1875c0.02733,1.9414 0.04067,2.97297 0.04,3.09472h-3.84228l0.06055,-0.78906c-0.4356,0.35017 -0.92111,0.63325 -1.44043,0.83984c-1.75348,0.6398 -3.71859,0.21464 -5.05078,-1.09277c-0.85555,-1.0109 -1.29719,-2.30792 -1.23633,-3.63086c-0.05221,-1.36433 0.37715,-2.70355 1.21289,-3.7832c0.86633,-1.06705 2.18749,-1.65987 3.56054,-1.59766c0.54271,-0.00225 1.08001,0.1078 1.57813,0.32324c0.49679,0.22484 0.9599,0.51768 1.376,0.87012zM237.49658,272.06738c0.55813,0.02107 1.09636,-0.20899 1.4668,-0.627c0.37562,-0.43027 0.57448,-0.98674 0.55664,-1.55762c0.01815,-0.54482 -0.17821,-1.07501 -0.54688,-1.47656c-0.37078,-0.39453 -0.89456,-0.60868 -1.43554,-0.58691c-0.58176,-0.02016 -1.14711,0.19493 -1.56836,0.59668c-0.80745,0.86769 -0.82476,2.20645 -0.04,3.09472c0.42717,0.38738 0.99152,0.58783 1.56734,0.55669z"/><path d="M247.18652,265.08789l2.02246,4.876l2.165,-4.876h3.9043l-4.57227,9.791h-2.95312c-0.48633,-1.17286 -0.95833,-2.26498 -1.416,-3.27637c-0.2705,-0.59375 -0.79003,-1.67285 -1.55859,-3.23731c-0.53906,-1.06543 -1.07161,-2.13769 -1.59766,-3.21679z"/><path d="M258.93945,270.874c0.09594,1.08881 1.05558,1.8942 2.14453,1.79981c0.30181,-0.00132 0.59804,-0.08144 0.85938,-0.23242c0.29779,-0.17075 0.57304,-0.37809 0.81934,-0.61719h3.72168c-0.45029,1.05634 -1.21693,1.94714 -2.19438,2.5498c-1.04028,0.55698 -2.20937,0.82887 -3.38867,0.78809c-1.44969,0.08401 -2.87844,-0.3768 -4.00586,-1.292c-1.05641,-1.01096 -1.6116,-2.43738 -1.5166,-3.89649c-0.06592,-1.43331 0.51734,-2.82006 1.58789,-3.77539c1.11734,-0.95005 2.54996,-1.44722 4.01562,-1.39355c1.59578,-0.11599 3.16033,0.48464 4.26856,1.63867c0.97676,1.26231 1.45878,2.83793 1.35547,4.43066zM263.00488,268.75c-0.1906,-0.38762 -0.46715,-0.72663 -0.80859,-0.99121c-0.33764,-0.27366 -0.75875,-0.42357 -1.19336,-0.42481c-0.43619,-0.01162 -0.86364,0.12353 -1.21387,0.38379c-0.33833,0.2844 -0.61399,0.63588 -0.80957,1.03223z"/><path d="M274.6377,259.707h3.68164v15.11133h-3.68164v-0.84961c-0.38396,0.39153 -0.84571,0.69825 -1.35547,0.90039c-0.52978,0.20089 -1.09264,0.30029 -1.65918,0.293c-1.32886,0.05115 -2.60638,-0.51655 -3.459,-1.53711c-0.83301,-1.02641 -1.26443,-2.32067 -1.21386,-3.6416c-0.06428,-1.39021 0.39419,-2.75413 1.28515,-3.82324c0.93221,-1.00308 2.26389,-1.53712 3.63086,-1.45606c1.0071,0.0154 1.98645,0.33244 2.81152,0.91016zM270.77344,270.04489c-0.0108,0.52729 0.20249,1.03444 0.58691,1.39551c0.38306,0.3745 0.90096,0.5787 1.43653,0.56641c0.56136,0.02242 1.10818,-0.18167 1.51757,-0.56641c0.39738,-0.39427 0.61011,-0.93781 0.58594,-1.49707c0.01616,-0.56505 -0.19082,-1.11375 -0.57617,-1.52734c-0.38331,-0.41095 -0.92565,-0.63601 -1.48731,-0.61719c-0.5728,-0.02589 -1.12662,0.20849 -1.50683,0.63769c-0.37948,0.44806 -0.57799,1.02166 -0.55664,1.60843z"/><path d="M292.35742,259.707h3.68164v15.11133h-3.68164v-0.84961c-0.38396,0.39153 -0.8457,0.69826 -1.35547,0.90039c-0.52978,0.20089 -1.09264,0.30029 -1.65918,0.293c-1.32886,0.05116 -2.60638,-0.51655 -3.459,-1.53711c-0.83302,-1.0264 -1.26444,-2.32067 -1.21387,-3.6416c-0.06429,-1.39021 0.39419,-2.75413 1.28516,-3.82324c0.93221,-1.00308 2.26389,-1.53712 3.63086,-1.45606c1.0071,0.0154 1.98645,0.33244 2.81152,0.91016zM288.49316,270.04489c-0.0108,0.52729 0.2025,1.03444 0.58692,1.39551c0.38306,0.37449 0.90095,0.57869 1.43652,0.56641c0.56136,0.02241 1.10818,-0.18168 1.51758,-0.56641c0.39738,-0.39427 0.61011,-0.93781 0.58594,-1.49707c0.01616,-0.56505 -0.19082,-1.11375 -0.57617,-1.52734c-0.38331,-0.41095 -0.92565,-0.63601 -1.48731,-0.61719c-0.57281,-0.02589 -1.12663,0.20849 -1.50684,0.63769c-0.37948,0.44806 -0.57799,1.02166 -0.55664,1.60843z"/><path d="M304.85938,265.04785l3.80273,-0.02051c-0.04004,0.35059 -0.06706,0.72169 -0.08106,1.11329c-0.01367,0.39062 -0.02018,0.83562 -0.01953,1.335c0,0.84961 0.01333,2.24544 0.04,4.1875c0.02733,1.9414 0.04067,2.97297 0.04,3.09472h-3.84277l0.06055,-0.78906c-0.4356,0.35017 -0.92111,0.63325 -1.44043,0.83984c-1.75349,0.6398 -3.71859,0.21464 -5.05079,-1.09277c-0.85554,-1.0109 -1.29718,-2.30792 -1.23632,-3.63086c-0.05221,-1.36433 0.37715,-2.70355 1.21289,-3.7832c0.86633,-1.06705 2.18749,-1.65987 3.56054,-1.59766c0.54271,-0.00225 1.08001,0.1078 1.57813,0.32324c0.49679,0.22484 0.9599,0.51768 1.376,0.87012zM303.11914,272.06738c0.55813,0.02107 1.09636,-0.209 1.4668,-0.627c0.37562,-0.43027 0.57448,-0.98674 0.55664,-1.55762c0.01815,-0.54482 -0.17821,-1.07501 -0.54688,-1.47656c-0.37078,-0.39453 -0.89456,-0.60868 -1.43554,-0.58691c-0.58176,-0.02016 -1.14711,0.19493 -1.56836,0.59668c-0.80745,0.86769 -0.82476,2.20645 -0.04,3.09472c0.42717,0.38738 0.99152,0.58783 1.56734,0.55669z"/><path d="M309.43066,265.04785h1.35547v-2.62985h3.68164v2.62988h2.00293v2.42774h-2.00293v7.36328h-3.68164v-7.36328h-1.35547z"/><path d="M324.17871,265.04785l3.80274,-0.02051c-0.04004,0.35059 -0.06706,0.72169 -0.08106,1.11329c-0.01367,0.39062 -0.02018,0.83562 -0.01953,1.335c0,0.84961 0.01333,2.24544 0.04,4.1875c0.02733,1.9414 0.04067,2.97297 0.04,3.09472h-3.84278l0.06055,-0.78906c-0.4356,0.35017 -0.92111,0.63325 -1.44043,0.83984c-1.75348,0.6398 -3.71859,0.21464 -5.05078,-1.09277c-0.85555,-1.0109 -1.29719,-2.30792 -1.23633,-3.63086c-0.0522,-1.36433 0.37715,-2.70355 1.21289,-3.7832c0.86634,-1.06705 2.1875,-1.65987 3.56055,-1.59766c0.5427,-0.00225 1.08001,0.1078 1.57812,0.32324c0.49679,0.22483 0.9599,0.51768 1.376,0.87012zM322.43848,272.06738c0.55813,0.02107 1.09635,-0.20899 1.46679,-0.627c0.37562,-0.43026 0.57449,-0.98674 0.55664,-1.55762c0.01816,-0.54482 -0.17821,-1.07501 -0.54687,-1.47656c-0.37078,-0.39453 -0.89457,-0.60868 -1.43555,-0.58691c-0.58176,-0.02015 -1.14711,0.19493 -1.56836,0.59668c-0.80744,0.86769 -0.82474,2.20645 -0.04,3.09472c0.42717,0.38738 0.99153,0.58783 1.56735,0.55669z"/><path d="M337.125,265.08789l1.86133,4.81543l1.73926,-4.81543h2.32617l1.74023,4.75391l2.00293,-4.75391h3.88379l-4.4707,9.751h-2.54883l-1.78027,-4.95606l-1.90137,4.95606h-2.69043c-0.52637,-1.46289 -1.18717,-3.10155 -1.98242,-4.916c-0.72852,-1.61133 -1.45019,-3.223 -2.165,-4.835z"/><path d="M353.4502,260.13184c0.52833,-0.01002 1.03728,0.19886 1.40625,0.57714c0.38053,0.37542 0.58904,0.89139 0.57617,1.42579c0.01618,0.52831 -0.198,1.03757 -0.58692,1.3955c-0.38209,0.36082 -0.89057,0.55721 -1.416,0.54688c-0.51981,0.01292 -1.02288,-0.18423 -1.39551,-0.54688c-0.37506,-0.3574 -0.58092,-0.85712 -0.56641,-1.375c-0.00342,-0.53166 0.20784,-1.04221 0.58594,-1.416c0.35859,-0.39093 0.86601,-0.61165 1.39648,-0.60743zM351.58887,265.08789h3.74218v9.751h-3.80273l0.06055,-5.07715z"/><path d="M357.19238,259.707h3.82325v15.13184l-3.82325,-0.02051c0,-1.17285 0.01009,-2.6696 0.03028,-4.49023c0.01953,-1.82129 0.02962,-2.87337 0.03027,-3.15625z"/><path d="M362.83594,259.707h3.82324v15.13184l-3.82324,-0.02051c0,-1.17285 0.01009,-2.6696 0.03027,-4.49023c0.01953,-1.82129 0.02962,-2.87337 0.03027,-3.15625z"/><path d="M376.835,259.78809v6.16991c0.48435,-0.39215 1.02704,-0.70617 1.6084,-0.93067c0.58245,-0.19898 1.19516,-0.29481 1.81055,-0.2832c1.28236,-0.03145 2.50157,0.55581 3.27636,1.57813c0.79261,1.01466 1.2076,2.27344 1.17383,3.56054c0.06988,1.38344 -0.37156,2.74426 -1.24023,3.82324c-0.92847,1.03237 -2.27359,1.59008 -3.66016,1.51758c-0.56212,-0.00667 -1.11786,-0.12001 -1.63769,-0.334c-0.5146,-0.18912 -0.97265,-0.50602 -1.33106,-0.9209v0.93066h-3.419l-0.02051,-2.93359v-7.22168c0,-0.55273 -0.01333,-1.38215 -0.04,-2.48828c-0.02733,-1.10547 -0.041,-1.92806 -0.041,-2.46777zM376.6934,270.14551c-0.01449,0.53311 0.20324,1.04623 0.59668,1.40625c0.39702,0.37061 0.92388,0.5702 1.4668,0.55566c0.59805,0.03696 1.18105,-0.19681 1.58789,-0.63672c0.38543,-0.46835 0.58342,-1.06302 0.55566,-1.66894c0.02812,-0.52969 -0.19255,-1.04217 -0.59668,-1.38574c-0.42666,-0.34048 -0.96135,-0.51651 -1.50683,-0.4961c-0.57993,-0.02777 -1.14251,0.20205 -1.53711,0.62793c-0.38619,0.44052 -0.5889,1.01226 -0.56645,1.59766z"/><path d="M389.0332,270.874c0.09594,1.08881 1.05558,1.8942 2.14453,1.79981c0.30181,-0.00132 0.59804,-0.08144 0.85938,-0.23242c0.29779,-0.17075 0.57304,-0.37809 0.81934,-0.61719h3.72168c-0.45028,1.05633 -1.2169,1.94714 -2.19434,2.5498c-1.04028,0.55698 -2.20937,0.82887 -3.38867,0.78809c-1.44969,0.08401 -2.87844,-0.3768 -4.00586,-1.292c-1.05641,-1.01096 -1.6116,-2.43738 -1.5166,-3.89649c-0.06592,-1.43331 0.51734,-2.82006 1.58789,-3.77539c1.11734,-0.95005 2.54996,-1.44722 4.01562,-1.39355c1.59578,-0.11599 3.16033,0.48464 4.26856,1.63867c0.97676,1.26231 1.45878,2.83793 1.35547,4.43066zM393.09863,268.75c-0.1906,-0.38762 -0.46715,-0.72663 -0.80859,-0.99121c-0.33764,-0.27366 -0.75875,-0.42357 -1.19336,-0.42481c-0.43619,-0.01162 -0.86364,0.12353 -1.21387,0.38379c-0.33833,0.2844 -0.61399,0.63588 -0.80957,1.03223z"/><path d="M403.1123,259.707h3.82325v15.13184l-3.82325,-0.02051c0,-1.17285 0.01009,-2.6696 0.03028,-4.49023c0.01953,-1.82129 0.02962,-2.87337 0.03027,-3.15625z"/><path d="M413.9541,264.7041c1.48783,-0.0602 2.94922,0.40629 4.127,1.31738c1.16226,0.94947 1.80748,2.39234 1.74024,3.89161c0.08316,1.51506 -0.55443,2.98033 -1.71973,3.95214c-1.20781,0.91115 -2.69682,1.37006 -4.208,1.29688c-1.48546,0.06858 -2.9515,-0.35917 -4.167,-1.21582c-1.19087,-0.91241 -1.85659,-2.35232 -1.78027,-3.85059c-0.0626,-1.53601 0.59592,-3.01308 1.78027,-3.99316c1.19548,-0.95873 2.69611,-1.45513 4.22749,-1.39844zM413.89355,272.12793c0.58516,0.02617 1.15188,-0.20803 1.54786,-0.63965c0.39132,-0.44544 0.59746,-1.02368 0.57617,-1.61621c-0.00258,-0.85481 -0.52301,-1.62277 -1.316,-1.94194c-0.79299,-0.31917 -1.70031,-0.12586 -2.29435,0.48882c-0.40394,0.40741 -0.62646,0.96054 -0.61719,1.53418c-0.01858,0.57362 0.18825,1.13171 0.57617,1.55468c0.39517,0.41831 0.95241,0.64456 1.52734,0.62012z"/><path d="M421.11426,271.35938c0.472,0.26434 0.9614,0.49632 1.46484,0.69433c0.49883,0.19788 1.02892,0.30535 1.56543,0.31738c0.22811,-0.01022 0.45089,-0.07234 0.65137,-0.18164c0.24316,-0.12109 0.36523,-0.26855 0.36523,-0.44433c0,-0.1875 -0.70117,-0.50326 -2.10351,-0.94727c-1.25626,-0.25745 -2.14447,-1.38234 -2.10352,-2.66406c-0.04624,-0.96359 0.38515,-1.88811 1.15332,-2.47168c0.80045,-0.59488 1.77748,-0.90371 2.77442,-0.87695c1.19804,0.0047 2.3827,0.2522 3.48242,0.72754l-0.8086,2.73144c-0.35911,-0.16252 -0.72722,-0.30435 -1.10253,-0.4248c-0.3753,-0.12691 -0.76795,-0.19509 -1.16407,-0.20215c-0.17931,0.00075 -0.35399,0.05704 -0.5,0.16113c-0.14304,0.08444 -0.23182,0.23724 -0.23437,0.40332c0,0.20215 0.70117,0.51172 2.10351,0.92871c1.29097,0.27 2.18753,1.44739 2.1045,2.76367c0.01709,1.06101 -0.56088,2.04241 -1.49707,2.542c-0.91028,0.51973 -1.94643,0.77792 -2.99415,0.74609c-0.66183,0.01406 -1.32323,-0.04357 -1.97265,-0.17188c-0.68724,-0.17411 -1.36012,-0.40069 -2.0127,-0.67773z"/><path d="M429.0459,265.04785h1.35547v-2.62985h3.68163v2.62988h2.00293v2.42774h-2.00293v7.36328h-3.68164v-7.36328h-1.35546z"/><path d="M438.83691,270.73242c0.57597,-0.00691 1.1303,0.2192 1.53711,0.627c0.42045,0.39172 0.65564,0.94298 0.64746,1.51757c0.01213,0.58874 -0.21396,1.15744 -0.627,1.57715c-0.39836,0.42318 -0.95699,0.65834 -1.53808,0.64746c-0.59127,0.00417 -1.15954,-0.22887 -1.57764,-0.64697c-0.4181,-0.4181 -0.65114,-0.98637 -0.64697,-1.57764c-0.00855,-0.57447 0.2263,-1.12574 0.64648,-1.51757c0.41365,-0.41076 0.97577,-0.63689 1.55864,-0.627z"/><path d="M34.87549,309.08691c0.16057,0.3768 0.34351,0.74367 0.54785,1.09864c0.06787,0.12207 0.29101,0.47494 0.66943,1.05859c0.13526,0.24414 0.28744,0.50163 0.45655,0.77246c0.16894,0.27149 0.32112,0.50196 0.45654,0.69141c0.37646,-0.582 0.75976,-1.1751 1.1499,-1.7793c0.39014,-0.60351 0.74642,-1.21745 1.06885,-1.8418h4.96239c-0.47828,0.50351 -0.9052,1.05343 -1.27441,1.64161c-0.37744,0.58105 -0.74821,1.16178 -1.11231,1.74218c-0.6206,0.9043 -1.08593,1.57943 -1.396,2.02539c-0.58008,0.83789 -1.03858,1.51986 -1.37549,2.0459v3.09961c0,0.41895 0.01351,1.0472 0.04053,1.88477c0.02685,0.83691 0.04036,1.46484 0.04052,1.88379l-4.188,0.01953l0.061,-2.1875v-4.74019l-5.11816,-7.415z"/><path d="M44.93555,309.08691h8.456v3.33789h-4.55171v2.06348h3.98536v3.33789h-3.98536v2.26563h4.7334v3.29785h-8.63769z"/><path d="M55.17139,318.97949c0.4778,0.39885 0.99267,0.75104 1.53759,1.05176c0.53622,0.31041 1.14057,0.48414 1.75977,0.50586c0.44943,0.01384 0.8929,-0.10578 1.27441,-0.34375c0.3863,-0.23591 0.6176,-0.6598 0.60694,-1.11231c0,-0.75585 -0.53939,-1.30208 -1.61817,-1.63867c-1.02011,-0.27638 -2.02043,-0.62123 -2.99414,-1.03222c-1.10949,-0.67665 -1.74331,-1.92049 -1.63867,-3.21582c-0.02748,-1.20155 0.45379,-2.35881 1.3252,-3.18653c0.86453,-0.84899 2.03571,-1.31218 3.24707,-1.28418c0.89257,-0.02182 1.78397,0.07739 2.6499,0.29492c0.88201,0.28227 1.7301,0.6612 2.52881,1.12989l-1.416,2.82324c-0.42552,-0.3359 -0.89526,-0.6116 -1.396,-0.81934c-0.46713,-0.23161 -0.97647,-0.36584 -1.49707,-0.39453c-0.37402,-0.01415 -0.74165,0.09989 -1.042,0.32324c-0.28041,0.22419 -0.4349,0.57028 -0.41455,0.92872c0,0.52539 0.53272,0.92253 1.59815,1.1914c1.03761,0.20118 2.0397,0.55496 2.97363,1.04981c1.11871,0.80651 1.73296,2.14028 1.61865,3.51465c0.07018,1.37849 -0.47434,2.71716 -1.48681,3.65527c-1.0692,0.91689 -2.44679,1.39336 -3.854,1.333c-0.90093,0.01997 -1.79821,-0.12056 -2.6499,-0.415c-0.89251,-0.35975 -1.73542,-0.832 -2.5083,-1.40528z"/><path d="M70.36328,309.08691h4.13477c0.59424,0.90821 1.29688,1.89063 2.10791,2.94727c0.74316,0.96191 1.48632,1.91698 2.22949,2.86523c0.91894,1.20606 1.62158,2.20216 2.10791,2.98829l-0.26318,-8.80079h4.14746v14.30274h-4.208c-0.51267,-0.79395 -1.08575,-1.62142 -1.71924,-2.48242c-0.82275,-1.07715 -1.42968,-1.88444 -1.8208,-2.42188c-0.49902,-0.64648 -0.99804,-1.29915 -1.49707,-1.958c-0.50317,-0.65976 -0.96923,-1.34702 -1.396,-2.05859c0.08564,0.54288 0.14301,1.08984 0.17188,1.63867c0.03369,0.59278 0.05061,1.21973 0.05078,1.88086c0,0.71485 0.0236,1.70281 0.0708,2.96387c0.04733,1.26074 0.07093,2.07324 0.0708,2.4375h-4.1875c0,-0.97559 0.02018,-2.45183 0.06055,-4.42871c0.04053,-1.97754 0.06086,-3.46061 0.061,-4.44922c0,-0.83984 -0.00814,-1.51692 -0.02441,-2.03125c-0.06495,-2.07227 -0.09734,-3.20346 -0.09715,-3.39357z"/><path d="M93.89014,308.68262c2.07208,-0.08347 4.09796,0.62658 5.66455,1.98535c1.53539,1.40229 2.37224,3.41166 2.28613,5.48926c0.07206,2.12955 -0.81095,4.17996 -2.40771,5.59082c-1.60458,1.39767 -3.67886,2.13596 -5.80567,2.0664c-2.03909,0.07508 -4.02491,-0.66053 -5.523,-2.0459c-1.46246,-1.40974 -2.25051,-3.37872 -2.16455,-5.4082c-0.08011,-2.08633 0.73738,-4.10703 2.24561,-5.55078c1.54473,-1.43665 3.59642,-2.20161 5.70464,-2.12695zM93.87014,320.45605c1.08597,0.05659 2.1352,-0.40146 2.832,-1.23632c0.6644,-0.86334 1.00124,-1.93424 0.95068,-3.02246c0.04716,-1.04021 -0.26719,-2.06468 -0.88965,-2.89942c-0.6571,-0.81574 -1.66471,-1.268 -2.71093,-1.2168c-1.07103,-0.04282 -2.1067,0.38753 -2.832,1.17676c-0.72569,0.81189 -1.10983,1.87265 -1.07226,2.96094c-0.04661,1.07159 0.28257,2.1258 0.93066,2.98047c0.67709,0.83978 1.71388,1.30658 2.79148,1.25683z"/></g></g></g></svg>