<svg version="1.1" xmlns="http://www.w3.org/2000/svg" xmlns:xlink="http://www.w3.org/1999/xlink" width="63.3009" height="168.5153" viewBox="0,0,63.3009,168.5153"><g transform="translate(-211.065,-34.62908)"><g data-paper-data="{&quot;isPaintingLayer&quot;:true}" fill-rule="nonzero" stroke="none" stroke-linecap="butt" stroke-linejoin="miter" stroke-miterlimit="10" stroke-dasharray="" stroke-dashoffset="0" style="mix-blend-mode: normal"><path d="M211.065,34.62908h63.3009v168.5153h-63.3009z" fill="none" stroke-width="0.11244"/><path d="M243.5207,203.00716v0c-0.24783,0.27444 -0.37173,0 -0.49553,-0.13722c-2.72535,-1.78399 -5.45059,-3.70508 -8.05203,-5.48905c-5.69829,-3.97963 -11.27268,-7.82192 -16.84717,-11.66433c-1.85808,-1.37232 -3.71629,-2.74453 -5.69829,-3.97963c-0.49553,-0.27444 -0.61944,-0.6861 -0.61944,-1.3722c0,-4.11685 0.12391,-8.2337 0,-12.35056c-0.2477,-8.64525 0,-17.29062 -0.12379,-25.93598c-0.24783,-8.64525 0,-17.29062 -0.24783,-25.79876c-0.12391,-8.91981 0,-17.70228 -0.12391,-26.62208c-0.12379,-4.39129 -0.12379,-8.64536 -0.12379,-12.89944c0,-0.41166 -0.12391,-0.82332 0.12379,-1.09776c1.23876,0.41166 2.22983,1.23498 3.22088,1.92121c6.44153,4.39129 13.00697,8.64525 19.44862,13.03655c3.09686,1.92121 6.06991,3.97963 9.16677,6.03806c0.37173,0.13722 0.74335,0.41166 0.74335,1.09776c0.12379,0.41166 0.12379,0.82344 0.12379,1.37232c0,10.15479 0,20.44692 -0.12379,30.73894c-0.24783,20.03526 0,40.0704 -0.12391,60.10566c0,3.97952 -0.12391,7.95914 -0.12391,11.93877c0,0.27444 0,0.6861 -0.12379,1.09776z" fill="#fef5e0" stroke-width="0.11244"/><path d="M243.5207,203.00716v0c-0.24783,-0.41166 -0.12391,-0.54888 -0.12391,-0.96054c0.12391,-23.19144 0.12391,-46.3829 0.2477,-69.71156c0,-11.66433 0,-23.32866 0,-34.99301c0.12391,-0.54888 0.37162,-0.6861 0.74324,-0.82332c0.74335,-0.54888 1.48659,-1.2351 2.47753,-1.78399c0.24783,-0.13722 0.37173,-0.27444 0.49553,-0.54888c-0.12379,-0.96066 -0.49553,-1.2351 -1.23876,-1.37232c-0.61932,-0.13722 -1.23876,0 -1.48647,-0.82332v-0.13722c0.49553,-0.6861 1.11486,-0.6861 1.61038,-0.41166c0.61932,0.27444 1.23876,0.54888 1.61038,0.96054c0.74324,0.54888 1.23876,0.6861 1.982,0c0.24783,-0.13722 0.37162,-0.27444 0.61944,-0.41166c-0.49553,-0.13722 -1.11497,-0.27444 -1.11497,-0.96066c0.12391,-0.82332 0.74335,-0.6861 1.36268,-0.6861c0.12391,-0.13722 0.37162,-0.13722 0.49553,0c0.99106,0.41166 1.73429,0 2.47753,-0.82332c0.2477,-0.13722 0.61932,-0.41166 0.99106,-0.6861c4.95505,-3.56797 9.7862,-7.27315 14.86517,-10.97823c1.36256,-0.96066 2.60132,-2.05843 3.964,-2.88175c0.12391,-0.13722 0.37162,-0.41177 0.74324,-0.27455c0,3.01909 0,6.17528 0,9.19425c-0.12391,3.97963 -0.12391,8.09648 -0.12391,12.21334c-0.12379,6.17517 -0.2477,12.48765 -0.2477,18.66293c-0.12391,8.91969 -0.2477,17.97672 -0.2477,26.89652c-0.12391,9.88035 -0.24783,19.62348 -0.37162,29.50394c0,2.74453 -0.12391,5.48905 -0.12391,8.09637c0,0.6861 -0.12391,0.96066 -0.49553,1.2351c-5.69829,4.39129 -11.39658,8.64525 -16.97108,13.03655c-3.964,3.01909 -7.8042,6.17528 -11.7682,9.05703c-0.12391,0.13722 -0.24783,0.27444 -0.37162,0.41166z" fill="#6b7888" stroke-width="0.11244"/><path d="M274.24199,74.69948v0c-0.74324,0.27455 -1.36268,0.82344 -1.85808,1.37232c-2.60145,1.78399 -5.07897,3.56797 -7.5565,5.48905c-3.22076,2.47009 -6.44153,4.94029 -9.7862,7.27315c-0.24783,0 -0.24783,0.13722 -0.37162,0.13722c-0.99106,0.27444 -1.73429,-0.13722 -2.72535,-0.13722c-0.86714,0 -1.85808,0 -2.72524,0.13722c-0.24783,0.13722 -0.61944,0.13722 -0.86714,-0.27455c-0.12391,-0.41166 0.37162,-0.41166 0.49553,-0.6861c0.37162,-0.27444 0.74324,-0.41166 0.99094,-0.82332c0.61944,-0.41166 0.61944,-0.82344 0,-1.37232c-0.86714,-0.6861 -1.85808,-0.96054 -2.84915,-0.96054c-1.11486,0 -2.2297,-0.13722 -3.46847,0c-0.61944,0.13722 -0.74335,-0.13722 -0.49553,-0.82344c1.73429,-0.54888 3.46847,-0.82332 5.20277,-1.23498c0.49553,0 1.23876,-0.13722 1.36268,-0.82332c0.12391,-0.68621 -0.61944,-0.68621 -1.11486,-1.09788c-0.24783,-0.13722 -0.61944,-0.41166 -0.99106,-0.82332c-0.37162,-0.41166 -0.99106,-0.68621 -1.61038,-0.82344c-0.74324,0 -1.23876,-0.41166 -1.73429,-1.23498c-0.61932,-1.09788 -1.85808,-1.09788 -2.97306,-1.2351c-1.11486,0 -2.2297,0.27444 -3.22076,0.41177c-0.61932,0.13722 -1.11486,0 -1.61038,0.13722c-0.37162,0 -0.61944,-0.13722 -0.61944,-0.54899c-0.12379,-0.41166 0,-0.6861 0.37173,-0.82332c0.37162,-0.27444 0.86703,-0.41166 1.36256,-0.82332c0.61944,-0.68621 0.61944,-1.37232 -0.2477,-1.92121c-0.86714,-0.6861 -1.982,-0.82344 -3.09697,-0.96066c-2.97294,-0.41166 -5.946,0.27455 -8.79515,0.68621c-0.12391,0 -0.12391,0 -0.12391,0c-1.61038,-0.68621 -1.61038,-0.68621 -2.47753,0.6861c-0.61944,0.41166 -0.99106,0.41166 -1.11486,-0.27444c-0.37162,-1.37232 -0.86714,-2.47009 -1.73429,-3.56797c0,-0.13722 -0.12391,-0.13722 -0.12391,-0.41166c1.73429,-0.96054 3.09697,-2.19565 4.70735,-3.29341c2.10591,-1.50954 4.21183,-3.01909 6.31761,-4.52851c0.37173,-0.41166 0.61944,-0.54888 0.61944,-1.2351c-0.12391,-5.7635 -0.12391,-11.66433 -0.12391,-17.56506c0,-0.54888 0.12391,-1.09788 0,-1.64677c0,-0.6861 0.24783,-1.23498 0.74324,-1.09776c0.49553,0 0.74335,0.41166 0.74335,1.09776c0,5.62627 0,11.25267 0,17.01618c0,0.54899 0.12379,1.2351 0.12379,1.78399c-0.12379,0.13722 -0.2477,0.13722 -0.37162,0c-0.12379,-0.41166 -0.12379,-0.96054 -0.12379,-1.50954c0,-5.35183 0,-10.56646 0,-15.91829c0,-0.41166 0,-0.82344 0,-1.2351c-0.24783,0.41166 -0.12391,0.82344 -0.12391,1.2351c0,8.50803 0,17.01618 0,25.66153c0,0.13722 0,0.41166 0,0.54888c0,0.6861 0.2477,0.82332 0.74324,0.6861c1.23876,-0.27444 2.35362,-0.6861 3.46859,-0.82332c0.86714,-0.27444 1.61038,-0.41166 2.35362,-0.54888c1.11486,0 1.982,-0.27455 2.97306,-0.41177c3.59238,-0.96054 7.06097,-1.50943 10.52944,-2.47009c1.73429,-0.27444 3.22076,-0.54888 4.95505,-0.96054c0.24783,0 0.49553,0 0.86714,0c1.982,1.23498 3.96412,2.47009 5.94612,3.70519c3.22076,2.19553 6.44153,4.25396 9.66229,6.31239c0.24783,0.13722 0.49553,0.27444 0.49553,0.54888z" fill="#8c8685" stroke-width="0.11244"/><path d="M219.73635,69.34765v0c0.99106,1.09788 1.61038,2.33287 1.982,3.84241c0,0.13722 0,0.54888 0.24783,0.54888c0.2477,0 0.37162,-0.13722 0.49553,-0.41166c1.11486,-1.50954 1.23876,-1.50954 2.72524,-0.54888c0.12391,0.13722 0.2477,0 0.37162,0.13722c1.11486,0.6861 0.99106,1.64665 0,2.47009c0.2477,0.27444 0.49553,0.13722 0.74324,-0.13722c0.37162,-0.68621 0.74324,-0.96066 1.48659,-0.82344c0.74324,0.27444 1.36256,0.82344 1.982,1.2351c0.2477,0.54888 0.86714,0.54888 1.23876,0.82332c0.37162,0.41166 0.86714,0.54888 1.11486,1.09788c0,0.13722 0,0.27444 0,0.41166c0,0.41166 0.12391,0.82332 -0.12391,1.23498c-0.2477,0.41177 0.37173,0.82344 0.24783,1.2351c0,0.27444 0,0.6861 0,1.09776c0,1.2351 0,2.60742 0,3.84241c0,0.54888 -0.12391,1.09788 -0.61944,1.37232c-1.36256,-0.13722 -2.35362,-1.09788 -2.35362,-2.60731c0,-2.05843 0.12391,-4.11685 0.2477,-6.03806c0,0.82332 0.12391,1.78399 -0.49541,2.33287c-0.24783,0.27444 -0.24783,0.6861 -0.24783,0.96054c0,0.68621 0,1.37232 0,1.92121c0,0.54888 0,0.96066 -0.61932,1.09788c-1.48659,-0.13722 -2.22983,-0.96066 -2.22983,-2.88186c0,-0.54888 0,-1.23498 0,-1.78387c0,-0.13722 0,-0.27444 0,-0.41177c0,-0.27444 0,-0.41166 -0.37162,-0.41166c-0.2477,0 -0.2477,0.13722 -0.37162,0.41166c0,0.27455 0,0.54899 0,0.68621c0,0.6861 0.12391,1.23498 -0.2477,1.78399c-0.37173,0.27444 -0.61944,0.27444 -0.99106,0.13722c-1.23876,-0.68621 -1.85821,-1.50954 -1.61038,-3.01909c0,-0.82332 0,-1.64665 -0.12391,-2.60731c-0.49553,1.37232 -1.23876,2.33287 -2.60145,2.47009c-2.10579,-0.41166 -4.45953,-3.01897 -4.83115,-5.21461c-0.12391,-0.27444 0,-0.27444 0,-0.41166c-0.2477,-1.2351 -0.37162,-2.33287 0,-3.56797c0.24783,-1.50943 1.61038,-2.19565 2.84915,-1.78387c0.74324,0.27444 1.48659,0.82332 2.10591,1.50943z" fill="#181613" stroke-width="0.11244"/><path d="M232.74343,59.87895v0c0,0 0,0 0.12379,0c1.73429,-1.23498 3.34467,-2.47009 5.07897,-3.56785c0.49553,-0.41177 0.61944,-0.82344 0.61944,-1.37232c0,-6.3125 0,-12.7621 0,-19.21182c0,-0.41166 0,-0.82344 0.49541,-0.96066c0.49553,-0.27444 0.61944,0 0.86714,0.27455c-0.2477,0.54888 -0.37162,1.09776 -0.37162,1.64665c0,8.78258 0,17.56517 0,26.34764c0,1.09788 0.12391,1.2351 1.11486,0.96066c4.08803,-1.09788 8.05203,-1.78399 12.01603,-2.88175c0.37162,0 0.61944,0 0.99106,0c0.99106,0.6861 2.10591,1.23498 3.09686,2.05843c-0.2477,0.27444 -0.49541,0.27444 -0.86703,0.41166c-3.84021,0.82332 -7.68041,1.78387 -11.64441,2.60731c-2.22983,0.54888 -4.58344,1.09776 -6.81326,1.64677c-1.23876,0.41166 -2.47753,0.6861 -3.84008,0.82332c-0.86714,0.27444 -1.23876,-0.13722 -1.11497,-0.96066c0.12391,-2.33287 -0.2477,-4.66573 -0.12379,-6.9986c0,-0.27444 0.12379,-0.54888 0.37162,-0.82332z" fill="#8c8684" stroke-width="0.11244"/><path d="M226.05408,81.56086v0c0.12391,1.64677 0.74324,2.47009 2.10591,2.74464c0.49553,-0.13722 0.86714,-0.68621 1.36256,-0.27455c-0.2477,1.78399 1.11497,1.92121 1.98212,2.60742c0.49541,-0.13722 0.74324,-0.54899 1.23876,-0.27455c0.2477,0.13733 0.37162,0.41177 0.61932,0.68621c1.23876,1.64665 2.72535,2.88175 4.70735,2.74453c0.61932,0 0.99094,0.27444 1.23876,0.82332c0.74324,1.78399 2.10591,2.60731 3.59238,3.29353c0.37162,0.13722 0.74324,0 0.99106,0.13722c1.11486,0.27444 2.2297,0.13722 3.34467,0.13722c0,0 0.12379,0 0.2477,0c0.12391,0.41166 -0.2477,0.54888 -0.37162,0.54888c-1.23876,0.82332 -2.35362,1.64677 -3.46859,2.60731c-4.70723,-3.15619 -9.41458,-6.3125 -14.12194,-9.46869c-5.946,-3.97963 -11.7682,-7.82192 -17.59041,-11.80155c-0.2477,-0.13722 -0.37162,-0.27444 -0.61944,-0.41166c1.11497,-0.82332 2.35373,-1.64677 3.46859,-2.47009c0.49553,2.19565 1.85821,3.97963 3.96412,4.94017c0.2477,0.27444 0.49541,0.41166 0.86703,0.41166c0.74335,0.13722 1.36268,-0.13722 2.10591,0c0.24783,0.13722 0.61944,0 0.74335,0.41166c0,0.13722 0,0.27444 0,0.41166c0.12379,1.37232 0.86703,2.33287 1.85808,2.60742c0.2477,0 0.37162,-0.13722 0.49553,-0.27455c0.37162,-0.13722 0.86714,-0.41166 1.23876,-0.13722z" fill="#8a827d" stroke-width="0.11244"/><path d="M240.05211,54.66434v0c0.37162,-0.27444 0.99106,-0.54888 1.36268,-0.96066c0.37162,-0.27444 0.61932,-0.27444 0.99094,-0.13722c3.46859,2.33287 6.93705,4.66573 10.52956,6.9986c0,0 0,0 0,0.13722c-0.99106,0.54899 -2.22983,0.68621 -3.34467,0.82344c-2.72535,0.6861 -5.45059,1.23498 -8.17582,1.78399c-1.36268,0.41166 -1.73429,0 -1.73429,-1.50954c0,-1.92121 0,-3.97963 0,-5.90084c0,-0.41166 0,-0.96054 0.37162,-1.23498z" fill="#8c8785" stroke-width="0.11244"/><path d="M240.05211,54.66434v0c-0.12391,2.60731 0,5.21461 -0.12391,7.82192c0,0.82344 0.49553,0.82344 1.11497,0.68621c1.48647,-0.27455 2.84915,-0.54899 4.33562,-0.96066c1.982,-0.41166 3.964,-0.82332 5.82221,-1.23498c0.61932,-0.13722 1.11486,-0.41177 1.73429,-0.27455c0.2477,0 0.49553,0.27455 0.74324,0.41177c-0.61944,0.41166 -1.36268,0.41166 -1.85821,0.54888c-3.84008,0.82332 -7.68029,1.78399 -11.5205,2.60731c-0.99094,0.27444 -0.99094,0.27444 -0.99094,-0.82332c0,-8.91981 0,-17.97683 0,-27.03386c0,-0.6861 0,-1.09776 0.61932,-1.3722c0.12391,5.21461 0,10.15479 0,15.36941c0.12391,1.37232 0.12391,2.74453 0.12391,4.25407z" fill="#404954" stroke-width="0.11244"/><path d="M237.45067,67.70088v0c1.61038,-0.6861 3.22076,-0.82332 4.83126,-1.23498c3.46847,-0.82332 6.93705,-1.64677 10.40553,-2.33287c1.36268,-0.41166 2.72535,-0.6861 4.08791,-0.96054c0.49553,0.27444 0.99106,0.54888 1.36268,0.96054c-1.23876,0.54888 -2.72524,0.6861 -4.08791,0.96054c-3.59238,0.82344 -7.06097,1.50954 -10.65336,2.33287c-1.48659,0.27444 -2.97306,0.68621 -4.45953,0.82344c0.12379,-0.54899 0.61932,-0.54899 0.99094,-0.54899c1.85821,-0.54888 3.71629,-0.96054 5.5745,-1.3722c0,0 -0.12391,-0.13722 0,-0.13722c0,0.13722 0,0.13722 -0.12391,0.13722c-1.85808,0.54888 -3.84021,0.82332 -5.82221,1.23498c-0.37162,0.13722 -0.86714,0.27455 -1.23876,0.27455c-0.2477,0 -0.49553,0.13722 -0.86714,-0.13733z" fill="#606670" stroke-width="0.11244"/><path d="M226.67341,89.65734v0c1.11497,0.82332 2.22983,1.50954 3.34467,2.19565c0.49553,0.27444 0.37162,0.82332 0.37162,1.09776c0,9.19425 0,18.38849 0,27.71996c0,11.80155 0,23.87756 0,35.81633c0,10.70379 0,21.40758 0.12391,32.11125c0,0.13722 0.37162,0.82332 -0.37162,0.6861c0.2477,-1.3722 -0.49553,-2.19565 -1.61038,-2.74453c0,0 -0.12391,-0.13722 -0.24783,-0.13722c-1.11486,-0.54888 -1.73418,-1.50943 -1.61038,-3.01897c0.12391,-0.6861 0.12391,-1.37232 -0.12379,-2.05843c-0.12391,-0.6861 0,-1.23498 0,-1.78399c0,-16.05562 0.12379,-32.11114 -0.12391,-48.02954c-0.12391,-13.3111 0,-26.75942 -0.12391,-40.0704c0,-0.68621 -0.12379,-1.2351 0.37162,-1.78399z" fill="#6b758d" stroke-width="0.11244"/><path d="M217.63044,83.75651v0c1.23876,0.68621 2.35373,1.50954 3.46859,2.19565c0.37162,0.27444 0.37162,0.54899 0.37162,0.96066c0,2.60731 -0.12391,5.07739 0,7.54748c0.2477,16.19285 0,32.3857 0.12391,48.71577c0.12379,12.48765 0.12379,24.97532 0.12379,37.46309c0,0.27444 0,0.54888 0,0.82332c0,0.13722 -0.12379,0.13722 -0.12379,0.13722c-1.23876,-0.41166 -1.98212,-1.23498 -2.97306,-1.92121c-0.49553,-0.41166 -0.49553,-0.96054 -0.61944,-1.50943c-0.12379,-0.54899 -0.12379,-1.09788 -0.12379,-1.64677c0,-4.52851 0.12379,-8.91981 0,-13.58554c-0.24783,-12.89933 0.12379,-25.93598 -0.12391,-38.8353c-0.2477,-11.52711 -0.12391,-23.05422 -0.12391,-34.44412c0,-1.64677 -0.37162,-3.15619 -0.2477,-4.52851c0,-0.54888 0,-0.96054 0.2477,-1.37232z" fill="#6b758d" stroke-width="0.11244"/><path d="M235.9642,95.96984v0c0.99094,0.82332 1.982,1.50943 3.22076,2.19553c0.37162,0.27455 0.37162,0.68621 0.37162,1.09788c0,7.27304 0,14.40886 -0.12391,21.68191c0,7.27304 0.12391,14.54608 0,21.95646c-0.12379,16.46729 -0.12379,32.79736 -0.12379,49.26465c0,0.27444 0,0.54888 0,0.6861c-0.37162,0.13722 -0.61944,-0.13722 -0.74324,-0.13722c-0.74335,-0.54888 -1.36268,-0.96066 -1.98212,-1.37232c-0.61932,-0.54888 -0.86714,-1.09776 -0.86714,-2.05843c0,-4.39118 0,-8.64525 0,-13.17377c0,-0.41166 0,-0.82344 -0.12379,-1.2351c-0.12391,-0.96054 -0.24783,-2.05843 0,-3.29341c0.12379,-0.54888 0,-1.09788 0,-1.64677c0,-24.01478 0,-48.02954 0,-72.04443c0,-0.54888 -0.12391,-1.23498 0.37162,-1.92109z" fill="#6b758d" stroke-width="0.11244"/><path d="M217.63044,83.75651v0c0.37162,11.80155 0.12391,23.60312 0.24783,35.26745c0.12379,13.72276 0,27.17108 0.12379,40.75661c0.12391,6.3125 0.12391,12.48765 0.12391,18.66293c0.12391,0.82332 0,1.09776 -0.86714,1.23498c-0.61932,0.13722 -1.11486,0.13722 -1.23876,-0.6861c0,-7.95914 0,-15.9184 0,-23.87756c-0.12391,-10.56657 -0.12391,-21.13302 -0.12391,-31.69959c-0.12379,-10.8409 -0.2477,-21.68191 -0.2477,-32.52292c0,-2.47009 0,-4.94017 -0.12391,-7.27304c0,-0.41166 0,-0.82332 0,-1.23498c0.86714,0.41166 1.48659,0.96054 2.10591,1.3722z" fill="#585a61" stroke-width="0.11244"/><path d="M226.67341,89.65734v0c0,6.58694 0,13.17377 0,19.7607c0,5.76362 0,11.52711 0,17.29073c0.12391,17.97672 0,36.09077 0.12391,54.0676c0,0.27444 0,0.54888 0,0.82332c0.12391,0.96066 0,1.92121 0,3.01897c0,0.68621 -0.49553,0.96066 -1.48647,0.96066c-0.61944,0 -0.49553,-0.41166 -0.49553,-0.82344c0,-3.29341 0,-6.58683 0,-9.88035c0,-0.27444 0,-0.54888 -0.12391,-0.96054c0,-9.88035 0,-19.76082 -0.12391,-29.64116c0,-18.25127 0,-36.50243 -0.12379,-54.89092c0,-0.27444 0,-0.68621 0,-1.09788c0.86714,0.41166 1.48647,0.96066 2.2297,1.37232z" fill="#585a61" stroke-width="0.11244"/><path d="M235.9642,95.96984v0c0,24.97532 0,49.81353 -0.12391,74.51441c0,1.50954 -0.2477,3.01909 0.12391,4.52851c-0.24783,0.27444 -0.12391,0.68621 -0.12391,0.96066c0,4.52851 0,9.05703 0,13.44821c0,1.37232 -0.2477,1.64677 -1.48647,1.64677c-0.24783,0 -0.37162,0 -0.49553,-0.13722c-0.12391,-3.70508 -0.12391,-7.41026 -0.12391,-11.11545c0,-27.99441 0,-56.12603 0,-84.12043c0,-0.27444 0,-0.54888 0,-1.09776c0.86714,0.54888 1.48659,0.96054 2.22983,1.37232z" fill="#585a61" stroke-width="0.11244"/><path d="M224.69141,173.91499v0c0.24783,0.41166 0.12391,0.54888 0.12391,0.96054c0,3.29353 0,6.58694 0,9.88035c0,0.54899 0.12391,0.82344 0.74324,0.68621c1.23876,-0.41166 1.23876,-0.27444 1.23876,-1.78399c0,-0.6861 0,-1.37232 0,-2.05843c0.2477,0.82344 0.12391,1.92121 0.12391,2.74453c0,0.54899 0.12379,0.96066 0.61932,1.2351c0.61944,0.41166 1.36268,0.82332 2.10591,1.3722c0.74324,0.54899 0.99106,1.2351 0.49553,2.33287c-1.61038,-1.09776 -3.34467,-2.33287 -5.07897,-3.43063c-0.2477,-0.27444 -0.37162,-0.41166 -0.37162,-0.6861c0,-3.70519 0,-7.5476 0,-11.25267z" fill="#91939a" stroke-width="0.11244"/><path d="M233.85829,190.93117v0c1.85808,-0.27444 1.85808,-0.27444 1.85808,-2.47009c0,-4.11685 0,-8.37081 0,-12.48765c0,-0.27444 0,-0.68621 0.24783,-0.96066c0,4.80295 0,9.60591 0,14.40886c0,0.82344 0.12391,1.2351 0.74324,1.64677c0.86714,0.54888 1.61038,1.2351 2.60145,1.78399c0,0.54888 0.2477,1.37232 -0.12391,1.78399c-0.37162,0.27444 -0.86714,-0.54899 -1.23876,-0.82344c-1.48647,-0.96054 -2.84915,-1.78387 -4.08791,-2.88175z" fill="#91939a" stroke-width="0.11244"/><path d="M216.02005,178.99239v0c0.24783,0.54888 0.37162,0.6861 0.86714,0.54888c0.49553,-0.27444 1.36268,0 1.23876,-1.09776c0.2477,1.23498 1.23876,1.50943 1.982,2.05843c0.49553,0.41166 1.11497,0.82332 1.61038,0.96054c0,0.6861 0,1.37232 0,2.05843c-0.37162,-0.13722 -0.74324,-0.41166 -0.99094,-0.6861c-1.36268,-0.96066 -2.72535,-1.78399 -4.21183,-2.88186c-0.2477,-0.27444 -0.61944,-0.41166 -0.49553,-0.96054z" fill="#91939a" stroke-width="0.11244"/><path d="M253.18299,94.18586v0c0.49553,0.82332 0.12391,1.50943 0.12391,2.19565c0,8.50803 0.12391,17.01618 0,25.52431c-0.24783,10.97812 0,21.95635 -0.24783,32.79736c-0.12379,10.15479 0,20.30959 -0.12379,30.46449c0,1.92109 -0.12391,3.8423 -0.12391,5.90073c0,0.41166 -0.12391,0.6861 -0.37162,0.82344c-1.36268,1.09776 -2.84915,2.19553 -4.21183,3.29341c-0.2477,0.13722 -0.37162,0.54888 -0.74324,0.27444c-0.2477,-0.13722 0,-0.41166 0,-0.6861c0,-10.97823 -0.12391,-21.81924 0,-32.79736c0.12391,-13.3111 0,-26.6222 0.12391,-39.93318c0.12379,-7.68482 0.12379,-15.36952 0.12379,-23.05422c0,-0.41166 0.12391,-0.82344 0.49553,-1.09788c1.61038,-1.23498 3.22076,-2.47009 4.95505,-3.70508z" fill="#4b4d5d" stroke-width="0.11244"/><path d="M261.73043,96.65594v0c0,2.19565 0,4.39129 0,6.72416c-0.2477,7.13582 0,14.40886 -0.12379,21.54469c-0.24783,7.13582 0,14.13442 -0.24783,21.13302c-0.12379,7.54748 0,15.09497 -0.12379,22.64256c-0.24783,5.21461 0,10.42924 -0.12391,15.64385c0,0.54899 -0.12391,0.96066 -0.61944,1.2351c-1.48647,1.09776 -2.84915,2.19565 -4.33562,3.29341c-0.12391,0.13722 -0.2477,0.54888 -0.49553,0.27444c-0.12391,-0.13722 -0.12391,-0.41166 -0.12391,-0.6861c0.12391,-3.97963 0.24783,-7.95914 0.24783,-12.07599c0,-5.48905 -0.12391,-11.11545 0,-16.60451c0.12391,-9.19425 0,-18.25127 0.12391,-27.44552c0.2477,-8.64536 0,-17.42784 0.2477,-26.0732c0,-4.52851 0,-9.05703 0.12391,-13.58554c0,-0.41166 0,-0.82332 0.2477,-1.09776c1.61038,-1.09788 3.22076,-2.33287 4.83115,-3.43075c0.49553,-0.41166 0.37162,0.13722 0.37162,0.41166c0,2.60742 0,5.35196 0,8.09648z" fill="#252631" stroke-width="0.11244"/><path d="M264.08416,180.22749v0c0.2477,-6.72416 0,-13.17388 0.12379,-19.6236c0.24783,-5.90073 0,-11.80155 0.24783,-17.70228c0.12391,-6.58694 -0.12391,-13.3111 0.12391,-19.89804c0.2477,-6.3125 -0.12391,-12.48765 0.12379,-18.80015c0.24783,-5.90073 0.12391,-11.80155 0.12391,-17.70228c0,-0.54899 0.12391,-0.82344 0.49553,-1.2351c1.48647,-0.96054 2.84915,-2.05843 4.21183,-3.15619c0.2477,-0.13722 0.49541,-0.41177 0.74324,-0.27444c0.2477,0.13722 0.12379,0.54888 0.12379,0.82332c-0.2477,5.62627 0,11.25267 -0.2477,16.87896c-0.12391,5.35183 0.12391,10.56657 -0.12391,15.78118c-0.2477,5.48905 0,10.97823 -0.12379,16.33007c-0.24783,5.21461 0,10.56646 -0.24783,15.78118c-0.12379,5.62627 0,11.11534 -0.12379,16.74173c-0.24783,4.25407 0,8.64525 -0.12391,13.03655c0,0.41166 -0.12391,0.68621 -0.49553,1.09788c-1.48647,0.96054 -2.97306,2.19565 -4.45953,3.29341c-0.24783,0.27444 -0.37162,0.27444 -0.37162,-0.13722c0,-0.41166 0,-0.96054 0,-1.23498z" fill="#36394c" stroke-width="0.11244"/><path d="M242.90125,94.04864v0c-1.48647,-0.68621 -2.97306,-1.37232 -3.71629,-3.29353c-0.2477,-0.54888 -0.61932,-0.6861 -1.11486,-0.6861c-2.35373,0 -4.08791,-1.37232 -5.20288,-3.56785c-0.37162,-0.13733 -0.49541,-0.54899 -0.49541,-0.82344c-0.24783,-0.96054 -0.24783,-1.78399 0,-2.74453c0.12379,-0.96054 1.36256,-1.78399 2.35362,-1.50954c0.49553,0.13722 0.99094,0.41177 1.48647,0.82344c0.49553,0.27444 0.86714,0.82332 1.23876,1.23498c0.37162,0.41166 0.61944,0.96066 0.86714,1.64677c0,0.13722 0.12391,0.41166 0.24783,0.6861c-0.12391,0.82344 -0.61944,0.96066 -1.11497,0.68621c-0.37162,0 -0.61932,-0.13733 -0.86714,-0.41177c-0.2477,0 -0.49541,-0.13722 -0.61932,-0.41166c0,-0.13722 -0.12391,-0.13722 -0.12391,-0.41166c-0.12391,-0.13722 -0.2477,-0.6861 -0.74324,-0.54888c-0.37162,0.13722 -0.12391,0.54888 0,0.96054c0,0.41166 0.2477,0.6861 0.49553,1.09788c0.12379,0.13722 0.37162,0.27444 0.61932,0.27444c0.61944,-0.54888 1.11497,0 1.61038,0.41166c0.24783,0.13722 0.37162,0.13722 0.61944,-0.27444c1.11486,-2.33287 2.72524,-1.92121 3.84021,-0.82344c0.2477,0.13733 0.49541,0.41177 0.61932,0.41177c0.99106,0.82332 1.48647,1.92109 1.85821,3.15619c0.12379,0.6861 0.2477,1.37232 0,1.92121c-0.12391,0.13722 -0.12391,0.13722 -0.12391,0.13722c-0.24783,1.64677 -0.61944,2.19565 -1.73429,2.05843z" fill="#181513" stroke-width="0.11244"/><path d="M244.51164,89.93179v0c-0.49553,-1.09776 -0.86714,-2.19565 -1.73429,-2.88175c-0.2477,-0.54888 0.12391,-0.68621 0.37162,-0.68621c0.61944,-0.27444 1.23876,-0.27444 1.85821,0c0.37162,0.13733 0.74324,0.41177 0.61932,0.96066c-0.12379,0.54888 0.12391,0.6861 0.49553,0.6861c0.99106,0.41166 1.73429,0.13722 2.47753,-0.54888c0.49553,-0.41166 0.49553,-0.96054 -0.2477,-1.37232c-0.74324,-0.54888 -1.61038,-0.82332 -2.60145,-0.82332c-2.2297,0 -4.33562,-0.13722 -6.56544,0.54888c-0.2477,0.13722 -0.61932,0.13722 -0.86714,-0.13722c-0.12391,-0.13722 -0.12391,-0.41166 -0.12391,-0.6861c0.99106,-0.6861 2.10591,-0.6861 3.22088,-0.96066c0.49541,0.13733 0.99094,-0.13722 1.48647,0c0.12391,0 0.12391,0 0.2477,0.13733c-0.37162,0.54888 0,0.54888 0.37173,0.54888c1.11486,-0.41166 2.35362,0 3.59238,0c0.86714,0 1.85808,0.13722 2.60145,0.6861c1.11486,0.6861 1.11486,1.50954 0.12379,2.19565c-0.49553,0.41166 -0.86714,0.6861 -1.48647,1.09776c0.37162,0.13733 0.74324,0 1.11486,0c1.73429,-0.13722 3.46859,-0.13722 5.20288,0.27455c-0.24783,0.41166 -0.61944,0.54888 -0.86714,0.6861c-0.49553,0 -0.99106,0 -1.48659,-0.13722c-2.2297,-0.54888 -4.58344,0 -6.81315,0.41166c-0.37162,0 -0.74324,0.13722 -0.99106,0z" fill="#707075" stroke-width="0.11244"/><path d="M244.51164,89.93179v0c1.982,-0.54888 4.08791,-0.96054 6.06991,-0.82332c1.11497,0 2.22983,0 3.22088,0.54888c-0.12391,0.13722 -0.24783,0.27444 -0.37162,0.41166c-0.61944,0.54888 -1.11497,0.96054 -1.85821,0.54888c-0.37162,-0.13722 -0.86714,-0.27444 -1.36268,0c-0.37162,0.13722 -0.74324,0 -0.74324,0.41166c0,0.41177 0.37162,0.54899 0.61944,0.54899c0.2477,0.13722 0.61932,0.13722 0.86714,0.13722c-0.49553,0.6861 -1.11497,0.96054 -1.73429,1.3722c-0.24783,0.13722 -0.74324,0.13722 -1.11497,-0.27444c-0.49541,-0.41166 -0.99094,-0.54888 -1.61038,-0.96054c-0.61932,-0.41166 -1.23876,-0.41166 -1.73418,0c-0.12391,-0.6861 -0.12391,-1.2351 -0.24783,-1.92121z" fill="#37485c" stroke-width="0.11244"/><path d="M242.90125,94.04864v0c0.61944,0 0.99106,-0.41166 1.36268,-0.82344c0.12379,0 0.37162,-0.13722 0.12379,-0.54888c-0.37162,-0.41166 0.12391,-0.41166 0.24783,-0.6861c0.49553,0.6861 1.11486,0.54888 1.61038,0.54888c0.74324,0.13722 0.99106,0.6861 1.36268,1.09788c0.2477,0.27444 -0.12391,0.41166 -0.12391,0.54888c-0.12391,0 -0.12391,0 -0.2477,0c-1.11497,0.13722 -2.22983,0.13722 -3.34467,0.13722c-0.37162,-0.13722 -0.74335,0 -0.99106,-0.27444z" fill="#334357" stroke-width="0.11244"/><path d="M225.55855,72.91561v0c-0.2477,0 -0.37162,0 -0.37162,-0.13722c1.73429,-0.41177 3.59238,-0.54899 5.20277,-0.82344c1.73429,-0.13722 3.46859,0 5.07897,0.27444c0.86714,0.13722 1.73429,0.41177 2.35362,1.09788c0.49553,0.6861 0.49553,1.23498 0,1.64677c-0.49541,0.54888 -0.99094,0.96054 -1.61038,1.23498c-0.2477,0.13722 -0.49553,0.13722 -0.37162,0.54888c0.12391,0.27444 0.24783,0.27444 0.61944,0.27444c1.36256,0.13733 2.72524,-0.41166 4.2117,-0.54888c1.11497,0 2.10591,0.27444 3.22088,0.82344c0.12379,0 0.37162,0.27444 0.49541,0.41166c0.12391,1.23498 0.99106,1.23498 1.73429,1.23498c0.37162,0.13722 0.74324,0.27444 1.11497,0.54899c0.74324,0.82332 1.61038,1.3722 2.47753,1.92109c0.49541,0.27444 0.49541,0.68621 0,1.09788c-0.24783,0.13722 -0.37173,0.27444 -0.61944,0.27444c-1.982,0.41166 -4.08791,0.82332 -5.94612,1.37232l-0.12379,-0.13733c0,0 0,-0.13722 0.12379,-0.13722l0.12391,-0.13722c1.36268,-0.82332 2.97306,-0.96054 4.45953,-1.3722c0.37162,-0.27444 0.12391,-0.41166 -0.12379,-0.54888c-0.61944,-0.27455 -1.11497,-0.68621 -1.48659,-1.09788c-0.37162,-0.6861 -1.11486,-0.82332 -1.73429,-0.82332c-1.36256,0 -2.72524,0 -3.964,0.13722c-0.61932,0.13722 -1.11486,0 -1.73429,-0.13722c-0.12379,0 -0.37162,-0.27444 -0.49553,-0.68621c0,-0.27444 0.24783,-0.41166 0.49553,-0.6861c0.61944,-0.13722 1.11497,-0.41166 1.73429,-0.13722c0.37162,0 0.99106,0.13722 1.36268,0c0.12379,0 0.37162,0 0.37162,-0.27444c0,-0.13722 -0.12391,-0.13722 -0.24783,-0.27444c-0.61932,-0.27444 -1.23876,-0.54888 -1.85808,-0.41166c-2.47753,0.41166 -5.07897,-0.13722 -7.5565,0.6861c-0.12379,0 -0.37162,0 -0.49553,-0.13722c0,-0.27444 0,-0.41166 0,-0.54888c0.37173,-0.54899 0.86714,-0.54899 1.23876,-0.68621c0.99106,-0.41166 1.85821,-0.82332 2.72535,-1.50943c0.49553,-0.54899 0.49553,-0.82344 0,-1.37232c-0.86714,-0.6861 -1.85821,-0.82332 -2.72535,-0.96054c-1.85808,-0.41166 -3.59238,-0.13722 -5.45047,0c-0.74335,0 -1.48659,0.27444 -2.22983,0z" fill="#62666e" stroke-width="0.11244"/><path d="M237.45067,67.70088v0c1.48659,-0.13722 2.72535,-0.54888 4.08791,-0.82332c1.36268,-0.27444 2.72535,-0.54888 4.08791,-0.41166c-0.61932,0.13722 -1.36256,0.41166 -2.10579,0.54888c-1.36268,0.27444 -2.72535,0.6861 -4.21183,1.09788c-0.12391,0 -0.12391,0 -0.37162,0.13722c-2.10591,0.41166 -4.21183,0.96054 -6.19382,1.50943c-0.61944,0.13722 -0.74335,0 -0.74335,-0.54888c0,-9.33147 0,-18.52571 0,-27.71996c0,-0.27444 0,-0.27444 0,-0.41166c0.12391,-0.27444 0.12391,-0.54888 0.37173,-0.54888c0.37162,0 0.2477,0.41166 0.2477,0.54888c0,3.15619 0,6.17528 0,9.19425c0,3.29341 0,6.44972 0.12391,9.60591c0,1.64677 -0.12391,3.43075 0,5.07739c0.12379,0.82344 0,1.78399 0,2.60731c-0.12391,0.68621 0,1.09788 0.86714,0.96066c1.23876,-0.41166 2.60132,-0.54888 3.84008,-0.82344z" fill="#404852" stroke-width="0.11244"/><path d="M232.00008,77.99301v0c1.85821,-0.6861 3.71629,-0.54888 5.5745,-0.54888c0.74324,0 1.61038,-0.27444 2.35362,-0.27444c0.74324,0 1.61038,0.13722 2.35373,0.54888c0.12379,0.13722 0.37162,0.27444 0.37162,0.6861c-0.12391,0.13722 -0.37162,0.27444 -0.61944,0.27444c-0.49553,0 -1.11486,0.13722 -1.61038,-0.13722c-0.61932,-0.13722 -1.11486,0 -1.73429,0.27444c-0.12379,0.13722 -0.37162,0.13722 -0.37162,0.41166c0,0.27455 0.24783,0.41177 0.37162,0.41177c0.49553,0.13722 0.99106,0.41166 1.48659,0.27444c1.48647,-0.27444 2.97294,-0.27444 4.58344,-0.27444c0.61932,0 1.23876,0.27444 1.48647,0.82332c0.49553,0.6861 0.86714,0.96054 1.48647,1.09776c0.24783,0.13722 0.61944,0.27455 0.61944,0.54899c0,0.41166 -0.37162,0.41166 -0.49553,0.54888c-0.99106,0.13722 -1.982,0.27444 -2.47753,-0.96066c-0.37162,-0.54888 -1.23876,-0.41166 -1.85808,-0.54888c-0.61944,0 -1.11497,0.13722 -1.6105,0.41166c-1.23876,0.96066 -2.72524,1.37232 -4.33562,0.96066c-0.37162,-0.13722 -0.86714,0 -1.36268,0c-0.37162,-0.27444 -0.86714,-0.54888 -1.23876,-0.82344c-1.36256,-0.41166 -2.47753,0.41177 -2.47753,1.92121c0,0.96066 -0.12379,1.92121 0.37162,2.88186c-0.49541,0 -0.86714,0 -1.36256,0.13722c0.37162,-0.27455 0.49541,-0.54899 0.49541,-1.09788c0,-1.3722 0,-2.74453 0,-4.11685c0.49553,-0.41166 1.11497,-0.27444 1.73429,-0.54888c0.24783,0 0.61944,0 0.99106,-0.27444c-0.37162,-0.54888 -0.74324,-0.27444 -1.11486,-0.41166c-0.49553,0 -0.99106,0.27444 -1.6105,0.13722c-0.49541,-0.82332 0.12391,-1.50954 0,-2.33287z" fill="#3a4a5e" stroke-width="0.11244"/><path d="M225.55855,72.91561v0c1.73429,-0.27444 3.59238,-0.41166 5.45059,-0.41166c1.73429,0 3.46847,0 5.07897,1.09776c0.74324,0.54888 0.74324,1.2351 0,1.78399c-1.11497,1.09776 -2.60145,1.50943 -4.08803,2.05843c-0.74324,-0.41177 -1.23876,-1.09788 -2.10579,-1.09788c-0.24783,0 -0.24783,-0.27444 -0.24783,-0.54888c0.74324,-0.13722 1.36268,-0.27444 1.982,-0.54888c0.12391,0 0.49553,-0.13722 0.49553,-0.41166c0,-0.27455 -0.37162,-0.41177 -0.61932,-0.41177c-0.24783,-0.27444 -0.61944,-0.27444 -0.86714,-0.13722c-0.99106,0.13722 -1.85821,0.13722 -2.84915,0.27444c-0.74335,0 -1.23876,0.27455 -1.48659,1.09788c-0.12379,0.27444 -0.2477,0.41166 -0.61932,0.13722c-0.12391,-0.27444 -0.49553,-0.41166 -0.74324,-0.6861c0.61932,0.13722 0.99094,-0.13722 1.11486,-0.68621c0.2477,-0.6861 -0.12391,-1.09776 -0.49553,-1.50943z" fill="#3a4a5e" stroke-width="0.11244"/><path d="M217.25882,71.81773v0c0,-0.41166 -0.37162,-0.96054 0.12391,-1.23498c0.49553,-0.13722 0.86714,0.41166 1.11486,0.82332c0.61944,0.82332 0.86714,1.78399 0.74324,2.88175c0,0.54899 -0.37162,0.54899 -0.61932,0.68621c-0.37162,0.27444 -0.61944,0 -0.74324,-0.27455c-0.49553,-0.82332 -0.74335,-1.78387 -0.61944,-2.88175z" fill="#8b8481" stroke-width="0.11244"/><path d="M227.78838,74.56226v0c0,-0.13722 0,-0.41166 0.2477,-0.41166c1.11486,0.13722 2.22983,-0.27444 3.34467,-0.13722c0.2477,0 0.61932,0.13722 0.86714,0.41166c0.2477,0.27444 0.2477,0.68621 0,0.82344c-0.86714,0.27444 -1.61038,1.09776 -2.60145,0.54888c-0.61932,-0.41166 -1.23876,-0.82332 -1.85808,-1.2351z" fill="#7e7a7b" stroke-width="0.11244"/><path d="M229.52255,84.03095v0c-0.37162,0.13733 -0.86703,0.27455 -1.36256,0.27455c0.37162,-0.27455 0.49553,-0.54899 0.37162,-0.96066c0,-0.6861 0,-1.3722 0,-2.05843c0,-0.54888 0.12391,-0.82332 0.61932,-1.23498c0.61944,-0.41166 0.24783,-1.2351 0.12391,-2.05843c0,0 -0.2477,-0.27444 0,-0.41166c0.37162,-0.13722 0.2477,0.13722 0.2477,0.41166c0.37173,0.41166 0.61944,0.82332 0,1.23498c0,0.13722 0,0.41177 0,0.54899c0.12391,1.3722 0,2.88175 0,4.25396z" fill="#49505a" stroke-width="0.11244"/><path d="M222.46171,78.95355v0c-0.86714,-0.13722 -1.85821,-0.13722 -2.84927,-0.41166c1.11497,-0.13722 1.85821,-0.82332 2.22983,-2.05843c0.12391,-0.13722 -0.12391,-0.6861 0.37162,-0.54888c0.24783,0 0.37162,0.41166 0.37162,0.6861c-0.12379,0.68621 -0.12379,1.50954 -0.12379,2.33287z" fill="#303e50" stroke-width="0.11244"/><path d="M232.00008,80.32588v0c0.74335,-0.27444 1.6105,-0.41166 2.35373,-0.27444c0.37162,0 0.61932,0.13722 0.61932,0.41166c0.12391,0.41166 -0.2477,0.54888 -0.49553,0.54888c-0.86703,0.13722 -1.61038,0.54888 -2.47753,0.41166c0,-0.27444 0,-0.6861 0,-1.09776z" fill="#7f7a78" stroke-width="0.11244"/><path d="M226.05408,81.56086v0c-0.37162,0 -0.74324,0.27455 -1.23876,0.13722c0.37162,-0.54888 0.12391,-1.23498 0.12391,-1.78387c0.37162,-0.27444 0.74324,-0.54899 1.11486,-0.27444c0,0.6861 0,1.23498 0,1.92109z" fill="#2f3e4f" stroke-width="0.11244"/><path d="M226.05408,79.63977v0c-0.24783,0.27444 -0.74324,0.27444 -1.11486,0.27444c0,-0.41166 -0.12391,-0.96066 0.2477,-1.09788c0.12391,-0.27444 0.49553,-0.27444 0.74324,-0.27444c0.37162,0.27444 0.12391,0.6861 0.12391,1.09788z" fill="#7f7975" stroke-width="0.11244"/><path d="M243.89232,94.32308v0c1.11486,0 2.2297,0 3.34467,-0.13722c-1.11497,0.41166 -2.22983,0.27444 -3.34467,0.13722z" fill="#6b7888" stroke-width="0.11244"/><path d="M238.31782,85.67771v0c2.35362,-0.54888 4.58344,-0.82332 6.93705,-0.6861c1.11497,0.13722 2.22983,0.27444 3.22088,0.82332c0.86703,0.41166 0.99094,1.09788 0.2477,1.78399c-0.86714,1.09776 -1.982,1.09776 -3.09697,0.6861c-0.2477,-0.27444 -0.61932,-0.41166 -0.2477,-0.82332c0.12391,-0.27444 0.12391,-0.41166 0,-0.6861c-0.37162,-0.41177 -2.22983,-0.41177 -2.60145,0.27444c-0.49541,-0.41166 -0.74324,-0.68621 -1.23876,-0.96066c-1.23876,-0.82332 -2.60132,-0.27444 -2.97294,1.37232c-0.24783,0.82332 -0.37173,0.54888 -0.74335,0.27444c-0.2477,-0.27444 -0.49541,-0.41166 -0.74324,-0.6861c-0.2477,0 -0.37162,-0.27444 -0.49553,0c-0.49541,0.41166 -0.86714,0.13722 -1.23876,-0.27444c0.24783,-0.41177 0.99106,-0.41177 1.23876,-0.82344c0.24783,0.13722 0.49553,0.27444 0.86714,0.41166c0.49553,0.27455 0.86714,0.13733 0.86714,-0.6861z" fill="#394a5e" stroke-width="0.11244"/><path d="M236.21191,82.52152v0c0.61944,-0.54888 1.36268,-0.41166 1.982,-0.13722c1.23876,0.27444 2.35373,-0.13722 3.34467,-0.82344c1.23876,-0.6861 2.35373,-0.6861 3.5925,-0.41166c0.12379,0.13722 0.2477,0.13722 0.37162,0.27444c0.37162,1.37232 1.36256,1.37232 2.35362,1.2351c-0.61932,0.41166 -1.11486,0.27444 -1.73429,0.27444c-0.99094,0.27444 -1.85808,0.6861 -2.84915,0.96054c0.24783,-0.82332 -0.12391,-1.09776 -0.99094,-1.09776c-1.23876,0.13722 -2.35373,0.54888 -3.71629,0.6861c-0.37173,0.13722 -0.74335,0.27444 -1.23876,0.13722c-0.37173,-0.41166 -0.74335,-0.82332 -1.11497,-1.09776z" fill="#5f636d" stroke-width="0.11244"/><path d="M237.32688,83.61929v0c1.73418,-0.41166 3.46847,-0.82332 5.20277,-1.09776c0.12391,0 0.37162,0 0.49553,0.13722c0.2477,0.13722 0.61932,0.27444 0.74324,0.6861c0.12391,0.41166 -0.49553,0.27444 -0.49553,0.54888c-0.12391,0 -0.12391,0 -0.2477,0c-0.49553,0.13722 -1.11497,0.13722 -1.61038,0.41177c-1.11497,0.27444 -2.10591,0.41166 -3.22088,0.6861c-0.37162,-0.41166 -0.61932,-0.96066 -0.86703,-1.37232z" fill="#37485b" stroke-width="0.11244"/><path d="M234.97315,85.67771v0c-0.2477,-0.41166 -0.49553,-1.09776 0,-1.23498c0.74324,-0.13722 0.99106,0.41166 1.11497,1.09776c-0.37173,0.41166 -0.74335,0.54888 -1.11497,0.13722z" fill="#303f50" stroke-width="0.11244"/><path d="M234.97315,85.67771v0c0.37162,0 0.74324,0 1.11497,-0.13722c0.12379,0.13722 0.2477,0.27444 0.49541,0.41166c0.12391,0.41166 -0.12379,0.41166 -0.37162,0.54899c-0.2477,0 -0.49553,0.27444 -0.86714,0.27444c-0.2477,-0.27444 -0.37162,-0.54899 -0.37162,-1.09788z" fill="#7f7875" stroke-width="0.11244"/><path d="M241.41479,84.3055v0c0.49541,-0.41177 1.11486,-0.41177 1.61038,-0.41177c0,0.13722 0,0.13722 0,0.13722c-0.49553,0 -1.11497,0.41177 -1.61038,0.27455z" fill="#5f636d" stroke-width="0.11244"/><g stroke-width="1"><path d="M240.75677,138.38483c-0.53701,-0.37363 -1.00536,-0.84239 -1.49605,-1.27889c-5.64782,-5.02405 -11.29337,-10.0511 -16.9366,-15.08117c-3.16122,-2.81534 -6.32353,-5.62925 -9.4869,-8.44175c-0.14227,-0.12641 -0.22332,-0.24758 -0.22309,-0.46428c0.00613,-5.71185 0.0078,-11.42372 0.00499,-17.13558c0,-0.05854 0.00474,-0.11708 0.00728,-0.17561c0.12712,-0.096 0.20115,0.0203 0.27813,0.09008c1.98404,1.7982 3.99823,3.55675 5.99125,5.34317c1.61775,1.45004 3.23946,2.89498 4.86513,4.33483c2.41781,2.15018 4.83465,4.30166 7.25053,6.45442c1.71973,1.53779 3.44892,3.06339 5.1701,4.59937c1.47881,1.3197 2.9565,2.6408 4.44702,3.94501c0.11746,0.0882 0.19882,0.22224 0.22703,0.37398c0.0198,0.17485 0.02668,0.35113 0.02054,0.52716c0.00045,5.4122 0.00002,10.82438 -0.0012,16.23656c-0.00009,0.23009 0.04185,0.47351 -0.11814,0.67272z" fill="#bd0000"/><path d="M240.75877,120.80109c-2.49757,-2.22298 -4.99522,-4.44583 -7.49297,-6.66857c-2.20665,-1.96173 -4.41439,-3.92203 -6.62322,-5.88089c-1.88815,-1.67925 -3.77467,-3.36063 -5.65955,-5.04419c-1.5201,-1.35269 -3.04161,-2.70348 -4.56457,-4.05241c-1.17787,-1.04888 -2.35355,-2.10065 -3.52706,-3.15527c-0.08171,-0.07298 -0.14665,-0.17701 -0.26503,-0.19216c0.07527,-0.2577 0.31454,-0.33003 0.47766,-0.48676c0.20178,-0.19388 0.42408,-0.36267 0.66183,-0.56275c0.60251,0.53458 1.20377,1.06814 1.80379,1.60067c3.61274,3.21599 7.22529,6.43229 10.83759,9.64887c4.33119,3.85739 8.66199,7.71527 12.99243,11.57365c0.7692,0.6852 1.53575,1.37398 2.31124,2.05074c0.14064,0.10845 0.22024,0.28733 0.2109,0.47406c-0.00449,5.68867 -0.00596,11.37733 -0.00444,17.06601c-0.00463,0.09199 -0.01418,0.18361 -0.0286,0.27441c-0.16042,-0.1572 -0.11457,-0.36855 -0.11512,-0.56085c-0.00447,-1.58088 -0.00245,-3.16178 -0.00247,-4.74267c-0.00002,-3.84098 -0.00068,-7.68195 -0.00196,-11.52294c-0.0001,-0.14651 0.04077,-0.30303 -0.05354,-0.45012c-0.35386,0.15271 -0.56791,0.55057 -0.9569,0.63121z" fill="#f07859"/><path d="M240.75877,120.80109c0.35133,-0.30256 0.70267,-0.60512 1.06497,-0.91711c0.08098,0.16103 0.04909,0.29024 0.04914,0.41267c0.00213,5.58837 0.00306,11.17674 0.00273,16.76511c0.00001,0.12842 0.00839,0.25684 0.01302,0.38498c-0.35521,0.34346 -0.71642,0.67892 -1.13176,0.93806c0.00171,-5.29854 0.00344,-10.59712 0.00516,-15.89571c0.00016,-0.56267 -0.00212,-1.12533 -0.00325,-1.688z" fill="#6d3d34"/><path d="M228.53074,125.22108c-0.53852,-0.40237 -1.18522,-0.69836 -1.28528,-1.53185c-0.11021,-0.17487 -0.18272,-0.37433 -0.2122,-0.58363c-0.12232,-0.70529 -0.35793,-1.38413 -0.38608,-1.9216c0.05992,0.60794 0.1393,1.39914 0.09495,2.19737c-0.00518,0.09337 0.00097,0.22493 -0.14593,0.22308c-0.06594,-0.07579 -0.1376,-0.14548 -0.21425,-0.20835c-0.5463,-0.37899 -0.92072,-0.85065 -0.77245,-1.61698c-0.08306,-0.10553 -0.09304,-0.23422 -0.0934,-0.36362c-0.00377,-1.36772 -0.00662,-2.73545 0.00142,-4.10317c0.00002,-0.07005 0.00859,-0.13979 0.0255,-0.2074c0.04906,-0.1652 0.16025,-0.19118 0.27268,-0.09975c0.37346,0.30372 0.76793,0.5848 1.0354,1.01637c0.2413,1.13231 0.52123,2.25602 0.65087,3.27752c-0.1727,-0.56543 -0.04145,-1.29114 -0.14323,-1.99966c-0.03324,-0.23142 -0.07515,-0.49244 0.08412,-0.7105c0.17736,-0.0562 0.28485,0.08052 0.3964,0.18116c0.85232,0.76885 0.72106,0.50638 0.72958,1.58982c0.00643,0.81667 0.00203,1.63345 0.00059,2.45018c-0.00615,0.16336 0.01146,0.32676 0.05218,0.4842c0.05198,0.52339 0.02057,1.04812 0.02265,1.57224c0.00683,0.12979 -0.03398,0.25724 -0.11354,0.35459z" fill="#feea00"/><path d="M214.58434,106.15254c-0.35532,-0.64575 -0.55103,-1.33433 -0.5244,-2.09617c0.01917,-0.54784 -0.00157,-1.09716 0.00645,-1.64562c0.00397,-0.27063 0.02896,-0.54274 0.29283,-0.68957c0.21309,-0.08043 0.40052,0.01116 0.58558,0.10628c0.82558,0.42433 1.45274,1.11242 2.05312,1.83125c0.19441,0.21846 0.36868,0.45695 0.52032,0.71207c0.29728,0.46923 0.41123,0.98909 0.39721,1.55474c-0.01385,0.55864 -0.00426,1.11799 -0.00243,1.67701c0.00672,0.20991 -0.02269,0.41933 -0.08672,0.61759c-0.06042,0.19152 -0.20778,0.33573 -0.38981,0.3815c-0.13341,0.04287 -0.27703,0.02702 -0.39971,-0.04413c-0.92866,-0.49671 -1.67694,-1.22904 -2.32829,-2.08921c-0.06998,-0.08919 -0.11329,-0.19931 -0.12418,-0.31576z" fill="#feea00"/><path d="M230.65047,120.23219c-0.21741,-0.49776 -0.32191,-1.04455 -0.30481,-1.59489c0.01543,-0.60687 0.00372,-1.21454 0.00622,-1.82185c0.001,-0.2419 0.03804,-0.46828 0.26404,-0.59462c0.30453,-0.1364 0.54918,0.05394 0.78367,0.19933c0.9739,0.60379 1.75559,1.43482 2.38695,2.43636c0.27931,0.44732 0.41563,0.98141 0.38811,1.52061c-0.02566,0.59295 -0.00566,1.1882 -0.00583,1.78245c0.01108,0.19826 -0.01449,0.39694 -0.0752,0.58437c-0.04979,0.15752 -0.17219,0.2752 -0.3225,0.31013c-0.38557,0.07456 -0.70191,-0.10357 -1.00615,-0.32491c-0.21269,-0.13729 -0.41381,-0.2946 -0.60102,-0.47007c-0.07433,-0.07993 -0.14592,-0.16305 -0.22619,-0.23657c-0.47883,-0.37937 -0.84099,-0.87232 -1.16523,-1.40216c-0.07214,-0.11789 -0.1437,-0.2358 -0.12204,-0.38817z" fill="#fee900"/><path d="M216.70129,114.32217c-0.27633,0.04798 -0.51529,-0.06656 -0.72462,-0.23486c-0.65938,-0.52628 -1.29307,-1.08932 -1.89852,-1.68682c-0.00035,-1.89436 -0.00042,-3.79015 -0.00019,-5.68736c0.44471,0.05431 1.97597,1.51464 2.55118,2.40047c0.23287,0.40202 0.39774,0.83138 0.42638,1.31072c0.02679,0.44809 -0.00802,0.87424 -0.42995,1.1297c0.40365,0.82245 0.68208,1.63501 0.34829,2.53874c-0.06075,0.1182 -0.12973,0.22549 -0.27258,0.22942z" fill="#fee900"/><path d="M220.14085,117.44723c-0.3459,0.10396 -0.61139,-0.09715 -0.86152,-0.29509c-0.78082,-0.61793 -1.41582,-1.36447 -1.70864,-2.3937c-0.19158,-0.23596 -0.16358,-0.52963 -0.18008,-0.81091c-0.00802,-0.13681 0.01598,-0.274 0.00047,-0.41114c-0.00541,-0.53479 -0.00681,-1.06959 -0.00062,-1.6044c0.01086,-0.42148 -0.00906,-0.84308 0.0028,-1.26454c0.01184,-0.30563 -0.05885,-0.61873 0.06936,-0.91392c0.04853,-0.04933 0.12012,-0.06118 0.18004,-0.02977c0.06974,0.03231 0.13349,0.07808 0.18817,0.13504c0.95767,0.89396 0.84661,0.4489 0.85709,1.9536c0.00775,1.11136 -0.03058,2.22308 0.02222,3.33328c0.02068,0.10624 0.04946,0.21046 0.08606,0.31155c0.07239,0.16776 0.14367,0.33643 0.34729,0.33909c0.1322,-0.13621 0.06963,-0.29382 0.07766,-0.43814c-0.00213,-0.17789 -0.01292,-0.35511 -0.00358,-0.53295c0.00483,-0.99671 -0.00073,-1.99292 0.00285,-2.98909c0.00054,-0.15075 -0.01966,-0.30615 0.05276,-0.44763c0.04003,-0.05813 0.11159,-0.07907 0.17322,-0.05069c0.07175,0.02672 0.13755,0.06933 0.19324,0.12514c1.01162,0.90785 0.85679,0.56112 0.86632,1.87565c0.0077,1.06373 -0.00024,2.12757 0.00329,3.19117c0.00969,0.22598 -0.01877,0.45199 -0.08397,0.66693c-0.05547,0.13561 -0.12069,0.25884 -0.28441,0.25052z" fill="#feea00"/><path d="M223.13565,120.1596c-0.70189,-0.03872 -1.15239,-0.5349 -1.59289,-1.03888c-0.30097,-0.34435 -0.48071,-0.77369 -0.66128,-1.19936c-0.19278,-0.21468 -0.19203,-0.49699 -0.22959,-0.76611c0.02365,-0.25813 -0.12018,-0.53032 0.05314,-0.77656c0.01544,-0.01748 0.03841,-0.04165 0.05192,-0.03473c0.43784,0.22445 0.8424,0.49039 1.0422,1.00492c-0.00657,0.31131 0.05471,0.6199 0.17886,0.90076c0.07689,0.15072 0.15597,0.29806 0.3413,0.30555c0.14128,-0.10711 0.0853,-0.24257 0.05653,-0.37289c-0.11035,-0.40007 -0.34001,-0.73448 -0.51518,-1.09873c-0.2044,-0.36016 -0.40811,-0.72066 -0.61472,-1.07963c-0.26407,-0.53561 -0.50381,-1.07909 -0.57598,-1.69283c-0.05564,-0.47316 0.06452,-1.02555 0.48749,-1.175c0.46254,-0.09265 0.78074,0.21204 1.09992,0.48811c0.3068,0.26534 0.54095,0.60585 0.75235,0.96309c0.36653,0.6457 0.63873,1.31646 0.51254,2.10802c-0.4494,-0.0586 -1.04243,-0.65477 -1.11224,-1.07511c-0.05665,-0.34113 -0.12237,-0.67945 -0.43555,-0.90432c-0.14915,0.21979 -0.04696,0.38872 0.02917,0.54348c0.16783,0.3408 0.35252,0.67153 0.55327,0.99076c0.29548,0.47616 0.55413,0.97793 0.77331,1.50019c0.29283,0.68672 0.29186,1.4022 0.1526,2.12771c-0.07104,0.15827 -0.16573,0.2828 -0.34716,0.28156z" fill="#feea00"/><path d="M237.24797,132.71268c-0.54327,0.0148 -0.91963,-0.34346 -1.29428,-0.69233c-0.44018,-0.40987 -0.7252,-0.9409 -0.95623,-1.50917c-0.20949,-0.23078 -0.21113,-0.53108 -0.23595,-0.8237c0.02012,-0.2575 -0.11446,-0.52693 0.04882,-0.77395c0.03065,-0.03778 0.07395,-0.06191 0.11256,-0.03467c0.36688,0.25879 0.72067,0.53438 0.96926,0.93724c0.02768,0.33014 0.04315,0.66319 0.18914,0.96611c0.01245,0.03152 0.02635,0.06233 0.04164,0.09236c0.07201,0.11994 0.1235,0.31492 0.29329,0.24144c0.16107,-0.06971 0.11007,-0.24597 0.06711,-0.39105c-0.14061,-0.36371 -0.31005,-0.71353 -0.50646,-1.04552c-0.21754,-0.40983 -0.45267,-0.80828 -0.669,-1.21911c-0.26093,-0.48344 -0.4372,-1.01491 -0.51996,-1.56766c-0.04074,-0.45879 -0.03201,-0.89662 0.41986,-1.14345c0.38373,-0.13258 0.69418,0.04793 0.98265,0.28637c0.24319,0.19234 0.45996,0.42106 0.64384,0.67933c0.19985,0.25237 0.32717,0.5555 0.49517,0.83061c0.1811,0.3655 0.29498,0.76558 0.33533,1.17807c-0.00241,0.17248 0.02482,0.35063 -0.06536,0.50507c-0.14358,0.06008 -0.23849,-0.0258 -0.33028,-0.10447c-0.38614,-0.33098 -0.79694,-0.62178 -0.81967,-1.25867c-0.0121,-0.3394 -0.16121,-0.45437 -0.41614,-0.56325c-0.08501,0.24041 0.03919,0.43204 0.12788,0.6208c0.2306,0.49079 0.53331,0.93502 0.79748,1.40439c0.10682,0.18979 0.21724,0.377 0.31492,0.57319c0.39905,0.81437 0.5282,1.66636 0.30769,2.56772c-0.07058,0.14597 -0.13831,0.29733 -0.33332,0.24431z" fill="#fee900"/><path d="M234.25219,130.04746c-0.54779,0.02183 -0.92573,-0.34294 -1.29319,-0.69797c-0.63473,-0.61325 -0.99458,-1.39505 -1.11534,-2.30606c0.02557,-0.25451 -0.16004,-0.51878 0.05247,-0.81265c0.38821,0.22614 0.73836,0.49148 0.99954,0.88436c0.03795,0.33711 0.03153,0.68432 0.18948,0.99467c0.01518,0.05582 0.03671,0.1094 0.0641,0.15946c0.07301,0.09744 0.13993,0.24222 0.28016,0.17553c0.13999,-0.06657 0.09687,-0.21274 0.06555,-0.33857c-0.122,-0.39398 -0.31815,-0.74702 -0.51567,-1.09933c-0.21473,-0.41306 -0.4589,-0.80737 -0.66571,-1.22573c-0.27147,-0.54699 -0.50447,-1.1078 -0.53796,-1.74093c0.00401,-0.14564 0.0242,-0.29021 0.06013,-0.43062c0.00855,-0.10938 0.04477,-0.2141 0.10466,-0.30267c0.08687,-0.11062 0.19849,-0.19525 0.3242,-0.24575c0.42543,-0.13626 0.73178,0.11655 1.01768,0.38927c0.32397,0.30903 0.63272,0.63837 0.85366,1.04855c0.27314,0.48584 0.49645,0.99186 0.53992,1.57033c0.00273,0.02319 0.00334,0.04663 0.00186,0.06995c-0.01683,0.15559 0.0504,0.35857 -0.12016,0.43921c-0.15131,0.07153 -0.2495,-0.09828 -0.36064,-0.1819c-0.133,-0.10006 -0.25006,-0.22314 -0.38124,-0.32591c-0.16855,-0.13053 -0.27591,-0.33444 -0.29378,-0.55802c-0.04319,-0.34717 -0.13149,-0.6813 -0.44251,-0.91655c-0.13196,0.27616 0.00146,0.48062 0.09609,0.67266c0.1573,0.31919 0.35271,0.61558 0.52769,0.92421c0.38874,0.68569 0.83431,1.34655 0.93714,2.1752c0.06054,0.48783 0.08365,0.97754 -0.05307,1.45913c-0.07087,0.14621 -0.15504,0.26903 -0.33505,0.22012z" fill="#fee900"/><path d="M231.59327,126.85071v1.16958c-0.88395,-0.77967 -1.70635,-1.50503 -2.52874,-2.23042c-0.06734,-0.29001 -0.01428,-0.58504 -0.03117,-0.87698c-0.04381,-0.22872 -0.06362,-0.46207 -0.05904,-0.69561c0.00384,-1.24307 0.00048,-2.48617 0.00324,-3.72925c0.00035,-0.1601 -0.03014,-0.33192 0.09186,-0.46627c0.13505,-0.02635 0.22919,0.06228 0.32126,0.13973c0.72706,0.61171 1.4237,1.26399 2.142,1.88747c0.05114,0.04416 0.09205,0.10061 0.11951,0.16489c0.06901,0.32545 0.0701,0.66347 0.0032,0.98944c-0.19209,0.21846 -0.31154,-0.0128 -0.45668,-0.08595c-0.28434,-0.27928 -0.60205,-0.51323 -0.92513,-0.83423c-0.03091,0.26207 -0.03253,0.52722 -0.00485,0.78971c0.25958,0.37744 0.64505,0.59998 0.95676,0.91316c0.14193,0.14261 0.30076,0.26553 0.32343,0.4966c-0.00307,0.34377 0.05405,0.69415 -0.0673,1.0675c-0.49275,-0.17045 -0.75614,-0.63 -1.18391,-0.87216c-0.07745,0.25223 -0.03264,0.50412 -0.03117,0.75174c0.03094,0.19129 0.17165,0.29059 0.29629,0.39607c0.27938,0.23639 0.54679,0.4884 0.82425,0.72717c0.09131,0.07858 0.19158,0.1548 0.20621,0.29779z" fill="#feea00"/><path d="M237.65569,124.78826c-0.25028,-0.04442 -0.36101,-0.31368 -0.57428,-0.41771c-0.25098,-0.06232 -0.39325,-0.29757 -0.59557,-0.43658c-0.113,-0.07764 -0.18589,-0.22607 -0.33952,-0.22793c-0.08171,0.48282 -0.00929,0.96732 -0.03826,1.44853c-0.01275,0.21177 -0.05253,0.38844 -0.30653,0.23442c-0.29572,-0.23762 -0.56678,-0.51088 -0.86879,-0.73728c-0.28056,-0.21034 -0.39812,-0.47597 -0.36485,-0.83725c0.0075,-0.11724 0.00525,-0.23498 -0.00673,-0.35179c-0.01883,-0.47383 0.00947,-0.94741 -0.00667,-1.42101c-0.00568,-0.67291 -0.00428,-1.34564 -0.0008,-2.01834c0.00088,-0.17022 -0.0255,-0.35246 0.105,-0.49255l0.01907,-0.01355c0.14799,-0.0758 0.24882,0.0299 0.34489,0.11719c0.89007,0.80886 1.79517,1.59782 2.69508,2.39365c0.09324,0.08245 0.17955,0.16848 0.20085,0.306c0.01552,0.24193 0.04983,0.48494 -0.03658,0.72032c-0.08726,0.18423 -0.1993,0.08879 -0.28212,0.01071c-0.24189,-0.22808 -0.51427,-0.41395 -0.7517,-0.64692c-0.23665,-0.18405 -0.42801,-0.43086 -0.68696,-0.58095c-0.11309,0.16611 -0.0637,0.33805 -0.02089,0.50921c0.01781,0.02706 0.03456,0.05425 0.05265,0.08094c0.37199,0.37612 0.77597,0.71031 1.16484,1.06376c0.401,0.36449 0.49347,0.74312 0.2979,1.29715z" fill="#feea00"/><path d="M225.08012,122.19253c-0.36058,-0.30342 -0.72116,-0.60683 -1.08173,-0.91026c-0.08012,-0.6438 -0.11646,-1.29309 -0.1087,-1.94265c-0.00599,-1.14415 -0.00413,-2.28835 -0.00025,-3.43252c-0.00224,-0.09335 0.00728,-0.18657 0.02829,-0.27713c0.03417,-0.12826 0.1292,-0.1858 0.21913,-0.10861c0.36631,0.31439 0.81127,0.53742 1.04074,1.0174c0.05415,0.49047 0.02315,0.98247 0.02519,1.47351c0.00502,1.20566 0.00292,2.41138 0.00053,3.61706c-0.0004,0.19657 0.02246,0.40241 -0.12319,0.56321z" fill="#feea00"/><path d="M223.99175,115.50298c0.00222,1.92646 0.00443,3.85288 0.00663,5.77931c-0.15094,-0.19027 -0.03387,-0.42087 -0.08053,-0.62682c-0.1562,-0.2794 -0.01886,-0.59838 -0.10105,-0.89547c-0.15191,-0.02745 -0.22813,0.23939 -0.39898,0.12298c0.27162,-1.2444 -0.15661,-2.29788 -0.76495,-3.30442c-0.2251,-0.37242 -0.43893,-0.75282 -0.65902,-1.12881c-0.08986,-0.14716 -0.15253,-0.31179 -0.18454,-0.48478c-0.02247,-0.13341 -0.07376,-0.30163 0.08735,-0.36767c0.14641,-0.06 0.24212,0.06949 0.318,0.18497c0.11365,0.17293 0.23753,0.36399 0.22959,0.57299c-0.01773,0.46742 0.2486,0.71287 0.54988,0.9511c0.14703,0.11628 0.28485,0.24621 0.43105,0.37366c0.14607,-0.46967 0.03419,-0.94176 -0.48164,-2.07067c-0.06661,-0.13916 0.01516,-0.22322 0.103,-0.29397c0.13114,-0.10561 0.22546,-0.25066 0.34897,-0.36358c0.03006,-0.01063 0.0628,-0.00764 0.0908,0.0083c0.06193,0.44025 0.43104,0.59753 0.6819,0.86317c0.08954,0.09481 0.21742,0.15265 0.23821,0.30906c-0.0841,0.19437 -0.24077,0.29383 -0.41469,0.37064z" fill="#cf2211"/><path d="M225.93019,112.55534c-0.0106,0.00588 -0.01974,0.01442 -0.02665,0.02493c-0.03117,-0.00823 -0.05742,-0.03092 -0.07173,-0.06201c-0.02,-0.04192 -0.02936,-0.08886 -0.02716,-0.13599c0.07838,-0.56242 -0.15591,-0.90737 -0.57125,-1.24886c-0.96306,-0.79183 -1.88117,-1.64869 -2.8062,-2.49423c-0.00546,-0.2954 0.21802,-0.34333 0.40145,-0.43465c0.11271,-0.10695 0.20293,-0.16167 0.35568,-0.02372c1.05215,0.95028 2.11495,1.88672 3.17403,2.82798c0.06364,0.04715 0.10256,0.12448 0.10463,0.20796c-0.00442,0.01748 -0.00884,0.03495 -0.01304,0.05255c-0.31695,0.2469 -0.49447,0.55967 -0.42627,1.0026c0.01663,0.10568 -0.01878,0.2131 -0.09345,0.28345z" fill="#fe6036"/><path d="M237.85173,122.27498c-0.98171,-0.87832 -1.96397,-1.75594 -2.94674,-2.63285c-0.07135,-0.05041 -0.14758,-0.09218 -0.22732,-0.12459c0.09927,-0.23894 0.33005,-0.32517 0.48931,-0.49435c0.07738,-0.0822 0.15336,-0.05408 0.22941,0.01464c1.00275,0.90584 2.00589,1.81117 3.00944,2.71595c0.00728,0.00657 0.00827,0.0213 0.01219,0.03222c-0.10711,0.2505 -0.31696,0.4317 -0.5663,0.489z" fill="#fe5f36"/><path d="M217.41629,104.33319c-0.60821,-0.82068 -1.25778,-1.59329 -2.08209,-2.17327c-0.29498,-0.21459 -0.62632,-0.36373 -0.97484,-0.43878c0.55853,-0.59246 0.7508,-0.61243 1.39603,-0.17751c0.86766,0.59197 1.61428,1.36998 2.19391,2.28616c-0.05899,0.31506 -0.29507,0.41039 -0.53301,0.50339z" fill="#fd5f36"/><path d="M233.68334,118.82227c-0.57277,-0.81209 -1.21203,-1.55098 -2.0036,-2.12029c-0.32536,-0.23402 -0.66285,-0.44055 -1.0637,-0.48117c0.64629,-0.65838 0.69569,-0.66245 1.58749,-0.06719c0.80452,0.53701 1.44795,1.27532 1.99639,2.10808c-0.00752,0.36469 -0.28741,0.43524 -0.51657,0.56058z" fill="#fd6238"/><path d="M225.08012,122.19253c0.00306,-1.91911 0.00611,-3.83821 0.00917,-5.75732c0.12668,-0.2158 0.27626,-0.39777 0.53249,-0.42203c0.03377,0.28189 -0.08609,0.57937 0.07344,0.8485c0.01794,0.06818 -0.03794,0.0921 -0.06744,0.13185c-0.00609,1.59522 -0.01218,3.19039 -0.01826,4.7856c-0.24253,0.03867 -0.30614,0.34582 -0.52939,0.41341z" fill="#c8200f"/><path d="M228.53074,125.22108l-0.00063,-1.96921c-0.03856,-1.21597 -0.0103,-2.43231 -0.01385,-3.64846c-0.00087,-0.29674 0.20902,-0.49558 0.55072,-0.56541c0.03129,0.28079 -0.08141,0.57524 0.06839,0.84478c-0.07865,0.13536 -0.11594,0.29411 -0.10658,0.45372c0.0048,1.36554 0.00509,2.73111 0.00085,4.09667c-0.00027,0.12494 0.03537,0.25686 -0.0346,0.37541c-0.18276,0.10058 -0.26627,0.33206 -0.46432,0.41248z" fill="#ca2210"/><path d="M228.99505,124.80859c0.00238,-1.49625 0.00471,-2.99251 0.00697,-4.48876c0.00022,-0.16193 -0.02606,-0.33242 0.13332,-0.43706c0.16213,-0.13193 0.32422,-0.26389 0.50697,-0.41266c0.23582,0.21298 0.47044,0.43153 0.71255,0.63986c0.0828,0.07125 0.14932,0.2189 0.2955,0.12208c0.33265,0.68339 0.80664,1.24048 1.33262,1.75121c-0.10409,0.13669 -0.21444,0.26039 -0.40082,0.22618l-2.4778,-2.16967c-0.07806,0.12941 -0.04746,0.25834 -0.04768,0.3767c-0.00256,1.35546 -0.00099,2.71092 -0.00251,4.06638c-0.00014,0.12772 -0.01377,0.25545 -0.02114,0.38316l-0.01885,0.00527c-0.00476,-0.02143 -0.01117,-0.04239 -0.01917,-0.06267z" fill="#fe5f36"/><path d="M233.68334,118.82227c0.14026,-0.22137 0.4187,-0.2935 0.51658,-0.56059c0.21934,0.30177 0.35484,0.66492 0.39067,1.04701c0.00884,0.08052 -0.00236,0.16498 0.06811,0.22204c-0.00079,0.84127 -0.0016,1.68252 -0.0024,2.52377c-0.07983,0.37874 -0.2611,0.64938 -0.64255,0.70677c0.11867,-1.01321 0.08771,-2.02925 0.02507,-3.0431c-0.02031,-0.32869 -0.23405,-0.59775 -0.35547,-0.89589z" fill="#c61f10"/><path d="M216.5793,109.17996c-0.65718,-0.99127 -1.55958,-1.69248 -2.42643,-2.45872c-0.08622,0.15557 -0.0522,0.28579 -0.05241,0.40837c-0.00288,1.62902 -0.00387,3.25803 -0.00296,4.88706c-0.00011,0.12817 -0.01234,0.25632 -0.01914,0.38415c-0.06174,-0.1092 -0.03173,-0.22948 -0.0319,-0.34403c-0.00233,-1.61882 0.00864,-3.2378 -0.01007,-4.85639c-0.00417,-0.36013 0.05557,-0.63333 0.35206,-0.82264c0.09064,-0.04348 0.16125,-0.12474 0.1958,-0.22537c0.64479,0.96187 1.4812,1.75425 2.44721,2.31839c0.15156,0.18636 0.11539,0.32619 -0.08651,0.43199c-0.13508,0.07078 -0.23588,0.19684 -0.36566,0.27717z" fill="#fb5c33"/><path d="M217.41629,104.33319c0.15274,-0.19872 0.40405,-0.27514 0.53298,-0.50341c0.27271,0.29438 0.31553,0.68797 0.39296,1.06663c0.02784,0.03225 0.04958,0.07008 0.06399,0.11137c0.04686,0.86276 0.04994,1.72767 0.00924,2.59081c-0.11715,0.34378 -0.30169,0.60896 -0.66722,0.65924c0.12532,-0.96289 0.06214,-1.93009 0.04022,-2.89479c-0.00853,-0.37571 -0.2098,-0.70212 -0.37218,-1.02986z" fill="#c51f10"/><path d="M222.82862,108.20452c-0.08142,0.19033 -0.32522,0.20148 -0.38817,0.4122c0.06041,0.08106 0.08889,0.18466 0.07922,0.28831c-0.0146,0.28492 0.03566,0.56937 0.14635,0.82833c-0.04648,0.5362 0.0403,1.0731 -0.0121,1.6102c-0.03103,0.31809 -0.1838,0.54463 -0.41103,0.72032c-0.08849,0.06841 -0.19501,0.17252 -0.30865,0.02608c-0.06205,-0.31504 0.01044,-0.6288 0.01059,-0.94351c0.00046,-0.94834 -0.03497,-1.89727 0.01867,-2.84496c0.1208,-0.30299 0.31332,-0.52031 0.61991,-0.59915c0.12056,0.14517 0.09332,0.37493 0.24521,0.50217z" fill="#ab2013"/><path d="M225.22621,115.37082c-0.06725,0.00419 -0.13857,-0.0086 -0.1919,0.0538c-0.04053,0.08997 -0.08764,0.15252 -0.17487,0.04928c-0.02669,-0.05102 -0.04196,-0.1081 -0.04461,-0.16667c-0.02095,-1.08445 -0.02074,-2.16889 0.00064,-3.25334c0.00686,-0.3295 0.15089,-0.38942 0.39378,-0.1857c0.15036,0.12612 0.32735,0.23465 0.38207,0.45797c-0.00448,0.7942 0.00136,1.58856 -0.00455,2.38286c-0.00219,0.29295 -0.04489,0.56613 -0.36055,0.66181z" fill="#932215"/><path d="M231.59327,126.85071c-0.46722,-0.45317 -1.00469,-0.81787 -1.42699,-1.32762c0.46692,-0.19439 0.9373,-0.20567 1.34777,0.11672c0.25996,0.20416 0.48277,0.33712 0.78201,0.13363c0.02602,-0.01769 0.06254,0.00444 0.09124,0.02169c0.21716,0.39305 0.4343,0.78612 0.65145,1.17918c-0.02583,0.10411 -0.07573,0.17399 -0.18812,0.15496l-0.95283,-0.86457c-0.09304,0.29767 -0.01083,0.54332 -0.05409,0.77901c-0.0789,-0.07106 -0.03118,-0.17718 -0.06445,-0.2683c-0.08631,-0.05345 -0.11782,0.07015 -0.18601,0.07532z" fill="#fe5e34"/><path d="M236.12384,123.50231c0.31912,0.28936 0.63828,0.57875 0.95747,0.86815c-0.00762,0.52254 -0.01531,1.04504 -0.02307,1.56749c-0.11917,0.09764 -0.22348,0.02679 -0.3255,-0.03733c-0.22283,-0.14005 -0.37233,-0.38551 -0.61415,-0.50044c-0.07004,-0.03329 -0.06205,-0.11471 -0.06213,-0.18369c-0.00066,-0.52218 -0.00068,-1.04438 -0.00007,-1.56656c-0.00366,-0.05877 0.02209,-0.11513 0.06745,-0.14761z" fill="#7a120b"/><path d="M237.24797,132.71268c0.1191,-0.03876 0.18941,-0.14259 0.268,-0.23541c0.03831,-0.0702 0.08632,-0.13365 0.14238,-0.18808c0.42912,-0.35165 0.4298,-0.85009 0.39603,-1.35829c-0.01432,-0.21546 -0.10017,-0.4353 0.04951,-0.63499c0.44222,0.78601 0.634,1.62458 0.45429,2.54081c-0.06294,0.32093 -0.21359,0.4246 -0.50653,0.36156c-0.31118,-0.05786 -0.59475,-0.22919 -0.80368,-0.48558z" fill="#5f0000"/><path d="M238.10389,130.29592c-0.0482,0.43882 0.08834,0.86452 0.0244,1.31946c-0.06407,0.45585 -0.30344,0.66297 -0.61232,0.86191c0.19999,-0.91005 0.05264,-1.76734 -0.33541,-2.58808c0.10265,-0.31035 0.27834,-0.41846 0.59497,-0.36614c0.10854,0.25808 0.26438,0.4926 0.32837,0.77285z" fill="#922418"/><path d="M225.22621,115.37082c0.23635,-0.21625 0.27583,-0.49621 0.26633,-0.81678c-0.01839,-0.62088 -0.00809,-1.24284 -0.00497,-1.86432c0.00062,-0.12356 -0.03782,-0.26232 0.07661,-0.35969c0.17051,-0.03455 0.23577,0.11036 0.32126,0.22076c-0.00191,0.00651 -0.001,0.01363 0.00247,0.01934c0.00348,0.00571 0.00914,0.00944 0.01543,0.01011c0.08235,0.50953 0.02528,1.02302 0.03436,1.53448c0.01093,0.61451 0.00259,1.22943 0.00259,1.95343c-0.27802,-0.28286 -0.53914,-0.43168 -0.7141,-0.69731z" fill="#640000"/><path d="M222.58342,107.70235c-0.18263,0.16454 -0.36527,0.3291 -0.5479,0.49365c-0.05186,0.01913 -0.10924,0.00485 -0.14818,-0.03688c-0.42043,-0.3919 -0.88043,-0.73184 -1.28424,-1.14594c-0.02495,-0.12964 0.03547,-0.19324 0.14479,-0.21882c0.1474,-0.11474 0.29481,-0.22949 0.46312,-0.36051c0.46895,0.41244 0.96029,0.78866 1.37242,1.26851z" fill="#fe6036"/><path d="M227.444,118.60785c0.03419,0.98143 0.06838,1.96286 0.10257,2.94428l-0.03779,0.01021c-0.24788,-1.19512 -0.49577,-2.39022 -0.74366,-3.58532c0.0506,-0.29348 0.23925,-0.47214 0.53289,-0.50467c0.10925,0.30761 0.04164,0.67744 0.28175,0.93904c0.0212,0.11931 -0.07588,0.14282 -0.13577,0.19645z" fill="#cc2212"/><path d="M218.355,104.96152c-0.00676,-0.02106 -0.01106,-0.04293 -0.01283,-0.06514c0.01059,-0.00229 0.02099,-0.00548 0.03113,-0.00953c0.2221,-0.10837 0.35936,-0.46336 0.60831,-0.39517c0.2195,0.06012 0.4152,0.28331 0.58697,0.47137c0.23672,0.25916 0.5983,0.38199 0.71997,0.76596c-0.00709,0.01468 -0.01416,0.02935 -0.02097,0.04421c-0.15513,0.15779 -0.30401,0.32495 -0.51126,0.40617c-0.35566,-0.14043 -0.58629,-0.46577 -0.87237,-0.70727c-0.18448,-0.15572 -0.3952,-0.28954 -0.52896,-0.5106z" fill="#fe5f36"/><path d="M236.12384,123.50231c-0.09054,0.59346 -0.00517,1.1899 -0.03988,1.79636c0.43372,0.03293 0.53916,0.62112 0.97431,0.63925c0.08843,0.11702 0.1769,0.23403 0.26541,0.35102c-0.00179,0.29491 -0.17403,0.45639 -0.52507,0.49234c-0.22549,-0.23296 -0.44079,-0.47909 -0.67929,-0.69522c-0.24606,-0.22299 -0.53054,-0.36074 -0.86717,-0.29146c0.07876,-0.31039 0.31482,-0.40476 0.56393,-0.4812c0.0563,0.02983 0.11262,0.05965 0.21903,0.116c0,-0.57353 -0.00397,-1.11439 0.00385,-1.65508c0.00132,-0.09148 -0.07306,-0.23044 0.08489,-0.27199z" fill="#fd6336"/><path d="M227.444,118.60785c0.04523,-0.06551 0.09047,-0.13102 0.13572,-0.19649c0.14535,-0.11726 0.29065,-0.23457 0.45352,-0.36605c0.34581,0.33955 0.75822,0.57949 1.03374,0.99267c-0.42949,0.24181 -0.55524,0.61049 -0.53456,1.13803c0.04012,1.02355 0.00296,2.05066 -0.00224,3.07607c-0.0788,-0.31103 -0.03089,-0.62809 -0.03388,-0.94177c-0.00806,-0.84404 -0.0021,-1.68824 -0.00392,-2.53238c-0.00027,-0.12574 0.03443,-0.27055 -0.07802,-0.36099c-0.32781,-0.26366 -0.59713,-0.60961 -0.97036,-0.80909z" fill="#fe5f35"/><path d="M237.77553,129.52307c-0.23421,0.05365 -0.44808,0.14605 -0.59492,0.36614c-0.34298,-0.59242 -0.68583,-1.18493 -1.02851,-1.77752c-0.10841,-0.17503 -0.18736,-0.36948 -0.23315,-0.57433c-0.02617,-0.1351 -0.07781,-0.30059 0.0656,-0.3795c0.16212,-0.08921 0.25511,0.0691 0.34065,0.18489c0.16234,0.20754 0.25385,0.46922 0.25918,0.74116c-0.00113,0.26687 0.09848,0.43152 0.2883,0.57653c0.23328,0.17821 0.42923,0.41294 0.72065,0.5793v-0.48668c0.23499,0.1299 0.11969,0.31565 0.06686,0.49144c0.03845,0.09286 0.07689,0.18572 0.11534,0.27857z" fill="#b8371e"/><path d="M236.8743,122.34744c0.35166,0.21705 0.59366,0.59844 0.97883,0.76525c0.00512,-0.0134 0.01583,-0.02336 0.02883,-0.02683c0.01301,-0.00347 0.02677,-0.00001 0.03704,0.00927c0.13342,0.08796 0.28644,0.15697 0.29874,0.36205c-0.31842,0.32796 -0.48702,0.7191 -0.44451,1.20486c0.00038,0.05927 -0.02997,0.11373 -0.07857,0.14098c-0.01419,0 -0.02799,-0.00517 -0.03914,-0.01468c0.10294,-0.6493 -0.10574,-1.11642 -0.62317,-1.48987c-0.34162,-0.24656 -0.69104,-0.51397 -0.94941,-0.88012c0.25021,-0.20121 0.52471,-0.08464 0.79135,-0.07091z" fill="#fd5f34"/><path d="M220.74786,106.79435c-0.04097,0.06315 -0.08193,0.1263 -0.1229,0.18946c0.06383,0.10982 0.09539,0.23803 0.09054,0.36768c0.00372,0.72613 0.0048,1.45224 -0.00097,2.17834c0.00853,0.11786 -0.01908,0.23548 -0.07853,0.33463c-0.26025,0.05465 -0.30414,-0.17505 -0.3508,-0.34913c-0.06956,-0.27071 -0.10357,-0.55069 -0.10107,-0.83167c-0.00089,-0.82978 -0.00075,-1.65956 0.00042,-2.48933c0.00033,-0.16317 -0.00708,-0.32991 0.09909,-0.46753l0.00488,0.00221c0.22179,0.31538 0.37842,0.67868 0.45934,1.06533z" fill="#7d0401"/><path d="M237.66017,129.2445c-0.03986,-0.16106 0.04176,-0.34147 -0.06686,-0.49149c-0.0589,-0.41722 -0.17313,-0.82303 -0.33915,-1.20489c-0.02795,-0.32566 0.17183,-0.51263 0.52258,-0.48903c0.12063,0.24663 0.3042,0.46139 0.3273,0.75739c0.05489,0.24601 0.17521,0.47501 0.15393,0.74099c-0.02111,0.26383 -0.1037,0.474 -0.36555,0.54654c-0.10515,-0.00689 -0.15629,0.09084 -0.23227,0.14048z" fill="#952418"/><path d="M227.298,117.47236c-0.20543,0.13389 -0.41141,0.2671 -0.53277,0.50485c-0.36863,-0.34238 -0.701,-0.73358 -1.13752,-0.9836c0.02247,-0.04408 0.04496,-0.08808 0.06742,-0.132c0.16791,-0.13853 0.33575,-0.27711 0.52523,-0.43357c0.34351,0.37251 0.79994,0.59587 1.07764,1.04433z" fill="#fe5f35"/><path d="M224.91364,115.50788c0.04022,-0.02769 0.08042,-0.05541 0.12064,-0.08316c0.22318,0.16404 0.49335,0.27322 0.58747,0.5884c-0.17747,0.14068 -0.35496,0.28137 -0.53247,0.42204c-0.36585,-0.31067 -0.73171,-0.62139 -1.09755,-0.93213c0.10121,-0.15249 0.23818,-0.27294 0.39675,-0.34894c0.26225,-0.03375 0.35918,0.22009 0.52517,0.3538z" fill="#fe5f34"/><path d="M226.5962,123.60445c0.14015,-0.08761 0.07055,-0.23057 0.07121,-0.34864c0.00449,-0.79457 0.00234,-1.58921 0.00234,-2.30119c0.1784,0.84736 0.37704,1.79088 0.57569,2.7345c-0.10621,-0.06849 -0.21243,-0.13708 -0.27076,-0.17475c-0.18491,-0.06975 -0.20507,0.26456 -0.37848,0.09009z" fill="#ac2411"/><path d="M226.46297,111.21675c0.35609,0.55295 0.56118,1.14758 0.42573,1.86775l-0.74371,-0.6728c0.24996,-0.35201 0.18928,-0.80097 0.31713,-1.19109z" fill="#620000"/><path d="M238.29398,123.53934c0.25178,0.5286 0.50853,1.05589 0.36045,1.7263c-0.29705,-0.12971 -0.49276,-0.41173 -0.74529,-0.60307c0.17768,-0.28491 0.26682,-0.62379 0.25447,-0.96734c-0.00307,-0.07279 0.02308,-0.1669 0.13038,-0.15591z" fill="#5f0000"/><path d="M238.43109,121.90545c0.30211,0.52405 0.58175,1.05446 0.41196,1.73813c-0.26129,-0.2158 -0.53128,-0.39806 -0.73683,-0.66752c0.24187,-0.30937 0.18861,-0.72367 0.32488,-1.07059z" fill="#660000"/><path d="M237.89244,129.10402c0.28544,-0.26762 0.33851,-0.59469 0.2274,-0.97457c-0.02818,-0.09635 -0.01173,-0.20799 -0.0158,-0.31277c0.34984,0.59935 0.53164,1.29577 0.52334,2.00478c-0.28245,-0.27571 -0.50871,-0.49657 -0.73496,-0.71744z" fill="#610100"/><path d="M217.48192,113.54553c0.01495,0.40537 0.01826,0.81171 0.08875,1.21259c-0.11816,0.16817 -0.22877,0.0256 -0.32922,-0.02131c-0.2103,-0.08493 -0.39645,-0.22787 -0.54006,-0.4147c0.06883,-0.07752 0.13773,-0.15508 0.20668,-0.23265c0.1672,-0.21109 0.28883,-0.4785 0.57385,-0.54395z" fill="#630200"/><path d="M237.77676,127.0591c-0.20077,0.12978 -0.50031,0.1359 -0.52257,0.48911c-0.15187,-0.25573 -0.30372,-0.51138 -0.45555,-0.76698c0.19002,-0.14534 0.45747,-0.19396 0.52503,-0.49234c0.25304,0.18644 0.32344,0.49876 0.4531,0.77021z" fill="#d13e24"/><path d="M238.4311,121.90545c-0.02381,0.38693 0.08957,0.82264 -0.32491,1.07059c-0.06244,0.03978 -0.12486,0.0795 -0.18727,0.1192c-0.02185,0.00576 -0.04383,0.01163 -0.06578,0.01748c-0.00047,-0.27927 -0.00095,-0.5585 -0.00142,-0.83773c0.18883,-0.16309 0.37764,-0.32615 0.56641,-0.48913c0.00426,0.03994 0.00859,0.07978 0.01298,0.11956z" fill="#8c2517"/><path d="M223.41783,119.88299c0.20301,-0.02517 0.26677,-0.29055 0.48988,-0.33651c0.03524,0.36851 0.03866,0.73977 0.01021,1.10898c-0.29067,-0.10994 -0.56885,-0.24292 -0.78217,-0.49587c0.11523,-0.06311 0.21267,-0.15864 0.28209,-0.27658z" fill="#670100"/><path d="M238.29398,123.53934c-0.10333,0.10416 -0.07187,0.24392 -0.05795,0.3619c0.0395,0.33494 -0.05672,0.58861 -0.32688,0.76137c-0.07138,0.04679 -0.14281,0.09359 -0.2143,0.1404c0.01096,-0.1044 0.01242,-0.20971 0.00441,-0.31442c-0.08233,-0.49748 0.11513,-0.82348 0.51856,-1.03133c0.02536,0.02731 0.05074,0.05467 0.07616,0.08208z" fill="#8e2817"/><path d="M226.46211,111.22061c-0.00518,0.10541 -0.00428,0.21106 0.00275,0.31635c0.043,0.35782 -0.01558,0.66787 -0.31992,0.87477c-0.07147,0.04786 -0.14302,0.09573 -0.21465,0.14363c0.00261,-0.1377 0.02641,-0.27951 0.00423,-0.41232c-0.08113,-0.48577 0.15953,-0.74405 0.52759,-0.92244z" fill="#962216"/><path d="M220.72266,117.11076c0.05293,0.27008 0.10585,0.54024 0.1588,0.81043c-0.33004,-0.0056 -0.56322,-0.18854 -0.74046,-0.47406c0.07121,-0.08264 0.14252,-0.16536 0.21393,-0.24813c0.11191,-0.08149 0.1727,-0.41278 0.36773,-0.08823z" fill="#630300"/><path d="M234.25219,130.04746c0.11344,-0.0492 0.20918,-0.13677 0.27297,-0.24966c0.09235,-0.07008 0.09867,-0.33841 0.30171,-0.15348c0.05685,0.2889 0.11371,0.57783 0.17058,0.86678c-0.29304,-0.07044 -0.55566,-0.19827 -0.74526,-0.46365z" fill="#630200"/><path d="M229.01422,124.87126l0.01886,-0.00516c0.01048,0.30788 0.02096,0.61581 0.03146,0.92381c-0.1404,-0.2983 -0.04637,-0.61162 -0.05033,-0.91864z" fill="#ca2210"/><path d="M217.48192,113.54553c-0.19133,0.18144 -0.38264,0.3628 -0.57392,0.54412c0.22945,-0.85389 0.16175,-1.25875 -0.44553,-2.63738c0.38363,-0.0366 0.48055,-0.31608 0.50437,-0.67463c0.03872,-0.5829 -0.1268,-1.10257 -0.3875,-1.59768c0.05927,-0.28225 0.3313,-0.30005 0.48776,-0.46081c0.05868,-0.09458 -0.11641,-0.14961 -0.03554,-0.24833c0.11508,0.0954 0.25275,0.03919 0.3781,0.06583c0.33906,0.14669 0.64629,0.37686 1.01286,0.45187c0.16764,0.14901 0.21289,0.35019 0.2081,0.57252c-0.11969,0.1413 -0.22479,0.02902 -0.30185,-0.04621c-0.18341,-0.17904 -0.34544,-0.16899 -0.5025,0.02319c-0.08875,0.1086 -0.21081,0.14807 -0.3228,0.20984l-0.0198,0.9094c-0.03511,0.18982 -0.15204,0.32273 -0.29091,0.43294c0.10422,0.29484 0.23139,0.5505 0.29044,0.83272z" fill="#ca1d0f"/><path d="M215.59514,106.30192c-0.0788,-0.09864 -0.1215,-0.22515 -0.12006,-0.35558c-0.00265,-0.80785 -0.0029,-1.6157 -0.00077,-2.42355c0.00829,-0.05951 0.02355,-0.11763 0.0454,-0.17296c0.22247,-0.00704 0.42827,0.12716 0.52664,0.34338c0.1162,0.45634 0.12438,0.92387 0.10313,1.39054c-0.01652,0.36326 0.04326,0.69592 0.23425,0.99738c-0.00025,0.06725 -0.00051,0.13451 -0.00075,0.20176c-0.2601,0.12862 -0.52341,0.10113 -0.78785,0.01903z" fill="#ba2011"/><path d="M216.38375,106.08114c-0.24354,-0.16128 -0.32704,-0.39671 -0.32902,-0.70329c-0.00306,-0.47338 0.04931,-0.95042 -0.05289,-1.42092c-0.02917,-0.09025 -0.01225,-0.19046 0.04454,-0.26368c0.23822,0.18889 0.3709,0.49646 0.35178,0.81556c-0.01304,0.52386 -0.01039,1.04819 -0.0144,1.57233z" fill="#7b0100"/><path d="M218.40939,109.0389c-0.37883,-0.02892 -0.73463,-0.2077 -0.99968,-0.50228c0.13809,-0.05002 0.25709,-0.14798 0.33853,-0.2787c0.21921,-0.15619 0.43601,-0.31528 0.58377,-0.55887c0.15885,0.43761 0.15056,0.88654 0.07738,1.33986z" fill="#700100"/><path d="M215.59514,106.30192c0.26119,-0.07576 0.52462,-0.04192 0.78785,-0.01894c0.01272,0.2065 0.03501,0.41368 -0.03173,0.64878c-0.40411,-0.00549 -0.58395,-0.31198 -0.75613,-0.62984z" fill="#fe5f33"/><path d="M231.86609,120.789c-0.08499,-0.12341 -0.12838,-0.27465 -0.12295,-0.4285c-0.0046,-0.76137 -0.00293,-1.52282 -0.00298,-2.28422c-0.00614,-0.0875 0.02336,-0.17356 0.08078,-0.23549c0.22297,-0.003 0.3698,0.14001 0.49739,0.32004c0.17338,0.41478 0.08938,0.8542 0.0882,1.28132c-0.00113,0.40858 0.04462,0.79028 0.25328,1.13735c0.03516,0.18009 -0.08152,0.21962 -0.20037,0.23187c-0.19764,0.02037 -0.39786,0.0518 -0.59335,-0.02236z" fill="#bd2112"/><path d="M234.071,124.52487c-0.29815,-0.42457 -0.60696,-0.83599 -1.0076,-1.15877c-0.24434,-0.19687 -0.49905,-0.30874 -0.80544,-0.243c0.06344,-0.28515 0.28149,-0.38654 0.49744,-0.49039c0.30508,0.18505 0.60057,0.40006 0.97578,0.3659c0.16719,0.20463 0.44889,0.22993 0.60542,0.45212c0.40177,0.65924 0.40177,0.65924 -0.26562,1.07415z" fill="#f95931"/><path d="M234.26635,123.46268c-0.1395,-0.0875 -0.2795,-0.17411 -0.4183,-0.26289c-0.07,-0.04476 -0.17193,-0.07046 -0.11659,-0.20125c0.13008,-0.02855 0.20462,-0.13503 0.28228,-0.23722c0.27111,-0.17495 0.50874,-0.38549 0.64257,-0.70675c0.00066,0.49622 0.0013,0.9925 0.00196,1.48883c-0.15863,0.13236 -0.27424,0.02001 -0.3919,-0.08072z" fill="#7e0100"/><path d="M232.63447,120.58403c-0.21065,-0.16698 -0.33017,-0.43706 -0.31839,-0.71952c0.00256,-0.56786 0.00173,-1.13572 0.00229,-1.70363c0.19987,0.17403 0.32697,0.42759 0.35288,0.70392c-0.02041,0.57287 0.04929,1.14799 -0.03676,1.71923z" fill="#7d0100"/><path d="M231.58218,122.20941c0.13768,-0.06697 0.23765,-0.21237 0.40091,-0.22608c0.06766,0.0678 0.13538,0.13566 0.20314,0.20358c0.02048,0.30131 0.06724,0.60808 -0.17181,0.84881c-0.08875,0.08937 -0.02948,0.19613 -0.02096,0.29631c-0.03023,0.093 -0.06045,0.186 -0.09067,0.279c-0.29585,0.044 -0.39728,-0.0703 -0.32126,-0.36202c0.00022,-0.34653 0.00043,-0.69306 0.00066,-1.03959z" fill="#d21d0f"/><path d="M232.63446,120.58403c0.0122,-0.57355 0.02445,-1.14687 0.0367,-1.71994c0.05542,0.76553 0.02236,1.53154 0.01776,2.29679c-0.00171,0.28511 -0.12913,0.34014 -0.3581,0.18482c-0.20197,-0.137 -0.38264,-0.29999 -0.46475,-0.55668c0.171,-0.09856 0.35595,-0.05074 0.53556,-0.0613c0.09742,-0.00574 0.23078,0.047 0.23281,-0.14369z" fill="#fd5f31"/><path d="M231.99347,123.33203c-0.08966,-0.05025 -0.15836,-0.13552 -0.19214,-0.23858c0.43979,-0.13653 0.24521,-0.59693 0.38499,-0.90648c0.1897,0.14857 0.37942,0.29717 0.56919,0.4458c-0.1659,0.16342 -0.33175,0.32687 -0.49754,0.49034c-0.08817,0.06964 -0.17632,0.13929 -0.2645,0.20892z" fill="#970401"/><path d="M215.15742,112.27369v-1.34745c0.38679,0.38186 0.73078,0.7172 0.75781,1.2793c-0.23226,0.28775 -0.49405,0.19084 -0.75781,0.06815z" fill="#c51f0f"/><path d="M215.16039,109.80673v-1.11462c0.3238,0.22106 0.57366,0.45858 0.65529,0.85176c-0.02955,0.3527 -0.27206,0.44998 -0.65529,0.26286z" fill="#ca200f"/><path d="M215.15742,112.27369c0.25364,-0.00953 0.51328,0.05904 0.75783,-0.06819c0.04581,0.18852 0.01385,0.3893 -0.08762,0.5503c-0.27127,-0.09131 -0.51127,-0.21677 -0.67021,-0.4821z" fill="#fb6933"/><path d="M215.16039,109.80673c0.2367,-0.03444 0.5405,0.12672 0.65524,-0.26314c0.07887,0.22391 0.08838,0.49839 -0.11102,0.58314c-0.21791,0.09262 -0.41462,-0.10396 -0.54421,-0.32001z" fill="#fb6d32"/><path d="M220.72266,117.11076c-0.16872,-0.19558 -0.23701,0.09882 -0.36775,0.08829c0.0267,-0.21472 0.05341,-0.4294 0.08009,-0.64404c0.0353,-1.33639 0.01096,-2.67306 0.01085,-4.00957c-0.00002,-0.28559 0.06628,-0.48106 0.34257,-0.54186c0.33917,0.03522 0.63057,0.25817 0.97057,0.29271c0.1252,0.12996 0.3488,0.15969 0.35859,0.40873c-0.3457,0.07877 -0.60747,0.34121 -0.91955,0.49386c-0.48097,0.24483 -0.46387,0.69939 -0.42443,1.16787c0.05028,0.59728 0.34917,1.09568 0.54462,1.63525c-0.18352,0.13392 -0.37664,0.25171 -0.57751,0.35225c-0.07637,0.25021 0.00443,0.50479 -0.01804,0.75651z" fill="#b81f0f"/><path d="M218.73625,115.51185l-0.08561,-0.27877c-0.04831,-0.77249 -0.01205,-1.54584 -0.01969,-2.31877c-0.0065,-0.65662 0.01009,-1.31371 -0.0062,-1.96995c-0.00804,-0.32392 0.09,-0.54392 0.37164,-0.66062c0.18569,-0.02293 0.26823,0.08441 0.28978,0.26896c-0.05792,1.29346 -0.03775,2.58812 -0.03955,3.88248c-0.00021,0.15088 -0.01507,0.30462 0.05229,0.44659l0.00535,0.56169c-0.16734,0.23703 -0.37043,0.12593 -0.56803,0.06837z" fill="#c42111"/><path d="M219.05673,110.29754c-0.32442,0.21735 -0.41936,0.52011 -0.4111,0.93876c0.02628,1.33175 0.00687,2.66456 0.00507,3.99687c-0.08129,-0.12716 -0.04856,-0.27211 -0.04884,-0.40916c-0.00272,-1.2753 -0.00697,-2.55066 0.00324,-3.82588c0.00188,-0.23405 -0.05198,-0.40948 -0.23122,-0.53587c-0.30592,-0.21574 -0.53933,-0.53487 -0.87053,-0.71433c0.05259,-0.05378 0.10356,-0.10938 0.15785,-0.1609c0.37846,-0.35917 0.37805,-0.35787 0.79489,-0.06252c0.05534,0.0329 0.11309,0.06085 0.17265,0.08354c0.23708,0.1415 0.39645,0.39828 0.42796,0.68947z" fill="#fe5e34"/><path d="M220.87532,112.04495c-0.29462,0.07779 -0.40525,0.26547 -0.4004,0.60643c0.01689,1.18832 0.00548,2.37715 0.00214,3.56577c-0.00032,0.11344 0.0298,0.23425 -0.04212,0.33813c-0.0039,-1.31252 -0.01348,-2.62484 -0.00663,-3.93707c0.00123,-0.23659 -0.06109,-0.40257 -0.23638,-0.53483c-0.30019,-0.22651 -0.54414,-0.5324 -0.86819,-0.72597c-0.01792,-0.24798 0.19238,-0.30663 0.31187,-0.44086c0.34992,0.12171 0.53623,0.47282 0.8178,0.69275c0.15374,0.1201 0.38325,0.17739 0.42192,0.43564z" fill="#fe6134"/><path d="M219.63497,110.94763c-0.03761,0.19553 -0.25017,0.23537 -0.31128,0.40987c-0.00822,1.17465 -0.01647,2.34939 -0.02475,3.52422c-0.08266,-0.05869 -0.12751,-0.16297 -0.11581,-0.26927c-0.00017,-1.31566 -0.00291,-2.6313 -0.00156,-3.94696c0.00919,-0.05578 0.02678,-0.10956 0.05205,-0.15918c0.24967,0.0236 0.31209,0.24676 0.40135,0.44133z" fill="#871400"/><path d="M217.4832,111.92292c-0.18784,-0.23812 -0.22316,-0.56803 -0.42464,-0.80529c0.12008,-0.18371 0.33058,-0.26097 0.42511,-0.4603c-0.00017,0.42184 -0.00032,0.84371 -0.00047,1.26561z" fill="#7d0601"/><path d="M218.73625,115.51185c0.18631,-0.05239 0.38848,0.04945 0.56805,-0.06838c0.00296,0.05797 0.00912,0.11597 0.00822,0.17384c-0.00181,0.11581 0.01011,0.24768 -0.11719,0.29657c-0.11581,0.04448 -0.20543,-0.03816 -0.28785,-0.1133c-0.08422,-0.07382 -0.14425,-0.17506 -0.17121,-0.28873z" fill="#fd612f"/><path d="M221.19801,113.1989c0.26455,-0.25418 0.49954,-0.57136 0.91531,-0.50319c0.13646,-0.04559 0.23501,0.05033 0.34427,0.10721c0.31259,0.24855 0.60881,0.517 0.8358,0.86168c0.05817,0.08833 0.1635,0.1638 0.11454,0.30277c-0.01765,0.19309 -0.16177,0.2856 -0.28134,0.38731c-0.08446,0.07185 -0.17364,0.12531 -0.18299,0.25466c-0.30383,-0.42396 -0.5976,-0.85928 -1.02248,-1.15661c-0.21888,-0.15318 -0.44564,-0.29113 -0.7231,-0.25383z" fill="#fc5f35"/><path d="M220.7407,116.35427c0.14826,-0.20243 0.31995,-0.35981 0.57751,-0.35221c0.22754,0.33322 0.42715,0.68778 0.59645,1.05946c-0.03898,0.10593 -0.02872,0.2508 -0.18053,0.26748c-0.10672,-0.32853 -0.41001,-0.44245 -0.61889,-0.65907c-0.1195,-0.11246 -0.24452,-0.21783 -0.37452,-0.31565z" fill="#fd6034"/><path d="M221.73412,117.32901c0.06328,-0.0867 0.05957,-0.22639 0.18053,-0.26748c0.21994,0.3513 0.43871,0.70325 0.52835,1.12619c-0.14691,0.1602 -0.31302,0.23388 -0.51756,0.13484c-0.16495,-0.29854 -0.23233,-0.6485 -0.19132,-0.99356z" fill="#ca2412"/><path d="M221.92544,118.32255c0.17251,-0.04492 0.34502,-0.08988 0.51755,-0.13481c0.06758,0.17828 0.12331,0.40199 -0.0731,0.47724c-0.236,0.09044 -0.34881,-0.14422 -0.44445,-0.34243z" fill="#fd5e2e"/><path d="M234.82687,129.64432c-0.15123,-0.0654 -0.186,0.13731 -0.30174,0.15352c0.20736,-0.97638 0.03636,-1.88398 -0.43516,-2.73168c-0.30702,-0.55196 -0.6236,-1.0978 -0.94209,-1.64212c-0.0995,-0.1677 -0.17249,-0.35221 -0.21592,-0.54593c-0.02977,-0.13469 -0.08537,-0.29887 0.06232,-0.3798c0.16593,-0.09092 0.25281,0.07405 0.33849,0.18841c0.16305,0.20835 0.25361,0.47195 0.25601,0.74505c-0.00192,0.27046 0.11316,0.43154 0.29712,0.57863c0.22342,0.17865 0.43573,0.3736 0.70097,0.60316c0.00958,-0.21973 0.01638,-0.376 0.0232,-0.53229c0.16228,0.04224 0.11629,0.19542 0.13322,0.30837c0.02677,0.17865 0.02449,0.36359 0.11943,0.52363c0.09372,0.55025 0.30787,1.05264 0.52683,1.55311c-0.0891,0.27168 -0.34914,0.30178 -0.53191,0.44106c-0.09633,0.2414 0.00719,0.49259 -0.03076,0.73685z" fill="#b82916"/><path d="M234.86271,126.91332c-0.27799,-0.20841 -0.14791,-0.56204 -0.25267,-0.83205c-0.07154,-0.56264 -0.28543,-1.06758 -0.53903,-1.55639c0.02795,-0.16299 0.15474,-0.22704 0.27135,-0.27062c0.26875,-0.10044 0.28199,-0.25678 0.11316,-0.46715c-0.08087,-0.09467 -0.14498,-0.20461 -0.18916,-0.32438c0.13001,0.03029 0.25304,0.10041 0.39188,0.08063c-0.10173,0.59698 0.15996,0.98116 0.60914,1.27972c0.20014,0.13305 0.36685,0.32505 0.54872,0.49027c-0.18805,0.16043 -0.37607,0.32084 -0.56402,0.48124c-0.44554,0.24404 -0.37189,0.69997 -0.38937,1.11871z" fill="#d61d0f"/><path d="M234.85763,128.90749c0.11582,-0.23388 0.36311,-0.28205 0.53188,-0.44114c0.21435,0.39278 0.42866,0.78551 0.64296,1.17819c-0.02456,0.10658 -0.07505,0.17624 -0.18899,0.15551c-0.32861,-0.29752 -0.65723,-0.59504 -0.98584,-0.89257z" fill="#fe6034"/><path d="M235.84346,129.80004c0.06301,-0.05179 0.126,-0.10359 0.18901,-0.15543c0.2176,0.33215 0.41354,0.67662 0.51831,1.07271c-0.12347,0.2681 -0.33287,0.16516 -0.52376,0.14213c-0.18964,-0.32706 -0.216,-0.68727 -0.18356,-1.05943z" fill="#d32512"/><path d="M236.02703,130.85947c0.15461,-0.13354 0.37377,0.01146 0.52373,-0.14219c0.07912,0.20669 0.12112,0.45584 -0.1083,0.52812c-0.23629,0.07444 -0.33077,-0.18466 -0.41543,-0.38593z" fill="#fc5e2b"/><path d="M232.38731,125.79512c-0.33733,0.3253 -0.63347,0.27126 -0.91907,-0.09333c-0.17938,-0.22902 -0.43648,-0.21038 -0.68793,-0.19275c-0.2041,0.01431 -0.40931,0.00994 -0.61403,0.01395c0,-0.34687 0,-0.69385 0,-1.1234c0.44957,0.39152 0.85198,0.74197 1.32311,1.15228v-1.1135c0.01487,-0.25194 0.124,-0.40158 0.37145,-0.40104c0.02636,0.63827 0.30015,1.18969 0.52646,1.75776z" fill="#aa180c"/><path d="M231.86085,124.03736c-0.14461,0.11133 -0.30297,0.20774 -0.37149,0.40128c-0.24942,-0.44281 -0.68597,-0.66413 -1.0189,-1.00818c-0.10018,-0.10355 -0.23479,-0.16848 -0.29661,-0.31462c0.34152,-0.14725 0.68614,-0.24514 1.04733,-0.07641c0.1356,0.03867 0.20466,0.2116 0.36044,0.20945c-0.01414,0.24686 0.12543,0.33371 0.32124,0.36202c-0.01406,0.14223 -0.02805,0.28438 -0.04201,0.42644z" fill="#fe5f34"/><path d="M232.85065,127.12926c0.06271,-0.05161 0.12543,-0.10325 0.18814,-0.15492c0.21428,0.35717 0.44931,0.70325 0.52031,1.13731c-0.1593,0.16276 -0.33269,0.21157 -0.5288,0.07665c-0.18789,-0.32757 -0.21252,-0.68759 -0.17965,-1.05904z" fill="#d32412"/><path d="M233.03029,128.18831c0.17626,-0.02553 0.35251,-0.05106 0.52877,-0.07661c0.08646,0.18442 0.09742,0.40162 -0.0951,0.46055c-0.25286,0.0774 -0.35294,-0.16777 -0.43367,-0.38394z" fill="#fd5f2f"/><path d="M231.22119,123.03943c-0.34913,0.02546 -0.69824,0.05093 -1.04736,0.07641c0.00001,-0.31973 0.00001,-0.63948 0.00001,-1.03783c0.38187,0.35055 0.71461,0.65598 1.04734,0.96142z" fill="#a21e10"/><path d="M236.8743,122.34744c-0.2562,0.12273 -0.5279,0.04277 -0.79135,0.0709l-0.00088,-0.00279c-0.01704,-0.2469 -0.10095,-0.49963 0.05436,-0.73153c0.24597,0.22114 0.49192,0.44226 0.73786,0.6634z" fill="#9a2012"/><path d="M236.13643,121.68403c-0.10597,0.2362 -0.01986,0.48912 -0.05434,0.73154c-0.03332,-0.24833 -0.15239,-0.50413 0.05434,-0.73154z" fill="#fd5f34"/><path d="M224.91364,115.50788c-0.23021,-0.02185 -0.31919,-0.2895 -0.52514,-0.3537c-0.21677,-0.20153 -0.42139,-0.42169 -0.65399,-0.59874c-0.20077,-0.15283 -0.31102,-0.32324 -0.26815,-0.59099c-0.08825,-0.15776 -0.09209,-0.33265 -0.09195,-0.50972c0.00064,-0.80795 -0.0095,-1.61611 0.00497,-2.42375c0.00614,-0.34286 -0.06531,-0.62258 -0.33863,-0.81681c-0.12361,-0.17422 -0.33219,-0.26659 -0.40647,-0.48935c-0.34267,-0.3123 -0.14498,-0.73541 -0.19386,-1.10803c0.47692,0.26235 0.83407,0.69342 1.24713,1.04518c0.66194,0.5637 1.30618,1.15173 1.96138,1.7248c0.16021,0.14014 0.26992,0.28719 0.2443,0.53232c-0.01292,0.21027 -0.01553,0.42113 -0.00782,0.63171c-0.13916,-0.01872 -0.20025,-0.1706 -0.32115,-0.22071c-0.19522,-0.21496 -0.41365,-0.40363 -0.65061,-0.56192z" fill="#fee900"/><path d="M223.0361,110.08486c0.37132,0.20138 0.48204,0.51631 0.4631,0.96753c-0.0407,0.96923 -0.02528,1.94121 -0.03283,2.91207c-0.01951,0.00011 -0.039,0.00107 -0.05844,0.00289c-0.26343,-0.44338 -0.6253,-0.78569 -0.98785,-1.12731c0.46888,-0.12399 0.52366,-0.49297 0.50255,-0.93768c-0.02213,-0.46589 -0.00931,-0.9341 -0.00229,-1.40118c0.00222,-0.14749 -0.01946,-0.30933 0.11576,-0.4163z" fill="#c30000"/><path d="M219.63497,110.94763c-0.13371,-0.14701 -0.26745,-0.29406 -0.40123,-0.44118c-0.05912,-0.06973 -0.11814,-0.13938 -0.17707,-0.20893c-0.14271,-0.2299 -0.2854,-0.45977 -0.42807,-0.68959c-0.07295,-0.1896 -0.14602,-0.37929 -0.21921,-0.56905c-0.09364,-0.44198 -0.042,-0.89382 -0.07736,-1.33981c0.00761,-0.91247 0.01525,-1.82495 0.02291,-2.73745c0.51809,0.32735 0.92749,0.80322 1.39649,1.19764c0.14708,0.13311 0.11554,0.31995 0.11648,0.49067c0.0052,0.93829 0.00194,1.8766 0.0025,2.8149c-0.00351,0.16383 0.0054,0.32771 0.02662,0.48999c0.05529,0.34059 0.27344,0.51801 0.54337,0.67472c0.14002,-0.18865 0.06697,-0.38147 0.09082,-0.55568c-0.00088,-0.07212 0.0256,-0.14148 0.07324,-0.19188c0.00683,-0.96594 0.01365,-1.93191 0.02049,-2.89797c0.5078,0.3526 0.94456,0.80223 1.41058,1.21198c-0.00099,1.05471 -0.00349,2.1094 -0.00187,3.16407c0.0065,0.25794 -0.02037,0.51562 -0.0798,0.76549c0.01551,0.1418 -0.01773,0.24008 -0.17406,0.22848c-0.34746,0.05495 -0.61947,-0.1489 -0.90438,-0.30898c-0.43781,-0.33373 -0.83579,-0.72 -1.24043,-1.09743z" fill="#fee900"/><path d="M221.77979,112.35402c0.05806,-0.07617 0.1161,-0.15233 0.17412,-0.2285c0.51211,-0.23269 0.68875,-0.62651 0.63283,-1.3001c-0.03028,-0.36485 -0.09408,-0.74053 0.04762,-1.10056c0.13379,0.1199 0.26768,0.23986 0.40165,0.35991c-0.00505,0.70361 -0.00867,1.40717 -0.01584,2.11067c-0.00589,0.57904 -0.06769,0.64337 -0.59997,0.64463c-0.1024,-0.04814 -0.20472,-0.09627 -0.30693,-0.14437c-0.05831,-0.1743 -0.29982,-0.13909 -0.33347,-0.34167z" fill="#6d0000"/><path d="M219.83366,110.10095c-0.08877,-0.14605 -0.07863,-0.31146 -0.0788,-0.47464c-0.00125,-1.15566 -0.00238,-2.31133 -0.00339,-3.46702c0.17089,-0.15354 0.31605,-0.34423 0.53221,-0.43247c0.00212,1.02056 -0.01155,2.04161 0.01455,3.06146c0.00975,0.381 -0.03157,0.80768 0.30623,1.09365c0.00215,0.07212 0.00431,0.14422 0.00645,0.2163c-0.25872,0.11895 -0.51763,0.1817 -0.77725,0.00271z" fill="#bf2012"/><path d="M219.83366,110.10095c0.25908,-0.00094 0.51817,-0.00185 0.77725,-0.00276c0.00731,0.0809 0.00891,0.16229 0.00481,0.24347c-0.0148,0.12931 0.06334,0.30276 -0.09273,0.37287c-0.1478,0.06638 -0.26976,-0.03389 -0.36862,-0.14792c-0.12284,-0.1417 -0.28196,-0.25564 -0.32072,-0.46565z" fill="#fc5d32"/></g><path d="M261.99891,78.07841c-1.08222,0.29299 2.01185,1.27968 1.32034,1.8364c-0.75691,0.60936 -5.29589,0.77753 -6.47626,0.75731c-0.22055,-0.00378 -2.086,-1.49438 -2.28183,-1.56266c-1.51457,-0.52814 -5.64749,1.4449 -6.49041,0.35857c-0.38972,-0.50221 1.55426,-3.32068 1.0728,-3.78044c0.37975,-0.27474 0.7256,-0.13288 1.05339,-0.11083c1.01858,0.06867 -2.25038,-2.96602 -1.21371,-2.93661c0.89855,0.0255 -5.1441,-4.75806 -5.28564,-5.37122c-0.10435,-0.45199 3.79161,0.8158 6.40299,0.56213c1.96463,-0.19084 2.83575,-1.88824 2.77061,-2.23165c-0.04017,-0.21194 3.23526,5.43428 3.8906,5.46734c1.15381,0.33883 0.83651,-2.49866 1.88727,-2.06526c0.42103,0.17366 2.56681,4.28626 2.97935,4.46687c5.17338,3.85821 -0.60328,2.66707 0.28541,3.91162c0.14752,0.20663 0.32708,0.40734 0.08506,0.69834z" data-paper-data="{&quot;index&quot;:null}" fill="#182009" stroke-width="1"/><path d="M219.08068,168.06394c-0.68533,-0.19438 -1.26773,-0.64867 -1.62314,-1.26606c-0.25386,-0.43538 -0.40158,-0.95238 0.45394,-0.91678c0.4293,0.01788 0.91831,-0.13423 1.27809,0.02359c0.74274,0.32579 1.53057,0.90553 1.40344,1.74576c-0.09275,0.61309 -0.8948,0.71289 -1.5123,0.41346z" data-paper-data="{&quot;index&quot;:null}" fill="#312a22" stroke-width="1"/><path d="M244.97468,159.11847c-0.6175,0.62428 -1.41955,0.41621 -1.5123,-0.86202c-0.12713,-1.7518 0.6607,-2.9605 1.40344,-3.63974c0.35978,-0.32904 0.84879,-0.0119 1.27809,-0.04918c0.85552,-0.07422 0.7078,1.00367 0.45394,1.91139c-0.35541,1.2872 -0.93781,2.23435 -1.62314,2.63961z" data-paper-data="{&quot;index&quot;:null}" fill="#312a22" stroke-width="1"/><path d="M220.81541,142.75444v0c-0.7167,-0.7273 -1.5768,-1.1637 -2.2936,-1.7455c-0.43,-0.4364 -0.2867,-1.0182 -0.2867,-1.4546c0,-0.4364 -0.1433,-1.0182 0.1434,-1.3091c0.2867,-0.1455 0.5734,0.4364 1.0034,0.5818c1.2902,0.7273 1.7202,1.7455 1.4335,3.2001c0,0.1455 0,0.2909 0,0.7273z" fill="#2f2c42" stroke-width="0.14441"/><path d="M229.50588,155.70423v0c0,0.4364 0.2867,0.8728 0,1.1637c-0.4301,0.1455 -0.8601,-0.4364 -1.1468,-0.5818c0,-0.1455 0,-0.1455 -0.1434,-0.1455c-1.4335,-0.5818 -1.2902,-1.8909 -1.4335,-3.0546c0,-0.5819 0.2867,-0.5819 0.5734,-0.2909c0.5734,0.4363 1.1468,0.8727 1.8636,1.3091c0.5734,0.4364 0.1433,1.0182 0.2867,1.6z" fill="#282538" stroke-width="0.14441"/><path d="M220.3468,143.56953c0,0.11828 0.20415,0.35492 0,0.47329c-0.20415,0 -0.20415,-0.11836 -0.4083,-0.23664c-0.20415,-0.23665 -0.4083,-0.47337 -0.71456,-0.59166c-0.7145,-0.35501 -0.8166,-0.94667 -0.8166,-1.77497c0,-0.35501 -0.20415,-0.8283 0.10211,-0.94667c0.30619,-0.11828 0.40831,0.35501 0.61246,0.47338c0.20415,0.11828 0.4083,0.23665 0.51034,0.35493c0.61245,0.47337 0.91872,0.94666 0.81661,1.53832v0c0,0.35501 0,0.4733 -0.10204,0.71002z" data-paper-data="{&quot;index&quot;:null}" fill="#6c6c6c" stroke-width="0.14441"/><path d="M236.73998,107.15137c0.81853,0.29816 1.59746,0.64076 2.19462,1.18818c0.0583,0.05346 0.13102,0.09595 0.16098,0.1684c0.23169,0.56039 0.53095,1.10703 0.39366,1.72396c-0.06346,0.28522 -0.05549,0.58012 -0.07991,0.87063c-0.19489,0.01623 -0.24066,-0.11991 -0.32179,-0.20568c-0.25208,-0.26657 -0.49945,-0.53582 -0.7696,-0.79155c-0.23416,-0.22166 -0.23709,-0.22061 -0.40488,0.04882c-0.21672,0.34803 -0.42178,0.70056 -0.64954,1.04426c-0.06036,0.09106 -0.13442,0.23142 -0.30034,0.06419c-0.19784,-0.40246 -0.28372,-0.82817 -0.42195,-1.24275c-0.05539,-0.16612 -0.12257,-0.32971 -0.17332,-0.49649c0.05541,-0.69399 -0.01771,-1.39439 0.16039,-2.08303c0.02957,-0.11433 0.04851,-0.23393 0.21166,-0.2889z" fill="#262626" stroke-width="1"/><path d="M239.15855,181.61736v0c0,0.7637 0.42512,1.5274 0,2.03647c-0.63775,0.25462 -1.27535,-0.7637 -1.70047,-1.01815c0,-0.25462 0,-0.25462 -0.21263,-0.25462c-2.12559,-1.01815 -1.9131,-3.30907 -2.12559,-5.34555c0,-1.01832 0.42512,-1.01833 0.85024,-0.50908c0.85024,0.76352 1.70047,1.52723 2.76334,2.29092c0.85024,0.7637 0.21248,1.78185 0.42512,2.8z" fill="#282538" stroke-width="0.14441"/></g></g></svg>