<svg version="1.1" xmlns="http://www.w3.org/2000/svg" xmlns:xlink="http://www.w3.org/1999/xlink" width="53.8965" height="68.97593" viewBox="0,0,53.8965,68.97593"><g transform="translate(-212.22433,-133.37147)"><g data-paper-data="{&quot;isPaintingLayer&quot;:true}" fill-rule="nonzero" stroke="none" stroke-width="1" stroke-linecap="butt" stroke-linejoin="miter" stroke-miterlimit="10" stroke-dasharray="" stroke-dashoffset="0" style="mix-blend-mode: normal"><path d="M249.23432,138.58394c0.25488,0.07524 0.35966,0.31305 0.50967,0.49222c3.66222,4.37407 7.32013,8.75174 10.97374,13.133c0.11158,0.13375 0.30701,0.23435 0.25247,0.46342c-0.24249,0.36773 -0.63275,0.56897 -0.9654,0.82889c-2.3842,1.86294 -4.75884,3.73822 -7.14619,5.59682c-1.81559,1.41347 -3.65471,2.79805 -5.46533,4.21822c-0.84655,0.664 -1.71266,1.30484 -2.52956,2.00689c-0.21693,0.20429 -0.47122,0.36486 -0.74893,0.47289c-0.05358,0.00796 -0.10826,0.00393 -0.16007,-0.01182c-0.91448,-0.92368 -1.68308,-1.97254 -2.52608,-2.95787c-2.07459,-2.42485 -4.0932,-4.89676 -6.15142,-7.33553c-0.90933,-1.07746 -1.82931,-2.14704 -2.70636,-3.25178c-0.08962,-0.09491 -0.15345,-0.21117 -0.18545,-0.33772c-0.02033,-0.28016 0.15911,-0.44588 0.35547,-0.59161c1.59565,-1.18425 3.13407,-2.44206 4.70748,-3.65492c1.89816,-1.46319 3.79071,-2.93365 5.67765,-4.41142c1.83964,-1.44646 3.69755,-2.8699 5.5483,-4.30232c0.17498,-0.13544 0.3374,-0.29472 0.55999,-0.35738z" fill="#59005a"/><path d="M266.00576,172.00525c0.20349,0.57513 0.07476,1.16801 0.07654,1.75052c0.01287,4.23558 0.00693,8.47123 0.00693,12.75166c-6.72899,5.23843 -13.46952,10.48583 -20.22158,15.74219c-0.25814,-0.03229 -0.23876,-0.24823 -0.26452,-0.42032c-0.02251,-0.22227 -0.02849,-0.44591 -0.01791,-0.66907c-0.00029,-4.11282 -0.00016,-8.22564 0.00038,-12.33846c-0.01115,-0.27849 -0.00049,-0.55745 0.03192,-0.83427c0.04282,-0.31111 0.29096,-0.4585 0.51105,-0.62775c2.91948,-2.24495 5.81591,-4.51957 8.73204,-6.76882c0.16233,-0.12522 0.30922,-0.2681 0.47136,-0.39294c1.71599,-1.33125 3.4068,-2.69572 5.13546,-4.0097c1.31475,-0.99937 2.57457,-2.0694 3.92918,-3.0186c0.54121,-0.37921 0.98102,-0.90124 1.60913,-1.16442z" fill="#2d007e"/><path d="M249.23432,138.58394c-0.4629,0.62039 -1.15414,0.96951 -1.74258,1.43635c-2.66283,2.11264 -5.34852,4.19661 -8.03248,6.28252c-1.69212,1.31509 -3.40142,2.60813 -5.09088,3.92659c-0.53825,0.42006 -1.02685,0.90211 -1.62696,1.24397c-0.15423,0.07703 -0.25711,0.22891 -0.2714,0.40072c-0.40327,0.07214 -0.6963,-0.20897 -1.0176,-0.35335c-3.49115,-1.56882 -7.00265,-3.09237 -10.47971,-4.69252c-0.08657,-0.03419 -0.16699,-0.08228 -0.23807,-0.14239c-0.01402,-0.02561 -0.02767,-0.05123 -0.04131,-0.07685c0.01663,-0.0238 0.03326,-0.04759 0.0499,-0.07139c5.63174,-4.37799 11.27728,-8.7667 16.93661,-13.16612c1.24253,0.55611 2.49034,1.11455 3.74345,1.67534c2.44153,1.09215 4.8829,2.18468 7.32406,3.27761c0.16746,0.07508 0.32491,0.17248 0.48701,0.25949z" fill="#73006c"/><path d="M244.06978,165.76899c2.38192,-1.8518 4.72805,-3.74853 7.142,-5.56055c2.16169,-1.62265 4.24481,-3.34949 6.39045,-4.99404c1.11595,-0.85533 2.15285,-1.81739 3.36797,-2.54175c0.0113,2.33925 0.02728,4.67854 0.03262,7.01786c0.00589,2.58179 0.00626,5.16359 0.00112,7.7454c-0.00006,0.12879 -0.01805,0.25756 -0.02769,0.38634c0.08218,0.24115 -0.1104,0.33122 -0.25214,0.43819c-2.10381,1.58786 -4.17043,3.22364 -6.25136,4.84099c-2.15416,1.67426 -4.32348,3.32923 -6.47164,5.01073c-1.12479,0.88043 -2.25399,1.75658 -3.37104,2.64755c-0.18629,0.14858 -0.39586,0.41843 -0.63754,0.04842c-0.00813,-0.79972 -0.47423,-1.33714 -1.03735,-1.82044c-0.29452,-0.25277 -0.52906,-0.52801 -0.31199,-0.98228c0.60546,-0.05662 0.7676,0.56044 1.22608,0.80575c0.09326,-0.29641 0.06521,-0.58755 0.06541,-0.8718c0.00262,-3.78864 0.00423,-7.57729 0.00486,-11.36593c0.00033,-0.27159 -0.06826,-0.5618 0.13026,-0.80443z" fill="#2b007d"/><path d="M212.38058,160.18008c2.71118,-2.10293 5.42234,-4.20585 8.13352,-6.30878c0.27094,0.06294 0.26301,0.29109 0.26312,0.48738c0.00111,2.02158 0.04133,4.04334 -0.01776,6.06337c-0.0647,0.2764 -0.29046,0.29213 -0.51627,0.32841c-0.86009,0.13815 -1.21513,0.70271 -0.92927,1.52647c0.56729,1.63481 1.70151,2.75115 3.25142,3.47212c0.30818,0.22786 0.7047,0.21429 1.03682,0.37653c0.21816,0.23425 -0.12912,0.34605 -0.1199,0.41339c0.0047,0.26507 0.12346,0.29533 0.21974,0.3463c0.3173,0.08161 0.64261,0.1282 0.97008,0.13894c0.93584,0.57775 1.86317,1.16352 2.22884,2.29589c0.04078,0.1632 0.12824,0.31098 0.25168,0.42525c0.16745,0.15517 0.37311,0.02966 0.55587,0.07411c0.49126,0.52691 0.88316,1.1376 1.42732,1.62279c0.55902,0.49844 1.13393,0.96233 1.82751,1.26078c0.33901,0.22998 0.80224,0.18116 1.10585,0.49025c0.15991,0.23963 0.01625,0.56589 0.22629,0.79062c0.0706,0.06571 0.16356,0.10208 0.26002,0.1017c0.25417,0.0715 0.483,-0.16444 0.7394,-0.06089c0.12382,0.17358 0.10094,0.37738 0.11041,0.57175c0.00926,0.19022 0.03762,0.35841 0.24855,0.42624c0.47321,0.16149 0.94964,-0.01717 1.42361,0.01466c0.34986,0.15716 0.4524,0.51222 0.64107,0.79965c0.4614,0.70289 0.75154,1.52179 1.41463,2.08736c0.24999,0.12488 0.5311,0.03307 0.7876,0.11204c0.17425,0.05253 0.26491,0.19161 0.34697,0.33831c0.60145,1.06695 1.47563,1.9549 2.53306,2.57294c0.12395,0.07452 0.27256,0.12667 0.31337,0.292c0.07109,0.45114 0.17195,0.8904 0.45027,1.25397c0.22225,-0.06122 0.16862,-0.28626 0.32266,-0.3458c0.48869,0.06506 0.96597,-0.01378 1.46359,-0.16116c0.2241,0.1132 0.46437,0.24623 0.73995,0.26005c-0.0381,0.51243 -0.1921,0.60352 -1.22297,0.74213c-0.21181,0.23612 -0.44234,0.47508 -0.56883,0.84693c0.51281,0.14461 0.92382,0.44053 1.30446,0.84508c0.01181,0.38794 0.17925,0.81591 -0.16698,1.18506c-0.16367,0.03613 -0.24701,-0.06305 -0.31606,-0.18649c-0.07641,-0.16713 -0.02226,-0.36702 -0.11198,-0.51643c-0.15986,-0.10177 -0.25502,0.04178 -0.37502,0.05989c-0.49511,-0.03257 -0.75646,-0.44806 -1.08648,-0.71563c-1.85296,-1.50232 -3.69693,-3.0154 -5.5319,-4.53923c-0.13528,-0.12936 -0.25481,-0.05682 -0.37336,0.03231c-1.97307,1.46616 -4.19712,2.13307 -6.64383,2.09511c-0.78326,-0.00015 -1.56634,-0.00269 -2.32802,-0.22402c-1.20071,-0.22616 -2.30835,-0.69845 -3.37566,-1.27738c-1.82634,-1.06183 -3.14409,-2.54602 -3.8032,-4.57757c-0.10296,-0.31738 -0.14369,-0.64833 -0.22653,-0.97057c-0.0932,-1.15165 -0.00844,-2.27633 0.50152,-3.33643c0.54136,-1.20518 1.40347,-2.16506 2.43294,-3.04641c-0.44274,-0.45834 -0.91,-0.79076 -1.34807,-1.15305c-2.73171,-2.25905 -5.4776,-4.5009 -8.21456,-6.75361c-0.17426,-0.14343 -0.39901,-0.28349 -0.25547,-0.57628z" fill="#6f0068"/><path d="M244.0818,180.92802c0.72302,-0.34666 1.2821,-0.92084 1.90363,-1.40278c2.60197,-2.01757 5.20542,-4.03317 7.81036,-6.04683c2.35549,-1.82093 4.67399,-3.69007 7.05824,-5.47459c0.05032,-0.0535 0.09159,-0.11481 0.12223,-0.18157c1.67642,1.39425 3.35288,2.78854 5.02938,4.18289c-0.71355,0.64342 -1.4916,1.2049 -2.25017,1.79237c-2.35674,1.82521 -4.69331,3.67644 -7.0433,5.51038c-0.43445,0.33904 -0.89503,0.64464 -1.34356,0.96566c-0.35227,0.20206 -0.75373,0.21772 -1.1357,0.24002c-1.81534,0.10595 -3.62735,0.25978 -5.4427,0.36297c-0.4087,0.02322 -0.80974,0.1099 -1.21914,0.12522c-0.26273,0.00983 -0.43516,0.18667 -0.60793,0.35885c-0.39019,0.38882 -0.82605,0.69247 -1.39995,0.73237c-0.72974,-0.04763 -0.83804,-0.16204 -0.67041,-0.70468c0.19682,-0.20113 0.4891,-0.10309 0.78898,-0.25613c-0.33012,-0.08429 -0.5869,-0.01748 -0.84603,0.01297c-0.2648,0.0311 -0.54761,0.12353 -0.76239,-0.13779c0.00269,-0.02641 0.00558,-0.05286 0.00846,-0.07929z" fill="#190038"/><path d="M243.18576,185.65864c0.0437,0.09595 0.13064,0.16524 0.23392,0.18644c0.87488,0.51968 1.67065,1.13496 2.32448,1.92176c0.00756,3.52347 0.01499,7.04695 0.02227,10.57042c0.0021,1.15003 -0.00323,2.30006 0.00224,3.45007c0.00076,0.15642 -0.07085,0.33819 0.09906,0.46227c-0.15526,0.21629 -0.2466,0.01762 -0.34294,-0.06062c-1.59679,-1.29686 -3.19676,-2.58997 -4.78433,-3.89806c-1.45762,-1.20099 -2.90131,-2.41885 -4.35114,-3.62929c-0.14336,-1.16601 -0.04277,-2.33684 -0.06617,-3.5052c-0.01413,-0.70601 -0.00744,-1.41258 0.0002,-2.11884c0.00277,-0.25673 -0.02232,-0.52481 0.19061,-0.7591c0.34026,-0.09746 0.70675,-0.10906 1.12929,-0.0995c0.25282,0.83398 0.0585,1.69224 0.13643,2.528c0.01865,0.05328 0.03714,0.10851 0.05811,0.16113c0.294,0.44574 0.76784,0.69216 1.15863,1.02998c0.63117,0.54561 1.26402,1.09098 1.95012,1.57574c0.17642,-0.14815 0.06463,-0.32677 0.09155,-0.48091c-0.017,-1.33492 -0.01732,-2.66928 -0.00096,-4.0031c0.00556,-0.44829 -0.13433,-0.77466 -0.48531,-1.05359c-0.56541,-0.44935 -1.11974,-0.91357 -1.66472,-1.3875c-0.25887,-0.20993 -0.499,-0.44339 -0.77565,-0.6326c-0.14423,-0.13589 -0.29257,-0.26873 -0.37078,-0.45822c-0.28604,-1.63864 -0.88417,-3.17268 -1.57254,-4.67629c-0.1075,-0.20428 -0.19532,-0.41833 -0.26226,-0.63925c-0.03647,-0.1217 -0.10714,-0.28337 0.11881,-0.31954c1.83034,1.50037 3.66098,3.00038 5.49195,4.50001c0.36491,0.29831 0.74159,0.58225 1.11284,0.87281c0.2562,0.04089 0.46958,0.21848 0.55631,0.46298z" fill="#cfc6f0"/><path d="M212.38058,160.18008c-0.05329,0.32499 0.24925,0.38737 0.41688,0.52581c3.09933,2.55931 6.20293,5.11346 9.31078,7.66246c0.09652,0.07942 0.22646,0.13559 0.26355,0.33787c-1.0373,0.77389 -1.87571,1.78337 -2.44602,2.94512c-0.24028,-0.03686 -0.21313,-0.24202 -0.20681,-0.38865c0.01817,-0.42093 -0.19302,-0.68067 -0.51281,-0.91829c-0.68309,-0.50756 -1.31545,-1.0796 -1.98113,-1.60969c-0.16688,-0.12622 -0.3209,-0.27168 -0.52213,-0.34196c-0.2358,0.07063 -0.15385,0.27085 -0.15399,0.4156c-0.00141,1.48679 -0.01681,2.97365 0.00679,4.45965c0.09579,0.42656 0.49282,0.58029 0.77593,0.8256c0.68538,0.59383 1.41888,1.13106 2.09158,1.74255c0.29358,1.14706 0.69763,2.26296 1.20648,3.33209c0.36074,0.75811 0.2817,1.69446 0.00425,2.54568c-2.7954,-2.2796 -5.59212,-4.56027 -8.39013,-6.84201c0,-1.18807 0,-2.33888 0,-3.48971c0.00001,-3.5496 0.00169,-7.09921 0.00505,-10.64881c0.00035,-0.18602 -0.1091,-0.41707 0.13173,-0.55329z" fill="#cfc6f2"/><path d="M229.00471,181.94755c1.90769,0.04641 3.79308,-0.41823 5.46075,-1.34577c0.43385,-0.23877 0.83921,-0.52922 1.25766,-0.79594c0.38637,0.51061 0.34247,1.16785 -0.11516,1.52328c-0.26208,0.2003 -0.53876,0.38074 -0.82775,0.53978c-0.45191,0.2333 -0.57672,0.61203 -0.57397,1.10332c0.01412,2.52065 -0.03293,5.04236 0.02481,7.56178c0.02558,1.1155 -0.2144,2.18852 -0.28734,3.28462c-0.22211,0.76302 -0.84922,1.19207 -1.70588,1.16709c-0.29864,-0.03471 -0.25596,-0.2591 -0.26214,-0.46234c-0.03611,-1.18661 0.12387,-2.37326 0.06302,-3.55428c-0.05267,-1.02218 0.10025,-2.04157 -0.02761,-3.05927c-0.06495,-0.51688 0.02421,-1.03892 -0.02814,-1.51221c-0.13869,-0.25702 -0.34526,-0.3432 -0.55558,-0.42425c-0.38218,-0.12577 -0.66584,-0.44926 -0.74058,-0.8446c-0.1255,-0.55651 0.04598,-1.13851 -0.11963,-1.6772c-0.22348,-0.16053 -0.4384,-0.12773 -0.65568,-0.06517c-0.23302,0.05076 -0.47413,0.05181 -0.70759,0.00307c-0.20066,-0.05133 -0.37189,-0.18192 -0.47447,-0.36187c0.12844,-0.31917 -0.32216,-0.80938 0.27525,-1.08005z" fill="#310085"/><path d="M220.59871,160.63939c0.09594,-1.86605 0.02813,-3.73338 0.03154,-5.59999c0.00071,-0.38629 0.16054,-0.80406 -0.11616,-1.16809c0.1476,-0.19408 0.11582,-0.42082 0.11585,-0.64127c0.00029,-2.04013 -0.00244,-4.08026 0.00407,-6.12037c0.00061,-0.19209 -0.0855,-0.41243 0.10918,-0.57208l0.02496,0.02972l-0.01333,0.03644c0.18024,0.26787 0.133,0.57259 0.13314,0.86667c0.00222,4.16674 0.00159,8.33349 0.00145,12.52949c0.14321,-0.10914 0.17917,-0.31244 0.43377,-0.33671c1.04873,0.32275 1.99527,0.91316 2.74635,1.71307c0.72362,0.77847 1.42935,1.55038 2.38679,2.06588c0.70984,0.38218 1.17601,1.0708 1.76775,1.60449c0.58651,0.52898 1.17771,1.02408 1.93895,1.27644c0.12309,0.04413 0.23745,0.1096 0.33784,0.19339c0.90622,0.71903 1.86646,1.36175 2.64276,2.24984c0.59543,0.68118 1.3398,1.23198 2.05192,1.79892c1.17896,0.9386 2.17575,2.08935 3.41628,2.95064c0.92959,0.6454 1.76403,1.40995 2.71345,2.03679c0.68756,0.44752 1.27693,1.0302 1.73227,1.71261c0.09727,0.25184 0.13284,0.49367 -0.11053,0.69018c-0.32047,0.03071 -0.50237,-0.20857 -0.73492,-0.33802c-0.42572,-0.237 -0.81892,-0.57803 -1.36617,-0.43171c-0.32367,-0.07334 -0.60012,-0.2824 -0.75886,-0.57384c-0.0682,-0.28409 -0.18752,-0.55341 -0.35214,-0.79477c-0.15711,0.07272 -0.09604,0.31595 -0.25858,0.36857c-0.38547,0.03299 -0.7702,-0.02592 -1.15563,-0.00742c-0.47978,-0.39484 -0.71163,-0.93881 -0.9051,-1.50549c-0.08524,-0.15951 -0.22232,-0.27675 -0.33911,-0.41062c-0.35091,-0.5376 -0.66369,-1.09912 -1.02241,-1.63189c-0.18788,-0.41415 -0.54683,-0.72595 -0.98319,-0.85404c-0.06809,-0.02099 -0.1343,-0.04818 -0.20292,-0.06655c-0.23913,-0.00188 -0.46755,0.1324 -0.71264,0.05722c-0.04971,-0.01429 -0.09673,-0.03671 -0.13913,-0.06634c-0.0367,-0.03706 -0.06808,-0.07902 -0.09324,-0.12472c-0.54092,-1.12148 -1.39425,-1.95448 -2.4222,-2.62811c-0.29304,-0.19203 -0.59135,-0.31558 -0.9376,-0.14179c-0.66292,-0.37696 -1.23103,-0.88866 -1.86167,-1.31231c-0.24354,-0.42884 -0.35923,-0.9212 -0.65439,-1.3244c-0.06078,-0.08361 -0.1526,-0.13931 -0.25486,-0.15454c-0.48919,0.08199 -0.6194,0.75567 -1.16846,0.78721c-0.3582,-0.25421 -0.37002,-0.6931 -0.552,-1.04124c-0.10098,-0.19316 -0.15116,-0.41114 -0.27499,-0.59462c-0.11565,-0.14718 -0.21134,-0.30901 -0.28458,-0.48126c-0.50085,-0.9502 -1.12926,-1.79239 -2.02944,-2.40653c-0.39245,-0.26775 -0.79971,-0.48102 -1.29964,-0.38411c-0.56628,-0.3697 -1.18654,-0.67209 -1.58441,-1.25474z" fill="#dac1dc"/><path d="M236.26723,180.71807c0.75173,1.51683 1.37507,3.0761 1.57926,4.77389c0.11922,1.68045 0.04033,3.36266 0.0421,5.04413c0.00018,0.16639 -0.03244,0.33345 -0.17794,0.44876c-0.19343,-0.61335 -0.0507,-1.24304 -0.08821,-1.8641c-0.0166,-0.2748 -0.0028,-0.55142 -0.0028,-0.87554c-0.38457,0.14585 -0.72348,0.22437 -1.1314,0.02832c0,1.60448 0.01553,3.12181 -0.00787,4.63857c-0.00898,0.58248 0.12807,1.17688 -0.09109,1.74949c-0.48039,-0.40851 -0.96077,-0.81703 -1.44121,-1.22555c0.46772,-0.49963 0.37879,-1.1276 0.41318,-1.7333c0.09142,-1.60925 0.01609,-3.22187 0.11094,-4.83047c0.0233,-0.23984 0.00941,-0.48183 -0.04119,-0.71742c-0.02709,-0.10791 -0.08103,-0.22711 -0.05215,-0.32713c0.35049,-1.21395 -0.10767,-2.5229 0.44123,-3.71253c0.20615,-0.44677 0.03599,-1.01499 0.44714,-1.39712z" fill="#5f69a0"/><path d="M229.12022,183.26827c0.27208,0.00114 0.54414,0.00226 0.81621,0.0034c0.31692,0.05358 0.34728,0.31032 0.35207,0.54747c0.02949,1.4567 0.02555,2.91368 0.00299,4.37051c-0.00258,0.16651 -0.03322,0.33228 -0.17484,0.44968c-0.96503,-0.80258 -1.93005,-1.60515 -2.89509,-2.40774c-0.31147,-1.00647 -0.23277,-2.02093 -0.0629,-3.03748c0.66497,-0.27989 1.3126,-0.08515 1.96157,0.07415z" fill="#9a6b00"/><path d="M236.26723,180.71807c-0.2128,0.95235 -0.42573,1.90468 -0.6388,2.85698c-0.03015,0.164 -0.02149,0.33278 0.02532,0.49283c0.09841,0.41613 0.15468,0.83502 -0.0443,1.2459c-0.1208,0.25317 -0.12927,0.54554 -0.02336,0.80529c0.22911,0.64764 -0.07295,1.29658 -0.01668,1.95804c0.12663,1.4883 -0.08435,2.97842 -0.08607,4.46969c-0.00044,0.38622 0.00548,0.81172 -0.53529,0.88924c-0.23768,-0.16741 -0.48554,-0.32279 -0.66492,-0.55946c0.47162,-0.63242 0.39825,-1.37516 0.37547,-2.08676c-0.04603,-1.43843 0.01769,-2.87751 -0.02726,-4.31289c-0.04331,-1.38262 0.12296,-2.7635 -0.01581,-4.14412c-0.02714,-0.22548 0.04674,-0.45142 0.20184,-0.61733c0.32382,-0.23664 0.64764,-0.4733 0.98092,-0.71685c-0.00821,-0.40559 0.11612,-0.80622 -0.07528,-1.19269c0.10849,-0.12795 0.2118,-0.16892 0.30181,0.01713c-0.14759,0.35996 0.22592,0.57916 0.24243,0.89499z" fill="#4e5592"/><path d="M220.63393,181.71389c0.00901,-0.70219 0.01667,-1.4044 0.02809,-2.10655c0.00331,-0.14864 -0.04098,-0.29443 -0.1264,-0.4161c-0.62504,-0.92333 -1.01684,-1.98448 -1.14181,-3.09246c-0.0236,-0.08834 -0.05933,-0.17299 -0.10618,-0.25151c-0.09509,-0.21289 -0.19377,-0.42541 -0.07298,-0.66217c0.02894,-0.06152 0.09644,-0.09502 0.16294,-0.08085c0.24184,0.7508 0.41485,1.52137 0.81464,2.22065c0.7624,1.33351 1.83946,2.34206 3.12208,3.15404c0.37151,0.53585 0.33666,0.81231 -0.14833,1.18278c-0.49967,-0.01806 -0.84297,-0.33006 -1.19037,-0.63437c-0.11141,-0.1174 -0.18799,-0.28103 -0.44826,-0.2973c-0.05933,0.56501 0.03051,1.13161 -0.01166,1.69309c-0.06546,0.87129 -0.00465,1.74327 0.02616,2.61536c0.01674,0.47408 0.01484,0.96208 -0.26152,1.3891c-0.51859,-0.20134 -0.6166,-0.63884 -0.62118,-1.12152c-0.01135,-1.19737 -0.01717,-2.39479 -0.02521,-3.59219z" fill="#6a01c3"/><path d="M222.06929,180.95292c0.2938,0.2866 0.66857,0.44752 1.01466,0.65292c0.37679,0.13764 0.79325,0.22238 0.92336,0.69111c-0.00782,0.70748 0.1952,1.42819 -0.13394,2.11488c-0.00629,0.16699 -0.01774,0.33397 -0.01803,0.50096c-0.00205,1.14691 -0.70458,1.78346 -1.8903,1.71019c-0.17488,-0.19091 -0.09382,-0.41996 -0.10087,-0.63856c-0.04054,-1.25704 0.13523,-2.51077 -0.00743,-3.77577c-0.04223,-0.37448 -0.16543,-0.89384 0.21253,-1.25575z" fill="#2e0075"/><path d="M234.81736,181.7155c0.04679,1.04185 -0.035,2.08292 -0.02433,3.1258c0.0083,0.81201 0.00384,1.63036 -0.02431,2.44565c-0.0567,1.64238 0.12148,3.28585 -0.0104,4.92799c-0.0244,0.3037 -0.05542,0.6293 -0.47521,0.66163c-0.06308,-0.02714 -0.12618,-0.05427 -0.20094,-0.08646c-0.15893,0.3484 0.04906,0.71585 -0.13845,1.02842c-0.13467,-0.65096 0.09787,-1.2833 0.09557,-1.92987c-0.01089,-3.04088 -0.00434,-6.08182 -0.00403,-9.12273c0.00002,-0.20229 0.00001,-0.40456 0.00001,-0.6225c0.27659,-0.14352 0.48123,-0.36676 0.78211,-0.42793z" fill="#3b3f81"/><path d="M230.83776,185.19739c0.08881,0.33224 0.32264,0.52531 0.62592,0.65182c0.26553,0.51441 0.37005,1.09684 0.29993,1.67148c-0.14751,1.27737 -0.05829,2.55583 -0.09324,3.83302c-0.02486,0.90866 -0.00581,1.81815 0.0418,2.72705c0.01341,0.25577 -0.02362,0.52451 -0.25575,0.7065c-0.549,-0.19876 -0.64748,-0.65479 -0.65094,-1.15668c-0.00813,-1.17922 -0.0097,-2.35849 -0.01391,-3.53773c-0.12826,-0.22683 -0.19017,-0.48514 -0.17865,-0.74546c0.00089,-1.14782 -0.00601,-2.29568 0.00518,-3.44343c0.00245,-0.25088 -0.03911,-0.52922 0.21966,-0.70655z" fill="#6904c1"/><path d="M231.4564,194.78723c0.27006,-0.79544 -0.01841,-1.60252 0.04976,-2.40078c0.08171,-0.95662 -0.04596,-1.91446 0.04983,-2.87227c0.05034,-0.50338 0.00889,-1.01592 0.00889,-1.68923c0.31221,-0.55136 -0.14972,-1.26113 -0.1012,-1.97576c0.32079,0.03445 0.54135,0.22349 0.74392,0.49081c-0.20168,0.94615 0.1164,1.91927 -0.02422,2.87587c-0.10284,0.6996 -0.00166,1.38937 -0.00612,2.07697c-0.00762,1.176 -0.11187,2.34947 -0.07438,3.5249c0.00183,0.05739 0.08817,0.11206 0.13505,0.16801c-0.27678,0.04534 -0.55994,-0.02659 -0.78154,-0.19851z" fill="#4d00a0"/><path d="M226.30181,186.07861c-0.16791,0.23139 -0.29193,0.03293 -0.40225,-0.05669c-0.56889,-0.4622 -1.12918,-0.935 -1.69247,-1.40409c0.08168,-0.14394 0.25377,-0.21015 0.34008,-0.42864c0.03379,-0.54494 -0.05875,-1.17162 0.24893,-1.73865c0.55024,0.02081 1.07076,0.12801 1.49813,0.51128c0.02938,0.05879 0.0504,0.12141 0.06246,0.18601c0.01568,0.97774 0.11104,1.95676 -0.05488,2.93078z" fill="#575e96"/><path d="M230.83776,185.19739c-0.0154,1.6318 -0.0308,3.26361 -0.04619,4.89542c-0.21833,-0.19751 -0.43666,-0.39504 -0.6747,-0.61039c0,-0.28884 0,-0.56596 -0.0001,-0.84307c0.09463,-1.64843 0.01692,-3.29829 0.04288,-4.94725c0.00502,-0.16972 -0.07983,-0.3295 -0.22323,-0.4204c0.25657,-0.12978 0.53431,-0.06144 0.90134,-0.14191z" fill="#ccc0ec"/><path d="M222.06929,180.95292c-0.14994,0.83206 0.00451,1.66779 -0.01871,2.50299c-0.02936,1.05515 -0.01573,2.1122 -0.08546,3.16708c-0.24567,0.03589 -0.49493,-0.03523 -0.68469,-0.19534c0.22509,-1.98408 -0.00885,-3.97738 0.10764,-6.0223c0.28169,0.15936 0.56642,0.23744 0.68121,0.54757z" fill="#4e00a1"/><path d="M226.30181,186.07861c-0.21966,-0.43689 -0.07773,-0.90269 -0.09741,-1.35381c-0.02494,-0.57175 0.0028,-1.14578 0.00784,-1.71882c0.37755,-0.15315 0.71612,-0.10037 1.00959,0.19083c-0.00015,1.01154 -0.00026,2.02309 -0.00034,3.03469c-0.16389,-0.11868 -0.32786,-0.23746 -0.50133,-0.36311c-0.18494,-0.03569 -0.27622,0.14057 -0.41835,0.21023z" fill="#402c01"/><path d="M224.76084,182.49788c0.10533,0.55901 -0.16133,1.1044 -0.03727,1.67895c0.05017,0.23235 -0.1845,0.47638 -0.5165,0.44098c-0.11121,-0.06867 -0.22242,-0.13734 -0.33366,-0.20599c-0.0014,-0.75297 -0.00279,-1.50597 -0.00417,-2.25899c0.38608,-0.11441 0.68212,0.00357 0.89161,0.34504z" fill="#3b3d7e"/><path d="M242.9742,177.36046c-0.64303,-0.70503 -1.27227,-1.40582 -2.11087,-1.91798c-0.79706,-0.48678 -1.47476,-1.1568 -2.23277,-1.71384c-1.35765,-0.99767 -2.50264,-2.24932 -3.8114,-3.30382c-0.8429,-0.67916 -1.6904,-1.36267 -2.40406,-2.1597c-0.64042,-0.71523 -1.40032,-1.34947 -2.19089,-1.70253c-1.11017,-0.4958 -1.99421,-1.22362 -2.76365,-2.04809c-0.69978,-0.74982 -1.62718,-1.1246 -2.33851,-1.81161c-0.81567,-0.78778 -1.49492,-1.71944 -2.68917,-2.40913c-0.27535,-0.05211 -0.73046,-0.26913 -1.12805,-0.55681c-0.34784,0.13903 -0.13599,0.56771 -0.43928,0.69716c-0.1527,-0.03095 -0.12173,-0.16076 -0.12169,-0.26362c0.0023,-4.52223 0.00594,-9.04445 0.01094,-13.5667c3.08234,1.374 6.16441,2.74862 9.24619,4.12387c0.82821,0.37069 1.64637,0.7638 2.46907,1.14654c1.96803,2.3685 3.93639,4.73685 5.90508,7.10501c1.74658,2.09554 3.49638,4.18841 5.24939,6.27862c0.12925,0.15478 0.23841,0.32633 0.3569,0.49009c0.07892,0.11768 0.05147,0.25111 0.05152,0.37859c0.00132,3.89326 0.00124,7.78652 -0.00026,11.67978c-0.00006,0.14521 0.02971,0.29647 -0.07138,0.46662c-0.65443,0.06013 -0.73088,-0.529 -0.98711,-0.91244z" fill="#d0c7f1"/><path d="M242.9742,177.36046c0.32654,0.2526 0.47825,0.69626 1.0072,0.89624c0,-4.21144 0,-8.36015 0.00001,-12.50882c0.0295,0.0072 0.05898,0.01427 0.08845,0.02122c-0.00007,4.47667 -0.00007,8.95344 -0.00007,13.60889c-0.52809,-0.49861 -0.84351,-0.97806 -1.3509,-1.33828v0.5363c0.8419,0.56475 1.51323,1.22507 1.3629,2.35202l-0.00888,0.00835c-0.11991,0.23772 -0.27675,0.11891 -0.39972,0.02164c-0.41253,-0.32634 -0.85419,-0.61844 -1.21578,-1.00661c-0.1927,-0.33833 -0.25478,-0.73567 -0.47924,-1.05993c-0.17284,-0.3121 -0.28846,-0.65801 -0.54763,-0.91895c-0.17792,-0.30443 -0.65439,-0.41069 -0.58606,-0.87861c0.17608,-0.26987 0.40159,-0.11484 0.58913,-0.04318c0.50794,0.20044 0.97833,0.48531 1.39129,0.84257c0.30059,-0.13324 0.16059,-0.34837 0.14928,-0.53282z" fill="#cebbe0"/><path d="M245.74416,187.76683c-0.80172,-0.60806 -1.58589,-1.23735 -2.32446,-1.92174c0.16191,-0.34996 0.03689,-0.72482 0.11355,-1.07195c-0.45826,-0.37688 -0.8472,-0.82984 -1.58908,-0.74931c0.3241,-0.48417 0.5728,-0.8557 0.84337,-1.25991c0.45802,0.09589 0.90642,0.03927 1.32824,-0.38762c-0.31243,-0.0756 -0.67501,0.10118 -0.71517,-0.27832c-0.27804,-0.02051 -0.29047,0.23903 -0.49509,0.27923c-0.12392,-0.06004 -0.26725,-0.12946 -0.37338,-0.18086c-0.225,0.04092 -0.17662,0.25908 -0.30097,0.32671c-0.18887,-0.01777 -0.08775,-0.29188 -0.28598,-0.29878c-0.18982,0.14034 0.01001,0.40472 -0.20151,0.57055c-0.23251,-0.0613 -0.35064,-0.28079 -0.5321,-0.45698c0.01862,-0.35506 -0.12696,-0.66874 -0.37235,-0.97656c0.10378,-0.04147 0.16742,-0.06689 0.23107,-0.09233c0.1968,-0.17506 0.41007,-0.16637 0.63218,-0.05725c0.07934,0.08031 0.08091,0.14032 0.02165,0.15735c1.23118,0.41871 2.52743,0.61338 3.82728,0.5748c0.75722,-0.05746 1.21702,-0.56808 1.66638,-1.10974c1.8144,-0.0824 3.61791,-0.31556 5.43604,-0.36306c0.90609,-0.02368 1.81005,-0.1292 2.71487,-0.1976c-0.72538,0.80186 -1.62819,1.39888 -2.48086,2.03768c-2.10332,1.57574 -4.13108,3.24719 -6.23204,4.82449c-0.29536,0.22173 -0.60735,0.42137 -0.91165,0.63121z" fill="#690063"/><path d="M253.5911,189.34614c-0.27239,0.10183 -0.39716,0.3832 -0.63766,0.5238c-0.15291,0.05377 -0.26942,0.1932 -0.43413,0.19381c-0.19703,-0.02974 -0.31066,-0.12765 -0.33401,-0.3173c0.25726,-0.37853 0.46875,-0.79562 0.89976,-1.0483c-0.2365,-0.10812 -0.37393,0.0655 -0.54167,0.11364c-0.398,0.1589 -0.5518,0.51281 -0.70542,0.87085c-0.0857,0.1997 -0.08679,0.43594 -0.25683,0.59926c-0.11025,-0.06276 -0.2205,-0.12551 -0.33075,-0.18826c-0.01543,-0.00992 -0.03601,-0.01642 -0.04534,-0.03041c-0.02624,-0.03934 -0.08531,-0.0492 -0.08505,-0.02649c0.01247,0.18214 0.01337,0.36489 0.00266,0.54714c-0.07394,0.64107 -0.36215,0.97854 -0.84794,0.99683c-0.15649,-0.14417 -0.18901,-0.30045 -0.03908,-0.47408c0.52055,-0.43547 0.57258,-0.82163 0.18551,-1.37707c0.34402,-0.45569 0.5673,-0.58719 0.95889,-0.56473c0.48684,-0.57674 0.8585,-1.30417 1.76626,-1.39056c0.07459,-0.408 2.77572,-2.55847 3.31715,-2.58306c-0.01855,-0.3939 0.33051,-0.47918 0.57519,-0.69624c0.14786,0.12717 0.4394,0.1329 0.24539,0.43829c-0.38868,0.23218 -0.23864,0.75776 -0.52983,1.0188c-0.22708,0.06491 -0.26657,-0.11232 -0.36092,-0.21899c-0.27721,0.17294 -0.52915,0.38056 -0.80058,0.5599c-0.06787,0.03745 -0.13574,0.0749 -0.20362,0.11235c-0.35762,0.18165 -0.52838,0.50356 -0.63602,0.8659c-0.06901,0.23229 -0.12239,0.46764 -0.35907,0.57772c-0.20817,0.05817 -0.20953,-0.20008 -0.3805,-0.21381c-0.29503,0.07036 -0.22851,0.28617 -0.21007,0.51661c0.03291,0.41134 0.16466,0.85183 -0.21238,1.19444z" fill="#fff7c5"/><path d="M260.39124,184.06844c-0.24775,0.38054 -0.43477,0.17116 -0.6253,-0.05851c-0.02956,-0.22552 0.33461,-0.39345 0.08961,-0.64126c-0.04308,-0.05746 -0.04358,-0.13933 -0.15515,-0.22116c-0.57298,0.44168 -1.20911,0.83055 -1.64718,1.45574c-0.4398,-0.36704 -0.45604,-0.55245 -0.0103,-0.9031c0.85501,-0.67263 1.72736,-1.32324 2.59251,-1.98298c0.47978,0.01571 0.53207,0.10519 0.31235,0.53242c-0.20924,0.15918 -0.42987,0.30281 -0.66011,0.42977c0.22637,0.45268 0.14252,0.92309 0.10358,1.38909z" fill="#fff7c5"/><path d="M253.5911,189.34614c0.1486,-0.51851 0.21378,-1.03383 -0.08329,-1.55207c0.2074,-0.16051 0.40718,-0.31514 0.59939,-0.46388c0.25139,0.07652 0.08354,0.30959 0.20985,0.43752c0.03464,-0.01806 0.09675,-0.02921 0.1175,-0.0646c0.16593,-0.28316 0.26712,-0.59583 0.39853,-0.8928c0.09272,-0.23015 0.30851,-0.38732 0.556,-0.40498c-0.18596,0.30775 -0.4977,0.54555 -0.5298,0.93927c0.14447,0.24993 0.58771,0.08521 0.63566,0.5567c-0.60592,0.45984 -1.25489,0.95235 -1.90385,1.44485z" fill="#ffe956"/><path d="M265.29634,179.25326c0.10275,0.12906 0.20553,0.25812 0.37248,0.46782c-0.2752,0.78878 -1.08214,1.05012 -1.69197,1.51263c-0.09109,-0.52281 0.12994,-1.0558 -0.09028,-1.60843c0.48171,-0.4765 0.92314,-0.98763 1.62797,-1.14317c0.0708,0.24009 0.06881,0.45123 -0.21855,0.54886c-0.08251,0.04616 -0.15987,0.101 -0.23077,0.16355c0.06333,0.076 0.17499,-0.03069 0.23111,0.05876z" fill="#ffe956"/><path d="M255.59275,186.29294c0.12638,-0.47536 0.6701,-0.47977 0.89254,-0.84921c0.16916,0.14202 -0.10364,0.35877 0.18832,0.45405c0.26121,-0.15321 0.15903,-0.45366 0.20912,-0.69553c0.08847,-0.14355 0.2349,-0.24162 0.40132,-0.26875c-0.15582,0.41398 -0.31168,0.82813 -0.46755,1.24242c-0.04543,0.21366 0.22364,0.30483 0.19047,0.55624c-0.30789,0.23783 -0.64269,0.49645 -0.95871,0.74057c-0.19816,-0.00779 -0.3023,-0.10591 -0.4112,-0.25071c0.08237,-0.30066 0.45474,-0.64441 -0.0443,-0.92906z" fill="#ffe956"/><path d="M265.51455,178.48209c-0.50249,0.36923 -1.00499,0.73846 -1.4464,1.0628c-0.11907,0.27616 0.124,0.36162 0.11097,0.5874c-0.20423,0.30428 0.07594,0.75272 -0.20218,1.10156c-0.07226,0.07421 -0.14447,0.14852 -0.21663,0.22292c-0.51662,-0.4609 -0.3389,-1.02275 -0.2314,-1.57434c-0.00981,-0.09347 -0.0532,-0.18817 0.00437,-0.2805c0.39302,-0.62627 1.05344,-0.94572 1.58622,-1.40431c0.16846,0.02896 0.31418,0.1339 0.39506,0.28448z" fill="#fff7c5"/><path d="M260.86099,182.15995c0.08084,-0.04095 0.15156,-0.08986 0.1526,-0.19654c-0.07106,-0.14551 -0.21641,-0.24014 -0.37824,-0.24624c0.36895,-0.30358 0.73784,-0.60717 1.0663,-0.87748c0.28735,-0.03805 0.45273,0.35253 0.70752,0.08338c0.17194,0.14384 0.27402,0.29757 0.0709,0.49469c-0.32416,0.00377 -0.67862,-0.07657 -0.88339,0.34104c-0.00734,0.45464 0.15953,0.95532 -0.07317,1.43252c-0.0941,0.17708 -0.27997,0.22074 -0.43981,0.30227c-0.40744,-0.31566 -0.47876,-0.74261 -0.22275,-1.33363z" fill="#fff7c5"/><path d="M261.52356,183.19132c-0.08938,-0.47511 0.15052,-0.98623 -0.16812,-1.42357c0.14946,-0.2989 0.45341,-0.39001 0.6513,-0.57545c0.19976,-0.03568 0.26744,0.1428 0.40171,0.19294c0.21702,0.09368 0.18276,-0.09619 0.20546,-0.19505c0.03805,-0.16571 -0.00166,-0.37234 0.2569,-0.39047c0.1627,0.1651 0.38015,0.31221 0.1971,0.59175c-0.30622,0.12965 -0.1034,0.44233 -0.22768,0.63797c-0.02362,0.04384 -0.0539,0.08373 -0.08978,0.11825c-0.21837,0.06217 -0.19496,0.3594 -0.52301,0.4408c-0.14814,0.01856 -0.2049,-0.30511 -0.42987,-0.32566c-0.14837,0.24221 0.13416,0.349 0.17,0.53478c-0.08295,0.20838 -0.27862,0.28424 -0.44401,0.39371z" fill="#ffe956"/><path d="M250.23567,191.10662c0.00455,0.14219 -0.02983,0.29439 0.09269,0.40692c0.63889,-0.20418 0.87219,-0.91008 0.55054,-1.66287c0.0509,-0.05008 0.10472,-0.0971 0.16116,-0.14083c0.02579,-0.01816 0.06851,-0.01229 0.10916,-0.01812c0.15135,0.10317 0.06177,0.26971 0.10113,0.40192c0.05074,0.85104 -0.30894,1.48683 -1.01681,1.94163c-0.23813,0.153 -0.46731,0.22947 -0.67232,-0.04906c-0.20146,-0.30836 -0.12076,-0.67997 -0.23998,-0.98866c0.36146,-0.57085 0.59506,-0.68501 0.92644,-0.46733c-0.004,0.19213 -0.00802,0.38426 -0.01202,0.57638z" fill="#ffe956"/><path d="M258.05321,184.60326c0.01427,-0.17805 -0.03457,-0.38544 0.16019,-0.49493c0.60425,-0.3397 1.03384,-0.92418 1.68502,-1.20192c0.12472,0.17197 0.02338,0.3156 -0.04303,0.46242c-0.1256,0.10425 -0.27274,0.05879 -0.42664,0.01674c-0.11451,0.46923 -0.16455,0.88957 0.13849,1.28406c-0.18777,0.2899 -0.47978,0.44442 -0.74842,0.62605c-0.38774,-0.17342 -0.12741,-0.5484 -0.2805,-0.82136c-0.09431,-0.04046 -0.13711,0.1275 -0.24466,0.11648z" fill="#ffe956"/><path d="M247.88984,193.79039c-0.28418,0.34772 -0.37178,-0.04907 -0.55145,-0.11275c0.26712,-0.66163 0.26874,-1.05888 0.01681,-1.59308c0.08242,-0.22689 0.31109,-0.29799 0.47648,-0.43687c0.16773,-0.14087 0.30925,-0.31896 0.54241,-0.38381c0.14294,0.03083 0.25623,0.13975 0.29267,0.28136c-0.21075,0.33064 -0.43887,0.64404 -0.79596,0.78612c0.23737,0.50019 0.21446,0.97761 0.01904,1.45904z" fill="#fff7c5"/><path d="M262.97552,181.37997c0.23573,-0.24182 -0.19391,-0.34847 -0.11365,-0.55871c-0.20717,-0.29733 0.01177,-0.46881 0.2048,-0.62435c0.17775,-0.14324 0.33216,-0.33448 0.58199,-0.36755c-0.08145,0.55072 -0.19418,1.10358 0.11155,1.62761c-0.32565,0.24602 -0.58176,0.59393 -1.00978,0.69076c-0.00032,-0.02959 -0.0008,-0.05916 -0.00145,-0.0887c0.17828,-0.19211 0.04969,-0.48647 0.22654,-0.67907z" fill="#ffe956"/><path d="M251.58116,190.28188c0.06038,-0.79916 0.3853,-1.35127 0.90755,-1.5422c0.09061,0.34278 -0.03019,0.63143 -0.23057,0.89971c-0.01993,0.15842 0.08843,0.30445 0.24583,0.33128c0.13642,-0.0306 0.2927,-0.06565 0.44923,-0.10072c-0.2126,0.25424 -0.4848,0.45192 -0.79235,0.57541c-0.2458,0.11146 -0.42346,0.02177 -0.57969,-0.16349z" fill="#ffe956"/><path d="M247.88984,193.79039c-0.07753,-0.48731 0.13939,-1.00158 -0.1499,-1.47486c0.31347,-0.26054 0.62017,-0.51543 0.92685,-0.77031c0.03585,0.15472 -0.07905,0.24627 -0.14948,0.35646c-0.06128,0.44147 0.15318,0.8511 0.14864,1.28603c-0.25869,0.20091 -0.51739,0.4018 -0.7761,0.60269z" fill="#ffe956"/><path d="M260.86099,182.15995c0.00962,0.4554 -0.10134,0.9309 0.22269,1.33374c-0.16226,0.27381 -0.4467,0.40081 -0.69234,0.57466c-0.19353,-0.26522 -0.06681,-0.56842 -0.09912,-0.85275c-0.02104,-0.18519 0.0639,-0.40143 -0.22716,-0.52168c0.28742,-0.19283 0.54167,-0.36341 0.79593,-0.534z" fill="#ffe956"/><path d="M250.24768,190.53023c-0.41291,-0.09849 -0.58097,0.24135 -0.84047,0.45278c0.24554,0.31337 0.13797,0.66651 0.15407,1.00326c-0.23036,-0.09773 -0.34825,-0.27438 -0.32023,-0.52062c0.03057,-0.26852 -0.06545,-0.49725 -0.21633,-0.73427c0.34591,-0.27828 0.67271,-0.54117 0.98596,-0.79318c0.21504,-0.01529 0.32749,0.09747 0.42287,0.2352c0.05135,0.18121 -0.04976,0.27821 -0.18586,0.35682z" fill="#fff7c5"/><path d="M263.64867,179.82936c-0.13324,0.20068 -0.3134,0.36587 -0.52486,0.48125c-0.18644,0.09778 -0.29129,0.3022 -0.26194,0.51067c-0.17548,0.23909 -0.15941,0.54547 -0.26317,0.80685c-0.17483,-0.01304 -0.16356,-0.14155 -0.19022,-0.24293c0.20966,-0.15358 -0.03096,-0.30804 0.00076,-0.46207c0.0671,-0.70185 0.42616,-1.15556 1.12402,-1.32125c0.03848,0.07588 0.07695,0.1517 0.1154,0.22749z" fill="#fff7c5"/><path d="M248.66595,193.18769c-0.39264,-0.38951 -0.20422,-0.84579 -0.14832,-1.28646c0.02063,0.10742 0.04154,0.2144 0.06394,0.32883c0.15229,-0.05043 0.18819,-0.2446 0.39786,-0.2367c0.35609,0.11068 0.39906,0.38906 0.29697,0.77211c-0.18862,0.13047 -0.39954,0.27634 -0.61044,0.42223z" fill="#fff7c5"/><path d="M258.29365,184.59082c0.11153,-0.15679 0.12614,-0.38003 0.34525,-0.49296c0.22221,0.38123 -0.05743,0.83298 0.18011,1.19774c-0.24601,0.38131 -0.44107,0.1962 -0.63653,-0.05169c-0.02382,-0.23127 0.34526,-0.39352 0.11118,-0.65308z" fill="#fff7c5"/><path d="M265.29634,179.25326c-0.18956,-0.0116 -0.20442,0.24218 -0.41527,0.27251c0.01453,-0.29779 -0.01958,-0.585 0.41511,-0.49484c-0.00006,0.07412 -0.00001,0.14822 0.00016,0.22232z" fill="#4f410c"/><path d="M249.30764,167.84496c0.6174,0.52498 1.14844,0.89092 1.55176,1.39435c-0.21165,0.33354 -0.36613,-0.0092 -0.61126,0.00601c-0.68539,0.56667 -1.61037,0.97148 -1.83471,1.92707c-0.20351,0.19327 -0.35769,0.00453 -0.51243,0.1061c-0.36983,0.56732 -0.82255,1.07747 -1.42888,1.43461c-0.34508,0.20324 -0.68304,0.28799 -1.03188,0.00454c-0.35872,-0.29148 -0.31573,-0.6747 -0.17275,-1.01864c0.33963,-0.83487 0.9625,-1.52343 1.75926,-1.94476c0.44011,-0.23702 0.62743,-0.17353 0.98143,0.26893c-0.95782,0.12876 -1.59407,0.67509 -2.03461,1.46841c-0.13334,0.24011 -0.28259,0.48594 -0.13869,0.87232c0.89086,-0.25196 1.3588,-0.93614 1.75037,-1.61298c0.1714,-0.1511 0.29293,-0.02684 0.46181,-0.03716c0.41003,-0.90786 0.69265,-1.90205 1.26059,-2.86879z" fill="#ffd414"/><path d="M251.50822,167.67223c-0.29435,-0.06615 -0.46583,-0.16179 -0.56865,-0.35111c0.19408,-1.15639 1.81431,-2.31966 2.565,-1.74092c-0.63209,0.35459 -1.32587,0.58956 -1.77113,1.26566c0.53354,-0.19173 0.86174,-0.66922 1.3742,-0.70824c0.21139,0.06919 0.34759,0.18891 0.50542,0.39905c-0.38857,1.13881 -1.27299,1.76715 -2.28841,2.22626c-0.26296,-0.09713 -0.42715,-0.20165 -0.50349,-0.47798c0.85399,-0.12859 1.4474,-0.64757 1.90406,-1.37523c-0.40881,0.25613 -0.81761,0.51228 -1.217,0.76251z" fill="#ffd91c"/><path d="M257.51249,162.86378c-0.0938,-0.51543 0.09392,-0.9318 0.36529,-1.32248c0.44063,-0.63442 0.9699,-1.1774 1.67962,-1.50633c0.60736,-0.2815 1.15928,0.12139 1.08452,0.77145c-0.09431,0.82028 -1.42437,2.3132 -2.21516,2.48754c-0.39811,0.08777 -0.68659,-0.06679 -0.91426,-0.43018z" fill="#ffd817"/><path d="M254.54498,163.82041c0.78579,-0.16252 1.48475,0.15063 2.20831,-0.00177c0.21107,-0.57432 -0.07809,-1.22988 0.1727,-1.82428c0.53514,0.22776 0.60034,0.63904 0.39417,2.26639c-0.70484,0.37676 -1.47314,-0.12196 -2.28221,0.10317v1.68652c-0.28609,0.13746 -0.38666,-0.01532 -0.49295,-0.11644z" fill="#ffca1c"/><path d="M253.88937,164.41228c0.43866,0.26516 0.54403,1.76777 0.19597,2.31569c-0.42631,-0.22823 -0.56215,-1.67321 -0.19597,-2.31569z" fill="#ffc821"/><path d="M219.37759,175.10426c-0.02288,0.00054 -0.04563,0.00366 -0.06782,0.00928c-0.86579,-0.45488 -1.67088,-0.98045 -2.17202,-1.8627c-0.08207,-1.36562 -0.02868,-2.73131 -0.03087,-4.09656c-0.0003,-0.18383 0.01852,-0.37168 0.17237,-0.50828c0.86048,0.68173 1.72094,1.36346 2.52139,1.99764c0.12263,0.38757 -0.02621,0.71344 0.12523,1.00754c-0.49753,1.10121 -0.58427,2.26741 -0.5483,3.45308z" fill="#e5ffff"/><path d="M228.73274,167.41144c0.6772,0.34563 1.25342,0.83289 1.83764,1.30892c0.43609,0.08234 0.5627,0.455 0.73668,0.78335c0.02161,0.1963 -0.15678,0.32663 -0.17226,0.54357c0.06667,0.19354 0.00332,0.44312 0.13492,0.65517c0.14714,0.15317 0.27255,0.31686 0.27106,0.54352c-0.01128,0.18864 -0.16322,0.32572 -0.19013,0.53145c0.01353,0.2655 0.2065,0.53538 0.08412,0.83575c-0.10663,0.2352 -0.29548,0.25901 -0.51605,0.20108c-1.39438,-0.6405 -2.45941,-1.6405 -3.2328,-2.95882c-0.27243,-0.18309 -0.27713,-0.41037 -0.11127,-0.66621c0.08292,-0.11329 0.22833,-0.17943 0.26333,-0.34821c-0.0443,-0.31627 -0.29922,-0.62255 -0.10997,-0.97533c0.20039,-0.21445 0.45384,-0.35502 0.7022,-0.50344c0.10197,-0.04267 0.21935,-0.0236 0.30255,0.0492z" fill="#fdbd02"/><path d="M241.72302,181.32008c-0.21756,-0.01704 -0.43514,-0.03408 -0.6527,-0.05113c-1.36501,-0.72516 -2.38308,-1.79356 -3.11477,-3.14527c-0.51194,-0.58661 -0.51581,-1.25452 -0.01188,-1.89781c0.09701,-0.07937 0.19877,-0.14476 0.33321,-0.10057c0.41403,-0.25854 0.82672,-0.08692 1.23964,0.00395c0.32152,-0.03454 0.48463,0.17881 0.63804,0.40733c0.19925,0.22393 0.39773,0.44883 0.69005,0.55744c0.22309,0.26874 0.44624,0.53756 0.66947,0.80644c0.18381,0.21395 -0.11783,0.35447 -0.06839,0.60855c0.09065,0.24734 0.29123,0.50779 0.43401,0.79917c0.2852,0.54216 0.45896,1.10209 0.28192,1.71977c-0.09709,0.17092 -0.21553,0.31035 -0.43861,0.29214z" fill="#fbb903"/><path d="M220.59871,160.63939c0.52759,0.38973 1.05519,0.77947 1.58277,1.16922c0.38478,0.19491 0.66935,0.47221 0.7536,0.9145c-0.00262,0.16974 -0.14721,0.29233 -0.15703,0.50701c-0.12634,0.21677 0.53009,0.59635 -0.12107,0.78173c-0.23541,-0.10724 -0.29068,-0.35657 -0.42903,-0.54058c-0.12022,-0.19484 -0.25361,-0.38144 -0.37187,-0.57772c-0.27598,-0.54343 -0.74349,-0.88028 -1.25852,-1.16524c-0.11759,-0.04739 -0.23395,-0.09764 -0.35396,-0.13858c-0.14547,-0.04495 -0.28908,-0.07159 -0.42508,0.02701c-0.27362,0.55106 -0.19801,0.96788 0.2825,1.55835c0.1565,0.08815 0.33185,-0.02414 0.49036,0.04478c0.11293,0.06463 0.21766,0.14263 0.31191,0.23234c0.29556,0.25951 0.55665,0.55495 0.85329,0.81384c0.34254,0.3397 0.79549,0.54536 1.27669,0.5797c0.49663,0.03727 0.60813,0.26794 0.45256,0.74124c-0.26272,0.28221 -0.55637,0.45979 -0.95438,0.27836c-1.68178,-0.6875 -2.80769,-1.90879 -3.36922,-3.6207c-0.35474,-1.08151 0.31424,-1.79457 1.43646,-1.60524z" fill="#fbbb03"/><path d="M225.6004,164.64963c0.09801,0.13098 0.19602,0.26198 0.29402,0.39297c-0.18072,0.37721 -0.11284,0.72125 0.04372,1.10643c0.41712,1.0262 0.80688,2.06379 1.21931,3.09242c0.08009,0.19974 0.32398,0.46251 -0.03233,0.66385c-0.08542,-0.09514 -0.22427,-0.17858 -0.2481,-0.28722c-0.2757,-1.25686 -1.33585,-1.81252 -2.22728,-2.51955c-0.18941,-0.00348 -0.32337,-0.14016 -0.48786,-0.20381c-0.18732,-0.05332 -0.32796,0.1363 -0.51197,0.09828c-0.17349,-0.03336 -0.27562,-0.16094 -0.40933,-0.29449c0.15183,-0.16911 0.29406,-0.3275 0.43628,-0.48589c0.01716,-0.29589 0.26265,-0.40972 0.45185,-0.56884c0.20893,-0.13317 0.37011,-0.32659 0.57742,-0.46221c0.25876,-0.16561 0.42914,-0.43476 0.69443,-0.59287c0.03451,-0.0188 0.07512,-0.02293 0.1127,-0.01147c0.03758,0.01147 0.06898,0.03755 0.08713,0.0724z" fill="#fbb804"/><path d="M233.99529,171.55102l0.03291,0.12673c0.07642,0.19379 -0.16677,0.28037 -0.14468,0.52905c0.78032,1.32763 1.56995,2.72985 2.41191,4.07581c0.26391,-0.03256 0.25275,-0.19712 0.27239,-0.34114c0.0091,-0.24705 -0.01006,-0.49428 0.01717,-0.74046c0.00573,-0.0556 0.01639,-0.11057 0.03182,-0.1643c0.08945,-0.26012 0.11223,-0.55531 0.37491,-0.72642c0.04895,-0.02845 0.10572,-0.04043 0.16199,-0.0342c0.16573,0.05135 0.30208,0.17028 0.37545,0.32751c-0.00118,0.06193 -0.02283,0.12173 -0.06156,0.17007c-0.2551,0.24066 -0.24996,0.5574 -0.2567,0.87171c-0.01616,0.75337 0.03227,1.50794 -0.04109,2.26069c-0.01893,0.06003 -0.05269,0.1143 -0.09814,0.15783c-0.27337,-0.11891 -0.41076,-0.36087 -0.55397,-0.60133c-0.46443,-0.77986 -0.93122,-1.55832 -1.40033,-2.33538c-0.53882,-0.43598 -0.71803,-1.11416 -1.11254,-1.64715c-0.08591,-0.13837 -0.15882,-0.28477 -0.25284,-0.42434c-0.083,0.6778 0.09056,1.36385 -0.10251,2.03134c-0.01895,0.01795 -0.03824,0.03561 -0.0575,0.05329c-0.29321,-0.04495 -0.37584,-0.23438 -0.36733,-0.50579c0.00619,-0.1978 -0.01646,-0.3965 -0.02624,-0.5948c-0.1826,-0.30989 -0.10963,-0.65211 -0.10207,-0.97843c0.00905,-0.38948 -0.07355,-0.7712 -0.05995,-1.15868c0.10832,-0.28442 0.34935,-0.41996 0.60673,-0.53735c0.16395,-0.02704 0.2987,0.00266 0.3522,0.18575z" fill="#f2a908"/><path d="M224.76084,182.49788c-0.27951,-0.15633 -0.57966,-0.27245 -0.89161,-0.34496c-0.21762,-0.24572 -0.61533,-0.23309 -0.78527,-0.54709c0.53288,-0.28242 0.30597,-0.72001 0.23033,-1.12678c1.08317,0.5007 2.15515,1.03146 3.3455,1.2443c0.17213,0.36146 0.03439,0.70449 -0.07973,1.04067c-0.05082,0.14969 -0.15299,0.30436 -0.36422,0.17679c-0.485,-0.14763 -0.97001,-0.29527 -1.45501,-0.44293z" fill="#5800ac"/><path d="M226.21585,182.9408c0.31158,-0.07287 0.27352,-0.35296 0.32796,-0.57025c0.05314,-0.21218 0.07847,-0.4313 0.116,-0.6473c0.76989,0.19779 1.55584,0.22765 2.34495,0.22421c-0.39996,0.30042 0.044,0.7351 -0.21077,1.04614c0.13094,0.11027 0.22856,0.19248 0.32622,0.27468c-0.63657,0.07763 -1.26496,-0.06241 -1.89832,-0.07159c-0.33659,-0.06328 -0.67315,-0.12673 -1.00967,-0.19037c0.00145,-0.02208 0.00267,-0.0438 0.00363,-0.06552z" fill="#430194"/><path d="M227.12511,169.9053c0.07254,-0.50695 -0.23361,-0.90612 -0.39673,-1.34176c-0.38916,-1.03928 -0.80724,-2.06774 -1.19445,-3.05186c0.04055,-0.27148 0.21569,-0.35721 0.36053,-0.46891c0.25127,0.56826 0.50258,1.13663 0.7539,1.70509c0.07142,0.04286 0.1564,0.06645 0.2047,0.14261c0.28959,0.77227 0.72513,1.49466 0.80688,2.33886c-0.19667,0.21718 -0.01456,0.41868 0.02596,0.62606c-0.1857,0.03002 -0.35083,0.29169 -0.56077,0.0499z" fill="#a47002"/><path d="M232.45902,174.22554c-0.07698,-0.00902 -0.16035,-0.00505 -0.19672,-0.09665c-0.13745,-0.93792 -0.06063,-1.88035 -0.04648,-2.82048c0.00485,-0.32329 0.17293,-0.56465 0.5474,-0.57086c0.27173,0.21634 0.23632,0.54157 0.29633,0.83343c-0.07727,0.55364 0.04875,1.10365 0.02912,1.6582c-0.01673,0.47323 -0.15983,0.82778 -0.62962,0.99635z" fill="#bb7201"/><path d="M232.80589,170.7703c-0.13926,0.08573 -0.27849,0.17147 -0.44238,0.27236c0,0.84419 0.00419,1.67431 -0.00309,2.50434c-0.0017,0.19604 0.0645,0.4103 -0.09826,0.58179c-0.40197,-0.21205 -0.16812,-0.61149 -0.2689,-0.91237c-0.11222,-0.24156 -0.15749,-0.50885 -0.13109,-0.7739c0.01852,-0.38529 -0.00005,-0.77079 -0.00176,-1.15596c0.02011,-0.20875 -0.00088,-0.42667 0.12465,-0.61409c0.21843,-0.17406 0.4385,-0.34579 0.74678,-0.22597c0.04656,0.02613 0.08644,0.06268 0.1165,0.1068c0.03226,0.07413 0.01536,0.1605 -0.04249,0.21699z" fill="#fbb306"/><path d="M234.12282,173.43736c0.33151,0.56326 0.66303,1.12654 0.99456,1.68982c-0.50785,0.0732 -1.01486,0.24228 -1.52536,0.01314l-0.01,-0.02922c0.26915,-0.28876 0.29954,-0.64279 0.30777,-1.01593c0.00515,-0.23349 -0.08925,-0.52695 0.23303,-0.65781z" fill="#4e0944"/><path d="M232.45902,174.22555c0.13269,-0.15154 0.2654,-0.30309 0.44186,-0.5046v-2.16356c0.20616,-0.05455 0.27269,0.04031 0.24862,0.23211c0.06324,0.74892 0.11947,1.49799 0.04888,2.25002c-0.18303,0.31428 -0.48171,0.16864 -0.73937,0.18602z" fill="#48033d"/><path d="M224.19609,165.72818c-0.17304,0.16144 -0.3461,0.3229 -0.51918,0.4844c-0.39739,-0.06456 -0.81434,-0.06453 -1.14546,-0.34724c0.35416,0.02351 0.62383,-0.17226 0.90162,-0.34698c0.31377,-0.14597 0.59715,-0.18157 0.76301,0.20983z" fill="#470240"/><path d="M238.08344,176.24439c-0.63567,0.58625 -0.2916,1.23906 -0.12785,1.87945c-0.29552,-0.00756 -0.59848,0.09536 -0.88393,-0.05997c-0.01562,-0.0121 -0.02281,-0.03214 -0.01842,-0.05141c0.04278,-0.03779 0.08185,-0.07957 0.1167,-0.12477c0.23643,-0.24251 0.28537,-0.54146 0.296,-0.86735c0.01189,-0.36426 -0.08295,-0.74172 0.10135,-1.09118c0.29582,-0.09755 0.44878,0.03891 0.51616,0.31521z" fill="#540f44"/><path d="M231.9983,172.43805c-0.00167,0.25948 -0.00334,0.51896 -0.00503,0.77841c-0.3473,-0.16319 -0.76273,-0.1445 -1.07459,-0.40224c0.17911,-0.02649 0.36166,-0.04657 0.44946,-0.24227c0.06184,-0.17292 0.2204,-0.29266 0.40364,-0.30484c0.1068,-0.00497 0.20199,0.06686 0.22649,0.17093z" fill="#45073a"/><path d="M223.64992,166.99301c0.13237,-0.11859 0.26474,-0.23718 0.39904,-0.3575c0.23423,0.10435 0.44017,0.26308 0.60074,0.46299c-0.34845,0.10886 -0.67454,0.00566 -0.99978,-0.10551z" fill="#430b3b"/><path d="M243.18576,185.65864c-0.21502,-0.11484 -0.40432,-0.27239 -0.55631,-0.46297c0.07792,-0.14912 0.1687,-0.28397 0.38129,-0.32511c0.30684,0.19832 0.14986,0.51708 0.17502,0.78807z" fill="#690063"/><path d="M241.72303,181.32009c0.11627,-0.09767 0.23253,-0.19534 0.34881,-0.29299c0.08227,-0.09795 0.17279,-0.18079 0.31377,-0.17195c0.74655,0.17042 1.49225,0.34614 2.26218,0.38196c0.13016,-0.00507 0.25545,0.04989 0.33987,0.14908c-0.07597,0.14849 -0.17207,0.296 -0.00863,0.4691c0.1611,0.13862 0.37609,0.05956 0.57231,0.08848c-1.00818,0.2694 -1.9928,0.06874 -2.97177,-0.16363c-0.33326,-0.07908 -0.65373,-0.21203 -0.99664,-0.32586c0.06111,-0.05852 0.10061,-0.09636 0.14012,-0.1342z" fill="#2e0040"/><path d="M244.98764,181.3862c-0.92271,-0.01769 -1.83501,-0.09636 -2.69869,-0.46002c0.04126,-0.3472 0.01197,-0.71324 0.26815,-1.00303c0.38243,0.30241 0.76497,0.6047 1.1476,0.90685c0.10743,0.08449 0.19975,0.22998 0.36826,0.1062c0.31405,0.20692 0.63156,0.05634 0.95328,0.02309c0.30363,-0.03138 0.61646,-0.07352 0.9941,0.0563c-0.24207,0.49827 -0.68475,0.31643 -1.03269,0.37062z" fill="#6c0363"/><path d="M238.85349,186.39285c0.82953,0.52398 1.50343,1.24117 2.31687,1.83669v4.86417c-0.01779,0.00522 -0.04267,0.0208 -0.05236,0.01419c-0.96899,-0.66255 -1.96899,-1.29005 -2.63426,-2.30224c-0.0415,-0.93958 -0.13587,-1.87909 0.13729,-2.80501c0.08915,-0.30215 0.0346,-0.62477 0.04898,-0.93789c0.01081,-0.23551 -0.02517,-0.48718 0.18349,-0.66991z" fill="#e5ffff"/><path d="M238.85349,186.39285c0.03555,1.53294 -0.41307,3.03975 -0.24754,4.5797c-0.06165,0.03892 -0.13955,0.04136 -0.20351,0.00639c-0.28948,-0.16646 -0.38896,-0.44046 -0.39506,-0.74947c-0.02553,-1.29574 -0.01728,-2.59168 -0.00389,-3.88754c0.00191,-0.18388 0.01648,-0.37383 0.18271,-0.50313c0.25616,0.1398 0.48276,0.32795 0.66727,0.55403z" fill="#bbffff"/><path d="M238.18621,185.83882v4.71627c0.11112,0.14268 0.21287,0.27331 0.31459,0.40394c-0.24376,0.25927 -0.50304,0.17355 -0.76472,0.03438l-0.02542,-0.00846c-0.00273,-1.6471 -0.00864,-3.29411 -0.00373,-4.94109c0.00056,-0.18792 -0.09329,-0.41607 0.13954,-0.55186c0.11323,0.1156 0.22647,0.23121 0.33972,0.34682z" fill="#d6f3f3"/><path d="M237.7361,190.9934c0.25494,-0.01129 0.50986,-0.02265 0.76477,-0.03411c0.03385,0.01135 0.06959,0.01591 0.10521,0.01341c0.85471,0.70704 1.70949,1.41412 2.56432,2.12121c-0.01088,0.21503 0.06233,0.43566 -0.05982,0.71369c-1.147,-0.94162 -2.31173,-1.81495 -3.37448,-2.8142z" fill="#d6f3f3"/><path d="M216.40602,173.46309v-5.47857c0.21205,0.03633 0.32419,0.18036 0.44627,0.30981c0.11183,0.25585 0.1641,0.53377 0.15285,0.81277c-0.00438,0.92898 0.00665,1.8581 -0.00488,2.78696c-0.0065,0.52353 0.02328,1.03816 0.18974,1.53853c-0.25186,0.25645 -0.5179,0.14407 -0.78398,0.03049z" fill="#d6f3f3"/><path d="M217.16748,173.43261c-0.10199,-0.13178 -0.20398,-0.26355 -0.31533,-0.40743c0,-1.57049 0,-3.15073 0.00008,-4.73091c0.16866,0.08106 0.31517,0.20175 0.42703,0.35174c-0.0017,1.59753 -0.00342,3.19505 -0.00513,4.79258c-0.01322,0.01661 -0.03367,0.02577 -0.05487,0.02458c-0.0212,-0.00118 -0.04049,-0.01259 -0.05177,-0.03056z" fill="#e5ffff"/><path d="M217.16748,173.43261c0.03502,0.0077 0.07104,0.00977 0.10669,0.00612c0.67839,0.55822 1.35687,1.11651 2.03544,1.67487c-0.00726,0.24446 -0.0146,0.489 -0.02205,0.73358c-0.98588,-0.76415 -1.96726,-1.53395 -2.88165,-2.38428c0.25393,-0.00996 0.5078,-0.02005 0.76157,-0.03028z" fill="#d6f3f3"/><path d="M236.70249,176.02586c0.06518,0.29946 -0.17796,0.36912 -0.41504,0.52745c-0.88796,-1.49865 -1.77104,-2.98908 -2.66156,-4.49206c0.14167,-0.13501 0.272,-0.25924 0.40235,-0.38348c0.02692,0.0016 0.05391,0.00159 0.08084,-0.00003c0.36535,0.24924 0.46785,0.6817 0.71112,1.01599c0.24927,0.40936 0.46575,0.83782 0.72067,1.24396c0.04637,0.08552 0.09106,0.17221 0.14452,0.25392c0.08081,0.12172 0.15949,0.24479 0.24529,0.36342c0.27066,0.4833 0.63326,0.91847 0.77181,1.47082z" fill="#cb8e01"/><path d="M225.6004,164.64963c-0.04842,0.00312 -0.09683,0.00622 -0.14525,0.00934c-0.27965,0.04178 -0.37441,-0.18977 -0.51667,-0.35007c-0.50845,-0.57292 -1.0508,-1.09591 -1.84093,-1.25683c-0.1557,-0.04784 -0.19392,-0.17791 -0.22103,-0.31571c-0.15231,-0.36848 -0.46645,-0.61586 -0.69488,-0.92764c0.22445,-0.16904 0.46817,-0.11408 0.68336,-0.01219c1.27226,0.6024 2.16793,1.57221 2.7354,2.8531z" fill="#807396"/><path d="M233.99529,171.55102c-0.09623,-0.05048 -0.19245,-0.10096 -0.28868,-0.15144c-0.4468,-0.13132 -0.66564,-0.50489 -0.90792,-0.85356l0.01024,0.00885c-0.45337,-0.22625 -0.84695,-0.56828 -1.3514,-0.69587c-0.14745,-0.04868 -0.16707,-0.18824 -0.21779,-0.30581c-0.22308,-0.27757 -0.44618,-0.55515 -0.66929,-0.83275c0.12666,-0.23062 0.33443,-0.2392 0.52518,-0.1369c1.27616,0.68432 2.33841,1.58288 2.89965,2.96749z" fill="#816983"/><path d="M226.7524,166.88926c-0.03461,-0.04711 -0.06927,-0.09422 -0.10395,-0.14135c0.37401,-0.32214 0.74812,-0.64426 1.14688,-0.98759c0.59256,0.42173 0.75781,1.04082 0.93768,1.65117c-0.07859,-0.00037 -0.15702,-0.00072 -0.23527,-0.00102c-0.40002,-0.18006 -0.48552,0.24885 -0.72725,0.37541c-0.44952,-0.17382 -0.72778,-0.54207 -1.01809,-0.89662z" fill="#726185"/><path d="M235.80528,174.55064l-0.21805,-0.32108c0.31409,-0.30434 0.27584,-0.70627 0.31469,-1.09176c0.02132,-0.21151 -0.09548,-0.50328 0.25571,-0.57497c0.37588,0.54555 0.74942,1.09248 0.9962,1.71314c-0.03562,0.02369 -0.07117,0.04728 -0.10664,0.07078c-0.17367,0.01218 -0.2471,-0.06125 -0.23101,-0.30385c-0.01204,0.37085 -0.00874,0.67963 -0.08726,0.97796c-0.00713,0.03958 -0.01427,0.07918 -0.02139,0.11876c-0.36629,-0.09601 -0.51469,-0.52549 -0.90223,-0.58898z" fill="#735f83"/><path d="M236.15764,172.56284c-0.27794,0.34255 -0.07094,0.74926 -0.14684,1.11926c-0.04059,0.19788 -0.05822,0.40047 -0.08742,0.60979c-0.12209,-0.02264 -0.22901,-0.04247 -0.33602,-0.0623c-0.03824,-0.06896 -0.07639,-0.13791 -0.11448,-0.20686c-0.16036,-0.78281 -0.20092,-1.58777 -0.43635,-2.35668c0.54393,0.08634 0.9073,0.39821 1.12113,0.89681z" fill="#d2bbd7"/><path d="M235.0365,171.66603c0.54587,0.71146 0.50783,1.53095 0.4364,2.35665c-0.24817,-0.41195 -0.49631,-0.82391 -0.74441,-1.23591c0.01776,-0.24039 -0.1046,-0.46956 -0.06519,-0.70921c0.03148,-0.19143 -0.04106,-0.44632 0.2614,-0.49913c0.03726,0.02921 0.07453,0.05841 0.11179,0.08761z" fill="#735f81"/><path d="M238.08344,176.24439c-0.11669,-0.16534 -0.30192,-0.22129 -0.47463,-0.29722c-0.09394,-0.03602 -0.16793,-0.11054 -0.20328,-0.20473c-0.07528,-0.35592 -0.14277,-0.71175 0.08033,-1.04502c0.01173,-0.03253 0.02618,-0.06399 0.04322,-0.09408c0.1128,0.57454 0.5652,0.98204 0.74783,1.52196c-0.06451,0.03969 -0.129,0.07939 -0.19347,0.11909z" fill="#90728c"/><path d="M234.92473,171.57842c-0.28593,0.36687 0.02049,0.83 -0.19634,1.20821c-0.25047,-0.34325 -0.45841,-0.71559 -0.61925,-1.10889c0.28751,0.09576 0.52811,-0.19412 0.81558,-0.09932z" fill="#d2bbd7"/><path d="M240.15456,176.53657c-0.21269,-0.13577 -0.42539,-0.27154 -0.63807,-0.40733c-0.03892,-0.23149 -0.01995,-0.46901 0.05526,-0.69139c0.37553,0.31925 0.55094,0.66945 0.58282,1.09872z" fill="#836f8a"/><path d="M228.35881,155.57883l0.79433,0.66447c0.01636,0.05036 0.01744,0.10444 0.00312,0.1554c-0.11959,0.21959 -0.33849,0.33203 -0.52731,0.47322c-0.25297,0.18916 -0.40351,0.41911 -0.38669,0.73525c0.07654,0.15115 0.237,0.08849 0.34203,0.154c0.34655,0.28667 0.67994,0.58148 0.658,1.09036c-0.20708,0.23918 -0.58986,0.23446 -0.78585,0.59921c0.21561,0.55207 0.48112,1.15138 0.32318,1.81631c-0.07484,0.21035 -0.20625,0.34692 -0.44623,0.34091c-0.03099,0.00093 -0.06171,0.00615 -0.09126,0.01552c-0.23444,0.14078 -0.41241,0.01485 -0.5876,-0.12426c-0.26732,-0.16434 -0.53465,-0.32867 -0.82185,-0.50523c-0.15709,0.08666 -0.31383,0.17311 -0.48119,0.26543c-0.11528,-0.10059 -0.22518,-0.19649 -0.33414,-0.29157v-0.52918c-0.0629,-0.16074 -0.21802,-0.26751 -0.35456,-0.38962c-0.52523,-0.46968 -1.02812,-0.96227 -1.42177,-1.54955c-0.30387,-0.45331 -0.23277,-0.88459 0.17155,-1.27296c0.25546,0.20567 0.20847,0.53851 0.33599,0.79788c0.0881,0.17918 0.13642,0.38403 0.30701,0.49929c0.16205,0.051 0.25295,-0.05829 0.35673,-0.12773c0.10053,-0.04916 0.19428,-0.11113 0.27892,-0.18435c-0.24793,-0.47503 -0.63179,-0.81902 -0.97407,-1.19633c0.15883,-0.17959 0.0486,-0.32367 -0.04671,-0.48649c-0.25116,-0.42908 -0.47494,-0.87061 -0.48269,-1.38678c-0.00433,-0.28855 0.02877,-0.55421 0.33846,-0.68587c0.3567,-0.20586 0.64384,-0.00588 0.92738,0.16938c0.28292,0.17488 0.52394,0.41534 0.86234,0.55401c0.26056,-0.06681 0.55101,-0.21505 0.80955,0.05002c0.06247,0.14231 -0.05142,0.2872 -0.00191,0.4248c0.44154,0.3507 0.8216,-0.1181 1.23524,-0.07553z" fill="#ffc338"/><path d="M233.49224,159.75508c0.2721,0.24234 0.54419,0.4847 0.81628,0.72704c0.00636,0.05199 0.00378,0.10467 -0.0076,0.15581c-0.29927,0.43638 -0.90407,0.62347 -1.00086,1.22597c-0.0635,0.09 -0.17344,0.135 -0.28181,0.11537c-0.33286,-0.37057 -0.50911,-0.8561 -0.87723,-1.142c0.0353,0.27106 -0.13872,0.58762 -0.06083,0.9195c0.43568,0.7467 1.10544,1.32208 1.52291,2.08211c0.26194,0.53891 0.60142,1.0625 0.34427,1.70626c-0.11293,0.1677 -0.20808,0.36376 -0.46828,0.3075l-0.05246,-0.0001l-0.05208,0.00613c-0.21743,0.1005 -0.38998,0.00922 -0.55155,-0.12899c-0.26852,-0.16068 -0.53706,-0.32134 -0.79987,-0.47862c-0.21634,-0.01695 -0.30951,0.20724 -0.52217,0.2289c-0.09604,-0.07983 -0.20707,-0.17212 -0.31975,-0.26574c0,-0.19523 0,-0.37642 -0.0002,-0.55811c-0.69415,-0.79206 -1.69354,-1.3385 -1.97744,-2.45909c-0.14189,-0.33721 -0.03183,-0.57381 0.2894,-0.72593c0.25436,0.05497 0.26351,0.28524 0.32346,0.4706c0.11204,0.34257 0.25856,0.67289 0.4373,0.98587c0.12782,-0.25522 0.34171,-0.37891 0.63733,-0.4216c-0.25157,-0.47779 -0.61577,-0.83672 -0.99679,-1.18199c-0.06881,-0.27929 -0.22648,-0.51514 -0.37463,-0.75634c-0.28295,-0.50151 -0.41885,-1.02672 -0.26151,-1.59979c0.07484,-0.1603 0.20939,-0.28499 0.37491,-0.34742c0.7566,-0.11637 1.21711,0.45363 1.82144,0.79294c0.2432,-0.03937 0.55711,-0.20154 0.73835,0.17157c0.06227,0.11316 0.00791,0.25981 0.10408,0.36316c0.44819,0.24131 0.80152,-0.10075 1.19532,-0.19301z" fill="#ffc338"/><path d="M238.61362,170.09854c-0.02893,-0.00178 -0.05798,0.00048 -0.0863,0.0067c-0.23333,0.15263 -0.39415,0.00724 -0.55571,-0.13506c-0.26833,-0.15862 -0.53668,-0.31723 -0.80242,-0.47432c-0.21183,-0.02049 -0.30311,0.21167 -0.52187,0.22321c-0.09304,-0.08039 -0.20199,-0.17453 -0.32046,-0.27692c0.00769,-0.16985 0.01505,-0.33228 0.0236,-0.52093c-0.66617,-0.81463 -1.7107,-1.35151 -1.99099,-2.49065c-0.1776,-0.42903 0.01737,-0.67626 0.40439,-0.82962c0.21904,0.09525 0.16702,0.30479 0.19543,0.47727c0.06113,0.37123 0.1921,0.70424 0.46933,0.96493c0.24605,-0.01818 0.33805,-0.23228 0.53855,-0.33684c-0.20331,-0.49041 -0.62877,-0.81437 -0.88358,-1.25352c-0.1248,-0.20593 -0.25996,-0.4055 -0.37643,-0.61677c-0.27924,-0.47418 -0.45241,-0.9718 -0.33921,-1.53271c0.01184,-0.05551 0.03158,-0.10905 0.05863,-0.15897c0.08934,-0.14352 0.21432,-0.26143 0.36278,-0.34226c0.05171,-0.01719 0.10612,-0.02483 0.16057,-0.02253c0.62228,0.06861 1.08779,0.45161 1.57995,0.80511c0.29878,0.00124 0.6447,-0.10435 0.82091,0.27351c0.06156,0.12671 0.06117,0.28971 0.125,0.32059c0.50212,0.20923 0.81665,-0.08211 1.17066,-0.19047c0.23042,0.27527 0.5994,0.41104 0.76122,0.75538c0.04818,0.20267 -0.08569,0.32206 -0.22441,0.4057c-0.38257,0.2311 -0.65655,0.60588 -0.76069,1.04052c-0.11369,0.06865 -0.20639,0.01288 -0.29817,-0.04924c-0.30291,-0.3223 -0.43548,-0.77373 -0.80333,-1.08415c-0.06794,0.33421 -0.16174,0.63561 -0.10106,0.95495c0.48563,0.78206 1.20187,1.39474 1.62869,2.21998c0.23481,0.47232 0.45898,0.94676 0.30281,1.49805c-0.119,0.21046 -0.24541,0.41112 -0.53794,0.369z" fill="#ffc338"/><path d="M238.61362,170.09854c0.14304,-0.11173 0.28609,-0.22344 0.42912,-0.33515c0.11569,-0.09208 0.14656,-0.25557 0.2802,-0.33254c0.43097,-0.24823 0.58889,-0.67248 0.71922,-1.11454c0.45326,0.53024 0.73032,1.18837 0.79281,1.88313c0.0344,0.32487 -0.0629,0.62425 -0.42175,0.77185c-0.71098,-0.0532 -1.26288,-0.44712 -1.7996,-0.87276z" fill="#676c98"/><path d="M227.10103,155.24384l-0.45059,-0.06419c-0.13683,0.0132 -0.06656,0.25294 -0.21964,0.25057c-0.67297,-0.27493 -1.0996,-0.99097 -1.90465,-0.97402c1.10422,-1.01637 1.10422,-1.01637 2.58627,-0.00397c0.16698,0.08361 0.2699,-0.0792 0.38502,-0.11765c0.17148,0.0436 0.31706,0.15664 0.40175,0.312c-0.14395,0.3621 -0.39066,0.58701 -0.79816,0.59727z" fill="#ffaf03"/><path d="M232.12653,159.59904l-0.26761,-0.17413c-0.2181,-0.04581 -0.12577,0.2681 -0.32474,0.24944c-0.5815,-0.38514 -1.07937,-0.95441 -1.86268,-0.97545c-0.02806,-0.0394 -0.03325,-0.09069 -0.01366,-0.13492c0.06862,-0.104 0.19028,-0.16005 0.31392,-0.14461c0.89593,-0.64976 0.97572,-0.65014 1.87504,-0.01774c0.15037,0.10574 0.30408,0.20676 0.41833,0.28424c0.20872,0.08375 0.29638,-0.12055 0.46298,-0.09738c0.13571,0.07004 0.28265,0.14501 0.35673,0.30722c-0.18489,0.37731 -0.54294,0.64009 -0.95833,0.70336z" fill="#ffaf03"/><path d="M237.25959,163.84118c-0.21698,-0.18961 -0.43754,-0.29564 -0.64219,0.03968c-0.5192,-0.49906 -1.04974,-0.85379 -1.69125,-1.01391c-0.09008,-0.20994 0.08878,-0.18127 0.19374,-0.21817c0.95041,-0.64271 0.99494,-0.64699 1.96349,0.06241c0.25198,0.18456 0.48252,0.33655 0.75664,0.09979c0.1663,0.05838 0.30511,0.17622 0.38971,0.33083c-0.18835,0.37877 -0.55127,0.64039 -0.97015,0.69938z" fill="#ffaf03"/><path d="M238.17367,166.07944c0.07085,0.03647 0.1417,0.07296 0.21255,0.10942c0.15903,0.02961 0.33793,-0.02066 0.4701,0.11686c0.27055,0.35851 0.62239,0.66202 0.75472,1.11406c-0.22054,0.34853 -0.55093,0.57275 -0.89074,0.78631c-0.55252,-0.71354 -1.10506,-1.42708 -1.65758,-2.14062c0.37301,-0.21036 0.74057,0.01412 1.11095,0.01396z" fill="#ffb303"/><path d="M238.72031,168.2061c0.20794,-0.36279 0.53024,-0.59611 0.89074,-0.78625c0.26426,0.24096 0.30542,0.58925 0.43135,0.89655c0.16817,0.82804 -0.45795,1.10818 -0.99943,1.44691c0.11699,-0.56552 -0.14057,-1.05357 -0.32267,-1.55723z" fill="#ffbc03"/><path d="M224.71716,157.0153c0.65052,0.19543 0.81653,0.84077 1.29895,1.332c-0.44666,-0.00731 -0.64693,0.2739 -0.9179,0.4954c-0.45184,-0.47978 -0.59422,-1.03672 -0.68565,-1.61611c0.10155,-0.07044 0.20308,-0.14088 0.3046,-0.21129z" fill="#ffaa00"/><path d="M227.10103,155.24384c0.26609,-0.19894 0.53217,-0.39797 0.79822,-0.59707c0.15312,0.31053 0.30631,0.6212 0.45954,0.93203c-0.14832,0.10356 -0.29667,0.20711 -0.42145,0.2942h-0.9715c-0.16531,-0.28456 0.04732,-0.44044 0.13518,-0.62917z" fill="#ffb81f"/><path d="M237.25959,163.84118c0.32347,-0.23294 0.64691,-0.46599 0.9703,-0.69911c0.13867,0.2817 0.27749,0.5637 0.41644,0.84595c-0.30856,0.52284 -0.80252,0.40478 -1.24966,0.39239c-0.19658,-0.16606 -0.0895,-0.36972 -0.13708,-0.53924z" fill="#ffb71c"/><path d="M235.11989,162.64878c-0.06452,0.07262 -0.12908,0.1453 -0.19367,0.21803c-0.02751,-0.0054 -0.05539,-0.00872 -0.08338,-0.00994c-0.4769,-0.30434 -0.53952,-0.91786 -0.95041,-1.27175c0.14609,-0.32131 0.20237,-0.6762 0.36872,-0.9901c0.01573,-0.03766 0.03151,-0.0753 0.04731,-0.11293c0.39685,0.67501 0.84021,1.33255 0.81144,2.16671z" fill="#666586"/><path d="M239.52364,164.83113c0.40195,0.74258 1.00809,1.43499 0.57335,2.40642c-0.42069,-0.40171 -0.40315,-1.08694 -0.93212,-1.39593c0.03853,-0.36558 0.06231,-0.73639 0.35878,-1.01049z" fill="#676b93"/><path d="M229.97177,158.41936c-0.09658,0.0645 -0.19317,0.12901 -0.28975,0.19351c-0.24523,0.02047 -0.30141,-0.18616 -0.35978,-0.34068c-0.13246,-0.33735 -0.32517,-0.6478 -0.56872,-0.91618c0.09208,-0.34255 0.21346,-0.67656 0.36281,-0.99828c0.01221,-0.03818 0.02447,-0.07633 0.03673,-0.11448c0.37643,0.68652 0.84071,1.33993 0.81871,2.17611z" fill="#676587"/><path d="M232.12653,159.59904c0.31954,-0.23428 0.63903,-0.46864 0.95848,-0.7031c0.13556,0.28604 0.27127,0.57235 0.40712,0.8589c-0.10508,0.14973 -0.21028,0.29923 -0.24909,0.35438c-0.4771,0.05089 -0.79717,0.0658 -1.14083,-0.00131z" fill="#ffbc21"/><path d="M229.68627,160.595c0.05897,0.22493 0.44868,0.35811 0.18659,0.67209c-0.02526,0.1627 -0.13319,0.21242 -0.28206,0.20621c-0.32124,0.1385 -0.32375,0.44737 -0.38722,0.72368c-0.30021,-0.18132 -0.63995,-0.30432 -0.87018,-0.58902c0.11625,-0.10309 0.23254,-0.20617 0.34887,-0.30925c0.26856,-0.3288 0.54735,-0.64299 1.00398,-0.70374z" fill="#656080"/><path d="M234.82975,165.64978c-0.37635,0.1281 -0.41755,0.45788 -0.47026,0.78076c-0.34104,-0.12021 -0.60957,-0.3508 -0.88038,-0.57793c0.11449,-0.09971 0.22898,-0.19943 0.34349,-0.29913c0.3047,-0.28731 0.53879,-0.67335 1.013,-0.72355c0.10348,0.18701 0.31071,0.32426 0.27703,0.57705c-0.0212,0.166 -0.10682,0.25703 -0.28288,0.2428z" fill="#686384"/><path d="M239.52364,164.83113c-0.16033,0.32237 -0.04285,0.74326 -0.35875,1.01048c-0.20311,0.08808 -0.32768,0.22831 -0.30858,0.46405c-0.14224,-0.09672 -0.38867,0.22522 -0.47001,-0.11676c-0.05194,-0.43134 0.12143,-0.73954 0.48453,-0.97585c0.19684,-0.12809 0.42518,-0.23704 0.53681,-0.46943c0.0387,0.02921 0.07737,0.05838 0.11599,0.08751z" fill="#ffbe0d"/><path d="M227.65451,161.49922c0.19581,0.04143 0.39164,0.08285 0.58751,0.12427c-0.0415,0.13485 0.02705,0.30219 -0.14017,0.4253c-0.26892,-0.07837 -0.40557,-0.27217 -0.44734,-0.54956z" fill="#7b7ca8"/><path d="M232.82303,165.72966c0.18381,0.04301 0.36764,0.086 0.55148,0.129c-0.03982,0.1312 0.02598,0.28932 -0.11994,0.4206c-0.25233,-0.09504 -0.37325,-0.29562 -0.43154,-0.54959z" fill="#686384"/><path d="M237.97162,169.97016c0.18514,0.04505 0.37033,0.09008 0.55557,0.13511c-0.03566,0.1339 0.0168,0.29028 -0.11262,0.41966c-0.27184,-0.08587 -0.38497,-0.29713 -0.44295,-0.55478z" fill="#676c98"/><path d="M242.55711,179.92316c-0.01427,0.3544 0.02634,0.72345 -0.26806,1.00308c-0.0725,0.03364 -0.14492,0.06729 -0.21725,0.10095c0.09642,-0.62928 -0.08046,-1.20539 -0.34316,-1.76481c-0.00124,-0.23383 0.0666,-0.41529 0.33655,-0.44356c0.28082,0.31611 0.34134,0.73028 0.49192,1.10434z" fill="#7b6505"/><path d="M242.06519,178.81881c-0.11212,0.14786 -0.22427,0.2957 -0.33644,0.44357c-0.17836,-0.28852 -0.3566,-0.57701 -0.50802,-0.82208c-0.00043,-0.28091 0.34042,-0.29234 0.29346,-0.53971c0.33171,0.2172 0.38571,0.60106 0.55101,0.91822z" fill="#c59308"/><path d="M252.25814,189.63939c0.00538,-0.31373 0.0843,-0.6218 0.23039,-0.89949c0.11408,-0.08957 0.22815,-0.17908 0.3422,-0.26851c0.16164,0.03304 0.31871,0.06514 0.47727,0.09755c0.16596,0.49859 -0.3182,0.2301 -0.42445,0.37104c-0.25004,0.21165 -0.174,0.69211 -0.62541,0.69943z" fill="#301061"/><path d="M262.97552,181.37997c-0.02296,0.24379 0.07928,0.52934 -0.22652,0.67895c0.0368,-0.23915 -0.10559,-0.53812 0.22652,-0.67895z" fill="#554604"/><path d="M249.87233,168.82794c-0.17387,0.20624 -0.32696,0.37956 -0.59693,0.5053c-0.01065,-0.31688 0.10115,-0.5339 0.2215,-0.74372c0.20082,-0.05226 0.26809,0.08698 0.37544,0.23841z" fill="#361956"/><path d="M258.10199,162.79714c-0.04258,-0.9588 0.88663,-2.06377 1.87339,-2.27411c0.18986,0.80828 -0.74154,1.95663 -1.87339,2.27411z" fill="#2c0376"/><path d="M226.7524,166.88926c0.38968,0.22831 0.70526,0.54316 1.01324,0.86687c0.05,0.02297 0.08327,0.07162 0.08656,0.12654c-0.17338,0.40387 0.08648,0.70625 0.25333,1.05698c-0.14618,0.09504 -0.29583,0.19233 -0.44554,0.28965c-0.30258,-0.77999 -0.60511,-1.56001 -0.9076,-2.34006z" fill="#41083c"/><path d="M228.65571,169.51964c0.66266,0.64944 1.3247,1.2995 1.98611,1.9502c0.05948,0.05882 0.09265,0.14422 0.21448,0.34033c-0.90367,-0.47922 -1.48463,-1.11431 -2.06682,-1.74792c-0.31989,-0.328 -0.31989,-0.328 -0.13377,-0.54259z" fill="#68194c"/><path d="M228.79122,168.34993c0.77667,0.42046 1.42403,0.97808 1.80343,1.82574c-0.55241,-0.50615 -1.10482,-1.0123 -1.65724,-1.51847c-0.112,-0.07235 -0.27498,-0.12047 -0.1462,-0.30728z" fill="#c99d9d"/><path d="M231.77739,172.32086c-0.13642,0.0837 -0.27283,0.16739 -0.40924,0.25109c0.01133,-0.29759 -0.11557,-0.5587 -0.23661,-0.84371c0.11966,-0.16966 0.2417,-0.34268 0.36375,-0.51572c0.44442,0.25781 0.52402,0.57056 0.28211,1.10835z" fill="#be7406"/><path d="M231.23975,169.55319c0.06079,0.06821 0.12156,0.13641 0.18234,0.20462c0.18157,0.12042 0.34821,0.25085 0.337,0.50081c-0.05386,0.21939 -0.23395,0.31788 -0.40681,0.4236c-0.06644,0.02882 -0.13484,0.05288 -0.2047,0.07197c-0.32879,-0.07165 -0.02858,-0.2409 -0.05868,-0.35574c-0.04726,-0.14503 -0.10345,-0.28701 -0.16824,-0.4251c0.1038,-0.13669 0.21143,-0.27843 0.31906,-0.42017z" fill="#d4930d"/><path d="M231.1476,170.75421c0.02985,-0.03045 0.05968,-0.06091 0.08953,-0.09136c0.40182,-0.02392 0.60655,0.23061 0.76946,0.54417c-0.00276,0.41038 -0.00553,0.82076 -0.0083,1.2311c-0.07358,-0.0391 -0.14719,-0.07816 -0.22083,-0.1172c0.09015,-0.41652 0.02256,-0.79283 -0.28235,-1.10856c-0.11573,-0.1526 -0.23158,-0.30533 -0.34753,-0.45816z" fill="#6f0068"/><path d="M228.65571,169.51964c-0.22042,0.24645 0.16334,0.34391 0.13394,0.54291c-0.20539,-0.09711 -0.37761,0.04324 -0.54035,0.09683c-0.16932,-0.11845 -0.28217,-0.30158 -0.31184,-0.50608c0.23229,-0.1191 0.36195,-0.61169 0.71825,-0.13366z" fill="#a96e08"/><path d="M227.8522,167.88267c-0.0288,-0.04213 -0.05764,-0.08429 -0.08649,-0.12646c0.00862,-0.34535 0.32511,-0.44066 0.47833,-0.6486c0.18415,0.0548 0.19709,0.19478 0.25348,0.30293c-0.21497,0.15735 -0.43007,0.31473 -0.64533,0.47215z" fill="#cfb4c8"/><path d="M228.79122,168.34993c0.0485,0.10241 0.09711,0.20483 0.14584,0.30725c-0.19552,0.0094 -0.39136,0.01879 -0.58753,0.02815c-0.15502,-0.12482 -0.15646,-0.26852 -0.0689,-0.4282c0.19858,-0.10396 0.34262,0.06066 0.51059,0.09279z" fill="#b77803"/><path d="M241.10616,178.79299c0.38257,0.47366 0.60503,0.99783 0.5311,1.68957c-0.59993,-0.15471 -1.0476,-0.47295 -1.44097,-0.88553c-0.06096,-0.20422 -0.21292,-0.39828 0.00466,-0.71412c0.21045,-0.19846 0.53019,-0.2955 0.90521,-0.08992z" fill="#730264"/><path d="M239.17,178.57674c-0.14766,0.06352 -0.29533,0.12703 -0.45952,0.19765c-0.49427,-0.51475 -0.63027,-1.12523 -0.51378,-1.79765c0.12657,-0.1701 0.32858,-0.26721 0.54048,-0.25977c0.02641,0.03997 0.03908,0.08746 0.03606,0.13528c-0.03061,0.2101 -0.04183,0.4187 0.05315,0.61845c0.07913,0.17999 0.13714,0.3681 0.22276,0.54526c0.05684,0.18328 0.28092,0.33132 0.12083,0.56077z" fill="#a77204"/><path d="M241.10616,178.79299c-0.30874,0.03099 -0.63076,0.01102 -0.84707,0.18626c-0.18521,0.23143 0.12645,0.43324 -0.06289,0.61769c-0.26406,-0.19571 -0.49532,-0.43215 -0.68513,-0.70048c-0.10413,-0.43409 0.23002,-0.56101 0.51351,-0.70141c0.35775,-0.17717 0.62599,0.001 0.85496,0.26956c0.11087,0.08032 0.19086,0.19623 0.22663,0.3284z" fill="#3b043d"/><path d="M240.87952,178.4646c-0.64301,-0.35794 -1.01918,-0.23915 -1.36839,0.43199c-0.11375,-0.1066 -0.22746,-0.21315 -0.34112,-0.31968c-0.0759,-0.18291 -0.15177,-0.3657 -0.22762,-0.54837c0.13464,-0.15276 0.33207,-0.13839 0.50473,-0.1909c0.15874,-0.04828 0.32688,-0.0193 0.49766,-0.06143c0.05949,0.0166 -0.03119,-0.07945 -0.01616,-0.00652c0.03606,0.17511 -0.33177,-0.13552 -0.49615,-0.41883c0.00362,-0.09179 0.02123,-0.17482 0.12691,-0.20237c0.20365,0.16631 0.4073,0.33261 0.61095,0.49892c0.13817,0.18248 0.24773,0.39328 0.47913,0.48345c0.07669,0.11125 0.15337,0.2225 0.23005,0.33376z" fill="#711565"/><path d="M239.55941,177.14848c-0.01688,0.0628 -0.03375,0.12558 -0.05063,0.18838c-0.01938,0.04774 -0.07088,0.07401 -0.1209,0.06167c-0.2415,-0.17551 -0.55158,-0.27789 -0.65064,-0.60632c0.00118,-0.02515 0.0012,-0.05028 0.00004,-0.07535c0.32063,0.05519 0.61168,0.16669 0.82214,0.43162z" fill="#cba6b5"/><path d="M240.64947,178.13085c-0.32835,0.00612 -0.50661,-0.13648 -0.47905,-0.48324c0.24911,0.07235 0.35954,0.28229 0.47905,0.48324z" fill="#c39fae"/><path d="M224.19609,165.72818c-0.22431,-0.15209 -0.49258,-0.22583 -0.76311,-0.20976c0.17402,-0.22669 0.02971,-0.36869 -0.16656,-0.53338c-0.64845,0.10369 -1.17772,-0.18968 -1.63631,-0.65541c-0.06618,-0.18812 -0.21702,-0.34812 -0.19068,-0.59382c0.17567,-0.38096 0.51508,-0.38988 0.87955,-0.33857c0.12234,0.18656 0.24465,0.37313 0.367,0.55969c0.19271,0.15322 0.34958,-0.13171 0.53747,-0.04471c0.55305,0.39844 1.1843,0.70983 1.51575,1.35577c-0.18103,0.15339 -0.36208,0.30678 -0.54311,0.46018z" fill="#770267"/><path d="M220.26223,161.46627c0.12035,0.05703 0.24069,0.11404 0.36103,0.17107c0.24189,0.28622 0.5466,0.50174 0.83374,0.73665c0.15891,0.13001 0.3301,0.24726 0.3471,0.47876c-0.25234,0.32413 -0.62522,0.47395 -0.96755,0.66798c-0.15417,0.00158 -0.21403,-0.09863 -0.24663,-0.22827c-0.5478,-0.47062 -0.80595,-1.13245 -0.68201,-1.74858c0.09671,-0.12322 0.22586,-0.09889 0.35434,-0.07758z" fill="#740368"/><path d="M220.26223,161.46627c-0.39043,0.01701 -0.31483,0.28153 -0.26874,0.51912c0.09363,0.48269 0.38431,0.87759 0.59651,1.30721c-0.193,-0.0362 -0.33848,0.10398 -0.48901,0.17523c-0.39062,-0.45207 -0.62786,-0.91792 -0.5984,-1.4892c0.02646,-0.51301 0.20846,-0.63568 0.75965,-0.51235z" fill="#b47806"/><path d="M220.83654,163.5207c0.18486,-0.38613 0.59776,-0.47106 0.91031,-0.68854c0.03405,-0.02923 0.0787,-0.04307 0.12333,-0.0382c0.04463,0.00487 0.08523,0.02802 0.11217,0.06392c0.11218,0.1797 0.22437,0.35946 0.33658,0.53924c-0.19817,0.21982 -0.5615,0.02442 -0.76996,0.35014c-0.07061,0.16607 0.14501,0.36298 0.08109,0.58227c-0.31314,-0.21717 -0.58238,-0.4916 -0.79351,-0.80883z" fill="#3b023f"/><path d="M223.19196,163.95974c-0.16941,0.09237 -0.33905,0.2245 -0.50623,-0.00297c0.36293,-0.32198 -0.14355,-0.51036 -0.07528,-0.88209c0.04419,-0.05628 0.15499,-0.19743 0.26593,-0.33844c0.06323,0.06806 0.12638,0.13601 0.18944,0.20387c0.53586,0.51184 0.55717,0.68395 0.12614,1.01965z" fill="#bd840a"/><path d="M221.98234,162.8579c-0.0785,-0.00857 -0.15701,-0.01715 -0.2355,-0.02572c-0.27271,-0.23832 -0.54019,-0.483 -0.82014,-0.71247c-0.15893,-0.13026 -0.31596,-0.2498 -0.30349,-0.48242c0.60655,0.23617 1.03562,0.66969 1.35914,1.22061z" fill="#cfadbf"/><path d="M223.19196,163.95974c0.07528,-0.09604 0.15056,-0.1921 0.22879,-0.29192c-0.12299,-0.25215 -0.23892,-0.48979 -0.35488,-0.72758c0.91978,0.06722 1.44337,0.73516 2.00878,1.33375c0.12414,0.13142 0.19175,0.31667 0.38043,0.38488c-0.19401,0.25032 -0.43776,0.45774 -0.7159,0.60918c-0.51574,-0.43613 -1.03148,-0.87225 -1.54722,-1.30831z" fill="#d3bedf"/><path d="M224.76127,165.96723c0.13972,-0.11786 0.27945,-0.23573 0.45076,-0.38023c0.29112,0.36112 0.35016,0.78861 0.58285,1.25072c-0.25781,-0.14555 -0.42309,-0.23885 -0.58836,-0.33217c-0.2234,-0.11749 -0.49097,-0.19846 -0.44525,-0.53833z" fill="#700f5c"/><path d="M224.76127,165.96723c0.06801,0.24605 0.34196,0.32188 0.44542,0.53842c-0.27972,0.05472 -0.53915,-0.02942 -0.8251,-0.11793c0.0586,-0.20998 0.21085,-0.32214 0.37968,-0.42049z" fill="#b3690a"/><path d="M237.48584,174.69742c0.01071,0.37334 0.02143,0.74669 0.03212,1.12004c0.14023,0.77527 -0.15618,1.47731 -0.36819,2.19352l-0.04814,0.01511l-0.0485,-0.01357c0.00212,-0.90724 0.00691,-1.81445 0.00465,-2.72163c-0.00076,-0.30741 0.06544,-0.55393 0.42804,-0.59346z" fill="#be7a00"/><path d="M234.12282,173.43736c-0.17313,0.44268 -0.0086,0.91298 -0.11414,1.37311c-0.09263,0.15669 -0.248,0.26616 -0.42672,0.30065c0.00005,-0.80935 0.00006,-1.61868 0.00005,-2.42798l0.0938,-0.03411c0.14901,0.26277 0.29802,0.52554 0.44702,0.78831z" fill="#935d02"/><path d="M235.80528,174.55064c0.52754,-0.15097 0.63457,0.34187 0.90223,0.58886c-0.00163,0.29545 -0.00329,0.59085 -0.00496,0.88623c-0.3628,-0.45292 -0.61135,-0.97535 -0.89727,-1.47508z" fill="#631251"/><path d="M232.79869,170.54603c0.36184,0.22166 0.59002,0.58526 0.90783,0.85368c-0.16482,0.15947 -0.33118,0.31699 -0.55699,0.38972c-0.03685,-0.12646 -0.10445,-0.2201 -0.24851,-0.23213c-0.0318,-0.26227 -0.0635,-0.52461 -0.09512,-0.78699c-0.00239,-0.07476 -0.0048,-0.14952 -0.00721,-0.22428z" fill="#d4b6c8"/><path d="M236.72891,175.02087v-0.88885c0.17788,-0.04696 0.16903,0.21088 0.31832,0.21471c-0.18431,0.18786 -0.24317,0.43485 -0.31832,0.67415z" fill="#d2b3c4"/><path d="M231.69341,170.2943c-0.09033,-0.17877 -0.18072,-0.35757 -0.27115,-0.53641c0.60101,0.02416 0.98873,0.41942 1.38666,0.79698c-0.27125,-0.17927 -0.47199,0.06407 -0.70443,0.11743c-0.15877,-0.10238 -0.34483,-0.17513 -0.41106,-0.37802z" fill="#d4b6c8"/><path d="M231.69341,170.2943c0.18924,0.05363 0.34183,0.19382 0.41129,0.37785c-0.03284,0.1785 -0.06553,0.35684 -0.09809,0.53501c-0.25646,-0.18157 -0.51293,-0.36302 -0.76941,-0.54436c0.15202,-0.12281 0.30408,-0.24566 0.45621,-0.3685z" fill="#7f6485"/><path d="M237.14977,178.01097v-0.95725c0.11821,-0.16228 0.21353,-0.29317 0.32804,-0.45041c0.0124,-0.24453 0.02613,-0.51551 0.03999,-0.78616c0.03045,0.04339 0.06074,0.08648 0.09103,0.12979c-0.00004,0.55144 -0.00004,1.10267 -0.00004,1.60358c-0.09494,0.20211 -0.25723,0.36489 -0.45902,0.46047z" fill="#8c5211"/><path d="M229.68627,160.595c-0.32257,0.25176 -0.62599,0.53083 -1.00402,0.70361c0.04311,-0.68779 -0.04499,-1.34671 -0.50061,-1.87525c0.32234,-0.38216 0.67553,-0.51767 1.04984,-0.61564c0.09483,-0.00835 0.15006,0.01965 0.11773,0.12806c-0.08159,0.57536 0.03743,1.16127 0.33707,1.65921z" fill="#ffab03"/><path d="M226.917,156.39069c0.60308,0.49068 0.78415,0.75783 0.88548,1.28c-0.33624,0.09897 -0.64881,0.00914 -0.97958,-0.11851c-0.11344,-0.37803 -0.03453,-0.74738 0.0941,-1.16149z" fill="#ffae00"/><path d="M229.34922,158.93579c-0.03919,-0.04259 -0.07842,-0.08524 -0.11766,-0.12793c-0.15586,-0.37467 -0.44271,-0.65689 -0.68456,-0.97082c-0.10005,-0.24926 -0.12151,-0.45713 0.2433,-0.4616c0.37264,0.03458 0.42398,0.35615 0.55289,0.61217c0.10652,0.21158 0.22547,0.41691 0.33888,0.62514c-0.00792,0.02803 -0.01151,0.0571 -0.01061,0.08622c-0.10737,0.07888 -0.21478,0.15783 -0.32223,0.23681z" fill="#c7b8d7"/><path d="M228.79029,157.37545c-0.16833,0.08907 -0.26491,0.27216 -0.24335,0.46138c-0.15793,0.01154 -0.31593,0.02285 -0.47073,0.03394c-0.10798,-0.82608 0.49243,-1.15121 1.04014,-1.51297c0.0132,0.37819 -0.00873,0.74519 -0.32605,1.01766z" fill="#ffa90a"/><path d="M226.25011,156.60354c-0.67528,-0.33029 -0.84904,-0.62516 -0.68069,-1.09754c0.36294,-0.0635 0.59339,0.18073 0.88302,0.35096c-0.0701,0.25866 -0.13005,0.47982 -0.20233,0.74657z" fill="#ffaa00"/><path d="M226.58068,159.12616c0.38484,0.3381 0.60937,0.65605 0.74588,1.06354c-0.24169,0.20003 -0.50341,0.20116 -0.80517,0.16142c0.01893,-0.39119 0.03699,-0.76431 0.05929,-1.22496z" fill="#ff9d00"/><path d="M233.02249,161.94698c0.07528,-0.03763 0.15057,-0.07525 0.22584,-0.11288c0.0678,0.06024 0.11063,0.14363 0.1201,0.23381c0.08175,-0.09453 0.21593,-0.124 0.32978,-0.07245c0.37699,0.31585 0.75963,0.62808 0.79686,1.17417l-0.03317,0.02409c-0.33741,0.20427 -0.57307,0.56183 -0.98529,0.65339c-0.51848,-0.67425 -1.03695,-1.3485 -1.55542,-2.02274c0.39469,-0.20668 0.74921,-0.05287 1.10131,0.12261z" fill="#ffaf03"/><path d="M233.4766,163.84711c0.31867,-0.23269 0.51693,-0.64676 0.98541,-0.65349c-0.04058,0.57047 0.08943,1.14011 0.37348,1.63649c-0.31855,0.26745 -0.61943,0.56 -1.01291,0.72314c0.24092,-0.64073 -0.12,-1.15977 -0.34598,-1.70614z" fill="#ffab03"/><path d="M229.59082,161.4733c0.09415,-0.06872 0.18826,-0.13745 0.28229,-0.2062c0.64313,0.2045 0.84197,0.81539 1.2614,1.29424c-0.38191,0.10467 -0.74506,0.12515 -0.83611,0.58594c-0.4496,-0.50362 -0.63506,-1.06431 -0.70758,-1.67398z" fill="#ffaa00"/><path d="M233.02249,161.94698c-0.37755,0.05267 -0.73176,-0.10431 -1.10137,-0.12253c-0.05544,-0.41224 0.11367,-0.80176 0.11009,-1.27131c0.4582,0.41884 0.86119,0.80594 0.99128,1.39383z" fill="#ffb300"/><path d="M233.69305,162.06931c-0.12622,0.00693 -0.25245,0.01384 -0.41429,0.02272c-0.00992,-0.08437 -0.02013,-0.17112 -0.03037,-0.25791c-0.02502,-0.70908 0.61969,-0.87121 1.01274,-1.23899c0.02918,0.3857 0.01527,0.75791 -0.32504,1.02692c0.03547,0.21231 -0.07825,0.34364 -0.24303,0.44726z" fill="#ffa808"/><path d="M231.32267,160.85898c-0.41873,-0.22862 -0.6746,-0.51405 -0.71971,-0.98098c0.41575,-0.40098 0.63658,0.08946 0.94594,0.15693c0.02845,0.31827 0.10267,0.59524 -0.22625,0.82405z" fill="#ffa600"/><path d="M232.47457,164.45785c-0.25498,0.08108 -0.47808,0.15576 -0.74127,0.12633c-0.09072,-0.38248 -0.04058,-0.75222 0.00042,-1.2285c0.37855,0.36549 0.64189,0.6664 0.74086,1.10216z" fill="#ff9d00"/><path d="M234.82975,165.64978c0.0945,-0.08095 0.18888,-0.16189 0.28318,-0.24283c0.46933,0.37186 0.76797,0.87889 1.17536,1.4152c-0.39564,0.00835 -0.57679,0.2145 -0.71536,0.56431c-0.58145,-0.49695 -0.83263,-1.04028 -0.74319,-1.73667z" fill="#ffaa00"/><path d="M238.17367,166.07944c-0.37406,0.2939 -0.74018,-0.055 -1.11102,-0.01385c0.03712,-0.40047 0.07414,-0.80083 0.11643,-1.25809c0.53757,0.29949 0.73697,0.80938 0.9946,1.27195z" fill="#ffb700"/><path d="M233.69305,162.06931c-0.00494,-0.18185 0.08775,-0.35245 0.24301,-0.44726c0.39032,0.01017 0.42333,0.36053 0.56645,0.60155c0.12223,0.20584 0.22748,0.42176 0.3403,0.63325c-0.11589,0.10427 -0.23182,0.20853 -0.34775,0.31278c-0.26732,-0.36676 -0.53465,-0.73353 -0.80199,-1.10031z" fill="#c7b8d7"/><path d="M235.73722,164.09525c0.46408,-0.32074 0.66085,0.11087 0.94111,0.1888c0.05518,0.61533 0.05518,0.61533 -0.24943,0.84986c-0.35259,-0.24874 -0.60537,-0.56426 -0.69169,-1.03865z" fill="#ffaa00"/><path d="M237.67433,168.73398c-0.27946,0.04427 -0.51312,0.08128 -0.77532,0.1228c-0.12551,-0.40253 -0.07924,-0.7689 0.05577,-1.20053c0.3113,0.33164 0.58332,0.61458 0.71954,1.07772z" fill="#ff9d00"/><path d="M239.42453,177.33571c0.02796,-0.00394 0.05636,-0.00354 0.08418,0.00117c0.07217,0.25022 0.40243,0.25534 0.50904,0.56367c-0.37223,0.04434 -0.72374,0.0862 -1.07528,0.12803c-0.12287,-0.16213 -0.19878,-0.35494 -0.21942,-0.55731c0.16379,-0.40728 0.44645,-0.20001 0.70148,-0.13556z" fill="#3d023e"/><path d="M239.42453,177.33571c-0.22725,0.07911 -0.4981,-0.067 -0.70145,0.13559c-0.12697,-0.22911 -0.21759,-0.45742 0.0141,-0.67909c0.22915,0.18116 0.45827,0.36231 0.68736,0.5435z" fill="#711565"/></g></g></svg>