<svg version="1.1" xmlns="http://www.w3.org/2000/svg" xmlns:xlink="http://www.w3.org/1999/xlink" width="61.8493" height="144.3255" viewBox="0,0,61.8493,144.3255"><g transform="translate(-210.94804,-62.93178)"><g data-paper-data="{&quot;isPaintingLayer&quot;:true}" fill-rule="nonzero" stroke="none" stroke-width="1" stroke-linecap="butt" stroke-linejoin="miter" stroke-miterlimit="10" stroke-dasharray="" stroke-dashoffset="0" style="mix-blend-mode: normal"><path d="M272.61947,94.39135c0.28584,0.24955 0.14136,0.57598 0.14143,0.86233c0.0076,29.18019 0.01454,58.36039 0.02081,87.54057c0.00036,0.6714 -0.18487,1.10591 -0.7551,1.53201c-10.14523,7.58105 -20.27884,15.1766 -30.40082,22.78663c-0.48429,-0.07159 -0.4339,-0.46733 -0.47878,-0.77854c-0.04009,-0.42677 -0.04961,-0.85569 -0.0285,-1.28373c-0.0006,-28.36637 -0.00036,-56.73273 0.00073,-85.0991c-0.02234,-0.54946 -0.00544,-1.09976 0.05058,-1.64697c0.25576,-0.90246 1.10245,-1.30268 1.77343,-1.81226c1.65727,-1.25866 3.32865,-2.50088 5.01411,-3.72665c0.26899,-0.19487 0.74629,-0.41236 0.10844,-0.75311c-0.02613,-0.3639 0.27507,-0.39907 0.50759,-0.39468c0.75645,0.0143 1.31153,-0.36447 1.87078,-0.78201c6.65678,-4.96988 13.28452,-9.97583 19.94243,-14.94427c0.71867,-0.53632 1.31064,-1.24664 2.23287,-1.50025z" fill="#5d697a"/><path d="M241.43088,117.8723c0.00343,14.4405 0.0067,28.88099 0.00979,43.32149c0.00113,14.99064 0.0025,29.98128 0.00413,44.97193c0.00016,0.3169 -0.1404,0.67927 0.18098,0.94716c-0.28661,0.3345 -0.4356,0.00074 -0.60106,-0.1305c-6.10369,-4.84096 -12.20529,-9.6844 -18.30478,-14.53033c-3.7356,-2.96408 -7.46684,-5.93348 -11.2272,-8.86809c-0.51551,-0.40233 -0.51413,-0.85417 -0.51406,-1.37574c0.00215,-16.57988 0.00274,-33.15976 0.00176,-49.73963c-0.00003,-12.60315 0.00256,-25.2063 0.00773,-37.80946c0.00025,-0.34578 -0.16535,-0.73803 0.1745,-1.03854c2.61806,1.97218 5.13121,4.06771 7.70027,6.09751c4.4554,3.52017 8.9001,7.05282 13.3341,10.59794c2.87907,2.29136 5.76609,4.57395 8.62976,6.88369c0.23856,0.19242 0.54354,0.33066 0.60407,0.67258z" fill="#c9c1bb"/><path d="M218.22667,87.94186c0.46089,-0.64423 1.18193,-0.99596 1.79786,-1.45951c6.93417,-5.21875 13.87535,-10.42882 20.82354,-15.63018c0.26845,0.21856 0.29798,0.52675 0.2986,0.82702c0.00349,1.68968 0.07751,3.38008 -0.03876,5.06671c-0.10905,0.55509 -0.5326,0.88359 -0.96185,1.20007c-4.20047,3.09697 -8.33453,6.27674 -12.54054,9.36686c-0.74948,0.55064 -0.73615,0.72341 0.00024,1.31399c4.42891,3.55193 8.90366,7.05013 13.33394,10.60022c0.55275,0.44293 0.93032,0.45097 1.4721,0.02785c4.55052,-3.55398 9.25309,-6.92099 13.83182,-10.44101c0.41052,-0.3156 0.58457,-0.78825 0.99292,-1.08198c1.01543,-0.44115 2.11156,-0.19841 3.16525,-0.33652c1.2114,-0.15274 2.43391,-0.20744 3.65475,-0.16353c0.52856,0.45729 1.29082,0.68721 1.50994,1.44557c-2.3465,1.8164 -4.7663,3.54225 -7.11367,5.35744c-3.65499,2.82634 -7.39823,5.54386 -11.08533,8.33052c-1.88542,1.42497 -3.68434,2.97702 -5.74031,4.19104c-1.07666,-0.41904 -1.83159,-1.26703 -2.69583,-1.95321c-2.34165,-1.85926 -4.71856,-3.67666 -7.04112,-5.55912c-4.35328,-3.52842 -8.78972,-6.9601 -13.16669,-10.46122c-0.21888,-0.17508 -0.45341,-0.33912 -0.49684,-0.641z" fill="#777271"/><path d="M241.43086,117.8723c-2.24816,-1.77426 -4.49609,-3.54881 -6.74378,-5.32367c-3.78185,-2.99806 -7.56131,-5.99895 -11.33836,-9.00264c-3.95158,-3.13656 -7.90474,-6.27128 -11.85947,-9.40417c-0.18027,-0.14273 -0.33283,-0.27985 -0.32656,-0.52122c2.28828,-1.71202 4.5766,-3.42404 6.86491,-5.13605c0.56204,0.08815 0.4051,0.53551 0.41874,0.85334c0.04441,1.03511 -0.06392,2.06864 -0.0933,3.10345c-0.02087,0.7348 0.1216,1.34808 0.7618,1.8614c2.47923,1.98795 4.98513,3.94438 7.46846,5.9273c4.62678,3.69444 9.26392,7.37669 13.91142,11.04677c0.35499,0.28015 0.69918,0.51212 1.17254,0.50348c0.12604,0.07354 0.22608,0.18085 0.35743,0.24786c1.35595,-0.03557 2.70612,-0.12119 4.05554,-0.2275c0.67907,-0.0535 1.38016,-0.25664 2.01231,0.18736c0.262,0.05912 0.55675,-0.0864 0.84906,0.14371c-0.81507,0.96312 -1.90308,1.57767 -2.89596,2.30432c-1.54804,1.13294 -3.07747,2.28963 -4.61479,3.43626z" fill="#7e7773"/><path d="M248.09255,111.98802c-1.75322,0.03077 -3.4981,0.1745 -5.24268,0.33582c-0.38974,0.03603 -0.81021,0.15359 -1.18338,-0.10041c0.37353,-0.88839 1.2712,-1.26076 1.9862,-1.77363c3.17615,-2.2783 6.25703,-4.67412 9.37638,-7.02145c3.71813,-2.79791 7.45549,-5.57209 11.17302,-8.37078c0.81939,-0.61686 1.27178,-1.26091 1.17124,-2.30552c-0.06682,-0.97605 -0.06901,-1.95522 -0.00654,-2.93155c0.01184,-0.32215 -0.10996,-0.77487 0.46821,-0.8215c2.26149,1.79745 4.52298,3.59489 6.78447,5.39236c-2.5956,1.98081 -5.18054,3.97475 -7.78909,5.93954c-4.80273,3.61747 -9.63764,7.19546 -14.41077,10.84879c-0.73284,0.56093 -1.5511,0.54846 -2.32706,0.80836z" fill="#253344"/><path d="M265.835,88.99899c-0.39728,0.30784 -0.22008,0.73754 -0.23066,1.11404c-0.02658,0.94735 -0.10547,1.90653 0.01054,2.84086c0.12781,1.02909 -0.35957,1.61994 -1.12997,2.19617c-5.21358,3.89947 -10.40327,7.82867 -15.61085,11.73566c-2.39084,1.79374 -4.80459,3.55902 -7.20775,5.33744c-0.02285,-0.1454 -0.04582,-0.29095 -0.06892,-0.43666c-0.18896,-0.21007 -0.28347,-0.48417 -0.26265,-0.76169c-0.02968,-1.24975 -0.0295,-2.49957 0.00054,-3.7495c-0.02089,-0.27763 0.07518,-0.55164 0.26642,-0.75991c1.28141,-1.11386 2.65086,-2.11793 4.03357,-3.11236c1.83739,-1.32141 3.60854,-2.72837 5.41557,-4.08936c4.60722,-3.47001 9.21524,-6.93902 13.82405,-10.40702c0.19122,-0.1598 0.43905,-0.24194 0.69159,-0.22921c0.08948,0.10717 0.17899,0.21434 0.26852,0.32154z" fill="#576577"/><path d="M241.60167,106.5154c-0.00134,1.75709 -0.00272,3.51416 -0.00415,5.27119c-0.17277,0.33165 -0.33263,0.43234 -0.69965,0.13832c-3.59473,-2.87979 -7.19964,-5.74774 -10.81473,-8.60383c-3.31819,-2.62822 -6.66134,-5.2274 -9.95647,-7.88217c-0.92425,-0.74463 -2.16683,-1.32216 -2.06057,-2.8158c0.0773,-1.08642 0.09592,-2.17712 0.12171,-3.26632c0.00695,-0.29434 0.09474,-0.61678 -0.16018,-0.87223c0.01975,-0.19683 -0.01178,-0.41117 0.19905,-0.54272c5.48471,4.34717 10.96904,8.69475 16.45302,13.04276c2.31343,1.83643 4.62076,3.68001 6.922,5.53079z" fill="#c9c1bb"/><path d="M242.95328,70.49613c3.65057,2.87365 7.3095,5.73747 10.94907,8.62404c2.90563,2.30447 5.78766,4.63665 8.68015,6.95653c-0.10633,0.15598 -0.28517,0.25161 -0.4785,0.25588c-2.28896,0.04747 -4.55392,0.51836 -6.85261,0.36423c-0.54335,-0.13185 -0.92925,-0.51173 -1.33936,-0.83893c-3.38846,-2.70344 -6.74883,-5.43983 -10.20714,-8.06094c-0.42292,-0.32055 -0.85981,-0.63716 -0.98223,-1.19433c-0.07639,-1.75614 -0.0248,-3.51117 -0.02971,-5.26588c-0.00085,-0.30071 -0.00449,-0.61201 0.26032,-0.8406z" fill="#777271"/><path d="M254.94586,86.45843c2.55691,0.08428 5.0828,-0.40925 7.63666,-0.3817c0.49131,0.38502 0.98263,0.77006 1.47399,1.1551c-0.60935,0.27862 -1.26306,0.30767 -1.92144,0.33511c-1.70275,0.07094 -3.40671,0.13326 -5.09518,0.38339c-0.91199,0.40459 -1.90567,0.35941 -2.86256,0.39822c-0.97953,0.03974 -1.94701,0.1631 -2.92166,0.22378c-0.53625,0.03339 -0.93768,0.32302 -1.33859,0.62759c-1.98444,1.50742 -3.99817,2.97889 -5.96778,4.50435c-0.49513,0.38348 -1.01351,0.60321 -1.65393,0.513c-0.43826,-0.06173 -0.69904,-0.26217 -0.65235,-0.72521c0.22783,-0.66384 0.85605,-0.96349 1.37451,-1.33927c1.79381,-1.3002 3.51604,-2.68592 5.4668,-4.13388c-1.72231,-0.07603 -3.23102,0.18196 -4.74544,0.26843c-0.44135,0.0252 -0.88079,0.11496 -1.321,0.03402c-0.24172,-0.04445 -0.53049,-0.08856 -0.42458,-0.45662c0.72172,-0.67164 0.47344,-1.5203 0.47157,-2.32865c-0.01189,-5.12507 -0.00381,-10.25015 -0.00526,-15.37523c-0.00049,-1.73886 -0.00942,-3.47779 0.0063,-5.21656c0.00402,-0.44614 -0.08148,-0.92854 0.32679,-1.28541c0.20382,1.94345 0.02424,3.89256 0.09345,5.83792c0.01186,0.33348 0.04427,0.66628 0.06718,0.99936c0.00094,2.14233 0.00189,4.28467 0.00287,6.42704c0.23005,0.36377 0.33391,0.78892 0.29649,1.21362c-0.06298,1.29079 0.16217,2.59171 -0.14404,3.87178c0.14685,1.14727 0.096,2.30233 0.10296,3.45521c0.0033,0.54665 0.27589,0.74537 0.81971,0.76525c1.04731,0.03827 2.06268,-0.22658 3.31254,-0.21262c-1.03005,-0.95924 -2.0328,-1.67143 -2.98136,-2.44315c-0.47701,-0.38807 -1.05576,-0.68781 -1.29947,-1.29676c0.33137,-0.6835 0.69145,-0.1734 0.95214,0.02439c1.41814,1.0759 2.86035,2.13188 4.17516,3.32071c0.89426,0.80858 1.80705,1.03101 3.01451,0.90123c1.22878,-0.13207 2.48978,-0.43195 3.74108,-0.06443z" fill="#222d3c"/><path d="M242.79267,63.65889c-0.01087,4.12815 -0.0214,8.25631 -0.03158,12.38446c-0.00508,3.15074 -0.00527,6.30149 -0.00058,9.45225c0.00002,0.21413 -0.0643,0.45344 0.01234,0.63812c0.37401,0.90135 0.00175,1.50355 -0.77645,1.96837c-0.8823,0.04655 -1.36632,-0.41716 -1.40673,-1.45892c-0.05504,-1.41937 -0.03074,-2.84076 -0.00751,-4.26152c-0.05681,-1.37623 -0.01066,-2.75272 -0.02498,-4.12887c-0.00635,-0.39922 0.08993,-0.79371 0.28023,-1.14816l0.01066,-6.25245c0.00695,-2.16172 0.05626,-4.3245 -0.0025,-6.48455c-0.02008,-0.7382 0.28222,-1.20943 0.89891,-1.4065c0.49342,-0.15768 0.76929,0.35551 1.04821,0.69777z" fill="#121314"/><path d="M260.28117,129.44525c0,-1.51707 -0.00041,-2.82734 0.00032,-4.13762c0.00016,-0.27412 -0.01852,-0.54978 0.24943,-0.74745c1.22634,-0.9047 2.45506,-1.80659 3.6701,-2.72528c0.4877,-0.36876 0.63389,-0.23222 0.62745,0.31163c-0.01337,1.12827 -0.00859,2.25677 -0.00517,3.38516c0.00086,0.28264 -0.01577,0.55609 -0.26926,0.74463c-1.36769,1.01721 -2.73799,2.03119 -4.27287,3.16894z" fill="#191d64"/><path d="M243.34375,123.79231c0,-1.54776 0.0084,-2.8826 -0.00518,-4.21721c-0.00402,-0.39576 0.24714,-0.61996 0.51795,-0.82644c1.26176,-0.96207 2.53331,-1.91219 3.99726,-3.01402c0,1.6319 0.00402,3.07408 -0.00851,4.51611c-0.02089,0.12137 -0.09001,0.23007 -0.19265,0.30297c-1.38078,1.04549 -2.76808,2.08296 -4.30887,3.2386z" fill="#ebffe8"/><path d="M260.28111,108.58605c-0.45126,-1.60916 0.29992,-2.64494 1.67247,-3.46308c0.80059,-0.47722 1.50866,-1.09924 2.25678,-1.65806c0.35255,-0.26332 0.61733,-0.36316 0.61244,0.24202c-0.00964,1.18955 -0.00568,2.37921 -0.00302,3.56882c0.02201,0.246 -0.08842,0.48566 -0.29237,0.63458c-1.20391,0.88441 -2.40746,1.76963 -3.59484,2.6745c-0.56376,0.42962 -0.67332,0.20183 -0.65536,-0.35173c0.01779,-0.54852 0.00389,-1.09799 0.00389,-1.64705z" fill="#ebffe8"/><path d="M264.81969,115.33799c0,1.46977 -0.00587,2.80501 0.00398,4.14014c-0.00727,0.31117 -0.17465,0.59837 -0.44631,0.76585c-1.289,0.97663 -2.58295,1.94716 -4.06557,3.06314c0,-1.62831 -0.00402,-3.07141 0.00853,-4.51439c0.02021,-0.12159 0.08957,-0.23046 0.19284,-0.30269c1.39837,-1.02139 2.70364,-2.16497 4.30652,-3.15204z" fill="#ebffe8"/><path d="M260.28085,135.56104c0,-1.52995 0.00916,-2.80846 -0.00581,-4.08671c-0.02745,-0.33915 0.12449,-0.66873 0.40387,-0.87596c1.31363,-0.98389 2.62726,-1.9678 4.11815,-3.08447c0,1.60293 0.04653,3.04489 -0.02478,4.4814c-0.02559,0.51589 -0.66201,0.69374 -1.04943,0.98961c-1.07703,0.82252 -2.16956,1.62615 -3.442,2.57613z" fill="#ebffe8"/><path d="M247.87704,122.03587c0,1.39692 0.00034,2.75543 -0.00032,4.11394c0.0015,0.21772 -0.10479,0.42303 -0.28607,0.55249c-1.34812,1.02615 -2.69868,2.04931 -4.23911,3.21803c0,-1.62692 -0.00481,-3.04103 0.00487,-4.45505c0.00156,-0.22847 0.18713,-0.38317 0.36147,-0.51417c1.26629,-0.95156 2.53588,-1.89902 3.80879,-2.84237c0.0637,-0.04717 0.17215,-0.03807 0.35036,-0.07287z" fill="#191d64"/><path d="M243.33741,133.5752c-0.50848,-1.71939 0.40488,-2.7446 1.80795,-3.59079c0.77264,-0.466 1.46792,-1.05267 2.19015,-1.59478c0.40857,-0.30666 0.54669,-0.16809 0.54564,0.27316c-0.00283,1.19102 -0.00262,2.38205 0.00062,3.57308c0.02429,0.24632 -0.08349,0.48752 -0.28573,0.63945c-1.2019,0.88722 -2.39387,1.78701 -3.59875,2.6704c-0.15765,0.11559 -0.33091,0.38046 -0.55675,0.1901c-0.10705,-0.09023 -0.09538,-0.33571 -0.09898,-0.51161c-0.01125,-0.5495 -0.00415,-1.09933 -0.00415,-1.64903z" fill="#191e65"/><path d="M264.81775,151.89464c0,1.62304 -0.00137,2.99179 0.00113,4.36056c-0.012,0.24931 -0.15063,0.47683 -0.37047,0.60805c-1.32175,0.98872 -2.64704,1.97298 -4.14766,3.09006c0,-1.58675 -0.00913,-2.99729 0.01311,-4.40739c0.03357,-0.18039 0.13766,-0.34142 0.29074,-0.44978c1.32761,-1.02239 2.66715,-2.0304 4.21316,-3.2015z" fill="#191d64"/><path d="M260.27929,175.77258c-0.45408,-1.65411 0.32084,-2.70433 1.74566,-3.52509c0.75091,-0.43255 1.3844,-1.05291 2.08405,-1.57196c0.16308,-0.121 0.3584,-0.30823 0.58987,-0.183c0.1908,0.10324 0.11825,0.32744 0.11916,0.501c0.0059,1.12859 -0.00236,2.25726 0.00792,3.3858c0.02095,0.27542 -0.1078,0.54155 -0.34,0.70277c-1.1959,0.894 -2.37673,1.80676 -3.56924,2.70504c-0.13991,0.10539 -0.28701,0.29806 -0.48777,0.20749c-0.25731,-0.11606 -0.13847,-0.37774 -0.14415,-0.57502c-0.0158,-0.54863 -0.00549,-1.09798 -0.00549,-1.64703z" fill="#191d64"/><path d="M247.88264,152.36497c0,1.50069 -0.01126,2.78242 0.00654,4.06378c0.01608,0.37207 -0.16288,0.72694 -0.47612,0.94413c-1.30698,0.99235 -2.61456,1.98393 -4.06824,3.08683c0,-1.55598 0.00152,-2.94568 -0.00131,-4.33536c0.00043,-0.24642 0.13149,-0.47547 0.3473,-0.60698c1.3462,-0.99993 2.68132,-2.01377 4.19183,-3.15239z" fill="#191d64"/><path d="M264.82097,182.54532c0,1.42855 -0.01267,2.68111 0.0073,3.93317c0.03057,0.37046 -0.13651,0.73041 -0.44322,0.95488c-1.19447,0.90053 -2.39011,1.79972 -3.57688,2.70965c-0.44575,0.34174 -0.52742,0.11917 -0.52715,-0.28281c0.00078,-1.19213 0.00048,-2.38425 -0.0009,-3.57638c-0.0296,-0.21632 0.05095,-0.43309 0.21621,-0.58189c1.38496,-1.0418 2.69133,-2.18614 4.32465,-3.1566z" fill="#ebffe8"/><path d="M243.3404,166.55809c0,-1.44039 0.03104,-2.63353 -0.01321,-3.82405c-0.04402,-0.52449 0.20751,-1.0313 0.65846,-1.32671c1.08239,-0.79233 2.14966,-1.60388 3.22887,-2.40029c0.16232,-0.11979 0.29243,-0.38395 0.54989,-0.25037c0.19343,0.10038 0.11336,0.32908 0.11422,0.50286c0.00561,1.13173 0.00161,2.26349 0.00388,3.39523c0.0005,0.24924 0.0027,0.50711 -0.21943,0.67413c-1.38587,1.04211 -2.77786,2.07662 -4.32269,3.2292z" fill="#191d64"/><path d="M260.28286,141.58949c0,-1.53077 0.00378,-2.84235 -0.00287,-4.15387c-0.01771,-0.27986 0.107,-0.5505 0.33415,-0.72513c1.33128,-1.01226 2.66659,-2.01962 4.19281,-3.17412c0,1.62701 0.00919,3.04586 -0.01339,4.46423c-0.03595,0.17961 -0.14225,0.33891 -0.29678,0.44474c-1.33907,1.01234 -2.68971,2.01044 -4.21392,3.14417z" fill="#ebffe8"/><path d="M247.88149,189.01812c0,1.57657 -0.00211,2.91687 0.00179,4.25714c0.0119,0.24947 -0.10225,0.48901 -0.30617,0.64258c-1.34115,1.00799 -2.68734,2.00973 -4.21859,3.15295c0,-1.60859 -0.00936,-3.02084 0.0136,-4.43261c0.03814,-0.17964 0.14592,-0.33842 0.30129,-0.44387c1.33098,-1.01743 2.67322,-2.02115 4.20809,-3.17618z" fill="#191d64"/><path d="M264.82084,164.16087c0,1.46327 -0.00415,2.77118 0.00316,4.07905c0.02308,0.27901 -0.09788,0.55105 -0.32327,0.72704c-1.33746,1.00956 -2.6771,2.01641 -4.20758,3.1684c0,-1.60248 -0.00892,-3.01866 0.01283,-4.43443c0.02904,-0.18059 0.13167,-0.34246 0.28503,-0.44954c1.36884,-0.97685 2.60984,-2.11778 4.22984,-3.09053z" fill="#191d64"/><path d="M260.28718,166.08707c0,-1.60324 0.00072,-2.97034 -0.00067,-4.33745c-0.00119,-0.21824 0.10858,-0.42315 0.29373,-0.5483c1.34976,-1.005 2.70099,-2.0082 4.22436,-3.14022c0,1.56937 0.01039,2.97889 -0.00846,4.38804c-0.00392,0.29287 -0.27626,0.47789 -0.49732,0.64463c-1.26416,0.95348 -2.53754,1.89557 -4.01164,2.9933z" fill="#191d64"/><path d="M243.3452,172.70457c0,-1.61556 0.00531,-2.95021 -0.00394,-4.28476c0.00076,-0.27934 0.14602,-0.53983 0.38712,-0.69419c1.31775,-0.98342 2.64079,-1.96022 4.13439,-3.06698c0,1.58517 0.00606,2.99356 -0.00991,4.40171c-0.01898,0.15221 -0.09893,0.2912 -0.22273,0.38718c-1.34957,1.03757 -2.70926,2.06287 -4.28492,3.25704z" fill="#191e65"/><path d="M243.3444,154.15726c0,-1.44169 0.00083,-2.80336 -0.0007,-4.16503c0.01056,-0.24892 0.14741,-0.47686 0.36588,-0.60938c1.32006,-0.99024 2.64136,-1.97893 4.1374,-3.09927c0,1.58724 0.01309,3.02527 -0.01738,4.46243c-0.0036,0.17018 -0.21642,0.3712 -0.38176,0.49765c-1.21223,0.92694 -2.43569,1.84021 -3.66079,2.7513c-0.14057,0.07044 -0.28911,0.12491 -0.44266,0.16232z" fill="#191d64"/><path d="M260.28229,151.10151c-0.53126,-1.44224 0.42956,-2.43824 1.81284,-3.28354c0.75467,-0.49661 1.48116,-1.03202 2.17633,-1.60392c0.37882,-0.29106 0.55568,-0.23843 0.55537,0.24097c-0.00075,1.19002 -0.00319,2.38005 -0.00032,3.57007c0.02589,0.24665 -0.0785,0.48932 -0.27776,0.64565c-1.22489,0.90819 -2.44809,1.81852 -3.66958,2.73099c-0.39978,0.29904 -0.61259,0.27394 -0.5999,-0.2748c0.01342,-0.57949 0.00302,-1.15948 0.00302,-2.02543z" fill="#191d64"/><path d="M247.87785,134.08793c0,1.61242 -0.00063,2.97829 0.00046,4.34419c0.00025,0.31399 -0.20808,0.49879 -0.43822,0.66908c-1.30308,0.96427 -2.60721,1.92722 -4.0604,3.00102c0,-1.56724 -0.00968,-3.00331 0.01469,-4.43885c0.00249,-0.14675 0.18322,-0.32187 0.32513,-0.43038c1.30921,-1.0012 2.62808,-1.99062 4.15834,-3.14506z" fill="#ebffe8"/><path d="M243.34038,176.09124c-0.41085,-1.3146 0.24454,-2.39658 1.65453,-3.21338c0.80809,-0.46812 1.51807,-1.09531 2.26498,-1.6598c0.35629,-0.26927 0.6214,-0.37683 0.62053,0.22963c-0.00165,1.16248 -0.00143,2.32497 0.00065,3.48747c0.00023,0.28076 -0.13956,0.54445 -0.37556,0.70843c-1.18596,0.9127 -2.37385,1.82307 -3.56368,2.73109c-0.38458,0.29482 -0.61664,0.29834 -0.60429,-0.26615c0.01271,-0.58099 0.00282,-1.16242 0.00282,-2.01728z" fill="#ebffe8"/><path d="M243.33684,200.75149c-0.59318,-1.84724 0.59486,-2.80435 1.95414,-3.70228c0.64811,-0.42814 1.23913,-0.93615 1.86696,-1.39398c0.16602,-0.12108 0.34899,-0.31079 0.58416,-0.20357c0.20674,0.09428 0.13652,0.3199 0.13745,0.49267c0.00591,1.09694 -0.01995,2.19457 0.01234,3.29064c0.01736,0.58959 -0.39448,0.88574 -0.77555,1.18033c-1.03148,0.79727 -2.09546,1.55533 -3.14625,2.32929c-0.14436,0.10632 -0.26308,0.30587 -0.47463,0.22544c-0.22287,-0.08476 -0.15158,-0.31161 -0.15464,-0.48175c-0.01042,-0.57878 -0.00399,-1.15783 -0.00399,-1.73678z" fill="#191d64"/><path d="M247.88062,142.97161c0.49052,1.44562 -0.43285,2.46252 -1.85248,3.30201c-0.74769,0.44217 -1.39137,1.04774 -2.08513,1.57569c-0.13952,0.10619 -0.27012,0.32266 -0.47059,0.19143c-0.0943,-0.06172 -0.12289,-0.26454 -0.12402,-0.40387c-0.00975,-1.1921 0.00387,-2.38445 -0.01278,-3.57642c-0.00547,-0.39058 0.21565,-0.62394 0.49392,-0.83575c1.16497,-0.88676 2.34033,-1.76093 3.49722,-2.65737c0.46835,-0.3629 0.53704,-0.06769 0.5484,0.28584c0.01965,0.61078 0.00546,1.22258 0.00546,2.11843z" fill="#191d64"/><path d="M264.81973,109.31767c0,1.01278 -0.11487,1.9143 0.0264,2.77674c0.22232,1.3571 -0.44289,2.1437 -1.50375,2.84158c-1.0022,0.65929 -1.93851,1.41188 -3.05559,2.23533c0,-1.5497 0.00076,-2.90835 -0.0006,-4.26699c0.01593,-0.28017 0.17194,-0.53536 0.41827,-0.68416c1.21615,-0.92082 2.43672,-1.83618 3.66169,-2.74612c0.14405,-0.06972 0.29636,-0.12222 0.45357,-0.15637z" fill="#191d64"/><path d="M243.34083,190.93794c0,-1.54374 0.00887,-2.91228 -0.00634,-4.28058c-0.00373,-0.336 0.21677,-0.48599 0.43959,-0.65428c1.16994,-0.88357 2.34591,-1.75978 3.50901,-2.65164c0.38717,-0.29688 0.6154,-0.3372 0.60019,0.24228c-0.00161,0.06115 -0.00123,0.12238 0.00056,0.18354c0.11154,3.81861 0.11136,3.81832 -3.08364,6.10405c-0.43057,0.30804 -0.85758,0.62067 -1.45939,1.05661z" fill="#191d64"/><path d="M260.28981,147.73003c0,-1.60779 -0.00813,-2.9984 0.01111,-4.38865c0.01549,-0.18159 0.10453,-0.34995 0.24779,-0.46852c1.35832,-1.03335 2.73104,-2.04907 4.27107,-3.19745c0,1.55172 -0.00086,2.90961 0.00083,4.26751c0.00572,0.21865 -0.09666,0.42689 -0.27574,0.5608c-1.35193,1.03084 -2.709,2.05539 -4.25507,3.2263z" fill="#191d64"/><path d="M260.27975,184.3452c0,-1.46252 0.01955,-2.7163 -0.00979,-3.96903c-0.01753,-0.43387 0.19924,-0.84548 0.57264,-1.08738c1.14767,-0.86113 2.29868,-1.71827 3.43722,-2.59053c0.41136,-0.31516 0.54106,-0.18834 0.54019,0.25882c-0.0023,1.19311 -0.00561,2.38625 0.00346,3.5793c0.01809,0.2792 -0.11124,0.54831 -0.34372,0.71522c-1.34834,0.99346 -2.69697,1.98659 -4.19998,3.0936z" fill="#191d64"/><path d="M243.3422,182.42842c-0.39962,-1.61187 0.21381,-2.72911 1.69861,-3.53878c0.75786,-0.41329 1.38443,-1.04818 2.08396,-1.56576c0.16611,-0.12291 0.40644,-0.27308 0.57807,-0.24061c0.27092,0.05129 0.17432,0.35003 0.17589,0.5487c0.00842,1.06601 -0.01905,2.13277 0.01319,3.19795c0.01632,0.53946 -0.30205,0.8451 -0.67816,1.12876c-1.08992,0.82207 -2.18824,1.63382 -3.28657,2.44543c-0.13876,0.10255 -0.27271,0.32301 -0.47112,0.17224c-0.09257,-0.07034 -0.10635,-0.27 -0.10915,-0.4119c-0.01139,-0.5785 -0.00475,-1.15734 -0.00475,-1.73605z" fill="#191d65"/><path d="M265.97319,131.29874c0,-1.55464 0.00231,-2.89362 -0.00183,-4.23258c-0.02656,-0.27625 0.09745,-0.54598 0.32745,-0.71223c1.30359,-0.94613 2.59721,-1.90504 4.07297,-2.9909c0,1.294 -0.10008,2.43746 0.03328,3.55498c0.09782,0.81976 -0.20711,1.27017 -0.82821,1.70996c-1.16174,0.82262 -2.28831,1.6915 -3.60366,2.67078z" fill="#191d65"/><path d="M254.73054,151.92026c0,-1.53354 0.02372,-2.78703 -0.01171,-4.03895c-0.01411,-0.49911 0.2294,-0.80782 0.58731,-1.07942c1.21186,-0.9196 2.42927,-1.83242 3.81349,-2.87506c0,1.58856 0.00059,3.00424 -0.00083,4.4199c-0.00347,0.15487 -0.0846,0.29848 -0.21757,0.38513c-1.33103,1.01475 -2.65964,2.03246 -4.17072,3.1884z" fill="#191d64"/><path d="M270.39874,166.00201c0,1.58421 0.0055,2.87762 -0.00495,4.17091c-0.00194,0.2394 -0.01524,0.5005 -0.2406,0.67069c-1.3293,1.00385 -2.66096,2.0048 -4.16991,3.14081c0,-1.60283 -0.00531,-2.99368 0.00842,-4.38435c0.0067,-0.15173 0.07499,-0.29482 0.1901,-0.3983c1.32127,-1.01628 2.65436,-2.01826 4.21693,-3.19976z" fill="#191d64"/><path d="M259.12865,174.46034c0,1.51519 -0.004,2.85563 0.00315,4.19601c0.03272,0.27766 -0.08676,0.55171 -0.31529,0.72317c-1.32641,0.9168 -2.52292,2.00341 -4.06725,2.92313c0,-1.52311 -0.01144,-2.93215 0.00939,-4.34075c0.00431,-0.29149 0.29219,-0.464 0.51271,-0.62985c1.23534,-0.92902 2.47913,-1.84758 3.85729,-2.8717z" fill="#181d63"/><path d="M249.03891,180.57602c0,-1.5653 0.01856,-2.87505 -0.00916,-4.18386c-0.01106,-0.5219 0.35179,-0.76831 0.68731,-1.02536c1.03761,-0.79508 2.09713,-1.56358 3.14868,-2.3417c0.12117,-0.08966 0.23467,-0.2403 0.40619,-0.17137c0.2263,0.09097 0.15491,0.31111 0.15594,0.48094c0.00704,1.16015 0.00214,2.32037 0.00536,3.48057c0.0007,0.25297 -0.02839,0.49404 -0.2504,0.66061c-1.31298,0.98514 -2.62855,1.96708 -4.14391,3.10018z" fill="#191d64"/><path d="M253.43406,193.49701c0.38335,1.55707 -0.24418,2.60876 -1.65282,3.39905c-0.81109,0.45505 -1.4944,1.12386 -2.22864,1.7042c-0.32337,0.25559 -0.51084,0.23641 -0.51218,-0.20683c-0.00376,-1.2546 0.00091,-2.50925 -0.00295,-3.76385c-0.0011,-0.35643 0.25295,-0.55192 0.49893,-0.73826c1.06987,-0.81042 2.14556,-1.61368 3.22708,-2.40975c0.1623,-0.11981 0.30653,-0.388 0.55383,-0.23441c0.20967,0.1302 0.1085,0.39318 0.11277,0.59748c0.01152,0.55058 0.00395,1.10154 0.00395,1.65238z" fill="#191d64"/><path d="M259.12584,119.53595c0,1.53195 -0.00438,2.87141 0.00341,4.21082c0.02732,0.27755 -0.09223,0.54969 -0.3179,0.72358c-1.2987,0.95298 -2.59852,1.90456 -4.066,2.97975c0,-1.57241 -0.01139,-2.98039 0.0094,-4.38793c0.00427,-0.28925 0.28418,-0.47213 0.50336,-0.63789c1.23257,-0.93218 2.47578,-1.85126 3.86774,-2.88833z" fill="#191d63"/><path d="M270.37136,104.96816c0,1.49265 -0.00087,2.84872 0.0008,4.20481c0.00031,0.24879 -0.0057,0.5007 -0.22942,0.66708c-1.33674,0.99415 -2.67797,1.98268 -4.16515,3.08209c0,-1.5682 0.00211,-2.95669 -0.00196,-4.34516c0.00725,-0.21533 0.12722,-0.41237 0.31854,-0.52319c1.3314,-1.00227 2.65805,-2.01042 4.07719,-3.08563z" fill="#191d65"/><path d="M249.04104,131.75573c0,-1.60008 0.00167,-2.96509 -0.00104,-4.33009c-0.00078,-0.39602 0.30462,-0.58847 0.57207,-0.79056c1.06599,-0.80544 2.14214,-1.59835 3.21615,-2.39386c0.14118,-0.10458 0.25992,-0.31507 0.47398,-0.20475c0.19869,0.1024 0.129,0.32302 0.12969,0.495c0.00468,1.15782 -0.0048,2.3157 0.00236,3.47348c0.02289,0.27735 -0.10081,0.54711 -0.32885,0.71715c-1.28945,0.96002 -2.57671,1.92276 -4.06438,3.03363z" fill="#181d64"/><path d="M259.12833,125.73407c0,1.49014 -0.0051,2.77058 0.00355,4.05093c0.02999,0.308 -0.10353,0.60972 -0.35477,0.80166c-1.17163,0.87722 -2.3396,1.75897 -3.50392,2.64526c-0.40717,0.31152 -0.54421,0.18306 -0.54322,-0.2617c0.0027,-1.22101 0.00403,-2.44201 0.004,-3.66301c-0.02108,-0.18618 0.05255,-0.37068 0.19755,-0.49505c1.35175,-0.97805 2.58517,-2.11074 4.19681,-3.07808z" fill="#191d64"/><path d="M249.039,143.99171c0,-1.50622 0.01892,-2.78589 -0.01003,-4.06455c-0.00724,-0.40207 0.20088,-0.77927 0.55048,-0.99773c1.09267,-0.82405 2.19523,-1.63589 3.28871,-2.45896c0.36197,-0.27245 0.56346,-0.25484 0.5628,0.24108c-0.00165,1.21968 -0.00149,2.43936 0.00048,3.65903c0.00461,0.24898 -0.11773,0.48427 -0.32725,0.62944c-1.29434,0.95703 -2.59268,1.909 -4.06519,2.9917z" fill="#ebffe8"/><path d="M253.43084,142.06535c0,1.57329 -0.00171,2.93872 0.0015,4.30416c0.01421,0.2482 -0.10132,0.48676 -0.30767,0.63536c-1.29893,0.96576 -2.59479,1.93535 -4.06815,3.03542c0,-1.59376 -0.00939,-3.00593 0.01358,-4.41762c0.03846,-0.1798 0.14608,-0.33883 0.30115,-0.44504c1.29476,-1.00546 2.60085,-1.99729 4.05959,-3.11225z" fill="#191d64"/><path d="M254.73016,121.37726c0,-1.54101 0.00756,-2.87864 -0.00482,-4.21611c-0.00352,-0.37997 0.17927,-0.59426 0.48439,-0.81609c1.25516,-0.91247 2.48456,-1.85794 3.90532,-2.9283c0,1.57935 0.008,2.98449 -0.00639,4.38941c-0.00305,0.29911 -0.26852,0.47924 -0.48759,0.64578c-1.23231,0.9368 -2.47397,1.86214 -3.89091,2.92529z" fill="#191d64"/><path d="M253.43001,160.45147c0,1.55901 -0.00063,2.923 0.00062,4.28699c0.024,0.2161 -0.06337,0.4298 -0.23376,0.57177c-1.33372,0.99558 -2.66901,1.98917 -4.15691,3.09743c0,-1.56143 -0.00042,-2.92064 0.00028,-4.27987c0.00018,-0.38865 0.298,-0.59666 0.56481,-0.80012c1.20788,-0.92107 2.42754,-1.82778 3.82497,-2.87621z" fill="#ebffe8"/><path d="M253.43247,166.5682c0,1.59367 -0.01809,2.87394 0.00953,4.15332c0.01006,0.46663 -0.2443,0.73656 -0.57438,0.98415c-1.09534,0.82159 -2.19333,1.63987 -3.294,2.45484c-0.11948,0.08886 -0.22597,0.24064 -0.40452,0.15817c-0.17755,-0.08201 -0.1282,-0.26107 -0.12869,-0.4038c-0.00421,-1.19025 -0.00123,-2.38053 -0.00163,-3.57079c-0.00008,-0.21724 0.004,-0.43907 0.19739,-0.58665c1.32508,-1.01129 2.65392,-2.01798 4.19632,-3.18924z" fill="#191d65"/><path d="M270.37048,119.6181c0.53926,1.86323 -0.52227,2.9097 -2.01268,3.78911c-0.66927,0.3949 -1.25345,0.92477 -1.87279,1.39761c-0.33591,0.25644 -0.50849,0.19545 -0.50889,-0.22899c-0.00114,-1.22388 0.00201,-2.44779 -0.00432,-3.67163c-0.00161,-0.30944 0.15977,-0.48846 0.40486,-0.67233c1.14877,-0.86176 2.27768,-1.74814 3.41827,-2.62013c0.11699,-0.08945 0.27988,-0.21713 0.39479,-0.19543c0.24291,0.04587 0.17476,0.28764 0.17735,0.45778c0.0089,0.58121 0.00342,1.16264 0.00342,1.744z" fill="#ebffe8"/><path d="M259.12568,150.06239c0,1.58038 -0.00081,2.91701 0.00078,4.25367c0.02501,0.2164 -0.06078,0.431 -0.22989,0.57503c-1.31267,0.98762 -2.62776,1.97227 -4.14994,3.11374c0,-1.63151 -0.00922,-3.03927 0.01329,-4.44657c0.03522,-0.1797 0.14078,-0.3394 0.29477,-0.44588c1.28196,-0.97406 2.57585,-1.93349 4.07097,-3.05z" fill="#ebffe8"/><path d="M265.97431,106.79454c0,-1.56652 0.00245,-2.87625 -0.00211,-4.18594c-0.03215,-0.24659 0.06294,-0.49273 0.25448,-0.65874c1.31123,-0.98321 2.62653,-1.96137 4.13273,-3.08461c0,1.603 0.00105,2.98538 -0.00104,4.36777c-0.01433,0.21817 -0.13566,0.41662 -0.32656,0.53414c-1.28346,0.96431 -2.57289,1.92127 -4.05749,3.02737z" fill="#ebffe8"/><path d="M265.9743,167.85129c0,-1.54924 0.00174,-2.88636 -0.00156,-4.22347c-0.02803,-0.24427 0.07844,-0.48487 0.2806,-0.63416c1.17794,-0.86783 2.34379,-1.75102 3.51061,-2.63282c0.39544,-0.29884 0.61271,-0.27773 0.60906,0.2701c-0.00791,1.19016 -0.00546,2.38039 -0.00381,3.57059c0.00813,0.24769 -0.11332,0.48272 -0.32316,0.62538c-1.29859,0.95954 -2.59271,1.92472 -4.07174,3.02437z" fill="#191d64"/><path d="M249.04104,137.88194c0,-1.55701 0.00076,-2.94607 -0.00076,-4.33512c-0.00942,-0.21711 0.09327,-0.42459 0.27413,-0.55389c1.31863,-0.97227 2.63735,-1.94442 4.1178,-3.03585c0,1.52902 -0.00302,2.88302 0.00204,4.23698c0.00133,0.35347 -0.23989,0.56028 -0.48336,0.74584c-1.25057,0.95301 -2.51212,1.89262 -3.90985,2.94204z" fill="#191d64"/><path d="M265.97328,186.23069c0,-1.47854 0.02396,-2.6976 -0.01137,-3.91506c-0.03952,-0.46132 0.17609,-0.90852 0.56711,-1.17628c1.07673,-0.79336 2.14784,-1.59383 3.22222,-2.39017c0.14336,-0.10626 0.27414,-0.2983 0.48412,-0.18691c0.1979,0.10496 0.13154,0.32266 0.13239,0.49542c0.00559,1.12799 0.00356,2.25601 0.00233,3.38402c-0.00029,0.24347 0.01561,0.49361 -0.21761,0.66773c-1.33627,0.99778 -2.67233,1.99582 -4.17916,3.12125z" fill="#191d64"/><path d="M253.43254,154.33969c0,1.53782 -0.01294,2.84421 0.00738,4.15012c0.00667,0.42815 -0.23568,0.68219 -0.5367,0.90947c-1.09191,0.82441 -2.19716,1.63245 -3.28664,2.45983c-0.45764,0.34756 -0.58464,0.18719 -0.58173,-0.29427c0.00702,-1.15839 0.00395,-2.31682 0.00256,-3.47526c-0.0003,-0.25071 0.02527,-0.4867 0.25249,-0.65618c1.31675,-0.98216 2.63244,-1.96564 4.14265,-3.09372z" fill="#191d65"/><path d="M270.37159,147.74789c0,1.50836 -0.02426,2.79205 0.01074,4.07423c0.01633,0.59783 -0.39736,0.8812 -0.78278,1.17599c-1.13758,0.87008 -2.29995,1.70998 -3.61066,2.67848c0,-1.57338 -0.00591,-3.01502 0.0101,-4.45646c0.02094,-0.1506 0.10242,-0.28716 0.22683,-0.38018c1.31416,-0.99167 2.63826,-1.97107 4.14576,-3.09206z" fill="#181d63"/><path d="M265.97514,161.80142c0,-1.52961 0.01492,-2.83887 -0.00789,-4.1475c-0.00827,-0.47425 0.29719,-0.72552 0.61505,-0.96717c1.03976,-0.79048 2.09448,-1.56263 3.144,-2.34111c0.14412,-0.1069 0.26588,-0.29926 0.47921,-0.22084c0.22844,0.08396 0.16012,0.3083 0.16109,0.47842c0.00659,1.15918 -0.00145,2.31847 0.00599,3.47767c0.0242,0.27819 -0.09822,0.54945 -0.32571,0.72172c-1.29749,0.95637 -2.59567,1.91185 -4.07176,2.99884z" fill="#ebffe8"/><path d="M249.04293,125.63339c0,-1.55439 0.0045,-2.8916 -0.00335,-4.22875c0.00191,-0.28042 0.14623,-0.54207 0.38614,-0.70007c1.28062,-0.97624 2.56692,-1.94553 4.00317,-3.03209c0,1.57502 -0.00014,2.96789 0.00014,4.36076c0.00193,0.2181 -0.10734,0.42316 -0.29224,0.54843c-1.30008,0.96849 -2.59957,1.93768 -4.09385,3.05174z" fill="#ebffe8"/><path d="M254.7325,139.7434c0,-1.54776 0.00094,-2.88853 -0.00083,-4.22929c-0.03188,-0.24706 0.06605,-0.4932 0.26104,-0.65609c1.32039,-0.98196 2.64013,-1.96474 4.13052,-3.07409c0,1.54758 -0.00252,2.90433 0.00171,4.26108c0.0011,0.35406 -0.24137,0.55845 -0.48742,0.74633c-1.23523,0.94311 -2.47898,1.87584 -3.90504,2.95207z" fill="#191d64"/><path d="M249.03477,156.16879c0,-1.57365 0.00282,-2.85659 -0.00216,-4.13952c-0.0011,-0.28624 0.03355,-0.54873 0.28776,-0.7386c1.29465,-0.96693 2.58871,-1.93457 4.09531,-3.06066c0,1.64414 0.00381,3.05428 -0.00767,4.46429c-0.01308,0.12209 -0.07563,0.23422 -0.17398,0.31196c-1.32995,1.01051 -2.66747,2.01178 -4.19927,3.16252z" fill="#ebffe8"/><path d="M265.97586,180.07494c0,-1.51399 0.0022,-2.87913 -0.0019,-4.24425c-0.01499,-0.24611 0.10082,-0.48265 0.3073,-0.62765c1.29623,-0.96252 2.58552,-1.93376 4.05405,-3.03471c0,1.60491 0.035,3.03744 -0.02302,4.46643c-0.01579,0.38886 -0.48661,0.62238 -0.8045,0.86085c-1.11495,0.83638 -2.25056,1.64712 -3.53193,2.57933z" fill="#ebffe8"/><path d="M259.12441,180.60972c0,1.57681 0.00465,2.93693 -0.00256,4.29702c-0.00246,0.46539 -0.4133,0.67655 -0.71857,0.91207c-0.98368,0.75892 -1.99752,1.48152 -3.00442,2.21215c-0.16312,0.11836 -0.29126,0.38362 -0.54985,0.23961c-0.18677,-0.10403 -0.11479,-0.32883 -0.11559,-0.5031c-0.00505,-1.12828 -0.00156,-2.25659 -0.00359,-3.38487c-0.00045,-0.24873 0.00043,-0.50703 0.22093,-0.67213c1.33302,-0.99808 2.67297,-1.98751 4.17363,-3.10074z" fill="#ebffe8"/><path d="M254.73172,194.6451c0,-1.50926 0.0132,-2.81941 -0.00822,-4.12905c-0.01479,-0.33695 0.15677,-0.65614 0.45064,-0.83837c1.27084,-0.93799 2.52973,-1.89103 3.94553,-2.95301c0,1.57179 0.00088,2.98597 -0.00085,4.40013c-0.01106,0.21661 -0.13362,0.41352 -0.32653,0.52459c-1.29877,0.95274 -2.59275,1.91157 -4.06058,2.99573z" fill="#ebffe8"/><path d="M259.12871,137.82672c0,1.53352 -0.00663,2.81394 0.00457,4.0942c0.0278,0.30872 -0.10537,0.61053 -0.3552,0.80502c-1.1914,0.90061 -2.38121,1.80324 -3.57935,2.69546c-0.30811,0.22945 -0.46321,0.08966 -0.46408,-0.24586c-0.00326,-1.25117 -0.00773,-2.50246 0.01063,-3.7534c0.00298,-0.18167 0.07963,-0.35498 0.21347,-0.48268c1.32525,-1.00812 2.66699,-1.99605 4.16995,-3.11274z" fill="#ebffe8"/><path d="M254.73458,115.24601c0,-1.61406 -0.00005,-2.95153 0.00006,-4.28904c-0.02171,-0.18625 0.04894,-0.37147 0.19057,-0.49961c1.33019,-1.01056 2.66517,-2.01522 4.20079,-3.17417c0,1.61527 -0.00041,2.97374 0.00043,4.33223c0.01238,0.18685 -0.06841,0.36817 -0.21741,0.48797c-1.31346,0.99301 -2.63062,1.98148 -4.17444,3.14263z" fill="#181d64"/><path d="M265.97578,119.04401c0,-1.54889 0.01074,-2.85793 -0.00663,-4.16663c-0.0027,-0.34074 0.1738,-0.65953 0.46873,-0.8466c1.09454,-0.82303 2.19222,-1.64213 3.29306,-2.45733c0.14412,-0.10715 0.2808,-0.30082 0.4824,-0.21583c0.26242,0.11064 0.14916,0.37446 0.15123,0.57001c0.01161,1.09791 0.00665,2.196 0.00504,3.29403c-0.00035,0.24261 0.02999,0.50322 -0.19964,0.67618c-1.33352,1.00447 -2.6708,2.00432 -4.19418,3.14617z" fill="#191d64"/><path d="M254.72904,170.2753c0,-1.52983 0.0227,-2.78341 -0.01123,-4.03554c-0.01348,-0.49782 0.22692,-0.80765 0.58861,-1.07862c1.21856,-0.91291 2.44112,-1.82087 3.81263,-2.84283c0,1.5613 0.00052,2.9772 -0.0007,4.3931c-0.00321,0.15454 -0.08461,0.29777 -0.2179,0.38336c-1.33145,1.01126 -2.65952,2.02669 -4.17142,3.18051z" fill="#ebffe8"/><path d="M265.97508,149.34966c0,-1.37471 0.00448,-2.70769 -0.00337,-4.04059c-0.00183,-0.27897 0.14144,-0.54019 0.38143,-0.69548c1.14468,-0.8612 2.28888,-1.72298 3.43264,-2.58532c0.1413,-0.10625 0.28285,-0.31311 0.47558,-0.16223c0.0925,0.0724 0.10351,0.27439 0.10441,0.41798c0.00749,1.19078 0.00161,2.38163 0.00579,3.57243c0.01761,0.24796 -0.0936,0.48813 -0.2967,0.6408c-1.24924,0.92761 -2.49981,1.85356 -3.75169,2.77785c-0.06395,0.04704 -0.17138,0.03894 -0.34808,0.07457z" fill="#191d64"/><path d="M270.36957,129.40813c0,1.50749 -0.00582,2.84084 0.00395,4.17406c-0.00668,0.31052 -0.17261,0.59758 -0.4428,0.76607c-1.08885,0.82886 -2.18902,1.64392 -3.27301,2.4786c-0.46109,0.35507 -0.72236,0.37884 -0.6823,-0.29611c0.00362,-0.06081 -0.00091,-0.12205 0.00006,-0.18306c0.01945,-1.21804 -0.33779,-2.61459 0.16511,-3.60379c0.50009,-0.98369 1.86334,-1.55959 2.85067,-2.31116c0.39388,-0.29984 0.79465,-0.59125 1.37832,-1.02463z" fill="#191d64"/><path d="M259.12985,156.21606c0,1.48338 -0.01956,2.76263 0.00977,4.04082c0.01152,0.50183 -0.26707,0.79363 -0.62113,1.05935c-1.04457,0.78388 -2.09644,1.55869 -3.14603,2.33632c-0.14481,0.10729 -0.27408,0.29207 -0.4832,0.214c-0.22791,-0.08512 -0.1527,-0.31075 -0.15379,-0.47982c-0.00744,-1.15842 0.00018,-2.31693 -0.00729,-3.47535c-0.02,-0.27899 0.10532,-0.54925 0.33416,-0.72065c1.29692,-0.95305 2.59795,-1.90087 4.06751,-2.97466z" fill="#191d64"/><path d="M253.4321,111.5831c0,1.53317 -0.00369,2.86528 0.00169,4.19735c0.00238,0.58951 -0.49878,0.83565 -0.87028,1.12713c-0.95315,0.74785 -1.9619,1.42928 -2.93148,2.15821c-0.41645,0.3131 -0.6021,0.28163 -0.59916,-0.2587c0.00647,-1.18994 0.01518,-2.38001 0.00132,-3.56979c-0.00419,-0.35943 0.19823,-0.5321 0.46587,-0.7273c1.25664,-0.91648 2.49632,-1.85462 3.93203,-2.92691z" fill="#191d64"/><path d="M253.43165,184.85468c0,1.53777 0.00107,2.85198 -0.00097,4.16618c-0.00038,0.24242 0.00873,0.47399 -0.23571,0.65652c-1.33993,1.00046 -2.66905,2.01441 -4.15719,3.14135c0,-1.5352 0.00535,-2.86948 -0.00365,-4.20364c0.00917,-0.31152 0.17712,-0.59856 0.44872,-0.76688c1.25693,-0.95988 2.52028,-1.91194 3.94881,-2.99353z" fill="#191d63"/><path d="M254.73124,176.32123c0,-1.54572 0.00816,-2.85422 -0.00549,-4.1625c-0.00774,-0.3106 0.14489,-0.60462 0.40722,-0.78449c1.27889,-0.97448 2.56281,-1.94279 3.99162,-3.0243c0,1.57469 -0.00064,2.96813 0.00067,4.36153c-0.00141,0.18555 -0.09815,0.35832 -0.25815,0.46107c-1.31271,0.99546 -2.62198,1.99516 -4.13587,3.1487z" fill="#191d64"/><path d="M253.43216,178.83723c0,1.44991 -0.01072,2.7301 0.00667,4.00991c0.02106,0.33946 -0.13839,0.6659 -0.42304,0.86613c-1.14479,0.85831 -2.29405,1.71121 -3.42968,2.58068c-0.39255,0.30054 -0.55039,0.21971 -0.5502,-0.24489c0.00049,-1.22042 0.00146,-2.44085 0.00293,-3.66127c-0.024,-0.18495 0.0492,-0.36926 0.19509,-0.49129c1.35093,-0.98589 2.61851,-2.07995 4.19823,-3.05928z" fill="#191d64"/><path d="M265.97272,143.44475c0,-1.50865 0.01248,-2.78704 -0.00725,-4.06497c-0.01896,-0.37019 0.16054,-0.72378 0.47518,-0.93604c1.09708,-0.81646 2.19274,-1.63472 3.28698,-2.45476c0.14491,-0.10819 0.28242,-0.29636 0.48318,-0.21368c0.26498,0.10914 0.15205,0.37313 0.15412,0.56826c0.01162,1.09698 0.00457,2.19413 0.00628,3.29123c0.00043,0.27868 -0.00673,0.54586 -0.26947,0.74037c-1.31763,0.9755 -2.63159,1.9556 -4.12902,3.06959z" fill="#ebffe8"/><path d="M212.90317,159.21266c1.50727,1.20588 2.81288,2.25136 4.11992,3.29516c0.16769,0.14334 0.25381,0.35577 0.23147,0.57096c-0.00362,1.33786 -0.00179,2.67572 -0.00179,4.23921c-0.98563,-0.76471 -1.78218,-1.48869 -2.68395,-2.05723c-1.31496,-0.82903 -1.95177,-1.86011 -1.68822,-3.41733c0.13,-0.76813 0.02256,-1.57368 0.02256,-2.63076z" fill="#403d9a"/><path d="M218.39955,127.02911c1.48603,1.1697 2.8022,2.20648 4.11961,3.24179c0.17003,0.14199 0.25853,0.35456 0.2376,0.5707c-0.00258,1.36561 -0.00129,2.73121 -0.00129,4.3044c-1.47796,-1.17248 -2.80876,-2.22766 -4.13873,-3.28382c-0.22313,-0.17721 -0.2179,-0.42524 -0.21769,-0.67228c0.00107,-1.31257 0.0005,-2.62513 0.0005,-4.16077z" fill="#ebffe8"/><path d="M228.26179,157.8095c-1.48394,-1.17974 -2.79555,-2.22024 -4.10331,-3.26523c-0.15454,-0.11234 -0.24591,-0.2879 -0.24705,-0.47469c0.00209,-1.39105 0.0011,-2.78211 0.0011,-4.38837c1.48754,1.18196 2.79764,2.22122 4.10523,3.26341c0.24865,0.19818 0.24579,0.47804 0.24521,0.75771c-0.00268,1.28426 -0.00118,2.56854 -0.00118,4.10717z" fill="#403d9b"/><path d="M218.40009,163.58312c1.43669,1.14322 2.69684,2.15358 3.96747,3.15148c0.27579,0.21075 0.42479,0.54029 0.39736,0.87887c-0.01264,1.2832 -0.00491,2.56658 -0.00491,3.94506c-0.76277,-0.29451 -1.20223,-0.92638 -1.83145,-1.26917c-2.14296,-1.16749 -2.98785,-2.88507 -2.53969,-5.22223c0.07898,-0.41185 0.01123,-0.84993 0.01123,-1.48401z" fill="#403d9b"/><path d="M217.25719,118.54081c-1.49132,-1.18211 -2.78481,-2.20654 -4.07693,-3.23256c-0.18054,-0.12997 -0.28608,-0.33528 -0.28414,-0.55271c0.00381,-1.36644 0.00186,-2.7329 0.00186,-4.35768c1.52068,1.22176 2.86751,2.30147 4.21033,3.38578c0.16232,0.13107 0.1475,0.33035 0.14778,0.51275c0.00204,1.33631 0.0011,2.6726 0.0011,4.24442z" fill="#403d9b"/><path d="M218.40202,139.17289c1.51195,1.2107 2.8157,2.25729 4.12339,3.29933c0.2257,0.17985 0.23358,0.41753 0.23355,0.66443c-0.0001,1.3104 -0.00006,2.62079 -0.00006,4.15886c-1.07354,-0.84316 -1.95939,-1.65488 -2.96239,-2.29585c-1.12566,-0.71935 -1.58437,-1.60149 -1.41595,-2.89883c0.11284,-0.86924 0.02146,-1.76315 0.02146,-2.92793z" fill="#403d9b"/><path d="M212.90509,177.58703c1.51266,1.2093 2.84021,2.26701 4.16157,3.33192c0.13987,0.12841 0.21133,0.3115 0.194,0.49711c-0.004,1.35926 -0.00209,2.71853 -0.00209,4.30724c-1.50134,-1.19696 -2.82885,-2.255 -4.15579,-3.31366c-0.1429,-0.12398 -0.21655,-0.30598 -0.19855,-0.49067c0.00164,-1.35903 0.00087,-2.71806 0.00087,-4.33194z" fill="#403d9b"/><path d="M228.2574,115.03331c-1.46776,-1.16717 -2.73196,-2.17757 -4.0039,-3.17883c-0.21277,-0.13593 -0.34218,-0.36466 -0.34567,-0.61099c0.00531,-1.36432 0.00242,-2.72867 0.00242,-4.33402c1.49749,1.19129 2.82669,2.24551 4.1504,3.30611c0.14115,0.1278 0.214,0.31094 0.19775,0.49714c-0.00189,1.3643 -0.00102,2.7286 -0.00102,4.3206z" fill="#403d9a"/><path d="M212.90043,104.28664c1.49352,1.19254 2.77624,2.21991 4.06368,3.24172c0.1994,0.15524 0.30862,0.39412 0.29307,0.641c-0.00365,1.3377 -0.00169,2.67542 -0.00169,4.23641c-1.49863,-1.18424 -2.85281,-2.25334 -4.20532,-3.32439c-0.16794,-0.13298 -0.14854,-0.32671 -0.14879,-0.50788c-0.00175,-1.33712 -0.00095,-2.67425 -0.00095,-4.28687z" fill="#403d9b"/><path d="M212.90521,147.06644c1.47648,1.17239 2.81012,2.23243 4.14545,3.29048c0.19656,0.15574 0.20409,0.36642 0.20409,0.58299c-0.00013,1.34077 -0.00006,2.68154 -0.00006,4.24833c-1.48996,-1.18799 -2.8434,-2.2609 -4.18404,-3.34851c-0.10463,-0.11158 -0.1613,-0.25748 -0.15849,-0.40798c-0.01143,-1.39337 -0.00696,-2.78685 -0.00696,-4.36532z" fill="#403d9a"/><path d="M212.89942,153.18551c1.49865,1.19114 2.82659,2.24544 4.15271,3.30188c0.16065,0.15163 0.23713,0.36796 0.20604,0.58281c-0.00223,1.33633 -0.00112,2.67266 -0.00112,4.22944c-1.20369,-0.94698 -2.22506,-1.82667 -3.32998,-2.59432c-0.79985,-0.55569 -1.13801,-1.18 -1.04949,-2.14197c0.09622,-1.04575 0.02183,-2.10612 0.02183,-3.37783z" fill="#403d9b"/><path d="M217.25062,179.60719c-1.48305,-1.1923 -2.78782,-2.24604 -4.10009,-3.29102c-0.17314,-0.13589 -0.26605,-0.34529 -0.24853,-0.56008c0.00325,-1.36446 0.00163,-2.72893 0.00163,-4.27248c1.47185,1.1568 2.81024,2.20789 4.1474,3.26043c0.22773,0.17925 0.19919,0.43391 0.1993,0.67746c0.00063,1.31357 0.0003,2.62714 0.0003,4.18569z" fill="#403d9b"/><path d="M217.24252,106.27832c-1.51191,-1.20197 -2.84647,-2.25683 -4.16867,-3.32595c-0.10799,-0.10859 -0.1687,-0.25309 -0.1696,-0.40365c-0.01223,-1.39275 -0.00746,-2.78563 -0.00746,-4.37867c1.4888,1.181 2.82619,2.23614 4.15207,3.30464c0.11246,0.10422 0.1789,0.24636 0.18545,0.39675c0.01337,1.39084 0.00821,2.78185 0.00821,4.40689z" fill="#403d9b"/><path d="M218.3988,169.71297c1.49924,1.18966 2.80914,2.22898 4.11888,3.26846c0.21858,0.17348 0.24221,0.40949 0.24146,0.66158c-0.00397,1.30709 -0.00186,2.61421 -0.00186,4.02887c-0.90303,-0.38043 -1.40726,-1.14128 -2.15748,-1.53576c-1.90513,-1.00178 -2.54497,-2.52149 -2.21426,-4.53333c0.08768,-0.53341 0.01325,-1.09163 0.01325,-1.88982z" fill="#403d9b"/><path d="M218.39767,181.95556c1.5002,1.19532 2.80381,2.23435 4.10791,3.27279c0.25098,0.19985 0.25265,0.47393 0.25221,0.75306c-0.00207,1.28285 -0.0009,2.5657 -0.0009,4.09352c-0.88941,-0.70267 -1.58667,-1.40386 -2.4214,-1.8811c-1.64083,-0.93811 -2.24089,-2.24005 -1.95431,-4.02875c0.1028,-0.6416 0.0165,-1.31138 0.0165,-2.20952z" fill="#ebffe8"/><path d="M217.25707,149.07c-1.53093,-1.21863 -2.86139,-2.27717 -4.19107,-3.33664c-0.1981,-0.15783 -0.1731,-0.38233 -0.17352,-0.59347c-0.00267,-1.31303 -0.00135,-2.62606 -0.00135,-4.0009c0.48592,0.04427 0.72936,0.37677 1.02805,0.60594c0.44535,0.34165 0.83468,0.77285 1.32276,1.0371c1.72518,0.93407 2.3415,2.31412 2.03068,4.17195c-0.09944,0.59441 -0.01556,1.21742 -0.01556,2.11601z" fill="#ebffe8"/><path d="M212.90406,116.5472c1.46778,1.15789 2.77893,2.19129 4.08853,3.22654c0.15627,0.10888 0.24991,0.28278 0.25244,0.46886c-0.00137,1.38926 -0.00073,2.77854 -0.00073,4.4297c-1.51512,-1.22335 -2.8371,-2.28486 -4.14732,-3.3597c-0.11236,-0.10579 -0.17848,-0.24916 -0.18473,-0.40058c-0.01336,-1.3894 -0.00818,-2.77897 -0.00818,-4.36482z" fill="#403d9a"/><path d="M217.24999,130.77006c-1.46302,-1.15705 -2.77258,-2.19097 -4.07931,-3.22826c-0.17807,-0.13309 -0.28047,-0.33967 -0.27615,-0.55707c0.00354,-1.36109 0.00174,-2.72217 0.00174,-4.34438c1.51692,1.21753 2.84356,2.27312 4.1529,3.34831c0.12624,0.13487 0.19496,0.31088 0.19232,0.49266c0.01516,1.36133 0.00851,2.72289 0.00851,4.28873z" fill="#403d9b"/><path d="M223.90776,119.13707c1.53089,1.22908 2.85812,2.28792 4.17489,3.35873c0.21134,0.17185 0.17974,0.44302 0.17958,0.68836c-0.00087,1.28216 -0.0004,2.5643 -0.0004,4.05286c-1.05335,-0.81748 -1.94669,-1.60927 -2.94118,-2.25619c-1.09943,-0.71516 -1.61262,-1.5738 -1.43572,-2.88223c0.11969,-0.88538 0.02284,-1.79805 0.02284,-2.96152z" fill="#403d9b"/><path d="M222.74927,129.02659c-1.50704,-1.20496 -2.83345,-2.26471 -4.15849,-3.32603c-0.14132,-0.12698 -0.21297,-0.31051 -0.19361,-0.49599c0.00014,-1.36306 0.00007,-2.72609 0.00007,-4.29744c1.47184,1.16477 2.78174,2.20006 4.08939,3.23801c0.15917,0.10528 0.25706,0.27733 0.26372,0.46354c-0.00209,1.39257 -0.00108,2.78514 -0.00108,4.4179z" fill="#403d9a"/><path d="M217.25497,136.83863c-1.47306,-1.18736 -2.75604,-2.22322 -4.04179,-3.25592c-0.18779,-0.11722 -0.30424,-0.31581 -0.31173,-0.53162c0.0062,-1.3918 0.003,-2.78364 0.003,-4.35779c1.47654,1.17703 2.80844,2.24261 4.14633,3.30116c0.20253,0.16026 0.20421,0.36399 0.20421,0.57912c0.00001,1.34019 0,2.68038 0,4.26505z" fill="#403d9a"/><path d="M217.25269,142.93989c-1.49645,-1.1875 -2.7893,-2.21211 -4.07999,-3.23927c-0.17641,-0.13471 -0.27627,-0.34217 -0.2692,-0.55923c0.00395,-1.36427 0.00194,-2.72856 0.00194,-4.31913c1.48886,1.18225 2.81797,2.23694 4.1459,3.29301c0.14366,0.12445 0.21833,0.3069 0.20159,0.49257c-0.00046,1.36413 -0.00024,2.72825 -0.00024,4.33205z" fill="#403d9a"/><path d="M228.25621,145.55121c-1.47432,-1.17303 -2.73736,-2.17824 -4.00082,-3.18294c-0.21243,-0.13813 -0.34214,-0.3673 -0.34783,-0.61456c0.00641,-1.36411 0.00292,-2.72827 0.00292,-4.31714c1.48118,1.17827 2.80652,2.23155 4.13012,3.28684c0.14724,0.11968 0.22757,0.29929 0.21685,0.48486c-0.0023,1.36181 -0.00123,2.7236 -0.00123,4.34294z" fill="#ebffe8"/><path d="M218.39821,102.53908c1.4634,1.15676 2.75237,2.17969 4.04721,3.19568c0.223,0.17547 0.34144,0.44626 0.31622,0.72297c-0.00933,1.3121 -0.00403,2.62429 -0.00403,4.17221c-0.81066,-0.63489 -1.41801,-1.25655 -2.15415,-1.65851c-1.88687,-1.03035 -2.55078,-2.53429 -2.21859,-4.55306c0.08826,-0.53628 0.01335,-1.09757 0.01335,-1.87927z" fill="#403d9b"/><path d="M218.39869,108.64356c1.46243,1.17039 2.74513,2.19569 4.02587,3.22322c0.20678,0.14768 0.32936,0.38084 0.33078,0.62919c-0.00294,1.36059 -0.00135,2.7212 -0.00135,4.27007c-1.47655,-1.16657 -2.8106,-2.21935 -4.14284,-3.27428c-0.22262,-0.17628 -0.21315,-0.42674 -0.21296,-0.67306c0.00102,-1.31072 0.00048,-2.62145 0.00048,-4.17514z" fill="#ebffe8"/><path d="M223.93661,186.35239c1.35506,1.07735 2.54052,2.04074 3.75259,2.97189c0.39172,0.26397 0.61245,0.70617 0.5823,1.16652c-0.03108,1.24739 -0.01014,2.49598 -0.01014,3.95538c-1.48075,-1.17767 -2.83096,-2.24978 -4.17683,-3.32692c-0.07594,-0.05652 -0.12663,-0.13892 -0.1417,-0.23036c-0.00842,-1.46635 -0.0062,-2.93276 -0.0062,-4.53651z" fill="#ebffe8"/><path d="M223.90702,155.79597c1.49493,1.192 2.80171,2.23535 4.11067,3.27612c0.17038,0.14043 0.26031,0.35149 0.24157,0.56705c-0.00295,1.3364 -0.00145,2.67285 -0.00145,4.24812c-0.94955,-0.73188 -1.6955,-1.41693 -2.54831,-1.93958c-1.45019,-0.88876 -2.10276,-2.04424 -1.82238,-3.71949c0.11919,-0.71224 0.0199,-1.45854 0.0199,-2.43223z" fill="#403d9a"/><path d="M223.94405,113.04939c1.40339,1.11861 2.64368,2.11049 3.88881,3.09665c0.2239,0.17735 0.43059,0.33852 0.42817,0.66291c-0.01019,1.36068 -0.00431,2.72148 -0.00431,4.34516c-1.5102,-1.21249 -2.8325,-2.27265 -4.15118,-3.33697c-0.07831,-0.05321 -0.13342,-0.13255 -0.15471,-0.22271c-0.00916,-1.4643 -0.00679,-2.92865 -0.00679,-4.54505z" fill="#ebffe8"/><path d="M222.75785,153.43016c-1.48789,-1.18307 -2.79275,-2.22349 -4.10178,-3.25902c-0.25478,-0.20156 -0.25807,-0.46727 -0.25734,-0.74675c0.00336,-1.28252 0.00149,-2.56504 0.00149,-3.93321c0.83719,0.2988 1.31052,0.98435 1.98875,1.37164c1.92828,1.10111 2.82798,2.64012 2.38332,4.83631c-0.09857,0.48685 -0.01444,1.00815 -0.01444,1.73104z" fill="#ebffe8"/><path d="M222.74888,141.18454c-1.52089,-1.21622 -2.85035,-2.2733 -4.16755,-3.34442c-0.10766,-0.10802 -0.16837,-0.25177 -0.16963,-0.40168c-0.01221,-1.39396 -0.00747,-2.78803 -0.00747,-4.35887c1.4508,1.1435 2.76295,2.17679 4.07351,3.21197c0.16043,0.10402 0.26077,0.27494 0.27078,0.4613c0.00065,1.39071 0.00035,2.78143 0.00035,4.43171z" fill="#403d9b"/><path d="M222.75726,122.90103c-1.505,-1.19751 -2.83784,-2.25879 -4.17203,-3.31853c-0.12456,-0.09679 -0.19378,-0.24519 -0.18633,-0.39942c0.00063,-1.39108 0.00036,-2.78217 0.00036,-4.41808c1.51861,1.21285 2.84943,2.27017 4.17171,3.33736c0.21493,0.17347 0.18624,0.44163 0.18625,0.68671c0.00007,1.28337 0.00003,2.56675 0.00003,4.11196z" fill="#403d9b"/><path d="M212.90017,165.37163c0.76487,0.59353 1.28223,1.11177 1.90329,1.45557c2.07104,1.14646 2.88958,2.80507 2.45655,5.07128c-0.08209,0.42964 -0.01177,0.88642 -0.01177,1.57569c-1.50544,-1.20097 -2.83261,-2.25875 -4.15813,-3.31844c-0.1411,-0.12651 -0.21204,-0.30994 -0.19136,-0.4948c0.00269,-1.3619 0.00143,-2.7238 0.00143,-4.28931z" fill="#ebffe8"/><path d="M223.90599,180.20103c1.48204,1.18148 2.76566,2.21158 4.05945,3.22963c0.20187,0.14982 0.3134,0.38676 0.29758,0.63216c-0.00514,1.33484 -0.00236,2.66972 -0.00236,4.27363c-1.52108,-1.22021 -2.86518,-2.29583 -4.20487,-3.37658c-0.16107,-0.12994 -0.14884,-0.32894 -0.14904,-0.51197c-0.00142,-1.33737 -0.00076,-2.67474 -0.00076,-4.24685z" fill="#403d9a"/><path d="M218.4054,157.55927c1.45944,1.15601 2.7048,2.14202 3.94953,3.12876c0.24198,0.15277 0.39205,0.40953 0.40241,0.68853c-0.00662,1.36103 -0.00284,2.72211 -0.00284,4.29889c-1.49599,-1.18927 -2.83037,-2.2443 -4.15319,-3.31265c-0.11327,-0.10434 -0.18047,-0.24686 -0.18761,-0.39787c-0.01353,-1.39147 -0.0083,-2.78313 -0.0083,-4.40566z" fill="#403d9b"/><path d="M223.90648,174.08417c1.51925,1.21271 2.84628,2.26743 4.16628,3.33027c0.2162,0.17407 0.18981,0.43693 0.18963,0.68179c-0.00097,1.27889 -0.00045,2.55777 -0.00045,3.82382c-0.28784,0.16994 -0.43082,-0.04243 -0.59013,-0.16618c-0.54052,-0.41977 -1.02472,-0.93018 -1.61772,-1.25961c-1.86757,-1.03749 -2.51003,-2.55611 -2.16068,-4.56245c0.0875,-0.50259 0.01306,-1.03144 0.01306,-1.84764z" fill="#403d9b"/><path d="M223.90893,161.93535c1.42213,1.12104 2.66547,2.10658 3.91633,3.08316c0.28453,0.20033 0.4478,0.52378 0.43595,0.86364c-0.01126,1.3102 -0.00439,2.62055 -0.00439,4.14618c-1.08703,-0.85264 -2.00681,-1.66559 -3.02243,-2.34514c-1.03275,-0.691 -1.5159,-1.50188 -1.34973,-2.74739c0.12332,-0.92422 0.02428,-1.87607 0.02428,-3.00046z" fill="#403d9b"/><path d="M228.25731,133.39199c-1.47225,-1.16398 -2.74226,-2.16806 -4.01226,-3.17212c-0.2102,-0.14171 -0.33598,-0.37322 -0.33729,-0.62078c0.00672,-1.36367 0.00308,-2.72737 0.00308,-4.31133c1.49441,1.18271 2.82734,2.23478 4.15545,3.29252c0.14018,0.12878 0.21101,0.31279 0.19197,0.49873c-0.00176,1.36369 -0.00094,2.72738 -0.00094,4.31299z" fill="#403d9a"/><path d="M222.75521,183.96042c-1.49191,-1.18592 -2.75924,-2.19545 -4.02977,-3.20119c-0.20915,-0.14261 -0.33215,-0.37553 -0.32886,-0.62275c0.00886,-1.36722 0.00404,-2.73451 0.00404,-4.29314c1.47477,1.16749 2.80724,2.22201 4.13917,3.27714c0.14772,0.11997 0.22787,0.3004 0.21609,0.48645c-0.00125,1.3643 -0.00066,2.72862 -0.00066,4.35349z" fill="#ebffe8"/><path d="M228.25296,151.66511c-1.52169,-1.20562 -2.80956,-2.22886 -4.10197,-3.24675c-0.17134,-0.13842 -0.26197,-0.34887 -0.24279,-0.56379c0.00205,-1.36578 0.00103,-2.73157 0.00103,-4.30453c1.45971,1.1709 2.78005,2.22983 4.10003,3.28914c0.15193,0.11495 0.24096,0.29074 0.24167,0.47711c0.00381,1.35944 0.00203,2.71886 0.00203,4.34883z" fill="#403d9a"/><path d="M222.75806,159.55912c-1.53568,-1.22752 -2.86545,-2.28432 -4.18277,-3.35541c-0.10614,-0.10914 -0.16506,-0.25333 -0.16468,-0.40306c-0.01185,-1.38931 -0.00724,-2.77875 -0.00724,-4.37381c1.46421,1.17117 2.76754,2.21252 4.06913,3.25594c0.19653,0.15965 0.30326,0.3997 0.28777,0.64725c-0.00488,1.30833 -0.00222,2.61672 -0.00222,4.22908z" fill="#ebffe8"/><path d="M228.25304,176.07158c-1.51765,-1.2038 -2.84655,-2.25562 -4.17161,-3.31188c-0.13518,-0.13307 -0.19873,-0.31921 -0.17201,-0.50383c-0.00003,-1.36336 0,-2.72671 0,-4.28541c1.44872,1.15186 2.75222,2.18723 4.05403,3.22451c0.17985,0.13147 0.28644,0.33602 0.28857,0.55383c0.00205,1.35926 0.00102,2.71852 0.00102,4.32278z" fill="#ebffe8"/><path d="M228.25243,139.50688c-1.48646,-1.1811 -2.74899,-2.18956 -4.0195,-3.18861c-0.2091,-0.14058 -0.33218,-0.37233 -0.32841,-0.61833c0.00692,-1.36423 0.00317,-2.72853 0.00317,-4.29711c1.48325,1.17545 2.81597,2.22613 4.13784,3.28939c0.11575,0.1007 0.18673,0.24069 0.19811,0.39074c0.01424,1.39227 0.0088,2.78473 0.0088,4.42394z" fill="#403d9a"/><path d="M233.76283,168.29113c-1.48996,-1.18421 -2.79871,-2.22455 -4.10768,-3.26462c-0.21904,-0.17404 -0.24216,-0.40988 -0.24144,-0.66181c0.00375,-1.31045 0.00174,-2.6209 0.00174,-4.0326c0.9214,0.4031 1.53411,1.06586 2.22287,1.60731c2.22798,1.75149 2.21097,1.76865 2.12674,4.55109c-0.01555,0.51375 -0.00222,1.02835 -0.00222,1.80065z" fill="#ebffe8"/><path d="M229.4146,184.58199c1.48507,1.17724 2.77435,2.19366 4.05263,3.22282c0.11719,0.10136 0.19005,0.24199 0.20382,0.39333c0.03521,1.2484 0.06596,2.4974 0.06168,3.74612c-0.00175,0.51334 -0.25151,0.55068 -0.64315,0.23296c-1.08931,-0.88362 -2.18702,-1.75753 -3.29314,-2.62172c-0.25733,-0.18085 -0.40293,-0.47477 -0.38723,-0.78174c0.01323,-1.3111 0.0054,-2.62241 0.0054,-4.19177z" fill="#ebffe8"/><path d="M229.41539,154.05378c1.51963,1.20534 2.83805,2.23624 4.13643,3.2901c0.38237,0.31037 0.12404,0.7561 0.13301,1.13482c0.02662,1.12282 0.00953,2.24661 0.00953,3.6389c-0.94656,-0.75337 -1.64691,-1.46336 -2.48732,-1.94633c-1.51969,-0.87334 -2.05362,-2.07604 -1.80861,-3.72554c0.10206,-0.68711 0.01696,-1.40011 0.01696,-2.39198z" fill="#403d9a"/><path d="M229.41734,141.80865c1.47208,1.16649 2.73821,2.1733 4.00946,3.17403c0.23631,0.16256 0.36292,0.43598 0.33084,0.71445c-0.13194,1.33142 -0.05902,2.66655 -0.02739,4.20007c-1.45298,-1.15896 -2.77891,-2.21511 -4.10232,-3.27423c-0.14578,-0.12149 -0.22427,-0.30187 -0.21207,-0.48745c0.00277,-1.36411 0.00148,-2.72822 0.00148,-4.32687z" fill="#403d9b"/><path d="M233.6864,143.82509c-1.38944,-1.1048 -2.67709,-2.12748 -3.96294,-3.15226c-0.20271,-0.15235 -0.31747,-0.38933 -0.30861,-0.63722c0.00751,-1.34121 0.00342,-2.68248 0.00342,-4.26002c1.47903,1.17632 2.80924,2.22737 4.12521,3.29476c0.09828,0.11884 0.14712,0.2688 0.13698,0.42056c0.00987,1.39671 0.00594,2.79352 0.00594,4.33418z" fill="#ebffe8"/><path d="M233.68686,198.74672c-1.44224,-1.13525 -2.73,-2.14997 -4.0194,-3.16276c-0.17293,-0.13792 -0.2663,-0.34794 -0.25074,-0.56399c0.00238,-1.36528 0.00118,-2.73055 0.00118,-4.30472c1.44799,1.14604 2.75387,2.17433 4.04942,3.21457c0.1188,0.09754 0.19408,0.23555 0.21019,0.38532c0.01498,1.41711 0.00935,2.83442 0.00935,4.43158z" fill="#403d9a"/><path d="M229.42174,111.28764c1.49442,1.18038 2.78817,2.19732 4.07555,3.22172c0.46441,0.36953 0.16506,0.86578 0.17976,1.29757c0.0369,1.0846 0.01218,2.17116 0.01218,3.52077c-1.50208,-1.1927 -2.81097,-2.22546 -4.10659,-3.27351c-0.10333,-0.11273 -0.15845,-0.25917 -0.15415,-0.40966c-0.01119,-1.36888 -0.00675,-2.73789 -0.00675,-4.35688z" fill="#403d9a"/><path d="M229.41603,117.41964c1.42831,1.12171 2.67171,2.09972 3.91733,3.0751c0.23265,0.16351 0.36739,0.42686 0.36053,0.70465c-0.00857,1.36321 -0.00373,2.72648 -0.00373,4.27075c-1.41856,-1.13605 -2.74314,-2.19678 -4.0676,-3.25761c-0.16095,-0.15091 -0.23783,-0.36682 -0.20706,-0.5814c0.00104,-1.33418 0.00052,-2.66835 0.00052,-4.21149z" fill="#403d9b"/><path d="M233.6908,137.70835c-1.50997,-1.2015 -2.81325,-2.2377 -4.11518,-3.27551c-0.16602,-0.13234 -0.15734,-0.32326 -0.15755,-0.50537c-0.00157,-1.33636 -0.00085,-2.67272 -0.00085,-4.16117c1.22118,0.71169 2.07383,1.66811 3.13582,2.34022c0.99743,0.63124 1.28495,1.44252 1.15916,2.54897c-0.10455,0.91971 -0.02141,1.85931 -0.02141,3.05286z" fill="#403d9b"/><path d="M229.41769,166.30053c1.3655,1.08046 2.53064,2.01493 3.71182,2.93008c0.39151,0.26462 0.60886,0.70948 0.57141,1.16955c-0.05678,1.23855 0.12402,2.48378 -0.10269,3.88126c-1.38855,-1.10301 -2.69583,-2.13941 -3.99965,-3.17984c-0.13776,-0.13081 -0.20472,-0.31602 -0.18122,-0.5012c0.00062,-1.36492 0.00034,-2.72985 0.00034,-4.29984z" fill="#403d9b"/><path d="M229.41526,178.46809c1.47362,1.16161 2.7179,2.14501 3.96539,3.12461c0.54325,0.4266 0.29838,1.03395 0.33675,1.54737c0.07688,1.02901 0.02283,2.06715 0.02283,3.27718c-1.01599,-0.53524 -1.62658,-1.31141 -2.44365,-1.77164c-1.66383,-0.93719 -2.15767,-2.28973 -1.89595,-4.04656c0.09174,-0.61591 0.01463,-1.25525 0.01463,-2.13095z" fill="#403d9b"/><path d="M234.92228,164.55548c1.46255,1.15207 2.72778,2.14851 3.99271,3.14538c0.19532,0.16109 0.29864,0.40299 0.2777,0.65022c-0.00439,1.34108 -0.00203,2.68219 -0.00203,4.2613c-1.48183,-1.19215 -2.82354,-2.26118 -4.14478,-3.35327c-0.1114,-0.09209 -0.1173,-0.33855 -0.11854,-0.51366c-0.00928,-1.31058 -0.00505,-2.62123 -0.00505,-4.18996z" fill="#403d9a"/><path d="M234.92217,188.9516c1.47921,1.17289 2.74136,2.17407 4.00417,3.17448c0.15822,0.10599 0.25542,0.27781 0.26232,0.46365c0.00117,1.38736 0.00062,2.7747 0.00062,4.42759c-1.50255,-1.20509 -2.80114,-2.2451 -4.09723,-3.28798c-0.13444,-0.1334 -0.19699,-0.3196 -0.16922,-0.5038c-0.00122,-1.33532 -0.00066,-2.67062 -0.00066,-4.27393z" fill="#ebffe8"/><path d="M229.41646,123.51382c1.43159,1.14412 2.68363,2.15088 3.94458,3.14716c0.22516,0.17109 0.34843,0.43843 0.32944,0.7145c-0.00704,1.33318 -0.00309,2.66641 -0.00309,4.20122c-1.44773,-1.15339 -2.79579,-2.21739 -4.12439,-3.30351c-0.11462,-0.09372 -0.13902,-0.33355 -0.14044,-0.50599c-0.01102,-1.33852 -0.00608,-2.67713 -0.00608,-4.25338z" fill="#ebffe8"/><path d="M229.41349,172.33112c1.46803,1.1687 2.75219,2.19006 4.03509,3.2129c0.38714,0.30867 0.22732,0.73772 0.23384,1.1162c0.01986,1.15569 0.0072,2.31188 0.0072,3.7046c-1.1845,-0.92175 -2.191,-1.76248 -3.26148,-2.51889c-0.78715,-0.55623 -1.12642,-1.19617 -1.03636,-2.15639c0.09637,-1.02762 0.02171,-2.07017 0.02171,-3.35842z" fill="#403d9b"/><path d="M239.19482,166.46874c-1.45827,-1.14604 -2.72428,-2.14207 -3.99187,-3.13623c-0.24859,-0.19496 -0.28278,-0.45558 -0.28165,-0.74118c0.00514,-1.31142 0.00225,-2.62289 0.00225,-4.13643c1.16286,0.90053 2.17502,1.73758 3.24662,2.49649c0.78267,0.5543 1.14088,1.18731 1.04708,2.15445c-0.09973,1.02797 -0.02242,2.07195 -0.02242,3.36291z" fill="#403d9a"/><path d="M233.57645,155.88661c-1.3167,-1.036 -2.58745,-2.03812 -3.86151,-3.03628c-0.21925,-0.1815 -0.33233,-0.45533 -0.30254,-0.73272c0.007,-1.31337 0.00306,-2.62679 0.00306,-4.03218c0.89166,0.3755 1.40747,1.10933 2.14048,1.53131c1.72066,0.99056 2.54193,2.35182 2.13769,4.31129c-0.12723,0.61671 0.19489,1.26723 -0.11718,1.95859z" fill="#403d9b"/><path d="M239.19259,142.06375c-1.48885,-1.18026 -2.77525,-2.20119 -4.06345,-3.22c-0.16239,-0.15017 -0.23969,-0.36682 -0.20755,-0.58172c-0.00093,-1.34124 -0.00046,-2.68248 -0.00046,-4.23001c0.99284,0.7802 1.80033,1.53869 2.72937,2.11451c1.25484,0.77776 1.7778,1.75904 1.56365,3.19703c-0.11986,0.80482 -0.02156,1.6399 -0.02156,2.7202z" fill="#403d9b"/><path d="M239.07604,190.79151c-1.34058,-1.05957 -2.58007,-2.04305 -3.82495,-3.02014c-0.24324,-0.19984 -0.36856,-0.5028 -0.33485,-0.80948c0.00967,-1.09695 -0.00295,-2.19411 0.00933,-3.29101c0.00216,-0.19254 -0.11876,-0.46616 0.15724,-0.56c0.24372,-0.08284 0.38409,0.15893 0.55009,0.2841c0.29812,0.22477 0.57997,0.46956 0.87569,0.69743c2.9426,2.26755 3.17662,2.85746 2.56746,6.69908z" fill="#403d9b"/><path d="M234.92183,121.76643c1.47402,1.17384 2.73367,2.18171 4.00038,3.18128c0.19526,0.15945 0.29721,0.40117 0.2729,0.64699c-0.00239,1.34081 -0.00111,2.68163 -0.00111,4.22731c-1.44008,-1.14227 -2.74428,-2.17673 -4.04841,-3.21129c-0.16598,-0.14599 -0.2496,-0.35985 -0.22498,-0.57534c0.00246,-1.33703 0.00121,-2.67406 0.00121,-4.26894z" fill="#ebffe8"/><path d="M239.19491,178.72696c-1.46369,-1.16468 -2.74532,-2.18748 -4.03141,-3.205c-0.22462,-0.17772 -0.24471,-0.40833 -0.24424,-0.65849c0.00247,-1.31047 0.00116,-2.62095 0.00116,-4.04207c0.77323,0.33755 1.22086,0.96061 1.84836,1.30167c2.05477,1.11673 2.85334,2.75222 2.43799,4.98444c-0.0822,0.44184 -0.01186,0.91013 -0.01186,1.61946z" fill="#403d9a"/><path d="M234.93065,152.30162c1.47366,1.17782 2.77859,2.21475 4.07152,3.26547c0.11001,0.10612 0.17357,0.24901 0.17755,0.39912c0.01278,1.38962 0.00783,2.77939 0.00783,4.38928c-1.44649,-1.15406 -2.72442,-2.17131 -3.99839,-3.19318c-0.15628,-0.10951 -0.25156,-0.28246 -0.25825,-0.4688c-0.00046,-1.38804 -0.00025,-2.77607 -0.00025,-4.39188z" fill="#403d9a"/><path d="M239.18866,203.1269c-1.3932,-1.10305 -2.59178,-2.04647 -3.78231,-2.99926c-0.23911,-0.19136 -0.48916,-0.38143 -0.48686,-0.74141c0.00866,-1.36146 0.00349,-2.72301 0.00349,-4.32207c1.47746,1.1858 2.77722,2.22871 4.07652,3.27218c0.14018,0.12756 0.21015,0.31132 0.18896,0.4962c0.0004,1.36284 0.00022,2.7257 0.00022,4.29435z" fill="#403d9b"/><path d="M239.19072,123.70396c-1.45768,-1.16049 -2.69576,-2.15129 -3.94156,-3.133c-0.2084,-0.14219 -0.33107,-0.37424 -0.32812,-0.62063c0.00473,-1.36615 0.00218,-2.73231 0.00218,-4.30582c1.45245,1.15749 2.75632,2.1962 4.05958,3.23564c0.14526,0.12218 0.22245,0.30328 0.20832,0.4888c-0.00078,1.36293 -0.00042,2.72586 -0.00042,4.33501z" fill="#403d9b"/><path d="M239.19172,135.95275c-1.4474,-1.15627 -2.70535,-2.16159 -3.96387,-3.16623c-0.21936,-0.18035 -0.33516,-0.45181 -0.31102,-0.72904c0.00873,-1.31017 0.00378,-2.6204 0.00378,-4.16721c1.46997,1.17166 2.79211,2.22318 4.11032,3.27929c0.13206,0.13578 0.19139,0.32304 0.16062,0.50693c0.0003,1.34085 0.00016,2.6817 0.00016,4.27626z" fill="#403d9a"/><path d="M234.92468,176.70109c1.42964,1.14343 2.64424,2.11538 3.85961,3.08636c0.1942,0.15517 0.40584,0.2909 0.40508,0.57907c-0.00362,1.39166 -0.00163,2.78331 -0.00163,4.38876c-1.47077,-1.16599 -2.7805,-2.1982 -4.07809,-3.24444c-0.11018,-0.10643 -0.17363,-0.24978 -0.17716,-0.40023c-0.01278,-1.39156 -0.00781,-2.78327 -0.00781,-4.40952z" fill="#ebffe8"/><path d="M239.18929,154.22898c-1.48184,-1.17322 -2.74427,-2.17073 -4.00334,-3.1722c-0.15651,-0.10864 -0.25118,-0.28188 -0.25575,-0.46795c0.00136,-1.38821 0.0007,-2.77642 0.0007,-4.40003c1.48156,1.17846 2.78497,2.21339 4.08529,3.2519c0.1354,0.13273 0.19917,0.31871 0.17256,0.50325c0.00098,1.33604 0.00053,2.67209 0.00053,4.28504z" fill="#ebffe8"/><path d="M234.92441,140.14577c1.4446,1.14522 2.68295,2.13346 3.93067,3.11053c0.2284,0.16819 0.3556,0.43477 0.3396,0.7117c-0.00668,1.33941 -0.00292,2.67888 -0.00292,4.22404c-1.43967,-1.1473 -2.7411,-2.18481 -4.04313,-3.22167c-0.16602,-0.14575 -0.24981,-0.35942 -0.22541,-0.57481c0.00234,-1.33609 0.00116,-2.67217 0.00116,-4.24979z" fill="#403d9a"/><path d="M240.83742,77.10461c0.00239,1.779 0.00478,3.558 0.00718,5.33701c-1.81014,1.53383 -3.78283,2.86993 -5.6538,4.3298c-0.90341,0.70488 -0.95549,1.15308 -0.06378,1.80151c1.87208,1.36131 3.5979,2.89192 5.43676,4.29014c0.36984,0.2812 0.72515,0.60199 1.24723,0.58644c0.2329,0.66653 1.00375,0.80486 1.68438,0.29457c1.98731,-1.48996 4.06106,-2.8882 5.92213,-4.51312c1.01384,-0.88521 2.1369,-0.94671 3.28823,-1.06784c1.43565,-0.15104 2.88857,-0.1489 4.3341,-0.21284c0.2684,0.36338 -0.00239,0.52124 -0.26518,0.71861c-2.18688,1.64255 -4.36936,3.29057 -6.54742,4.94407c-2.55193,1.93264 -5.1116,3.85599 -7.64496,5.81109c-0.63798,0.49236 -1.00727,0.64154 -1.78346,0.0006c-3.20542,-2.64685 -6.55963,-5.12514 -9.79118,-7.74356c-1.30281,-1.05563 -2.59795,-2.12208 -3.91922,-3.15652c-0.61131,-0.47861 -0.4495,-0.81852 0.07744,-1.20831c4.29865,-3.17969 8.59364,-6.36402 12.88494,-9.55297c0.27465,-0.20395 0.52496,-0.4384 0.78661,-0.65866z" fill="#5a5655"/><path d="M242.96704,82.2596c-0.00364,-1.77879 -0.00727,-3.55758 -0.01088,-5.33638c3.92029,3.08204 7.83979,6.16502 11.7585,9.24892c0.088,0.08673 0.16554,0.18281 0.23118,0.28638c-1.38038,0.12018 -2.76337,0.21838 -4.14033,0.36809c-1.00732,0.10953 -1.80533,-0.16826 -2.57304,-0.83107c-1.50337,-1.29795 -3.08893,-2.50721 -4.63962,-3.75418c-0.16481,-0.13251 -0.32064,-0.19972 -0.46614,0.02028c-0.05432,0.07895 -0.10749,0.0743 -0.15966,-0.00206z" fill="#5a5655"/><path d="M241.811,93.44951c-0.29373,0.37425 -0.56523,0.22152 -0.86201,-0.0125c-1.6536,-1.30387 -3.32949,-2.58059 -4.90904,-3.97147c-0.48292,-0.42523 -1.13465,-0.65265 -1.56397,-1.16627c-0.38244,-0.45754 -0.42644,-0.92385 0.0464,-1.28806c1.94375,-1.49714 3.91195,-2.96475 5.87847,-4.43414c0.13895,-0.06905 0.28902,-0.11486 0.44382,-0.13549c0.00859,1.34114 0.0611,2.68381 0.0102,4.02282c-0.03283,0.8637 0.32874,1.37227 1.14152,1.63774c1.98478,-0.11715 3.96962,-0.23343 5.9545,-0.34883c0.31068,-0.01757 0.62334,-0.00246 1.24675,-0.00246c-2.60195,2.00738 -4.9943,3.85301 -7.38664,5.69867z" fill="#777271"/><path d="M242.96703,82.2596c0.05332,-0.00091 0.10658,-0.00025 0.15978,0.00198c1.57098,1.26119 3.14207,2.5223 4.91628,3.94645c-1.7459,0.08218 -3.24328,0.34297 -4.76727,0.25714c-0.40725,-0.02294 -0.3385,-0.38156 -0.33794,-0.64173c0.0026,-1.18796 0.01821,-2.3759 0.02913,-3.56385z" fill="#767170"/></g></g></svg>