<svg xmlns="http://www.w3.org/2000/svg" xmlns:xlink="http://www.w3.org/1999/xlink" version="1.1" width="25.09950065612793" height="20.375099182128906" viewBox="-0.5002000000094995 -0.34609998762607574 25.09950065612793 20.375099182128906">
  <!-- Exported by Scratch - http://scratch.mit.edu/ -->
  <g id="ID0.5141469733789563">
    <g id="ID0.358306766487658">
      <g id="ID0.045219899620860815">
        <g id="container-id1">
          <g id="id1">
            <g id="ID0.7180701862089336">
              <g id="ID0.9010128821246326">
                <g id="id6">
                  <path id="ID0.44769747694954276" fill="none" stroke="none" d="M -0.0002 0.1539 L 24.0993 0.1539 L 24.0993 19.529 L -0.0002 19.529 L -0.0002 0.1539 Z " stroke-width="0.023664568508236814"/>
                  <path id="ID0.2315921294502914" fill="rgb(254,0,0)" stroke="none" d="M 11.8982 15.7069 L 11.8982 15.7069 C 9.9656 14.2886 8.0563 12.8463 6.1237 11.404 C 6.0771 11.404 6.0305 11.3799 5.984 11.3559 C 5.5881 11.2117 5.3087 10.8992 4.9827 10.6828 C 4.5869 10.2021 4.1212 9.7453 3.8418 9.1924 C 3.6788 8.904 3.4459 8.6876 3.2364 8.4472 C 3.0035 8.2068 2.7008 8.2068 2.4214 8.2068 C 2.142 7.9424 1.8859 7.6299 1.5832 7.3895 C 1.1408 7.0049 0.7915 6.5001 0.3724 6.1155 C 0.0231 5.803 -0.0234 5.4184 0.0231 4.9857 C 0.0464 4.6972 0.093 4.4087 0.2327 4.1443 C 0.6285 4.2885 0.9079 4.577 1.2339 4.8174 C 2.3749 5.6588 3.4925 6.4761 4.6102 7.3415 C 4.7033 7.4136 4.8197 7.4857 4.9361 7.5097 C 5.5415 7.4857 6.1237 7.3174 6.7058 7.2453 C 6.8688 7.2213 7.0085 7.1491 7.1482 7.2934 C 7.1482 7.4857 6.9852 7.4376 6.8688 7.4857 C 6.4264 7.654 5.9374 7.7261 5.4251 7.9424 C 8.522 10.2261 11.5489 12.4857 14.6225 14.7454 C 14.4362 13.88 14.2034 13.0867 14.0637 12.2694 C 14.087 12.1492 14.1568 12.0771 14.2499 12.1973 C 14.3198 12.2934 14.3431 12.4376 14.4129 12.5578 C 14.8088 13.4953 15.1348 14.4809 15.5539 15.4184 C 15.973 15.9232 16.3921 16.4281 16.8345 16.9088 C 16.9277 17.029 17.0674 17.1252 17.0674 17.2935 C 16.9975 17.606 16.8345 17.8944 16.7647 18.1829 C 16.6948 18.3752 16.7181 18.5915 16.7181 18.8079 C 16.6948 19.0483 16.9975 19.1685 16.9044 19.4329 C 16.6017 19.2165 16.299 19.0002 15.973 18.7598 C 15.5073 18.5915 15.1813 18.231 14.7855 17.9665 C 14.4362 17.5338 14.0171 17.1733 13.6911 16.7165 C 13.4583 16.38 13.2021 16.0675 12.8529 15.8271 C 12.5502 15.6107 12.2242 15.6107 11.8982 15.7069 Z " stroke-width="0.023664568508236814"/>
                  <path id="ID0.36677903681993484" fill="rgb(242,0,0)" stroke="none" d="M 4.8896 7.5818 L 4.8896 7.5818 C 4.4472 7.4376 4.1445 7.077 3.7719 6.8366 C 2.631 5.9953 1.49 5.1299 0.3491 4.2645 C 0.3025 4.2405 0.2793 4.1924 0.2327 4.1443 C 0.5354 3.5914 0.8614 3.0866 1.3969 2.7501 C 2.3749 2.1251 3.3062 1.4279 4.2609 0.8029 C 4.7732 0.4424 5.4018 0.3943 5.984 0.1779 C 6.0538 0.1299 6.1702 0.226 6.2634 0.2741 C 7.7303 1.0193 9.1739 1.7885 10.6408 2.5578 C 10.7573 2.6299 10.897 2.678 11.0134 2.726 C 11.1531 2.8222 11.3161 2.9183 11.4558 3.0145 C 11.4791 3.1347 11.3627 3.1587 11.2695 3.1828 C 10.1519 3.7597 9.0342 4.3126 7.9166 4.8895 C 7.4742 5.0818 7.1715 5.4424 6.8688 5.7789 C 6.3099 6.3318 5.7278 6.8607 5.1923 7.4136 C 5.0991 7.5097 5.0293 7.5818 4.8896 7.5818 Z " stroke-width="0.023664568508236814"/>
                  <path id="ID0.3351324344985187" fill="rgb(38,38,38)" stroke="none" d="M 11.8982 15.7069 L 11.8982 15.7069 C 12.2009 15.4184 12.5036 15.5386 12.8063 15.6829 C 13.1789 15.8992 13.4816 16.2117 13.7377 16.5963 C 14.0404 17.1011 14.4828 17.4617 14.8553 17.9185 C 14.5992 18.3031 14.2732 18.5194 13.8541 18.6396 C 13.2254 18.6637 12.8529 18.231 12.4803 17.8223 C 12.1543 17.4136 11.9448 16.9809 11.8284 16.4761 C 11.7818 16.2358 11.8051 15.9473 11.8982 15.7069 Z " stroke-width="0.023664568508236814"/>
                  <path id="ID0.5928625375963748" fill="rgb(38,38,38)" stroke="none" d="M 2.4214 8.2068 L 2.4214 8.2068 C 2.7241 8.0145 3.0035 8.1347 3.2597 8.3511 C 3.4925 8.5434 3.7021 8.7838 3.8418 9.0722 C 4.1445 9.6732 4.6567 10.1059 5.006 10.6347 C 4.843 10.9713 4.5403 11.1396 4.1678 11.2117 C 3.5158 11.2357 3.1432 10.779 2.7707 10.2982 C 2.5146 9.9617 2.305 9.553 2.2351 9.1203 C 2.142 8.7597 2.142 8.4472 2.4214 8.2068 Z " stroke-width="0.023664568508236814"/>
                  <path id="ID0.5147991999983788" fill="rgb(146,145,145)" stroke="none" d="M 14.0171 18.7117 L 14.0171 18.7117 C 13.9472 18.6877 13.9007 18.6637 13.8541 18.6396 Z " stroke-width="0.023664568508236814"/>
                  <path id="ID0.4724537907168269" fill="rgb(146,145,145)" stroke="none" d="M 15.973 18.7598 L 15.973 18.7598 Z " stroke-width="0.023664568508236814"/>
                  <path id="ID0.17520350078120828" fill="none" stroke="none" stroke-width="0" stroke-linejoin="round" d="M 1167 1082 L 1167 1082 Z " transform="matrix(0.023284487426280975,6.5995196182815084e-34,-6.3924760330158365e-34,0.024038640782237053,-11.2,-7.25)"/>
                  <path id="ID0.33534536231309175" fill="rgb(72,70,70)" stroke="none" d="M 16.9044 19.4329 L 16.9044 19.4329 C 16.8578 19.2165 16.625 19.0964 16.625 18.856 C 16.6948 18.7838 16.788 18.7358 16.9044 18.7117 C 17.4399 18.5675 17.9522 18.3992 18.4877 18.255 C 18.6274 18.231 18.7671 18.1588 18.9068 18.279 C 18.6507 18.5194 18.348 18.6637 18.0686 18.856 C 17.7659 19.0242 17.5098 19.2165 17.2071 19.4089 C 17.1139 19.4569 17.0208 19.5771 16.9044 19.4329 Z " stroke-width="0.023664568508236814"/>
                  <path id="ID0.20975186489522457" fill="rgb(146,145,145)" stroke="none" d="M 5.006 10.6347 L 5.006 10.6347 C 5.3786 10.8271 5.6813 11.0915 5.984 11.3559 Z " stroke-width="0.023664568508236814"/>
                  <path id="ID0.5071036396548152" fill="rgb(236,0,0)" stroke="none" d="M 12.8994 3.6395 L 12.8994 3.6395 C 13.8308 4.3366 14.7622 5.0097 15.7169 5.6828 C 16.6482 6.3559 17.6029 7.053 18.5343 7.7501 C 18.6274 7.7982 18.7671 7.8703 18.7671 7.9905 C 18.6041 8.4953 18.2782 8.8319 17.9056 9.1684 C 17.5563 9.5049 17.1605 9.8415 16.7647 10.1299 C 15.973 10.6347 15.158 11.0915 14.2732 11.3319 C 14.1568 11.3799 14.0171 11.4521 13.8774 11.428 C 13.3418 11.1396 12.8762 10.7309 12.4105 10.3703 C 11.0833 9.4088 9.7328 8.4232 8.4055 7.4376 C 8.2891 7.3655 8.1727 7.2934 8.0796 7.1491 C 8.0563 6.9568 8.1727 6.8607 8.2658 6.7645 C 8.8712 6.2116 9.4533 5.6588 10.0355 5.1059 C 10.1286 5.0097 10.2683 4.9616 10.3847 4.8895 C 11.0833 4.5289 11.8051 4.1443 12.5036 3.7837 C 12.62 3.7116 12.7365 3.6395 12.8994 3.6395 Z " stroke-width="0.023664568508236814"/>
                  <path id="ID0.4422818198800087" fill="rgb(148,148,185)" stroke="none" d="M 16.7647 10.0578 L 16.7647 10.0578 C 17.5098 9.4569 18.2316 8.8319 18.7671 7.9905 C 19.0465 7.9424 19.163 8.2068 19.3027 8.3511 C 20.1642 9.0482 21.0024 9.7453 21.8407 10.4424 C 21.9571 10.5626 22.0968 10.6588 22.0735 10.8511 C 22.1667 10.9713 22.0968 11.0674 22.0502 11.1876 C 21.8873 11.6203 21.7243 12.0771 21.5147 12.4857 C 20.9792 13.1828 20.4203 13.8078 19.7218 14.3127 C 19.6519 14.3367 19.6287 14.3127 19.5821 14.2886 C 19.3027 13.6636 18.837 13.1588 18.4412 12.6059 C 17.9755 11.9328 17.4632 11.3319 16.9975 10.6588 C 16.8811 10.4905 16.6948 10.3222 16.7647 10.0578 Z " stroke-width="0.023664568508236814"/>
                  <path id="ID0.223691841121763" fill="rgb(200,0,0)" stroke="none" d="M 19.5821 14.2646 L 19.5821 14.2646 C 19.6287 14.2646 19.6752 14.2646 19.6985 14.2646 C 20.0711 14.3607 20.3039 14.2165 20.5368 13.9521 C 20.723 13.6636 20.9559 13.3992 21.1887 13.1828 C 21.375 12.9905 21.3983 12.7261 21.4449 12.4857 C 21.6544 11.9328 21.864 11.404 22.0735 10.8511 C 22.19 10.779 22.2598 10.8511 22.3064 10.9232 C 22.7721 11.4521 23.2145 11.9809 23.6569 12.5098 C 23.7267 12.6059 23.7034 12.7021 23.6569 12.8223 C 23.4473 13.3271 23.3309 13.8559 23.1213 14.3607 C 23.0282 14.6732 22.7954 14.8896 22.5392 15.0819 C 21.538 15.755 20.5833 16.5002 19.5821 17.1973 C 19.4424 17.2694 19.3027 17.3656 19.1397 17.3656 C 18.5809 17.3656 18.0453 17.4377 17.5098 17.3415 C 17.4632 17.3175 17.4166 17.2694 17.4166 17.2454 C 17.4166 16.8367 17.3934 16.4281 17.4632 16.0194 C 17.4865 15.8031 17.696 15.7309 17.8358 15.6348 C 18.0919 15.5146 18.2549 15.3463 18.1617 15.0098 C 18.1617 14.9857 18.1617 14.9617 18.185 14.9617 C 18.6274 14.6492 19.0698 14.3607 19.5821 14.2646 Z " stroke-width="0.023664568508236814"/>
                  <path id="ID0.610075845848769" fill="rgb(208,208,253)" stroke="none" d="M 12.8994 3.6395 L 12.8994 3.6395 C 12.1311 4.0482 11.3627 4.4809 10.571 4.8655 C 10.1984 5.0337 9.8725 5.3462 9.5698 5.6347 C 9.1041 6.0674 8.6384 6.5241 8.1727 6.9568 C 8.1261 7.0049 8.0796 7.077 8.1261 7.1491 C 7.7769 7.1732 7.4974 7.4376 7.1249 7.3415 C 6.8688 7.1732 6.5893 7.3655 6.3099 7.3895 C 5.8675 7.4376 5.4484 7.5338 5.006 7.6299 C 4.9594 7.654 4.9129 7.654 4.8896 7.5818 C 5.495 6.9809 6.1469 6.428 6.7058 5.803 C 7.3577 5.0818 8.1494 4.6251 8.9877 4.2405 C 9.8026 3.8318 10.6176 3.4232 11.4558 3.0145 C 11.9448 3.1587 12.4338 3.3991 12.8994 3.6395 Z " stroke-width="0.023664568508236814"/>
                  <path id="ID0.7148164957761765" fill="rgb(171,0,0)" stroke="none" d="M 19.2328 17.2694 L 19.2328 17.2694 C 19.8382 16.9329 20.3738 16.4761 20.9792 16.0915 C 21.4681 15.755 21.9571 15.3463 22.4461 15.0098 C 22.7255 14.8415 22.9351 14.6492 23.0515 14.3607 C 23.3309 14.0002 23.5172 13.5915 23.7966 13.2309 C 23.8664 13.1107 23.913 12.9905 24.0527 12.9905 C 24.1226 13.303 24.0527 13.5915 23.9363 13.88 C 23.6569 14.3607 23.424 14.9136 23.0515 15.3463 C 21.7475 16.2838 20.4436 17.1973 19.163 18.1588 C 19.0698 18.2069 18.9767 18.231 18.9068 18.279 C 18.2316 18.3992 17.5796 18.6396 16.9277 18.8079 C 16.8345 18.8319 16.7181 18.856 16.625 18.856 C 16.625 18.6156 16.5551 18.3752 16.6715 18.1348 C 17.3468 17.9906 17.9755 17.654 18.6274 17.4617 C 18.8137 17.3896 19.0233 17.3175 19.2328 17.2694 Z " stroke-width="0.023664568508236814"/>
                  <path id="ID0.38432395039126277" fill="rgb(123,25,25)" stroke="none" d="M 24.0527 12.9905 L 24.0527 12.9905 C 23.7267 13.3992 23.4939 13.88 23.1912 14.2886 C 23.1446 14.3367 23.1213 14.4329 23.0515 14.3607 C 23.261 13.7357 23.4473 13.1107 23.6569 12.5098 C 23.8432 12.63 23.9829 12.7982 24.0527 12.9905 Z " stroke-width="0.023664568508236814"/>
                  <path id="ID0.377463539596647" fill="rgb(93,68,68)" stroke="none" d="M 23.0515 15.3463 L 23.0515 15.3463 C 23.3309 14.8415 23.5637 14.3127 23.9363 13.88 C 23.7966 14.4569 23.5637 14.9857 23.0515 15.3463 Z " stroke-width="0.023664568508236814"/>
                  <path id="ID0.5684583224356174" fill="rgb(238,238,254)" stroke="none" d="M 7.1249 7.3415 L 7.1249 7.3415 C 7.4742 7.3415 7.7536 7.029 8.1261 7.1491 C 9.5698 8.2068 11.0134 9.2645 12.4803 10.3463 C 12.946 10.6828 13.4117 11.0434 13.8774 11.3799 C 14.1102 11.6203 14.087 11.9328 14.1102 12.2694 C 14.3198 13.1107 14.5294 14.0002 14.7622 14.9617 C 11.5489 12.5819 8.4055 10.2742 5.2156 7.8943 C 5.8908 7.702 6.5195 7.4857 7.1249 7.3415 Z " stroke-width="0.023664568508236814"/>
                  <path id="ID0.6117870477028191" fill="rgb(168,168,210)" stroke="none" d="M 14.1102 12.2694 L 14.1102 12.2694 C 13.9705 11.9809 13.9705 11.6684 13.8774 11.3799 C 14.7622 11.1155 15.6237 10.7309 16.4154 10.2261 C 16.5318 10.154 16.625 10.1059 16.7647 10.0578 C 17.1372 10.8511 17.7659 11.5001 18.2316 12.2213 C 18.6274 12.7742 19.0465 13.303 19.4657 13.8319 C 19.5588 13.9521 19.6054 14.0963 19.5821 14.2646 C 19.1164 14.505 18.6507 14.7454 18.2083 14.9857 C 18.0919 15.1781 17.9056 15.2261 17.7426 15.2502 C 17.0907 15.3704 16.4387 15.4665 15.7634 15.5386 C 15.6936 15.5627 15.6004 15.5386 15.5073 15.4906 C 15.158 14.8896 14.995 14.2165 14.7156 13.5675 C 14.5294 13.1107 14.3664 12.678 14.2034 12.2213 C 14.1801 12.2213 14.1801 12.2213 14.1801 12.1973 C 14.1568 12.2213 14.1335 12.2213 14.1102 12.2694 Z " stroke-width="0.023664568508236814"/>
                  <path id="ID0.5621068137697875" fill="rgb(204,0,0)" stroke="none" d="M 15.5073 15.4906 L 15.5073 15.4906 C 16.1127 15.3944 16.7414 15.2982 17.3468 15.2021 C 17.6262 15.1781 17.9056 15.0819 18.2083 14.9857 C 18.3713 15.2021 18.3247 15.5386 18.0453 15.6348 C 17.5331 15.8271 17.4399 16.1636 17.5098 16.6444 C 17.5563 16.8608 17.4632 17.0531 17.4399 17.2694 C 17.3002 17.4136 17.1605 17.4136 17.0208 17.2694 C 16.5318 16.6684 16.0196 16.0915 15.5073 15.4906 Z " stroke-width="0.023664568508236814"/>
                  <path id="ID0.3554665087722242" fill="rgb(122,26,26)" stroke="none" d="M 17.0208 17.2694 L 17.0208 17.2694 C 17.1605 17.2694 17.3002 17.2694 17.4399 17.2694 C 18.0453 17.2694 18.6274 17.2694 19.2328 17.2694 C 18.511 17.606 17.7659 17.8463 17.0208 18.1588 C 16.9044 18.1829 16.788 18.255 16.6715 18.1348 C 16.788 17.8463 16.9044 17.5579 17.0208 17.2694 Z " stroke-width="0.023664568508236814"/>
                  <path id="ID0.9783568484708667" fill="#C80000" stroke="none" d="M 21.4449 12.4857 L 21.4449 12.4857 C 21.5846 12.7742 21.4449 12.9905 21.3051 13.1828 C 21.0024 13.5194 20.6997 13.8078 20.4436 14.1684 C 20.2108 14.4329 19.9779 14.4809 19.6985 14.2646 C 20.3505 13.7357 20.9093 13.1107 21.4449 12.4857 Z " stroke-width="0.023664568508236814"/>
                </g>
              </g>
            </g>
          </g>
        </g>
      </g>
    </g>
  </g>
<defs/></svg>