<svg xmlns="http://www.w3.org/2000/svg" xmlns:xlink="http://www.w3.org/1999/xlink" width="87.043" height="67" version="1.1" viewBox="-0.447 0.19 87.043 67"><path id="ID0.8299277680926025" fill="#FFA533" stroke="none" stroke-width=".046" d="M 43.0745 0.7024 L 86.083 33.6897 L 43.0745 66.677 L 0.066 33.6897 L 43.0745 0.7024 L 43.0745 0.7024 Z M 0.066 0.7024 L 0.066 0.7024 Z M 86.083 66.677 L 86.083 66.677 Z"/><g id="ID0.09816192463040352"><path id="ID0.5525333690457046" fill="#EA9931" stroke="none" stroke-width="1.026" d="M 28.7807 30.11 C 30.1244 30.11 31.343 30.4547 32.2252 31.0117 C 33.1074 31.5687 33.6531 32.338 33.6531 33.1874 C 33.6531 34.0367 33.1074 34.806 32.2252 35.363 C 31.343 35.92 30.1244 36.2647 28.7807 36.2647 C 27.4369 36.2647 26.2183 35.92 25.3361 35.363 C 24.454 34.806 23.9082 34.0367 23.9082 33.1874 C 23.9082 32.338 24.454 31.5687 25.3361 31.0117 C 26.2183 30.4547 27.4369 30.11 28.7807 30.11 Z"/><g id="ID0.9081021463498473"><g id="ID0.6377148642204702"><g id="ID0.5078547070734203"><g id="container-id1"><g id="id1"><g id="ID0.31376621779054403"><g id="ID0.3674742351286113"><g id="id6"><path id="ID0.05033268453553319" fill="none" stroke="none" stroke-width=".022" d="M 27.0859 16.3265 L 32.8184 16.3265 L 32.8184 33.9683 L 27.0859 33.9683 L 27.0859 16.3265 Z"/><path id="ID0.21714742435142398" fill="#124802" stroke="none" stroke-width=".022" d="M 31.8186 17.9263 L 31.8186 17.9263 C 32.4851 18.1263 32.8184 18.5484 32.8184 19.2372 C 32.7962 21.148 32.774 23.0589 32.774 24.9697 C 32.774 25.8807 32.374 26.5472 31.6852 27.0805 C 31.2409 27.3915 30.7965 27.7026 30.3521 27.9915 C 30.1521 28.1248 30.0633 28.2581 30.0633 28.5247 C 30.0633 29.9023 30.0633 31.2576 30.041 32.6352 C 30.041 33.4573 29.6855 33.8573 28.8412 33.9461 C 28.8634 31.8798 28.8634 29.8134 28.8634 27.7248 C 28.8634 26.6583 28.8857 25.5474 28.8634 24.4587 C 28.8412 23.17 28.8412 21.859 28.8857 20.5481 C 28.9079 19.6371 28.8412 18.7484 29.1967 17.8596 C 29.3967 17.393 29.1967 16.8598 28.9968 16.3487 C 29.73 16.5932 30.1077 17.1264 30.1077 17.8819 C 30.0855 18.7484 30.0855 19.6149 30.0855 20.4592 C 30.0633 20.5037 30.041 20.5703 30.041 20.6148 C 30.041 22.0368 30.041 23.481 30.041 24.903 C 30.0633 25.1252 29.8855 25.4141 30.2855 25.4585 C 30.6187 25.5029 30.7298 25.3474 30.7298 24.9252 C 30.752 23.3477 30.7076 21.7924 30.7965 20.2148 C 30.8187 19.5927 31.0631 19.215 31.6186 18.9706 C 32.0852 18.7706 32.1296 18.6817 31.9296 18.2151 C 31.9074 18.1263 31.863 18.0152 31.8186 17.9263 Z"/><path id="ID0.5809499896131456" fill="#389600" stroke="none" stroke-width=".022" d="M 27.6414 33.7239 L 27.6414 33.7239 C 27.3081 33.5462 27.1081 33.2796 27.1081 32.8796 C 27.1081 27.8581 27.1081 22.8367 27.0859 17.8152 C 27.0859 17.2153 27.3526 16.7709 27.8636 16.5043 C 28.3524 17.082 28.308 17.7041 27.9747 18.3485 C 27.7969 18.7262 27.6192 19.0817 27.6414 19.5483 C 27.6636 20.4815 27.6414 21.4147 27.6414 22.3479 C 27.6414 22.8589 27.7303 23.3477 27.6858 23.8365 C 27.597 24.7919 27.6636 25.7251 27.6636 26.6805 C 27.6192 29.0135 27.6414 31.3687 27.6414 33.7239 Z"/><path id="ID0.7803530660457909" fill="#277300" stroke="none" stroke-width=".022" d="M 28.2635 16.3487 L 28.2635 16.3487 C 28.4191 16.3487 28.5746 16.371 28.7301 16.371 C 28.7301 16.4376 28.7301 16.5265 28.7746 16.5932 C 29.1745 17.3486 28.9301 18.104 28.6413 18.815 C 28.5524 19.0595 28.4857 19.2594 28.5302 19.5261 C 28.5746 19.6371 28.5968 19.7705 28.5524 19.8816 C 28.3746 20.7481 28.5746 21.6369 28.5079 22.5256 C 28.4635 22.9922 28.5524 23.4588 28.5302 23.9254 C 28.4635 24.7697 28.5302 25.5918 28.5079 26.4361 C 28.4635 27.6804 28.5524 28.9469 28.5302 30.1911 C 28.5302 31.4354 28.5524 32.7019 28.4857 33.9461 C 28.3302 33.9683 28.1524 33.9906 28.0191 33.8795 C 28.0191 32.4797 27.9969 31.0799 28.0191 29.7023 C 28.0413 27.7026 27.9969 25.7251 28.0413 23.7254 C 28.0636 22.7034 28.0636 21.6591 28.0191 20.637 C 27.9747 19.7705 28.0191 18.9261 28.4191 18.1263 C 28.7301 17.5264 28.4635 16.9264 28.2635 16.3487 Z"/><path id="ID0.8207805049605668" fill="#328A00" stroke="none" stroke-width=".022" d="M 28.2635 16.3487 L 28.2635 16.3487 C 28.4857 16.9264 28.7301 17.5264 28.4413 18.1263 C 28.0413 18.9261 27.9969 19.7705 28.0413 20.637 C 28.0858 21.6591 28.0858 22.7034 28.0636 23.7254 C 28.0191 25.7251 28.0636 27.7026 28.0413 29.7023 C 28.0191 31.0799 28.0413 32.4797 28.0413 33.8795 C 27.8858 33.8573 27.7525 33.7906 27.6414 33.7239 C 27.6414 31.3687 27.6192 29.0135 27.6636 26.6805 C 27.6636 25.7251 27.597 24.7919 27.6858 23.8365 C 27.7303 23.3477 27.6414 22.8589 27.6414 22.3479 C 27.6414 21.4147 27.6636 20.4815 27.6414 19.5483 C 27.6192 19.0817 27.7969 18.7262 27.9747 18.3485 C 28.308 17.7041 28.3524 17.082 27.8636 16.5043 C 27.9969 16.4154 28.108 16.3265 28.2635 16.3487 Z"/><path id="ID0.7685509459115565" fill="#1E6200" stroke="none" stroke-width=".022" d="M 28.4635 33.9461 L 28.4635 33.9461 C 28.5302 32.7019 28.5079 31.4354 28.5079 30.1911 C 28.5302 28.9469 28.4413 27.6804 28.4857 26.4361 C 28.5079 25.5918 28.4413 24.7697 28.5079 23.9254 C 28.5524 23.4588 28.4413 22.9922 28.4857 22.5256 C 28.5524 21.6369 28.3524 20.7481 28.5524 19.8816 C 28.5746 19.7705 28.5524 19.6371 28.5302 19.5261 C 28.4635 19.2594 28.5302 19.0595 28.6413 18.815 C 28.9079 18.104 29.1523 17.3486 28.7523 16.5932 C 28.7301 16.5265 28.7301 16.4376 28.7079 16.371 C 28.7523 16.3487 28.819 16.3487 28.8857 16.3487 C 28.9301 16.3487 28.9745 16.3487 28.9968 16.3487 C 28.9968 16.3487 29.019 16.3487 29.019 16.3487 C 29.1967 16.8598 29.4189 17.393 29.2189 17.8596 C 28.8634 18.7484 28.9301 19.6371 28.9079 20.5481 C 28.8634 21.859 28.8634 23.17 28.8857 24.4587 C 28.9079 25.5474 28.8857 31.8798 28.8634 33.9461 C 28.8634 33.9461 28.8634 33.9461 28.8634 33.9461 C 28.7301 33.9461 28.619 33.9461 28.4857 33.9461 L 28.4635 33.9461 Z"/><path id="ID0.8900318490341306" fill="#389600" stroke="none" stroke-width=".022" d="M 30.1744 24.9252 L 30.1744 24.9252 C 30.2632 24.6586 30.2188 24.3698 30.2188 24.0809 C 30.241 22.459 30.241 20.837 30.241 19.215 C 30.241 18.5706 30.5743 18.1485 31.1964 17.9485 C 31.152 18.0374 31.1298 18.104 31.1742 18.2151 C 31.3742 18.6151 31.3075 18.9484 30.952 19.2594 C 30.6632 19.4816 30.5743 19.8149 30.5743 20.1926 C 30.5743 21.7702 30.5743 23.3477 30.5743 24.9252 C 30.5743 25.0363 30.5965 25.1697 30.5299 25.2808 C 30.3743 25.1697 30.1966 25.1474 30.1744 24.9252 Z"/><path id="ID0.9266551043838263" fill="#277300" stroke="none" stroke-width=".022" d="M 30.1744 24.9252 L 30.1744 24.9252 C 30.1966 25.1474 30.3743 25.1697 30.5299 25.2808 C 30.5965 25.1697 30.5743 25.0363 30.5743 24.9252 C 30.5743 23.3477 30.5743 21.7702 30.5743 20.1926 C 30.5743 19.8149 30.6632 19.4816 30.952 19.2594 C 31.3075 18.9484 31.3742 18.6151 31.1742 18.2151 C 31.1298 18.104 31.152 18.0374 31.1964 17.9485 C 31.3964 17.8596 31.6186 17.8819 31.8186 17.9485 C 31.863 18.0374 31.9074 18.1485 31.9296 18.2374 C 32.1296 18.704 32.0852 18.7928 31.6186 18.9928 C 31.0631 19.2372 30.8187 19.6149 30.7965 20.2371 C 30.7076 21.7924 30.752 23.3699 30.7298 24.9252 C 30.7298 25.3696 30.6187 25.5029 30.2855 25.4807 C 29.8855 25.4363 30.0633 25.1474 30.041 24.9252 C 30.0633 24.9252 30.0633 24.9252 30.0855 24.9252 C 30.1077 24.9252 30.1521 24.9252 30.1744 24.9252 Z"/><path id="ID0.38920240849256516" fill="#389600" stroke="none" stroke-width=".022" d="M 30.1077 24.903 L 30.1077 24.903 C 30.0855 24.903 30.0633 24.903 30.0633 24.903 C 30.0633 23.481 30.041 22.0368 30.041 20.6148 C 30.041 20.5703 30.0855 20.5037 30.1077 20.4592 C 30.1077 21.9479 30.1077 23.4144 30.1077 24.903 Z"/><path id="ID0.5417972006835043" fill="#124802" stroke="none" stroke-width=".022" d="M 28.4857 33.9461 L 28.4857 33.9461 C 28.619 33.9461 28.7301 33.9461 28.8634 33.9461 C 28.7301 33.9461 28.619 33.9461 28.4857 33.9461 Z"/><path id="ID0.10408595623448491" fill="#124802" stroke="none" stroke-width=".022" d="M 28.9968 16.3487 L 28.9968 16.3487 C 28.9745 16.3487 28.9301 16.3487 28.8857 16.3487 C 28.9301 16.3265 28.9745 16.3265 28.9968 16.3487 Z"/></g></g></g></g></g></g></g></g></g></svg>