<svg version="1.1" xmlns="http://www.w3.org/2000/svg" xmlns:xlink="http://www.w3.org/1999/xlink" width="305.75675" height="189.02371" viewBox="0,0,305.75675,189.02371"><g transform="translate(-87.12163,-77.43764)"><g data-paper-data="{&quot;isPaintingLayer&quot;:true}" fill-rule="nonzero" stroke="none" stroke-linecap="butt" stroke-linejoin="miter" stroke-miterlimit="10" stroke-dasharray="" stroke-dashoffset="0" style="mix-blend-mode: normal"><path d="M87.12164,266.46135v-189.02371h305.75675v189.02371z" fill="#000000" stroke-width="0"/><g fill="#ffffff" stroke-width="1"><path d="M186.64958,226.41696c0,-0.62396 -0.02062,-1.6829 -0.06184,-3.17681c-0.04255,-1.49284 -0.06343,-2.2841 -0.06264,-2.37378h5.79152v2.00197c0.57384,-0.84445 1.37948,-1.50507 2.31997,-1.90239c0.98151,-0.4075 2.03543,-0.61183 3.09811,-0.60067c0.91251,-0.0321 1.81012,0.23774 2.55366,0.7677c0.70103,0.60923 1.30945,1.31747 1.80603,2.10235c0.61896,-0.88505 1.41737,-1.62983 2.34326,-2.18586c0.93404,-0.48319 1.97639,-0.71875 3.02745,-0.68416c0.47016,-0.00732 0.93942,0.04311 1.39728,0.15016c0.43898,0.12069 0.85745,0.30638 1.24149,0.55089c0.89863,0.53543 1.60497,1.34126 2.01803,2.3023c0.31211,1.01496 0.44871,2.07574 0.40393,3.13666v5.63893c0,0.73477 0.02597,1.67485 0.0779,2.82026c0.05139,1.14594 0.07736,1.80764 0.0779,1.98511h-5.82282v-8.77561c0.00488,-0.69562 -0.2015,-1.37635 -0.59183,-1.95216c-0.32516,-0.55035 -0.91787,-0.88691 -1.55709,-0.88415c-0.95481,0 -1.61918,0.58943 -1.99314,1.76829c-0.2776,0.99884 -0.40347,2.03374 -0.37341,3.07001v2.26858c0,0.48985 0.03105,1.22409 0.09315,2.20273c0.06264,0.9789 0.09395,1.71287 0.09396,2.20192h-5.82281v-8.74989c0.00149,-0.6828 -0.21702,-1.3479 -0.62316,-1.89677c-0.3381,-0.5344 -0.92472,-0.86024 -1.55708,-0.86487c-0.89381,-0.00122 -1.67512,0.60269 -1.89918,1.46795c-0.29476,0.86972 -0.43183,1.7851 -0.40473,2.70302v4.03766l0.09315,3.40327h-5.79152c0,-0.98051 0.02088,-2.62433 0.06264,-4.93145c0.04096,-2.30712 0.06157,-3.53898 0.06184,-3.69557z"/><path d="M226.10194,220.79973l5.85413,-0.03371c-0.06264,0.57899 -0.10412,1.19064 -0.12447,1.83494c-0.02088,0.64564 -0.03132,1.37988 -0.03131,2.20273c0,1.4013 0.02061,3.7036 0.06183,6.90691c0.04176,3.20331 0.06264,4.90521 0.06264,5.10572h-5.91596l0.09315,-1.30172c-0.66336,0.57271 -1.4109,1.03992 -2.21638,1.38524c-0.78174,0.32438 -1.62057,0.48876 -2.46693,0.48343c-2.02829,0.10529 -3.99004,-0.73949 -5.30726,-2.28544c-1.33002,-1.70497 -2.00546,-3.82988 -1.904,-5.98987c-0.08732,-2.22955 0.56983,-4.42475 1.86786,-6.23959c1.27696,-1.73293 3.32973,-2.72035 5.48069,-2.63632c0.83885,-0.0025 1.66796,0.17982 2.42838,0.53402c0.77093,0.3745 1.48408,0.85778 2.11761,1.43503zM223.42381,232.3779c0.87298,0.02814 1.70863,-0.35475 2.25734,-1.03431c0.58386,-0.72615 0.88789,-1.63764 0.85685,-2.56889c0.0317,-0.88832 -0.26797,-1.7567 -0.84078,-2.43641c-0.55191,-0.6413 -1.36518,-0.99727 -2.21075,-0.96766c-0.90745,-0.02808 -1.78431,0.32966 -2.41313,0.98453c-0.64615,0.68915 -0.98843,1.60895 -0.94999,2.55285c-0.05578,0.93514 0.26359,1.85392 0.88735,2.55285c0.63989,0.63102 1.51565,0.96383 2.41312,0.91705z"/><path d="M245.90561,226.6386c-0.43855,-0.37485 -0.92554,-0.68898 -1.44788,-0.93393c-0.47341,-0.2193 -0.98877,-0.33328 -1.51051,-0.33406c-0.83655,0.03182 -1.62138,0.41316 -2.16338,1.05117c-0.62956,0.59609 -0.99424,1.41945 -1.01262,2.28624v0.30034c0.07171,0.87556 0.42081,1.70544 0.99656,2.36896c0.64146,0.53888 1.46976,0.80266 2.30471,0.73398c0.61357,-0.03167 1.21568,-0.17879 1.77472,-0.43364c0.35253,-0.1333 0.70534,-0.27785 1.0584,-0.43364v5.072c-0.64274,0.32515 -1.31532,0.58761 -2.0084,0.78376c-0.66373,0.18733 -1.35004,0.28271 -2.0397,0.28347c-2.1162,0.06654 -4.16624,-0.74221 -5.66703,-2.23565c-1.56829,-1.5841 -2.41322,-3.74525 -2.33523,-5.97298c-0.09019,-2.35008 0.71681,-4.64648 2.25734,-6.42349c1.48438,-1.67092 3.63562,-2.59422 5.86939,-2.51912c0.65626,0.00937 1.30932,0.09343 1.94656,0.25054c0.67794,0.15444 1.33987,0.37221 1.97708,0.65045z"/><path d="M250.70054,212.69066c0.8252,-0.01139 1.61477,0.33578 2.16419,0.9516c0.5931,0.63713 0.91182,1.48197 0.88735,2.35209c0.02969,0.8591 -0.29696,1.69228 -0.90262,2.3023c-0.57152,0.58796 -1.36038,0.91396 -2.18024,0.901c-0.81122,0.01685 -1.59165,-0.3105 -2.14813,-0.901c-0.58446,-0.60782 -0.89891,-1.42578 -0.8721,-2.26858c-0.00974,-0.86575 0.31371,-1.70211 0.90342,-2.33603c0.53243,-0.63541 1.31912,-1.00214 2.14812,-1.00138zM247.83611,220.86638h5.76018v16.08321h-5.85409l0.09395,-8.37567z"/><path d="M264.46378,220.23198c2.3138,-0.09009 4.57824,0.68457 6.35202,2.17302c1.81463,1.6268 2.79859,3.98537 2.67812,6.41947c0,2.80901 -0.88227,4.98202 -2.64681,6.51904c-1.82041,1.48935 -4.1279,2.25175 -6.47729,2.14009c-2.3075,0.1058 -4.57854,-0.60441 -6.41465,-2.00598c-1.86153,-1.56855 -2.87652,-3.92158 -2.73993,-6.35202c-0.11358,-2.49406 0.89096,-4.90886 2.73993,-6.58651c1.79883,-1.56595 4.12511,-2.39055 6.50861,-2.30712zM264.36982,232.47829c0.91499,0.03654 1.79514,-0.35355 2.38261,-1.05599c0.60806,-0.75206 0.92326,-1.69883 0.88735,-2.66528c0.03415,-0.91308 -0.29007,-1.80332 -0.90341,-2.48058c-0.61299,-0.63584 -1.4629,-0.98798 -2.34597,-0.97199c-0.88307,0.01599 -1.71966,0.39868 -2.30923,1.05631c-0.62845,0.69097 -0.96815,1.59655 -0.94919,2.53037c-0.03264,0.93544 0.28363,1.84961 0.88735,2.5649c0.58743,0.68025 1.45235,1.05641 2.35049,1.02227z"/><path d="M282.39878,213.35799h7.22412c-2.1168,2.40269 -3.18564,3.61527 -3.20652,3.63776c-1.05921,1.24553 -2.06622,2.53573 -3.02102,3.87061c0.64044,-0.16956 1.29936,-0.25938 1.96182,-0.26741c1.96975,-0.06483 3.86353,0.76285 5.15389,2.25251c1.34716,1.58262 2.05254,3.61253 1.97707,5.68951c0.09676,2.48114 -0.89249,4.88128 -2.70944,6.57365c-1.76086,1.59399 -4.07116,2.44315 -6.44517,2.36896c-2.3123,0.10609 -4.58667,-0.61568 -6.41465,-2.0357c-1.84438,-1.57373 -2.8468,-3.91936 -2.70944,-6.34c0.00559,-2.05171 0.41829,-4.08192 1.21419,-5.97298c0.80614,-1.85706 1.84182,-3.60578 3.08284,-5.20528c1.21736,-1.59029 2.51655,-3.11622 3.89233,-4.57163zM279.9704,228.97463c-0.02683,0.87101 0.32528,1.71086 0.96525,2.30231c0.61967,0.59151 1.44735,0.91521 2.3039,0.901c0.90564,0.0302 1.77814,-0.34238 2.38262,-1.01744c0.6288,-0.72422 0.9574,-1.66118 0.91867,-2.61951c0.04102,-0.91659 -0.29704,-1.80966 -0.93474,-2.46934c-0.63647,-0.62848 -1.50395,-0.96665 -2.39785,-0.93474c-0.92023,-0.03518 -1.80109,0.37492 -2.36655,1.10176c-0.59764,0.78401 -0.90549,1.75071 -0.8713,2.73595z"/><path d="M190.33471,254.34575v4.32595h-3.42415v-10.87472c0,-0.89378 0,-1.97467 -0.01766,-2.66929h3.34786c0.05093,0.36709 0.08016,0.73685 0.08753,1.10739c0.55226,-0.89146 1.54854,-1.40871 2.59541,-1.34749c1.94897,0 3.6233,1.72813 3.6233,4.95714c0,3.66668 -1.9313,5.43575 -4.06336,5.43575c-0.82829,0.07189 -1.63679,-0.27979 -2.14892,-0.93474zM193.03853,249.9917c0,-1.83253 -0.51796,-2.50708 -1.39969,-2.50708c-1.08088,0 -1.41575,0.7942 -1.41575,2.6452c0,1.71127 0.33567,2.59943 1.34107,2.59943c1.01665,0 1.47438,-0.83436 1.47438,-2.73755z"/><path d="M198.0824,247.97367c0,-0.94839 -0.00642,-1.96343 -0.02409,-2.84596h3.36472c0.04096,0.30754 0.08272,1.17644 0.08272,1.6109c0.44498,-1.17006 1.59519,-1.91835 2.84519,-1.85102v3.36954c-1.94817,-0.08833 -2.82669,0.38706 -2.82669,2.71025v4.073h-3.44182z"/><path d="M215.06741,250.07199c0,3.0925 -1.7996,5.20851 -4.97882,5.20851c-3.2796,0 -4.90736,-2.30713 -4.90736,-5.17156c0,-2.9905 1.69842,-5.22133 5.01898,-5.22133c3.05234,-0.00001 4.8672,2.18184 4.8672,5.18439zM208.70255,250.09047c0,1.88794 0.52037,2.71587 1.43904,2.71587c0.91224,0 1.39889,-0.84078 1.39889,-2.68295c0,-2.04373 -0.47941,-2.74158 -1.41575,-2.74158c-0.85443,0.00002 -1.42218,0.65369 -1.42218,2.70865z"/><path d="M225.94615,241.34219v10.70126c0,0.99499 -0.00643,2.1417 0.01766,2.99694h-3.33019c-0.05301,-0.2891 -0.09958,-0.70346 -0.11724,-0.94518c-0.55099,0.83538 -1.5226,1.29282 -2.51752,1.18528c-2.43075,0 -3.73974,-2.23083 -3.73974,-5.13381c0,-3.01861 1.51533,-5.25908 4.11557,-5.25908c0.80267,-0.09799 1.6013,0.2111 2.12884,0.82395v-4.36936zM219.78445,250.05753c0,1.73537 0.4746,2.63236 1.43986,2.63236c1.30011,0 1.41655,-1.26559 1.41655,-2.62031c0,-1.66228 -0.13973,-2.61789 -1.3756,-2.61789c-0.96763,0 -1.48081,0.83997 -1.48081,2.60585z"/><path d="M236.86262,251.8732c0,0.87852 0,2.222 0.01766,3.16718h-3.37676c-0.04177,-0.23847 -0.05943,-0.78216 -0.07067,-1.04556c-0.53582,0.88425 -1.5288,1.38573 -2.55847,1.29209c-1.98588,0 -3.0411,-1.29128 -3.0411,-3.64177v-6.51744h3.43619v5.90472c0,0.901 0.2377,1.5338 1.01503,1.5338c0.81187,0 1.13549,-0.48664 1.13549,-1.95539v-5.48316h3.44262z"/><path d="M247.71003,251.6066c-0.27547,1.78596 -1.35793,3.6739 -4.5484,3.6739c-3.25952,0 -4.68893,-2.28866 -4.68893,-5.10731c0,-2.97765 1.72573,-5.28558 4.8118,-5.28558c3.48759,0 4.3653,2.51832 4.42553,3.71564h-3.27879c-0.09155,-0.69704 -0.37422,-1.24792 -1.1315,-1.24792c-0.86648,0 -1.30574,0.87611 -1.30574,2.69018c0,2.04132 0.47941,2.79296 1.28727,2.79296c0.70105,0 1.0062,-0.56855 1.15718,-1.23186z"/><path d="M248.44401,245.12769h1.33384v-2.56889h3.40488v2.56889h1.62374v2.4862h-1.62374v4.25288c0,0.61352 0.18068,0.8456 0.90422,0.8456c0.16001,0.00211 0.32003,-0.00405 0.47941,-0.01847v2.2766c-0.65439,0.17118 -1.32985,0.24824 -2.00598,0.22887c-2.18747,0 -2.80099,-1.14433 -2.80099,-3.017v-4.56847h-1.31537z"/><path d="M256.0592,241.34219h3.44182v2.56889h-3.44182zM256.0592,245.12769h3.44182v9.91268h-3.44182z"/><path d="M270.92661,250.07199c0,3.0925 -1.79961,5.20851 -4.97883,5.20851c-3.2796,0 -4.90735,-2.30713 -4.90735,-5.17156c0,-2.9905 1.69842,-5.22133 5.01898,-5.22133c3.05234,-0.00001 4.8672,2.18184 4.8672,5.18439zM264.56175,250.09047c0,1.88794 0.52037,2.71587 1.43904,2.71587c0.91224,0 1.39889,-0.84078 1.39889,-2.68295c0,-2.04373 -0.47941,-2.74158 -1.41575,-2.74158c-0.85443,0.00002 -1.42218,0.65369 -1.42218,2.70865z"/><path d="M272.46603,247.69821c0,-0.85844 -0.00562,-1.78514 -0.02329,-2.57054h3.35993c0.05483,0.36215 0.09022,0.72699 0.106,1.09293c0.572,-0.88707 1.57797,-1.39665 2.63154,-1.33304c1.8526,0 3.02423,1.34106 3.02423,3.767v6.38575h-3.43619v-5.95849c0,-0.95481 -0.25697,-1.49204 -1.04956,-1.49204c-0.7187,0 -1.17002,0.40634 -1.17002,1.7972v5.65337h-3.44262z"/><path d="M286.04376,251.98c0.14452,0.63398 0.74337,1.05733 1.38925,0.98211c0.67938,0 0.97328,-0.22244 0.97328,-0.67856c0,-0.48825 -0.40634,-0.66251 -1.62455,-0.95723c-3.19046,-0.76689 -3.64819,-1.89436 -3.64819,-3.29325c0,-1.44948 0.94116,-3.14549 4.10512,-3.14549c3.02022,0 4.10432,1.65746 4.19345,3.05394h-3.08366c-0.07066,-0.34852 -0.27223,-0.85202 -1.20295,-0.85202c-0.61673,0 -0.83917,0.27383 -0.83917,0.61111c0,0.38867 0.30194,0.55651 1.80522,0.91627c2.95116,0.70828 3.58636,1.80844 3.58636,3.36553c0,1.76667 -1.20375,3.29807 -4.37093,3.29807c-3.02102,0 -4.28581,-1.54826 -4.47371,-3.30048z"/></g><path d="M293.47491,207.00181h-105.80786v-105.67349h105.80786zM277.89912,121.73799h-17.18709l-0.40266,0.53699l-19.87256,29.40607l-19.06689,-29.27172l-0.26854,-0.67135h-17.85844v64.85426h16.38142v-38.93951l19.46965,29.94312l1.07423,1.477l0.93989,-1.477l20.54382,-29.80884v38.8052h16.24708v-63.51154z" fill="#ffffff" stroke-width="1"/></g></g></svg>