<svg version="1.1" xmlns="http://www.w3.org/2000/svg" xmlns:xlink="http://www.w3.org/1999/xlink" width="66.08524" height="197.1468" viewBox="0,0,66.08524,197.1468"><g transform="translate(-208.22943,-5.94234)"><g data-paper-data="{&quot;isPaintingLayer&quot;:true}" fill-rule="nonzero" stroke="none" stroke-linecap="butt" stroke-linejoin="miter" stroke-miterlimit="10" stroke-dasharray="" stroke-dashoffset="0" style="mix-blend-mode: normal"><path d="M208.22944,5.94234h66.03924v197.1468h-66.03924z" fill="none" stroke-width="0.11074"/><path d="M242.43576,202.94698v0c-2.37352,-0.85345 -4.18847,-2.70263 -6.14316,-4.12509c-8.37707,-5.83186 -16.61452,-11.80601 -24.99158,-17.63787c-1.11702,-0.85345 -1.67546,-1.56474 -1.67546,-3.12936c0,-9.95695 0,-19.77162 -0.27922,-29.72844c-0.27922,-7.11216 -0.13961,-14.2242 -0.27922,-21.33636c-0.27922,-8.39221 -0.13961,-16.64226 -0.27922,-24.89219c-0.27922,-7.53889 -0.13961,-15.07765 -0.27922,-22.75869c-0.13961,-4.26725 -0.27922,-8.53449 -0.13961,-12.65946c0.41883,-0.14228 0.83767,0.14216 1.2565,0.42672c8.23745,5.68958 16.61452,11.52157 24.85197,17.21114c2.23391,1.42246 4.1886,2.98707 6.42251,4.40953c0.55845,0.42672 1.11689,0.85345 1.2565,1.56461c0.13961,0.71129 0.13961,1.28017 0.13961,1.84918c0.41883,24.18102 0,48.21989 0.41883,72.40104c0.13974,11.94829 0,23.7543 0.13974,35.70259c0,0.85345 0.13961,1.84918 -0.41896,2.70263z" fill="#9f94e0" stroke-width="0.11074"/><path d="M242.43576,202.94698v0c0,-6.11643 0,-12.23286 -0.13961,-18.207c-0.13961,-26.74137 -0.13961,-53.34059 -0.41883,-80.08196c0,-4.97854 0,-9.81467 -0.13961,-14.79321c0,-0.14216 0,-0.14216 0,-0.28444c0.13961,-0.42672 0.69806,-0.71117 0.97728,-0.85345c7.95823,-5.83186 15.63724,-11.80601 23.45586,-17.638c2.0943,-1.56461 4.04898,-2.98707 6.00367,-4.55169c0.55845,-0.42672 0.97728,-0.85345 1.67534,-0.71117c0.27922,0.28444 0.13961,0.71117 0.13961,0.99561c0,5.83199 0.13961,11.66385 0,17.49571c0,17.638 0,35.41815 -0.13961,53.05614c0,13.37075 -0.13961,26.7415 -0.13961,40.2544c0,0.71117 -0.13961,1.28017 -0.83767,1.99134c-10.05253,7.68104 -19.96545,15.36209 -30.01785,23.18542c-0.13974,0 -0.27935,0.14228 -0.41896,0.14228z" fill="#3e4688" stroke-width="0.11074"/><path d="M273.98945,66.82168v0c0,-0.28444 -0.13961,-0.71117 -0.13961,-0.99561c-0.41883,-0.42672 -0.27922,-1.13802 -0.27922,-1.7069c0,-2.84492 0,-5.6897 0,-8.53449c0,-0.56901 0.13961,-0.99573 -0.27922,-1.56474c-1.25663,0.71129 -2.37352,1.7069 -3.49041,2.56035c-8.93564,6.54315 -17.73154,13.08631 -26.38782,19.77162c-0.41883,0.28444 -0.8378,0.56901 -1.11702,0.71117c-0.83767,0.28457 -1.39611,-0.28444 -1.95456,-0.56888c-10.33175,-7.11216 -20.6635,-14.36648 -31.13487,-21.47852c-0.41883,-0.28444 -0.69806,-0.56901 -0.97728,-0.99573c0.69806,-1.42233 2.09417,-1.84906 3.3508,-2.84479c5.72432,-4.26725 11.44864,-8.53449 17.31258,-12.80174c0.69818,0.14216 0.55845,0.85345 0.55845,1.28017c0,2.27578 0.27935,4.55169 -0.13961,6.82759c0,0.56888 0,0.85345 0.69818,0.56888c3.49041,-0.99561 7.12044,-1.56461 10.61097,-2.41806c4.6073,-0.99573 9.21473,-1.99134 13.96178,-2.98707c0.69806,-0.14228 1.39611,-0.42672 1.95469,-0.99573c4.74691,3.27164 9.35434,6.68544 14.38061,9.67251c2.65274,1.56461 3.63002,3.4138 3.3508,6.54315c-0.41883,3.27151 -0.13961,6.68531 -0.27922,9.95682z" fill="#5c5958" stroke-width="0.11074"/><path d="M208.22944,54.01994v0c4.74691,2.84492 9.07512,6.11643 13.68255,9.24579c6.14316,4.26725 12.28631,8.53449 18.28998,12.80174c0.69806,0.28444 1.11689,0.85345 1.95456,0.71117c0.27922,1.28017 0.13961,2.56035 0.13961,3.69824c0,2.41819 0,4.69397 0,6.96988c0,0.85345 0,1.56461 -0.55845,2.27591c0,0 0,0 0,0.14216c-10.8902,-7.53876 -21.78039,-15.07752 -32.8102,-22.75857c-0.13961,-0.14228 -0.41883,-0.28457 -0.55845,-0.42672c0,-4.26725 -0.13961,-8.53449 -0.13961,-12.65958z" fill="#191613" stroke-width="0.11074"/><path d="M230.56828,36.95095v0c2.23391,-1.28017 3.90925,-2.98707 6.00354,-4.26725c0.69806,0.14228 0.55845,0.71117 0.55845,1.13789c0.13961,1.84918 0.13961,3.69837 0,5.40526c0,0.56888 -0.13961,0.99561 -0.41883,1.42233c-0.41883,0.42672 -0.41883,0.85345 0.13961,1.28017c0.55845,0.42672 0.97741,0.14228 1.25663,-0.42672c0.41883,-0.42672 0.83767,-0.56888 1.39611,-0.71117c4.04898,-0.71117 8.09784,-1.7069 12.00722,-2.56035c0.41883,-0.14228 0.83767,-0.14228 1.11689,-0.14228c1.25663,0.71129 2.51313,1.56474 3.63015,2.41819c-0.41896,0.42672 -0.69818,0.56888 -1.25663,0.56888c-7.39979,1.7069 -14.93918,3.4138 -22.33884,5.1207c-0.41883,0.14228 -0.8378,0.28457 -1.25663,0.28457c-0.69806,0 -1.11689,-0.28457 -1.11689,-0.85345c-0.13961,-2.84492 -0.13961,-5.6897 0.13961,-8.39234c0,-0.14216 0.13961,-0.28444 0.13961,-0.28444z" fill="#5c5857" stroke-width="0.11074"/><path d="M238.24728,31.11909v0c1.81495,-1.7069 3.3508,-0.71129 5.16588,0.42672c2.65274,2.13362 5.58471,3.98268 8.37707,5.97415c-0.27922,0.42672 -0.83767,0.56888 -1.25663,0.71117c-3.63002,0.85345 -7.12044,1.7069 -10.75059,2.41806c-1.53573,0.28457 -1.95456,0 -1.95456,-1.7069c0,-1.99134 0,-4.12496 0,-6.25859c0,-0.56901 0,-1.13789 0.41883,-1.56461z" fill="#5c5958" stroke-width="0.11074"/><path d="M230.56828,36.95095v0c0,2.70263 0,5.40514 0,8.10777c0,0.85345 0.13961,1.13789 1.11689,0.85345c7.12056,-1.7069 14.24113,-3.27151 21.50117,-4.83626c0.97741,-0.28444 1.95469,-0.42672 3.07171,-0.56888c0,0 0.13961,0.14216 0.27922,0.14216c0.27922,0.85345 -0.27922,0.99573 -0.8378,0.99573c-3.3508,0.85345 -6.7016,1.56461 -10.0524,2.41806c-4.04898,0.85345 -8.09784,1.7069 -12.00722,2.56035c-1.2565,0.28457 -2.37352,0.42672 -3.63002,0.71129c-0.55857,-0.42672 -0.41883,-1.13802 -0.41883,-1.7069c0,-6.54315 0,-12.80174 -0.13974,-19.20261c-0.13961,-4.12509 -0.13961,-8.10777 -0.13961,-12.23286c0,-0.85345 -0.13961,-1.84906 0.97741,-1.99134v0c0.27922,0.56901 0.13961,1.13789 0.13961,1.56461c0,5.83199 0,11.52157 0,17.21127c0,0.71117 0,1.13789 0.13961,1.7069c0,1.42246 0,2.84479 0,4.26725z" fill="#383f48" stroke-width="0.11074"/><path d="M238.24728,41.64492v0c0,0.42672 0,1.13789 -0.55845,1.13789c-0.69818,0 -1.39624,-0.71117 -1.95469,-1.28017c-0.27922,-0.28444 0.13961,-0.56888 0.41883,-0.85345c0.27922,-0.28444 0.69806,-0.42672 0.55845,-0.85345c0,-2.41806 0.41883,-4.69397 -0.13961,-7.11204c0.27922,-0.56901 0.27922,-1.13789 0.27922,-1.7069c-0.13961,-7.53876 -0.13961,-15.07765 -0.27922,-22.75869c0,-0.28444 0,-0.56888 0,-0.99561c0,-0.56901 0.13961,-1.13802 0.83767,-1.13802c0.69818,0 0.8378,0.56901 0.8378,1.28017c0,3.84052 0,7.68104 0,11.66385c0,1.56461 0,3.12936 0,4.69397c-0.69806,-0.14228 -0.41883,-0.71117 -0.41883,-0.99573c-0.13961,-4.97841 -0.27922,-9.81467 -0.13961,-12.9439c-0.13961,8.67665 0.55845,19.34477 0.27922,29.87073c0,0.71117 0.13961,1.42233 0.27922,1.99134z" fill="#8d847a" stroke-width="0.11074"/><path d="M238.24728,41.64492v0c-0.8378,0 -0.55845,-0.71117 -0.55845,-1.28017c0,-3.12936 0,-6.40087 0,-9.53023c-0.13961,-7.39648 -0.27935,-14.93536 -0.27935,-22.33184c0,-0.56901 -0.13961,-1.13802 0.41896,-1.7069c0,0.42672 0.13961,0.85345 0.13961,1.13789c0,4.83626 0,9.38794 0.13961,14.2242c0,0.42672 -0.27922,0.99561 0.13961,1.56461c0,2.41806 0,4.83626 0,7.3966c0,2.7025 0,5.54742 0,8.24993c0,0.85345 0.13961,1.13802 1.11689,0.85345c4.1886,-0.99561 8.23745,-1.84906 12.42605,-2.7025c0.27922,0.14216 0.55845,0.42672 0.83767,0.56888c-2.51313,1.13802 -5.4451,1.28017 -8.09784,2.13362c-2.0943,0.56901 -4.32808,0.56901 -6.28277,1.42246z" fill="#353d47" stroke-width="0.11074"/><path d="M230.28906,12.20092v0c-0.69806,0.28444 -0.55845,0.85345 -0.55845,1.42246c0,5.97415 -0.13961,11.80601 0,17.63787c0.27922,5.40526 0,10.8104 0.27922,16.07338c-0.27922,0.56888 -0.55857,0.85345 -1.11702,0.42672c-0.55845,-0.28457 -0.27922,-0.71129 0,-1.13802c0.41883,-0.85345 0.27922,-1.56461 0.27922,-2.41806c-0.13961,-1.99134 0.27922,-3.98281 -0.27922,-5.83186c0.27922,-0.56901 0.27922,-1.28017 0.27922,-1.84918c-0.13961,-7.68104 -0.13961,-15.50437 -0.27922,-23.18542c0,-0.56888 -0.13961,-1.28017 0.55845,-1.56461c0.55857,-0.28444 0.69818,0 0.8378,0.42672z" fill="#91887f" stroke-width="0.11074"/><path d="M230.56828,32.68371v0c-0.13961,-0.14228 -0.13961,-0.42672 -0.13961,-0.56901c0,-6.68531 -0.13961,-13.22847 -0.13961,-19.91378c0.13961,0.14228 0.27922,0.28444 0.27922,0.42672c0,6.68531 0,13.37075 0,20.05606z" fill="#91887f" stroke-width="0.11074"/><path d="M241.73769,89.72266v0c0,-3.69837 0,-7.53889 0,-11.09484c0,-0.71129 0,-1.28017 0.41883,-1.84918c7.67901,-5.83186 15.49763,-11.66385 23.31625,-17.638c2.51313,-1.7069 5.02626,-3.69824 7.39979,-5.40514c0.13961,-0.14228 0.55845,-0.28444 0.97728,-0.56901c0,4.26725 0,8.53449 0,12.65958c-9.63357,7.25432 -19.26726,14.50864 -28.90096,21.76296c-0.97728,0.71117 -1.95456,1.56461 -3.21119,2.13362z" fill="#040507" stroke-width="0.11074"/><path d="M224.00617,70.52004v0c0.55857,0.56888 1.25663,1.28017 0,1.99134c-0.27922,0.14228 -0.13961,1.42246 -0.13961,2.27591c-1.39611,-0.28457 -1.95456,-1.13802 -1.81495,-2.56035c0.13961,-0.71129 0.27922,-1.42246 -0.55845,-1.99147c-0.13974,-0.14216 -0.27935,-0.28444 -0.55857,-0.28444c-0.27922,0.14228 -0.27922,0.56901 -0.27922,0.71117c0,0.56901 0,1.28017 0,1.84918c-1.2565,-0.28444 -1.95469,-0.99573 -1.81495,-2.27591c0,-0.71117 0.13961,-1.56461 -0.41896,-2.27578c-0.69806,-0.71129 0.27922,-1.13802 0.55857,-1.7069c0.27922,-0.56901 0.83767,-0.28457 1.11689,0c0.55845,0.71117 2.51313,0.56888 1.11689,2.13362c-0.13961,0.28444 0.13961,0.42672 0.27935,0.42672c0.27922,0.28444 0.55845,0.28444 0.69806,-0.14228c0.27922,-0.56901 0.69806,-0.56901 1.11689,-0.28444c0.69806,0.42672 1.53585,0.71117 1.67546,1.56461c0.13961,0.99573 -0.69806,0.14228 -0.97741,0.56901z" fill="#a4a6a0" stroke-width="0.11074"/><path d="M218.00262,67.67513v0c0,1.84918 -0.97728,2.41819 -2.51313,1.56474c-2.51313,-1.28017 -4.04886,-3.84052 -3.76963,-6.11643c0,-1.13789 0.69806,-1.56461 1.81508,-1.28017c2.23378,0.71117 4.32808,3.55608 4.46769,5.83186z" fill="#a7a8a2" stroke-width="0.11074"/><path d="M237.54922,82.89506v0c0,0.56888 0.97728,0.56888 0.55845,1.13789c-0.41883,0.42672 -0.97741,0.14228 -1.25663,0c-1.67534,-0.99573 -3.07158,-2.13362 -3.49041,-4.12496c0,-0.71129 0,-1.13802 0.55845,-1.7069c0.55845,-0.28457 0.97741,0 1.53585,0.14216c1.39611,0.99573 2.65274,2.13362 3.07158,3.84052c0.13961,0.71129 0,1.28017 -0.97728,0.71129z" fill="#a5a6a0" stroke-width="0.11074"/><path d="M232.80218,78.05881v0c-0.97741,-0.28444 -1.67546,-0.71117 -1.95469,-1.42246c-0.27922,-0.28444 -0.55845,-0.56888 -0.97728,-0.42672c-0.41896,0.28457 -0.27922,0.71129 -0.13961,1.13802c0.27922,0.56888 0.55845,1.28017 1.39611,1.13789c0,0 0,0 0.13961,0c0.69806,0.14228 1.11702,0.71117 1.53585,1.13789c0.13961,0.14228 0,0.42672 -0.13961,0.56901c-0.69818,0.42672 -1.25663,0 -1.81508,-0.28444c-1.53585,-0.99573 -2.93197,-2.13362 -2.93197,-4.12509c-0.13961,-1.42233 0.41883,-1.99134 1.67546,-1.28017c1.39611,0.71129 2.65274,1.7069 3.21119,3.55608z" fill="#a4a59f" stroke-width="0.11074"/><path d="M226.6589,72.3691v0c0.13961,0.14228 0.27935,0.42672 0.27935,0.56901c0.13961,1.28017 0,2.56035 0,3.98281c-1.11702,-0.28457 -1.81508,-0.85345 -1.67546,-2.27591c0.13961,-0.71117 0,-1.42246 0,-2.27591c0,-0.42672 0.13961,-0.71117 0.69806,-0.56888c0.41883,-0.14228 0.55845,0.28444 0.69806,0.56888z" fill="#a4a59f" stroke-width="0.11074"/><path d="M226.6589,72.3691v0c-0.41883,0 -0.41883,-0.42672 -0.69806,-0.56888c-0.41883,-0.42672 -0.83767,-0.85345 -0.69806,-1.56474c0.13961,-0.28444 0.27922,-0.28444 0.41883,-0.14216c0.55845,0.56888 1.39624,0.56888 1.39624,1.42233c0,0.42672 -0.13961,0.71129 -0.41896,0.85345z" fill="#9b9d97" stroke-width="0.11074"/><path d="M255.55986,76.92092v0c-0.13961,-0.99573 -0.27922,-1.84918 -0.27922,-2.70263c-1.39611,0.28444 -1.2565,1.28017 -1.11689,2.27591c0.13961,1.28017 -0.27922,2.13362 -1.67546,2.56035c-0.13961,-1.99147 -0.97728,-3.84052 0.13961,-5.6897c0.55845,-0.99573 1.25663,-1.7069 2.23391,-2.13362c0.41883,0.85345 -0.27922,1.28017 -0.55845,1.84918c0.97728,0 0.97728,-0.71129 1.2565,-1.28017c0.13961,-1.28017 0.97741,-2.13362 1.95469,-2.56035c0.13961,-0.14228 0.41883,-0.28457 0.55845,-0.14228c0.13961,0.14228 0.27922,0.42672 0.13961,0.56901c-0.55845,1.84906 -1.11689,3.69824 -1.11689,5.54742c0,0.99561 -0.83767,1.13789 -1.53585,1.7069z" fill="#3e4d5d" stroke-width="0.11074"/><path d="M245.36772,81.33032v0c0,-2.27578 2.0943,-5.1207 3.90937,-5.97415c1.39611,-0.42672 2.0943,0 2.23391,1.56474c0.13961,2.27578 -2.37352,5.83186 -4.60743,6.25859c-1.11689,0.28444 -1.53585,-0.28444 -1.53585,-1.84918z" fill="#415161" stroke-width="0.11074"/><path d="M266.17082,66.53724v0c0,-1.7069 1.95469,-4.40953 3.63015,-4.69397c0.83767,-0.28444 1.53573,0 1.39611,1.13789c-0.27922,1.99147 -1.2565,3.69837 -3.21119,4.55181c-0.97728,0.56888 -1.67546,0.28444 -1.81508,-0.99573z" fill="#404f5f" stroke-width="0.11074"/><path d="M265.6124,67.95969v0c-0.27922,1.42233 -2.0943,3.4138 -3.21119,3.84052c-0.83767,0.14216 -1.39624,0 -1.53585,-0.99573c-0.13961,-1.84918 2.0943,-4.83626 3.76976,-5.1207c0.27922,0 0.69806,0 0.83767,0.28444c0.27922,0.28457 0,0.71129 -0.27922,0.85345c-0.41883,0.42672 -0.69806,0.56901 -1.25663,0.71129c-0.55845,0 -0.83767,0.56888 -1.11689,0.99561c-0.13961,0.42672 -0.27922,0.99573 0.13961,1.28017c0.41883,0.28457 0.83767,-0.28444 0.97728,-0.56888c0.27935,-0.71129 0.69818,-1.28017 1.67546,-1.28017z" fill="#404f5f" stroke-width="0.11074"/><path d="M260.3069,70.94677v0c-0.13961,1.28017 0.41883,2.41806 -0.83767,3.12923c-0.55845,0.28457 -0.97741,0.42672 -0.8378,-0.42672c0.13961,-1.28017 -0.69806,-2.7025 0.41896,-3.98268c0.13961,0 0.13961,-0.14228 0,-0.28457c-0.41896,-0.71117 -0.13961,-1.56461 0.69806,-1.84906c0.41883,0 0.69806,0.28444 0.55845,0.56888c-0.41883,1.13802 0.27922,2.13362 0,2.84492z" fill="#3e4d5d" stroke-width="0.11074"/><path d="M215.90832,66.53724v0c0,0.42672 0.13961,0.99573 -0.55845,0.99573c-0.83767,-0.14228 -1.81495,-1.56474 -1.81495,-2.70263c0,-0.42672 0,-0.85345 0.69806,-0.99573c0.69806,0 1.67534,1.42246 1.67534,2.70263z" fill="#1e1c19" stroke-width="0.11074"/><path d="M236.71144,81.04588v0c-0.69806,-0.28444 -1.11689,-0.42672 -1.39611,-1.13789c0.83767,-0.28457 1.11689,0.28444 1.39611,1.13789z" fill="#3d3c39" stroke-width="0.11074"/><path d="M247.3224,80.05015v0c0.13961,-1.28017 0.41883,-2.27578 1.53585,-2.56035c0.69806,-0.14216 0.55845,0.56901 0.55845,0.99573c0,1.13789 -0.83767,2.56035 -1.53585,2.56035c-0.83767,-0.14228 -0.41883,-0.71117 -0.55845,-0.99573z" fill="#010203" stroke-width="0.11074"/><g fill="#ebffe8" stroke-width="1"><path d="M245.01041,98.54231c0,-1.54776 0.0084,-2.8826 -0.00518,-4.21721c-0.00402,-0.39576 0.24714,-0.61996 0.51795,-0.82644c1.26176,-0.96207 2.53331,-1.91219 3.99726,-3.01402c0,1.6319 0.00402,3.07408 -0.00851,4.51611c-0.02089,0.12137 -0.09001,0.23007 -0.19265,0.30297c-1.38078,1.04549 -2.76808,2.08296 -4.30887,3.2386z"/><path d="M261.94777,83.33605c-0.45126,-1.60916 0.29992,-2.64494 1.67247,-3.46308c0.80059,-0.47722 1.50866,-1.09924 2.25678,-1.65806c0.35255,-0.26332 0.61733,-0.36316 0.61244,0.24202c-0.00964,1.18955 -0.00568,2.37921 -0.00302,3.56882c0.02201,0.246 -0.08842,0.48566 -0.29237,0.63458c-1.20391,0.88441 -2.40746,1.76963 -3.59484,2.6745c-0.56376,0.42962 -0.67332,0.20183 -0.65536,-0.35173c0.01779,-0.54852 0.00389,-1.09799 0.00389,-1.64705z"/><path d="M266.48636,90.08799c0,1.46977 -0.00587,2.80501 0.00398,4.14014c-0.00727,0.31117 -0.17465,0.59837 -0.44631,0.76585c-1.289,0.97663 -2.58295,1.94716 -4.06557,3.06314c0,-1.62831 -0.00402,-3.07141 0.00853,-4.51439c0.02021,-0.12159 0.08957,-0.23046 0.19284,-0.30269c1.39837,-1.02139 2.70364,-2.16497 4.30652,-3.15204z"/><path d="M261.94752,110.31104c0,-1.52995 0.00916,-2.80846 -0.00581,-4.08671c-0.02745,-0.33915 0.12449,-0.66873 0.40387,-0.87596c1.31363,-0.98389 2.62726,-1.9678 4.11815,-3.08447c0,1.60293 0.04653,3.04489 -0.02478,4.4814c-0.02559,0.51589 -0.66201,0.69374 -1.04943,0.98961c-1.07703,0.82252 -2.16956,1.62615 -3.442,2.57613z"/><path d="M266.48764,157.29532c0,1.42855 -0.01267,2.68111 0.0073,3.93317c0.03057,0.37046 -0.13651,0.73041 -0.44322,0.95488c-1.19447,0.90053 -2.39011,1.79972 -3.57688,2.70965c-0.44575,0.34174 -0.52742,0.11917 -0.52715,-0.28281c0.00078,-1.19213 0.00048,-2.38425 -0.0009,-3.57638c-0.0296,-0.21632 0.05095,-0.43309 0.21621,-0.58189c1.38496,-1.0418 2.69133,-2.18614 4.32465,-3.1566z"/><path d="M261.94953,116.33949c0,-1.53077 0.00378,-2.84235 -0.00287,-4.15387c-0.01771,-0.27986 0.107,-0.5505 0.33415,-0.72513c1.33128,-1.01226 2.66659,-2.01962 4.19281,-3.17412c0,1.62701 0.00919,3.04586 -0.01339,4.46423c-0.03595,0.17961 -0.14225,0.33891 -0.29678,0.44474c-1.33907,1.01234 -2.68971,2.01044 -4.21392,3.14417z"/><path d="M249.54451,108.83793c0,1.61242 -0.00063,2.97829 0.00046,4.34419c0.00025,0.31399 -0.20808,0.49879 -0.43822,0.66908c-1.30308,0.96427 -2.60721,1.92722 -4.0604,3.00102c0,-1.56724 -0.00968,-3.00331 0.01469,-4.43885c0.00249,-0.14675 0.18322,-0.32187 0.32513,-0.43038c1.30921,-1.0012 2.62808,-1.99062 4.15834,-3.14506z"/><path d="M245.00704,150.84124c-0.41085,-1.3146 0.24454,-2.39658 1.65453,-3.21338c0.80809,-0.46812 1.51807,-1.09531 2.26498,-1.6598c0.35629,-0.26927 0.6214,-0.37683 0.62053,0.22963c-0.00165,1.16248 -0.00143,2.32497 0.00065,3.48747c0.00023,0.28076 -0.13956,0.54445 -0.37556,0.70843c-1.18596,0.9127 -2.37385,1.82307 -3.56368,2.73109c-0.38458,0.29482 -0.61664,0.29834 -0.60429,-0.26615c0.01271,-0.58099 0.00282,-1.16242 0.00282,-2.01728z"/><path d="M250.70566,118.74171c0,-1.50622 0.01892,-2.78589 -0.01003,-4.06455c-0.00724,-0.40207 0.20088,-0.77927 0.55048,-0.99773c1.09267,-0.82405 2.19523,-1.63589 3.28871,-2.45896c0.36197,-0.27245 0.56346,-0.25484 0.5628,0.24108c-0.00165,1.21968 -0.00149,2.43936 0.00048,3.65903c0.00461,0.24898 -0.11773,0.48427 -0.32725,0.62944c-1.29434,0.95703 -2.59268,1.909 -4.06519,2.9917z"/><path d="M255.09667,135.20147c0,1.55901 -0.00063,2.923 0.00062,4.28699c0.024,0.2161 -0.06337,0.4298 -0.23376,0.57177c-1.33372,0.99558 -2.66901,1.98917 -4.15691,3.09743c0,-1.56143 -0.00042,-2.92064 0.00028,-4.27987c0.00018,-0.38865 0.298,-0.59666 0.56481,-0.80012c1.20788,-0.92107 2.42754,-1.82778 3.82497,-2.87621z"/><path d="M272.03716,94.3681c0.53926,1.86323 -0.52227,2.9097 -2.01268,3.78911c-0.66927,0.3949 -1.25345,0.92477 -1.87279,1.39761c-0.33591,0.25644 -0.50849,0.19545 -0.50889,-0.22899c-0.00114,-1.22388 0.00201,-2.44779 -0.00432,-3.67163c-0.00161,-0.30944 0.15977,-0.48846 0.40486,-0.67233c1.14877,-0.86176 2.27768,-1.74814 3.41827,-2.62013c0.11699,-0.08945 0.27988,-0.21713 0.39479,-0.19543c0.24291,0.04587 0.17476,0.28764 0.17735,0.45778c0.0089,0.58121 0.00342,1.16264 0.00342,1.744z"/><path d="M260.79235,124.81239c0,1.58038 -0.00081,2.91701 0.00078,4.25367c0.02501,0.2164 -0.06078,0.431 -0.22989,0.57503c-1.31267,0.98762 -2.62776,1.97227 -4.14994,3.11374c0,-1.63151 -0.00922,-3.03927 0.01329,-4.44657c0.03522,-0.1797 0.14078,-0.3394 0.29477,-0.44588c1.28196,-0.97406 2.57585,-1.93349 4.07097,-3.05z"/><path d="M267.64097,81.54454c0,-1.56652 0.00245,-2.87625 -0.00211,-4.18594c-0.03215,-0.24659 0.06294,-0.49273 0.25448,-0.65874c1.31123,-0.98321 2.62653,-1.96137 4.13273,-3.08461c0,1.603 0.00105,2.98538 -0.00104,4.36777c-0.01433,0.21817 -0.13566,0.41662 -0.32656,0.53414c-1.28346,0.96431 -2.57289,1.92127 -4.05749,3.02737z"/><path d="M267.6418,136.55142c0,-1.52961 0.01492,-2.83887 -0.00789,-4.1475c-0.00827,-0.47425 0.29719,-0.72552 0.61505,-0.96717c1.03976,-0.79048 2.09448,-1.56263 3.144,-2.34111c0.14412,-0.1069 0.26588,-0.29926 0.47921,-0.22084c0.22844,0.08396 0.16012,0.3083 0.16109,0.47842c0.00659,1.15918 -0.00145,2.31847 0.00599,3.47767c0.0242,0.27819 -0.09822,0.54945 -0.32571,0.72172c-1.29749,0.95637 -2.59567,1.91185 -4.07176,2.99884z"/><path d="M250.70959,100.38339c0,-1.55439 0.0045,-2.8916 -0.00335,-4.22875c0.00191,-0.28042 0.14623,-0.54207 0.38614,-0.70007c1.28062,-0.97624 2.56692,-1.94553 4.00317,-3.03209c0,1.57502 -0.00014,2.96789 0.00014,4.36076c0.00193,0.2181 -0.10734,0.42316 -0.29224,0.54843c-1.30008,0.96849 -2.59957,1.93768 -4.09385,3.05174z"/><path d="M250.70143,130.91879c0,-1.57365 0.00282,-2.85659 -0.00216,-4.13952c-0.0011,-0.28624 0.03355,-0.54873 0.28776,-0.7386c1.29465,-0.96693 2.58871,-1.93457 4.09531,-3.06066c0,1.64414 0.00381,3.05428 -0.00767,4.46429c-0.01308,0.12209 -0.07563,0.23422 -0.17398,0.31196c-1.32995,1.01051 -2.66747,2.01178 -4.19927,3.16252z"/><path d="M267.64252,154.82494c0,-1.51399 0.0022,-2.87913 -0.0019,-4.24425c-0.01499,-0.24611 0.10082,-0.48265 0.3073,-0.62765c1.29623,-0.96252 2.58552,-1.93376 4.05405,-3.03471c0,1.60491 0.035,3.03744 -0.02302,4.46643c-0.01579,0.38886 -0.48661,0.62238 -0.8045,0.86085c-1.11495,0.83638 -2.25056,1.64712 -3.53193,2.57933z"/><path d="M260.79107,155.35972c0,1.57681 0.00465,2.93693 -0.00256,4.29702c-0.00246,0.46539 -0.4133,0.67655 -0.71857,0.91207c-0.98368,0.75892 -1.99752,1.48152 -3.00442,2.21215c-0.16312,0.11836 -0.29126,0.38362 -0.54985,0.23961c-0.18677,-0.10403 -0.11479,-0.32883 -0.11559,-0.5031c-0.00505,-1.12828 -0.00156,-2.25659 -0.00359,-3.38487c-0.00045,-0.24873 0.00043,-0.50703 0.22093,-0.67213c1.33302,-0.99808 2.67297,-1.98751 4.17363,-3.10074z"/><path d="M256.39838,169.3951c0,-1.50926 0.0132,-2.81941 -0.00822,-4.12905c-0.01479,-0.33695 0.15677,-0.65614 0.45064,-0.83837c1.27084,-0.93799 2.52973,-1.89103 3.94553,-2.95301c0,1.57179 0.00088,2.98597 -0.00085,4.40013c-0.01106,0.21661 -0.13362,0.41352 -0.32653,0.52459c-1.29877,0.95274 -2.59275,1.91157 -4.06058,2.99573z"/><path d="M260.79537,112.57672c0,1.53352 -0.00663,2.81394 0.00457,4.0942c0.0278,0.30872 -0.10537,0.61053 -0.3552,0.80502c-1.1914,0.90061 -2.38121,1.80324 -3.57935,2.69546c-0.30811,0.22945 -0.46321,0.08966 -0.46408,-0.24586c-0.00326,-1.25117 -0.00773,-2.50246 0.01063,-3.7534c0.00298,-0.18167 0.07963,-0.35498 0.21347,-0.48268c1.32525,-1.00812 2.66699,-1.99605 4.16995,-3.11274z"/><path d="M256.3957,145.0253c0,-1.52983 0.0227,-2.78341 -0.01123,-4.03554c-0.01348,-0.49782 0.22692,-0.80765 0.58861,-1.07862c1.21856,-0.91291 2.44112,-1.82087 3.81263,-2.84283c0,1.5613 0.00052,2.9772 -0.0007,4.3931c-0.00321,0.15454 -0.08461,0.29777 -0.2179,0.38336c-1.33145,1.01126 -2.65952,2.02669 -4.17142,3.18051z"/><path d="M267.63938,118.19475c0,-1.50865 0.01248,-2.78704 -0.00725,-4.06497c-0.01896,-0.37019 0.16054,-0.72378 0.47518,-0.93604c1.09708,-0.81646 2.19274,-1.63472 3.28698,-2.45476c0.14491,-0.10819 0.28242,-0.29636 0.48318,-0.21368c0.26498,0.10914 0.15205,0.37313 0.15412,0.56826c0.01162,1.09698 0.00457,2.19413 0.00628,3.29123c0.00043,0.27868 -0.00673,0.54586 -0.26947,0.74037c-1.31763,0.9755 -2.63159,1.9556 -4.12902,3.06959z"/></g><g fill="#ebffe8" stroke-width="1"><path d="M245.01041,116.7923c0,-1.54776 0.0084,-2.8826 -0.00518,-4.21721c-0.00402,-0.39576 0.24714,-0.61996 0.51795,-0.82644c1.26176,-0.96207 2.53331,-1.91219 3.99726,-3.01402c0,1.6319 0.00402,3.07408 -0.00851,4.51611c-0.02089,0.12137 -0.09001,0.23007 -0.19265,0.30297c-1.38078,1.04549 -2.76808,2.08296 -4.30887,3.2386z"/><path d="M261.94777,101.58604c-0.45126,-1.60916 0.29992,-2.64494 1.67247,-3.46308c0.80059,-0.47722 1.50866,-1.09924 2.25678,-1.65806c0.35255,-0.26332 0.61733,-0.36316 0.61244,0.24202c-0.00964,1.18955 -0.00568,2.37921 -0.00302,3.56882c0.02201,0.246 -0.08842,0.48566 -0.29237,0.63458c-1.20391,0.88441 -2.40746,1.76963 -3.59484,2.6745c-0.56376,0.42962 -0.67332,0.20183 -0.65536,-0.35173c0.01779,-0.54852 0.00389,-1.09799 0.00389,-1.64705z"/><path d="M266.48636,108.33798c0,1.46977 -0.00587,2.80501 0.00398,4.14014c-0.00727,0.31117 -0.17465,0.59837 -0.44631,0.76585c-1.289,0.97663 -2.58295,1.94716 -4.06557,3.06314c0,-1.62831 -0.00402,-3.07141 0.00853,-4.51439c0.02021,-0.12159 0.08957,-0.23046 0.19284,-0.30269c1.39837,-1.02139 2.70364,-2.16497 4.30652,-3.15204z"/><path d="M261.94752,128.56103c0,-1.52995 0.00916,-2.80846 -0.00581,-4.08671c-0.02745,-0.33915 0.12449,-0.66873 0.40387,-0.87596c1.31363,-0.98389 2.62726,-1.9678 4.11815,-3.08447c0,1.60293 0.04653,3.04489 -0.02478,4.4814c-0.02559,0.51589 -0.66201,0.69374 -1.04943,0.98961c-1.07703,0.82252 -2.16956,1.62615 -3.442,2.57613z"/><path d="M266.48764,175.54531c0,1.42855 -0.01267,2.68111 0.0073,3.93317c0.03057,0.37046 -0.13651,0.73041 -0.44322,0.95488c-1.19447,0.90053 -2.39011,1.79972 -3.57688,2.70965c-0.44575,0.34174 -0.52742,0.11917 -0.52715,-0.28281c0.00078,-1.19213 0.00048,-2.38425 -0.0009,-3.57638c-0.0296,-0.21632 0.05095,-0.43309 0.21621,-0.58189c1.38496,-1.0418 2.69133,-2.18614 4.32465,-3.1566z"/><path d="M261.94953,134.58948c0,-1.53077 0.00378,-2.84235 -0.00287,-4.15387c-0.01771,-0.27986 0.107,-0.5505 0.33415,-0.72513c1.33128,-1.01226 2.66659,-2.01962 4.19281,-3.17412c0,1.62701 0.00919,3.04586 -0.01339,4.46423c-0.03595,0.17961 -0.14225,0.33891 -0.29678,0.44474c-1.33907,1.01234 -2.68971,2.01044 -4.21392,3.14417z"/><path d="M249.54451,127.08792c0,1.61242 -0.00063,2.97829 0.00046,4.34419c0.00025,0.31399 -0.20808,0.49879 -0.43822,0.66908c-1.30308,0.96427 -2.60721,1.92722 -4.0604,3.00102c0,-1.56724 -0.00968,-3.00331 0.01469,-4.43885c0.00249,-0.14675 0.18322,-0.32187 0.32513,-0.43038c1.30921,-1.0012 2.62808,-1.99062 4.15834,-3.14506z"/><path d="M245.00704,169.09123c-0.41085,-1.3146 0.24454,-2.39658 1.65453,-3.21338c0.80809,-0.46812 1.51807,-1.09531 2.26498,-1.6598c0.35629,-0.26927 0.6214,-0.37683 0.62053,0.22963c-0.00165,1.16248 -0.00143,2.32497 0.00065,3.48747c0.00023,0.28076 -0.13956,0.54445 -0.37556,0.70843c-1.18596,0.9127 -2.37385,1.82307 -3.56368,2.73109c-0.38458,0.29482 -0.61664,0.29834 -0.60429,-0.26615c0.01271,-0.58099 0.00282,-1.16242 0.00282,-2.01728z"/><path d="M250.70566,136.9917c0,-1.50622 0.01892,-2.78589 -0.01003,-4.06455c-0.00724,-0.40207 0.20088,-0.77927 0.55048,-0.99773c1.09267,-0.82405 2.19523,-1.63589 3.28871,-2.45896c0.36197,-0.27245 0.56346,-0.25484 0.5628,0.24108c-0.00165,1.21968 -0.00149,2.43936 0.00048,3.65903c0.00461,0.24898 -0.11773,0.48427 -0.32725,0.62944c-1.29434,0.95703 -2.59268,1.909 -4.06519,2.9917z"/><path d="M255.09667,153.45146c0,1.55901 -0.00063,2.923 0.00062,4.28699c0.024,0.2161 -0.06337,0.4298 -0.23376,0.57177c-1.33372,0.99558 -2.66901,1.98917 -4.15691,3.09743c0,-1.56143 -0.00042,-2.92064 0.00028,-4.27987c0.00018,-0.38865 0.298,-0.59666 0.56481,-0.80012c1.20788,-0.92107 2.42754,-1.82778 3.82497,-2.87621z"/><path d="M272.03716,112.61809c0.53926,1.86323 -0.52227,2.9097 -2.01268,3.78911c-0.66927,0.3949 -1.25345,0.92477 -1.87279,1.39761c-0.33591,0.25644 -0.50849,0.19545 -0.50889,-0.22899c-0.00114,-1.22388 0.00201,-2.44779 -0.00432,-3.67163c-0.00161,-0.30944 0.15977,-0.48846 0.40486,-0.67233c1.14877,-0.86176 2.27768,-1.74814 3.41827,-2.62013c0.11699,-0.08945 0.27988,-0.21713 0.39479,-0.19543c0.24291,0.04587 0.17476,0.28764 0.17735,0.45778c0.0089,0.58121 0.00342,1.16264 0.00342,1.744z"/><path d="M260.79235,143.06238c0,1.58038 -0.00081,2.91701 0.00078,4.25367c0.02501,0.2164 -0.06078,0.431 -0.22989,0.57503c-1.31267,0.98762 -2.62776,1.97227 -4.14994,3.11374c0,-1.63151 -0.00922,-3.03927 0.01329,-4.44657c0.03522,-0.1797 0.14078,-0.3394 0.29477,-0.44588c1.28196,-0.97406 2.57585,-1.93349 4.07097,-3.05z"/><path d="M267.64097,99.79453c0,-1.56652 0.00245,-2.87625 -0.00211,-4.18594c-0.03215,-0.24659 0.06294,-0.49273 0.25448,-0.65874c1.31123,-0.98321 2.62653,-1.96137 4.13273,-3.08461c0,1.603 0.00105,2.98538 -0.00104,4.36777c-0.01433,0.21817 -0.13566,0.41662 -0.32656,0.53414c-1.28346,0.96431 -2.57289,1.92127 -4.05749,3.02737z"/><path d="M267.6418,154.80141c0,-1.52961 0.01492,-2.83887 -0.00789,-4.1475c-0.00827,-0.47425 0.29719,-0.72552 0.61505,-0.96717c1.03976,-0.79048 2.09448,-1.56263 3.144,-2.34111c0.14412,-0.1069 0.26588,-0.29926 0.47921,-0.22084c0.22844,0.08396 0.16012,0.3083 0.16109,0.47842c0.00659,1.15918 -0.00145,2.31847 0.00599,3.47767c0.0242,0.27819 -0.09822,0.54945 -0.32571,0.72172c-1.29749,0.95637 -2.59567,1.91185 -4.07176,2.99884z"/><path d="M250.70959,118.63338c0,-1.55439 0.0045,-2.8916 -0.00335,-4.22875c0.00191,-0.28042 0.14623,-0.54207 0.38614,-0.70007c1.28062,-0.97624 2.56692,-1.94553 4.00317,-3.03209c0,1.57502 -0.00014,2.96789 0.00014,4.36076c0.00193,0.2181 -0.10734,0.42316 -0.29224,0.54843c-1.30008,0.96849 -2.59957,1.93768 -4.09385,3.05174z"/><path d="M250.70143,149.16878c0,-1.57365 0.00282,-2.85659 -0.00216,-4.13952c-0.0011,-0.28624 0.03355,-0.54873 0.28776,-0.7386c1.29465,-0.96693 2.58871,-1.93457 4.09531,-3.06066c0,1.64414 0.00381,3.05428 -0.00767,4.46429c-0.01308,0.12209 -0.07563,0.23422 -0.17398,0.31196c-1.32995,1.01051 -2.66747,2.01178 -4.19927,3.16252z"/><path d="M267.64252,173.07493c0,-1.51399 0.0022,-2.87913 -0.0019,-4.24425c-0.01499,-0.24611 0.10082,-0.48265 0.3073,-0.62765c1.29623,-0.96252 2.58552,-1.93376 4.05405,-3.03471c0,1.60491 0.035,3.03744 -0.02302,4.46643c-0.01579,0.38886 -0.48661,0.62238 -0.8045,0.86085c-1.11495,0.83638 -2.25056,1.64712 -3.53193,2.57933z"/><path d="M260.79107,173.60971c0,1.57681 0.00465,2.93693 -0.00256,4.29702c-0.00246,0.46539 -0.4133,0.67655 -0.71857,0.91207c-0.98368,0.75892 -1.99752,1.48152 -3.00442,2.21215c-0.16312,0.11836 -0.29126,0.38362 -0.54985,0.23961c-0.18677,-0.10403 -0.11479,-0.32883 -0.11559,-0.5031c-0.00505,-1.12828 -0.00156,-2.25659 -0.00359,-3.38487c-0.00045,-0.24873 0.00043,-0.50703 0.22093,-0.67213c1.33302,-0.99808 2.67297,-1.98751 4.17363,-3.10074z"/><path d="M256.39838,187.64509c0,-1.50926 0.0132,-2.81941 -0.00822,-4.12905c-0.01479,-0.33695 0.15677,-0.65614 0.45064,-0.83837c1.27084,-0.93799 2.52973,-1.89103 3.94553,-2.95301c0,1.57179 0.00088,2.98597 -0.00085,4.40013c-0.01106,0.21661 -0.13362,0.41352 -0.32653,0.52459c-1.29877,0.95274 -2.59275,1.91157 -4.06058,2.99573z"/><path d="M260.79537,130.82671c0,1.53352 -0.00663,2.81394 0.00457,4.0942c0.0278,0.30872 -0.10537,0.61053 -0.3552,0.80502c-1.1914,0.90061 -2.38121,1.80324 -3.57935,2.69546c-0.30811,0.22945 -0.46321,0.08966 -0.46408,-0.24586c-0.00326,-1.25117 -0.00773,-2.50246 0.01063,-3.7534c0.00298,-0.18167 0.07963,-0.35498 0.21347,-0.48268c1.32525,-1.00812 2.66699,-1.99605 4.16995,-3.11274z"/><path d="M256.3957,163.27529c0,-1.52983 0.0227,-2.78341 -0.01123,-4.03554c-0.01348,-0.49782 0.22692,-0.80765 0.58861,-1.07862c1.21856,-0.91291 2.44112,-1.82087 3.81263,-2.84283c0,1.5613 0.00052,2.9772 -0.0007,4.3931c-0.00321,0.15454 -0.08461,0.29777 -0.2179,0.38336c-1.33145,1.01126 -2.65952,2.02669 -4.17142,3.18051z"/><path d="M267.63938,136.44474c0,-1.50865 0.01248,-2.78704 -0.00725,-4.06497c-0.01896,-0.37019 0.16054,-0.72378 0.47518,-0.93604c1.09708,-0.81646 2.19274,-1.63472 3.28698,-2.45476c0.14491,-0.10819 0.28242,-0.29636 0.48318,-0.21368c0.26498,0.10914 0.15205,0.37313 0.15412,0.56826c0.01162,1.09698 0.00457,2.19413 0.00628,3.29123c0.00043,0.27868 -0.00673,0.54586 -0.26947,0.74037c-1.31763,0.9755 -2.63159,1.9556 -4.12902,3.06959z"/></g><g fill="#ebffe8" stroke-width="1"><path d="M217.39956,96.36244c1.48603,1.1697 2.8022,2.20648 4.11961,3.24179c0.17003,0.14199 0.25853,0.35456 0.2376,0.5707c-0.00258,1.36561 -0.00129,2.73121 -0.00129,4.3044c-1.47796,-1.17248 -2.80876,-2.22766 -4.13873,-3.28382c-0.22313,-0.17721 -0.2179,-0.42524 -0.21769,-0.67228c0.00107,-1.31257 0.0005,-2.62513 0.0005,-4.16077z"/><path d="M217.39768,151.28889c1.5002,1.19532 2.80381,2.23435 4.10791,3.27279c0.25098,0.19985 0.25265,0.47393 0.25221,0.75306c-0.00207,1.28285 -0.0009,2.5657 -0.0009,4.09352c-0.88941,-0.70267 -1.58667,-1.40386 -2.4214,-1.8811c-1.64083,-0.93811 -2.24089,-2.24005 -1.95431,-4.02875c0.1028,-0.6416 0.0165,-1.31138 0.0165,-2.20952z"/><path d="M216.25708,118.40333c-1.53093,-1.21863 -2.86139,-2.27717 -4.19107,-3.33664c-0.1981,-0.15783 -0.1731,-0.38233 -0.17352,-0.59347c-0.00267,-1.31303 -0.00135,-2.62606 -0.00135,-4.0009c0.48592,0.04427 0.72936,0.37677 1.02805,0.60594c0.44535,0.34165 0.83468,0.77285 1.32276,1.0371c1.72518,0.93407 2.3415,2.31412 2.03068,4.17195c-0.09944,0.59441 -0.01556,1.21742 -0.01556,2.11601z"/><path d="M227.25622,114.88454c-1.47432,-1.17303 -2.73736,-2.17824 -4.00082,-3.18294c-0.21243,-0.13813 -0.34214,-0.3673 -0.34783,-0.61456c0.00641,-1.36411 0.00292,-2.72827 0.00292,-4.31714c1.48118,1.17827 2.80652,2.23155 4.13012,3.28684c0.14724,0.11968 0.22757,0.29929 0.21685,0.48486c-0.0023,1.36181 -0.00123,2.7236 -0.00123,4.34294z"/><path d="M217.3987,77.97689c1.46243,1.17039 2.74513,2.19569 4.02587,3.22322c0.20678,0.14768 0.32936,0.38084 0.33078,0.62919c-0.00294,1.36059 -0.00135,2.7212 -0.00135,4.27007c-1.47655,-1.16657 -2.8106,-2.21935 -4.14284,-3.27428c-0.22262,-0.17628 -0.21315,-0.42674 -0.21296,-0.67306c0.00102,-1.31072 0.00048,-2.62145 0.00048,-4.17514z"/><path d="M222.93662,155.68572c1.35506,1.07735 2.54052,2.04074 3.75259,2.97189c0.39172,0.26397 0.61245,0.70617 0.5823,1.16652c-0.03108,1.24739 -0.01014,2.49598 -0.01014,3.95538c-1.48075,-1.17767 -2.83096,-2.24978 -4.17683,-3.32692c-0.07594,-0.05652 -0.12663,-0.13892 -0.1417,-0.23036c-0.00842,-1.46635 -0.0062,-2.93276 -0.0062,-4.53651z"/><path d="M222.94406,82.38272c1.40339,1.11861 2.64368,2.11049 3.88881,3.09665c0.2239,0.17735 0.43059,0.33852 0.42817,0.66291c-0.01019,1.36068 -0.00431,2.72148 -0.00431,4.34516c-1.5102,-1.21249 -2.8325,-2.27265 -4.15118,-3.33697c-0.07831,-0.05321 -0.13342,-0.13255 -0.15471,-0.22271c-0.00916,-1.4643 -0.00679,-2.92865 -0.00679,-4.54505z"/><path d="M221.75786,122.76349c-1.48789,-1.18307 -2.79275,-2.22349 -4.10178,-3.25902c-0.25478,-0.20156 -0.25807,-0.46727 -0.25734,-0.74675c0.00336,-1.28252 0.00149,-2.56504 0.00149,-3.93321c0.83719,0.2988 1.31052,0.98435 1.98875,1.37164c1.92828,1.10111 2.82798,2.64012 2.38332,4.83631c-0.09857,0.48685 -0.01444,1.00815 -0.01444,1.73104z"/><path d="M211.90018,134.70496c0.76487,0.59353 1.28223,1.11177 1.90329,1.45557c2.07104,1.14646 2.88958,2.80507 2.45655,5.07128c-0.08209,0.42964 -0.01177,0.88642 -0.01177,1.57569c-1.50544,-1.20097 -2.83261,-2.25875 -4.15813,-3.31844c-0.1411,-0.12651 -0.21204,-0.30994 -0.19136,-0.4948c0.00269,-1.3619 0.00143,-2.7238 0.00143,-4.28931z"/><path d="M221.75522,153.29375c-1.49191,-1.18592 -2.75924,-2.19545 -4.02977,-3.20119c-0.20915,-0.14261 -0.33215,-0.37553 -0.32886,-0.62275c0.00886,-1.36722 0.00404,-2.73451 0.00404,-4.29314c1.47477,1.16749 2.80724,2.22201 4.13917,3.27714c0.14772,0.11997 0.22787,0.3004 0.21609,0.48645c-0.00125,1.3643 -0.00066,2.72862 -0.00066,4.35349z"/><path d="M221.75807,128.89245c-1.53568,-1.22752 -2.86545,-2.28432 -4.18277,-3.35541c-0.10614,-0.10914 -0.16506,-0.25333 -0.16468,-0.40306c-0.01185,-1.38931 -0.00724,-2.77875 -0.00724,-4.37381c1.46421,1.17117 2.76754,2.21252 4.06913,3.25594c0.19653,0.15965 0.30326,0.3997 0.28777,0.64725c-0.00488,1.30833 -0.00222,2.61672 -0.00222,4.22908z"/><path d="M227.25305,145.40491c-1.51765,-1.2038 -2.84655,-2.25562 -4.17161,-3.31188c-0.13518,-0.13307 -0.19873,-0.31921 -0.17201,-0.50383c-0.00003,-1.36336 0,-2.72671 0,-4.28541c1.44872,1.15186 2.75222,2.18723 4.05403,3.22451c0.17985,0.13147 0.28644,0.33602 0.28857,0.55383c0.00205,1.35926 0.00102,2.71852 0.00102,4.32278z"/><path d="M232.76284,137.62446c-1.48996,-1.18421 -2.79871,-2.22455 -4.10768,-3.26462c-0.21904,-0.17404 -0.24216,-0.40988 -0.24144,-0.66181c0.00375,-1.31045 0.00174,-2.6209 0.00174,-4.0326c0.9214,0.4031 1.53411,1.06586 2.22287,1.60731c2.22798,1.75149 2.21097,1.76865 2.12674,4.55109c-0.01555,0.51375 -0.00222,1.02835 -0.00222,1.80065z"/><path d="M228.41461,153.91532c1.48507,1.17724 2.77435,2.19366 4.05263,3.22282c0.11719,0.10136 0.19005,0.24199 0.20382,0.39333c0.03521,1.2484 0.06596,2.4974 0.06168,3.74612c-0.00175,0.51334 -0.25151,0.55068 -0.64315,0.23296c-1.08931,-0.88362 -2.18702,-1.75753 -3.29314,-2.62172c-0.25733,-0.18085 -0.40293,-0.47477 -0.38723,-0.78174c0.01323,-1.3111 0.0054,-2.62241 0.0054,-4.19177z"/><path d="M232.68641,113.15842c-1.38944,-1.1048 -2.67709,-2.12748 -3.96294,-3.15226c-0.20271,-0.15235 -0.31747,-0.38933 -0.30861,-0.63722c0.00751,-1.34121 0.00342,-2.68248 0.00342,-4.26002c1.47903,1.17632 2.80924,2.22737 4.12521,3.29476c0.09828,0.11884 0.14712,0.2688 0.13698,0.42056c0.00987,1.39671 0.00594,2.79352 0.00594,4.33418z"/><path d="M233.92218,158.28493c1.47921,1.17289 2.74136,2.17407 4.00417,3.17448c0.15822,0.10599 0.25542,0.27781 0.26232,0.46365c0.00117,1.38736 0.00062,2.7747 0.00062,4.42759c-1.50255,-1.20509 -2.80114,-2.2451 -4.09723,-3.28798c-0.13444,-0.1334 -0.19699,-0.3196 -0.16922,-0.5038c-0.00122,-1.33532 -0.00066,-2.67062 -0.00066,-4.27393z"/><path d="M228.41647,92.84715c1.43159,1.14412 2.68363,2.15088 3.94458,3.14716c0.22516,0.17109 0.34843,0.43843 0.32944,0.7145c-0.00704,1.33318 -0.00309,2.66641 -0.00309,4.20122c-1.44773,-1.15339 -2.79579,-2.21739 -4.12439,-3.30351c-0.11462,-0.09372 -0.13902,-0.33355 -0.14044,-0.50599c-0.01102,-1.33852 -0.00608,-2.67713 -0.00608,-4.25338z"/><path d="M233.92184,91.09976c1.47402,1.17384 2.73367,2.18171 4.00038,3.18128c0.19526,0.15945 0.29721,0.40117 0.2729,0.64699c-0.00239,1.34081 -0.00111,2.68163 -0.00111,4.22731c-1.44008,-1.14227 -2.74428,-2.17673 -4.04841,-3.21129c-0.16598,-0.14599 -0.2496,-0.35985 -0.22498,-0.57534c0.00246,-1.33703 0.00121,-2.67406 0.00121,-4.26894z"/><path d="M233.92469,146.03442c1.42964,1.14343 2.64424,2.11538 3.85961,3.08636c0.1942,0.15517 0.40584,0.2909 0.40508,0.57907c-0.00362,1.39166 -0.00163,2.78331 -0.00163,4.38876c-1.47077,-1.16599 -2.7805,-2.1982 -4.07809,-3.24444c-0.11018,-0.10643 -0.17363,-0.24978 -0.17716,-0.40023c-0.01278,-1.39156 -0.00781,-2.78327 -0.00781,-4.40952z"/><path d="M238.1893,123.56231c-1.48184,-1.17322 -2.74427,-2.17073 -4.00334,-3.1722c-0.15651,-0.10864 -0.25118,-0.28188 -0.25575,-0.46795c0.00136,-1.38821 0.0007,-2.77642 0.0007,-4.40003c1.48156,1.17846 2.78497,2.21339 4.08529,3.2519c0.1354,0.13273 0.19917,0.31871 0.17256,0.50325c0.00098,1.33604 0.00053,2.67209 0.00053,4.28504z"/></g><g fill="#ebffe8" stroke-width="1"><path d="M217.06622,120.86244c1.48603,1.1697 2.8022,2.20648 4.11961,3.24179c0.17003,0.14199 0.25853,0.35456 0.2376,0.5707c-0.00258,1.36561 -0.00129,2.73121 -0.00129,4.3044c-1.47796,-1.17248 -2.80876,-2.22766 -4.13873,-3.28382c-0.22313,-0.17721 -0.2179,-0.42524 -0.21769,-0.67228c0.00107,-1.31257 0.0005,-2.62513 0.0005,-4.16077z"/><path d="M217.06434,175.78889c1.5002,1.19532 2.80381,2.23435 4.10791,3.27279c0.25098,0.19985 0.25265,0.47393 0.25221,0.75306c-0.00207,1.28285 -0.0009,2.5657 -0.0009,4.09352c-0.88941,-0.70267 -1.58667,-1.40386 -2.4214,-1.8811c-1.64083,-0.93811 -2.24089,-2.24005 -1.95431,-4.02875c0.1028,-0.6416 0.0165,-1.31138 0.0165,-2.20952z"/><path d="M215.92374,142.90333c-1.53093,-1.21863 -2.86139,-2.27717 -4.19107,-3.33664c-0.1981,-0.15783 -0.1731,-0.38233 -0.17352,-0.59347c-0.00267,-1.31303 -0.00135,-2.62606 -0.00135,-4.0009c0.48592,0.04427 0.72936,0.37677 1.02805,0.60594c0.44535,0.34165 0.83468,0.77285 1.32276,1.0371c1.72518,0.93407 2.3415,2.31412 2.03068,4.17195c-0.09944,0.59441 -0.01556,1.21742 -0.01556,2.11601z"/><path d="M226.92288,139.38454c-1.47432,-1.17303 -2.73736,-2.17824 -4.00082,-3.18294c-0.21243,-0.13813 -0.34214,-0.3673 -0.34783,-0.61456c0.00641,-1.36411 0.00292,-2.72827 0.00292,-4.31714c1.48118,1.17827 2.80652,2.23155 4.13012,3.28684c0.14724,0.11968 0.22757,0.29929 0.21685,0.48486c-0.0023,1.36181 -0.00123,2.7236 -0.00123,4.34294z"/><path d="M217.06536,102.47689c1.46243,1.17039 2.74513,2.19569 4.02587,3.22322c0.20678,0.14768 0.32936,0.38084 0.33078,0.62919c-0.00294,1.36059 -0.00135,2.7212 -0.00135,4.27007c-1.47655,-1.16657 -2.8106,-2.21935 -4.14284,-3.27428c-0.22262,-0.17628 -0.21315,-0.42674 -0.21296,-0.67306c0.00102,-1.31072 0.00048,-2.62145 0.00048,-4.17514z"/><path d="M222.60328,180.18572c1.35506,1.07735 2.54052,2.04074 3.75259,2.97189c0.39172,0.26397 0.61245,0.70617 0.5823,1.16652c-0.03108,1.24739 -0.01014,2.49598 -0.01014,3.95538c-1.48075,-1.17767 -2.83096,-2.24978 -4.17683,-3.32692c-0.07594,-0.05652 -0.12663,-0.13892 -0.1417,-0.23036c-0.00842,-1.46635 -0.0062,-2.93276 -0.0062,-4.53651z"/><path d="M222.61072,106.88272c1.40339,1.11861 2.64368,2.11049 3.88881,3.09665c0.2239,0.17735 0.43059,0.33852 0.42817,0.66291c-0.01019,1.36068 -0.00431,2.72148 -0.00431,4.34516c-1.5102,-1.21249 -2.8325,-2.27265 -4.15118,-3.33697c-0.07831,-0.05321 -0.13342,-0.13255 -0.15471,-0.22271c-0.00916,-1.4643 -0.00679,-2.92865 -0.00679,-4.54505z"/><path d="M221.42452,147.26349c-1.48789,-1.18307 -2.79275,-2.22349 -4.10178,-3.25902c-0.25478,-0.20156 -0.25807,-0.46727 -0.25734,-0.74675c0.00336,-1.28252 0.00149,-2.56504 0.00149,-3.93321c0.83719,0.2988 1.31052,0.98435 1.98875,1.37164c1.92828,1.10111 2.82798,2.64012 2.38332,4.83631c-0.09857,0.48685 -0.01444,1.00815 -0.01444,1.73104z"/><path d="M211.56684,159.20496c0.76487,0.59353 1.28223,1.11177 1.90329,1.45557c2.07104,1.14646 2.88958,2.80507 2.45655,5.07128c-0.08209,0.42964 -0.01177,0.88642 -0.01177,1.57569c-1.50544,-1.20097 -2.83261,-2.25875 -4.15813,-3.31844c-0.1411,-0.12651 -0.21204,-0.30994 -0.19136,-0.4948c0.00269,-1.3619 0.00143,-2.7238 0.00143,-4.28931z"/><path d="M221.42188,177.79375c-1.49191,-1.18592 -2.75924,-2.19545 -4.02977,-3.20119c-0.20915,-0.14261 -0.33215,-0.37553 -0.32886,-0.62275c0.00886,-1.36722 0.00404,-2.73451 0.00404,-4.29314c1.47477,1.16749 2.80724,2.22201 4.13917,3.27714c0.14772,0.11997 0.22787,0.3004 0.21609,0.48645c-0.00125,1.3643 -0.00066,2.72862 -0.00066,4.35349z"/><path d="M221.42473,153.39245c-1.53568,-1.22752 -2.86545,-2.28432 -4.18277,-3.35541c-0.10614,-0.10914 -0.16506,-0.25333 -0.16468,-0.40306c-0.01185,-1.38931 -0.00724,-2.77875 -0.00724,-4.37381c1.46421,1.17117 2.76754,2.21252 4.06913,3.25594c0.19653,0.15965 0.30326,0.3997 0.28777,0.64725c-0.00488,1.30833 -0.00222,2.61672 -0.00222,4.22908z"/><path d="M226.91971,169.90491c-1.51765,-1.2038 -2.84655,-2.25562 -4.17161,-3.31188c-0.13518,-0.13307 -0.19873,-0.31921 -0.17201,-0.50383c-0.00003,-1.36336 0,-2.72671 0,-4.28541c1.44872,1.15186 2.75222,2.18723 4.05403,3.22451c0.17985,0.13147 0.28644,0.33602 0.28857,0.55383c0.00205,1.35926 0.00102,2.71852 0.00102,4.32278z"/><path d="M232.4295,162.12446c-1.48996,-1.18421 -2.79871,-2.22455 -4.10768,-3.26462c-0.21904,-0.17404 -0.24216,-0.40988 -0.24144,-0.66181c0.00375,-1.31045 0.00174,-2.6209 0.00174,-4.0326c0.9214,0.4031 1.53411,1.06586 2.22287,1.60731c2.22798,1.75149 2.21097,1.76865 2.12674,4.55109c-0.01555,0.51375 -0.00222,1.02835 -0.00222,1.80065z"/><path d="M228.08127,178.41532c1.48507,1.17724 2.77435,2.19366 4.05263,3.22282c0.11719,0.10136 0.19005,0.24199 0.20382,0.39333c0.03521,1.2484 0.06596,2.4974 0.06168,3.74612c-0.00175,0.51334 -0.25151,0.55068 -0.64315,0.23296c-1.08931,-0.88362 -2.18702,-1.75753 -3.29314,-2.62172c-0.25733,-0.18085 -0.40293,-0.47477 -0.38723,-0.78174c0.01323,-1.3111 0.0054,-2.62241 0.0054,-4.19177z"/><path d="M232.35307,137.65842c-1.38944,-1.1048 -2.67709,-2.12748 -3.96294,-3.15226c-0.20271,-0.15235 -0.31747,-0.38933 -0.30861,-0.63722c0.00751,-1.34121 0.00342,-2.68248 0.00342,-4.26002c1.47903,1.17632 2.80924,2.22737 4.12521,3.29476c0.09828,0.11884 0.14712,0.2688 0.13698,0.42056c0.00987,1.39671 0.00594,2.79352 0.00594,4.33418z"/><path d="M233.58884,182.78493c1.47921,1.17289 2.74136,2.17407 4.00417,3.17448c0.15822,0.10599 0.25542,0.27781 0.26232,0.46365c0.00117,1.38736 0.00062,2.7747 0.00062,4.42759c-1.50255,-1.20509 -2.80114,-2.2451 -4.09723,-3.28798c-0.13444,-0.1334 -0.19699,-0.3196 -0.16922,-0.5038c-0.00122,-1.33532 -0.00066,-2.67062 -0.00066,-4.27393z"/><path d="M228.08313,117.34715c1.43159,1.14412 2.68363,2.15088 3.94458,3.14716c0.22516,0.17109 0.34843,0.43843 0.32944,0.7145c-0.00704,1.33318 -0.00309,2.66641 -0.00309,4.20122c-1.44773,-1.15339 -2.79579,-2.21739 -4.12439,-3.30351c-0.11462,-0.09372 -0.13902,-0.33355 -0.14044,-0.50599c-0.01102,-1.33852 -0.00608,-2.67713 -0.00608,-4.25338z"/><path d="M233.5885,115.59976c1.47402,1.17384 2.73367,2.18171 4.00038,3.18128c0.19526,0.15945 0.29721,0.40117 0.2729,0.64699c-0.00239,1.34081 -0.00111,2.68163 -0.00111,4.22731c-1.44008,-1.14227 -2.74428,-2.17673 -4.04841,-3.21129c-0.16598,-0.14599 -0.2496,-0.35985 -0.22498,-0.57534c0.00246,-1.33703 0.00121,-2.67406 0.00121,-4.26894z"/><path d="M233.59135,170.53442c1.42964,1.14343 2.64424,2.11538 3.85961,3.08636c0.1942,0.15517 0.40584,0.2909 0.40508,0.57907c-0.00362,1.39166 -0.00163,2.78331 -0.00163,4.38876c-1.47077,-1.16599 -2.7805,-2.1982 -4.07809,-3.24444c-0.11018,-0.10643 -0.17363,-0.24978 -0.17716,-0.40023c-0.01278,-1.39156 -0.00781,-2.78327 -0.00781,-4.40952z"/><path d="M237.85596,148.06231c-1.48184,-1.17322 -2.74427,-2.17073 -4.00334,-3.1722c-0.15651,-0.10864 -0.25118,-0.28188 -0.25575,-0.46795c0.00136,-1.38821 0.0007,-2.77642 0.0007,-4.40003c1.48156,1.17846 2.78497,2.21339 4.08529,3.2519c0.1354,0.13273 0.19917,0.31871 0.17256,0.50325c0.00098,1.33604 0.00053,2.67209 0.00053,4.28504z"/></g><g data-paper-data="{&quot;index&quot;:null}" fill="#ebffe8" stroke-width="1"><path d="M232.68991,149.7151c-1.48603,-1.1697 -2.8022,-2.20648 -4.11961,-3.24179c-0.17003,-0.14199 -0.25853,-0.35456 -0.2376,-0.5707c0.00258,-1.36561 0.00129,-2.73121 0.00129,-4.3044c1.47796,1.17248 2.80876,2.22766 4.13873,3.28382c0.22313,0.17721 0.2179,0.42524 0.21769,0.67228c-0.00107,1.31257 -0.0005,2.62513 -0.0005,4.16077z"/><path d="M232.69179,94.78865c-1.5002,-1.19532 -2.80381,-2.23435 -4.10791,-3.27279c-0.25098,-0.19985 -0.25265,-0.47393 -0.25221,-0.75306c0.00207,-1.28285 0.0009,-2.5657 0.0009,-4.09352c0.88941,0.70267 1.58667,1.40386 2.4214,1.8811c1.64083,0.93811 2.24089,2.24005 1.95431,4.02875c-0.1028,0.6416 -0.0165,1.31138 -0.0165,2.20952z"/><path d="M233.83239,127.67421c1.53093,1.21863 2.86139,2.27717 4.19107,3.33664c0.1981,0.15783 0.1731,0.38233 0.17352,0.59347c0.00267,1.31303 0.00135,2.62606 0.00135,4.0009c-0.48592,-0.04427 -0.72936,-0.37677 -1.02805,-0.60594c-0.44535,-0.34165 -0.83468,-0.77285 -1.32276,-1.0371c-1.72518,-0.93407 -2.3415,-2.31412 -2.03068,-4.17195c0.09944,-0.59441 0.01556,-1.21742 0.01556,-2.11601z"/><path d="M222.83325,131.193c1.47432,1.17303 2.73736,2.17824 4.00082,3.18294c0.21243,0.13813 0.34214,0.3673 0.34783,0.61456c-0.00641,1.36411 -0.00292,2.72827 -0.00292,4.31714c-1.48118,-1.17827 -2.80652,-2.23155 -4.13012,-3.28684c-0.14724,-0.11968 -0.22757,-0.29929 -0.21685,-0.48486c0.0023,-1.36181 0.00123,-2.7236 0.00123,-4.34294z"/><path d="M232.69077,168.10065c-1.46243,-1.17039 -2.74513,-2.19569 -4.02587,-3.22322c-0.20678,-0.14768 -0.32936,-0.38084 -0.33078,-0.62919c0.00294,-1.36059 0.00135,-2.7212 0.00135,-4.27007c1.47655,1.16657 2.8106,2.21935 4.14284,3.27428c0.22262,0.17628 0.21315,0.42674 0.21296,0.67306c-0.00102,1.31072 -0.00048,2.62145 -0.00048,4.17514z"/><path d="M227.15285,90.39182c-1.35506,-1.07735 -2.54052,-2.04074 -3.75259,-2.97189c-0.39172,-0.26397 -0.61245,-0.70617 -0.5823,-1.16652c0.03108,-1.24739 0.01014,-2.49598 0.01014,-3.95538c1.48075,1.17767 2.83096,2.24978 4.17683,3.32692c0.07594,0.05652 0.12663,0.13892 0.1417,0.23036c0.00842,1.46635 0.0062,2.93276 0.0062,4.53651z"/><path d="M227.14541,163.69482c-1.40339,-1.11861 -2.64368,-2.11049 -3.88881,-3.09665c-0.2239,-0.17735 -0.43059,-0.33852 -0.42817,-0.66291c0.01019,-1.36068 0.00431,-2.72148 0.00431,-4.34516c1.5102,1.21249 2.8325,2.27265 4.15118,3.33697c0.07831,0.05321 0.13342,0.13255 0.15471,0.22271c0.00916,1.4643 0.00679,2.92865 0.00679,4.54505z"/><path d="M228.33161,123.31405c1.48789,1.18307 2.79275,2.22349 4.10178,3.25902c0.25478,0.20156 0.25807,0.46727 0.25734,0.74675c-0.00336,1.28252 -0.00149,2.56504 -0.00149,3.93321c-0.83719,-0.2988 -1.31052,-0.98435 -1.98875,-1.37164c-1.92828,-1.10111 -2.82798,-2.64012 -2.38332,-4.83631c0.09857,-0.48685 0.01444,-1.00815 0.01444,-1.73104z"/><path d="M238.18929,111.37258c-0.76487,-0.59353 -1.28223,-1.11177 -1.90329,-1.45557c-2.07104,-1.14646 -2.88958,-2.80507 -2.45655,-5.07128c0.08209,-0.42964 0.01177,-0.88642 0.01177,-1.57569c1.50544,1.20097 2.83261,2.25875 4.15813,3.31844c0.1411,0.12651 0.21204,0.30994 0.19136,0.4948c-0.00269,1.3619 -0.00143,2.7238 -0.00143,4.28931z"/><path d="M228.33425,92.78379c1.49191,1.18592 2.75924,2.19545 4.02977,3.20119c0.20915,0.14261 0.33215,0.37553 0.32886,0.62275c-0.00886,1.36722 -0.00404,2.73451 -0.00404,4.29314c-1.47477,-1.16749 -2.80724,-2.22201 -4.13917,-3.27714c-0.14772,-0.11997 -0.22787,-0.3004 -0.21609,-0.48645c0.00125,-1.3643 0.00066,-2.72862 0.00066,-4.35349z"/><path d="M228.3314,117.18509c1.53568,1.22752 2.86545,2.28432 4.18277,3.35541c0.10614,0.10914 0.16506,0.25333 0.16468,0.40306c0.01185,1.38931 0.00724,2.77875 0.00724,4.37381c-1.46421,-1.17117 -2.76754,-2.21252 -4.06913,-3.25594c-0.19653,-0.15965 -0.30326,-0.3997 -0.28777,-0.64725c0.00488,-1.30833 0.00222,-2.61672 0.00222,-4.22908z"/><path d="M222.83642,100.67263c1.51765,1.2038 2.84655,2.25562 4.17161,3.31188c0.13518,0.13307 0.19873,0.31921 0.17201,0.50383c0.00003,1.36336 0,2.72671 0,4.28541c-1.44872,-1.15186 -2.75222,-2.18723 -4.05403,-3.22451c-0.17985,-0.13147 -0.28644,-0.33602 -0.28857,-0.55383c-0.00205,-1.35926 -0.00102,-2.71852 -0.00102,-4.32278z"/><path d="M217.32663,108.45308c1.48996,1.18421 2.79871,2.22455 4.10768,3.26462c0.21904,0.17404 0.24216,0.40988 0.24144,0.66181c-0.00375,1.31045 -0.00174,2.6209 -0.00174,4.0326c-0.9214,-0.4031 -1.53411,-1.06586 -2.22287,-1.60731c-2.22798,-1.75149 -2.21097,-1.76865 -2.12674,-4.55109c0.01555,-0.51375 0.00222,-1.02835 0.00222,-1.80065z"/><path d="M221.67486,92.16222c-1.48507,-1.17724 -2.77435,-2.19366 -4.05263,-3.22282c-0.11719,-0.10136 -0.19005,-0.24199 -0.20382,-0.39333c-0.03521,-1.2484 -0.06596,-2.4974 -0.06168,-3.74612c0.00175,-0.51334 0.25151,-0.55068 0.64315,-0.23296c1.08931,0.88362 2.18702,1.75753 3.29314,2.62172c0.25733,0.18085 0.40293,0.47477 0.38723,0.78174c-0.01323,1.3111 -0.0054,2.62241 -0.0054,4.19177z"/><path d="M217.40306,132.91912c1.38944,1.1048 2.67709,2.12748 3.96294,3.15226c0.20271,0.15235 0.31747,0.38933 0.30861,0.63722c-0.00751,1.34121 -0.00342,2.68248 -0.00342,4.26002c-1.47903,-1.17632 -2.80924,-2.22737 -4.12521,-3.29476c-0.09828,-0.11884 -0.14712,-0.2688 -0.13698,-0.42056c-0.00987,-1.39671 -0.00594,-2.79352 -0.00594,-4.33418z"/><path d="M216.16729,87.79261c-1.47921,-1.17289 -2.74136,-2.17407 -4.00417,-3.17448c-0.15822,-0.10599 -0.25542,-0.27781 -0.26232,-0.46365c-0.00117,-1.38736 -0.00062,-2.7747 -0.00062,-4.42759c1.50255,1.20509 2.80114,2.2451 4.09723,3.28798c0.13444,0.1334 0.19699,0.3196 0.16922,0.5038c0.00122,1.33532 0.00066,2.67062 0.00066,4.27393z"/><path d="M221.673,153.23039c-1.43159,-1.14412 -2.68363,-2.15088 -3.94458,-3.14716c-0.22516,-0.17109 -0.34843,-0.43843 -0.32944,-0.7145c0.00704,-1.33318 0.00309,-2.66641 0.00309,-4.20122c1.44773,1.15339 2.79579,2.21739 4.12439,3.30351c0.11462,0.09372 0.13902,0.33355 0.14044,0.50599c0.01102,1.33852 0.00608,2.67713 0.00608,4.25338z"/><path d="M216.16763,154.97778c-1.47402,-1.17384 -2.73367,-2.18171 -4.00038,-3.18128c-0.19526,-0.15945 -0.29721,-0.40117 -0.2729,-0.64699c0.00239,-1.34081 0.00111,-2.68163 0.00111,-4.22731c1.44008,1.14227 2.74428,2.17673 4.04841,3.21129c0.16598,0.14599 0.2496,0.35985 0.22498,0.57534c-0.00246,1.33703 -0.00121,2.67406 -0.00121,4.26894z"/><path d="M216.16478,100.04312c-1.42964,-1.14343 -2.64424,-2.11538 -3.85961,-3.08636c-0.1942,-0.15517 -0.40584,-0.2909 -0.40508,-0.57907c0.00362,-1.39166 0.00163,-2.78331 0.00163,-4.38876c1.47077,1.16599 2.7805,2.1982 4.07809,3.24444c0.11018,0.10643 0.17363,0.24978 0.17716,0.40023c0.01278,1.39156 0.00781,2.78327 0.00781,4.40952z"/><path d="M211.90017,122.51523c1.48184,1.17322 2.74427,2.17073 4.00334,3.1722c0.15651,0.10864 0.25118,0.28188 0.25575,0.46795c-0.00136,1.38821 -0.0007,2.77642 -0.0007,4.40003c-1.48156,-1.17846 -2.78497,-2.21339 -4.08529,-3.2519c-0.1354,-0.13273 -0.19917,-0.31871 -0.17256,-0.50325c-0.00098,-1.33604 -0.00053,-2.67209 -0.00053,-4.28504z"/></g></g></g></svg>