<svg version="1.1" xmlns="http://www.w3.org/2000/svg" xmlns:xlink="http://www.w3.org/1999/xlink" width="72.5303" height="79.19782" viewBox="0,0,72.5303,79.19782"><g transform="translate(-203.76667,-132.40108)"><g data-paper-data="{&quot;isPaintingLayer&quot;:true}" fill-rule="nonzero" stroke="none" stroke-width="1" stroke-linecap="butt" stroke-linejoin="miter" stroke-miterlimit="10" stroke-dasharray="" stroke-dashoffset="0" style="mix-blend-mode: normal"><g><path d="M232.41243,180.03589c0.18469,-0.16676 0.36938,-0.33351 0.55407,-0.50028c0.61523,-0.69547 1.38808,-1.20811 2.11763,-1.76274c0.57287,-0.43551 0.92404,-0.90397 0.82058,-1.64952c-0.04563,-0.23056 0.01036,-0.46958 0.15362,-0.6559c0.4975,-0.09247 0.71206,0.42987 1.1894,0.54691c0.69784,-0.41267 1.34422,-0.97934 2.03645,-1.47933c0.394,-0.27787 0.75808,-0.59413 1.13516,-0.89372c0.33735,-0.25854 0.66284,-0.53219 0.99969,-0.79169c1.49389,-1.14489 3.00548,-2.26748 4.39751,-3.43645c0.01591,-0.31641 -0.14528,-0.42347 -0.28759,-0.53736c-2.03297,-1.6274 -4.04728,-3.27753 -6.04293,-4.95042c-2.78232,-2.32974 -5.6335,-4.57569 -8.393,-6.93262c-0.04471,-0.03595 -0.08694,-0.07466 -0.1292,-0.11352c-0.02235,-0.0183 -0.04327,-0.03797 -0.06549,-0.05638c-0.16723,-0.11849 -0.30425,-0.27462 -0.40001,-0.45583c-0.59523,-1.16425 -1.1047,-2.37143 -1.77128,-3.58488c-0.59755,0.31776 -1.08566,0.75457 -1.5877,1.15011c-3.31545,2.61203 -6.65447,5.19357 -9.98838,7.78185c-1.0517,0.81649 -2.09485,1.64415 -3.16963,2.42989c-0.36907,0.23626 -0.57916,0.65562 -0.54743,1.09269c0.02175,0.53164 0.00465,1.06504 0.02157,1.59786c-0.01426,0.09065 -0.08065,0.16435 -0.16933,0.18796c-0.35864,-0.0137 -0.56313,-0.30212 -0.83686,-0.46767c-1.95445,-1.59271 -3.87608,-3.22582 -5.85571,-4.78796c-0.27493,-0.21693 -0.5091,-0.4761 -0.77419,-0.70194c-0.18442,-0.16777 -0.42396,-0.25479 -0.61432,-0.41405c-0.22383,-0.19682 -0.41473,-0.42861 -0.65143,-0.61197c-0.20058,-0.14269 -0.39091,-0.29926 -0.56957,-0.46859c-0.07362,-0.07878 -0.1235,-0.17692 -0.20372,-0.25068c0.78638,-0.64606 1.55828,-1.31074 2.36135,-1.93538c10.62583,-8.26489 21.25436,-16.52634 31.88556,-24.78433c0.07941,-0.0617 0.16466,-0.11586 0.28339,-0.19887c3.88921,2.15416 7.77888,4.30854 11.66903,6.46311c1.81221,1.00349 3.57923,2.10292 5.44904,2.98446c2.51178,1.1842 3.98674,3.43141 5.77312,5.34552c4.94179,5.29516 9.8098,10.65914 14.70624,15.99657c0.1236,0.13473 0.23884,0.2771 0.38889,0.45196c-0.18924,0.17181 -0.36496,0.33136 -0.54071,0.49092c-0.53393,0.81314 -1.39267,1.25802 -2.12393,1.84118c-2.18178,1.73997 -4.3921,3.44451 -6.59819,5.15341c-1.6872,1.30694 -3.37995,2.60772 -5.06322,3.91983c-2.84869,2.22051 -5.69967,4.43808 -8.55296,6.65272c-3.54835,2.75999 -7.07766,5.54459 -10.64893,8.27559c-0.33818,0.1712 -0.55759,0.5805 -1.01704,0.51029c-0.32731,-0.091 -0.55562,-0.33916 -0.82666,-0.51996c-2.2213,-1.82855 -4.44121,-3.65897 -6.65969,-5.49128c-0.19054,-0.17087 -0.3973,-0.32271 -0.61733,-0.45341c-0.26672,-0.20684 -0.47641,-0.4803 -0.77382,-0.65167c-0.44336,-0.27596 -0.61609,-0.67499 -0.56541,-1.18966c0.07019,-0.71287 -0.12476,-1.43897 0.10331,-2.1448z" fill="#1b1a1b"/><path d="M242.69989,189.91378c1.77366,-1.40932 3.53839,-2.83001 5.32268,-4.22574c4.78008,-3.73913 9.56516,-7.4719 14.35523,-11.1983c3.35555,-2.60861 6.72654,-5.19739 10.08905,-7.79709c1.09907,-0.84973 2.19557,-1.70276 3.28948,-2.55908c-0.00002,6.75149 -0.00002,13.50291 -0.00002,20.28901c-10.96017,8.51088 -21.92811,17.02782 -32.90383,25.55081c-0.29946,-0.04985 -0.29533,-0.30214 -0.33238,-0.516c-0.02741,-0.22365 -0.03559,-0.44925 -0.02448,-0.67429c-0.00063,-5.91611 0.00041,-11.83222 0.0031,-17.74833c0.00033,-0.38133 -0.07599,-0.78541 0.20115,-1.12098z" fill="#470f00"/><path d="M227.55904,176.19969c-4.39092,3.40968 -8.78183,6.81937 -13.17275,10.22905c-0.28112,-0.01996 -0.28944,-0.25044 -0.32785,-0.4433c-0.03247,-0.22355 -0.04291,-0.44975 -0.03116,-0.67535c-0.00063,-6.01178 -0.00036,-12.02357 0.00083,-18.03536c-0.01133,-0.22511 0.00034,-0.4508 0.03486,-0.67354c0.00941,-0.07271 0.02181,-0.14632 0.03519,-0.21871c0.05906,-0.20033 0.18702,-0.37335 0.36127,-0.48847c0.0714,-0.05768 0.14699,-0.11111 0.21957,-0.16724c0.69621,-0.57519 1.41735,-1.11988 2.12876,-1.67661c0.0652,-0.04778 0.13293,-0.09244 0.19883,-0.13925c0.12642,-0.09525 0.25072,-0.19363 0.3782,-0.2881c0.04059,-0.0357 0.08287,-0.06885 0.12468,-0.10322c0.01993,-0.0192 0.04092,-0.03641 0.06103,-0.05576c0.03959,-0.04148 0.08117,-0.07959 0.12303,-0.11841c2.63609,-1.99424 5.18313,-4.10287 7.84709,-6.06025c0.36411,-0.26752 0.7113,-0.55652 1.05543,-0.8496c0.24796,-0.21119 0.49275,-0.43563 0.77839,-0.50311c0.26093,0.01406 0.31401,0.17121 0.3652,0.33353c0.05034,0.30433 0.06804,0.61318 0.05282,0.92127c0.00132,5.94778 -0.00002,11.89556 -0.004,17.84334c-0.00048,0.39802 0.1,0.82971 -0.22944,1.16911z" fill="#4e0900"/><path d="M239.3967,174.57908c-0.72189,0.58671 -1.44593,1.17517 -2.1721,1.76536c-0.38163,-0.299 -0.71081,-0.5569 -1.15708,-0.90653c0.36973,2.54201 -1.81551,2.95864 -3.10103,4.09766c-1.34982,-1.10835 -2.69967,-2.21671 -4.04953,-3.3251c-0.30888,-0.18796 -0.33136,-0.49843 -0.3397,-0.81015c-0.01643,-0.61552 -0.00687,-1.23129 -0.00693,-1.84695c-0.00063,-5.72581 -0.00033,-11.45163 0.00092,-17.17744c0.00013,-0.36848 -0.02752,-0.73932 0.05408,-1.10295c0.03354,-0.13403 0.1164,-0.25046 0.23202,-0.3261c0.73819,0.29444 1.30118,0.80935 1.78689,1.42573c0.12182,0.12376 0.24364,0.24751 0.36545,0.37127c1.04066,1.83133 1.83505,3.7834 2.77858,5.66238c0.42238,0.84117 0.78679,1.71018 1.22138,2.54574c0.15795,0.26457 0.26071,0.55839 0.30207,0.86374c0.00006,0.06091 -0.00792,0.12157 -0.02372,0.18039c-0.33493,0.61373 -0.32499,1.23627 -0.10904,1.89284c0.63901,1.94285 1.80241,3.50188 3.40648,4.74913c0.11541,0.09973 0.21353,0.21786 0.29041,0.34959c0.13739,0.54201 0.64601,0.96337 0.52087,1.59135z" fill="#4b0b00"/><path d="M232.24675,183.3632l0.01139,-0.12769c0.34362,0.05987 0.31049,0.3523 0.31053,0.57398c0.00019,1.28887 0.06178,2.57706 -0.05469,3.86685c-0.12343,1.367 -0.01486,2.74048 -0.01796,4.11105c-0.00135,0.59423 -0.04148,1.18635 -0.05088,1.77987c-0.00391,0.24733 -0.04647,0.4966 -0.32185,0.61172c-2.2093,1.71839 -4.41859,3.43677 -6.67817,5.19429c-2.22677,-1.83262 -4.44375,-3.65717 -6.76621,-5.56856c2.9825,-2.30206 5.87189,-4.53224 8.76128,-6.76244c1.47613,-0.20215 2.97378,-0.18763 4.48963,-0.41293c0.2002,-0.69719 0.07147,-1.39408 0.10479,-2.07871c0.01976,-0.40607 -0.04988,-0.82557 0.21216,-1.18748z" fill="#d3beb3"/><path d="M234.34161,184.32335c2.21464,1.83905 4.42929,3.67809 6.64393,5.51712c0.27974,1.19229 0.11858,2.40524 0.14744,3.60732c0.03921,1.63311 0.03642,3.26973 0.00653,4.90202c-0.01835,1.00198 0.04084,2.00652 -0.039,3.00741c-0.07536,0.9447 0.03338,1.88415 0.08483,2.82419c0.09646,1.7627 -0.24611,3.51928 -0.0555,5.28321c0.02486,0.23011 0.0793,0.57269 -0.37033,0.47182c-2.25442,-1.87468 -4.50885,-3.74937 -6.76327,-5.62404c-0.05481,-0.19755 -0.08355,-0.40141 -0.08551,-0.60643c0.00181,-6.23638 0.00261,-12.47276 0.0024,-18.70915c-0.01762,-0.1638 0.00031,-0.32947 0.05254,-0.48571c0.07199,-0.15907 0.1668,-0.29337 0.37592,-0.18775z" fill="#9c2400"/><path d="M205.87068,160.91602c2.2145,1.83956 4.429,3.67912 6.6435,5.51868c0.13757,0.17433 0.13244,0.38015 0.13169,0.58599c-0.02184,6.12829 -0.01385,12.25661 -0.01803,18.38492c-0.0002,0.2855 0.01992,0.57578 -0.10453,0.84695c-0.04565,0.09943 -0.10962,0.17113 -0.23277,0.15241c-2.25378,-1.87549 -4.50756,-3.75097 -6.76135,-5.62645c-0.05292,-0.1767 -0.08243,-0.35957 -0.08775,-0.54394c0.00083,-6.23444 0.0027,-12.46888 0.00559,-18.70333c0.00029,-0.28282 -0.0748,-0.65727 0.42365,-0.61525z" fill="#9c2400"/><path d="M228.80961,155.01437c-0.00142,6.80503 -0.00127,13.61006 0.00046,20.4151c0.01741,0.26251 0.05312,0.52349 0.10686,0.78103c-0.2502,0.11882 -0.50043,0.23763 -0.78993,0.3751c-0.16866,-0.11464 -0.36825,-0.25029 -0.56789,-0.38592c-0.00338,-6.7354 -0.00675,-13.47082 -0.01008,-20.20625c0.16556,-0.56372 0.67341,-0.95815 1.26058,-0.97904z" fill="#634f58"/><path d="M212.29053,186.405c0.32141,-0.17493 0.16191,-0.47816 0.1623,-0.71422c0.0099,-6.07173 0.01282,-12.14346 0.00875,-18.21522c0.00015,-0.34696 0.03441,-0.69391 0.0527,-1.04085c0.24839,0.17963 0.49683,0.35926 0.74538,0.53889c0.28163,0.10567 0.31481,0.35582 0.3412,0.60268c0.02149,0.28632 0.02771,0.57359 0.01866,0.86058c0.00048,6.19233 0.00152,12.38467 0.00314,18.57699c0.0055,0.34805 -0.02876,0.69558 -0.10214,1.03586c-0.61864,0.02681 -0.98174,-0.27822 -1.1087,-0.87045c-0.05467,-0.25505 -0.08169,-0.51602 -0.12127,-0.77428z" fill="#e4d9d3"/><path d="M240.75952,209.93643c0.35119,-0.09587 0.16695,-0.37572 0.16721,-0.5614c0.00871,-6.37075 0.01126,-12.7415 0.00764,-19.11224c0.00835,-0.1417 0.02549,-0.28275 0.0513,-0.42232c0.24585,0.18503 0.49177,0.37004 0.73777,0.55504c0.28637,0.0993 0.32147,0.34875 0.34759,0.59643c0.0212,0.2864 0.02735,0.57371 0.01841,0.86074c0.00045,6.21393 0.00153,12.42785 0.00329,18.64178c0.00466,0.36849 -0.02909,0.73647 -0.10071,1.09797c-0.65508,0.06189 -0.95871,-0.32673 -1.10729,-0.88638c-0.05497,-0.25421 -0.09678,-0.51108 -0.12522,-0.7696z" fill="#e3d9d2"/><path d="M213.52051,188.04969c-0.27307,-0.20128 -0.14277,-0.49236 -0.14306,-0.739c-0.00765,-6.54061 -0.01118,-13.08121 -0.0106,-19.62182c-0.01755,-0.2408 -0.05339,-0.47993 -0.10721,-0.7153c0.05151,-0.03911 0.103,-0.07824 0.1545,-0.11737c0.00055,-0.09509 0.05059,-0.18303 0.13206,-0.23208c0.03515,-0.02991 0.07236,-0.05747 0.10967,-0.08468c0.01751,-0.01494 0.03618,-0.02848 0.05374,-0.04352c0.03379,-0.03215 0.0694,-0.06197 0.1049,-0.09236c0.0177,-0.0158 0.03619,-0.03019 0.0541,-0.04585c0.03744,-0.02997 0.07826,-0.05548 0.12162,-0.07599c0.04563,-0.01598 0.09393,-0.02296 0.14221,-0.02057c0.04634,0.01352 0.08985,0.03532 0.12843,0.06434c0.00248,6.48966 0.00637,12.97931 0.01167,19.46896c0.00025,0.21256 -0.09387,0.45414 0.11374,0.6343c-0.25289,0.29404 -0.07655,0.65887 -0.17871,1.04752c-0.20021,0.1671 -0.44364,0.37025 -0.68705,0.57341z" fill="#766775"/><path d="M241.99203,211.59242c-0.24758,-0.18466 -0.14449,-0.45249 -0.14466,-0.68343c-0.00489,-6.5801 -0.00741,-13.16018 -0.00757,-19.74028c-0.01905,-0.26033 -0.05796,-0.51883 -0.11638,-0.77322c0.32556,-0.16058 0.65108,-0.32118 0.97655,-0.48175c-0.00063,6.48165 0.00019,12.96326 0.00246,19.44484c0.00015,0.2094 -0.1011,0.45997 0.15017,0.61476c-0.32671,0.30687 -0.18363,0.72727 -0.24363,1.10128c-0.21126,0.17732 -0.4141,0.34757 -0.61694,0.51781z" fill="#6c788a"/><path d="M232.12328,194.17902c0.31118,-1.09452 0.20648,-2.23344 0.16134,-3.3261c-0.09549,-2.31139 0.2124,-4.60928 0.08727,-6.91436c-0.01285,-0.23662 0.08596,-0.4955 -0.11379,-0.70315c-0.00922,-0.88978 -0.02222,-1.77964 -0.0248,-2.66956c-0.00056,-0.19065 -0.06851,-0.41749 0.17915,-0.52996c-0.00001,0.87017 -0.00001,1.74033 -0.00001,2.69791c0.18628,0.15999 0.44641,0.38341 0.70654,0.60685c0.16591,0.3078 0.24304,0.65562 0.2228,1.0047c-0.00148,6.40821 -0.00179,12.81642 -0.00093,19.22464c-0.00002,0.33229 -0.02723,0.65459 -0.20611,0.946c-0.59284,-0.18239 -0.89676,-0.54844 -0.89307,-1.20361c0.01584,-2.81065 0.00893,-5.62146 0.00281,-8.43218c-0.00051,-0.23581 0.087,-0.49712 -0.12118,-0.70115z" fill="#e5dcd5"/><path d="M204.03161,159.44069l0.61277,0.49685c0.1953,0.30807 0.22721,0.65013 0.22715,1.00502c-0.00105,6.36241 -0.00135,12.72483 -0.00086,19.08724c-0.00002,0.3322 -0.02079,0.65687 -0.19977,0.94997c-0.60703,-0.2036 -0.91417,-0.57419 -0.90399,-1.26538c0.03434,-2.32913 0.0208,-4.65898 0.02558,-6.98856c0.09197,-0.21759 0.04621,-0.44632 0.04639,-0.66931c0.00317,-4.00249 -0.00157,-8.005 0.01404,-12.00743c0.00075,-0.1942 -0.20611,-0.5061 0.17869,-0.60842z" fill="#e5dbd5"/><path d="M233.13472,204.51596c-0.00527,-7.05844 -0.01051,-14.11689 -0.01577,-21.17533l0.61772,0.62566c0.19322,0.19681 0.17577,0.4461 0.17576,0.69267c-0.00025,6.26791 -0.00081,12.53583 -0.00171,18.80374c-0.00007,0.24174 0.04229,0.49882 -0.17262,0.68887c-0.20113,0.12146 -0.40226,0.24293 -0.60338,0.36439z" fill="#71626d"/><path d="M204.6709,180.97976c-0.00886,-7.01407 -0.0177,-14.02816 -0.02653,-21.04224c0.20866,0.20681 0.41732,0.41362 0.62599,0.62041c0.13229,0.23202 0.19295,0.49799 0.17435,0.76443c-0.00307,6.2047 -0.00437,12.4094 -0.00387,18.61409c-0.00007,0.24163 0.04244,0.49873 -0.17277,0.68854c-0.19905,0.11824 -0.39812,0.2365 -0.59716,0.35475z" fill="#82707c"/><path d="M232.24675,183.3632v3.54953c-1.64858,-0.05181 -3.21,0.43149 -4.80656,0.12957c1.60218,-1.22636 3.20436,-2.45272 4.80656,-3.67911z" fill="#d3beb3"/><path d="M233.7381,204.15157c-0.00051,-6.72848 -0.00099,-13.45692 -0.00146,-20.18536c0.20171,0.11911 0.40337,0.23818 0.60501,0.35717c-0.38928,0.11574 -0.22672,0.44057 -0.22709,0.67223c-0.00969,6.18154 -0.01431,12.36308 -0.01387,18.54463c-0.01715,0.25941 -0.0521,0.51734 -0.10459,0.77197c-0.08588,-0.05343 -0.17188,-0.10697 -0.25798,-0.16063z" fill="#471004"/><path d="M205.26806,180.62502c0.00074,-6.68903 0.00149,-13.37805 0.00225,-20.06708c0.20018,0.1194 0.40033,0.2388 0.60042,0.35815c-0.38458,0.11967 -0.22724,0.4432 -0.22758,0.67707c-0.00879,6.13674 -0.01265,12.27348 -0.01159,18.41024c-0.0168,0.26034 -0.05105,0.51924 -0.10255,0.77498c-0.08687,-0.05102 -0.17386,-0.10214 -0.26095,-0.15337z" fill="#4a1004"/><path d="M235.21851,165.8383c-1.40759,-2.9429 -2.81359,-5.88657 -4.21798,-8.83099c-0.03351,-0.07042 0.00454,-0.17489 0.00918,-0.26343l0.00229,-0.0016c0.04214,0.03622 0.08398,0.07278 0.12551,0.1097c5.02137,4.12319 10.04276,8.24636 15.15437,12.44366c-1.64783,1.27001 -3.21088,2.47466 -4.77394,3.67932c-0.1885,-0.11268 -0.19004,-0.30551 -0.19814,-0.48776c-0.07712,-1.73709 -0.97274,-3.10236 -2.05349,-4.35289c-0.55683,-0.6443 -1.14612,-1.27967 -1.9115,-1.71599c-0.56526,-0.32223 -1.12707,-0.58651 -1.79995,-0.48024c-0.12197,0.034 -0.25265,-0.00477 -0.33635,-0.09979z" fill="#9c2200"/><path d="M213.63803,166.68848c-0.07465,0.05589 -0.14929,0.11179 -0.22393,0.1677c-0.50786,-1.20231 -0.13986,-2.34107 1.25014,-3.42814c4.67889,-3.65916 9.38144,-7.28812 14.14537,-10.98326c0.61778,1.3226 1.22621,2.62518 1.83462,3.92782c-0.61161,-0.45273 -1.2232,-0.90548 -1.83473,-1.35828c-0.48316,0.23596 -0.91228,0.56931 -1.26041,0.9791c-1.73396,1.31145 -3.47262,2.61668 -5.20031,3.93626c-1.55424,1.18709 -3.09644,2.38994 -4.64396,3.58582c-0.04068,0.03762 -0.08103,0.07558 -0.12105,0.11389l-0.00709,0.00676c-0.03618,0.03907 -0.07404,0.07648 -0.11357,0.11217c-0.12508,0.08626 -0.25017,0.17252 -0.37527,0.25877c-0.03908,0.0378 -0.07855,0.0752 -0.11837,0.11223l-2.22643,1.73489c-0.03699,0.03861 -0.07512,0.07607 -0.1144,0.11234c-0.1217,0.08477 -0.24339,0.16954 -0.3651,0.25431c-0.03573,0.04272 -0.08116,0.07624 -0.1325,0.0978c-0.0235,0.02396 -0.05453,0.03909 -0.08789,0.04282c-0.06457,0.01588 -0.12003,0.05706 -0.15392,0.11424l0.00339,-0.00292c-0.04734,0.0345 -0.09158,0.07308 -0.13219,0.11531l-0.0021,0.00162c-0.03374,0.03999 -0.07452,0.07346 -0.12031,0.09875z" fill="#080609"/><path d="M235.21851,165.8383c1.02539,-0.38336 1.89443,0.08249 2.6013,0.68093c1.99873,1.69214 3.69369,3.60284 3.69803,6.45584c-0.33292,0.25487 -0.6659,0.50982 -0.99896,0.76484c-0.70938,0.06285 -1.32161,-0.10535 -1.74124,-0.73151c-0.0837,-0.08587 -0.16738,-0.17174 -0.25107,-0.25761c-0.04437,-0.13219 -0.23519,-0.22888 -0.09864,-0.40507c0.24811,-0.10912 0.43029,0.05789 0.62637,0.15507c0.22973,0.13495 0.47898,0.23347 0.73889,0.29205c0.67615,0.10521 1.01985,-0.18449 1.0225,-0.86327c0.0043,-0.08191 -0.00097,-0.16405 -0.01566,-0.24475c-0.53569,-2.28749 -1.84894,-3.96845 -3.93968,-5.04293c-0.34638,-0.17761 -0.72128,-0.10412 -1.08805,-0.06614c-0.0615,-0.00051 -0.12262,-0.00963 -0.18159,-0.02709c-0.24,-0.1199 -0.39096,-0.29866 -0.38232,-0.58187z" fill="#3a322f"/><path d="M238.77763,173.00839c0.51802,0.39208 1.13542,0.54784 1.74115,0.73149c-0.37399,0.27982 -0.74802,0.55959 -1.1221,0.83931c-0.20635,-0.52368 -0.41271,-1.04727 -0.61906,-1.5708z" fill="#972202"/><path d="M231.01203,156.74224c0.04184,0.03657 0.08367,0.07314 0.1255,0.10975c-0.04185,-0.03656 -0.08368,-0.07313 -0.1255,-0.10975z" fill="#4b0b00"/><path d="M243.7235,204.51283v-5.15549l3.93236,-3.07575c0.35187,0.0506 0.30208,0.34466 0.30558,0.56339c0.02227,1.39094 0.0143,2.78217 0.00759,4.17333c0.00714,0.35382 -0.15966,0.68864 -0.4464,0.89606c-1.0333,0.80438 -2.06312,1.61327 -3.10059,2.41217c-0.19394,0.14934 -0.39615,0.38985 -0.69854,0.18628z" fill="#171a5d"/><path d="M243.71716,195.28486c-0.00186,-1.37305 0.04604,-2.74871 -0.02567,-4.11809c-0.0384,-0.73328 0.24423,-1.195 0.78559,-1.59841c1.06507,-0.79367 2.1195,-1.60161 3.17832,-2.40365c0.35124,0.05098 0.30292,0.34456 0.30633,0.56375c0.02136,1.37039 0.01744,2.74107 0.00524,4.11167c-0.00029,0.3753 -0.18577,0.72627 -0.49567,0.93795c-0.97856,0.7416 -1.92524,1.52365 -2.89129,2.28103c-0.24069,0.18872 -0.48887,0.48613 -0.86284,0.22577z" fill="#171a5d"/><path d="M259.7408,191.96055c-0.00041,-1.18861 0.10644,-2.38975 -0.03066,-3.5624c-0.14372,-1.229 0.40435,-1.9348 1.32732,-2.56591c0.90935,-0.62177 1.76269,-1.32534 2.6406,-1.99301c0.34957,0.05281 0.30244,0.34538 0.30585,0.56509c0.02116,1.36983 0.01803,2.73993 0.00474,4.10995c-0.00158,0.35304 -0.1658,0.68566 -0.44513,0.90157c-0.99921,0.84682 -2.06328,1.61084 -3.08758,2.42556c-0.20292,0.16141 -0.43416,0.33933 -0.71513,0.11915z" fill="#16195a"/><path d="M267.86875,176.68838c-0.00515,-1.60883 -0.00436,-3.21771 -0.02041,-4.82644c-0.00983,-0.28769 0.13401,-0.55893 0.37768,-0.71218c1.23636,-0.93028 2.46121,-1.87585 3.6901,-2.81603c0.22313,0.17821 0.19955,0.4341 0.20505,0.67594c0.02871,1.26532 -0.04134,2.53064 -0.00142,3.79613c0.02219,0.47833 -0.18917,0.93767 -0.56689,1.232c-1.03277,0.86738 -2.10864,1.67921 -3.18669,2.48834c-0.1438,0.10792 -0.28956,0.23794 -0.49746,0.16225z" fill="#171a5e"/><path d="M259.74281,182.84157c-0.00075,-1.5319 0.00793,-3.06392 -0.00887,-4.59565c-0.02342,-0.347 0.14558,-0.67883 0.43999,-0.86395c1.1825,-0.86888 2.33755,-1.77507 3.5029,-2.66725c0.34962,0.05536 0.30253,0.34837 0.30602,0.56965c0.02099,1.33013 0.01717,2.66055 0.00501,3.99089c0.00184,0.35374 -0.14846,0.6912 -0.41264,0.92645c-1.0243,0.9462 -2.18661,1.71918 -3.27209,2.58885c-0.15573,0.12476 -0.35727,0.2184 -0.56036,0.051z" fill="#171a5d"/><path d="M267.86719,185.80634c-0.00494,-1.63289 -0.00723,-3.26579 -0.01756,-4.89864c-0.00721,-0.22899 0.10312,-0.44577 0.29247,-0.57476c1.22343,-0.92601 2.4463,-1.85278 3.6686,-2.7803c0.34806,0.03094 0.25945,0.31096 0.27073,0.50879c0.06473,1.12694 0.05309,2.25695 -0.03482,3.38233c-0.00986,0.03987 -0.01366,0.081 -0.01126,0.122c0.27424,1.08921 -0.39071,1.64734 -1.1769,2.18493c-0.77844,0.5323 -1.47044,1.18398 -2.23059,1.74424c-0.22215,0.16374 -0.42744,0.40398 -0.76068,0.31142z" fill="#171a5d"/><path d="M251.73427,196.03001v-2.878c1.29,-1.02263 2.55187,-2.02297 3.81376,-3.02331c0.40204,-0.14157 0.38594,0.19085 0.41302,0.40121c0.06023,0.46759 0.02375,0.94134 0.02579,1.41253c0.00327,0.75828 -0.03297,1.51854 0.01035,2.27434c0.04289,0.74872 -0.23977,1.28993 -0.81349,1.74939c-0.81616,0.65365 -1.66167,1.26787 -2.48898,1.90621c-0.23518,0.18145 -0.46838,0.40649 -0.8515,0.38769c-0.1571,-0.73835 0.03453,-1.49558 -0.10895,-2.23006z" fill="#171b5e"/><path d="M251.84976,183.84554c1.31328,-0.98905 2.62657,-1.97812 3.93984,-2.96717c0.31794,0.04434 0.22404,0.29714 0.21922,0.47595c-0.03583,1.33049 -0.01163,2.66111 -0.01245,3.99153c-0.00032,0.5305 -0.16757,0.95495 -0.59477,1.279c-0.92958,0.70509 -1.79841,1.48899 -2.76877,2.14108c-0.22864,0.15364 -0.43774,0.387 -0.76172,0.26769c-0.14154,-0.16829 -0.08362,-0.36048 -0.08428,-0.53739c-0.00508,-1.392 -0.00527,-2.784 -0.00054,-4.17603c0.00046,-0.15891 -0.04811,-0.32886 0.06347,-0.47466z" fill="#171a5d"/><path d="M251.84976,183.84554v5.20816c1.33587,-0.90339 2.6107,-1.89388 3.81619,-2.96506c0.07862,-0.09325 0.11963,-0.21251 0.11496,-0.3344c0.00844,-1.62525 0.0074,-3.25053 0.00866,-4.87584c0.30735,-0.18392 0.50166,-0.6465 1.09881,-0.3533v6.45825c-1.63054,1.27361 -3.26533,2.55051 -5.00536,3.90962c-0.15024,-2.43682 -0.31971,-4.73892 -0.03326,-7.04743z" fill="#290e16"/><path d="M251.73427,196.03001c0.05317,0.70018 0.10633,1.40035 0.1697,2.23497c1.24965,-0.9986 2.43736,-1.94558 3.62179,-2.89664c0.16863,-0.12228 0.26778,-0.31852 0.26619,-0.5268c-0.00418,-1.45329 -0.00142,-2.90661 0,-4.35992c0.00019,-0.17586 -0.02262,-0.33202 -0.24398,-0.353c0.37388,-0.18016 0.63939,-0.56285 1.13693,-0.61047c0.40641,0.58058 0.31854,1.30617 0.28169,1.88235c-0.09271,1.44944 -0.00513,2.89479 -0.06411,4.33994c-0.00987,0.24143 -0.05846,0.44717 -0.25045,0.59619c-1.55446,1.20668 -3.11091,2.41084 -4.91774,3.81014z" fill="#290e17"/><path d="M259.74281,182.84157c1.44722,-0.87377 3.20483,-1.71283 3.85891,-3.14105c0.65192,-1.42351 0.31034,-3.30704 0.0751,-4.98573c0.31135,-0.21699 0.62266,-0.43391 0.8894,-0.61978c0.40367,0.15654 0.33855,0.4293 0.33903,0.66498c0.0037,1.8253 -0.00862,3.6507 0.00655,5.47587c0.00766,0.92074 -0.817,1.10035 -1.3356,1.53063c-1.20571,1.00037 -2.45378,1.94974 -3.83339,3.03698z" fill="#290e17"/><path d="M267.86719,185.80634c1.24437,-0.95309 2.48039,-1.91734 3.73677,-2.85431c0.5827,-0.43457 0.17184,-0.98963 0.22066,-1.4795c0.1299,-1.30321 0.20332,-2.61428 -0.01396,-3.91987c0.27867,-0.20065 0.55734,-0.40131 1.11729,-0.80448c0.2165,2.41894 0.09707,4.63304 0.05346,6.89003c-1.63321,1.27593 -3.29685,2.57563 -5.11423,3.9954z" fill="#2a0e17"/><path d="M259.7408,191.96055c1.07625,-0.35665 1.72226,-1.32739 2.6676,-1.86867c1.11701,-0.63958 1.6035,-1.53969 1.41046,-2.85953c-0.16351,-1.11813 0.13778,-2.26986 -0.14081,-3.39312c0.347,-0.22269 0.64014,-0.58538 1.2038,-0.43132c0,2.11453 0.03187,4.23411 -0.02393,6.35136c-0.01288,0.4888 -0.62429,0.66315 -0.98201,0.94944c-1.31344,1.05119 -2.64781,2.07631 -4.13511,3.23668z" fill="#2a0e17"/><path d="M243.71716,195.28486c1.14629,-0.40293 1.8214,-1.47146 2.84828,-2.02875c1.11848,-0.60701 1.35027,-1.52917 1.21939,-2.69606c-0.12619,-1.12492 0.13619,-2.27095 -0.12943,-3.39537c0.27883,-0.20226 0.55765,-0.40453 1.14442,-0.83021c0.18012,2.41851 0.02286,4.61703 0.10489,6.88449c-1.66972,1.28909 -3.35765,2.59224 -5.18753,4.00497z" fill="#280d16"/><path d="M243.7235,204.51282c1.35146,-0.99939 2.7067,-2.00156 4.06569,-3.00654c-0.11007,-1.77597 0.14714,-3.50432 -0.13336,-5.22472c0.35305,-0.21888 0.70608,-0.43778 1.16871,-0.72464v6.86518c-1.61928,1.25586 -3.28485,2.54761 -5.10103,3.95619z" fill="#280d16"/><path d="M267.86875,176.68838c1.18694,-0.92644 2.37413,-1.85258 3.56154,-2.77842c0.33524,-0.2446 0.52387,-0.6423 0.50119,-1.05668c-0.01836,-1.50645 -0.01201,-3.01321 -0.01524,-4.5197c0.22827,-0.1605 0.45665,-0.32115 0.70199,-0.49369c0.40967,0.40921 0.40613,0.89684 0.41308,1.34666c0.02455,1.59093 -0.01276,3.18291 0.01869,4.7736c0.0166,0.83949 -0.72874,0.97409 -1.1767,1.35105c-1.25803,1.05862 -2.57152,2.05137 -4.00454,3.18162z" fill="#2a0e16"/><path d="M216.96947,164.11933l0.1184,-0.11227c-0.03948,0.03744 -0.07895,0.07486 -0.1184,0.11227z" fill="#1b1a1b"/><path d="M217.58376,163.62938c0.04036,-0.03799 0.08072,-0.07596 0.12107,-0.11392c-0.04038,0.03801 -0.08073,0.07597 -0.12107,0.11392z" fill="#1b1a1b"/><path d="M214.13104,166.31866c0.0441,-0.0326 0.08823,-0.06518 0.13241,-0.09779c-0.00271,0.03484 -0.00359,0.0698 -0.00261,0.10472c-0.04325,-0.00237 -0.08651,-0.00468 -0.12978,-0.00693z" fill="#1b1a1b"/><path d="M214.74308,165.85418c-0.03813,0.03744 -0.07628,0.0749 -0.11444,0.11237c0.03812,-0.03743 0.07626,-0.07489 0.11444,-0.11237z" fill="#1b1a1b"/><path d="M217.57674,163.63612c-0.03785,0.03739 -0.07573,0.07478 -0.11363,0.1122c0.03783,-0.03738 0.07571,-0.07477 0.11363,-0.1122z" fill="#1b1a1b"/><path d="M238.4244,172.35388c0.0341,0.13231 0.06818,0.26461 0.10224,0.39691c-1.85248,-1.29768 -3.15925,-3.23493 -3.66861,-5.4386c-0.11012,-0.45282 -0.10071,-0.98476 0.3503,-1.3453c0.12629,0.1722 0.25257,0.34447 0.37884,0.51679c0.07998,0.09872 0.09509,0.23499 0.03868,0.34883c-0.22519,0.56181 -0.07317,1.10214 0.1275,1.61877c0.54079,1.3827 1.41436,2.61063 2.54328,3.57494c0.09891,0.07792 0.14783,0.20334 0.12777,0.32767z" fill="#1a1518"/><path d="M236.55124,187.62057c0.9096,0.7291 1.81959,1.45772 2.72996,2.18585c0.22837,0.18161 0.20788,0.42705 0.20874,0.6727c0.00478,1.35286 0.00984,2.70571 0.0152,4.05856c-0.11533,0.27305 0.01026,0.56913 -0.08072,0.84452c-0.50963,0.03348 -2.50654,-1.48765 -3.00439,-2.28848c-0.01871,-0.07063 -0.03208,-0.14256 -0.04001,-0.21519c-0.0842,-1.56676 -0.03347,-3.13317 -0.02798,-4.69921c-0.01818,-0.20638 0.05455,-0.41043 0.19918,-0.55876z" fill="#413d9a"/><path d="M239.50555,200.24034c0.00042,0.15163 0.00081,0.30325 0.00122,0.45489c-0.10987,1.2015 -0.01738,2.40583 -0.05177,3.6083c-0.00687,0.24019 0.05611,0.48885 -0.0584,0.71917c-0.52703,0.01202 -2.58827,-1.60489 -2.98118,-2.33249c-0.15924,-1.64207 -0.05719,-3.28688 -0.05808,-4.93034c-0.01116,-0.18612 0.06045,-0.36766 0.19568,-0.49601c0.94264,0.74233 1.88527,1.48465 2.82792,2.22697c0.18166,0.22657 -0.01095,0.5153 0.12464,0.74951z" fill="#403d9a"/><path d="M236.54719,202.77848c0.90884,0.74771 1.81768,1.49543 2.95967,2.43497c0,-1.65972 0,-3.08887 -0.00005,-4.5181c-0.00005,1.75028 -0.00005,3.50066 -0.00005,5.47455c-0.67198,-0.54587 -1.19582,-0.96523 -1.71279,-1.39289c-0.65958,-0.54564 -1.30629,-1.10713 -1.97505,-1.64115c-0.17277,-0.13794 -0.15113,-0.197 0.00685,-0.29083c0.13024,-0.22155 0.33537,-0.20233 0.54491,-0.16995c0.06398,0.02481 0.12357,0.05973 0.1765,0.10341z" fill="#b23c3b"/><path d="M236.54393,193.17534c0.91549,0.74078 1.83099,1.48157 2.80459,2.26935c0.06349,-0.36732 0.11012,-0.63711 0.15668,-0.90696c-0.00006,0.59077 -0.00006,1.18159 -0.00006,2.03604c-1.4105,-1.20673 -2.66692,-2.28162 -3.92332,-3.35652c0.30935,-0.27431 0.63135,-0.25835 0.96209,-0.04192z" fill="#b63d38"/><path d="M236.54393,193.17534c-0.32073,0.01391 -0.64145,0.02784 -0.96216,0.0418c0.00006,-2.07328 0.00006,-4.14668 0.00006,-6.23474c0.30494,-0.01683 0.44478,0.15936 0.59736,0.31219c0.13773,0.37692 0.09863,0.76957 0.0997,1.15789c0.00323,1.16947 -0.005,2.33897 0.00456,3.50838c0.00317,0.38768 -0.01422,0.78565 0.24429,1.12029c0.00957,0.03054 0.01501,0.06222 0.01617,0.09419z" fill="#4a161c"/><path d="M236.44058,202.78017c-0.20489,0.02148 -0.40981,0.04301 -0.61475,0.06465c-0.22459,-0.05916 -0.25584,-0.2286 -0.25562,-0.42712c0.00209,-1.92055 0.00127,-3.8411 0.00127,-5.77965c0.35576,-0.04702 0.51616,0.21725 0.72926,0.37892c-0.0436,1.62235 -0.01729,3.24488 -0.0158,4.86737c0.00028,0.3106 0.14246,0.59079 0.15564,0.89584z" fill="#4a171d"/><path d="M236.52777,193.08115c-0.22129,-0.04167 -0.4206,-0.17837 -0.42081,-0.38534c-0.00188,-1.80059 -0.15071,-3.6038 0.07232,-5.40123c0.12406,0.10877 0.24811,0.21748 0.37215,0.32614c-0.00799,1.82005 -0.01588,3.64017 -0.02364,5.46042z" fill="#1d1955"/><path d="M236.44058,202.78017c-0.29648,-0.26245 -0.3801,-0.58586 -0.37415,-0.9823c0.02113,-1.40902 0.00363,-2.81856 0.01074,-4.22787c0.00103,-0.20321 -0.10542,-0.47288 0.22367,-0.55298c0.08405,0.08227 0.16813,0.16455 0.25224,0.24688c-0.00196,1.83828 -0.00388,3.67652 -0.00579,5.51474l-0.05333,0.00566z" fill="#1d1955"/><path d="M239.50555,200.24034c-0.04152,-0.24986 -0.08306,-0.49971 -0.12461,-0.74954c0.25186,0.21492 0.11157,0.49497 0.12461,0.74954z" fill="#b23c3b"/><path d="M208.07679,164.65269c0.9429,0.74716 1.88578,1.49432 2.85584,2.263v5.5844c-0.23912,0.10167 -0.39184,-0.07353 -0.54518,-0.19162c-0.73188,-0.56363 -1.45727,-1.13563 -2.14042,-1.7592c-0.17021,-0.15108 -0.28404,-0.35553 -0.32282,-0.5798c-0.1034,-1.566 -0.01255,-3.13349 -0.05874,-4.69937c-0.0255,-0.22706 0.05205,-0.4536 0.21134,-0.61741z" fill="#403d9a"/><path d="M208.0795,174.29405c0.9501,0.75882 1.90019,1.51762 2.8503,2.27642c0.12929,1.34903 0.0272,2.70132 0.05522,4.05183c0.01011,0.48766 0.01316,0.9767 -0.00779,1.44062c-0.24545,0.12691 -0.4133,0.02568 -0.56078,-0.07516c-0.81554,-0.55767 -1.52034,-1.25004 -2.26927,-1.88864c-0.12185,-0.11394 -0.1998,-0.26707 -0.22024,-0.43262c-0.12385,-1.62433 -0.05006,-3.24991 -0.04179,-4.87481c-0.01003,-0.18615 0.06083,-0.36757 0.19436,-0.49764z" fill="#403d9a"/><path d="M208.0703,179.78692c0.90539,0.7629 1.81077,1.52582 2.85946,2.40949c0,-1.98217 0,-3.80407 0.00002,-5.62594c0.26987,0.91896 0.09094,1.85812 0.10936,2.78665c0.0238,1.20007 0.09743,2.40661 -0.18548,3.75688c-1.27874,-1.09759 -2.51141,-2.15563 -3.74408,-3.21369c0.22071,-0.24871 0.52356,-0.1578 0.79614,-0.19294c0.06327,0.00348 0.12254,0.03213 0.16457,0.07953z" fill="#b33c3a"/><path d="M207.96798,179.79063c-0.28614,0.03654 -0.57229,0.07307 -0.85843,0.10963c-0.22483,-1.40566 -0.04831,-2.82159 -0.10474,-4.23187c-0.02806,-0.70135 -0.00488,-1.40475 -0.00488,-2.27764c0.32762,0.26741 0.52289,0.42677 0.71816,0.58616c0.1624,0.56325 0.08391,1.14031 0.09162,1.71141c0.01437,1.06543 -0.00365,2.1311 0.00867,3.19668c0.01659,0.30644 0.06675,0.61013 0.1496,0.90563z" fill="#4f171d"/><path d="M207.82613,170.20288l-0.74182,-0.08074v-6.17152c0.2922,-0.0374 0.46248,0.18959 0.63891,0.40551c0.16587,1.21232 0.04718,2.4316 0.09074,3.64679c0.02524,0.7041 -0.11506,1.42442 0.18681,2.10448c-0.0225,0.07407 -0.10015,0.11652 -0.17465,0.09548z" fill="#4e171d"/><path d="M207.82613,170.20287l0.13445,-0.04527c0.03919,-0.05684 0.07907,-0.05471 0.11956,-0.00141c0.95079,0.78132 1.9016,1.56263 2.85243,2.34393c-0.07022,0.29024 0.20575,0.59516 -0.0731,0.93679c-1.23653,-1.01069 -2.46585,-2.01547 -3.75787,-3.07151c0.30934,-0.0694 0.51695,-0.11596 0.72452,-0.16253z" fill="#b53d38"/><path d="M207.96798,179.79063c-0.11648,-0.1364 -0.33481,-0.27336 -0.33405,-0.4091c0.01013,-1.80161 -0.17473,-3.60721 0.08422,-5.40458c0.12057,0.1059 0.24108,0.2117 0.36156,0.31744c-0.00317,1.83061 -0.00625,3.66145 -0.00925,5.49251c-0.03424,0.00186 -0.0684,0.00311 -0.10247,0.00374z" fill="#1d1a58"/><path d="M208.08015,170.15619l-0.05963,0.00522l-0.05983,-0.00378c-0.13837,-0.16307 -0.36346,-0.25036 -0.36167,-0.528c0.01089,-1.6876 0.00815,-3.3753 0.01692,-5.06292c0.00037,-0.0703 0.06999,-0.14024 0.10733,-0.21047c0.11795,0.09876 0.23584,0.19757 0.35372,0.29646c0.00095,1.83449 0.002,3.66899 0.00318,5.50349z" fill="#1d1a59"/><path d="M213.88922,166.47572c0.05123,-0.0381 0.1025,-0.07621 0.15381,-0.11427c-0.05119,0.03811 -0.10246,0.07621 -0.15381,0.11427z" fill="#1b1a1b"/><path d="M213.75836,166.58975c-0.04011,0.03291 -0.08022,0.06583 -0.12033,0.09874c0.0401,-0.03291 0.08021,-0.06583 0.12033,-0.09874z" fill="#1b1a1b"/><path d="M213.76043,166.58813c0.04404,-0.03845 0.08811,-0.07689 0.13217,-0.11532c-0.04404,0.03845 -0.08811,0.07689 -0.13217,0.11532z" fill="#1b1a1b"/><path d="M238.4244,172.35388l-0.16974,-0.19507c-0.73189,-0.77677 -1.014,-1.8046 -1.49778,-2.71808c-0.36182,-0.6832 -0.64721,-1.40854 -0.99952,-2.09982c-0.1411,-0.27688 -0.25301,-0.55978 -0.04297,-0.85638c0.58511,-0.30827 1.13035,-0.11611 1.62853,0.18745c1.6494,0.99075 2.88854,2.54047 3.49214,4.36742c0.21031,0.61063 0.43381,1.34011 -0.21236,1.81396c-0.60518,0.44381 -1.2089,0.03149 -1.77247,-0.26062c-0.1444,-0.07485 -0.28402,-0.15899 -0.42584,-0.23884z" fill="#e6d1c5"/><path d="M235.71437,166.48452c0.10472,1.00528 0.74858,1.78937 1.11894,2.68546c0.42081,1.01816 0.94315,1.9944 1.42135,2.98884c-1.30655,-1.02942 -2.27519,-2.42626 -2.7813,-4.01076c-0.18884,-0.54736 -0.14779,-1.14787 0.11377,-1.66444c0.04243,0.00033 0.08485,0.00062 0.12725,0.00089z" fill="#746a77"/><path d="M237.9624,169.38026c0.30564,0.12631 0.41158,0.26852 0.43896,0.56001c-0.28906,-0.07256 -0.39265,-0.22295 -0.43896,-0.56001z" fill="#584f4a"/></g></g></g></svg>