<svg version="1.1" xmlns="http://www.w3.org/2000/svg" xmlns:xlink="http://www.w3.org/1999/xlink" width="79.67222" height="61.35432" viewBox="0,0,79.67222,61.35432"><g transform="translate(-200.4139,-149.57284)"><g data-paper-data="{&quot;isPaintingLayer&quot;:true}" fill-rule="nonzero" stroke-linejoin="miter" stroke-miterlimit="10" stroke-dasharray="" stroke-dashoffset="0" style="mix-blend-mode: normal"><path d="M274.30497,171.46937l-45.32548,34.90751l-23.18977,-17.87685l45.32547,-34.90762l23.18978,17.87696" fill="#2c2d2e" stroke="none" stroke-width="1.01065" stroke-linecap="butt"/><g stroke="none" stroke-linecap="butt"><path d="M216.59404,197.22802l45.53629,-35.11914" fill="#000000" stroke-width="1.01065"/><path d="M216.27118,196.61551l45.58457,-35.086l0.7056,0.92327l-45.58447,35.08601z" fill="#ffffff" stroke-width="1.01056"/></g><g stroke="none" stroke-linecap="butt"><path d="M233.88096,208.75804l-32.25487,-24.75262" fill="#000000" stroke-width="1.01065"/><path d="M201.01262,184.70016l1.21841,-1.59523l32.21007,24.77738l-1.21851,1.59523z" fill="#2c2d2e" stroke-width="1.0106"/></g><g stroke="none" stroke-linecap="butt"><g fill="#000000"><path d="M211.42904,177.65857l31.3062,24.75272" stroke-width="1.01065"/><path d="M211.13274,178.03147l0.65312,-0.83024l31.27373,24.77467l-0.65311,0.83035z" stroke-width="1.01052"/></g><g fill="#2c2d2e" stroke-width="1.01065"><path d="M242.1028,203.25748l-31.3062,-24.75262l1.26489,-1.6925l31.3062,24.85837l-1.2649,1.58674"/><path d="M210.05874,178.61064l1.79193,-2.43294l32.14946,25.49305l-1.79193,2.43294zM212.1669,177.5528l-0.63244,0.74054l30.46293,24.11794l0.63245,-0.74054z"/></g></g><g stroke="none" stroke-linecap="butt"><g fill="#000000"><path d="M251.90575,195.42975l-31.3062,-24.75262" stroke-width="1.01065"/><path d="M220.37925,170.95713l0.65311,-0.83025l31.27384,24.77479l-0.65311,0.83024z" stroke-width="1.01052"/></g><g fill="#2c2d2e" stroke-width="1.01065"><path d="M251.37871,196.27595l-31.3062,-24.85837l1.15949,-1.58675l31.3062,24.75262l-1.15949,1.6925"/><path d="M219.33465,171.52335l1.79193,-2.43294l32.14946,25.49305l-1.79193,2.43293zM221.3374,170.57128l-0.63244,0.74053l30.46293,24.11794l0.63244,-0.74054z"/></g></g><g stroke="none" stroke-linecap="butt"><g fill="#000000"><path d="M260.86544,188.55398l-31.3062,-24.85838" stroke-width="1.01065"/><path d="M229.21908,164.02833l0.65311,-0.83024l31.27373,24.77467l-0.65311,0.83035z" stroke-width="1.01052"/></g><g fill="#2c2d2e" stroke-width="1.01065"><path d="M260.23298,189.29443l-31.20079,-24.75262l1.15949,-1.6925l31.3062,24.85848l-1.2649,1.58663"/><path d="M228.29434,164.64757l1.79193,-2.43294l32.14947,25.49316l-1.79194,2.43293zM230.29709,163.58975l-0.63245,0.74054l30.46293,24.11794l0.63245,-0.74043z"/></g></g><g stroke="none" stroke-linecap="butt"><g fill="#000000"><path d="M238.51893,156.3967l31.3062,24.75262" stroke-width="1.01065"/><path d="M238.28502,156.74756l0.65312,-0.83024l31.27373,24.77468l-0.65311,0.83024z" stroke-width="1.01052"/></g><g fill="#2c2d2e" stroke-width="1.01065"><path d="M269.29808,181.99563l-31.3062,-24.75262l1.15949,-1.6925l31.3062,24.85838l-1.15949,1.58674"/><path d="M237.25403,157.34877l1.79193,-2.43294l32.14946,25.49305l-1.79194,2.43294zM239.25678,156.29094l-0.63245,0.74044l30.46294,24.11794l0.63245,-0.74044z"/></g></g><path d="M245.84479,149.57284l5.2704,4.01957l-45.32547,34.90762l-5.37582,-4.01968" fill="#c2c1ba" stroke="none" stroke-width="1.01065" stroke-linecap="butt"/><path d="M234.14448,210.39656l-5.16499,-4.01968l45.32548,-34.90751l5.2704,4.01968" fill="#c2c1ba" stroke="none" stroke-width="1.01065" stroke-linecap="butt"/><g stroke="none" stroke-linecap="butt"><path d="M268.66562,167.39791l-14.44091,-11.10696" fill="#000000" stroke-width="1.01065"/><path d="M253.94929,156.68251l0.57721,-0.75567l14.47359,11.13368l-0.57722,0.75566z" fill="#2c2d2e" stroke-width="1.0106"/></g><path d="M250.67014,153.55754l-44.98939,34.58788" fill="#b5b5b5" stroke="#999999" stroke-width="1" stroke-linecap="round"/><path d="M234.59673,210.42716l44.98939,-34.58788" fill="#b5b5b5" stroke="#999999" stroke-width="1" stroke-linecap="round"/><path d="M243.01628,168.84703c-0.95686,-0.03906 -1.63583,0.90254 -2.44404,0.5285c-0.07891,-0.03653 -0.42052,-1.09719 -0.47608,-1.16308c-0.42973,-0.50962 -2.36515,-0.14064 -2.42729,-0.83265c-0.02874,-0.31993 1.30396,-1.46777 1.23256,-1.78021c0.19871,-0.08206 0.29209,0.04526 0.4057,0.10802c0.35301,0.19506 -0.15118,-1.88142 0.21714,-1.70375c0.31925,0.15401 1.17514,2.42785 1.26094,2.08964c0.11082,-0.43687 0.20792,-0.87457 0.33175,-1.31058c0.03282,-0.11553 0.06354,-0.28726 0.29315,-0.16749c0.34156,0.3555 0.57363,0.77273 0.8568,1.16081c0.11347,0.1555 1.53646,0.47902 1.6453,0.63677c1.00892,2.79945 -0.81402,1.27999 -0.77068,2.06073c0.00719,0.12962 0.02728,0.26121 -0.12525,0.37325z" data-paper-data="{&quot;index&quot;:null}" fill="#272829" stroke="none" stroke-width="1" stroke-linecap="butt"/><path d="M239.06015,191.88909c-0.95686,-0.03906 -1.63583,0.90254 -2.44404,0.5285c-0.07891,-0.03653 -0.42052,-1.09719 -0.47608,-1.16308c-0.42973,-0.50962 -2.36515,-0.14064 -2.42729,-0.83265c-0.02874,-0.31993 1.30396,-1.46777 1.23256,-1.78021c0.19871,-0.08206 0.29209,0.04526 0.4057,0.10802c0.35301,0.19506 -0.15118,-1.88142 0.21714,-1.70375c0.31925,0.15401 1.17514,2.42785 1.26094,2.08964c0.11082,-0.43687 0.20792,-0.87457 0.33175,-1.31058c0.03282,-0.11553 0.06354,-0.28726 0.29315,-0.16749c0.34156,0.3555 0.57363,0.77273 0.8568,1.16081c0.11347,0.1555 1.53646,0.47902 1.6453,0.63677c1.00892,2.79945 -0.81402,1.27999 -0.77068,2.06073c0.00719,0.12962 0.02728,0.26121 -0.12525,0.37325z" data-paper-data="{&quot;index&quot;:null}" fill="#272829" stroke="none" stroke-width="1" stroke-linecap="butt"/><path d="M260.47828,175.58272c-0.66681,-0.58909 -1.70819,-0.30842 -2.07147,-1.05182c-0.03547,-0.07259 0.3401,-1.03737 0.33867,-1.11743c-0.01099,-0.61926 -1.62234,-1.48788 -1.26145,-2.02312c0.16683,-0.24745 1.80033,-0.29355 1.93203,-0.56061c0.19133,0.05734 0.184,0.20386 0.22911,0.31569c0.1401,0.34754 0.99397,-1.44474 1.1553,-1.10076c0.13983,0.29816 -0.57624,2.43888 -0.31612,2.2454c0.33598,-0.24993 0.66257,-0.50849 1.00742,-0.75018c0.09138,-0.06403 0.2142,-0.1698 0.30949,0.05113c0.03779,0.45647 -0.03953,0.89325 -0.06292,1.33899c-0.00937,0.1786 0.82666,1.24599 0.81263,1.4235c-0.91389,2.60929 -1.33711,0.44542 -1.76356,1.03357c-0.0708,0.09764 -0.13347,0.20427 -0.30909,0.19561z" data-paper-data="{&quot;index&quot;:null}" fill="#272829" stroke="none" stroke-width="1" stroke-linecap="butt"/><path d="M263.678,173.12159c-0.77613,0.43507 -0.85482,1.51074 -1.67645,1.60837c-0.08022,0.00953 -0.86704,-0.66336 -0.94309,-0.68843c-0.5882,-0.19397 -1.93988,1.0405 -2.32605,0.52321c-0.17854,-0.23914 0.31696,-1.79636 0.10833,-2.0088c0.11727,-0.16169 0.25315,-0.10643 0.37361,-0.1121c0.37431,-0.01757 -1.03582,-1.41503 -0.65787,-1.45382c0.3276,-0.03361 2.11212,1.34875 2.01531,1.03935c-0.12506,-0.39963 -0.26138,-0.79324 -0.37573,-1.19854c-0.03029,-0.10739 -0.08961,-0.25823 0.15039,-0.27528c0.44338,0.11495 0.83018,0.33207 1.24322,0.50124c0.16551,0.06778 1.44898,-0.3692 1.61192,-0.29739c2.16157,1.72371 -0.02075,1.40919 0.39374,2.00583c0.06881,0.09906 0.14879,0.1934 0.08266,0.35632z" data-paper-data="{&quot;index&quot;:null}" fill="#272829" stroke="none" stroke-width="1" stroke-linecap="butt"/></g></g></svg>