<svg version="1.1" xmlns="http://www.w3.org/2000/svg" xmlns:xlink="http://www.w3.org/1999/xlink" width="319.15865" height="187.16548" viewBox="0,0,319.15865,187.16548"><g transform="translate(-80.4209,-86.41992)"><g data-paper-data="{&quot;isPaintingLayer&quot;:true}" fill-rule="nonzero" stroke="none" stroke-width="1" stroke-linecap="butt" stroke-linejoin="miter" stroke-miterlimit="10" stroke-dasharray="" stroke-dashoffset="0" style="mix-blend-mode: normal"><path d="M81.80127,169.02002c0.47232,0.39437 0.98131,0.74263 1.52,1.04c0.53023,0.30659 1.12764,0.47829 1.73975,0.5c0.44448,0.0135 0.88299,-0.10493 1.26025,-0.34034c0.38176,-0.23327 0.61027,-0.6523 0.59963,-1.09956c0,-0.74659 -0.5332,-1.28663 -1.59961,-1.62012c-1.00857,-0.27322 -1.99762,-0.61399 -2.96045,-1.02c-1.09671,-0.66953 -1.72309,-1.89944 -1.61963,-3.1802c-0.02728,-1.18777 0.44853,-2.33178 1.31006,-3.14988c0.85458,-0.83947 2.0124,-1.29755 3.21,-1.27c0.8824,-0.02163 1.76365,0.0766 2.61963,0.292c0.8721,0.27876 1.71056,0.65345 2.5,1.11719l-1.3999,2.791c-0.42053,-0.33218 -0.88486,-0.60476 -1.37988,-0.81006c-0.46187,-0.22879 -0.96536,-0.36151 -1.48,-0.39014c-0.36984,-0.01393 -0.73334,0.09891 -1.03028,0.31983c-0.27739,0.22143 -0.43011,0.56366 -0.40967,0.918c0,0.51954 0.52669,0.91228 1.58008,1.17823c1.02598,0.19852 2.01678,0.54837 2.93994,1.03808c1.10583,0.7972 1.71305,2.11558 1.6001,3.47412c0.06943,1.3629 -0.46903,2.68643 -1.47021,3.61377c-1.05694,0.90657 -2.41889,1.37763 -3.81008,1.3178c-0.89074,0.01977 -1.7779,-0.11894 -2.6201,-0.40966c-0.88251,-0.35585 -1.71593,-0.82302 -2.48,-1.39016z" fill="#000000"/><path d="M98.8208,163.69971l3.76026,-0.02c-0.04004,0.34716 -0.06673,0.71386 -0.08008,1.10009c-0.01367,0.38721 -0.02033,0.82732 -0.02,1.32032c0,0.83984 0.01333,2.21972 0.04,4.13964c0.02636,1.91993 0.03969,2.93995 0.04,3.06006h-3.8003l0.06006,-0.77978c-0.43064,0.34603 -0.91054,0.62581 -1.42383,0.83008c-0.50519,0.19492 -1.04252,0.29314 -1.584,0.28955c-1.28325,0.0715 -2.53206,-0.43021 -3.40918,-1.36963c-0.84607,-0.99958 -1.28283,-2.28214 -1.22266,-3.59033c-0.05159,-1.34881 0.37316,-2.67275 1.19983,-3.73979c0.85628,-1.05521 2.16246,-1.64153 3.52,-1.58008c0.53649,-0.00187 1.06759,0.10701 1.56006,0.31983c0.49113,0.22208 0.94883,0.51166 1.35986,0.86035zM97.10108,170.63965c0.55159,0.0207 1.08348,-0.20664 1.4497,-0.61963c0.37132,-0.42543 0.56791,-0.97559 0.5503,-1.54c0.01787,-0.53856 -0.17599,-1.06268 -0.54,-1.46c-0.36708,-0.38974 -0.885,-0.60132 -1.41997,-0.5801c-0.57505,-0.01984 -1.13386,0.19277 -1.55029,0.58984c-0.79769,0.85819 -0.81498,2.18131 -0.04,3.06006c0.42278,0.38263 0.98087,0.58056 1.55026,0.54983z" fill="#000000"/><path d="M106.68067,163.73974l2,4.82032l2.14013,-4.82032h3.85987l-4.52002,9.68018h-2.91993c-0.48,-1.16016 -0.94663,-2.24024 -1.3999,-3.24023c-0.26709,-0.58643 -0.78042,-1.653 -1.54,-3.19971c-0.53369,-1.05322 -1.06038,-2.11328 -1.58008,-3.18018z" fill="#000000"/><path d="M118.30029,169.45992c0.09497,1.07641 1.04353,1.8727 2.12012,1.77978c0.29855,-0.00144 0.59155,-0.08072 0.8501,-0.23c0.29425,-0.16894 0.56635,-0.37379 0.81006,-0.60986h3.67969c-0.44547,1.04409 -1.20355,1.92447 -2.16993,2.52c-1.02826,0.55117 -2.18413,0.82022 -3.35009,0.77979c-1.4331,0.08292 -2.84547,-0.37266 -3.96,-1.27735c-1.04477,-0.9994 -1.59391,-2.40979 -1.5,-3.85254c-0.06518,-1.4171 0.51165,-2.78814 1.57031,-3.73242c1.10459,-0.93916 2.52086,-1.43057 3.96976,-1.3774c1.57778,-0.11512 3.1248,0.47877 4.22022,1.62012c0.96561,1.24781 1.44209,2.8054 1.33984,4.37988zM122.32029,167.35982c-0.18875,-0.38315 -0.46226,-0.71829 -0.7998,-0.98c-0.33389,-0.27063 -0.75036,-0.41881 -1.18016,-0.4199c-0.43115,-0.01126 -0.85361,0.12251 -1.1997,0.37988c-0.3344,0.28103 -0.6069,0.62834 -0.8003,1.02z" fill="#000000"/><path d="M138.97998,163.69971h3.78028v9.10009c0.07499,1.32232 -0.43726,2.61035 -1.39991,3.52c-1.01575,0.86963 -2.32433,1.3202 -3.66015,1.26026c-2.26709,0 -3.77375,-0.27669 -4.52,-0.83008c-0.80525,-0.65202 -1.33398,-1.58457 -1.48,-2.61035h3.7397c0.15736,0.29374 0.40202,0.5314 0.7002,0.68017c0.34653,0.12173 0.71314,0.17609 1.08008,0.16016c0.57236,0.02825 1.11535,-0.25482 1.41992,-0.74024c0.29785,-0.49349 0.44389,-1.06373 0.41992,-1.63964v-0.32032c-0.45094,0.30515 -0.93955,0.55053 -1.45361,0.73c-0.494,0.16779 -1.01247,0.25227 -1.53418,0.25c-1.28927,0.07868 -2.5476,-0.41532 -3.439,-1.35009c-0.84651,-1.00649 -1.28007,-2.29642 -1.21333,-3.60987c-0.05277,-1.30983 0.41041,-2.58808 1.29,-3.56006c0.90397,-0.93836 2.16872,-1.44127 3.47022,-1.37988c0.52182,-0.00481 1.0391,0.09722 1.52,0.29981c0.47462,0.221 0.92956,0.48203 1.35986,0.78027zM135.2002,168.5c0.00224,0.51293 0.21139,1.00325 0.58008,1.35986c0.34814,0.38319 0.84214,0.60119 1.35986,0.6001c0.59137,0.03019 1.1671,-0.19576 1.58008,-0.62012c0.39804,-0.44325 0.60631,-1.02496 0.58007,-1.62012c0.01855,-0.52863 -0.19306,-1.03932 -0.58007,-1.3999c-0.38428,-0.35909 -0.89415,-0.55299 -1.41993,-0.54c-0.57633,-0.02151 -1.1327,0.2128 -1.52,0.64014c-0.3892,0.43258 -0.59693,0.99839 -0.58009,1.58004z" fill="#000000"/><path d="M151.3599,163.69971l3.76026,-0.02c-0.04004,0.34716 -0.06673,0.71386 -0.08008,1.10009c-0.01367,0.38721 -0.02033,0.82732 -0.02,1.32032c0,0.83984 0.01333,2.21972 0.04,4.13964c0.02637,1.91993 0.03971,2.93995 0.04,3.06006h-3.80027l0.06,-0.77978c-0.43064,0.34603 -0.91054,0.62581 -1.42382,0.83008c-1.73344,0.6323 -3.67596,0.21209 -4.99309,-1.0801c-0.84607,-0.99958 -1.28283,-2.28214 -1.22265,-3.59033c-0.05164,-1.34878 0.37305,-2.67271 1.19965,-3.73977c0.85628,-1.05521 2.16246,-1.64153 3.52,-1.58008c0.53649,-0.00187 1.06759,0.10701 1.56006,0.31983c0.49113,0.22208 0.94883,0.51166 1.35986,0.86035zM149.64018,170.63965c0.5516,0.02071 1.08349,-0.20663 1.44972,-0.61963c0.37131,-0.42543 0.5679,-0.9756 0.55029,-1.54c0.01787,-0.53856 -0.17599,-1.06268 -0.54,-1.46c-0.36709,-0.38975 -0.88503,-0.60134 -1.42001,-0.5801c-0.57506,-0.01984 -1.13386,0.19277 -1.5503,0.58984c-0.79769,0.85819 -0.81499,2.18131 -0.04,3.06006c0.42278,0.38263 0.98087,0.58057 1.55026,0.54983z" fill="#000000"/><path d="M156.27979,167.06692c0,-0.374 -0.01333,-1.0086 -0.04,-1.90381c-0.02686,-0.89502 -0.04019,-1.36947 -0.04,-1.42334h3.72011v1.20015c0.37823,-0.51381 0.89497,-0.90928 1.48975,-1.14014c0.63463,-0.24495 1.31003,-0.36707 1.99025,-0.35986c0.58121,-0.02062 1.15442,0.14015 1.64014,0.46c0.44615,0.36088 0.83687,0.78534 1.15967,1.25977c0.40516,-0.53655 0.91789,-0.9826 1.50537,-1.30957c0.60565,-0.29123 1.27266,-0.43195 1.94434,-0.4102c0.30161,-0.00469 0.60276,0.02546 0.89746,0.08984c0.91117,0.24273 1.67391,0.86567 2.09375,1.71c0.19999,0.60582 0.28785,1.24303 0.25927,1.88036v3.37988c0,0.43994 0.0166,1.00325 0.04981,1.68994c0.0332,0.68701 0.04996,1.08365 0.05029,1.18994h-3.74023v-5.25976c0.0018,-0.42072 -0.13135,-0.83094 -0.37989,-1.17041c-0.22089,-0.33589 -0.59803,-0.5357 -1,-0.52979c-0.6237,0.00625 -1.15779,0.44847 -1.28027,1.06006c-0.17782,0.59651 -0.25876,1.21768 -0.23971,1.83984v1.35987c0,0.29345 0.02002,0.73355 0.06006,1.32031c0.04004,0.58691 0.06006,1.02685 0.06006,1.31982h-3.74027v-5.24463c-0.00039,-0.41332 -0.14142,-0.8142 -0.3999,-1.13672c-0.22852,-0.32593 -0.60194,-0.51957 -1,-0.51855c-0.55749,-0.01177 -1.05532,0.34721 -1.22022,0.87988c-0.18882,0.51861 -0.27697,1.06848 -0.25973,1.62012v2.41992l0.06006,2.04h-3.72025c0,-0.58789 0.01333,-1.57322 0.04,-2.956c0.02685,-1.38282 0.04018,-2.12094 0.04,-2.21436z" fill="#000000"/><path d="M177.61963,169.45992c0.09497,1.07641 1.04353,1.8727 2.12012,1.77978c0.29855,-0.00144 0.59155,-0.08072 0.8501,-0.23c0.29424,-0.16891 0.56634,-0.37374 0.81005,-0.60978h3.67969c-0.44546,1.04409 -1.20354,1.92447 -2.16992,2.52c-1.02826,0.55117 -2.18414,0.82022 -3.3501,0.77979c-1.4331,0.08292 -2.84547,-0.37266 -3.96,-1.27735c-1.04477,-0.9994 -1.59391,-2.40979 -1.5,-3.85254c-0.06517,-1.41711 0.51166,-2.78814 1.57033,-3.73242c1.10457,-0.93919 2.52084,-1.43062 3.96975,-1.37748c1.57777,-0.11513 3.12479,0.47877 4.22021,1.62012c0.96562,1.24781 1.4421,2.8054 1.33985,4.37988zM181.63963,167.35982c-0.18875,-0.38315 -0.46226,-0.71828 -0.7998,-0.98c-0.33389,-0.27063 -0.75036,-0.41881 -1.18016,-0.4199c-0.43116,-0.01126 -0.85361,0.12251 -1.19971,0.37988c-0.3344,0.28103 -0.60689,0.62834 -0.80029,1.02z" fill="#000000"/><path d="M81.80127,193.02051c0.47233,0.39436 0.98131,0.74262 1.52,1.04c0.53033,0.30637 1.12768,0.47805 1.73975,0.5c0.44455,0.01357 0.88314,-0.10504 1.26025,-0.34083c0.38176,-0.23327 0.61027,-0.6523 0.59963,-1.09956c0,-0.7461 -0.5332,-1.28614 -1.59961,-1.62012c-1.00845,-0.27344 -1.99747,-0.61405 -2.96045,-1.01953c-1.09673,-0.66974 -1.72308,-1.89979 -1.61963,-3.18067c-0.02728,-1.18763 0.44853,-2.3315 1.31006,-3.14941c0.85452,-0.83962 2.01233,-1.29787 3.21,-1.27051c0.8824,-0.02163 1.76365,0.0766 2.61963,0.292c0.87202,0.27897 1.71046,0.65365 2.5,1.11719l-1.3999,2.791c-0.42056,-0.332 -0.88489,-0.60442 -1.37988,-0.80957c-0.46177,-0.22914 -0.9653,-0.36204 -1.48,-0.39063c-0.36993,-0.01401 -0.7335,0.09903 -1.03028,0.32031c-0.27746,0.22137 -0.43021,0.56364 -0.40967,0.918c0,0.51953 0.52669,0.91211 1.58008,1.17774c1.02592,0.19875 2.01668,0.54859 2.93994,1.03808c1.10585,0.79741 1.71304,2.11593 1.6001,3.47461c0.06943,1.36277 -0.46905,2.68616 -1.47023,3.61331c-1.05687,0.90674 -2.4188,1.378 -3.81006,1.31836c-0.89076,0.01936 -1.77788,-0.11952 -2.6201,-0.4102c-0.8825,-0.35565 -1.71592,-0.82265 -2.48,-1.38965z" fill="#000000"/><path d="M98.8208,187.70019l3.76026,-0.0205c-0.04004,0.34765 -0.06673,0.71451 -0.08008,1.10058c-0.01367,0.38672 -0.02033,0.82682 -0.02,1.32031c0,0.83985 0.01333,2.21974 0.04,4.13965c0.02636,1.91992 0.03969,2.93978 0.04,3.05957h-3.8003l0.06006,-0.78027c-0.43028,0.34655 -0.91027,0.62638 -1.42383,0.83008c-0.5051,0.1953 -1.04247,0.29368 -1.584,0.29c-1.28318,0.07166 -2.53199,-0.42986 -3.40918,-1.36914c-0.84615,-0.99973 -1.28292,-2.28247 -1.22266,-3.59082c-0.05158,-1.34863 0.37319,-2.67239 1.19983,-3.73922c0.85615,-1.05539 2.16242,-1.64176 3.52,-1.58008c0.53645,-0.00203 1.06755,0.10668 1.56006,0.31934c0.49113,0.22208 0.94883,0.51166 1.35986,0.86035zM97.10108,194.63965c0.55152,0.02088 1.08342,-0.20628 1.4497,-0.61914c0.37132,-0.42543 0.56791,-0.97559 0.5503,-1.54c0.01796,-0.53857 -0.17591,-1.06273 -0.54,-1.46c-0.36707,-0.38972 -0.88498,-0.6013 -1.41993,-0.58008c-0.57509,-0.02007 -1.13398,0.19258 -1.55029,0.58984c-0.79768,0.85801 -0.81498,2.181 -0.04,3.05957c0.42266,0.38281 0.98081,0.58077 1.55022,0.54981z" fill="#000000"/><path d="M106.68067,187.74023l2,4.82032l2.14013,-4.82032h3.85987l-4.52002,9.67969h-2.91993c-0.48,-1.16016 -0.94663,-2.24024 -1.3999,-3.24023c-0.26709,-0.58594 -0.78042,-1.65235 -1.54,-3.19922c-0.53369,-1.05371 -1.06038,-2.11394 -1.58008,-3.18067z" fill="#000000"/><path d="M117.38037,182.83984c0.52222,-0.00986 1.0253,0.19653 1.39014,0.57031c0.37648,0.37123 0.58271,0.8816 0.56982,1.41016c0.01574,0.52229 -0.19589,1.02571 -0.58007,1.37988c-0.37772,0.35669 -0.8805,0.55063 -1.39991,0.54c-0.5139,0.01313 -1.01138,-0.18156 -1.37988,-0.54c-0.37084,-0.35372 -0.57436,-0.84806 -0.56006,-1.36035c-0.00325,-0.52561 0.20593,-1.03024 0.58008,-1.39941c0.35433,-0.38633 0.85568,-0.60454 1.37988,-0.60059zM115.54053,187.74023h3.69971v9.63969h-3.75977l0.06006,-5.01953z" fill="#000000"/><path d="M120.78028,192.87992c0,-0.77246 -0.00667,-1.4056 -0.02,-1.89941c-0.05323,-1.94727 -0.07976,-3.01401 -0.07959,-3.2002h3.73974v1.08008c0.34705,-0.31837 0.71329,-0.61515 1.09668,-0.88867c0.6562,-0.41255 1.41837,-0.62499 2.19336,-0.61133c1.00247,-0.0858 1.98188,0.33306 2.61231,1.11719c0.54289,0.84898 0.8013,1.84878 0.73779,2.85449v2.75485c0,0.37207 0.01333,0.99741 0.04,1.876c0.02636,0.87793 0.03969,1.35027 0.04,1.417h-3.8003v-5.2998c0.01528,-0.43344 -0.12268,-0.85839 -0.38964,-1.2002c-0.27392,-0.32582 -0.68537,-0.5035 -1.11036,-0.47949c-0.46764,-0.00735 -0.89849,0.25271 -1.10986,0.66992c-0.25811,0.43951 -0.39289,0.94051 -0.39014,1.4502c0,0.55957 0.01333,1.48957 0.04,2.79c0.02686,1.2998 0.04019,1.98958 0.04,2.06933h-3.7396c0,-0.49316 0.0166,-1.2399 0.0498,-2.24023c0.0332,-1 0.0498,-1.75324 0.04981,-2.25973z" fill="#000000"/><path d="M139.80029,187.70019h3.78028v9.09961c0.0748,1.32243 -0.43741,2.61055 -1.3999,3.52051c-1.01582,0.86947 -2.3244,1.31986 -3.66016,1.25977c-2.26709,0 -3.77375,-0.27669 -4.52,-0.83008c-0.80515,-0.6521 -1.33386,-1.58461 -1.48,-2.61035h3.73975c0.1575,0.29375 0.4021,0.53153 0.70019,0.68066c0.34661,0.12133 0.7132,0.17536 1.08008,0.15918c0.5722,0.02863 1.11523,-0.25409 1.41992,-0.73926c0.29791,-0.49383 0.44395,-1.06439 0.41992,-1.64062v-0.31934c-0.45106,0.30481 -0.93965,0.55001 -1.45361,0.72949c-0.494,0.16779 -1.01247,0.25227 -1.53418,0.25c-1.28913,0.07839 -2.54727,-0.41537 -3.439,-1.34961c-0.84645,-1.00671 -1.28002,-2.29676 -1.21337,-3.61035c-0.05278,-1.30968 0.41041,-2.58779 1.29,-3.55957c0.90397,-0.93836 2.16871,-1.44126 3.47021,-1.37988c0.52184,-0.00505 1.03916,0.09698 1.52,0.2998c0.47462,0.221 0.92956,0.48204 1.35986,0.78028zM136.02051,192.5c0.00232,0.51306 0.21145,1.00349 0.58008,1.36035c0.34832,0.38287 0.84225,0.60066 1.35986,0.59961c0.59141,0.03041 1.16722,-0.19558 1.58008,-0.62012c0.39804,-0.44325 0.60632,-1.02496 0.58008,-1.62012c0.01855,-0.52849 -0.19308,-1.03903 -0.58008,-1.39941c-0.38415,-0.35928 -0.89411,-0.55322 -1.41992,-0.54c-0.57626,-0.02169 -1.13264,0.21245 -1.52,0.63965c-0.38913,0.43262 -0.59685,0.9984 -0.5801,1.58004z" fill="#000000"/><path d="M147.28028,193.32031c0.56956,-0.00675 1.1177,0.21688 1.52,0.62012c0.41569,0.38713 0.64823,0.93202 0.64014,1.5c0.01214,0.58222 -0.21149,1.14465 -0.62012,1.55957c-0.39362,0.41827 -0.94574,0.65061 -1.52,0.63965c-0.58461,0.0041 -1.14647,-0.22625 -1.55995,-0.63955c-0.41348,-0.4133 -0.64408,-0.97506 -0.64024,-1.55967c-0.00809,-0.56798 0.22445,-1.11287 0.64014,-1.5c0.40866,-0.40601 0.96405,-0.62964 1.54003,-0.62012z" fill="#000000"/><path d="M152.86035,193.32031c0.56956,-0.00675 1.1177,0.21688 1.52,0.62012c0.41569,0.38713 0.64823,0.93202 0.64014,1.5c0.01214,0.58222 -0.21149,1.14465 -0.62012,1.55957c-0.39362,0.41827 -0.94574,0.65061 -1.52,0.63965c-0.58461,0.00411 -1.14648,-0.22625 -1.55996,-0.63954c-0.41348,-0.4133 -0.64408,-0.97507 -0.64023,-1.55968c-0.00809,-0.56797 0.22445,-1.11287 0.64013,-1.5c0.40867,-0.406 0.96406,-0.62964 1.54004,-0.62012z" fill="#000000"/><path d="M158.44043,193.32031c0.56956,-0.00675 1.1177,0.21688 1.52,0.62012c0.41569,0.38713 0.64823,0.93202 0.64014,1.5c0.01214,0.58222 -0.21149,1.14465 -0.62012,1.55957c-0.39362,0.41827 -0.94574,0.65061 -1.52,0.63965c-0.58461,0.00411 -1.14648,-0.22625 -1.55996,-0.63954c-0.41348,-0.4133 -0.64408,-0.97507 -0.64023,-1.55968c-0.00809,-0.56798 0.22445,-1.11287 0.64013,-1.5c0.40867,-0.406 0.96406,-0.62964 1.54004,-0.62012z" fill="#000000"/><path d="M91.18115,211.97949c-0.25118,-0.53072 -0.64169,-0.98333 -1.12988,-1.30957c-0.47833,-0.33308 -1.0475,-0.51104 -1.63037,-0.50977c-1.04315,-0.02625 -2.026,0.4877 -2.59961,1.35938c-0.58725,0.85836 -0.88837,1.88028 -0.86039,2.91992c-0.04439,1.02959 0.25863,2.04422 0.86035,2.88086c0.6285,0.84115 1.63043,1.31948 2.67969,1.2793c0.69669,0.02022 1.37995,-0.1944 1.93994,-0.60938c0.54536,-0.4259 0.92117,-1.03213 1.06006,-1.71h-3.12004v-3.18066h7.08c0.01318,0.10742 0.02344,0.20019 0.03027,0.28027c0.00576,0.10004 0.00232,0.2004 -0.01025,0.29981c0.1487,2.13067 -0.48403,4.24253 -1.77979,5.94043c-1.26709,1.45312 -3.17382,2.17968 -5.72021,2.17968c-1.94956,0.08529 -3.84232,-0.66833 -5.19971,-2.07031c-1.33292,-1.44732 -2.03774,-3.36402 -1.96,-5.33008c-0.09887,-2.05478 0.67464,-4.05575 2.12988,-5.50976c1.52765,-1.40759 3.55484,-2.14568 5.62989,-2.04981c1.25303,-0.024 2.49382,0.25014 3.62011,0.79981c1.13094,0.55874 2.05524,1.46218 2.63965,2.58007z" fill="#000000"/><path d="M99.58106,217.45992c0.09513,1.07639 1.04349,1.87274 2.12011,1.78027c0.29858,-0.00162 0.59159,-0.08105 0.8501,-0.23047c0.29425,-0.16912 0.56636,-0.37414 0.81006,-0.61035h3.67969c-0.44559,1.04415 -1.20362,1.92467 -2.16992,2.52055c-1.0283,0.55111 -2.18412,0.82031 -3.3501,0.78027c-1.43307,0.08269 -2.84535,-0.37286 -3.96,-1.27734c-1.04477,-0.9994 -1.59391,-2.40979 -1.5,-3.85254c-0.06508,-1.41737 0.5117,-2.78867 1.57031,-3.7334c1.10464,-0.93904 2.52092,-1.4303 3.96977,-1.37699c1.57777,-0.11512 3.12479,0.47877 4.22021,1.62012c0.96576,1.24773 1.44226,2.80538 1.33984,4.37988zM103.60106,215.36031c-0.18848,-0.38345 -0.46204,-0.7188 -0.79981,-0.98047c-0.33377,-0.27084 -0.75032,-0.41906 -1.18015,-0.41992c-0.43116,-0.01126 -0.85361,0.12251 -1.19971,0.37988c-0.3344,0.28123 -0.6069,0.6287 -0.80029,1.02051z" fill="#000000"/><path d="M108.021,216.87992c0,-0.77344 -0.00667,-1.4069 -0.02,-1.90039c-0.05322,-1.94629 -0.07975,-3.0127 -0.07959,-3.19922h3.73974v1.08008c0.34705,-0.31836 0.7133,-0.61514 1.09668,-0.88867c0.656,-0.41299 1.41831,-0.62546 2.19336,-0.61133c1.00254,-0.08625 1.98216,0.33269 2.61231,1.11719c0.54302,0.84892 0.80145,1.84877 0.73779,2.85449v2.75485c0,0.37207 0.01333,0.99741 0.04,1.876c0.02637,0.87793 0.03971,1.35026 0.04,1.417h-3.80023v-5.2998c0.01543,-0.43346 -0.12255,-0.85847 -0.38965,-1.2002c-0.27351,-0.32647 -0.68514,-0.50458 -1.11035,-0.48047c-0.46791,-0.00736 -0.89892,0.25318 -1.10987,0.6709c-0.25797,0.43921 -0.39275,0.93986 -0.39013,1.44922c0,0.56055 0.01333,1.49055 0.04,2.79c0.02685,1.30078 0.04018,1.99088 0.04,2.07031h-3.73967c0,-0.49316 0.0166,-1.2399 0.0498,-2.24023c0.03321,-1 0.04982,-1.75324 0.04981,-2.25973z" fill="#000000"/><path d="M123.08106,217.45992c0.09513,1.07639 1.04349,1.87274 2.12011,1.78027c0.29858,-0.00162 0.59159,-0.08105 0.8501,-0.23047c0.29425,-0.16912 0.56636,-0.37414 0.81006,-0.61035h3.67969c-0.44559,1.04415 -1.20362,1.92467 -2.16992,2.52055c-1.0283,0.55111 -2.18412,0.82031 -3.3501,0.78027c-1.43307,0.08269 -2.84535,-0.37286 -3.96,-1.27734c-1.04477,-0.9994 -1.59391,-2.40979 -1.5,-3.85254c-0.06508,-1.41737 0.5117,-2.78867 1.57031,-3.7334c1.10464,-0.93904 2.52092,-1.4303 3.96977,-1.37699c1.57777,-0.11512 3.12479,0.47877 4.22021,1.62012c0.96576,1.24773 1.44226,2.80538 1.33984,4.37988zM127.10106,215.36031c-0.18848,-0.38345 -0.46204,-0.7188 -0.79981,-0.98047c-0.33377,-0.27084 -0.75032,-0.41906 -1.18015,-0.41992c-0.43116,-0.01126 -0.85361,0.12251 -1.19971,0.37988c-0.3344,0.28123 -0.6069,0.6287 -0.80029,1.02051z" fill="#000000"/><path d="M131.72119,211.75976h3.54v1.16016c0.55316,-0.44341 1.16161,-0.81305 1.81006,-1.09961c0.43873,-0.16112 0.90274,-0.24248 1.37012,-0.24023c0.14804,0.00018 0.2956,0.01689 0.43994,0.0498c0.14648,0.0332 0.33317,0.08333 0.56006,0.15039l0.02,3.35938c-0.32083,-0.11248 -0.64808,-0.20575 -0.98,-0.2793c-0.28897,-0.0652 -0.58414,-0.09893 -0.88037,-0.10059c-0.74037,-0.0793 -1.45907,0.28005 -1.83985,0.91993c-0.29398,0.6735 -0.42416,1.40709 -0.37988,2.14062c0,0.39941 0.01333,1.07585 0.04,2.0293c0.02637,0.9541 0.03971,1.46419 0.04,1.53027h-3.74008c0,-0.48047 0.00993,-1.27051 0.02979,-2.37012c0.02,-1.09961 0.03009,-1.69628 0.03027,-1.79z" fill="#000000"/><path d="M147.00098,211.70019l3.76025,-0.0205c-0.04004,0.34667 -0.06673,0.71353 -0.08008,1.10058c-0.01367,0.38672 -0.02033,0.8265 -0.02,1.31934c0,0.83984 0.01333,2.22005 0.04,4.14062c0.02637,1.91992 0.03971,2.93978 0.04,3.05957h-3.80025l0.06006,-0.78027c-0.43028,0.34655 -0.91027,0.62638 -1.42383,0.83008c-1.7334,0.63316 -3.6764,0.21286 -4.99316,-1.08008c-0.84614,-0.99935 -1.28292,-2.28178 -1.22266,-3.58984c-0.05162,-1.34893 0.37309,-2.67301 1.19971,-3.74024c0.85655,-1.05476 2.16265,-1.64069 3.52,-1.5791c0.53643,-0.00203 1.06751,0.10669 1.56,0.31934c0.49113,0.22209 0.94884,0.51167 1.35987,0.86035zM145.28125,218.63965c0.55175,0.02098 1.08381,-0.20662 1.44971,-0.62012c0.37146,-0.42534 0.56808,-0.97557 0.55029,-1.54c0.01761,-0.53852 -0.17621,-1.06255 -0.54,-1.46c-0.36733,-0.38934 -0.88505,-0.60084 -1.41992,-0.58008c-0.57522,-0.01972 -1.1341,0.19327 -1.55029,0.59082c-0.79771,0.858 -0.815,2.18101 -0.04,3.05957c0.42265,0.38281 0.98081,0.58077 1.55021,0.54981z" fill="#000000"/><path d="M151.521,211.70019h1.33984v-2.60058h3.64014v2.60058h1.98v2.39942h-1.98v7.28031h-3.64014v-7.28027h-1.33984z" fill="#000000"/><path d="M161.18067,206.83984c0.52222,-0.00985 1.0253,0.19654 1.39013,0.57031c0.37649,0.37122 0.58272,0.88159 0.56983,1.41016c0.01574,0.52229 -0.19589,1.02571 -0.58008,1.37988c-0.37796,0.3563 -0.88057,0.55017 -1.3999,0.54c-0.51383,0.01267 -1.01114,-0.18195 -1.37989,-0.54c-0.37084,-0.35372 -0.57436,-0.84806 -0.56006,-1.36035c-0.00307,-0.52586 0.20606,-1.03073 0.58008,-1.40039c0.3547,-0.3857 0.85591,-0.60349 1.37989,-0.59961zM159.34082,211.74023h3.69971v9.63969h-3.75977l0.06006,-5.01953z" fill="#000000"/><path d="M164.58008,216.87992c0,-0.77344 -0.00667,-1.4069 -0.02,-1.90039c-0.05322,-1.94629 -0.07975,-3.0127 -0.07959,-3.19922h3.73975v1.08008c0.34704,-0.31837 0.71329,-0.61515 1.09668,-0.88867c0.656,-0.41299 1.41831,-0.62546 2.19336,-0.61133c1.00254,-0.08625 1.98215,0.33269 2.6123,1.11719c0.54302,0.84892 0.80145,1.84877 0.73779,2.85449v2.75485c0,0.37207 0.01333,0.99741 0.04,1.876c0.02637,0.87793 0.03971,1.35026 0.04,1.417h-3.80023v-5.2998c0.01544,-0.43346 -0.12254,-0.85847 -0.38965,-1.2002c-0.27351,-0.32647 -0.68514,-0.50459 -1.11035,-0.48047c-0.46791,-0.00737 -0.89892,0.25318 -1.10986,0.6709c-0.25798,0.43921 -0.39276,0.93986 -0.39014,1.44922c0,0.56055 0.01333,1.49055 0.04,2.79c0.02685,1.30078 0.04018,1.99088 0.04,2.07031h-3.73967c0,-0.49316 0.0166,-1.2399 0.04981,-2.24023c0.0332,-1 0.0498,-1.75324 0.0498,-2.25973z" fill="#000000"/><path d="M183.6001,211.70019h3.78027v9.09961c0.07481,1.32243 -0.4374,2.61055 -1.3999,3.52051c-1.01582,0.86947 -2.3244,1.31987 -3.66016,1.25977c-2.26709,0 -3.77375,-0.27669 -4.52,-0.83008c-0.80515,-0.6521 -1.33386,-1.58461 -1.48,-2.61035h3.73975c0.15751,0.29375 0.40211,0.53152 0.7002,0.68066c0.34661,0.12133 0.7132,0.17536 1.08007,0.15918c0.5722,0.02863 1.11523,-0.25409 1.41993,-0.73926c0.29791,-0.49383 0.44395,-1.06439 0.41992,-1.64062v-0.31934c-0.45107,0.30481 -0.93966,0.55001 -1.45362,0.72949c-0.494,0.16779 -1.01247,0.25227 -1.53418,0.25c-1.28913,0.07839 -2.54728,-0.41536 -3.439,-1.34961c-0.84646,-1.00671 -1.28002,-2.29676 -1.21338,-3.61035c-0.05278,-1.30968 0.41041,-2.58778 1.29,-3.55957c0.90397,-0.93836 2.16871,-1.44126 3.47021,-1.37988c0.52184,-0.00506 1.03916,0.09698 1.52,0.2998c0.47465,0.22058 0.92959,0.48129 1.35987,0.7793zM179.82031,216.5c0.00233,0.51305 0.21146,1.00349 0.58008,1.36035c0.34832,0.38287 0.84226,0.60066 1.35987,0.59961c0.59133,0.02996 1.16696,-0.19596 1.58007,-0.62012c0.39804,-0.44325 0.60632,-1.02496 0.58008,-1.62012c0.01874,-0.52852 -0.19292,-1.03914 -0.58008,-1.39941c-0.38415,-0.35928 -0.89411,-0.55322 -1.41992,-0.54c-0.57626,-0.02169 -1.13264,0.21245 -1.52,0.63965c-0.38927,0.43254 -0.59702,0.99837 -0.5801,1.58004z" fill="#000000"/><path d="M194.05957,216.87992c0,-0.77344 -0.00667,-1.4069 -0.02,-1.90039c-0.05322,-1.94629 -0.07975,-3.0127 -0.07959,-3.19922h3.73975v1.08008c0.34705,-0.31837 0.71329,-0.61515 1.09668,-0.88867c0.656,-0.41299 1.41831,-0.62546 2.19336,-0.61133c1.00254,-0.08625 1.98215,0.33269 2.6123,1.11719c0.54302,0.84892 0.80145,1.84877 0.7378,2.85449v2.75485c0,0.37207 0.01333,0.99741 0.04,1.876c0.02637,0.87793 0.03971,1.35026 0.04,1.417h-3.80029v-5.2998c0.01544,-0.43346 -0.12254,-0.85847 -0.38965,-1.2002c-0.27351,-0.32647 -0.68514,-0.50459 -1.11035,-0.48047c-0.46791,-0.00737 -0.89892,0.25318 -1.10986,0.6709c-0.25798,0.43921 -0.39276,0.93986 -0.39014,1.44922c0,0.56055 0.01333,1.49055 0.04,2.79c0.02686,1.30078 0.04019,1.99088 0.04,2.07031h-3.73975c0,-0.49316 0.0166,-1.2399 0.04981,-2.24023c0.03329,-1 0.04993,-1.75324 0.04993,-2.25973z" fill="#000000"/><path d="M209.11963,217.45992c0.09513,1.0764 1.04349,1.87274 2.12012,1.78027c0.29858,-0.00162 0.59159,-0.08105 0.8501,-0.23047c0.29425,-0.16912 0.56635,-0.37414 0.81005,-0.61035h3.67969c-0.44559,1.04415 -1.20362,1.92468 -2.16992,2.52055c-1.0283,0.55111 -2.18412,0.82031 -3.3501,0.78027c-1.43307,0.08269 -2.84535,-0.37286 -3.96,-1.27734c-1.04477,-0.9994 -1.59391,-2.40979 -1.5,-3.85254c-0.06508,-1.41737 0.51171,-2.78866 1.57031,-3.7334c1.10463,-0.93902 2.5209,-1.43027 3.96973,-1.37695c1.57777,-0.11513 3.12479,0.47877 4.22021,1.62012c0.96576,1.24773 1.44226,2.80538 1.33985,4.37988zM213.13963,215.36031c-0.18848,-0.38345 -0.46203,-0.7188 -0.7998,-0.98047c-0.33378,-0.27085 -0.75034,-0.41906 -1.18018,-0.41992c-0.43116,-0.01126 -0.85361,0.12251 -1.19971,0.37988c-0.3344,0.28123 -0.60689,0.62871 -0.80029,1.02051z" fill="#000000"/><path d="M219.9399,211.74023l1.83985,4.75977l1.72021,-4.75977h2.29981l1.72021,4.69922l1.98,-4.69922h3.83992l-4.42,9.63969h-2.52l-1.76025,-4.90039l-1.87988,4.90039h-2.66016c-0.52,-1.44629 -1.17333,-3.0664 -1.96,-4.86035c-0.71973,-1.59277 -1.43294,-3.18587 -2.13965,-4.7793z" fill="#000000"/><path d="M238.3589,211.70019h1.34082v-2.60058h3.63965v2.60058h1.97953v2.39942h-1.97949v7.28031h-3.63965v-7.28027h-1.34086z" fill="#000000"/><path d="M248.93945,217.45992c0.09526,1.07633 1.04354,1.8726 2.12012,1.78027c0.29843,-0.00162 0.59127,-0.08106 0.84961,-0.23047c0.29457,-0.16886 0.56687,-0.3739 0.81055,-0.61035h3.67969c-0.44543,1.04425 -1.20351,1.92482 -2.16993,2.52055c-1.02816,0.551 -2.18379,0.82019 -3.34961,0.78027c-1.43309,0.08285 -2.84543,-0.37271 -3.96,-1.27734c-1.04492,-0.99933 -1.59423,-2.40972 -1.50048,-3.85254c-0.06525,-1.4173 0.51135,-2.7886 1.56982,-3.7334c1.10501,-0.93903 2.52157,-1.43026 3.9707,-1.37695c1.5776,-0.11493 3.1244,0.47894 4.21973,1.62012c0.96555,1.24784 1.44202,2.80541 1.33984,4.37988zM252.95996,215.36031c-0.18882,-0.38351 -0.46271,-0.71885 -0.80078,-0.98047c-0.33355,-0.27091 -0.74998,-0.41914 -1.17969,-0.41992c-0.4313,-0.01126 -0.85391,0.12251 -1.20019,0.37988c-0.3341,0.2814 -0.6064,0.62884 -0.79981,1.02051z" fill="#000000"/><path d="M257.58008,211.75976h3.53906v1.16016c0.55339,-0.44334 1.16199,-0.81297 1.81055,-1.09961c0.43871,-0.16121 0.90274,-0.24257 1.37012,-0.24023c0.14788,0.00016 0.29528,0.01686 0.43945,0.0498c0.14648,0.0332 0.33333,0.08333 0.56055,0.15039l0.01953,3.35938c-0.32062,-0.1126 -0.6477,-0.20587 -0.97949,-0.2793c-0.28881,-0.06517 -0.58382,-0.0989 -0.87989,-0.10059c-0.7406,-0.07916 -1.45952,0.28011 -1.84082,0.91993c-0.29374,0.67357 -0.42392,1.4071 -0.37988,2.14062c0,0.39941 0.01333,1.07585 0.04,2.0293c0.02733,0.9541 0.04067,1.46419 0.04,1.53027h-3.73926c0,-0.48047 0.00977,-1.27051 0.0293,-2.37012c0.0205,-1.09961 0.03059,-1.69628 0.03027,-1.79z" fill="#000000"/><path d="M265.95996,211.75976h3.53907v1.16016c0.55338,-0.44334 1.16198,-0.81297 1.81054,-1.09961c0.43871,-0.16121 0.90274,-0.24257 1.37012,-0.24023c0.14788,0.00016 0.29528,0.01686 0.43945,0.0498c0.14649,0.0332 0.33334,0.08333 0.56055,0.15039l0.01953,3.35938c-0.32062,-0.1126 -0.6477,-0.20587 -0.97949,-0.2793c-0.28881,-0.06517 -0.58382,-0.0989 -0.87988,-0.10059c-0.74061,-0.07917 -1.45953,0.2801 -1.84082,0.91993c-0.29375,0.67357 -0.42392,1.4071 -0.37989,2.14062c0,0.39941 0.01333,1.07585 0.04,2.0293c0.02733,0.9541 0.04067,1.46419 0.04,1.53027h-3.73926c0,-0.48047 0.00977,-1.27051 0.0293,-2.37012c0.02051,-1.09961 0.0306,-1.69628 0.03027,-1.79z" fill="#000000"/><path d="M281.23926,211.70019l3.75977,-0.0205c-0.04004,0.34667 -0.06673,0.71353 -0.08008,1.10058c-0.01267,0.38672 -0.01918,0.8265 -0.01953,1.31934c0,0.83984 0.01333,2.22005 0.04,4.14062c0.02637,1.91992 0.0397,2.93978 0.04,3.05957h-3.7998l0.05957,-0.78027c-0.43028,0.34655 -0.91027,0.62638 -1.42383,0.83008c-1.7334,0.63316 -3.6764,0.21286 -4.99316,-1.08008c-0.84614,-0.99935 -1.28292,-2.28178 -1.22266,-3.58984c-0.05192,-1.34905 0.37301,-2.67328 1.2002,-3.74024c0.85629,-1.05483 2.16229,-1.6408 3.51953,-1.5791c0.53631,-0.00213 1.06726,0.10659 1.55957,0.31934c0.49141,0.22184 0.94931,0.51144 1.36035,0.86035zM279.51953,218.63965c0.55187,0.02089 1.08405,-0.20668 1.4502,-0.62012c0.37111,-0.42551 0.56753,-0.97566 0.5498,-1.54c0.01784,-0.53856 -0.17601,-1.06267 -0.54,-1.46c-0.36739,-0.38925 -0.88507,-0.60074 -1.41992,-0.58008c-0.57509,-0.01981 -1.13385,0.1932 -1.5498,0.59082c-0.79834,0.85774 -0.81564,2.18125 -0.04,3.05957c0.42246,0.38281 0.98046,0.58077 1.54972,0.54981z" fill="#000000"/><path d="M288.65918,206.83984c0.5221,-0.00995 1.02506,0.19647 1.38965,0.57031c0.377,0.37091 0.58348,0.88145 0.57031,1.41016c0.01574,0.52229 -0.19589,1.02571 -0.58008,1.37988c-0.37782,0.35621 -0.88024,0.55008 -1.39941,0.54c-0.51408,0.01249 -1.01163,-0.18208 -1.38086,-0.54c-0.37052,-0.35391 -0.57383,-0.84817 -0.55957,-1.36035c-0.00307,-0.52586 0.20606,-1.03073 0.58008,-1.40039c0.3547,-0.3857 0.8559,-0.60349 1.37988,-0.59961zM286.81934,211.74023h3.70019v9.63969h-3.76074l0.06055,-5.01953z" fill="#000000"/><path d="M292.05957,216.87992c0,-0.77344 -0.00684,-1.4069 -0.02051,-1.90039c-0.05273,-1.94629 -0.07942,-3.0127 -0.08007,-3.19922h3.74023v1.08008c0.34705,-0.31837 0.71329,-0.61515 1.09668,-0.88867c0.65597,-0.41305 1.4183,-0.62553 2.19336,-0.61133c1.00254,-0.08625 1.98215,0.33269 2.6123,1.11719c0.54306,0.84888 0.80134,1.8488 0.73731,2.85449v2.75485c0,0.37207 0.01333,0.99741 0.04,1.876c0.02733,0.87793 0.04067,1.35026 0.04,1.417h-3.79981v-5.2998c0.01544,-0.43346 -0.12254,-0.85847 -0.38965,-1.2002c-0.27338,-0.32664 -0.6851,-0.50479 -1.11035,-0.48047c-0.46778,-0.00735 -0.89863,0.25322 -1.10937,0.6709c-0.25857,0.43899 -0.39355,0.93975 -0.39063,1.44922c0,0.56055 0.01333,1.49055 0.04,2.79c0.02637,1.30078 0.0397,1.99088 0.04,2.07031h-3.74023c0,-0.49316 0.01693,-1.2399 0.05078,-2.24023c0.03233,-1 0.04898,-1.75324 0.04996,-2.25973z" fill="#000000"/><path d="M306.21973,217.32031c0.56929,-0.00701 1.11726,0.21626 1.51953,0.61914c0.41523,0.3874 0.64754,0.93216 0.63965,1.5c0.01278,0.58263 -0.21093,1.1456 -0.62012,1.56055c-0.39344,0.41826 -0.94541,0.65061 -1.51953,0.63965c-0.58471,0.00388 -1.1466,-0.22668 -1.56006,-0.64014c-0.41346,-0.41346 -0.64402,-0.97535 -0.64014,-1.56006c-0.00797,-0.56805 0.22475,-1.11297 0.64063,-1.5c0.40862,-0.40596 0.96413,-0.62929 1.54004,-0.61914z" fill="#000000"/><path d="M311.79981,217.32031c0.56928,-0.00701 1.11726,0.21626 1.51953,0.61914c0.41523,0.3874 0.64754,0.93216 0.63965,1.5c0.01278,0.58263 -0.21093,1.1456 -0.62012,1.56055c-0.39344,0.41826 -0.94541,0.65061 -1.51953,0.63965c-0.58471,0.00388 -1.1466,-0.22668 -1.56006,-0.64014c-0.41346,-0.41346 -0.64402,-0.97535 -0.64014,-1.56006c-0.00797,-0.56805 0.22475,-1.11297 0.64063,-1.5c0.40862,-0.40596 0.96413,-0.62929 1.54004,-0.61914z" fill="#000000"/><path d="M317.3799,217.32031c0.56929,-0.00702 1.11726,0.21626 1.51954,0.61914c0.41523,0.38741 0.64753,0.93216 0.63964,1.5c0.01279,0.58263 -0.21092,1.1456 -0.62011,1.56055c-0.39344,0.41826 -0.94541,0.65061 -1.51953,0.63965c-0.58471,0.00388 -1.1466,-0.22668 -1.56006,-0.64014c-0.41346,-0.41346 -0.64402,-0.97535 -0.64014,-1.56006c-0.00797,-0.56805 0.22475,-1.11297 0.64063,-1.5c0.40862,-0.40596 0.96412,-0.62929 1.54003,-0.61914z" fill="#000000"/><path d="M81.76123,231.24023l4.06006,0.01953c0,0.24024 -0.01333,0.6504 -0.04,1.23047c-0.02685,0.58008 -0.04019,0.88998 -0.04,0.92969v8.67969h4.46v3.28031h-8.54c0,-1.04004 0.0166,-2.36004 0.04981,-3.96c0.0332,-1.59961 0.04996,-2.53288 0.05029,-2.7998z" fill="#000000"/><path d="M96.36133,235.36035c1.47067,-0.05965 2.91526,0.40131 4.07957,1.30176c1.14902,0.9388 1.78681,2.36537 1.72021,3.84765c0.08214,1.49783 -0.54821,2.94642 -1.70021,3.90723c-1.1938,0.90108 -2.66571,1.35514 -4.15967,1.2832c-1.46871,0.06749 -2.91815,-0.35542 -4.12012,-1.20214c-1.17731,-0.90242 -1.83548,-2.32615 -1.76021,-3.80762c-0.06195,-1.51846 0.58921,-2.97865 1.76025,-3.94727c1.18216,-0.94791 2.66595,-1.43875 4.18018,-1.38281zM96.30127,242.70019c0.57843,0.02572 1.13856,-0.20599 1.52979,-0.63281c0.38667,-0.44044 0.59051,-1.01194 0.56984,-1.59766c-0.00244,-0.84528 -0.51704,-1.60471 -1.30122,-1.92026c-0.78417,-0.31556 -1.68136,-0.12424 -2.2686,0.48374c-0.39898,0.40294 -0.61881,0.94962 -0.60987,1.5166c-0.01842,0.56718 0.18614,1.119 0.56983,1.53711c0.3907,0.4137 0.94172,0.63745 1.51023,0.61328z" fill="#000000"/><path d="M110.36084,235.70019l3.76026,-0.0205c-0.04004,0.34667 -0.06673,0.71353 -0.08008,1.10058c-0.01367,0.38672 -0.02033,0.8265 -0.02,1.31934c0,0.83984 0.01333,2.22005 0.04,4.14062c0.02636,1.91992 0.03969,2.93978 0.04,3.05957h-3.8003l0.06006,-0.78027c-0.43028,0.34655 -0.91027,0.62638 -1.42383,0.83008c-0.5051,0.1953 -1.04247,0.29368 -1.584,0.29c-1.2834,0.07178 -2.53239,-0.43017 -3.40918,-1.37012c-0.84614,-0.99935 -1.28292,-2.28178 -1.22266,-3.58984c-0.05158,-1.34893 0.37315,-2.67299 1.19979,-3.7402c0.85655,-1.05476 2.16265,-1.64069 3.52,-1.5791c0.53645,-0.00203 1.06755,0.10668 1.56006,0.31934c0.49112,0.22209 0.94883,0.51167 1.35986,0.86035zM108.64111,242.63965c0.55175,0.02098 1.08381,-0.20662 1.44971,-0.62012c0.37146,-0.42534 0.56808,-0.97557 0.55029,-1.54c0.0176,-0.53852 -0.17621,-1.06254 -0.54,-1.46c-0.36734,-0.38933 -0.88506,-0.60084 -1.41993,-0.58008c-0.57522,-0.01972 -1.1341,0.19327 -1.55029,0.59082c-0.79769,0.858 -0.81499,2.18101 -0.04,3.05957c0.42266,0.38281 0.98081,0.58077 1.55022,0.54981z" fill="#000000"/><path d="M122.68067,230.41992h3.64013v14.94043h-3.64013v-0.84082c-0.37971,0.38695 -0.83608,0.69031 -1.33985,0.89062c-0.52378,0.19833 -1.0801,0.29669 -1.64013,0.29c-1.314,0.05048 -2.57715,-0.51112 -3.41993,-1.5205c-0.8236,-1.01448 -1.25017,-2.29386 -1.20019,-3.59961c-0.06406,-1.37454 0.38904,-2.72322 1.27,-3.78028c0.92182,-0.99182 2.23866,-1.51975 3.59033,-1.43941c0.99562,0.0155 1.96378,0.32876 2.77978,0.89941zM118.86084,240.63965c-0.01096,0.52139 0.19988,1.02293 0.58008,1.37988c0.37833,0.37071 0.89038,0.57285 1.41992,0.56055c0.555,0.02226 1.09561,-0.17977 1.5,-0.56055c0.39342,-0.38925 0.6041,-0.92658 0.58008,-1.47949c0.01595,-0.55869 -0.18896,-1.10116 -0.57031,-1.50977c-0.37845,-0.40661 -0.91455,-0.62925 -1.46971,-0.61035c-0.56638,-0.02589 -1.11411,0.20562 -1.49023,0.62988c-0.37488,0.44298 -0.57094,1.00992 -0.54983,1.58985z" fill="#000000"/><path d="M130.12061,230.83984c0.52222,-0.00985 1.0253,0.19654 1.39013,0.57031c0.37649,0.37122 0.58272,0.88159 0.56983,1.41016c0.01574,0.52229 -0.19589,1.02571 -0.58008,1.37988c-0.37796,0.3563 -0.88057,0.55017 -1.3999,0.54c-0.51383,0.01267 -1.01114,-0.18195 -1.37989,-0.54c-0.37082,-0.35373 -0.57432,-0.84807 -0.56,-1.36035c-0.00307,-0.52586 0.20606,-1.03073 0.58007,-1.40039c0.35469,-0.38569 0.85587,-0.60348 1.37984,-0.59961zM128.28076,235.74023h3.69971v9.63969h-3.75977l0.06006,-5.01953z" fill="#000000"/><path d="M133.52051,240.87992c0,-0.77344 -0.00667,-1.4069 -0.02,-1.90039c-0.05322,-1.94629 -0.07975,-3.0127 -0.07959,-3.19922h3.73975v1.08008c0.34704,-0.31837 0.71329,-0.61515 1.09668,-0.88867c0.656,-0.41299 1.41831,-0.62546 2.19336,-0.61133c1.00254,-0.08625 1.98215,0.33269 2.6123,1.11719c0.54302,0.84892 0.80145,1.84877 0.73779,2.85449v2.75485c0,0.37207 0.01333,0.99741 0.04,1.876c0.02637,0.87793 0.03971,1.35026 0.04,1.417h-3.80023v-5.2998c0.01543,-0.43346 -0.12256,-0.85847 -0.38967,-1.2002c-0.27351,-0.32647 -0.68514,-0.50459 -1.11035,-0.48047c-0.46791,-0.00736 -0.89892,0.25318 -1.10987,0.6709c-0.25797,0.43921 -0.39275,0.93986 -0.39013,1.44922c0,0.56055 0.01333,1.49055 0.04,2.79c0.02685,1.30078 0.04018,1.99088 0.04,2.07031h-3.73965c0,-0.49316 0.0166,-1.2399 0.0498,-2.24023c0.03321,-1 0.04982,-1.75324 0.04981,-2.25973z" fill="#000000"/><path d="M152.54053,235.70019h3.78027v9.09961c0.07481,1.32243 -0.4374,2.61055 -1.3999,3.52051c-1.01582,0.86947 -2.3244,1.31987 -3.66016,1.25977c-2.26709,0 -3.77375,-0.27669 -4.52,-0.83008c-0.80515,-0.6521 -1.33386,-1.58461 -1.48,-2.61035h3.73975c0.15751,0.29375 0.40211,0.53152 0.7002,0.68066c0.34661,0.12133 0.7132,0.17536 1.08007,0.15918c0.5722,0.02863 1.11523,-0.25409 1.41993,-0.73926c0.29791,-0.49383 0.44395,-1.06439 0.41992,-1.64062v-0.31934c-0.45107,0.30481 -0.93966,0.55001 -1.45362,0.72949c-0.494,0.16779 -1.01247,0.25227 -1.53418,0.25c-1.28913,0.07839 -2.54728,-0.41536 -3.439,-1.34961c-0.84646,-1.00671 -1.28002,-2.29676 -1.21338,-3.61035c-0.05278,-1.30968 0.41041,-2.58778 1.29,-3.55957c0.90397,-0.93836 2.16871,-1.44126 3.47021,-1.37988c0.52184,-0.00506 1.03916,0.09698 1.52,0.2998c0.47465,0.22058 0.92959,0.48129 1.35987,0.7793zM148.76074,240.5c0.00232,0.51306 0.21145,1.00349 0.58008,1.36035c0.34832,0.38287 0.84226,0.60066 1.35987,0.59961c0.59133,0.02996 1.16696,-0.19596 1.58007,-0.62012c0.39804,-0.44325 0.60632,-1.02496 0.58008,-1.62012c0.01874,-0.52852 -0.19292,-1.03914 -0.58008,-1.39941c-0.38415,-0.35928 -0.89411,-0.55322 -1.41992,-0.54c-0.57626,-0.02169 -1.13264,0.21245 -1.52,0.63965c-0.38928,0.43253 -0.59702,0.99837 -0.5801,1.58004z" fill="#000000"/><path d="M170.47998,239.20019c-0.28417,-0.22653 -0.59671,-0.41497 -0.92969,-0.56054c-0.30651,-0.13173 -0.63659,-0.19984 -0.97021,-0.2002c-0.52909,0.01537 -1.02981,0.24268 -1.38965,0.63086c-0.39895,0.34517 -0.63488,0.84182 -0.65039,1.36914v0.18067c0.04938,0.53137 0.27466,1.03106 0.64014,1.41992c0.42125,0.32596 0.94912,0.4827 1.48,0.43945c0.39244,-0.01828 0.7785,-0.10624 1.14013,-0.25977c0.22657,-0.08007 0.45313,-0.166 0.67969,-0.25976v3.04c-0.4146,0.19564 -0.84625,0.35287 -1.28955,0.46972c-1.74209,0.44408 -3.59122,0.00706 -4.95019,-1.16992c-0.99468,-0.91995 -1.54183,-2.22585 -1.5,-3.58008c-0.05131,-1.42557 0.47106,-2.81221 1.45019,-3.8496c0.98579,-1.01499 2.35612,-1.56376 3.77,-1.50977c0.42077,0.00556 0.83977,0.05564 1.25,0.14941c0.43374,0.09256 0.85855,0.22294 1.26953,0.38965z" fill="#000000"/><path d="M173.56006,230.83984c0.52222,-0.00986 1.0253,0.19654 1.39014,0.57031c0.37648,0.37123 0.58271,0.8816 0.56982,1.41016c0.01574,0.52229 -0.19589,1.02571 -0.58008,1.37988c-0.37796,0.3563 -0.88057,0.55018 -1.3999,0.54c-0.51382,0.01267 -1.01113,-0.18195 -1.37988,-0.54c-0.37085,-0.35372 -0.57437,-0.84806 -0.56006,-1.36035c-0.00307,-0.52586 0.20606,-1.03073 0.58008,-1.40039c0.3547,-0.3857 0.8559,-0.60349 1.37988,-0.59961zM171.72022,235.74023h3.69968v9.63969h-3.75974l0.06006,-5.01953z" fill="#000000"/><path d="M176.24024,235.70019h1.33984v-2.60058h3.64014v2.60058h1.98v2.39942h-1.98v7.28031h-3.64014v-7.28027h-1.33984z" fill="#000000"/><path d="M186.5,235.70019l2.27979,4.58008l2.52,-4.58008h3.98l-7.39989,13.69922h-4.14013l3.12011,-5.61914l-4.48,-8.08008z" fill="#000000"/><path d="M197.8799,241.32031c0.56944,-0.00711 1.1176,0.21617 1.52,0.61914c0.41537,0.38735 0.64784,0.9321 0.64014,1.5c0.01233,0.58255 -0.21131,1.14535 -0.62012,1.56055c-0.39362,0.41827 -0.94574,0.65061 -1.52,0.63965c-0.58478,0.0041 -1.14679,-0.22639 -1.5603,-0.6399c-0.41351,-0.41351 -0.64399,-0.97553 -0.63989,-1.5603c-0.0077,-0.5679 0.22477,-1.11265 0.64014,-1.5c0.40877,-0.40573 0.96417,-0.62901 1.54003,-0.61914z" fill="#000000"/><path d="M203.45996,241.32031c0.56944,-0.00711 1.11759,0.21617 1.52,0.61914c0.41537,0.38735 0.64784,0.9321 0.64014,1.5c0.01233,0.58255 -0.21131,1.14535 -0.62012,1.56055c-0.39362,0.41827 -0.94574,0.65061 -1.52,0.63965c-0.58478,0.0041 -1.14679,-0.22638 -1.5603,-0.6399c-0.41351,-0.41351 -0.64399,-0.97553 -0.63989,-1.5603c-0.0077,-0.5679 0.22477,-1.11264 0.64013,-1.5c0.40878,-0.40573 0.96418,-0.62901 1.54004,-0.61914z" fill="#000000"/><path d="M209.04004,241.32031c0.56944,-0.00711 1.11759,0.21617 1.52,0.61914c0.41537,0.38735 0.64784,0.9321 0.64014,1.5c0.01233,0.58255 -0.21131,1.14535 -0.62012,1.56055c-0.39362,0.41827 -0.94574,0.65061 -1.52,0.63965c-0.58478,0.0041 -1.1468,-0.22638 -1.56031,-0.63989c-0.41351,-0.41351 -0.644,-0.97553 -0.63989,-1.56031c-0.0077,-0.5679 0.22477,-1.11265 0.64014,-1.5c0.40878,-0.40573 0.96418,-0.62901 1.54004,-0.61914z" fill="#000000"/><path d="M81.80127,265.01953c0.47232,0.39437 0.98131,0.74263 1.52,1.04c0.53014,0.30681 1.12761,0.47852 1.73975,0.5c0.4444,0.01342 0.88285,-0.10482 1.26025,-0.33985c0.38176,-0.23327 0.61027,-0.6523 0.59963,-1.09956c0,-0.74707 -0.5332,-1.28711 -1.59961,-1.62012c-1.0087,-0.27302 -1.99778,-0.61397 -2.96045,-1.02051c-1.09686,-0.66915 -1.72331,-1.89903 -1.61963,-3.17969c-0.0271,-1.18788 0.44867,-2.33198 1.31006,-3.15039c0.85488,-0.83895 2.01254,-1.29679 3.21,-1.26953c0.8824,-0.02163 1.76365,0.0766 2.61963,0.292c0.87202,0.27897 1.71046,0.65365 2.5,1.11719l-1.3999,2.791c-0.42074,-0.332 -0.88502,-0.60473 -1.37988,-0.81055c-0.46198,-0.22845 -0.96542,-0.36099 -1.48,-0.38965c-0.36976,-0.01386 -0.73318,0.09879 -1.03028,0.31934c-0.27732,0.22189 -0.42999,0.56436 -0.40967,0.91894c0,0.51856 0.52669,0.91114 1.58008,1.17774c1.02592,0.19875 2.01668,0.54859 2.93994,1.03808c1.10602,0.79727 1.71327,2.11589 1.6001,3.47461c0.06944,1.36278 -0.46904,2.68619 -1.47023,3.61334c-1.05687,0.90674 -2.4188,1.378 -3.81006,1.31836c-0.89076,0.01936 -1.77788,-0.11952 -2.6201,-0.4102c-0.8827,-0.35565 -1.71616,-0.823 -2.48,-1.39063z" fill="#000000"/><path d="M98.8208,259.70019l3.76026,-0.0205c-0.04004,0.34667 -0.06673,0.71353 -0.08008,1.10058c-0.01367,0.38672 -0.02033,0.8265 -0.02,1.31934c0,0.83984 0.01333,2.22005 0.04,4.14062c0.02636,1.91992 0.03969,2.93978 0.04,3.05957h-3.8003l0.06006,-0.78027c-0.43028,0.34655 -0.91027,0.62638 -1.42383,0.83008c-0.5051,0.1953 -1.04247,0.29368 -1.584,0.29c-1.2834,0.07178 -2.53239,-0.43017 -3.40918,-1.37012c-0.84614,-0.99935 -1.28292,-2.28178 -1.22266,-3.58984c-0.05157,-1.34893 0.37318,-2.673 1.19983,-3.7402c0.85655,-1.05476 2.16265,-1.64069 3.52,-1.5791c0.53645,-0.00203 1.06755,0.10668 1.56006,0.31934c0.49113,0.22208 0.94883,0.51166 1.35986,0.86035zM97.10108,266.63965c0.55174,0.02098 1.08381,-0.20662 1.4497,-0.62012c0.37147,-0.42534 0.56808,-0.97557 0.5503,-1.54c0.0176,-0.53852 -0.17621,-1.06254 -0.54,-1.46c-0.36733,-0.38934 -0.88506,-0.60084 -1.41993,-0.58008c-0.57522,-0.01972 -1.1341,0.19327 -1.55029,0.59082c-0.79769,0.858 -0.81499,2.18101 -0.04,3.05957c0.42266,0.38281 0.98081,0.58077 1.55022,0.54981z" fill="#000000"/><path d="M106.68067,259.74023l2,4.81934l2.14013,-4.81934h3.85987l-4.52002,9.67969h-2.91993c-0.48,-1.16016 -0.94663,-2.24024 -1.3999,-3.24023c-0.26709,-0.58594 -0.78042,-1.65267 -1.54,-3.2002c-0.53369,-1.05273 -1.06038,-2.11262 -1.58008,-3.17969z" fill="#000000"/><path d="M117.38037,254.83984c0.52222,-0.00986 1.0253,0.19653 1.39014,0.57031c0.37648,0.37123 0.58271,0.8816 0.56982,1.41016c0.01574,0.52229 -0.19589,1.02571 -0.58007,1.37988c-0.37797,0.3563 -0.88058,0.55017 -1.39991,0.54c-0.51382,0.01267 -1.01113,-0.18195 -1.37988,-0.54c-0.37084,-0.35372 -0.57436,-0.84806 -0.56006,-1.36035c-0.00307,-0.52586 0.20606,-1.03073 0.58008,-1.40039c0.3547,-0.3857 0.8559,-0.60349 1.37988,-0.59961zM115.54053,259.74023h3.69971v9.63969h-3.75977l0.06006,-5.01953z" fill="#000000"/><path d="M120.78028,264.87992c0,-0.77344 -0.00667,-1.4069 -0.02,-1.90039c-0.05323,-1.94629 -0.07976,-3.0127 -0.07959,-3.19922h3.73974v1.08008c0.34705,-0.31837 0.71329,-0.61515 1.09668,-0.88867c0.656,-0.41299 1.41831,-0.62546 2.19336,-0.61133c1.00254,-0.08625 1.98215,0.33269 2.61231,1.11719c0.54301,0.84892 0.80144,1.84877 0.73779,2.85449v2.75485c0,0.37207 0.01333,0.99741 0.04,1.876c0.02636,0.87793 0.03969,1.35026 0.04,1.417h-3.8003v-5.2998c0.01544,-0.43346 -0.12254,-0.85847 -0.38964,-1.2002c-0.27351,-0.32647 -0.68514,-0.50458 -1.11036,-0.48047c-0.46791,-0.00737 -0.89892,0.25318 -1.10986,0.6709c-0.25798,0.43921 -0.39276,0.93986 -0.39014,1.44922c0,0.56055 0.01333,1.49055 0.04,2.79c0.02686,1.30078 0.04019,1.99088 0.04,2.07031h-3.7396c0,-0.49316 0.0166,-1.2399 0.0498,-2.24023c0.0332,-1 0.0498,-1.75324 0.04981,-2.25973z" fill="#000000"/><path d="M139.80029,259.70019h3.78028v9.09961c0.0748,1.32243 -0.43741,2.61055 -1.3999,3.52051c-1.01582,0.86947 -2.3244,1.31986 -3.66016,1.25977c-2.26709,0 -3.77375,-0.27669 -4.52,-0.83008c-0.80515,-0.6521 -1.33386,-1.58461 -1.48,-2.61035h3.73975c0.1575,0.29375 0.4021,0.53153 0.70019,0.68066c0.34661,0.12133 0.7132,0.17536 1.08008,0.15918c0.5722,0.02863 1.11523,-0.25409 1.41992,-0.73926c0.29791,-0.49383 0.44395,-1.06439 0.41992,-1.64062v-0.31934c-0.45106,0.30481 -0.93965,0.55001 -1.45361,0.72949c-0.494,0.16779 -1.01247,0.25227 -1.53418,0.25c-1.28913,0.07839 -2.54727,-0.41537 -3.439,-1.34961c-0.84645,-1.00671 -1.28002,-2.29676 -1.21337,-3.61035c-0.05278,-1.30968 0.41041,-2.58779 1.29,-3.55957c0.90397,-0.93836 2.16871,-1.44126 3.47021,-1.37988c0.52184,-0.00505 1.03916,0.09698 1.52,0.2998c0.47465,0.22058 0.92959,0.48129 1.35986,0.7793zM136.02051,264.5c0.00232,0.51306 0.21145,1.00349 0.58008,1.36035c0.34832,0.38287 0.84225,0.60066 1.35986,0.59961c0.59133,0.02996 1.16697,-0.19596 1.58008,-0.62012c0.39804,-0.44325 0.60632,-1.02496 0.58008,-1.62012c0.01874,-0.52852 -0.19292,-1.03914 -0.58008,-1.39941c-0.38415,-0.35928 -0.89411,-0.55322 -1.41992,-0.54c-0.57626,-0.02169 -1.13264,0.21245 -1.52,0.63965c-0.38928,0.43253 -0.59702,0.99837 -0.5801,1.58004z" fill="#000000"/><path d="M157.73975,263.20019c-0.28417,-0.22653 -0.59671,-0.41497 -0.92969,-0.56054c-0.30652,-0.13173 -0.63659,-0.19983 -0.97021,-0.2002c-0.52909,0.01537 -1.02981,0.24268 -1.38965,0.63086c-0.39895,0.34517 -0.63488,0.84182 -0.65039,1.36914v0.18067c0.04939,0.53136 0.27466,1.03106 0.64013,1.41992c0.42125,0.32596 0.94912,0.4827 1.48,0.43945c0.39245,-0.01828 0.77851,-0.10624 1.14014,-0.25977c0.22656,-0.08007 0.45313,-0.166 0.67969,-0.25976v3.04c-0.4146,0.19564 -0.84625,0.35287 -1.28955,0.46972c-1.74209,0.44408 -3.59123,0.00706 -4.9502,-1.16992c-0.99468,-0.91995 -1.54183,-2.22585 -1.5,-3.58008c-0.05131,-1.42557 0.47106,-2.81221 1.4502,-3.8496c0.98579,-1.01499 2.35612,-1.56376 3.77,-1.50977c0.42077,0.00556 0.83977,0.05564 1.25,0.14941c0.43374,0.09256 0.85855,0.22294 1.26953,0.38965z" fill="#000000"/><path d="M160.81983,254.83984c0.52222,-0.00985 1.0253,0.19654 1.39013,0.57031c0.37649,0.37122 0.58272,0.88159 0.56983,1.41016c0.01574,0.52229 -0.19589,1.02571 -0.58008,1.37988c-0.37796,0.3563 -0.88057,0.55017 -1.3999,0.54c-0.51383,0.01267 -1.01114,-0.18195 -1.37989,-0.54c-0.37084,-0.35372 -0.57436,-0.84806 -0.56006,-1.36035c-0.00307,-0.52586 0.20606,-1.03073 0.58008,-1.40039c0.3547,-0.3857 0.85591,-0.60349 1.37989,-0.59961zM158.97998,259.74023h3.69971v9.63969h-3.75979l0.06006,-5.01953z" fill="#000000"/><path d="M163.5,259.70019h1.3399v-2.60058h3.64013v2.60058h1.98v2.39942h-1.98v7.28031h-3.64013v-7.28027h-1.3399z" fill="#000000"/><path d="M173.75977,259.70019l2.27978,4.58008l2.52,-4.58008h3.98l-7.3999,13.69922h-4.14014l3.12012,-5.61914l-4.48,-8.08008z" fill="#000000"/><path d="M185.13965,265.32031c0.56944,-0.00711 1.11759,0.21617 1.52,0.61914c0.41537,0.38735 0.64784,0.9321 0.64014,1.5c0.01233,0.58255 -0.21131,1.14535 -0.62012,1.56055c-0.39362,0.41827 -0.94575,0.65061 -1.52,0.63965c-0.58478,0.0041 -1.1468,-0.22638 -1.56031,-0.63989c-0.41351,-0.41351 -0.644,-0.97553 -0.63989,-1.56031c-0.0077,-0.5679 0.22477,-1.11265 0.64014,-1.5c0.40878,-0.40573 0.96418,-0.62901 1.54004,-0.61914z" fill="#000000"/><path d="M190.71973,265.32031c0.56944,-0.00711 1.11759,0.21617 1.52,0.61914c0.41536,0.38735 0.64784,0.9321 0.64013,1.5c0.01233,0.58255 -0.21131,1.14535 -0.62011,1.56055c-0.39362,0.41827 -0.94575,0.65061 -1.52,0.63965c-0.58478,0.0041 -1.1468,-0.22638 -1.56031,-0.63989c-0.41351,-0.41351 -0.644,-0.97553 -0.63989,-1.56031c-0.0077,-0.5679 0.22477,-1.11265 0.64014,-1.5c0.40878,-0.40573 0.96418,-0.62901 1.54004,-0.61914z" fill="#000000"/><path d="M196.29981,265.32031c0.56944,-0.00711 1.11759,0.21617 1.52,0.61914c0.41536,0.38736 0.64783,0.9321 0.64013,1.5c0.01233,0.58255 -0.21131,1.14535 -0.62011,1.56055c-0.39363,0.41826 -0.94575,0.6506 -1.52,0.63965c-0.58478,0.0041 -1.1468,-0.22638 -1.56031,-0.63989c-0.41351,-0.41351 -0.644,-0.97553 -0.63989,-1.56031c-0.0077,-0.5679 0.22477,-1.11265 0.64014,-1.5c0.40878,-0.40573 0.96418,-0.62901 1.54004,-0.61914z" fill="#000000"/><g fill="#000000"><path d="M81.80127,145.02002c0.47232,0.39437 0.98131,0.74263 1.52,1.04c0.53023,0.30659 1.12764,0.47829 1.73975,0.5c0.44448,0.0135 0.88299,-0.10493 1.26025,-0.34034c0.38176,-0.23327 0.61027,-0.6523 0.59963,-1.09956c0,-0.74659 -0.5332,-1.28663 -1.59961,-1.62012c-1.00857,-0.27322 -1.99762,-0.61399 -2.96045,-1.02c-1.09671,-0.66953 -1.72309,-1.89944 -1.61963,-3.1802c-0.02728,-1.18777 0.44853,-2.33178 1.31006,-3.14988c0.85458,-0.83947 2.0124,-1.29755 3.21,-1.27c0.8824,-0.02163 1.76365,0.0766 2.61963,0.292c0.8721,0.27876 1.71056,0.65345 2.5,1.11719l-1.3999,2.791c-0.42053,-0.33218 -0.88486,-0.60476 -1.37988,-0.81006c-0.46187,-0.22879 -0.96536,-0.36151 -1.48,-0.39014c-0.36984,-0.01393 -0.73334,0.09891 -1.03028,0.31983c-0.27739,0.22143 -0.43011,0.56366 -0.40967,0.918c0,0.51954 0.52669,0.91228 1.58008,1.17823c1.02598,0.19852 2.01678,0.54837 2.93994,1.03808c1.10583,0.7972 1.71305,2.11558 1.6001,3.47412c0.06942,1.3629 -0.46905,2.68642 -1.47023,3.61375c-1.05693,0.90657 -2.41887,1.37764 -3.81006,1.31782c-0.89074,0.01977 -1.7779,-0.11894 -2.6201,-0.40966c-0.88251,-0.35585 -1.71593,-0.82302 -2.48,-1.39016z"/><path d="M98.8208,139.69971l3.76026,-0.02c-0.04004,0.34716 -0.06673,0.71386 -0.08008,1.10009c-0.01367,0.38721 -0.02033,0.82732 -0.02,1.32032c0,0.83984 0.01333,2.21972 0.04,4.13964c0.02636,1.91993 0.03969,2.93995 0.04,3.06006h-3.8003l0.06006,-0.77978c-0.43064,0.34603 -0.91054,0.62581 -1.42383,0.83008c-0.50519,0.19492 -1.04252,0.29314 -1.584,0.28955c-1.28325,0.0715 -2.53206,-0.43021 -3.40918,-1.36963c-0.84607,-0.99958 -1.28283,-2.28214 -1.22266,-3.59033c-0.05159,-1.34881 0.37316,-2.67275 1.19983,-3.73979c0.85628,-1.05521 2.16246,-1.64153 3.52,-1.58008c0.53649,-0.00187 1.06759,0.10701 1.56006,0.31983c0.49113,0.22208 0.94883,0.51166 1.35986,0.86035zM97.10108,146.63965c0.55159,0.0207 1.08348,-0.20664 1.4497,-0.61963c0.37132,-0.42543 0.56791,-0.97559 0.5503,-1.54c0.01787,-0.53856 -0.17599,-1.06268 -0.54,-1.46c-0.36708,-0.38974 -0.885,-0.60132 -1.41997,-0.5801c-0.57505,-0.01984 -1.13386,0.19277 -1.55029,0.58984c-0.79769,0.85819 -0.81498,2.18131 -0.04,3.06006c0.42278,0.38263 0.98087,0.58056 1.55026,0.54983z"/><path d="M104.06055,144.87992c0,-0.77295 -0.00667,-1.40625 -0.02,-1.8999c-0.05322,-1.94678 -0.07975,-3.01351 -0.07959,-3.2002h3.73975v1.08008c0.34715,-0.3181 0.71338,-0.61471 1.09667,-0.88818c0.65605,-0.41292 1.4183,-0.62554 2.19336,-0.61182c1.00259,-0.08586 1.98209,0.33322 2.61231,1.11768c0.54295,0.84895 0.80138,1.84877 0.73779,2.85449v2.75435c0,0.37256 0.01333,0.99805 0.04,1.87647c0.02637,0.87842 0.03971,1.35075 0.04,1.417h-3.80023v-5.2998c0.01543,-0.43346 -0.12255,-0.85847 -0.38965,-1.2002c-0.27371,-0.32615 -0.68525,-0.50405 -1.11035,-0.48c-0.46764,-0.00735 -0.8985,0.25271 -1.10987,0.66992c-0.25798,0.43957 -0.39275,0.94053 -0.39013,1.4502c0,0.56006 0.01333,1.49006 0.04,2.79c0.02685,1.2998 0.04019,1.98974 0.04,2.06982h-3.73971c0,-0.49316 0.0166,-1.2399 0.0498,-2.24023c0.03323,-0.99997 0.04985,-1.75319 0.04985,-2.25968z"/><path d="M123.10059,134.41992h3.64013v14.93994h-3.64013v-0.83984c-0.37975,0.38667 -0.83612,0.6897 -1.33985,0.88965c-0.52365,0.19879 -1.08006,0.29717 -1.64013,0.29c-1.31392,0.05066 -2.57708,-0.51076 -3.41992,-1.52c-0.82361,-1.01448 -1.25018,-2.29385 -1.2002,-3.59961c-0.06397,-1.37453 0.38911,-2.72318 1.27,-3.78028c0.92175,-0.99197 2.23859,-1.5201 3.59033,-1.43994c0.9957,0.01546 1.96393,0.32891 2.77979,0.8999zM119.28076,144.63965c-0.01097,0.52153 0.19986,1.02323 0.58008,1.38037c0.37851,0.37038 0.89049,0.57231 1.41992,0.56006c0.5549,0.0222 1.09543,-0.17962 1.5,-0.56006c0.39344,-0.38944 0.6041,-0.92693 0.58008,-1.48c0.01578,-0.55881 -0.1891,-1.10136 -0.57031,-1.51026c-0.37878,-0.4061 -0.91472,-0.62848 -1.46973,-0.60984c-0.56638,-0.02589 -1.11411,0.20562 -1.49023,0.62988c-0.37487,0.44299 -0.57093,1.00992 -0.54981,1.58985z"/><path d="M131.74072,134.5v6.1001c0.47865,-0.38791 1.0151,-0.69848 1.58985,-0.92041c0.57585,-0.19666 1.1816,-0.29134 1.79,-0.27979c1.26799,-0.03137 2.47364,0.54917 3.23978,1.56002c0.78357,1.0031 1.19374,2.24757 1.16016,3.52c0.06883,1.36767 -0.36754,2.71292 -1.22607,3.77978c-0.91802,1.02052 -2.24787,1.57177 -3.61866,1.5c-0.55559,-0.00645 -1.10489,-0.11846 -1.61865,-0.33007c-0.50886,-0.18665 -0.96187,-0.49969 -1.31641,-0.90967v0.91996h-3.38037l-0.02,-2.8999v-7.1401c0,-0.54639 -0.01318,-1.36639 -0.03955,-2.46c-0.02685,-1.09326 -0.04019,-1.90657 -0.04,-2.43994zM131.60059,144.73974c-0.01402,0.52695 0.20115,1.03409 0.58984,1.39018c0.39251,0.36648 0.91338,0.56396 1.4502,0.54981c0.59133,0.03651 1.16773,-0.19477 1.56982,-0.62989c0.38176,-0.46265 0.5779,-1.05071 0.55029,-1.6499c0.02717,-0.52369 -0.19105,-1.03017 -0.59033,-1.37012c-0.42188,-0.33644 -0.95053,-0.51023 -1.48974,-0.48974c-0.57325,-0.02773 -1.12951,0.19903 -1.52,0.61963c-0.38165,0.43581 -0.58205,1.00115 -0.56008,1.58003z"/><path d="M146.14063,139.35986c1.47079,-0.05933 2.91539,0.40198 4.07959,1.30274c1.149,0.9386 1.78681,2.36502 1.72021,3.84716c0.08193,1.49793 -0.54835,2.94658 -1.70019,3.90772c-1.19402,0.90055 -2.66585,1.35424 -4.15967,1.28223c-1.46877,0.06795 -2.91836,-0.355 -4.12012,-1.20215c-1.17748,-0.90207 -1.83572,-2.32575 -1.76025,-3.80713c-0.06185,-1.51858 0.58927,-2.97888 1.76025,-3.94776c1.18216,-0.94791 2.66595,-1.43875 4.18018,-1.38281zM146.08057,146.69971c0.57843,0.02571 1.13856,-0.20599 1.52978,-0.63282c0.38674,-0.4402 0.59059,-1.01158 0.56983,-1.59717c-0.00277,-0.84512 -0.51741,-1.60426 -1.30143,-1.91975c-0.78402,-0.31549 -1.68103,-0.12441 -2.2684,0.48323c-0.39905,0.40289 -0.6189,0.9496 -0.60986,1.5166c-0.01842,0.56718 0.18614,1.11899 0.56982,1.53711c0.3909,0.41337 0.94184,0.63692 1.51026,0.6128z"/><path d="M156.24024,144.30908l-4.1001,-4.56934h4.98l1.36035,1.91993l1.55957,-1.91993h4.84033l-4.04,4.44l4.60004,5.20018h-5.02l-1.91992,-2.54l-1.94043,2.54h-4.98z"/><path d="M170.63965,143.06692c0,-0.374 -0.01333,-1.0086 -0.04,-1.90381c-0.02685,-0.89502 -0.04018,-1.36947 -0.04,-1.42334h3.72022v1.20015c0.37823,-0.51381 0.89496,-0.90928 1.48974,-1.14014c0.6346,-0.24493 1.30997,-0.36705 1.99016,-0.35986c0.5812,-0.02061 1.15442,0.14015 1.64013,0.46c0.44615,0.36088 0.83688,0.78533 1.15967,1.25977c0.40516,-0.53655 0.91789,-0.98259 1.50537,-1.30957c0.60565,-0.29122 1.27266,-0.43193 1.94434,-0.41016c0.30161,-0.00469 0.60276,0.02546 0.89746,0.08984c0.91117,0.24273 1.67391,0.86567 2.09375,1.71c0.19999,0.60583 0.28786,1.24304 0.25928,1.88038v3.37988c0,0.43994 0.0166,1.00325 0.0498,1.68994c0.03321,0.68701 0.04997,1.08366 0.05029,1.18994h-3.74023v-5.25982c0.0018,-0.42072 -0.13134,-0.83094 -0.37988,-1.17041c-0.22089,-0.33589 -0.59803,-0.53569 -1,-0.52979c-0.6237,0.00625 -1.15779,0.44847 -1.28028,1.06006c-0.17783,0.5965 -0.25877,1.21768 -0.23974,1.83984v1.35987c0,0.29345 0.02002,0.73355 0.06006,1.32031c0.04004,0.58691 0.06006,1.02685 0.06006,1.31982h-3.74024v-5.24463c-0.00039,-0.41332 -0.14142,-0.8142 -0.3999,-1.13672c-0.22852,-0.32593 -0.60194,-0.51957 -1,-0.51855c-0.55749,-0.01177 -1.05532,0.34721 -1.22022,0.87988c-0.18883,0.51861 -0.27699,1.06848 -0.25976,1.62012v2.41992l0.06006,2.04h-3.72022c0,-0.58789 0.01333,-1.57324 0.04,-2.95605c0.02686,-1.38282 0.04019,-2.12094 0.04,-2.21436z"/><path d="M194.31983,139.35986c1.47079,-0.05933 2.91539,0.40198 4.07959,1.30274c1.149,0.9386 1.78681,2.36502 1.72021,3.84716c0.08193,1.49793 -0.54835,2.94658 -1.70019,3.90772c-1.19402,0.90055 -2.66585,1.35424 -4.15967,1.28223c-1.46877,0.06795 -2.91836,-0.355 -4.12012,-1.20215c-1.17748,-0.90207 -1.83572,-2.32575 -1.76025,-3.80713c-0.06185,-1.51858 0.58927,-2.97888 1.76025,-3.94776c1.18216,-0.94791 2.66595,-1.43875 4.18018,-1.38281zM194.25977,146.69971c0.57843,0.02571 1.13856,-0.20599 1.52978,-0.63282c0.38674,-0.4402 0.59059,-1.01158 0.56983,-1.59717c-0.00277,-0.84512 -0.51741,-1.60426 -1.30143,-1.91975c-0.78402,-0.31549 -1.68103,-0.12441 -2.2684,0.48323c-0.39905,0.40289 -0.6189,0.9496 -0.60986,1.5166c-0.01842,0.56718 0.18614,1.11899 0.56982,1.53711c0.3909,0.41337 0.94184,0.63692 1.51026,0.6128z"/><path d="M208.29932,134.41992h3.64013v14.93994h-3.64013v-0.83984c-0.37975,0.38667 -0.83612,0.6897 -1.33985,0.88965c-0.52365,0.19879 -1.08006,0.29717 -1.64013,0.29c-1.31392,0.05066 -2.57708,-0.51076 -3.41992,-1.52c-0.82361,-1.01448 -1.25018,-2.29385 -1.2002,-3.59961c-0.06397,-1.37453 0.38911,-2.72318 1.27,-3.78028c0.92175,-0.99197 2.23859,-1.5201 3.59033,-1.43994c0.9957,0.01546 1.96393,0.32891 2.77979,0.8999zM204.47949,144.63965c-0.01097,0.52153 0.19986,1.02323 0.58008,1.38037c0.37851,0.37037 0.89049,0.57231 1.41992,0.56006c0.5549,0.0222 1.09543,-0.17962 1.5,-0.56006c0.39344,-0.38944 0.6041,-0.92693 0.58008,-1.48c0.01578,-0.55881 -0.1891,-1.10136 -0.57031,-1.51026c-0.37878,-0.4061 -0.91472,-0.62848 -1.46973,-0.60984c-0.56638,-0.02589 -1.11411,0.20562 -1.49023,0.62988c-0.37487,0.44299 -0.57093,1.00992 -0.54981,1.58985z"/><path d="M216.65918,145.45992c0.09497,1.07641 1.04353,1.8727 2.12012,1.77978c0.29855,-0.00144 0.59155,-0.08072 0.8501,-0.23c0.29424,-0.16894 0.56635,-0.37379 0.81005,-0.60986h3.67969c-0.44546,1.04409 -1.20354,1.92447 -2.16992,2.52c-1.02826,0.55117 -2.18414,0.82022 -3.3501,0.77979c-1.4331,0.08292 -2.84547,-0.37266 -3.96,-1.27735c-1.04477,-0.9994 -1.59391,-2.40979 -1.5,-3.85254c-0.06517,-1.4171 0.51165,-2.78814 1.57031,-3.73242c1.10459,-0.93916 2.52087,-1.43057 3.96977,-1.3774c1.57778,-0.11512 3.1248,0.47877 4.22022,1.62012c0.96561,1.24781 1.44209,2.8054 1.33984,4.37988zM220.67918,143.35982c-0.18875,-0.38315 -0.46226,-0.71828 -0.7998,-0.98c-0.33389,-0.27064 -0.75038,-0.41883 -1.18018,-0.41992c-0.43116,-0.01126 -0.85361,0.12251 -1.19971,0.37988c-0.3344,0.28103 -0.60689,0.62834 -0.80029,1.02z"/><path d="M232.69922,134.27492l1.84033,1.02c-0.68618,1.29622 -1.22627,2.66463 -1.61035,4.08008c-0.34272,1.4003 -0.50743,2.83825 -0.49023,4.27978c-0.00899,0.95825 0.06798,1.91537 0.23,2.85987c0.15818,0.85803 0.38899,1.70106 0.68994,2.52c0.16015,0.44043 0.53352,1.3405 1.12012,2.70019l-1.75977,1.1001c-0.79929,-1.37127 -1.41786,-2.84016 -1.84033,-4.37012c-0.42485,-1.52708 -0.64004,-3.10486 -0.63965,-4.68994c-0.00666,-1.11319 0.09028,-2.22459 0.28955,-3.31982c0.19746,-1.04196 0.48182,-2.06555 0.8501,-3.06006c0.26659,-0.72021 0.70668,-1.76023 1.32029,-3.12008z"/><path d="M239.1792,139.73974v5.38477c-0.01875,0.42962 0.10408,0.8535 0.34961,1.20654c0.25729,0.32364 0.65797,0.49913 1.07031,0.46875c0.50193,0.04277 0.98647,-0.19499 1.25977,-0.61816c0.23777,-0.44698 0.34855,-0.95056 0.32031,-1.45606c0,-0.75781 -0.00651,-1.37598 -0.01953,-1.85449c-0.05371,-1.90137 -0.0804,-2.94515 -0.08008,-3.13135h3.73975v5.60889c0.09957,1.31093 -0.46371,2.58466 -1.50049,3.39307c-1.10856,0.702 -2.40999,1.03718 -3.71973,0.958c-1.27975,0.08641 -2.55396,-0.23498 -3.63965,-0.918c-0.99756,-0.81514 -1.52883,-2.06988 -1.41992,-3.35352l-0.12011,-5.68848z"/><path d="M247.4199,144.87992c0,-0.77295 -0.00683,-1.40625 -0.0205,-1.8999c-0.05274,-1.94678 -0.07943,-3.01351 -0.08008,-3.2002h3.74023v1.08008c0.34715,-0.3181 0.71339,-0.61471 1.09668,-0.88818c0.65603,-0.41299 1.41829,-0.62561 2.19336,-0.61182c1.00259,-0.08586 1.98209,0.33322 2.61231,1.11768c0.54299,0.84891 0.80126,1.84881 0.7373,2.85449v2.75435c0,0.37256 0.01333,0.99805 0.04,1.87647c0.02733,0.87842 0.04067,1.35075 0.04,1.417h-3.79981v-5.2998c0.01547,-0.43343 -0.12245,-0.85842 -0.38949,-1.20017c-0.27359,-0.32632 -0.68522,-0.50426 -1.11036,-0.48c-0.46751,-0.00734 -0.89821,0.25275 -1.10937,0.66992c-0.25858,0.43934 -0.39355,0.94042 -0.39063,1.4502c0,0.56006 0.01333,1.49006 0.04,2.79c0.02637,1.2998 0.0397,1.98974 0.04,2.06982h-3.74023c0,-0.49316 0.01693,-1.2399 0.05078,-2.24023c0.03225,-0.99999 0.04886,-1.75322 0.04981,-2.25971z"/><path d="M259.67969,134.41992h3.78027v14.96l-3.78027,-0.02c0,-1.16015 0.01009,-2.64013 0.03027,-4.43994c0.01953,-1.7998 0.02929,-2.83984 0.0293,-3.12012z"/><path d="M267.13965,134.83984c0.52204,-0.01013 1.02501,0.19612 1.38965,0.56983c0.37684,0.37102 0.58329,0.88148 0.57031,1.41015c0.01593,0.52233 -0.19573,1.02583 -0.58008,1.37989c-0.37758,0.3566 -0.88017,0.55054 -1.39941,0.54c-0.51416,0.01295 -1.01188,-0.18169 -1.38086,-0.54c-0.37058,-0.35366 -0.57392,-0.84781 -0.55957,-1.35987c-0.00316,-0.52573 0.206,-1.03048 0.58008,-1.3999c0.35451,-0.38601 0.85579,-0.60401 1.37988,-0.6001zM265.29981,139.73974h3.70019v9.64018h-3.76074l0.06055,-5.02z"/><path d="M270.21973,143.06692c0,-0.374 -0.01333,-1.0086 -0.04,-1.90381c-0.02637,-0.89502 -0.03971,-1.36947 -0.04,-1.42334h3.71973v1.20015c0.37863,-0.51362 0.89546,-0.90903 1.49023,-1.14014c0.63462,-0.24494 1.31,-0.36706 1.99021,-0.35986c0.58107,-0.02083 1.1542,0.13996 1.63964,0.46c0.44645,0.36071 0.83737,0.78518 1.16016,1.25977c0.40521,-0.53669 0.91814,-0.98275 1.50586,-1.30957c0.60561,-0.29134 1.27265,-0.43206 1.94434,-0.4102c0.30129,-0.00472 0.60212,0.02543 0.89648,0.08984c0.91117,0.24273 1.67391,0.86567 2.09375,1.71c0.2002,0.60579 0.28823,1.24301 0.25977,1.88038v3.37988c0,0.43994 0.0166,1.00325 0.0498,1.68994c0.0332,0.68701 0.0498,1.08366 0.0498,1.18994h-3.7393v-5.25978c0.00191,-0.42089 -0.13162,-0.83124 -0.38086,-1.17041c-0.22081,-0.33597 -0.598,-0.53581 -1,-0.52979c-0.62358,0.00603 -1.15751,0.44846 -1.2793,1.06006c-0.17827,0.59642 -0.25938,1.21764 -0.24023,1.83984v1.35987c0,0.29345 0.01986,0.73355 0.05957,1.32031c0.04004,0.58691 0.06022,1.02685 0.06054,1.31982h-3.74023v-5.24463c-0.00057,-0.41337 -0.14177,-0.81424 -0.40039,-1.13672c-0.22837,-0.3261 -0.60189,-0.51979 -1,-0.51855c-0.55737,-0.01174 -1.05505,0.34727 -1.21973,0.87988c-0.18859,0.51867 -0.27674,1.06849 -0.25976,1.62012v2.41992l0.05957,2.04h-3.71973c0,-0.58789 0.01333,-1.57324 0.04,-2.95605c0.02637,-1.38282 0.0397,-2.12094 0.04,-2.21436z"/><path d="M290.63965,134.83984c0.52204,-0.01013 1.02501,0.19612 1.38965,0.56983c0.37684,0.37102 0.58329,0.88148 0.57031,1.41015c0.01593,0.52233 -0.19573,1.02583 -0.58008,1.37989c-0.37758,0.3566 -0.88017,0.55054 -1.39941,0.54c-0.51416,0.01295 -1.01188,-0.18169 -1.38086,-0.54c-0.37058,-0.35366 -0.57392,-0.84781 -0.55957,-1.35987c-0.00316,-0.52573 0.206,-1.03048 0.58008,-1.3999c0.35451,-0.38601 0.85579,-0.60401 1.37988,-0.6001zM288.79981,139.73974h3.70019v9.64018h-3.76074l0.06055,-5.02z"/><path d="M293.31934,139.69971h1.34082v-2.59961h3.63965v2.59961h1.97949v2.40039h-1.97949v7.27982h-3.63965v-7.27982h-1.34082z"/><path d="M303.89942,145.45992c0.09511,1.07633 1.04357,1.87254 2.12011,1.77978c0.29839,-0.00145 0.59124,-0.08073 0.84961,-0.23c0.29457,-0.16868 0.56687,-0.37356 0.81055,-0.60986h3.67969c-0.44531,1.04418 -1.20343,1.92461 -2.16993,2.52c-1.02812,0.55106 -2.18381,0.8201 -3.3496,0.77979c-1.43312,0.08308 -2.84554,-0.37252 -3.96,-1.27735c-1.04477,-0.9994 -1.59391,-2.40979 -1.5,-3.85254c-0.06552,-1.41696 0.51096,-2.78801 1.56934,-3.73242c1.10496,-0.93917 2.52153,-1.43056 3.97071,-1.3774c1.5776,-0.11493 3.1244,0.47894 4.21973,1.62012c0.96541,1.24791 1.44187,2.80543 1.33986,4.37988zM307.91992,143.35982c-0.18909,-0.38321 -0.46294,-0.71834 -0.80078,-0.98c-0.33367,-0.27071 -0.75002,-0.41891 -1.17969,-0.41992c-0.4313,-0.01126 -0.85391,0.12251 -1.20019,0.37988c-0.3341,0.2812 -0.60641,0.62848 -0.79981,1.02z"/><path d="M319.4199,134.41992h3.63965v14.93994h-3.63965v-0.83984c-0.38019,0.38659 -0.83686,0.6896 -1.34082,0.88965c-0.52346,0.19887 -1.07973,0.29726 -1.63965,0.29c-1.3139,0.05055 -2.57701,-0.51084 -3.41992,-1.52c-0.8236,-1.01448 -1.25017,-2.29386 -1.20019,-3.59961c-0.06381,-1.37459 0.38946,-2.72324 1.27051,-3.78028c0.92155,-0.99197 2.23824,-1.52011 3.58984,-1.43994c0.99584,0.01553 1.9642,0.32896 2.78027,0.8999zM315.59959,144.63965c-0.01074,0.52149 0.20005,1.0231 0.58008,1.38037c0.37861,0.37022 0.89052,0.57213 1.41992,0.56006c0.5549,0.0222 1.09543,-0.17962 1.5,-0.56006c0.39344,-0.38944 0.6041,-0.92693 0.58008,-1.48c0.01555,-0.55877 -0.1893,-1.10124 -0.57031,-1.51026c-0.37883,-0.40601 -0.91472,-0.62837 -1.46971,-0.60984c-0.56636,-0.02578 -1.11405,0.20571 -1.49023,0.62988c-0.37507,0.44287 -0.57116,1.00989 -0.54981,1.58985z"/><path d="M329.53906,143.06692c0,-0.374 -0.01333,-1.0086 -0.04,-1.90381c-0.02637,-0.89502 -0.0397,-1.36947 -0.04,-1.42334h3.71972v1.20015c0.37863,-0.51362 0.89546,-0.90904 1.49024,-1.14014c0.63462,-0.24494 1.31001,-0.36706 1.99023,-0.35986c0.58108,-0.02083 1.1542,0.13996 1.63965,0.46c0.44645,0.36071 0.83736,0.78519 1.16016,1.25977c0.40521,-0.53669 0.91813,-0.98275 1.50586,-1.30957c0.60562,-0.29132 1.27264,-0.43204 1.94433,-0.41016c0.30129,-0.00472 0.60212,0.02543 0.89649,0.08984c0.91117,0.24273 1.67391,0.86567 2.09375,1.71c0.20019,0.60579 0.28822,1.24301 0.25976,1.88038v3.37988c0,0.43994 0.0166,1.00325 0.04981,1.68994c0.0332,0.68701 0.0498,1.08366 0.0498,1.18994h-3.73926v-5.25982c0.00191,-0.4209 -0.13162,-0.83124 -0.38086,-1.17041c-0.22081,-0.33598 -0.598,-0.53581 -1,-0.52979c-0.62358,0.00603 -1.15751,0.44846 -1.27929,1.06006c-0.17827,0.59642 -0.25939,1.21764 -0.24024,1.83984v1.35987c0,0.29345 0.01986,0.73355 0.05957,1.32031c0.04004,0.58691 0.06022,1.02685 0.06055,1.31982h-3.74023v-5.24463c-0.00057,-0.41337 -0.14178,-0.81425 -0.4004,-1.13672c-0.22837,-0.3261 -0.60189,-0.51979 -1,-0.51855c-0.55737,-0.01175 -1.05504,0.34727 -1.21972,0.87988c-0.18862,0.51866 -0.2768,1.06849 -0.25984,1.62012v2.41992l0.05957,2.04h-3.71972c0,-0.58789 0.01333,-1.57324 0.04,-2.95605c0.02636,-1.38282 0.03969,-2.12094 0.04,-2.21436z"/><path d="M353.21875,139.35986c1.47096,-0.05948 2.91576,0.40183 4.08008,1.30274c1.14869,0.9388 1.78628,2.36514 1.71973,3.84716c0.08205,1.49775 -0.54784,2.94632 -1.69922,3.90772c-1.19424,0.90048 -2.6662,1.35416 -4.16016,1.28223c-1.46878,0.06803 -2.91839,-0.35493 -4.12012,-1.20215c-1.17752,-0.902 -1.83563,-2.32578 -1.75976,-3.80713c-0.06226,-1.51856 0.58873,-2.97896 1.75976,-3.94776c1.18201,-0.94783 2.66562,-1.43867 4.17969,-1.38281zM353.15918,146.69971c0.57854,0.02552 1.13874,-0.20614 1.53027,-0.63282c0.38659,-0.44026 0.59027,-1.01164 0.56934,-1.59717c-0.00263,-0.84507 -0.51716,-1.60423 -1.30112,-1.91975c-0.78396,-0.31551 -1.68093,-0.12442 -2.26822,0.48323c-0.39938,0.40271 -0.61943,0.9495 -0.61035,1.5166c-0.01871,0.56732 0.1861,1.11929 0.57032,1.53711c0.3907,0.41336 0.94149,0.63692 1.50976,0.6128z"/><path d="M360.11914,144.87992c0,-0.77295 -0.00684,-1.40625 -0.02051,-1.8999c-0.05273,-1.94678 -0.07942,-3.01351 -0.08007,-3.2002h3.74023v1.08008c0.34715,-0.3181 0.71339,-0.61471 1.09668,-0.88818c0.65603,-0.41299 1.41829,-0.62561 2.19336,-0.61182c1.00258,-0.08586 1.98209,0.33322 2.6123,1.11768c0.543,0.84891 0.80127,1.8488 0.73731,2.85449v2.75435c0,0.37256 0.01333,0.99805 0.04,1.87647c0.02733,0.87842 0.04067,1.35075 0.04,1.417h-3.79981v-5.2998c0.01544,-0.43346 -0.12255,-0.85847 -0.38965,-1.2002c-0.27358,-0.32632 -0.68521,-0.50427 -1.11035,-0.48c-0.46751,-0.00734 -0.89821,0.25275 -1.10937,0.66992c-0.25858,0.43934 -0.39355,0.94042 -0.39063,1.4502c0,0.56006 0.01333,1.49006 0.04,2.79c0.02637,1.2998 0.03971,1.98974 0.04,2.06982h-3.74023c0,-0.49316 0.01693,-1.2399 0.05078,-2.24023c0.03233,-0.99997 0.04898,-1.75319 0.04996,-2.25968z"/><path d="M375.17871,145.45992c0.09512,1.07633 1.04358,1.87253 2.12012,1.77978c0.29839,-0.00145 0.59124,-0.08073 0.84961,-0.23c0.29457,-0.16868 0.56686,-0.37356 0.81055,-0.60986h3.67968c-0.44531,1.04418 -1.20342,1.92461 -2.16992,2.52c-1.02813,0.55106 -2.18381,0.8201 -3.34961,0.77979c-1.43312,0.08308 -2.84554,-0.37251 -3.96,-1.27735c-1.04477,-0.9994 -1.59391,-2.40979 -1.5,-3.85254c-0.06552,-1.41696 0.51095,-2.78802 1.56934,-3.73242c1.10495,-0.93918 2.52151,-1.43059 3.9707,-1.37744c1.5776,-0.11493 3.1244,0.47894 4.21973,1.62012c0.96543,1.24792 1.4419,2.80545 1.33988,4.37992zM379.19922,143.35982c-0.1891,-0.3832 -0.46294,-0.71834 -0.80078,-0.98c-0.33367,-0.2707 -0.75002,-0.41891 -1.17969,-0.41992c-0.4313,-0.01126 -0.85391,0.1225 -1.20019,0.37988c-0.3341,0.2812 -0.60641,0.62848 -0.79981,1.02z"/><path d="M386.39844,139.69971l2.28027,4.58007l2.52051,-4.58007h3.97949l-7.39941,13.70021h-4.14063l3.12012,-5.62012l-4.47949,-8.08007z"/><path d="M397.39844,143.30517c0.01684,-1.38927 -0.15798,-2.77422 -0.51953,-4.11572c-0.42422,-1.31916 -0.93877,-2.60754 -1.54,-3.856l1.7998,-1.13867c0.77976,1.4283 1.3969,2.93953 1.83985,4.50537c0.40936,1.52753 0.61137,3.10318 0.60058,4.68457c0.00075,1.5928 -0.21108,3.17858 -0.62988,4.71534c-0.44803,1.61764 -1.04734,3.18952 -1.79,4.69482l-1.87988,-0.959c0.71318,-1.28323 1.24805,-2.6577 1.58984,-4.08545c0.3523,-1.45548 0.52996,-2.94775 0.52922,-4.44526z"/></g><g fill="#ffffff"><path d="M81.521,87.23974h4.00732c2.88526,0 4.7754,0.39925 5.67041,1.19776c0.90396,0.92694 1.35771,2.20261 1.24217,3.49219c0.1481,1.46412 -0.46293,2.90226 -1.61963,3.812c-1.27132,0.71567 -2.72496,1.04185 -4.18018,0.938h-1.3198l-0.04,1.52c0,0.34716 0.01986,0.87385 0.05957,1.58007c0.04003,0.70705 0.06004,1.24043 0.06004,1.60016l-3.87988,-0.02c0,-0.86523 0.01333,-2.28646 0.04,-4.26367c0.02636,-1.97705 0.03969,-3.02556 0.04,-3.14551zM85.86084,93.41992c0.58054,0.02914 1.16189,-0.03852 1.72022,-0.2002c0.5758,-0.18523 0.95389,-0.7359 0.91992,-1.3398c0.01616,-0.46439 -0.22638,-0.89947 -0.62988,-1.12992c-0.43012,-0.26298 -0.92612,-0.39828 -1.4302,-0.39014h-1.15965v3.06006z"/><path d="M93.20117,86.41992h3.77979v14.96l-3.77979,-0.02c0,-1.16015 0.00993,-2.64013 0.02979,-4.43994c0.02,-1.7998 0.03009,-2.83984 0.03027,-3.12012z"/><path d="M105.58057,91.69971l3.76025,-0.02c-0.04004,0.34716 -0.06673,0.71386 -0.08008,1.10009c-0.01367,0.38721 -0.02033,0.82731 -0.02,1.32032c0,0.83984 0.01333,2.21972 0.04,4.13964c0.02637,1.91993 0.03971,2.93995 0.04,3.06006h-3.80023l0.06006,-0.77978c-0.43064,0.34603 -0.91054,0.62581 -1.42383,0.83008c-0.50519,0.19492 -1.04252,0.29314 -1.584,0.28955c-1.28325,0.0715 -2.53206,-0.43021 -3.40918,-1.36963c-0.84607,-0.99958 -1.28284,-2.28215 -1.22266,-3.59035c-0.05162,-1.34879 0.3731,-2.67272 1.19973,-3.73977c0.85628,-1.05521 2.16246,-1.64154 3.52,-1.58008c0.53648,-0.00187 1.06758,0.10702 1.56005,0.31983c0.49113,0.22209 0.94884,0.51167 1.35987,0.86035zM103.86084,98.63965c0.55159,0.0207 1.08349,-0.20664 1.44971,-0.61963c0.37131,-0.42543 0.56791,-0.9756 0.55029,-1.54c0.01787,-0.53856 -0.17598,-1.06269 -0.54,-1.46c-0.36707,-0.38973 -0.88498,-0.60132 -1.41994,-0.5801c-0.57505,-0.01984 -1.13386,0.19277 -1.55029,0.58984c-0.41001,0.40125 -0.6315,0.957 -0.60987,1.53028c-0.03293,0.56726 0.17381,1.1223 0.56983,1.52978c0.42278,0.38263 0.98088,0.58057 1.55027,0.54983z"/><path d="M113.60059,91.69971l2.27978,4.58007l2.52,-4.58007h3.98l-7.3999,13.70021h-4.14014l3.12012,-5.62012l-4.48,-8.08007z"/><path d="M125.36035,97.25976c0.5742,-0.00518 1.12611,0.22199 1.53028,0.62989c0.42273,0.39562 0.65875,0.95136 0.6499,1.53027c0.00307,0.5802 -0.24926,1.13236 -0.68994,1.50977c-0.4349,0.41043 -1.01192,0.63637 -1.60987,0.63037c-0.54819,-0.00049 -1.06949,-0.23756 -1.43017,-0.65039c-0.39182,-0.39671 -0.61102,-0.93217 -0.60986,-1.48975c0.01354,-1.18718 0.97249,-2.14635 2.15966,-2.16016zM123.50049,87.23974h3.7998v9.22018h-3.7998z"/></g><g fill="#ffffff"><path d="M81.56104,111.25976l4.34228,-0.06005c2.1377,0 3.61166,0.35335 4.42188,1.06005c0.72654,0.68663 1.10667,1.66302 1.03564,2.66016c0.03072,0.58516 -0.0934,1.16807 -0.35986,1.68994c-0.33688,0.50116 -0.78083,0.92128 -1.29981,1.23c1.60332,0.42176 2.7051,1.89207 2.65967,3.54932c0.13884,1.46458 -0.67473,2.85379 -2.02,3.44922c-1.36997,0.46322 -2.81578,0.6606 -4.25978,0.58152h-4.64016c0,-0.68018 0.02002,-1.70687 0.06006,-3.08008c0.04004,-1.37304 0.06006,-2.40641 0.06006,-3.1001zM85.74121,116.81982c0.58484,0.0523 1.17009,-0.09577 1.65969,-0.4199c0.27623,-0.2483 0.42372,-0.60931 0.40037,-0.98c0.00683,-0.37104 -0.15061,-0.72615 -0.43017,-0.97021c-0.2806,-0.25744 -0.64954,-0.39698 -1.03028,-0.38965h-1.03955v2.75976zM86.4409,122.6001c0.47917,0.02825 0.95685,-0.07634 1.38037,-0.30225c0.41785,-0.2634 0.65618,-0.73593 0.61963,-1.22852c0.02556,-0.47907 -0.23278,-0.92844 -0.65965,-1.14741c-0.42992,-0.20613 -0.90403,-0.30309 -1.38035,-0.28227h-1.09963v2.96045z"/><path d="M100.4209,115.69971l3.76025,-0.02c-0.04004,0.34716 -0.06673,0.71386 -0.08007,1.10009c-0.01368,0.38721 -0.02035,0.82731 -0.02,1.32032c0,0.83984 0.01333,2.21972 0.04,4.13964c0.02636,1.91993 0.03969,2.93995 0.04,3.06006h-3.80024l0.06006,-0.7798c-0.43064,0.34603 -0.91054,0.62581 -1.42383,0.83008c-0.50519,0.19492 -1.04252,0.29314 -1.584,0.28955c-1.28325,0.07149 -2.53205,-0.43021 -3.40917,-1.36963c-0.84607,-0.99958 -1.28283,-2.28214 -1.22266,-3.59033c-0.05163,-1.34879 0.37309,-2.67272 1.19972,-3.73977c0.85628,-1.05521 2.16246,-1.64154 3.52,-1.58008c0.53649,-0.00187 1.06758,0.10702 1.56006,0.31983c0.49113,0.22209 0.94885,0.51168 1.35988,0.86037zM98.70117,122.63965c0.5516,0.02071 1.0835,-0.20663 1.44973,-0.61963c0.37131,-0.42543 0.56791,-0.9756 0.55029,-1.54c0.01787,-0.53856 -0.17598,-1.06269 -0.54,-1.46c-0.36708,-0.38974 -0.88501,-0.60133 -1.41998,-0.5801c-0.57505,-0.01984 -1.13386,0.19277 -1.55029,0.58984c-0.79769,0.85819 -0.81498,2.18131 -0.04,3.06006c0.42278,0.38263 0.98086,0.58056 1.55025,0.54983z"/><path d="M113.14063,119.19971c-0.28429,-0.22622 -0.59681,-0.41449 -0.92969,-0.56006c-0.30655,-0.13157 -0.63663,-0.19952 -0.97022,-0.19971c-0.52887,0.01541 -1.02946,0.24231 -1.38964,0.62988c-0.399,0.34554 -0.6349,0.8425 -0.65039,1.3701v0.18018c0.04949,0.53133 0.27475,1.03099 0.64013,1.41992c0.42107,0.32634 0.94904,0.48328 1.48,0.43994c0.39245,-0.01849 0.77848,-0.10661 1.14008,-0.26024c0.22656,-0.08007 0.45312,-0.16666 0.67969,-0.25976v3.04c-0.4146,0.19564 -0.84625,0.35287 -1.28955,0.46972c-1.74207,0.44407 -3.59118,0.00707 -4.95014,-1.16988c-0.99468,-0.91995 -1.54183,-2.22585 -1.5,-3.58008c-0.0514,-1.42559 0.47098,-2.81226 1.4502,-3.8496c0.98572,-1.01513 2.35605,-1.56408 3.77,-1.51026c0.4208,0.0055 0.83983,0.05575 1.25,0.1499c0.43394,0.09203 0.8588,0.2226 1.26953,0.39014z"/><path d="M117.68067,110.39992v9.1201l3.10839,-3.82031h4.4917l-4.39986,4.78027l4.73971,4.89994h-4.6001l-3.33984,-3.64014v3.62012l-3.6001,0.02v-8.00148c0,-0.77491 -0.0166,-1.938 -0.04981,-3.48926c-0.03369,-1.55029 -0.05029,-2.71337 -0.0498,-3.48926z"/></g></g></g></svg>