<svg version="1.1" xmlns="http://www.w3.org/2000/svg" xmlns:xlink="http://www.w3.org/1999/xlink" width="26.76147" height="23.70447" viewBox="0,0,26.76147,23.70447"><g transform="translate(-229.27645,-174.35513)"><g data-paper-data="{&quot;isPaintingLayer&quot;:true}" fill-rule="nonzero" stroke="none" stroke-linecap="butt" stroke-linejoin="miter" stroke-miterlimit="10" stroke-dasharray="" stroke-dashoffset="0" style="mix-blend-mode: normal"><path d="M245.58027,190.83783c-0.44062,0.69994 -0.92975,0.79431 -1.59504,0.47782c-1.71247,-0.81456 -2.83012,-2.29007 -4.1124,-3.58445c-0.30213,-0.30495 -0.57357,-0.63094 -1.07325,-0.40805c-0.14924,0.07673 -0.332,0.03562 -0.43404,-0.09758c-0.95191,-1.06531 -2.0052,-2.03383 -2.91901,-3.13924c-0.47797,-0.57818 -0.51586,-1.07107 -0.09977,-1.64887c0.04854,-0.15118 0.18635,-0.19789 0.27906,-0.11201c0.4257,0.39439 0.89124,0.75793 1.16418,1.22788c0.07126,-0.50586 0.00275,-1.09517 0.08907,-1.6739c0.02932,-0.1965 -0.04723,-0.47113 0.27768,-0.51825c0.28179,0.12383 0.3691,0.40175 0.51973,0.63617c0.8864,1.37987 1.65827,2.83004 2.30789,4.33596c0.21468,-0.49226 -0.00529,-1.00209 0.3422,-1.37146c0.31135,-0.09284 0.43321,0.15293 0.5732,0.33722c0.28329,0.36735 0.54786,0.74877 0.79283,1.14276c0.27585,0.47867 0.77011,0.79045 1.32097,0.83311c0.45559,0.05682 0.92401,0.08088 1.36719,0.22973c0.1973,0.14111 0.33246,0.35294 0.3774,0.59128c0.25847,0.91871 0.70001,1.78238 0.8222,2.74194z" fill="#000000" stroke-width="1"/><path d="M245.13083,197.89677c-0.68533,-0.19438 -1.26773,-0.64867 -1.62314,-1.26606c-0.25386,-0.43538 -0.40158,-0.95238 0.45394,-0.91678c0.4293,0.01788 0.91831,-0.13423 1.27809,0.02359c0.74274,0.32579 1.53057,0.90553 1.40344,1.74576c-0.09275,0.61309 -0.8948,0.71289 -1.5123,0.41346z" data-paper-data="{&quot;index&quot;:null}" fill="#312a22" stroke-width="1"/><path d="M252.55076,189.03386c-0.6175,0.62428 -1.41955,0.41621 -1.5123,-0.86202c-0.12713,-1.7518 0.6607,-2.9605 1.40344,-3.63974c0.35978,-0.32904 0.84879,-0.0119 1.27809,-0.04918c0.85552,-0.07422 0.7078,1.00367 0.45394,1.91139c-0.35541,1.2872 -0.93781,2.23435 -1.62314,2.63961z" data-paper-data="{&quot;index&quot;:null}" fill="#312a22" stroke-width="1"/><g stroke-width="0.0628"><path d="M253.15519,180.57312v0c0.0465,0 0.0465,-0.0465 0.09299,-0.0465c0.46496,-0.18598 1.0229,-0.60444 1.30188,-0.46496c0.51145,0.27897 0.92991,0.79042 1.34837,1.11589c0.09299,0.0465 0.13949,0.18598 0.13949,0.23248c-0.0465,0.41846 -1.48786,1.11589 -1.76683,0.83692c-0.27897,-0.18598 -0.65094,-0.0465 -0.79042,-0.46496c0,0 0,-0.0465 -0.0465,-0.09299c0.27897,-0.46496 0.18598,-0.83692 -0.27897,-1.11589z" fill="#4b0707"/><path d="M243.06573,186.52455v0c-0.60444,0.13949 -1.39487,-0.18598 -1.53435,-0.65094c0.32547,-0.51145 0.60444,-0.97641 0.88342,-1.48786c0.27897,-0.32547 0.55795,-0.69743 0.65094,-1.11589c0.09299,-0.13949 0.18598,-0.23248 0.27897,-0.32547c0.13949,0.32547 0.37196,0.51145 0.74393,0.46496c-0.37196,0.27897 -0.74393,0.60444 -0.32547,1.11589c-0.09299,0.0465 -0.13949,0.13949 -0.13949,0.27897c-0.60444,0.23248 -0.69743,0.46496 -0.32547,1.11589c-0.0465,0.23248 -0.13949,0.37196 -0.23248,0.60444z" fill="#ca7323"/><path d="M249.99356,187.36147v0c0,0.41846 -1.30188,1.25538 -1.67384,1.0229c-0.27897,-0.23248 -0.97641,-0.32547 -0.92991,-0.74393c0.0465,-0.51145 0.65094,-0.74393 1.0694,-1.11589c0.18598,-0.18598 1.53435,0.55795 1.53435,0.83692z" fill="#4b0707"/><path d="M243.62368,184.80422v0c0,-0.13949 0.0465,-0.23248 0.13949,-0.27897c0.46496,-0.13949 0.97641,-0.13949 1.39487,-0.51145c0.18598,0.0465 0.37196,-0.0465 0.55795,-0.09299c0.13949,0 0.23248,0.09299 0.32547,0.23248c0.0465,0.32547 0.27897,0.60444 0.23248,0.92991c-0.18598,0.23248 -0.79042,0.0465 -0.65094,0.65094c-0.13949,0 -0.18598,0 -0.27897,0c-0.09299,-0.18598 -0.23248,-0.27897 -0.46496,-0.18598c-0.27897,0.09299 -0.55795,0.18598 -0.88342,0.27897c-0.0465,-0.37196 -0.18598,-0.74393 -0.37196,-1.0229z" fill="#b799bb"/><path d="M252.64375,180.43363v0c0,0.13949 0.09299,0.27897 0.13949,0.41846c0.23248,0.46496 0.23248,0.79042 -0.37196,0.92991c-0.13949,0 -0.23248,0.13949 -0.37196,0.27897c-0.13941,0.13949 -0.3254,0.09299 -0.46488,0.13949c-0.27897,-0.27897 -0.69743,0.27897 -0.92991,-0.18598c-0.37196,-0.83692 -0.41846,-0.88342 0.46496,-1.25538c0.18598,0 0.41846,0.09299 0.55795,-0.13949c0.2789,-0.0465 0.60437,-0.09299 0.97633,-0.18598z" fill="#087200"/><path d="M245.29752,186.57105v0c0.09299,-0.37196 0.69743,-0.32547 0.69743,-0.79042c0.41846,0.0465 0.92991,0.09299 1.34837,0.13949c-0.0465,0.0465 -0.18598,0.13949 -0.18598,0.13949c0.51145,0.88342 -0.46496,0.83692 -0.74393,1.16239c-0.41846,-0.18598 -0.60444,-0.69743 -1.11589,-0.65094z" fill="#c78571"/><path d="M251.57441,182.20047v0c0.13949,-0.0465 0.32547,0 0.46488,-0.13949c0.32547,-0.09299 0.51145,0.13949 0.74393,0.27897c-0.0465,0.18598 0.18598,0.37196 0.13949,0.55795c-0.41846,0.23248 -0.92991,0.18598 -1.16232,0.65094c-0.32547,-0.13949 -0.27897,-0.55795 -0.60444,-0.65094c-0.0465,0 -0.0465,-0.0465 -0.0465,-0.09299c-0.09299,-0.32547 0.41846,-0.32547 0.46496,-0.60444z" fill="#ca7323"/><path d="M240.88044,185.59464v0c-0.74393,0.27897 -1.67384,0.0465 -1.95281,-0.41846c0.0465,-0.0465 0.09299,-0.09299 0.13949,-0.13949c0.32547,-0.0465 0.69743,0.18598 0.97641,-0.13949c0.32547,-0.37196 0.79042,-0.41846 1.20889,-0.55795c0,0.18598 0,0.32547 -0.0465,0.46496c-0.23248,0.13949 -0.23248,0.41846 -0.23248,0.65094c-0.0465,0.0465 -0.09299,0.13949 -0.09299,0.13949z" fill="#7e5808"/><path d="M245.29752,186.57105v0c0.51145,-0.0465 0.69743,0.46496 1.11589,0.65094c-0.32547,0.27897 -0.46496,0.79042 -1.0694,0.37196c-0.65094,-0.51145 -0.69743,-0.46496 -0.0465,-1.0229z" fill="#7e5808"/><path d="M247.34332,185.92011v0c-0.41846,-0.0465 -0.92991,-0.09299 -1.34837,-0.13949c-0.13949,-0.0465 -0.27897,-0.0465 -0.37196,-0.0465c-0.13949,-0.60444 0.46496,-0.41846 0.65094,-0.65094c0.27897,0.13949 0.55795,0.13949 0.69743,-0.18598c0.13949,0.0465 0.27897,0.13949 0.41846,0.13949c-0.0465,0.27897 -0.0465,0.55795 0.13949,0.83692c-0.0465,0 -0.13949,0 -0.18598,0.0465z" fill="#4b0707"/><path d="M243.99564,185.82712v0c0.32547,-0.09299 0.60444,-0.18598 0.88342,-0.27897c0.23248,-0.09299 0.37196,0 0.46496,0.18598c-0.13949,0.32547 -0.41846,0.55795 -0.74393,0.55795c-0.0465,-0.0465 0.09299,-0.27897 -0.09299,-0.23248c-0.37196,0.0465 -0.79042,0.09299 -0.74393,0.65094c-0.18598,-0.0465 -0.32547,-0.41846 -0.69743,-0.18598c0.09299,-0.23248 0.18598,-0.37196 0.23248,-0.60444c0.23248,-0.09299 0.51145,0.09299 0.69743,-0.09299z" fill="#2b230e"/><path d="M252.64375,180.43363v0c-0.37196,0.09299 -0.69743,0.13949 -0.97633,0.18598c-0.0465,-0.13949 -0.09299,-0.27897 -0.13949,-0.46496c0.23248,-0.13949 0.74386,-0.18598 0.32547,-0.65094c0.13941,-0.09299 0.3254,-0.13949 0.51138,-0.23248c0.41846,0.27897 0.60444,0.65094 0.27897,1.16239z" fill="#c78571"/><path d="M252.36477,179.27124v0c-0.18598,0.09299 -0.37196,0.13949 -0.51138,0.23248c-0.18598,0 -0.32547,0.09299 -0.41846,0.13949c-0.23248,0 -0.46496,0.09299 -0.60444,-0.13949c0.41846,-0.13949 0.79042,-0.27897 1.20881,-0.41846c0.32547,-0.13949 0.37196,-0.37196 0.23248,-0.69743c0.23248,0.0465 0.65094,-0.65094 0.79042,0.13949c-0.0465,0.41846 -0.51145,0.46496 -0.69743,0.74393z" fill="#2b230e"/><path d="M240.97343,185.45516v0c0,-0.23248 0,-0.51145 0.23248,-0.65094c0.41846,-0.13949 0.88342,0 1.20889,-0.41846c-0.27897,0.51145 -0.55795,0.97641 -0.88342,1.48786c-0.13949,-0.13949 -0.27897,-0.37196 -0.55795,-0.41846z" fill="#3e621b"/><path d="M252.78323,182.33995v0c-0.23248,-0.13949 -0.41846,-0.37196 -0.74393,-0.27897c0.13949,-0.13949 0.23248,-0.27897 0.37196,-0.27897c0.60444,-0.13949 0.60444,-0.46496 0.37196,-0.92991c0.09299,-0.0465 0.13949,-0.13949 0.27897,-0.23248c-0.09299,0.46496 0.18598,0.74393 0.37196,1.0694c0.0465,0.0465 0.0465,0.09299 0.0465,0.09299c-0.23248,0.18598 -0.41846,0.37196 -0.69743,0.55795z" fill="#2b230e"/><path d="M247.52931,185.87362v0c-0.18598,-0.27897 -0.18598,-0.55795 -0.13949,-0.83692c0.23248,-0.09299 0.37196,-0.23248 0.37196,-0.51145c0.13949,0.0465 0.27897,0.09299 0.41846,0.13949c0,0.18598 0,0.37196 0,0.51145c-0.0465,0.0465 -0.09299,0.13949 -0.13949,0.13949c-0.13949,0.27897 -0.13949,0.60444 -0.51145,0.55795z" fill="#087200"/><path d="M248.04075,185.31567v0c0.0465,0 0.09299,-0.09299 0.13949,-0.13949c0.65094,0 1.11589,-0.41846 1.67384,-0.69743c0.09299,0.09299 0.23248,0.18598 0.32547,0.32547c0,0.09299 0,0.13949 0,0.23248c-0.09299,0 -0.09299,0 -0.13949,0c-0.37196,-0.23248 -0.65094,0 -0.92991,0.13949c-0.37196,0.13949 -0.65094,0.27897 -1.0694,0.13949z" fill="#2b230e"/><path d="M243.76316,186.71054v0c-0.0465,-0.55795 0.37196,-0.60444 0.74393,-0.65094c0.18598,-0.0465 0.0465,0.18598 0.09299,0.23248c-0.18598,0.37196 -0.46496,0.46496 -0.83692,0.41846z" fill="#c78571"/><path d="M253.43417,181.68901v0c-0.18598,-0.32547 -0.46496,-0.60444 -0.37196,-1.0694c0,-0.0465 0.0465,-0.0465 0.09299,-0.0465c0.46496,0.27897 0.55795,0.65094 0.27897,1.11589z" fill="#091007"/><path d="M253.06221,183.13038v0c-0.13949,0.23248 -0.37196,0.23248 -0.55795,0.27897c-0.23248,0 -0.51145,0.09299 -0.74386,0.13949c0.2324,-0.46496 0.74386,-0.41846 1.16232,-0.65094c0.0465,0.09299 0.09299,0.13949 0.13949,0.23248z" fill="#2b230e"/><path d="M242.41479,184.38576v0c-0.32547,0.41846 -0.79042,0.27897 -1.20889,0.41846c0.0465,-0.13949 0.0465,-0.27897 0.0465,-0.46496c0.23248,-0.23248 0.74393,0 0.83692,-0.51145c-0.13949,-0.41846 -0.27897,-0.83692 -0.41846,-1.20889c0.65094,-0.23248 1.25538,-0.41846 1.90632,-0.65094c0.0465,0.09299 0.0465,0.09299 0.0465,0.09299c-0.0465,0.37196 -0.46496,0.27897 -0.69743,0.41846c-0.18598,0.13949 -0.55795,0 -0.55795,0.41846c0.0465,0.37196 0.37196,0.37196 0.69743,0.37196c-0.09299,0.41846 -0.37196,0.79042 -0.65094,1.11589z" fill="#2b230e"/><path d="M245.15803,184.01379v0c-0.41846,0.37196 -0.92991,0.37196 -1.39487,0.51145c-0.41846,-0.51145 -0.0465,-0.83692 0.32547,-1.11589h-0.0465c0.18598,-0.0465 0.32547,-0.09299 0.51145,-0.13949c0.37196,0.13949 0.41846,0.51145 0.60444,0.74393z" fill="#c78571"/><path d="M243.06573,183.26986v0c-0.32547,0 -0.65094,0 -0.69743,-0.37196c0,-0.41846 0.37196,-0.27897 0.55795,-0.41846c0.23248,-0.13949 0.65094,-0.0465 0.69743,-0.41846c0,-0.0465 0.0465,-0.0465 0.09299,-0.0465c0.0465,0.27897 0.13949,0.55795 0.18598,0.83692c-0.18598,-0.09299 -0.46496,-0.32547 -0.55795,0.09299c-0.09299,0.09299 -0.18598,0.18598 -0.27897,0.32547z" fill="#751f06"/><path d="M243.99564,185.82712v0c-0.18598,0.18598 -0.46496,0 -0.69743,0.09299c-0.37196,-0.65094 -0.27897,-0.88342 0.32547,-1.11589c0.18598,0.27897 0.32547,0.65094 0.37196,1.0229z" fill="#7e5808"/><path d="M243.3447,182.94439v0c0.09299,-0.41846 0.37196,-0.18598 0.55795,-0.09299c0.09299,0.13949 0.18598,0.32547 0.13949,0.55795h0.0465c-0.37196,0.0465 -0.60444,-0.13949 -0.74393,-0.46496z" fill="#7e5808"/><path d="M252.27177,178.38783v0c0.13949,0.32547 0.09299,0.55795 -0.23248,0.69743c-0.41839,0.13949 -0.79035,0.27897 -1.20881,0.41846c-0.13949,0 -0.27897,0 -0.37196,0c-0.09299,-0.0465 -0.23248,-0.13949 -0.32547,-0.13949c0.09299,-0.13949 0.09299,-0.27897 0.13949,-0.41846c0.41846,0 0.79042,0 1.0694,-0.32547c0.32547,-0.09299 0.60437,-0.13949 0.92984,-0.23248z" fill="#63b504"/><path d="M245.15803,184.01379v0c-0.18598,-0.23248 -0.23248,-0.60444 -0.60444,-0.74393c0.23248,-0.37196 0.65094,-0.41846 1.0694,-0.51145c0.37196,-0.09299 0.41846,-0.27897 0.32547,-0.55795c0.18598,-0.0465 0.37196,-0.13949 0.60444,-0.13949c0,0.27897 0.27897,0.65094 -0.27897,0.74393c-0.13949,0.0465 -0.13949,0.18598 -0.13949,0.32547c0,0.32547 -0.41846,0.41846 -0.41846,0.79042c-0.18598,0.0465 -0.37196,0.13949 -0.55795,0.09299z" fill="#4b0707"/><path d="M245.71598,183.9208v0c0,-0.37196 0.41846,-0.46496 0.41846,-0.79042c0.27897,-0.09299 0.41846,0.13949 0.55795,0.27897c0.0465,0.18598 0.27897,0.13949 0.41846,0.18598c0.09299,0.09299 0.23248,0.23248 0.46496,0.09299c0.18598,-0.18598 -0.09299,-0.27897 -0.09299,-0.46496c0,-0.09299 0,-0.18598 0,-0.27897c0.41846,0.46496 0.55795,1.0694 0.74393,1.67384c-0.0465,0.0465 -0.0465,0.0465 -0.0465,0.0465c-0.13949,-0.0465 -0.27897,-0.09299 -0.41846,-0.13949c-0.23248,-0.51145 -0.65094,-0.46496 -1.11589,-0.32547c-0.18598,-0.09299 -0.37196,-0.09299 -0.60444,-0.0465c-0.09299,-0.13949 -0.18598,-0.23248 -0.32547,-0.23248z" fill="#7e5808"/><path d="M246.04145,184.15328v0c0.23248,-0.0465 0.41846,-0.0465 0.60444,0.0465c0.09299,0.23248 0.18598,0.46496 0.32547,0.69743c-0.13949,0.32547 -0.41846,0.32547 -0.69743,0.18598c0.0465,-0.32547 -0.18598,-0.60444 -0.23248,-0.92991z" fill="#091007"/><path d="M249.34263,180.34064v0c0.32547,-0.18598 0.83692,-0.18598 0.60444,-0.83692c-0.09299,-0.09299 0.13949,-0.13949 0.18598,-0.13949c0.09299,0 0.23248,0.09299 0.32547,0.13949c-0.13949,0.60444 0.55795,0.79042 0.65094,1.25538c-0.88342,0.37196 -0.83692,0.41846 -0.46496,1.25538c0.23248,0.46496 0.65094,-0.09299 0.92991,0.18598c-0.0465,0.27897 -0.55795,0.27897 -0.46496,0.60444c-0.0465,0.09299 -0.09299,0.13949 -0.13949,0.18598h0.0465c-0.41846,0 -0.51145,-0.23248 -0.60444,-0.51145c-0.09299,-0.27897 -0.18598,-0.55795 -0.55795,-0.60444c-0.18598,-0.41846 0.41846,-0.74393 0.09299,-1.16239c0.09299,-0.69743 -0.41846,-0.09299 -0.60444,-0.27897c-0.0465,0 -0.0465,-0.0465 0,-0.09299z" fill="#751f06"/><path d="M251.10947,180.7591v0c-0.09299,-0.46496 -0.79042,-0.65094 -0.65094,-1.25538c0.09299,0 0.23248,0 0.37196,0c0.13949,0.23248 0.37196,0.13949 0.60444,0.13949c-0.09299,0.23248 0,0.37196 0.09299,0.51145c0.0465,0.18598 0.09299,0.32547 0.13949,0.46496c-0.13949,0.23248 -0.37196,0.13949 -0.55795,0.13949z" fill="#3e621b"/><path d="M251.15596,182.8979v0c-0.09299,0.0465 -0.13949,0.09299 -0.18598,0.09299c0.0465,-0.0465 0.09299,-0.09299 0.13949,-0.18598c0,0.0465 0,0.09299 0.0465,0.09299z" fill="#2b230e"/><path d="M242.08932,183.82781v0c-0.09299,0.51145 -0.60444,0.27897 -0.83692,0.51145c-0.41846,0.13949 -0.88342,0.18598 -1.20889,0.55795c-0.27897,0.32547 -0.65094,0.09299 -0.97641,0.13949c0.0465,-0.23248 0.51145,-0.23248 0.32547,-0.65094c-0.09299,-0.13949 0.18598,-0.27897 0.37196,-0.27897c0.37196,-0.09299 -0.09299,-0.18598 0,-0.27897c0,-0.09299 0.09299,-0.18598 0.13949,-0.27897c0,-0.0465 0,-0.09299 0,-0.13949c0.27897,0.79042 0.74393,0.97641 1.48786,0.55795c0.23248,-0.09299 0.46496,-0.09299 0.69743,-0.13949z" fill="#756f76"/><path d="M246.97136,184.89721v0c-0.13949,-0.23248 -0.23248,-0.46496 -0.32547,-0.69743c0.46496,-0.13949 0.88342,-0.18598 1.11589,0.32547c0,0.27897 -0.13949,0.41846 -0.37196,0.51145c-0.13949,0 -0.27897,-0.09299 -0.41846,-0.13949z" fill="#2b230e"/><path d="M251.52793,180.15466v0c-0.09299,-0.13949 -0.18598,-0.27897 -0.09299,-0.51145c0.09299,-0.0465 0.23248,-0.13949 0.41846,-0.13949c0.41839,0.46496 -0.09299,0.51145 -0.32547,0.65094z" fill="#63b504"/><path d="M249.85409,184.47875v0c-0.55795,0.27897 -1.0229,0.69743 -1.67384,0.69743c0,-0.13949 0,-0.32547 0,-0.51145c0,0 0,0 0.0465,-0.0465c0.60444,0.13949 1.0229,-0.27897 1.58085,-0.27897c0,0.0465 0.0465,0.09299 0.0465,0.13949z" fill="#7e5808"/><path d="M239.90403,183.40935v0c-0.09299,-0.27897 0.09299,-0.41846 0.32547,-0.46496c0.41846,-0.13949 0.83692,-0.27897 1.25538,-0.41846c0.0465,0.0465 0.09299,0.0465 0.18598,0.09299c0.13949,0.37196 0.27897,0.79042 0.41846,1.20889c-0.23248,0.0465 -0.46496,0.0465 -0.69743,0.13949c-0.74393,0.41846 -1.20889,0.23248 -1.48786,-0.55795z" fill="#c78571"/><path d="M243.71667,182.01448v0c0.51145,-0.09299 0.51145,-0.74393 0.97641,-0.97641c0.23248,-0.0465 0.46496,-0.18598 0.74393,-0.09299c0.0465,0.0465 0.0465,0.18598 0.09299,0.23248c0.09299,0.37196 0.18598,0.69743 0.41846,1.0229c0.09299,0.27897 0.0465,0.46496 -0.32547,0.55795c-0.41846,0.09299 -0.83692,0.13949 -1.0694,0.51145c-0.18598,0.0465 -0.32547,0.09299 -0.51145,0.13949c0.0465,-0.23248 -0.0465,-0.41846 -0.13949,-0.55795c-0.0465,-0.27897 -0.13949,-0.55795 -0.18598,-0.83692z" fill="#c40701"/><path d="M245.94846,182.20047v0c-0.23248,-0.32547 -0.32547,-0.65094 -0.41846,-1.0229c0.32547,-0.13949 0.65094,-0.23248 0.69743,-0.65094c0.09299,-0.18598 0.27897,-0.18598 0.46496,-0.18598c0,0.23248 -0.09299,0.41846 0.13949,0.60444c0,0.09299 0,0.23248 0.0465,0.32547c0,0.13949 0.0465,0.27897 0.0465,0.37196c-0.09299,0.13949 -0.13949,0.37196 -0.37196,0.41846c-0.23248,0 -0.41846,0.09299 -0.60444,0.13949z" fill="#2b230e"/><path d="M246.5529,182.06098v0c0.23248,-0.0465 0.27897,-0.27897 0.37196,-0.41846c0.23248,0.37196 0.46496,0.74393 0.41846,1.25538c-0.23248,0.09299 -0.37196,0.41846 -0.65094,0.51145c-0.13949,-0.13949 -0.27897,-0.37196 -0.55795,-0.27897c0,-0.13949 0,-0.27897 0.13949,-0.32547c0.55795,-0.09299 0.27897,-0.46496 0.27897,-0.74393z" fill="#c40701"/><path d="M247.34332,182.8979v0c0.0465,-0.51145 -0.18598,-0.88342 -0.41846,-1.25538c0,-0.09299 -0.0465,-0.23248 -0.0465,-0.32547c0.23248,-0.0465 0.37196,-0.13949 0.60444,-0.18598c0.37196,0 0.79042,-0.46496 1.11589,0.0465c0.37196,0.97641 0.74393,1.90632 1.20889,2.78973c0,0.13949 0,0.27897 0,0.37196c-0.55795,0 -0.97641,0.41846 -1.58085,0.27897c-0.18598,-0.60444 -0.32547,-1.20889 -0.74393,-1.67384c-0.0465,0 -0.09299,-0.0465 -0.13949,-0.0465z" fill="#ca7323"/><path d="M247.34332,182.8979v0c0.0465,0 0.09299,0.0465 0.13949,0.0465c0,0.09299 0,0.18598 0,0.27897c0,0.18598 0.27897,0.27897 0.09299,0.46496c-0.23248,0.13949 -0.37196,0 -0.46496,-0.09299c-0.13949,-0.0465 -0.37196,0 -0.41846,-0.18598c0.27897,-0.09299 0.41846,-0.41846 0.65094,-0.51145z" fill="#fefefe"/><path d="M248.5987,181.17756v0c-0.32547,-0.51145 -0.74393,-0.0465 -1.11589,-0.0465c-0.23248,-0.0465 -0.41846,-0.13949 -0.65094,-0.18598c-0.23248,-0.18598 -0.13949,-0.37196 -0.13949,-0.60444c0,-0.09299 0.09299,-0.18598 0.13949,-0.27897c0.37196,-0.32547 0.83692,-0.55795 1.39487,-0.46496c0.09299,0.13949 0.32547,0.23248 0.37196,0.41846c0.09299,0.46496 0.41846,0.41846 0.74393,0.32547c-0.0465,0.0465 -0.0465,0.09299 0,0.09299c-0.23248,0.27897 -0.23248,0.83692 -0.74393,0.74393z" fill="#087200"/><path d="M248.22674,179.59671v0c-0.55795,-0.09299 -1.0229,0.13949 -1.39487,0.46496c-0.65094,-0.0465 -1.20889,0.27897 -1.81333,0.41846c0,-0.0465 0,-0.09299 0,-0.13949c0.09299,-0.23248 0.18598,-0.46496 0.32547,-0.69743c0,-0.09299 0.0465,-0.13949 0.09299,-0.23248c0.27897,-0.0465 0.27897,-0.32547 0.46496,-0.46496c0.32547,-0.0465 0.65094,-0.13949 0.92991,-0.13949c0.27897,-0.0465 0.41846,0.09299 0.60444,0.27897c0.18598,0.18598 0.27897,0.0465 0.41846,-0.09299c0.18598,0.18598 0.27897,0.37196 0.37196,0.60444z" fill="#751f06"/><path d="M246.83186,178.80629v0c0,-0.13949 0,-0.18598 0,-0.27897c0.32547,0.13949 0.83692,-0.0465 1.0229,0.46496c-0.13949,0.13949 -0.23248,0.27897 -0.41846,0.09299c-0.18598,-0.18598 -0.32547,-0.32547 -0.60444,-0.27897z" fill="#c78571"/><path d="M248.5987,181.17756v0c0.51145,0.09299 0.51145,-0.46496 0.74393,-0.74393c0.18598,0.18598 0.69743,-0.41846 0.60444,0.27897c-0.13949,0.13949 -0.27897,0.27897 -0.41846,0.41846c-0.32547,0.41846 -0.23248,0.60444 0.32547,0.74393c0.37196,0.0465 0.46496,0.32547 0.55795,0.60444c0.09299,0.27897 0.18598,0.51145 0.60444,0.51145c-0.23248,0.41846 -0.41846,0.83692 -0.65094,1.25538c-0.18598,0 -0.32547,-0.23248 -0.55795,-0.27897c-0.46496,-0.88342 -0.83692,-1.81333 -1.20889,-2.78973z" fill="#2b230e"/><path d="M249.85409,181.875v0c-0.55795,-0.13949 -0.65094,-0.32547 -0.32547,-0.74393c0.13949,-0.13949 0.27897,-0.27897 0.41846,-0.41846c0.32547,0.41846 -0.27897,0.74393 -0.09299,1.16239z" fill="#7e5808"/><path d="M245.85546,178.38783v0c0.09299,0 0.13949,0 0.27897,0.0465c-0.09299,0.18598 -0.13949,0.37196 -0.23248,0.51145c-0.18598,0.13949 -0.18598,0.41846 -0.46496,0.46496c-0.55795,-0.13949 -1.0229,0.13949 -1.53435,0.23248c-0.0465,0 -0.0465,0 -0.0465,0c0.09299,-0.23248 0.09299,-0.46496 0.18598,-0.69743c0.09299,0 0.18598,0 0.23248,-0.0465c0.37196,0.0465 0.65094,-0.18598 1.0229,-0.23248c0.18598,0 0.41846,-0.09299 0.55795,-0.27897z" fill="#ca7323"/><path d="M245.34401,179.64321v0c-0.13949,0.23248 -0.23248,0.46496 -0.32547,0.69743c-0.51145,0.09299 -1.0229,-0.23248 -1.53435,-0.13949c0,-0.27897 0.09299,-0.51145 0.37196,-0.55795h0.0465c0.46496,0.27897 0.92991,-0.13949 1.44136,0z" fill="#ca7323"/><path d="M243.48419,180.20116v0c0.51145,-0.09299 1.0229,0.23248 1.53435,0.13949c0,0.0465 0,0.09299 0,0.13949c-0.09299,0.0465 -0.13949,0.09299 -0.23248,0.13949c-0.41846,-0.0465 -0.74393,0.09299 -1.11589,0.23248c-0.23248,0 -0.41846,0.09299 -0.46496,-0.23248c0.09299,-0.13949 0.18598,-0.27897 0.27897,-0.41846z" fill="#7e5808"/><path d="M244.04214,178.80629v0c0,0.0465 0,0.13949 0,0.13949c-0.18598,0.13949 -0.37196,0.27897 -0.55795,0.37196c-0.13949,0.0465 -0.27897,0.09299 -0.32547,-0.09299c-0.09299,-0.13949 0,-0.27897 0.13949,-0.32547c0.18598,-0.09299 0.41846,-0.13949 0.60444,-0.23248v0c0.0465,0.0465 0.0465,0.13949 0.13949,0.13949z" fill="#ca7323"/><path d="M244.78607,180.61962v0c0.09299,-0.0465 0.13949,-0.09299 0.23248,-0.13949c0.60444,-0.13949 1.16239,-0.46496 1.81333,-0.41846c-0.0465,0.09299 -0.13949,0.18598 -0.13949,0.27897c-0.18598,0 -0.37196,0 -0.46496,0.18598c-0.37196,-0.09299 -0.60444,0.18598 -0.79042,0.41846c-0.27897,-0.09299 -0.51145,0.0465 -0.74393,0.09299c0.0465,-0.13949 0.09299,-0.27897 0.09299,-0.41846z" fill="#4b0707"/><path d="M245.437,180.94508v0c0.18598,-0.23248 0.41846,-0.51145 0.79042,-0.41846c-0.0465,0.41846 -0.37196,0.51145 -0.69743,0.65094c-0.0465,-0.0465 -0.0465,-0.18598 -0.09299,-0.23248z" fill="#751f06"/><path d="M246.83186,180.94508v0c0.23248,0.0465 0.41846,0.13949 0.65094,0.18598c-0.23248,0.0465 -0.37196,0.13949 -0.60444,0.18598c-0.0465,-0.13949 -0.0465,-0.27897 -0.0465,-0.37196z" fill="#c40701"/><path d="M245.34401,179.64321v0c-0.51145,-0.13949 -0.97641,0.27897 -1.44136,0c0.51145,-0.09299 0.97641,-0.37196 1.53435,-0.23248c-0.0465,0.09299 -0.09299,0.13949 -0.09299,0.23248z" fill="#7e5808"/><path d="M245.85546,178.38783v0c-0.13949,0.18598 -0.37196,0.27897 -0.55795,0.27897c-0.18598,-0.27897 -0.65094,0.0465 -0.69743,-0.41846c0.0465,-0.13949 0.09299,-0.23248 0.32547,-0.13949c0.27897,0.09299 0.60444,0.18598 0.92991,0.27897z" fill="#7e5808"/><path d="M244.60008,178.24834v0c0.0465,0.46496 0.51145,0.13949 0.69743,0.41846c-0.37196,0.0465 -0.65094,0.27897 -1.0229,0.23248c0.0465,-0.23248 0.0465,-0.51145 0.32547,-0.65094z" fill="#3e621b"/><path d="M243.90265,178.6668c0.0465,0.0465 0.0465,0.13949 0.13949,0.13949v0c-0.09299,0 -0.09299,-0.09299 -0.13949,-0.13949z" fill="#751f06"/></g><path d="M251.0337,184.36245c-0.24723,1.95349 1.56316,3.50902 0.65565,5.09941c-0.08862,0.15529 -2.32129,0.66978 -2.46597,0.7721c-1.11914,0.79134 -0.70142,4.82085 -2.13001,4.82724c-0.66044,0.00297 -2.77915,-2.92788 -3.4317,-2.8362c-0.13339,-0.42143 0.14376,-0.59049 0.29218,-0.81228c0.4613,-0.68913 -3.88084,-0.01905 -3.4525,-0.74259c0.3713,-0.62714 5.17924,-1.98323 4.50135,-2.21811c-0.87565,-0.30337 -1.75538,-0.57881 -2.62701,-0.90867c-0.23094,-0.08742 -0.5774,-0.18037 -0.2919,-0.62984c0.788,-0.63763 1.68331,-1.04014 2.52786,-1.55246c0.3384,-0.20529 1.24984,-3.06402 1.59205,-3.25942c5.91149,-1.57777 2.48006,1.89133 4.0871,1.93898c0.26681,0.00792 0.5399,-0.01024 0.74278,0.32184z" data-paper-data="{&quot;index&quot;:null}" fill="#262626" stroke-width="1"/><path d="M237.41053,179.69827c-0.15397,-0.41503 -0.7059,0.75865 -1.00522,0.49084c-0.32762,-0.29314 -0.39656,-2.02634 -0.37971,-2.47661c0.00315,-0.08413 0.82301,-0.78543 0.86112,-0.85967c0.29472,-0.57421 -0.75774,-2.16522 -0.16279,-2.47919c0.27504,-0.14516 1.79813,0.61657 2.05054,0.4361c0.14752,0.14685 0.06867,0.27782 0.05505,0.40274c-0.04239,0.38819 1.62413,-0.83774 1.603,-0.44237c-0.01833,0.3427 2.02595,1.71446 2.36011,1.66479c0.43163,-0.06418 -2.89687,0.10112 -2.46114,0.04887c0.11545,-0.01383 0.28033,-0.05053 0.2591,0.1993c-0.18998,0.43788 -0.476,0.80101 -0.7169,1.1989c-0.09653,0.15944 0.14597,1.55137 0.0457,1.70751c-2.12381,1.94681 -1.4474,-0.24906 -2.12861,0.08125c-0.1131,0.05483 -0.22314,0.12193 -0.38019,0.02752z" data-paper-data="{&quot;index&quot;:null}" fill="#5a5a5a" stroke-width="1"/><path d="M230.71529,183.73101c0.63683,-0.49821 -1.71187,-0.80751 -1.41189,-1.47698c0.32835,-0.73278 3.30627,-1.81437 4.09919,-2.03486c0.14816,-0.04119 1.82345,0.99646 1.97379,1.02158c1.16277,0.1943 3.34757,-2.51996 4.22403,-1.65882c0.40521,0.3981 -0.07532,3.47124 0.37878,3.81037c-0.1737,0.33819 -0.44537,0.27363 -0.67032,0.31924c-0.69906,0.1416 2.35897,2.36156 1.65921,2.54414c-0.60654,0.15824 -1.85951,4.47685 -1.58767,5.03079c0.35116,0.71552 -1.78322,-4.98512 -1.45055,-4.25583c0.08812,0.19324 0.24347,0.4598 -0.20308,0.56147c-0.86742,-0.08766 -1.65803,-0.38393 -2.48411,-0.58239c-0.33101,-0.07952 -2.61875,1.11476 -2.9461,1.02691c-4.56624,-2.61578 -0.36963,-2.65698 -1.3224,-3.65919c-0.15817,-0.1664 -0.33599,-0.32067 -0.25883,-0.64635z" data-paper-data="{&quot;index&quot;:null}" fill="#5a5a5a" stroke-width="1"/><path d="M252.53822,192.51095c-0.68533,-0.19438 -1.26773,-0.64867 -1.62314,-1.26606c-0.25386,-0.43538 -0.40158,-0.95238 0.45394,-0.91678c0.4293,0.01788 0.91831,-0.13423 1.27809,0.02359c0.74274,0.32579 1.53057,0.90553 1.40344,1.74576c-0.09275,0.61309 -0.8948,0.71289 -1.5123,0.41346z" data-paper-data="{&quot;index&quot;:null}" fill="#312a22" stroke-width="1"/><path d="M239.22089,182.31548c-0.34911,0.27346 -0.61305,0.23252 -0.8915,-0.04767c-0.71675,-0.72117 -1.01363,-1.6682 -1.42639,-2.55363c-0.09726,-0.20861 -0.17522,-0.42228 -0.46776,-0.40027c-0.08921,0.0117 -0.174,-0.04214 -0.20138,-0.12784c-0.28751,-0.71 -0.64371,-1.38951 -0.90473,-2.11285c-0.13653,-0.37834 -0.0664,-0.63395 0.24821,-0.85021c0.05187,-0.06751 0.12988,-0.06613 0.16112,-0.006c0.14343,0.27612 0.31255,0.54389 0.3652,0.83048c0.12756,-0.24239 0.19969,-0.55221 0.34805,-0.82865c0.05038,-0.09386 0.06147,-0.24632 0.23398,-0.21127c0.11979,0.11352 0.11353,0.26959 0.1471,0.41517c0.19749,0.85689 0.32445,1.72852 0.37962,2.60615c0.19748,-0.20956 0.17878,-0.50669 0.42103,-0.63018c0.17394,0.00952 0.19094,0.15562 0.22822,0.27398c0.07645,0.23669 0.14091,0.47709 0.1932,0.72028c0.05254,0.29152 0.24553,0.53837 0.51581,0.65964c0.21964,0.11117 0.45168,0.20813 0.64839,0.3635c0.07402,0.10694 0.10388,0.23832 0.0834,0.36674c-0.03591,0.51045 0.03054,1.02628 -0.08154,1.53267z" fill="#000000" stroke-width="1"/><path d="M230.80234,195.54929c-0.6175,0.62428 -1.41955,0.41621 -1.5123,-0.86202c-0.12713,-1.7518 0.6607,-2.9605 1.40344,-3.63974c0.35978,-0.32904 0.84879,-0.0119 1.27809,-0.04918c0.85552,-0.07422 0.7078,1.00367 0.45394,1.91139c-0.35541,1.2872 -0.93781,2.23435 -1.62314,2.63961z" data-paper-data="{&quot;index&quot;:null}" fill="#312a22" stroke-width="1"/></g></g></svg>