<svg version="1.1" xmlns="http://www.w3.org/2000/svg" xmlns:xlink="http://www.w3.org/1999/xlink" width="305.75675" height="74.97484" viewBox="0,0,305.75675,74.97484"><g transform="translate(-87.12163,-142.51258)"><g data-paper-data="{&quot;isPaintingLayer&quot;:true}" fill-rule="nonzero" stroke="none" stroke-linecap="butt" stroke-linejoin="miter" stroke-miterlimit="10" stroke-dasharray="" stroke-dashoffset="0" style="mix-blend-mode: normal"><path d="M87.12164,217.48742v-74.97484h305.75675v74.97484z" fill="#000000" stroke-width="0"/><path d="M170.71377,170.26965c0,-0.28137 -0.01013,-0.75914 -0.03041,-1.43333c-0.02007,-0.67353 -0.03003,-1.03073 -0.02989,-1.07157h2.80093v0.90392c0.28468,-0.38701 0.67371,-0.68491 1.12156,-0.85883c0.47788,-0.18425 0.9864,-0.27607 1.49853,-0.27058c0.43753,-0.01542 0.86904,0.1055 1.23482,0.34607c0.33607,0.27187 0.63039,0.59163 0.87353,0.94903c0.30479,-0.40428 0.69085,-0.74024 1.13333,-0.98629c0.45594,-0.21927 0.95806,-0.3252 1.46371,-0.30881c0.22702,-0.00349 0.45367,0.01921 0.67549,0.06764c0.68638,0.18196 1.26095,0.65112 1.57648,1.28726c0.15087,0.45604 0.21716,0.93581 0.19558,1.41567v2.5451c0,0.33138 0.01259,0.75556 0.03775,1.27255c0.02499,0.51668 0.03742,0.81538 0.03725,0.89607h-2.81566v-3.96078c0.00151,-0.31659 -0.09887,-0.62527 -0.28627,-0.88044c-0.16587,-0.25352 -0.45,-0.40448 -0.75294,-0.40001c-0.46977,0.00496 -0.87185,0.33831 -0.96376,0.79902c-0.13429,0.44905 -0.19537,0.91682 -0.18088,1.3853v1.02352c0,0.22158 0.01519,0.55196 0.04559,0.99412c0.0299,0.44216 0.04493,0.77353 0.0451,0.99411h-2.81614v-3.949c-0.0002,-0.31119 -0.10635,-0.61305 -0.30098,-0.85589c-0.17184,-0.24577 -0.45306,-0.39187 -0.75294,-0.39118c-0.41977,-0.00878 -0.79457,0.26162 -0.91859,0.66276c-0.14245,0.39033 -0.209,0.80429 -0.19607,1.2196v1.82254l0.04559,1.53627h-2.80093c0,-0.44313 0.00997,-1.18496 0.02989,-2.22548c0.02007,-1.04117 0.03022,-1.59705 0.0304,-1.66764z" fill="#ffffff" stroke-width="1"/><path d="M189.79315,167.7353l2.83088,-0.01569c-0.0299,0.26177 -0.05049,0.53725 -0.0603,0.82843c-0.00981,0.29118 -0.01519,0.62256 -0.01519,0.99412c0,0.63236 0.01013,1.67125 0.03039,3.11667c0.02007,1.44607 0.03005,2.21405 0.02991,2.30391h-2.86074l0.0451,-0.58729c-0.32432,0.26056 -0.68563,0.47135 -1.07206,0.62544c-1.30539,0.47559 -2.76788,0.15908 -3.7598,-0.81372c-0.63703,-0.75249 -0.96591,-1.71806 -0.9206,-2.70294c-0.03895,-1.01554 0.2809,-2.01237 0.90344,-2.81568c0.64464,-0.79477 1.62821,-1.23643 2.65049,-1.1902c0.40395,-0.00152 0.80384,0.08059 1.1745,0.24117c0.36996,0.16707 0.71465,0.38521 1.024,0.64804zM188.49809,172.95981c0.41542,0.01582 0.81605,-0.15545 1.09167,-0.46667c0.27952,-0.32007 0.42751,-0.73409 0.41422,-1.15882c0.01352,-0.40577 -0.13254,-0.80068 -0.40686,-1.09999c-0.2764,-0.29335 -0.66639,-0.45249 -1.06911,-0.43628c-0.43295,-0.01497 -0.85367,0.14512 -1.16716,0.44412c-0.60088,0.64604 -0.6138,1.64248 -0.02991,2.30391c0.31822,0.28817 0.73844,0.43716 1.16711,0.41377z" fill="#ffffff" stroke-width="1"/><path d="M199.3701,170.3706c-0.21388,-0.17083 -0.44922,-0.31289 -0.7,-0.42255c-0.23081,-0.09891 -0.47929,-0.14994 -0.73038,-0.15c-0.39838,0.0114 -0.77547,0.18237 -1.04658,0.47451c-0.30041,0.26004 -0.47789,0.63422 -0.4892,1.03138v0.13529c0.03668,0.40034 0.20632,0.77689 0.48189,1.0696c0.31707,0.24558 0.71447,0.36378 1.1142,0.33138c0.29545,-0.01423 0.58604,-0.08061 0.85836,-0.19608c0.1706,-0.06079 0.34118,-0.1255 0.51176,-0.19608v2.28921c-0.31215,0.14751 -0.63721,0.26599 -0.97108,0.35392c-1.3117,0.33352 -2.70359,0.00435 -3.72696,-0.88138c-0.74895,-0.69244 -1.16095,-1.67557 -1.12941,-2.69509c-0.03863,-1.07347 0.35457,-2.11766 1.09166,-2.89902c0.74234,-0.76422 1.77409,-1.17754 2.83873,-1.13726c0.31687,0.0044 0.63237,0.04253 0.94117,0.11372c0.32681,0.06874 0.64674,0.16685 0.95588,0.29314z" fill="#ffffff" stroke-width="1"/><path d="M201.68922,164.07554c0.39318,-0.00746 0.77194,0.14795 1.04657,0.42942c0.28322,0.27966 0.43841,0.66384 0.42891,1.06176c0.01187,0.39332 -0.14745,0.77244 -0.43671,1.03922c-0.28463,0.26806 -0.66302,0.41378 -1.05392,0.40589c-0.38686,0.00979 -0.7614,-0.13649 -1.03921,-0.40589c-0.27901,-0.26657 -0.43217,-0.63877 -0.42157,-1.02451c-0.00231,-0.39579 0.15516,-0.77578 0.43676,-1.05392c0.26697,-0.29071 0.64449,-0.45489 1.03916,-0.45197zM200.30344,167.76476h2.78627v7.2588h-2.83137l0.0451,-3.78038z" fill="#ffffff" stroke-width="1"/><path d="M208.34509,167.47848c1.1076,-0.04462 2.19545,0.30289 3.07206,0.98137c0.86508,0.70689 1.34525,1.78101 1.29506,2.89705c0.0614,1.12771 -0.41302,2.21827 -1.2799,2.94216c-0.8993,0.67783 -2.00751,1.01947 -3.13236,0.96568c-1.10607,0.05104 -2.19762,-0.26768 -3.10244,-0.90587c-0.88652,-0.67928 -1.382,-1.75129 -1.325,-2.86667c-0.04663,-1.14337 0.44348,-2.24289 1.325,-2.97255c0.89016,-0.71371 2.00741,-1.08328 3.14758,-1.04117zM208.3,173.00593c0.43556,0.01936 0.85734,-0.15509 1.15196,-0.47647c0.29128,-0.33154 0.44473,-0.76191 0.42892,-1.20294c0.01445,-0.41737 -0.14351,-0.82228 -0.43676,-1.11961c-0.63637,-0.59982 -1.63482,-0.5833 -2.25099,0.03725c-0.30045,0.30346 -0.46603,0.71517 -0.45931,1.14217c-0.01384,0.42717 0.14012,0.84278 0.42892,1.15784c0.29433,0.31135 0.70919,0.47978 1.13726,0.46173z" fill="#ffffff" stroke-width="1"/><path d="M217.01859,164.37652h3.49365c-1.024,1.08429 -1.541,1.63136 -1.55098,1.64118c-0.51176,0.56276 -0.99869,1.14511 -1.46078,1.74706c0.31064,-0.07657 0.6291,-0.11703 0.94902,-0.12059c0.93823,-0.03509 1.84618,0.33532 2.49215,1.01666c0.6448,0.69634 0.98853,1.61915 0.95638,2.56765c0.03887,1.13704 -0.44366,2.22957 -1.31029,2.96667c-0.87264,0.7269 -1.98209,1.10759 -3.11718,1.0696c-1.10781,0.05089 -2.20048,-0.27268 -3.10195,-0.91858c-0.87859,-0.68215 -1.36794,-1.75095 -1.31029,-2.86176c0.00341,-0.92974 0.20356,-1.84824 0.58729,-2.6951c0.39332,-0.84413 0.89436,-1.63371 1.49063,-2.34905c0.5908,-0.72047 1.21911,-1.40933 1.88235,-2.06372zM215.84409,171.42455c-0.00985,0.39932 0.16197,0.78153 0.46717,1.03921c0.30779,0.2695 0.70519,0.41427 1.11421,0.40589c0.43147,0.01621 0.84977,-0.1504 1.15196,-0.45879c0.301,-0.31836 0.4611,-0.74456 0.44413,-1.18235c0.0174,-0.4193 -0.1472,-0.82568 -0.45148,-1.1147c-0.31672,-0.28657 -0.73298,-0.43788 -1.1598,-0.42157c-0.43771,-0.01934 -0.85993,0.16401 -1.14461,0.49706c-0.28636,0.34662 -0.43628,0.78588 -0.42157,1.23525z" fill="#ffffff" stroke-width="1"/><path d="M227.15292,164.37652h3.01716c2.17255,0 3.59574,0.30066 4.2696,0.90196c0.68066,0.69791 1.02231,1.65842 0.93529,2.62941c0.11177,1.10258 -0.34839,2.18567 -1.21962,2.8706c-0.95737,0.53859 -2.05187,0.78404 -3.14755,0.70587h-0.99363l-0.03038,1.14511c0,0.26077 0.01504,0.65718 0.0451,1.18921c0.0304,0.53235 0.04559,0.93398 0.04558,1.20489l-2.92156,-0.01569c0,-0.65098 0.00997,-1.72091 0.0299,-3.2098c0.02007,-1.4892 0.03021,-2.27875 0.03038,-2.36863zM230.42056,169.02945c0.437,0.02168 0.87458,-0.02899 1.29506,-0.14999c0.43361,-0.13939 0.71834,-0.55409 0.69264,-1.00884c0.01221,-0.34978 -0.17052,-0.6775 -0.47451,-0.85097c-0.32365,-0.19818 -0.697,-0.3002 -1.07646,-0.29415h-0.87353v2.30391z" fill="#ffffff" stroke-width="1"/><path d="M235.87203,167.78048h2.66568v0.87255c0.41668,-0.33341 0.87472,-0.61154 1.36274,-0.82745c0.33023,-0.12148 0.67952,-0.18289 1.03136,-0.18136c0.11155,0.00015 0.22272,0.01298 0.33138,0.03823c0.1103,0.02452 0.25098,0.06274 0.42157,0.11275l0.0152,2.52941c-0.24167,-0.08435 -0.48799,-0.15474 -0.73774,-0.21082c-0.21764,-0.04833 -0.43981,-0.07331 -0.66275,-0.07451c-0.55738,-0.05998 -1.09858,0.21043 -1.38529,0.69216c-0.22165,0.50703 -0.31977,1.05942 -0.28627,1.61177c0,0.30097 0.00997,0.81046 0.02991,1.52842c0.02007,0.71765 0.03021,1.10164 0.03038,1.15196h-2.81618c0,-0.36177 0.00752,-0.95654 0.02256,-1.78431c0.01519,-0.82843 0.02269,-1.27778 0.02255,-1.34803z" fill="#ffffff" stroke-width="1"/><path d="M246.12692,167.47848c1.1076,-0.04462 2.19545,0.30289 3.07205,0.98137c0.86508,0.70689 1.34525,1.78101 1.29506,2.89705c0.0614,1.12772 -0.41301,2.21827 -1.2799,2.94216c-0.89929,0.67783 -2.0075,1.01947 -3.13235,0.96568c-1.10607,0.05104 -2.19764,-0.26768 -3.10245,-0.90587c-0.88652,-0.67928 -1.382,-1.75129 -1.325,-2.86667c-0.04663,-1.14337 0.44348,-2.24289 1.325,-2.97255c0.89016,-0.71372 2.00742,-1.08329 3.14759,-1.04117zM246.08182,173.00593c0.43556,0.01936 0.85734,-0.15509 1.15196,-0.47647c0.29128,-0.33154 0.44473,-0.76191 0.42891,-1.20294c0.01445,-0.41737 -0.1435,-0.82228 -0.43676,-1.11961c-0.63637,-0.59982 -1.63482,-0.5833 -2.25098,0.03725c-0.30045,0.30346 -0.46603,0.71517 -0.45931,1.14217c-0.01384,0.42717 0.14012,0.84278 0.42891,1.15784c0.29433,0.31135 0.7092,0.47978 1.13726,0.46173z" fill="#ffffff" stroke-width="1"/><path d="M256.65289,163.75888h2.7407v11.24901h-2.7407v-0.63235c-0.28618,0.29102 -0.62972,0.5194 -1.00882,0.67063c-0.39429,0.14952 -0.81317,0.22367 -1.23482,0.21862c-0.98937,0.03778 -1.94037,-0.38515 -2.575,-1.1451c-0.62042,-0.76388 -0.9417,-1.72741 -0.90392,-2.71077c-0.0481,-1.03489 0.29309,-2.05027 0.95636,-2.84611c0.69389,-0.74687 1.68526,-1.14457 2.70295,-1.08432c0.74984,0.01188 1.47892,0.2482 2.09318,0.67844zM253.77642,171.45393c-0.00818,0.39264 0.15055,0.77032 0.43677,1.03922c0.28503,0.27881 0.67051,0.43079 1.06911,0.42157c0.4178,0.01682 0.82481,-0.13511 1.1294,-0.42157c0.2963,-0.29293 0.45495,-0.69747 0.43677,-1.11372c0.01186,-0.42069 -0.14221,-0.82917 -0.42892,-1.13726c-0.28528,-0.30585 -0.68884,-0.47349 -1.10686,-0.4598c-0.42645,-0.01919 -0.83877,0.15517 -1.12205,0.47451c-0.28218,0.33361 -0.42986,0.76044 -0.41422,1.19709z" fill="#ffffff" stroke-width="1"/><path d="M263.41416,167.76476v4.0549c-0.014,0.32334 0.07867,0.64232 0.26372,0.90784c0.19345,0.24375 0.49505,0.37591 0.80539,0.35294c0.37772,0.03214 0.74241,-0.14654 0.94853,-0.46471c0.17885,-0.33689 0.26224,-0.71624 0.24118,-1.09707c0,-0.57058 -0.00507,-1.03594 -0.0152,-1.39606c-0.04019,-1.43137 -0.0603,-2.21732 -0.0603,-2.35784h2.81618v4.22351c0.07508,0.98702 -0.3489,1.94609 -1.12941,2.5549c-0.83481,0.52846 -1.8147,0.7809 -2.80093,0.72157c-0.96376,0.06479 -1.92327,-0.17753 -2.7407,-0.69216c-0.7509,-0.61369 -1.15092,-1.55818 -1.06918,-2.52451l-0.09019,-4.28333z" fill="#ffffff" stroke-width="1"/><path d="M275.24993,170.3706c-0.21388,-0.17083 -0.44922,-0.31289 -0.7,-0.42255c-0.23082,-0.09891 -0.47929,-0.14994 -0.7304,-0.15c-0.39837,0.0114 -0.77547,0.18237 -1.04656,0.47451c-0.30041,0.26004 -0.47789,0.63422 -0.4892,1.03138v0.13529c0.03667,0.40034 0.20631,0.7769 0.48188,1.0696c0.31706,0.24559 0.71448,0.36378 1.11421,0.33138c0.29544,-0.01423 0.58604,-0.08061 0.85835,-0.19608c0.17059,-0.06079 0.34117,-0.1255 0.51176,-0.19608v2.28921c-0.31215,0.14751 -0.63722,0.26599 -0.97108,0.35392c-1.3117,0.33352 -2.70358,0.00435 -3.72695,-0.88138c-0.74896,-0.69244 -1.16095,-1.67557 -1.12941,-2.69509c-0.03863,-1.07347 0.35456,-2.11766 1.09166,-2.89902c0.74234,-0.76422 1.77409,-1.17755 2.83873,-1.13726c0.31687,0.0044 0.63237,0.04253 0.94117,0.11372c0.3268,0.06874 0.64673,0.16685 0.95588,0.29314z" fill="#ffffff" stroke-width="1"/><path d="M275.38571,167.7353h1.00882v-1.95784h2.74071v1.95784h1.49117v1.80686h-1.49123v5.4814h-2.7407v-5.4814h-1.00883z" fill="#ffffff" stroke-width="1"/><path d="M282.65924,164.07554c0.39317,-0.00745 0.77194,0.14795 1.04656,0.42942c0.28322,0.27966 0.43841,0.66384 0.42891,1.06176c0.01186,0.39333 -0.14749,0.77245 -0.43676,1.03922c-0.28462,0.26806 -0.66303,0.41378 -1.05392,0.40589c-0.38686,0.00979 -0.76141,-0.13649 -1.03922,-0.40589c-0.27901,-0.26657 -0.43216,-0.63877 -0.42157,-1.02451c-0.0023,-0.39579 0.15516,-0.77578 0.43676,-1.05392c0.26699,-0.29073 0.64452,-0.45491 1.03922,-0.45197zM281.27346,167.76476h2.78627v7.2588h-2.83138l0.04511,-3.78038z" fill="#ffffff" stroke-width="1"/><path d="M289.31511,167.47848c1.10745,-0.04463 2.19515,0.30288 3.07157,0.98137c0.86527,0.70675 1.34546,1.78097 1.29505,2.89705c0.06157,1.12763 -0.41266,2.2182 -1.2794,2.94216c-0.89934,0.67775 -2.00751,1.01938 -3.13236,0.96568c-1.10623,0.05111 -2.19796,-0.26762 -3.10294,-0.90587c-0.88621,-0.67947 -1.38148,-1.7514 -1.32452,-2.86667c-0.04658,-1.14326 0.44331,-2.24269 1.32452,-2.97255c0.8903,-0.71379 2.00775,-1.08336 3.14807,-1.04117zM289.27001,173.00593c0.43554,0.01926 0.85729,-0.15518 1.15196,-0.47647c0.29113,-0.33159 0.44441,-0.76197 0.42844,-1.20294c0.01463,-0.41731 -0.14315,-0.82223 -0.43628,-1.11961c-0.63637,-0.59983 -1.63482,-0.5833 -2.25098,0.03725c-0.30079,0.30329 -0.46655,0.71506 -0.45979,1.14217c-0.01391,0.42727 0.14027,0.84296 0.42942,1.15784c0.29427,0.31143 0.70916,0.47988 1.13724,0.46173z" fill="#ffffff" stroke-width="1"/><path d="M294.50921,171.63534c0,-0.58234 -0.0049,-1.05914 -0.01471,-1.43039c-0.04019,-1.46568 -0.06045,-2.26895 -0.06078,-2.4098h2.81667v0.81274c0.26148,-0.23925 0.53715,-0.46252 0.82549,-0.66861c0.4941,-0.31104 1.0682,-0.47118 1.65195,-0.4608c0.75489,-0.06424 1.49223,0.2515 1.96668,0.84215c0.4083,0.63932 0.60264,1.39194 0.5549,2.14902v2.07352c0,0.28044 0.01013,0.75134 0.03039,1.41275c0.01961,0.66176 0.0304,1.01765 0.0304,1.06764h-2.86176v-3.99116c0.01178,-0.32613 -0.09204,-0.64593 -0.29314,-0.90295c-0.206,-0.24586 -0.51603,-0.37997 -0.83627,-0.36176c-0.35206,-0.00522 -0.67627,0.19075 -0.83526,0.50491c-0.19455,0.33059 -0.29619,0.70759 -0.29415,1.09118c0,0.42157 0.01013,1.12189 0.03039,2.10098c0.01961,0.97843 0.02974,1.49804 0.03041,1.55882h-2.81667c0,-0.37156 0.01275,-0.93398 0.03824,-1.68725c0.0245,-0.75294 0.03692,-1.31993 0.03724,-1.70098z" fill="#ffffff" stroke-width="1"/><path d="M303.64941,172.43338c0.3513,0.19669 0.71551,0.36932 1.09019,0.51666c0.37142,0.14742 0.76617,0.22744 1.16569,0.23627c0.16964,-0.00756 0.33531,-0.05385 0.48431,-0.1353c0.18138,-0.09019 0.27222,-0.20033 0.27256,-0.33039c0,-0.1402 -0.5219,-0.37549 -1.56569,-0.70589c-0.93547,-0.19079 -1.59721,-1.0281 -1.56667,-1.98234c-0.03454,-0.71746 0.28674,-1.40585 0.85883,-1.84019c0.59607,-0.4427 1.32344,-0.67262 2.06568,-0.65294c0.89182,0.00343 1.77367,0.18787 2.59213,0.54211l-0.60197,2.03235c-0.26731,-0.12076 -0.54128,-0.22616 -0.8206,-0.31568c-0.27945,-0.09439 -0.57175,-0.14531 -0.86666,-0.15097c-0.13367,0.00068 -0.26383,0.0428 -0.37255,0.12059c-0.10631,0.06293 -0.17237,0.17648 -0.17452,0.3c0,0.15 0.52223,0.38041 1.56668,0.69119c0.96095,0.20126 1.62802,1.07801 1.56568,2.05783c0.0125,0.78981 -0.41783,1.52025 -1.1147,1.89216c-0.67742,0.38704 -1.44859,0.57941 -2.22843,0.55587c-0.49241,0.01007 -0.98447,-0.03299 -1.46764,-0.12843c-0.51171,-0.13018 -1.01283,-0.29896 -1.49902,-0.5049z" fill="#ffffff" stroke-width="1"/><path d="M210.40784,185.80588h2.63529v0.70686c0.55917,-0.63612 1.37305,-0.98951 2.21961,-0.96376c1.00992,-0.0425 1.9836,0.38022 2.64215,1.14706c0.64123,0.77364 0.97445,1.75669 0.93578,2.76078c0.02996,0.97665 -0.28446,1.93273 -0.88823,2.70097c-0.60277,0.77072 -1.53675,1.20803 -2.51471,1.17745c-0.43384,0.00221 -0.86554,-0.06126 -1.28039,-0.18824c-0.40504,-0.12768 -0.78285,-0.32946 -1.11421,-0.5951v3.68921h-2.63529zM212.90783,189.50979c-0.01743,0.41291 0.15768,0.81055 0.47403,1.07648c0.32766,0.27039 0.74255,0.41223 1.16716,0.39901c0.40814,0.01504 0.80023,-0.15983 1.06177,-0.47353c0.26824,-0.32332 0.41003,-0.73299 0.39901,-1.15294c0.01961,-0.39598 -0.14422,-0.77893 -0.44413,-1.03823c-0.31579,-0.25778 -0.71469,-0.39162 -1.12205,-0.37647c-0.41759,-0.02108 -0.82479,0.1344 -1.12206,0.42844c-0.28436,0.30857 -0.43336,0.71814 -0.41372,1.13729z" fill="#ffffff" stroke-width="1"/><path d="M219.84949,185.85105h2.66569v0.87255c0.41668,-0.33341 0.87472,-0.61154 1.36274,-0.82745c0.33023,-0.12148 0.67952,-0.18289 1.03136,-0.18136c0.11155,0.00015 0.22271,0.01298 0.33138,0.03823c0.1103,0.02452 0.25099,0.06275 0.42158,0.11275l0.0152,2.52941c-0.24167,-0.08435 -0.48799,-0.15474 -0.73774,-0.21082c-0.21764,-0.04833 -0.43982,-0.07331 -0.66276,-0.07451c-0.55738,-0.05998 -1.09858,0.21043 -1.38529,0.69215c-0.22165,0.50703 -0.31977,1.05942 -0.28627,1.61177c0,0.30097 0.00996,0.81046 0.02991,1.52842c0.02007,0.71765 0.03021,1.10164 0.03039,1.15196h-2.81618c0,-0.36177 0.00752,-0.95654 0.02255,-1.78432c0.0152,-0.82843 0.02272,-1.27777 0.02255,-1.34803z" fill="#ffffff" stroke-width="1"/><path d="M228.34262,190.14219c0.07127,0.81052 0.78545,1.41023 1.59609,1.34023c0.22472,-0.00122 0.44529,-0.06067 0.64019,-0.17256c0.22147,-0.12751 0.42629,-0.28195 0.60981,-0.45979h2.77058c-0.33519,0.78618 -0.90604,1.449 -1.63381,1.89706c-0.7739,0.4156 -1.64415,0.61859 -2.52205,0.58825c-1.07927,0.06244 -2.14288,-0.28097 -2.98185,-0.96277c-0.7868,-0.75208 -1.20032,-1.81387 -1.12941,-2.89999c-0.04933,-1.06707 0.38481,-2.09958 1.18186,-2.81078c0.83183,-0.70706 1.8982,-1.0771 2.98921,-1.03725c1.18785,-0.08652 2.35252,0.36051 3.17741,1.2196c0.72724,0.93955 1.08617,2.11242 1.00931,3.29804zM231.36909,188.56081c-0.14189,-0.28839 -0.34778,-0.54056 -0.60196,-0.73726c-0.2514,-0.20392 -0.56501,-0.31565 -0.88872,-0.31665c-0.32468,-0.00824 -0.64275,0.09254 -0.90343,0.28626c-0.25165,0.21156 -0.45677,0.47293 -0.60245,0.76765z" fill="#ffffff" stroke-width="1"/><path d="M234.83232,190.50395c0.35112,0.19669 0.7152,0.36929 1.08971,0.51666c0.37145,0.14735 0.76618,0.22734 1.16568,0.23627c0.16979,-0.00761 0.3356,-0.05389 0.4848,-0.1353c0.18138,-0.09019 0.27222,-0.20033 0.27256,-0.33039c0,-0.1402 -0.52205,-0.37549 -1.56618,-0.70589c-0.93526,-0.19101 -1.59674,-1.02826 -1.56618,-1.98234c-0.03455,-0.71746 0.28673,-1.40585 0.85882,-1.84019c0.59586,-0.44277 1.3231,-0.6727 2.0652,-0.65294c0.89183,0.00343 1.77367,0.18787 2.59212,0.54211l-0.60197,2.03235c-0.26723,-0.12092 -0.5412,-0.22632 -0.82058,-0.31568c-0.27928,-0.09438 -0.57143,-0.14531 -0.86619,-0.15097c-0.13368,0.0006 -0.26387,0.04273 -0.37255,0.12059c-0.10646,0.06277 -0.17258,0.17642 -0.17452,0.3c0,0.15 0.52206,0.38041 1.56619,0.69119c0.96104,0.20121 1.62829,1.07792 1.56618,2.05783c0.0125,0.78981 -0.41783,1.52025 -1.1147,1.89216c-0.67743,0.38698 -1.44857,0.57934 -2.22839,0.55587c-0.49257,0.01009 -0.9848,-0.03297 -1.46814,-0.12844c-0.51155,-0.13019 -1.0125,-0.29898 -1.49853,-0.5049z" fill="#ffffff" stroke-width="1"/><path d="M243.61222,190.14219c0.07126,0.81053 0.78545,1.41023 1.59608,1.34023c0.22472,-0.00122 0.4453,-0.06067 0.6402,-0.17256c0.22147,-0.12751 0.42629,-0.28195 0.60981,-0.45979h2.77058c-0.33519,0.78618 -0.90604,1.449 -1.63382,1.89706c-0.7739,0.4156 -1.64415,0.61859 -2.52205,0.58825c-1.07927,0.06244 -2.14288,-0.28097 -2.98185,-0.96277c-0.7868,-0.75208 -1.20032,-1.81387 -1.12941,-2.89999c-0.04933,-1.06707 0.38482,-2.09958 1.18187,-2.81078c0.83182,-0.70706 1.89821,-1.0771 2.9892,-1.03725c1.18785,-0.08652 2.35251,0.36051 3.17741,1.2196c0.72724,0.93955 1.08617,2.11241 1.00932,3.29804zM246.63868,188.56081c-0.14189,-0.28839 -0.34778,-0.54056 -0.60197,-0.73726c-0.2514,-0.20392 -0.56501,-0.31565 -0.88872,-0.31665c-0.32468,-0.00824 -0.64275,0.09254 -0.90343,0.28626c-0.25165,0.21156 -0.45678,0.47293 -0.60246,0.76765z" fill="#ffffff" stroke-width="1"/><path d="M249.96662,189.70591c0,-0.58234 -0.00507,-1.05914 -0.0152,-1.43039c-0.0402,-1.46568 -0.0603,-2.26895 -0.0603,-2.4098h2.81618v0.81274c0.26158,-0.23913 0.53724,-0.46241 0.82548,-0.66861c0.49416,-0.31092 1.06822,-0.47104 1.65196,-0.4608c0.75492,-0.06446 1.49236,0.25132 1.96668,0.84215c0.40871,0.63915 0.60324,1.39186 0.5554,2.14901v2.07353c0,0.28044 0.01012,0.75134 0.03038,1.41275c0.01961,0.66176 0.02957,1.01765 0.02991,1.06764h-2.86127v-3.99116c0.01162,-0.32618 -0.09238,-0.64598 -0.29363,-0.90295c-0.20575,-0.24592 -0.51567,-0.38007 -0.83579,-0.36176c-0.35222,-0.00537 -0.67667,0.19063 -0.83579,0.50491c-0.19418,0.33072 -0.29561,0.70767 -0.29363,1.09118c0,0.42157 0.01012,1.12189 0.03038,2.10098c0.01961,0.97843 0.02957,1.49804 0.02991,1.55882h-2.81618c0,-0.37156 0.01259,-0.93398 0.03775,-1.68725c0.02498,-0.75294 0.03756,-1.31994 0.03773,-1.70098z" fill="#ffffff" stroke-width="1"/><path d="M258.42985,185.80588h1.00883v-1.95784h2.7407v1.95784h1.49118v1.80685h-1.49118v5.48141h-2.7407v-5.48141h-1.00883z" fill="#ffffff" stroke-width="1"/><path d="M264.1965,190.50395c0.35113,0.19669 0.71519,0.36929 1.0897,0.51666c0.37145,0.14735 0.76618,0.22734 1.16568,0.23627c0.16979,-0.00761 0.3356,-0.05389 0.4848,-0.1353c0.18138,-0.09019 0.27222,-0.20033 0.27256,-0.33039c0,-0.1402 -0.52206,-0.37549 -1.56619,-0.70589c-0.93527,-0.19101 -1.59674,-1.02826 -1.56618,-1.98234c-0.03454,-0.71746 0.28673,-1.40585 0.85882,-1.84019c0.59585,-0.44277 1.3231,-0.6727 2.0652,-0.65294c0.89182,0.00343 1.77367,0.18787 2.59212,0.54211l-0.60196,2.03235c-0.26723,-0.12092 -0.54121,-0.22632 -0.82059,-0.31568c-0.27929,-0.09438 -0.57142,-0.14531 -0.86617,-0.15097c-0.13368,0.00059 -0.26388,0.04273 -0.37255,0.12059c-0.10647,0.06277 -0.17257,0.17642 -0.17451,0.3c0,0.15 0.52205,0.38041 1.56618,0.69119c0.96104,0.20121 1.62829,1.07792 1.56618,2.05783c0.0125,0.78981 -0.41783,1.52025 -1.1147,1.89216c-0.67744,0.38699 -1.4486,0.57935 -2.22843,0.55587c-0.49257,0.01009 -0.98479,-0.03297 -1.46813,-0.12843c-0.51155,-0.13019 -1.0125,-0.29898 -1.49853,-0.5049z" fill="#ffffff" stroke-width="1"/></g></g></svg>