<svg xmlns="http://www.w3.org/2000/svg" xmlns:xlink="http://www.w3.org/1999/xlink" version="1.1" width="66.69650268554688" height="15.647500038146973" viewBox="0.3083000183105469 0.46080005168914795 66.69650268554688 15.647500038146973">
  <!-- Exported by Scratch - http://scratch.mit.edu/ -->
  <g id="ID0.2788758957758546">
    <g id="ID0.07629480585455894">
      <g id="id117">
        <path id="ID0.8674086015671492" fill="none" stroke="none" d="M 0.8083 1.2508 L 13.1354 1.2508 L 13.1354 15.3183 L 0.8083 15.3183 L 0.8083 1.2508 Z " stroke-width="0.1450253576040268"/>
        <path id="ID0.4825530447997153" fill="rgb(255,255,255)" stroke="none" d="M 0.9533 1.2508 L 1.3884 1.2508 L 4.724 1.2508 L 7.0444 1.2508 C 8.9297 1.2508 10.3799 1.6859 11.2501 2.411 C 12.4103 3.2812 12.8454 4.5864 12.8454 6.4717 C 12.8454 7.777 12.5553 8.9372 11.8302 9.6623 C 11.2501 10.2424 10.3799 10.5325 9.2197 10.8225 C 8.4946 10.8225 7.3344 10.9675 5.8842 10.9675 L 5.8842 15.0282 L 0.9533 15.0282 L 0.9533 1.2508 Z M 8.0595 6.1817 C 8.0595 5.7466 7.9145 5.4566 7.6245 5.1665 C 7.3344 5.0215 6.8993 5.0215 6.4643 5.0215 L 5.8842 5.0215 L 5.8842 7.3419 L 6.3192 7.3419 C 6.7543 7.3419 7.1894 7.3419 7.4794 7.1969 C 7.9145 6.9068 8.0595 6.6168 8.0595 6.1817 Z " stroke-width="0.1450253576040268"/>
      </g>
    </g>
    <g id="ID0.17014210112392902">
      <g id="id118">
        <path id="ID0.12377025652676821" fill="none" stroke="none" d="M 13.2805 1.3959 L 28.3631 1.3959 L 28.3631 15.3183 L 13.2805 15.3183 L 13.2805 1.3959 Z " stroke-width="0.1450253576040268"/>
        <path id="ID0.47378656128421426" fill="rgb(255,255,255)" stroke="none" d="M 17.7762 1.3959 L 23.7223 1.3959 L 28.2181 15.0282 L 23.1422 15.0282 L 22.5621 13.2879 L 18.9364 13.2879 L 18.5014 15.0282 L 13.2805 15.0282 L 17.7762 1.3959 Z M 21.6919 10.0974 L 20.6767 5.8916 L 19.6616 10.0974 L 21.6919 10.0974 Z " stroke-width="0.1450253576040268"/>
      </g>
    </g>
    <g id="ID0.3623195863328874">
      <g id="id119">
        <path id="ID0.6350400322116911" fill="none" stroke="none" d="M 28.6531 1.3959 L 41.4154 1.3959 L 41.4154 15.3183 L 28.6531 15.3183 L 28.6531 1.3959 Z " stroke-width="0.1450253576040268"/>
        <path id="ID0.21666743559762836" fill="rgb(255,255,255)" stroke="none" d="M 28.6531 1.5409 L 34.8892 1.5409 C 36.4845 1.5409 37.7897 1.8309 38.8049 2.5561 C 39.8201 3.2812 40.4002 4.4414 40.4002 6.0367 C 40.4002 6.9068 40.2552 7.632 39.8201 8.2121 C 39.53 8.6471 38.9499 9.0822 37.9348 9.6623 L 41.2703 15.0282 L 36.0494 15.0282 L 33.439 9.8073 L 33.439 15.0282 L 28.6531 15.0282 L 28.6531 1.5409 Z M 34.1641 7.3419 C 34.5992 7.3419 34.8892 7.3419 35.1793 7.1969 C 35.4693 6.9068 35.6144 6.6168 35.6144 6.1817 C 35.6144 5.7466 35.4693 5.4566 35.1793 5.3115 C 34.8892 5.1665 34.4542 5.0215 34.0191 5.0215 L 33.439 5.1665 L 33.439 7.3419 L 34.1641 7.3419 Z " stroke-width="0.1450253576040268"/>
      </g>
    </g>
    <g id="ID0.7158646276220679">
      <g id="id120">
        <path id="ID0.5350274886004627" fill="none" stroke="none" d="M 41.7054 1.2508 L 56.208 1.2508 L 56.208 15.3183 L 41.7054 15.3183 L 41.7054 1.2508 Z " stroke-width="0.1450253576040268"/>
        <path id="ID0.63593565300107" fill="rgb(255,255,255)" stroke="none" d="M 41.8504 1.2508 L 46.7813 1.2508 L 46.7813 7.1969 L 49.8268 1.2508 L 55.3378 1.2508 L 51.1321 8.067 L 55.9179 15.0282 L 49.9719 15.0282 C 48.9567 13.1429 47.7965 11.4026 46.7813 9.5173 L 46.7813 15.0282 L 41.8504 15.0282 L 41.8504 1.2508 Z " stroke-width="0.1450253576040268"/>
      </g>
    </g>
    <g id="ID0.2933627194724977">
      <g id="id121">
        <path id="ID0.8168526031076908" fill="none" stroke="none" d="M 54.9027 0.9608 L 66.5048 0.9608 L 66.5048 15.6083 L 54.9027 15.6083 L 54.9027 0.9608 Z " stroke-width="0.1450253576040268"/>
        <path id="ID0.6258228071965277" fill="rgb(255,255,255)" stroke="none" d="M 56.643 10.0974 C 57.2231 10.5325 57.6582 10.8225 58.0933 10.9675 C 58.8184 11.4026 59.3985 11.5476 59.9786 11.5476 C 60.2687 11.5476 60.4137 11.4026 60.7037 11.2576 C 60.9938 11.1126 61.2838 10.9675 61.2838 10.6775 C 61.2838 10.3874 60.7037 10.0974 59.8336 9.8073 C 58.5284 9.5173 57.5132 9.2272 57.0781 8.7922 C 56.0629 8.2121 55.6279 7.1969 55.6279 5.8916 C 55.6279 4.4414 56.208 3.2812 57.3682 2.411 C 58.3833 1.5409 59.6886 1.1058 61.1388 1.1058 C 62.009 1.1058 62.8791 1.1058 63.7493 1.3959 C 64.3294 1.5409 65.0545 1.8309 66.0697 2.266 L 64.6194 5.7466 C 64.1844 5.6016 63.7493 5.3115 63.1692 5.1665 C 62.5891 4.8765 62.009 4.7314 61.5739 4.7314 C 61.4289 4.7314 61.1388 4.8765 60.9938 5.0215 C 60.7037 5.1665 60.5587 5.3115 60.5587 5.4566 C 60.5587 5.7466 61.1388 6.0367 62.154 6.3267 C 63.4592 6.6168 64.3294 7.0518 64.9095 7.3419 C 65.7796 8.067 66.3597 9.0822 66.3597 10.3874 C 66.3597 11.8377 65.7796 13.1429 64.6194 14.0131 C 63.4592 14.8832 62.154 15.3183 60.5587 15.3183 C 59.5435 15.3183 58.6734 15.1733 57.6582 14.8832 C 56.9331 14.5932 56.0629 14.3031 55.0478 13.723 L 56.643 10.0974 Z " stroke-width="0.1450253576040268"/>
      </g>
    </g>
  </g>
<defs/></svg>