<svg version="1.1" xmlns="http://www.w3.org/2000/svg" xmlns:xlink="http://www.w3.org/1999/xlink" width="353.32367" height="274.8253" viewBox="0,0,353.32367,274.8253"><defs><linearGradient x1="180.52094" y1="336.39441" x2="204.0771" y2="309.43489" gradientUnits="userSpaceOnUse" id="color-1"><stop offset="0" stop-color="#ffa533"/><stop offset="1" stop-color="#ffa533" stop-opacity="0"/></linearGradient><linearGradient x1="449.16178" y1="152.01639" x2="425.60562" y2="178.97592" gradientUnits="userSpaceOnUse" id="color-2"><stop offset="0" stop-color="#ffa533"/><stop offset="1" stop-color="#ffa533" stop-opacity="0"/></linearGradient></defs><g transform="translate(-95.83811,-76.96139)"><g data-paper-data="{&quot;isPaintingLayer&quot;:true}" fill-rule="nonzero" stroke-linecap="butt" stroke-linejoin="miter" stroke-miterlimit="10" stroke-dasharray="" stroke-dashoffset="0" style="mix-blend-mode: normal"><path d="M240.27885,78.21139l150.71874,113.81413l-143.05208,110.4808l-150.05208,-118.81413c0,0 8.76032,-6.48976 17.07426,-12.64882c22.52324,-16.68548 125.31115,-92.83198 125.31115,-92.83198z" fill="none" stroke="#ffffff" stroke-width="2.5"/><g stroke="none"><path d="M247.81634,299.5967l-9.72844,7.74517l-4.97738,-3.96645l9.72844,-7.74525l4.97738,3.96653" fill="#2c2d2e" stroke-width="0.28316"/><g><path d="M235.69687,305.03818l9.60404,-7.65692" fill="#000000" stroke-width="0.27824"/><path d="M235.61953,304.81976l9.61414,-7.64968l0.1489,0.20132l-9.61422,7.64968z" fill="#ffffff" stroke-width="0.27816"/></g><g><path d="M239.01726,307.8777l-6.80287,-5.39679" fill="#000000" stroke-width="0.27824"/><path d="M232.07274,302.59097l0.25701,-0.34778l6.79335,5.40208l-0.25701,0.34778z" fill="#2c2d2e" stroke-width="0.27817"/></g><g><g fill="#000000"><path d="M234.60755,300.7715l6.60277,5.39679" stroke-width="0.27824"/><path d="M234.53819,300.72738l0.13774,-0.18105l6.59593,5.40159l-0.13774,0.18097z" stroke-width="0.27815"/></g><g fill="#2c2d2e" stroke-width="0.27824"><path d="M241.07689,306.35276l-6.60277,-5.39671l0.26677,-0.36902l6.60277,5.41975l-0.26677,0.34598"/><path d="M234.31855,300.97909l0.3779,-0.53046l6.78065,5.55814l-0.3779,0.53046zM234.7632,300.74845l-0.13343,0.16143l6.42489,5.2584l0.13343,-0.16151z"/></g></g><g><g fill="#000000"><path d="M243.14449,304.6461l-6.60277,-5.39679" stroke-width="0.27824"/><path d="M236.51176,299.29028l0.13782,-0.18105l6.59593,5.40159l-0.13782,0.18097z" stroke-width="0.27815"/></g><g fill="#2c2d2e" stroke-width="0.27824"><path d="M243.03329,304.83059l-6.60277,-5.41975l0.24455,-0.34598l6.60277,5.39671l-0.24455,0.36902"/><path d="M236.27487,299.43388l0.37798,-0.53046l6.78065,5.55814l-0.37798,0.53046zM236.69729,299.22629l-0.13335,0.16143l6.42489,5.2584l0.13343,-0.16143z"/></g></g><g><g fill="#000000"><path d="M238.43137,297.72724l6.60277,5.41975" stroke-width="0.27824"/><path d="M238.36266,297.70396l0.13774,-0.18105l6.59593,5.40159l-0.13774,0.18097z" stroke-width="0.27815"/></g><g fill="#2c2d2e" stroke-width="0.27824"><path d="M244.90079,303.30842l-6.58055,-5.39671l0.24455,-0.36902l6.60277,5.41983l-0.26677,0.3459"/><path d="M238.16459,297.93475l0.3779,-0.53046l6.78065,5.55822l-0.3779,0.53046zM238.58702,297.70411l-0.13343,0.16143l6.42489,5.2584l0.13343,-0.16143z"/></g></g><g><g fill="#000000"><path d="M240.32101,296.13587l6.60285,5.39671" stroke-width="0.27824"/><path d="M240.28332,296.19685l0.13774,-0.18097l6.59593,5.40151l-0.13774,0.18105z" stroke-width="0.27815"/></g><g fill="#2c2d2e" stroke-width="0.27824"><path d="M246.81266,301.71714l-6.60277,-5.39679l0.24455,-0.36894l6.60277,5.41975l-0.24455,0.34598"/><path d="M240.05424,296.34346l0.37798,-0.53046l6.78065,5.55814l-0.37798,0.53046zM240.47666,296.11284l-0.13335,0.16143l6.42489,5.25831l0.13335,-0.16143z"/></g></g><path d="M241.77366,294.71815l1.11155,0.87644l-9.5596,7.61077l-1.13377,-0.87636" fill="#feeb9b" stroke-width="0.27824"/><path d="M239.30593,308.02008l-1.0894,-0.87636l9.5596,-7.61077l1.11163,0.87636" fill="#feeb9b" stroke-width="0.27824"/><g><path d="M246.67931,298.53441l-3.04572,-2.42157" fill="#000000" stroke-width="0.27824"/><path d="M243.57677,296.18529l0.12171,-0.16477l3.05264,2.42743l-0.12171,0.16477z" fill="#2c2d2e" stroke-width="0.27817"/></g><path d="M238.21067,307.14462l-9.5596,7.61077l-4.89092,-3.89766l9.5596,-7.61077l4.89092,3.89766" fill="#2c2d2e" stroke-width="0.27824"/><g><path d="M235.73545,304.95221l-9.60404,7.65692" fill="#000000" stroke-width="0.27824"/><path d="M226.05407,312.43142l9.61414,-7.64968l0.1489,0.20132l-9.61422,7.64968z" fill="#ffffff" stroke-width="0.27816"/></g><g><path d="M229.94025,315.16372l-6.80287,-5.39679" fill="#000000" stroke-width="0.27824"/><path d="M223.03644,309.91769l0.25701,-0.34778l6.79335,5.40208l-0.25701,0.34778z" fill="#2c2d2e" stroke-width="0.27817"/></g><g><g fill="#000000"><path d="M225.04209,308.34245l6.60277,5.39679" stroke-width="0.27824"/><path d="M224.97273,308.33904l0.13774,-0.18105l6.59593,5.40159l-0.13774,0.18097z" stroke-width="0.27815"/></g><g fill="#2c2d2e" stroke-width="0.27824"><path d="M231.51143,313.92372l-6.60277,-5.39671l0.26677,-0.36902l6.60277,5.41975l-0.26677,0.34598"/><path d="M224.75309,308.55003l0.3779,-0.53046l6.78065,5.55814l-0.3779,0.53046zM225.19774,308.31941l-0.13343,0.16143l6.42489,5.2584l0.13343,-0.16151z"/></g></g><g><g fill="#000000"><path d="M226.97626,306.82029l6.60277,5.39679" stroke-width="0.27824"/><path d="M226.94631,306.90193l0.13782,-0.18105l6.59593,5.40159l-0.13782,0.18097z" stroke-width="0.27815"/></g><g fill="#2c2d2e" stroke-width="0.27824"><path d="M233.46783,312.40155l-6.60277,-5.41975l0.24455,-0.34598l6.60277,5.39671l-0.24455,0.36902"/><path d="M226.70941,307.00483l0.37798,-0.53046l6.78065,5.55814l-0.37798,0.53046zM227.13184,306.79724l-0.13335,0.16143l6.42489,5.2584l0.13343,-0.16143z"/></g></g><g><g fill="#000000"><path d="M235.46868,310.71795l-6.60277,-5.41975" stroke-width="0.27824"/><path d="M228.7972,305.31561l0.13774,-0.18105l6.59593,5.40159l-0.13774,0.18097z" stroke-width="0.27815"/></g><g fill="#2c2d2e" stroke-width="0.27824"><path d="M235.33533,310.87938l-6.58055,-5.39671l0.24455,-0.36902l6.60277,5.41983l-0.26677,0.3459"/><path d="M228.59914,305.5057l0.3779,-0.53046l6.78065,5.55822l-0.3779,0.53046zM229.02156,305.27508l-0.13343,0.16143l6.42489,5.2584l0.13343,-0.16143z"/></g></g><g><g fill="#000000"><path d="M230.75556,303.70682l6.60285,5.39671" stroke-width="0.27824"/><path d="M230.71786,303.80851l0.13774,-0.18097l6.59593,5.40151l-0.13774,0.18105z" stroke-width="0.27815"/></g><g fill="#2c2d2e" stroke-width="0.27824"><path d="M237.2472,309.28809l-6.60277,-5.39679l0.24455,-0.36894l6.60277,5.41975l-0.24455,0.34598"/><path d="M230.48878,303.91442l0.37798,-0.53046l6.78065,5.55814l-0.37798,0.53046zM230.91121,303.68379l-0.13335,0.16143l6.42489,5.25831l0.13335,-0.16143z"/></g></g><path d="M232.28961,302.28911l1.11155,0.87644l-9.5596,7.61077l-1.13377,-0.87636" fill="#feeb9b" stroke-width="0.27824"/><path d="M229.82189,315.55033l-1.0894,-0.87636l9.5596,-7.61077l1.11163,0.87636" fill="#feeb9b" stroke-width="0.27824"/><g><path d="M237.11385,306.10535l-3.04572,-2.42157" fill="#000000" stroke-width="0.27824"/><path d="M234.01131,303.79695l0.12171,-0.16477l3.05264,2.42743l-0.12171,0.16477z" fill="#2c2d2e" stroke-width="0.27817"/></g><path d="M228.72662,314.67487l-9.5596,7.61077l-4.89092,-3.89766l9.5596,-7.61077l4.89092,3.89766" fill="#2c2d2e" stroke-width="0.27824"/><g><path d="M216.56595,320.22078l9.60404,-7.65692" fill="#000000" stroke-width="0.27824"/><path d="M216.48862,320.00237l9.61414,-7.64968l0.1489,0.20132l-9.61422,7.64968z" fill="#ffffff" stroke-width="0.27816"/></g><g><path d="M220.21198,322.73468l-6.80287,-5.39679" fill="#000000" stroke-width="0.27824"/><path d="M213.26746,317.44795l0.25701,-0.34778l6.79335,5.40208l-0.25701,0.34778z" fill="#2c2d2e" stroke-width="0.27817"/></g><g><g fill="#000000"><path d="M215.47663,315.95412l6.60277,5.39679" stroke-width="0.27824"/><path d="M215.40727,315.9914l0.13774,-0.18105l6.59593,5.40159l-0.13774,0.18097z" stroke-width="0.27815"/></g><g fill="#2c2d2e" stroke-width="0.27824"><path d="M221.94597,321.53538l-6.60277,-5.39671l0.26677,-0.36902l6.60277,5.41975l-0.26677,0.34598"/><path d="M215.18763,316.16171l0.3779,-0.53046l6.78065,5.55814l-0.3779,0.53046zM215.63228,315.93108l-0.13343,0.16143l6.42489,5.2584l0.13343,-0.16151z"/></g></g><g><g fill="#000000"><path d="M224.01358,319.82874l-6.60277,-5.39679" stroke-width="0.27824"/><path d="M217.38085,314.5136l0.13782,-0.18105l6.59593,5.40159l-0.13782,0.18097z" stroke-width="0.27815"/></g><g fill="#2c2d2e" stroke-width="0.27824"><path d="M223.90237,320.01321l-6.60277,-5.41975l0.24455,-0.34598l6.60277,5.39671l-0.24455,0.36902"/><path d="M217.14395,314.6165l0.37798,-0.53046l6.78065,5.55814l-0.37798,0.53046zM217.56638,314.40891l-0.13335,0.16143l6.42489,5.2584l0.13343,-0.16143z"/></g></g><g><g fill="#000000"><path d="M219.30045,312.90986l6.60277,5.41975" stroke-width="0.27824"/><path d="M219.23174,312.88658l0.13774,-0.18105l6.59593,5.40159l-0.13774,0.18097z" stroke-width="0.27815"/></g><g fill="#2c2d2e" stroke-width="0.27824"><path d="M225.76988,318.49102l-6.58055,-5.39671l0.24455,-0.36902l6.60277,5.41983l-0.26677,0.3459"/><path d="M219.03368,313.11737l0.3779,-0.53046l6.78065,5.55822l-0.3779,0.53046zM219.45611,312.88674l-0.13343,0.16143l6.42489,5.2584l0.13343,-0.16143z"/></g></g><g><g fill="#000000"><path d="M221.1901,311.31849l6.60285,5.39671" stroke-width="0.27824"/><path d="M221.15241,311.37947l0.13774,-0.18097l6.59593,5.40151l-0.13774,0.18105z" stroke-width="0.27815"/></g><g fill="#2c2d2e" stroke-width="0.27824"><path d="M227.68175,316.89975l-6.60277,-5.39679l0.24455,-0.36894l6.60277,5.41975l-0.24455,0.34598"/><path d="M220.92332,311.52608l0.37798,-0.53046l6.78065,5.55814l-0.37798,0.53046zM221.34575,311.29546l-0.13335,0.16143l6.42489,5.25831l0.13335,-0.16143z"/></g></g><path d="M222.72415,309.90076l1.11155,0.87644l-9.5596,7.61077l-1.13377,-0.87636" fill="#feeb9b" stroke-width="0.27824"/><path d="M220.25643,323.16199l-1.0894,-0.87636l9.5596,-7.61077l1.11163,0.87636" fill="#feeb9b" stroke-width="0.27824"/></g><g stroke="none"><path d="M219.33178,322.17609l-9.72844,7.74517l-4.97738,-3.96645l9.72844,-7.74525l4.97738,3.96653" fill="#2c2d2e" stroke-width="0.28316"/><g><path d="M207.21231,327.61757l9.60404,-7.65692" fill="#000000" stroke-width="0.27824"/><path d="M207.13497,327.39916l9.61414,-7.64968l0.1489,0.20132l-9.61422,7.64968z" fill="#ffffff" stroke-width="0.27816"/></g><g><path d="M203.72983,325.06031l6.80287,5.39679" fill="#000000" stroke-width="0.27824"/><path d="M203.58818,325.17037l0.25701,-0.34778l6.79335,5.40208l-0.25701,0.34778z" fill="#2c2d2e" stroke-width="0.27817"/></g><g><g fill="#000000"><path d="M206.12299,323.35089l6.60277,5.39679" stroke-width="0.27824"/><path d="M206.05363,323.30678l0.13774,-0.18105l6.59593,5.40159l-0.13774,0.18097z" stroke-width="0.27815"/></g><g fill="#2c2d2e" stroke-width="0.27824"><path d="M212.59233,328.93216l-6.60277,-5.39671l0.26677,-0.36902l6.60277,5.41975l-0.26677,0.34598"/><path d="M205.83399,323.55849l0.3779,-0.53046l6.78065,5.55814l-0.3779,0.53046zM206.27864,323.32786l-0.13343,0.16143l6.42489,5.2584l0.13343,-0.16151z"/></g></g><g><g fill="#000000"><path d="M208.05716,321.82872l6.60277,5.39679" stroke-width="0.27824"/><path d="M208.0272,321.86967l0.13782,-0.18105l6.59593,5.40159l-0.13782,0.18097z" stroke-width="0.27815"/></g><g fill="#2c2d2e" stroke-width="0.27824"><path d="M214.54873,327.40999l-6.60277,-5.41975l0.24455,-0.34598l6.60277,5.39671l-0.24455,0.36902"/><path d="M207.79031,322.01328l0.37798,-0.53046l6.78065,5.55814l-0.37798,0.53046zM208.21273,321.80569l-0.13335,0.16143l6.42489,5.2584l0.13343,-0.16143z"/></g></g><g><g fill="#000000"><path d="M216.54958,325.72639l-6.60277,-5.41975" stroke-width="0.27824"/><path d="M209.8781,320.28335l0.13774,-0.18105l6.59593,5.40159l-0.13774,0.18097z" stroke-width="0.27815"/></g><g fill="#2c2d2e" stroke-width="0.27824"><path d="M216.41623,325.88782l-6.58055,-5.39671l0.24455,-0.36902l6.60277,5.41983l-0.26677,0.3459"/><path d="M209.68003,320.51415l0.3779,-0.53046l6.78065,5.55822l-0.3779,0.53046zM210.10246,320.28351l-0.13343,0.16143l6.42489,5.2584l0.13343,-0.16143z"/></g></g><g><g fill="#000000"><path d="M211.83645,318.71526l6.60285,5.39671" stroke-width="0.27824"/><path d="M211.79876,318.77625l0.13774,-0.18097l6.59593,5.40151l-0.13774,0.18105z" stroke-width="0.27815"/></g><g fill="#2c2d2e" stroke-width="0.27824"><path d="M218.3281,324.29654l-6.60277,-5.39679l0.24455,-0.36894l6.60277,5.41975l-0.24455,0.34598"/><path d="M211.56968,318.92287l0.37798,-0.53046l6.78065,5.55814l-0.37798,0.53046zM211.9921,318.69224l-0.13335,0.16143l6.42489,5.25831l0.13335,-0.16143z"/></g></g><path d="M213.2891,317.29755l1.11155,0.87644l-9.5596,7.61077l-1.13377,-0.87636" fill="#feeb9b" stroke-width="0.27824"/><path d="M210.82137,330.59948l-1.0894,-0.87636l9.5596,-7.61077l1.11163,0.87636" fill="#feeb9b" stroke-width="0.27824"/><g><path d="M218.19475,321.11381l-3.04572,-2.42157" fill="#000000" stroke-width="0.27824"/><path d="M215.09221,318.76469l0.12171,-0.16477l3.05264,2.42743l-0.12171,0.16477z" fill="#2c2d2e" stroke-width="0.27817"/></g><path d="M209.72611,329.72402l-9.5596,7.61077l-4.89092,-3.89766l9.5596,-7.61077l4.89092,3.89766" fill="#2c2d2e" stroke-width="0.27824"/><g><path d="M207.25089,327.53162l-9.60404,7.65692" fill="#000000" stroke-width="0.27824"/><path d="M197.56951,335.01081l9.61414,-7.64968l0.1489,0.20132l-9.61422,7.64968z" fill="#ffffff" stroke-width="0.27816"/></g><g><path d="M201.45569,337.74312l-6.80287,-5.39679" fill="#000000" stroke-width="0.27824"/><path d="M194.55188,332.4971l0.25701,-0.34778l6.79335,5.40208l-0.25701,0.34778z" fill="#2c2d2e" stroke-width="0.27817"/></g><g><g fill="#000000"><path d="M203.1603,336.31865l-6.60277,-5.39679" stroke-width="0.27824"/><path d="M196.48817,330.91844l0.13774,-0.18105l6.59593,5.40159l-0.13774,0.18097z" stroke-width="0.27815"/></g><g fill="#2c2d2e" stroke-width="0.27824"><path d="M203.02687,336.50312l-6.60277,-5.39671l0.26677,-0.36902l6.60277,5.41975l-0.26677,0.34598"/><path d="M196.26853,331.12944l0.3779,-0.53046l6.78065,5.55814l-0.3779,0.53046zM196.71318,330.89881l-0.13343,0.16143l6.42489,5.2584l0.13343,-0.16151z"/></g></g><g><g fill="#000000"><path d="M198.4917,329.39968l6.60277,5.39679" stroke-width="0.27824"/><path d="M198.46175,329.48134l0.13782,-0.18105l6.59593,5.40159l-0.13782,0.18097z" stroke-width="0.27815"/></g><g fill="#2c2d2e" stroke-width="0.27824"><path d="M204.98327,334.98095l-6.60277,-5.41975l0.24455,-0.34598l6.60277,5.39671l-0.24455,0.36902"/><path d="M198.22485,329.58423l0.37798,-0.53046l6.78065,5.55814l-0.37798,0.53046zM198.64728,329.37665l-0.13335,0.16143l6.42489,5.2584l0.13343,-0.16143z"/></g></g><g><g fill="#000000"><path d="M200.38135,327.8776l6.60277,5.41975" stroke-width="0.27824"/><path d="M200.31264,327.89502l0.13774,-0.18105l6.59593,5.40159l-0.13774,0.18097z" stroke-width="0.27815"/></g><g fill="#2c2d2e" stroke-width="0.27824"><path d="M206.85077,333.45878l-6.58055,-5.39671l0.24455,-0.36902l6.60277,5.41983l-0.26677,0.3459"/><path d="M200.11458,328.08511l0.3779,-0.53046l6.78065,5.55822l-0.3779,0.53046zM200.537,327.85447l-0.13343,0.16143l6.42489,5.2584l0.13343,-0.16143z"/></g></g><g><g fill="#000000"><path d="M208.87385,331.68294l-6.60285,-5.39671" stroke-width="0.27824"/><path d="M202.2333,326.38791l0.13774,-0.18097l6.59593,5.40151l-0.13774,0.18105z" stroke-width="0.27815"/></g><g fill="#2c2d2e" stroke-width="0.27824"><path d="M208.76264,331.86749l-6.60277,-5.39679l0.24455,-0.36894l6.60277,5.41975l-0.24455,0.34598"/><path d="M202.00422,326.49382l0.37798,-0.53046l6.78065,5.55814l-0.37798,0.53046zM202.42665,326.26319l-0.13335,0.16143l6.42489,5.25831l0.13335,-0.16143z"/></g></g><path d="M203.80505,324.86851l1.11155,0.87644l-9.5596,7.61077l-1.13377,-0.87636" fill="#feeb9b" stroke-width="0.27824"/><path d="M201.33733,338.12973l-1.0894,-0.87636l9.5596,-7.61077l1.11163,0.87636" fill="#feeb9b" stroke-width="0.27824"/><g><path d="M205.58357,326.26319l3.04572,2.42157" fill="#000000" stroke-width="0.27824"/><path d="M205.52675,326.37635l0.12171,-0.16477l3.05264,2.42743l-0.12171,0.16477z" fill="#2c2d2e" stroke-width="0.27817"/></g><path d="M200.24206,337.25427l-9.5596,7.61077l-4.89092,-3.89766l9.5596,-7.61077l4.89092,3.89766" fill="#2c2d2e" stroke-width="0.27824"/><g><path d="M197.68543,335.14327l-9.60404,7.65692" fill="#000000" stroke-width="0.27824"/><path d="M188.00406,342.58178l9.61414,-7.64968l0.1489,0.20132l-9.61422,7.64968z" fill="#ffffff" stroke-width="0.27816"/></g><g><path d="M191.72742,345.31408l-6.80287,-5.39679" fill="#000000" stroke-width="0.27824"/><path d="M184.7829,340.02736l0.25701,-0.34778l6.79335,5.40208l-0.25701,0.34778z" fill="#2c2d2e" stroke-width="0.27817"/></g><g><g fill="#000000"><path d="M193.59484,343.93031l-6.60277,-5.39679" stroke-width="0.27824"/><path d="M186.92271,338.5708l0.13774,-0.18105l6.59593,5.40159l-0.13774,0.18097z" stroke-width="0.27815"/></g><g fill="#2c2d2e" stroke-width="0.27824"><path d="M193.46141,344.11478l-6.60277,-5.39671l0.26677,-0.36902l6.60277,5.41975l-0.26677,0.34598"/><path d="M186.70307,338.74111l0.3779,-0.53046l6.78065,5.55814l-0.3779,0.53046zM187.14772,338.51048l-0.13343,0.16143l6.42489,5.2584l0.13343,-0.16151z"/></g></g><g><g fill="#000000"><path d="M195.52902,342.40814l-6.60277,-5.39679" stroke-width="0.27824"/><path d="M188.89629,337.093l0.13782,-0.18105l6.59593,5.40159l-0.13782,0.18097z" stroke-width="0.27815"/></g><g fill="#2c2d2e" stroke-width="0.27824"><path d="M195.41781,342.59261l-6.60277,-5.41975l0.24455,-0.34598l6.60277,5.39671l-0.24455,0.36902"/><path d="M188.65939,337.1959l0.37798,-0.53046l6.78065,5.55814l-0.37798,0.53046zM189.08182,336.98831l-0.13335,0.16143l6.42489,5.2584l0.13343,-0.16143z"/></g></g><g><g fill="#000000"><path d="M190.81589,335.48926l6.60277,5.41975" stroke-width="0.27824"/><path d="M190.74718,335.46598l0.13774,-0.18105l6.59593,5.40159l-0.13774,0.18097z" stroke-width="0.27815"/></g><g fill="#2c2d2e" stroke-width="0.27824"><path d="M197.28532,341.07043l-6.58055,-5.39671l0.24455,-0.36902l6.60277,5.41983l-0.26677,0.3459"/><path d="M190.54912,335.69677l0.3779,-0.53046l6.78065,5.55822l-0.3779,0.53046zM190.97155,335.46614l-0.13343,0.16143l6.42489,5.2584l0.13343,-0.16143z"/></g></g><g><g fill="#000000"><path d="M192.70554,333.89788l6.60285,5.39671" stroke-width="0.27824"/><path d="M192.66785,333.95887l0.13774,-0.18097l6.59593,5.40151l-0.13774,0.18105z" stroke-width="0.27815"/></g><g fill="#2c2d2e" stroke-width="0.27824"><path d="M199.19719,339.47915l-6.60277,-5.39679l0.24455,-0.36894l6.60277,5.41975l-0.24455,0.34598"/><path d="M192.43876,334.10548l0.37798,-0.53046l6.78065,5.55814l-0.37798,0.53046zM192.86119,333.87486l-0.13335,0.16143l6.42489,5.25831l0.13335,-0.16143z"/></g></g><path d="M194.23959,332.48016l1.11155,0.87644l-9.5596,7.61077l-1.13377,-0.87636" fill="#feeb9b" stroke-width="0.27824"/><path d="M191.77187,345.74139l-1.0894,-0.87636l9.5596,-7.61077l1.11163,0.87636" fill="#feeb9b" stroke-width="0.27824"/></g><path d="M180.52094,336.39441l23.58412,-26.93514l17.61621,15.39235l-23.58413,26.93507z" fill="url(#color-1)" stroke="none" stroke-width="0.99172"/><g stroke="none"><path d="M381.86638,188.81411l9.72844,-7.74517l4.97738,3.96645l-9.72844,7.74525l-4.97738,-3.96653" fill="#2c2d2e" stroke-width="0.28316"/><g><path d="M393.98585,183.37263l-9.60404,7.65692" fill="#000000" stroke-width="0.27824"/><path d="M394.06319,183.59105l-9.61414,7.64968l-0.1489,-0.20132l9.61422,-7.64968z" fill="#ffffff" stroke-width="0.27816"/></g><g><path d="M390.66546,180.53311l6.80287,5.39679" fill="#000000" stroke-width="0.27824"/><path d="M397.60998,185.81984l-0.25701,0.34778l-6.79335,-5.40208l0.25701,-0.34778z" fill="#2c2d2e" stroke-width="0.27817"/></g><g><g fill="#000000"><path d="M388.4724,182.24252l6.60277,5.39679" stroke-width="0.27824"/><path d="M395.14453,187.68343l-0.13774,0.18105l-6.59593,-5.40159l0.13774,-0.18097z" stroke-width="0.27815"/></g><g fill="#2c2d2e" stroke-width="0.27824"><path d="M388.60583,182.05805l6.60277,5.39671l-0.26677,0.36902l-6.60277,-5.41975l0.26677,-0.34598"/><path d="M395.36417,187.43172l-0.3779,0.53046l-6.78065,-5.55814l0.3779,-0.53046zM394.91952,187.66236l0.13343,-0.16143l-6.42489,-5.2584l-0.13343,0.16151z"/></g></g><g><g fill="#000000"><path d="M393.141,189.1615l-6.60277,-5.39679" stroke-width="0.27824"/><path d="M393.17096,189.12053l-0.13782,0.18105l-6.59593,-5.40159l0.13782,-0.18097z" stroke-width="0.27815"/></g><g fill="#2c2d2e" stroke-width="0.27824"><path d="M386.64943,183.58022l6.60277,5.41975l-0.24455,0.34598l-6.60277,-5.39671l0.24455,-0.36902"/><path d="M393.40785,188.97693l-0.37798,0.53046l-6.78065,-5.55814l0.37798,-0.53046zM392.98543,189.18452l0.13335,-0.16143l-6.42489,-5.2584l-0.13343,0.16143z"/></g></g><g><g fill="#000000"><path d="M391.25135,190.68357l-6.60277,-5.41975" stroke-width="0.27824"/><path d="M391.32006,190.70685l-0.13774,0.18105l-6.59593,-5.40159l0.13774,-0.18097z" stroke-width="0.27815"/></g><g fill="#2c2d2e" stroke-width="0.27824"><path d="M384.78193,185.10239l6.58055,5.39671l-0.24455,0.36902l-6.60277,-5.41983l0.26677,-0.3459"/><path d="M391.51813,190.47606l-0.3779,0.53046l-6.78065,-5.55822l0.3779,-0.53046zM391.0957,190.7067l0.13343,-0.16143l-6.42489,-5.2584l-0.13343,0.16143z"/></g></g><g><g fill="#000000"><path d="M389.36171,192.27494l-6.60285,-5.39671" stroke-width="0.27824"/><path d="M389.3994,192.21396l-0.13774,0.18097l-6.59593,-5.40151l0.13774,-0.18105z" stroke-width="0.27815"/></g><g fill="#2c2d2e" stroke-width="0.27824"><path d="M382.87006,186.69367l6.60277,5.39679l-0.24455,0.36894l-6.60277,-5.41975l0.24455,-0.34598"/><path d="M389.62848,192.06735l-0.37798,0.53046l-6.78065,-5.55814l0.37798,-0.53046zM389.20606,192.29797l0.13335,-0.16143l-6.42489,-5.25831l-0.13335,0.16143z"/></g></g><path d="M387.90906,193.69266l-1.11155,-0.87644l9.5596,-7.61077l1.13377,0.87636" fill="#feeb9b" stroke-width="0.27824"/><path d="M390.37679,180.39073l1.0894,0.87636l-9.5596,7.61077l-1.11163,-0.87636" fill="#feeb9b" stroke-width="0.27824"/><g><path d="M383.00341,189.8764l3.04572,2.42157" fill="#000000" stroke-width="0.27824"/><path d="M386.10595,192.22552l-0.12171,0.16477l-3.05264,-2.42743l0.12171,-0.16477z" fill="#2c2d2e" stroke-width="0.27817"/></g><path d="M391.47205,181.26619l9.5596,-7.61077l4.89092,3.89766l-9.5596,7.61077l-4.89092,-3.89766" fill="#2c2d2e" stroke-width="0.27824"/><g><path d="M393.94727,183.45859l9.60404,-7.65692" fill="#000000" stroke-width="0.27824"/><path d="M403.62865,175.97939l-9.61414,7.64968l-0.1489,-0.20132l9.61422,-7.64968z" fill="#ffffff" stroke-width="0.27816"/></g><g><path d="M399.74247,173.24709l6.80287,5.39679" fill="#000000" stroke-width="0.27824"/><path d="M406.64628,178.49312l-0.25701,0.34778l-6.79335,-5.40208l0.25701,-0.34778z" fill="#2c2d2e" stroke-width="0.27817"/></g><g><g fill="#000000"><path d="M398.03786,174.67156l6.60277,5.39679" stroke-width="0.27824"/><path d="M404.70999,180.07177l-0.13774,0.18105l-6.59593,-5.40159l0.13774,-0.18097z" stroke-width="0.27815"/></g><g fill="#2c2d2e" stroke-width="0.27824"><path d="M398.17129,174.48709l6.60277,5.39671l-0.26677,0.36902l-6.60277,-5.41975l0.26677,-0.34598"/><path d="M404.92963,179.86078l-0.3779,0.53046l-6.78065,-5.55814l0.3779,-0.53046zM404.48498,180.0914l0.13343,-0.16143l-6.42489,-5.2584l-0.13343,0.16151z"/></g></g><g><g fill="#000000"><path d="M402.70646,181.59052l-6.60277,-5.39679" stroke-width="0.27824"/><path d="M402.73641,181.50888l-0.13782,0.18105l-6.59593,-5.40159l0.13782,-0.18097z" stroke-width="0.27815"/></g><g fill="#2c2d2e" stroke-width="0.27824"><path d="M396.21489,176.00926l6.60277,5.41975l-0.24455,0.34598l-6.60277,-5.39671l0.24455,-0.36902"/><path d="M402.97331,181.40598l-0.37798,0.53046l-6.78065,-5.55814l0.37798,-0.53046zM402.55088,181.61357l0.13335,-0.16143l-6.42489,-5.2584l-0.13343,0.16143z"/></g></g><g><g fill="#000000"><path d="M394.21404,177.69286l6.60277,5.41975" stroke-width="0.27824"/><path d="M400.88552,183.0952l-0.13774,0.18105l-6.59593,-5.40159l0.13774,-0.18097z" stroke-width="0.27815"/></g><g fill="#2c2d2e" stroke-width="0.27824"><path d="M394.34739,177.53143l6.58055,5.39671l-0.24455,0.36902l-6.60277,-5.41983l0.26677,-0.3459"/><path d="M401.08358,182.90511l-0.3779,0.53046l-6.78065,-5.55822l0.3779,-0.53046zM400.66116,183.13573l0.13343,-0.16143l-6.42489,-5.2584l-0.13343,0.16143z"/></g></g><g><g fill="#000000"><path d="M392.32431,179.30728l6.60285,5.39671" stroke-width="0.27824"/><path d="M398.96486,184.6023l-0.13774,0.18097l-6.59593,-5.40151l0.13774,-0.18105z" stroke-width="0.27815"/></g><g fill="#2c2d2e" stroke-width="0.27824"><path d="M392.43552,179.12272l6.60277,5.39679l-0.24455,0.36894l-6.60277,-5.41975l0.24455,-0.34598"/><path d="M399.19394,184.49639l-0.37798,0.53046l-6.78065,-5.55814l0.37798,-0.53046zM398.77151,184.72702l0.13335,-0.16143l-6.42489,-5.25831l-0.13335,0.16143z"/></g></g><path d="M397.39311,186.1217l-1.11155,-0.87644l9.5596,-7.61077l1.13377,0.87636" fill="#feeb9b" stroke-width="0.27824"/><path d="M399.86083,172.86048l1.0894,0.87636l-9.5596,7.61077l-1.11163,-0.87636" fill="#feeb9b" stroke-width="0.27824"/><g><path d="M395.61459,184.72702l-3.04572,-2.42157" fill="#000000" stroke-width="0.27824"/><path d="M395.67141,184.61386l-0.12171,0.16477l-3.05264,-2.42743l0.12171,-0.16477z" fill="#2c2d2e" stroke-width="0.27817"/></g><path d="M400.9561,173.73594l9.5596,-7.61077l4.89092,3.89766l-9.5596,7.61077l-4.89092,-3.89766" fill="#2c2d2e" stroke-width="0.27824"/><g><path d="M403.51273,175.84695l9.60404,-7.65692" fill="#000000" stroke-width="0.27824"/><path d="M413.1941,168.40844l-9.61414,7.64968l-0.1489,-0.20132l9.61422,-7.64968z" fill="#ffffff" stroke-width="0.27816"/></g><g><path d="M409.47074,165.67613l6.80287,5.39679" fill="#000000" stroke-width="0.27824"/><path d="M416.41526,170.96286l-0.25701,0.34778l-6.79335,-5.40208l0.25701,-0.34778z" fill="#2c2d2e" stroke-width="0.27817"/></g><g><g fill="#000000"><path d="M414.20609,172.45669l-6.60277,-5.39679" stroke-width="0.27824"/><path d="M414.27545,172.41941l-0.13774,0.18105l-6.59593,-5.40159l0.13774,-0.18097z" stroke-width="0.27815"/></g><g fill="#2c2d2e" stroke-width="0.27824"><path d="M407.73675,166.87543l6.60277,5.39671l-0.26677,0.36902l-6.60277,-5.41975l0.26677,-0.34598"/><path d="M414.49509,172.2491l-0.3779,0.53046l-6.78065,-5.55814l0.3779,-0.53046zM414.05044,172.47973l0.13343,-0.16143l-6.42489,-5.2584l-0.13343,0.16151z"/></g></g><g><g fill="#000000"><path d="M405.66914,168.58207l6.60277,5.39679" stroke-width="0.27824"/><path d="M412.30187,173.89721l-0.13782,0.18105l-6.59593,-5.40159l0.13782,-0.18097z" stroke-width="0.27815"/></g><g fill="#2c2d2e" stroke-width="0.27824"><path d="M405.78035,168.3976l6.60277,5.41975l-0.24455,0.34598l-6.60277,-5.39671l0.24455,-0.36902"/><path d="M412.53877,173.79431l-0.37798,0.53046l-6.78065,-5.55814l0.37798,-0.53046zM412.11634,174.0019l0.13335,-0.16143l-6.42489,-5.2584l-0.13343,0.16143z"/></g></g><g><g fill="#000000"><path d="M410.38227,175.50095l-6.60277,-5.41975" stroke-width="0.27824"/><path d="M410.45098,175.52423l-0.13774,0.18105l-6.59593,-5.40159l0.13774,-0.18097z" stroke-width="0.27815"/></g><g fill="#2c2d2e" stroke-width="0.27824"><path d="M403.91284,169.91979l6.58055,5.39671l-0.24455,0.36902l-6.60277,-5.41983l0.26677,-0.3459"/><path d="M410.64904,175.29344l-0.3779,0.53046l-6.78065,-5.55822l0.3779,-0.53046zM410.22661,175.52407l0.13343,-0.16143l-6.42489,-5.2584l-0.13343,0.16143z"/></g></g><g><g fill="#000000"><path d="M408.49262,177.09232l-6.60285,-5.39671" stroke-width="0.27824"/><path d="M408.53031,177.03134l-0.13774,0.18097l-6.59593,-5.40151l0.13774,-0.18105z" stroke-width="0.27815"/></g><g fill="#2c2d2e" stroke-width="0.27824"><path d="M402.00097,171.51106l6.60277,5.39679l-0.24455,0.36894l-6.60277,-5.41975l0.24455,-0.34598"/><path d="M408.7594,176.88473l-0.37798,0.53046l-6.78065,-5.55814l0.37798,-0.53046zM408.33697,177.11535l0.13335,-0.16143l-6.42489,-5.25831l-0.13335,0.16143z"/></g></g><path d="M406.95857,178.51005l-1.11155,-0.87644l9.5596,-7.61077l1.13377,0.87636" fill="#feeb9b" stroke-width="0.27824"/><path d="M409.42629,165.24882l1.0894,0.87636l-9.5596,7.61077l-1.11163,-0.87636" fill="#feeb9b" stroke-width="0.27824"/></g><g stroke="none"><path d="M410.35094,166.23472l9.72844,-7.74517l4.97738,3.96645l-9.72844,7.74525l-4.97738,-3.96653" fill="#2c2d2e" stroke-width="0.28316"/><g><path d="M412.86637,168.45016l9.60404,-7.65692" fill="#000000" stroke-width="0.27824"/><path d="M422.54775,161.01164l-9.61414,7.64968l-0.1489,-0.20132l9.61422,-7.64968z" fill="#ffffff" stroke-width="0.27816"/></g><g><path d="M419.15002,157.95371l6.80287,5.39679" fill="#000000" stroke-width="0.27824"/><path d="M426.09454,163.24044l-0.25701,0.34778l-6.79335,-5.40208l0.25701,-0.34778z" fill="#2c2d2e" stroke-width="0.27817"/></g><g><g fill="#000000"><path d="M423.55973,165.0599l-6.60277,-5.39679" stroke-width="0.27824"/><path d="M423.62909,165.10403l-0.13774,0.18105l-6.59593,-5.40159l0.13774,-0.18097z" stroke-width="0.27815"/></g><g fill="#2c2d2e" stroke-width="0.27824"><path d="M417.09039,159.47865l6.60277,5.39671l-0.26677,0.36902l-6.60277,-5.41975l0.26677,-0.34598"/><path d="M423.84873,164.85232l-0.3779,0.53046l-6.78065,-5.55814l0.3779,-0.53046zM423.40408,165.08295l0.13343,-0.16143l-6.42489,-5.2584l-0.13343,0.16151z"/></g></g><g><g fill="#000000"><path d="M421.62556,166.58209l-6.60277,-5.39679" stroke-width="0.27824"/><path d="M421.65552,166.54114l-0.13782,0.18105l-6.59593,-5.40159l0.13782,-0.18097z" stroke-width="0.27815"/></g><g fill="#2c2d2e" stroke-width="0.27824"><path d="M415.13399,161.00081l6.60277,5.41975l-0.24455,0.34598l-6.60277,-5.39671l0.24455,-0.36902"/><path d="M421.89241,166.39753l-0.37798,0.53046l-6.78065,-5.55814l0.37798,-0.53046zM421.46999,166.60512l0.13335,-0.16143l-6.42489,-5.2584l-0.13343,0.16143z"/></g></g><g><g fill="#000000"><path d="M413.13314,162.68442l6.60277,5.41975" stroke-width="0.27824"/><path d="M419.80462,168.12746l-0.13774,0.18105l-6.59593,-5.40159l0.13774,-0.18097z" stroke-width="0.27815"/></g><g fill="#2c2d2e" stroke-width="0.27824"><path d="M413.26649,162.52299l6.58055,5.39671l-0.24455,0.36902l-6.60277,-5.41983l0.26677,-0.3459"/><path d="M420.00269,167.89666l-0.3779,0.53046l-6.78065,-5.55822l0.3779,-0.53046zM419.58026,168.1273l0.13343,-0.16143l-6.42489,-5.2584l-0.13343,0.16143z"/></g></g><g><g fill="#000000"><path d="M411.24342,164.29884l6.60285,5.39671" stroke-width="0.27824"/><path d="M417.88396,169.63456l-0.13774,0.18097l-6.59593,-5.40151l0.13774,-0.18105z" stroke-width="0.27815"/></g><g fill="#2c2d2e" stroke-width="0.27824"><path d="M411.35462,164.11426l6.60277,5.39679l-0.24455,0.36894l-6.60277,-5.41975l0.24455,-0.34598"/><path d="M418.11304,169.48794l-0.37798,0.53046l-6.78065,-5.55814l0.37798,-0.53046zM417.69062,169.71857l0.13335,-0.16143l-6.42489,-5.25831l-0.13335,0.16143z"/></g></g><path d="M416.39362,171.11326l-1.11155,-0.87644l9.5596,-7.61077l1.13377,0.87636" fill="#feeb9b" stroke-width="0.27824"/><path d="M418.86135,157.81133l1.0894,0.87636l-9.5596,7.61077l-1.11163,-0.87636" fill="#feeb9b" stroke-width="0.27824"/><g><path d="M414.53369,169.71857l-3.04572,-2.42157" fill="#000000" stroke-width="0.27824"/><path d="M414.59051,169.64612l-0.12171,0.16477l-3.05264,-2.42743l0.12171,-0.16477z" fill="#2c2d2e" stroke-width="0.27817"/></g><path d="M419.95661,158.68678l9.5596,-7.61077l4.89092,3.89766l-9.5596,7.61077l-4.89092,-3.89766" fill="#2c2d2e" stroke-width="0.27824"/><g><path d="M422.43183,160.87919l9.60404,-7.65692" fill="#000000" stroke-width="0.27824"/><path d="M432.11321,153.39998l-9.61414,7.64968l-0.1489,-0.20132l9.61422,-7.64968z" fill="#ffffff" stroke-width="0.27816"/></g><g><path d="M428.22703,150.66768l6.80287,5.39679" fill="#000000" stroke-width="0.27824"/><path d="M435.13084,155.91371l-0.25701,0.34778l-6.79335,-5.40208l0.25701,-0.34778z" fill="#2c2d2e" stroke-width="0.27817"/></g><g><g fill="#000000"><path d="M433.12519,157.48895l-6.60277,-5.39679" stroke-width="0.27824"/><path d="M433.19455,157.49237l-0.13774,0.18105l-6.59593,-5.40159l0.13774,-0.18097z" stroke-width="0.27815"/></g><g fill="#2c2d2e" stroke-width="0.27824"><path d="M426.65585,151.90768l6.60277,5.39671l-0.26677,0.36902l-6.60277,-5.41975l0.26677,-0.34598"/><path d="M433.41419,157.28137l-0.3779,0.53046l-6.78065,-5.55814l0.3779,-0.53046zM432.96954,157.512l0.13343,-0.16143l-6.42489,-5.2584l-0.13343,0.16151z"/></g></g><g><g fill="#000000"><path d="M424.58825,153.61434l6.60277,5.39679" stroke-width="0.27824"/><path d="M431.22097,158.92947l-0.13782,0.18105l-6.59593,-5.40159l0.13782,-0.18097z" stroke-width="0.27815"/></g><g fill="#2c2d2e" stroke-width="0.27824"><path d="M424.69945,153.42986l6.60277,5.41975l-0.24455,0.34598l-6.60277,-5.39671l0.24455,-0.36902"/><path d="M431.45787,158.82658l-0.37798,0.53046l-6.78065,-5.55814l0.37798,-0.53046zM431.03544,159.03416l0.13335,-0.16143l-6.42489,-5.2584l-0.13343,0.16143z"/></g></g><g><g fill="#000000"><path d="M422.6986,155.11345l6.60277,5.41975" stroke-width="0.27824"/><path d="M429.37008,160.51579l-0.13774,0.18105l-6.59593,-5.40159l0.13774,-0.18097z" stroke-width="0.27815"/></g><g fill="#2c2d2e" stroke-width="0.27824"><path d="M422.83195,154.95203l6.58055,5.39671l-0.24455,0.36902l-6.60277,-5.41983l0.26677,-0.3459"/><path d="M429.56814,160.3257l-0.3779,0.53046l-6.78065,-5.55822l0.3779,-0.53046zM429.14572,160.55632l0.13343,-0.16143l-6.42489,-5.2584l-0.13343,0.16143z"/></g></g><g><g fill="#000000"><path d="M427.41172,162.12458l-6.60285,-5.39671" stroke-width="0.27824"/><path d="M427.44942,162.0229l-0.13774,0.18097l-6.59593,-5.40151l0.13774,-0.18105z" stroke-width="0.27815"/></g><g fill="#2c2d2e" stroke-width="0.27824"><path d="M420.92008,156.54332l6.60277,5.39679l-0.24455,0.36894l-6.60277,-5.41975l0.24455,-0.34598"/><path d="M427.6785,161.91699l-0.37798,0.53046l-6.78065,-5.55814l0.37798,-0.53046zM427.25607,162.14762l0.13335,-0.16143l-6.42489,-5.25831l-0.13335,0.16143z"/></g></g><path d="M425.87767,163.5423l-1.11155,-0.87644l9.5596,-7.61077l1.13377,0.87636" fill="#feeb9b" stroke-width="0.27824"/><path d="M428.34539,150.28107l1.0894,0.87636l-9.5596,7.61077l-1.11163,-0.87636" fill="#feeb9b" stroke-width="0.27824"/><g><path d="M421.05343,159.72605l3.04572,2.42157" fill="#000000" stroke-width="0.27824"/><path d="M424.15597,162.03446l-0.12171,0.16477l-3.05264,-2.42743l0.12171,-0.16477z" fill="#2c2d2e" stroke-width="0.27817"/></g><path d="M429.44066,151.15654l9.5596,-7.61077l4.89092,3.89766l-9.5596,7.61077l-4.89092,-3.89766" fill="#2c2d2e" stroke-width="0.27824"/><g><path d="M431.99729,153.26754l9.60404,-7.65692" fill="#000000" stroke-width="0.27824"/><path d="M441.67866,145.82903l-9.61414,7.64968l-0.1489,-0.20132l9.61422,-7.64968z" fill="#ffffff" stroke-width="0.27816"/></g><g><path d="M437.9553,143.09673l6.80287,5.39679" fill="#000000" stroke-width="0.27824"/><path d="M444.89982,148.38345l-0.25701,0.34778l-6.79335,-5.40208l0.25701,-0.34778z" fill="#2c2d2e" stroke-width="0.27817"/></g><g><g fill="#000000"><path d="M436.08788,144.48049l6.60277,5.39679" stroke-width="0.27824"/><path d="M442.76001,149.84001l-0.13774,0.18105l-6.59593,-5.40159l0.13774,-0.18097z" stroke-width="0.27815"/></g><g fill="#2c2d2e" stroke-width="0.27824"><path d="M436.22131,144.29602l6.60277,5.39671l-0.26677,0.36902l-6.60277,-5.41975l0.26677,-0.34598"/><path d="M442.97965,149.66968l-0.3779,0.53046l-6.78065,-5.55814l0.3779,-0.53046zM442.535,149.90033l0.13343,-0.16143l-6.42489,-5.2584l-0.13343,0.16151z"/></g></g><g><g fill="#000000"><path d="M434.1537,146.00266l6.60277,5.39679" stroke-width="0.27824"/><path d="M440.78643,151.31781l-0.13782,0.18105l-6.59593,-5.40159l0.13782,-0.18097z" stroke-width="0.27815"/></g><g fill="#2c2d2e" stroke-width="0.27824"><path d="M434.26491,145.8182l6.60277,5.41975l-0.24455,0.34598l-6.60277,-5.39671l0.24455,-0.36902"/><path d="M441.02333,151.2149l-0.37798,0.53046l-6.78065,-5.55814l0.37798,-0.53046zM440.6009,151.4225l0.13335,-0.16143l-6.42489,-5.2584l-0.13343,0.16143z"/></g></g><g><g fill="#000000"><path d="M432.26406,147.50179l6.60277,5.41975" stroke-width="0.27824"/><path d="M438.93554,152.94483l-0.13774,0.18105l-6.59593,-5.40159l0.13774,-0.18097z" stroke-width="0.27815"/></g><g fill="#2c2d2e" stroke-width="0.27824"><path d="M432.3974,147.34038l6.58055,5.39671l-0.24455,0.36902l-6.60277,-5.41983l0.26677,-0.3459"/><path d="M439.1336,152.71404l-0.3779,0.53046l-6.78065,-5.55822l0.3779,-0.53046zM438.71117,152.94466l0.13343,-0.16143l-6.42489,-5.2584l-0.13343,0.16143z"/></g></g><g><g fill="#000000"><path d="M430.37433,149.11621l6.60285,5.39671" stroke-width="0.27824"/><path d="M437.01487,154.45194l-0.13774,0.18097l-6.59593,-5.40151l0.13774,-0.18105z" stroke-width="0.27815"/></g><g fill="#2c2d2e" stroke-width="0.27824"><path d="M430.48553,148.93166l6.60277,5.39679l-0.24455,0.36894l-6.60277,-5.41975l0.24455,-0.34598"/><path d="M437.24396,154.30533l-0.37798,0.53046l-6.78065,-5.55814l0.37798,-0.53046zM436.82153,154.53595l0.13335,-0.16143l-6.42489,-5.25831l-0.13335,0.16143z"/></g></g><path d="M435.44313,155.93065l-1.11155,-0.87644l9.5596,-7.61077l1.13377,0.87636" fill="#feeb9b" stroke-width="0.27824"/><path d="M437.91085,142.66941l1.0894,0.87636l-9.5596,7.61077l-1.11163,-0.87636" fill="#feeb9b" stroke-width="0.27824"/></g><path d="M449.16178,152.01639l-23.58412,26.93514l-17.61621,-15.39235l23.58413,-26.93507z" fill="url(#color-2)" stroke="none" stroke-width="0.99172"/></g></g></svg>