<svg version="1.1" xmlns="http://www.w3.org/2000/svg" xmlns:xlink="http://www.w3.org/1999/xlink" width="86.017" height="65.9746" viewBox="0,0,86.017,65.9746"><g transform="translate(-199.066,-146.8524)"><g data-paper-data="{&quot;isPaintingLayer&quot;:true}" fill-rule="nonzero" stroke="none" stroke-linecap="butt" stroke-linejoin="miter" stroke-miterlimit="10" stroke-dasharray="" stroke-dashoffset="0" style="mix-blend-mode: normal"><path d="M242.0745,146.8524l43.0085,32.9873l-43.0085,32.9873l-43.0085,-32.9873zM199.066,146.8524zM285.083,212.827z" fill="#6cc924" stroke-width="0.04598"/><path d="M228.20179,178.02598c1.50056,0 2.86138,0.38488 3.84649,1.00687c0.9851,0.62199 1.59449,1.48109 1.59449,2.42954c0,0.94845 -0.60939,1.80755 -1.59449,2.42954c-0.9851,0.62199 -2.34592,1.00687 -3.84649,1.00687c-1.50056,0 -2.86138,-0.38488 -3.84649,-1.00687c-0.9851,-0.62199 -1.59449,-1.48109 -1.59449,-2.42954c0,-0.94845 0.60939,-1.80755 1.59449,-2.42954c0.9851,-0.62199 2.34592,-1.00687 3.84649,-1.00687z" fill="#65bd22" stroke-width="1"/><g stroke-width="0.01418"><g><g><path d="M222.4426,162.80602h5.68302v16.351h-5.68302z" fill="none"/><path d="M226.59939,176.8513v0c-1.39644,0.50343 -2.43561,1.83481 -4.14053,2.2733c0.51958,-1.16918 0.89301,-2.12714 1.47754,-3.08509c0.43837,-0.89312 0.29232,-1.25028 -0.66575,-1.33149c-0.21111,-0.81191 0.37354,-1.33149 0.6008,-1.91603c0.21111,-0.64948 1.02302,-1.23401 0,-1.89976c-0.22726,-0.08121 -0.08121,-0.45464 0,-0.66575c1.02302,-2.43561 2.20835,-4.87122 3.37742,-7.16067c0.16231,-0.22738 0.38969,-0.35727 0.66575,-0.14616c0.43837,0.66575 0,1.39644 -0.06495,2.1434c0,0.51958 -0.14616,1.0229 -0.21111,1.6237c0.1299,0.87686 -1.18533,1.39644 -0.6008,2.43561c0,0.14616 0.08121,0.29221 0.08121,0.35716c-0.45464,0.95807 -0.66575,1.93229 -0.37354,2.8741c0,0.16231 -0.0811,0.30847 -0.14605,0.35716c-1.03928,0.66575 -0.14616,1.03917 0.211,1.47766c0.22738,0.6008 0.22738,1.18533 0.30859,1.85108c0,0.29221 -0.14616,0.58453 -0.51958,0.81179z" fill="#20a900"/></g></g><g><g><path d="M220.6402,162.1728h7.29057v12.56763h-7.29057z" fill="none"/><path d="M227.76846,162.83843v0c-1.25028,2.58177 -2.50056,5.24476 -3.83205,7.90763c0.37342,0.35727 0.66575,-0.16231 1.10412,0c-0.29221,1.46139 -1.10412,2.63046 -1.76986,3.96195c-0.58453,-0.14616 -1.25028,-0.22738 -1.83481,-0.43849c-0.29221,-0.0811 -1.18533,-0.0811 -0.6008,-0.89301c0.97434,-0.29221 1.47766,-1.16907 2.1434,-1.81855c0.14605,-0.22738 0.6008,-0.6008 -0.06495,-0.74696c-0.51958,-0.14616 -1.03917,-0.29221 -1.76986,-0.43837c1.10412,-0.95807 2.06207,-1.85108 3.02014,-2.66299c-0.45464,-0.66575 -1.25028,-0.29221 -1.76986,-0.81179c0.29221,-0.73069 1.18533,-0.95807 1.6237,-1.62382c1.18533,-1.0229 2.12714,-2.43561 3.62094,-3.08509c0.1299,0.06495 0.21111,0.1299 0.27606,0.29232c0,0.14616 -0.06495,0.22726 -0.14616,0.35716z" fill="#35db00"/></g></g><g><g><path d="M228.06067,162.67612h5.13102v13.88297h-5.13102z" fill="none"/><path d="M232.4123,176.47788v0h-0.14616l-0.0811,-0.08121c-0.29232,-0.29221 -0.89312,0 -1.10423,-0.50332c-0.30847,-0.51958 -0.43837,-1.10412 -0.30847,-1.70492c0.74696,-1.18533 0.38969,-2.12714 -0.50332,-3.00399c0.06495,-0.89301 -0.37354,-1.54249 -0.51958,-2.37066c-0.35727,-1.0229 -0.35727,-2.20824 -1.18533,-3.08509c-0.34101,-0.97422 -0.86059,-1.91591 -0.06495,-2.9552c1.0229,-0.37342 1.6237,0.5197 2.27318,0.95807c0.30847,0.66575 0.89312,0.81179 1.33149,1.18533c0.16231,0.73069 -1.39644,1.0229 -0.50332,1.98097c0.211,0.74685 0.73058,1.41259 0.58453,2.14329c0.0811,0 0.06495,0 0.0811,0c-0.45464,0.22738 -0.66563,0.51958 -0.30847,0.81191c1.03917,1.03917 1.10412,2.3544 0.97422,3.66963c0.1299,0.74685 0,1.55875 0.21111,2.37066c0.14616,0.73069 -0.29232,0.66575 -0.73069,0.58453z" fill="#209900"/></g></g><g><g><path d="M226.58312,175.89335h2.89025v5.92666h-2.89025z" fill="none"/><path d="M226.59939,176.8513v0c0.14605,-0.22726 0.211,-0.51958 0.29221,-0.74685c0.14616,-0.14616 0.35727,-0.21111 0.58453,-0.21111c0.66575,0.14616 0.6008,0.73069 0.81191,1.10412c0.43837,-0.89301 0.79564,-0.29232 1.10412,0.06495c0.1299,0.29232 0,0.6008 -0.08121,0.89301c0,0.73069 0.08121,1.5426 0,2.28956c0,0.64948 0.43849,1.6237 -0.89301,1.54249c-1.08797,0 -1.81855,-0.29221 -1.81855,-1.6237c0.06495,-1.10412 0,-2.20835 0,-3.31247z" fill="#7f471c"/></g></g><g><g><path d="M232.4123,173.37652h3.34489v3.88074h-3.34489z" fill="none"/><path d="M232.4123,176.47788v0c0.1299,-0.08121 0.58453,-0.22738 0.51958,-0.29232c-1.12038,-0.89301 0,-1.85108 -0.16231,-2.72782c0.06495,-0.01627 0.0811,-0.08121 0.16231,-0.08121c0.06495,0 0.06495,0.08121 0.1299,0.08121c0.81191,1.25028 1.91603,2.27318 2.66299,3.76711c-1.25028,-0.22738 -2.28945,-0.37354 -3.31247,-0.74696z" fill="#35a700"/></g></g><g><g><path d="M229.22985,175.43871h2.98761v4.46527h-2.98761z" fill="none"/><path d="M229.31095,177.95542v0c-0.0811,-0.29221 -0.0811,-0.66563 -0.0811,-0.95796c0.0811,-0.08121 0.0811,-0.08121 0.16231,-0.14616c0.21111,0 0.43837,0 0.43837,-0.37342c0,-0.51958 0.29232,-0.89312 0.81191,-1.02302c0.35727,-0.0811 0.51958,0.1299 0.64948,0.35727c0.30859,0.22738 0.6008,0.37342 0.89312,0.58453c-1.25028,-0.29221 -1.47766,0.22738 -1.02302,1.33149c0.1299,0.43837 0.27606,0.89301 0.43849,1.33149c0.06495,0.29221 0.43837,0.73058 -0.22738,0.81179c-0.51958,-0.66575 -0.95796,-1.25028 -1.39644,-1.91603c-0.22726,-0.29221 -0.45464,-0.29221 -0.66575,0z" fill="#35a700"/></g></g><g><g><path d="M231.55171,169.02488h2.8253v4.46527h-2.8253z" fill="none"/><path d="M232.76958,173.45774v0c-0.22738,-1.25028 -0.14616,-2.56551 -1.10412,-3.66963c-0.29232,-0.30859 0,-0.74696 0.60068,-0.74696c-0.60068,0.74696 0.14616,1.10412 0.50343,1.25028c1.03917,0.6008 1.10412,1.70492 1.54249,2.56551c0.16243,0.30847 -0.1299,0.22738 -0.35716,0.30847c-0.43849,-0.22726 -0.81191,-0.30847 -1.10423,0.21111z" fill="#35a700"/></g></g><g><g><path d="M231.50303,166.8816h1.96471v2.40308h-1.96471z" fill="none"/><path d="M232.18504,169.04115v0c-0.37354,-0.66575 -0.89312,-1.25028 -0.58453,-2.14329c1.0229,0.45464 1.76986,1.12038 1.83481,2.28945c-0.43849,0.22726 -0.81191,-0.06495 -1.25028,-0.14616z" fill="#35a700"/></g></g><g><g><path d="M220.81889,171.54171h2.1757v1.86734h-2.1757z" fill="none"/><path d="M222.97845,171.55797v0c-0.43849,0.95796 -0.95807,1.7536 -2.1434,1.81855c0.66575,-0.66575 1.41271,-1.31523 2.1434,-1.81855z" fill="#3cdc00"/></g></g><g><g><path d="M230.77234,163.94266h1.36391v0.99049h-1.36391z" fill="none"/><path d="M230.77234,163.95882v0c0.16243,0 0.30847,0.06495 0.51958,0.06495c0.14616,0.45464 0.81191,0.37354 0.81191,0.89312c-0.58453,-0.16243 -1.16907,-0.22738 -1.33149,-0.95807z" fill="#66b500"/></g></g><g><g><path d="M226.43696,165.14415h1.98097v10.99273h-1.98097z" fill="none"/><path d="M227.47613,176.10446v0h-0.58453c-0.37342,-0.5197 -0.08121,-1.16918 -0.29221,-1.76998c0.37342,-0.58453 -0.45464,-1.16907 0,-1.7536v0c0.14605,-1.10412 0.58453,-2.14329 0.29221,-3.24741v0c-0.37342,-1.02302 0.74696,-1.68877 0.58453,-2.64672c-0.29221,-0.51958 0.08121,-0.95807 0,-1.47766c0.16243,-0.0811 0.29232,-0.0811 0.43849,0c0.50332,0.43849 0.50332,1.03928 0.43837,1.62382c0,2.50056 -0.06495,5.01727 0,7.58278c0,0.66575 -0.1299,1.31523 -0.87686,1.68877z" fill="#178e00"/></g></g><g><g><path d="M226.17717,169.31721h1.12038v3.27994h-1.12038z" fill="none"/><path d="M226.8916,169.33347v0c0.58453,1.03917 0.51958,2.43561 -0.29221,3.24741c-0.66575,-1.16907 -0.45464,-2.20824 0.29221,-3.24741z" fill="#179b00"/></g></g><g><g><path d="M225.33284,172.56461h1.72118v1.8024h-1.72118z" fill="none"/><path d="M226.59939,172.58088v0c0.211,0.58453 0.87674,1.16907 0,1.7536c0,-0.06495 -0.08121,-0.06495 -0.08121,-0.14605c-0.43837,-0.22738 -1.16907,-0.22738 -1.16907,-0.87686c0,-0.6008 0.87674,-0.37342 1.25028,-0.73069z" fill="#179f00"/></g></g><g><g><path d="M226.27465,166.67049h1.2827v2.67914h-1.2827z" fill="none"/><path d="M227.47613,166.68675v0c0.22738,0.95796 -0.22726,1.83481 -0.58453,2.64672c-0.43837,-0.58465 -1.18533,-1.18533 0.14616,-1.68877c0.29221,-0.14605 0,-0.74685 0.43837,-0.95796z" fill="#179b00"/></g></g><g><g><path d="M227.45998,162.52996h0.87674v2.6954h-0.87674z" fill="none"/><path d="M227.76846,165.2091v0h-0.29232c0,-0.81179 0.43849,-1.55875 0.29232,-2.37066v-0.29221c0.79564,0.89301 0.64948,1.76986 0,2.66287z" fill="#209900"/></g></g><g><g><path d="M227.45998,162.20522h2.48429v14.98709h-2.48429z" fill="none"/><path d="M227.76846,165.2091v0c0.14616,-0.89301 0.64948,-1.76986 0,-2.66287v-0.22738c0.45464,-0.27594 0.64948,0.08121 0.95796,0.45464c-0.64948,1.03928 -0.16231,2.06219 0.21111,3.02014c0.22738,0.66575 0.45464,1.33149 0.58453,2.06219c0.30847,2.37066 -0.06495,4.72506 0.37342,7.07946c0.08121,0.73069 -0.22726,1.46139 -0.66563,2.06219v0c-0.06495,-0.08121 -0.22738,-0.14616 -0.22738,-0.08121c-1.08785,0.81191 -1.00675,-0.58453 -1.52634,-0.81179c0.9418,-1.91603 0.37354,-3.96195 0.43849,-5.87798c0.0811,-1.25028 0.30847,-2.51683 0.16231,-3.76711c-0.08121,-0.43837 -0.08121,-0.87674 -0.30847,-1.25028z" fill="#177c00"/></g></g><g><g><path d="M229.19731,167.83955h2.58177v9.27154h-2.58177z" fill="none"/><path d="M229.22985,176.99747v0c0.43837,-3.03641 -0.14616,-6.10524 0,-9.14165c0.74685,0.08121 0.43837,0.74696 0.66563,1.18533c0.14616,0.66575 0.66575,1.33149 0.5197,2.06219c1.18533,0.81179 1.99713,1.60744 0.58453,2.93893c-0.73069,-0.29232 -0.50343,-1.03917 -0.81191,-1.52634c0,-0.03242 0.08121,-0.08121 0,-0.08121c0,0.14616 0.08121,0.27606 0.08121,0.35727c0.14616,0.95796 0.73069,1.76986 0.43837,2.72782c-0.21111,0.29232 -0.66575,0.5197 -0.58453,1.03928c0.06495,0.79564 -0.51958,0.43837 -0.89301,0.43837z" fill="#179200"/></g></g><g><g><path d="M230.05791,172.23987h1.26655v3.60479h-1.26655z" fill="none"/><path d="M230.70739,175.51981v0c-0.14616,-0.95796 -0.66575,-1.91591 -0.58453,-2.93893c-0.14616,-0.29221 0,-0.37342 0.29232,-0.29221c0.22726,0.56827 0.35716,1.16907 0.58453,1.7536c-0.06495,0.58453 0.22726,1.18533 0.29221,1.76986c-0.21111,-0.08121 -0.35716,-0.22738 -0.58453,-0.29232z" fill="#17c200"/></g></g><g><g><path d="M228.93752,165.77748h1.21786v3.27994h-1.21786z" fill="none"/><path d="M229.83053,169.04115v0c-0.43837,-0.22738 -0.16231,-0.95796 -0.60068,-1.18533c-0.06495,-0.66575 -0.22738,-1.39644 -0.29232,-2.06219c0.81191,0.81191 0.81191,1.99724 1.18533,2.9552c-0.14616,0.06495 -0.14616,0.29232 -0.29232,0.29232z" fill="#17ab00"/></g></g><g><g><path d="M229.83053,168.73267h0.84444v2.38681h-0.84444z" fill="none"/><path d="M229.83053,169.04115v0c0.06495,-0.06495 0.21111,-0.22738 0.29232,-0.29232c-0.08121,0.81191 0.95796,1.47766 0.29232,2.35451c-0.29232,-0.66575 -0.58465,-1.31523 -0.58465,-2.06219z" fill="#17bc00"/></g></g><g><g><path d="M229.81438,171.60666h0.63322v0.99049h-0.63322z" fill="none"/><path d="M230.41518,172.28867v0c-0.08121,0.06495 -0.22738,0.22726 -0.29232,0.29221c-0.29232,-0.29221 -0.45464,-0.58453 -0.14616,-0.95796c0.14616,0.22726 0.29232,0.43837 0.43849,0.66575z" fill="#17b100"/></g></g></g></g></g></svg>