<svg xmlns="http://www.w3.org/2000/svg" xmlns:xlink="http://www.w3.org/1999/xlink" width="25.099" height="20.375" version="1.1" viewBox="-0.2 0.154 25.099 20.375"><g id="ID0.5141469733789563"><g id="ID0.358306766487658"><g id="ID0.045219899620860815"><g id="container-id1"><g id="id1"><g id="ID0.7180701862089336"><g id="ID0.9010128821246326"><g id="id6"><path id="ID0.44769747694954276" fill="none" stroke="none" stroke-width=".024" d="M 0.2998 0.6539 L 24.3993 0.6539 L 24.3993 20.029 L 0.2998 20.029 L 0.2998 0.6539 Z"/><path id="ID0.2315921294502914" fill="#3D3D3D" stroke="none" stroke-width=".024" d="M 12.1982 16.2069 L 12.1982 16.2069 C 10.2656 14.7886 8.3563 13.3463 6.4237 11.904 C 6.3771 11.904 6.3305 11.8799 6.284 11.8559 C 5.8881 11.7117 5.6087 11.3992 5.2827 11.1828 C 4.8869 10.7021 4.4212 10.2453 4.1418 9.6924 C 3.9788 9.404 3.7459 9.1876 3.5364 8.9472 C 3.3035 8.7068 3.0008 8.7068 2.7214 8.7068 C 2.442 8.4424 2.1859 8.1299 1.8832 7.8895 C 1.4408 7.5049 1.0915 7.0001 0.6724 6.6155 C 0.3231 6.303 0.2766 5.9184 0.3231 5.4857 C 0.3464 5.1972 0.393 4.9087 0.5327 4.6443 C 0.9285 4.7885 1.2079 5.077 1.5339 5.3174 C 2.6749 6.1588 3.7925 6.9761 4.9102 7.8415 C 5.0033 7.9136 5.1197 7.9857 5.2361 8.0097 C 5.8415 7.9857 6.4237 7.8174 7.0058 7.7453 C 7.1688 7.7213 7.3085 7.6491 7.4482 7.7934 C 7.4482 7.9857 7.2852 7.9376 7.1688 7.9857 C 6.7264 8.154 6.2374 8.2261 5.7251 8.4424 C 8.822 10.7261 11.8489 12.9857 14.9225 15.2454 C 14.7362 14.38 14.5034 13.5867 14.3637 12.7694 C 14.387 12.6492 14.4568 12.5771 14.5499 12.6973 C 14.6198 12.7934 14.6431 12.9376 14.7129 13.0578 C 15.1088 13.9953 15.4348 14.9809 15.8539 15.9184 C 16.273 16.4232 16.6921 16.9281 17.1345 17.4088 C 17.2277 17.529 17.3674 17.6252 17.3674 17.7935 C 17.2975 18.106 17.1345 18.3944 17.0647 18.6829 C 16.9948 18.8752 17.0181 19.0915 17.0181 19.3079 C 16.9948 19.5483 17.2975 19.6685 17.2044 19.9329 C 16.9017 19.7165 16.599 19.5002 16.273 19.2598 C 15.8073 19.0915 15.4813 18.731 15.0855 18.4665 C 14.7362 18.0338 14.3171 17.6733 13.9911 17.2165 C 13.7583 16.88 13.5021 16.5675 13.1529 16.3271 C 12.8502 16.1107 12.5242 16.1107 12.1982 16.2069 Z"/><path id="ID0.36677903681993484" fill="#313131" stroke="none" stroke-width=".024" d="M 5.1896 8.0818 L 5.1896 8.0818 C 4.7472 7.9376 4.4445 7.577 4.0719 7.3366 C 2.931 6.4953 1.79 5.6299 0.6491 4.7645 C 0.6025 4.7405 0.5793 4.6924 0.5327 4.6443 C 0.8354 4.0914 1.1614 3.5866 1.6969 3.2501 C 2.6749 2.6251 3.6062 1.9279 4.5609 1.3029 C 5.0732 0.9424 5.7018 0.8943 6.284 0.6779 C 6.3538 0.6299 6.4702 0.726 6.5634 0.7741 C 8.0303 1.5193 9.4739 2.2885 10.9408 3.0578 C 11.0573 3.1299 11.197 3.178 11.3134 3.226 C 11.4531 3.3222 11.6161 3.4183 11.7558 3.5145 C 11.7791 3.6347 11.6627 3.6587 11.5695 3.6828 C 10.4519 4.2597 9.3342 4.8126 8.2166 5.3895 C 7.7742 5.5818 7.4715 5.9424 7.1688 6.2789 C 6.6099 6.8318 6.0278 7.3607 5.4923 7.9136 C 5.3991 8.0097 5.3293 8.0818 5.1896 8.0818 Z"/><path id="ID0.3351324344985187" fill="#262626" stroke="none" stroke-width=".024" d="M 12.1982 16.2069 L 12.1982 16.2069 C 12.5009 15.9184 12.8036 16.0386 13.1063 16.1829 C 13.4789 16.3992 13.7816 16.7117 14.0377 17.0963 C 14.3404 17.6011 14.7828 17.9617 15.1553 18.4185 C 14.8992 18.8031 14.5732 19.0194 14.1541 19.1396 C 13.5254 19.1637 13.1529 18.731 12.7803 18.3223 C 12.4543 17.9136 12.2448 17.4809 12.1284 16.9761 C 12.0818 16.7358 12.1051 16.4473 12.1982 16.2069 Z"/><path id="ID0.5928625375963748" fill="#262626" stroke="none" stroke-width=".024" d="M 2.7214 8.7068 L 2.7214 8.7068 C 3.0241 8.5145 3.3035 8.6347 3.5597 8.8511 C 3.7925 9.0434 4.0021 9.2838 4.1418 9.5722 C 4.4445 10.1732 4.9567 10.6059 5.306 11.1347 C 5.143 11.4713 4.8403 11.6396 4.4678 11.7117 C 3.8158 11.7357 3.4432 11.279 3.0707 10.7982 C 2.8146 10.4617 2.605 10.053 2.5351 9.6203 C 2.442 9.2597 2.442 8.9472 2.7214 8.7068 Z"/><path id="ID0.5147991999983788" fill="#929191" stroke="none" stroke-width=".024" d="M 14.3171 19.2117 L 14.3171 19.2117 C 14.2472 19.1877 14.2007 19.1637 14.1541 19.1396 Z"/><path id="ID0.4724537907168269" fill="#929191" stroke="none" stroke-width=".024" d="M 16.273 19.2598 L 16.273 19.2598 Z"/><path id="ID0.17520350078120828" fill="none" stroke="none" stroke-linejoin="round" stroke-width="0" d="M 1167 1082 L 1167 1082 Z" transform="matrix(0.023284487426280975,6.5995196182815084e-34,-6.3924760330158365e-34,0.024038640782237053,-10.9,-6.75)"/><path id="ID0.33534536231309175" fill="#484646" stroke="none" stroke-width=".024" d="M 17.2044 19.9329 L 17.2044 19.9329 C 17.1578 19.7165 16.925 19.5964 16.925 19.356 C 16.9948 19.2838 17.088 19.2358 17.2044 19.2117 C 17.7399 19.0675 18.2522 18.8992 18.7877 18.755 C 18.9274 18.731 19.0671 18.6588 19.2068 18.779 C 18.9507 19.0194 18.648 19.1637 18.3686 19.356 C 18.0659 19.5242 17.8098 19.7165 17.5071 19.9089 C 17.4139 19.9569 17.3208 20.0771 17.2044 19.9329 Z"/><path id="ID0.20975186489522457" fill="#929191" stroke="none" stroke-width=".024" d="M 5.306 11.1347 L 5.306 11.1347 C 5.6786 11.3271 5.9813 11.5915 6.284 11.8559 Z"/><path id="ID0.5071036396548152" fill="#313131" stroke="none" stroke-width=".024" d="M 13.1994 4.1395 L 13.1994 4.1395 C 14.1308 4.8366 15.0622 5.5097 16.0169 6.1828 C 16.9482 6.8559 17.9029 7.553 18.8343 8.2501 C 18.9274 8.2982 19.0671 8.3703 19.0671 8.4905 C 18.9041 8.9953 18.5782 9.3319 18.2056 9.6684 C 17.8563 10.0049 17.4605 10.3415 17.0647 10.6299 C 16.273 11.1347 15.458 11.5915 14.5732 11.8319 C 14.4568 11.8799 14.3171 11.9521 14.1774 11.928 C 13.6418 11.6396 13.1762 11.2309 12.7105 10.8703 C 11.3833 9.9088 10.0328 8.9232 8.7055 7.9376 C 8.5891 7.8655 8.4727 7.7934 8.3796 7.6491 C 8.3563 7.4568 8.4727 7.3607 8.5658 7.2645 C 9.1712 6.7116 9.7533 6.1588 10.3355 5.6059 C 10.4286 5.5097 10.5683 5.4616 10.6847 5.3895 C 11.3833 5.0289 12.1051 4.6443 12.8036 4.2837 C 12.92 4.2116 13.0365 4.1395 13.1994 4.1395 Z"/><path id="ID0.4422818198800087" fill="#484858" stroke="none" stroke-width=".024" d="M 17.0647 10.5578 L 17.0647 10.5578 C 17.8098 9.9569 18.5316 9.3319 19.0671 8.4905 C 19.3465 8.4424 19.463 8.7068 19.6027 8.8511 C 20.4642 9.5482 21.3024 10.2453 22.1407 10.9424 C 22.2571 11.0626 22.3968 11.1588 22.3735 11.3511 C 22.4667 11.4713 22.3968 11.5674 22.3502 11.6876 C 22.1873 12.1203 22.0243 12.5771 21.8147 12.9857 C 21.2792 13.6828 20.7203 14.3078 20.0218 14.8127 C 19.9519 14.8367 19.9287 14.8127 19.8821 14.7886 C 19.6027 14.1636 19.137 13.6588 18.7412 13.1059 C 18.2755 12.4328 17.7632 11.8319 17.2975 11.1588 C 17.1811 10.9905 16.9948 10.8222 17.0647 10.5578 Z"/><path id="ID0.223691841121763" fill="#1F1F1F" stroke="none" stroke-width=".024" d="M 19.8821 14.7646 L 19.8821 14.7646 C 19.9287 14.7646 19.9752 14.7646 19.9985 14.7646 C 20.3711 14.8607 20.6039 14.7165 20.8368 14.4521 C 21.023 14.1636 21.2559 13.8992 21.4887 13.6828 C 21.675 13.4905 21.6983 13.2261 21.7449 12.9857 C 21.9544 12.4328 22.164 11.904 22.3735 11.3511 C 22.49 11.279 22.5598 11.3511 22.6064 11.4232 C 23.0721 11.9521 23.5145 12.4809 23.9569 13.0098 C 24.0267 13.1059 24.0034 13.2021 23.9569 13.3223 C 23.7473 13.8271 23.6309 14.3559 23.4213 14.8607 C 23.3282 15.1732 23.0954 15.3896 22.8392 15.5819 C 21.838 16.255 20.8833 17.0002 19.8821 17.6973 C 19.7424 17.7694 19.6027 17.8656 19.4397 17.8656 C 18.8809 17.8656 18.3453 17.9377 17.8098 17.8415 C 17.7632 17.8175 17.7166 17.7694 17.7166 17.7454 C 17.7166 17.3367 17.6934 16.9281 17.7632 16.5194 C 17.7865 16.3031 17.996 16.2309 18.1358 16.1348 C 18.3919 16.0146 18.5549 15.8463 18.4617 15.5098 C 18.4617 15.4857 18.4617 15.4617 18.485 15.4617 C 18.9274 15.1492 19.3698 14.8607 19.8821 14.7646 Z"/><path id="ID0.610075845848769" fill="#4F4F61" stroke="none" stroke-width=".024" d="M 13.1994 4.1395 L 13.1994 4.1395 C 12.4311 4.5482 11.6627 4.9809 10.871 5.3655 C 10.4984 5.5337 10.1725 5.8462 9.8698 6.1347 C 9.4041 6.5674 8.9384 7.0241 8.4727 7.4568 C 8.4261 7.5049 8.3796 7.577 8.4261 7.6491 C 8.0769 7.6732 7.7974 7.9376 7.4249 7.8415 C 7.1688 7.6732 6.8893 7.8655 6.6099 7.8895 C 6.1675 7.9376 5.7484 8.0338 5.306 8.1299 C 5.2594 8.154 5.2129 8.154 5.1896 8.0818 C 5.795 7.4809 6.4469 6.928 7.0058 6.303 C 7.6577 5.5818 8.4494 5.1251 9.2877 4.7405 C 10.1026 4.3318 10.9176 3.9232 11.7558 3.5145 C 12.2448 3.6587 12.7338 3.8991 13.1994 4.1395 Z"/><path id="ID0.7148164957761765" fill="#131313" stroke="none" stroke-width=".024" d="M 19.5328 17.7694 L 19.5328 17.7694 C 20.1382 17.4329 20.6738 16.9761 21.2792 16.5915 C 21.7681 16.255 22.2571 15.8463 22.7461 15.5098 C 23.0255 15.3415 23.2351 15.1492 23.3515 14.8607 C 23.6309 14.5002 23.8172 14.0915 24.0966 13.7309 C 24.1664 13.6107 24.213 13.4905 24.3527 13.4905 C 24.4226 13.803 24.3527 14.0915 24.2363 14.38 C 23.9569 14.8607 23.724 15.4136 23.3515 15.8463 C 22.0475 16.7838 20.7436 17.6973 19.463 18.6588 C 19.3698 18.7069 19.2767 18.731 19.2068 18.779 C 18.5316 18.8992 17.8796 19.1396 17.2277 19.3079 C 17.1345 19.3319 17.0181 19.356 16.925 19.356 C 16.925 19.1156 16.8551 18.8752 16.9715 18.6348 C 17.6468 18.4906 18.2755 18.154 18.9274 17.9617 C 19.1137 17.8896 19.3233 17.8175 19.5328 17.7694 Z"/><path id="ID0.38432395039126277" fill="#7B1919" stroke="none" stroke-width=".024" d="M 24.3527 13.4905 L 24.3527 13.4905 C 24.0267 13.8992 23.7939 14.38 23.4912 14.7886 C 23.4446 14.8367 23.4213 14.9329 23.3515 14.8607 C 23.561 14.2357 23.7473 13.6107 23.9569 13.0098 C 24.1432 13.13 24.2829 13.2982 24.3527 13.4905 Z"/><path id="ID0.377463539596647" fill="#5D4444" stroke="none" stroke-width=".024" d="M 23.3515 15.8463 L 23.3515 15.8463 C 23.6309 15.3415 23.8637 14.8127 24.2363 14.38 C 24.0966 14.9569 23.8637 15.4857 23.3515 15.8463 Z"/><path id="ID0.5684583224356174" fill="#606076" stroke="none" stroke-width=".024" d="M 7.4249 7.8415 L 7.4249 7.8415 C 7.7742 7.8415 8.0536 7.529 8.4261 7.6491 C 9.8698 8.7068 11.3134 9.7645 12.7803 10.8463 C 13.246 11.1828 13.7117 11.5434 14.1774 11.8799 C 14.4102 12.1203 14.387 12.4328 14.4102 12.7694 C 14.6198 13.6107 14.8294 14.5002 15.0622 15.4617 C 11.8489 13.0819 8.7055 10.7742 5.5156 8.3943 C 6.1908 8.202 6.8195 7.9857 7.4249 7.8415 Z"/><path id="ID0.6117870477028191" fill="#4F4F61" stroke="none" stroke-width=".024" d="M 14.4102 12.7694 L 14.4102 12.7694 C 14.2705 12.4809 14.2705 12.1684 14.1774 11.8799 C 15.0622 11.6155 15.9237 11.2309 16.7154 10.7261 C 16.8318 10.654 16.925 10.6059 17.0647 10.5578 C 17.4372 11.3511 18.0659 12.0001 18.5316 12.7213 C 18.9274 13.2742 19.3465 13.803 19.7657 14.3319 C 19.8588 14.4521 19.9054 14.5963 19.8821 14.7646 C 19.4164 15.005 18.9507 15.2454 18.5083 15.4857 C 18.3919 15.6781 18.2056 15.7261 18.0426 15.7502 C 17.3907 15.8704 16.7387 15.9665 16.0634 16.0386 C 15.9936 16.0627 15.9004 16.0386 15.8073 15.9906 C 15.458 15.3896 15.295 14.7165 15.0156 14.0675 C 14.8294 13.6107 14.6664 13.178 14.5034 12.7213 C 14.4801 12.7213 14.4801 12.7213 14.4801 12.6973 C 14.4568 12.7213 14.4335 12.7213 14.4102 12.7694 Z"/><path id="ID0.5621068137697875" fill="#1F1F1F" stroke="none" stroke-width=".024" d="M 15.8073 15.9906 L 15.8073 15.9906 C 16.4127 15.8944 17.0414 15.7982 17.6468 15.7021 C 17.9262 15.6781 18.2056 15.5819 18.5083 15.4857 C 18.6713 15.7021 18.6247 16.0386 18.3453 16.1348 C 17.8331 16.3271 17.7399 16.6636 17.8098 17.1444 C 17.8563 17.3608 17.7632 17.5531 17.7399 17.7694 C 17.6002 17.9136 17.4605 17.9136 17.3208 17.7694 C 16.8318 17.1684 16.3196 16.5915 15.8073 15.9906 Z"/><path id="ID0.3554665087722242" fill="#7A1A1A" stroke="none" stroke-width=".024" d="M 17.3208 17.7694 L 17.3208 17.7694 C 17.4605 17.7694 17.6002 17.7694 17.7399 17.7694 C 18.3453 17.7694 18.9274 17.7694 19.5328 17.7694 C 18.811 18.106 18.0659 18.3463 17.3208 18.6588 C 17.2044 18.6829 17.088 18.755 16.9715 18.6348 C 17.088 18.3463 17.2044 18.0579 17.3208 17.7694 Z"/><path id="ID0.9783568484708667" fill="#1F1F1F" stroke="none" stroke-width=".024" d="M 21.7449 12.9857 L 21.7449 12.9857 C 21.8846 13.2742 21.7449 13.4905 21.6051 13.6828 C 21.3024 14.0194 20.9997 14.3078 20.7436 14.6684 C 20.5108 14.9329 20.2779 14.9809 19.9985 14.7646 C 20.6505 14.2357 21.2093 13.6107 21.7449 12.9857 Z"/></g></g></g></g></g></g></g></g></svg>