<svg version="1.1" xmlns="http://www.w3.org/2000/svg" xmlns:xlink="http://www.w3.org/1999/xlink" width="134.75133" height="17.63086" viewBox="0,0,134.75133,17.63086"><g transform="translate(-7.72944,-336.86793)"><g data-paper-data="{&quot;isPaintingLayer&quot;:true}" fill-rule="nonzero" stroke="none" stroke-linecap="butt" stroke-linejoin="miter" stroke-miterlimit="10" stroke-dasharray="" stroke-dashoffset="0" style="mix-blend-mode: normal"><path d="M7.72944,354.49879v-17.63086h134.75133v17.63086z" fill="#000000" stroke-width="0"/><g fill="#ffffff" stroke-width="1"><path d="M115.38487,344.73504c-0.16617,-0.15885 -0.35557,-0.29146 -0.56167,-0.39325c-0.20604,-0.1064 -0.43375,-0.1641 -0.66561,-0.16869c-0.40627,-0.01135 -0.79783,0.15244 -1.07504,0.44966c-0.28203,0.29526 -0.43497,0.6906 -0.4251,1.09881c-0.01148,0.40544 0.12381,0.80138 0.38098,1.11502c0.25611,0.30589 0.64019,0.47485 1.03874,0.45697c0.24086,-0.00002 0.47891,-0.05185 0.69799,-0.15198c0.21639,-0.10755 0.42302,-0.23371 0.61756,-0.37705v1.56414c-0.23124,0.12241 -0.4745,0.22059 -0.72592,0.29297c-0.24537,0.05996 -0.4974,0.08822 -0.74995,0.08408c-0.79026,0.03583 -1.56,-0.25766 -2.1258,-0.81053c-0.54733,-0.57185 -0.83713,-1.34257 -0.80218,-2.13337c-0.0409,-0.83073 0.28289,-1.63793 0.88651,-2.21015c0.63212,-0.55806 1.45568,-0.84982 2.29814,-0.81418c0.42308,-0.00245 0.83987,0.10249 1.21135,0.30499z"/><path d="M115.74574,342.5531h1.49988v2.58303c0.1825,-0.16452 0.38147,-0.30978 0.59379,-0.43346c0.22055,-0.11385 0.46575,-0.1716 0.71393,-0.16816c0.36337,-0.02893 0.72111,0.1032 0.97843,0.36139c0.3008,0.48486 0.43076,1.05641 0.36922,1.62366v2.03363h-1.50016v-2.02736c0.01023,-0.17617 -0.02864,-0.35172 -0.1123,-0.5071c-0.10266,-0.14009 -0.26538,-0.22356 -0.43908,-0.22521c-0.17369,-0.00164 -0.33797,0.07872 -0.44327,0.21684c-0.10681,0.14352 -0.16326,0.31829 -0.16059,0.49719v2.04564h-1.49987z"/><path d="M123.40629,344.67081l1.50799,-0.00836c-0.01592,0.13943 -0.0269,0.2862 -0.03212,0.4413c-0.00522,0.15512 -0.00809,0.33163 -0.00809,0.52955c0,0.33685 0.00539,0.89024 0.0162,1.66021c0.01069,0.77031 0.016,1.17958 0.01592,1.22779h-1.52389l0.02403,-0.31284c-0.17278,0.13866 -0.36525,0.25078 -0.57108,0.33267c-0.69523,0.25411 -1.47462,0.08563 -2.00282,-0.43295c-0.33926,-0.4011 -0.51442,-0.91557 -0.49039,-1.44036c-0.02074,-0.54096 0.14964,-1.07198 0.48126,-1.49988c0.34346,-0.42322 0.8674,-0.65831 1.41188,-0.63349c0.21512,-0.00073 0.42809,0.04282 0.62565,0.12795c0.19686,0.08938 0.38043,0.20555 0.54547,0.3452zM122.71642,347.45438c0.22124,0.00819 0.43455,-0.08302 0.58151,-0.24859c0.14883,-0.17074 0.22764,-0.39142 0.22065,-0.61781c0.0072,-0.216 -0.07061,-0.4262 -0.21674,-0.58544c-0.14717,-0.15642 -0.35491,-0.24138 -0.56951,-0.23293c-0.23063,-0.00797 -0.45474,0.07731 -0.62173,0.23658c-0.32007,0.34415 -0.32696,0.87494 -0.01593,1.22727c0.16945,0.15368 0.39331,0.23321 0.62174,0.22091z"/><path d="M125.50782,346.7483c0,-0.31021 -0.0027,-0.5642 -0.00809,-0.76195c-0.02141,-0.78076 -0.03211,-1.20865 -0.03211,-1.28368h1.50014v0.43346c0.13906,-0.1277 0.28592,-0.24666 0.43972,-0.35616c0.26313,-0.16585 0.569,-0.25118 0.87999,-0.24547c0.40206,-0.03451 0.79488,0.13351 1.04763,0.44809c0.21771,0.34048 0.32133,0.74144 0.29585,1.14477v1.10506c0,0.14937 0.00539,0.40022 0.0162,0.75256c0.01044,0.35199 0.01575,0.54139 0.01592,0.56821h-1.52418v-2.12554c0.00627,-0.17393 -0.04912,-0.34448 -0.15642,-0.48152c-0.10959,-0.13101 -0.27469,-0.20246 -0.44521,-0.1927c-0.18763,-0.00286 -0.36045,0.10154 -0.44521,0.26895c-0.10351,0.17634 -0.15754,0.37732 -0.15642,0.58178c0,0.22456 0.00539,0.59746 0.0162,1.11866c0.01044,0.52172 0.01576,0.79852 0.01592,0.83037h-1.50016c0,-0.19793 0.0067,-0.49736 0.0201,-0.89827c0.01332,-0.40108 0.02003,-0.70328 0.0201,-0.90661z"/><path d="M133.13626,344.67081h1.51611v3.64997c0.03005,0.53029 -0.17538,1.04683 -0.56141,1.41163c-0.40739,0.34882 -0.93225,0.52956 -1.46804,0.50554c-0.62363,0.06134 -1.25191,-0.05413 -1.81297,-0.3332c-0.32278,-0.26149 -0.53481,-0.63533 -0.59353,-1.04657h1.50015c0.06306,0.11777 0.16115,0.21303 0.28071,0.27262c0.13898,0.04888 0.28602,0.07068 0.4332,0.06424c0.22961,0.01123 0.44738,-0.10241 0.56951,-0.29717c0.11956,-0.19784 0.17813,-0.42654 0.16842,-0.65749v-0.1285c-0.18092,0.1224 -0.3769,0.22088 -0.58308,0.29298c-0.19811,0.06722 -0.406,0.10111 -0.6152,0.10027c-0.51715,0.03139 -1.02185,-0.16674 -1.37951,-0.54157c-0.33945,-0.40362 -0.51328,-0.92092 -0.48647,-1.44765c-0.0211,-0.5255 0.16471,-1.03833 0.51754,-1.42835c0.36253,-0.37616 0.86966,-0.57772 1.3915,-0.55306c0.20932,-0.00215 0.41686,0.03874 0.60972,0.12012c0.1904,0.08857 0.37289,0.19322 0.54548,0.31284zM131.62017,346.5958c0.00109,0.20578 0.08495,0.40247 0.23267,0.54575c0.13973,0.15352 0.33789,0.2408 0.54547,0.24024c0.23718,0.01225 0.46814,-0.07834 0.63375,-0.24859c0.15965,-0.17773 0.24319,-0.41101 0.23266,-0.64968c0.0075,-0.21201 -0.07739,-0.41685 -0.23266,-0.56141c-0.15403,-0.14419 -0.35858,-0.22203 -0.56951,-0.21673c-0.23121,-0.00859 -0.4544,0.08546 -0.60973,0.25695c-0.15598,0.17348 -0.23926,0.4003 -0.23263,0.63348z"/><path d="M136.49745,346.9807c0.03796,0.43176 0.4184,0.75123 0.85022,0.71394c0.11974,-0.0004 0.2373,-0.03208 0.34103,-0.09192c0.11798,-0.06792 0.22709,-0.15019 0.32484,-0.24493h1.47586c-0.1787,0.41884 -0.48273,0.77205 -0.87032,1.01106c-0.41238,0.22097 -0.8759,0.32891 -1.34348,0.31285c-0.57481,0.03319 -1.1413,-0.14954 -1.58841,-0.51232c-0.41905,-0.40089 -0.63929,-0.96662 -0.60163,-1.54533c-0.02628,-0.56843 0.20498,-1.11842 0.62957,-1.49728c0.44311,-0.37665 1.01116,-0.57377 1.59233,-0.55253c0.63287,-0.04617 1.25338,0.19221 1.69258,0.6502c0.38739,0.50029 0.5786,1.1249 0.53766,1.75632zM138.10962,346.13884c-0.07544,-0.15386 -0.18513,-0.28838 -0.32065,-0.39325c-0.13392,-0.10861 -0.30098,-0.16814 -0.47342,-0.16869c-0.17296,-0.00439 -0.34238,0.04931 -0.48125,0.1525c-0.13417,0.11278 -0.24346,0.25221 -0.32092,0.40944z"/></g></g></g></svg>