<svg xmlns="http://www.w3.org/2000/svg" xmlns:xlink="http://www.w3.org/1999/xlink" version="1.1" width="263.7860107421875" height="17.968000411987305" viewBox="0.03810000419616699 0.0023999810218811035 263.7860107421875 17.968000411987305">
  <!-- Exported by Scratch - http://scratch.mit.edu/ -->
  <g id="ID0.8225396699272096">
    <g id="ID0.32795518124476075">
      <g id="id83">
        <path id="ID0.18812643410637975" fill="none" stroke="none" d="M 0.5381 0.7925 L 22.0019 0.7925 L 22.0019 14.8599 L 0.5381 14.8599 L 0.5381 0.7925 Z " stroke-width="0.1450253576040268"/>
        <path id="ID0.31822890788316727" fill="rgb(255,255,255)" stroke="none" d="M 5.469 0.9375 C 5.759 1.9527 6.0491 2.8228 6.1941 3.5479 C 6.3391 4.4181 6.4842 5.2883 6.7742 6.3034 C 7.0643 7.6087 7.2093 8.4788 7.3543 9.0589 C 7.3543 8.1888 7.6444 7.3186 7.7894 6.3034 C 7.9344 5.5783 8.2245 4.7082 8.5145 3.5479 C 8.9496 2.2427 9.0946 1.3726 9.2396 0.9375 L 13.1553 0.9375 C 13.5904 2.2427 13.8805 3.5479 14.1705 4.7082 C 14.4606 6.3034 14.7506 7.6087 15.0407 8.7689 L 16.781 0.9375 L 21.8568 0.9375 L 17.6511 14.5699 L 12.8653 14.5699 C 12.7202 13.8447 12.2852 12.3945 11.8501 10.2191 C 11.56 8.9139 11.27 8.0437 11.27 7.4636 L 9.3847 14.5699 L 4.5988 14.5699 L 0.5381 0.9375 L 5.469 0.9375 Z " stroke-width="0.1450253576040268"/>
      </g>
    </g>
    <g id="ID0.6879635169170797">
      <g id="id84">
        <path id="ID0.8934685555286705" fill="none" stroke="none" d="M 22.0019 0.9375 L 37.0845 0.9375 L 37.0845 14.8599 L 22.0019 14.8599 L 22.0019 0.9375 Z " stroke-width="0.1450253576040268"/>
        <path id="ID0.9839997384697199" fill="rgb(255,255,255)" stroke="none" d="M 26.4977 0.9375 L 32.4437 0.9375 L 36.9395 14.5699 L 31.7186 14.5699 L 31.2835 12.8296 L 27.5128 12.8296 L 27.0778 14.5699 L 22.0019 14.5699 L 26.4977 0.9375 Z M 30.4133 9.639 L 29.3982 5.4333 L 28.383 9.639 L 30.4133 9.639 Z " stroke-width="0.1450253576040268"/>
      </g>
    </g>
    <g id="ID0.3265592074021697">
      <g id="id85">
        <path id="ID0.06698385393247008" fill="none" stroke="none" d="M 36.7945 0.7925 L 47.5263 0.7925 L 47.5263 14.8599 L 36.7945 14.8599 L 36.7945 0.7925 Z " stroke-width="0.1450253576040268"/>
        <path id="ID0.3126830509863794" fill="rgb(255,255,255)" stroke="none" d="M 36.9395 0.9375 L 47.3813 0.9375 L 47.3813 4.9982 L 44.6258 4.9982 L 44.6258 14.5699 L 39.5499 14.5699 L 39.5499 4.9982 L 36.9395 4.9982 L 36.9395 0.9375 Z " stroke-width="0.1450253576040268"/>
      </g>
    </g>
    <g id="ID0.27329458156600595">
      <g id="id86">
        <path id="ID0.25269725965335965" fill="none" stroke="none" d="M 48.1064 0.9375 L 57.8231 0.9375 L 57.8231 14.8599 L 48.1064 14.8599 L 48.1064 0.9375 Z " stroke-width="0.1450253576040268"/>
        <path id="ID0.40994272101670504" fill="rgb(255,255,255)" stroke="none" d="M 48.2515 0.9375 L 57.3881 0.9375 L 57.3881 4.8532 L 52.8923 4.8532 L 52.8923 6.0134 L 57.098 6.0134 L 57.098 9.494 L 52.8923 9.494 L 52.8923 10.7992 L 57.5331 10.7992 L 57.5331 14.5699 L 48.2515 14.5699 L 48.2515 0.9375 Z " stroke-width="0.1450253576040268"/>
      </g>
    </g>
    <g id="ID0.3761352561414242">
      <g id="id87">
        <path id="ID0.9095428762957454" fill="none" stroke="none" d="M 58.8383 0.9375 L 71.7456 0.9375 L 71.7456 14.8599 L 58.8383 14.8599 L 58.8383 0.9375 Z " stroke-width="0.1450253576040268"/>
        <path id="ID0.6412496389821172" fill="rgb(255,255,255)" stroke="none" d="M 58.9833 1.0825 L 65.0744 1.0825 C 66.6697 1.0825 67.9749 1.3726 68.9901 2.0977 C 70.1503 2.8228 70.7304 3.983 70.7304 5.5783 C 70.7304 6.4485 70.4403 7.1736 70.1503 7.7537 C 69.7152 8.1888 69.1351 8.6238 68.265 9.2039 L 71.4555 14.5699 L 66.2346 14.5699 L 63.6241 9.494 L 63.6241 14.5699 L 58.9833 14.5699 L 58.9833 1.0825 Z M 64.3493 7.0286 C 64.7844 7.0286 65.0744 6.8835 65.3645 6.7385 C 65.7995 6.4485 65.9446 6.1584 65.9446 5.7233 C 65.9446 5.4333 65.7995 5.1432 65.5095 4.8532 C 65.0744 4.7082 64.7844 4.5631 64.3493 4.5631 L 63.6241 4.7082 L 63.6241 7.0286 L 64.3493 7.0286 Z " stroke-width="0.1450253576040268"/>
      </g>
    </g>
    <g id="ID0.6222199629992247">
      <g id="id88">
        <path id="ID0.46754727605730295" fill="none" stroke="none" d="M 71.0204 10.3641 L 78.2717 10.3641 L 78.2717 17.4704 L 71.0204 17.4704 L 71.0204 10.3641 Z " stroke-width="0.1450253576040268"/>
        <path id="ID0.2308174567297101" fill="rgb(255,255,255)" stroke="none" d="M 73.3408 10.3641 L 77.9817 10.3641 L 74.7911 17.1803 L 71.1655 17.1803 L 73.3408 10.3641 Z " stroke-width="0.1450253576040268"/>
      </g>
    </g>
    <g id="ID0.4680356322787702">
      <g id="id89">
        <path id="ID0.8700753157027066" fill="none" stroke="none" d="M 84.0727 0.7925 L 105.6815 0.7925 L 105.6815 14.8599 L 84.0727 14.8599 L 84.0727 0.7925 Z " stroke-width="0.1450253576040268"/>
        <path id="ID0.5180071792565286" fill="rgb(255,255,255)" stroke="none" d="M 89.1486 0.9375 C 89.2936 1.9527 89.5837 2.8228 89.7287 3.5479 C 89.8737 4.4181 90.1638 5.2883 90.3088 6.3034 C 90.5989 7.6087 90.8889 8.4788 90.8889 9.0589 C 91.0339 8.1888 91.179 7.3186 91.469 6.3034 C 91.614 5.5783 91.7591 4.7082 92.0491 3.5479 C 92.4842 2.2427 92.6292 1.3726 92.7742 0.9375 L 96.6899 0.9375 C 97.125 2.2427 97.4151 3.5479 97.7051 4.7082 C 98.1402 6.3034 98.4302 7.6087 98.5753 8.7689 L 100.4606 0.9375 L 105.3915 0.9375 L 101.1857 14.5699 L 96.3999 14.5699 C 96.2549 13.8447 95.9648 12.3945 95.3847 10.2191 C 95.0947 8.9139 94.9496 8.0437 94.8046 7.4636 L 93.0643 14.5699 L 88.2785 14.5699 L 84.0727 0.9375 L 89.1486 0.9375 Z " stroke-width="0.1450253576040268"/>
      </g>
    </g>
    <g id="ID0.7562966509722173">
      <g id="id90">
        <path id="ID0.9082459872588515" fill="none" stroke="none" d="M 105.3915 0.9375 L 120.6191 0.9375 L 120.6191 14.8599 L 105.3915 14.8599 L 105.3915 0.9375 Z " stroke-width="0.1450253576040268"/>
        <path id="ID0.25789150688797235" fill="rgb(255,255,255)" stroke="none" d="M 110.0323 0.9375 L 115.9783 0.9375 L 120.3291 14.5699 L 115.2532 14.5699 L 114.8181 12.8296 L 111.0474 12.8296 L 110.6124 14.5699 L 105.5365 14.5699 L 110.0323 0.9375 Z M 113.9479 9.639 L 112.9328 5.4333 L 111.9176 9.639 L 113.9479 9.639 Z " stroke-width="0.1450253576040268"/>
      </g>
    </g>
    <g id="ID0.17706250958144665">
      <g id="id91">
        <path id="ID0.7224421105347574" fill="none" stroke="none" d="M 120.184 0.5024 L 131.7861 0.5024 L 131.7861 15.15 L 120.184 15.15 L 120.184 0.5024 Z " stroke-width="0.1450253576040268"/>
        <path id="ID0.3354271142743528" fill="rgb(255,255,255)" stroke="none" d="M 121.7793 9.639 C 122.5044 10.0741 122.9395 10.3641 123.3746 10.6542 C 124.0997 10.9442 124.6798 11.0893 125.2599 11.0893 C 125.405 11.0893 125.695 10.9442 125.9851 10.9442 C 126.2751 10.6542 126.4201 10.5092 126.4201 10.2191 C 126.4201 9.9291 125.9851 9.639 124.9699 9.349 C 123.8097 9.0589 122.7945 8.7689 122.3594 8.4788 C 121.3442 7.7537 120.9092 6.7385 120.9092 5.4333 C 120.9092 3.983 121.4893 2.8228 122.6495 1.9527 C 123.6646 1.0825 124.9699 0.6474 126.4201 0.6474 C 127.2903 0.6474 128.1604 0.7925 128.8856 0.9375 C 129.4657 1.0825 130.3358 1.5176 131.351 1.9527 L 129.9007 5.4333 C 129.4657 5.1432 129.0306 4.8532 128.4505 4.7082 C 127.7254 4.4181 127.2903 4.2731 126.8552 4.2731 C 126.5652 4.2731 126.4201 4.4181 126.1301 4.5631 C 125.9851 4.7082 125.84 4.8532 125.84 4.9982 C 125.84 5.2883 126.4201 5.5783 127.2903 5.8684 C 128.5955 6.1584 129.6107 6.5935 130.0458 6.8835 C 131.0609 7.6087 131.641 8.6238 131.641 9.9291 C 131.641 11.3793 131.0609 12.6845 129.7557 13.5547 C 128.7405 14.4249 127.4353 14.8599 125.84 14.8599 C 124.8249 14.8599 123.9547 14.7149 122.9395 14.4249 C 122.2144 14.2798 121.3442 13.8447 120.3291 13.2646 L 121.7793 9.639 Z " stroke-width="0.1450253576040268"/>
      </g>
    </g>
    <g id="ID0.9500783714465797">
      <g id="id92">
        <path id="ID0.7069613942876458" fill="none" stroke="none" d="M 132.3662 0.7925 L 143.098 0.7925 L 143.098 14.8599 L 132.3662 14.8599 L 132.3662 0.7925 Z " stroke-width="0.1450253576040268"/>
        <path id="ID0.15165880136191845" fill="rgb(255,255,255)" stroke="none" d="M 132.3662 0.9375 L 142.808 0.9375 L 142.808 4.9982 L 140.0525 4.9982 L 140.0525 14.5699 L 135.1217 14.5699 L 135.1217 4.9982 L 132.3662 4.9982 L 132.3662 0.9375 Z " stroke-width="0.1450253576040268"/>
      </g>
    </g>
    <g id="ID0.7348020877689123">
      <g id="id93">
        <path id="ID0.5079711261205375" fill="none" stroke="none" d="M 143.6781 0.9375 L 153.2498 0.9375 L 153.2498 14.8599 L 143.6781 14.8599 L 143.6781 0.9375 Z " stroke-width="0.1450253576040268"/>
        <path id="ID0.22806964255869389" fill="rgb(255,255,255)" stroke="none" d="M 143.6781 0.9375 L 152.9598 0.9375 L 152.9598 4.8532 L 148.319 4.8532 L 148.319 6.0134 L 152.5247 6.0134 L 152.5247 9.494 L 148.319 9.494 L 148.319 10.7992 L 153.1048 10.7992 L 153.1048 14.5699 L 143.6781 14.5699 L 143.6781 0.9375 Z " stroke-width="0.1450253576040268"/>
      </g>
    </g>
    <g id="ID0.7221547295339406">
      <g id="id94">
        <path id="ID0.7804018408060074" fill="none" stroke="none" d="M 160.7911 0.5024 L 177.6141 0.5024 L 177.6141 15.15 L 160.7911 15.15 L 160.7911 0.5024 Z " stroke-width="0.1450253576040268"/>
        <path id="ID0.8773287334479392" fill="rgb(255,255,255)" stroke="none" d="M 162.9665 4.4181 C 162.9665 3.1129 163.5466 2.2427 164.5618 1.5176 C 165.432 0.9375 166.5922 0.6474 167.8974 0.6474 C 169.2026 0.6474 170.5078 0.9375 171.378 1.5176 C 172.5382 2.2427 173.1183 3.2579 173.1183 4.7082 C 173.1183 5.4333 172.8282 6.1584 172.2481 6.7385 C 171.8131 7.1736 171.233 7.6087 170.3628 7.8987 L 171.668 9.0589 C 172.3932 8.4788 172.6832 8.1888 172.8282 8.1888 C 173.1183 7.8987 173.5534 7.4636 173.8434 7.1736 L 176.4539 10.0741 C 176.0188 10.3641 175.7288 10.6542 175.2937 10.7992 C 175.0036 11.0893 174.5685 11.3793 174.1335 11.6694 C 174.5685 11.9594 175.1486 12.3945 175.8738 12.9746 C 176.4539 13.6997 177.034 14.1348 177.4691 14.5699 L 171.668 14.5699 L 170.6529 13.5547 C 170.0728 13.9898 169.3476 14.2798 168.6225 14.5699 C 167.8974 14.7149 167.1723 14.8599 166.3021 14.8599 C 164.9969 14.8599 163.6916 14.5699 162.6765 13.8447 C 161.3712 12.9746 160.7911 11.9594 160.7911 10.6542 C 160.7911 9.494 161.0812 8.7689 161.8063 8.1888 C 162.3864 7.6087 163.1115 7.1736 164.2717 6.8835 C 163.8367 6.4485 163.5466 6.1584 163.4016 5.7233 C 163.1115 5.2883 162.9665 4.8532 162.9665 4.4181 Z M 166.3021 9.0589 C 166.0121 9.349 165.867 9.494 165.722 9.639 C 165.577 9.784 165.432 10.0741 165.432 10.3641 C 165.432 10.6542 165.577 10.9442 165.867 11.0893 C 166.1571 11.3793 166.4471 11.3793 166.7372 11.3793 C 167.0272 11.3793 167.1723 11.3793 167.4623 11.3793 C 167.6073 11.2343 167.8974 11.2343 168.1874 11.0893 L 166.3021 9.0589 Z M 169.0576 4.4181 C 169.0576 4.1281 168.9126 3.983 168.9126 3.693 C 168.7675 3.5479 168.4775 3.5479 168.3325 3.5479 C 168.0424 3.5479 167.8974 3.5479 167.7524 3.838 C 167.4623 3.983 167.4623 4.2731 167.4623 4.4181 C 167.4623 4.7082 167.4623 4.8532 167.6073 4.9982 C 167.7524 5.2883 167.8974 5.4333 168.0424 5.5783 C 168.3325 5.4333 168.6225 5.2883 168.7675 5.1432 C 168.9126 4.8532 169.0576 4.7082 169.0576 4.4181 Z " stroke-width="0.1450253576040268"/>
      </g>
    </g>
    <g id="ID0.5011693658307195">
      <g id="id95">
        <path id="ID0.008122569415718317" fill="none" stroke="none" d="M 184.4303 0.9375 L 194.147 0.9375 L 194.147 14.8599 L 184.4303 14.8599 L 184.4303 0.9375 Z " stroke-width="0.1450253576040268"/>
        <path id="ID0.8005634304136038" fill="rgb(255,255,255)" stroke="none" d="M 184.5753 0.9375 L 193.7119 0.9375 L 193.7119 4.8532 L 189.2161 4.8532 L 189.2161 6.0134 L 193.4218 6.0134 L 193.4218 9.494 L 189.2161 9.494 L 189.2161 10.7992 L 193.8569 10.7992 L 193.8569 14.5699 L 184.5753 14.5699 L 184.5753 0.9375 Z " stroke-width="0.1450253576040268"/>
      </g>
    </g>
    <g id="ID0.2674718787893653">
      <g id="id96">
        <path id="ID0.8172730356454849" fill="none" stroke="none" d="M 195.1621 0.7925 L 209.2296 0.7925 L 209.2296 14.8599 L 195.1621 14.8599 L 195.1621 0.7925 Z " stroke-width="0.1450253576040268"/>
        <path id="ID0.08562203031033278" fill="rgb(255,255,255)" stroke="none" d="M 195.1621 0.9375 L 199.803 0.9375 C 200.238 1.6626 200.8181 2.3877 201.3982 3.1129 C 201.8333 3.983 202.4134 4.7082 202.8485 5.4333 C 203.2836 6.0134 203.7186 6.8835 204.2987 7.7537 L 204.2987 0.9375 L 208.9396 0.9375 L 208.9396 14.5699 L 204.2987 14.5699 C 203.4286 13.5547 202.7035 12.3945 201.9783 11.2343 C 201.2532 10.2191 200.5281 9.0589 199.803 7.8987 C 199.803 8.0437 199.803 8.3338 199.803 8.6238 C 199.948 9.0589 199.948 9.2039 199.948 9.349 L 199.803 12.8296 L 199.948 14.5699 L 195.1621 14.5699 L 195.1621 0.9375 Z " stroke-width="0.1450253576040268"/>
      </g>
    </g>
    <g id="ID0.3017944060266018">
      <g id="id97">
        <path id="ID0.29605198465287685" fill="none" stroke="none" d="M 210.2448 0.9375 L 219.8165 0.9375 L 219.8165 14.8599 L 210.2448 14.8599 L 210.2448 0.9375 Z " stroke-width="0.1450253576040268"/>
        <path id="ID0.8915591924451292" fill="rgb(255,255,255)" stroke="none" d="M 210.2448 0.9375 L 219.5264 0.9375 L 219.5264 4.8532 L 214.8856 4.8532 L 214.8856 6.0134 L 219.0913 6.0134 L 219.0913 9.494 L 214.8856 9.494 L 214.8856 10.7992 L 219.6714 10.7992 L 219.6714 14.5699 L 210.2448 14.5699 L 210.2448 0.9375 Z " stroke-width="0.1450253576040268"/>
      </g>
    </g>
    <g id="ID0.386092777363956">
      <g id="id98">
        <path id="ID0.4495697654783726" fill="none" stroke="none" d="M 220.9767 0.9375 L 233.7389 0.9375 L 233.7389 14.8599 L 220.9767 14.8599 L 220.9767 0.9375 Z " stroke-width="0.1450253576040268"/>
        <path id="ID0.45173575822263956" fill="rgb(255,255,255)" stroke="none" d="M 220.9767 1.0825 L 227.2128 1.0825 C 228.808 1.0825 230.1133 1.3726 231.1284 2.0977 C 232.1436 2.8228 232.7237 3.983 232.7237 5.5783 C 232.7237 6.4485 232.5787 7.1736 232.1436 7.7537 C 231.8536 8.1888 231.1284 8.6238 230.2583 9.2039 L 233.5939 14.5699 L 228.2279 14.5699 L 225.7625 9.494 L 225.7625 14.5699 L 220.9767 14.5699 L 220.9767 1.0825 Z M 226.3426 7.0286 C 226.7777 7.0286 227.2128 6.8835 227.5028 6.7385 C 227.7929 6.4485 227.9379 6.1584 227.9379 5.7233 C 227.9379 5.4333 227.7929 5.1432 227.5028 4.8532 C 227.2128 4.7082 226.7777 4.5631 226.3426 4.5631 L 225.7625 4.7082 L 225.7625 7.0286 L 226.3426 7.0286 Z " stroke-width="0.1450253576040268"/>
      </g>
    </g>
    <g id="ID0.9218608289957047">
      <g id="id99">
        <path id="ID0.056590276304632425" fill="none" stroke="none" d="M 233.5939 0.5024 L 248.8215 0.5024 L 248.8215 15.15 L 233.5939 15.15 L 233.5939 0.5024 Z " stroke-width="0.1450253576040268"/>
        <path id="ID0.5016603046096861" fill="rgb(255,255,255)" stroke="none" d="M 243.4556 5.8684 C 243.1655 5.5783 242.8755 5.2883 242.5854 5.1432 C 242.1504 4.8532 241.8603 4.8532 241.4252 4.8532 C 240.5551 4.8532 239.975 5.1432 239.3949 5.5783 C 238.9598 6.1584 238.6698 6.8835 238.6698 7.7537 C 238.6698 8.6238 238.9598 9.494 239.3949 10.0741 C 239.975 10.7992 240.5551 11.0893 241.5703 11.0893 C 242.0053 11.0893 242.4404 10.9442 242.7305 10.7992 C 243.0205 10.5092 243.3106 10.2191 243.6006 9.784 L 241.1352 9.784 L 241.1352 6.4485 L 248.5315 6.4485 L 248.5315 7.4636 C 248.5315 9.639 247.9514 11.5243 246.5011 12.8296 C 245.1959 14.1348 243.3106 14.8599 241.1352 14.8599 C 238.9598 14.8599 237.2195 14.2798 235.7692 12.8296 C 234.319 11.5243 233.5939 9.784 233.5939 7.6087 C 233.5939 5.5783 234.319 3.838 235.7692 2.5328 C 237.0745 1.2275 238.8148 0.6474 240.9902 0.6474 C 242.5854 0.6474 243.8907 0.9375 245.0509 1.3726 C 246.3561 1.9527 247.2263 2.9678 247.9514 4.1281 L 243.4556 5.8684 Z " stroke-width="0.1450253576040268"/>
      </g>
    </g>
    <g id="ID0.9605833473615348">
      <g id="id100">
        <path id="ID0.543300221208483" fill="none" stroke="none" d="M 248.6765 0.9375 L 263.3241 0.9375 L 263.3241 14.8599 L 248.6765 14.8599 L 248.6765 0.9375 Z " stroke-width="0.1450253576040268"/>
        <path id="ID0.2527460870333016" fill="rgb(255,255,255)" stroke="none" d="M 254.3325 1.0825 C 254.7676 1.6626 255.0576 2.2427 255.2026 2.8228 C 255.4927 3.4029 255.7827 3.983 255.9278 4.5631 L 257.5231 0.9375 L 263.179 0.9375 L 258.5382 8.6238 L 258.3932 14.5699 L 253.4623 14.5699 L 253.4623 8.6238 L 248.8215 1.0825 L 254.3325 1.0825 Z " stroke-width="0.1450253576040268"/>
      </g>
    </g>
  </g>
<defs/></svg>