<svg xmlns="http://www.w3.org/2000/svg" xmlns:xlink="http://www.w3.org/1999/xlink" version="1.1" width="218.10289001464844" height="15.647600173950195" viewBox="-0.1917000114917755 -0.4683999978005886 218.10289001464844 15.647600173950195">
  <!-- Exported by Scratch - http://scratch.mit.edu/ -->
  <g id="ID0.03468337142840028">
    <g id="ID0.9865440437570214">
      <g id="id101">
        <path id="ID0.20021000923588872" fill="none" stroke="none" d="M 0.3083 0.3217 L 13.6506 0.3217 L 13.6506 14.3891 L 0.3083 14.3891 L 0.3083 0.3217 Z " stroke-width="0.1450253576040268"/>
        <path id="ID0.592022658791393" fill="rgb(255,255,255)" stroke="none" d="M 0.4533 0.4667 L 5.3842 0.4667 L 5.3842 4.9625 L 8.4297 4.9625 L 8.4297 0.4667 L 13.3606 0.4667 L 13.3606 14.0991 L 8.4297 14.0991 L 8.4297 9.3132 L 5.3842 9.3132 L 5.3842 14.0991 L 0.4533 14.0991 L 0.4533 0.4667 Z " stroke-width="0.1450253576040268"/>
      </g>
    </g>
    <g id="ID0.4958330038934946">
      <g id="id102">
        <path id="ID0.7253235829994082" fill="none" stroke="none" d="M 14.8108 0.4667 L 24.3825 0.4667 L 24.3825 14.3891 L 14.8108 14.3891 L 14.8108 0.4667 Z " stroke-width="0.1450253576040268"/>
        <path id="ID0.06767654325813055" fill="rgb(255,255,255)" stroke="none" d="M 14.8108 0.4667 L 24.0924 0.4667 L 24.0924 4.2373 L 19.4516 4.2373 L 19.4516 5.5426 L 23.6574 5.5426 L 23.6574 9.0232 L 19.4516 9.0232 L 19.4516 10.3284 L 24.2375 10.3284 L 24.2375 14.0991 L 14.8108 14.0991 L 14.8108 0.4667 Z " stroke-width="0.1450253576040268"/>
      </g>
    </g>
    <g id="ID0.8034256068058312">
      <g id="id103">
        <path id="ID0.8376732622273266" fill="none" stroke="none" d="M 24.6725 0.4667 L 39.7552 0.4667 L 39.7552 14.3891 L 24.6725 14.3891 L 24.6725 0.4667 Z " stroke-width="0.1450253576040268"/>
        <path id="ID0.8058943562209606" fill="rgb(255,255,255)" stroke="none" d="M 29.1683 0.4667 L 35.1144 0.4667 L 39.6101 14.0991 L 34.5343 14.0991 L 34.0992 12.3588 L 30.3285 12.3588 L 29.8934 14.0991 L 24.6725 14.0991 L 29.1683 0.4667 Z M 33.229 9.1682 L 32.0688 4.9625 L 31.0536 9.1682 L 33.229 9.1682 Z " stroke-width="0.1450253576040268"/>
      </g>
    </g>
    <g id="ID0.923239984549582">
      <g id="id104">
        <path id="ID0.02375608729198575" fill="none" stroke="none" d="M 40.1902 0.3217 L 49.7619 0.3217 L 49.7619 14.3891 L 40.1902 14.3891 L 40.1902 0.3217 Z " stroke-width="0.1450253576040268"/>
        <path id="ID0.8839734494686127" fill="rgb(255,255,255)" stroke="none" d="M 40.3353 0.4667 L 45.2661 0.4667 L 45.2661 9.6033 L 49.6169 9.6033 L 49.6169 14.0991 L 40.3353 14.0991 L 40.3353 0.4667 Z " stroke-width="0.1450253576040268"/>
      </g>
    </g>
    <g id="ID0.8236866262741387">
      <g id="id105">
        <path id="ID0.5849808314815164" fill="none" stroke="none" d="M 49.9069 0.3217 L 60.6388 0.3217 L 60.6388 14.3891 L 49.9069 14.3891 L 49.9069 0.3217 Z " stroke-width="0.1450253576040268"/>
        <path id="ID0.2520994422957301" fill="rgb(255,255,255)" stroke="none" d="M 50.052 0.4667 L 60.3488 0.4667 L 60.3488 4.5274 L 57.7383 4.5274 L 57.7383 14.0991 L 52.6624 14.0991 L 52.6624 4.5274 L 50.052 4.5274 L 50.052 0.4667 Z " stroke-width="0.1450253576040268"/>
      </g>
    </g>
    <g id="ID0.8598987627774477">
      <g id="id106">
        <path id="ID0.11418865714222193" fill="none" stroke="none" d="M 61.2189 0.3217 L 74.4162 0.3217 L 74.4162 14.3891 L 61.2189 14.3891 L 61.2189 0.3217 Z " stroke-width="0.1450253576040268"/>
        <path id="ID0.6071352097205818" fill="rgb(255,255,255)" stroke="none" d="M 61.2189 0.4667 L 66.2948 0.4667 L 66.2948 4.9625 L 69.3403 4.9625 L 69.3403 0.4667 L 74.2712 0.4667 L 74.2712 14.0991 L 69.3403 14.0991 L 69.3403 9.3132 L 66.2948 9.3132 L 66.2948 14.0991 L 61.2189 14.0991 L 61.2189 0.4667 Z " stroke-width="0.1450253576040268"/>
      </g>
    </g>
    <g id="ID0.4928898960351944">
      <g id="id107">
        <path id="ID0.722435646224767" fill="none" stroke="none" d="M 81.8125 0.0316 L 98.7805 0.0316 L 98.7805 14.6792 L 81.8125 14.6792 L 81.8125 0.0316 Z " stroke-width="0.1450253576040268"/>
        <path id="ID0.6615587519481778" fill="rgb(255,255,255)" stroke="none" d="M 84.1329 3.9473 C 84.1329 2.6421 84.713 1.7719 85.7282 1.0468 C 86.5984 0.4667 87.7586 0.1766 89.0638 0.1766 C 90.369 0.1766 91.5292 0.4667 92.5444 1.0468 C 93.7046 1.7719 94.2847 2.7871 94.2847 4.0923 C 94.2847 4.9625 93.9947 5.6876 93.4146 6.2677 C 92.9795 6.7028 92.3994 7.1378 91.5292 7.4279 L 92.8344 8.5881 C 93.5596 8.008 93.8496 7.7179 93.9947 7.7179 C 94.2847 7.4279 94.7198 6.9928 95.0098 6.5577 L 97.4753 9.6033 C 97.1852 9.8933 96.8952 10.1834 96.4601 10.3284 C 96.17 10.6185 95.735 10.9085 95.2999 11.0535 C 95.735 11.3436 96.3151 11.9237 97.0402 12.5038 C 97.6203 13.2289 98.2004 13.664 98.6355 14.0991 L 92.8344 14.0991 L 91.8193 13.0839 C 91.2392 13.519 90.514 13.809 89.7889 14.0991 C 89.0638 14.2441 88.1936 14.3891 87.4685 14.3891 C 86.1633 14.3891 84.8581 14.0991 83.8429 13.3739 C 82.5376 12.5038 81.9575 11.4886 81.9575 10.0383 C 81.9575 9.0232 82.2476 8.298 82.9727 7.5729 C 83.5528 7.1378 84.278 6.7028 85.4382 6.4127 C 85.0031 5.9776 84.713 5.6876 84.423 5.2525 C 84.278 4.8174 84.1329 4.3824 84.1329 3.9473 Z M 87.4685 8.5881 C 87.1785 8.7331 86.8884 9.0232 86.8884 9.1682 C 86.7434 9.3132 86.5984 9.6033 86.5984 9.8933 C 86.5984 10.1834 86.7434 10.4734 87.0334 10.6185 C 87.1785 10.9085 87.6135 10.9085 87.9036 10.9085 C 88.1936 10.9085 88.3387 10.9085 88.6287 10.9085 C 88.7737 10.7635 89.0638 10.7635 89.3538 10.6185 L 87.4685 8.5881 Z M 90.224 3.9473 C 90.224 3.6572 90.079 3.3672 89.9339 3.2222 C 89.9339 3.0771 89.6439 3.0771 89.4989 3.0771 C 89.2088 3.0771 89.0638 3.0771 88.7737 3.3672 C 88.6287 3.5122 88.6287 3.8023 88.6287 3.9473 C 88.6287 4.0923 88.6287 4.3824 88.7737 4.5274 C 88.9188 4.8174 89.0638 4.9625 89.2088 5.1075 C 89.4989 4.9625 89.7889 4.6724 89.7889 4.6724 C 90.079 4.3824 90.224 4.0923 90.224 3.9473 Z " stroke-width="0.1450253576040268"/>
      </g>
    </g>
    <g id="ID0.6717927022837102">
      <g id="id108">
        <path id="ID0.2809317084029317" fill="none" stroke="none" d="M 105.5967 0.4667 L 115.3134 0.4667 L 115.3134 14.3891 L 105.5967 14.3891 L 105.5967 0.4667 Z " stroke-width="0.1450253576040268"/>
        <path id="ID0.060416197404265404" fill="rgb(255,255,255)" stroke="none" d="M 105.7417 0.4667 L 114.8783 0.4667 L 114.8783 4.2373 L 110.2375 4.2373 L 110.2375 5.5426 L 114.4432 5.5426 L 114.4432 9.0232 L 110.2375 9.0232 L 110.2375 10.3284 L 115.0233 10.3284 L 115.0233 14.0991 L 105.7417 14.0991 L 105.7417 0.4667 Z " stroke-width="0.1450253576040268"/>
      </g>
    </g>
    <g id="ID0.42311294097453356">
      <g id="id109">
        <path id="ID0.9924043319188058" fill="none" stroke="none" d="M 116.3286 0.3217 L 129.9609 0.3217 L 129.9609 14.3891 L 116.3286 14.3891 L 116.3286 0.3217 Z " stroke-width="0.1450253576040268"/>
        <path id="ID0.7442012559622526" fill="rgb(255,255,255)" stroke="none" d="M 116.3286 0.4667 L 121.1144 0.4667 C 123.7249 0.4667 125.7552 0.9018 127.2055 1.9169 C 128.9458 3.0771 129.8159 4.9625 129.8159 7.4279 C 129.8159 9.4582 129.0908 10.9085 127.9306 12.2137 C 126.7704 13.519 125.1751 14.0991 123.2898 14.0991 L 116.3286 14.0991 L 116.3286 0.4667 Z M 124.74 7.2829 C 124.74 6.4127 124.45 5.6876 123.8699 5.2525 C 123.2898 4.8174 122.5646 4.6724 121.5495 4.6724 L 121.4044 4.6724 L 121.4044 10.0383 L 121.5495 10.0383 C 122.4196 10.0383 123.2898 9.8933 123.8699 9.4582 C 124.45 9.0232 124.74 8.298 124.74 7.2829 Z " stroke-width="0.1450253576040268"/>
      </g>
    </g>
    <g id="ID0.22158319829031825">
      <g id="id110">
        <path id="ID0.3278361544944346" fill="none" stroke="none" d="M 130.541 0.3217 L 143.4483 0.3217 L 143.4483 14.6792 L 130.541 14.6792 L 130.541 0.3217 Z " stroke-width="0.1450253576040268"/>
        <path id="ID0.6508434345014393" fill="rgb(255,255,255)" stroke="none" d="M 130.541 0.4667 L 135.6169 0.4667 L 135.6169 8.4431 C 135.6169 8.8781 135.762 9.3132 135.907 9.6033 C 136.197 9.8933 136.4871 10.0383 136.9222 10.0383 C 137.3572 10.0383 137.6473 9.8933 137.9373 9.4582 C 138.0824 9.0232 138.0824 8.5881 138.0824 8.008 L 138.0824 0.4667 L 143.1582 0.4667 L 143.1582 8.8781 C 143.1582 10.6185 142.5781 12.0687 141.4179 12.9389 C 140.4028 13.954 138.9525 14.3891 137.0672 14.3891 C 135.0368 14.3891 133.4415 13.954 132.4264 12.9389 C 131.1211 12.0687 130.541 10.4734 130.541 8.5881 L 130.541 0.4667 Z " stroke-width="0.1450253576040268"/>
      </g>
    </g>
    <g id="ID0.8946526101790369">
      <g id="id111">
        <path id="ID0.3255250994116068" fill="none" stroke="none" d="M 144.1734 0.0316 L 155.1954 0.0316 L 155.1954 14.6792 L 144.1734 14.6792 L 144.1734 0.0316 Z " stroke-width="0.1450253576040268"/>
        <path id="ID0.848611846100539" fill="rgb(255,255,255)" stroke="none" d="M 154.9053 5.9776 C 154.3252 5.3975 153.8901 5.1075 153.6001 4.9625 C 153.165 4.6724 152.5849 4.6724 152.0048 4.6724 C 151.2797 4.6724 150.6996 4.8174 150.1195 5.3975 C 149.5394 5.9776 149.2493 6.5577 149.2493 7.2829 C 149.2493 8.008 149.5394 8.5881 150.1195 9.1682 C 150.6996 9.7483 151.2797 9.8933 152.0048 9.8933 C 152.5849 9.8933 153.02 9.8933 153.455 9.7483 C 153.8901 9.4582 154.3252 9.3132 154.9053 8.8781 L 154.7603 13.809 C 153.7451 14.2441 152.5849 14.3891 151.4247 14.3891 C 149.3943 14.3891 147.654 13.809 146.3488 12.3588 C 144.8986 11.0535 144.1734 9.4582 144.1734 7.2829 C 144.1734 5.2525 144.8986 3.5122 146.2038 2.207 C 147.654 0.7567 149.3943 0.1766 151.5697 0.1766 C 152.0048 0.1766 152.5849 0.1766 153.165 0.3217 C 153.6001 0.3217 154.1802 0.4667 154.9053 0.7567 L 154.9053 5.9776 Z " stroke-width="0.1450253576040268"/>
      </g>
    </g>
    <g id="ID0.461860004812479">
      <g id="id112">
        <path id="ID0.8011319315992296" fill="none" stroke="none" d="M 155.1954 0.4667 L 170.423 0.4667 L 170.423 14.3891 L 155.1954 14.3891 L 155.1954 0.4667 Z " stroke-width="0.1450253576040268"/>
        <path id="ID0.6991052734665573" fill="rgb(255,255,255)" stroke="none" d="M 159.8362 0.4667 L 165.7822 0.4667 L 170.133 14.0991 L 165.0571 14.0991 L 164.622 12.3588 L 160.8513 12.3588 L 160.4163 14.0991 L 155.3404 14.0991 L 159.8362 0.4667 Z M 163.7518 9.1682 L 162.7367 4.9625 L 161.7215 9.1682 L 163.7518 9.1682 Z " stroke-width="0.1450253576040268"/>
      </g>
    </g>
    <g id="ID0.3548152893781662">
      <g id="id113">
        <path id="ID0.9635202633216977" fill="none" stroke="none" d="M 170.133 0.3217 L 180.8648 0.3217 L 180.8648 14.3891 L 170.133 14.3891 L 170.133 0.3217 Z " stroke-width="0.1450253576040268"/>
        <path id="ID0.7468624790199101" fill="rgb(255,255,255)" stroke="none" d="M 170.278 0.4667 L 180.5748 0.4667 L 180.5748 4.5274 L 177.9643 4.5274 L 177.9643 14.0991 L 172.8884 14.0991 L 172.8884 4.5274 L 170.278 4.5274 L 170.278 0.4667 Z " stroke-width="0.1450253576040268"/>
      </g>
    </g>
    <g id="ID0.13575040875002742">
      <g id="id114">
        <path id="ID0.503598113078624" fill="none" stroke="none" d="M 181.59 0.3217 L 186.9559 0.3217 L 186.9559 14.3891 L 181.59 14.3891 L 181.59 0.3217 Z " stroke-width="0.1450253576040268"/>
        <path id="ID0.45588881336152554" fill="rgb(255,255,255)" stroke="none" d="M 181.735 0.4667 L 186.6659 0.4667 L 186.6659 14.0991 L 181.735 14.0991 L 181.735 0.4667 Z " stroke-width="0.1450253576040268"/>
      </g>
    </g>
    <g id="ID0.5481462753377855">
      <g id="id115">
        <path id="ID0.042203065007925034" fill="none" stroke="none" d="M 187.536 0.0316 L 202.6186 0.0316 L 202.6186 14.6792 L 187.536 14.6792 L 187.536 0.0316 Z " stroke-width="0.1450253576040268"/>
        <path id="ID0.8687708666548133" fill="rgb(255,255,255)" stroke="none" d="M 194.9323 0.1766 C 197.1077 0.1766 198.848 0.7567 200.2982 2.207 C 201.7485 3.5122 202.4736 5.2525 202.4736 7.4279 C 202.4736 9.4582 201.7485 11.0535 200.2982 12.3588 C 198.848 13.809 197.1077 14.3891 195.0773 14.3891 C 192.9019 14.3891 191.1616 13.664 189.7114 12.3588 C 188.2611 11.0535 187.536 9.3132 187.536 7.1378 C 187.536 5.1075 188.2611 3.3672 189.7114 2.062 C 191.1616 0.7567 192.9019 0.1766 194.9323 0.1766 Z M 194.9323 10.0383 C 195.8025 10.0383 196.3826 9.6033 196.8176 9.0232 C 197.2527 8.4431 197.3977 7.7179 197.3977 6.8478 C 197.3977 6.2677 197.2527 5.8326 196.6726 5.3975 C 196.2375 4.8174 195.6574 4.6724 195.0773 4.6724 C 194.3522 4.6724 193.7721 4.8174 193.192 5.3975 C 192.7569 5.9776 192.4669 6.5577 192.4669 7.2829 C 192.4669 8.008 192.7569 8.5881 193.192 9.1682 C 193.6271 9.7483 194.2072 10.0383 194.9323 10.0383 Z " stroke-width="0.1450253576040268"/>
      </g>
    </g>
    <g id="ID0.9852352892048657">
      <g id="id116">
        <path id="ID0.6224527941085398" fill="none" stroke="none" d="M 203.3438 0.3217 L 217.4112 0.3217 L 217.4112 14.3891 L 203.3438 14.3891 L 203.3438 0.3217 Z " stroke-width="0.1450253576040268"/>
        <path id="ID0.5827813092619181" fill="rgb(255,255,255)" stroke="none" d="M 203.3438 0.4667 L 207.9846 0.4667 C 208.4197 1.1918 208.9998 1.9169 209.5799 2.6421 C 210.0149 3.3672 210.595 4.2373 211.0301 4.9625 C 211.4652 5.5426 211.9003 6.4127 212.4804 7.2829 L 212.4804 0.4667 L 217.1212 0.4667 L 217.1212 14.0991 L 212.3353 14.0991 C 211.6102 13.0839 210.8851 11.9237 210.16 10.7635 C 209.4348 9.7483 208.7097 8.5881 207.9846 7.4279 C 207.9846 7.5729 207.9846 7.863 207.9846 8.153 C 208.1296 8.5881 208.1296 8.7331 208.1296 8.8781 L 207.9846 12.3588 L 208.1296 14.0991 L 203.3438 14.0991 L 203.3438 0.4667 Z " stroke-width="0.1450253576040268"/>
      </g>
    </g>
  </g>
<defs/></svg>