<svg version="1.1" xmlns="http://www.w3.org/2000/svg" xmlns:xlink="http://www.w3.org/1999/xlink" width="86.017" height="65.9746" viewBox="0,0,86.017,65.9746"><g transform="translate(-199.066,-146.8524)"><g data-paper-data="{&quot;isPaintingLayer&quot;:true}" fill-rule="nonzero" stroke="none" stroke-linecap="butt" stroke-linejoin="miter" stroke-miterlimit="10" stroke-dasharray="" stroke-dashoffset="0" style="mix-blend-mode: normal"><path d="M238.2415,186.3627c1.31,0 2.498,0.336 3.358,0.879c0.86,0.543 1.392,1.293 1.392,2.121c0,0.828 -0.532,1.578 -1.392,2.121c-0.86,0.543 -2.048,0.879 -3.358,0.879c-1.31,0 -2.498,-0.336 -3.358,-0.879c-0.86,-0.543 -1.392,-1.293 -1.392,-2.121c0,-0.828 0.532,-1.578 1.392,-2.121c0.86,-0.543 2.048,-0.879 3.358,-0.879z" fill="#65bd22" stroke-width="1"/><path d="M242.0745,146.8524l43.0085,32.9873l-43.0085,32.9873l-43.0085,-32.9873zM199.066,146.8524zM285.083,212.827z" fill="#6cc924" stroke-width="0.04598"/><g><path d="M239.02466,183.07665c1.79904,0 3.43055,0.46144 4.61161,1.20715c1.18105,0.74571 1.91166,1.7757 1.91166,2.91281c0,1.13711 -0.73061,2.1671 -1.91166,2.91281c-1.18105,0.74571 -2.81256,1.20715 -4.61161,1.20715c-1.79904,0 -3.43055,-0.46144 -4.61161,-1.20715c-1.18105,-0.74571 -1.91166,-1.7757 -1.91166,-2.91281c0,-1.13711 0.73061,-2.1671 1.91166,-2.91281c1.18105,-0.74571 2.81256,-1.20715 4.61161,-1.20715z" fill="#65bd22" stroke-width="1"/><g stroke-width="0.01418"><g><g><path d="M231.18787,161.73577h7.67377v22.07873h-7.67377z" fill="none"/><path d="M236.80079,180.7011v0c-1.88561,0.67979 -3.2888,2.47755 -5.59095,3.06963c0.7016,-1.57874 1.20583,-2.87227 1.99512,-4.1658c0.59194,-1.20598 0.39472,-1.68826 -0.89895,-1.79792c-0.28506,-1.09632 0.50439,-1.79792 0.81126,-2.58721c0.28506,-0.877 1.38138,-1.66629 0,-2.56524c-0.30687,-0.10966 -0.10966,-0.61389 0,-0.89895c1.38138,-3.2888 2.98194,-6.57761 4.56052,-9.66905c0.21917,-0.30703 0.5262,-0.48243 0.89895,-0.19737c0.59194,0.89895 0,1.88561 -0.08769,2.89423c0,0.7016 -0.19737,1.38123 -0.28506,2.19249c0.1754,1.18402 -1.60055,1.88561 -0.81126,3.2888c0,0.19737 0.10966,0.39457 0.10966,0.48227c-0.61389,1.29368 -0.89895,2.60917 -0.50439,3.88089c0,0.21917 -0.10951,0.41654 -0.19721,0.48227c-1.40334,0.89895 -0.19737,1.40318 0.28491,1.99528c0.30703,0.81126 0.30703,1.60055 0.41669,2.49951c0,0.39457 -0.19737,0.78929 -0.7016,1.09617z" fill="#20a900"/></g></g><g><g><path d="M228.7541,160.88074h9.84445v16.97006h-9.84445z" fill="none"/><path d="M238.37937,161.77954v0c-1.68826,3.48617 -3.3765,7.08199 -5.17441,10.67767c0.50423,0.48243 0.89895,-0.21917 1.49089,0c-0.39457,1.97331 -1.49089,3.5519 -2.38984,5.34981c-0.78929,-0.19737 -1.68826,-0.30703 -2.47755,-0.59209c-0.39457,-0.10951 -1.60055,-0.10951 -0.81126,-1.20583c1.31565,-0.39457 1.99528,-1.57858 2.89423,-2.45558c0.19721,-0.30703 0.81126,-0.81126 -0.08769,-1.00862c-0.7016,-0.19737 -1.40318,-0.39457 -2.38984,-0.59194c1.49089,-1.29368 2.78441,-2.49951 4.0781,-3.59583c-0.61389,-0.89895 -1.68826,-0.39457 -2.38984,-1.09617c0.39457,-0.98666 1.60055,-1.29368 2.19249,-2.19263c1.60055,-1.38123 2.87227,-3.2888 4.88935,-4.1658c0.1754,0.08769 0.28506,0.1754 0.37277,0.39472c0,0.19737 -0.08769,0.30687 -0.19737,0.48227z" fill="#35db00"/></g></g><g><g><path d="M238.77395,161.56037h6.92841v18.74616h-6.92841z" fill="none"/><path d="M244.64996,180.19686v0h-0.19737l-0.10951,-0.10966c-0.39472,-0.39457 -1.20598,0 -1.49105,-0.67963c-0.41654,-0.7016 -0.59194,-1.49089 -0.41654,-2.30215c1.00862,-1.60055 0.5262,-2.87227 -0.67963,-4.05629c0.08769,-1.20583 -0.50439,-2.08281 -0.7016,-3.2011c-0.48243,-1.38123 -0.48243,-2.98178 -1.60055,-4.1658c-0.46046,-1.31549 -1.16206,-2.58706 -0.08769,-3.9904c1.38123,-0.50423 2.19249,0.70175 3.06947,1.29368c0.41654,0.89895 1.20598,1.09617 1.79792,1.60055c0.21917,0.98666 -1.88561,1.38123 -0.67963,2.67491c0.28491,1.00846 0.9865,1.90743 0.78929,2.89407c0.10951,0 0.08769,0 0.10951,0c-0.61389,0.30703 -0.8988,0.7016 -0.41654,1.09632c1.40318,1.40318 1.49089,3.17914 1.31549,4.95509c0.1754,1.00846 0,2.10478 0.28506,3.2011c0.19737,0.98666 -0.39472,0.89895 -0.98666,0.78929z" fill="#209900"/></g></g><g><g><path d="M236.77882,179.40757h3.9027v8.00276h-3.9027z" fill="none"/><path d="M236.80079,180.7011v0c0.19721,-0.30687 0.28491,-0.7016 0.39457,-1.00846c0.19737,-0.19737 0.48243,-0.28506 0.78929,-0.28506c0.89895,0.19737 0.81126,0.98666 1.09632,1.49089c0.59194,-1.20583 1.07435,-0.39472 1.49089,0.08769c0.1754,0.39472 0,0.81126 -0.10966,1.20583c0,0.98666 0.10966,2.08297 0,3.0916c0,0.877 0.59209,2.19249 -1.20583,2.08281c-1.46908,0 -2.45558,-0.39457 -2.45558,-2.19249c0.08769,-1.49089 0,-2.98194 0,-4.47282z" fill="#7f471c"/></g></g><g><g><path d="M244.64996,176.00911h4.51659v5.24015h-4.51659z" fill="none"/><path d="M244.64996,180.19686v0c0.1754,-0.10966 0.78929,-0.30703 0.7016,-0.39472c-1.51286,-1.20583 0,-2.49951 -0.21917,-3.68338c0.08769,-0.02197 0.10951,-0.10966 0.21917,-0.10966c0.08769,0 0.08769,0.10966 0.1754,0.10966c1.09632,1.68826 2.58721,3.06947 3.59583,5.08672c-1.68826,-0.30703 -3.09144,-0.50439 -4.47282,-1.00862z" fill="#35a700"/></g></g><g><g><path d="M240.35269,178.79368h4.03418v6.02944h-4.03418z" fill="none"/><path d="M240.46219,182.19198v0c-0.10951,-0.39457 -0.10951,-0.8988 -0.10951,-1.29352c0.10951,-0.10966 0.10951,-0.10966 0.21917,-0.19737c0.28506,0 0.59194,0 0.59194,-0.50423c0,-0.7016 0.39472,-1.20598 1.09632,-1.38138c0.48243,-0.10951 0.7016,0.1754 0.877,0.48243c0.41669,0.30703 0.81126,0.50423 1.20598,0.78929c-1.68826,-0.39457 -1.99528,0.30703 -1.38138,1.79792c0.1754,0.59194 0.37277,1.20583 0.59209,1.79792c0.08769,0.39457 0.59194,0.9865 -0.30703,1.09617c-0.7016,-0.89895 -1.29352,-1.68826 -1.88561,-2.58721c-0.30687,-0.39457 -0.61389,-0.39457 -0.89895,0z" fill="#35a700"/></g></g><g><g><path d="M243.4879,170.1331h3.815v6.02944h-3.815z" fill="none"/><path d="M245.13238,176.11877v0c-0.30703,-1.68826 -0.19737,-3.4642 -1.49089,-4.95509c-0.39472,-0.41669 0,-1.00862 0.8111,-1.00862c-0.8111,1.00862 0.19737,1.49089 0.67979,1.68826c1.40318,0.81126 1.49089,2.30215 2.08281,3.4642c0.21932,0.41654 -0.1754,0.30703 -0.48227,0.41654c-0.59209,-0.30687 -1.09632,-0.41654 -1.49105,0.28506z" fill="#35a700"/></g></g><g><g><path d="M243.42216,167.23901h2.65295v3.24487h-2.65295z" fill="none"/><path d="M244.34308,170.15506v0c-0.50439,-0.89895 -1.20598,-1.68826 -0.78929,-2.89407c1.38123,0.61389 2.38984,1.51286 2.47755,3.09144c-0.59209,0.30687 -1.09632,-0.08769 -1.68826,-0.19737z" fill="#35a700"/></g></g><g><g><path d="M228.99539,173.53156h2.93785v2.52147h-2.93785z" fill="none"/><path d="M231.91142,173.55353v0c-0.59209,1.29352 -1.29368,2.36789 -2.89423,2.45558c0.89895,-0.89895 1.90757,-1.77595 2.89423,-2.45558z" fill="#3cdc00"/></g></g><g><g><path d="M242.4355,163.27059h1.84169v1.33746h-1.84169z" fill="none"/><path d="M242.4355,163.2924v0c0.21932,0 0.41654,0.08769 0.7016,0.08769c0.19737,0.61389 1.09632,0.50439 1.09632,1.20598c-0.78929,-0.21932 -1.57858,-0.30703 -1.79792,-1.29368z" fill="#66b500"/></g></g><g><g><path d="M236.58146,164.89294h2.67491v14.84346h-2.67491z" fill="none"/><path d="M237.98465,179.69263v0h-0.78929c-0.50423,-0.70175 -0.10966,-1.57874 -0.39457,-2.39c0.50423,-0.78929 -0.61389,-1.57858 0,-2.36789v0c0.19721,-1.49089 0.78929,-2.89407 0.39457,-4.38496v0c-0.50423,-1.38138 1.00862,-2.28034 0.78929,-3.57386c-0.39457,-0.7016 0.10966,-1.29368 0,-1.99528c0.21932,-0.10951 0.39472,-0.10951 0.59209,0c0.67963,0.59209 0.67963,1.40334 0.59194,2.19263c0,3.3765 -0.08769,6.77481 0,10.23902c0,0.89895 -0.1754,1.77595 -1.18402,2.28034z" fill="#178e00"/></g></g><g><g><path d="M236.23066,170.52782h1.51286v4.42889h-1.51286z" fill="none"/><path d="M237.19535,170.54978v0c0.78929,1.40318 0.7016,3.2888 -0.39457,4.38496c-0.89895,-1.57858 -0.61389,-2.98178 0.39457,-4.38496z" fill="#179b00"/></g></g><g><g><path d="M235.09057,174.91279h2.32411v2.43377h-2.32411z" fill="none"/><path d="M236.80079,174.93474v0c0.28491,0.78929 1.18386,1.57858 0,2.36789c0,-0.08769 -0.10966,-0.08769 -0.10966,-0.19721c-0.59194,-0.30703 -1.57858,-0.30703 -1.57858,-1.18402c0,-0.81126 1.18386,-0.50423 1.68826,-0.98666z" fill="#179f00"/></g></g><g><g><path d="M236.36229,166.95395h1.73203v3.61764h-1.73203z" fill="none"/><path d="M237.98465,166.97592v0c0.30703,1.29352 -0.30687,2.47755 -0.78929,3.57386c-0.59194,-0.78945 -1.60055,-1.60055 0.19737,-2.28034c0.39457,-0.19721 0,-1.00846 0.59194,-1.29352z" fill="#179b00"/></g></g><g><g><path d="M237.96283,161.363h1.18386v3.6396h-1.18386z" fill="none"/><path d="M238.37937,164.98064v0h-0.39472c0,-1.09617 0.59209,-2.10478 0.39472,-3.2011v-0.39457c1.07435,1.20583 0.877,2.38984 0,3.59567z" fill="#209900"/></g></g><g><g><path d="M237.96283,160.92451h3.35454v20.23705h-3.35454z" fill="none"/><path d="M238.37937,164.98064v0c0.19737,-1.20583 0.877,-2.38984 0,-3.59567v-0.30703c0.61389,-0.37261 0.877,0.10966 1.29352,0.61389c-0.877,1.40334 -0.21917,2.78457 0.28506,4.0781c0.30703,0.89895 0.61389,1.79792 0.78929,2.78457c0.41654,3.2011 -0.08769,6.38024 0.50423,9.55939c0.10966,0.98666 -0.30687,1.97331 -0.8988,2.78457v0c-0.08769,-0.10966 -0.30703,-0.19737 -0.30703,-0.10966c-1.46892,1.09632 -1.35942,-0.78929 -2.06101,-1.09617c1.27172,-2.58721 0.50439,-5.34981 0.59209,-7.93702c0.10951,-1.68826 0.41654,-3.39846 0.21917,-5.08672c-0.10966,-0.59194 -0.10966,-1.18386 -0.41654,-1.68826z" fill="#177c00"/></g></g><g><g><path d="M240.30875,168.53255h3.48617v12.51935h-3.48617z" fill="none"/><path d="M240.35269,180.89846v0c0.59194,-4.10006 -0.19737,-8.2439 0,-12.34396c1.00846,0.10966 0.59194,1.00862 0.8988,1.60055c0.19737,0.89895 0.89895,1.79792 0.70175,2.78457c1.60055,1.09617 2.69672,2.17052 0.78929,3.96844c-0.98666,-0.39472 -0.67979,-1.40318 -1.09632,-2.06101c0,-0.04377 0.10966,-0.10966 0,-0.10966c0,0.19737 0.10966,0.37277 0.10966,0.48243c0.19737,1.29352 0.98666,2.38984 0.59194,3.68338c-0.28506,0.39472 -0.89895,0.70175 -0.78929,1.40334c0.08769,1.07435 -0.7016,0.59194 -1.20583,0.59194z" fill="#179200"/></g></g><g><g><path d="M241.47081,174.47429h1.71021v4.86755h-1.71021z" fill="none"/><path d="M242.34781,178.90318v0c-0.19737,-1.29352 -0.89895,-2.58706 -0.78929,-3.96844c-0.19737,-0.39457 0,-0.50423 0.39472,-0.39457c0.30687,0.76733 0.48227,1.57858 0.78929,2.36789c-0.08769,0.78929 0.30687,1.60055 0.39457,2.38984c-0.28506,-0.10966 -0.48227,-0.30703 -0.78929,-0.39472z" fill="#17c200"/></g></g><g><g><path d="M239.95796,165.74812h1.64448v4.42889h-1.64448z" fill="none"/><path d="M241.16379,170.15506v0c-0.59194,-0.30703 -0.21917,-1.29352 -0.8111,-1.60055c-0.08769,-0.89895 -0.30703,-1.88561 -0.39472,-2.78457c1.09632,1.09632 1.09632,2.69687 1.60055,3.9904c-0.19737,0.08769 -0.19737,0.39472 -0.39472,0.39472z" fill="#17ab00"/></g></g><g><g><path d="M241.16379,169.73852h1.14025v3.22292h-1.14025z" fill="none"/><path d="M241.16379,170.15506v0c0.08769,-0.08769 0.28506,-0.30703 0.39472,-0.39472c-0.10966,1.09632 1.29352,1.99528 0.39472,3.17929c-0.39472,-0.89895 -0.78945,-1.77595 -0.78945,-2.78457z" fill="#17bc00"/></g></g><g><g><path d="M241.14198,173.61925h0.85503v1.33746h-0.85503z" fill="none"/><path d="M241.95324,174.54018v0c-0.10966,0.08769 -0.30703,0.30687 -0.39472,0.39457c-0.39472,-0.39457 -0.61389,-0.78929 -0.19737,-1.29352c0.19737,0.30687 0.39472,0.59194 0.59209,0.89895z" fill="#17b100"/></g></g></g></g></g></g></svg>