<svg version="1.1" xmlns="http://www.w3.org/2000/svg" xmlns:xlink="http://www.w3.org/1999/xlink" width="139.33334" height="103.43471" viewBox="0,0,139.33334,103.43471"><g transform="translate(-5.15625,-227.19541)"><g data-paper-data="{&quot;isPaintingLayer&quot;:true}" fill-rule="nonzero" stroke="none" stroke-linecap="butt" stroke-linejoin="miter" stroke-miterlimit="10" stroke-dasharray="" stroke-dashoffset="0" style="mix-blend-mode: normal"><g fill="#d8d8d8" stroke-width="1"><path d="M76.55774,229.23284v0c6.0042,0 10.87156,4.86736 10.87156,10.87156v10.87158h-21.74312v-10.87158c0,-6.0042 4.86736,-10.87156 10.87156,-10.87156z"/><path d="M80.40014,242.74879l-4.04194,-4.04194l-4.04194,4.04194l-0.84178,-0.84178l4.88372,-4.88372l4.88372,4.88372z"/><path d="M65.68618,250.97598v-1.81193h21.74315v1.81193z"/></g><g fill="#d8d8d8" stroke-width="1"><path d="M139.81821,278.87584v0c0,6.0042 -4.86736,10.87156 -10.87156,10.87156h-10.87158v-21.74312h10.8716c6.0042,0 10.87156,4.86736 10.87156,10.87156z"/><path d="M126.30274,282.71834l4.04194,-4.04194l-4.04194,-4.04194l0.84062,-0.84178l4.88372,4.88372l-4.88372,4.88372z"/><path d="M118.07508,268.00428h1.81193v21.74314h-1.81193z"/></g><path d="M5.15625,316.36208v-69.33334h30v69.33334z" fill="#e3e3e3" stroke-width="0"/><path d="M6.82292,251.19541v-24h136v24z" fill="#e3e3e3" stroke-width="0"/><path d="M118.15625,324.69541v-76.33333h26.33334v76.33333z" fill="#e3e3e3" stroke-width="0"/><path d="M9.48959,330.63012v-22.93471h125.33334v22.93471z" fill="#e3e3e3" stroke-width="0"/><g fill="#fafafa"><path d="M9.3246,307.88847c-0.04936,-6.83596 5.37127,-12.41929 12.10731,-12.47069c6.73604,-0.05141 12.23668,5.44855 12.28603,12.28452c0.04935,6.83596 -5.37126,12.41929 -12.10729,12.4707c-6.73604,0.05141 -12.23669,-5.44856 -12.28605,-12.28452z" stroke-width="0"/><path d="M33.60299,299.57571c0,4.407 0,7.97957 0,7.97957h-24.1258c0,0 0,-3.57258 0,-7.97958v-40.05818c0,-4.407 0,-7.97958 0,-7.97958h24.1258c0,0 0,3.57257 0,7.97957z" data-paper-data="{&quot;index&quot;:null}" stroke-width="1"/><path d="M9.49767,252.13847c-0.04881,-6.83596 5.31199,-12.41929 11.97368,-12.4707c6.6617,-0.05141 12.10163,5.44856 12.15044,12.28452c0.04881,6.83597 -5.31198,12.41929 -11.97367,12.4707c-6.6617,0.05141 -12.10164,-5.44855 -12.15045,-12.28452z" stroke-width="0"/></g></g></g></svg>