<svg version="1.1" xmlns="http://www.w3.org/2000/svg" xmlns:xlink="http://www.w3.org/1999/xlink" width="66.08522" height="197.1468" viewBox="0,0,66.08522,197.1468"><g transform="translate(-208.22942,-5.94233)"><g data-paper-data="{&quot;isPaintingLayer&quot;:true}" fill-rule="nonzero" stroke="none" stroke-width="0.11074" stroke-linecap="butt" stroke-linejoin="miter" stroke-miterlimit="10" stroke-dasharray="" stroke-dashoffset="0" style="mix-blend-mode: normal"><g><path d="M208.22942,5.94233h66.03924v197.1468h-66.03924z" fill="none"/><path d="M242.43574,202.94697v0c-2.37352,-0.85345 -4.18847,-2.70263 -6.14316,-4.12509c-8.37707,-5.83186 -16.61452,-11.80601 -24.99158,-17.63787c-1.11702,-0.85345 -1.67546,-1.56474 -1.67546,-3.12936c0,-9.95695 0,-19.77162 -0.27922,-29.72844c-0.27922,-7.11216 -0.13961,-14.2242 -0.27922,-21.33636c-0.27922,-8.39221 -0.13961,-16.64226 -0.27922,-24.89219c-0.27922,-7.53889 -0.13961,-15.07765 -0.27922,-22.75869c-0.13961,-4.26725 -0.27922,-8.53449 -0.13961,-12.65946c0.41883,-0.14228 0.83767,0.14216 1.2565,0.42672c8.23745,5.68958 16.61452,11.52157 24.85197,17.21114c2.23391,1.42246 4.1886,2.98707 6.42251,4.40953c0.55845,0.42672 1.11689,0.85345 1.2565,1.56461c0.13961,0.71129 0.13961,1.28017 0.13961,1.84918c0.41883,24.18102 0,48.21989 0.41883,72.40104c0.13974,11.94829 0,23.7543 0.13974,35.70259c0,0.85345 0.13961,1.84918 -0.41896,2.70263z" fill="#9f94e0"/><path d="M242.43574,202.94697v0c0,-6.11643 0,-12.23286 -0.13961,-18.207c-0.13961,-26.74137 -0.13961,-53.34059 -0.41883,-80.08196c0,-4.97854 0,-9.81467 -0.13961,-14.79321c0,-0.14216 0,-0.14216 0,-0.28444c0.13961,-0.42672 0.69806,-0.71117 0.97728,-0.85345c7.95823,-5.83186 15.63724,-11.80601 23.45586,-17.638c2.0943,-1.56461 4.04898,-2.98707 6.00367,-4.55169c0.55845,-0.42672 0.97728,-0.85345 1.67534,-0.71117c0.27922,0.28444 0.13961,0.71117 0.13961,0.99561c0,5.83199 0.13961,11.66385 0,17.49571c0,17.638 0,35.41815 -0.13961,53.05614c0,13.37075 -0.13961,26.7415 -0.13961,40.2544c0,0.71117 -0.13961,1.28017 -0.83767,1.99134c-10.05253,7.68104 -19.96545,15.36209 -30.01785,23.18542c-0.13974,0 -0.27935,0.14228 -0.41896,0.14228z" fill="#3e4688"/><path d="M273.98944,66.82167v0c0,-0.28444 -0.13961,-0.71117 -0.13961,-0.99561c-0.41883,-0.42672 -0.27922,-1.13802 -0.27922,-1.7069c0,-2.84492 0,-5.6897 0,-8.53449c0,-0.56901 0.13961,-0.99573 -0.27922,-1.56474c-1.25663,0.71129 -2.37352,1.7069 -3.49041,2.56035c-8.93564,6.54315 -17.73154,13.08631 -26.38782,19.77162c-0.41883,0.28444 -0.8378,0.56901 -1.11702,0.71117c-0.83767,0.28457 -1.39611,-0.28444 -1.95456,-0.56888c-10.33175,-7.11216 -20.6635,-14.36648 -31.13487,-21.47852c-0.41883,-0.28444 -0.69806,-0.56901 -0.97728,-0.99573c0.69806,-1.42233 2.09417,-1.84906 3.3508,-2.84479c5.72432,-4.26725 11.44864,-8.53449 17.31258,-12.80174c0.69818,0.14216 0.55845,0.85345 0.55845,1.28017c0,2.27578 0.27935,4.55169 -0.13961,6.82759c0,0.56888 0,0.85345 0.69818,0.56888c3.49041,-0.99561 7.12044,-1.56461 10.61097,-2.41806c4.6073,-0.99573 9.21473,-1.99134 13.96178,-2.98707c0.69806,-0.14228 1.39611,-0.42672 1.95469,-0.99573c4.74691,3.27164 9.35434,6.68544 14.38061,9.67251c2.65274,1.56461 3.63002,3.4138 3.3508,6.54315c-0.41883,3.27151 -0.13961,6.68531 -0.27922,9.95682z" fill="#5c5958"/><path d="M208.22942,54.01993v0c4.74691,2.84492 9.07512,6.11643 13.68255,9.24579c6.14316,4.26725 12.28631,8.53449 18.28998,12.80174c0.69806,0.28444 1.11689,0.85345 1.95456,0.71117c0.27922,1.28017 0.13961,2.56035 0.13961,3.69824c0,2.41819 0,4.69397 0,6.96988c0,0.85345 0,1.56461 -0.55845,2.27591c0,0 0,0 0,0.14216c-10.8902,-7.53876 -21.78039,-15.07752 -32.8102,-22.75857c-0.13961,-0.14228 -0.41883,-0.28457 -0.55845,-0.42672c0,-4.26725 -0.13961,-8.53449 -0.13961,-12.65958z" fill="#191613"/><path d="M230.56826,36.95094v0c2.23391,-1.28017 3.90925,-2.98707 6.00354,-4.26725c0.69806,0.14228 0.55845,0.71117 0.55845,1.13789c0.13961,1.84918 0.13961,3.69837 0,5.40526c0,0.56888 -0.13961,0.99561 -0.41883,1.42233c-0.41883,0.42672 -0.41883,0.85345 0.13961,1.28017c0.55845,0.42672 0.97741,0.14228 1.25663,-0.42672c0.41883,-0.42672 0.83767,-0.56888 1.39611,-0.71117c4.04898,-0.71117 8.09784,-1.7069 12.00722,-2.56035c0.41883,-0.14228 0.83767,-0.14228 1.11689,-0.14228c1.25663,0.71129 2.51313,1.56474 3.63015,2.41819c-0.41896,0.42672 -0.69818,0.56888 -1.25663,0.56888c-7.39979,1.7069 -14.93918,3.4138 -22.33884,5.1207c-0.41883,0.14228 -0.8378,0.28457 -1.25663,0.28457c-0.69806,0 -1.11689,-0.28457 -1.11689,-0.85345c-0.13961,-2.84492 -0.13961,-5.6897 0.13961,-8.39234c0,-0.14216 0.13961,-0.28444 0.13961,-0.28444z" fill="#5c5857"/><path d="M238.24727,31.11908v0c1.81495,-1.7069 3.3508,-0.71129 5.16588,0.42672c2.65274,2.13362 5.58471,3.98268 8.37707,5.97415c-0.27922,0.42672 -0.83767,0.56888 -1.25663,0.71117c-3.63002,0.85345 -7.12044,1.7069 -10.75059,2.41806c-1.53573,0.28457 -1.95456,0 -1.95456,-1.7069c0,-1.99134 0,-4.12496 0,-6.25859c0,-0.56901 0,-1.13789 0.41883,-1.56461z" fill="#5c5958"/><path d="M230.56826,36.95094v0c0,2.70263 0,5.40514 0,8.10777c0,0.85345 0.13961,1.13789 1.11689,0.85345c7.12056,-1.7069 14.24113,-3.27151 21.50117,-4.83626c0.97741,-0.28444 1.95469,-0.42672 3.07171,-0.56888c0,0 0.13961,0.14216 0.27922,0.14216c0.27922,0.85345 -0.27922,0.99573 -0.8378,0.99573c-3.3508,0.85345 -6.7016,1.56461 -10.0524,2.41806c-4.04898,0.85345 -8.09784,1.7069 -12.00722,2.56035c-1.2565,0.28457 -2.37352,0.42672 -3.63002,0.71129c-0.55857,-0.42672 -0.41883,-1.13802 -0.41883,-1.7069c0,-6.54315 0,-12.80174 -0.13974,-19.20261c-0.13961,-4.12509 -0.13961,-8.10777 -0.13961,-12.23286c0,-0.85345 -0.13961,-1.84906 0.97741,-1.99134v0c0.27922,0.56901 0.13961,1.13789 0.13961,1.56461c0,5.83199 0,11.52157 0,17.21127c0,0.71117 0,1.13789 0.13961,1.7069c0,1.42246 0,2.84479 0,4.26725z" fill="#383f48"/><path d="M238.24727,41.64492v0c0,0.42672 0,1.13789 -0.55845,1.13789c-0.69818,0 -1.39624,-0.71117 -1.95469,-1.28017c-0.27922,-0.28444 0.13961,-0.56888 0.41883,-0.85345c0.27922,-0.28444 0.69806,-0.42672 0.55845,-0.85345c0,-2.41806 0.41883,-4.69397 -0.13961,-7.11204c0.27922,-0.56901 0.27922,-1.13789 0.27922,-1.7069c-0.13961,-7.53876 -0.13961,-15.07765 -0.27922,-22.75869c0,-0.28444 0,-0.56888 0,-0.99561c0,-0.56901 0.13961,-1.13802 0.83767,-1.13802c0.69818,0 0.8378,0.56901 0.8378,1.28017c0,3.84052 0,7.68104 0,11.66385c0,1.56461 0,3.12936 0,4.69397c-0.69806,-0.14228 -0.41883,-0.71117 -0.41883,-0.99573c-0.13961,-4.97841 -0.27922,-9.81467 -0.13961,-12.9439c-0.13961,8.67665 0.55845,19.34477 0.27922,29.87073c0,0.71117 0.13961,1.42233 0.27922,1.99134z" fill="#8d847a"/><path d="M238.24727,41.64492v0c-0.8378,0 -0.55845,-0.71117 -0.55845,-1.28017c0,-3.12936 0,-6.40087 0,-9.53023c-0.13961,-7.39648 -0.27935,-14.93536 -0.27935,-22.33184c0,-0.56901 -0.13961,-1.13802 0.41896,-1.7069c0,0.42672 0.13961,0.85345 0.13961,1.13789c0,4.83626 0,9.38794 0.13961,14.2242c0,0.42672 -0.27922,0.99561 0.13961,1.56461c0,2.41806 0,4.83626 0,7.3966c0,2.7025 0,5.54742 0,8.24993c0,0.85345 0.13961,1.13802 1.11689,0.85345c4.1886,-0.99561 8.23745,-1.84906 12.42605,-2.7025c0.27922,0.14216 0.55845,0.42672 0.83767,0.56888c-2.51313,1.13802 -5.4451,1.28017 -8.09784,2.13362c-2.0943,0.56901 -4.32808,0.56901 -6.28277,1.42246z" fill="#353d47"/><path d="M230.28904,12.20091v0c-0.69806,0.28444 -0.55845,0.85345 -0.55845,1.42246c0,5.97415 -0.13961,11.80601 0,17.63787c0.27922,5.40526 0,10.8104 0.27922,16.07338c-0.27922,0.56888 -0.55857,0.85345 -1.11702,0.42672c-0.55845,-0.28457 -0.27922,-0.71129 0,-1.13802c0.41883,-0.85345 0.27922,-1.56461 0.27922,-2.41806c-0.13961,-1.99134 0.27922,-3.98281 -0.27922,-5.83186c0.27922,-0.56901 0.27922,-1.28017 0.27922,-1.84918c-0.13961,-7.68104 -0.13961,-15.50437 -0.27922,-23.18542c0,-0.56888 -0.13961,-1.28017 0.55845,-1.56461c0.55857,-0.28444 0.69818,0 0.8378,0.42672z" fill="#91887f"/><path d="M230.56826,32.6837v0c-0.13961,-0.14228 -0.13961,-0.42672 -0.13961,-0.56901c0,-6.68531 -0.13961,-13.22847 -0.13961,-19.91378c0.13961,0.14228 0.27922,0.28444 0.27922,0.42672c0,6.68531 0,13.37075 0,20.05606z" fill="#91887f"/><path d="M241.73768,89.72265v0c0,-3.69837 0,-7.53889 0,-11.09484c0,-0.71129 0,-1.28017 0.41883,-1.84918c7.67901,-5.83186 15.49763,-11.66385 23.31625,-17.638c2.51313,-1.7069 5.02626,-3.69824 7.39979,-5.40514c0.13961,-0.14228 0.55845,-0.28444 0.97728,-0.56901c0,4.26725 0,8.53449 0,12.65958c-9.63357,7.25432 -19.26726,14.50864 -28.90096,21.76296c-0.97728,0.71117 -1.95456,1.56461 -3.21119,2.13362z" fill="#040507"/><path d="M224.00615,70.52004v0c0.55857,0.56888 1.25663,1.28017 0,1.99134c-0.27922,0.14228 -0.13961,1.42246 -0.13961,2.27591c-1.39611,-0.28457 -1.95456,-1.13802 -1.81495,-2.56035c0.13961,-0.71129 0.27922,-1.42246 -0.55845,-1.99147c-0.13974,-0.14216 -0.27935,-0.28444 -0.55857,-0.28444c-0.27922,0.14228 -0.27922,0.56901 -0.27922,0.71117c0,0.56901 0,1.28017 0,1.84918c-1.2565,-0.28444 -1.95469,-0.99573 -1.81495,-2.27591c0,-0.71117 0.13961,-1.56461 -0.41896,-2.27578c-0.69806,-0.71129 0.27922,-1.13802 0.55857,-1.7069c0.27922,-0.56901 0.83767,-0.28457 1.11689,0c0.55845,0.71117 2.51313,0.56888 1.11689,2.13362c-0.13961,0.28444 0.13961,0.42672 0.27935,0.42672c0.27922,0.28444 0.55845,0.28444 0.69806,-0.14228c0.27922,-0.56901 0.69806,-0.56901 1.11689,-0.28444c0.69806,0.42672 1.53585,0.71117 1.67546,1.56461c0.13961,0.99573 -0.69806,0.14228 -0.97741,0.56901z" fill="#a4a6a0"/><path d="M218.0026,67.67512v0c0,1.84918 -0.97728,2.41819 -2.51313,1.56474c-2.51313,-1.28017 -4.04886,-3.84052 -3.76963,-6.11643c0,-1.13789 0.69806,-1.56461 1.81508,-1.28017c2.23378,0.71117 4.32808,3.55608 4.46769,5.83186z" fill="#a7a8a2"/><path d="M237.54921,82.89505v0c0,0.56888 0.97728,0.56888 0.55845,1.13789c-0.41883,0.42672 -0.97741,0.14228 -1.25663,0c-1.67534,-0.99573 -3.07158,-2.13362 -3.49041,-4.12496c0,-0.71129 0,-1.13802 0.55845,-1.7069c0.55845,-0.28457 0.97741,0 1.53585,0.14216c1.39611,0.99573 2.65274,2.13362 3.07158,3.84052c0.13961,0.71129 0,1.28017 -0.97728,0.71129z" fill="#a5a6a0"/><path d="M232.80217,78.0588v0c-0.97741,-0.28444 -1.67546,-0.71117 -1.95469,-1.42246c-0.27922,-0.28444 -0.55845,-0.56888 -0.97728,-0.42672c-0.41896,0.28457 -0.27922,0.71129 -0.13961,1.13802c0.27922,0.56888 0.55845,1.28017 1.39611,1.13789c0,0 0,0 0.13961,0c0.69806,0.14228 1.11702,0.71117 1.53585,1.13789c0.13961,0.14228 0,0.42672 -0.13961,0.56901c-0.69818,0.42672 -1.25663,0 -1.81508,-0.28444c-1.53585,-0.99573 -2.93197,-2.13362 -2.93197,-4.12509c-0.13961,-1.42233 0.41883,-1.99134 1.67546,-1.28017c1.39611,0.71129 2.65274,1.7069 3.21119,3.55608z" fill="#a4a59f"/><path d="M226.65889,72.36909v0c0.13961,0.14228 0.27935,0.42672 0.27935,0.56901c0.13961,1.28017 0,2.56035 0,3.98281c-1.11702,-0.28457 -1.81508,-0.85345 -1.67546,-2.27591c0.13961,-0.71117 0,-1.42246 0,-2.27591c0,-0.42672 0.13961,-0.71117 0.69806,-0.56888c0.41883,-0.14228 0.55845,0.28444 0.69806,0.56888z" fill="#a4a59f"/><path d="M226.65889,72.36909v0c-0.41883,0 -0.41883,-0.42672 -0.69806,-0.56888c-0.41883,-0.42672 -0.83767,-0.85345 -0.69806,-1.56474c0.13961,-0.28444 0.27922,-0.28444 0.41883,-0.14216c0.55845,0.56888 1.39624,0.56888 1.39624,1.42233c0,0.42672 -0.13961,0.71129 -0.41896,0.85345z" fill="#9b9d97"/><path d="M255.55985,76.92091v0c-0.13961,-0.99573 -0.27922,-1.84918 -0.27922,-2.70263c-1.39611,0.28444 -1.2565,1.28017 -1.11689,2.27591c0.13961,1.28017 -0.27922,2.13362 -1.67546,2.56035c-0.13961,-1.99147 -0.97728,-3.84052 0.13961,-5.6897c0.55845,-0.99573 1.25663,-1.7069 2.23391,-2.13362c0.41883,0.85345 -0.27922,1.28017 -0.55845,1.84918c0.97728,0 0.97728,-0.71129 1.2565,-1.28017c0.13961,-1.28017 0.97741,-2.13362 1.95469,-2.56035c0.13961,-0.14228 0.41883,-0.28457 0.55845,-0.14228c0.13961,0.14228 0.27922,0.42672 0.13961,0.56901c-0.55845,1.84906 -1.11689,3.69824 -1.11689,5.54742c0,0.99561 -0.83767,1.13789 -1.53585,1.7069z" fill="#3e4d5d"/><path d="M245.36771,81.33031v0c0,-2.27578 2.0943,-5.1207 3.90937,-5.97415c1.39611,-0.42672 2.0943,0 2.23391,1.56474c0.13961,2.27578 -2.37352,5.83186 -4.60743,6.25859c-1.11689,0.28444 -1.53585,-0.28444 -1.53585,-1.84918z" fill="#415161"/><path d="M266.17082,66.53723v0c0,-1.7069 1.95469,-4.40953 3.63015,-4.69397c0.83767,-0.28444 1.53573,0 1.39611,1.13789c-0.27922,1.99147 -1.2565,3.69837 -3.21119,4.55181c-0.97728,0.56888 -1.67546,0.28444 -1.81508,-0.99573z" fill="#404f5f"/><path d="M265.61238,67.95969v0c-0.27922,1.42233 -2.0943,3.4138 -3.21119,3.84052c-0.83767,0.14216 -1.39624,0 -1.53585,-0.99573c-0.13961,-1.84918 2.0943,-4.83626 3.76976,-5.1207c0.27922,0 0.69806,0 0.83767,0.28444c0.27922,0.28457 0,0.71129 -0.27922,0.85345c-0.41883,0.42672 -0.69806,0.56901 -1.25663,0.71129c-0.55845,0 -0.83767,0.56888 -1.11689,0.99561c-0.13961,0.42672 -0.27922,0.99573 0.13961,1.28017c0.41883,0.28457 0.83767,-0.28444 0.97728,-0.56888c0.27935,-0.71129 0.69818,-1.28017 1.67546,-1.28017z" fill="#404f5f"/><path d="M260.30689,70.94676v0c-0.13961,1.28017 0.41883,2.41806 -0.83767,3.12923c-0.55845,0.28457 -0.97741,0.42672 -0.8378,-0.42672c0.13961,-1.28017 -0.69806,-2.7025 0.41896,-3.98268c0.13961,0 0.13961,-0.14228 0,-0.28457c-0.41896,-0.71117 -0.13961,-1.56461 0.69806,-1.84906c0.41883,0 0.69806,0.28444 0.55845,0.56888c-0.41883,1.13802 0.27922,2.13362 0,2.84492z" fill="#3e4d5d"/><path d="M215.9083,66.53723v0c0,0.42672 0.13961,0.99573 -0.55845,0.99573c-0.83767,-0.14228 -1.81495,-1.56474 -1.81495,-2.70263c0,-0.42672 0,-0.85345 0.69806,-0.99573c0.69806,0 1.67534,1.42246 1.67534,2.70263z" fill="#1e1c19"/><path d="M236.71142,81.04587v0c-0.69806,-0.28444 -1.11689,-0.42672 -1.39611,-1.13789c0.83767,-0.28457 1.11689,0.28444 1.39611,1.13789z" fill="#3d3c39"/><path d="M247.32239,80.05014v0c0.13961,-1.28017 0.41883,-2.27578 1.53585,-2.56035c0.69806,-0.14216 0.55845,0.56901 0.55845,0.99573c0,1.13789 -0.83767,2.56035 -1.53585,2.56035c-0.83767,-0.14228 -0.41883,-0.71117 -0.55845,-0.99573z" fill="#010203"/></g></g></g></svg>