<svg version="1.1" xmlns="http://www.w3.org/2000/svg" xmlns:xlink="http://www.w3.org/1999/xlink" width="61.4891" height="68.9531" viewBox="0,0,61.4891,68.9531"><g transform="translate(-210.1946,-133.13495)"><g data-paper-data="{&quot;isPaintingLayer&quot;:true}" fill-rule="nonzero" stroke="none" stroke-width="0.18889" stroke-linecap="butt" stroke-linejoin="miter" stroke-miterlimit="10" stroke-dasharray="" stroke-dashoffset="0" style="mix-blend-mode: normal"><path d="M210.3821,151.4981v0c8.6235,-5.8991 17.4344,-11.9884 26.0578,-18.0777c0.5624,-0.3806 0.9374,-0.3806 1.4998,0c9.9357,7.0408 19.8714,14.0815 29.8072,21.1223c1.1248,0.7612 2.2496,1.7126 3.1869,2.4738c0.3749,0.1903 0.7499,0.3806 0.7499,0.9515c-0.1875,1.1417 0,2.4737 -0.1875,3.6155c-0.3749,-0.3806 -0.1875,-0.7612 -0.1875,-1.1418c0,-0.5708 0,-1.5223 -0.1874,-2.4737c-0.1875,0 -0.375,0.1902 -0.5624,0.3805c-2.0622,1.5224 -4.1243,2.8544 -5.999,4.3767c-0.3749,0.1903 -0.3749,0.3806 0,0.5709c0.9374,0.7612 1.6872,1.1418 2.4371,1.9029c0.5624,0.3806 0.5624,0.5709 0,0.9515c-1.6872,1.332 -3.3744,2.4738 -5.0616,3.8058c-1.4997,1.1418 -2.9995,2.2835 -4.4992,3.235c-0.5624,0.3805 -0.7499,0.9514 -0.7499,1.5223c0,0.7611 0,1.332 0,1.9029c0,0.1903 0,0.5709 -0.3749,0.5709c-0.3749,-0.7612 -0.1875,-1.7127 -0.1875,-2.4738c0,-0.5709 -0.1874,-1.1418 -0.9373,-1.5223c-0.7499,-0.5709 -1.3123,-1.3321 -2.2496,-1.5224c-0.3749,-0.3806 -0.5624,0 -0.9373,0.1903c-1.1248,0.7612 -2.4371,1.7126 -3.5619,2.4738c-1.1248,0.7612 -2.0621,1.5223 -2.9995,2.2835c-0.3749,0.1903 -0.3749,0.5709 -0.7498,0.7612c-1.8747,-1.903 -4.1243,-3.0447 -6.3739,-4.9476c0,1.332 0,2.4738 0,3.6155c0,0.5709 0,0.7612 -0.3749,1.1418c0,0 0,0 -0.1875,0c-0.1875,-0.5709 0,-1.1418 -0.1875,-1.7127c0.1875,-0.7611 0,-1.7126 0.1875,-2.4737c0,-0.5709 -0.1875,-1.1418 -0.7499,-1.3321c-1.4997,-1.1417 -2.9994,-2.2835 -4.6866,-3.4252c-3.1869,-2.4738 -6.3739,-4.9476 -9.7483,-7.2311c-3.9368,-2.8544 -7.6861,-5.7087 -11.6229,-8.5631c-0.3749,-0.1903 -0.5624,-0.3806 -0.5624,-0.9514z" fill="#b5afad"/><path d="M256.3114,177.1874v0c0.3749,-0.9515 0.1875,-1.9029 0.1875,-2.8544c0,-0.3806 0.1874,-0.7612 0.5624,-0.9515c3.1869,-2.4737 6.3738,-4.7572 9.7482,-7.231c0.375,-0.3806 0.7499,-0.5709 0,-0.9515c-1.1248,-0.7611 -2.0621,-1.5223 -3.1869,-2.2835c1.8747,-1.332 3.7493,-2.4738 5.624,-3.8058c0.3749,-0.3806 1.1248,-0.7612 1.4997,-1.1417c0.1875,-0.1903 0.375,-0.3806 0.5624,-0.3806c0.1875,0.1903 0,0.3806 0,0.7611c0,1.1418 0,2.0932 0.1875,3.235c-0.1875,6.8505 -0.1875,13.5107 -0.3749,20.3612c0,0.3805 -0.1875,0.7611 -0.375,0.9514c-1.1248,0.7612 -2.0621,1.1418 -2.812,2.0932c-0.1874,0.1903 -0.3749,-0.1903 -0.5624,-0.1903c0,0.5709 0,1.1418 0,1.7126c0.1875,0.5709 0,1.1418 -0.1874,1.903c0,0.1902 -0.1875,0.3805 0,0.5708c0.1874,1.5224 -0.375,2.2835 -1.4998,3.0447c-2.9994,1.9029 -5.9989,4.1864 -8.6234,6.4699c-0.7499,0.5709 -1.1248,0.3806 -1.4998,-0.1903c-0.3749,-0.1903 -0.7498,-0.3806 -1.1248,-0.5709c0.375,-0.7611 0.5624,-1.5223 0.1875,-2.6641c-0.1875,-0.7611 0,-1.7126 -0.3749,-2.4737c0.5624,-0.9515 0.9373,-1.7127 0.3749,-2.8544c-0.1875,-0.3806 -0.1875,-0.7612 -0.1875,-1.332c0,-0.3806 0,-0.7612 -0.1874,-1.1418c0,-0.1903 0,-0.3806 0,-0.3806c1.1248,-0.7611 0.7498,-1.7126 0.3749,-2.8543c-0.1875,-0.7612 0.1875,-1.5224 -0.3749,-2.2835c-0.1875,-0.1903 0,-0.3806 0.1874,-0.5709c0.7499,-0.7612 0.7499,-1.5223 0.375,-2.2835c-0.1875,-0.1903 -0.375,-0.5709 -0.375,-0.9515c0.375,-1.5223 -0.5624,-2.0932 -1.6872,-2.8543c-0.1874,0.1903 -0.1874,0 -0.1874,0.1903c-0.7499,1.332 -1.8747,2.2835 -2.2496,3.6155l-0.1875,0.1903c0,0 -0.1875,0 -0.1875,0.1903c-0.1874,0.1903 -0.3749,0.3806 -0.5624,0.5708c-0.1874,0.3806 -0.1874,0.7612 -0.3749,1.1418c-0.1875,0.3806 -0.1875,0.9515 0.3749,1.332c0.5624,0.1903 0.5624,0.5709 0.375,1.1418c-0.1875,0.7611 -0.1875,1.332 -0.5624,2.0932c-0.5624,0.9514 -0.375,1.5223 0.1874,2.4738c0.375,0.3806 0.375,0.5708 0.375,0.9514c-0.1875,0.7612 -0.1875,1.5224 -0.5624,2.0932c-0.375,0.7612 -0.5624,1.7127 0.3749,2.4738c0.1875,0.1903 0.3749,0.7612 0.1875,1.1418c-0.1875,0.7611 -0.1875,1.5223 -0.5624,2.0932c-0.5624,0.5708 -0.375,1.332 0,1.9029c-1.1248,0.9514 -2.4371,1.9029 -3.5619,2.8543c-0.1875,0 -0.3749,0.3806 -0.5624,0.3806c-0.5624,0.1903 -0.5624,-0.1903 -0.5624,-0.3806c-0.1875,-0.3805 -0.1875,-0.7611 -0.1875,-1.1417c0,-7.2311 0,-14.4621 0,-21.6932c0,-0.3806 0,-0.9515 0.375,-1.332c0,-0.3806 0,-0.5709 0.3749,-0.7612c0.9373,-0.7612 2.0621,-1.5223 3.1869,-2.2835c0.5624,0 0.5624,0.3806 0.7499,0.5709c0.5624,0.7611 0.9373,0.9514 1.6872,0.3806c0.7499,-0.5709 1.1248,-1.1418 1.4997,-2.2835c0,-0.1903 0.1875,-0.5709 0.5624,-0.7612c0.1875,0 0.375,0.3806 0.5624,0.5709c0.1875,0.1903 0.375,0.3806 0.5624,0.3806c0.7499,0.9514 1.1248,1.9029 1.6872,3.0446c0,0.3806 0.375,0.7612 0.5624,1.1418v0h0.1875c0,-0.1903 0,-0.1903 0,-0.1903z" fill="#667675"/><path d="M210.3821,151.4981v0c0.9373,1.1417 2.2496,1.9029 3.3744,2.8543c5.9989,4.3767 12.1853,8.7534 18.1843,13.3204c0.1874,0 0.3749,0.3806 0.3749,0.3806c0.5624,0.5709 0.3749,1.332 0.3749,2.0932c0,0.3806 0,0.5709 0,0.9515c0,0.7611 0.1875,1.7126 0,2.664c0,0.1903 0,0.1903 0,0.3806c0,0.9515 0.1875,1.7126 0,2.6641c0.1875,0.9514 0,1.9029 0,2.6641c0.1875,0.9514 0,1.9029 0,2.8543c0.1875,0.7612 0.375,1.7127 0.375,2.6641c0,0.9515 0,1.9029 0,2.6641c0,0.9514 0,2.0932 0,2.8544c-0.1875,0.9514 0,1.7126 -0.375,2.664c-2.2496,-1.5223 -4.3117,-3.2349 -6.5613,-4.9475c-4.4992,-3.4253 -8.9984,-6.6602 -13.4976,-10.0855c-1.3123,-0.9514 -1.6872,-1.5223 -1.6872,-3.0446c0,-3.8059 -0.1875,-7.6117 -0.3749,-11.4175c0,-2.8544 -0.1875,-6.0893 -0.1875,-8.9437c0,-0.7612 -0.1875,-1.5223 -0.1875,-2.4738c0,-0.1903 0,-0.3806 0.1875,-0.7611z" fill="#fef4c3"/><path d="M244.6885,177.3777v0c0,7.8019 0,15.7941 0,23.7864c0,0.1903 -0.1875,0.5708 0.3749,0.7611c-0.3749,0.3806 -0.7499,0 -0.9373,-0.1903c-1.8747,-1.5223 -4.1243,-3.0446 -5.999,-4.5669c-0.1874,-1.3321 -0.1874,-2.8544 -0.1874,-4.1865c0,-0.3805 0,-0.7611 0,-1.332c-0.1875,-0.7612 0,-1.7126 0,-2.6641c0,-0.7611 -0.1875,-1.5223 0,-2.2835c0,-2.664 0,-5.5184 -0.1875,-8.1825c0,-0.5709 0,-0.9514 0.1875,-1.332c0,-1.7127 0,-3.235 0,-5.1379c2.2496,1.7126 4.3117,3.0447 6.3738,4.567c0.375,0.1903 0.1875,0.5709 0.375,0.7612z" fill="#fef4c3"/><path d="M249.1877,198.6903v0c-0.5624,-0.5709 -0.7499,-1.3321 -0.375,-2.0932c0.5624,-0.5709 0.5624,-1.5224 0.7499,-2.0932c0.1875,-0.3806 0,-0.7612 -0.3749,-0.9515c-0.5624,-0.5709 -0.7499,-1.332 -0.375,-2.2835c0.375,-0.7611 0.7499,-1.5223 0.7499,-2.4738c0,-0.1903 0,-0.3805 -0.1875,-0.7611c-0.7498,-0.7612 -0.9373,-1.5224 -0.5624,-2.2835c0.375,-0.9515 0.7499,-1.7126 0.7499,-2.4738c0.1875,-0.3806 0.1875,-0.5709 -0.1875,-0.7612c-0.7498,-0.3806 -0.7498,-1.1417 -0.5624,-1.9029c0.1875,-0.1903 0.1875,-0.7612 0.5624,-0.7612c0.1875,0 0.1875,0.1903 0.1875,0.5709c-0.1875,0.3806 0,0.3806 0.3749,0.5709c0.5624,0.3806 1.1248,0.5709 1.4998,1.332c0,0.7612 -0.7499,1.1418 -0.9374,1.9029c-0.1874,0.1903 -0.1874,0.1903 -0.3749,0.3806c0,0.1903 -0.1875,0.1903 -0.1875,0.3806c-0.1874,0.1903 -0.3749,0.3806 -0.3749,0.5709c-0.1875,0.5709 -0.1875,0.9514 0.5624,0.9514c0.5624,0.3806 1.1248,0.7612 1.6872,1.3321c0.1875,0.1903 0.3749,0.3806 0.3749,0.5709c-0.5624,0.9514 -1.3122,1.1417 -1.8746,1.7126c-0.1875,0.1903 -0.375,0.3806 -0.375,0.3806c-0.1874,0.5708 -0.5624,0.9514 0,1.332c0.375,0.5709 1.1248,0.7612 1.4998,1.332c0.1874,0.5709 -0.1875,0.7612 -0.375,1.1418c-0.3749,0.3806 -0.3749,0.5709 -0.5624,0.7611c-0.1874,0.3806 -0.1874,0.3806 -0.3749,0.5709c0,0.1903 -0.1875,0.1903 -0.1875,0.5709c-0.1874,0.3806 -0.3749,0.7612 0,1.1417c0.1875,0.1903 0.375,0.1903 0.375,0.5709c-0.375,0.3806 -0.7499,0.5709 -1.1248,0.7612z" fill="#576361"/><path d="M238.1271,191.6495v0c0.1875,1.9029 0.1875,3.6155 0,5.5185c-1.8746,-1.3321 -3.5618,-2.6641 -5.4365,-3.9962c0,-0.9514 0,-1.7126 0,-2.664c0.1875,0 0.1875,0 0.375,0c0.3749,0.1902 0.7498,0.5708 1.1248,0.7611c1.3122,0.9515 2.437,1.7126 3.5618,2.6641c0.1875,-0.7612 0.1875,-1.332 0.1875,-1.9029c0,-0.1903 0,-0.1903 0.1874,-0.3806z" fill="#71ac50"/><path d="M249.9375,196.0262v0c0,-0.1903 0,-0.3806 0,-0.5709c0.7499,0.3806 1.1248,0.7612 1.6872,1.1418c0.5624,0.3806 0.9374,0.5709 1.4998,0c0.1874,-0.1903 0.3749,-0.1903 0.3749,-0.3806c0.5624,-0.1903 0.9373,-0.5709 1.1248,-0.9515c0.1875,0 0.1875,0 0.1875,-0.1903c0.5624,0.7612 0.3749,2.2835 -0.375,2.6641c0,0.1903 0,0.1903 0,0.1903c-0.5624,0.3806 -1.3122,1.1418 -2.0621,1.3321c-0.7499,0.1902 -1.1248,-0.9515 -1.6872,-1.3321c-0.1875,0 -0.3749,0 -0.3749,0c-0.1875,-0.1903 -0.375,-0.3806 -0.375,-0.3806c-0.3749,-0.5708 -0.1874,-0.9514 0,-1.5223z" fill="#29522c"/><path d="M267.1845,188.4146v0c-0.375,-0.7612 0,-1.3321 0,-1.903c0.3749,-0.5708 0.7498,-0.9514 1.3122,-1.1417c0.375,1.5223 0.1875,2.0932 -1.3122,3.0447z" fill="#2c5330"/><path d="M268.4967,185.3699v0c-0.3749,0.3806 -0.9373,0.7612 -1.3122,1.1417c0,-0.7611 0,-1.332 0,-2.0932c0.3749,0 0.5624,0.3806 0.7498,0.5709c0.1875,0.1903 0.375,0.1903 0.5624,0.3806z" fill="#113013"/><path d="M237.9397,177.1874v0c0,3.2349 0,6.4699 0,9.5145c-0.375,0.1903 -0.7499,-0.1903 -0.9374,-0.5708c-0.7498,-0.9515 -1.6872,-1.5224 -2.437,-2.2835c-0.7499,-0.5709 -1.4997,-0.9515 -1.8747,-1.5224c-0.1874,-0.9514 0,-1.9029 0,-2.8543v0c0.7499,0.3805 1.3123,0.7611 1.8747,1.1417c0,0.1903 0.1875,0.1903 0,0.5709c-0.3749,0 -0.7499,0 -1.1248,-0.3806c-0.3749,-0.3806 -0.3749,0 -0.5624,0.3806c0,0.3806 0.1875,0.5709 0.5624,0.7612c0.7499,0.7611 1.4997,0.9514 2.0621,1.9029c0.1875,0.1903 0.3749,0.1903 0.3749,0.1903c0.5624,-0.1903 0.9374,0 1.1248,0.5708c0,0.1903 0.1875,0.3806 0.375,0.1903c0.1874,0 0.1874,-0.3806 0.1874,-0.5709c0,-0.3805 -0.1874,-0.5708 -0.3749,-0.7611c-0.3749,-0.1903 -0.9373,-0.5709 -0.7499,-0.9515c0.5624,-0.3806 0.9374,0.3806 1.1248,0.3806c0.5624,-1.5223 -0.3749,-2.2835 -1.3122,-3.0447c-0.5624,-0.5708 -1.1248,-0.9514 -1.6872,-1.5223c-0.7499,-0.5709 -1.4997,-0.7611 -1.8747,-1.5223c0,-0.9515 0,-1.9029 0,-2.8544c0.5624,0 0.7499,0.5709 1.4998,0.7612c0.9373,0.9514 2.0621,1.7126 3.1869,2.4738c0.1874,0.1903 0.3749,0.1903 0.5624,0z" fill="#71ac50"/><path d="M232.5032,171.0981v0c-0.1875,-0.9515 -0.1875,-2.0933 -0.1875,-3.0447c1.3123,0.5709 2.2496,1.5223 3.1869,2.0932c0.7499,0.7612 1.8747,0.9515 2.2496,1.9029c0.3749,0.9515 0.1875,2.0932 0.1875,3.0447c0,0.1903 0,0.3805 0,0.3805c-0.375,0 -0.5624,-0.1902 -0.9374,-0.3805c-0.5624,-0.7612 -1.1248,-1.3321 -1.8746,-1.7127c-0.3749,-0.3805 -0.5624,-0.3805 -0.9373,-0.7611c-0.5624,-0.5709 -1.3123,-0.7612 -1.6872,-1.5223z" fill="#71ac50"/><path d="M253.8743,173.3815v0c-0.3749,0 -0.5624,-0.3805 -0.7498,-0.5708c-0.1875,-0.1903 -0.1875,-0.3806 -0.375,-0.3806c-0.3749,0 -0.3749,0.1903 -0.3749,0.5709c-0.1875,1.1417 -0.7499,2.0932 -1.8747,2.664c-0.5624,0.3806 -1.3122,0.1903 -1.6872,-0.5708c0,-0.3806 -0.1874,-0.7612 -0.5624,-0.7612c1.3123,-0.9515 2.6246,-1.9029 3.9368,-2.8544c0.1875,-0.1903 0.5624,-0.3805 0.5624,0c0.7499,0.3806 1.1248,1.1418 1.1248,1.9029z" fill="#667675"/><path d="M235.1277,173.1913v0c0.7498,0.3805 1.4997,0.9514 1.8746,1.5223c0.1875,0.3806 0.5624,0.3806 0.9374,0.7611c0,0.5709 0,1.1418 0,1.7127c0,0.1903 0,0.3806 0,0.5708c-1.3123,-0.9514 -2.812,-1.9029 -3.9368,-2.8543c-0.1875,-0.5709 0.3749,-1.5224 1.1248,-1.7126z" fill="#1a4112"/><path d="M253.8743,173.3815v0c-0.3749,-0.7611 -0.7498,-1.332 -1.1248,-1.9029c0.375,-0.3805 0.5624,0 0.7499,0.1903c0.7499,0.5709 1.6872,1.1418 2.4371,1.7126c0.3749,0.1903 0.3749,0.5709 0.3749,0.9515c0,0.9515 0,1.9029 0,2.8544c0,0 0,0.1903 0,0.3806c-0.5624,-0.3806 -0.5624,-0.9515 -0.9373,-1.3321c-0.5624,-0.9514 -0.9374,-1.9029 -1.4998,-2.8544z" fill="#fcf1bf"/><path d="M251.4373,182.3252v0c-0.375,-0.3805 -1.1248,-0.7611 -1.4998,-1.1417c-0.3749,-0.7612 -0.3749,-1.3321 0,-2.0932v0c0.7499,0 1.1248,0.5709 1.4998,0.9514c0.9373,0.5709 0.9373,0.5709 1.8746,0c0.1875,-0.1903 0.1875,-0.1903 0.1875,-0.1903c0.5624,-0.3805 0.9373,-0.7611 1.3123,-1.1417v0c0.7498,0.7612 0.5624,2.0932 -0.1875,2.6641c-0.1875,0 -0.1875,0.1903 -0.3749,0.1903c-0.375,0.5708 -0.9374,0.7611 -1.4998,1.332c0,0 0,0 -0.1874,0c-0.1875,0 -0.1875,0 -0.375,0c-0.1874,0 -0.5624,-0.1903 -0.7498,-0.5709z" fill="#2a532c"/><path d="M251.9997,188.6048v0c0,-0.7611 -0.7499,-0.9514 -1.3123,-1.332c0,-0.1903 -0.3749,-0.3806 -0.7499,-0.5709c-0.5624,-0.5708 -0.3749,-1.332 0,-1.9029c0,0 0,-0.1903 0,-0.3806c0.7499,0.3806 1.1248,0.7612 1.6872,1.3321c0.5624,0.3806 1.1248,0.3806 1.4998,-0.1903c0.1874,-0.1903 0.3749,-0.1903 0.3749,-0.1903c0.3749,-0.1903 0.9373,-0.5709 1.1248,-0.9515c0,-0.1903 0.1875,-0.1903 0.1875,-0.1903c0.7498,0.9515 0.5624,1.903 -0.5624,2.8544c-0.375,0.5709 -0.9374,0.9515 -1.4998,1.3321c0,0.1902 -0.1874,0.1902 -0.1874,0.1902c-0.1875,0 -0.375,0 -0.5624,0z" fill="#29522c"/><path d="M251.4373,193.1718v0c-0.7499,-0.3805 -1.1248,-0.5708 -1.4998,-1.1417c-0.3749,-0.5709 -0.1874,-1.1418 0,-1.5223c0,-0.1903 0,-0.3806 0,-0.3806c0.7499,0.1903 1.1248,0.7611 1.6872,0.9514c0.7499,0.5709 0.7499,0.5709 1.4998,0c0.1874,0 0.3749,-0.1903 0.3749,-0.1903c0.5624,-0.3805 0.9373,-0.5708 1.1248,-0.9514c0,-0.1903 0.1875,-0.1903 0.1875,-0.1903c0.5624,0.7612 0.3749,2.0932 -0.5624,2.8544c-0.375,0.5708 -0.9374,0.7611 -1.4998,1.332c0,0 0,0 -0.1874,0c-0.1875,0.1903 -0.375,0.1903 -0.5624,0c-0.375,0 -0.5624,-0.3806 -0.5624,-0.7612z" fill="#29522b"/><path d="M260.4357,186.5116v0c0.3749,1.3321 -0.7499,1.7127 -1.4998,2.2835c-0.3749,0.1903 -0.9373,0.9515 -1.1248,0.7612c-0.5624,-0.1903 -0.1874,-0.9515 -0.1874,-1.5223c0,-0.7612 0.3749,-1.1418 0.9373,-1.7127c0.1875,-0.1902 0.5624,-0.1902 0.7499,-0.5708c0.3749,-0.1903 0.7498,-0.5709 0.9373,-0.5709c0.3749,0.1903 0,0.9515 0.1875,1.332z" fill="#f9ffff"/><path d="M257.6237,178.5194v0c0,-0.7612 0,-1.5223 0,-2.2835c0,-0.3806 0.3749,-0.3806 0.5624,-0.5709c0.5624,-0.5708 1.3122,-1.1417 2.0621,-1.5223c0.5624,2.0932 -0.1875,3.4253 -2.6245,4.3767z" fill="#3b4588"/><path d="M265.8722,177.1874v0c0.3749,0.7611 -0.3749,1.332 -1.1248,1.9029c-0.3749,0.3806 -0.9373,0.9514 -1.3123,0.7611c-0.5624,-0.1902 -0.1874,-0.9514 -0.1874,-1.5223c-0.1875,-0.7611 0.1874,-1.1417 0.7498,-1.5223c0.375,-0.1903 0.9374,-0.5709 1.4998,-0.9515c0,0 0.1874,-0.3806 0.1874,-0.1903c0.375,0.1903 0.1875,0.3806 0.1875,0.5709c0,0.1903 0,0.3806 0,0.9515z" fill="#3c4588"/><path d="M263.2477,174.7136v0c0,-0.3806 0,-0.5709 0,-0.5709c0,-2.2835 0.3749,-3.0446 2.6245,-3.9961c0,0.7612 0,1.5223 0,2.0932c0,0.3806 -0.1875,0.5709 -0.1875,0.7612c-0.7498,0.3805 -1.4997,0.9514 -2.437,1.7126z" fill="#f9ffff"/><path d="M260.4357,179.6612v0c0,0.1902 0,0.1902 0,0.1902c0.5624,2.2835 -0.9374,3.4253 -2.812,4.1865c0,-0.7612 0,-1.3321 0,-2.0932c0,-0.3806 0.1874,-0.5709 0.3749,-0.7612c0.7499,-0.3806 1.4997,-0.9515 2.4371,-1.5223z" fill="#f9ffff"/><path d="M265.6847,181.1835v0c0,0.7612 0,1.5223 0,2.0932c0,0.3806 -0.1874,0.5709 -0.3749,0.7612c-0.5624,0.5708 -1.3123,0.9514 -1.8747,1.332c-0.1874,0.3806 -0.3749,0 -0.3749,-0.1903c0,-0.5709 0,-1.1417 0,-1.7126c0,-0.1903 0.1875,-0.5709 0.1875,-0.5709c0.7498,-0.5709 1.4997,-1.1417 2.437,-1.7126z" fill="#f9ffff"/><path d="M263.0602,191.0786v0c0,-0.9514 0,-1.7126 0,-2.2835c0,-0.1903 0.1875,-0.3805 0.1875,-0.5708c0.7498,-0.3806 1.4997,-0.9515 2.0621,-1.3321c0.3749,-0.3806 0.3749,-0.1903 0.3749,0.1903c0,0.5709 0,1.1418 0,1.5223c0,0.3806 0,0.5709 -0.1874,0.7612c-0.7499,0.5709 -1.4998,1.1418 -2.4371,1.7126z" fill="#3b4588"/><path d="M260.2482,190.5078v0c0,0.9514 0,1.7126 0,2.2835c0,0.3805 -0.1875,0.5708 -0.3749,0.5708c-0.5624,0.5709 -1.1248,0.9515 -1.8747,1.5224c-0.3749,0.1902 -0.3749,0 -0.3749,-0.1903c0,-0.7612 0,-1.1418 0,-1.7127c0,-0.1902 0,-0.3805 0,-0.5708c0.9373,-0.5709 1.6872,-1.1418 2.6245,-1.9029z" fill="#f9ffff"/><path d="M253.6869,179.8514v0c-1.3123,0.9515 -1.3123,0.9515 -2.4371,0.1903c-0.3749,-0.1903 -0.9373,-0.5708 -1.3123,-0.9514c0,0 0,0 0,-0.1903c0.7499,-0.5709 1.6872,-1.332 2.6246,-1.7126h0.1874c0,1.1417 0.375,1.9029 0.9374,2.664z" fill="#112715"/><path d="M252.5621,174.9039v0c0.9373,0.1903 1.3122,0.9514 1.8746,1.332c0.375,0.1903 0.375,0.5709 0.375,0.7612c0,0.5709 -0.1875,1.1417 0,1.7126v0c-0.1875,0.3806 -0.375,0.1903 -0.7499,0c-0.5624,-0.3806 -1.1248,-0.7612 -1.4997,-1.5223v0c-0.375,-0.7612 -0.375,-1.5224 0,-2.2835z" fill="#384079"/><path d="M254.8117,184.2281v0v0.1903c-0.375,0 -0.375,0 -0.7499,0c-0.3749,-0.3805 -0.9373,-0.7611 -1.3123,-1.1417c0,-0.1903 -0.1874,-0.3806 0,-0.5709c0.375,-0.3806 0.9374,-0.7611 1.4998,-1.1417c0.3749,0.3806 0.5624,0.5708 0.5624,0.9514c0,0.5709 0,1.1418 0,1.7126z" fill="#f9ffff"/><path d="M252.7495,188.4146v0c0.375,-0.5709 1.1248,-0.9515 1.4998,-1.3321c0.3749,0.1903 0.5624,0.5709 0.5624,0.9515c0,0.5708 0,1.1417 0,1.7126v0c-0.7499,0.1903 -1.8747,-0.5709 -2.0622,-1.332z" fill="#363c71"/><path d="M252.5621,174.9039v0c0,0.7611 0,1.5223 0,2.2835c-0.9374,0.5708 -1.4998,1.332 -2.6246,1.7126c0,-0.3806 0.375,-0.7612 0.5624,-1.1418c0.7499,-0.7611 1.1248,-1.5223 1.4998,-2.2835c0.1874,-0.3805 0.3749,-0.3805 0.5624,-0.5708z" fill="#556167"/><path d="M252.7495,193.7427v0c0.375,-0.3806 1.1248,-0.7612 1.4998,-1.1417c0.9373,0.7611 0.3749,1.7126 0.5624,2.4737v0.1903c-0.9374,0.1903 -1.8747,-0.5708 -2.0622,-1.5223z" fill="#383d70"/><path d="M268.4967,168.6243v0c0.7499,1.5223 0.375,2.4738 -1.1248,3.2349c0,-1.332 0,-2.4738 0,-3.6155c0,-0.1903 0.1875,-0.3806 0.375,-0.1903c0,0.3806 0,0.9514 0,1.332c0.3749,-0.1903 0.5624,-0.5708 0.7498,-0.7611z" fill="#28502d"/><path d="M268.4967,180.0417v0c0,0.1903 0,0.3806 0,0.5709c0.375,1.1418 -0.3749,1.7126 -1.3122,2.2835c0,-1.332 0,-2.4738 0,-3.6155c0,-0.1903 0.1874,-0.3806 0.3749,-0.1903c0,0.5709 0,0.9514 0,1.332c0.3749,-0.1903 0.5624,-0.3806 0.9373,-0.3806z" fill="#28502d"/><path d="M268.4967,174.333v0c0.7499,1.5223 0.1875,2.4738 -1.1248,2.8544c0,-0.5709 0,-1.1418 0,-1.7127c0.1875,-0.5708 0.7499,-0.7611 1.1248,-1.1417z" fill="#28512d"/><path d="M268.4967,174.333v0c-0.1874,0.5709 -0.7498,0.7612 -1.1248,1.1417c0,-0.7611 0,-1.332 0,-1.9029c0.5624,0.1903 0.7499,0.5709 1.1248,0.7612z" fill="#102e12"/><path d="M268.4967,180.0417v0c-0.3749,0.1903 -0.5624,0.3806 -1.1248,0.7612c0,-0.7612 -0.1874,-1.1417 0.1875,-1.7126c0.3749,0.3806 0.7499,0.5709 0.9373,0.9514z" fill="#113013"/><path d="M268.4967,168.6243v0c0,0.7611 -0.5624,0.7611 -0.9373,1.1417c0,-0.7612 -0.1875,-1.1417 0.1875,-1.7126c0.1874,0.1903 0.5624,0.3806 0.7498,0.5709z" fill="#113114"/><path d="M249.9375,179.0903v0c0,0.7611 0,1.332 0,2.0932c-0.7498,0 -0.7498,-0.3806 -0.7498,-0.7612c0,-0.3806 0.1874,-0.3806 0.1874,-0.5709c0,-0.3805 0.1875,-0.5708 0.5624,-0.7611z" fill="#566360"/><path d="M255.3741,176.2359v0c0.5624,0.3806 0.5624,0.9515 0.9373,1.3321v0.1902c-0.1875,0.1903 -0.1875,0 -0.3749,-0.1902c0,-0.3806 -0.375,-0.7612 -0.5624,-1.3321z" fill="#b5afad"/><path d="M238.1271,191.6495v0c0,0.1903 -0.1874,0.3806 -0.1874,0.5709c-0.375,0 -0.9374,-0.3806 -1.1248,-0.9515c-0.5624,-0.5709 -1.1248,-1.1417 -1.6872,-1.5223c-0.3749,-0.1903 -0.5624,-0.3806 -0.7499,-0.5709c-0.5624,-0.5709 -1.3122,-0.7611 -1.6872,-1.5223c0,-0.7612 0,-1.7126 0,-2.6641h0.1875c1.6872,1.1418 3.1869,2.2835 4.6866,3.4253c0.1875,0.1902 0.375,0.1902 0.375,0.5708c0,0.7612 0.1874,1.9029 0.1874,2.6641z" fill="#71ab4f"/><path d="M227.8165,170.5272v0c-0.7499,-0.5709 -1.4997,-1.1418 -2.2496,-1.9029c-0.5624,-0.1903 -0.1875,-0.7612 -0.1875,-1.3321c0,-0.3806 -0.3749,-0.9514 0,-1.1417c0.375,-0.1903 0.7499,0.3806 1.1248,0.5709c1.6872,0.7611 1.6872,2.0932 1.4998,3.6155c0,0 -0.1875,0 -0.1875,0.1903z" fill="#f9ffff"/><path d="M225.3794,171.4786v0c0.9374,0.5709 1.6872,1.1418 2.4371,1.9029c0,0 0.1875,0 0.1875,0.1903c0,0.7612 0.1874,1.5224 0.1874,2.6641c-0.9373,-0.7612 -1.6872,-1.332 -2.437,-1.9029c-0.375,-0.1903 -0.1875,-0.5709 -0.375,-0.7612c0,-0.5708 0,-1.332 0,-2.0932z" fill="#9e93e0"/><path d="M217.3184,162.7252v0c-0.9374,-0.7611 -1.6872,-1.1417 -2.4371,-1.9029c-0.3749,-0.3806 -0.1875,-0.9514 -0.1875,-1.7126c0,-0.1903 -0.1874,-0.7612 0.1875,-0.7612c0.1875,-0.1903 0.3749,0.1903 0.5624,0.3806c0.1875,0 0.3749,0.1903 0.3749,0.1903c1.6872,0.7612 1.6872,2.0932 1.4998,3.8058z" fill="#f9ffff"/><path d="M222.5674,166.5311v0c-0.9373,-0.7612 -1.6872,-1.1418 -2.437,-1.7127c-0.375,-0.3805 -0.1875,-0.7611 -0.1875,-1.1417c-0.1875,-0.3806 -0.1875,-0.9515 -0.1875,-1.7126c0.9374,0.5708 1.6872,0.9514 2.4371,1.7126c0.1875,0 0.3749,0.1903 0.3749,0.3806c0,0.7611 0,1.5223 0,2.4738z" fill="#9e93e0"/><path d="M222.5674,172.0495v0c-0.7498,-0.5709 -1.4997,-1.1417 -2.0621,-1.5223c-0.5624,-0.3806 -0.3749,-0.9515 -0.3749,-1.3321c0,-0.5708 -0.375,-1.1417 0,-1.5223c0.3749,0 0.7498,0.5709 1.3122,0.7612c1.6872,0.7611 1.1248,2.0932 1.1248,3.6155z" fill="#fffefa"/><path d="M220.1304,173.001v0c0.9373,0.7611 1.6872,1.1417 2.437,1.7126c0.1875,0.1903 0.375,0.3806 0.375,0.7611c0,0.7612 0,1.3321 0,2.0933c-1.1248,-0.5709 -1.8747,-1.1418 -2.4371,-1.7127c-0.3749,-0.1903 -0.3749,-0.3806 -0.3749,-0.5708c0,-0.7612 0,-1.3321 0,-2.2835z" fill="#f9ffff"/><path d="M225.3794,178.5194v0c0.1875,-0.5709 0,-1.1417 0.1875,-1.332c0.3749,-0.1903 0.7499,0.3806 1.1248,0.5708c0,0.1903 0,0.1903 0.1875,0.1903c1.4997,0.5709 1.3122,1.9029 1.3122,3.235c0,0.3806 -0.1874,0.3806 -0.3749,0c-0.7499,-0.3806 -1.3123,-0.7612 -1.8747,-1.3321c-0.7498,-0.3805 -0.1874,-0.9514 -0.5624,-1.332z" fill="#f9ffff"/><path d="M217.5058,168.2437v0c-0.9373,-0.5709 -1.6872,-1.1418 -2.437,-1.7126c-0.1875,-0.1903 -0.375,-2.2835 -0.1875,-2.6641c0,-0.1903 0.1875,0 0.1875,0c0.7498,0.5709 1.4997,0.9514 2.2496,1.5223c0,0.1903 0.1874,0.1903 0.1874,0.3806c0,0.7612 0,1.5223 0,2.4738z" fill="#9e93e0"/><path d="M228.3789,187.0825v0c-0.9373,-0.7612 -1.6872,-1.332 -2.6245,-1.9029c0,0 0,-0.1903 0,-0.3806c0,-0.7611 0,-1.5223 0,-2.4738c0.7498,0.7612 1.6872,1.3321 2.437,2.0932c0.1875,0 0,0.3806 0.1875,0.7612c0,0.3806 0,0.9515 0,1.9029z" fill="#fffefa"/><path d="M220.5053,178.5194v0c0.5624,0.5709 1.3123,1.1418 2.0621,1.5223c0.5624,0.3806 0.375,0.9515 0.375,1.5224c0,0.3806 0.3749,1.1417 0,1.1417c-0.375,0.1903 -0.7499,-0.3806 -1.1248,-0.5709c-1.6872,-0.7611 -1.6872,-2.0932 -1.3123,-3.6155z" fill="#9e93df"/><path d="M217.6933,173.7621v0c-0.9373,-0.5708 -1.6872,-1.1417 -2.2496,-1.7126c-0.3749,-0.1903 -0.3749,-0.5709 -0.3749,-0.9514c-0.1875,-0.5709 0,-1.1418 0,-1.903c0.7498,0.5709 1.8746,1.1418 2.437,1.903c0.5624,0.7611 0.1875,1.7126 0.1875,2.664z" fill="#9e93e0"/><path d="M217.6933,179.0903v0c-0.7499,-0.5709 -1.4997,-1.1418 -2.2496,-1.5223c-0.3749,-0.3806 -0.3749,-0.7612 -0.3749,-0.9515c0,-0.7612 0,-1.1418 0,-1.9029c0.9373,0.5709 1.6872,1.1417 2.437,1.7126c0.1875,0.1903 0.1875,0.1903 0.1875,0.3806c0,0.7612 0,1.5223 0,2.2835z" fill="#f9ffff"/><path d="M235.1277,173.1913v0c-0.5624,0.5708 -0.9373,0.9514 -1.1248,1.7126c-0.5624,-0.1903 -0.9373,-0.5709 -1.3123,-0.9515c-0.1874,0 -0.1874,0 0,-0.1903c0.375,-0.3806 0.9374,-0.9514 1.6872,-1.1417c0.1875,0 0.5624,0.3806 0.7499,0.5709z" fill="#2b571e"/><path d="M232.6906,176.8068v0c0.5624,0.3806 1.1248,0.7612 1.8747,1.5223c-0.5624,0.5709 -1.1248,0.7612 -1.8747,1.1418v0c0,-0.7612 0,-1.7127 0,-2.6641z" fill="#7f8370"/><path d="M234.3778,172.6204v0c-0.5624,0.3806 -1.1248,0.7611 -1.6872,1.1417c-0.1874,-0.7611 -0.3749,-1.7126 -0.1874,-2.664c0.5624,0.5708 1.3122,0.7611 1.8746,1.5223z" fill="#7d8270"/><path d="M232.6906,187.6534v0c0.5624,0.7612 1.3123,0.9514 1.8747,1.5223c-0.3749,0.7612 -1.1248,0.9515 -1.6872,1.3321h-0.1875c0,-0.7612 0,-1.903 0,-2.8544z" fill="#828571"/><path d="M232.6906,184.9893v0v0c0,-0.9514 0,-1.7126 0,-2.6641c0.5624,0.3806 1.3123,0.7612 1.8747,1.3321c-0.3749,0.7611 -1.1248,1.1417 -1.8747,1.332z" fill="#7d826f"/><path d="M232.6906,184.9893v0c0.7499,-0.3806 1.1248,-0.9514 1.8747,-1.332c1.3122,0.7611 2.2496,2.0932 3.3744,3.0446c0,0.7612 0,1.5224 0,2.2835c-1.6872,-1.332 -3.3744,-2.6641 -5.2491,-3.9961z" fill="#1d4413"/><path d="M253.6869,190.8883v0c-0.1875,0.1903 -0.5624,0.5709 -0.9374,0.7612c-0.1874,0.1903 -0.3749,0.1903 -0.7498,0c-0.5624,-0.5709 -1.3123,-0.7612 -2.0622,-1.5223c0.7499,-0.5709 1.4998,-1.1418 2.0622,-1.5224c0.1874,0 0.3749,0 0.5624,0c0.1874,0 0.1874,0 0.1874,0.1903c0,0.7612 0.1875,1.3321 0.7499,1.7127c0.1875,0 0.3749,0.1902 0.1875,0.3805z" fill="#0f2112"/><path d="M251.9997,193.933v0c0.1874,0 0.3749,0 0.5624,0c0.1874,0 0.1874,0.1903 0.1874,0.3806c0,0.7611 0.375,1.1417 0.7499,1.7126c0.1875,0.1903 0.1875,0.1903 0.1875,0.3806c-0.375,0.1903 -0.5624,0.5709 -0.9374,0.7612c-0.1874,0 -0.3749,0.1902 -0.5624,0c-0.7498,-0.5709 -1.4997,-0.9515 -2.2496,-1.7127c0.1875,0 0.375,-0.1903 0.375,-0.3806c0.5624,-0.3805 1.1248,-0.9514 1.6872,-1.1417z" fill="#102212"/><path d="M253.6869,185.3699v0c-1.3123,1.1417 -1.3123,1.1417 -2.6246,0c-0.3749,-0.1903 -0.7498,-0.1903 -1.1248,-0.9515c0.1875,0 0.375,0 0.375,-0.1903c0.7498,-0.5708 1.1248,-1.1417 1.8746,-1.332c0.1875,0 0.1875,0 0.375,0c0.1874,0.1903 0.1874,0.3806 0.1874,0.5709c0,0.5709 0.1875,1.1417 0.7499,1.5223c0.1875,0.1903 0.1875,0.1903 0.1875,0.3806z" fill="#0f2112"/><path d="M252.1871,182.8961v0c-0.5624,0.3806 -1.1248,1.1418 -1.8746,1.332c0.1874,-0.7611 0.9373,-1.332 1.1248,-1.9029c0.1874,0.1903 0.5624,0.3806 0.7498,0.5709z" fill="#566360"/><path d="M251.9997,193.933v0c-0.5624,0.3806 -0.9374,0.9515 -1.6872,1.1417c0,-0.3805 0.3749,-0.7611 0.7498,-1.1417c0.1875,-0.1903 0.375,-0.5709 0.375,-0.7612c0.1874,0.1903 0.3749,0.5709 0.5624,0.7612z" fill="#54615f"/><path d="M249.9375,184.799v0c0,0.5709 -0.1874,1.3321 0,1.9029c-0.1874,0 -0.5624,0.1903 -0.7498,-0.1903c0,-0.7611 0,-1.332 0.7498,-1.7126z" fill="#566360"/><path d="M249.9375,190.5078v0c0,0.3805 0,0.9514 0,1.5223c-0.9373,-0.5709 -0.3749,-1.1418 0,-1.5223z" fill="#54615f"/><path d="M249.9375,196.0262v0c0,0.5709 0,0.9515 0,1.5223c-0.5624,-0.5708 -0.3749,-0.9514 0,-1.5223z" fill="#54615f"/><path d="M235.1277,189.5563v0c1.1248,0.5709 1.8746,1.9029 2.812,2.6641c0,0.7611 0,1.332 0,2.0932c-1.3123,-0.9515 -2.4371,-1.9029 -3.7493,-2.8544c-0.1875,-0.9514 0.3749,-1.332 0.9373,-1.9029z" fill="#194111"/><path d="M235.1277,189.5563v0c-0.3749,0.5709 -0.9373,1.1417 -0.9373,1.9029c-0.375,-0.3806 -0.7499,-0.5709 -1.3123,-0.9514c0.3749,-0.7612 1.1248,-0.7612 1.6872,-1.3321c0.1875,0.1903 0.3749,0.1903 0.5624,0.3806z" fill="#2a551d"/><path d="M253.6869,196.4068v0c-0.9374,-0.5709 -1.3123,-1.3321 -1.1248,-2.4738l0.1874,-0.1903c0.375,0.7612 1.1248,1.332 2.0622,1.5223c0,0.7612 -0.7499,0.7612 -1.1248,1.1418z" fill="#1e2245"/><path d="M232.6906,179.4709v0c0.5624,-0.3806 1.1248,-0.7612 1.8747,-1.1418c1.1248,0.5709 2.0621,1.5223 3.1869,2.4738c0.1875,0.3806 0.1875,0.7612 0.1875,1.1418c0,0.3805 0,0.9514 0,1.332c-0.5624,-0.3806 -0.9374,-0.5709 -1.3123,-0.9515c-0.9373,-0.1903 -1.4997,-0.7611 -2.0621,-1.332c-0.5624,-0.5709 -1.1248,-0.9515 -1.8747,-1.5223z" fill="#1d4413"/><path d="M234.5653,180.9932v0c0.7498,0.3806 1.3122,0.9515 2.0621,1.332c0,0.5709 0.3749,0.7612 0.7499,1.1418c0.1874,0.1903 0.5624,0.5709 0.5624,0.9514c0,0.3806 -0.1875,0.7612 -0.5624,0.7612c-0.375,0 -0.375,-0.1903 -0.5624,-0.3806c-0.1875,-0.5709 -0.375,-0.9514 -0.9374,-0.5709c-0.1874,0 -0.3749,-0.1902 -0.5624,-0.1902c-0.5623,-1.1418 -1.4997,-1.3321 -2.2495,-1.903c-0.375,-0.3805 -0.375,-1.332 -0.1875,-1.7126c0.1875,0 0.5624,-0.1903 0.5624,0c0.3749,0.7612 0.7499,0.5709 1.1248,0.5709z" fill="#71ac50"/><path d="M252.5621,177.1874v0c0.5624,0.3806 0.9373,0.7611 1.4997,1.1417c0.1875,0.3806 0.3749,0.3806 0.7499,0.3806c-0.1875,0.7612 -0.7499,0.9515 -1.1248,1.1417c-0.9374,-0.5708 -1.3123,-1.5223 -1.1248,-2.664z" fill="#1f2447"/><path d="M253.6869,185.3699v0h-0.1875c-0.9373,-0.5709 -1.1248,-1.5223 -0.9373,-2.4738c0,0 0.1874,0 0.1874,-0.1903c0.5624,0.7612 1.1248,1.3321 2.0622,1.7126c-0.1875,0.5709 -0.7499,0.7612 -1.1248,0.9515z" fill="#1c2143"/><path d="M253.6869,190.8883v0c-0.9374,-0.5708 -1.3123,-1.332 -1.1248,-2.2835c0,-0.1902 0.1874,-0.1902 0.1874,-0.1902c0.5624,0.5708 1.1248,1.332 2.0622,1.332c0,0.7612 -0.7499,0.9514 -1.1248,1.1417z" fill="#1d2244"/></g></g></svg>