<svg version="1.1" xmlns="http://www.w3.org/2000/svg" xmlns:xlink="http://www.w3.org/1999/xlink" width="58.6964" height="91.10799" viewBox="0,0,58.6964,91.10799"><g transform="translate(-211.71154,-112.46003)"><g data-paper-data="{&quot;isPaintingLayer&quot;:true}" fill-rule="nonzero" stroke="none" stroke-width="1" stroke-linecap="butt" stroke-linejoin="miter" stroke-miterlimit="10" stroke-dasharray="" stroke-dashoffset="0" style="mix-blend-mode: normal"><path d="M213.57273,139.38332c-0.58495,-0.4721 -1.1699,-0.94421 -1.86118,-1.50212c0.72169,-0.77874 1.41539,-1.53469 2.11706,-2.28319c4.69379,-5.00701 9.38853,-10.01313 14.08421,-15.01835c0.55591,-0.15254 0.848,0.27013 1.20983,0.5486c5.0768,3.90721 10.09394,7.89081 15.15246,11.82155c3.55105,2.75935 7.12286,5.49378 10.61794,8.32493c0.19423,0.1613 0.37358,0.33971 0.53591,0.53309c0.10481,0.11762 0.17748,0.26032 0.21094,0.41427c-0.12119,0.63482 -0.56049,1.08224 -0.976,1.51464c-2.16326,2.25122 -4.25875,4.56633 -6.41195,6.82519c-2.72369,2.85733 -5.30642,5.848 -8.13874,8.60281c-0.21425,0.19347 -0.43987,0.36528 -0.68785,0.38127c-0.47504,-0.05126 -0.7731,-0.31593 -1.08737,-0.55056c-1.85589,-1.4526 -3.72155,-2.89337 -5.5829,-4.33957c-0.58584,-0.60271 -1.26969,-1.08318 -1.95839,-1.5577c-2.09761,-1.6217 -4.20611,-3.22939 -6.25971,-4.90674c-0.46651,-0.49911 -1.04133,-0.86246 -1.59082,-1.25745c-0.08264,-0.05174 -0.16151,-0.10927 -0.23601,-0.17216c-0.3053,-0.31178 -0.64966,-0.58276 -1.02449,-0.80617c-1.82885,-1.37909 -3.62991,-2.7938 -5.43344,-4.20538c-0.8538,-0.8332 -2.02435,-1.30943 -2.67948,-2.36695z" fill="#211f1e"/><path d="M255.59282,142.19633c-0.08544,-0.08185 -0.17089,-0.16369 -0.25635,-0.24554c-0.15908,-0.40656 0.35394,-0.61065 0.28766,-1.07206c-1.93004,-1.68568 -4.0471,-3.23859 -6.11891,-4.84608c-3.78148,-2.934 -7.53019,-5.90971 -11.31948,-8.83393c-2.7926,-2.15506 -5.57363,-4.32531 -8.34311,-6.51075c-0.34469,-0.27143 -0.85956,-0.45544 -0.72622,-1.06432c4.63014,-2.37586 9.26029,-4.75171 13.96066,-7.16361c9.12613,7.13501 18.23643,14.25762 27.33088,21.36786c-0.26424,1.41638 -1.66595,1.4045 -2.46813,2.11077c-0.26702,0.28919 -0.58217,0.52987 -0.93144,0.71135c-3.40233,1.65182 -6.70226,3.50435 -10.10584,5.15375c-0.41059,0.19897 -0.79583,0.52158 -1.30973,0.39255z" fill="#171718"/><path d="M255.59282,142.19633c4.11567,-2.08589 8.23134,-4.17177 12.34702,-6.25766c0.0123,7.04849 0.02413,14.09698 0.03547,21.14546c0.00605,7.76869 0.00625,15.5374 0.00061,23.3061c-0.00001,0.39412 0.00001,0.78823 0.00001,1.2968c-1.17385,0.93394 -2.37798,1.89199 -3.58212,2.85003c-0.56074,0.23532 -0.58472,-0.23032 -0.66289,-0.54478c-0.12137,-0.48829 -0.07487,-0.99619 -0.07402,-1.4963c0.00501,-2.96832 -0.01613,-5.93666 0.00687,-8.90281c-0.06118,-0.8209 0.667,-1.51443 0.35519,-2.30736c-0.09085,0.18555 0.18368,0.45716 -0.03681,0.74853c-0.38629,0.28821 -0.75477,0.129 -1.11082,-0.15869c-0.13133,-0.17716 -0.18956,-0.39802 -0.16265,-0.61691c0.06238,-0.75989 1.16576,-0.9805 0.97298,-1.8743c0.0357,-0.27409 0.24825,-0.50217 0.19661,-0.87226c-0.31093,-0.31501 -0.89007,-0.44809 -1.05939,-0.99168c-0.02912,-0.09454 -0.03964,-0.19383 -0.03097,-0.29237c0.19,-0.65455 1.15665,-0.96317 0.82256,-1.8494c-0.13148,-0.46756 -0.45068,-0.80314 -0.79077,-1.1226c-0.46398,-0.46961 -0.71772,0.05417 -0.97499,0.25315c-2.24915,1.73961 -4.42446,3.57206 -6.62993,5.36581c-3.01513,2.45227 -6.01429,4.92517 -9.03819,7.36699c-0.53192,0.42953 -0.81298,0.88853 -0.72801,1.56217c-0.01151,0.50772 0.00682,1.01569 0.05488,1.52126c0.00407,0.42045 -0.28138,0.83503 -0.02394,1.26207c0.03561,0.30328 -0.03365,0.60298 -0.02279,0.9053c-0.01593,0.55999 -0.0007,1.12042 0.04561,1.67872c0.01975,0.45108 -0.31821,0.898 -0.01555,1.35489c0.01885,0.35732 -0.04919,0.71132 -0.02613,1.06861c-0.00869,0.54365 0.01448,1.08561 0.05037,1.62746c-0.24281,1.92085 -0.24837,3.85263 -0.20361,5.78139c0.04068,1.75264 -0.04598,3.50403 0.00859,5.25552c0.01294,0.4151 -0.18422,0.75994 -0.33723,1.12143c-1.16748,0.9832 -2.33496,1.9664 -3.50246,2.94959c-0.51367,-0.04751 -0.46334,-0.47533 -0.51223,-0.80375c-0.06892,-0.46304 -0.03537,-0.93494 -0.03539,-1.40313c-0.00069,-12.86123 0.00317,-25.72245 0.0116,-38.58367c0.00198,-1.28322 -0.01473,-2.51522 -0.96833,-3.5142c2.62926,-2.80581 5.29245,-5.58083 7.87817,-8.42613c2.56184,-2.81901 5.30516,-5.47068 7.74268,-8.40329z" fill="#4d5766"/><path d="M263.77911,173.30521c0.35332,0.31738 0.21047,0.73918 0.21188,1.11636c0.01141,3.05031 0.00026,6.10072 0.0155,9.15099c0.00174,0.34884 -0.21071,0.83402 0.38733,0.9645c-1.38152,1.1491 -2.76287,2.29839 -4.14405,3.44786c-0.26245,0.21869 -0.51916,0.43792 -0.80097,0.02797c0.27572,-1.12965 0.16129,-2.28598 0.10926,-3.41657c-0.03353,-0.72858 0.07407,-1.47868 -0.07578,-2.33349c-1.3666,0.92086 -2.49351,1.96016 -3.70302,2.89025c-0.76266,0.04442 -1.15143,0.67884 -1.67492,1.0858c-1.10558,0.85944 -2.17705,1.76268 -3.30957,2.68633v6.81293c-1.94639,1.55375 -3.88506,3.10135 -5.81601,4.64278c0.0115,-2.23675 0.11828,-4.47173 -0.00831,-6.71081c-0.09302,-1.6453 0.23723,-3.29281 0.05806,-4.94443c-0.02858,-0.26342 0.27906,-0.30195 0.36367,-0.49434c0.37543,-0.97786 1.3159,-1.40726 2.04835,-2.00437c5.04651,-4.11399 10.08753,-8.23466 15.12306,-12.36203c0.3477,-0.28448 0.67002,-0.67962 1.2155,-0.55973z" fill="#5b6777"/><path d="M221.56365,188.25357c-1.73575,-1.36282 -3.4715,-2.72564 -5.20726,-4.08845c-0.18133,-0.27103 -0.28207,-0.58793 -0.29051,-0.91392c-0.05647,-2.08602 -0.14002,-4.17995 -0.0971,-6.25784c0.07958,-3.8522 0.01232,-7.7013 0.04162,-11.5511c0.0197,-2.58803 -0.09121,-5.18226 0.13099,-7.76632c0.21647,-0.64756 0.6532,-0.46083 1.01434,-0.20552c1.60951,1.13786 3.10182,2.42702 4.64453,3.65128c0.26114,0.2047 0.38914,0.53601 0.33348,0.8631c0.03642,8.31277 0.01732,16.62323 0.00318,24.93365c-0.00084,0.49663 0.12619,1.11023 -0.57327,1.33512z" fill="#aaa39e"/><path d="M238.24532,201.24787c-1.88099,-1.28512 -3.62191,-2.75153 -5.40285,-4.16615c-0.27319,-0.4033 -0.348,-0.85609 -0.34883,-1.33276c-0.01407,-8.18615 -0.01211,-16.3723 0.00588,-24.55844c-0.00387,-0.251 0.02402,-0.50148 0.08301,-0.74548c0.0532,-0.2106 0.20664,-0.38153 0.4103,-0.45707c1.29473,0.66106 2.38268,1.71933 3.54382,2.65695c0.70675,0.57071 1.66985,0.91719 1.97899,1.9147c0.10115,0.50024 0.08233,1.00536 0.08248,1.50865c0.00226,7.77427 0.00039,15.54853 -0.00563,23.32279c-0.00088,0.63143 0.14516,1.3091 -0.34716,1.85681z" fill="#aaa39e"/><path d="M229.80358,194.7171c-1.73396,-1.36536 -3.46792,-2.73071 -5.20188,-4.09605c-0.36939,-0.58202 -0.33439,-1.23528 -0.33442,-1.88311c-0.00021,-6.22406 0.01482,-12.44817 -0.00851,-18.67215c-0.00741,-1.97656 -0.07942,-3.95216 0.10569,-5.92276c0.13553,-0.43752 0.47641,-0.61962 0.81559,-0.34177c1.62993,1.33524 3.53345,2.33555 4.90839,3.98155c0.10648,0.14653 0.1761,0.31655 0.20297,0.49568c0.06426,0.35439 0.09157,0.71449 0.0815,1.07452c0.00521,7.9377 0.00068,15.87538 -0.01359,23.81304c-0.00165,0.54484 0.24209,1.25714 -0.55573,1.55105z" fill="#aaa39e"/><path d="M238.24532,201.24787c-0.00585,-9.03017 -0.0117,-18.06034 -0.01754,-27.09052c-0.30884,-0.47582 -0.3308,-1.01044 -0.33079,-1.55378c0.00003,-4.0889 -0.00744,-8.17782 0.00884,-12.26666c0.0022,-0.55358 -0.12102,-1.17014 0.43719,-1.58275c0.52575,0.19354 0.93303,1.09627 1.62893,0.27163c0.51474,0.05928 0.78704,0.46354 1.11358,0.76006c0.2214,0.46797 0.13316,0.94357 0.13336,1.40527c0.00611,13.64822 0.01231,27.29643 0.01858,40.94465c0.00041,0.39804 -0.21274,0.87329 0.23885,1.19475c-0.16148,0.30097 -0.40088,0.29375 -0.6173,0.1021c-0.85061,-0.75328 -1.8723,-1.30205 -2.6137,-2.18473z" fill="#c6bdb7"/><path d="M216.40272,157.29574c-0.00404,5.81129 -0.00849,11.62258 -0.01335,17.43387c-0.00448,3.14504 -0.02136,6.29006 -0.03281,9.4353c-0.99499,-0.52247 -1.76132,-1.34183 -2.61737,-1.95973c-0.22479,-0.50975 -0.13221,-0.9844 -0.13241,-1.44506c-0.00564,-13.07228 -0.00755,-26.14455 -0.00571,-39.21683c-0.00009,-0.71999 -0.01848,-1.43998 -0.02834,-2.15997l2.89946,2.25492c0.26073,0.4978 0.26988,1.0372 0.26987,1.58055c-0.00008,4.17912 0.00498,8.35826 -0.00609,12.53736c-0.00141,0.5298 0.08485,1.09335 -0.33324,1.5396z" fill="#c6beb8"/><path d="M224.64656,163.73913c-0.01154,8.49406 -0.02319,16.98811 -0.03496,25.48217c-0.00066,0.46653 -0.00641,0.93307 -0.00985,1.39967c-1.0756,-0.70493 -2.09168,-1.49675 -3.03804,-2.36752c0.3906,-0.34559 0.23033,-0.80775 0.23083,-1.21895c0.00966,-8.05467 0.01445,-16.10934 0.01439,-24.16402c0.00048,-0.41622 -0.14421,-0.86815 0.17838,-1.24413c1.22104,0.28391 2.0939,1.00521 2.65926,2.11278z" fill="#c6beb8"/><path d="M229.80358,194.7171c0.37867,-0.35305 0.21346,-0.81363 0.21399,-1.22437c0.01111,-8.52253 0.01465,-17.04507 0.01062,-25.56762c1.21227,0.27466 2.24054,1.07231 2.80801,2.1782c0.00207,8.99282 0.00416,17.98564 0.00624,26.97844c-1.01294,-0.78824 -2.0259,-1.57646 -3.03886,-2.36466z" fill="#c6beb8"/><path d="M229.11642,119.62365c1.36233,1.43578 3.02365,2.50865 4.56168,3.72926c3.90197,3.0967 7.8184,6.17519 11.7493,9.23547c2.99284,2.33825 6.00414,4.65289 9.00567,6.98005c0.56324,0.4367 1.11909,0.88292 1.66669,1.31553c-0.09185,0.51921 -0.60073,0.66722 -0.76323,1.06697c-3.64959,-2.88292 -7.28245,-5.78709 -10.95274,-8.64324c-4.96885,-3.86665 -9.96727,-7.69536 -14.95038,-11.54374c-0.50843,-0.39265 -0.88787,-0.95044 -1.52059,-1.18431c0.29076,-0.45744 0.65996,-0.81631 1.20359,-0.956z" fill="#3c3938"/><path d="M255.77927,185.15307c0.62714,-1.29445 2.01128,-1.76946 2.9722,-2.70618c0.24879,-0.24252 0.51579,-0.61036 1.12912,-0.63572c0,1.90926 -0.00155,3.80201 0.00159,5.69477c0.0005,0.30144 -0.13019,0.47337 -0.4334,0.50692c-1.22316,-0.95326 -2.44633,-1.90653 -3.66952,-2.8598z" fill="#535861"/><path d="M232.8362,170.10331c-0.89204,-0.78271 -1.79334,-1.55353 -2.80803,-2.17832c-1.72249,-1.48674 -3.54446,-2.84594 -5.38181,-4.18551c-0.80395,-0.8076 -1.71682,-1.47827 -2.65876,-2.11298c-1.84641,-1.46354 -3.62477,-3.01414 -5.58494,-4.33069c-0.0095,-5.08146 -0.01769,-10.16287 -0.02457,-15.24424c0.01504,-0.14115 0.04627,-0.2801 0.09307,-0.41411c1.77459,1.37733 3.54849,2.75413 5.32171,4.13041c0.34646,0.33871 0.67338,0.70042 1.10577,0.93803l-0.00595,-0.00385c0.54084,0.50547 1.15226,0.91766 1.76246,1.33148c2.07859,1.61393 4.15718,3.22786 6.23577,4.8418c0.57156,0.67288 1.30899,1.13996 2.02726,1.63081c1.80911,1.41663 3.6178,2.83295 5.42608,4.24895c-0.2248,2.61604 -0.04996,5.2379 -0.09176,7.85727c-0.04012,2.5145 -0.01879,5.02997 -0.02459,7.545c-1.91707,-1.19242 -3.53552,-2.78102 -5.39171,-4.05405z" fill="#65f35d"/><path d="M240.63125,148.44588c0.47402,-0.6014 0.00891,-1.34215 0.3646,-2.11432c4.13805,-0.93501 8.37535,-1.89244 12.61265,-2.84986c-1.91542,1.86795 -2.99518,4.63002 -6.24775,4.91259c-2.25999,0.19634 -4.47282,0.94296 -6.70327,1.45865c-0.25676,0.05936 -0.48343,0.15643 -0.6786,-0.0987c-0.07808,-0.58319 0.34298,-0.91798 0.65238,-1.30834z" fill="#04080d"/><path d="M251.20007,142.20391c-0.30497,0.51553 -0.68531,0.80771 -1.21182,0.92449c-2.99613,0.66454 -5.99052,1.33698 -9.07142,2.02595v-3.29036c1.24224,-0.63353 2.70541,-0.88467 4.11406,-1.12207c1.26696,-0.21353 2.47367,-0.64959 3.76469,-0.78692c1.83723,-0.19543 2.47974,0.29494 2.40449,2.24891z" fill="#05080d"/><path d="M236.06322,134.38953c0.00924,1.22835 0.01848,2.45669 0.02772,3.68503c0.54708,2.45344 0.45726,4.90953 0.00153,7.36105c-0.07064,0.32614 -0.33245,0.57658 -0.66141,0.63267c-0.46493,0.31329 -0.9336,0.61763 -1.52206,0.63577c-0.2908,-0.32065 -0.31075,-0.7212 -0.2931,-1.11476c0.14266,-3.18071 0.27417,-6.36115 0.10238,-9.54525c0.00154,-0.14346 0.02612,-0.28573 0.07278,-0.4214c0.32891,-0.57342 1.10114,-0.3626 1.48663,-0.83832c0.25029,-0.1533 0.42751,-0.45534 0.78552,-0.3948z" fill="#525760"/><path d="M240.63125,148.44588c0.04202,0.5652 -0.37931,0.8998 -0.65236,1.30827c-0.74617,0.40478 -1.46039,0.98495 -2.3808,0.43282c0.57445,-0.38153 0.64049,-0.96684 0.67626,-1.58804c0.14604,-2.53649 0.05953,-5.07488 0.0869,-7.61224c0.00576,-0.53476 -0.04476,-1.07366 0.10427,-1.59836c0.29439,-0.65597 1.0551,-0.57841 1.52235,-0.96507c0.18788,-0.11335 0.3774,-0.22409 0.6116,-0.15279c0.01059,3.3918 0.02119,6.78361 0.03178,10.1754z" fill="#4c5765"/><path d="M230.65773,142.59628c-0.60396,0.35525 -1.16504,0.88744 -1.95553,0.47297c0.28358,-0.34898 0.34404,-0.7535 0.38282,-1.19478c0.25202,-2.86769 0.0862,-5.7364 0.05467,-8.60463c-0.00476,-0.43359 -0.05463,-0.86753 0.25061,-1.23397c0.40735,-0.40849 1.03654,-0.50955 1.38666,-0.99787c0.36058,-0.31588 0.16913,-0.89303 0.56264,-1.19262c0.24676,0.22324 0.23075,0.52162 0.19851,0.80428c-0.42103,3.69103 -0.08044,7.39735 -0.22953,11.09356c0.11016,0.53345 -0.23161,0.72277 -0.65086,0.85308z" fill="#535861"/><path d="M240.62366,136.99184c1.47225,-0.10045 2.86034,-0.62583 4.35217,-0.83822c1.28257,0.38373 1.7506,1.05306 1.63812,2.57858c-1.54839,1.41971 -3.74685,1.00092 -5.58346,1.81281c-0.42835,-1.21637 0.09171,-2.3316 -0.35839,-3.3468c-0.06663,-0.03277 -0.09602,-0.07427 -0.08816,-0.12449c0.0085,-0.05458 0.02174,-0.08186 0.03972,-0.08187z" fill="#05080d"/><path d="M237.36853,149.97113c-0.61212,-0.41748 -0.60342,-1.05531 -0.60923,-1.69267c-0.00673,-0.73681 -0.02537,-1.47352 -0.03885,-2.21027c-0.2831,-0.31697 -0.32895,-0.70728 -0.32298,-1.10481c0.02895,-1.92961 0.00215,-3.8593 0.0134,-5.78891c0.00233,-0.39984 0.03168,-0.78806 0.32119,-1.10264l0.02837,0.03676c0.80795,0.02529 1.14413,0.58165 1.39591,1.2357c0.29332,2.14392 -0.10013,4.29673 0.11008,6.44944c0.12152,1.24443 -0.20884,2.49994 -0.25446,3.75765c-0.01253,0.34546 -0.192,0.64337 -0.64344,0.41976z" fill="#a7a09b"/><path d="M228.26846,142.85389c-0.34209,-0.18898 -0.58919,-0.51283 -0.68112,-0.89268c-0.1051,-3.65569 -0.02139,-7.31041 -0.05076,-11.02289c0.68791,-0.03597 1.00517,0.32662 1.29457,0.73889c0.19262,0.36257 0.22025,0.7603 0.20661,1.1565c-0.09894,2.8721 0.1565,5.7445 -0.00549,8.61519c-0.03152,0.55852 0.16678,1.30672 -0.76381,1.40499z" fill="#a69f99"/><path d="M232.62578,146.28448c-0.55138,-0.49062 -0.45309,-1.15678 -0.45891,-1.78124c-0.01932,-2.0718 -0.01759,-4.1438 -0.02393,-6.21573c-0.12982,-1.2821 -0.02237,-2.56145 -0.06818,-3.96582c0.70432,0.17217 0.98932,0.61555 1.29392,1.03403c0.35544,1.44316 0.26621,2.91517 0.18607,4.37186c-0.10377,1.88615 0.08183,3.77621 -0.11924,5.65493c-0.04541,0.42432 0.00054,1.09153 -0.80973,0.90197z" fill="#aba39d"/><path d="M228.71162,131.8296c-0.30756,-0.24684 -0.6151,-0.49368 -1.12416,-0.90224c0,3.77778 0,7.40586 -0.00007,11.0339c-0.23076,-0.23563 -0.17286,-0.53529 -0.17311,-0.81723c-0.00296,-3.27251 -0.01752,-6.54512 0.00393,-9.81749c0.01124,-1.7143 0.97934,-2.68596 2.45917,-2.53691c0.12818,0.01291 0.24647,0.12367 0.36936,0.18899c-0.23723,0.41807 -0.01252,0.72823 0.22104,1.05688c0.23501,0.33068 0.61282,0.6215 0.42638,1.11789c-0.17728,0.68754 -0.81191,0.68849 -1.32085,0.87812c-0.36093,0.24665 -0.60785,0.00763 -0.86169,-0.2019z" fill="#3a3c43"/><path d="M232.62578,146.28448c0.58023,-0.12104 0.62353,-0.63985 0.5231,-1.00334c-0.08071,-0.24021 -0.0358,-0.50487 0.11962,-0.70501v-9.09408c0.21673,-0.17525 0.42254,-0.18776 0.61214,0.04102c0.3678,0.53543 0.20625,1.18976 0.1953,1.72677c-0.03609,1.77147 0.06408,3.5428 -0.04405,5.32094c-0.08298,1.36481 -0.22421,2.75249 -0.12286,4.13331c-0.49021,0.05068 -0.94375,-0.01041 -1.28326,-0.41961z" fill="#848283"/><path d="M237.36853,149.97113c0.17455,-0.03973 0.42423,-0.07845 0.39926,-0.28184c-0.1833,-1.49281 0.44646,-2.9551 0.1535,-4.44814c-0.19998,-1.0192 -0.05306,-2.03262 0.07334,-3.04178c0.07305,-0.58326 -0.0413,-1.12788 -0.15231,-1.69067c-0.08909,-0.45169 -0.07267,-0.92984 0.18763,-1.35316c0.21722,-0.17437 0.42359,-0.18596 0.61407,0.04085c0.02554,3.60172 0.14368,7.20554 -0.12082,10.64285c-0.34097,0.42864 -0.6518,0.31061 -0.92519,0.34768c-0.07645,-0.0719 -0.15294,-0.14383 -0.22949,-0.21579z" fill="#848385"/><path d="M228.71162,131.8296c0.28735,0.06722 0.57465,0.13449 0.86188,0.20178c-0.34315,1.48235 -0.16996,3.00104 -0.07743,4.46981c0.13271,2.10668 -0.22208,4.17529 -0.12608,6.17256c-0.14794,0.39454 -0.43522,0.3379 -0.66774,0.39539c-0.14463,-0.07172 -0.28922,-0.14349 -0.43379,-0.21531c0.43559,-0.2059 0.46927,-0.58934 0.45809,-1.00376c-0.05152,-1.90931 0.03893,-3.8137 -0.09153,-5.73277c-0.09481,-1.39448 0.0558,-2.85558 0.0766,-4.2877z" fill="#7d7c7e"/><path d="M233.88064,135.52308c-0.20404,-0.01369 -0.40809,-0.02736 -0.61213,-0.04104c-0.31367,-0.28754 -0.62733,-0.5751 -1.12551,-1.03183c0,1.38275 0,2.61007 -0.00003,3.83735c-0.29409,-1.56277 -0.30806,-3.13291 0.07794,-4.67171c0.24862,-0.99112 1.52753,-1.39061 2.79133,-0.97622c-0.2579,0.39785 -0.09788,0.73084 0.12833,1.0842c0.20151,0.3148 0.54115,0.60571 0.34461,1.05777c-0.24642,0.87009 -1.00564,0.63265 -1.60453,0.74148z" fill="#3b3d43"/><path d="M238.64403,139.19639c-0.20469,-0.01363 -0.40938,-0.02725 -0.61407,-0.04087c-0.42323,-0.34904 -0.84642,-0.69806 -1.26959,-1.04705c0.01393,-1.4109 0.54763,-1.9466 1.95607,-1.96323c0.79451,0.60251 1.39881,1.32298 1.47364,2.37178c-0.36272,0.57312 -0.98604,0.55434 -1.54604,0.67937z" fill="#36383d"/><path d="M236.73207,138.07182c-0.00387,2.66546 -0.00774,5.33091 -0.01162,7.99637c-0.42978,0.00334 -0.85952,0.49832 -1.28936,0.00009c0.52686,-0.6484 0.6126,-1.4233 0.62027,-2.21405c0.01868,-1.92651 0.02699,-3.85312 0.03954,-5.77968c0.21375,-0.00091 0.42748,-0.00181 0.64118,-0.00273z" fill="#080a0d"/><path d="M240.19008,138.51701c-0.49133,-0.79065 -0.9826,-1.58127 -1.47382,-2.37186c0.804,-0.09563 1.3856,0.3083 1.90741,0.84668c-0.00559,0.07214 0.01133,0.14424 0.04842,0.20637c-0.02414,0.35746 -0.04832,0.7149 -0.07254,1.07233c-0.13654,0.08213 -0.27304,0.16429 -0.40947,0.24649z" fill="#8f8881"/><path d="M230.89417,131.15338c-0.4219,-0.64884 -0.8438,-1.29768 -1.24698,-1.91774c0.16097,-0.30483 0.40993,-0.19516 0.59955,-0.25699c0.46695,0.12831 0.86153,0.44124 1.09282,0.86669c-0.1323,0.44151 0.3437,1.08976 -0.44538,1.30804z" fill="#928983"/><path d="M235.48517,134.7816c-0.23362,-0.71741 -0.92224,-1.18959 -1.08073,-1.92543c0.16721,-0.25637 0.40667,-0.17487 0.60777,-0.21648c0.76765,0.33306 1.18497,0.87622 1.05106,1.74981c-0.19484,0.12763 -0.23028,0.48969 -0.57811,0.3921z" fill="#918881"/><path d="M230.65773,142.59628c0.21702,-0.28435 0.434,-0.56871 0.65095,-0.85307c0.54199,-0.75066 -0.0208,-1.67036 0.51704,-2.46033v3.21277c-0.33797,0.02974 -0.69099,0.47856 -1.168,0.10064z" fill="#05070b"/><path d="M232.91819,154.50614c-0.85167,-0.3253 -1.59939,-0.77956 -2.02722,-1.63078c0.72384,0.48386 1.45014,0.96475 2.02722,1.63078z" fill="#96c18a"/><path d="M224.65515,148.03353c-0.73562,-0.20314 -1.36599,-0.67937 -1.76243,-1.33148c0.71103,0.28056 1.2604,0.77475 1.76243,1.33148z" fill="#94b987"/><path d="M222.89864,146.7059c-0.5786,-0.06519 -0.88402,-0.45193 -1.10565,-0.93774c0.43419,0.23506 0.86531,0.47417 1.10565,0.93774z" fill="#96bd8a"/><path d="M245.38965,184.33676c-0.42737,-0.61818 -0.13847,-1.31008 -0.20273,-1.96563c4.09915,-3.40342 8.27496,-6.71364 12.36089,-10.13284c1.32622,-1.10981 2.7051,-2.15206 4.0454,-3.24342c0.5317,-0.42272 0.98217,-0.93854 1.32944,-1.52232c0.36931,0.27267 0.6175,0.78452 1.19071,0.52963c0.1987,0.60484 0.12713,1.0596 -0.3369,1.40853c-0.39343,0.91301 -1.27407,1.34162 -1.98549,1.91243c-4.93488,3.95946 -9.79511,8.00998 -14.71743,11.98435c-0.50674,0.40915 -0.91298,1.03236 -1.68389,1.02928z" fill="#cce6ec"/><path d="M263.77911,173.30521c-2.83256,2.29096 -5.6649,4.5822 -8.49701,6.87372c-2.49767,2.0254 -4.99228,4.05456 -7.48383,6.0875c-0.80309,0.65366 -1.60512,1.30861 -2.40612,1.96485c-0.43441,-0.54524 -0.13974,-1.17401 -0.20205,-1.7619c0.94011,-1.20426 2.22369,-2.02302 3.38669,-2.97076c4.78833,-3.90204 9.5306,-7.86052 14.3628,-11.70878c0.26887,0.07264 0.53775,0.14528 0.74936,0.20245c0.51526,-0.18989 -0.15994,-0.7413 0.46509,-0.90405c0.00404,0.77945 0.36937,1.56693 -0.37493,2.21698z" fill="#cce6ec"/><path d="M262.48924,143.4837c0.08692,-0.04136 0.24869,-0.12152 0.25021,-0.11859c0.35309,0.67948 0.69497,1.36478 1.03717,2.04991c-0.66405,1.06714 -1.76203,1.67196 -2.69382,2.43414c-4.98988,4.08162 -9.96238,8.1847 -14.97473,12.23895c-0.27893,0.22561 -0.53219,0.4976 -0.93854,0.46294c-0.34529,-0.9038 -0.34807,-1.90269 -0.00783,-2.8084c0.3284,0.39312 0.58528,0.20139 0.89946,-0.05922c5.18481,-4.30071 10.40476,-8.5585 15.65986,-12.77336c0.46544,-0.37162 0.85236,-0.76774 0.7682,-1.42636z" fill="#cce6ec"/><path d="M245.38452,164.22563c-0.71405,-0.80946 -0.46691,-1.70022 -0.21958,-2.59099c0.35401,0.39411 0.63781,0.14212 0.91845,-0.10263c2.90398,-2.53261 5.96817,-4.87098 8.92261,-7.34358c2.4019,-2.01017 4.84176,-3.98047 7.32935,-5.88776c0.17082,-0.13097 0.34722,-0.26057 0.57464,-0.28053c0.81235,0.24282 0.62522,0.9167 0.64819,1.49997c-1.37881,1.52581 -3.09691,2.65663 -4.65156,3.97737c-3.96449,3.36796 -8.11647,6.50937 -12.04396,9.92307c-0.42563,0.36996 -0.84726,0.79125 -1.47812,0.80508z" fill="#cce6ec"/><path d="M245.38483,180.4391c-0.42495,-0.53744 -0.12776,-1.15969 -0.20453,-1.73803c0.70824,-1.23258 1.9591,-1.89336 3.00322,-2.74929c4.56586,-3.74291 9.08143,-7.54799 13.72203,-11.19958c0.30809,-0.24242 0.57797,-0.55779 1.02663,-0.52538c0.63858,0.08226 0.73761,0.58649 0.84784,1.08197c-0.12137,0.53428 -0.54466,0.84647 -0.927,1.15497c-3.41341,2.75408 -6.80006,5.54085 -10.19892,8.31266c-2.08907,1.70367 -4.18238,3.40224 -6.25392,5.12725c-0.30157,0.25113 -0.56532,0.56786 -1.01535,0.53544z" fill="#cce6ec"/><path d="M245.17317,172.22447c0.00059,-0.64812 0.00118,-1.29624 0.00178,-1.94436c2.08359,-1.97809 4.36389,-3.723 6.57859,-5.54599c3.29749,-2.71428 6.62406,-5.39298 9.92408,-8.10419c0.38032,-0.31246 0.7227,-0.70839 1.23877,-0.82958c0.47274,0.30769 0.92276,0.63052 0.86311,1.29293c-0.3052,0.74125 -1.01364,1.10851 -1.57689,1.57144c-5.35364,4.40007 -10.67502,8.84007 -16.10793,13.14311c-0.26468,0.20964 -0.48633,0.56318 -0.92151,0.41664z" fill="#cce6ec"/><path d="M245.17695,168.33006c-0.00117,-0.64575 -0.00234,-1.29149 -0.00351,-1.93723c1.73666,-1.72518 3.70263,-3.18043 5.59376,-4.72238c4.06281,-3.31263 8.13239,-6.61688 12.15496,-9.97838c0.30751,0.49082 0.99998,0.76332 0.85758,1.50929c-0.07454,0.42977 -0.40515,0.66605 -0.70996,0.91255c-5.52963,4.4717 -10.99625,9.02033 -16.52185,13.49681c-0.3961,0.32089 -0.7418,0.81121 -1.37099,0.71935z" fill="#cce6ec"/><path d="M262.9212,160.12218c0.37713,0.38476 0.65786,0.8533 0.81924,1.36732c-6.07893,4.96563 -12.21359,9.97679 -18.55832,15.15954v-1.84223c0.19198,-0.30131 0.35126,-0.61918 0.64306,-0.85433c5.62617,-4.53377 11.173,-9.16481 16.80792,-13.6879c0.08568,-0.06603 0.1836,-0.11444 0.2881,-0.14241z" fill="#cce6ec"/><path d="M245.17317,172.22447c4.91774,-4.01024 9.8358,-8.02009 14.75417,-12.02956c1.27817,-1.04108 2.56782,-2.06808 3.85219,-3.10159c0.37876,0.316 0.14559,0.73062 0.21104,1.04565c-0.30976,0.62369 -0.85852,0.92328 -1.29212,1.33601c-0.20824,0.66404 -0.76672,1.02737 -1.26356,1.43063c-5.05867,4.10595 -10.10035,8.2326 -15.12504,12.37995c-0.32685,0.26997 -0.62661,0.62015 -1.13094,0.48108c-0.37643,-0.51267 -0.12744,-1.02766 -0.00574,-1.54218z" fill="#5a6677"/><path d="M245.38452,164.22563c4.26121,-3.49564 8.49563,-7.02464 12.7965,-10.47088c1.77944,-1.42585 3.4282,-3.02261 5.37722,-4.23453c0.78982,0.23793 0.37546,0.60506 0.06607,0.89332c-0.30436,0.2836 -0.74367,0.41887 -0.92761,0.83945c-0.33476,0.90686 -1.15961,1.34648 -1.85192,1.89826c-4.72646,3.767 -9.34899,7.66134 -14.07045,11.43401c-0.3998,0.31946 -0.75172,0.803 -1.37632,0.73043c-0.92246,-0.35201 -0.09505,-0.72564 -0.0135,-1.09006z" fill="#596577"/><path d="M245.38483,180.4391c4.46843,-3.74361 8.98292,-7.43093 13.54349,-11.06196c1.65294,-1.31118 3.2365,-2.70966 4.85171,-4.06833c0.64669,1.06902 -0.51458,1.34109 -0.8695,1.9686c-0.28393,0.55784 -0.7348,0.95226 -1.21885,1.33873c-4.54649,3.62992 -9.04321,7.32095 -13.5439,11.00728c-0.85742,0.70228 -1.59519,1.63238 -2.76683,1.89789c-0.9086,-0.364 -0.06243,-0.72171 0.00389,-1.08221z" fill="#596577"/><path d="M245.16955,160.55106c4.7147,-3.87743 9.43065,-7.75333 14.14785,-11.62771c1.46356,-1.19729 2.97164,-2.34028 4.45928,-3.50823c0.32479,0.24601 0.19447,0.57685 0.19279,0.92744c-0.49518,0.34283 -0.99023,0.68558 -1.48514,1.02823c0.1085,0.51968 -0.34927,0.66937 -0.62976,0.89925c-3.39405,2.78178 -6.77709,5.57697 -10.17788,8.35063c-1.75592,1.43213 -3.55011,2.81704 -5.28177,4.27888c-0.29918,0.25256 -0.57812,0.55741 -1.02825,0.51349l-0.40619,-0.34696c0.07885,-0.19424 0.14397,-0.35464 0.20908,-0.51504z" fill="#586477"/><path d="M245.38965,184.33676c6.12897,-4.97529 12.25792,-9.95062 18.38686,-14.92597c0.28218,0.20042 0.21943,0.47137 0.17304,0.73471c-0.28852,0.41158 -0.85751,0.50788 -1.03464,1.00286c-0.66061,1.23043 -1.92208,1.81878 -2.93355,2.65312c-4.52191,3.73 -9.03314,7.47407 -13.62011,11.12484c-0.28788,0.22913 -0.49617,0.65897 -0.98936,0.48269c-0.88729,-0.3722 -0.05917,-0.716 0.01778,-1.07224z" fill="#586477"/><path d="M245.17695,168.33006c4.13877,-3.37511 8.27784,-6.74984 12.41721,-10.1242c2.05689,-1.67424 4.11876,-3.34239 6.18559,-5.00445c0.46167,0.48626 0.11592,0.82287 -0.20228,1.18512c-0.26005,0.29605 -0.71922,0.35383 -0.88035,0.75813c-0.34869,0.95186 -1.26053,1.36507 -1.96605,1.93531c-4.64525,3.75455 -9.24258,7.56742 -13.88293,11.32764c-0.42723,0.34619 -0.79585,0.85212 -1.45539,0.79645c-0.36033,-0.22026 -0.64152,-0.46002 -0.2158,-0.874z" fill="#586477"/><path d="M245.37187,185.409c4.22487,-3.45239 8.4503,-6.9041 12.67629,-10.35512c1.6125,-1.31379 3.24395,-2.60438 4.86674,-3.90553c0.00807,0.21386 0.01623,0.4277 0.02446,0.64151c-0.55196,1.21364 -1.78339,1.71156 -2.71986,2.50122c-3.45115,2.91008 -6.94303,5.77176 -10.47563,8.58502c-1.50912,1.20793 -2.91329,2.55197 -4.55395,3.59354c-0.04409,-0.36373 0.01916,-0.73241 0.18195,-1.06064z" fill="#e3ffff"/><path d="M245.39275,169.20406c4.79414,-3.89282 9.58821,-7.78571 14.38222,-11.67867c0.97526,-0.79207 1.94932,-1.58564 2.92217,-2.38069c0.25301,0.15845 0.20151,0.41859 0.21924,0.65564c-1.23402,1.40912 -2.81066,2.42064 -4.23241,3.60962c-3.01693,2.52303 -6.05857,5.01834 -9.14303,7.4582c-1.44793,1.14534 -2.70491,2.53921 -4.36602,3.41197c-0.0273,-0.37889 -0.00401,-0.74754 0.21783,-1.07608z" fill="#e3ffff"/><path d="M245.1789,173.76666c1.90522,-1.52303 3.82212,-3.03177 5.7131,-4.57223c3.4234,-2.78881 6.83832,-5.58799 10.24477,-8.39754c0.52704,-0.43277 1.04145,-0.88089 1.56168,-1.3219c0.26167,0.15138 0.19987,0.41381 0.22269,0.64721c-0.82122,1.25967 -2.16072,1.94434 -3.26702,2.87864c-3.00715,2.5396 -6.09273,4.9865 -9.14668,7.47081c-1.77572,1.44451 -3.55086,2.88962 -5.32543,4.33535c-0.00097,-0.34689 -0.00201,-0.69366 -0.00312,-1.04033z" fill="#e3ffff"/><path d="M245.36667,161.41306c5.70588,-4.68077 11.41177,-9.36152 17.11766,-14.04228c0.44375,0.01888 0.41525,0.34684 0.42572,0.64931c-1.15612,1.2301 -2.57467,2.14704 -3.86307,3.21892c-3.05273,2.5397 -6.13102,5.04881 -9.20623,7.56144c-1.48954,1.21703 -2.99537,2.41417 -4.49043,3.61758c-0.26711,-0.28457 -0.15138,-0.54663 -0.18531,-0.78339c0.06717,-0.07386 0.13439,-0.14772 0.20167,-0.22157z" fill="#e3ffff"/><path d="M262.48924,143.4837c0.44426,0.55173 0.23249,0.99795 -0.24255,1.37907c-3.87685,3.1103 -7.76563,6.20584 -11.63193,9.32916c-1.5027,1.21394 -2.95847,2.48594 -4.43193,3.73584c-0.27085,0.22975 -0.49395,0.53093 -0.89908,0.53462c-0.19211,-0.21698 -0.08971,-0.47982 -0.12193,-0.71972c5.66157,-4.61571 11.32231,-9.23254 16.98219,-13.85046c0.12764,-0.12503 0.24322,-0.2618 0.34523,-0.4085z" fill="#e3ffff"/><path d="M245.39801,165.31569c4.74095,-3.84481 9.48165,-7.68992 14.2221,-11.53534c1.03043,-0.83641 2.05134,-1.68453 3.07661,-2.5273c0.18074,0.09218 0.21142,0.26129 0.22537,0.43901c-0.20481,1.01061 -1.17423,1.32978 -1.82847,1.87442c-5.11039,4.25416 -10.27656,8.44147 -15.43144,12.64214c-0.12793,0.10425 -0.32431,0.12466 -0.48876,0.1842c-0.02492,-0.37981 -0.00676,-0.75064 0.2246,-1.07713z" fill="#e3ffff"/><path d="M245.38093,181.52131c5.25549,-4.28031 10.5112,-8.56032 15.76715,-12.84005c0.58253,-0.47417 1.17479,-0.93644 1.7625,-1.40404c-0.00199,0.06533 0.00203,0.13072 0.012,0.19531c0.11661,1.34983 -1.13206,1.67313 -1.86249,2.28437c-4.09721,3.42865 -8.24107,6.8013 -12.43158,10.11794c-1.10562,0.87646 -2.01629,2.05164 -3.44175,2.49646c-0.03964,-0.30726 0.06036,-0.58248 0.19416,-0.85z" fill="#e3ffff"/><path d="M262.93217,164.22681c-5.0736,4.16039 -10.14779,8.32004 -15.22259,12.47895c-0.83089,0.68013 -1.68569,1.33111 -2.52937,1.99543c0.00008,-0.32012 0.00011,-0.64061 0.00008,-0.96149c5.87572,-4.7895 11.72228,-9.55524 17.53968,-14.29721c0.28002,0.28303 0.15427,0.55185 0.2122,0.78431z" fill="#e3ffff"/><path d="M217.72897,157.17855v-13.15585c6.46497,5.0519 12.78505,9.99059 19.11792,14.93926c0.07617,4.32653 0.10172,8.6046 -0.01949,13.15102c-6.52668,-5.10368 -12.82578,-10.02939 -19.09843,-14.93442z" fill="#cbf4bc"/><path d="M230.6822,156.23552v1.47647l-6.59137,-5.13299v2.10482c2.13591,1.67583 4.36639,3.42585 6.56704,5.15247v1.46379c-2.23152,-1.73804 -4.34039,-3.38057 -6.58162,-5.12618v2.12816c2.17411,1.7058 4.37528,3.43284 6.60351,5.1811v1.46749l-8.43204,-6.58471v-8.70696c2.8715,2.23897 5.63212,4.39149 8.43448,6.57654z" fill="#1d1c1a"/></g></g></svg>