<svg version="1.1" xmlns="http://www.w3.org/2000/svg" xmlns:xlink="http://www.w3.org/1999/xlink" width="77.91066" height="38.49808" viewBox="0,0,77.91066,38.49808"><g transform="translate(-201.03921,-172.05658)"><g data-paper-data="{&quot;isPaintingLayer&quot;:true}" fill-rule="nonzero" stroke="none" stroke-linecap="butt" stroke-linejoin="miter" stroke-miterlimit="10" stroke-dasharray="" stroke-dashoffset="0" style="mix-blend-mode: normal"><path d="M206.24714,188.43417l-5.20793,-4.04115c9.99923,-7.65712 23.74817,-12.33644 38.95533,-12.33644c15.20716,0 28.9561,4.67933 38.95533,12.33644l-5.20793,4.04115c-8.64517,-6.6999 -20.51925,-10.74115 -33.7474,-10.74115c-13.22815,0 -25.10223,4.1476 -33.7474,10.74115z" fill="#c2c1ba" stroke-width="1.01057"/><path d="M239.89038,177.69302c13.12399,0 25.10223,4.1476 33.7474,10.74115l-8.02021,6.27462l-1.7707,-1.80799l-4.99961,5.10471l1.14574,1.16991l-9.16596,7.23163c-2.81228,-2.12692 -6.66615,-3.50952 -10.93666,-3.50952c-4.2705,0 -8.12437,1.3826 -10.93666,3.50952l-9.0618,-7.12528l2.08317,-2.12702l-4.99961,-5.10471l-2.70812,2.7651l-8.12437,-6.38097c8.74932,-6.59355 20.62341,-10.74115 33.7474,-10.74115zM232.39096,196.62302l-3.22892,-10.95384l-2.81228,0.85077l3.22892,10.95384zM247.59812,196.51668l2.70812,1.06346l4.16635,-10.6348l-2.70812,-1.06346zM241.3486,184.18034h-2.81228v12.97442h2.81228z" fill="#2c2d2e" stroke-width="1.01057"/><path d="M239.99454,202.89754c4.2705,0 8.12437,1.3826 10.93666,3.50952l-5.20793,4.1476c-1.45822,-1.06346 -3.54139,-1.80799 -5.72872,-1.80799c-2.29149,0 -4.2705,0.63818 -5.72872,1.80799l-5.20793,-4.1476c2.81228,-2.23327 6.66615,-3.50952 10.93666,-3.50952z" fill="#c2c1ba" stroke-width="1.01057"/><path d="M217.70459,197.47379l-0.93743,-0.74442c5.93704,-4.46663 14.16557,-7.23163 23.12322,-7.23163c9.0618,0 17.29033,2.76499 23.22737,7.33798l-0.93743,0.74442c-5.72872,-4.25394 -13.64478,-6.91259 -22.28995,-6.91259c-8.64517,0 -16.45706,2.5523 -22.18579,6.80625z" fill="#ffffff" stroke-width="1.01057"/><path d="M217.07964,191.9437l4.99961,5.21106l-2.08317,2.12702l-5.72872,-4.46663l2.81228,-2.87145" fill="#2c2d2e" stroke-width="1.01057"/><path d="M258.7131,197.94094l5.21147,-5.32105l1.95422,1.88454l-5.97141,4.65589l-1.19428,-1.21939" fill="#2c2d2e" stroke-width="1.05339"/><path d="M238.53632,184.18034h2.81228v12.97442h-2.81228z" fill="#2c2d2e" stroke-width="1.01057"/><path d="M226.28549,186.46297l3.03956,-0.94253l3.26902,10.98936l-3.03956,0.94264z" fill="#2c2d2e" stroke-width="1.05579"/><path d="M247.49292,196.32523l4.17791,-10.66439l3.09476,1.26386l-4.17791,10.66439z" fill="#2c2d2e" stroke-width="1.08403"/><path d="M227.54758,192.79811h23.33153v5.84913h-23.33153z" fill="#2c2d2e" stroke-width="1.01057"/><path d="M225.46441,186.84263h3.48931v4.41341h-3.48931z" fill="#2c2d2e" stroke-width="1.01057"/></g></g></svg>