<svg version="1.1" xmlns="http://www.w3.org/2000/svg" xmlns:xlink="http://www.w3.org/1999/xlink" width="85.17048" height="68.57307" viewBox="0,0,85.17048,68.57307"><defs><radialGradient cx="238.2223" cy="179.4667" r="42.58524" gradientUnits="userSpaceOnUse" id="color-1"><stop offset="0" stop-color="#6cc924" stop-opacity="0"/><stop offset="1" stop-color="#6cc924" stop-opacity="0"/></radialGradient></defs><g transform="translate(-195.63706,-145.18015)"><g data-paper-data="{&quot;isPaintingLayer&quot;:true}" fill-rule="nonzero" stroke="none" stroke-linejoin="miter" stroke-miterlimit="10" stroke-dasharray="" stroke-dashoffset="0" style="mix-blend-mode: normal"><path d="M263.9051,162.82347c0.10339,0 0.10339,0 0,0l0.93049,0.77294v0z" fill="#000000" stroke-width="1.0106" stroke-linecap="butt"/><path d="M261.18806,196.50659l1.13576,-0.95858l5.42633,-4.51942l1.64052,2.32811l-11.48364,9.5867l-1.64053,-2.32823l4.92156,-4.10859" fill="#2c2d2e" stroke-width="1.0106" stroke-linecap="butt"/><path d="M267.50631,166.27627l-1.65418,2.24402l-4.96253,-4.03927l-0.93049,-0.78545l-3.51513,-2.91715l1.65418,-2.3562l4.03206,3.36601l0.93049,0.78545l4.4456,3.7026" fill="#2c2d2e" stroke-width="1.0106" stroke-linecap="butt"/><path d="M237.76239,180.68796c0,10.5686 5.43167,20.25646 14.20593,27.19211l-5.22277,4.18346c-10.13217,-8.03656 -16.39949,-19.15557 -16.39949,-31.37558c0,-12.33009 6.37176,-23.55918 16.6084,-31.59573l5.22277,4.18333c-8.8787,6.93564 -14.41484,16.62363 -14.41484,27.41239z" fill="#d8d8d8" stroke-width="1.0106" stroke-linecap="butt"/><path d="M255.84443,155.50561l15.04455,12.64955l-2.9971,23.89201l-15.1234,10.44045l-8.20253,-26.10111z" fill="#2c2d2e" stroke-width="1.0106" stroke-linecap="round"/><path d="M238.30766,180.24046c0,10.55032 5.33164,20.22145 13.94429,27.14511l-5.12658,4.17622c-9.94556,-8.02267 -16.09744,-19.12245 -16.09744,-31.32134c0,-12.30876 6.25442,-23.51845 16.30251,-31.54112l5.12657,4.17613c-8.71518,6.92365 -14.14934,16.59489 -14.14934,27.36499z" fill="#c2c1ba" stroke-width="1.0106" stroke-linecap="butt"/><path d="M238.30766,180.24046c0,-10.66022 5.43415,-20.33133 14.14934,-27.25501l10.45821,8.57211v0l-4.10125,-3.40689l-1.64051,2.30789l3.5886,2.96734c-1.84557,1.75834 -3.28101,3.62667 -4.5114,5.60479l-3.79366,-2.198l-1.02532,2.08811l3.79366,2.198c-1.12785,2.41778 -1.74302,4.94545 -1.94809,7.58311h-4.51139v2.52767h4.51139c0.20506,2.74746 0.82025,5.27512 1.94809,7.693l-3.99872,1.53856l0.7177,2.198l4.40884,-1.64853c1.33291,2.198 2.97342,4.17623 4.92151,5.93456l-3.99873,3.29699l1.33291,1.97822l-6.25441,5.16522c-8.71518,-7.03355 -14.04681,-16.59479 -14.04681,-27.14511z" fill="#2c2d2e" stroke-width="1.0106" stroke-linecap="butt"/><path d="M262.09496,196.17589c-1.84557,-1.64854 -3.48607,-3.51677 -4.71645,-5.60488l3.07594,-1.20889l-0.7177,-2.198l-3.48608,1.31878c-1.12785,-2.30789 -1.74302,-4.72566 -1.94809,-7.25333h4.92151v-2.52767h-4.92151c0.20506,-2.41778 0.82025,-4.83555 1.84557,-7.03355l3.28101,1.86823l1.02532,-2.0881l-3.28101,-1.86823c1.12784,-1.97822 2.66581,-3.84643 4.40884,-5.495l4.81898,3.95644l1.6405,-2.30789l-4.30632,-3.51676v0l11.17592,9.23146c-2.87088,2.198 -4.61391,5.3851 -4.61391,8.792c0,3.29699 1.6405,6.37423 4.30631,8.57212l-6.8696,5.71477l-1.33291,-1.86822z" fill="#2c2d2e" stroke-width="1.0106" stroke-linecap="butt"/><path d="M269.89418,180.8181c0,-3.40689 1.74303,-6.594 4.61392,-8.792l5.12658,4.17623c-1.53797,1.20889 -2.46076,2.74745 -2.46076,4.61578c0,1.64844 0.82025,3.1871 2.15315,4.2861l-5.12658,4.286c-2.66581,-2.1979 -4.30632,-5.27511 -4.30632,-8.57211z" fill="#d8d8d8" stroke-width="1.0106" stroke-linecap="butt"/><path d="M270.40002,180.24046c0,-3.40689 1.74303,-6.594 4.61392,-8.792l5.12658,4.17622c-1.53797,1.20889 -2.46076,2.74745 -2.46076,4.61578c0,1.64844 0.82025,3.1871 2.15316,4.28611l-5.12658,4.28601c-2.66581,-2.1979 -4.30631,-5.27512 -4.30631,-8.57212z" fill="#c2c1ba" stroke-width="1.0106" stroke-linecap="butt"/><path d="M257.17344,169.58023l-1.02532,-0.54955c1.23038,-2.088 2.76835,-3.95634 4.5114,-5.60479l0.92278,0.76923c-1.74303,1.53867 -3.28101,3.40689 -4.40884,5.3851z" fill="#ffffff" stroke-width="1.0106" stroke-linecap="butt"/><path d="M262.09496,196.17589l-0.9228,0.76923c-1.94809,-1.75834 -3.5886,-3.73657 -4.92151,-5.93456l1.12784,-0.43957c1.23038,2.0881 2.76835,3.95634 4.71645,5.60488z" fill="#ffffff" stroke-width="1.0106" stroke-linecap="butt"/><path d="M256.25067,188.4829l-1.02532,0.43966c-1.12785,-2.41788 -1.84557,-5.05543 -1.94809,-7.693h1.12784c0.10254,2.52767 0.7177,4.94545 1.84557,7.25333z" fill="#ffffff" stroke-width="1.0106" stroke-linecap="butt"/><path d="M254.30257,178.70189h-1.12785c0.20506,-2.63766 0.82025,-5.27522 1.9481,-7.58311l1.02532,0.54955c-1.02532,2.198 -1.6405,4.50589 -1.84557,7.03355z" fill="#ffffff" stroke-width="1.0106" stroke-linecap="butt"/><path d="M238.2223,145.18015l42.58524,34.28654l-42.58524,34.28654l-42.58524,-34.28653zM195.63706,145.18015zM280.80752,213.75323z" fill="url(#color-1)" stroke-width="0.04598" stroke-linecap="butt"/></g></g></svg>