<svg version="1.1" xmlns="http://www.w3.org/2000/svg" xmlns:xlink="http://www.w3.org/1999/xlink" width="63.3009" height="168.5153" viewBox="0,0,63.3009,168.5153"><g transform="translate(-211.065,-34.62908)"><g data-paper-data="{&quot;isPaintingLayer&quot;:true}" fill-rule="nonzero" stroke="none" stroke-width="0.11244" stroke-linecap="butt" stroke-linejoin="miter" stroke-miterlimit="10" stroke-dasharray="" stroke-dashoffset="0" style="mix-blend-mode: normal"><path d="M211.065,34.62908h63.3009v168.5153h-63.3009z" fill="none"/><path d="M243.5207,203.00716v0c-0.24783,0.27444 -0.37173,0 -0.49553,-0.13722c-2.72535,-1.78399 -5.45059,-3.70508 -8.05203,-5.48905c-5.69829,-3.97963 -11.27268,-7.82192 -16.84717,-11.66433c-1.85808,-1.37232 -3.71629,-2.74453 -5.69829,-3.97963c-0.49553,-0.27444 -0.61944,-0.6861 -0.61944,-1.3722c0,-4.11685 0.12391,-8.2337 0,-12.35056c-0.2477,-8.64525 0,-17.29062 -0.12379,-25.93598c-0.24783,-8.64525 0,-17.29062 -0.24783,-25.79876c-0.12391,-8.91981 0,-17.70228 -0.12391,-26.62208c-0.12379,-4.39129 -0.12379,-8.64536 -0.12379,-12.89944c0,-0.41166 -0.12391,-0.82332 0.12379,-1.09776c1.23876,0.41166 2.22983,1.23498 3.22088,1.92121c6.44153,4.39129 13.00697,8.64525 19.44862,13.03655c3.09686,1.92121 6.06991,3.97963 9.16677,6.03806c0.37173,0.13722 0.74335,0.41166 0.74335,1.09776c0.12379,0.41166 0.12379,0.82344 0.12379,1.37232c0,10.15479 0,20.44692 -0.12379,30.73894c-0.24783,20.03526 0,40.0704 -0.12391,60.10566c0,3.97952 -0.12391,7.95914 -0.12391,11.93877c0,0.27444 0,0.6861 -0.12379,1.09776z" fill="#fef5e0"/><path d="M243.5207,203.00716v0c-0.24783,-0.41166 -0.12391,-0.54888 -0.12391,-0.96054c0.12391,-23.19144 0.12391,-46.3829 0.2477,-69.71156c0,-11.66433 0,-23.32866 0,-34.99301c0.12391,-0.54888 0.37162,-0.6861 0.74324,-0.82332c0.74335,-0.54888 1.48659,-1.2351 2.47753,-1.78399c0.24783,-0.13722 0.37173,-0.27444 0.49553,-0.54888c-0.12379,-0.96066 -0.49553,-1.2351 -1.23876,-1.37232c-0.61932,-0.13722 -1.23876,0 -1.48647,-0.82332v-0.13722c0.49553,-0.6861 1.11486,-0.6861 1.61038,-0.41166c0.61932,0.27444 1.23876,0.54888 1.61038,0.96054c0.74324,0.54888 1.23876,0.6861 1.982,0c0.24783,-0.13722 0.37162,-0.27444 0.61944,-0.41166c-0.49553,-0.13722 -1.11497,-0.27444 -1.11497,-0.96066c0.12391,-0.82332 0.74335,-0.6861 1.36268,-0.6861c0.12391,-0.13722 0.37162,-0.13722 0.49553,0c0.99106,0.41166 1.73429,0 2.47753,-0.82332c0.2477,-0.13722 0.61932,-0.41166 0.99106,-0.6861c4.95505,-3.56797 9.7862,-7.27315 14.86517,-10.97823c1.36256,-0.96066 2.60132,-2.05843 3.964,-2.88175c0.12391,-0.13722 0.37162,-0.41177 0.74324,-0.27455c0,3.01909 0,6.17528 0,9.19425c-0.12391,3.97963 -0.12391,8.09648 -0.12391,12.21334c-0.12379,6.17517 -0.2477,12.48765 -0.2477,18.66293c-0.12391,8.91969 -0.2477,17.97672 -0.2477,26.89652c-0.12391,9.88035 -0.24783,19.62348 -0.37162,29.50394c0,2.74453 -0.12391,5.48905 -0.12391,8.09637c0,0.6861 -0.12391,0.96066 -0.49553,1.2351c-5.69829,4.39129 -11.39658,8.64525 -16.97108,13.03655c-3.964,3.01909 -7.8042,6.17528 -11.7682,9.05703c-0.12391,0.13722 -0.24783,0.27444 -0.37162,0.41166z" fill="#6b7888"/><path d="M274.24199,74.69948v0c-0.74324,0.27455 -1.36268,0.82344 -1.85808,1.37232c-2.60145,1.78399 -5.07897,3.56797 -7.5565,5.48905c-3.22076,2.47009 -6.44153,4.94029 -9.7862,7.27315c-0.24783,0 -0.24783,0.13722 -0.37162,0.13722c-0.99106,0.27444 -1.73429,-0.13722 -2.72535,-0.13722c-0.86714,0 -1.85808,0 -2.72524,0.13722c-0.24783,0.13722 -0.61944,0.13722 -0.86714,-0.27455c-0.12391,-0.41166 0.37162,-0.41166 0.49553,-0.6861c0.37162,-0.27444 0.74324,-0.41166 0.99094,-0.82332c0.61944,-0.41166 0.61944,-0.82344 0,-1.37232c-0.86714,-0.6861 -1.85808,-0.96054 -2.84915,-0.96054c-1.11486,0 -2.2297,-0.13722 -3.46847,0c-0.61944,0.13722 -0.74335,-0.13722 -0.49553,-0.82344c1.73429,-0.54888 3.46847,-0.82332 5.20277,-1.23498c0.49553,0 1.23876,-0.13722 1.36268,-0.82332c0.12391,-0.68621 -0.61944,-0.68621 -1.11486,-1.09788c-0.24783,-0.13722 -0.61944,-0.41166 -0.99106,-0.82332c-0.37162,-0.41166 -0.99106,-0.68621 -1.61038,-0.82344c-0.74324,0 -1.23876,-0.41166 -1.73429,-1.23498c-0.61932,-1.09788 -1.85808,-1.09788 -2.97306,-1.2351c-1.11486,0 -2.2297,0.27444 -3.22076,0.41177c-0.61932,0.13722 -1.11486,0 -1.61038,0.13722c-0.37162,0 -0.61944,-0.13722 -0.61944,-0.54899c-0.12379,-0.41166 0,-0.6861 0.37173,-0.82332c0.37162,-0.27444 0.86703,-0.41166 1.36256,-0.82332c0.61944,-0.68621 0.61944,-1.37232 -0.2477,-1.92121c-0.86714,-0.6861 -1.982,-0.82344 -3.09697,-0.96066c-2.97294,-0.41166 -5.946,0.27455 -8.79515,0.68621c-0.12391,0 -0.12391,0 -0.12391,0c-1.61038,-0.68621 -1.61038,-0.68621 -2.47753,0.6861c-0.61944,0.41166 -0.99106,0.41166 -1.11486,-0.27444c-0.37162,-1.37232 -0.86714,-2.47009 -1.73429,-3.56797c0,-0.13722 -0.12391,-0.13722 -0.12391,-0.41166c1.73429,-0.96054 3.09697,-2.19565 4.70735,-3.29341c2.10591,-1.50954 4.21183,-3.01909 6.31761,-4.52851c0.37173,-0.41166 0.61944,-0.54888 0.61944,-1.2351c-0.12391,-5.7635 -0.12391,-11.66433 -0.12391,-17.56506c0,-0.54888 0.12391,-1.09788 0,-1.64677c0,-0.6861 0.24783,-1.23498 0.74324,-1.09776c0.49553,0 0.74335,0.41166 0.74335,1.09776c0,5.62627 0,11.25267 0,17.01618c0,0.54899 0.12379,1.2351 0.12379,1.78399c-0.12379,0.13722 -0.2477,0.13722 -0.37162,0c-0.12379,-0.41166 -0.12379,-0.96054 -0.12379,-1.50954c0,-5.35183 0,-10.56646 0,-15.91829c0,-0.41166 0,-0.82344 0,-1.2351c-0.24783,0.41166 -0.12391,0.82344 -0.12391,1.2351c0,8.50803 0,17.01618 0,25.66153c0,0.13722 0,0.41166 0,0.54888c0,0.6861 0.2477,0.82332 0.74324,0.6861c1.23876,-0.27444 2.35362,-0.6861 3.46859,-0.82332c0.86714,-0.27444 1.61038,-0.41166 2.35362,-0.54888c1.11486,0 1.982,-0.27455 2.97306,-0.41177c3.59238,-0.96054 7.06097,-1.50943 10.52944,-2.47009c1.73429,-0.27444 3.22076,-0.54888 4.95505,-0.96054c0.24783,0 0.49553,0 0.86714,0c1.982,1.23498 3.96412,2.47009 5.94612,3.70519c3.22076,2.19553 6.44153,4.25396 9.66229,6.31239c0.24783,0.13722 0.49553,0.27444 0.49553,0.54888z" fill="#8c8685"/><path d="M219.73635,69.34765v0c0.99106,1.09788 1.61038,2.33287 1.982,3.84241c0,0.13722 0,0.54888 0.24783,0.54888c0.2477,0 0.37162,-0.13722 0.49553,-0.41166c1.11486,-1.50954 1.23876,-1.50954 2.72524,-0.54888c0.12391,0.13722 0.2477,0 0.37162,0.13722c1.11486,0.6861 0.99106,1.64665 0,2.47009c0.2477,0.27444 0.49553,0.13722 0.74324,-0.13722c0.37162,-0.68621 0.74324,-0.96066 1.48659,-0.82344c0.74324,0.27444 1.36256,0.82344 1.982,1.2351c0.2477,0.54888 0.86714,0.54888 1.23876,0.82332c0.37162,0.41166 0.86714,0.54888 1.11486,1.09788c0,0.13722 0,0.27444 0,0.41166c0,0.41166 0.12391,0.82332 -0.12391,1.23498c-0.2477,0.41177 0.37173,0.82344 0.24783,1.2351c0,0.27444 0,0.6861 0,1.09776c0,1.2351 0,2.60742 0,3.84241c0,0.54888 -0.12391,1.09788 -0.61944,1.37232c-1.36256,-0.13722 -2.35362,-1.09788 -2.35362,-2.60731c0,-2.05843 0.12391,-4.11685 0.2477,-6.03806c0,0.82332 0.12391,1.78399 -0.49541,2.33287c-0.24783,0.27444 -0.24783,0.6861 -0.24783,0.96054c0,0.68621 0,1.37232 0,1.92121c0,0.54888 0,0.96066 -0.61932,1.09788c-1.48659,-0.13722 -2.22983,-0.96066 -2.22983,-2.88186c0,-0.54888 0,-1.23498 0,-1.78387c0,-0.13722 0,-0.27444 0,-0.41177c0,-0.27444 0,-0.41166 -0.37162,-0.41166c-0.2477,0 -0.2477,0.13722 -0.37162,0.41166c0,0.27455 0,0.54899 0,0.68621c0,0.6861 0.12391,1.23498 -0.2477,1.78399c-0.37173,0.27444 -0.61944,0.27444 -0.99106,0.13722c-1.23876,-0.68621 -1.85821,-1.50954 -1.61038,-3.01909c0,-0.82332 0,-1.64665 -0.12391,-2.60731c-0.49553,1.37232 -1.23876,2.33287 -2.60145,2.47009c-2.10579,-0.41166 -4.45953,-3.01897 -4.83115,-5.21461c-0.12391,-0.27444 0,-0.27444 0,-0.41166c-0.2477,-1.2351 -0.37162,-2.33287 0,-3.56797c0.24783,-1.50943 1.61038,-2.19565 2.84915,-1.78387c0.74324,0.27444 1.48659,0.82332 2.10591,1.50943z" fill="#181613"/><path d="M232.74343,59.87895v0c0,0 0,0 0.12379,0c1.73429,-1.23498 3.34467,-2.47009 5.07897,-3.56785c0.49553,-0.41177 0.61944,-0.82344 0.61944,-1.37232c0,-6.3125 0,-12.7621 0,-19.21182c0,-0.41166 0,-0.82344 0.49541,-0.96066c0.49553,-0.27444 0.61944,0 0.86714,0.27455c-0.2477,0.54888 -0.37162,1.09776 -0.37162,1.64665c0,8.78258 0,17.56517 0,26.34764c0,1.09788 0.12391,1.2351 1.11486,0.96066c4.08803,-1.09788 8.05203,-1.78399 12.01603,-2.88175c0.37162,0 0.61944,0 0.99106,0c0.99106,0.6861 2.10591,1.23498 3.09686,2.05843c-0.2477,0.27444 -0.49541,0.27444 -0.86703,0.41166c-3.84021,0.82332 -7.68041,1.78387 -11.64441,2.60731c-2.22983,0.54888 -4.58344,1.09776 -6.81326,1.64677c-1.23876,0.41166 -2.47753,0.6861 -3.84008,0.82332c-0.86714,0.27444 -1.23876,-0.13722 -1.11497,-0.96066c0.12391,-2.33287 -0.2477,-4.66573 -0.12379,-6.9986c0,-0.27444 0.12379,-0.54888 0.37162,-0.82332z" fill="#8c8684"/><path d="M226.05408,81.56086v0c0.12391,1.64677 0.74324,2.47009 2.10591,2.74464c0.49553,-0.13722 0.86714,-0.68621 1.36256,-0.27455c-0.2477,1.78399 1.11497,1.92121 1.98212,2.60742c0.49541,-0.13722 0.74324,-0.54899 1.23876,-0.27455c0.2477,0.13733 0.37162,0.41177 0.61932,0.68621c1.23876,1.64665 2.72535,2.88175 4.70735,2.74453c0.61932,0 0.99094,0.27444 1.23876,0.82332c0.74324,1.78399 2.10591,2.60731 3.59238,3.29353c0.37162,0.13722 0.74324,0 0.99106,0.13722c1.11486,0.27444 2.2297,0.13722 3.34467,0.13722c0,0 0.12379,0 0.2477,0c0.12391,0.41166 -0.2477,0.54888 -0.37162,0.54888c-1.23876,0.82332 -2.35362,1.64677 -3.46859,2.60731c-4.70723,-3.15619 -9.41458,-6.3125 -14.12194,-9.46869c-5.946,-3.97963 -11.7682,-7.82192 -17.59041,-11.80155c-0.2477,-0.13722 -0.37162,-0.27444 -0.61944,-0.41166c1.11497,-0.82332 2.35373,-1.64677 3.46859,-2.47009c0.49553,2.19565 1.85821,3.97963 3.96412,4.94017c0.2477,0.27444 0.49541,0.41166 0.86703,0.41166c0.74335,0.13722 1.36268,-0.13722 2.10591,0c0.24783,0.13722 0.61944,0 0.74335,0.41166c0,0.13722 0,0.27444 0,0.41166c0.12379,1.37232 0.86703,2.33287 1.85808,2.60742c0.2477,0 0.37162,-0.13722 0.49553,-0.27455c0.37162,-0.13722 0.86714,-0.41166 1.23876,-0.13722z" fill="#8a827d"/><path d="M240.05211,54.66434v0c0.37162,-0.27444 0.99106,-0.54888 1.36268,-0.96066c0.37162,-0.27444 0.61932,-0.27444 0.99094,-0.13722c3.46859,2.33287 6.93705,4.66573 10.52956,6.9986c0,0 0,0 0,0.13722c-0.99106,0.54899 -2.22983,0.68621 -3.34467,0.82344c-2.72535,0.6861 -5.45059,1.23498 -8.17582,1.78399c-1.36268,0.41166 -1.73429,0 -1.73429,-1.50954c0,-1.92121 0,-3.97963 0,-5.90084c0,-0.41166 0,-0.96054 0.37162,-1.23498z" fill="#8c8785"/><path d="M240.05211,54.66434v0c-0.12391,2.60731 0,5.21461 -0.12391,7.82192c0,0.82344 0.49553,0.82344 1.11497,0.68621c1.48647,-0.27455 2.84915,-0.54899 4.33562,-0.96066c1.982,-0.41166 3.964,-0.82332 5.82221,-1.23498c0.61932,-0.13722 1.11486,-0.41177 1.73429,-0.27455c0.2477,0 0.49553,0.27455 0.74324,0.41177c-0.61944,0.41166 -1.36268,0.41166 -1.85821,0.54888c-3.84008,0.82332 -7.68029,1.78399 -11.5205,2.60731c-0.99094,0.27444 -0.99094,0.27444 -0.99094,-0.82332c0,-8.91981 0,-17.97683 0,-27.03386c0,-0.6861 0,-1.09776 0.61932,-1.3722c0.12391,5.21461 0,10.15479 0,15.36941c0.12391,1.37232 0.12391,2.74453 0.12391,4.25407z" fill="#404954"/><path d="M237.45067,67.70088v0c1.61038,-0.6861 3.22076,-0.82332 4.83126,-1.23498c3.46847,-0.82332 6.93705,-1.64677 10.40553,-2.33287c1.36268,-0.41166 2.72535,-0.6861 4.08791,-0.96054c0.49553,0.27444 0.99106,0.54888 1.36268,0.96054c-1.23876,0.54888 -2.72524,0.6861 -4.08791,0.96054c-3.59238,0.82344 -7.06097,1.50954 -10.65336,2.33287c-1.48659,0.27444 -2.97306,0.68621 -4.45953,0.82344c0.12379,-0.54899 0.61932,-0.54899 0.99094,-0.54899c1.85821,-0.54888 3.71629,-0.96054 5.5745,-1.3722c0,0 -0.12391,-0.13722 0,-0.13722c0,0.13722 0,0.13722 -0.12391,0.13722c-1.85808,0.54888 -3.84021,0.82332 -5.82221,1.23498c-0.37162,0.13722 -0.86714,0.27455 -1.23876,0.27455c-0.2477,0 -0.49553,0.13722 -0.86714,-0.13733z" fill="#606670"/><path d="M226.67341,89.65734v0c1.11497,0.82332 2.22983,1.50954 3.34467,2.19565c0.49553,0.27444 0.37162,0.82332 0.37162,1.09776c0,9.19425 0,18.38849 0,27.71996c0,11.80155 0,23.87756 0,35.81633c0,10.70379 0,21.40758 0.12391,32.11125c0,0.13722 0.37162,0.82332 -0.37162,0.6861c0.2477,-1.3722 -0.49553,-2.19565 -1.61038,-2.74453c0,0 -0.12391,-0.13722 -0.24783,-0.13722c-1.11486,-0.54888 -1.73418,-1.50943 -1.61038,-3.01897c0.12391,-0.6861 0.12391,-1.37232 -0.12379,-2.05843c-0.12391,-0.6861 0,-1.23498 0,-1.78399c0,-16.05562 0.12379,-32.11114 -0.12391,-48.02954c-0.12391,-13.3111 0,-26.75942 -0.12391,-40.0704c0,-0.68621 -0.12379,-1.2351 0.37162,-1.78399z" fill="#9f93e6"/><path d="M217.63044,83.75651v0c1.23876,0.68621 2.35373,1.50954 3.46859,2.19565c0.37162,0.27444 0.37162,0.54899 0.37162,0.96066c0,2.60731 -0.12391,5.07739 0,7.54748c0.2477,16.19285 0,32.3857 0.12391,48.71577c0.12379,12.48765 0.12379,24.97532 0.12379,37.46309c0,0.27444 0,0.54888 0,0.82332c0,0.13722 -0.12379,0.13722 -0.12379,0.13722c-1.23876,-0.41166 -1.98212,-1.23498 -2.97306,-1.92121c-0.49553,-0.41166 -0.49553,-0.96054 -0.61944,-1.50943c-0.12379,-0.54899 -0.12379,-1.09788 -0.12379,-1.64677c0,-4.52851 0.12379,-8.91981 0,-13.58554c-0.24783,-12.89933 0.12379,-25.93598 -0.12391,-38.8353c-0.2477,-11.52711 -0.12391,-23.05422 -0.12391,-34.44412c0,-1.64677 -0.37162,-3.15619 -0.2477,-4.52851c0,-0.54888 0,-0.96054 0.2477,-1.37232z" fill="#9f93e6"/><path d="M235.9642,95.96984v0c0.99094,0.82332 1.982,1.50943 3.22076,2.19553c0.37162,0.27455 0.37162,0.68621 0.37162,1.09788c0,7.27304 0,14.40886 -0.12391,21.68191c0,7.27304 0.12391,14.54608 0,21.95646c-0.12379,16.46729 -0.12379,32.79736 -0.12379,49.26465c0,0.27444 0,0.54888 0,0.6861c-0.37162,0.13722 -0.61944,-0.13722 -0.74324,-0.13722c-0.74335,-0.54888 -1.36268,-0.96066 -1.98212,-1.37232c-0.61932,-0.54888 -0.86714,-1.09776 -0.86714,-2.05843c0,-4.39118 0,-8.64525 0,-13.17377c0,-0.41166 0,-0.82344 -0.12379,-1.2351c-0.12391,-0.96054 -0.24783,-2.05843 0,-3.29341c0.12379,-0.54888 0,-1.09788 0,-1.64677c0,-24.01478 0,-48.02954 0,-72.04443c0,-0.54888 -0.12391,-1.23498 0.37162,-1.92109z" fill="#9f93e7"/><path d="M217.63044,83.75651v0c0.37162,11.80155 0.12391,23.60312 0.24783,35.26745c0.12379,13.72276 0,27.17108 0.12379,40.75661c0.12391,6.3125 0.12391,12.48765 0.12391,18.66293c0.12391,0.82332 0,1.09776 -0.86714,1.23498c-0.61932,0.13722 -1.11486,0.13722 -1.23876,-0.6861c0,-7.95914 0,-15.9184 0,-23.87756c-0.12391,-10.56657 -0.12391,-21.13302 -0.12391,-31.69959c-0.12379,-10.8409 -0.2477,-21.68191 -0.2477,-32.52292c0,-2.47009 0,-4.94017 -0.12391,-7.27304c0,-0.41166 0,-0.82332 0,-1.23498c0.86714,0.41166 1.48659,0.96054 2.10591,1.3722z" fill="#4345b3"/><path d="M226.67341,89.65734v0c0,6.58694 0,13.17377 0,19.7607c0,5.76362 0,11.52711 0,17.29073c0.12391,17.97672 0,36.09077 0.12391,54.0676c0,0.27444 0,0.54888 0,0.82332c0.12391,0.96066 0,1.92121 0,3.01897c0,0.68621 -0.49553,0.96066 -1.48647,0.96066c-0.61944,0 -0.49553,-0.41166 -0.49553,-0.82344c0,-3.29341 0,-6.58683 0,-9.88035c0,-0.27444 0,-0.54888 -0.12391,-0.96054c0,-9.88035 0,-19.76082 -0.12391,-29.64116c0,-18.25127 0,-36.50243 -0.12379,-54.89092c0,-0.27444 0,-0.68621 0,-1.09788c0.86714,0.41166 1.48647,0.96066 2.2297,1.37232z" fill="#4445b4"/><path d="M235.9642,95.96984v0c0,24.97532 0,49.81353 -0.12391,74.51441c0,1.50954 -0.2477,3.01909 0.12391,4.52851c-0.24783,0.27444 -0.12391,0.68621 -0.12391,0.96066c0,4.52851 0,9.05703 0,13.44821c0,1.37232 -0.2477,1.64677 -1.48647,1.64677c-0.24783,0 -0.37162,0 -0.49553,-0.13722c-0.12391,-3.70508 -0.12391,-7.41026 -0.12391,-11.11545c0,-27.99441 0,-56.12603 0,-84.12043c0,-0.27444 0,-0.54888 0,-1.09776c0.86714,0.54888 1.48659,0.96054 2.22983,1.37232z" fill="#4646b7"/><path d="M224.69141,173.91499v0c0.24783,0.41166 0.12391,0.54888 0.12391,0.96054c0,3.29353 0,6.58694 0,9.88035c0,0.54899 0.12391,0.82344 0.74324,0.68621c1.23876,-0.41166 1.23876,-0.27444 1.23876,-1.78399c0,-0.6861 0,-1.37232 0,-2.05843c0.2477,0.82344 0.12391,1.92121 0.12391,2.74453c0,0.54899 0.12379,0.96066 0.61932,1.2351c0.61944,0.41166 1.36268,0.82332 2.10591,1.3722c0.74324,0.54899 0.99106,1.2351 0.49553,2.33287c-1.61038,-1.09776 -3.34467,-2.33287 -5.07897,-3.43063c-0.2477,-0.27444 -0.37162,-0.41166 -0.37162,-0.6861c0,-3.70519 0,-7.5476 0,-11.25267z" fill="#8b81f9"/><path d="M233.85829,190.93117v0c1.85808,-0.27444 1.85808,-0.27444 1.85808,-2.47009c0,-4.11685 0,-8.37081 0,-12.48765c0,-0.27444 0,-0.68621 0.24783,-0.96066c0,4.80295 0,9.60591 0,14.40886c0,0.82344 0.12391,1.2351 0.74324,1.64677c0.86714,0.54888 1.61038,1.2351 2.60145,1.78399c0,0.54888 0.2477,1.37232 -0.12391,1.78399c-0.37162,0.27444 -0.86714,-0.54899 -1.23876,-0.82344c-1.48647,-0.96054 -2.84915,-1.78387 -4.08791,-2.88175z" fill="#8d83f8"/><path d="M216.02005,178.99239v0c0.24783,0.54888 0.37162,0.6861 0.86714,0.54888c0.49553,-0.27444 1.36268,0 1.23876,-1.09776c0.2477,1.23498 1.23876,1.50943 1.982,2.05843c0.49553,0.41166 1.11497,0.82332 1.61038,0.96054c0,0.6861 0,1.37232 0,2.05843c-0.37162,-0.13722 -0.74324,-0.41166 -0.99094,-0.6861c-1.36268,-0.96066 -2.72535,-1.78399 -4.21183,-2.88186c-0.2477,-0.27444 -0.61944,-0.41166 -0.49553,-0.96054z" fill="#8b81f9"/><path d="M253.18299,94.18586v0c0.49553,0.82332 0.12391,1.50943 0.12391,2.19565c0,8.50803 0.12391,17.01618 0,25.52431c-0.24783,10.97812 0,21.95635 -0.24783,32.79736c-0.12379,10.15479 0,20.30959 -0.12379,30.46449c0,1.92109 -0.12391,3.8423 -0.12391,5.90073c0,0.41166 -0.12391,0.6861 -0.37162,0.82344c-1.36268,1.09776 -2.84915,2.19553 -4.21183,3.29341c-0.2477,0.13722 -0.37162,0.54888 -0.74324,0.27444c-0.2477,-0.13722 0,-0.41166 0,-0.6861c0,-10.97823 -0.12391,-21.81924 0,-32.79736c0.12391,-13.3111 0,-26.6222 0.12391,-39.93318c0.12379,-7.68482 0.12379,-15.36952 0.12379,-23.05422c0,-0.41166 0.12391,-0.82344 0.49553,-1.09788c1.61038,-1.23498 3.22076,-2.47009 4.95505,-3.70508z" fill="#3a4288"/><path d="M261.73043,96.65594v0c0,2.19565 0,4.39129 0,6.72416c-0.2477,7.13582 0,14.40886 -0.12379,21.54469c-0.24783,7.13582 0,14.13442 -0.24783,21.13302c-0.12379,7.54748 0,15.09497 -0.12379,22.64256c-0.24783,5.21461 0,10.42924 -0.12391,15.64385c0,0.54899 -0.12391,0.96066 -0.61944,1.2351c-1.48647,1.09776 -2.84915,2.19565 -4.33562,3.29341c-0.12391,0.13722 -0.2477,0.54888 -0.49553,0.27444c-0.12391,-0.13722 -0.12391,-0.41166 -0.12391,-0.6861c0.12391,-3.97963 0.24783,-7.95914 0.24783,-12.07599c0,-5.48905 -0.12391,-11.11545 0,-16.60451c0.12391,-9.19425 0,-18.25127 0.12391,-27.44552c0.2477,-8.64536 0,-17.42784 0.2477,-26.0732c0,-4.52851 0,-9.05703 0.12391,-13.58554c0,-0.41166 0,-0.82332 0.2477,-1.09776c1.61038,-1.09788 3.22076,-2.33287 4.83115,-3.43075c0.49553,-0.41166 0.37162,0.13722 0.37162,0.41166c0,2.60742 0,5.35196 0,8.09648z" fill="#3a4288"/><path d="M264.08416,180.22749v0c0.2477,-6.72416 0,-13.17388 0.12379,-19.6236c0.24783,-5.90073 0,-11.80155 0.24783,-17.70228c0.12391,-6.58694 -0.12391,-13.3111 0.12391,-19.89804c0.2477,-6.3125 -0.12391,-12.48765 0.12379,-18.80015c0.24783,-5.90073 0.12391,-11.80155 0.12391,-17.70228c0,-0.54899 0.12391,-0.82344 0.49553,-1.2351c1.48647,-0.96054 2.84915,-2.05843 4.21183,-3.15619c0.2477,-0.13722 0.49541,-0.41177 0.74324,-0.27444c0.2477,0.13722 0.12379,0.54888 0.12379,0.82332c-0.2477,5.62627 0,11.25267 -0.2477,16.87896c-0.12391,5.35183 0.12391,10.56657 -0.12391,15.78118c-0.2477,5.48905 0,10.97823 -0.12379,16.33007c-0.24783,5.21461 0,10.56646 -0.24783,15.78118c-0.12379,5.62627 0,11.11534 -0.12379,16.74173c-0.24783,4.25407 0,8.64525 -0.12391,13.03655c0,0.41166 -0.12391,0.68621 -0.49553,1.09788c-1.48647,0.96054 -2.97306,2.19565 -4.45953,3.29341c-0.24783,0.27444 -0.37162,0.27444 -0.37162,-0.13722c0,-0.41166 0,-0.96054 0,-1.23498z" fill="#3a4288"/><path d="M242.90125,94.04864v0c-1.48647,-0.68621 -2.97306,-1.37232 -3.71629,-3.29353c-0.2477,-0.54888 -0.61932,-0.6861 -1.11486,-0.6861c-2.35373,0 -4.08791,-1.37232 -5.20288,-3.56785c-0.37162,-0.13733 -0.49541,-0.54899 -0.49541,-0.82344c-0.24783,-0.96054 -0.24783,-1.78399 0,-2.74453c0.12379,-0.96054 1.36256,-1.78399 2.35362,-1.50954c0.49553,0.13722 0.99094,0.41177 1.48647,0.82344c0.49553,0.27444 0.86714,0.82332 1.23876,1.23498c0.37162,0.41166 0.61944,0.96066 0.86714,1.64677c0,0.13722 0.12391,0.41166 0.24783,0.6861c-0.12391,0.82344 -0.61944,0.96066 -1.11497,0.68621c-0.37162,0 -0.61932,-0.13733 -0.86714,-0.41177c-0.2477,0 -0.49541,-0.13722 -0.61932,-0.41166c0,-0.13722 -0.12391,-0.13722 -0.12391,-0.41166c-0.12391,-0.13722 -0.2477,-0.6861 -0.74324,-0.54888c-0.37162,0.13722 -0.12391,0.54888 0,0.96054c0,0.41166 0.2477,0.6861 0.49553,1.09788c0.12379,0.13722 0.37162,0.27444 0.61932,0.27444c0.61944,-0.54888 1.11497,0 1.61038,0.41166c0.24783,0.13722 0.37162,0.13722 0.61944,-0.27444c1.11486,-2.33287 2.72524,-1.92121 3.84021,-0.82344c0.2477,0.13733 0.49541,0.41177 0.61932,0.41177c0.99106,0.82332 1.48647,1.92109 1.85821,3.15619c0.12379,0.6861 0.2477,1.37232 0,1.92121c-0.12391,0.13722 -0.12391,0.13722 -0.12391,0.13722c-0.24783,1.64677 -0.61944,2.19565 -1.73429,2.05843z" fill="#181513"/><path d="M244.51164,89.93179v0c-0.49553,-1.09776 -0.86714,-2.19565 -1.73429,-2.88175c-0.2477,-0.54888 0.12391,-0.68621 0.37162,-0.68621c0.61944,-0.27444 1.23876,-0.27444 1.85821,0c0.37162,0.13733 0.74324,0.41177 0.61932,0.96066c-0.12379,0.54888 0.12391,0.6861 0.49553,0.6861c0.99106,0.41166 1.73429,0.13722 2.47753,-0.54888c0.49553,-0.41166 0.49553,-0.96054 -0.2477,-1.37232c-0.74324,-0.54888 -1.61038,-0.82332 -2.60145,-0.82332c-2.2297,0 -4.33562,-0.13722 -6.56544,0.54888c-0.2477,0.13722 -0.61932,0.13722 -0.86714,-0.13722c-0.12391,-0.13722 -0.12391,-0.41166 -0.12391,-0.6861c0.99106,-0.6861 2.10591,-0.6861 3.22088,-0.96066c0.49541,0.13733 0.99094,-0.13722 1.48647,0c0.12391,0 0.12391,0 0.2477,0.13733c-0.37162,0.54888 0,0.54888 0.37173,0.54888c1.11486,-0.41166 2.35362,0 3.59238,0c0.86714,0 1.85808,0.13722 2.60145,0.6861c1.11486,0.6861 1.11486,1.50954 0.12379,2.19565c-0.49553,0.41166 -0.86714,0.6861 -1.48647,1.09776c0.37162,0.13733 0.74324,0 1.11486,0c1.73429,-0.13722 3.46859,-0.13722 5.20288,0.27455c-0.24783,0.41166 -0.61944,0.54888 -0.86714,0.6861c-0.49553,0 -0.99106,0 -1.48659,-0.13722c-2.2297,-0.54888 -4.58344,0 -6.81315,0.41166c-0.37162,0 -0.74324,0.13722 -0.99106,0z" fill="#707075"/><path d="M244.51164,89.93179v0c1.982,-0.54888 4.08791,-0.96054 6.06991,-0.82332c1.11497,0 2.22983,0 3.22088,0.54888c-0.12391,0.13722 -0.24783,0.27444 -0.37162,0.41166c-0.61944,0.54888 -1.11497,0.96054 -1.85821,0.54888c-0.37162,-0.13722 -0.86714,-0.27444 -1.36268,0c-0.37162,0.13722 -0.74324,0 -0.74324,0.41166c0,0.41177 0.37162,0.54899 0.61944,0.54899c0.2477,0.13722 0.61932,0.13722 0.86714,0.13722c-0.49553,0.6861 -1.11497,0.96054 -1.73429,1.3722c-0.24783,0.13722 -0.74324,0.13722 -1.11497,-0.27444c-0.49541,-0.41166 -0.99094,-0.54888 -1.61038,-0.96054c-0.61932,-0.41166 -1.23876,-0.41166 -1.73418,0c-0.12391,-0.6861 -0.12391,-1.2351 -0.24783,-1.92121z" fill="#37485c"/><path d="M242.90125,94.04864v0c0.61944,0 0.99106,-0.41166 1.36268,-0.82344c0.12379,0 0.37162,-0.13722 0.12379,-0.54888c-0.37162,-0.41166 0.12391,-0.41166 0.24783,-0.6861c0.49553,0.6861 1.11486,0.54888 1.61038,0.54888c0.74324,0.13722 0.99106,0.6861 1.36268,1.09788c0.2477,0.27444 -0.12391,0.41166 -0.12391,0.54888c-0.12391,0 -0.12391,0 -0.2477,0c-1.11497,0.13722 -2.22983,0.13722 -3.34467,0.13722c-0.37162,-0.13722 -0.74335,0 -0.99106,-0.27444z" fill="#334357"/><path d="M225.55855,72.91561v0c-0.2477,0 -0.37162,0 -0.37162,-0.13722c1.73429,-0.41177 3.59238,-0.54899 5.20277,-0.82344c1.73429,-0.13722 3.46859,0 5.07897,0.27444c0.86714,0.13722 1.73429,0.41177 2.35362,1.09788c0.49553,0.6861 0.49553,1.23498 0,1.64677c-0.49541,0.54888 -0.99094,0.96054 -1.61038,1.23498c-0.2477,0.13722 -0.49553,0.13722 -0.37162,0.54888c0.12391,0.27444 0.24783,0.27444 0.61944,0.27444c1.36256,0.13733 2.72524,-0.41166 4.2117,-0.54888c1.11497,0 2.10591,0.27444 3.22088,0.82344c0.12379,0 0.37162,0.27444 0.49541,0.41166c0.12391,1.23498 0.99106,1.23498 1.73429,1.23498c0.37162,0.13722 0.74324,0.27444 1.11497,0.54899c0.74324,0.82332 1.61038,1.3722 2.47753,1.92109c0.49541,0.27444 0.49541,0.68621 0,1.09788c-0.24783,0.13722 -0.37173,0.27444 -0.61944,0.27444c-1.982,0.41166 -4.08791,0.82332 -5.94612,1.37232l-0.12379,-0.13733c0,0 0,-0.13722 0.12379,-0.13722l0.12391,-0.13722c1.36268,-0.82332 2.97306,-0.96054 4.45953,-1.3722c0.37162,-0.27444 0.12391,-0.41166 -0.12379,-0.54888c-0.61944,-0.27455 -1.11497,-0.68621 -1.48659,-1.09788c-0.37162,-0.6861 -1.11486,-0.82332 -1.73429,-0.82332c-1.36256,0 -2.72524,0 -3.964,0.13722c-0.61932,0.13722 -1.11486,0 -1.73429,-0.13722c-0.12379,0 -0.37162,-0.27444 -0.49553,-0.68621c0,-0.27444 0.24783,-0.41166 0.49553,-0.6861c0.61944,-0.13722 1.11497,-0.41166 1.73429,-0.13722c0.37162,0 0.99106,0.13722 1.36268,0c0.12379,0 0.37162,0 0.37162,-0.27444c0,-0.13722 -0.12391,-0.13722 -0.24783,-0.27444c-0.61932,-0.27444 -1.23876,-0.54888 -1.85808,-0.41166c-2.47753,0.41166 -5.07897,-0.13722 -7.5565,0.6861c-0.12379,0 -0.37162,0 -0.49553,-0.13722c0,-0.27444 0,-0.41166 0,-0.54888c0.37173,-0.54899 0.86714,-0.54899 1.23876,-0.68621c0.99106,-0.41166 1.85821,-0.82332 2.72535,-1.50943c0.49553,-0.54899 0.49553,-0.82344 0,-1.37232c-0.86714,-0.6861 -1.85821,-0.82332 -2.72535,-0.96054c-1.85808,-0.41166 -3.59238,-0.13722 -5.45047,0c-0.74335,0 -1.48659,0.27444 -2.22983,0z" fill="#62666e"/><path d="M237.45067,67.70088v0c1.48659,-0.13722 2.72535,-0.54888 4.08791,-0.82332c1.36268,-0.27444 2.72535,-0.54888 4.08791,-0.41166c-0.61932,0.13722 -1.36256,0.41166 -2.10579,0.54888c-1.36268,0.27444 -2.72535,0.6861 -4.21183,1.09788c-0.12391,0 -0.12391,0 -0.37162,0.13722c-2.10591,0.41166 -4.21183,0.96054 -6.19382,1.50943c-0.61944,0.13722 -0.74335,0 -0.74335,-0.54888c0,-9.33147 0,-18.52571 0,-27.71996c0,-0.27444 0,-0.27444 0,-0.41166c0.12391,-0.27444 0.12391,-0.54888 0.37173,-0.54888c0.37162,0 0.2477,0.41166 0.2477,0.54888c0,3.15619 0,6.17528 0,9.19425c0,3.29341 0,6.44972 0.12391,9.60591c0,1.64677 -0.12391,3.43075 0,5.07739c0.12379,0.82344 0,1.78399 0,2.60731c-0.12391,0.68621 0,1.09788 0.86714,0.96066c1.23876,-0.41166 2.60132,-0.54888 3.84008,-0.82344z" fill="#404852"/><path d="M232.00008,77.99301v0c1.85821,-0.6861 3.71629,-0.54888 5.5745,-0.54888c0.74324,0 1.61038,-0.27444 2.35362,-0.27444c0.74324,0 1.61038,0.13722 2.35373,0.54888c0.12379,0.13722 0.37162,0.27444 0.37162,0.6861c-0.12391,0.13722 -0.37162,0.27444 -0.61944,0.27444c-0.49553,0 -1.11486,0.13722 -1.61038,-0.13722c-0.61932,-0.13722 -1.11486,0 -1.73429,0.27444c-0.12379,0.13722 -0.37162,0.13722 -0.37162,0.41166c0,0.27455 0.24783,0.41177 0.37162,0.41177c0.49553,0.13722 0.99106,0.41166 1.48659,0.27444c1.48647,-0.27444 2.97294,-0.27444 4.58344,-0.27444c0.61932,0 1.23876,0.27444 1.48647,0.82332c0.49553,0.6861 0.86714,0.96054 1.48647,1.09776c0.24783,0.13722 0.61944,0.27455 0.61944,0.54899c0,0.41166 -0.37162,0.41166 -0.49553,0.54888c-0.99106,0.13722 -1.982,0.27444 -2.47753,-0.96066c-0.37162,-0.54888 -1.23876,-0.41166 -1.85808,-0.54888c-0.61944,0 -1.11497,0.13722 -1.6105,0.41166c-1.23876,0.96066 -2.72524,1.37232 -4.33562,0.96066c-0.37162,-0.13722 -0.86714,0 -1.36268,0c-0.37162,-0.27444 -0.86714,-0.54888 -1.23876,-0.82344c-1.36256,-0.41166 -2.47753,0.41177 -2.47753,1.92121c0,0.96066 -0.12379,1.92121 0.37162,2.88186c-0.49541,0 -0.86714,0 -1.36256,0.13722c0.37162,-0.27455 0.49541,-0.54899 0.49541,-1.09788c0,-1.3722 0,-2.74453 0,-4.11685c0.49553,-0.41166 1.11497,-0.27444 1.73429,-0.54888c0.24783,0 0.61944,0 0.99106,-0.27444c-0.37162,-0.54888 -0.74324,-0.27444 -1.11486,-0.41166c-0.49553,0 -0.99106,0.27444 -1.6105,0.13722c-0.49541,-0.82332 0.12391,-1.50954 0,-2.33287z" fill="#3a4a5e"/><path d="M225.55855,72.91561v0c1.73429,-0.27444 3.59238,-0.41166 5.45059,-0.41166c1.73429,0 3.46847,0 5.07897,1.09776c0.74324,0.54888 0.74324,1.2351 0,1.78399c-1.11497,1.09776 -2.60145,1.50943 -4.08803,2.05843c-0.74324,-0.41177 -1.23876,-1.09788 -2.10579,-1.09788c-0.24783,0 -0.24783,-0.27444 -0.24783,-0.54888c0.74324,-0.13722 1.36268,-0.27444 1.982,-0.54888c0.12391,0 0.49553,-0.13722 0.49553,-0.41166c0,-0.27455 -0.37162,-0.41177 -0.61932,-0.41177c-0.24783,-0.27444 -0.61944,-0.27444 -0.86714,-0.13722c-0.99106,0.13722 -1.85821,0.13722 -2.84915,0.27444c-0.74335,0 -1.23876,0.27455 -1.48659,1.09788c-0.12379,0.27444 -0.2477,0.41166 -0.61932,0.13722c-0.12391,-0.27444 -0.49553,-0.41166 -0.74324,-0.6861c0.61932,0.13722 0.99094,-0.13722 1.11486,-0.68621c0.2477,-0.6861 -0.12391,-1.09776 -0.49553,-1.50943z" fill="#3a4a5e"/><path d="M217.25882,71.81773v0c0,-0.41166 -0.37162,-0.96054 0.12391,-1.23498c0.49553,-0.13722 0.86714,0.41166 1.11486,0.82332c0.61944,0.82332 0.86714,1.78399 0.74324,2.88175c0,0.54899 -0.37162,0.54899 -0.61932,0.68621c-0.37162,0.27444 -0.61944,0 -0.74324,-0.27455c-0.49553,-0.82332 -0.74335,-1.78387 -0.61944,-2.88175z" fill="#8b8481"/><path d="M227.78838,74.56226v0c0,-0.13722 0,-0.41166 0.2477,-0.41166c1.11486,0.13722 2.22983,-0.27444 3.34467,-0.13722c0.2477,0 0.61932,0.13722 0.86714,0.41166c0.2477,0.27444 0.2477,0.68621 0,0.82344c-0.86714,0.27444 -1.61038,1.09776 -2.60145,0.54888c-0.61932,-0.41166 -1.23876,-0.82332 -1.85808,-1.2351z" fill="#7e7a7b"/><path d="M229.52255,84.03095v0c-0.37162,0.13733 -0.86703,0.27455 -1.36256,0.27455c0.37162,-0.27455 0.49553,-0.54899 0.37162,-0.96066c0,-0.6861 0,-1.3722 0,-2.05843c0,-0.54888 0.12391,-0.82332 0.61932,-1.23498c0.61944,-0.41166 0.24783,-1.2351 0.12391,-2.05843c0,0 -0.2477,-0.27444 0,-0.41166c0.37162,-0.13722 0.2477,0.13722 0.2477,0.41166c0.37173,0.41166 0.61944,0.82332 0,1.23498c0,0.13722 0,0.41177 0,0.54899c0.12391,1.3722 0,2.88175 0,4.25396z" fill="#49505a"/><path d="M222.46171,78.95355v0c-0.86714,-0.13722 -1.85821,-0.13722 -2.84927,-0.41166c1.11497,-0.13722 1.85821,-0.82332 2.22983,-2.05843c0.12391,-0.13722 -0.12391,-0.6861 0.37162,-0.54888c0.24783,0 0.37162,0.41166 0.37162,0.6861c-0.12379,0.68621 -0.12379,1.50954 -0.12379,2.33287z" fill="#303e50"/><path d="M232.00008,80.32588v0c0.74335,-0.27444 1.6105,-0.41166 2.35373,-0.27444c0.37162,0 0.61932,0.13722 0.61932,0.41166c0.12391,0.41166 -0.2477,0.54888 -0.49553,0.54888c-0.86703,0.13722 -1.61038,0.54888 -2.47753,0.41166c0,-0.27444 0,-0.6861 0,-1.09776z" fill="#7f7a78"/><path d="M226.05408,81.56086v0c-0.37162,0 -0.74324,0.27455 -1.23876,0.13722c0.37162,-0.54888 0.12391,-1.23498 0.12391,-1.78387c0.37162,-0.27444 0.74324,-0.54899 1.11486,-0.27444c0,0.6861 0,1.23498 0,1.92109z" fill="#2f3e4f"/><path d="M226.05408,79.63977v0c-0.24783,0.27444 -0.74324,0.27444 -1.11486,0.27444c0,-0.41166 -0.12391,-0.96066 0.2477,-1.09788c0.12391,-0.27444 0.49553,-0.27444 0.74324,-0.27444c0.37162,0.27444 0.12391,0.6861 0.12391,1.09788z" fill="#7f7975"/><path d="M243.89232,94.32308v0c1.11486,0 2.2297,0 3.34467,-0.13722c-1.11497,0.41166 -2.22983,0.27444 -3.34467,0.13722z" fill="#6b7888"/><path d="M238.31782,85.67771v0c2.35362,-0.54888 4.58344,-0.82332 6.93705,-0.6861c1.11497,0.13722 2.22983,0.27444 3.22088,0.82332c0.86703,0.41166 0.99094,1.09788 0.2477,1.78399c-0.86714,1.09776 -1.982,1.09776 -3.09697,0.6861c-0.2477,-0.27444 -0.61932,-0.41166 -0.2477,-0.82332c0.12391,-0.27444 0.12391,-0.41166 0,-0.6861c-0.37162,-0.41177 -2.22983,-0.41177 -2.60145,0.27444c-0.49541,-0.41166 -0.74324,-0.68621 -1.23876,-0.96066c-1.23876,-0.82332 -2.60132,-0.27444 -2.97294,1.37232c-0.24783,0.82332 -0.37173,0.54888 -0.74335,0.27444c-0.2477,-0.27444 -0.49541,-0.41166 -0.74324,-0.6861c-0.2477,0 -0.37162,-0.27444 -0.49553,0c-0.49541,0.41166 -0.86714,0.13722 -1.23876,-0.27444c0.24783,-0.41177 0.99106,-0.41177 1.23876,-0.82344c0.24783,0.13722 0.49553,0.27444 0.86714,0.41166c0.49553,0.27455 0.86714,0.13733 0.86714,-0.6861z" fill="#394a5e"/><path d="M236.21191,82.52152v0c0.61944,-0.54888 1.36268,-0.41166 1.982,-0.13722c1.23876,0.27444 2.35373,-0.13722 3.34467,-0.82344c1.23876,-0.6861 2.35373,-0.6861 3.5925,-0.41166c0.12379,0.13722 0.2477,0.13722 0.37162,0.27444c0.37162,1.37232 1.36256,1.37232 2.35362,1.2351c-0.61932,0.41166 -1.11486,0.27444 -1.73429,0.27444c-0.99094,0.27444 -1.85808,0.6861 -2.84915,0.96054c0.24783,-0.82332 -0.12391,-1.09776 -0.99094,-1.09776c-1.23876,0.13722 -2.35373,0.54888 -3.71629,0.6861c-0.37173,0.13722 -0.74335,0.27444 -1.23876,0.13722c-0.37173,-0.41166 -0.74335,-0.82332 -1.11497,-1.09776z" fill="#5f636d"/><path d="M237.32688,83.61929v0c1.73418,-0.41166 3.46847,-0.82332 5.20277,-1.09776c0.12391,0 0.37162,0 0.49553,0.13722c0.2477,0.13722 0.61932,0.27444 0.74324,0.6861c0.12391,0.41166 -0.49553,0.27444 -0.49553,0.54888c-0.12391,0 -0.12391,0 -0.2477,0c-0.49553,0.13722 -1.11497,0.13722 -1.61038,0.41177c-1.11497,0.27444 -2.10591,0.41166 -3.22088,0.6861c-0.37162,-0.41166 -0.61932,-0.96066 -0.86703,-1.37232z" fill="#37485b"/><path d="M234.97315,85.67771v0c-0.2477,-0.41166 -0.49553,-1.09776 0,-1.23498c0.74324,-0.13722 0.99106,0.41166 1.11497,1.09776c-0.37173,0.41166 -0.74335,0.54888 -1.11497,0.13722z" fill="#303f50"/><path d="M234.97315,85.67771v0c0.37162,0 0.74324,0 1.11497,-0.13722c0.12379,0.13722 0.2477,0.27444 0.49541,0.41166c0.12391,0.41166 -0.12379,0.41166 -0.37162,0.54899c-0.2477,0 -0.49553,0.27444 -0.86714,0.27444c-0.2477,-0.27444 -0.37162,-0.54899 -0.37162,-1.09788z" fill="#7f7875"/><path d="M241.41479,84.3055v0c0.49541,-0.41177 1.11486,-0.41177 1.61038,-0.41177c0,0.13722 0,0.13722 0,0.13722c-0.49553,0 -1.11497,0.41177 -1.61038,0.27455z" fill="#5f636d"/></g></g></svg>