<svg version="1.1" xmlns="http://www.w3.org/2000/svg" xmlns:xlink="http://www.w3.org/1999/xlink" width="86.017" height="65.9746" viewBox="0,0,86.017,65.9746"><g transform="translate(-199.066,-146.8524)"><g data-paper-data="{&quot;isPaintingLayer&quot;:true}" fill-rule="nonzero" stroke="none" stroke-linecap="butt" stroke-linejoin="miter" stroke-miterlimit="10" stroke-dasharray="" stroke-dashoffset="0" style="mix-blend-mode: normal"><path d="M242.0745,146.8524l43.0085,32.9873l-43.0085,32.9873l-43.0085,-32.9873zM199.066,146.8524zM285.083,212.827z" fill="#6cc924" stroke-width="0.04598"/><g><path d="M229.04367,186.31958c1.81647,0 3.46377,0.46591 4.65625,1.21884c1.19249,0.75293 1.93017,1.7929 1.93017,2.94101c0,1.14811 -0.73768,2.18808 -1.93017,2.94101c-1.19249,0.75293 -2.83979,1.21884 -4.65625,1.21884c-1.81647,0 -3.46377,-0.46591 -4.65625,-1.21884c-1.19249,-0.75293 -1.93017,-1.79289 -1.93017,-2.94101c0,-1.14811 0.73768,-2.18808 1.93017,-2.94101c1.19249,-0.75293 2.83979,-1.21884 4.65625,-1.21884z" fill="#65bd22" stroke-width="1"/><g stroke-width="0.01418"><g><g><g><g><g><g><g><g><path d="M222.07204,167.89548h6.87941v19.79324h-6.87941z" fill="none"/><path d="M227.10393,184.8976v0c-1.69042,0.60942 -2.94836,2.22107 -5.01219,2.75187c0.62897,-1.41532 1.08101,-2.57494 1.78859,-3.73457c0.53066,-1.08114 0.35386,-1.51348 -0.8059,-1.61181c-0.25555,-0.98284 0.45218,-1.61181 0.72728,-2.3194c0.25555,-0.78621 1.23839,-1.4938 0,-2.2997c-0.2751,-0.09831 -0.09831,-0.55034 0,-0.8059c1.23839,-2.94836 2.67326,-5.89673 4.08843,-8.66816c0.19649,-0.27524 0.47173,-0.43248 0.8059,-0.17693c0.53066,0.8059 0,1.69042 -0.07861,2.59463c0,0.62897 -0.17694,1.23825 -0.25555,1.96552c0.15724,1.06145 -1.43487,1.69042 -0.72728,2.94836c0,0.17694 0.09831,0.35373 0.09831,0.43234c-0.55034,1.15976 -0.80591,2.33908 -0.45218,3.47915c0,0.19649 -0.09817,0.37342 -0.17679,0.43235c-1.25808,0.8059 -0.17693,1.25794 0.25541,1.78873c0.27524,0.72728 0.27524,1.43487 0.37356,2.24077c0,0.35373 -0.17694,0.70759 -0.62897,0.9827z" fill="#20a900"/></g></g><g><g><path d="M219.8902,167.12896h8.8254v15.21339h-8.8254z" fill="none"/><path d="M228.51911,167.93472v0c-1.51349,3.1253 -3.02698,6.3489 -4.63878,9.57237c0.45204,0.43249 0.8059,-0.19649 1.33656,0c-0.35373,1.76904 -1.33656,3.18423 -2.14246,4.79603c-0.70758,-0.17694 -1.51349,-0.27525 -2.22107,-0.53081c-0.35373,-0.09817 -1.43487,-0.09817 -0.72728,-1.08101c1.17945,-0.35373 1.78873,-1.41518 2.59463,-2.20139c0.17679,-0.27524 0.72727,-0.72728 -0.07863,-0.90421c-0.62897,-0.17694 -1.25793,-0.35373 -2.14245,-0.53066c1.33656,-1.15976 2.49619,-2.24077 3.65594,-3.2236c-0.55034,-0.8059 -1.51349,-0.35373 -2.14246,-0.9827c0.35373,-0.88452 1.43488,-1.15976 1.96553,-1.96567c1.43488,-1.23825 2.57494,-2.94837 4.38322,-3.73458c0.15724,0.07861 0.25555,0.15724 0.33418,0.35387c0,0.17694 -0.07861,0.2751 -0.17694,0.43234z" fill="#35db00"/></g></g><g><g><path d="M228.87283,167.73823h6.21121v16.80565h-6.21121z" fill="none"/><path d="M234.14059,184.44557v0h-0.17694l-0.09817,-0.09831c-0.35387,-0.35373 -1.08114,0 -1.33669,-0.60928c-0.37342,-0.62897 -0.53066,-1.33656 -0.37342,-2.06384c0.90421,-1.43488 0.47173,-2.57494 -0.60928,-3.6364c0.07861,-1.08101 -0.45217,-1.86722 -0.62897,-2.86974c-0.43249,-1.23825 -0.43248,-2.67312 -1.43487,-3.73458c-0.41279,-1.17932 -1.04177,-2.31925 -0.07863,-3.57733c1.23825,-0.45204 1.96553,0.62911 2.75174,1.15976c0.37342,0.8059 1.08115,0.9827 1.61181,1.43488c0.19649,0.88452 -1.69042,1.23825 -0.60928,2.39801c0.25541,0.90407 0.88438,1.70997 0.70758,2.59449c0.09817,0 0.07863,0 0.09817,0c-0.55034,0.27524 -0.80576,0.62897 -0.37342,0.98284c1.25794,1.25794 1.33655,2.85004 1.17931,4.44216c0.15724,0.90407 0,1.88691 0.25555,2.86974c0.17694,0.88452 -0.35386,0.80591 -0.88452,0.70759z" fill="#209900"/></g></g><g><g><path d="M227.08424,183.73798h3.4987v7.17435h-3.4987z" fill="none"/><path d="M227.10393,184.8976v0c0.17679,-0.2751 0.25541,-0.62897 0.35373,-0.90407c0.17694,-0.17694 0.43249,-0.25555 0.70759,-0.25555c0.8059,0.17694 0.72727,0.88452 0.98283,1.33656c0.53066,-1.08101 0.96315,-0.35387 1.33656,0.07861c0.15724,0.35387 0,0.72728 -0.09831,1.08101c0,0.88452 0.09831,1.86736 0,2.77157c0,0.78621 0.5308,1.96552 -1.08101,1.86721c-1.317,0 -2.2014,-0.35373 -2.2014,-1.96552c0.07861,-1.33656 0,-2.67326 0,-4.00982z" fill="#7f471c"/></g></g><g><g><path d="M234.14059,180.6913h4.04906v4.69772h-4.04906z" fill="none"/><path d="M234.14059,184.44557v0c0.15724,-0.09831 0.70758,-0.27525 0.62897,-0.35387c-1.35624,-1.08101 0,-2.24076 -0.19649,-3.30208c0.07861,-0.01969 0.09817,-0.09831 0.19649,-0.09831c0.07861,0 0.07863,0.09831 0.15725,0.09831c0.98284,1.51349 2.31939,2.75174 3.2236,4.56016c-1.51349,-0.27524 -2.77143,-0.45217 -4.00982,-0.90421z" fill="#35a700"/></g></g><g><g><path d="M230.28815,183.18763h3.61657v5.4053h-3.61657z" fill="none"/><path d="M230.38633,186.23416v0c-0.09817,-0.35373 -0.09817,-0.80576 -0.09817,-1.15962c0.09817,-0.09831 0.09817,-0.09831 0.19649,-0.17694c0.25555,0 0.53066,0 0.53066,-0.45203c0,-0.62897 0.35387,-1.08115 0.98284,-1.23839c0.43249,-0.09817 0.62897,0.15725 0.78621,0.43249c0.37356,0.27524 0.72727,0.45203 1.08114,0.70758c-1.51349,-0.35373 -1.78873,0.27524 -1.23838,1.61181c0.15724,0.53066 0.33418,1.08101 0.5308,1.61181c0.07861,0.35373 0.53066,0.88438 -0.27524,0.9827c-0.62897,-0.8059 -1.15962,-1.51349 -1.69042,-2.3194c-0.2751,-0.35373 -0.55034,-0.35373 -0.8059,0z" fill="#35a700"/></g></g><g><g><path d="M233.09883,175.42355h3.42009v5.4053h-3.42009z" fill="none"/><path d="M234.57307,180.78962v0c-0.27524,-1.51349 -0.17693,-3.10561 -1.33655,-4.44216c-0.35387,-0.37356 0,-0.90421 0.72714,-0.90421c-0.72714,0.90421 0.17693,1.33656 0.60941,1.51349c1.25794,0.72728 1.33656,2.06385 1.86722,3.1056c0.19662,0.37342 -0.15724,0.27524 -0.43234,0.37342c-0.5308,-0.2751 -0.98283,-0.37342 -1.33669,0.25555z" fill="#35a700"/></g></g><g><g><path d="M233.03989,172.82906h2.37833v2.90898h-2.37833z" fill="none"/><path d="M233.86549,175.44324v0c-0.45217,-0.8059 -1.08114,-1.51349 -0.70758,-2.59449c1.23825,0.55034 2.14246,1.35625 2.22107,2.77143c-0.5308,0.2751 -0.98284,-0.07861 -1.51349,-0.17694z" fill="#35a700"/></g></g><g><g><path d="M220.10652,178.47022h2.63374v2.26046h-2.63374z" fill="none"/><path d="M222.72071,178.48991v0c-0.5308,1.15962 -1.15976,2.12277 -2.59463,2.20139c0.8059,-0.8059 1.71012,-1.59211 2.59463,-2.20139z" fill="#3cdc00"/></g></g><g><g><path d="M232.15537,169.27141h1.65104v1.19901h-1.65104z" fill="none"/><path d="M232.15537,169.29097v0c0.19662,0 0.37342,0.07861 0.62897,0.07861c0.17694,0.55034 0.98284,0.45218 0.98284,1.08115c-0.70758,-0.19662 -1.41519,-0.27524 -1.61181,-1.15976z" fill="#66b500"/></g></g><g><g><path d="M226.90731,170.72583h2.39801v13.30693h-2.39801z" fill="none"/><path d="M228.16525,183.99353v0h-0.70759c-0.45204,-0.62911 -0.09831,-1.41532 -0.35373,-2.14259c0.45204,-0.70758 -0.55034,-1.41519 0,-2.12277v0c0.17679,-1.33656 0.70759,-2.59449 0.35373,-3.93105v0c-0.45204,-1.23839 0.90421,-2.04429 0.70759,-3.20391c-0.35373,-0.62897 0.09831,-1.15976 0,-1.78873c0.19662,-0.09817 0.35386,-0.09817 0.5308,0c0.60928,0.5308 0.60928,1.25808 0.53066,1.96567c0,3.02698 -0.07861,6.07351 0,9.17911c0,0.8059 -0.15724,1.59212 -1.06145,2.04429z" fill="#178e00"/></g></g><g><g><path d="M226.59282,175.77741h1.35624v3.97043h-1.35624z" fill="none"/><path d="M227.45766,175.7971v0c0.70758,1.25794 0.62897,2.94836 -0.35373,3.93105c-0.8059,-1.41518 -0.55034,-2.67312 0.35373,-3.93105z" fill="#179b00"/></g></g><g><g><path d="M225.57075,179.70847h2.08352v2.18184h-2.08352z" fill="none"/><path d="M227.10393,179.72816v0c0.25541,0.70758 1.06132,1.41519 0,2.12277c0,-0.07861 -0.0983,-0.07863 -0.0983,-0.1768c-0.53066,-0.27524 -1.41518,-0.27525 -1.41518,-1.06145c0,-0.72728 1.06131,-0.45203 1.51349,-0.88452z" fill="#179f00"/></g></g><g><g><path d="M226.71083,172.5735h1.55273v3.24316h-1.55273z" fill="none"/><path d="M228.16525,172.59319v0c0.27524,1.15962 -0.2751,2.22109 -0.70759,3.20391c-0.53066,-0.70773 -1.43487,-1.43487 0.17693,-2.04429c0.35373,-0.17679 0,-0.90407 0.53066,-1.15962z" fill="#179b00"/></g></g><g><g><path d="M228.1457,167.5613h1.06131v3.26285h-1.06131z" fill="none"/><path d="M228.51911,170.80446v0h-0.35386c0,-0.9827 0.5308,-1.88691 0.35386,-2.86974v-0.35373c0.96314,1.08101 0.78621,2.14246 0,3.22347z" fill="#209900"/></g></g><g><g><path d="M228.1457,167.1682h3.00729v18.1422h-3.00729z" fill="none"/><path d="M228.51911,170.80446v0c0.17694,-1.08101 0.78621,-2.14246 0,-3.22347v-0.27525c0.55034,-0.33403 0.78622,0.09831 1.15962,0.55035c-0.78621,1.25808 -0.19649,2.49633 0.25555,3.65595c0.27524,0.8059 0.55035,1.61181 0.70759,2.49633c0.37342,2.86974 -0.07863,5.71979 0.45203,8.56984c0.09831,0.88452 -0.2751,1.76906 -0.80576,2.49633v0c-0.07861,-0.09831 -0.27524,-0.17694 -0.27524,-0.09831c-1.31686,0.98284 -1.21869,-0.70759 -1.84766,-0.9827c1.14008,-2.3194 0.45217,-4.79602 0.5308,-7.11542c0.09817,-1.51349 0.37342,-3.04667 0.19648,-4.56016c-0.09831,-0.53066 -0.09831,-1.06131 -0.37342,-1.51349z" fill="#177c00"/></g></g><g><g><path d="M230.24878,173.98868h3.1253v11.22341h-3.1253z" fill="none"/><path d="M230.28815,185.07454v0c0.53066,-3.67564 -0.17694,-7.39053 0,-11.06617c0.90407,0.09831 0.53066,0.90421 0.80576,1.43487c0.17694,0.8059 0.8059,1.61181 0.62911,2.49633c1.43488,0.9827 2.41756,1.94584 0.70759,3.55764c-0.88452,-0.35387 -0.60942,-1.25794 -0.98284,-1.84767c0,-0.03924 0.09831,-0.09831 0,-0.09831c0,0.17694 0.0983,0.33418 0.0983,0.43249c0.17694,1.15962 0.88453,2.14246 0.53066,3.30208c-0.25555,0.35387 -0.8059,0.62911 -0.70758,1.25808c0.07861,0.96314 -0.62897,0.53066 -1.08101,0.53066z" fill="#179200"/></g></g><g><g><path d="M231.29054,179.31536h1.53319v4.36368h-1.53319z" fill="none"/><path d="M232.07676,183.2858v0c-0.17694,-1.15962 -0.8059,-2.31925 -0.70758,-3.55764c-0.17694,-0.35373 -0.00001,-0.45204 0.35386,-0.35373c0.2751,0.68789 0.43235,1.41519 0.70759,2.12277c-0.07861,0.70758 0.2751,1.43488 0.35373,2.14246c-0.25555,-0.09831 -0.43235,-0.27525 -0.70759,-0.35387z" fill="#17c200"/></g></g><g><g><path d="M229.9343,171.49249h1.47424v3.97043h-1.47424z" fill="none"/><path d="M231.0153,175.44324v0c-0.53066,-0.27524 -0.19649,-1.15962 -0.72714,-1.43487c-0.07861,-0.8059 -0.27524,-1.69042 -0.35387,-2.49633c0.98284,0.98284 0.98284,2.41771 1.43488,3.57734c-0.17694,0.07861 -0.17694,0.35386 -0.35387,0.35386z" fill="#17ab00"/></g></g><g><g><path d="M231.0153,175.06982h1.02221v2.88929h-1.02221z" fill="none"/><path d="M231.0153,175.44324v0c0.07861,-0.07861 0.25555,-0.27524 0.35387,-0.35386c-0.09831,0.98284 1.15962,1.78873 0.35386,2.85019c-0.35387,-0.8059 -0.70773,-1.59212 -0.70773,-2.49633z" fill="#17bc00"/></g></g><g><g><path d="M230.99575,178.54884h0.76652v1.19901h-0.76652z" fill="none"/><path d="M231.72303,179.37443v0c-0.09831,0.07861 -0.27524,0.2751 -0.35386,0.35373c-0.35387,-0.35373 -0.55034,-0.70758 -0.17694,-1.15962c0.17694,0.2751 0.35386,0.53066 0.5308,0.8059z" fill="#17b100"/></g></g></g></g></g></g></g></g></g></g><g><path d="M259.24804,175.12581c1.38162,0 2.63457,0.35437 3.54159,0.92706c0.90702,0.57269 1.4681,1.36369 1.4681,2.23696c0,0.87327 -0.56109,1.66427 -1.4681,2.23696c-0.90702,0.57269 -2.15997,0.92706 -3.54159,0.92706c-1.38162,0 -2.63457,-0.35437 -3.54159,-0.92706c-0.90702,-0.57269 -1.4681,-1.36369 -1.4681,-2.23696c0,-0.87327 0.56109,-1.66427 1.4681,-2.23696c0.90702,-0.57269 2.15997,-0.92706 3.54159,-0.92706z" fill="#65bd22" stroke-width="1"/><g stroke-width="0.01418"><g><g><g><g><g><g><g><g><path d="M253.94536,161.11227h5.23255v15.05492h-5.23255z" fill="none"/><path d="M257.77266,174.04424v0c-1.28575,0.46353 -2.24255,1.68937 -3.81232,2.0931c0.4784,-1.0765 0.82222,-1.95853 1.36042,-2.84055c0.40362,-0.82233 0.26915,-1.15118 -0.61298,-1.22595c-0.19438,-0.74755 0.34393,-1.22595 0.55318,-1.76415c0.19438,-0.598 0.94193,-1.1362 0,-1.74917c-0.20925,-0.07478 -0.07478,-0.4186 0,-0.61298c0.94193,-2.24255 2.0333,-4.4851 3.1097,-6.59307c0.14945,-0.20935 0.3588,-0.32895 0.61298,-0.13458c0.40362,0.61298 0,1.28575 -0.0598,1.9735c0,0.4784 -0.13458,0.94182 -0.19438,1.495c0.1196,0.80735 -1.09138,1.28575 -0.55318,2.24255c0,0.13458 0.07478,0.26905 0.07478,0.32885c-0.4186,0.88213 -0.61298,1.77913 -0.34393,2.64628c0,0.14945 -0.07467,0.28402 -0.13447,0.32885c-0.9569,0.61298 -0.13458,0.9568 0.19427,1.36053c0.20935,0.55318 0.20935,1.09138 0.28413,1.70435c0,0.26905 -0.13458,0.5382 -0.4784,0.74745z" fill="#20a900"/></g></g><g><g><path d="M252.28583,160.52925h6.71267v11.57145h-6.71267z" fill="none"/><path d="M258.84906,161.14212v0c-1.15118,2.37713 -2.30235,4.82903 -3.5283,7.28083c0.34382,0.32895 0.61298,-0.14945 1.0166,0c-0.26905,1.34555 -1.0166,2.42195 -1.62957,3.6479c-0.5382,-0.13458 -1.15118,-0.20935 -1.68937,-0.40373c-0.26905,-0.07467 -1.09138,-0.07467 -0.55318,-0.82222c0.8971,-0.26905 1.36053,-1.0764 1.9735,-1.6744c0.13447,-0.20935 0.55318,-0.55318 -0.0598,-0.68775c-0.4784,-0.13458 -0.9568,-0.26905 -1.62957,-0.40362c1.0166,-0.88213 1.89862,-1.70435 2.78075,-2.4519c-0.4186,-0.61298 -1.15118,-0.26905 -1.62957,-0.74745c0.26905,-0.67278 1.09138,-0.88213 1.495,-1.4951c1.09138,-0.94182 1.95853,-2.24255 3.33393,-2.84055c0.1196,0.0598 0.19438,0.1196 0.25418,0.26915c0,0.13458 -0.0598,0.20925 -0.13458,0.32885z" fill="#35db00"/></g></g><g><g><path d="M259.1181,160.99267h4.7243v12.78253h-4.7243z" fill="none"/><path d="M263.1248,173.70042v0h-0.13458l-0.07467,-0.07478c-0.26915,-0.26905 -0.82233,0 -1.0167,-0.46342c-0.28402,-0.4784 -0.40362,-1.0166 -0.28402,-1.56977c0.68775,-1.09138 0.3588,-1.95853 -0.46342,-2.76588c0.0598,-0.82222 -0.34393,-1.42022 -0.4784,-2.18275c-0.32895,-0.94182 -0.32895,-2.0332 -1.09138,-2.84055c-0.31398,-0.897 -0.79238,-1.76405 -0.0598,-2.72095c0.94182,-0.34382 1.495,0.4785 2.093,0.88213c0.28402,0.61298 0.82233,0.74745 1.22595,1.09138c0.14945,0.67278 -1.28575,0.94182 -0.46342,1.82395c0.19427,0.68765 0.67267,1.30062 0.5382,1.9734c0.07467,0 0.0598,0 0.07467,0c-0.4186,0.20935 -0.61287,0.4784 -0.28402,0.74755c0.9568,0.9568 1.0166,2.16777 0.897,3.37875c0.1196,0.68765 0,1.4352 0.19438,2.18275c0.13458,0.67278 -0.26915,0.61298 -0.67278,0.5382z" fill="#209900"/></g></g><g><g><path d="M257.75768,173.16222h2.66115v5.45688h-2.66115z" fill="none"/><path d="M257.77266,174.04424v0c0.13447,-0.20925 0.19427,-0.4784 0.26905,-0.68765c0.13458,-0.13458 0.32895,-0.19438 0.5382,-0.19438c0.61298,0.13458 0.55318,0.67278 0.74755,1.0166c0.40362,-0.82222 0.73258,-0.26915 1.0166,0.0598c0.1196,0.26915 0,0.55318 -0.07478,0.82222c0,0.67278 0.07478,1.42033 0,2.10808c0,0.598 0.40373,1.495 -0.82222,1.42022c-1.00173,0 -1.6744,-0.26905 -1.6744,-1.495c0.0598,-1.0166 0,-2.0333 0,-3.0499z" fill="#7f471c"/></g></g><g><g><path d="M263.1248,170.84489h3.07975v3.57313h-3.07975z" fill="none"/><path d="M263.1248,173.70042v0c0.1196,-0.07478 0.5382,-0.20935 0.4784,-0.26915c-1.03158,-0.82222 0,-1.70435 -0.14945,-2.5116c0.0598,-0.01498 0.07467,-0.07478 0.14945,-0.07478c0.0598,0 0.0598,0.07478 0.1196,0.07478c0.74755,1.15118 1.76415,2.093 2.4519,3.4685c-1.15118,-0.20935 -2.10797,-0.34393 -3.0499,-0.68775z" fill="#35a700"/></g></g><g><g><path d="M260.19461,172.74362h2.7508v4.11132h-2.7508z" fill="none"/><path d="M260.26928,175.06084v0c-0.07467,-0.26905 -0.07467,-0.61287 -0.07467,-0.88202c0.07467,-0.07478 0.07467,-0.07478 0.14945,-0.13458c0.19438,0 0.40362,0 0.40362,-0.34382c0,-0.4784 0.26915,-0.82233 0.74755,-0.94193c0.32895,-0.07467 0.4784,0.1196 0.598,0.32895c0.28413,0.20935 0.55318,0.34382 0.82233,0.5382c-1.15118,-0.26905 -1.36053,0.20935 -0.94193,1.22595c0.1196,0.40362 0.25418,0.82222 0.40373,1.22595c0.0598,0.26905 0.40362,0.67267 -0.20935,0.74745c-0.4784,-0.61298 -0.88202,-1.15118 -1.28575,-1.76415c-0.20925,-0.26905 -0.4186,-0.26905 -0.61298,0z" fill="#35a700"/></g></g><g><g><path d="M262.33243,166.83819h2.60135v4.11132h-2.60135z" fill="none"/><path d="M263.45376,170.91967v0c-0.20935,-1.15118 -0.13458,-2.36215 -1.0166,-3.37875c-0.26915,-0.28413 0,-0.68775 0.55307,-0.68775c-0.55307,0.68775 0.13458,1.0166 0.46353,1.15118c0.9568,0.55318 1.0166,1.56977 1.42022,2.36215c0.14955,0.28402 -0.1196,0.20935 -0.32885,0.28402c-0.40373,-0.20925 -0.74755,-0.28402 -1.0167,0.19438z" fill="#35a700"/></g></g><g><g><path d="M262.2876,164.86479h1.80897v2.2126h-1.80897z" fill="none"/><path d="M262.91556,166.85317v0c-0.34393,-0.61298 -0.82233,-1.15118 -0.5382,-1.9734c0.94182,0.4186 1.62957,1.03158 1.68937,2.10797c-0.40373,0.20925 -0.74755,-0.0598 -1.15118,-0.13458z" fill="#35a700"/></g></g><g><g><path d="M252.45036,169.15552h2.00325v1.71933h-2.00325z" fill="none"/><path d="M254.43873,169.17049v0c-0.40373,0.88202 -0.88213,1.6146 -1.9735,1.6744c0.61298,-0.61298 1.30073,-1.21098 1.9735,-1.6744z" fill="#3cdc00"/></g></g><g><g><path d="M261.61483,162.15882h1.2558v0.91198h-1.2558z" fill="none"/><path d="M261.61483,162.17369v0c0.14955,0 0.28402,0.0598 0.4784,0.0598c0.13458,0.4186 0.74755,0.34393 0.74755,0.82233c-0.5382,-0.14955 -1.0764,-0.20935 -1.22595,-0.88213z" fill="#66b500"/></g></g><g><g><path d="M257.6231,163.26507h1.82395v10.12138h-1.82395z" fill="none"/><path d="M258.5799,173.35659v0h-0.5382c-0.34382,-0.4785 -0.07478,-1.0765 -0.26905,-1.62968c0.34382,-0.5382 -0.4186,-1.0764 0,-1.6146v0c0.13447,-1.0166 0.5382,-1.9734 0.26905,-2.99v0c-0.34382,-0.94193 0.68775,-1.5549 0.5382,-2.43693c-0.26905,-0.4784 0.07478,-0.88213 0,-1.36053c0.14955,-0.07467 0.26915,-0.07467 0.40373,0c0.46342,0.40373 0.46342,0.9569 0.40362,1.4951c0,2.30235 -0.0598,4.61957 0,6.98172c0,0.61298 -0.1196,1.21098 -0.80735,1.5549z" fill="#178e00"/></g></g><g><g><path d="M257.3839,167.10734h1.03158v3.01995h-1.03158z" fill="none"/><path d="M258.0417,167.12232v0c0.5382,0.9568 0.4784,2.24255 -0.26905,2.99c-0.61298,-1.0764 -0.4186,-2.0332 0.26905,-2.99z" fill="#179b00"/></g></g><g><g><path d="M256.60651,170.09734h1.58475v1.65953h-1.58475z" fill="none"/><path d="M257.77266,170.11232v0c0.19427,0.5382 0.80725,1.0764 0,1.6146c0,-0.0598 -0.07478,-0.0598 -0.07478,-0.13447c-0.40362,-0.20935 -1.0764,-0.20935 -1.0764,-0.80735c0,-0.55318 0.80725,-0.34382 1.15118,-0.67278z" fill="#179f00"/></g></g><g><g><path d="M257.47366,164.67042h1.18102v2.46677h-1.18102z" fill="none"/><path d="M258.5799,164.68539v0c0.20935,0.88202 -0.20925,1.68937 -0.5382,2.43693c-0.40362,-0.5383 -1.09138,-1.09138 0.13458,-1.5549c0.26905,-0.13447 0,-0.68765 0.40362,-0.88202z" fill="#179b00"/></g></g><g><g><path d="M258.56503,160.85809h0.80725v2.48175h-0.80725z" fill="none"/><path d="M258.84906,163.32487v0h-0.26915c0,-0.74745 0.40373,-1.4352 0.26915,-2.18275v-0.26905c0.73258,0.82222 0.598,1.62957 0,2.4518z" fill="#209900"/></g></g><g><g><path d="M258.56503,160.55909h2.28737v13.79912h-2.28737z" fill="none"/><path d="M258.84906,163.32487v0c0.13458,-0.82222 0.598,-1.62957 0,-2.4518v-0.20935c0.4186,-0.25407 0.598,0.07478 0.88202,0.4186c-0.598,0.9569 -0.14945,1.89873 0.19438,2.78075c0.20935,0.61298 0.4186,1.22595 0.5382,1.89873c0.28402,2.18275 -0.0598,4.35052 0.34382,6.5183c0.07478,0.67278 -0.20925,1.34555 -0.61287,1.89873v0c-0.0598,-0.07478 -0.20935,-0.13458 -0.20935,-0.07478c-1.00162,0.74755 -0.92695,-0.5382 -1.40535,-0.74745c0.86715,-1.76415 0.34393,-3.6479 0.40373,-5.41205c0.07467,-1.15118 0.28402,-2.31733 0.14945,-3.4685c-0.07478,-0.40362 -0.07478,-0.80725 -0.28402,-1.15118z" fill="#177c00"/></g></g><g><g><path d="M260.16465,165.74682h2.37713v8.53663h-2.37713z" fill="none"/><path d="M260.19461,174.17882v0c0.40362,-2.79573 -0.13458,-5.6213 0,-8.41703c0.68765,0.07478 0.40362,0.68775 0.61287,1.09138c0.13458,0.61298 0.61298,1.22595 0.4785,1.89873c1.09138,0.74745 1.83882,1.48002 0.5382,2.70597c-0.67278,-0.26915 -0.46353,-0.9568 -0.74755,-1.40535c0,-0.02985 0.07478,-0.07478 0,-0.07478c0,0.13458 0.07478,0.25418 0.07478,0.32895c0.13458,0.88202 0.67278,1.62957 0.40362,2.5116c-0.19438,0.26915 -0.61298,0.4785 -0.5382,0.9569c0.0598,0.73258 -0.4784,0.40362 -0.82222,0.40362z" fill="#179200"/></g></g><g><g><path d="M260.95703,169.79834h1.16615v3.31905h-1.16615z" fill="none"/><path d="M261.55503,172.81829v0c-0.13458,-0.88202 -0.61298,-1.76405 -0.5382,-2.70597c-0.13458,-0.26905 0,-0.34382 0.26915,-0.26905c0.20925,0.52322 0.32885,1.0764 0.5382,1.6146c-0.0598,0.5382 0.20925,1.09138 0.26905,1.62957c-0.19438,-0.07478 -0.32885,-0.20935 -0.5382,-0.26915z" fill="#17c200"/></g></g><g><g><path d="M259.92545,163.84819h1.12133v3.01995h-1.12133z" fill="none"/><path d="M260.74768,166.85317v0c-0.40362,-0.20935 -0.14945,-0.88202 -0.55307,-1.09138c-0.0598,-0.61298 -0.20935,-1.28575 -0.26915,-1.89873c0.74755,0.74755 0.74755,1.83893 1.09138,2.72095c-0.13458,0.0598 -0.13458,0.26915 -0.26915,0.26915z" fill="#17ab00"/></g></g><g><g><path d="M260.74768,166.56914h0.7775v2.19762h-0.7775z" fill="none"/><path d="M260.74768,166.85317v0c0.0598,-0.0598 0.19438,-0.20935 0.26915,-0.26915c-0.07478,0.74755 0.88202,1.36053 0.26915,2.16788c-0.26915,-0.61298 -0.5383,-1.21098 -0.5383,-1.89873z" fill="#17bc00"/></g></g><g><g><path d="M260.73281,169.21532h0.58302v0.91198h-0.58302z" fill="none"/><path d="M261.28598,169.84327v0c-0.07478,0.0598 -0.20935,0.20925 -0.26915,0.26905c-0.26915,-0.26905 -0.4186,-0.5382 -0.13458,-0.88202c0.13458,0.20925 0.26915,0.40362 0.40373,0.61298z" fill="#17b100"/></g></g></g></g></g></g></g></g></g></g></g></g></svg>