<svg version="1.1" xmlns="http://www.w3.org/2000/svg" xmlns:xlink="http://www.w3.org/1999/xlink" width="62.6555" height="70.4898" viewBox="0,0,62.6555,70.4898"><g transform="translate(-210.9279,-131.87426)"><g data-paper-data="{&quot;isPaintingLayer&quot;:true}" fill-rule="nonzero" stroke="none" stroke-width="0.12972" stroke-linecap="butt" stroke-linejoin="miter" stroke-miterlimit="10" stroke-dasharray="" stroke-dashoffset="0" style="mix-blend-mode: normal"><path d="M211.1873,150.1511v0c9.2103,-6.0969 18.5502,-12.0641 27.7604,-18.0312c0.5189,-0.3892 0.7784,-0.2595 1.1675,0c7.2644,5.578 14.5289,11.2857 21.7933,16.8638c3.6322,2.8538 7.2644,5.578 10.7668,8.4319c0.3892,0.2594 0.6487,0.3891 0.9081,0.7783c-0.2594,0.3891 -0.5189,0.5189 -0.9081,0.6486c-2.0755,1.4269 -4.2808,2.9836 -6.486,4.4105c-0.3892,0.3892 -0.5189,0.5189 0,0.9081c0.7783,0.5189 1.4269,1.1675 2.2052,1.6864c0.5189,0.5188 0.5189,0.908 0,1.2972c-3.6322,2.4647 -7.1347,4.7997 -10.6371,7.1347c-0.2595,0.1297 -0.3892,0.2594 -0.5189,0.2594c-1.1675,-0.3892 -1.8161,-1.1675 -2.5944,-1.8161c-0.3892,-0.2594 -0.7784,-0.6486 -1.1675,-0.7783c-0.2595,0 -0.5189,0.2594 -0.6487,0.3891c-1.8161,1.1675 -3.7619,2.4647 -5.578,3.762c-2.335,1.5566 -2.0755,0.7783 -2.0755,3.7619c0,1.9458 0,3.7619 0,5.7077c0,0.3892 0.1297,0.7784 -0.2595,1.0378c-0.5189,-0.2594 -0.3891,-0.6486 -0.3891,-1.0378c0,-2.4647 0,-4.6699 0.1297,-7.0049c0,-0.9081 -0.3892,-1.427 -0.9081,-1.9459c-1.8161,-1.4269 -3.5024,-2.8538 -5.4483,-4.151c-1.8161,-1.427 -3.6322,-3.1134 -5.578,-4.5403c-3.1133,-2.5944 -6.2266,-5.0591 -9.3399,-7.5239c-3.8917,-3.1133 -7.7833,-6.2266 -11.675,-9.3399c-0.3891,-0.2594 -0.7783,-0.5189 -0.5189,-0.9081z" fill="#b5afad"/><path d="M211.1873,150.1511v0c0.3892,0.7784 1.2973,1.1675 2.0756,1.8161c4.67,3.8917 9.4697,7.6536 14.1396,11.4155c1.5567,1.2973 3.1133,2.4648 4.67,3.762c0.2594,0.1297 0.5189,0.5189 0.7783,0.6486c0.3892,1.0377 0.1298,2.0755 0.1298,2.9836c0,0.908 0.1297,1.8161 0,2.7241c0,0.9081 0,1.9458 0.1297,2.8539c-0.1297,1.0378 -0.1297,1.9458 0,2.8539c0.1297,0.908 0.1297,1.8161 0.1297,2.7241c0,0.9081 0,1.6864 0,2.5945c0,0.1297 0,0.1297 0,0.2594c0,0.908 0,1.8161 0,2.5944c0,0.9081 0,1.6864 0,2.5945c0,0 0,0.1297 0,0.2594c-0.1297,0.7783 0.2594,1.6864 -0.2594,2.5944c-1.9459,-1.5566 -3.8917,-3.1133 -5.8375,-4.6699c-2.335,-1.8161 -4.5403,-3.762 -6.7455,-5.5781c-2.9836,-2.335 -5.7078,-4.6699 -8.5617,-7.0049c-0.3891,-0.1298 -0.3891,-0.3892 -0.3891,-0.9081c-0.1297,-3.1133 0,-6.3563 -0.1297,-9.5994c-0.1298,-2.8539 0,-5.7077 -0.1298,-8.4319c-0.2594,-1.9458 -0.1297,-3.8916 -0.2594,-5.8374c0,-0.2595 0,-0.3892 0.2594,-0.6487z" fill="#fee7b1"/><path d="M257.1088,174.4091v0c3.3727,-2.2053 6.486,-4.4106 9.8588,-6.4861c0.2594,-0.2594 0.6486,-0.5189 1.0378,-0.7783c0.908,-0.5189 0.908,-0.5189 0.1297,-1.2972c-0.9081,-0.6487 -1.8161,-1.427 -2.8539,-2.0756c2.7242,-1.9458 5.578,-3.7619 8.3022,-5.578c-0.1297,3.8916 -0.2594,7.913 -0.3892,11.8046c-0.1297,4.1511 -0.2594,8.3022 -0.3891,12.4533c0,0.5189 -0.1298,0.7783 -0.5189,1.1675c-0.9081,0.3892 -1.6864,1.0378 -2.335,1.5567c-0.2595,0.1297 -0.5189,0.1297 -0.5189,0.5188c-0.3892,0.1298 -0.5189,-0.1297 -0.6486,-0.3891c-0.1297,0 -0.1297,-0.1297 -0.2594,0c0,0 0,0 0,0.1297c0,1.1675 0.1297,2.335 0,3.5025c-0.3892,0.5189 -0.2595,1.2972 -0.2595,1.8161c0,0.6486 -0.2594,1.0378 -0.7783,1.2972c-3.3728,2.335 -6.7455,4.67 -10.1183,7.005c-0.5189,0.3891 -0.908,0.3891 -1.4269,-0.1298c-0.2595,-0.2594 -0.5189,-0.5188 -1.0378,-0.6486c0.5189,-0.908 0.6486,-1.6863 0.2594,-2.5944c-0.2594,-0.7783 0.1298,-1.8161 -0.5188,-2.5944c0.7783,-0.9081 0.908,-1.8161 0.5188,-2.8539c-0.2594,-0.7783 0,-1.6864 -0.2594,-2.5944c0.3892,-0.5189 0.7783,-1.1675 0.6486,-2.0756c0,-0.2594 -0.1297,-0.5189 -0.2594,-0.908c-0.1298,-0.7784 0.1297,-1.6864 -0.3892,-2.4647c0.3892,-0.6486 0.908,-1.2972 0.6486,-2.2053c0,-0.2594 0,-0.3892 -0.1297,-0.5189c0,-0.1297 -0.1297,-0.1297 -0.1297,-0.2594c-0.1298,-0.7784 -0.1298,-1.427 0.1297,-2.0756c0.1297,-0.5189 0.3891,0 0.3891,0.1297c0.2595,0.5189 0.5189,1.2973 0.5189,1.9459c0,0.2594 0,0.5189 0.2595,0.908c0.1297,-0.7783 0.3891,-1.4269 0.2594,-2.2052c0,-0.7784 0,-1.6864 0,-2.4648c0,-0.3891 0,-0.7783 0.2595,-1.0377z" fill="#68706a"/><path d="M238.2991,172.2038v0c2.2053,1.5567 4.1511,3.243 6.2267,4.9294c0.3891,0.2595 0.2594,0.5189 0.2594,0.9081c0,2.8539 0,5.7077 0,8.5616c0.3892,0.2594 0.2595,0.6486 0.2595,1.1675c0,4.4105 0,8.9508 0,13.3613c0,0.3892 0,0.7783 -0.1298,1.0378c-0.1297,0.2594 -0.2594,0.2594 -0.5189,0c-2.0755,-1.6864 -4.2808,-3.5025 -6.3563,-5.1889c-0.1297,-0.908 -0.1297,-1.9458 -0.1297,-2.8539c0,-0.7783 0,-1.4269 0,-2.2052c0,-1.5567 0.2594,-3.1133 0.2594,-4.67c0,-0.2594 0,-0.6486 -0.1297,-1.0378c-0.1297,-0.908 -0.1297,-1.8161 0.1297,-2.8538c0,-0.9081 0,-1.8161 -0.1297,-2.5945c-0.1297,-0.3891 -0.1297,-0.7783 -0.1297,-1.0377c0.3891,-2.2053 0.2594,-4.2809 0.2594,-6.4861c0,-0.2595 -0.1297,-0.7783 0.1297,-1.0378z" fill="#fee7b1"/><path d="M244.9149,202.1695v0c-0.2594,-0.2595 -0.1297,-0.5189 -0.1297,-0.9081c0,-4.9294 0,-9.8588 0,-14.6585c0.2595,-0.2594 0.1297,-0.6486 0.1297,-0.9081c0,-2.5944 0,-5.0591 0,-7.5238c0,-0.6486 0.2595,-1.0378 0.7784,-1.2972c0.5189,-0.3892 1.1675,-0.7783 1.6863,-1.1675c0.5189,-0.1297 0.6487,0.2594 0.9081,0.6486c0.6486,1.1675 1.0378,1.1675 2.0755,0.6486c1.1675,-0.6486 1.9459,-1.5567 2.5945,-2.7241c0,-0.2595 0.1297,-0.5189 0.3891,-0.5189c0.3892,-0.1298 0.5189,0.2594 0.6486,0.5189c0.3892,0.3891 0.6487,0.908 0.9081,1.2972c0.2594,0.2594 0.5189,0.5189 0.2594,1.0377c-0.3891,0.2595 -0.5188,-0.1297 -0.7783,-0.2594c-0.3892,-0.2594 -0.5189,-0.5189 -0.908,-0.6486c-0.1298,-0.1297 -0.2595,0 -0.3892,0.1297c-0.6486,1.2972 -1.8161,2.335 -2.335,3.6322c-0.1297,0.2595 -0.2594,0.3892 -0.2594,0.5189c-0.7784,0.9081 -1.1675,1.8161 -0.3892,2.9836c0.5189,0.7783 0.2594,1.6864 -0.1297,2.5944c-0.3892,1.0378 -0.6486,1.6864 0,2.7242c0.6486,0.908 0.1297,1.9458 -0.1297,2.8539c-0.1298,0.2594 -0.2595,0.5188 -0.3892,0.7783c-0.1297,0.5189 -0.1297,0.908 0.1297,1.2972c1.0378,1.1675 0.6486,2.2053 0.1297,3.3728c-0.3891,0.6486 -0.3891,1.4269 0,2.0755c-1.2972,1.2972 -2.8538,2.0755 -4.2808,3.1133c-0.1297,0.1297 -0.2594,0.2595 -0.5189,0.3892z" fill="#696f68"/><path d="M249.7146,198.667v0c-0.5189,-0.3892 -0.6486,-0.9081 -0.3891,-1.6864c0.2594,-0.5189 0.5189,-1.0378 0.6486,-1.6864c0.1297,-0.6486 0.1297,-1.1675 -0.3892,-1.6863c-0.5189,-0.5189 -0.7783,-1.1675 -0.2594,-1.8161c0.3891,-0.6486 0.6486,-1.427 0.6486,-2.335c0,-0.3892 0.1297,-0.7784 -0.2595,-1.1675c-0.6486,-0.7784 -0.6486,-1.5567 -0.1297,-2.4647c0.6486,-1.1675 0.7783,-2.2053 0,-3.3728c-0.5189,-0.6486 0,-1.8161 0.7783,-2.7241c0.1298,0.1297 0.1298,0.1297 0.1298,0.2594c0.2594,0.7783 1.0377,2.0755 1.4269,2.5944c0,0.9081 -0.6486,1.427 -1.0378,2.2053c-0.1297,0.1297 -0.1297,0.1297 -0.1297,0.2594c-0.3892,1.1675 -0.1297,2.2053 0.9081,2.7242c0.5188,0.2594 0.908,0.5189 1.0377,1.1675c-0.2594,0.5189 -0.908,0.7783 -1.2972,1.0378c-0.2594,0.2594 -0.6486,0.5188 -0.908,0.7783c-0.2595,0.7783 -0.2595,1.6864 0.7783,2.2053c0.2594,0.1297 0.3892,0.3891 0.5189,0.6486c-0.1297,0.7783 -0.6486,1.2972 -0.9081,1.9458c-0.1297,0.2594 -0.2594,0.3891 -0.3891,0.5189c-0.2595,0.6486 0,1.4269 0,2.2052c-0.2595,0.1298 -0.5189,0.2595 -0.7784,0.3892z" fill="#5f5c56"/><path d="M238.1694,194.2565v0c0,0.7783 0.2595,1.8161 -0.1297,2.7241c-1.6864,-1.4269 -3.3728,-2.8539 -5.0591,-4.1511c0,-0.908 0,-1.8161 0,-2.7241c0.2594,-0.1297 0.5188,0.1297 0.6486,0.1297c1.4269,1.2972 2.9836,2.4647 4.2808,3.6322c0.2594,0.1297 0.2594,0.2594 0.2594,0.3892z" fill="#f5b244"/><path d="M250.493,198.2778v0c-0.5189,-0.7783 -0.3892,-1.5566 -0.1298,-2.4647c0.6486,0.2595 1.0378,0.7784 1.427,1.1675c0.908,0.6486 0.908,0.6486 1.8161,0c0.1297,-0.1297 0.2594,-0.2594 0.3891,-0.3891c0.5189,-0.1298 0.9081,-0.5189 1.1675,-0.7784l0.1298,-0.1297c0.5188,0.9081 0.5188,1.9458 -0.3892,2.5944c-0.7783,0.3892 -1.4269,1.2973 -2.2053,1.427c-0.7783,0 -1.2972,-1.0378 -2.2052,-1.427z" fill="#625424"/><path d="M268.5243,188.9379v0c-0.3892,-1.1675 -0.2595,-2.4647 0,-3.7619c0.3891,0.3891 0,0.908 0.2594,1.4269c0.3892,-0.1297 0.6486,-0.5189 1.0378,-0.6486c0.5189,1.4269 0.2594,2.0755 -1.2972,2.9836z" fill="#62562a"/><path d="M269.8215,185.9543v0c-0.2595,0.5189 -0.7784,0.7783 -1.2972,1.1675c0,-0.7783 0,-1.2972 0,-1.9458c0,-0.1298 0,-0.2595 0.2594,0c0.2594,0.1297 0.3892,0.3891 0.6486,0.5188c0.2594,0.1298 0.2594,0.1298 0.3892,0.2595z" fill="#4b310d"/><path d="M255.1629,176.6143v0c0.1298,-0.7783 -0.6486,-1.1675 -0.908,-1.6863c-0.2595,-0.3892 -0.3892,-1.0378 -0.7783,-1.0378c-0.3892,0 -0.5189,0.7783 -0.6487,1.1675c-0.7783,1.1675 -1.8161,2.0755 -3.1133,2.4647c-0.5189,0.2594 -1.1675,-0.1297 -1.4269,-0.9081c-0.2594,-0.5188 -0.5189,-0.7783 -0.9081,-0.908c1.9459,-1.2972 3.762,-2.4647 5.5781,-3.7619c0.2594,-0.1298 0.3891,-0.2595 0.6486,-0.1298c0.3891,0.2595 0.5189,0.6487 0.7783,1.0378c0.6486,1.427 1.4269,2.9836 2.0756,4.4105c0.1297,0.2595 0.3891,0.6487 0.6486,0.7784c0.1297,0.908 -0.5189,1.6864 -0.2595,2.7241c-0.5189,-0.5189 -0.908,-0.7783 -0.7783,-1.4269c0.1297,-0.7783 -0.2595,-1.6864 -0.6486,-2.4647c-0.2595,0.1297 -0.2595,0 -0.2595,-0.2595z" fill="#767666"/><path d="M238.2991,172.2038v0c0,2.4647 0.2595,5.0591 -0.1297,7.5239c-0.7783,0.3891 -1.0378,0.1297 -1.0378,-0.6487c0,-0.5188 0.3892,-0.908 0.7784,-1.2972c0.2594,-1.4269 0.1297,-2.7241 -1.2972,-3.6322c-0.6487,-0.3891 -1.427,-1.0377 -1.9459,-1.5566c-0.6486,-0.6486 -1.4269,-0.9081 -1.8161,-1.6864c0,-1.0378 0,-2.0756 0,-3.1133c1.427,0.7783 2.5945,2.0755 3.8917,2.9836c0.5189,0.5189 1.1675,0.908 1.5566,1.4269z" fill="#f6b344"/><path d="M257.1088,178.0413v0c-0.5189,0.5189 -0.5189,-0.1297 -0.5189,-0.2595c-1.0378,-1.9458 -1.9458,-3.8916 -2.9836,-5.9672c0.7783,0.2595 1.2972,0.9081 1.8161,1.427c0.6486,0.3891 1.1675,0.7783 1.6864,1.1675c0,1.1675 0,2.4647 0,3.6322z" fill="#fae1ab"/><path d="M238.2991,180.6357v0c0.2595,0.7783 0.1298,1.8161 0,2.5944c-0.1297,0.9081 0,1.9459 -0.1297,2.9836v0.1298c-0.3891,0 -0.6486,-0.2595 -0.7783,-0.5189c-0.9081,-0.6486 -1.8161,-1.427 -2.7242,-2.2053c-0.5189,-0.5189 -1.1675,-0.908 -1.6863,-1.6864c0,-0.908 0,-1.8161 0,-2.7241c0,-0.1298 0,-0.1298 0.1297,-0.1298c1.5566,1.2973 3.1133,2.5945 4.7997,3.762c0.2594,-0.6486 0,-1.427 0.2594,-2.0756c0,0 0,0 0.1297,-0.1297z" fill="#f6b344"/><path d="M238.1694,186.2137v0c0.3892,0.7784 0.1297,1.5567 0.1297,2.335c-0.1297,1.0378 0,2.2053 -0.1297,3.2431c-0.2594,0.1297 -0.5189,-0.1298 -0.7783,-0.3892c-0.7783,-0.7783 -1.8161,-1.5567 -2.7242,-2.335c-0.5189,-0.5189 -1.2972,-0.908 -1.6863,-1.6864c0,-0.7783 0,-1.8161 0,-2.7241c0.2594,0 0.5188,0.1297 0.7783,0.2594c1.4269,1.2972 2.9836,2.335 4.4105,3.6322c-0.2594,-0.7783 -0.2594,-1.4269 0,-2.2052z" fill="#f5b244"/><path d="M238.1694,177.7818v0c0,0.3892 -0.3891,0.3892 -0.5189,0.6486c-0.3891,0.3892 -0.2594,0.7784 -0.2594,1.1675c0.1297,0.3892 0.5189,0.1298 0.7783,0.1298c0,0.3891 0,0.6486 0.1297,0.908c-0.1297,0 -0.1297,0.1297 -0.1297,0.1297c-0.2594,0 -0.5189,-0.1297 -0.7783,-0.3891c-0.9081,-0.9081 -1.9458,-1.5567 -2.8539,-2.335c-0.5189,-0.5189 -1.2972,-0.7784 -1.5566,-1.6864c-0.2595,-0.9081 -0.1298,-1.8161 -0.1298,-2.7242c0.1298,-0.1297 0.1298,-0.1297 0.1298,-0.1297c1.6863,1.2972 3.243,2.5945 4.9294,3.8917c0.1297,0 0.2594,0.1297 0.2594,0.3891z" fill="#f6b344"/><path d="M238.1694,186.3435v0c0,0.7783 0,1.4269 0,2.4647c-1.8161,-1.427 -3.5025,-2.7242 -5.1888,-4.1511v0c0.5188,-0.6486 1.0377,-1.1675 1.8161,-1.1675c1.1674,0.908 2.2052,1.8161 3.3727,2.8539z" fill="#ac490e"/><path d="M234.6669,188.9379v0c1.0378,0.5189 1.9459,1.4269 2.7242,2.2053c0.2594,0.2594 0.5189,0.5188 0.7783,0.6486c0,0.908 0,1.5566 0,2.4647c-1.5566,-1.1675 -2.9836,-2.335 -4.4105,-3.5025c-0.2595,-0.2595 -0.5189,-0.3892 -0.7783,-0.6486v-0.1297c0.3891,-0.5189 1.0377,-1.0378 1.6863,-1.0378z" fill="#ac490e"/><path d="M220.657,166.4961v0c0.6486,0.6486 1.5567,1.2972 2.335,1.9458c0.2594,0.1297 0.1297,0.5189 0.1297,0.908c0,0.5189 0,1.1675 0,1.9459c-0.908,-0.7784 -1.9458,-1.2973 -2.4647,-2.2053c-0.5189,-0.6486 -0.1297,-1.5567 0,-2.5944z" fill="#9f93e0"/><path d="M225.7161,165.1988v0c1.0378,0.6487 1.6864,1.2973 2.4648,1.9459c0.2594,0.2594 0.2594,0.6486 0.2594,0.908c0,0.6486 0,1.1675 0,1.6864c-2.0755,-0.6486 -2.9836,-2.0755 -2.7242,-4.5403z" fill="#fdffef"/><path d="M217.8031,161.5666v0c-0.7783,-0.7783 -1.5566,-1.2972 -2.335,-1.9458c-0.2594,-0.2594 -0.2594,-0.7783 -0.2594,-1.0378c0,-0.6486 0,-1.1674 0,-1.6863c2.2053,1.0377 2.9836,2.2052 2.5944,4.6699z" fill="#9f93e0"/><path d="M225.9756,181.6735v0c0.7783,0.6486 1.5566,1.2972 2.335,1.9458c0.2594,0.2594 0.2594,0.5189 0.2594,0.9081c0,0.5188 0,1.0377 0,1.5566c-1.9458,-0.5189 -2.8539,-2.0755 -2.5944,-4.4105z" fill="#9f93df"/><path d="M215.4681,167.7933v0c0.7784,0.7783 1.5567,1.2972 2.335,1.9458c0.2595,0.1297 0.2595,0.3892 0.2595,0.6486c0,0.6486 0,1.2972 0,1.9458c-2.0756,-0.6486 -2.8539,-1.9458 -2.5945,-4.5402z" fill="#fdffef"/><path d="M222.8623,165.588v0c-0.7784,-0.6486 -1.5567,-1.1675 -2.2053,-1.8161c-0.2594,-0.1297 -0.2594,-0.3892 -0.2594,-0.6486c0,-0.5189 0,-1.0378 0,-1.5567c0,-0.1297 0,-0.2594 0.1297,-0.3891c0.2594,-0.1297 0.3892,0.1297 0.3892,0.1297c0.2594,0.2594 0.3891,0.3892 0.6486,0.5189c1.5566,0.7783 1.6863,2.2053 1.2972,3.7619z" fill="#fdffef"/><path d="M225.8459,170.7769v0c0.908,0.7783 1.5566,1.1675 2.335,1.8161c0.2594,0.2594 0.2594,0.5189 0.2594,0.7783c0,0.6486 0,1.2972 0,2.0755c-0.9081,-0.6486 -1.6864,-1.2972 -2.4647,-1.9458c-0.2595,-0.2594 -0.1297,-0.7783 -0.1297,-1.0377c0,-0.5189 0,-0.9081 0,-1.6864z" fill="#fdffef"/><path d="M217.9329,167.0149v0c-0.9081,-0.6486 -1.6864,-1.2972 -2.335,-1.8161c-0.2595,-0.2594 -0.2595,-0.5188 -0.2595,-0.7783c0,-0.5189 0,-1.1675 0,-1.9458c2.0756,0.7783 2.8539,2.0755 2.5945,4.5402z" fill="#9e93e0"/><path d="M225.8459,176.2252v0c0.908,0.6486 1.5566,1.2972 2.335,1.8161c0.2594,0.2594 0.2594,0.3891 0.2594,0.6486c0,0.6486 0,1.2972 0,2.2053c-1.0378,-0.6487 -1.6864,-1.2973 -2.4647,-1.8162c-0.2595,-0.3891 -0.1297,-1.0377 -0.1297,-1.4269c0,-0.3892 0,-0.7783 0,-1.4269z" fill="#9e92e0"/><path d="M220.657,172.0741v0c0.9081,0.6486 1.6864,1.1675 2.335,1.8161c0.3892,0.5189 0.1297,1.0378 0.1297,1.5566c0.1297,0.2595 0,0.6487 0,1.0378c-2.0755,-0.7783 -2.7241,-2.0755 -2.4647,-4.4105z" fill="#fdffef"/><path d="M218.0626,177.9116v0c-0.9081,-0.7784 -1.5567,-1.2973 -2.335,-1.8161c-0.2595,-0.2595 -0.2595,-0.5189 -0.2595,-0.7784c0,-0.6486 0,-1.2972 0,-2.0755c1.0378,0.6486 1.6864,1.2972 2.4648,1.9458c0.3891,0.2594 0.1297,0.9081 0.1297,1.2972c0.1297,0.3892 0,0.7783 0,1.427z" fill="#9e93e0"/><path d="M220.657,177.3927v0c0.9081,0.6486 1.5567,1.2972 2.335,1.9458c0.2594,0.1297 0.1297,0.3892 0.1297,0.7783c0,0.6486 0,1.1675 0,1.8161c-2.2052,-1.1675 -2.7241,-1.9458 -2.4647,-4.5402z" fill="#fdffef"/><path d="M232.9806,176.3549v0c0.5188,0.5189 1.2972,1.0378 1.6863,1.5567c-0.3891,0.6486 -0.908,1.0377 -1.6863,1.2972v0c-0.2595,-0.9081 -0.2595,-1.8161 0,-2.8539z" fill="#b5846e"/><path d="M232.9806,173.6307v0h-0.1298c-0.1297,-0.908 -0.1297,-1.9458 0,-2.7241c0.6486,0.3892 1.2972,0.908 1.8161,1.5567c-0.2594,0.6486 -0.908,1.0377 -1.6863,1.1674z" fill="#ba8870"/><path d="M234.7967,183.4896v0c-0.6487,0.1297 -1.1675,0.7783 -1.8161,1.1675c0,-1.0378 0,-1.8161 0,-2.7242c0.6486,0.5189 1.1674,1.0378 1.8161,1.5567z" fill="#b5836e"/><path d="M234.6669,188.9379v0c-0.5189,0.2594 -1.1675,0.6486 -1.6863,1.0378c0,-0.9081 0,-1.6864 0,-2.5945c0.5188,0.5189 1.2972,0.9081 1.6863,1.5567z" fill="#b6846e"/><path d="M251.9199,182.7113v0c-0.1297,0 -0.2594,-0.1298 -0.2594,-0.1298c-1.1675,-0.6486 -1.427,-1.5566 -1.2973,-2.8538c0.1298,0 0.1298,-0.2595 0.1298,-0.2595h0.1297c0.6486,0.2595 1.0378,0.7783 1.5566,1.1675c0.5189,0.5189 1.0378,0.5189 1.5567,0c0.1297,-0.1297 0.3892,-0.2594 0.6486,-0.3892c0.3892,-0.2594 0.9081,-0.5188 1.1675,-0.908c0.5189,1.1675 0.2594,2.0755 -0.6486,2.8539c-0.2594,0.5189 -1.0378,0.6486 -1.4269,1.1675c-0.1298,0 -0.1298,0 -0.2595,0.1297c-0.1297,0.1297 -0.3892,0.2594 -0.6486,0.1297c-0.2594,-0.2594 -0.5189,-0.5189 -0.6486,-0.908z" fill="#635524"/><path d="M252.5685,188.9379v0c-0.3892,-0.6486 -0.908,-0.9081 -1.2972,-1.2972c-0.9081,-0.7784 -1.1675,-1.5567 -0.7783,-2.7242c0.5188,0.3892 1.1675,0.7783 1.6863,1.2972c0.5189,0.5189 1.0378,0.5189 1.427,0c0.2594,-0.1297 0.3891,-0.3891 0.5189,-0.3891c0.5189,-0.2595 0.908,-0.5189 1.1675,-0.9081c0.1297,0 0.1297,-0.1297 0.1297,-0.1297c0.6486,0.7783 0.3891,2.0755 -0.5189,2.8539c-0.3892,0.5189 -1.0378,0.7783 -1.5567,1.2972c-0.1297,0 -0.1297,0 -0.3891,0.1297c-0.1298,0 -0.2595,0 -0.3892,-0.1297z" fill="#635524"/><path d="M251.6605,193.6079v0c-0.1298,-0.2595 -0.5189,-0.5189 -0.7784,-0.7784c-0.7783,-0.5189 -0.908,-1.4269 -0.5189,-2.335c0.6486,0.1298 1.0378,0.6487 1.5567,1.0378c0.908,0.6486 0.908,0.6486 1.6864,0c0.2594,-0.1297 0.3891,-0.2594 0.5189,-0.3891c0.3891,-0.1298 0.7783,-0.3892 1.0377,-0.6487c0,-0.1297 0.1298,-0.2594 0.1298,-0.2594c0.6486,0.7783 0.3891,2.2053 -0.5189,2.8539c-0.3892,0.5189 -1.0378,0.7783 -1.427,1.1675c-0.1297,0.1297 -0.1297,0.1297 -0.2594,0.2594c-0.1297,0 -0.3892,0 -0.5189,0c-0.3892,-0.2594 -0.6486,-0.3892 -0.908,-0.908z" fill="#625424"/><path d="M261.3896,181.5438v0c0.2594,1.0377 -0.2595,1.5566 -1.1675,2.0755c-0.3892,0.2594 -0.9081,0.6486 -1.2972,1.0378c-0.1298,0 -0.2595,0.2594 -0.3892,0.1297c-0.2594,-0.1297 -0.2594,-0.3892 -0.2594,-0.5189c0,-1.2972 0.2594,-2.5944 1.6863,-3.1133c0,0 0.1298,-0.1297 0.2595,-0.1297c0.3891,-0.2595 0.6486,-0.7784 1.0377,-0.5189c0.2595,0.1297 0,0.7783 0.1298,1.0378z" fill="#3c4588"/><path d="M261.3896,174.6685v0c0.2594,0.5189 0,0.7783 0,0.9081c0.5189,2.335 -1.427,2.7241 -2.8539,3.7619c0,-0.9081 0,-1.6864 0,-2.335c0,-0.2594 0,-0.3892 0.2594,-0.5189c0.9081,-0.6486 1.6864,-1.1675 2.5945,-1.8161z" fill="#fdffef"/><path d="M267.227,172.4633v0c0.5189,1.0377 -0.6486,1.4269 -1.4269,1.9458c-0.3892,0.2594 -0.7783,1.0377 -1.1675,0.7783c-0.5189,-0.2594 -0.1297,-1.0378 -0.2594,-1.4269c0,-0.7784 0.2594,-1.2972 0.908,-1.6864c0.5189,-0.2595 0.9081,-0.5189 1.427,-0.9081c0.3891,-0.3891 0.6486,-0.2594 0.5188,0.3892c0,0.1297 0,0.3892 0,0.9081z" fill="#fdffef"/><path d="M264.2434,179.3385v0c-0.2594,-0.7783 0.2595,-1.2972 1.0378,-1.8161c0.3892,-0.1297 0.9081,-0.5189 1.2972,-0.9081c0.3892,-0.2594 0.5189,0 0.5189,0.3892c0,0.1297 0,0.1297 0,0.1297c-0.1297,0.6486 0.2595,1.427 -0.1297,1.8161c-0.6486,0.7784 -1.5567,1.1675 -2.335,1.8161c-0.2594,0.1298 -0.3892,0 -0.3892,-0.2594c0,-0.3892 0,-0.7783 0,-1.1675z" fill="#3c4588"/><path d="M258.2763,190.2351v0c0,-0.7783 0,-1.4269 0,-2.2053c0,-0.2594 0.1297,-0.3891 0.2594,-0.5189c0.7783,-0.5188 1.6864,-1.1674 2.7241,-1.6863c0,0.7783 0,1.4269 0,2.2052c0,0.1298 0,0.3892 -0.2594,0.5189c-0.908,0.5189 -1.5567,1.1675 -2.7241,1.6864z" fill="#fdffef"/><path d="M258.2763,195.5537v0c-0.3892,-2.2053 0.1297,-2.9836 2.8538,-4.4105c-0.1297,0.2594 -0.1297,0.5188 -0.1297,0.7783c0,0.6486 0.3892,1.4269 -0.1297,1.9458c-0.7783,0.7783 -1.6864,1.2972 -2.5944,1.6864z" fill="#fdffef"/><path d="M264.1137,186.3435v0c-0.2594,-2.4648 0.2595,-3.2431 2.9836,-4.4106c-0.2594,0.7784 -0.1297,1.5567 -0.1297,2.335c0,0.1297 -0.1297,0.3892 -0.2594,0.3892c-0.9081,0.5189 -1.6864,1.1675 -2.5945,1.6864z" fill="#3c4588"/><path d="M266.9676,188.1596v0c0.2594,1.5566 -0.6486,2.2052 -1.8161,2.8538c-0.3892,0.1298 -0.7783,0.7784 -1.0378,0.5189c-0.5189,-0.1297 0,-0.7783 0,-1.0378c-0.2594,-1.1675 0.2595,-1.8161 1.1675,-2.2052c0.2595,-0.2595 0.5189,-0.3892 0.7783,-0.5189c0.2595,-0.2595 0.5189,-0.5189 0.7784,-0.3892c0.2594,0.1297 0,0.5189 0.1297,0.7784z" fill="#fdffef"/><path d="M255.1629,176.6143v0c0,0.1298 0.2595,0.2595 0.2595,0.2595c0,0.908 0,1.6864 0,2.4647c-0.5189,0.2594 -0.7783,-0.1297 -1.1675,-0.3892c-0.5189,-0.3891 -1.0378,-0.7783 -1.1675,-1.4269c0,-0.6486 0.1297,-1.1675 0.1297,-1.6864c0,-0.2594 0,-0.3892 0.3892,-0.3892c0.5189,0.3892 1.0378,0.7784 1.5566,1.1675z" fill="#3b3e75"/><path d="M255.4224,184.7868v0v0.1297c-0.7783,0.1297 -2.0756,-0.7783 -2.0756,-1.8161c0.5189,-0.3891 1.0378,-0.6486 1.5567,-0.908c0.5189,0.2594 0.5189,0.6486 0.5189,1.1675c0,0.3891 0,0.908 0,1.4269z" fill="#fdffef"/><path d="M269.9512,180.506v0c0.5189,1.4269 0.2594,1.9458 -1.4269,3.1133c0,-1.2972 0,-2.5944 0,-3.8916c0,-0.2595 0.2594,-0.2595 0.2594,-0.1298c0,0.1298 0,0.1298 0,0.2595c0.1297,1.2972 0.1297,1.2972 1.1675,0.6486z" fill="#5f5427"/><path d="M255.2927,190.2351v0c0,0.1297 0,0.2594 0,0.2594c-0.9081,0 -1.8161,-0.908 -2.0756,-1.6863c0.5189,-0.5189 1.0378,-1.0378 1.6864,-1.1675c0.5189,0.5189 0.3892,1.1675 0.3892,1.6863c0,0.3892 0,0.6487 0,0.9081z" fill="#393a6e"/><path d="M253.2171,194.1267v0c0.3892,-0.5188 1.0378,-0.7783 1.5567,-1.0377c0.3891,0.2594 0.5189,0.5189 0.5189,1.0377c0,0.5189 0,1.0378 0,1.5567v0.1297c-0.9081,0 -1.8161,-0.6486 -2.0756,-1.6864z" fill="#fdffef"/><path d="M270.2106,175.1874v0c0.3892,1.1675 0,2.2053 -1.1675,2.7242c-0.2594,0.2594 -0.3891,0.1297 -0.3891,-0.2595c0,-0.5189 0,-1.0378 0,-1.5566c0.5189,-0.3892 0.908,-0.7784 1.5566,-0.9081z" fill="#605527"/><path d="M270.3404,169.7391v0c0.3891,1.2972 0.1297,2.0755 -1.5567,2.8539c0,-0.6486 0,-1.2972 0,-1.9459c0.3892,-0.3891 0.908,-0.908 1.5567,-0.908z" fill="#605425"/><path d="M253.2171,177.5224v0c0.6486,0.7783 1.2972,1.5566 2.2053,1.8161c0.1297,0 0.1297,0 0.1297,0c0,0.6486 -0.6486,0.6486 -1.1675,1.0378c-0.7783,-0.1298 -1.1675,-0.6486 -1.2972,-1.2973c-0.1297,-0.5188 -0.1297,-0.908 0.1297,-1.4269c0,0 0,0 0,-0.1297z" fill="#2d2444"/><path d="M270.3404,169.7391v0c-0.5189,0.2594 -1.0378,0.5189 -1.5567,0.908c0,-0.5188 0,-1.0377 0,-1.6863c0,-0.1298 0,-0.2595 0.1297,-0.3892c0.2595,-0.1297 0.2595,0.1297 0.3892,0.2594c0.3891,0.2595 0.908,0.3892 1.0378,0.9081z" fill="#493412"/><path d="M270.2106,175.1874v0c-0.5189,0.3892 -0.908,0.7783 -1.5566,0.9081c0,-0.2595 0,-0.6487 0,-0.9081c0.1297,-0.3892 -0.1297,-0.908 0.1297,-1.0378c0.3892,-0.1297 0.6486,0.2595 0.908,0.5189c0.1298,0.2595 0.2595,0.2595 0.5189,0.5189z" fill="#4a3110"/><path d="M269.9512,180.506v0c0,0 0,0.1297 0,0.2594c-0.3892,0.2595 -1.0378,0.9081 -1.1675,0.6486c-0.2594,-0.3891 -0.2594,-1.1675 0,-1.8161c0.3892,0.3892 0.7783,0.6486 1.1675,0.9081z" fill="#4b320e"/><path d="M253.6063,175.4468v0c-0.2595,0.6487 -0.2595,1.427 -0.3892,2.0756v0.1297c-0.7783,0.7783 -1.5566,1.5567 -2.7241,1.8161v0c0.2594,-0.7783 0.7783,-1.1675 1.1675,-1.9458c0.3891,-0.5189 0.7783,-1.1675 1.2972,-1.8161c0.1297,-0.1297 0.2594,-0.5189 0.6486,-0.2595z" fill="#5b5a5c"/><path d="M254.2549,185.9543v0c-1.427,1.1675 -1.427,1.1675 -2.7242,-0.1297c-0.3891,-0.2595 -1.0377,-0.3892 -1.0377,-0.9081c0.1297,0 0.1297,-0.1297 0.2594,-0.2594c0.5189,-0.3892 1.0378,-1.0378 1.8161,-1.1675c0.2594,0.1297 0.3892,0 0.6486,-0.1297c0.1297,0.1297 0.1297,0.2594 0.1297,0.5188c0,0.6487 0.2595,1.2973 0.9081,1.6864c0.1297,0.1297 0.1297,0.2595 0,0.3892z" fill="#3c230e"/><path d="M252.5685,194.3862v0c0.1297,0 0.3892,0 0.5189,0c0.1297,0 0.1297,0.2594 0.1297,0.3892c0,0.6486 0.2595,1.2972 0.7783,1.6863c0.1298,0.1298 0.1298,0.1298 0.1298,0.2595c-0.1298,0.1297 -0.2595,0.2594 -0.3892,0.3891c-1.0378,0.7784 -1.0378,0.7784 -2.0755,0c-0.3892,-0.3891 -0.9081,-0.6486 -1.2973,-1.2972c0.1298,0 0.2595,-0.1297 0.3892,-0.2594c0.5189,-0.5189 1.0378,-1.0378 1.8161,-1.1675z" fill="#3d240e"/><path d="M254.2549,191.4026v0c-1.5567,1.0378 -1.5567,1.0378 -2.9836,-0.1297c-0.2595,-0.2595 -0.5189,-0.5189 -0.9081,-0.7784c0.7784,-0.5188 1.5567,-1.0377 2.2053,-1.5566c0.1297,0 0.3892,0 0.5189,0h0.1297c0,1.0378 0.3892,1.8161 1.0378,2.4647z" fill="#3d230d"/><path d="M252.5685,183.4896v0c-0.6486,0.3891 -1.0378,1.0378 -1.8161,1.1675c0.2594,-0.6486 0.7783,-1.2972 1.1675,-1.9458c0.2594,0.2594 0.6486,0.3891 0.6486,0.7783z" fill="#5c5a55"/><path d="M252.5685,194.3862v0c-0.6486,0.3892 -1.2972,0.7783 -1.8161,1.1675c0.1297,-0.6486 0.5189,-1.2972 0.9081,-1.9458c0.2594,0.2594 0.7783,0.3891 0.908,0.7783z" fill="#5b5956"/><path d="M254.1252,196.7212v0c-0.9081,-0.5189 -1.1675,-1.427 -1.0378,-2.335c0.1297,0 0.1297,-0.1297 0.1297,-0.2595c0.6486,0.7784 1.0378,1.427 2.0756,1.6864c-0.1298,0.5189 -0.6486,0.7784 -1.1675,0.9081z" fill="#281f3e"/><path d="M232.9806,173.6307v0c0.5188,-0.3891 1.1674,-0.908 1.6863,-1.1674c1.0378,0.6486 1.9459,1.4269 2.8539,2.2052c0.5189,0.5189 0.7783,0.9081 0.6486,1.5567c0,0.5189 0,1.0377 0,1.5566c-1.8161,-1.2972 -3.5025,-2.5944 -5.1888,-4.1511z" fill="#ad4c0f"/><path d="M232.9806,179.2088v0c0.6486,-0.3892 1.1674,-0.9081 1.6863,-1.2972c1.2972,0.908 2.335,1.8161 3.5025,2.8538c0,0.7784 0,1.6864 0,2.5945c-1.8161,-1.427 -3.5025,-2.5945 -5.1888,-4.1511z" fill="#ae4c10"/><path d="M250.493,179.4682v0c1.0377,-0.6486 1.8161,-1.1675 2.7241,-1.8161c0,1.1675 -0.1297,2.2053 1.1675,2.7242c-0.2594,0.3891 -0.7783,0.5189 -1.1675,0.908c-0.2594,0.1297 -0.5189,0.1297 -0.6486,0c-0.6486,-0.6486 -1.4269,-1.0378 -2.0755,-1.8161z" fill="#432b11"/><path d="M254.2549,185.9543v0c-1.0378,-0.6486 -1.0378,-1.5567 -1.0378,-2.5944c0.1297,0 0.1297,-0.1298 0.1297,-0.2595c0.5189,1.0378 1.1675,1.5567 2.0756,1.8161c-0.1297,0.6486 -0.6486,0.7783 -1.1675,1.0378z" fill="#292141"/><path d="M254.2549,191.4026v0c-1.0378,-0.5189 -1.2972,-1.4269 -1.1675,-2.4647c0.1297,0 0.1297,-0.1297 0.1297,-0.1297c0.5189,0.6486 1.1675,1.2972 2.0756,1.6863c-0.1298,0.5189 -0.6486,0.6487 -1.0378,0.9081z" fill="#29203e"/></g></g></svg>