<svg version="1.1" xmlns="http://www.w3.org/2000/svg" xmlns:xlink="http://www.w3.org/1999/xlink" width="86.017" height="65.9746" viewBox="0,0,86.017,65.9746"><g transform="translate(-196.5575,-147.2651)"><g data-paper-data="{&quot;isPaintingLayer&quot;:true}" fill-rule="nonzero" stroke="none" stroke-linejoin="miter" stroke-miterlimit="10" stroke-dasharray="" stroke-dashoffset="0" style="mix-blend-mode: normal"><path d="M239.566,147.26511l43.0085,32.9873l-43.0085,32.9873l-43.0085,-32.9873zM196.5575,147.26511zM282.5745,213.23971z" fill="#e4f1f5" stroke-width="0.04598" stroke-linecap="butt"/><g stroke-linecap="butt"><path d="M232.2415,170.71271c1.31,0 2.498,0.336 3.358,0.879c0.86,0.543 1.392,1.293 1.392,2.121c0,0.828 -0.532,1.578 -1.392,2.121c-0.86,0.543 -2.048,0.879 -3.358,0.879c-1.31,0 -2.498,-0.336 -3.358,-0.879c-0.86,-0.543 -1.392,-1.293 -1.392,-2.121c0,-0.828 0.532,-1.578 1.392,-2.121c0.86,-0.543 2.048,-0.879 3.358,-0.879z" fill="#d2dde1" stroke-width="1"/><g stroke-width="0.01418"><g><g><g><g><g><g><g><g><path d="M227.2137,157.4256h4.9613v14.2745h-4.9613z" fill="none"/><path d="M230.8426,169.68721v0c-1.2191,0.4395 -2.1263,1.6018 -3.6147,1.9846c0.4536,-1.0207 0.7796,-1.857 1.2899,-2.6933c0.3827,-0.7797 0.2552,-1.0915 -0.5812,-1.1624c-0.1843,-0.7088 0.3261,-1.1624 0.5245,-1.6727c0.1843,-0.567 0.8931,-1.0773 0,-1.6585c-0.1984,-0.0709 -0.0709,-0.3969 0,-0.5812c0.8931,-2.1263 1.9279,-4.2526 2.9485,-6.2513c0.1417,-0.1985 0.3402,-0.3119 0.5812,-0.1276c0.3827,0.5812 0,1.2191 -0.0567,1.8712c0,0.4536 -0.1276,0.893 -0.1843,1.4175c0.1134,0.7655 -1.0348,1.2191 -0.5245,2.1263c0,0.1276 0.0709,0.2551 0.0709,0.3118c-0.3969,0.8364 -0.5812,1.6869 -0.3261,2.5091c0,0.1417 -0.0708,0.2693 -0.1275,0.3118c-0.9073,0.5812 -0.1276,0.9072 0.1842,1.29c0.1985,0.5245 0.1985,1.0348 0.2694,1.616c0,0.2551 -0.1276,0.5103 -0.4536,0.7087z" fill="#20a900"/></g></g><g><g><path d="M225.6402,156.87281h6.3647v10.9716h-6.3647z" fill="none"/><path d="M231.8632,157.45391v0c-1.0915,2.2539 -2.183,4.5787 -3.3454,6.9034c0.326,0.3119 0.5812,-0.1417 0.9639,0c-0.2551,1.2758 -0.9639,2.2964 -1.5451,3.4588c-0.5103,-0.1276 -1.0915,-0.1985 -1.6018,-0.3828c-0.2551,-0.0708 -1.0348,-0.0708 -0.5245,-0.7796c0.8506,-0.2551 1.29,-1.0206 1.8712,-1.5876c0.1275,-0.1985 0.5245,-0.5245 -0.0567,-0.6521c-0.4536,-0.1276 -0.9072,-0.2551 -1.5451,-0.3827c0.9639,-0.8364 1.8002,-1.616 2.6366,-2.3248c-0.3969,-0.5812 -1.0915,-0.2551 -1.5451,-0.7087c0.2551,-0.6379 1.0348,-0.8364 1.4175,-1.4176c1.0348,-0.893 1.857,-2.1263 3.1611,-2.6933c0.1134,0.0567 0.1843,0.1134 0.241,0.2552c0,0.1276 -0.0567,0.1984 -0.1276,0.3118z" fill="#35db00"/></g></g><g><g><path d="M232.1183,157.31221h4.4794v12.1199h-4.4794z" fill="none"/><path d="M235.9173,169.36121v0h-0.1276l-0.0708,-0.0709c-0.2552,-0.2551 -0.7797,0 -0.964,-0.4394c-0.2693,-0.4536 -0.3827,-0.9639 -0.2693,-1.4884c0.6521,-1.0348 0.3402,-1.857 -0.4394,-2.6225c0.0567,-0.7796 -0.3261,-1.3466 -0.4536,-2.0696c-0.3119,-0.893 -0.3119,-1.9278 -1.0348,-2.6933c-0.2977,-0.8505 -0.7513,-1.6726 -0.0567,-2.5799c0.893,-0.326 1.4175,0.4537 1.9845,0.8364c0.2693,0.5812 0.7797,0.7087 1.1624,1.0348c0.1417,0.6379 -1.2191,0.893 -0.4394,1.7294c0.1842,0.652 0.6378,1.2332 0.5103,1.8711c0.0708,0 0.0567,0 0.0708,0c-0.3969,0.1985 -0.5811,0.4536 -0.2693,0.7088c0.9072,0.9072 0.9639,2.0554 0.8505,3.2036c0.1134,0.652 0,1.3608 0.1843,2.0696c0.1276,0.6379 -0.2552,0.5812 -0.6379,0.5103z" fill="#209900"/></g></g><g><g><path d="M230.8284,168.85091h2.5232v5.174h-2.5232z" fill="none"/><path d="M230.8426,169.68721v0c0.1275,-0.1984 0.1842,-0.4536 0.2551,-0.652c0.1276,-0.1276 0.3119,-0.1843 0.5103,-0.1843c0.5812,0.1276 0.5245,0.6379 0.7088,0.9639c0.3827,-0.7796 0.6946,-0.2552 0.9639,0.0567c0.1134,0.2552 0,0.5245 -0.0709,0.7796c0,0.6379 0.0709,1.3467 0,1.9988c0,0.567 0.3828,1.4175 -0.7796,1.3466c-0.9498,0 -1.5876,-0.2551 -1.5876,-1.4175c0.0567,-0.9639 0,-1.9279 0,-2.8918z" fill="#7f471c"/></g></g><g><g><path d="M235.9173,166.65371h2.9201v3.3879h-2.9201z" fill="none"/><path d="M235.9173,169.36121v0c0.1134,-0.0709 0.5103,-0.1985 0.4536,-0.2552c-0.9781,-0.7796 0,-1.616 -0.1417,-2.3814c0.0567,-0.0142 0.0708,-0.0709 0.1417,-0.0709c0.0567,0 0.0567,0.0709 0.1134,0.0709c0.7088,1.0915 1.6727,1.9845 2.3248,3.2887c-1.0915,-0.1985 -1.9987,-0.3261 -2.8918,-0.6521z" fill="#35a700"/></g></g><g><g><path d="M233.139,168.45401h2.6082v3.8982h-2.6082z" fill="none"/><path d="M233.2098,170.65111v0c-0.0708,-0.2551 -0.0708,-0.5811 -0.0708,-0.8363c0.0708,-0.0709 0.0708,-0.0709 0.1417,-0.1276c0.1843,0 0.3827,0 0.3827,-0.326c0,-0.4536 0.2552,-0.7797 0.7088,-0.8931c0.3119,-0.0708 0.4536,0.1134 0.567,0.3119c0.2694,0.1985 0.5245,0.326 0.7797,0.5103c-1.0915,-0.2551 -1.29,0.1985 -0.8931,1.1624c0.1134,0.3827 0.241,0.7796 0.3828,1.1624c0.0567,0.2551 0.3827,0.6378 -0.1985,0.7087c-0.4536,-0.5812 -0.8363,-1.0915 -1.2191,-1.6727c-0.1984,-0.2551 -0.3969,-0.2551 -0.5812,0z" fill="#35a700"/></g></g><g><g><path d="M235.166,162.85471h2.4665v3.8982h-2.4665z" fill="none"/><path d="M236.2292,166.72461v0c-0.1985,-1.0915 -0.1276,-2.2397 -0.9639,-3.2036c-0.2552,-0.2694 0,-0.6521 0.5244,-0.6521c-0.5244,0.6521 0.1276,0.9639 0.4395,1.0915c0.9072,0.5245 0.9639,1.4884 1.3466,2.2397c0.1418,0.2693 -0.1134,0.1985 -0.3118,0.2693c-0.3828,-0.1984 -0.7088,-0.2693 -0.964,0.1843z" fill="#35a700"/></g></g><g><g><path d="M235.1235,160.98361h1.7152v2.0979h-1.7152z" fill="none"/><path d="M235.7189,162.86891v0c-0.3261,-0.5812 -0.7797,-1.0915 -0.5103,-1.8711c0.893,0.3969 1.5451,0.9781 1.6018,1.9987c-0.3828,0.1984 -0.7088,-0.0567 -1.0915,-0.1276z" fill="#35a700"/></g></g><g><g><path d="M225.7962,165.05191h1.8994v1.6302h-1.8994z" fill="none"/><path d="M227.6815,165.06611v0c-0.3828,0.8363 -0.8364,1.5309 -1.8712,1.5876c0.5812,-0.5812 1.2333,-1.1482 1.8712,-1.5876z" fill="#3cdc00"/></g></g><g><g><path d="M234.4856,158.4179h1.1907v0.8647h-1.1907z" fill="none"/><path d="M234.4856,158.43201v0c0.1418,0 0.2693,0.0567 0.4536,0.0567c0.1276,0.3969 0.7088,0.3261 0.7088,0.7797c-0.5103,-0.1418 -1.0206,-0.1985 -1.1624,-0.8364z" fill="#66b500"/></g></g><g><g><path d="M230.7008,159.46681h1.7294v9.5967h-1.7294z" fill="none"/><path d="M231.608,169.03521v0h-0.5103c-0.326,-0.4537 -0.0709,-1.0207 -0.2551,-1.5452c0.326,-0.5103 -0.3969,-1.0206 0,-1.5309v0c0.1275,-0.9639 0.5103,-1.8711 0.2551,-2.835v0c-0.326,-0.8931 0.6521,-1.4743 0.5103,-2.3106c-0.2551,-0.4536 0.0709,-0.8364 0,-1.29c0.1418,-0.0708 0.2552,-0.0708 0.3828,0c0.4394,0.3828 0.4394,0.9073 0.3827,1.4176c0,2.183 -0.0567,4.3801 0,6.6198c0,0.5812 -0.1134,1.1482 -0.7655,1.4743z" fill="#178e00"/></g></g><g><g><path d="M230.474,163.10991h0.9781v2.8634h-0.9781z" fill="none"/><path d="M231.0977,163.1241v0c0.5103,0.9072 0.4536,2.1263 -0.2551,2.835c-0.5812,-1.0206 -0.3969,-1.9278 0.2551,-2.835z" fill="#179b00"/></g></g><g><g><path d="M229.7369,165.94491h1.5026v1.5735h-1.5026z" fill="none"/><path d="M230.8426,165.95911v0c0.1842,0.5103 0.7654,1.0206 0,1.5309c0,-0.0567 -0.0709,-0.0567 -0.0709,-0.1275c-0.3827,-0.1985 -1.0206,-0.1985 -1.0206,-0.7655c0,-0.5245 0.7654,-0.326 1.0915,-0.6379z" fill="#179f00"/></g></g><g><g><path d="M230.5591,160.79931h1.1198v2.3389h-1.1198z" fill="none"/><path d="M231.608,160.81351v0c0.1985,0.8363 -0.1984,1.6018 -0.5103,2.3106c-0.3827,-0.5104 -1.0348,-1.0348 0.1276,-1.4743c0.2551,-0.1275 0,-0.652 0.3827,-0.8363z" fill="#179b00"/></g></g><g><g><path d="M231.5939,157.18461h0.7654v2.3531h-0.7654z" fill="none"/><path d="M231.8632,159.52351v0h-0.2552c0,-0.7087 0.3828,-1.3608 0.2552,-2.0696v-0.2551c0.6946,0.7796 0.567,1.5451 0,2.3247z" fill="#209900"/></g></g><g><g><path d="M231.5939,156.90111h2.1688v13.0838h-2.1688z" fill="none"/><path d="M231.8632,159.52351v0c0.1276,-0.7796 0.567,-1.5451 0,-2.3247v-0.1985c0.3969,-0.2409 0.567,0.0709 0.8363,0.3969c-0.567,0.9073 -0.1417,1.8003 0.1843,2.6366c0.1985,0.5812 0.3969,1.1624 0.5103,1.8003c0.2693,2.0696 -0.0567,4.125 0.326,6.1804c0.0709,0.6379 -0.1984,1.2758 -0.5811,1.8003v0c-0.0567,-0.0709 -0.1985,-0.1276 -0.1985,-0.0709c-0.9497,0.7088 -0.8789,-0.5103 -1.3325,-0.7087c0.8222,-1.6727 0.3261,-3.4588 0.3828,-5.1315c0.0708,-1.0915 0.2693,-2.1972 0.1417,-3.2887c-0.0709,-0.3827 -0.0709,-0.7654 -0.2693,-1.0915z" fill="#177c00"/></g></g><g><g><path d="M233.1106,161.81991h2.2539v8.0941h-2.2539z" fill="none"/><path d="M233.139,169.81481v0c0.3827,-2.6508 -0.1276,-5.3299 0,-7.9807c0.652,0.0709 0.3827,0.6521 0.5811,1.0348c0.1276,0.5812 0.5812,1.1624 0.4537,1.8003c1.0348,0.7087 1.7435,1.4033 0.5103,2.5657c-0.6379,-0.2552 -0.4395,-0.9072 -0.7088,-1.3325c0,-0.0283 0.0709,-0.0709 0,-0.0709c0,0.1276 0.0709,0.241 0.0709,0.3119c0.1276,0.8363 0.6379,1.5451 0.3827,2.3814c-0.1843,0.2552 -0.5812,0.4537 -0.5103,0.9073c0.0567,0.6946 -0.4536,0.3827 -0.7796,0.3827z" fill="#179200"/></g></g><g><g><path d="M233.8619,165.66141h1.1057v3.147h-1.1057z" fill="none"/><path d="M234.4289,168.52481v0c-0.1276,-0.8363 -0.5812,-1.6726 -0.5103,-2.5657c-0.1276,-0.2551 0,-0.326 0.2552,-0.2551c0.1984,0.4961 0.3118,1.0206 0.5103,1.5309c-0.0567,0.5103 0.1984,1.0348 0.2551,1.5451c-0.1843,-0.0709 -0.3118,-0.1985 -0.5103,-0.2552z" fill="#17c200"/></g></g><g><g><path d="M232.8838,160.0197h1.0632v2.8634h-1.0632z" fill="none"/><path d="M233.6634,162.86891v0c-0.3827,-0.1985 -0.1417,-0.8363 -0.5244,-1.0348c-0.0567,-0.5812 -0.1985,-1.2191 -0.2552,-1.8003c0.7088,0.7088 0.7088,1.7436 1.0348,2.5799c-0.1276,0.0567 -0.1276,0.2552 -0.2552,0.2552z" fill="#17ab00"/></g></g><g><g><path d="M233.6634,162.59961h0.7372v2.0837h-0.7372z" fill="none"/><path d="M233.6634,162.86891v0c0.0567,-0.0567 0.1843,-0.1985 0.2552,-0.2552c-0.0709,0.7088 0.8363,1.29 0.2552,2.0555c-0.2552,-0.5812 -0.5104,-1.1482 -0.5104,-1.8003z" fill="#17bc00"/></g></g><g><g><path d="M233.6493,165.10861h0.5528v0.8647h-0.5528z" fill="none"/><path d="M234.1738,165.70401v0c-0.0709,0.0567 -0.1985,0.1984 -0.2552,0.2551c-0.2552,-0.2551 -0.3969,-0.5103 -0.1276,-0.8363c0.1276,0.1984 0.2552,0.3827 0.3828,0.5812z" fill="#17b100"/></g></g></g></g></g></g></g></g></g></g><path d="M232.4415,155.76271c0.924,0.143 1.558,1.089 2.1,1.85c0.136,0.19 -0.354,0.281 -0.4,0.5c-0.146,0.305 0.173,0.922 -0.15,1c-0.532,0.121 -1.056,-0.792 -1.65,-0.7c-0.629,0.041 -1.176,1.205 -1.55,1.05c-0.331,-0.138 0.328,-1.067 0.25,-1.6c-0.057,-0.386 -0.962,-0.616 -0.75,-0.95c0.459,-0.679 1.353,-1.287 2.15,-1.15z" fill="#ffffff" stroke-width="1" stroke-linecap="round"/><path d="M230.927,158.9127c0.0979,0.2657 -0.3254,2.068 -0.7108,2.9812c-0.2965,0.6992 -0.6814,1.4611 -1.2687,1.8955c-0.204,0.1487 -0.4142,-0.4766 -0.4004,-0.7614c0.0159,-0.3228 0.4168,-0.5314 0.5678,-0.8307c0.2382,-0.472 0.3833,-1.082 0.6696,-1.5737c0.3341,-0.576 1.0697,-1.9459 1.1425,-1.7109z" fill="#ffffff" stroke-width="1" stroke-linecap="round"/><g><g stroke-linecap="butt"><path d="M249.32746,188.87211c1.50809,0 2.87572,0.38681 3.86576,1.01191c0.99004,0.62511 1.60248,1.48852 1.60248,2.44172c0,0.9532 -0.61244,1.81661 -1.60248,2.44172c-0.99004,0.62511 -2.35768,1.01191 -3.86576,1.01191c-1.50809,0 -2.87572,-0.38681 -3.86576,-1.01191c-0.99004,-0.62511 -1.60248,-1.48852 -1.60248,-2.44172c0,-0.9532 0.61244,-1.81661 1.60248,-2.44172c0.99004,-0.62511 2.35768,-1.01191 3.86576,-1.01191z" fill="#d2dde1" stroke-width="1"/><g stroke-width="0.01418"><g><g><g><g><g><g><g><g><path d="M243.53941,173.57586h5.7115v16.43295h-5.7115z" fill="none"/><path d="M247.71703,187.69154v0c-1.40344,0.50596 -2.44782,1.84401 -4.16128,2.28469c0.52219,-1.17504 0.89748,-2.1378 1.48495,-3.10056c0.44057,-0.8976 0.29379,-1.25655 -0.66908,-1.33817c-0.21217,-0.81598 0.37541,-1.33817 0.60381,-1.92563c0.21217,-0.65274 1.02815,-1.2402 0,-1.90928c-0.2284,-0.08162 -0.08162,-0.45692 0,-0.66908c1.02815,-2.44782 2.21942,-4.89564 3.39434,-7.19656c0.16313,-0.22852 0.39164,-0.35906 0.66908,-0.14689c0.44057,0.66908 0,1.40344 -0.06527,2.15414c0,0.52219 -0.14689,1.02803 -0.21217,1.63184c0.13055,0.88125 -1.19127,1.40344 -0.60381,2.44782c0,0.14689 0.08162,0.29367 0.08162,0.35895c-0.45692,0.96287 -0.66908,1.94198 -0.37541,2.8885c0,0.16313 -0.08151,0.31002 -0.14678,0.35895c-1.04449,0.66908 -0.14689,1.04438 0.21205,1.48506c0.22852,0.60381 0.22852,1.19127 0.31014,1.86036c0,0.29367 -0.14689,0.58746 -0.52219,0.81586z" fill="#20a900"/></g></g><g><g><path d="M241.72798,172.93947h7.32711v12.63062h-7.32711z" fill="none"/><path d="M248.89196,173.60844v0c-1.25655,2.59471 -2.51309,5.27105 -3.85126,7.94727c0.37529,0.35906 0.66908,-0.16313 1.10965,0c-0.29367,1.46871 -1.10965,2.64364 -1.77874,3.98181c-0.58746,-0.14689 -1.25655,-0.22852 -1.84401,-0.44068c-0.29367,-0.08151 -1.19127,-0.08151 -0.60381,-0.89748c0.97922,-0.29367 1.48506,-1.17493 2.15414,-1.82766c0.14678,-0.22852 0.60381,-0.60381 -0.06527,-0.7507c-0.52219,-0.14689 -1.04438,-0.29367 -1.77874,-0.44057c1.10965,-0.96287 2.07241,-1.86036 3.03528,-2.67633c-0.45692,-0.66908 -1.25655,-0.29367 -1.77874,-0.81586c0.29367,-0.73436 1.19127,-0.96287 1.63184,-1.63196c1.19127,-1.02803 2.1378,-2.44782 3.63909,-3.10056c0.13055,0.06527 0.21217,0.13055 0.27744,0.29379c0,0.14689 -0.06527,0.2284 -0.14689,0.35895z" fill="#35db00"/></g></g><g><g><path d="M249.18563,173.44531h5.15673v13.95256h-5.15673z" fill="none"/><path d="M253.55908,187.31625v0h-0.14689l-0.08151,-0.08162c-0.29379,-0.29367 -0.8976,0 -1.10977,-0.50584c-0.31002,-0.52219 -0.44057,-1.10965 -0.31002,-1.71346c0.7507,-1.19127 0.39164,-2.1378 -0.50584,-3.01905c0.06527,-0.89748 -0.37541,-1.55022 -0.52219,-2.38255c-0.35906,-1.02803 -0.35906,-2.2193 -1.19127,-3.10056c-0.34272,-0.9791 -0.8649,-1.92551 -0.06527,-2.97001c1.02803,-0.37529 1.63184,0.5223 2.28458,0.96287c0.31002,0.66908 0.8976,0.81586 1.33817,1.19127c0.16313,0.73436 -1.40344,1.02803 -0.50584,1.9909c0.21205,0.75059 0.73424,1.41967 0.58746,2.15403c0.08151,0 0.06527,0 0.08151,0c-0.45692,0.22852 -0.66897,0.52219 -0.31002,0.81598c1.04438,1.04438 1.10965,2.3662 0.9791,3.68802c0.13055,0.75059 0,1.56657 0.21217,2.38255c0.14689,0.73436 -0.29379,0.66908 -0.73436,0.58746z" fill="#209900"/></g></g><g><g><path d="M247.70069,186.72879h2.90473v5.95636h-2.90473z" fill="none"/><path d="M247.71703,187.69154v0c0.14678,-0.2284 0.21205,-0.52219 0.29367,-0.75059c0.14689,-0.14689 0.35906,-0.21217 0.58746,-0.21217c0.66908,0.14689 0.60381,0.73436 0.81598,1.10965c0.44057,-0.89748 0.79963,-0.29379 1.10965,0.06527c0.13055,0.29379 0,0.60381 -0.08162,0.89748c0,0.73436 0.08162,1.55034 0,2.30104c0,0.65274 0.44068,1.63184 -0.89748,1.55022c-1.09342,0 -1.82766,-0.29367 -1.82766,-1.63184c0.06527,-1.10965 0,-2.21942 0,-3.32907z" fill="#7f471c"/></g></g><g><g><path d="M253.55908,184.19935h3.36165v3.90019h-3.36165z" fill="none"/><path d="M253.55908,187.31625v0c0.13055,-0.08162 0.58746,-0.22852 0.52219,-0.29379c-1.126,-0.89748 0,-1.86036 -0.16313,-2.74149c0.06527,-0.01635 0.08151,-0.08162 0.16313,-0.08162c0.06527,0 0.06527,0.08162 0.13055,0.08162c0.81598,1.25655 1.92563,2.28458 2.67633,3.78599c-1.25655,-0.22852 -2.30092,-0.37541 -3.32907,-0.7507z" fill="#35a700"/></g></g><g><g><path d="M250.36067,186.27187h3.00259v4.48765h-3.00259z" fill="none"/><path d="M250.44218,188.8012v0c-0.08151,-0.29367 -0.08151,-0.66897 -0.08151,-0.96276c0.08151,-0.08162 0.08151,-0.08162 0.16313,-0.14689c0.21217,0 0.44057,0 0.44057,-0.37529c0,-0.52219 0.29379,-0.8976 0.81598,-1.02815c0.35906,-0.08151 0.52219,0.13055 0.65274,0.35906c0.31014,0.22852 0.60381,0.37529 0.8976,0.58746c-1.25655,-0.29367 -1.48506,0.22852 -1.02815,1.33817c0.13055,0.44057 0.27744,0.89748 0.44068,1.33817c0.06527,0.29367 0.44057,0.73424 -0.22852,0.81586c-0.52219,-0.66908 -0.96276,-1.25655 -1.40344,-1.92563c-0.2284,-0.29367 -0.45692,-0.29367 -0.66908,0z" fill="#35a700"/></g></g><g><g><path d="M252.69418,179.8259h2.83946v4.48765h-2.83946z" fill="none"/><path d="M253.91814,184.28097v0c-0.22852,-1.25655 -0.14689,-2.57837 -1.10965,-3.68802c-0.29379,-0.31014 0,-0.7507 0.60369,-0.7507c-0.60369,0.7507 0.14689,1.10965 0.50596,1.25655c1.04438,0.60381 1.10965,1.71346 1.55022,2.57837c0.16324,0.31002 -0.13055,0.22852 -0.35895,0.31002c-0.44068,-0.2284 -0.81598,-0.31002 -1.10977,0.21217z" fill="#35a700"/></g></g><g><g><path d="M252.64525,177.67187h1.97456v2.41512h-1.97456z" fill="none"/><path d="M253.33068,179.84225v0c-0.37541,-0.66908 -0.8976,-1.25655 -0.58746,-2.15403c1.02803,0.45692 1.77874,1.126 1.84401,2.30092c-0.44068,0.2284 -0.81598,-0.06527 -1.25655,-0.14689z" fill="#35a700"/></g></g><g><g><path d="M241.90757,182.35534h2.18661v1.8767h-2.18661z" fill="none"/><path d="M244.07794,182.37169v0c-0.44068,0.96276 -0.96287,1.76239 -2.15414,1.82766c0.66908,-0.66908 1.41979,-1.32182 2.15414,-1.82766z" fill="#3cdc00"/></g></g><g><g><path d="M251.91089,174.71821h1.37075v0.99545h-1.37075z" fill="none"/><path d="M251.91089,174.73444v0c0.16324,0 0.31002,0.06527 0.52219,0.06527c0.14689,0.45692 0.81598,0.37541 0.81598,0.8976c-0.58746,-0.16324 -1.17493,-0.22852 -1.33817,-0.96287z" fill="#66b500"/></g></g><g><g><path d="M247.55379,175.92571h1.9909v11.04782h-1.9909z" fill="none"/><path d="M248.59817,186.94095v0h-0.58746c-0.37529,-0.5223 -0.08162,-1.17504 -0.29367,-1.77885c0.37529,-0.58746 -0.45692,-1.17493 0,-1.76239v0c0.14678,-1.10965 0.58746,-2.15403 0.29367,-3.26368v0c-0.37529,-1.02815 0.7507,-1.69723 0.58746,-2.65999c-0.29367,-0.52219 0.08162,-0.96287 0,-1.48506c0.16324,-0.08151 0.29379,-0.08151 0.44068,0c0.50584,0.44068 0.50584,1.04449 0.44057,1.63196c0,2.51309 -0.06527,5.04242 0,7.62078c0,0.66908 -0.13055,1.32182 -0.88125,1.69723z" fill="#178e00"/></g></g><g><g><path d="M247.2927,180.11969h1.126v3.29638h-1.126z" fill="none"/><path d="M248.01071,180.13603v0c0.58746,1.04438 0.52219,2.44782 -0.29367,3.26368c-0.66908,-1.17493 -0.45692,-2.2193 0.29367,-3.26368z" fill="#179b00"/></g></g><g><g><path d="M246.44414,183.38337h1.72981v1.81143h-1.72981z" fill="none"/><path d="M247.71703,183.39972v0c0.21205,0.58746 0.88114,1.17493 0,1.76239c0,-0.06527 -0.08162,-0.06527 -0.08162,-0.14678c-0.44057,-0.22852 -1.17493,-0.22852 -1.17493,-0.88125c0,-0.60381 0.88114,-0.37529 1.25655,-0.73436z" fill="#179f00"/></g></g><g><g><path d="M247.39067,177.4597h1.28913v2.69257h-1.28913z" fill="none"/><path d="M248.59817,177.47605v0c0.22852,0.96276 -0.2284,1.84401 -0.58746,2.65999c-0.44057,-0.58758 -1.19127,-1.19127 0.14689,-1.69723c0.29367,-0.14678 0,-0.75059 0.44057,-0.96276z" fill="#179b00"/></g></g><g><g><path d="M248.58194,173.29842h0.88114v2.70891h-0.88114z" fill="none"/><path d="M248.89196,175.99099v0h-0.29379c0,-0.81586 0.44068,-1.56657 0.29379,-2.38255v-0.29367c0.79963,0.89748 0.65274,1.77874 0,2.67622z" fill="#209900"/></g></g><g><g><path d="M248.58194,172.97205h2.49675v15.06221h-2.49675z" fill="none"/><path d="M248.89196,175.99099v0c0.14689,-0.89748 0.65274,-1.77874 0,-2.67622v-0.22852c0.45692,-0.27733 0.65274,0.08162 0.96276,0.45692c-0.65274,1.04449 -0.16313,2.07252 0.21217,3.03528c0.22852,0.66908 0.45692,1.33817 0.58746,2.07252c0.31002,2.38255 -0.06527,4.74874 0.37529,7.11494c0.08162,0.73436 -0.2284,1.46871 -0.66897,2.07252v0c-0.06527,-0.08162 -0.22852,-0.14689 -0.22852,-0.08162c-1.0933,0.81598 -1.0118,-0.58746 -1.53399,-0.81586c0.94653,-1.92563 0.37541,-3.98181 0.44068,-5.90744c0.08151,-1.25655 0.31002,-2.52944 0.16313,-3.78599c-0.08162,-0.44057 -0.08162,-0.88114 -0.31002,-1.25655z" fill="#177c00"/></g></g><g><g><path d="M250.32798,178.63463h2.59471v9.31801h-2.59471z" fill="none"/><path d="M250.36067,187.83844v0c0.44057,-3.05163 -0.14689,-6.13584 0,-9.18747c0.75059,0.08162 0.44057,0.7507 0.66897,1.19127c0.14689,0.66908 0.66908,1.33817 0.5223,2.07252c1.19127,0.81586 2.00714,1.61549 0.58746,2.95366c-0.73436,-0.29379 -0.50596,-1.04438 -0.81598,-1.53399c0,-0.03258 0.08162,-0.08162 0,-0.08162c0,0.14689 0.08162,0.27744 0.08162,0.35906c0.14689,0.96276 0.73436,1.77874 0.44057,2.74149c-0.21217,0.29379 -0.66908,0.5223 -0.58746,1.04449c0.06527,0.79963 -0.52219,0.44057 -0.89748,0.44057z" fill="#179200"/></g></g><g><g><path d="M251.19288,183.057h1.27289v3.62286h-1.27289z" fill="none"/><path d="M251.84562,186.35338v0c-0.14689,-0.96276 -0.66908,-1.92551 -0.58746,-2.95366c-0.14689,-0.29367 0,-0.37529 0.29379,-0.29367c0.2284,0.57112 0.35895,1.17493 0.58746,1.76239c-0.06527,0.58746 0.2284,1.19127 0.29367,1.77874c-0.21217,-0.08162 -0.35895,-0.22852 -0.58746,-0.29379z" fill="#17c200"/></g></g><g><g><path d="M250.06688,176.56222h1.22397v3.29638h-1.22397z" fill="none"/><path d="M250.96437,179.84225v0c-0.44057,-0.22852 -0.16313,-0.96276 -0.60369,-1.19127c-0.06527,-0.66908 -0.22852,-1.40344 -0.29379,-2.07252c0.81598,0.81598 0.81598,2.00725 1.19127,2.97001c-0.14689,0.06527 -0.14689,0.29379 -0.29379,0.29379z" fill="#17ab00"/></g></g><g><g><path d="M250.96437,179.53222h0.84867v2.39878h-0.84867z" fill="none"/><path d="M250.96437,179.84225v0c0.06527,-0.06527 0.21217,-0.22852 0.29379,-0.29379c-0.08162,0.81598 0.96276,1.48506 0.29379,2.36631c-0.29379,-0.66908 -0.58758,-1.32182 -0.58758,-2.07252z" fill="#17bc00"/></g></g><g><g><path d="M250.94814,182.42061h0.63639v0.99545h-0.63639z" fill="none"/><path d="M251.55195,183.10604v0c-0.08162,0.06527 -0.22852,0.2284 -0.29379,0.29367c-0.29379,-0.29367 -0.45692,-0.58746 -0.14689,-0.96276c0.14689,0.2284 0.29379,0.44057 0.44068,0.66908z" fill="#17b100"/></g></g></g></g></g></g></g></g></g></g><path d="M249.95363,172.12753c1.02522,0.15867 1.72867,1.2083 2.33005,2.05266c0.1509,0.21081 -0.39278,0.31178 -0.44382,0.55477c-0.16199,0.33841 0.19195,1.023 -0.16643,1.10955c-0.59028,0.13426 -1.17168,-0.87876 -1.83075,-0.77668c-0.69791,0.04549 -1.30483,1.337 -1.7198,1.16502c-0.36726,-0.15312 0.36393,-1.18389 0.27739,-1.77528c-0.06324,-0.42829 -1.06738,-0.68348 -0.83216,-1.05407c0.50928,-0.75338 1.50122,-1.42799 2.38553,-1.27598z" fill="#ffffff" stroke-width="1" stroke-linecap="round"/><path d="M252.80147,182.9826c0.24077,0.58362 0.30845,1.27598 0.4993,1.83075c0.12094,0.35173 0.53036,0.64132 0.4993,0.99859c-0.02774,0.31511 -0.35284,0.97085 -0.55477,0.77668c-0.58029,-0.56587 -0.88875,-1.46127 -1.10955,-2.27457c-0.28626,-1.06184 -0.48043,-3.10673 -0.33286,-3.38412c0.11539,-0.24743 0.71788,1.36918 0.99859,2.05266z" fill="#ffffff" stroke-width="1" stroke-linecap="round"/><path d="M243.62921,179.67245c0.18862,0.02441 0.04771,0.46712 0.00222,0.71899c-0.06768,0.41608 0.05326,1.00858 -0.27961,1.22272c-0.2785,0.16976 -0.89319,-0.13869 -1.05407,-0.4993c-0.08433,-0.31955 0.31511,-0.63466 0.55477,-0.88764c0.24077,-0.25298 0.57585,-0.61136 0.77668,-0.55477z" fill="#ffffff" stroke-width="1" stroke-linecap="round"/></g></g></g></svg>