<svg xmlns="http://www.w3.org/2000/svg" xmlns:xlink="http://www.w3.org/1999/xlink" version="1.1" width="244.3524932861328" height="15.647600173950195" viewBox="-0.21079999208450317 0.1933000683784485 244.3524932861328 15.647600173950195">
  <!-- Exported by Scratch - http://scratch.mit.edu/ -->
  <g id="ID0.8958707144483924">
    <g id="ID0.33094906946644187">
      <g id="id26">
        <path id="ID0.7733925501815975" fill="none" stroke="none" d="M 0.2892 0.6933 L 11.1661 0.6933 L 11.1661 15.3409 L 0.2892 15.3409 L 0.2892 0.6933 Z " stroke-width="0.14502536314675218"/>
        <path id="ID0.41787838470190763" fill="rgb(255,255,255)" stroke="none" d="M 10.876 6.6394 C 10.4409 6.2043 10.0059 5.7692 9.5708 5.6242 C 9.1357 5.4791 8.7006 5.3341 8.1205 5.3341 C 7.3954 5.3341 6.6703 5.6242 6.2352 6.0592 C 5.6551 6.6394 5.365 7.2195 5.365 8.0896 C 5.365 8.8147 5.6551 9.3948 6.2352 9.8299 C 6.8153 10.41 7.3954 10.7001 8.1205 10.7001 C 8.7006 10.7001 9.1357 10.555 9.5708 10.41 C 10.0059 10.265 10.4409 9.9749 11.021 9.5399 L 10.876 14.6157 C 9.7158 14.9058 8.7006 15.0508 7.5404 15.0508 C 5.5101 15.0508 3.7698 14.4707 2.3195 13.1655 C 1.0143 11.8603 0.2892 10.12 0.2892 8.0896 C 0.2892 5.9142 1.0143 4.1739 2.3195 2.8687 C 3.7698 1.5635 5.5101 0.8383 7.5404 0.8383 C 8.1205 0.8383 8.7006 0.8383 9.1357 0.9834 C 9.7158 1.1284 10.2959 1.2734 10.876 1.4184 L 10.876 6.6394 Z " stroke-width="0.14502536314675218"/>
      </g>
    </g>
    <g id="ID0.5907785170711577">
      <g id="id27">
        <path id="ID0.9149843510240316" fill="none" stroke="none" d="M 11.6011 0.6933 L 26.8288 0.6933 L 26.8288 15.3409 L 11.6011 15.3409 L 11.6011 0.6933 Z " stroke-width="0.14502536314675218"/>
        <path id="ID0.8945793923921883" fill="rgb(255,255,255)" stroke="none" d="M 19.1425 0.8383 C 21.1728 0.8383 23.0581 1.5635 24.5084 2.8687 C 25.8136 4.1739 26.5387 5.9142 26.5387 8.0896 C 26.5387 10.12 25.8136 11.8603 24.5084 13.1655 C 23.0581 14.4707 21.3178 15.0508 19.2875 15.0508 C 17.1121 15.0508 15.2268 14.4707 13.9215 13.1655 C 12.4713 11.7152 11.7462 9.9749 11.7462 7.7996 C 11.7462 5.7692 12.4713 4.1739 13.9215 2.8687 C 15.3718 1.5635 17.1121 0.8383 19.1425 0.8383 Z M 19.1425 10.7001 C 19.8676 10.7001 20.5927 10.41 21.0278 9.6849 C 21.4629 9.2498 21.6079 8.5247 21.6079 7.6545 C 21.6079 7.0744 21.3178 6.4943 20.8828 6.0592 C 20.3027 5.6242 19.7226 5.3341 19.1425 5.3341 C 18.5624 5.3341 17.8372 5.6242 17.4022 6.0592 C 16.9671 6.6394 16.677 7.2195 16.677 7.9446 C 16.677 8.6697 16.9671 9.3948 17.4022 9.8299 C 17.8372 10.41 18.4173 10.7001 19.1425 10.7001 Z " stroke-width="0.14502536314675218"/>
      </g>
    </g>
    <g id="ID0.21720671048387885">
      <g id="id28">
        <path id="ID0.5466085602529347" fill="none" stroke="none" d="M 26.3937 1.1284 L 45.5371 1.1284 L 45.5371 15.0508 L 26.3937 15.0508 L 26.3937 1.1284 Z " stroke-width="0.14502536314675218"/>
        <path id="ID0.8501873384229839" fill="rgb(255,255,255)" stroke="none" d="M 28.4241 1.1284 L 34.0801 1.1284 L 35.9654 7.7996 L 37.9958 1.1284 L 43.6517 1.1284 L 45.392 14.9058 L 40.4612 14.9058 L 39.8811 7.3645 L 37.4157 14.9058 L 34.5151 14.9058 L 32.1947 7.3645 L 31.6146 14.7608 L 26.5387 14.7608 L 28.4241 1.1284 Z " stroke-width="0.14502536314675218"/>
      </g>
    </g>
    <g id="ID0.7803617129102349">
      <g id="id29">
        <path id="ID0.43436686554923654" fill="none" stroke="none" d="M 44.957 1.1284 L 64.1003 1.1284 L 64.1003 15.0508 L 44.957 15.0508 L 44.957 1.1284 Z " stroke-width="0.14502536314675218"/>
        <path id="ID0.18936759000644088" fill="rgb(255,255,255)" stroke="none" d="M 46.9873 1.1284 L 52.4983 1.1284 L 54.5286 7.7996 L 56.559 1.1284 L 62.215 1.1284 L 63.9553 14.9058 L 59.0244 14.9058 L 58.4443 7.3645 L 55.9789 14.9058 L 53.0784 14.9058 L 50.758 7.3645 L 50.1779 14.7608 L 45.102 14.7608 L 46.9873 1.1284 Z " stroke-width="0.14502536314675218"/>
      </g>
    </g>
    <g id="ID0.3510185098275542">
      <g id="id30">
        <path id="ID0.40362450247630477" fill="none" stroke="none" d="M 64.5354 1.1284 L 74.1071 1.1284 L 74.1071 15.0508 L 64.5354 15.0508 L 64.5354 1.1284 Z " stroke-width="0.14502536314675218"/>
        <path id="ID0.44293328979983926" fill="rgb(255,255,255)" stroke="none" d="M 64.5354 1.1284 L 73.817 1.1284 L 73.817 5.0441 L 69.1762 5.0441 L 69.1762 6.2043 L 73.3819 6.2043 L 73.3819 9.6849 L 69.1762 9.6849 L 69.1762 10.9901 L 73.962 10.9901 L 73.962 14.9058 L 64.5354 14.9058 L 64.5354 1.1284 Z " stroke-width="0.14502536314675218"/>
      </g>
    </g>
    <g id="ID0.24796830303967">
      <g id="id31">
        <path id="ID0.7138704764656723" fill="none" stroke="none" d="M 75.1222 1.2734 L 88.0295 1.2734 L 88.0295 15.0508 L 75.1222 15.0508 L 75.1222 1.2734 Z " stroke-width="0.14502536314675218"/>
        <path id="ID0.2443244969472289" fill="rgb(255,255,255)" stroke="none" d="M 75.2673 1.2734 L 81.5034 1.2734 C 82.9536 1.2734 84.2588 1.5635 85.274 2.2886 C 86.4342 3.1587 87.0143 4.3189 87.0143 5.7692 C 87.0143 6.7844 86.7243 7.5095 86.4342 7.9446 C 85.9991 8.3797 85.419 8.9598 84.5489 9.3948 L 87.7395 14.9058 L 82.5185 14.9058 L 79.9081 9.6849 L 79.9081 14.9058 L 75.2673 14.9058 L 75.2673 1.2734 Z M 80.6332 7.2195 C 81.0683 7.2195 81.5034 7.0744 81.6484 6.9294 C 82.0835 6.7844 82.2285 6.3493 82.2285 6.0592 C 82.2285 5.6242 82.0835 5.3341 81.7934 5.0441 C 81.3583 4.899 81.0683 4.899 80.6332 4.899 L 79.9081 4.899 L 79.9081 7.2195 L 80.6332 7.2195 Z " stroke-width="0.14502536314675218"/>
      </g>
    </g>
    <g id="ID0.46029045479372144">
      <g id="id32">
        <path id="ID0.2267740168608725" fill="none" stroke="none" d="M 88.0295 0.6933 L 98.9064 0.6933 L 98.9064 15.3409 L 88.0295 15.3409 L 88.0295 0.6933 Z " stroke-width="0.14502536314675218"/>
        <path id="ID0.9497623145580292" fill="rgb(255,255,255)" stroke="none" d="M 98.6164 6.6394 C 98.1813 6.2043 97.7462 5.7692 97.4562 5.6242 C 96.8761 5.4791 96.441 5.3341 95.8609 5.3341 C 95.1357 5.3341 94.4106 5.6242 93.9755 6.0592 C 93.3954 6.6394 93.1054 7.2195 93.1054 8.0896 C 93.1054 8.8147 93.3954 9.3948 93.9755 9.8299 C 94.5556 10.41 95.1357 10.7001 95.8609 10.7001 C 96.441 10.7001 96.8761 10.555 97.3111 10.41 C 97.7462 10.265 98.1813 9.9749 98.7614 9.5399 L 98.6164 14.6157 C 97.6012 14.9058 96.441 15.0508 95.2808 15.0508 C 93.2504 15.0508 91.5101 14.4707 90.0599 13.1655 C 88.7546 11.8603 88.0295 10.12 88.0295 8.0896 C 88.0295 5.9142 88.7546 4.1739 90.0599 2.8687 C 91.5101 1.5635 93.2504 0.8383 95.2808 0.8383 C 95.8609 0.8383 96.441 0.8383 97.0211 0.9834 C 97.4562 1.1284 98.0363 1.2734 98.6164 1.4184 L 98.6164 6.6394 Z " stroke-width="0.14502536314675218"/>
      </g>
    </g>
    <g id="ID0.38675158889964223">
      <g id="id33">
        <path id="ID0.9553279499523342" fill="none" stroke="none" d="M 100.0666 0.9834 L 105.4325 0.9834 L 105.4325 15.0508 L 100.0666 15.0508 L 100.0666 0.9834 Z " stroke-width="0.14502536314675218"/>
        <path id="ID0.8605500739067793" fill="rgb(255,255,255)" stroke="none" d="M 100.2116 1.1284 L 105.1425 1.1284 L 105.1425 14.9058 L 100.2116 14.9058 L 100.2116 1.1284 Z " stroke-width="0.14502536314675218"/>
      </g>
    </g>
    <g id="ID0.13473554514348507">
      <g id="id34">
        <path id="ID0.47688722098246217" fill="none" stroke="none" d="M 105.5776 1.1284 L 120.8052 1.1284 L 120.8052 15.0508 L 105.5776 15.0508 L 105.5776 1.1284 Z " stroke-width="0.14502536314675218"/>
        <path id="ID0.8603649190627038" fill="rgb(255,255,255)" stroke="none" d="M 110.2184 1.1284 L 116.1644 1.1284 L 120.5152 14.9058 L 115.4393 14.9058 L 115.0042 13.1655 L 111.2336 13.1655 L 110.7985 14.9058 L 105.7226 14.9058 L 110.2184 1.1284 Z M 114.1341 9.8299 L 113.1189 5.6242 L 112.1037 9.8299 L 114.1341 9.8299 Z " stroke-width="0.14502536314675218"/>
      </g>
    </g>
    <g id="ID0.23312172293663025">
      <g id="id35">
        <path id="ID0.7355351545847952" fill="none" stroke="none" d="M 121.2403 0.9834 L 130.812 0.9834 L 130.812 15.0508 L 121.2403 15.0508 L 121.2403 0.9834 Z " stroke-width="0.14502536314675218"/>
        <path id="ID0.5542440749704838" fill="rgb(255,255,255)" stroke="none" d="M 121.2403 1.1284 L 126.1712 1.1284 L 126.1712 10.41 L 130.5219 10.41 L 130.5219 14.9058 L 121.2403 14.9058 L 121.2403 1.1284 Z " stroke-width="0.14502536314675218"/>
      </g>
    </g>
    <g id="ID0.3661198210902512">
      <g id="id36">
        <path id="ID0.9024490672163665" fill="none" stroke="none" d="M 138.0633 0.9834 L 150.1004 0.9834 L 150.1004 15.0508 L 138.0633 15.0508 L 138.0633 0.9834 Z " stroke-width="0.14502536314675218"/>
        <path id="ID0.6290960619226098" fill="rgb(255,255,255)" stroke="none" d="M 138.0633 1.1284 L 141.9789 1.1284 L 143.7192 1.1284 C 145.8946 1.1284 147.3449 1.4184 148.215 2.1436 C 148.9402 2.8687 149.3752 3.7388 149.3752 4.899 C 149.3752 5.4791 149.2302 6.0592 148.7951 6.6394 C 148.6501 6.9294 148.215 7.3645 147.6349 7.7996 C 148.3601 8.2346 148.9402 8.6697 149.3752 9.1048 C 149.6653 9.5399 149.9553 10.265 149.9553 10.9901 C 149.9553 12.1503 149.5203 13.0205 148.6501 13.7456 C 147.78 14.4707 146.9098 14.9058 145.7496 14.9058 L 138.0633 14.9058 L 138.0633 1.1284 Z M 144.7344 5.3341 C 144.7344 4.899 144.5894 4.754 144.2993 4.464 C 144.1543 4.3189 143.8643 4.3189 143.4292 4.3189 L 142.7041 4.3189 L 142.7041 6.4943 C 143.2842 6.4943 143.7192 6.4943 144.0093 6.3493 C 144.4444 6.2043 144.7344 5.7692 144.7344 5.3341 Z M 143.7192 11.5702 C 144.0093 11.5702 144.4444 11.4252 144.7344 11.2802 C 145.0245 11.1351 145.3145 10.8451 145.3145 10.41 C 145.3145 10.12 145.0245 9.8299 144.7344 9.5399 C 144.4444 9.3948 144.1543 9.2498 143.7192 9.2498 L 142.7041 9.2498 L 142.7041 11.5702 L 143.7192 11.5702 Z " stroke-width="0.14502536314675218"/>
      </g>
    </g>
    <g id="ID0.24543357593938708">
      <g id="id37">
        <path id="ID0.5666588926687837" fill="none" stroke="none" d="M 150.6805 0.9834 L 163.5877 0.9834 L 163.5877 15.3409 L 150.6805 15.3409 L 150.6805 0.9834 Z " stroke-width="0.14502536314675218"/>
        <path id="ID0.9497333504259586" fill="rgb(255,255,255)" stroke="none" d="M 150.6805 1.1284 L 155.7563 1.1284 L 155.7563 9.2498 C 155.7563 9.6849 155.7563 9.9749 156.0464 10.265 C 156.3364 10.7001 156.6265 10.8451 157.0616 10.8451 C 157.4967 10.8451 157.7867 10.555 158.0768 10.12 C 158.2218 9.8299 158.2218 9.3948 158.2218 8.8147 L 158.2218 1.1284 L 163.2977 1.1284 L 163.2977 9.5399 C 163.2977 11.2802 162.7176 12.7304 161.5574 13.7456 C 160.5422 14.6157 159.0919 15.0508 157.2066 15.0508 C 155.1762 15.0508 153.581 14.6157 152.5658 13.7456 C 151.2606 12.7304 150.6805 11.2802 150.6805 9.2498 L 150.6805 1.1284 Z " stroke-width="0.14502536314675218"/>
      </g>
    </g>
    <g id="ID0.819394932128489">
      <g id="id38">
        <path id="ID0.24017019290477037" fill="none" stroke="none" d="M 164.7479 0.9834 L 170.1139 0.9834 L 170.1139 15.0508 L 164.7479 15.0508 L 164.7479 0.9834 Z " stroke-width="0.14502536314675218"/>
        <path id="ID0.42736572539433837" fill="rgb(255,255,255)" stroke="none" d="M 164.8929 1.1284 L 169.8238 1.1284 L 169.8238 14.9058 L 164.8929 14.9058 L 164.8929 1.1284 Z " stroke-width="0.14502536314675218"/>
      </g>
    </g>
    <g id="ID0.19988758536055684">
      <g id="id39">
        <path id="ID0.7371287513524294" fill="none" stroke="none" d="M 171.129 0.9834 L 180.8457 0.9834 L 180.8457 15.0508 L 171.129 15.0508 L 171.129 0.9834 Z " stroke-width="0.14502536314675218"/>
        <path id="ID0.4990330571308732" fill="rgb(255,255,255)" stroke="none" d="M 171.2741 1.1284 L 176.2049 1.1284 L 176.2049 10.41 L 180.5557 10.41 L 180.5557 14.9058 L 171.2741 14.9058 L 171.2741 1.1284 Z " stroke-width="0.14502536314675218"/>
      </g>
    </g>
    <g id="ID0.14185637328773737">
      <g id="id40">
        <path id="ID0.4313509692437947" fill="none" stroke="none" d="M 181.4258 0.9834 L 195.0582 0.9834 L 195.0582 15.0508 L 181.4258 15.0508 L 181.4258 0.9834 Z " stroke-width="0.14502536314675218"/>
        <path id="ID0.7093223514966667" fill="rgb(255,255,255)" stroke="none" d="M 181.5709 1.1284 L 186.2117 1.1284 C 188.9672 1.1284 190.9975 1.5635 192.3027 2.5786 C 194.043 3.7388 194.9132 5.6242 194.9132 8.2346 C 194.9132 10.12 194.3331 11.7152 193.0279 12.8754 C 191.8677 14.1807 190.2724 14.9058 188.3871 14.9058 L 181.5709 14.9058 L 181.5709 1.1284 Z M 189.8373 7.9446 C 189.8373 7.0744 189.5473 6.3493 188.9672 5.9142 C 188.3871 5.6242 187.6619 5.3341 186.7918 5.3341 L 186.5017 5.3341 L 186.5017 10.7001 L 186.6468 10.7001 C 187.6619 10.7001 188.3871 10.555 188.9672 10.12 C 189.5473 9.6849 189.8373 8.9598 189.8373 7.9446 Z " stroke-width="0.14502536314675218"/>
      </g>
    </g>
    <g id="ID0.09159957338124514">
      <g id="id41">
        <path id="ID0.02626159694045782" fill="none" stroke="none" d="M 195.9284 0.9834 L 201.2943 0.9834 L 201.2943 15.0508 L 195.9284 15.0508 L 195.9284 0.9834 Z " stroke-width="0.14502536314675218"/>
        <path id="ID0.1508660214021802" fill="rgb(255,255,255)" stroke="none" d="M 196.0734 1.1284 L 201.0043 1.1284 L 201.0043 14.9058 L 196.0734 14.9058 L 196.0734 1.1284 Z " stroke-width="0.14502536314675218"/>
      </g>
    </g>
    <g id="ID0.9218201637268066">
      <g id="id42">
        <path id="ID0.5923497150652111" fill="none" stroke="none" d="M 202.1645 0.9834 L 216.2319 0.9834 L 216.2319 15.0508 L 202.1645 15.0508 L 202.1645 0.9834 Z " stroke-width="0.14502536314675218"/>
        <path id="ID0.2627841765061021" fill="rgb(255,255,255)" stroke="none" d="M 202.3095 1.1284 L 206.9503 1.1284 C 207.3854 1.8535 207.9655 2.5786 208.4006 3.4488 C 208.9807 4.1739 209.4157 4.899 209.9958 5.6242 C 210.4309 6.3493 210.866 7.0744 211.4461 8.0896 L 211.4461 1.1284 L 216.0869 1.1284 L 216.0869 14.9058 L 211.3011 14.9058 C 210.5759 13.7456 209.8508 12.5854 209.1257 11.5702 C 208.4006 10.555 207.6754 9.3948 206.9503 8.0896 C 206.9503 8.2346 206.9503 8.5247 206.9503 8.9598 C 206.9503 9.2498 207.0953 9.3948 207.0953 9.5399 L 206.9503 13.0205 L 207.0953 14.9058 L 202.3095 14.9058 L 202.3095 1.1284 Z " stroke-width="0.14502536314675218"/>
      </g>
    </g>
    <g id="ID0.309265379793942">
      <g id="id43">
        <path id="ID0.7054456169717014" fill="none" stroke="none" d="M 216.812 0.6933 L 232.0397 0.6933 L 232.0397 15.3409 L 216.812 15.3409 L 216.812 0.6933 Z " stroke-width="0.14502536314675218"/>
        <path id="ID0.7775091617368162" fill="rgb(255,255,255)" stroke="none" d="M 226.6738 6.0592 C 226.3837 5.7692 226.0936 5.4791 225.8036 5.3341 C 225.3685 5.1891 225.0785 5.0441 224.6434 5.0441 C 223.7732 5.0441 223.1931 5.3341 222.613 5.9142 C 222.178 6.4943 221.8879 7.0744 221.8879 7.9446 C 221.8879 8.9598 222.178 9.6849 222.613 10.265 C 223.0481 10.9901 223.7732 11.2802 224.7884 11.2802 C 225.2235 11.2802 225.5135 11.1351 225.9486 10.9901 C 226.2387 10.7001 226.5287 10.41 226.6738 9.9749 L 224.2083 9.9749 L 224.2083 6.7844 L 231.7496 6.7844 L 231.7496 7.6545 C 231.7496 9.9749 231.0245 11.7152 229.7193 13.0205 C 228.4141 14.4707 226.5287 15.0508 224.3533 15.0508 C 222.178 15.0508 220.4377 14.4707 218.9874 13.0205 C 217.5372 11.7152 216.812 9.9749 216.812 7.9446 C 216.812 5.7692 217.5372 4.0289 218.9874 2.7237 C 220.2926 1.4184 222.0329 0.8383 224.2083 0.8383 C 225.8036 0.8383 227.1088 1.1284 228.269 1.5635 C 229.4292 2.2886 230.4444 3.1587 231.1695 4.3189 L 226.6738 6.0592 Z " stroke-width="0.14502536314675218"/>
      </g>
    </g>
    <g id="ID0.35683239297941327">
      <g id="id44">
        <path id="ID0.16531730722635984" fill="none" stroke="none" d="M 232.0397 0.6933 L 243.6417 0.6933 L 243.6417 15.3409 L 232.0397 15.3409 L 232.0397 0.6933 Z " stroke-width="0.14502536314675218"/>
        <path id="ID0.6862805504351854" fill="rgb(255,255,255)" stroke="none" d="M 233.78 9.8299 C 234.3601 10.265 234.9402 10.555 235.2302 10.8451 C 235.9554 11.1351 236.5355 11.2802 237.1156 11.2802 C 237.4056 11.2802 237.5507 11.2802 237.8407 11.1351 C 238.1308 10.9901 238.4208 10.7001 238.4208 10.555 C 238.4208 10.12 237.8407 9.8299 236.9706 9.6849 C 235.6653 9.3948 234.7952 8.9598 234.2151 8.6697 C 233.1999 7.9446 232.7648 7.0744 232.7648 5.6242 C 232.7648 4.1739 233.3449 3.0137 234.5051 2.1436 C 235.5203 1.2734 236.8255 0.8383 238.2758 0.8383 C 239.1459 0.8383 240.0161 0.9834 240.8862 1.1284 C 241.4663 1.4184 242.1915 1.7085 243.2066 2.1436 L 241.7564 5.6242 C 241.3213 5.3341 240.8862 5.0441 240.3061 4.899 C 239.726 4.609 239.1459 4.609 238.7109 4.609 C 238.5658 4.609 238.2758 4.609 238.1308 4.754 C 237.8407 4.899 237.6957 5.0441 237.6957 5.3341 C 237.6957 5.6242 238.2758 5.7692 239.291 6.0592 C 240.5962 6.4943 241.4663 6.7844 242.0464 7.2195 C 242.9166 7.7996 243.4967 8.8147 243.4967 10.12 C 243.4967 11.7152 242.9166 12.8754 241.7564 13.7456 C 240.5962 14.6157 239.291 15.0508 237.6957 15.0508 C 236.6805 15.0508 235.8103 14.9058 234.7952 14.6157 C 234.07 14.4707 233.1999 14.0356 232.1847 13.6006 L 233.78 9.8299 Z " stroke-width="0.14502536314675218"/>
      </g>
    </g>
  </g>
<defs/></svg>