<svg xmlns="http://www.w3.org/2000/svg" xmlns:xlink="http://www.w3.org/1999/xlink" width="74.939" height="55.654" version="1.1" viewBox="0.094 0.087 74.939 55.654"><g id="ID0.7935215537436306"><g id="ID0.8583578136749566"><g id="ID0.5289961225353181"><g id="container-id1"><g id="id1"><g id="ID0.7011118242517114"><g id="ID0.6401844108477235"><g id="id6"><path id="ID0.486680097412318" fill="none" stroke="none" stroke-width=".049" d="M 1.7517 0.5866 L 74.5328 2.1749 L 73.3748 55.2405 L 0.5937 53.6522 L 1.7517 0.5866 Z"/><path id="ID0.14748100424185395" fill="#ABC5A8" stroke="none" stroke-width=".049" d="M 30.2472 1.3117 L 30.2472 1.3117 C 30.9833 1.7405 31.6228 2.322 32.2657 2.7488 C 37.9986 6.8983 43.7325 10.9962 49.5119 15.1467 C 54.1452 18.4467 58.824 21.7992 63.4561 25.1508 C 66.8047 27.5456 70.1988 29.993 73.5474 32.3879 C 73.5928 32.4405 73.686 32.4425 73.6837 32.5456 C 73.8189 32.755 73.6315 32.8025 73.5827 32.9046 C 72.5879 33.6568 71.5921 34.4606 70.5973 35.2128 C 69.0814 36.3664 67.5654 37.52 66.0494 38.6736 C 65.7179 38.9243 65.3851 39.2266 65.0536 39.4773 C 64.8696 39.3701 64.7299 39.3671 64.6867 39.2114 C 66.1538 38.1599 67.5301 37.0033 68.9507 35.9508 C 68.9518 35.8992 69.0449 35.9012 69.0926 35.8507 C 69.2834 35.6485 69.2845 35.5969 69.1027 35.3866 C 67.1297 34.002 65.2032 32.6185 63.2313 31.1824 C 62.4975 30.6505 61.7161 30.1691 61.0311 29.535 C 60.9402 29.4298 60.7108 29.27 61.0379 29.2256 C 61.7296 29.5502 62.3248 30.0276 62.9677 30.4544 C 65.1236 31.9977 67.2773 33.6441 69.4332 35.1874 C 69.5706 35.2936 69.7569 35.2976 69.9454 35.1986 C 70.6574 34.595 71.4614 34.045 72.2199 33.4424 C 72.3153 33.3413 72.4118 33.1886 72.2744 33.0824 C 72.0949 32.7689 72.1016 32.4595 72.2481 32.1531 C 72.3446 32.0005 72.2537 31.8953 72.1151 31.8407 C 71.0156 30.9912 69.9138 30.2448 68.8596 29.4479 C 65.9688 27.4242 63.0802 25.2974 60.236 23.2747 C 57.8052 21.519 55.3278 19.7623 52.897 18.0067 C 52.4847 17.6881 52.0701 17.4727 51.7043 17.1551 C 51.5192 17.0995 51.3851 16.8386 51.2 16.783 C 50.2799 16.2469 49.5029 15.5593 48.6317 14.9211 C 46.3838 13.3242 44.1347 11.7789 41.8868 10.182 C 38.6325 7.7376 35.3293 5.3954 32.0261 3.0531 C 31.9341 2.9995 31.8421 2.9459 31.7513 2.8408 C 31.4309 2.5758 31.0618 2.413 30.6382 2.6101 C 30.3566 2.7071 30.0317 2.6484 29.7546 2.5392 C 29.5706 2.432 29.4309 2.429 29.2878 2.5806 C 28.5304 3.1316 27.7264 3.6816 27.0167 4.1821 C 26.7328 4.3823 26.9168 4.4895 27.0554 4.5441 C 28.1106 5.2894 29.0261 6.0317 30.0825 6.7255 C 31.5501 7.7894 32.97 8.9039 34.4852 9.9173 C 34.5761 10.0225 34.7147 10.0771 34.759 10.1812 C 34.8033 10.2854 34.8476 10.3895 34.7522 10.4907 C 34.7045 10.5412 34.566 10.4866 34.5205 10.434 C 34.5217 10.3824 34.4751 10.3814 34.4285 10.3804 C 33.6936 9.9 32.9598 9.368 32.2726 8.8371 C 30.4382 7.5072 28.5571 6.1763 26.7238 4.7948 C 26.5398 4.6876 26.3535 4.6836 26.165 4.7826 C 25.5018 5.2841 24.8387 5.7856 24.1766 6.2355 C 23.9881 6.3346 23.8451 6.4862 23.6577 6.5337 C 23.4714 6.5297 23.426 6.4771 23.5236 6.2728 C 23.5713 6.2223 23.619 6.1717 23.6667 6.1212 C 24.5672 5.4185 25.5131 4.7684 26.4125 4.1173 C 27.6423 3.267 28.8744 2.3136 30.103 1.5149 C 30.1973 1.4654 30.245 1.4148 30.2472 1.3117 Z"/><path id="ID0.4818848487921059" fill="#D2CBC9" stroke="none" stroke-width=".049" d="M 64.7332 39.2124 L 64.7332 39.2124 C 64.8252 39.266 64.9638 39.3206 65.0558 39.3742 C 65.1024 39.3752 65.1501 39.3247 65.1955 39.3773 C 65.3285 39.6897 65.6067 39.7474 65.7896 39.9062 C 65.9736 40.0134 66.0622 40.2217 66.0123 40.3754 C 65.9567 40.7869 66.042 41.1499 65.9398 41.5605 C 65.7581 41.3501 65.858 41.0427 65.817 40.7839 C 65.8204 40.6292 65.8238 40.4745 65.8272 40.3197 C 64.9255 41.074 63.9762 41.8788 63.0281 42.632 C 62.2218 43.2851 61.4156 43.9383 60.6559 44.5924 C 60.5605 44.6935 60.4197 44.7421 60.28 44.739 C 59.7712 44.5731 59.3134 44.202 58.8556 43.8308 C 58.4422 43.5638 57.981 43.3474 57.6164 42.9783 C 57.5698 42.9772 57.6153 43.0298 57.6153 43.0298 C 57.6141 43.0814 57.5664 43.132 57.4733 43.1299 C 57.2938 42.8164 57.4823 42.7174 57.6731 42.5152 C 58.4316 41.9126 59.2844 41.2605 60.0918 40.5557 C 60.8038 39.9521 61.5169 39.297 62.3197 38.7986 C 62.4606 38.75 62.5116 38.5448 62.6536 38.4447 C 62.7478 38.3951 62.8898 38.295 63.0317 38.195 C 63.1271 38.0938 63.2202 38.0959 63.4054 38.1515 C 63.8177 38.4701 64.1846 38.7361 64.6435 39.0556 C 64.6889 39.1082 64.6878 39.1598 64.7332 39.2124 Z"/><path id="ID0.8284545536153018" fill="#D2CBC9" stroke="none" stroke-width=".049" d="M 10.8039 8.4718 L 10.8039 8.4718 C 10.9027 8.216 11.1366 8.1695 11.3262 8.0188 C 12.983 6.8167 14.6864 5.6156 16.3908 4.363 C 16.6259 4.2649 16.8122 4.269 16.9962 4.3762 C 17.6368 4.9061 18.3252 5.3855 18.967 5.8638 C 19.0579 5.969 19.243 6.0246 19.2396 6.1793 C 18.673 6.5281 18.1517 6.9295 17.6305 7.3309 C 17.5351 7.432 17.4398 7.5331 17.2978 7.6332 C 16.1168 8.3814 14.9324 9.2842 13.7503 10.0839 C 13.5618 10.183 13.4653 10.3357 13.279 10.3316 C 12.7724 10.0626 12.2692 9.6388 11.8114 9.2677 C 11.4445 9.0017 11.1231 8.7883 10.8039 8.4718 Z"/><path id="ID0.3342519337311387" fill="#6D7889" stroke="none" stroke-width=".049" d="M 60.28 44.739 L 60.28 44.739 C 61.6075 43.6845 62.8418 42.6279 64.1216 41.624 C 64.7382 41.1215 65.3071 40.6696 65.9714 40.1165 C 65.959 40.6838 65.95 41.0963 65.9398 41.5605 C 65.9376 41.6636 65.9353 41.7668 65.9331 41.8699 C 66.0082 42.697 65.6233 43.2562 65.0078 43.7071 C 63.3965 44.9618 61.9248 46.2196 60.4066 47.4763 C 60.3124 47.5258 60.2647 47.5764 60.1704 47.6259 C 59.9875 47.4671 60.0397 47.2103 60.0442 47.004 C 60.1963 46.4398 60.1633 45.82 60.1756 45.2527 C 60.1801 45.0464 60.1835 44.8917 60.28 44.739 Z"/><path id="ID0.16005184361711144" fill="#FEF6DE" stroke="none" stroke-width=".049" d="M 60.28 44.739 L 60.28 44.739 C 60.2586 45.7188 60.2373 46.6987 60.1704 47.6259 C 59.799 47.5662 59.4798 47.2497 59.1595 46.9847 C 58.6529 46.7157 58.1951 46.3445 57.6897 46.0239 C 57.5057 45.9167 57.3694 45.759 57.2807 45.5507 C 57.283 45.4475 57.2841 45.396 57.2852 45.3444 C 57.343 44.8297 57.3554 44.2624 57.3667 43.7467 C 57.3712 43.5405 57.3291 43.3332 57.4733 43.1299 C 57.5721 42.8741 57.6186 42.8751 57.8015 43.0339 C 58.6284 43.5679 59.4542 44.1535 60.28 44.739 Z"/><path id="ID0.10632974049076438" fill="#3D933F" stroke="none" stroke-width=".049" d="M 45.1553 54.6763 L 45.1553 54.6763 C 35.6228 47.4514 26.0426 40.277 16.4625 33.1027 C 11.5577 29.4356 6.654 25.717 1.7492 22.0499 C 1.7037 21.9974 1.6583 21.9448 1.6129 21.8922 C 1.6651 21.6354 1.7616 21.4827 2.0398 21.5403 C 1.9843 21.9519 1.9843 21.9519 2.3046 22.2168 C 4.1856 23.5478 6.0178 24.9808 7.8989 26.3117 C 9.2279 27.321 10.5092 28.3809 11.8393 29.3386 C 15.7354 32.2613 19.677 35.2366 23.5731 38.1594 C 25.4076 39.4893 27.1944 40.8697 29.0277 42.2512 C 32.3286 44.6966 35.583 47.1409 38.8362 49.6369 C 40.8092 51.0214 42.7335 52.508 44.6111 53.9937 C 44.8406 54.1535 45.1177 54.2627 45.3449 54.5256 C 45.3426 54.6288 45.2029 54.6257 45.1553 54.6763 Z"/><path id="ID0.5664576566778123" fill="#FEF6E0" stroke="none" stroke-width=".049" d="M 10.8039 8.4718 L 10.8039 8.4718 C 11.2196 8.6356 11.5842 9.0048 11.9511 9.2707 C 12.4566 9.5913 12.8678 9.9615 13.279 10.3316 C 13.4608 10.542 13.454 10.8514 13.4473 11.1608 C 13.4803 11.7807 13.4203 12.3985 13.4533 13.0183 C 13.4023 13.2236 13.3546 13.2742 13.1683 13.2701 C 12.8968 12.903 12.5288 12.6886 12.2073 12.4752 C 11.795 12.1566 11.3827 11.8381 10.9238 11.5185 C 10.7874 11.3607 10.7454 11.1534 10.7499 10.9471 C 10.7679 10.122 10.7859 9.2969 10.8039 8.4718 Z"/><path id="ID0.21708761667832732" fill="#0F7E0F" stroke="none" stroke-width=".049" d="M 13.1683 13.2701 L 13.1683 13.2701 C 13.3091 13.2216 13.3579 13.1194 13.4056 13.0689 C 13.4056 13.0689 13.4533 13.0183 13.4999 13.0194 C 13.685 13.075 13.8281 12.9233 14.0121 13.0305 C 14.0076 13.2368 13.8668 13.2853 13.7725 13.3349 C 12.1646 14.4349 10.6486 15.5885 9.0406 16.6884 C 8.9929 16.739 8.8975 16.8401 8.7567 16.8886 C 8.3808 17.0352 8.0481 17.3375 7.7165 17.5883 C 6.9126 18.1382 6.0143 18.7378 5.2546 19.3919 C 5.1138 19.4405 5.0661 19.491 4.9719 19.5405 C 4.5472 19.7892 4.2145 20.0916 3.7897 20.3403 C 3.4116 20.59 3.0335 20.8397 2.6996 21.1936 C 2.5111 21.2927 2.3658 21.5475 2.133 21.5424 C 1.8536 21.5363 1.7094 21.7395 1.6129 21.8922 C 1.5209 21.8386 1.43 21.7334 1.338 21.6798 C 2.3793 20.9286 3.4206 20.1774 4.4608 19.4778 C 7.3008 17.4244 10.0921 15.4731 12.8855 13.4187 C 13.0264 13.3702 13.1206 13.3206 13.1683 13.2701 Z"/><path id="ID0.843814302701503" fill="#034306" stroke="none" stroke-width=".049" d="M 14.0121 13.0305 L 14.0121 13.0305 C 13.827 12.9749 13.6816 13.2297 13.4522 13.0699 C 13.4544 12.9668 13.5487 12.9172 13.6895 12.8687 C 15.4417 11.5655 17.1916 10.3654 18.9438 9.0622 C 18.9915 9.0116 19.0846 9.0137 19.1323 8.9631 C 19.1323 8.9631 19.1788 8.9641 19.1788 8.9641 C 19.272 8.9662 19.4139 8.8661 19.4627 8.7639 C 20.646 7.9126 21.8758 7.0624 23.0591 6.2111 C 23.1533 6.1616 23.1533 6.1616 23.1999 6.1626 C 23.2941 6.113 23.3396 6.1656 23.3373 6.2688 C 23.2851 6.5256 23.1432 6.6257 22.9547 6.7248 C 21.5341 7.7772 20.067 8.8287 18.5532 9.8792 C 17.2757 10.78 16.0913 11.6828 14.8138 12.5837 C 14.5776 12.7333 14.3437 12.7798 14.1052 13.0326 C 14.0587 13.0315 14.0587 13.0315 14.0121 13.0305 Z"/><path id="ID0.4124409076757729" fill="#5D7771" stroke="none" stroke-width=".049" d="M 17.2524 7.5806 L 17.2524 7.5806 C 17.2546 7.4775 17.3012 7.4785 17.3489 7.4279 C 17.9178 6.976 18.4856 6.5756 19.0068 6.1743 C 19.0534 6.1753 19.1476 6.1257 19.2396 6.1793 C 19.2194 7.1076 19.1991 8.0359 19.1788 8.9641 C 19.1788 8.9641 19.1788 8.9641 19.1788 8.9641 C 19.1312 9.0147 18.9926 8.9601 18.946 8.959 C 18.4417 8.5869 17.8919 8.1621 17.341 7.7889 C 17.2967 7.6848 17.2978 7.6332 17.2524 7.5806 Z"/><path id="ID0.4533621915616095" fill="#0D7C0E" stroke="none" stroke-width=".049" d="M 23.2896 6.3193 L 23.2896 6.3193 C 23.3385 6.2172 23.2465 6.1636 23.1999 6.1626 C 24.1469 5.4609 25.0463 4.8098 26.0399 4.1092 C 27.3174 3.2083 28.595 2.3075 29.8725 1.4067 C 29.969 1.254 30.1098 1.2055 30.2472 1.3117 C 30.3359 1.52 30.1962 1.517 30.1019 1.5665 C 28.067 3.0183 26.0786 4.4712 24.0448 5.8714 C 23.9494 5.9726 23.8541 6.0737 23.7132 6.1222 C 23.5724 6.1707 23.5191 6.4791 23.2896 6.3193 Z"/><path id="ID0.6001228601671755" fill="#2A8128" stroke="none" stroke-width=".049" d="M 45.1553 54.6763 L 45.1553 54.6763 C 45.2029 54.6257 45.2506 54.5752 45.3449 54.5256 C 45.3971 54.2688 45.5845 54.2213 45.7741 54.0706 C 46.7223 53.3174 47.7159 52.6168 48.6175 51.8625 C 48.7595 51.7624 48.8072 51.7119 48.9037 51.5592 C 49.3306 51.2074 49.8485 50.9607 50.2754 50.6088 C 52.5023 48.9032 54.7291 47.1976 57.0036 45.4414 C 57.0513 45.3909 57.1921 45.3424 57.2864 45.2928 C 57.3795 45.2949 57.4249 45.3474 57.3295 45.4485 C 57.3295 45.4485 57.3273 45.5517 57.2807 45.5507 C 55.8113 46.7053 54.2488 47.8579 52.6863 49.0104 C 50.4106 50.8182 48.0419 52.6239 45.7197 54.4306 C 45.53 54.5813 45.3881 54.6814 45.1553 54.6763 Z"/><path id="ID0.40372977359220386" fill="#288026" stroke="none" stroke-width=".049" d="M 65.1955 39.3773 L 65.1955 39.3773 C 65.1489 39.3762 65.099 39.5299 65.0558 39.3742 C 66.2402 38.4714 67.52 37.4674 68.7997 36.4634 C 70.4099 35.2603 71.927 34.0551 73.5384 32.8004 C 73.5861 32.7499 73.7735 32.7024 73.6837 32.5456 C 74.0063 32.7075 73.8178 32.8065 73.6758 32.9066 C 70.9278 35.0136 68.1797 37.1206 65.4317 39.2276 C 65.384 39.2782 65.3363 39.3287 65.1955 39.3773 Z"/><path id="ID0.11201159562915564" fill="#109817" stroke="none" stroke-width=".049" d="M 51.7986 17.1056 L 51.7986 17.1056 C 54.0919 18.7551 56.4307 20.4571 58.7241 22.1066 C 63.2199 25.3004 67.7147 28.5458 72.2548 31.8437 C 72.4388 31.9509 72.5308 32.0045 72.3389 32.2583 C 72.1005 32.5111 72.1869 32.8225 72.4141 33.0855 C 72.5515 33.1917 72.5481 33.3464 72.3131 33.4444 C 71.5545 34.047 70.7494 34.6486 69.9432 35.3017 C 69.7524 35.5039 69.5695 35.3451 69.3855 35.2379 C 66.7707 33.3751 64.157 31.4606 61.5433 29.5462 C 61.3582 29.4905 61.2219 29.3328 61.0833 29.2782 C 60.9458 29.172 60.8039 29.2721 60.7096 29.3216 C 58.7656 30.8786 56.7295 32.382 54.8343 33.8369 C 54.5493 34.0887 54.2676 34.1857 53.9428 34.127 C 52.8729 34.0521 51.7997 34.1318 50.7663 34.522 C 49.8282 34.8111 48.9799 35.257 48.2657 35.9637 C 47.3141 36.8717 46.8714 37.9455 47.0284 39.2904 C 47.0216 39.5998 46.8763 39.8546 46.6867 40.0052 C 45.4069 41.0092 44.0817 41.9606 42.7565 42.912 C 42.0922 43.465 41.3825 43.9655 40.7182 44.5185 C 40.6705 44.5691 40.4366 44.6155 40.6183 44.8259 C 42.772 46.4723 45.0188 48.1208 47.2645 49.8208 C 47.8142 50.2456 48.3651 50.6188 48.9149 51.0435 C 49.1887 51.3075 49.1876 51.359 48.9037 51.5592 C 48.052 52.1598 47.2458 52.8129 46.4395 53.466 C 46.2033 53.6157 46.0625 53.6642 45.7854 53.5549 C 45.4173 53.3405 44.9517 53.3304 44.5747 53.5285 C 44.3862 53.6276 44.201 53.572 44.0636 53.4658 C 42.9629 52.6678 41.9542 51.9235 40.9467 51.1276 C 38.3796 49.2142 35.8579 47.3533 33.3373 45.4409 C 31.3665 43.9533 29.3957 42.4656 27.4715 40.979 C 26.2334 40.0748 25.043 39.1201 23.7583 38.215 C 23.4379 37.95 23.3471 37.8449 23.7729 37.5446 C 25.005 36.5912 26.2825 35.6904 27.5611 34.738 C 29.2179 33.5359 30.8758 32.2822 32.4395 31.078 C 32.8187 30.7767 33.1458 30.7323 33.6047 31.0519 C 34.3862 31.5333 35.2653 31.8104 36.2409 31.9349 C 37.0768 32.0563 37.9616 32.0756 38.8951 31.9928 C 40.3443 31.7665 41.7525 31.2813 42.9414 30.1721 C 43.894 29.2126 44.4321 28.0377 44.0923 26.534 C 43.8797 25.6007 43.381 24.9707 42.7891 24.3386 C 42.7437 24.286 42.6517 24.2324 42.5597 24.1788 C 42.2859 23.9149 42.2893 23.7602 42.6652 23.6136 C 44.2289 22.4094 45.8868 21.1557 47.4959 20.0042 C 48.6814 19.0498 49.9589 18.1489 51.1898 17.2471 C 51.3329 17.0954 51.5214 16.9964 51.7986 17.1056 Z"/><path id="ID0.21089955419301987" fill="#109817" stroke="none" stroke-width=".049" d="M 34.7113 10.2318 L 34.7113 10.2318 C 33.6106 9.4338 32.6019 8.6895 31.5467 7.9442 C 29.9883 6.7751 28.4752 5.6586 26.9157 4.541 C 26.6851 4.4328 26.6408 4.3287 26.9247 4.1285 C 27.681 3.629 28.5326 3.0285 29.2912 2.4259 C 29.4331 2.3258 29.5728 2.3289 29.7114 2.3835 C 30.1725 2.5999 30.5916 2.6091 30.9687 2.4109 C 31.1572 2.3118 31.2492 2.3654 31.3877 2.4201 C 37.8998 7.1541 44.413 11.8366 50.9273 16.4674 C 51.0193 16.5211 51.1568 16.6272 51.2488 16.6808 C 51.4305 16.8912 51.4283 16.9943 51.1921 17.144 C 50.0565 17.9447 49.0141 18.7475 47.924 19.6008 C 46.1729 20.8524 44.4673 22.1567 42.7151 23.4599 C 42.2904 23.7086 42.0565 23.7551 41.6885 23.5407 C 40.631 22.8985 39.611 22.6698 38.4969 22.4907 C 37.0102 22.3035 35.5621 22.4783 34.1983 23.0676 C 33.1637 23.5094 32.2655 24.109 31.6842 25.1282 C 30.9144 26.2464 30.8419 27.4315 31.3748 28.6298 C 31.6396 29.3063 32.002 29.7786 32.504 30.2539 C 32.9153 30.6241 32.9141 30.6756 32.4872 31.0275 C 29.5517 33.182 26.5698 35.3355 23.6332 37.5415 C 23.3005 37.8439 23.2074 37.8418 22.8882 37.5253 C 19.9996 35.3985 17.2041 33.2737 14.3167 31.0953 C 11.1532 28.7561 7.9454 26.3127 4.8285 23.9746 C 4.2788 23.5498 3.7278 23.1766 3.2246 22.7529 C 2.9941 22.6447 2.9054 22.4363 3.0496 22.2331 C 3.2404 22.0309 3.246 21.773 3.1574 21.5647 C 2.9324 21.1987 2.9801 21.1481 3.2652 20.8964 C 4.0226 20.3453 4.872 19.8479 5.584 19.2443 C 5.6317 19.1938 5.6794 19.1432 5.7725 19.1453 C 5.961 19.0462 6.1461 19.1018 6.3301 19.209 C 7.9352 20.3791 9.4936 21.5482 11.0975 22.7699 C 12.013 23.5122 13.0694 24.206 14.0781 24.9503 C 14.2598 25.1607 14.4461 25.1647 14.6369 24.9625 C 16.6252 23.5097 18.6125 22.1084 20.6008 20.6555 C 20.8847 20.4553 21.2107 20.4625 21.5366 20.4696 C 22.4668 20.5415 23.3538 20.4576 24.2453 20.1675 C 25.5104 19.834 26.6415 19.2395 27.551 18.1243 C 28.1255 17.4145 28.516 16.5975 28.3989 15.5631 C 28.4067 15.2021 28.4589 14.9452 28.7417 14.7966 C 30.6358 13.3933 32.4822 12.0405 34.3741 10.7404 C 34.4695 10.6393 34.5649 10.5382 34.7045 10.5412 C 34.8465 10.4411 34.8033 10.2854 34.7113 10.2318 Z"/><path id="ID0.5144187463447452" fill="#109817" stroke="none" stroke-width=".049" d="M 64.7332 39.2124 L 64.7332 39.2124 C 64.3209 38.8938 63.9074 38.6268 63.5405 38.3608 C 63.3122 38.1495 63.126 38.1454 62.8875 38.3982 C 62.8398 38.4487 62.7456 38.4983 62.6979 38.5488 C 62.4185 38.5427 62.3287 38.386 62.0982 38.2778 C 62.0073 38.1726 61.8698 38.0664 61.7313 38.0118 C 61.3655 37.6942 61.0839 37.7913 60.7046 38.0926 C 57.8623 40.2491 55.0666 42.4067 52.2243 44.5632 C 51.9869 44.7644 51.9858 44.816 52.2618 44.9768 C 52.9014 45.5583 53.5908 45.9861 54.2769 46.5686 C 54.3224 46.6212 54.4144 46.6748 54.5529 46.7294 C 54.7358 46.8882 54.7325 47.0429 54.5417 47.2451 C 52.8838 48.4988 51.2259 49.7525 49.6145 51.0072 C 49.3306 51.2074 49.1455 51.1517 48.916 50.9919 C 47.7711 50.0898 46.5795 49.1867 45.3868 48.3352 C 43.9204 47.2197 42.4074 46.1032 40.9409 44.9877 C 40.8955 44.9351 40.7558 44.9321 40.7115 44.8279 C 40.7171 44.5701 40.9522 44.472 41.0475 44.3709 C 42.2308 43.5196 43.3675 42.6673 44.4587 41.7624 C 46.4005 40.3086 48.3423 38.8547 50.2376 37.3998 C 52.8414 35.496 55.3544 33.4871 57.9582 31.5833 C 58.8576 30.9322 59.7104 30.2801 60.5643 29.5764 C 60.7063 29.4763 60.8959 29.3257 61.0788 29.4844 C 62.1795 30.2824 63.2336 31.0793 64.3343 31.8772 C 65.9393 33.0474 67.5909 34.2185 69.1959 35.3886 C 69.4719 35.5494 69.4696 35.6525 69.2323 35.8537 C 67.8129 36.8546 66.4366 38.0113 65.0626 39.0648 C 64.9683 39.1143 64.8264 39.2144 64.7332 39.2124 Z"/><path id="ID0.3558329758234322" fill="#109817" stroke="none" stroke-width=".049" d="M 23.6588 6.4822 L 23.6588 6.4822 C 24.5105 5.8816 25.3156 5.28 26.073 4.729 C 26.3569 4.5288 26.5431 4.5329 26.7249 4.7433 C 29.2023 6.4999 31.7251 8.3092 34.1559 10.0649 C 34.2479 10.1185 34.3399 10.1721 34.4319 10.2257 C 34.6614 10.3855 34.5194 10.4856 34.424 10.5867 C 34.1878 10.7363 33.9982 10.887 33.7609 11.0882 C 31.442 12.7402 29.0755 14.4427 26.7556 16.1463 C 23.2058 18.7002 19.6083 21.3046 16.012 23.8574 C 15.585 24.2093 15.1592 24.5096 14.7334 24.8098 C 14.4484 25.0616 14.2155 25.0565 13.9406 24.8441 C 12.8877 23.9956 11.7858 23.2493 10.6863 22.3998 C 9.3107 21.3894 7.9363 20.3276 6.5618 19.2657 C 6.3778 19.1585 6.1473 19.0502 6.3403 18.7449 C 7.335 17.9927 8.3752 17.2931 9.4165 16.5419 C 10.032 16.0909 10.694 15.641 11.3095 15.1901 C 11.5457 15.0405 11.732 15.0446 12.008 15.2054 C 12.6941 15.7879 13.3824 16.2672 14.0708 16.7466 C 14.2991 16.958 14.4388 16.961 14.6761 16.7598 C 17.6104 14.6569 20.4981 12.5529 23.4302 10.5531 C 23.7152 10.3014 23.7163 10.2498 23.3949 10.0364 C 23.2109 9.9292 23.0734 9.823 22.8905 9.6643 C 22.8451 9.6117 22.8462 9.5601 22.8485 9.457 C 22.9949 9.1506 23.2766 9.0535 23.5605 8.8534 C 23.9397 8.5521 24.3168 8.3539 24.7426 8.0536 C 25.0742 7.8029 24.9844 7.6462 24.6641 7.3812 C 24.2972 7.1152 23.9281 6.9524 23.61 6.5843 C 23.6111 6.5327 23.6111 6.5327 23.6588 6.4822 Z"/><path id="ID0.4170444644987583" fill="#A2C49B" stroke="none" stroke-width=".049" d="M 5.6771 19.2464 L 5.6771 19.2464 C 4.9174 19.9005 4.0669 20.4495 3.2629 20.9995 C 3.0733 21.1501 2.9779 21.2512 3.2051 21.5142 C 3.3414 21.6719 3.3812 21.9824 3.1893 22.2362 C 2.9509 22.4889 3.1349 22.5961 3.2712 22.7539 C 5.5646 24.4034 7.8102 26.1034 10.0105 27.7509 C 14.1815 30.886 18.3514 34.0726 22.5224 37.2077 C 23.2107 37.6871 23.2573 37.6881 23.9205 37.1867 C 26.8082 35.0827 29.6494 32.9777 32.4917 30.8212 C 32.7744 30.6726 32.7756 30.621 32.5018 30.3571 C 31.7703 29.722 31.1818 28.9352 31.018 27.8997 C 30.7679 26.5528 31.1641 25.478 32.0236 24.5164 C 33.1216 23.3021 34.5321 22.7138 36.0755 22.4379 C 37.9925 22.1186 39.8961 22.4181 41.6907 23.4375 C 42.1053 23.653 42.3858 23.6075 42.7185 23.3052 C 45.5131 21.1992 48.3055 19.1963 51.1466 17.0914 C 51.2886 16.9913 51.4305 16.8912 51.2488 16.6808 C 51.4339 16.7365 51.5203 17.0479 51.7986 17.1056 C 51.5203 17.0479 51.3772 17.1996 51.2353 17.2997 C 48.3475 19.4036 45.5529 21.5096 42.7118 23.6146 C 42.4268 23.8663 42.4268 23.8663 42.7016 24.0787 C 43.3389 24.7634 43.8831 25.446 44.1422 26.3803 C 44.4411 27.6251 44.137 28.7536 43.4183 29.6666 C 42.4111 30.9861 41.0927 31.628 39.6413 31.9575 C 37.6289 32.3779 35.7231 32.1816 33.8796 31.2642 C 33.6945 31.2086 33.5559 31.154 33.4185 31.0478 C 33.1447 30.7838 32.9573 30.8313 32.6723 31.0831 C 29.7369 33.2376 26.8957 35.3426 23.9603 37.4971 C 23.4856 37.8995 23.4856 37.8995 23.99 38.2717 C 28.253 41.4604 32.5149 44.7006 36.8245 47.8904 C 39.2542 49.6976 41.6362 51.5554 44.067 53.3111 C 44.2487 53.5214 44.3884 53.5245 44.5769 53.4254 C 45.0471 53.2293 45.4662 53.2384 45.8796 53.5054 C 46.0648 53.561 46.1579 53.5631 46.3021 53.3598 C 47.2003 52.7603 48.0531 52.1082 48.8594 51.4551 C 48.8571 51.5582 48.9014 51.6624 48.948 51.6634 C 48.3303 52.2174 47.6217 52.6663 46.9574 53.2194 C 46.435 53.6723 45.8672 54.0727 45.3449 54.5256 C 44.7917 54.2556 44.3351 53.8329 43.8296 53.5123 C 42.2712 52.3432 40.8059 51.1761 39.2474 50.007 C 37.1846 48.4658 35.1218 46.9245 33.059 45.3832 C 29.7593 42.8863 26.506 40.3903 23.2051 37.945 C 20.1791 35.712 17.2008 33.4284 14.1282 31.1944 C 10.2332 28.2201 6.2905 25.2963 2.3489 22.321 C 2.3035 22.2684 2.2115 22.2148 2.1671 22.1107 C 1.7526 21.8952 1.7526 21.8952 2.133 21.5424 C 2.276 21.3907 2.5122 21.2411 2.7007 21.142 C 3.5047 20.592 4.2156 20.04 4.973 19.489 C 5.0207 19.4384 5.115 19.3889 5.2092 19.3393 C 5.3046 19.2382 5.3534 19.1361 5.5397 19.1402 C 5.5851 19.1928 5.6317 19.1938 5.6771 19.2464 Z"/><path id="ID0.36741714272648096" fill="#9EC397" stroke="none" stroke-width=".049" d="M 6.3857 18.7975 L 6.3857 18.7975 C 6.2415 19.0007 6.3801 19.0553 6.5175 19.1615 C 7.6636 20.012 8.8552 20.9152 10.0013 21.7657 C 11.3303 22.775 12.6605 23.7327 14.0815 24.7956 C 14.2643 24.9544 14.4517 24.9069 14.5937 24.8068 C 20.3691 20.5989 26.1435 16.4425 31.9655 12.2356 C 32.7229 11.6846 33.4804 11.1336 34.2389 10.531 C 34.3797 10.4825 34.5205 10.434 34.4319 10.2257 C 34.4785 10.2267 34.525 10.2277 34.5705 10.2803 C 34.6614 10.3855 34.6591 10.4886 34.7068 10.4381 C 34.8011 10.3885 34.7102 10.2834 34.7113 10.2318 C 35.0339 10.3936 34.7988 10.4917 34.7034 10.5928 C 32.9047 11.895 31.1548 13.0951 29.4492 14.3993 C 29.1664 14.5479 28.9756 14.7501 28.6929 14.8987 C 28.5498 15.0504 28.4544 15.1515 28.4488 15.4094 C 28.649 16.91 27.9723 18.0303 26.9753 18.8856 C 25.6944 19.9412 24.2408 20.3738 22.6996 20.5465 C 22.2329 20.588 21.7195 20.6283 21.2096 20.514 C 21.0233 20.51 20.929 20.5595 20.7871 20.6596 C 18.7056 22.1104 16.6219 23.6644 14.5858 25.1678 C 14.3973 25.2669 14.2576 25.2638 14.0736 25.1566 C 11.5076 23.1916 8.8939 21.2772 6.2825 19.2596 C 6.0984 19.1524 5.9587 19.1493 5.7714 19.1968 C 5.9156 18.9936 6.1063 18.7914 6.3857 18.7975 Z"/><path id="ID0.41995027801021934" fill="#9EC39C" stroke="none" stroke-width=".049" d="M 61.0788 29.4844 L 61.0788 29.4844 C 60.8925 29.4804 60.7517 29.5289 60.6098 29.629 C 56.2504 32.9907 51.8921 36.3008 47.535 39.5594 C 45.3559 41.2145 43.1767 42.8695 40.9976 44.5246 C 40.9033 44.5741 40.7625 44.6227 40.758 44.8289 C 40.7103 44.8795 40.6183 44.8259 40.5706 44.8764 C 40.2924 44.8188 40.3423 44.6651 40.5785 44.5155 C 42.0002 43.4114 43.4685 42.3084 44.9833 41.2063 C 45.5534 40.7028 46.1677 40.3035 46.7366 39.8515 C 46.8331 39.6989 46.9274 39.6493 46.8842 39.4936 C 46.7362 37.7362 47.4151 36.5127 48.6483 35.5077 C 50.1643 34.3541 51.8973 33.9276 53.6645 34.0693 C 54.1768 34.0805 54.5992 33.935 54.9796 33.5821 C 56.8749 32.1272 58.7224 30.7229 60.6165 29.3196 C 60.7585 29.2195 60.9481 29.0688 61.0833 29.2782 C 61.0367 29.2771 60.9436 29.2751 60.9436 29.2751 C 60.9402 29.4298 61.0333 29.4319 61.0788 29.4844 Z"/><path id="ID0.04491735249757767" fill="#466F6F" stroke="none" stroke-width=".049" d="M 22.8474 9.5085 L 22.8474 9.5085 C 22.8474 9.5085 22.8928 9.5611 22.8917 9.6127 C 22.7974 9.6622 22.9337 9.82 22.8395 9.8695 C 22.6987 9.918 22.5623 9.7603 22.4249 9.6541 C 22.0602 9.285 21.5525 9.0675 21.1879 8.6984 C 21.0504 8.5922 20.8642 8.5881 20.6757 8.6872 C 18.7816 10.0905 16.7943 11.4918 14.8536 12.8941 C 14.7594 12.9436 14.664 13.0448 14.5243 13.0417 C 14.3857 12.9871 14.1972 13.0862 14.0587 13.0315 C 14.1552 12.8789 14.2971 12.7788 14.4391 12.6787 C 15.0046 12.3815 15.4792 11.9791 16.047 11.5787 C 16.7091 11.1288 17.2802 10.5737 17.9411 10.1754 C 19.1222 9.4272 20.1646 8.6245 21.2525 7.8743 C 21.9622 7.3738 22.6708 6.9249 23.2896 6.3193 C 23.5225 6.3244 23.5735 6.1191 23.7132 6.1222 C 23.6644 6.2243 23.6167 6.2749 23.569 6.3254 C 23.4248 6.5286 23.6122 6.4811 23.6588 6.4822 C 23.6577 6.5337 23.6577 6.5337 23.6577 6.5337 C 23.1819 6.9877 22.6152 7.3365 22.094 7.7379 C 21.9066 7.7854 21.7636 7.937 21.6216 8.0371 C 21.29 8.2879 21.29 8.2879 21.6092 8.6044 C 22.0693 8.8724 22.4827 9.1394 22.8474 9.5085 Z"/><path id="ID0.7070380873046815" fill="#219A26" stroke="none" stroke-width=".049" d="M 72.7866 33.0936 L 72.7866 33.0936 C 72.6015 33.038 72.4663 32.8286 72.4708 32.6223 C 72.4753 32.4161 72.5718 32.2634 72.7603 32.1643 C 72.8534 32.1663 73.4021 32.6427 73.3089 32.6406 C 73.2113 32.8449 72.9751 32.9945 72.7866 33.0936 Z"/><path id="ID0.34469362488016486" fill="#219925" stroke="none" stroke-width=".049" d="M 30.3179 2.3451 L 30.3179 2.3451 C 30.1793 2.2905 29.8522 2.335 29.8556 2.1803 C 29.8612 1.9224 30.0963 1.8243 30.3314 1.7263 C 30.5642 1.7314 30.6994 1.9407 30.8811 2.151 C 30.9266 2.2036 30.8789 2.2542 30.7392 2.2511 C 30.6449 2.3007 30.5041 2.3492 30.3179 2.3451 Z"/><path id="ID0.30559320002794266" fill="#109917" stroke="none" stroke-width=".049" d="M 57.4733 43.1299 L 57.4733 43.1299 C 57.4677 43.3878 57.4643 43.5425 57.4121 43.7993 C 57.3588 44.1077 57.3997 44.3666 57.393 44.676 C 57.3874 44.9339 57.3385 45.036 57.1943 45.2392 C 56.5323 45.6891 55.8703 46.139 55.2525 46.6931 C 55.0163 46.8427 54.8301 46.8386 54.6006 46.6789 C 53.8668 46.1469 53.1319 45.6665 52.4447 45.1356 C 52.0778 44.8696 52.0801 44.7664 52.4593 44.4652 C 55.2539 42.3592 58.0497 40.2016 60.8454 38.0441 C 61.0816 37.8944 61.2247 37.7428 61.4996 37.9551 C 61.7756 38.1159 62.0505 38.3283 62.2334 38.4871 C 62.3708 38.5933 62.5082 38.6995 62.3652 38.8511 C 60.8004 40.1069 59.189 41.3616 57.6697 42.6699 C 57.4812 42.7689 57.4324 42.8711 57.4733 43.1299 Z"/><path id="ID0.5295059313066304" fill="#89BA85" stroke="none" stroke-width=".049" d="M 62.3652 38.8511 L 62.3652 38.8511 C 62.4151 38.6974 62.3242 38.5923 62.1857 38.5377 C 62.0028 38.3789 61.7279 38.1665 61.4984 38.0067 C 61.5473 37.9046 61.6825 38.1139 61.779 37.9612 C 62.1027 38.0715 62.3753 38.387 62.6979 38.5488 C 62.5105 38.5963 62.506 38.8026 62.3652 38.8511 Z"/><path id="ID0.8713681357912719" fill="#B0C7AB" stroke="none" stroke-width=".049" d="M 61.779 37.9612 L 61.779 37.9612 C 61.7778 38.0128 61.8233 38.0654 61.8221 38.117 C 61.729 38.1149 61.5916 38.0087 61.4984 38.0067 C 61.2679 37.8985 61.127 37.947 60.9374 38.0977 C 58.2836 40.1551 55.489 42.2611 52.7898 44.266 C 52.741 44.3681 52.6933 44.4187 52.6456 44.4692 C 52.1255 44.819 52.1255 44.819 52.6764 45.1922 C 53.3182 45.6706 54.0065 46.1499 54.6938 46.6809 C 54.8312 46.7871 54.9243 46.7891 55.0663 46.689 C 55.8237 46.138 56.5346 45.586 57.2454 45.034 C 57.3397 44.9844 57.343 44.8297 57.393 44.676 C 57.3997 44.3666 57.3588 44.1077 57.4121 43.7993 C 57.4474 44.316 57.4339 44.9349 57.3295 45.4485 C 57.2886 45.1897 57.191 45.3939 57.0967 45.4435 C 56.4336 45.9449 55.8635 46.4484 55.1992 47.0015 C 53.3539 48.3027 51.5529 49.708 49.7985 51.1144 C 49.5146 51.3146 49.2319 51.4632 48.948 51.6634 C 48.8549 51.6613 48.8571 51.5582 48.8594 51.4551 C 49.0944 51.357 49.0956 51.3054 48.8672 51.0941 C 46.6204 49.4456 44.3748 47.7456 42.2211 46.0991 C 41.6236 45.7249 41.0738 45.3002 40.5706 44.8764 C 40.5718 44.8249 40.4809 44.7197 40.4809 44.7197 C 40.6694 44.6206 40.6649 44.8269 40.758 44.8289 C 42.3187 45.8949 43.8761 47.1155 45.3436 48.1795 C 46.5806 49.1352 47.8199 49.9877 48.9637 50.9414 C 49.1932 51.1012 49.3329 51.1042 49.5691 50.9546 C 51.2281 49.6493 52.8383 48.4462 54.4031 47.1905 C 54.687 46.9903 54.6427 46.8862 54.4132 46.7264 C 53.634 46.1418 52.9002 45.6099 52.0733 45.0759 C 51.7996 44.8119 51.8938 44.7624 52.0846 44.5602 C 54.1218 43.0052 56.1113 41.5008 58.1496 39.8942 C 59.0024 39.2421 59.8529 38.6931 60.7068 37.9894 C 61.0872 37.6366 61.4143 37.5921 61.779 37.9612 Z"/><path id="ID0.9663079841993749" fill="#ABC6A5" stroke="none" stroke-width=".049" d="M 14.0587 13.0315 L 14.0587 13.0315 C 14.1984 13.0346 14.388 12.8839 14.5254 12.9901 C 14.379 13.2965 14.0974 13.3936 13.86 13.5948 C 13.3388 13.9961 12.8187 14.3459 12.2986 14.6958 C 12.0147 14.8959 12.0147 14.8959 12.2896 15.1083 C 12.9314 15.5867 13.4812 16.0114 14.0775 16.4372 C 14.3058 16.6486 14.4921 16.6526 14.7294 16.4514 C 17.4741 14.4991 20.313 12.4973 23.0577 10.545 C 23.3427 10.2933 23.3427 10.2933 23.0667 10.1324 C 22.9758 10.0273 22.8838 9.9737 22.8406 9.8179 C 22.7952 9.7654 22.7508 9.6612 22.7065 9.557 C 22.8008 9.5075 22.8451 9.6117 22.8917 9.6127 C 23.1211 9.7725 23.2586 9.8787 23.4891 9.9869 C 23.8549 10.3044 23.8549 10.3044 23.4768 10.5542 C 22.4831 11.2548 21.5361 11.9565 20.5425 12.6571 C 18.6495 14.0088 16.6622 15.4101 14.7216 16.8124 C 14.4842 17.0136 14.3434 17.0621 14.0685 16.8498 C 13.3813 16.3188 12.6464 15.8384 11.9603 15.2559 C 11.7308 15.0961 11.5435 15.1436 11.3549 15.2427 C 9.7924 16.3953 8.2299 17.5479 6.6685 18.6489 C 6.5742 18.6984 6.4334 18.7469 6.3857 18.7975 C 6.1506 18.8955 5.961 19.0462 5.7714 19.1968 C 5.7248 19.1958 5.6771 19.2464 5.6771 19.2464 C 5.6305 19.2454 5.5374 19.2433 5.5385 19.1917 C 5.7338 18.7833 6.1097 18.6367 6.4413 18.3859 C 7.2453 17.8359 8.0016 17.3365 8.7579 16.8371 C 10.4635 15.5328 12.2156 14.2296 14.0121 13.0305 C 14.0121 13.0305 14.0587 13.0315 14.0587 13.0315 Z"/><path id="ID0.5446630702354014" fill="#3D933F" stroke="none" stroke-width=".049" d="M 8.7579 16.8371 L 8.7579 16.8371 C 8.3775 17.1899 7.9073 17.386 7.4338 17.7369 C 6.8172 18.2394 6.1086 18.6882 5.5385 19.1917 C 5.3977 19.2403 5.3012 19.3929 5.2092 19.3393 C 5.4499 18.9834 5.8735 18.7863 6.1585 18.5345 C 6.9625 17.9846 7.7676 17.383 8.5239 16.8835 C 8.6182 16.834 8.667 16.7319 8.7579 16.8371 Z"/><path id="ID0.31647860957309604" fill="#3D933F" stroke="none" stroke-width=".049" d="M 4.973 19.489 L 4.973 19.489 C 4.261 20.0926 3.5036 20.6436 2.7007 21.142 C 2.8938 20.8367 3.222 20.7406 3.507 20.4889 C 3.8863 20.1876 4.3121 19.8873 4.6914 19.586 C 4.7856 19.5365 4.8799 19.4869 4.973 19.489 Z"/><path id="ID0.2570703998208046" fill="#CBC9C1" stroke="none" stroke-width=".049" d="M 53.7326 39.4883 L 53.7326 39.4883 C 53.5009 39.4316 53.2215 39.4255 53.2294 39.0645 C 53.2351 38.8067 53.5167 38.7096 53.7495 38.7147 C 54.0289 38.7208 54.2595 38.829 54.2539 39.0869 C 54.246 39.4479 54.0132 39.4428 53.7326 39.4883 Z"/><path id="ID0.17175840865820646" fill="#02570E" stroke="none" stroke-width=".049" d="M 22.8474 9.5085 L 22.8474 9.5085 C 22.2953 9.1869 21.8387 8.7642 21.2878 8.391 C 21.1492 8.3364 21.198 8.2343 21.2934 8.1332 C 22.0963 7.6347 22.8559 6.9806 23.6577 6.5337 C 23.9769 6.8503 24.3449 7.0647 24.7583 7.3317 C 25.1252 7.5976 25.1662 7.8565 24.788 8.1062 C 24.126 8.5561 23.5094 9.0586 22.8474 9.5085 Z"/><path id="ID0.2034925571642816" fill="#BEC6B6" stroke="none" stroke-width=".049" d="M 21.7731 16.0376 L 21.7731 16.0376 C 21.5869 16.0335 21.3552 15.9769 21.3154 15.6664 C 21.2744 15.4076 21.6037 15.26 21.8366 15.2651 C 22.0683 15.3217 22.3477 15.3278 22.3398 15.6888 C 22.2865 15.9972 22.0525 16.0437 21.7731 16.0376 Z"/><path id="ID0.5498614460229874" fill="#109817" stroke="none" stroke-width=".049" d="M 37.3756 26.9034 L 37.3756 26.9034 C 37.1894 26.8993 37.0929 27.052 37.1372 27.1562 C 37.1293 27.5171 36.8954 27.5636 36.7512 27.7669 C 35.6156 28.5676 34.4323 29.4189 33.3422 30.2722 C 33.106 30.4218 32.9663 30.4188 32.7369 30.259 C 31.7781 29.361 31.1931 28.4195 31.2234 27.0271 C 31.2482 25.8926 31.7807 24.9755 32.588 24.2708 C 34.2981 22.7603 36.2629 22.3904 38.4469 22.6444 C 39.5168 22.7194 40.581 23.0522 41.5931 23.6418 C 41.9145 23.8552 41.9134 23.9067 41.675 24.1595 C 40.4463 24.9582 39.3096 25.8105 38.1252 26.7134 C 37.8879 26.9146 37.5653 26.7527 37.3756 26.9034 Z"/><path id="ID0.6402569129131734" fill="#109817" stroke="none" stroke-width=".049" d="M 37.5913 31.9644 L 37.5913 31.9644 C 36.1955 31.8823 34.8507 31.595 33.6092 30.8456 C 33.2867 30.6838 33.2878 30.6322 33.6194 30.3814 C 34.7084 29.5797 35.8462 28.6758 36.9817 27.8751 C 37.1725 27.6729 37.3599 27.6254 37.5462 27.6294 C 38.0118 27.6396 38.1061 27.5901 38.1628 27.1269 C 38.1661 26.9722 38.2138 26.9217 38.3081 26.8721 C 39.5379 26.0219 40.77 25.0685 42.0009 24.1666 C 42.0963 24.0655 42.236 24.0686 42.3734 24.1748 C 43.105 24.8099 43.74 25.5976 43.9469 26.7888 C 44.1073 27.979 43.7134 28.9507 42.9958 29.8121 C 42.1351 30.8253 41.0529 31.3176 39.8809 31.6532 C 39.0836 31.8937 38.3364 31.9806 37.5913 31.9644 Z"/><path id="ID0.20605399878695607" fill="#1C9923" stroke="none" stroke-width=".049" d="M 45.2266 53.5428 L 45.2266 53.5428 C 45.2266 53.5428 45.2731 53.5438 45.2731 53.5438 C 45.4594 53.5478 45.6922 53.5529 45.8286 53.7107 C 45.8729 53.8148 45.7309 53.9149 45.6844 53.9139 C 45.4493 54.012 45.2551 54.3689 45.0291 54.0544 C 44.8916 53.9482 44.5668 53.8895 44.711 53.6863 C 44.7609 53.5326 44.9472 53.5367 45.18 53.5417 C 45.18 53.5417 45.2266 53.5428 45.2266 53.5428 Z"/><path id="ID0.8819565991871059" fill="#219A28" stroke="none" stroke-width=".049" d="M 3.0109 21.8711 L 3.0109 21.8711 C 3.0064 22.0774 2.9099 22.2301 2.676 22.2765 C 2.6294 22.2755 2.2182 21.9054 2.2193 21.8538 C 2.3181 21.598 2.5532 21.5 2.7417 21.4009 C 2.9745 21.406 2.9689 21.6638 3.0109 21.8711 Z"/><path id="ID0.31904000556096435" fill="#CEC9C5" stroke="none" stroke-width=".049" d="M 37.3756 26.9034 L 37.3756 26.9034 C 37.5153 26.9064 37.655 26.9095 37.7482 26.9115 C 37.8413 26.9136 38.0276 26.9176 38.0231 27.1239 C 38.0674 27.2281 38.0629 27.4343 37.8755 27.4818 C 37.687 27.5809 37.4541 27.5758 37.3167 27.4696 C 37.1338 27.3109 37.278 27.1076 37.3756 26.9034 Z"/><path id="ID0.3084885929711163" fill="#109817" stroke="none" stroke-width=".049" d="M 21.3083 20.2582 L 21.3083 20.2582 C 21.9227 19.8589 22.3973 19.4565 22.9174 19.1067 C 24.5731 17.9561 26.231 16.7024 27.8878 15.5003 C 27.982 15.4508 28.0297 15.4002 28.1228 15.4022 C 28.2614 15.4569 28.258 15.6116 28.2547 15.7663 C 28.2708 17.1597 27.551 18.1243 26.5085 18.927 C 25.2765 19.8805 23.9171 20.2635 22.4724 20.2836 C 22.1454 20.3281 21.724 20.4221 21.3083 20.2582 Z"/><path id="ID0.6188450930640101" fill="#109817" stroke="none" stroke-width=".049" d="M 54.0337 34.2322 L 54.0337 34.2322 C 53.7464 34.5871 53.3694 34.7852 53.1321 34.9864 C 51.2845 36.3908 49.4835 37.7961 47.6837 39.1499 C 47.5894 39.1994 47.5429 39.1984 47.4952 39.249 C 47.4475 39.2995 47.351 39.4522 47.2135 39.346 C 47.1215 39.2924 47.1715 39.1387 47.1726 39.0871 C 47.1121 37.5896 47.7865 36.5724 48.7835 35.717 C 50.3006 34.5119 52.1256 34.139 54.0337 34.2322 Z"/><path id="ID0.36349759763106704" fill="#0F9716" stroke="none" stroke-width=".049" d="M 22.8406 9.8179 L 22.8406 9.8179 C 23.4824 10.2963 23.4824 10.2963 22.8203 10.7462 C 20.1222 12.6995 17.4253 14.6013 14.7261 16.6061 C 14.4899 16.7558 14.3036 16.7517 14.0741 16.5919 C 13.4335 16.062 12.7451 15.5826 12.1034 15.1043 C 11.8739 14.9445 11.875 14.8929 12.1112 14.7433 C 12.8698 14.1407 13.7203 13.5917 14.5254 12.9901 C 14.6663 12.9416 14.7605 12.8921 14.8559 12.791 C 15.5134 12.5473 16.1676 12.4584 16.8694 12.319 C 17.7121 12.131 18.5525 12.0461 19.3509 11.754 C 19.5394 11.6549 19.7268 11.6074 19.8699 11.4557 C 20.7681 10.8562 21.5743 10.2031 22.4726 9.6035 C 22.5646 9.6571 22.7486 9.7643 22.8406 9.8179 Z"/><path id="ID0.736971874255687" fill="#02550C" stroke="none" stroke-width=".049" d="M 22.4726 9.6035 L 22.4726 9.6035 C 22.4681 9.8098 22.2807 9.8573 22.1864 9.9069 C 21.3813 10.5084 20.5285 11.1605 19.678 11.7095 C 19.1579 12.0593 18.506 12.0451 17.9893 12.2402 C 17.0535 12.4262 16.1177 12.6121 15.183 12.7465 C 15.0887 12.7961 14.9956 12.794 14.8559 12.791 C 15.3782 12.338 15.8983 11.9882 16.4184 11.6384 C 17.8379 10.6375 19.2097 9.6871 20.5825 8.6852 C 20.8664 8.485 21.0538 8.4375 21.2356 8.6478 C 21.6002 9.017 22.1079 9.2344 22.4726 9.6035 Z"/></g></g></g></g></g></g></g></g></svg>