<svg xmlns="http://www.w3.org/2000/svg" xmlns:xlink="http://www.w3.org/1999/xlink" width="24.336" height="18.939" version="1.1" viewBox="-0.402 -0.221 24.336 18.939"><g id="ID0.8559770211577415"><g id="ID0.5509724728763103"><g id="ID0.926967881154269"><g id="container-id1"><g id="id1"><g id="ID0.5499575794674456"><g id="ID0.7513383445329964"><g id="id6"><path id="ID0.7197263478301466" fill="none" stroke="none" stroke-width=".019" d="M 23.408 0.279 L 0.1167 0.279 L 0.1167 18.1981 L 23.408 18.1981 L 23.408 0.279 Z"/><path id="ID0.21323765255510807" fill="silver" stroke="none" stroke-width=".019" d="M 11.5643 15.286 L 11.5643 15.286 C 11.8284 15.1113 12.0735 14.9172 12.2998 14.7424 C 12.4884 14.6065 12.6582 14.4706 12.8279 14.3542 C 13.1674 14.1018 13.488 13.8688 13.8086 13.6358 C 14.1103 13.4029 14.4121 13.1699 14.7138 12.9369 C 14.8647 12.8205 15.0345 12.704 15.2042 12.5681 C 15.77 12.1604 16.3357 11.7527 16.9015 11.3256 C 16.9958 11.2479 17.0713 11.1897 17.1656 11.1314 C 17.4673 11.0149 17.7125 10.7626 17.9765 10.5684 C 18.0708 10.5102 18.1651 10.4325 18.2783 10.3743 C 18.5423 10.1801 18.6554 9.8889 18.9006 9.6754 C 19.1269 9.4618 19.3155 9.2289 19.4853 8.9571 C 19.6927 8.6076 19.9945 8.3552 20.3339 8.1805 C 20.5791 8.0252 20.8431 8.0446 21.0883 8.1999 C 21.3146 8.0252 21.5409 7.8505 21.7861 7.6951 C 21.9558 7.5592 22.1633 7.4039 22.333 7.2875 C 22.5216 7.1321 22.7102 6.9962 22.8799 6.8798 C 22.9365 6.8409 22.9554 6.8021 22.9931 6.7633 C 23.1063 6.608 23.2194 6.4332 23.3326 6.2779 C 23.3703 6.2391 23.3891 6.2003 23.408 6.142 C 23.408 6.0061 23.4269 5.8702 23.4269 5.7149 C 23.4457 5.6373 23.4269 5.579 23.3891 5.5208 C 23.276 5.249 23.1628 4.9772 23.0497 4.7054 C 23.012 4.5889 22.9177 4.5112 22.8422 4.3948 C 22.6725 4.1618 22.4839 3.9482 22.2953 3.7153 C 22.2387 3.657 22.1821 3.5988 22.1067 3.5405 C 21.5598 3.1717 21.0129 2.8028 20.4471 2.4339 C 19.9002 2.0651 19.3721 1.6962 18.8252 1.3273 C 18.6554 1.2109 18.4669 1.1526 18.2971 1.075 C 18.0519 0.9585 17.8068 0.842 17.5616 0.7255 C 17.3919 0.6478 17.2221 0.5702 17.0524 0.4925 C 16.9392 0.4537 16.8449 0.3955 16.7318 0.3566 C 16.6186 0.2984 16.5243 0.279 16.3923 0.3178 C 16.0906 0.4149 15.8077 0.4731 15.5248 0.5702 C 15.4682 0.5896 15.3928 0.5896 15.3362 0.5896 C 15.3173 0.609 15.2796 0.609 15.2608 0.6284 C 15.2608 0.6478 15.2608 0.6478 15.2608 0.6478 C 15.2419 0.6478 15.2419 0.6478 15.2419 0.6478 C 15.223 0.7643 15.3173 0.7643 15.3928 0.7837 C 15.8643 0.9391 16.3169 1.0944 16.7884 1.2109 C 17.373 1.3468 17.8822 1.6185 18.3914 1.9098 C 19.1647 2.2204 19.787 2.8028 20.4094 3.327 C 20.6357 3.5405 20.8431 3.7541 20.994 4.0453 C 21.1449 4.3365 21.3335 4.6277 21.5221 4.9578 C 21.3146 4.9578 21.126 4.9189 20.9563 4.8995 C 20.2774 4.783 19.5984 4.686 18.9006 4.5889 C 18.8252 4.5695 18.7686 4.5501 18.6932 4.6083 C 18.6743 4.6083 18.6743 4.6471 18.6743 4.6666 C 18.712 4.7054 18.7686 4.7248 18.8063 4.7248 C 19.4098 4.9772 19.9945 5.249 20.598 5.4625 C 20.6545 5.5014 20.7488 5.5014 20.7677 5.579 C 20.7866 5.6567 20.6923 5.6955 20.6357 5.7343 C 19.3721 6.6468 18.1462 7.5592 16.9015 8.4911 C 15.9586 9.1706 15.0345 9.8695 14.1103 10.549 C 13.3937 11.0732 12.677 11.6168 11.9038 12.1604 C 11.9227 11.9662 11.9981 11.7915 12.0358 11.6362 C 12.1301 11.3256 12.2244 11.0149 12.3187 10.7237 C 12.3376 10.6461 12.3564 10.5684 12.3564 10.5102 C 12.3564 10.4519 12.3376 10.3937 12.3187 10.3549 C 12.2998 10.3355 12.281 10.3355 12.281 10.3355 C 12.2433 10.3549 12.2433 10.3743 12.2244 10.3937 C 12.2244 10.4131 12.2055 10.4325 12.2055 10.4519 C 12.1867 10.4714 12.1867 10.5102 12.1867 10.5296 C 12.1678 10.549 12.1678 10.5684 12.1678 10.5684 C 12.149 10.6073 12.149 10.6267 12.1301 10.6655 C 12.1301 10.6849 12.1301 10.6849 12.1113 10.7043 C 12.0924 10.7432 12.0735 10.7626 12.0547 10.8014 C 11.8284 11.3644 11.6398 11.9274 11.4135 12.4904 C 11.1683 12.7428 10.8665 12.9369 10.5836 13.1311 C 9.0938 14.2571 7.585 15.3249 6.0951 16.4315 C 6.0008 16.5091 5.9065 16.5868 5.9065 16.7033 C 5.9065 16.8197 5.9254 16.9168 5.982 17.0333 C 6.0574 17.3051 6.0951 17.5575 6.0763 17.8293 C 6.0763 17.9458 6.0763 18.0428 6.1517 18.1011 C 6.2837 18.1787 6.4346 18.1593 6.5855 18.2176 C 6.6232 18.2176 6.6609 18.1981 6.6986 18.1787 C 6.7741 18.1399 6.8495 18.1011 6.9061 18.0428 C 7.0947 18.0428 7.2267 17.9263 7.3776 17.8293 C 7.7547 17.6157 8.1319 17.3828 8.4903 17.1692 C 8.6223 17.111 8.7166 17.0333 8.792 16.9168 C 8.8297 16.8586 8.8486 16.8197 8.8863 16.7809 C 9.2823 16.4121 9.6218 16.0044 9.999 15.6161 C 10.263 15.3443 10.5648 15.1501 10.9231 15.0725 C 11.1494 15.0337 11.3757 15.0142 11.5078 15.2666 C 11.5266 15.286 11.5643 15.286 11.5643 15.286 Z"/><path id="ID0.5980842281132936" fill="#B2B2B2" stroke="none" stroke-width=".019" d="M 11.9792 2.5698 L 11.9792 2.5698 C 11.7906 2.6863 11.5832 2.861 11.3946 2.9775 C 10.8665 3.3658 10.3196 3.7541 9.7915 4.1424 C 9.3955 4.4142 9.0183 4.7054 8.6223 4.9772 C 8.4714 5.0937 8.3205 5.1907 8.1696 5.3072 C 8.1131 5.346 8.0565 5.3655 8.0942 5.4431 C 8.3394 5.7926 8.6977 6.045 8.9995 6.3556 C 9.2635 6.608 9.5464 6.8409 9.8104 7.1127 C 9.9236 7.2292 10.0367 7.3263 10.1687 7.3845 C 10.9985 7.8116 11.7906 8.2387 12.6393 8.6464 C 12.7148 8.6853 12.7902 8.7241 12.8656 8.7047 C 13.1485 8.5882 13.3937 8.3746 13.6577 8.1805 C 15.0533 7.1127 16.4866 6.1032 17.8822 5.0742 C 18.1085 4.8995 18.3348 4.783 18.4857 4.5889 C 18.448 4.3948 18.2971 4.2783 18.2028 4.123 C 17.7313 3.4629 17.0713 3.0164 16.4489 2.5116 C 16.4112 2.5116 16.3923 2.4922 16.3735 2.4922 C 16.3546 2.4728 16.3546 2.4728 16.3357 2.4534 C 16.298 2.4534 16.298 2.4534 16.2603 2.4339 C 16.2415 2.4145 16.2415 2.4145 16.2226 2.3951 C 16.2037 2.3951 16.1849 2.3951 16.1849 2.3757 C 16.166 2.3757 16.1472 2.3563 16.1283 2.3563 C 15.9774 2.2786 15.8265 2.201 15.6945 2.1039 C 15.1476 1.735 14.5252 1.5603 13.9029 1.3468 C 13.8275 1.3273 13.7709 1.3079 13.6954 1.3273 C 13.488 1.4827 13.2805 1.638 13.0542 1.7739 C 12.6959 2.0457 12.3376 2.298 11.9792 2.5698 Z"/><path id="ID0.20991120440885425" fill="#262626" stroke="none" stroke-width=".019" d="M 11.5643 15.286 L 11.5643 15.286 C 11.5643 15.2666 11.5455 15.2472 11.5266 15.2084 C 11.47 15.0337 11.3003 14.9948 11.1306 14.9948 C 10.9231 15.0142 10.6968 15.0337 10.5271 15.189 C 10.263 15.286 10.0556 15.4802 9.8481 15.6743 C 9.735 15.7908 9.6218 15.9267 9.5464 16.0626 C 9.4898 16.1597 9.4332 16.1985 9.3578 16.2567 C 9.1503 16.4315 8.9429 16.6256 8.792 16.8197 C 8.6977 16.9556 8.6034 17.0527 8.4714 17.1498 C 8.4714 17.2469 8.5468 17.3051 8.6034 17.3633 C 8.8297 17.4992 9.056 17.674 9.2635 17.8293 C 9.4332 17.9263 9.603 17.9846 9.8104 17.9458 C 9.8104 17.9458 9.8104 17.9458 9.8293 17.9458 C 10.0744 17.8875 10.2819 17.771 10.4893 17.6157 C 10.6214 17.5187 10.7157 17.4022 10.81 17.2857 C 11.074 17.0333 11.2437 16.7227 11.4135 16.4121 C 11.5643 16.0626 11.6209 15.6743 11.5643 15.286 Z"/><path id="ID0.7878994774073362" fill="#262626" stroke="none" stroke-width=".019" d="M 21.0883 8.1999 L 21.0883 8.1999 C 21.0129 8.064 20.862 8.0446 20.7488 8.0058 C 20.73 7.9864 20.6923 8.0058 20.6734 8.0252 C 20.5791 8.0252 20.4848 8.064 20.4094 8.0834 C 20.3528 8.0834 20.3339 8.1028 20.2962 8.1223 C 20.1076 8.2776 19.9002 8.3941 19.7304 8.5882 C 19.5418 8.8017 19.3721 9.0153 19.2589 9.2483 C 19.2212 9.2871 19.2024 9.3259 19.1647 9.3648 C 18.9195 9.5589 18.712 9.8113 18.5046 10.0637 C 18.448 10.1607 18.3348 10.2384 18.2783 10.3355 C 18.2783 10.4131 18.3348 10.4519 18.3914 10.4908 C 18.58 10.6267 18.7686 10.7626 18.9761 10.879 C 19.1269 10.9761 19.3155 11.0149 19.4853 10.9567 C 19.8624 10.8985 20.1265 10.6461 20.3716 10.3743 C 20.5791 10.1607 20.7488 9.8889 20.8997 9.6171 C 20.9563 9.5395 20.994 9.4424 21.0129 9.3648 C 21.0506 9.2677 21.0694 9.1512 21.126 9.0347 C 21.1449 8.9765 21.1637 8.8794 21.1637 8.8017 C 21.1826 8.5882 21.1826 8.3941 21.0883 8.1999 Z"/><path id="ID0.5798938474617898" fill="#C4C4F5" stroke="none" stroke-width=".019" d="M 13.6954 1.3273 L 13.6954 1.3273 C 14.1103 1.4827 14.5441 1.6185 14.959 1.7739 C 15.1476 1.8321 15.3173 1.9486 15.5059 2.0651 C 15.7322 2.1816 15.9586 2.298 16.1849 2.4145 C 16.2037 2.2786 16.3169 2.2204 16.4678 2.1816 C 16.8638 2.0457 17.2976 2.0068 17.7313 1.968 C 17.9388 1.9486 18.184 1.9874 18.4103 1.8709 C 18.2783 1.7544 18.0897 1.6962 17.9388 1.6185 C 17.8634 1.5603 17.7879 1.5409 17.7313 1.5021 C 17.5427 1.3856 17.3353 1.3079 17.1278 1.2497 C 16.6186 1.0944 16.1283 0.9391 15.638 0.8032 C 15.5248 0.7643 15.4116 0.7449 15.3173 0.7061 C 15.2796 0.7061 15.2608 0.6673 15.2419 0.6478 C 15.2042 0.6284 15.1665 0.6478 15.1287 0.6478 C 14.8459 0.7837 14.5441 0.9391 14.2612 1.0555 C 14.0726 1.1526 13.884 1.2303 13.6954 1.3273 Z"/><path id="ID0.737728176638484" fill="#7F7F7F" stroke="none" stroke-width=".019" d="M 0.8334 13.7329 L 0.8334 13.7329 C 0.6825 13.7135 0.5316 13.6941 0.3619 13.6941 C 0.3053 13.6941 0.2299 13.7135 0.0978 13.7912 C 0.211 13.8688 0.3242 13.9659 0.4373 14.0435 C 0.7202 14.2377 0.9842 14.4318 1.2671 14.6454 C 1.3991 14.723 1.5312 14.8201 1.6632 14.9172 C 2.0404 15.189 2.4175 15.4413 2.7759 15.7326 C 3.021 15.8879 3.2474 16.0626 3.4925 16.2179 C 3.9451 16.5285 4.3789 16.8586 4.8315 17.1886 C 5.0956 17.3828 5.3973 17.5575 5.6425 17.7904 C 5.6425 17.7904 5.6425 17.7904 5.6425 17.7904 C 5.6613 17.7904 5.6802 17.8099 5.6991 17.8293 C 5.6991 17.8293 5.7179 17.8293 5.7368 17.8293 C 5.7556 17.8487 5.7556 17.8487 5.7745 17.8681 C 5.7934 17.8681 5.7934 17.8681 5.7934 17.8681 C 5.7934 17.8875 5.8122 17.8875 5.8122 17.8875 C 5.8311 17.9069 5.8499 17.9069 5.8499 17.9263 C 5.9631 17.8681 5.8688 17.8099 5.8499 17.771 C 5.6425 17.5381 5.4728 17.2857 5.2464 17.0721 C 4.9636 16.8197 4.6995 16.5868 4.4732 16.2567 C 3.3416 15.4608 2.2289 14.6454 1.0785 13.8494 C 1.0219 13.7912 0.9465 13.7135 0.8334 13.7329 Z"/><path id="ID0.8244834863580763" fill="#A3A2A2" stroke="none" stroke-width=".019" d="M 4.4355 16.2567 L 4.4355 16.2567 C 4.4355 16.3344 4.4921 16.3926 4.5486 16.4509 C 4.775 16.6838 5.0013 16.9168 5.2464 17.1498 C 5.4728 17.3828 5.6613 17.6157 5.8688 17.8487 C 5.9065 17.8875 5.8877 17.9069 5.8499 17.9263 C 5.9254 18.0234 6.0197 18.0817 6.1517 18.1011 C 6.1517 17.9263 6.1517 17.7322 6.1517 17.5381 C 6.1517 17.4216 6.114 17.3245 6.0763 17.208 C 6.0197 17.0333 5.982 16.8392 5.9442 16.6644 C 5.9065 16.5868 5.8499 16.548 5.7556 16.5285 C 5.3785 16.4315 5.0013 16.3538 4.6241 16.2373 C 4.5486 16.2373 4.4921 16.2373 4.4355 16.2567 Z"/><path id="ID0.9958756691776216" fill="#C4C4F5" stroke="none" stroke-width=".019" d="M 15.2608 0.6284 L 15.2608 0.6284 C 15.2985 0.6478 15.3173 0.6284 15.3362 0.5896 C 15.3173 0.5896 15.2796 0.5896 15.2608 0.6284 Z"/><path id="ID0.17204775055870414" fill="#929292" stroke="none" stroke-width=".019" d="M 5.6991 17.8293 L 5.6991 17.8293 C 5.6991 17.7904 5.6802 17.771 5.6425 17.7904 C 5.6613 17.8099 5.6802 17.8293 5.6991 17.8293 Z"/><path id="ID0.0728209507651627" fill="#A3A2A2" stroke="none" stroke-width=".019" d="M 5.7745 17.8681 L 5.7745 17.8681 C 5.7745 17.8293 5.7556 17.8293 5.7368 17.8293 C 5.7556 17.8681 5.7556 17.8681 5.7745 17.8681 Z"/><path id="ID0.35263131419196725" fill="#A3A2A2" stroke="none" stroke-width=".019" d="M 5.8122 17.8875 L 5.8122 17.8875 C 5.8122 17.8875 5.8122 17.8681 5.7934 17.8681 C 5.7934 17.8875 5.7934 17.9069 5.8122 17.8875 Z"/><path id="ID0.30188264790922403" fill="#B2B2B2" stroke="none" stroke-width=".019" d="M 4.4355 16.2567 L 4.4355 16.2567 C 4.8693 16.3732 5.303 16.4703 5.7556 16.5868 C 5.8122 16.6062 5.8688 16.6256 5.9442 16.6644 C 5.982 16.6062 6.0197 16.548 6.0763 16.5285 C 6.3026 16.3538 6.5477 16.1791 6.7929 16.0044 C 7.0947 15.7714 7.4153 15.519 7.7359 15.286 C 7.9433 15.1307 8.1696 14.9948 8.3771 14.8201 C 8.7354 14.5677 9.0938 14.3153 9.4332 14.0435 C 9.5464 13.9659 9.6595 13.8688 9.7727 13.7912 C 10.0933 13.5776 10.4139 13.3252 10.7157 13.0923 C 10.942 12.9369 11.1683 12.7816 11.3757 12.6069 C 11.4135 12.6069 11.4323 12.5681 11.47 12.5487 C 11.1494 12.3545 10.81 12.2186 10.4705 12.0439 C 9.6595 11.6944 8.8674 11.3062 8.0565 10.9567 C 7.8113 10.8596 7.6039 10.7432 7.4153 10.5296 C 6.9249 10.0248 6.4157 9.5201 5.9254 8.9959 C 5.6425 8.6853 5.3596 8.3552 5.039 8.064 C 5.039 8.0446 5.0013 8.0252 4.9824 8.0252 C 4.9824 8.0252 4.9824 8.0252 4.9636 8.0252 C 4.7372 8.2387 4.5109 8.4523 4.2846 8.6464 C 3.9074 9.0347 3.5114 9.4036 3.1342 9.7724 C 2.8702 10.0248 2.625 10.2772 2.3421 10.5296 C 2.0404 10.8402 1.7197 11.1314 1.418 11.4226 C 1.3426 11.5003 1.2671 11.578 1.1917 11.6362 C 0.9277 11.8886 0.6636 12.1604 0.3996 12.4128 C 0.3619 12.4322 0.3242 12.4904 0.3053 12.5098 C 0.2676 12.5487 0.2676 12.6069 0.2676 12.6457 C 0.4184 12.8981 0.5316 13.1505 0.6825 13.4029 C 0.7391 13.5194 0.7768 13.6358 0.8334 13.7329 C 1.0974 13.9076 1.3803 14.1018 1.6443 14.2959 C 2.1346 14.6454 2.6439 15.0142 3.1342 15.3831 C 3.4548 15.6161 3.7754 15.8296 4.096 16.0432 C 4.1526 16.1014 4.228 16.1403 4.3035 16.1985 C 4.3223 16.2373 4.3789 16.2373 4.4355 16.2567 Z"/><path id="ID0.6365372873842716" fill="#9797BD" stroke="none" stroke-width=".019" d="M 5.0013 8.0834 L 5.0013 8.0834 C 5.0767 8.1611 5.1521 8.2387 5.2276 8.297 C 5.982 9.1124 6.7552 9.9083 7.5096 10.7237 C 7.5661 10.7626 7.6227 10.8208 7.6793 10.8402 C 7.7925 10.879 7.8868 10.9567 8.0376 10.9761 C 8.0565 10.8596 7.9811 10.8402 7.9056 10.8014 C 7.7736 10.7237 7.7547 10.6267 7.849 10.5102 C 7.9056 10.4131 7.9622 10.3355 8.0188 10.2384 C 8.66 9.4424 9.2069 8.5882 9.8293 7.734 C 9.9236 7.5981 10.0556 7.4816 10.1687 7.3457 C 10.0744 7.2875 9.9801 7.2098 9.8858 7.1127 C 9.3201 6.5885 8.7731 6.045 8.2074 5.5208 C 8.1696 5.4819 8.1319 5.4625 8.0942 5.4431 C 8.0565 5.4431 7.9999 5.4043 7.9811 5.4625 C 7.849 5.5596 7.717 5.6373 7.6039 5.7537 C 7.3587 5.9673 7.1512 6.1614 6.9061 6.3556 C 6.7175 6.4915 6.5289 6.6856 6.3403 6.8409 C 6.1517 6.9962 5.982 7.1516 5.7934 7.2875 C 5.6991 7.3651 5.6236 7.4622 5.5293 7.501 C 5.3596 7.6369 5.2087 7.7728 5.0767 7.9087 C 5.039 7.9475 5.0013 7.9864 4.9636 8.0252 C 4.9636 8.0252 4.9636 8.0252 4.9636 8.0252 C 4.9824 8.0252 5.0013 8.0446 5.0013 8.0834 Z"/><path id="ID0.8802320300601423" fill="#EFEFFF" stroke="none" stroke-width=".019" d="M 18.4669 4.5695 L 18.4669 4.5695 C 17.9954 4.9189 17.505 5.2684 17.0335 5.6373 C 16.5621 5.9673 16.0717 6.3167 15.5814 6.6856 C 15.1099 7.0351 14.6384 7.3845 14.1481 7.734 C 13.7332 8.0446 13.3182 8.3552 12.8845 8.6658 C 12.8845 8.6658 12.8845 8.6853 12.8656 8.7047 C 12.677 8.8406 12.7148 9.093 12.6205 9.2677 C 12.5639 9.5201 12.4884 9.7724 12.413 10.0248 C 12.3564 10.1801 12.3376 10.3355 12.3187 10.4714 C 12.2998 10.549 12.281 10.6073 12.281 10.6655 C 12.2055 10.8985 12.149 11.1314 12.0735 11.3644 C 12.017 11.5585 11.9604 11.7721 11.8849 11.9856 C 11.8661 12.0439 11.8472 12.0827 11.8472 12.1215 C 11.8472 12.1604 11.8284 12.2186 11.8472 12.238 C 11.9038 12.2769 11.9227 12.2186 11.9604 12.1992 C 12.3187 11.9274 12.677 11.675 13.0354 11.4032 C 13.3371 11.1897 13.6011 10.9761 13.9029 10.7626 C 14.3555 10.4325 14.8081 10.0831 15.2796 9.753 C 15.5437 9.5395 15.8265 9.3453 16.1094 9.1318 C 16.4678 8.8794 16.8449 8.5882 17.2033 8.3358 C 17.4673 8.1223 17.7313 7.9281 18.0142 7.734 C 18.3914 7.4622 18.7686 7.171 19.1458 6.8992 C 19.4287 6.6662 19.7304 6.4526 20.0322 6.2197 C 20.2774 6.045 20.5225 5.8702 20.7677 5.6955 C 20.8054 5.6567 20.8809 5.6373 20.8997 5.5596 C 20.7677 5.4625 20.6357 5.4237 20.4848 5.3655 C 20.2019 5.249 19.9002 5.1325 19.5984 5.016 C 19.3344 4.8995 19.0704 4.783 18.8063 4.7054 C 18.7686 4.6666 18.712 4.7054 18.6932 4.6471 C 18.6932 4.6666 18.6932 4.6666 18.6932 4.6666 C 18.6366 4.5695 18.58 4.5112 18.4669 4.5695 Z"/><path id="ID0.09237040393054485" fill="#A0A0C8" stroke="none" stroke-width=".019" d="M 12.677 9.2677 L 12.677 9.2677 C 12.7336 9.19 12.7336 9.093 12.7525 9.0347 C 12.7902 8.9182 12.809 8.8017 12.8656 8.7047 C 12.677 8.627 12.4696 8.5299 12.281 8.4135 C 11.6209 8.0834 10.9608 7.734 10.2819 7.3845 C 10.263 7.3845 10.2065 7.3651 10.1687 7.3457 C 10.1499 7.3651 10.1122 7.3845 10.0933 7.3845 C 10.0179 7.4039 9.9801 7.4622 9.9424 7.501 C 9.7161 7.8505 9.4898 8.1805 9.2258 8.4911 C 9.056 8.7435 8.8674 8.9765 8.6977 9.2483 C 8.6411 9.3065 8.6034 9.3842 8.5468 9.4424 C 8.4714 9.5977 8.3771 9.7142 8.2639 9.8501 C 8.0565 10.0637 7.8868 10.316 7.7547 10.5684 C 7.6982 10.6655 7.717 10.6849 7.7736 10.7626 C 7.8113 10.8014 7.8302 10.8402 7.8868 10.8596 C 7.9622 10.8596 7.9999 10.8985 8.0376 10.9761 C 8.0565 10.9955 8.0753 11.0149 8.1131 11.0149 C 8.4903 11.2091 8.8863 11.3838 9.2635 11.578 C 9.603 11.7139 9.9236 11.8692 10.263 12.0245 C 10.6214 12.1798 10.9608 12.3351 11.3003 12.5098 C 11.3569 12.5292 11.4135 12.5487 11.47 12.5487 C 11.6209 12.1021 11.7906 11.6556 11.9604 11.1897 C 11.9981 11.0538 12.0547 10.8985 12.1113 10.7626 C 12.1301 10.7432 12.1301 10.7043 12.149 10.6849 C 12.149 10.6849 12.149 10.6849 12.149 10.6849 C 12.1867 10.6461 12.149 10.5878 12.1867 10.5684 C 12.1867 10.5684 12.1867 10.5684 12.1867 10.5684 C 12.2244 10.5102 12.1867 10.4519 12.2433 10.4325 C 12.2433 10.4325 12.2433 10.4325 12.2433 10.4325 C 12.2433 10.3937 12.2433 10.3743 12.2621 10.3355 C 12.2621 10.3355 12.2621 10.3355 12.2621 10.3355 C 12.4319 10.0831 12.4696 9.7724 12.5827 9.5007 C 12.6205 9.423 12.6393 9.3259 12.677 9.2677 Z"/><path id="ID0.49335492216050625" fill="#D1D1FF" stroke="none" stroke-width=".019" d="M 18.4669 4.5695 L 18.4669 4.5695 C 18.5423 4.5695 18.5989 4.6471 18.6932 4.6666 C 18.7497 4.5889 18.8252 4.6083 18.8818 4.6277 C 19.1081 4.686 19.3532 4.7054 19.5984 4.7442 C 19.7116 4.7636 19.8624 4.783 19.9756 4.8025 C 20.1265 4.8219 20.2396 4.8413 20.3716 4.8607 C 20.7111 4.9189 21.0506 4.9578 21.3712 5.016 C 21.4466 5.016 21.4844 5.0548 21.5598 5.0354 C 21.5786 5.0354 21.6164 5.016 21.5975 4.9966 C 21.5409 4.8995 21.4844 4.783 21.4278 4.6666 C 21.2392 4.3753 21.0694 4.0647 20.8997 3.7541 C 20.8431 3.6764 20.7866 3.5988 20.7111 3.5405 C 20.2962 3.1717 19.8624 2.8028 19.4287 2.4145 C 19.391 2.3757 19.3532 2.3563 19.2967 2.3175 C 19.0138 2.1816 18.7497 2.0262 18.4669 1.8903 C 18.448 1.8903 18.4291 1.8709 18.4103 1.8709 C 18.3348 1.8709 18.2405 1.8709 18.1651 1.8903 C 17.9199 1.9098 17.6748 1.8903 17.4296 1.9486 C 17.3919 1.9486 17.3542 1.9486 17.3353 1.9486 C 16.9581 1.9486 16.6186 2.0651 16.2792 2.1816 C 16.2603 2.1816 16.2415 2.1816 16.2415 2.1816 C 16.1472 2.2204 16.1283 2.2398 16.1472 2.3563 C 16.166 2.3757 16.166 2.3951 16.1849 2.4145 C 16.1849 2.4145 16.1849 2.4145 16.1849 2.4145 C 16.1849 2.4339 16.2037 2.4339 16.2226 2.4534 C 16.2226 2.4534 16.2415 2.4534 16.2415 2.4534 C 16.2603 2.4534 16.298 2.4728 16.298 2.4922 C 16.3169 2.5116 16.3169 2.5116 16.3169 2.5116 C 16.3357 2.5116 16.3357 2.5116 16.3357 2.5116 C 16.3546 2.5116 16.3546 2.5116 16.3735 2.531 C 16.6375 2.6863 16.8449 2.9193 17.0901 3.094 C 17.2599 3.2299 17.3919 3.3658 17.5616 3.4823 C 17.6936 3.5794 17.7879 3.6959 17.8822 3.8123 C 18.0897 4.0647 18.2783 4.3365 18.4669 4.5695 Z"/><path id="ID0.2465158523991704" fill="silver" stroke="silver" stroke-width=".038" d="M 12.677 9.2677 L 12.677 9.2677 C 12.6582 9.2677 12.6205 9.2871 12.6205 9.3259 C 12.5073 9.6365 12.3941 9.9472 12.281 10.2772 C 12.2621 10.2966 12.2621 10.3355 12.2621 10.3355 C 12.3187 10.3743 12.2998 10.4325 12.3187 10.4714 C 12.3941 10.3937 12.3941 10.2772 12.4319 10.1996 C 12.5073 9.9083 12.5827 9.6171 12.677 9.3259 C 12.677 9.3065 12.677 9.2677 12.677 9.2677 Z"/><path id="ID0.09684816189110279" fill="#EE4854" stroke="none" stroke-width=".019" d="M 12.2433 10.4325 L 12.2433 10.4325 C 12.1867 10.4519 12.1867 10.5102 12.1867 10.5684 C 12.2433 10.5296 12.2433 10.4714 12.2433 10.4325 Z"/><path id="ID0.03953919326886535" fill="#D1D1FF" stroke="none" stroke-width=".019" d="M 18.6932 4.6471 L 18.6932 4.6471 C 18.712 4.7054 18.7497 4.7054 18.8063 4.7054 C 18.7686 4.6666 18.7309 4.6666 18.6932 4.6471 Z"/><path id="ID0.6693325778469443" fill="#EE4854" stroke="silver" stroke-width=".038" d="M 12.1867 10.5684 L 12.1867 10.5684 C 12.149 10.5878 12.1301 10.6267 12.149 10.6849 C 12.1867 10.6461 12.1867 10.6073 12.1867 10.5684 Z"/><path id="ID0.48581429896876216" fill="#EE4854" stroke="none" stroke-width=".019" d="M 12.149 10.6849 L 12.149 10.6849 C 12.1113 10.7043 12.1113 10.7432 12.1113 10.7626 C 12.1301 10.7432 12.1678 10.7237 12.149 10.6849 Z"/><path id="ID0.2356218732893467" fill="#EE4854" stroke="none" stroke-width=".019" d="M 12.2621 10.3355 L 12.2621 10.3355 C 12.2433 10.3743 12.2244 10.3937 12.2433 10.4325 C 12.2621 10.4131 12.281 10.3937 12.2621 10.3355 Z"/><path id="ID0.06790122808888555" fill="#C4C4F5" stroke="none" stroke-width=".019" d="M 16.3735 2.531 L 16.3735 2.531 C 16.3735 2.5116 16.3546 2.5116 16.3357 2.5116 C 16.3546 2.5116 16.3546 2.531 16.3735 2.531 Z"/><path id="ID0.09332878701388836" fill="#C4C4F5" stroke="none" stroke-width=".019" d="M 16.298 2.4922 L 16.298 2.4922 C 16.298 2.4728 16.2792 2.4534 16.2415 2.4534 C 16.2603 2.4922 16.2792 2.4922 16.298 2.4922 Z"/><path id="ID0.17643386032432318" fill="#C4C4F5" stroke="none" stroke-width=".019" d="M 16.2226 2.4534 L 16.2226 2.4534 C 16.2037 2.4339 16.1849 2.4145 16.1849 2.4145 C 16.1849 2.4534 16.1849 2.4534 16.2226 2.4534 Z"/><path id="ID0.6944350725971162" fill="#929292" stroke="none" stroke-width=".019" d="M 5.0013 8.0834 L 5.0013 8.0834 C 5.0013 8.0446 4.9824 8.0252 4.9636 8.0252 C 4.9824 8.0446 4.9824 8.064 5.0013 8.0834 Z"/></g></g></g></g></g></g></g></g></svg>