<svg version="1.1" xmlns="http://www.w3.org/2000/svg" xmlns:xlink="http://www.w3.org/1999/xlink" width="86.017" height="65.9746" viewBox="0,0,86.017,65.9746"><g transform="translate(-196.5575,-147.2651)"><g data-paper-data="{&quot;isPaintingLayer&quot;:true}" fill-rule="nonzero" stroke="none" stroke-linecap="butt" stroke-linejoin="miter" stroke-miterlimit="10" stroke-dasharray="" stroke-dashoffset="0" style="mix-blend-mode: normal"><path d="M239.566,147.2651l43.0085,32.9873l-43.0085,32.9873l-43.0085,-32.9873zM196.5575,147.2651zM282.5745,213.2397z" fill="#70a12e" stroke-width="0.04598"/><path d="M248.53317,193.51271c1.94202,0 3.70318,0.4981 4.97809,1.30308c1.27491,0.80498 2.06358,1.91682 2.06358,3.14429c0,1.22747 -0.78867,2.33931 -2.06358,3.14429c-1.27491,0.80498 -3.03607,1.30307 -4.97809,1.30307c-1.94202,0 -3.70317,-0.4981 -4.97808,-1.30307c-1.27491,-0.80498 -2.06358,-1.91682 -2.06358,-3.14429c0,-1.22747 0.78867,-2.33931 2.06358,-3.14429c1.27491,-0.80498 3.03606,-1.30308 4.97808,-1.30308z" fill="#66942b" stroke-width="1"/><g stroke-width="1"><path d="M239.40905,186.58118c-0.79592,0.22999 -0.99963,0.1272 -1.2589,-0.74392c-0.23878,-0.8023 -0.66348,-1.55525 -0.69771,-2.41199c-0.04217,-1.05522 -0.02501,-2.10274 0.63842,-3.01519c0.11189,-0.15389 0.17027,-0.3466 0.25337,-0.52138c0.34556,-0.09343 0.64797,-0.32104 1.02187,-0.32884c0.45684,0.11758 0.78983,0.50008 1.28384,0.56578c0.21334,0.02838 0.26187,0.26343 0.12735,0.4754c-0.43541,0.68615 -0.26254,1.39027 -0.02878,2.08042c0.10813,0.31924 0.27499,0.61825 0.30016,0.96344c-0.20196,0.80569 -0.62113,1.50589 -1.06916,2.19193c-0.17489,0.25947 -0.42266,0.46353 -0.57043,0.74435z" fill="#7d962f"/><path d="M248.94638,176.20578c0.72852,0.3975 1.33965,0.89354 1.83873,1.59254c0.46413,0.65006 0.77947,1.43621 1.51707,1.88776c0.32957,0.20176 0.51002,0.54762 0.46686,0.96687c-0.0491,0.47691 0.31497,0.87635 0.25738,1.35684c-0.01142,0.0953 0.10939,0.20784 -0.0262,0.28663c-0.13229,0.07687 -0.23955,0.00105 -0.3384,-0.08116c-0.29833,-0.24806 -0.59562,-0.49736 -0.9152,-0.76446c-0.17443,0.46284 -0.13768,0.84086 0.11072,1.19852c0.50817,0.73173 0.03473,1.48592 0.04533,2.22914c-0.00382,0.03657 -0.02575,0.06876 -0.05838,0.08572c-0.6569,0.12282 -0.64238,0.79014 -0.96767,1.18033c-0.16412,0.19685 -0.12629,0.00242 -0.13667,-0.08433c-0.14113,-0.76552 -0.32312,-1.52293 -0.54522,-2.26899c-0.09665,-0.3128 -0.25254,-0.56269 -0.54581,-0.75516c-0.44936,-0.29489 -0.42062,-0.4673 0.05515,-0.74076c0.40354,-0.26533 0.69073,-0.78818 0.51563,-1.16494c-0.23116,-0.4974 -0.30978,-1.00332 -0.33377,-1.53359c-0.06026,-0.44357 -0.02335,-0.89357 -0.09729,-1.33516c0.00294,-0.05316 0.01491,-0.10543 0.03538,-0.15458c0.16918,-0.20963 0.35512,0.00225 0.52306,-0.01988c-0.1619,-0.03372 -0.32777,-0.10015 -0.50779,-0.0809c-0.57499,-0.37634 -0.72897,-1.03905 -1.06456,-1.57698c-0.06019,-0.09649 -0.03592,-0.26327 0.17165,-0.22346z" fill="#284217"/><path d="M250.32756,186.15501c-0.04794,0.87312 -0.62766,1.44241 -1.18244,2.11878v-0.56175c-0.54158,0.52147 -1.15499,0.87586 -1.59828,1.42725c-0.67982,0.55862 -1.17516,0.43143 -1.43415,-0.3811c-0.13564,-0.42224 -0.22063,-0.8591 -0.25321,-1.3014c-0.01416,-0.1983 -0.04322,-0.38479 -0.15112,-0.5539c-0.07037,-0.22959 -0.08575,-0.45933 0.00299,-0.68762c0.39523,-0.07756 0.70403,0.19099 1.06058,0.2723c0.18556,0.04232 0.3345,0.18695 0.53981,0.26963c-0.14101,-0.57503 -0.28985,-1.13754 0.2017,-1.60999c0.2929,0.11203 0.52128,0.35434 0.86755,0.37259c0.21398,0.01128 0.28369,0.24313 0.38899,0.41155c0.17678,0.28278 0.21482,0.64345 0.54884,0.95541c0.0515,-0.50436 -0.15166,-0.91117 -0.10036,-1.32726c0.03101,-0.18602 0.08408,-0.37696 0.32116,-0.33766c0.27594,0.04572 0.21278,0.33421 0.3108,0.49448c-0.03056,-0.15547 -0.12482,-0.31209 -0.13114,-0.48341c-0.00881,-0.23892 0.14213,-0.35981 0.36755,-0.36602c0.2197,-0.00605 0.34332,0.12248 0.29883,0.33947c-0.06468,0.31549 0.07301,0.64003 -0.05812,0.94866z" fill="#294014"/><path d="M240.06035,176.75572c-0.00203,-0.03088 0.00253,-0.06183 0.01336,-0.09081c0.21385,-0.08523 0.43516,-0.04943 0.65504,-0.04113c0.1835,0.11965 0.42731,0.13948 0.56462,0.33706c0.05477,0.41899 0.43283,0.54051 0.70133,0.76498c0.53861,0.45029 1.16084,0.78017 1.71963,1.20109c0.1112,0.09468 0.25794,0.13661 0.40238,0.11498c0.20965,-0.01708 0.41857,0.0406 0.58976,0.16282c0.03197,0.04031 0.04689,0.09154 0.04156,0.14271c-0.08931,0.22411 -0.32511,0.15825 -0.50267,0.21198c0.35405,0.6242 -0.14143,1.57983 -0.93513,1.86959c-0.27208,-0.25671 -0.56165,-0.47936 -0.37449,-0.9505c0.08352,-0.21024 -0.1833,-0.32818 -0.37814,-0.36087c-0.20818,-0.03492 -0.43307,-0.04111 -0.60462,0.12435c-0.05851,0.05642 -0.01926,0.13532 0.0183,0.19759c0.06536,0.10835 0.16251,0.18954 0.24743,0.2812c0.62503,0.67459 0.46936,1.15818 -0.44554,1.38412c-0.35774,-0.21873 -0.5923,-0.56479 -0.88104,-0.85475c-0.07616,-0.07648 -0.16333,-0.20162 -0.11822,-0.2867c0.26595,-0.50174 0.0266,-1.00295 0.02442,-1.50309c0.06811,-0.06935 0.15399,-0.07304 0.24295,-0.06524c-0.05794,-0.02486 -0.12191,-0.03387 -0.17847,-0.05991c-0.14453,-0.06651 -0.29155,-0.13462 -0.28486,-0.33224c0.10909,-0.3365 0.12948,-0.6939 0.22865,-1.03103c0.12393,-0.42133 0.03268,-0.66596 -0.43613,-0.7587c-0.18654,-0.0369 -0.56912,-0.06463 -0.31013,-0.4575z" fill="#485e1c"/><path d="M243.31585,181.40463c0.49259,-0.27832 0.68913,-0.80473 1.01723,-1.22015c0.12666,-0.16037 0.01035,-0.29157 -0.11365,-0.40911c-0.09364,-0.08875 -0.30701,-0.1253 -0.22461,-0.30685c0.09067,-0.19978 0.26942,-0.09954 0.41511,-0.05c0.11733,0.03991 0.2037,-0.02925 0.30009,-0.06698c0.31319,0.11309 0.55639,-0.00992 0.75739,-0.23852c0.58661,-0.66715 1.20493,-1.30201 1.85148,-1.91221c0.29958,-0.28275 0.23426,-0.4677 -0.15846,-0.56774c-0.16756,-0.04269 -0.31134,-0.07926 -0.3255,-0.28322c0.1057,-0.17392 0.21564,-0.34211 0.45802,-0.32235c0.47041,0.0682 0.95555,-0.18459 1.41764,0.06491c0.08097,0.23168 -0.10892,0.31771 -0.24183,0.41862c-0.23117,0.1755 -0.40991,0.36235 -0.25631,0.67327c0.16179,0.32749 0.24873,0.71663 0.73993,0.74141c0.31776,0.01603 0.69731,-0.13411 0.92326,0.24665c0.2032,0.48794 0.08919,1.00185 0.1234,1.50363c0.10948,0.26949 0.0445,0.41581 -0.27176,0.37898c-0.19292,-0.02247 -0.37315,-0.12451 -0.57471,-0.09144c-0.4763,-0.00802 -0.57987,-0.29944 -0.58697,-0.71436c-0.01627,-0.95004 -0.10535,-1.00006 -0.91185,-0.49855c-0.56146,0.34915 -1.1279,0.69511 -1.62596,1.13728c-0.23526,0.222 -0.56026,0.32221 -0.8797,0.27126c0.14041,0.36227 -0.06963,0.61206 -0.33191,0.84256c-0.26278,0.0073 -0.28804,0.17869 -0.29338,0.39098c-0.0073,0.28969 0.06392,0.59152 -0.10015,0.86404c-0.03951,0.0308 -0.09085,0.04201 -0.1396,0.03049c-0.13982,-0.44092 -0.41974,-0.50078 -0.81469,-0.3208c-0.17719,0.08075 -0.37725,0.12897 -0.57036,0.01348c-0.09032,-0.3582 0.15708,-0.4716 0.41784,-0.5753z" fill="#698026"/><path d="M243.31585,181.40463c-0.15161,0.17488 -0.30321,0.34975 -0.4548,0.52463c-0.1353,0.34876 -0.16601,0.719 -0.22177,1.08395c-0.40438,0.5949 -0.63264,1.26322 -0.77334,1.86104c0.07176,-0.2027 0.14843,-0.51248 0.348,-0.76433c0.14744,-0.18606 0.28583,-0.15505 0.32854,0.06917c0.05241,0.27517 0.12214,0.57384 -0.18858,0.76831c-0.43731,0.42681 -0.77178,0.94752 -0.97811,1.52271c-0.09242,0.28049 -0.18275,0.56134 -0.26561,0.84511c-0.06017,0.20606 -0.244,0.37881 -0.41692,0.12429c-0.2872,-0.4227 -0.55335,-0.85946 -0.86035,-1.26993c-0.07481,-0.10001 -0.04352,-0.23791 0.01782,-0.35348c0.44793,-0.66993 0.8142,-1.39098 1.09104,-2.14782c0.12166,-0.63013 0.43694,-1.15622 0.87151,-1.61822c0.11136,-0.05761 0.21904,-0.12207 0.32243,-0.19298c0.49371,-0.38189 0.49989,-0.50703 0.06305,-0.97178c-0.03965,-0.03641 -0.07653,-0.07571 -0.11034,-0.11759c-0.133,-0.19307 -0.48427,-0.29618 -0.34664,-0.59997c0.13748,-0.30348 0.48872,-0.15195 0.73484,-0.20974c0.26938,-0.06326 0.47726,0.18065 0.66157,0.37398c0.02168,0.02273 0.04087,0.08652 0.03034,0.09563c-0.46889,0.40526 0.10389,0.65164 0.1473,0.97701z" fill="#20350f"/><path d="M245.7745,186.88567c0.36889,0.18277 0.18313,0.53082 0.24022,0.8063c0.03929,0.18963 0.07435,0.38014 0.11191,0.57013c0.22032,1.11443 0.3457,1.19181 1.42026,0.8772c0.43078,0.30113 0.40775,0.79019 0.49468,1.22689c0.06743,0.33873 0.00981,0.70641 0.3398,0.96182c0.08294,0.0642 0.08871,0.22848 0.12888,0.34712c0.18413,0.54373 0.07599,1.18053 0.57793,1.63075c0.13262,0.11895 0.18241,0.40629 0.16158,0.60494c-0.05575,0.53166 0.04523,1.0245 0.24339,1.50781c0.04876,0.11605 0.05868,0.24474 0.02831,0.36689c-0.10179,0.43888 -0.0359,0.8614 0.01893,1.30856c0.07515,0.61297 -0.01579,1.2725 -0.49036,1.77893c-0.29873,-0.02454 -0.25155,-0.25622 -0.23249,-0.43322c0.04404,-0.44061 0.0523,-0.88406 0.02472,-1.32601c-0.03994,-0.75842 -0.18085,-1.48064 -0.3289,-2.21158c-0.05796,-0.28618 0.00561,-0.5338 0.22503,-0.73944c-0.46438,-0.18758 -0.86887,-0.98001 -0.7774,-1.59712c0.03643,-0.24579 0.02853,-0.4039 -0.18924,-0.53919c-0.08961,-0.0638 -0.15115,-0.15972 -0.17181,-0.26776c-0.13702,-0.65557 -0.59212,-0.98815 -1.18347,-1.18855c-0.20799,-0.36839 -0.47113,-0.7055 -0.33415,-1.19063c0.06423,-0.22744 -0.211,-0.38476 -0.31388,-0.58466c-0.08815,-0.17128 -0.20352,-0.32859 -0.30685,-0.49208c-0.25441,-0.32224 -0.02373,-0.61517 0.0541,-0.91758c0.04974,-0.18525 -0.00869,-0.42719 0.25884,-0.49956z" fill="#301e16"/><path d="M246.41643,190.57018c0.69176,0.0167 0.97244,0.21428 1.19087,0.83828c0.212,0.60565 0.212,0.60565 0.7255,0.69728c-0.42662,0.37959 -0.24237,0.80092 -0.12566,1.21685c0.11776,0.41974 0.26263,0.80772 0.91348,0.59235c-0.57366,0.38105 -0.53538,0.87488 -0.41543,1.38906c0.00807,0.03463 -0.00346,0.08727 0.01677,0.10368c0.56724,0.45996 0.11826,1.04409 0.19325,1.56314c0.02804,0.19408 -0.08337,0.43628 0.25637,0.49248c0.19938,0.03299 0.02964,0.14325 -0.0023,0.22426c-0.15107,0.3832 -0.39141,0.75927 -0.11919,1.18544c-0.36802,0.23896 -0.64258,0.14726 -0.75528,-0.26665c-0.13638,-0.50088 -0.44937,-1.10326 -0.28928,-1.50339c0.31242,-0.78088 -0.31662,-1.40106 -0.13458,-2.14665c0.08262,-0.33839 -0.2918,-0.78267 -0.44096,-1.18556c-0.06258,-0.16904 -0.21115,-0.35673 0.02245,-0.52923c0.08147,-0.06017 0.06284,-0.16145 0.00669,-0.24274c-0.51089,-0.73967 -0.48139,-1.71069 -1.0427,-2.42861z" fill="#653823"/><path d="M245.7745,186.88567c-0.15172,0.15976 -0.06755,0.36124 -0.09622,0.54277c-0.20974,0.13285 -0.26895,0.35655 -0.35984,0.56756c-0.18165,0.42168 -0.37871,0.83834 -0.82146,1.06133c-0.34257,0.12014 -0.65861,-0.01399 -0.97946,-0.10199c0.55343,-0.35745 0.58085,-0.42563 0.44398,-1.12741c-0.03392,-0.17387 -0.05189,-0.35106 -0.10789,-0.52085c-0.06806,-0.33539 0.02666,-0.59045 0.3378,-0.7687c0.27316,-0.1565 0.36698,-0.42828 0.21683,-0.69144c-0.37846,-0.66332 -0.32156,-1.37087 -0.28226,-2.08238c0.01065,-0.19677 0.00956,-0.39402 -0.00328,-0.59066c0.0246,-0.30864 -0.07877,-0.6399 0.16112,-0.9098c0.03523,-0.00075 0.07046,-0.00123 0.1057,-0.00143c0.11408,0.01713 0.18921,0.09038 0.25312,0.17795c0.21437,0.29371 0.1962,0.67051 0.53896,0.96713c0.25221,0.21826 0.42522,0.7008 0.63619,1.06454c0.15942,0.27485 0.10042,0.58687 0.12668,0.88508c-0.01846,0.26691 0.06058,0.55182 -0.14664,0.78247z" fill="#5c7324"/><path d="M246.86699,176.34498c0.05611,0.09284 0.12303,0.21096 0.24049,0.17201c0.2398,-0.07952 0.4527,-0.02207 0.55649,0.17635c0.11286,0.21576 -0.06251,0.45377 -0.20061,0.56627c-0.76215,0.62089 -1.35341,1.40405 -2.05393,2.08032c-0.1847,0.17831 -0.46101,0.50206 -0.69936,0.01165c0.00106,-0.03356 0.00015,-0.06714 -0.00273,-0.10059c-0.03885,-0.35043 0.32791,-0.65517 0.11399,-1.02514c-0.32019,-0.97965 -0.40631,-2.02487 -0.84302,-2.97149c-0.04459,-0.09665 -0.06948,-0.20315 -0.00824,-0.30715c0.53206,-0.63117 1.24478,-0.50679 1.93837,-0.46245c-0.29548,1.06984 -0.22265,2.18928 -0.46224,3.26781c0.26599,-0.47742 0.63911,-0.85845 0.98716,-1.25954c0.12187,-0.11611 0.24566,-0.22675 0.43363,-0.14806z" fill="#7b942d"/><path d="M244.2763,183.22888c0.01564,0.54579 -0.07161,1.0886 -0.00607,1.63879c0.03824,0.32099 0.01643,0.61957 0.29254,0.87379c0.21178,0.195 0.06545,0.84913 -0.21111,0.90408c-0.44842,0.0891 -0.39738,0.3808 -0.39208,0.68444c0.10071,0.27802 0.04775,0.56249 0.02833,0.84388c-0.00978,0.14178 -0.03675,0.30232 -0.18864,0.36122c-0.17496,0.06783 -0.31692,-0.04252 -0.42633,-0.16014c-0.29134,-0.31317 -0.60894,-0.61643 -0.62663,-1.08762c-0.00515,-0.13722 -0.04927,-0.24325 -0.18853,-0.29082c-0.10857,-0.51129 -0.12218,-1.02902 -0.11988,-1.54952c0.00074,-0.16659 0.09522,-0.35945 -0.08416,-0.49942c0.1532,-0.28218 0.09638,-0.57838 0.00612,-0.90142c-0.19743,0.40991 -0.39487,0.81982 -0.5923,1.22972c0.07218,-0.82442 0.18466,-1.63261 0.77912,-2.27418c0.23941,0.254 0.12871,0.571 0.14463,0.86095c0.01718,0.31276 0.14231,0.42995 0.43749,0.30241c0.38268,-0.16535 0.83023,-0.25716 0.91161,-0.78334c0.00584,-0.05421 0.0358,-0.10291 0.08156,-0.13257c0.04576,-0.02965 0.10245,-0.0371 0.15431,-0.02028z" fill="#6a8228"/><path d="M250.32756,186.15501c0.09439,-0.34993 -0.34822,-0.67308 -0.04058,-1.05098c0.06242,-0.07668 -0.11636,-0.1524 -0.22647,-0.13829c-0.19013,0.02436 -0.29356,0.13669 -0.25422,0.33287c0.04357,0.21727 0.19456,0.41249 0.1604,0.66823c-0.24079,-0.08879 -0.1837,-0.31304 -0.27179,-0.45646c-0.05374,-0.0875 -0.05368,-0.22619 -0.19762,-0.2062c-0.17816,0.02474 -0.13205,0.18152 -0.1479,0.29829c-0.24772,-0.23622 -0.25422,-0.29453 -0.06483,-0.58142c0.43738,-0.66252 0.42414,-0.64373 -0.26683,-1.04219c-0.5333,-0.30755 -0.581,-0.87872 -0.55933,-1.40993c0.00984,-0.24123 -0.08886,-0.25649 -0.23317,-0.30931c-0.21035,-0.28042 -0.37869,-0.5751 -0.32677,-0.94574c0.1529,-0.17916 0.34829,-0.31711 0.56829,-0.40123c0.40994,0.0372 0.60585,0.35944 0.84153,0.62941c0.18498,0.26006 0.5088,0.44157 0.47389,0.82724c-0.44787,0.2528 -0.4733,0.40298 -0.0215,0.58622c0.27939,0.11331 0.37835,0.29256 0.4601,0.5187c0.30199,0.83533 0.56606,1.68005 0.51918,2.58599c-0.03846,-0.13261 -0.07691,-0.26521 -0.1191,-0.41075c-0.21904,0.10385 -0.12762,0.38172 -0.29329,0.50555z" fill="#364f1a"/><path d="M238.58386,179.12295c-0.10528,-0.09062 -0.21116,-0.03154 -0.29599,0.02136c-0.50063,0.31219 -0.99113,0.64074 -1.49504,0.94739c-0.18644,0.11344 -0.1845,0.33862 -0.33225,0.47239c-0.16549,-1.03997 1.78648,-3.20714 3.29111,-3.66165c0.29477,0.70686 0.00101,1.31516 -0.3209,1.91924c-0.24618,0.20045 -0.50272,0.37422 -0.84692,0.30128z" fill="#809931"/><path d="M241.26587,176.99752c-0.13275,-0.18653 -0.5041,0.01157 -0.53861,-0.33333c-0.01957,-0.30258 0.30112,-0.29539 0.45186,-0.43795c-0.15939,-0.20941 -0.43832,-0.13479 -0.56151,-0.33333c0.65246,-0.37464 1.20237,-0.93289 1.97525,-1.09274c0.20712,-0.04284 0.40994,-0.11604 0.611,0.01375c-0.11731,0.31372 0.32749,0.40178 0.27768,0.68891c-0.05448,0.26595 -0.26382,0.42146 -0.4453,0.58572c-0.40885,0.37008 -0.7318,0.81933 -1.13342,1.19556c-0.27704,0.04799 -0.48037,-0.06761 -0.63697,-0.28659z" fill="#7b942e"/><path d="M239.31804,178.80685c0.32705,-0.59336 0.44073,-1.23519 0.43368,-1.90444c0.1029,-0.04896 0.20579,-0.0979 0.30869,-0.14681c-0.07915,0.31116 0.16388,0.31148 0.34575,0.33227c0.52279,0.05977 0.78427,0.25877 0.54287,0.82701c-0.15363,0.36164 0.02497,0.82819 -0.34325,1.12886c-0.48339,0.21465 -0.89744,0.05327 -1.28775,-0.2369z" fill="#6d8529"/><path d="M246.53258,176.54067c-0.35324,0.55014 -0.89735,0.95111 -1.24418,1.53326c0.1323,-1.11099 0.2669,-2.22171 0.39421,-3.33328c0.00355,-0.1287 0.09871,-0.23642 0.226,-0.2558c0.14574,0.07492 0.29158,0.14989 0.43754,0.22493c-0.11638,0.37149 -0.16581,0.70495 0.1893,1.01708c0.25723,0.22609 -0.00706,0.53907 -0.00286,0.81382z" fill="#4d631d"/><path d="M249.87564,178.1724c-0.27666,-0.18258 -0.59267,-0.13147 -0.88365,-0.10132c-0.75789,0.07855 -0.75407,-0.58438 -0.97744,-0.99212c-0.20026,-0.36554 0.1699,-0.52195 0.40277,-0.69531c0.11386,-0.08476 0.24934,-0.13924 0.29333,-0.29117c0.09066,0.01276 0.18431,0.01941 0.23581,0.11335c-0.03247,0.0574 -0.10678,0.1475 -0.09117,0.16747c0.3914,0.50056 0.54798,1.15447 1.03856,1.58882c0.03486,0.0202 0.04602,0.03955 0.0335,0.05804c-0.01212,0.01801 -0.02426,0.02708 -0.03658,0.02708z" fill="#526920"/><path d="M243.41922,175.47513c-0.12762,-0.14869 -0.25929,-0.29413 -0.38201,-0.44676c-0.23792,-0.29592 0.13937,-0.12066 0.16684,-0.21442c0.25509,0.04438 0.51036,0.0888 0.76582,0.13325c0.58724,1.03334 0.68202,2.20964 0.96961,3.32993c0.04445,0.0859 0.06561,0.18086 -0.05056,0.21143c-0.09787,0.02575 -0.17341,-0.05894 -0.20919,-0.13696c-0.43648,-0.95164 -1.07564,-1.81503 -1.2605,-2.87647z" fill="#304a16"/><path d="M239.85074,185.81613c-0.02638,0.29056 0.18747,0.43993 0.35709,0.61997c0.28031,0.29753 0.4192,0.68592 0.64802,1.06983c0.26621,-0.32442 0.25818,-0.75213 0.51997,-1.03588c-0.03621,0.28195 -0.08758,0.56291 -0.1051,0.84594c-0.02761,0.44612 -0.42604,0.57817 -0.70696,0.71137c-0.21032,0.09973 -0.47177,-0.19504 -0.63063,-0.40945c-0.23207,-0.31325 -0.46622,-0.63218 -0.52399,-1.03652c-0.09891,-0.39696 0.32969,-0.4899 0.44161,-0.76526z" fill="#627827"/><path d="M239.31804,178.80685c0.42928,0.0789 0.85854,0.15784 1.28779,0.23681c0.11922,0.07105 0.24288,0.13581 0.35571,0.21581c0.04945,0.03506 0.0768,0.10121 0.11419,0.15324c-0.08307,0.01845 -0.16614,0.03688 -0.24922,0.05533c-0.50021,0.12613 -1.01746,0.12066 -1.52415,0.19674c-0.26988,0.08556 -0.55274,0.14171 -0.78596,0.3148c-0.13488,0.10011 -0.1278,-0.03691 -0.17217,-0.09092c-0.04515,-0.29409 0.19768,-0.49827 0.23958,-0.76546c0.24477,-0.10562 0.48952,-0.21107 0.73422,-0.31634z" fill="#192b0a"/><path d="M246.53258,176.54067c-0.13427,-0.11393 -0.11166,-0.2583 -0.04947,-0.38757c0.10774,-0.22394 0.01681,-0.37676 -0.15436,-0.50324c-0.43856,-0.32405 -0.28986,-0.63241 0.01742,-0.94009c0.10053,0.03128 0.19935,0.06784 0.29604,0.10952c0.26993,0.13198 0.63188,0.20983 0.77268,0.42803c0.10658,0.16517 -0.07089,0.51319 -0.12195,0.78002c-0.14197,0.10595 -0.28396,0.21181 -0.42595,0.31757c-0.11148,0.06529 -0.22296,0.13054 -0.33442,0.19575z" fill="#354c1a"/><path d="M242.55778,186.9965c0.17877,-0.11396 0.3579,-0.23598 0.32112,0.14255c-0.05597,0.57612 0.3759,0.88565 0.7021,1.24635c0.14101,0.15592 0.24475,0.10258 0.26729,-0.10854c0.03374,-0.31602 0.07383,-0.63136 0.11124,-0.94694c0.16059,0.28191 0.16674,0.59874 0.21265,0.90804c0.07629,0.51398 -0.09923,0.78549 -0.65483,0.71734c-0.69333,-0.1455 -0.8171,-0.70585 -0.91472,-1.27375c-0.03854,-0.2243 -0.03127,-0.45647 -0.04487,-0.68506z" fill="#334919"/><path d="M240.61761,175.89291c0.10578,0.01141 0.21835,0.00375 0.31586,0.03838c0.17636,0.06264 0.46485,0.04644 0.4758,0.26748c0.01186,0.23947 -0.26804,0.20789 -0.44362,0.26682c-0.09143,0.03069 -0.15972,0.13016 -0.23842,0.19858c-0.2177,0.13339 -0.43557,0.12806 -0.65354,0.0007c-0.23132,-0.24616 -0.32217,-0.45725 0.11555,-0.57828c0.14925,-0.04127 0.28595,-0.12782 0.42838,-0.19368z" fill="#26380a"/><path d="M244.49697,189.05734c0.33552,-0.37006 0.58064,-0.79545 0.78177,-1.25029c0.07796,-0.17631 0.16005,-0.36487 0.39958,-0.37857c-0.15079,0.27203 -0.25299,0.55611 -0.21674,0.87438c-0.36426,0.19701 -0.40933,0.80113 -0.96461,0.75448z" fill="#33461a"/><path d="M239.30235,179.66479c0.49087,-0.19848 0.98386,-0.38058 1.52418,-0.19679c0.18571,0.46666 0.38384,0.92587 0.05727,1.42207c-0.09903,0.15046 0.07748,0.25121 0.16903,0.35058c0.25077,0.27223 0.50649,0.5399 0.76036,0.80941c-0.29042,0.53942 -0.58089,1.07882 -0.87144,1.61822c-0.0786,-0.30828 -0.20799,-0.60069 -0.3057,-0.89956c-0.24581,-0.75186 -0.5589,-1.52402 0.05958,-2.2736c0.21617,-0.26199 -0.14029,-0.34647 -0.22635,-0.33164c-0.41184,0.07095 -0.65794,-0.10296 -0.86405,-0.42849c-0.03943,-0.06227 -0.19883,-0.04876 -0.30288,-0.0702z" fill="#687e27"/><path d="M249.78217,182.3693c-0.18066,-0.2484 -0.36133,-0.4968 -0.542,-0.7452c-0.0382,-0.32595 0.1641,-0.57539 0.29205,-0.83994c0.1599,-0.33062 0.17511,-0.56851 -0.22687,-0.70091c-0.08571,-0.03039 -0.14944,-0.10318 -0.16825,-0.19215c0.19999,-0.22982 0.3958,-0.01956 0.56655,0.03515c0.28526,0.0914 0.28959,-0.05915 0.29539,-0.25022c0.00981,0.56015 0.23406,1.06004 0.40907,1.57962c0.11823,0.35101 -0.32107,1.0336 -0.62593,1.11365z" fill="#48601e"/><path d="M249.89076,178.04723c0.00143,-0.02839 0.00248,-0.05678 0.00313,-0.08516c0.32673,-0.00727 0.67543,-0.06531 0.88291,0.45291z" fill="#bfc1bd"/><path d="M248.27306,182.26092c0.10879,-0.01769 0.12812,-0.27226 0.28934,-0.12418c0.08761,0.08045 0.1714,0.21136 0.07308,0.33308c-0.28112,0.34802 0.05975,0.63594 0.09206,0.95059c0.03716,0.36191 0.29007,0.48933 0.67618,0.51706c0.32667,0.02346 0.41253,0.67878 0.16467,0.96379c-0.17337,0.19937 -0.50389,0.35651 -0.21901,0.70121c0.04,0.3521 0.08133,0.70404 0.11934,1.05636c0.01477,0.13689 0.20595,0.3488 -0.0356,0.38688c-0.18088,0.02851 -0.44665,-0.07768 -0.49473,-0.32013c-0.039,-0.19669 -0.11987,-0.36104 -0.19616,-0.53983c-0.15587,-0.36532 -0.29497,-0.67324 -0.7923,-0.59606c-0.2709,0.04204 -0.24989,-0.31495 -0.43138,-0.42081c-0.41816,-0.35709 -0.49855,-0.85875 -0.58354,-1.35852c0.26591,-0.33886 0.58689,-0.62704 0.9185,-0.89492c0.21289,-0.16166 0.36155,-0.39357 0.41953,-0.65452z" fill="#4c631f"/><path d="M246.97361,183.77289c0.18164,0.46534 0.36328,0.93068 0.54493,1.396c-0.32992,0.63245 -0.24699,1.25722 0.15072,1.99466c-0.61149,-0.36704 -1.05955,-0.72869 -1.65924,-0.73955c-0.07245,-0.00131 -0.1416,-0.18502 -0.21223,-0.28419c-0.00047,-0.28518 -0.00097,-0.57038 -0.0015,-0.85558c0.01761,-0.84731 0.0304,-1.6948 -0.24255,-2.51329c-0.08022,-0.24054 -0.16888,-0.47446 -0.0035,-0.7129c0.51802,-0.15346 0.63875,0.35774 0.94337,0.56198c0.24557,0.34279 0.40973,0.73707 0.47999,1.15286z" fill="#142408"/><path d="M243.41922,175.47513c0.4355,0.90896 0.86906,1.81887 1.31478,2.7228c0.01526,0.03095 0.01778,0.38436 0.20541,0.07917c0.27021,0.40723 -0.05723,0.67237 -0.23203,0.97384c-0.21128,-0.03914 -0.42253,-0.07832 -0.63374,-0.11751c-0.18121,0.01293 -0.29842,-0.11154 -0.4117,-0.21546c-0.53451,-0.49037 -1.07816,-0.97029 -1.62325,-1.44875c-0.07753,-0.06805 -0.16752,-0.13737 -0.13763,-0.26468c0.3638,-0.70106 1.07021,-1.10204 1.51814,-1.72942z" fill="#698026"/><path d="M241.90107,177.20454c0.72413,0.64299 1.4483,1.28596 2.17249,1.92893c-0.2108,0.23123 -0.32477,-0.03738 -0.43819,-0.11286c-0.73815,-0.49122 -1.46047,-1.00615 -2.18857,-1.51247c-0.18375,-0.12778 -0.36654,-0.25358 -0.18095,-0.51073c0.23924,-0.01503 0.38489,0.2563 0.63522,0.20713z" fill="#253f12"/><path d="M246.43022,182.69987c-0.24748,-0.2218 -0.49496,-0.44358 -0.74245,-0.66538c-0.56875,-0.07437 -0.90456,-0.47894 -0.87668,-1.0562c0.00001,-0.17717 0.14727,-0.27972 0.21292,-0.423c0.04103,-0.08956 0.14175,-0.18216 0.04631,-0.28987c-0.08331,-0.09403 -0.36449,-0.05979 -0.26737,-0.24597c0.13969,-0.26775 0.29495,0.09515 0.44044,0.05372c0.21683,-0.06175 0.45657,-0.04538 0.64489,-0.22039c0.67065,-0.62325 1.46825,-1.05955 2.24605,-1.53027c0.36473,-0.22073 0.45784,-0.02154 0.52392,0.22684c0.05503,0.22535 0.0677,0.45897 0.03734,0.68895c-0.04357,0.36347 0.0791,0.5801 0.44146,0.65281c0.13197,0.04976 0.26376,0.0999 0.39587,0.14922c0.27541,0.10282 0.41062,0.24369 0.22825,0.5544c-0.19428,0.331 -0.34899,0.68517 -0.52101,1.0293c-0.23068,-0.24133 -0.4334,-0.5146 -0.75101,-0.65684c-0.3609,-0.22475 -0.76725,-0.36648 -1.18964,-0.41492c0.2165,0.21325 0.53534,0.37056 0.59141,0.73942c-0.44185,0.51612 -0.82346,1.09447 -1.46073,1.40817z" fill="#7b942d"/><path d="M244.2763,183.22888c-0.13404,0.71356 -0.68644,0.94736 -1.28853,1.13633c-0.29579,0.09284 -0.43918,0.02943 -0.43215,-0.30196c0.00751,-0.35357 -0.00503,-0.70756 -0.00889,-1.06145c0.07053,-0.36756 -0.14514,-0.81881 0.31442,-1.07245c0.27477,0.05125 0.51522,-0.0739 0.76569,-0.14862c0.61882,-0.18462 0.64026,-0.16857 0.65695,0.48335c-0.00248,0.32162 -0.00499,0.64322 -0.00751,0.96481z" fill="#7b942e"/><path d="M244.8111,180.9783c0.16156,0.46031 0.39338,0.86242 0.87668,1.05627c-0.21945,0.23344 -0.08746,0.46139 0.00993,0.69076c0.35683,0.84037 0.23368,1.69943 0.09854,2.55887c0.13187,-0.55412 -0.19432,-0.96703 -0.50516,-1.32758c-0.18985,-0.2202 -0.21181,-0.40572 -0.16619,-0.62631c-0.21415,-0.13057 -0.20901,0.19674 -0.39775,0.1156c0.00501,-0.4179 -0.05313,-0.83483 -0.33762,-1.18326c-0.00047,-0.36711 -0.00488,-0.73428 0.0009,-1.10129c0.00184,-0.11627 -0.05532,-0.26857 0.0685,-0.33918c0.16228,-0.09254 0.22778,0.11535 0.35218,0.15611z" fill="#445a1c"/><path d="M246.43022,182.69987c0.48068,-0.45914 0.87083,-1.00882 1.41124,-1.40825c0.01298,-0.01525 0.03209,-0.02393 0.05212,-0.02365c0.02003,0.00028 0.0389,0.00948 0.05144,0.0251c0.10933,0.32263 0.21867,0.64525 0.328,0.96786c0.05808,0.14335 0.18731,0.32816 0.02568,0.43183c-0.48473,0.31089 -0.76156,0.87152 -1.32509,1.08012c-0.26177,-0.31693 -0.33892,-0.72713 -0.5434,-1.07301z" fill="#667d27"/><path d="M247.94504,181.29308c-0.03455,0.00024 -0.06907,-0.00023 -0.10358,-0.00143c-0.19467,-0.32411 -0.51767,-0.53047 -0.81283,-0.86886c0.58187,0.06088 1.13331,-0.01458 1.46054,0.54443c-0.15488,0.15273 -0.29935,0.32282 -0.54412,0.32586z" fill="#4e6620"/></g></g></g></svg>