<svg xmlns="http://www.w3.org/2000/svg" xmlns:xlink="http://www.w3.org/1999/xlink" width="253.199" height="15.648" version="1.1" viewBox="0.423 -0.327 253.199 15.648"><g id="ID0.9008832667022943"><g id="ID0.5911071584559977"><g id="id64"><path id="ID0.3026486109010875" fill="none" stroke="none" stroke-width=".145" d="M 0.9232 0.1732 L 16.1509 0.1732 L 16.1509 14.8208 L 0.9232 14.8208 L 0.9232 0.1732 Z"/><path id="ID0.2688886681571603" fill="#FFF" stroke="none" stroke-width=".145" d="M 10.9299 5.5392 C 10.4949 5.2491 10.2048 4.9591 9.9148 4.814 C 9.6247 4.524 9.1896 4.524 8.8996 4.524 C 8.0294 4.524 7.3043 4.814 6.8692 5.3941 C 6.4342 5.8292 6.1441 6.5543 6.1441 7.4245 C 6.1441 8.4397 6.2891 9.1648 6.8692 9.7449 C 7.3043 10.47 8.0294 10.7601 8.8996 10.7601 C 9.3347 10.7601 9.7697 10.6151 10.2048 10.47 C 10.4949 10.18 10.7849 9.8899 10.9299 9.4549 L 8.4645 9.4549 L 8.4645 6.2643 L 16.0058 6.2643 L 16.0058 7.1344 C 16.0058 9.3098 15.2807 11.1952 13.9755 12.5004 C 12.5252 13.9506 10.7849 14.5307 8.4645 14.5307 C 6.4342 14.5307 4.5488 13.9506 3.2436 12.5004 C 1.7933 11.1952 1.0682 9.4549 1.0682 7.4245 C 1.0682 5.2491 1.7933 3.5088 3.0986 2.2036 C 4.5488 0.8984 6.2891 0.3183 8.4645 0.3183 C 9.9148 0.3183 11.22 0.6083 12.3802 1.0434 C 13.6854 1.6235 14.7006 2.6387 15.4257 3.7989 L 10.9299 5.5392 Z"/></g></g><g id="ID0.9516839659772813"><g id="id65"><path id="ID0.09947597654536366" fill="none" stroke="none" stroke-width=".145" d="M 16.4409 0.1732 L 31.5235 0.1732 L 31.5235 14.8208 L 16.4409 14.8208 L 16.4409 0.1732 Z"/><path id="ID0.9517883299849927" fill="#FFF" stroke="none" stroke-width=".145" d="M 23.8372 0.3183 C 26.0126 0.3183 27.7529 0.8984 29.2031 2.3486 C 30.6534 3.6538 31.3785 5.3941 31.3785 7.5695 C 31.3785 9.5999 30.6534 11.1952 29.2031 12.6454 C 27.7529 13.9506 26.0126 14.5307 23.9822 14.5307 C 21.8068 14.5307 20.0665 13.9506 18.6163 12.5004 C 17.166 11.1952 16.4409 9.4549 16.4409 7.2795 C 16.4409 5.2491 17.166 3.6538 18.6163 2.2036 C 20.0665 0.8984 21.8068 0.3183 23.8372 0.3183 Z M 23.8372 10.18 C 24.7074 10.18 25.2875 9.8899 25.7225 9.1648 C 26.1576 8.5847 26.3026 8.0046 26.3026 7.1344 C 26.3026 6.5543 26.1576 5.9742 25.5775 5.5392 C 25.1424 4.9591 24.5623 4.814 23.9822 4.814 C 23.2571 4.814 22.677 5.1041 22.0969 5.5392 C 21.6618 6.1193 21.3718 6.6994 21.3718 7.4245 C 21.3718 8.1496 21.6618 8.7297 22.0969 9.3098 C 22.532 9.8899 23.1121 10.18 23.8372 10.18 Z"/></g></g><g id="ID0.5857946467585862"><g id="id66"><path id="ID0.13460042886435986" fill="none" stroke="none" stroke-width=".145" d="M 31.3785 0.6083 L 46.6062 0.6083 L 46.6062 14.5307 L 31.3785 14.5307 L 31.3785 0.6083 Z"/><path id="ID0.11871139891445637" fill="#FFF" stroke="none" stroke-width=".145" d="M 36.7445 0.6083 C 37.4696 3.3638 38.1947 6.1193 38.9198 8.7297 C 39.2099 7.5695 39.4999 6.5543 39.645 5.6842 C 39.935 4.524 40.5151 2.7837 41.2402 0.6083 L 46.4612 0.6083 L 41.2402 14.2407 L 36.5994 14.2407 L 31.5235 0.6083 L 36.7445 0.6083 Z"/></g></g><g id="ID0.783559606410563"><g id="id67"><path id="ID0.6882294048555195" fill="none" stroke="none" stroke-width=".145" d="M 47.0413 0.6083 L 56.6129 0.6083 L 56.6129 14.5307 L 47.0413 14.5307 L 47.0413 0.6083 Z"/><path id="ID0.8559525096789002" fill="#FFF" stroke="none" stroke-width=".145" d="M 47.0413 0.6083 L 56.3229 0.6083 L 56.3229 4.524 L 51.6821 4.524 L 51.6821 5.6842 L 55.8878 5.6842 L 55.8878 9.1648 L 51.6821 9.1648 L 51.6821 10.47 L 56.4679 10.47 L 56.4679 14.2407 L 47.0413 14.2407 L 47.0413 0.6083 Z"/></g></g><g id="ID0.49001569859683514"><g id="id68"><path id="ID0.8596256799064577" fill="none" stroke="none" stroke-width=".145" d="M 57.6281 0.6083 L 70.3903 0.6083 L 70.3903 14.5307 L 57.6281 14.5307 L 57.6281 0.6083 Z"/><path id="ID0.7917670733295381" fill="#FFF" stroke="none" stroke-width=".145" d="M 57.7731 0.7533 L 63.8642 0.7533 C 65.4595 0.7533 66.7647 1.0434 67.7799 1.7685 C 68.9401 2.4936 69.3752 3.6538 69.3752 5.2491 C 69.3752 6.1193 69.2301 6.8444 68.7951 7.4245 C 68.505 7.8596 67.9249 8.2947 66.9097 8.8748 L 70.2453 14.2407 L 65.0244 14.2407 L 62.4139 9.1648 L 62.4139 14.2407 L 57.7731 14.2407 L 57.7731 0.7533 Z M 63.1391 6.6994 C 63.5741 6.6994 63.8642 6.5543 64.1543 6.4093 C 64.5893 6.1193 64.7344 5.8292 64.7344 5.3941 C 64.7344 5.1041 64.5893 4.814 64.1543 4.524 C 63.8642 4.379 63.5741 4.2339 62.994 4.2339 L 62.4139 4.379 L 62.4139 6.6994 L 63.1391 6.6994 Z"/></g></g><g id="ID0.6593000860884786"><g id="id69"><path id="ID0.9387975139543414" fill="none" stroke="none" stroke-width=".145" d="M 70.6804 0.4633 L 84.7479 0.4633 L 84.7479 14.5307 L 70.6804 14.5307 L 70.6804 0.4633 Z"/><path id="ID0.2399251046590507" fill="#FFF" stroke="none" stroke-width=".145" d="M 70.8254 0.6083 L 75.4662 0.6083 C 75.9013 1.3334 76.4814 2.0586 76.9165 2.7837 C 77.4966 3.6538 77.9317 4.379 78.5118 5.1041 C 78.8018 5.6842 79.3819 6.5543 79.962 7.4245 L 79.962 0.6083 L 84.6028 0.6083 L 84.6028 14.2407 L 79.817 14.2407 C 79.0919 13.2255 78.3667 12.0653 77.6416 10.9051 C 76.9165 9.8899 76.1914 8.8748 75.4662 7.5695 C 75.4662 7.7146 75.4662 8.0046 75.4662 8.4397 C 75.4662 8.7297 75.6113 8.8748 75.6113 9.0198 L 75.4662 12.5004 L 75.6113 14.2407 L 70.8254 14.2407 L 70.8254 0.6083 Z"/></g></g><g id="ID0.5786212147213519"><g id="id70"><path id="ID0.7041749781928957" fill="none" stroke="none" stroke-width=".145" d="M 84.7479 0.6083 L 103.8912 0.6083 L 103.8912 14.5307 L 84.7479 14.5307 L 84.7479 0.6083 Z"/><path id="ID0.6695200735703111" fill="#FFF" stroke="none" stroke-width=".145" d="M 86.6332 0.6083 L 92.2892 0.6083 L 94.3195 7.2795 L 96.2049 0.6083 L 101.8608 0.6083 L 103.7462 14.2407 L 98.8153 14.2407 L 98.0902 6.8444 L 95.7698 14.2407 L 92.8693 14.2407 L 90.5489 6.8444 L 89.8237 14.2407 L 84.8929 14.2407 L 86.6332 0.6083 Z"/></g></g><g id="ID0.34662398090586066"><g id="id71"><path id="ID0.2569543970748782" fill="none" stroke="none" stroke-width=".145" d="M 104.3263 0.6083 L 113.8979 0.6083 L 113.8979 14.5307 L 104.3263 14.5307 L 104.3263 0.6083 Z"/><path id="ID0.4753696578554809" fill="#FFF" stroke="none" stroke-width=".145" d="M 104.3263 0.6083 L 113.6079 0.6083 L 113.6079 4.524 L 108.9671 4.524 L 108.9671 5.6842 L 113.1728 5.6842 L 113.1728 9.1648 L 108.9671 9.1648 L 108.9671 10.47 L 113.7529 10.47 L 113.7529 14.2407 L 104.3263 14.2407 L 104.3263 0.6083 Z"/></g></g><g id="ID0.16179260844364762"><g id="id72"><path id="ID0.3954375432804227" fill="none" stroke="none" stroke-width=".145" d="M 115.0582 0.4633 L 129.1256 0.4633 L 129.1256 14.5307 L 115.0582 14.5307 L 115.0582 0.4633 Z"/><path id="ID0.7608907246030867" fill="#FFF" stroke="none" stroke-width=".145" d="M 115.0582 0.6083 L 119.699 0.6083 C 120.2791 1.3334 120.7141 2.0586 121.2942 2.7837 C 121.7293 3.6538 122.3094 4.379 122.7445 5.1041 C 123.1796 5.6842 123.6146 6.5543 124.1947 7.4245 L 124.1947 0.6083 L 128.8356 0.6083 L 128.8356 14.2407 L 124.1947 14.2407 C 123.3246 13.2255 122.5995 12.0653 121.8743 10.9051 C 121.2942 9.8899 120.5691 8.8748 119.699 7.5695 C 119.699 7.7146 119.699 8.0046 119.844 8.4397 C 119.844 8.7297 119.844 8.8748 119.844 9.0198 L 119.844 12.5004 L 119.844 14.2407 L 115.0582 14.2407 L 115.0582 0.6083 Z"/></g></g><g id="ID0.6981625901535153"><g id="id73"><path id="ID0.31036959681659937" fill="none" stroke="none" stroke-width=".145" d="M 129.5607 0.4633 L 140.2926 0.4633 L 140.2926 14.5307 L 129.5607 14.5307 L 129.5607 0.4633 Z"/><path id="ID0.61115214927122" fill="#FFF" stroke="none" stroke-width=".145" d="M 129.5607 0.6083 L 140.0025 0.6083 L 140.0025 4.669 L 137.3921 4.669 L 137.3921 14.2407 L 132.3162 14.2407 L 132.3162 4.669 L 129.5607 4.669 L 129.5607 0.6083 Z"/></g></g><g id="ID0.2444923808798194"><g id="id74"><path id="ID0.7219294807873666" fill="none" stroke="none" stroke-width=".145" d="M 147.3988 0.4633 L 159.5809 0.4633 L 159.5809 14.5307 L 147.3988 14.5307 L 147.3988 0.4633 Z"/><path id="ID0.7860429375432432" fill="#FFF" stroke="none" stroke-width=".145" d="M 147.3988 0.6083 L 151.3145 0.6083 L 153.1998 0.6083 C 155.2302 0.6083 156.8255 0.8984 157.6956 1.6235 C 158.4207 2.3486 158.7108 3.2188 158.7108 4.379 C 158.7108 4.9591 158.5658 5.5392 158.2757 6.1193 C 157.9857 6.4093 157.5506 6.8444 156.9705 7.2795 C 157.8406 7.7146 158.2757 8.0046 158.7108 8.5847 C 159.1459 9.0198 159.2909 9.7449 159.2909 10.47 C 159.2909 11.4852 158.8558 12.5004 157.9857 13.2255 C 157.2605 13.9506 156.2454 14.2407 155.2302 14.2407 L 147.3988 14.2407 L 147.3988 0.6083 Z M 154.07 4.814 C 154.07 4.379 153.9249 4.0889 153.7799 3.9439 C 153.4899 3.7989 153.1998 3.7989 152.9098 3.7989 L 152.0396 3.7989 L 152.0396 5.9742 C 152.6197 5.9742 153.0548 5.8292 153.3448 5.8292 C 153.7799 5.6842 154.07 5.2491 154.07 4.814 Z M 153.0548 11.0501 C 153.4899 11.0501 153.7799 10.9051 154.07 10.7601 C 154.505 10.6151 154.6501 10.325 154.6501 9.8899 C 154.6501 9.4549 154.505 9.1648 154.215 9.0198 C 153.9249 8.8748 153.4899 8.7297 153.0548 8.7297 L 152.0396 8.7297 L 152.0396 11.0501 L 153.0548 11.0501 Z"/></g></g><g id="ID0.14158340264111757"><g id="id75"><path id="ID0.7998609589412808" fill="none" stroke="none" stroke-width=".145" d="M 160.016 0.4633 L 172.9233 0.4633 L 172.9233 14.8208 L 160.016 14.8208 L 160.016 0.4633 Z"/><path id="ID0.8482947498559952" fill="#FFF" stroke="none" stroke-width=".145" d="M 160.161 0.6083 L 165.0919 0.6083 L 165.0919 8.5847 C 165.0919 9.0198 165.2369 9.4549 165.382 9.7449 C 165.672 10.035 165.9621 10.18 166.3971 10.18 C 166.8322 10.18 167.2673 10.035 167.4123 9.5999 C 167.5573 9.1648 167.7024 8.7297 167.7024 8.2947 L 167.7024 0.6083 L 172.6332 0.6083 L 172.6332 9.0198 C 172.6332 10.7601 172.0531 12.2103 170.8929 13.2255 C 169.8777 14.0957 168.4275 14.5307 166.5422 14.5307 C 164.5118 14.5307 163.0615 14.0957 161.9013 13.2255 C 160.7411 12.2103 160.161 10.6151 160.161 8.7297 L 160.161 0.6083 Z"/></g></g><g id="ID0.8450399897992611"><g id="id76"><path id="ID0.17226403392851353" fill="none" stroke="none" stroke-width=".145" d="M 174.2285 0.4633 L 179.5944 0.4633 L 179.5944 14.5307 L 174.2285 14.5307 L 174.2285 0.4633 Z"/><path id="ID0.21185893472284079" fill="#FFF" stroke="none" stroke-width=".145" d="M 174.3735 0.6083 L 179.3044 0.6083 L 179.3044 14.2407 L 174.3735 14.2407 L 174.3735 0.6083 Z"/></g></g><g id="ID0.9288396253250539"><g id="id77"><path id="ID0.08170175645500422" fill="none" stroke="none" stroke-width=".145" d="M 180.6096 0.4633 L 190.1813 0.4633 L 190.1813 14.5307 L 180.6096 14.5307 L 180.6096 0.4633 Z"/><path id="ID0.87787707708776" fill="#FFF" stroke="none" stroke-width=".145" d="M 180.7546 0.6083 L 185.6855 0.6083 L 185.6855 9.8899 L 190.0363 9.8899 L 190.0363 14.2407 L 180.7546 14.2407 L 180.7546 0.6083 Z"/></g></g><g id="ID0.33638644265010953"><g id="id78"><path id="ID0.47281399415805936" fill="none" stroke="none" stroke-width=".145" d="M 190.9064 0.4633 L 204.5388 0.4633 L 204.5388 14.5307 L 190.9064 14.5307 L 190.9064 0.4633 Z"/><path id="ID0.8550409851595759" fill="#FFF" stroke="none" stroke-width=".145" d="M 190.9064 0.6083 L 195.6923 0.6083 C 198.3027 0.6083 200.3331 1.0434 201.7833 2.0586 C 203.3786 3.2188 204.2487 5.1041 204.2487 7.7146 C 204.2487 9.5999 203.6686 11.1952 202.5084 12.3554 C 201.2032 13.6606 199.753 14.2407 197.8676 14.2407 L 190.9064 14.2407 L 190.9064 0.6083 Z M 199.3179 7.4245 C 199.3179 6.5543 199.0278 5.8292 198.3027 5.3941 C 197.8676 5.1041 196.9975 4.814 196.1273 4.814 L 195.9823 4.814 L 195.9823 10.18 L 195.9823 10.18 C 196.9975 10.18 197.8676 10.035 198.3027 9.5999 C 199.0278 9.1648 199.3179 8.4397 199.3179 7.4245 Z"/></g></g><g id="ID0.8688702839426696"><g id="id79"><path id="ID0.7583858403377235" fill="none" stroke="none" stroke-width=".145" d="M 205.2639 0.4633 L 210.6299 0.4633 L 210.6299 14.5307 L 205.2639 14.5307 L 205.2639 0.4633 Z"/><path id="ID0.07923046313226223" fill="#FFF" stroke="none" stroke-width=".145" d="M 205.4089 0.6083 L 210.4848 0.6083 L 210.4848 14.2407 L 205.4089 14.2407 L 205.4089 0.6083 Z"/></g></g><g id="ID0.1399145578034222"><g id="id80"><path id="ID0.9558317055925727" fill="none" stroke="none" stroke-width=".145" d="M 211.645 0.4633 L 225.7125 0.4633 L 225.7125 14.5307 L 211.645 14.5307 L 211.645 0.4633 Z"/><path id="ID0.883485650178045" fill="#FFF" stroke="none" stroke-width=".145" d="M 211.645 0.6083 L 216.2859 0.6083 C 216.866 1.3334 217.301 2.0586 217.8811 2.7837 C 218.3162 3.6538 218.8963 4.379 219.3314 5.1041 C 219.7665 5.6842 220.2015 6.5543 220.7816 7.4245 L 220.7816 0.6083 L 225.4224 0.6083 L 225.4224 14.2407 L 220.7816 14.2407 C 219.9115 13.2255 219.1864 12.0653 218.4612 10.9051 C 217.7361 9.8899 217.156 8.8748 216.2859 7.5695 C 216.2859 7.7146 216.2859 8.0046 216.4309 8.4397 C 216.4309 8.7297 216.4309 8.8748 216.4309 9.0198 L 216.2859 12.5004 L 216.4309 14.2407 L 211.645 14.2407 L 211.645 0.6083 Z"/></g></g><g id="ID0.5269670374691486"><g id="id81"><path id="ID0.47447189781814814" fill="none" stroke="none" stroke-width=".145" d="M 226.2926 0.1732 L 241.5203 0.1732 L 241.5203 14.8208 L 226.2926 14.8208 L 226.2926 0.1732 Z"/><path id="ID0.6477666175924242" fill="#FFF" stroke="none" stroke-width=".145" d="M 236.1543 5.5392 C 235.8643 5.2491 235.5742 4.9591 235.2842 4.814 C 234.8491 4.524 234.559 4.524 234.124 4.524 C 233.2538 4.524 232.5287 4.814 232.0936 5.3941 C 231.6585 5.8292 231.3685 6.5543 231.3685 7.4245 C 231.3685 8.4397 231.6585 9.1648 232.0936 9.7449 C 232.5287 10.47 233.2538 10.7601 234.269 10.7601 C 234.7041 10.7601 234.9941 10.6151 235.4292 10.47 C 235.7192 10.18 236.0093 9.8899 236.1543 9.4549 L 233.6889 9.4549 L 233.6889 6.2643 L 241.2302 6.2643 L 241.2302 7.1344 C 241.2302 9.3098 240.5051 11.1952 239.1999 12.5004 C 237.8946 13.9506 236.0093 14.5307 233.8339 14.5307 C 231.6585 14.5307 229.9182 13.9506 228.468 12.5004 C 227.0177 11.1952 226.2926 9.4549 226.2926 7.4245 C 226.2926 5.2491 227.0177 3.5088 228.323 2.2036 C 229.7732 0.8984 231.5135 0.3183 233.6889 0.3183 C 235.1391 0.3183 236.5894 0.6083 237.6046 1.0434 C 238.9098 1.6235 239.925 2.6387 240.6501 3.7989 L 236.1543 5.5392 Z"/></g></g><g id="ID0.3249438516795635"><g id="id82"><path id="ID0.5279852673411369" fill="none" stroke="none" stroke-width=".145" d="M 241.5203 0.1732 L 253.1223 0.1732 L 253.1223 14.8208 L 241.5203 14.8208 L 241.5203 0.1732 Z"/><path id="ID0.12621606420725584" fill="#FFF" stroke="none" stroke-width=".145" d="M 243.1155 9.3098 C 243.6956 9.7449 244.2757 10.035 244.7108 10.325 C 245.2909 10.6151 245.871 10.7601 246.4511 10.7601 C 246.7412 10.7601 247.0312 10.6151 247.3213 10.6151 C 247.6113 10.325 247.7564 10.18 247.7564 9.8899 C 247.7564 9.5999 247.3213 9.3098 246.3061 9.1648 C 245.0009 8.7297 244.1307 8.4397 243.5506 8.1496 C 242.5354 7.4245 242.1004 6.4093 242.1004 5.1041 C 242.1004 3.6538 242.6805 2.4936 243.8407 1.6235 C 245.0009 0.7533 246.1611 0.3183 247.7564 0.3183 C 248.4815 0.3183 249.3516 0.4633 250.2218 0.6083 C 250.8019 0.7533 251.527 1.1884 252.5422 1.6235 L 251.237 5.1041 C 250.8019 4.814 250.2218 4.524 249.6417 4.379 C 249.0616 4.0889 248.4815 4.0889 248.0464 4.0889 C 247.9014 4.0889 247.6113 4.0889 247.4663 4.2339 C 247.1763 4.379 247.1763 4.524 247.1763 4.669 C 247.1763 4.9591 247.6113 5.2491 248.6265 5.5392 C 249.9317 5.8292 250.8019 6.2643 251.382 6.5543 C 252.3972 7.2795 252.8322 8.2947 252.8322 9.5999 C 252.8322 11.0501 252.2521 12.3554 251.0919 13.2255 C 249.9317 14.0957 248.6265 14.5307 247.0312 14.5307 C 246.1611 14.5307 245.1459 14.3857 244.2757 14.0957 C 243.4056 13.9506 242.5354 13.5156 241.5203 12.9355 L 243.1155 9.3098 Z"/></g></g></g></svg>