<svg version="1.1" xmlns="http://www.w3.org/2000/svg" xmlns:xlink="http://www.w3.org/1999/xlink" width="86.017" height="65.9746" viewBox="0,0,86.017,65.9746"><g transform="translate(-196.5575,-147.3651)"><g data-paper-data="{&quot;isPaintingLayer&quot;:true}" fill-rule="nonzero" stroke="none" stroke-linecap="butt" stroke-linejoin="miter" stroke-miterlimit="10" stroke-dasharray="" stroke-dashoffset="0" style="mix-blend-mode: normal"><path d="M239.566,147.3651l43.0085,32.9873l-43.0085,32.9873l-43.0085,-32.9873zM196.5575,147.3651zM282.5745,213.3397z" fill="#70a12e" stroke-width="0.04598"/><path d="M239.79351,183.95945c2.28115,0 4.34985,0.58508 5.84739,1.53063c1.49754,0.94555 2.42394,2.25155 2.42394,3.69337c0,1.44182 -0.92639,2.74781 -2.42394,3.69337c-1.49754,0.94555 -3.56625,1.53062 -5.84739,1.53062c-2.28115,0 -4.34984,-0.58508 -5.84738,-1.53062c-1.49754,-0.94555 -2.42394,-2.25155 -2.42394,-3.69337c0,-1.44182 0.92639,-2.74781 2.42394,-3.69337c1.49754,-0.94555 3.56624,-1.53063 5.84738,-1.53063z" fill="#66942b" stroke-width="1"/><g stroke-width="1"><path d="M253.08264,165.83411c-0.00102,0.52346 -0.04863,1.05187 0.00631,1.56941c0.12728,1.19895 -0.35085,2.28292 -0.60647,3.40592c-0.09637,0.42335 -0.55252,0.62936 -0.86882,0.91111c-0.07747,0.06899 -0.10505,0.07667 -0.20952,-0.01077c-0.57614,-0.48217 -0.59285,-0.47543 -0.79824,0.22464c-0.3407,1.16116 -1.10214,1.97511 -2.09532,2.61646c-0.47364,0.30587 -0.62272,0.15678 -0.61252,-0.35406c0.00458,-0.22922 -0.04708,-0.45955 -0.08616,-0.80306c-0.36317,0.31119 -0.53779,0.71266 -0.93869,0.8211c-0.28996,-0.25688 -0.20789,-0.61907 -0.24604,-0.9385c-0.03265,-0.27342 0.13841,-0.46409 0.42023,-0.47511c0.61954,-0.02421 0.72628,-0.45202 0.756,-0.93249c0.05151,-0.83285 -0.02275,-1.66503 -0.03631,-2.49716c0.48112,-0.32709 0.84081,-0.29007 1.13039,0.11756c0.09779,0.13767 0.13082,0.30337 0.19639,0.45494c0.07244,0.16749 0.14044,0.44414 0.35063,0.36326c0.25701,-0.09889 0.04143,-0.31568 -0.01774,-0.47521c-0.21342,-0.57526 -0.63511,-1.05748 -0.75303,-1.67623c0.24046,-0.63934 0.72779,-1.11128 1.12379,-1.64508c0.17645,-0.23786 0.36807,-0.49362 0.14776,-0.77411c-0.67993,-0.86571 -0.47001,-1.54934 0.3869,-2.12621c0.2759,-0.09042 0.46868,0.02423 0.61741,0.24848c0.27954,0.62188 0.60257,1.16966 1.38619,1.27859c0.35992,0.05003 0.62455,0.3279 0.74689,0.69652z" fill="#294216"/><path d="M238.30766,172.58141c-0.09812,0.16087 -0.17032,0.34689 -0.29854,0.4785c-0.86847,0.89148 -1.21452,0.70683 -1.68568,-0.03147c0.02656,-0.06646 0.06611,-0.12694 0.11633,-0.17791c0.1872,-0.19676 0.38616,-0.42704 0.19588,-0.68771c-0.20438,-0.27998 -0.42187,0.00574 -0.62734,0.07715c-0.08912,0.03335 -0.18049,0.06045 -0.27341,0.08106c-1.41668,-1.70322 -1.4575,-3.51754 -0.43599,-5.41601c0.08987,-0.16702 0.2277,-0.31518 0.17548,-0.52806c0.04711,-0.64084 0.6203,-0.95803 0.90668,-1.45325c0.14955,-0.25861 0.38185,-0.47362 0.58222,-0.70431c0.20057,-0.23837 0.41738,-0.46253 0.6489,-0.67096c0.54521,-0.49924 1.12475,-0.59449 1.77191,-0.22264c0.27711,0.37399 0.05234,0.78922 0.09828,1.18261c-0.00666,0.0729 -0.02514,0.14421 -0.05469,0.21115c-0.60473,0.78823 -0.64112,1.65784 -0.57682,2.62908c0.05993,0.90554 0.06867,1.87096 -0.36272,2.74316c-0.22,0.39626 -0.28373,0.86048 -0.17866,1.30137c0.09309,0.40111 0.06357,0.79238 -0.00181,1.18824z" fill="#78912d"/><path d="M244.55456,173.30999c-0.14515,-0.08299 -0.27715,-0.28341 -0.43084,0.01351c-0.12711,0.24561 -0.3035,0.46577 -0.45805,0.69721c-0.05221,0.00631 -0.12392,-0.00361 -0.1259,-0.0353c-0.04666,-0.74938 -0.14228,-1.49657 -0.17837,-2.24266c-0.05365,0.35808 0.05918,0.71797 0.08736,1.08115c0.05335,0.6876 0.01823,1.34432 -0.66527,1.76424c-0.20453,0.12566 -0.33242,0.34136 -0.48309,0.5267c-0.2713,0.33372 -0.65561,0.4937 -1.02176,0.32083c-0.48307,-0.22809 -0.81949,-0.00271 -1.19364,0.19573c-1.53311,-0.2963 -1.80296,-0.70965 -1.40784,-2.20002c0.11534,-0.43502 0.27371,-0.85868 0.41238,-1.28754c0.41749,0.05373 0.29922,0.53085 0.54973,0.72625c0.23791,-0.15506 0.20166,-0.49237 0.45968,-0.60579c0.50426,0.23077 0.17886,0.6564 0.23754,1.02086c1.47645,-0.89172 1.73606,-2.42169 2.08507,-3.89169c0.08423,-0.3548 -0.15566,-0.69254 -0.27025,-1.02309c-0.20066,-0.57889 -0.11118,-1.19696 -0.30745,-1.76973c-0.0672,-0.76258 0.41988,-1.43696 0.34653,-2.19984c0.00606,-0.25332 -0.00458,-0.50885 0.07891,-0.75359c0.20416,-0.13959 0.3965,-0.29027 0.45029,-0.55353c0.11114,-0.16341 0.27659,-0.27001 0.42082,-0.39976c0.10548,-0.08658 0.22016,-0.14248 0.36159,-0.10449c0.0587,0.02854 0.10822,0.07298 0.14295,0.12825c0.05764,0.28311 0.42594,0.40982 0.37928,0.74671c-0.11724,0.20678 -0.33411,0.2091 -0.52728,0.25946c-0.4157,0.18637 -0.3134,0.51956 -0.24433,0.84647c0.11318,0.53563 0.43859,0.98589 0.60248,1.50241c0.08973,1.06353 0.25816,2.12928 -0.11532,3.1746c-0.17288,0.59687 -0.00366,1.18766 0.03505,1.78064c0.02339,0.3583 0.27611,0.52298 0.55673,0.68764c0.46547,0.27311 0.76264,0.66465 0.66714,1.24059c-0.03773,0.22753 -0.07219,0.5181 -0.44409,0.3538z" fill="#2b4214"/><path d="M234.17492,167.72219c-0.1061,0.35583 -0.21765,0.70899 -0.48384,1.08284c-0.24527,-0.81269 -0.42137,-1.54531 -0.43499,-2.35595c-0.46748,0.11451 -0.84439,0.34519 -1.21258,0.60279c-0.30667,0.21457 -0.53218,0.26294 -0.6472,-0.22574c-0.07931,-0.33687 -0.12398,-0.62895 -0.01842,-0.97217c0.20342,-0.66135 0.40926,-1.3219 0.55406,-2.00354c0.16317,-0.76816 0.79299,-1.22172 1.34927,-1.71741c0.62227,-0.55451 1.44019,-0.84615 1.98467,-1.49962c0.17879,0.00603 0.32603,-0.15409 0.5152,-0.0982c0.80028,0.51887 1.25239,1.95302 0.91244,2.94821c-0.10809,0.34305 -0.23528,0.6798 -0.38099,1.00865c-0.43183,0.52742 -1.10043,0.71525 -1.62447,1.11853c-0.42399,0.32628 -0.6529,0.65046 -0.49998,1.19411c0.08414,0.2991 -0.01301,0.61103 -0.01317,0.91748z" fill="#819b30"/><path d="M241.26859,182.50641c0.11012,0.36438 0.07494,0.70519 -0.16473,1.0128c-0.7439,0.1952 -1.26131,1.04464 -1.06063,1.73019c0.11373,0.38855 0.57846,0.1671 0.75231,0.44418c0.0304,0.15194 -0.01522,0.30916 -0.12222,0.42123c-0.37816,0.02934 -0.73611,0.12928 -0.79145,0.5634c-0.05177,0.40615 -0.18888,0.86243 0.27915,1.15681c0.14442,0.09083 0.33615,0.24175 0.15942,0.38155c-0.57675,0.45625 -0.44524,1.10232 -0.52722,1.6947c-0.02117,0.09336 -0.07297,0.17693 -0.14716,0.23743c-0.49433,0.02051 -0.72693,-0.23013 -0.79098,-0.70858c-0.12296,-0.9186 -0.62292,-1.81519 -0.10192,-2.76904c0.07222,-0.1322 -0.06661,-0.36792 -0.07378,-0.55698c-0.02242,-0.5913 -0.16209,-1.13801 0.17935,-1.76652c0.24251,-0.44639 0.00245,-1.15934 -0.03812,-1.75224c-0.02369,-0.34656 -0.04986,-0.66992 0.3783,-0.80651c0.25169,-0.08029 0.26531,-0.30316 0.2672,-0.52798c0.00343,-0.40603 0.01306,-0.81197 0.0289,-1.21788c0.01413,-0.36577 -0.09392,-0.76886 0.37293,-0.98282c0.16637,-0.07624 0.10292,-0.30011 0.11114,-0.46224c0.0242,-0.47709 0.08833,-0.95788 0.05235,-1.43084c-0.04617,-0.60715 0.11609,-1.05364 0.7016,-1.29672c0.29855,-0.52348 0.77131,-0.48714 1.26269,-0.39202c0.07057,0.6645 -0.22975,1.21911 -0.42045,1.7441c0.24479,-0.05752 0.58886,-0.29676 0.95986,-0.0259c0.05148,0.1642 0.04504,0.31455 -0.10325,0.43101c-0.64153,0.32462 -1.09929,0.7634 -1.26823,1.52127c-0.17606,0.78981 -0.23454,0.7768 0.5013,1.06808c0.03862,0.15419 -0.01184,0.31704 -0.13083,0.42243c-0.60592,0.24532 -1.24617,1.38791 -1.12802,1.99863c0.03795,0.19613 0.1587,0.1968 0.31141,0.1745c0.22386,-0.03268 0.35603,-0.22476 0.55105,-0.306z" fill="#794228"/><path d="M242.09606,156.5981c0.19632,-0.29495 0.20529,-0.56234 -0.07655,-0.82337c-0.23127,-0.21419 -0.35625,-0.49641 -0.44379,-0.94501c1.16299,0.22126 2.31756,-0.27406 3.41819,0.30533c0.21731,1.36866 -0.05725,2.72288 -0.13913,4.0812c-0.02012,0.50251 -0.06672,1.00362 -0.13957,1.50122c-0.24449,0.52781 0.08131,1.16321 -0.30965,1.66334c-0.30123,0.11838 -0.39176,-0.10018 -0.44808,-0.31043c-0.10254,-0.38269 -0.30371,-0.38915 -0.64727,-0.28455c-0.61198,0.18631 -0.96438,-0.11443 -0.91823,-0.77501c0.02886,-0.41336 0.07496,-0.81247 -0.1549,-1.18542c-0.17478,-0.34959 -0.32434,-0.70467 -0.25339,-1.10989c0.15564,-0.6996 -0.03529,-1.41763 0.11238,-2.11744z" fill="#72892a"/><path d="M243.39062,163.52255c0.20099,-0.029 0.43371,0.06541 0.58668,-0.15041c0.9508,0.61364 1.9877,1.09348 2.89111,1.77351c0.42533,0.32037 0.71292,0.79051 0.8044,1.31506c0.05303,0.61084 0.22774,1.1994 0.32335,1.80196c0.05518,0.34775 0.13606,0.70136 -0.12682,1.01043c0.20798,0.86781 0.14369,1.75118 0.13936,2.62952c-0.00395,0.8009 -0.19657,0.98026 -1.00782,1.03647c-0.22536,0.01561 -0.24917,0.16257 -0.22155,0.35682c0.04333,0.3046 0.06375,0.61245 0.09386,0.91892c-0.0513,0.03612 -0.10257,0.07225 -0.15385,0.10837c-0.39926,-0.2971 -0.34259,-0.77008 -0.42743,-1.17661c-0.06872,-0.32924 -0.18391,-0.58299 -0.49362,-0.72934c-0.11966,-0.40971 0.09962,-0.668 0.38239,-0.92063c0.64083,-0.57254 0.63399,-0.8517 -0.04461,-1.3128c-0.3097,-0.21043 -0.4551,-0.46344 -0.43002,-0.83546c0.02116,-0.42911 -0.02606,-0.85886 -0.13986,-1.27317c-0.1092,-0.61439 -0.1774,-1.23431 -0.26364,-1.85094c-0.24805,-0.87716 -0.78311,-1.54766 -1.48901,-2.10586c-0.19041,-0.15058 -0.47583,-0.2616 -0.42289,-0.5959z" fill="#344d19"/><path d="M250.32597,157.56883c1.22023,0.55347 1.66785,1.86511 2.62213,2.68498c0.16905,0.14524 0.13628,0.46624 0.36233,0.67825c1.6862,1.58145 1.69436,1.5893 1.88592,3.85815c0.02696,0.31931 0.45688,0.76065 0.00197,0.95746c-0.30257,0.13092 -0.54214,-0.38053 -0.84861,-0.54113c-0.49375,-0.25871 -0.75171,-0.92915 -1.44944,-0.82916c-0.38783,-0.06754 -0.74504,-0.20132 -1.03683,-0.47783c0.20332,-0.82038 0.14039,-1.65481 0.114,-2.48436c-0.01952,-0.61319 -0.35665,-1.06932 -0.83316,-1.43156c-0.3874,-0.56508 -0.54463,-1.24029 -0.87816,-1.83262c-0.10495,-0.18639 -0.1259,-0.40535 0.05984,-0.58219z" fill="#284217"/><path d="M236.18538,164.49889c0.21642,-0.86541 0.65482,-1.70232 0.28821,-2.63695c-0.18771,-0.47852 -0.24402,-1.03589 -0.84889,-1.21997c0.22119,-0.68476 0.75493,-0.95249 1.44208,-1.07886c-0.30872,-0.10264 -0.6614,0.03947 -0.90376,-0.21815c-0.00354,-0.22553 0.17153,-0.28924 0.33154,-0.29441c0.994,-0.03202 1.0652,-0.8799 1.34347,-1.52387c0.1586,-0.36705 -0.14702,-0.41498 -0.42097,-0.4733c-0.35053,-0.07462 -0.63263,-0.20686 -0.21712,-0.58156c0.51457,-0.1999 1.05019,-0.17662 1.58618,-0.14919c-0.01283,0.45896 0.18941,0.71079 0.64689,0.86199c0.62025,0.20498 0.71201,0.47908 0.48742,1.09655c-0.24099,0.6625 -0.65448,1.2618 -0.72599,1.98641c-0.02372,0.25519 -0.09452,0.48202 -0.35941,0.59018c-0.24338,0.04992 -0.45989,-0.08049 -0.7814,-0.1291c0.23817,0.38201 0.3658,0.7445 0.32887,1.1431c-0.0238,0.31421 -0.17172,0.55562 -0.47799,0.63706c-0.71188,0.1893 -1.00614,0.64985 -0.95993,1.36433c0.00135,0.11931 -0.02542,0.23724 -0.07811,0.34428c-0.16916,0.23348 -0.35663,0.42358 -0.68105,0.28146z" fill="#687f27"/><path d="M245.70954,168.12089c0.19529,0.37162 0.25697,0.79903 0.1747,1.21069c-0.07552,0.42684 0.10819,0.60513 0.4481,0.7581c0.66135,0.29762 0.74007,1.07552 0.10729,1.45946c-0.37284,0.22622 -0.52924,0.50491 -0.58563,0.89359c0.29805,0.37263 0.20337,0.80528 0.15043,1.21255c-0.09133,0.70272 -0.28879,0.79005 -0.99282,0.50813c0.06576,-0.40108 -0.34895,-0.54539 -0.45711,-0.85346c0.47047,-0.12322 0.29572,-0.50807 0.26215,-0.7726c-0.05756,-0.39139 -0.3746,-0.69306 -0.76836,-0.73113c-0.3229,-0.02282 -0.34456,-0.13163 -0.37821,-0.35541c-0.10849,-0.72162 -0.34344,-1.43545 -0.12568,-2.17577c0.69242,-0.43953 1.3153,-1.0092 2.16511,-1.15415z" fill="#506720"/><path d="M239.07845,160.20484c-0.18128,-0.56697 0.35415,-0.91779 0.43133,-1.41207c0.03163,-0.20251 0.17588,-0.3861 0.26004,-0.58206c0.21092,-0.49115 0.12083,-0.77703 -0.47121,-0.90854c-0.74747,-0.16603 -0.84444,-0.42038 -0.51249,-0.97954c0.4372,0.01291 0.79293,0.2398 1.15871,0.44029c0.14511,0.12755 0.43418,-0.03791 0.50286,0.24592c-0.16823,0.53702 0.02987,0.90333 0.44529,1.27771c0.52049,0.46905 0.98444,1.00554 1.49592,1.49018c0.26309,0.34398 0.33823,0.7037 0.18362,1.1302c-0.10038,0.27693 -0.05599,0.569 0.21682,0.76945c0.26887,0.19755 0.45499,-0.02131 0.63134,-0.151c0.44279,-0.32565 0.58263,-0.04717 0.69479,0.31567c0.05383,0.17414 -0.04532,0.39128 0.14832,0.52639c0.13132,0.09614 0.26019,-0.02348 0.39112,-0.00563c0.14665,0.01277 0.28687,0.03815 0.36229,0.18796c-0.18097,0.37683 -0.54813,0.32449 -0.86995,0.37859c-0.22999,-0.01392 -0.44668,-0.11256 -0.6082,-0.27687l0.00756,0.00707c-0.12913,-0.13217 -0.27813,-0.20568 -0.46812,-0.15845c0.06122,0.09402 0.10801,0.19667 0.17305,0.28839c-0.13886,0.10024 -0.27772,0.20049 -0.41659,0.30073c-0.35624,-0.25889 -0.43709,-0.68186 -0.62457,-1.04126c-0.30206,-0.54956 -0.86334,-0.79838 -1.33847,-1.1454c-0.12155,-0.08878 -0.25372,-0.06751 -0.40068,-0.001c-0.66338,0.30027 -0.87133,0.2307 -1.23228,-0.38112c-0.05991,-0.10155 -0.07696,-0.22556 -0.1605,-0.31566z" fill="#3e561a"/><path d="M244.98505,162.50911c-0.14949,-0.00087 -0.299,-0.00175 -0.44851,-0.00263c-0.00948,-0.57463 -0.11379,-1.14935 0.0012,-1.7239c0.03215,-1.75918 0.38767,-3.49993 0.30068,-5.26599c-0.01469,-0.14511 0.04365,-0.28804 0.15568,-0.38145c0.39356,0.16491 0.78564,0.33411 1.18158,0.49374c0.37432,0.1509 0.60126,0.44824 0.55977,0.8224c-0.07693,0.69364 0.30987,0.98308 0.86721,1.17754c0.15593,0.33577 -0.12238,0.46796 -0.30852,0.63025c-1.16048,1.01192 -1.72773,2.34534 -2.0774,3.79832c-0.03847,0.17032 -0.07796,0.34049 -0.23171,0.45169z" fill="#284314"/><path d="M245.11098,162.06109c0.11092,-1.05335 0.5083,-2.05618 1.14904,-2.89959c0.40343,-0.5435 0.89181,-1.02407 1.34239,-1.53278c0.40714,0.03211 0.57045,-0.49042 0.98851,-0.43285c0.36957,0.06105 0.74131,0.09291 1.08914,0.26612c0.50781,0.2529 0.56434,0.48295 0.18166,0.92106c-0.20498,0.23468 -0.48073,0.3888 -0.69733,0.60974c-0.78768,0.96518 -1.65716,1.85959 -2.45144,2.81953c-0.25334,0.32261 -0.58768,0.5723 -0.96893,0.72368c-0.19318,0.0729 -0.37829,0.29918 -0.58707,0.12564c-0.18464,-0.1535 -0.10823,-0.39272 -0.04595,-0.60055z" fill="#7b922c"/><path d="M237.19993,156.47182c-0.22037,0.415 0.05066,0.46139 0.34521,0.41734c0.63935,-0.09563 0.68462,0.23625 0.50112,0.69063c-0.18729,0.46377 -0.43071,0.90469 -0.64175,1.35923c-0.11106,0.23921 -0.31023,0.25684 -0.53656,0.26467c-0.22893,0.00791 -0.48607,-0.08416 -0.67173,0.14063c0.02264,0.12083 -0.00787,0.17466 -0.13492,0.10674c-0.09556,-0.1451 -0.24988,-0.14972 -0.38349,-0.11441c-0.97131,0.2567 -1.93955,0.525 -2.90437,0.78843c0.168,-1.16968 2.73199,-3.29153 4.4265,-3.65326z" fill="#7e9730"/><path d="M240.09226,172.31362c-0.09181,0.33386 -0.1656,0.67623 -0.40511,0.96961c-0.42092,-0.30578 -0.28821,-0.83642 -0.59769,-1.13922c-0.01013,-0.17535 -0.0203,-0.35058 -0.03048,-0.52569c-0.32477,-0.88418 -0.01682,-1.70787 0.24433,-2.53556c0.05612,-0.17786 0.09697,-0.36921 0.30739,-0.44205c0.36773,-0.00035 0.70165,-0.11099 1.03109,-0.27147c0.24482,-0.11926 0.50252,-0.32477 0.79338,-0.07973c0.06511,1.51208 -0.04198,2.96693 -1.34291,4.02414z" fill="#6a8228"/><path d="M236.18538,164.49889l0.58327,-0.26618c0.16142,-0.07838 0.30227,-0.11653 0.28898,0.1472c-0.52774,0.66568 -1.05547,1.33136 -1.58322,1.99704c-0.65468,0.23466 -0.82263,0.93846 -1.29937,1.34496c-0.24067,-0.47707 -0.12724,-1.0178 -0.27174,-1.51708c-0.06718,-0.23213 0.18634,-0.35783 0.3542,-0.48977c0.5932,-0.47891 1.24018,-0.88707 1.92788,-1.21621z" fill="#23350e"/><path d="M249.03137,158.91059c0.2048,-0.45597 1.10714,-0.52969 0.85257,-1.10947c-0.14383,-0.32754 -0.84359,-0.41155 -1.29299,-0.60526c0.68004,-0.34769 1.1854,0.11555 1.73505,0.373c-0.03787,0.63543 0.49675,1.04726 0.63312,1.61609c0.05998,0.25012 0.14693,0.49379 0.22165,0.74038c-0.42307,0.56569 -1.13274,0.62595 -1.59798,0.11557c-0.29009,-0.31824 -0.50828,-0.68518 -0.55143,-1.13031z" fill="#465d1f"/><path d="M239.64608,190.14871c0.00031,-0.31027 0.02813,-0.62354 -0.00531,-0.93014c-0.05554,-0.50924 0.07569,-0.8898 0.84972,-1.09905c-1.20352,-0.1407 -0.75949,-0.87821 -0.83354,-1.40116c-0.07175,-0.50671 0.33126,-0.62141 0.67283,-0.79206c0.22634,-0.11309 0.30133,-0.00491 0.3435,0.18872c-0.07888,1.10034 0.06499,2.21594 -0.29847,3.29871c-0.13372,0.39836 -0.25572,0.71498 -0.72874,0.73498z" fill="#382319"/><path d="M239.64284,168.68778c-0.27363,0.70265 -0.4917,1.41581 -0.57501,2.17331c-0.0284,0.25824 0.52831,0.52159 -0.00903,0.75713c-0.33605,0.25421 -0.5041,0.63923 -0.75103,0.96306c-0.06473,-0.86504 -0.58577,-1.73834 0.04614,-2.59111c0.22784,-0.30207 0.35516,-0.66339 0.56097,-0.97435c0.181,-0.27346 0.2922,-0.67759 0.75997,-0.61348c0.06216,0.08978 0.04849,0.21167 -0.032,0.28545z" fill="#2b4013"/><path d="M241.96263,175.47658c-0.45322,-0.00341 -0.84188,0.19422 -1.22966,0.39399c-0.15388,-0.24783 -0.48057,-0.02813 -0.64801,-0.2392c0.28168,-0.36943 0.46885,-0.96056 1.10232,-0.36766c0.15855,0.1484 0.46736,0.1118 0.69294,0.00832c0.84606,-0.38814 1.49602,-1.70629 1.39722,-2.71103c-0.03231,-0.32873 -0.3243,-0.669 0.0539,-1.12037c0.34412,0.89152 0.32333,1.73832 0.33437,2.58c-0.12513,0.47911 -0.59671,0.7229 -0.78754,1.1573c-0.27287,0.19837 -0.48275,0.58939 -0.91553,0.29863z" fill="#657a27"/><path d="M251.91644,163.9562c0.41606,-0.06487 0.7352,0.0962 0.98387,0.42126c0.23941,0.46319 0.32767,0.9453 0.18234,1.45662c-0.39931,-0.26838 -0.74581,-0.55104 -1.28159,-0.65644c-0.48577,-0.09556 -0.87968,-0.61839 -0.89684,-1.23931c0.34237,-0.27517 0.67691,-0.10693 1.01222,0.01785z" fill="#152508"/><path d="M245.01162,174.16341c0.81501,0.15969 0.85146,-0.36755 0.83898,-0.94405c-0.00561,-0.25875 0.00181,-0.51776 0.00336,-0.77666c0.34445,-0.19357 0.51412,-0.0868 0.57343,0.29875c0.0815,0.52969 0.19319,1.05474 0.29197,1.58175c-0.51681,0.45126 -1.20605,0.522 -1.77928,0.87466c-0.13996,-0.40055 -0.01188,-0.71549 0.07156,-1.03448z" fill="#294216"/><path d="M241.26859,182.50641c-0.04688,0.58947 -0.54386,0.50188 -0.90599,0.56628c-0.24268,0.04313 -0.22503,-0.15336 -0.17671,-0.34076c0.1367,-0.53012 0.21928,-1.07718 0.39429,-1.59351c0.14291,-0.4216 0.40977,-0.76656 0.95394,-0.49897c-0.25885,0.59805 -0.43687,1.20773 -0.26552,1.86697z" fill="#362118"/><path d="M240.37463,157.05176c-0.14328,-0.09627 -0.28655,-0.19257 -0.42981,-0.28884c0.70432,-0.22078 1.44834,0.0758 2.15119,-0.1648c0.26819,0.7244 0.20488,1.45354 0.0312,2.18424c-0.66974,-0.49043 -1.06559,-1.2576 -1.75255,-1.7306z" fill="#4e601d"/><path d="M241.66499,180.21688l-0.90056,0.06199c0.15747,-1.81147 0.58405,-2.48875 1.66745,-2.65125c-0.35157,0.83468 -0.89707,1.61214 -0.76689,2.58926z" fill="#382218"/><path d="M240.79555,185.69358c-0.21383,-0.00267 -0.42902,0.00794 -0.64092,-0.01358c-0.10805,-0.01097 -0.29771,-0.0728 -0.30164,-0.12324c-0.04287,-0.56382 0.04085,-1.13012 0.24505,-1.6574c0.14281,-0.37164 0.50826,-0.53314 0.90957,-0.55059c0.02952,-0.00128 0.06399,0.11123 0.09621,0.17064c-0.42229,0.67938 -0.21267,1.44838 -0.30827,2.17419z" fill="#372117"/><path d="M241.96263,175.47658c0.3477,0.03074 0.6025,-0.22276 0.91546,-0.29857c-0.46298,0.61366 -0.26073,1.34014 -0.34291,2.01847c-1.15381,0.17178 -1.15419,0.17165 -0.80173,-0.98765c0.07439,-0.2447 0.15269,-0.4882 0.22918,-0.73225z" fill="#322016"/><path d="M236.06132,159.45106c0.04496,-0.03559 0.08993,-0.07117 0.13491,-0.10676c0.45505,0.06247 0.952,-0.16056 1.56122,0.32886c-1.00418,-0.04676 -1.6052,0.39647 -2.13278,0.9688c-0.12041,0.0367 -0.24204,0.11904 -0.35854,-0.00884c0.17824,-0.45198 0.49227,-0.81328 0.79517,-1.18205z" fill="#273911"/><path d="M235.73492,172.32104c0.05817,-0.07373 0.10177,-0.1718 0.17716,-0.21668c0.23857,-0.14205 0.47574,-0.38867 0.76005,-0.30055c0.1931,0.05985 0.23831,0.33038 0.23904,0.55229c0.00132,0.39652 -0.21066,0.60625 -0.58775,0.67232c-0.29245,-0.15583 -0.42465,-0.44474 -0.5885,-0.70737z" fill="#50641f"/><path d="M251.91644,163.9562c-0.34054,0.1708 -0.6731,-0.11437 -1.01228,-0.01777c-0.15678,-0.16047 -0.36419,-0.26182 -0.58713,-0.28694c-0.04135,-0.05571 -0.06517,-0.12248 -0.06842,-0.19178c0.11207,-0.74528 -0.09892,-1.47102 -0.15132,-2.20594c-0.04374,-0.61339 -0.25601,-0.6983 -0.79057,-0.39305c-0.82839,0.47301 -1.66755,0.9298 -2.48788,1.55752c0.54048,0.07419 1.04282,0.09383 1.53209,0.19272c0.22711,0.04592 0.49357,0.01479 0.58862,0.31083c-0.10749,0.38283 -0.43233,0.56941 -0.7165,0.79386c-1.14242,-0.19999 -2.29301,-0.34622 -3.43602,-0.53905c-0.25076,-0.0423 -0.59772,0.01661 -0.66763,-0.3754c0.2838,-0.11143 0.61526,-0.08194 0.86568,-0.29208c0.01492,-0.15689 -0.02984,-0.33058 0.12605,-0.44792c0.0759,0.24045 -0.18848,0.73038 0.50929,0.3682c1.02203,-0.5305 1.51208,-1.52069 2.28812,-2.25253c0.40819,-0.39073 0.78369,-0.81423 1.12274,-1.26627c0.19553,0.08435 0.22804,0.27106 0.30964,0.44216c0.45758,0.9594 0.8328,1.06943 1.83991,0.5725c0.71275,0.053 0.87203,0.68763 0.94769,1.15247c0.13142,0.80724 0.0469,1.64946 0.05413,2.477c0.0017,0.19519 -0.1952,0.25601 -0.26619,0.40145z" fill="#5f7623"/><path d="M250.32176,163.51094c0.00046,0.04699 -0.0011,0.09386 -0.00471,0.14065c0.18396,0.3306 -0.07304,0.42202 -0.29312,0.51041c-0.44523,0.17881 -0.5435,0.49629 -0.25305,0.83968c0.71687,0.84755 0.44575,1.51898 -0.28515,2.1672c-0.29971,0.26579 -0.38065,0.71743 -0.74263,0.94347c-0.19023,-0.63029 -0.90442,-0.90342 -1.06325,-1.55544c0.44592,-0.46108 0.76711,-1.01939 1.17352,-1.5105c0.30645,-0.3703 0.33655,-0.64178 -0.14792,-0.88331c-0.18782,-0.09364 -0.45981,-0.18606 -0.403,-0.50396c-0.09411,-0.46663 0.4022,-0.46538 0.57332,-0.72182c0.63269,-0.18778 1.05971,0.14171 1.446,0.57363z" fill="#475e1e"/><path d="M247.71405,166.5511c0.2957,0.55155 1.1371,0.74433 1.02894,1.56132c0.33068,0.62518 0.65334,1.25484 0.99572,1.87359c0.13964,0.25237 0.13145,0.45116 -0.11453,0.61193c-0.30702,0.20068 -0.42142,-0.07294 -0.56033,-0.24911c-0.07933,-0.09035 -0.1315,-0.20132 -0.15041,-0.32006c-0.04406,-0.68158 -0.47833,-0.80471 -1.04411,-0.75564c0.05893,-0.8349 -0.2307,-1.61835 -0.36586,-2.42425c-0.02793,-0.16655 -0.10408,-0.31569 0.06223,-0.44517c0.08049,0.00257 0.14525,0.06694 0.14834,0.1474z" fill="#17290b"/><path d="M237.05764,164.37993c-0.05516,-0.1297 -0.16986,-0.14274 -0.28898,-0.14717c-0.0718,-0.93108 -0.01155,-1.76711 1.19671,-1.91822c0.25048,-0.03133 0.24308,-0.31243 0.24907,-0.52687c0.34247,0.01667 0.32214,0.31508 0.37086,0.52258c0.10081,0.42942 0.33214,0.60864 0.77091,0.52244c0.77965,-0.15318 1.5725,-0.06472 2.35777,-0.12184c0.28644,0.07787 0.57319,0.15668 0.71269,0.46088c-0.14664,0.34354 -0.48817,0.34148 -0.77496,0.41652c-0.73812,0.19316 -0.74396,0.18736 -0.38464,0.8194c0.13273,0.23348 0.21892,0.47171 0.18681,0.74357c-0.16492,0.42112 -0.54686,0.67036 -0.80806,1.01635c-0.78427,-0.19592 -1.03689,-0.84788 -1.28903,-1.50028c0.00258,-0.04769 0.00513,-0.09538 0.00762,-0.14307c0.08372,-0.3272 0.39463,-0.46663 0.61069,-0.72368c-0.1179,-0.26532 -0.47098,-0.20611 -0.6105,-0.42694c-1.06697,-0.34606 -1.7215,0.25121 -2.30698,1.00634z" fill="#50661f"/><path d="M239.3568,164.66729c0.50848,0.41251 0.62833,1.17658 1.30385,1.43799c-0.25913,0.75228 -0.59024,1.47849 -0.8142,2.24388c-0.01965,0.06712 -0.11327,0.07125 -0.1864,0.05884c-0.61614,0.37855 -0.73593,1.16586 -1.30613,1.58222c0.25518,-0.99996 0.33243,-2.03701 0.22821,-3.06374c-0.07231,-0.72867 -0.11454,-1.72918 0.7747,-2.25919z" fill="#6a8228"/><path d="M239.36462,163.3736c0.33322,0.00509 0.80918,0.03255 0.89544,0.26984c0.13615,0.3746 -0.41946,0.41725 -0.61474,0.66696c-0.07009,0.08964 -0.18592,0.1436 -0.28085,0.21383c-0.22434,-0.38357 0.09969,-0.76707 0.00018,-1.15063z" fill="#6a8228"/><path d="M247.71405,166.5511c-0.04939,-0.04916 -0.09881,-0.0983 -0.14825,-0.14744c-0.43068,-0.94475 -1.19985,-1.51428 -2.11413,-1.93943c-0.56188,-0.26127 -1.12332,-0.53942 -1.47437,-1.0921c-0.30462,-0.14401 -0.50778,-0.34957 -0.43819,-0.72062c0.20417,-0.01063 0.4067,0.04159 0.58027,0.14964c1.02777,0.36153 2.12459,0.33085 3.17975,0.54649c0.35327,0.07219 0.68556,0.1522 1.00328,0.31151c0.28511,0.39054 1.04788,0.40687 1.04463,0.85716c-0.00281,0.38821 -0.47438,0.78463 -0.76641,1.15567c-0.25434,0.32314 -0.34084,0.82088 -0.86657,0.87911z" fill="#778f2b"/><path d="M240.09226,172.31362c0.13354,-0.43254 0.11572,-0.91136 0.72657,-1.09711c0.31937,-0.09711 0.45221,-0.60711 0.36988,-0.93162c-0.18124,-0.7143 0.11268,-1.34987 0.19098,-2.01941c-0.052,-0.61082 -0.01776,-1.19092 0.56288,-1.57636c0.08407,0.03675 0.24457,0.08409 0.24115,0.10874c-0.12106,0.87218 0.26363,1.63822 0.44945,2.45069c0.09529,0.41664 -0.17348,0.92124 -0.2951,1.3815c-0.3128,1.18389 -0.98852,2.14635 -1.85261,2.99158c-0.07529,0.07364 -0.15638,0.11329 -0.255,0.07379c-0.17251,-0.0691 -0.14623,-0.22552 -0.14578,-0.36626c0.00108,-0.33853 0.32568,-0.67451 0.00758,-1.01556z" fill="#5a7123"/><path d="M241.94257,166.68914c-0.3331,0.47364 -0.32234,1.06976 -0.56285,1.57637c-0.3448,0.1488 -0.6905,0.29545 -1.03399,0.44716c-0.23985,0.10592 -0.47744,0.24181 -0.7028,-0.02482c0.00563,-0.09332 0.0113,-0.18659 0.01707,-0.27983c0.3136,-0.77625 0.313,-1.68865 1.00064,-2.30271c-0.00363,-0.51124 0.53962,-0.62467 0.72688,-0.99703c0.25539,-0.3663 0.53227,-0.70479 1.01229,-0.78035c0.04152,0.82454 -0.35959,1.56357 -0.45726,2.36122z" fill="#778f2b"/><path d="M243.39062,163.52255c0.31236,0.28242 0.59538,0.60945 0.9434,0.83756c0.64205,0.42079 0.8587,1.07834 1.09512,1.73741c0.12311,0.22183 -0.00121,0.35219 -0.17535,0.4577c-0.1808,0.10957 -0.37002,0.20461 -0.55392,0.30916c-0.84678,0.48142 -0.91933,0.44167 -0.93799,-0.49286c-0.00276,-0.138 0.02933,-0.28311 -0.06465,-0.40729c-0.43643,-0.46846 -0.55871,-1.07737 -0.70108,-1.6638c-0.07718,-0.31796 -0.02751,-0.66644 0.39444,-0.77788z" fill="#778f2b"/><path d="M243.69725,165.96422c0.0166,0.01661 0.03425,0.0323 0.04959,0.04998c0.25079,0.28877 -0.10547,0.97806 0.24734,0.93714c0.57471,-0.07696 1.09302,-0.38536 1.43485,-0.85374c0.17783,0.66005 0.27204,1.33979 0.28044,2.02332c-0.71885,0.38995 -1.34181,0.95948 -2.16507,1.15413c0.37176,-1.08883 0.16359,-2.20436 0.15283,-3.31081z" fill="#627925"/><path d="M242.39983,164.32792c-0.30081,0.30749 -0.60305,0.61314 -1.01232,0.78028c-0.11521,-0.43515 -0.35172,-0.80596 -0.64133,-1.1399c-0.2648,-0.30532 -0.10812,-0.42921 0.19193,-0.43743c0.50261,-0.01377 0.96033,-0.21579 1.446,-0.29286c0.03931,0.03174 0.0633,0.07865 0.06603,0.12909c0.00273,0.05044 -0.01608,0.09967 -0.05174,0.13545c0.00047,0.27513 0.00095,0.55024 0.00142,0.82537z" fill="#244014"/><path d="M242.3984,163.50256c-0.00472,-0.08821 -0.00948,-0.17643 -0.01424,-0.2646c-0.14375,-0.21365 -0.50161,-0.14966 -0.58098,-0.44683c-0.13829,-0.12772 -0.15226,-0.29245 -0.14022,-0.46552c0.10916,-0.37427 0.28606,-0.62293 0.72204,-0.38253c0.14993,0.38202 0.29988,0.76408 0.44987,1.14613c-0.17056,0.61879 -0.17056,0.61879 -0.43649,0.41334z" fill="#778f2b"/><path d="M243.25155,162.78853c-0.38144,-0.02167 -0.3464,-0.39861 -0.52831,-0.60418c0.34207,0.05921 0.69019,0.08274 0.82337,0.4742c-0.11513,-0.0168 -0.22975,0.03369 -0.29505,0.12997z" fill="#778f2b"/><path d="M240.37463,157.05176c0.90115,0.25649 1.26572,1.05506 1.7524,1.73052c-0.02424,0.36085 0.15572,0.66794 0.26188,0.99443c-0.51917,-0.12124 -0.7899,-0.56898 -1.15465,-0.8894c-0.22915,-0.20131 -0.38464,-0.49929 -0.63325,-0.66272c-0.50632,-0.33289 -0.579,-0.69918 -0.22639,-1.17283z" fill="#203a13"/><path d="M244.53773,160.78257c0.01418,0.57467 0.10884,1.14936 -0.00101,1.72393c-0.11235,-0.00473 -0.21276,-0.03254 -0.2729,-0.13909c0.37247,-0.47978 -0.07566,-1.10109 0.27392,-1.58484z" fill="#5f7623"/><path d="M241.81376,162.36655c-0.00347,0.14155 -0.00697,0.28308 -0.01048,0.42462c-0.42014,0.26086 -0.88674,0.11314 -1.33217,0.14935c-0.14319,0.00931 -0.28682,0.01001 -0.43009,0.00209c-0.47356,-0.01863 -0.9788,0.34647 -1.39438,0.07191c-0.37956,-0.25076 -0.155,-0.8561 -0.43217,-1.22685c0.06269,-0.48651 -0.21284,-0.84269 -0.525,-1.23804c0.4436,-0.09604 0.76375,0.09536 1.09331,0.24049c1.01877,0.11899 1.8613,0.68449 2.76592,1.09193c0.20236,0.09115 0.1524,0.33576 0.2651,0.4845z" fill="#2b4515"/><path d="M241.81376,162.36655c-0.68117,-0.64607 -1.58181,-0.88842 -2.39283,-1.29524c-0.20753,-0.10408 -0.42512,-0.18812 -0.63815,-0.28126c0.19158,-0.14812 0.27209,-0.35229 0.29567,-0.58521c0.22561,0.1081 0.33198,0.32436 0.48455,0.50389c0.21241,0.24997 0.47144,0.54026 0.76802,0.0588c0.14178,-0.23014 0.35036,-0.24373 0.54509,-0.08772c0.51189,0.4101 1.15136,0.66951 1.50898,1.26319c-0.31722,-0.02934 -0.54924,0.05581 -0.5713,0.42355z" fill="#576b1f"/><path d="M250.32176,163.51094c-0.48675,-0.17919 -0.9088,-0.52117 -1.44598,-0.57359c-0.80211,-0.31554 -1.66316,-0.24043 -2.73182,-0.35375c1.00449,-0.62663 1.82898,-1.14234 2.65522,-1.65519c0.16108,-0.09997 0.33263,-0.18315 0.49324,-0.2838c0.64559,-0.40452 0.9448,-0.32854 0.97315,0.41723c0.03093,0.81319 0.43764,1.6279 0.05616,2.44908z" fill="#758d2a"/></g><g stroke-width="1"><path d="M250.95034,183.62412c0.10802,0.8925 -0.50879,1.33243 -1.01736,1.74528c-0.38232,0.31039 -0.90133,0.15104 -1.33284,-0.14719c-0.62311,-0.43064 -0.48084,-0.99037 -0.31529,-1.56664c0.01459,-0.05077 0.01864,-0.1045 0.02937,-0.15649c0.18945,-0.9172 0.17997,-2.18173 1.44447,-2.10804c1.31337,0.07654 0.84871,1.48749 1.19166,2.23308z" fill="#4b392a"/><path d="M248.24295,196.12181c1.31514,-0.12204 2.00186,0.8449 2.31075,1.88951c0.17032,0.576 -0.46995,1.30972 -1.25742,1.37226c-0.88608,0.07039 -2.38914,-1.51331 -2.42398,-2.44214c-0.02816,-0.75058 0.12297,-0.84608 1.37064,-0.81963z" fill="#674933"/><path d="M230.96267,187.93603c-0.83069,0.09492 -1.7124,-0.34361 -1.57152,-1.08583c0.1931,-1.01719 1.33274,-1.36554 2.31808,-1.4402c0.47726,-0.03617 0.97802,0.3361 1.4787,0.48886c0.99782,0.30446 0.6193,0.83911 0.15171,1.23709c-0.6578,0.56623 -1.51066,0.8533 -2.37697,0.80008z" fill="#624835"/></g></g></g></svg>