<svg xmlns="http://www.w3.org/2000/svg" xmlns:xlink="http://www.w3.org/1999/xlink" width="24.336" height="18.939" version="1.1" viewBox="0.116 -0.471 24.336 18.939"><g id="ID0.8559770211577415"><g id="ID0.5509724728763103"><g id="ID0.926967881154269"><g id="container-id1"><g id="id1"><g id="ID0.5499575794674456"><g id="ID0.7513383445329964"><g id="id6"><path id="ID0.7197263478301466" fill="none" stroke="none" stroke-width=".019" d="M 0.642 0.029 L 23.9333 0.029 L 23.9333 17.9481 L 0.642 17.9481 L 0.642 0.029 Z"/><path id="ID0.21323765255510807" fill="#3D3D3D" stroke="none" stroke-width=".019" d="M 12.4857 15.036 L 12.4857 15.036 C 12.2216 14.8613 11.9765 14.6672 11.7502 14.4924 C 11.5616 14.3565 11.3918 14.2206 11.2221 14.1042 C 10.8826 13.8518 10.562 13.6188 10.2414 13.3858 C 9.9397 13.1529 9.6379 12.9199 9.3362 12.6869 C 9.1853 12.5705 9.0155 12.454 8.8458 12.3181 C 8.28 11.9104 7.7143 11.5027 7.1485 11.0756 C 7.0542 10.9979 6.9787 10.9397 6.8844 10.8814 C 6.5827 10.7649 6.3375 10.5126 6.0735 10.3184 C 5.9792 10.2602 5.8849 10.1825 5.7717 10.1243 C 5.5077 9.9301 5.3946 9.6389 5.1494 9.4254 C 4.9231 9.2118 4.7345 8.9789 4.5647 8.7071 C 4.3573 8.3576 4.0555 8.1052 3.7161 7.9305 C 3.4709 7.7752 3.2069 7.7946 2.9617 7.9499 C 2.7354 7.7752 2.5091 7.6005 2.2639 7.4451 C 2.0942 7.3092 1.8867 7.1539 1.717 7.0375 C 1.5284 6.8821 1.3398 6.7462 1.1701 6.6298 C 1.1135 6.5909 1.0946 6.5521 1.0569 6.5133 C 0.9437 6.358 0.8306 6.1832 0.7174 6.0279 C 0.6797 5.9891 0.6609 5.9503 0.642 5.892 C 0.642 5.7561 0.6231 5.6202 0.6231 5.4649 C 0.6043 5.3873 0.6231 5.329 0.6609 5.2708 C 0.774 4.999 0.8872 4.7272 1.0003 4.4554 C 1.038 4.3389 1.1323 4.2612 1.2078 4.1448 C 1.3775 3.9118 1.5661 3.6982 1.7547 3.4653 C 1.8113 3.407 1.8679 3.3488 1.9433 3.2905 C 2.4902 2.9217 3.0371 2.5528 3.6029 2.1839 C 4.1498 1.8151 4.6779 1.4462 5.2248 1.0773 C 5.3946 0.9609 5.5831 0.9026 5.7529 0.825 C 5.9981 0.7085 6.2432 0.592 6.4884 0.4755 C 6.6581 0.3978 6.8279 0.3202 6.9976 0.2425 C 7.1108 0.2037 7.2051 0.1455 7.3182 0.1066 C 7.4314 0.0484 7.5257 0.029 7.6577 0.0678 C 7.9594 0.1649 8.2423 0.2231 8.5252 0.3202 C 8.5818 0.3396 8.6572 0.3396 8.7138 0.3396 C 8.7327 0.359 8.7704 0.359 8.7892 0.3784 C 8.7892 0.3978 8.7892 0.3978 8.7892 0.3978 C 8.8081 0.3978 8.8081 0.3978 8.8081 0.3978 C 8.827 0.5143 8.7327 0.5143 8.6572 0.5337 C 8.1857 0.6891 7.7331 0.8444 7.2616 0.9609 C 6.677 1.0968 6.1678 1.3685 5.6586 1.6598 C 4.8853 1.9704 4.263 2.5528 3.6406 3.077 C 3.4143 3.2905 3.2069 3.5041 3.056 3.7953 C 2.9051 4.0865 2.7165 4.3777 2.5279 4.7078 C 2.7354 4.7078 2.924 4.6689 3.0937 4.6495 C 3.7726 4.533 4.4516 4.436 5.1494 4.3389 C 5.2248 4.3195 5.2814 4.3001 5.3568 4.3583 C 5.3757 4.3583 5.3757 4.3971 5.3757 4.4166 C 5.338 4.4554 5.2814 4.4748 5.2437 4.4748 C 4.6402 4.7272 4.0555 4.999 3.452 5.2125 C 3.3955 5.2514 3.3012 5.2514 3.2823 5.329 C 3.2634 5.4067 3.3577 5.4455 3.4143 5.4843 C 4.6779 6.3968 5.9038 7.3092 7.1485 8.2411 C 8.0914 8.9206 9.0155 9.6195 9.9397 10.299 C 10.6563 10.8232 11.373 11.3668 12.1462 11.9104 C 12.1273 11.7162 12.0519 11.5415 12.0142 11.3862 C 11.9199 11.0756 11.8256 10.7649 11.7313 10.4737 C 11.7124 10.3961 11.6936 10.3184 11.6936 10.2602 C 11.6936 10.2019 11.7124 10.1437 11.7313 10.1049 C 11.7502 10.0855 11.769 10.0855 11.769 10.0855 C 11.8067 10.1049 11.8067 10.1243 11.8256 10.1437 C 11.8256 10.1631 11.8445 10.1825 11.8445 10.2019 C 11.8633 10.2214 11.8633 10.2602 11.8633 10.2796 C 11.8822 10.299 11.8822 10.3184 11.8822 10.3184 C 11.901 10.3573 11.901 10.3767 11.9199 10.4155 C 11.9199 10.4349 11.9199 10.4349 11.9387 10.4543 C 11.9576 10.4932 11.9765 10.5126 11.9953 10.5514 C 12.2216 11.1144 12.4102 11.6774 12.6365 12.2404 C 12.8817 12.4928 13.1835 12.6869 13.4664 12.8811 C 14.9562 14.0071 16.465 15.0749 17.9549 16.1815 C 18.0492 16.2591 18.1435 16.3368 18.1435 16.4533 C 18.1435 16.5697 18.1246 16.6668 18.068 16.7833 C 17.9926 17.0551 17.9549 17.3075 17.9737 17.5793 C 17.9737 17.6958 17.9737 17.7928 17.8983 17.8511 C 17.7663 17.9287 17.6154 17.9093 17.4645 17.9676 C 17.4268 17.9676 17.3891 17.9481 17.3514 17.9287 C 17.2759 17.8899 17.2005 17.8511 17.1439 17.7928 C 16.9553 17.7928 16.8233 17.6763 16.6724 17.5793 C 16.2953 17.3657 15.9181 17.1328 15.5597 16.9192 C 15.4277 16.861 15.3334 16.7833 15.258 16.6668 C 15.2203 16.6086 15.2014 16.5697 15.1637 16.5309 C 14.7677 16.1621 14.4282 15.7544 14.051 15.3661 C 13.787 15.0943 13.4852 14.9001 13.1269 14.8225 C 12.9006 14.7837 12.6743 14.7642 12.5422 15.0166 C 12.5234 15.036 12.4857 15.036 12.4857 15.036 Z"/><path id="ID0.5980842281132936" fill="#313131" stroke="none" stroke-width=".019" d="M 12.0708 2.3198 L 12.0708 2.3198 C 12.2594 2.4363 12.4668 2.611 12.6554 2.7275 C 13.1835 3.1158 13.7304 3.5041 14.2585 3.8924 C 14.6545 4.1642 15.0317 4.4554 15.4277 4.7272 C 15.5786 4.8437 15.7295 4.9407 15.8804 5.0572 C 15.9369 5.096 15.9935 5.1155 15.9558 5.1931 C 15.7106 5.5426 15.3523 5.795 15.0505 6.1056 C 14.7865 6.358 14.5036 6.5909 14.2396 6.8627 C 14.1264 6.9792 14.0133 7.0763 13.8813 7.1345 C 13.0515 7.5616 12.2594 7.9887 11.4107 8.3964 C 11.3352 8.4353 11.2598 8.4741 11.1844 8.4547 C 10.9015 8.3382 10.6563 8.1246 10.3923 7.9305 C 8.9967 6.8627 7.5634 5.8532 6.1678 4.8242 C 5.9415 4.6495 5.7152 4.533 5.5643 4.3389 C 5.602 4.1448 5.7529 4.0283 5.8472 3.873 C 6.3187 3.2129 6.9787 2.7664 7.6011 2.2616 C 7.6388 2.2616 7.6577 2.2422 7.6765 2.2422 C 7.6954 2.2228 7.6954 2.2228 7.7143 2.2034 C 7.752 2.2034 7.752 2.2034 7.7897 2.1839 C 7.8085 2.1645 7.8085 2.1645 7.8274 2.1451 C 7.8463 2.1451 7.8651 2.1451 7.8651 2.1257 C 7.884 2.1257 7.9028 2.1063 7.9217 2.1063 C 8.0726 2.0286 8.2235 1.951 8.3555 1.8539 C 8.9024 1.485 9.5248 1.3103 10.1471 1.0968 C 10.2225 1.0773 10.2791 1.0579 10.3546 1.0773 C 10.562 1.2327 10.7695 1.388 10.9958 1.5239 C 11.3541 1.7957 11.7124 2.048 12.0708 2.3198 Z"/><path id="ID0.20991120440885425" fill="#262626" stroke="none" stroke-width=".019" d="M 12.4857 15.036 L 12.4857 15.036 C 12.4857 15.0166 12.5045 14.9972 12.5234 14.9584 C 12.58 14.7837 12.7497 14.7448 12.9194 14.7448 C 13.1269 14.7642 13.3532 14.7837 13.5229 14.939 C 13.787 15.036 13.9944 15.2302 14.2019 15.4243 C 14.315 15.5408 14.4282 15.6767 14.5036 15.8126 C 14.5602 15.9097 14.6168 15.9485 14.6922 16.0067 C 14.8997 16.1815 15.1071 16.3756 15.258 16.5697 C 15.3523 16.7056 15.4466 16.8027 15.5786 16.8998 C 15.5786 16.9969 15.5032 17.0551 15.4466 17.1133 C 15.2203 17.2492 14.994 17.424 14.7865 17.5793 C 14.6168 17.6763 14.447 17.7346 14.2396 17.6958 C 14.2396 17.6958 14.2396 17.6958 14.2207 17.6958 C 13.9756 17.6375 13.7681 17.521 13.5607 17.3657 C 13.4286 17.2687 13.3343 17.1522 13.24 17.0357 C 12.976 16.7833 12.8063 16.4727 12.6365 16.1621 C 12.4857 15.8126 12.4291 15.4243 12.4857 15.036 Z"/><path id="ID0.7878994774073362" fill="#262626" stroke="none" stroke-width=".019" d="M 2.9617 7.9499 L 2.9617 7.9499 C 3.0371 7.814 3.188 7.7946 3.3012 7.7558 C 3.32 7.7364 3.3577 7.7558 3.3766 7.7752 C 3.4709 7.7752 3.5652 7.814 3.6406 7.8334 C 3.6972 7.8334 3.7161 7.8528 3.7538 7.8723 C 3.9424 8.0276 4.1498 8.1441 4.3196 8.3382 C 4.5082 8.5517 4.6779 8.7653 4.7911 8.9983 C 4.8288 9.0371 4.8476 9.0759 4.8853 9.1148 C 5.1305 9.3089 5.338 9.5613 5.5454 9.8137 C 5.602 9.9107 5.7152 9.9884 5.7717 10.0855 C 5.7717 10.1631 5.7152 10.2019 5.6586 10.2408 C 5.47 10.3767 5.2814 10.5126 5.0739 10.629 C 4.9231 10.7261 4.7345 10.7649 4.5647 10.7067 C 4.1876 10.6485 3.9235 10.3961 3.6784 10.1243 C 3.4709 9.9107 3.3012 9.6389 3.1503 9.3671 C 3.0937 9.2895 3.056 9.1924 3.0371 9.1148 C 2.9994 9.0177 2.9806 8.9012 2.924 8.7847 C 2.9051 8.7265 2.8863 8.6294 2.8863 8.5517 C 2.8674 8.3382 2.8674 8.1441 2.9617 7.9499 Z"/><path id="ID0.5798938474617898" fill="#484858" stroke="none" stroke-width=".019" d="M 10.3546 1.0773 L 10.3546 1.0773 C 9.9397 1.2327 9.5059 1.3685 9.091 1.5239 C 8.9024 1.5821 8.7327 1.6986 8.5441 1.8151 C 8.3178 1.9316 8.0914 2.048 7.8651 2.1645 C 7.8463 2.0286 7.7331 1.9704 7.5822 1.9316 C 7.1862 1.7957 6.7524 1.7568 6.3187 1.718 C 6.1112 1.6986 5.866 1.7374 5.6397 1.6209 C 5.7717 1.5044 5.9603 1.4462 6.1112 1.3685 C 6.1866 1.3103 6.2621 1.2909 6.3187 1.2521 C 6.5073 1.1356 6.7147 1.0579 6.9222 0.9997 C 7.4314 0.8444 7.9217 0.6891 8.412 0.5532 C 8.5252 0.5143 8.6384 0.4949 8.7327 0.4561 C 8.7704 0.4561 8.7892 0.4173 8.8081 0.3978 C 8.8458 0.3784 8.8835 0.3978 8.9213 0.3978 C 9.2041 0.5337 9.5059 0.6891 9.7888 0.8055 C 9.9774 0.9026 10.166 0.9803 10.3546 1.0773 Z"/><path id="ID0.737728176638484" fill="#1F1F1F" stroke="none" stroke-width=".019" d="M 23.2166 13.4829 L 23.2166 13.4829 C 23.3675 13.4635 23.5184 13.4441 23.6881 13.4441 C 23.7447 13.4441 23.8201 13.4635 23.9522 13.5412 C 23.839 13.6188 23.7258 13.7159 23.6127 13.7935 C 23.3298 13.9877 23.0658 14.1818 22.7829 14.3954 C 22.6509 14.473 22.5188 14.5701 22.3868 14.6672 C 22.0096 14.939 21.6325 15.1913 21.2741 15.4826 C 21.029 15.6379 20.8026 15.8126 20.5575 15.9679 C 20.1049 16.2785 19.6711 16.6086 19.2185 16.9386 C 18.9544 17.1328 18.6527 17.3075 18.4075 17.5404 C 18.4075 17.5404 18.4075 17.5404 18.4075 17.5404 C 18.3887 17.5404 18.3698 17.5599 18.3509 17.5793 C 18.3509 17.5793 18.3321 17.5793 18.3132 17.5793 C 18.2944 17.5987 18.2944 17.5987 18.2755 17.6181 C 18.2566 17.6181 18.2566 17.6181 18.2566 17.6181 C 18.2566 17.6375 18.2378 17.6375 18.2378 17.6375 C 18.2189 17.6569 18.2001 17.6569 18.2001 17.6763 C 18.0869 17.6181 18.1812 17.5599 18.2001 17.521 C 18.4075 17.2881 18.5772 17.0357 18.8036 16.8221 C 19.0864 16.5697 19.3505 16.3368 19.5768 16.0067 C 20.7084 15.2108 21.8211 14.3954 22.9715 13.5994 C 23.0281 13.5412 23.1035 13.4635 23.2166 13.4829 Z"/><path id="ID0.8244834863580763" fill="#A3A2A2" stroke="none" stroke-width=".019" d="M 19.6145 16.0067 L 19.6145 16.0067 C 19.6145 16.0844 19.5579 16.1426 19.5014 16.2009 C 19.275 16.4338 19.0487 16.6668 18.8036 16.8998 C 18.5772 17.1328 18.3887 17.3657 18.1812 17.5987 C 18.1435 17.6375 18.1623 17.6569 18.2001 17.6763 C 18.1246 17.7734 18.0303 17.8317 17.8983 17.8511 C 17.8983 17.6763 17.8983 17.4822 17.8983 17.2881 C 17.8983 17.1716 17.936 17.0745 17.9737 16.958 C 18.0303 16.7833 18.068 16.5892 18.1058 16.4144 C 18.1435 16.3368 18.2001 16.298 18.2944 16.2785 C 18.6715 16.1815 19.0487 16.1038 19.4259 15.9873 C 19.5014 15.9873 19.5579 15.9873 19.6145 16.0067 Z"/><path id="ID0.9958756691776216" fill="#C4C4F5" stroke="none" stroke-width=".019" d="M 8.7892 0.3784 L 8.7892 0.3784 C 8.7515 0.3978 8.7327 0.3784 8.7138 0.3396 C 8.7327 0.3396 8.7704 0.3396 8.7892 0.3784 Z"/><path id="ID0.17204775055870414" fill="#929292" stroke="none" stroke-width=".019" d="M 18.3509 17.5793 L 18.3509 17.5793 C 18.3509 17.5404 18.3698 17.521 18.4075 17.5404 C 18.3887 17.5599 18.3698 17.5793 18.3509 17.5793 Z"/><path id="ID0.0728209507651627" fill="#A3A2A2" stroke="none" stroke-width=".019" d="M 18.2755 17.6181 L 18.2755 17.6181 C 18.2755 17.5793 18.2944 17.5793 18.3132 17.5793 C 18.2944 17.6181 18.2944 17.6181 18.2755 17.6181 Z"/><path id="ID0.35263131419196725" fill="#A3A2A2" stroke="none" stroke-width=".019" d="M 18.2378 17.6375 L 18.2378 17.6375 C 18.2378 17.6375 18.2378 17.6181 18.2566 17.6181 C 18.2566 17.6375 18.2566 17.6569 18.2378 17.6375 Z"/><path id="ID0.30188264790922403" fill="#313131" stroke="none" stroke-width=".019" d="M 19.6145 16.0067 L 19.6145 16.0067 C 19.1807 16.1232 18.747 16.2203 18.2944 16.3368 C 18.2378 16.3562 18.1812 16.3756 18.1058 16.4144 C 18.068 16.3562 18.0303 16.298 17.9737 16.2785 C 17.7474 16.1038 17.5023 15.9291 17.2571 15.7544 C 16.9553 15.5214 16.6347 15.269 16.3141 15.036 C 16.1067 14.8807 15.8804 14.7448 15.6729 14.5701 C 15.3146 14.3177 14.9562 14.0653 14.6168 13.7935 C 14.5036 13.7159 14.3905 13.6188 14.2773 13.5412 C 13.9567 13.3276 13.6361 13.0752 13.3343 12.8423 C 13.108 12.6869 12.8817 12.5316 12.6743 12.3569 C 12.6365 12.3569 12.6177 12.3181 12.58 12.2987 C 12.9006 12.1045 13.24 11.9686 13.5795 11.7939 C 14.3905 11.4444 15.1826 11.0562 15.9935 10.7067 C 16.2387 10.6096 16.4461 10.4932 16.6347 10.2796 C 17.1251 9.7748 17.6343 9.2701 18.1246 8.7459 C 18.4075 8.4353 18.6904 8.1052 19.011 7.814 C 19.011 7.7946 19.0487 7.7752 19.0676 7.7752 C 19.0676 7.7752 19.0676 7.7752 19.0864 7.7752 C 19.3128 7.9887 19.5391 8.2023 19.7654 8.3964 C 20.1426 8.7847 20.5386 9.1536 20.9158 9.5224 C 21.1798 9.7748 21.425 10.0272 21.7079 10.2796 C 22.0096 10.5902 22.3303 10.8814 22.632 11.1726 C 22.7074 11.2503 22.7829 11.328 22.8583 11.3862 C 23.1223 11.6386 23.3864 11.9104 23.6504 12.1628 C 23.6881 12.1822 23.7258 12.2404 23.7447 12.2598 C 23.7824 12.2987 23.7824 12.3569 23.7824 12.3957 C 23.6316 12.6481 23.5184 12.9005 23.3675 13.1529 C 23.3109 13.2694 23.2732 13.3858 23.2166 13.4829 C 22.9526 13.6576 22.6697 13.8518 22.4057 14.0459 C 21.9154 14.3954 21.4061 14.7642 20.9158 15.1331 C 20.5952 15.3661 20.2746 15.5796 19.954 15.7932 C 19.8974 15.8514 19.822 15.8903 19.7465 15.9485 C 19.7277 15.9873 19.6711 15.9873 19.6145 16.0067 Z"/><path id="ID0.6365372873842716" fill="#484858" stroke="none" stroke-width=".019" d="M 19.0487 7.8334 L 19.0487 7.8334 C 18.9733 7.9111 18.8979 7.9887 18.8224 8.047 C 18.068 8.8624 17.2948 9.6583 16.5404 10.4737 C 16.4839 10.5126 16.4273 10.5708 16.3707 10.5902 C 16.2575 10.629 16.1632 10.7067 16.0124 10.7261 C 15.9935 10.6096 16.0689 10.5902 16.1444 10.5514 C 16.2764 10.4737 16.2953 10.3767 16.201 10.2602 C 16.1444 10.1631 16.0878 10.0855 16.0312 9.9884 C 15.39 9.1924 14.8431 8.3382 14.2207 7.484 C 14.1264 7.3481 13.9944 7.2316 13.8813 7.0957 C 13.9756 7.0375 14.0699 6.9598 14.1642 6.8627 C 14.7299 6.3385 15.2769 5.795 15.8426 5.2708 C 15.8804 5.2319 15.9181 5.2125 15.9558 5.1931 C 15.9935 5.1931 16.0501 5.1543 16.0689 5.2125 C 16.201 5.3096 16.333 5.3873 16.4461 5.5037 C 16.6913 5.7173 16.8988 5.9114 17.1439 6.1056 C 17.3325 6.2415 17.5211 6.4356 17.7097 6.5909 C 17.8983 6.7462 18.068 6.9016 18.2566 7.0375 C 18.3509 7.1151 18.4264 7.2122 18.5207 7.251 C 18.6904 7.3869 18.8413 7.5228 18.9733 7.6587 C 19.011 7.6975 19.0487 7.7364 19.0864 7.7752 C 19.0864 7.7752 19.0864 7.7752 19.0864 7.7752 C 19.0676 7.7752 19.0487 7.7946 19.0487 7.8334 Z"/><path id="ID0.8802320300601423" fill="#606076" stroke="none" stroke-width=".019" d="M 5.5831 4.3195 L 5.5831 4.3195 C 6.0546 4.6689 6.545 5.0184 7.0165 5.3873 C 7.4879 5.7173 7.9783 6.0667 8.4686 6.4356 C 8.9401 6.7851 9.4116 7.1345 9.9019 7.484 C 10.3168 7.7946 10.7318 8.1052 11.1655 8.4158 C 11.1655 8.4158 11.1655 8.4353 11.1844 8.4547 C 11.373 8.5906 11.3352 8.843 11.4295 9.0177 C 11.4861 9.2701 11.5616 9.5224 11.637 9.7748 C 11.6936 9.9301 11.7124 10.0855 11.7313 10.2214 C 11.7502 10.299 11.769 10.3573 11.769 10.4155 C 11.8445 10.6485 11.901 10.8814 11.9765 11.1144 C 12.033 11.3085 12.0896 11.5221 12.1651 11.7356 C 12.1839 11.7939 12.2028 11.8327 12.2028 11.8715 C 12.2028 11.9104 12.2216 11.9686 12.2028 11.988 C 12.1462 12.0269 12.1273 11.9686 12.0896 11.9492 C 11.7313 11.6774 11.373 11.425 11.0146 11.1532 C 10.7129 10.9397 10.4489 10.7261 10.1471 10.5126 C 9.6945 10.1825 9.2419 9.8331 8.7704 9.503 C 8.5063 9.2895 8.2235 9.0953 7.9406 8.8818 C 7.5822 8.6294 7.2051 8.3382 6.8467 8.0858 C 6.5827 7.8723 6.3187 7.6781 6.0358 7.484 C 5.6586 7.2122 5.2814 6.921 4.9042 6.6492 C 4.6213 6.4162 4.3196 6.2026 4.0178 5.9697 C 3.7726 5.795 3.5275 5.6202 3.2823 5.4455 C 3.2446 5.4067 3.1691 5.3873 3.1503 5.3096 C 3.2823 5.2125 3.4143 5.1737 3.5652 5.1155 C 3.8481 4.999 4.1498 4.8825 4.4516 4.766 C 4.7156 4.6495 4.9796 4.533 5.2437 4.4554 C 5.2814 4.4166 5.338 4.4554 5.3568 4.3971 C 5.3568 4.4166 5.3568 4.4166 5.3568 4.4166 C 5.4134 4.3195 5.47 4.2612 5.5831 4.3195 Z"/><path id="ID0.09237040393054485" fill="#4F4F61" stroke="none" stroke-width=".019" d="M 11.373 9.0177 L 11.373 9.0177 C 11.3164 8.94 11.3164 8.843 11.2975 8.7847 C 11.2598 8.6682 11.241 8.5517 11.1844 8.4547 C 11.373 8.377 11.5804 8.2799 11.769 8.1635 C 12.4291 7.8334 13.0892 7.484 13.7681 7.1345 C 13.787 7.1345 13.8435 7.1151 13.8813 7.0957 C 13.9001 7.1151 13.9378 7.1345 13.9567 7.1345 C 14.0321 7.1539 14.0699 7.2122 14.1076 7.251 C 14.3339 7.6005 14.5602 7.9305 14.8242 8.2411 C 14.994 8.4935 15.1826 8.7265 15.3523 8.9983 C 15.4089 9.0565 15.4466 9.1342 15.5032 9.1924 C 15.5786 9.3477 15.6729 9.4642 15.7861 9.6001 C 15.9935 9.8137 16.1632 10.066 16.2953 10.3184 C 16.3518 10.4155 16.333 10.4349 16.2764 10.5126 C 16.2387 10.5514 16.2198 10.5902 16.1632 10.6096 C 16.0878 10.6096 16.0501 10.6485 16.0124 10.7261 C 15.9935 10.7455 15.9747 10.7649 15.9369 10.7649 C 15.5597 10.9591 15.1637 11.1338 14.7865 11.328 C 14.447 11.4639 14.1264 11.6192 13.787 11.7745 C 13.4286 11.9298 13.0892 12.0851 12.7497 12.2598 C 12.6931 12.2792 12.6365 12.2987 12.58 12.2987 C 12.4291 11.8521 12.2594 11.4056 12.0896 10.9397 C 12.0519 10.8038 11.9953 10.6485 11.9387 10.5126 C 11.9199 10.4932 11.9199 10.4543 11.901 10.4349 C 11.901 10.4349 11.901 10.4349 11.901 10.4349 C 11.8633 10.3961 11.901 10.3378 11.8633 10.3184 C 11.8633 10.3184 11.8633 10.3184 11.8633 10.3184 C 11.8256 10.2602 11.8633 10.2019 11.8067 10.1825 C 11.8067 10.1825 11.8067 10.1825 11.8067 10.1825 C 11.8067 10.1437 11.8067 10.1243 11.7879 10.0855 C 11.7879 10.0855 11.7879 10.0855 11.7879 10.0855 C 11.6181 9.8331 11.5804 9.5224 11.4673 9.2507 C 11.4295 9.173 11.4107 9.0759 11.373 9.0177 Z"/><path id="ID0.49335492216050625" fill="#4F4F61" stroke="none" stroke-width=".019" d="M 5.5831 4.3195 L 5.5831 4.3195 C 5.5077 4.3195 5.4511 4.3971 5.3568 4.4166 C 5.3003 4.3389 5.2248 4.3583 5.1682 4.3777 C 4.9419 4.436 4.6968 4.4554 4.4516 4.4942 C 4.3384 4.5136 4.1876 4.533 4.0744 4.5525 C 3.9235 4.5719 3.8104 4.5913 3.6784 4.6107 C 3.3389 4.6689 2.9994 4.7078 2.6788 4.766 C 2.6034 4.766 2.5656 4.8048 2.4902 4.7854 C 2.4714 4.7854 2.4336 4.766 2.4525 4.7466 C 2.5091 4.6495 2.5656 4.533 2.6222 4.4166 C 2.8108 4.1253 2.9806 3.8147 3.1503 3.5041 C 3.2069 3.4264 3.2634 3.3488 3.3389 3.2905 C 3.7538 2.9217 4.1876 2.5528 4.6213 2.1645 C 4.659 2.1257 4.6968 2.1063 4.7533 2.0675 C 5.0362 1.9316 5.3003 1.7762 5.5831 1.6403 C 5.602 1.6403 5.6209 1.6209 5.6397 1.6209 C 5.7152 1.6209 5.8095 1.6209 5.8849 1.6403 C 6.1301 1.6598 6.3752 1.6403 6.6204 1.6986 C 6.6581 1.6986 6.6958 1.6986 6.7147 1.6986 C 7.0919 1.6986 7.4314 1.8151 7.7708 1.9316 C 7.7897 1.9316 7.8085 1.9316 7.8085 1.9316 C 7.9028 1.9704 7.9217 1.9898 7.9028 2.1063 C 7.884 2.1257 7.884 2.1451 7.8651 2.1645 C 7.8651 2.1645 7.8651 2.1645 7.8651 2.1645 C 7.8651 2.1839 7.8463 2.1839 7.8274 2.2034 C 7.8274 2.2034 7.8085 2.2034 7.8085 2.2034 C 7.7897 2.2034 7.752 2.2228 7.752 2.2422 C 7.7331 2.2616 7.7331 2.2616 7.7331 2.2616 C 7.7143 2.2616 7.7143 2.2616 7.7143 2.2616 C 7.6954 2.2616 7.6954 2.2616 7.6765 2.281 C 7.4125 2.4363 7.2051 2.6693 6.9599 2.844 C 6.7901 2.9799 6.6581 3.1158 6.4884 3.2323 C 6.3564 3.3294 6.2621 3.4459 6.1678 3.5623 C 5.9603 3.8147 5.7717 4.0865 5.5831 4.3195 Z"/><path id="ID0.2465158523991704" fill="#3D3D3D" stroke="#3D3D3D" stroke-width=".038" d="M 11.373 9.0177 L 11.373 9.0177 C 11.3918 9.0177 11.4295 9.0371 11.4295 9.0759 C 11.5427 9.3865 11.6559 9.6972 11.769 10.0272 C 11.7879 10.0466 11.7879 10.0855 11.7879 10.0855 C 11.7313 10.1243 11.7502 10.1825 11.7313 10.2214 C 11.6559 10.1437 11.6559 10.0272 11.6181 9.9496 C 11.5427 9.6583 11.4673 9.3671 11.373 9.0759 C 11.373 9.0565 11.373 9.0177 11.373 9.0177 Z"/><path id="ID0.09684816189110279" fill="#EE4854" stroke="none" stroke-width=".019" d="M 11.8067 10.1825 L 11.8067 10.1825 C 11.8633 10.2019 11.8633 10.2602 11.8633 10.3184 C 11.8067 10.2796 11.8067 10.2214 11.8067 10.1825 Z"/><path id="ID0.03953919326886535" fill="#D1D1FF" stroke="none" stroke-width=".019" d="M 5.3568 4.3971 L 5.3568 4.3971 C 5.338 4.4554 5.3003 4.4554 5.2437 4.4554 C 5.2814 4.4166 5.3191 4.4166 5.3568 4.3971 Z"/><path id="ID0.6693325778469443" fill="#EE4854" stroke="#3D3D3D" stroke-width=".038" d="M 11.8633 10.3184 L 11.8633 10.3184 C 11.901 10.3378 11.9199 10.3767 11.901 10.4349 C 11.8633 10.3961 11.8633 10.3573 11.8633 10.3184 Z"/><path id="ID0.48581429896876216" fill="#EE4854" stroke="none" stroke-width=".019" d="M 11.901 10.4349 L 11.901 10.4349 C 11.9387 10.4543 11.9387 10.4932 11.9387 10.5126 C 11.9199 10.4932 11.8822 10.4737 11.901 10.4349 Z"/><path id="ID0.2356218732893467" fill="#EE4854" stroke="none" stroke-width=".019" d="M 11.7879 10.0855 L 11.7879 10.0855 C 11.8067 10.1243 11.8256 10.1437 11.8067 10.1825 C 11.7879 10.1631 11.769 10.1437 11.7879 10.0855 Z"/><path id="ID0.06790122808888555" fill="#C4C4F5" stroke="none" stroke-width=".019" d="M 7.6765 2.281 L 7.6765 2.281 C 7.6765 2.2616 7.6954 2.2616 7.7143 2.2616 C 7.6954 2.2616 7.6954 2.281 7.6765 2.281 Z"/><path id="ID0.09332878701388836" fill="#C4C4F5" stroke="none" stroke-width=".019" d="M 7.752 2.2422 L 7.752 2.2422 C 7.752 2.2228 7.7708 2.2034 7.8085 2.2034 C 7.7897 2.2422 7.7708 2.2422 7.752 2.2422 Z"/><path id="ID0.17643386032432318" fill="#C4C4F5" stroke="none" stroke-width=".019" d="M 7.8274 2.2034 L 7.8274 2.2034 C 7.8463 2.1839 7.8651 2.1645 7.8651 2.1645 C 7.8651 2.2034 7.8651 2.2034 7.8274 2.2034 Z"/><path id="ID0.6944350725971162" fill="#929292" stroke="none" stroke-width=".019" d="M 19.0487 7.8334 L 19.0487 7.8334 C 19.0487 7.7946 19.0676 7.7752 19.0864 7.7752 C 19.0676 7.7946 19.0676 7.814 19.0487 7.8334 Z"/></g></g></g></g></g></g></g></g></svg>