<svg version="1.1" xmlns="http://www.w3.org/2000/svg" xmlns:xlink="http://www.w3.org/1999/xlink" width="86.017" height="65.9746" viewBox="0,0,86.017,65.9746"><g transform="translate(-196.5575,-147.3651)"><g data-paper-data="{&quot;isPaintingLayer&quot;:true}" fill-rule="nonzero" stroke="none" stroke-width="1" stroke-linecap="butt" stroke-linejoin="miter" stroke-miterlimit="10" stroke-dasharray="" stroke-dashoffset="0" style="mix-blend-mode: normal"><path d="M282.5745,180.3524l-43.0085,32.9873l-43.0085,-32.9873l43.0085,-32.9873z" fill="#70a12e"/><path d="M238.52636,159.12758c-0.60037,-0.0157 -1.03528,-0.09463 -1.04407,-0.67677c-0.00741,-0.49089 0.76311,-1.30391 1.16848,-1.18087c0.5122,0.15546 0.70722,0.66425 0.72613,1.15609c0.02571,0.66854 -0.60227,0.542 -0.85054,0.70156z" fill="#29241e"/><path d="M259.01923,178.43276c-0.58692,-0.02932 -1.02292,-0.09252 -1.01826,-0.69062c0.00403,-0.516 0.74058,-1.29734 1.16998,-1.16298c0.50393,0.15766 0.69658,0.65247 0.70363,1.1569c0.0094,0.67261 -0.58533,0.56159 -0.85536,0.6967z" fill="#2f271f"/><g><path d="M223.27762,181.34027c0.24475,-0.14304 0.47805,-0.47445 0.7633,-0.06886c0.51439,0.73146 1.07586,1.45272 1.30627,2.33792c0.34524,1.32629 0.16993,1.56702 -1.37854,2.3003c-0.5729,0.27441 -0.67989,-0.19008 -0.72798,-0.57095c-0.12525,-0.99189 -0.47714,-1.92581 -0.63101,-2.90822c-0.06143,-0.55345 0.25673,-0.85318 0.66799,-1.09021z" fill="#292019"/><path d="M223.27762,181.34027c-0.1165,0.33614 -0.51049,0.51596 -0.48069,0.93449c-0.2845,1.2535 -0.25473,2.61565 -1.15447,3.65644c-1.32351,-1.06529 -1.37939,-2.12938 -0.18629,-3.48113c0.48736,-0.55266 1.12193,-0.93929 1.82145,-1.10979z" fill="#785539"/><path d="M221.64245,185.93121c0.40287,-1.21259 0.43209,-2.55436 1.1546,-3.6564c0.29606,0.97044 0.70275,1.91343 0.70399,2.95889c0.00042,0.35592 0.08108,0.62508 0.46767,0.67589c-0.77182,0.43806 -1.54817,0.33363 -2.32626,0.02162z" fill="#4c3625"/></g><g><path d="M223.86819,187.9158c0.10769,-0.08349 0.23282,-0.19842 0.34643,-0.0439c0.28479,0.38738 0.58859,0.76269 0.71347,1.24794c0.16214,0.63003 -0.20532,0.86752 -0.71081,1.02087c-0.28402,0.13468 -0.3345,-0.0912 -0.37634,-0.26791c-0.12687,-0.53587 -0.31459,-1.06175 -0.30153,-1.62395c0.05271,-0.1667 0.19998,-0.24075 0.32878,-0.33304z" fill="#2a241d"/><path d="M223.86819,187.9158c-0.07561,0.07946 -0.15121,0.15893 -0.22682,0.23839c-0.034,0.51983 -0.2334,1.00309 -0.33436,1.50813c-0.03831,0.19162 -0.0765,0.38387 -0.26831,0.49228c-0.67996,-0.47412 -0.73638,-0.94876 -0.18999,-1.61009c0.26342,-0.31369 0.62091,-0.53416 1.01948,-0.62871z" fill="#775438"/><path d="M223.0387,190.15461c0.10782,-0.69139 0.31061,-1.36457 0.60261,-2.00048c0.11954,0.60822 0.23912,1.21637 0.35876,1.82447c0.02326,0.11782 0.12165,0.13903 0.21724,0.1621c-0.39004,0.24593 -0.78432,0.13027 -1.17861,0.01391z" fill="#4e3726"/></g></g></g></svg>